<?xml version="1.0" encoding="utf-8"?>
<!-- Generator: Adobe Illustrator 18.0.0, SVG Export Plug-In . SVG Version: 6.00 Build 0)  -->
<!DOCTYPE svg PUBLIC "-//W3C//DTD SVG 1.1//EN" "http://www.w3.org/Graphics/SVG/1.1/DTD/svg11.dtd">
<svg version="1.1" id="Layer_1" xmlns="http://www.w3.org/2000/svg" xmlns:xlink="http://www.w3.org/1999/xlink" x="0px" y="0px"
	 viewBox="0 0 88.5 77.8" enable-background="new 0 0 88.5 77.8" xml:space="preserve">
<path d="M49.2,51.3c-5.4-0.9-11.2-0.5-16-4.1c-0.5-0.4-1.1-0.6-1.7-0.8c-2.4-0.8-4.4-1.7-4.4-4.9c0-3.4,0.3-6.3,4-7.9
	c5-2.2,10.1-4,15.7-3.8c1.4,0.1,2.9,0.1,4.3-0.1c6.5-0.7,9.8,2.5,8.6,8.7C59.4,40,60.2,40.4,61,41c0.3,0.2,0.7,1,0.6,1.1
	c-0.4,0.4-1,0.9-1.4,0.8c-1.2-0.3-1.7,0.1-2,1.2c-0.4,1.2-0.9,2.5-1.7,3.4C54.7,49.9,52.7,52,49.2,51.3z M51.7,31.7
	c-3.8,0.5-6.7,1.1-9.5,1c-4.1-0.1-7.5,1.6-10.9,3.3c-1.4,0.7-2.4,3-2.7,4.7c-0.3,1.6,1.3,2.8,3,3.3c1.2,0.4,2.5,0.7,3.6,1.4
	c5.1,3.1,10.3,4.6,16.3,2.9c1.7-0.5,3-1.1,3.7-2.7c0.5-1.1,1.1-2.8,0.6-3.5c-1-1.4-1.7,0.6-2.7,0.8c-0.4,0.1-0.9,0-1.2-0.2
	c-0.2-0.1-0.2-0.6-0.1-0.9c0.2-0.6,0.5-1.2,0.9-1.7c0.8-1.3,1.1-4,3.4-1.2c0.1,0.1,0.9-0.1,1.2-0.4c1.7-2,1.4-4.2-0.9-5.6
	C54.6,32.3,52.7,32,51.7,31.7z"/>
<path d="M73.2,77.8c-5.5-1.2-9.8-4.2-12.6-9.3c-0.7-1.4-1.1-3-1.5-4.5c-0.8-2.6-0.2-5,2.1-6.3c3.4-2,6.2-5,10.4-5.8
	c1.8-0.3,3.2-2.5,4.8-3.7c0.3-0.2,1.1,0.1,1.6,0.1c0,0.4,0.1,1-0.2,1.3c-0.4,0.7-1.2,1.1-1.6,1.8c-0.6,0.9-0.2,1.6,0.8,1.6
	c2.5,0,4.7,0.7,6.9,1.8c2.9,1.5,4.3,3.8,4.4,6.9c0,1.3,0.1,2.6,0,3.9c-0.2,2.2,0.9,4.7-1,6.5c-2.2,2-4.6,4-7.8,4.5
	C77.5,76.9,75.5,77.3,73.2,77.8z M86.4,65.1c0-1.3,0.3-2.6-0.1-3.8c-0.4-1.3-1-2.8-2-3.6C81,55,77,54.9,73,54.7
	c-0.3,0-0.9,0.3-1,0.6c-0.4,2.1-1.4,1.7-2.7,0.7c-0.4-0.3-1.2-0.3-1.6,0c-1.1,0.6-2.1,1.4-3.2,2.1c-3.8,2.6-4.2,4.2-2.4,8.4
	c3.2,7.3,9.7,10.1,17.3,7.5C85.8,71.9,86.4,71.2,86.4,65.1z"/>
<path d="M47,21.1c-4,0.5-7.4-0.9-10.7-2.7c-3.9-2.2-4.3-6.7-1.7-10.2c2.8-3.6,6.5-5,10.7-5.5c3.7-0.4,7.3,0.2,10.5,2.5
	c2.1,1.4,3.1,3.1,3.4,5.5c0.1,0.8,0,1.6,0.1,2.4c0.3,2.1,0,2.6-1.9,3.7c-0.4,0.2-0.8,0.6-1.1,0.9C53.9,20.8,50.6,21.7,47,21.1z
	 M46.1,18.6c0-0.1,0.1-0.3,0.1-0.4c1.1,0,2.3-0.2,3.4,0c3.5,0.6,5.9-2,7.3-5.1c0.8-1.8,0.4-3.6-0.8-4.9c-1.4-1.4-3-2.9-5.4-2.7
	c-1.8,0.1-3.6,0.2-5.3,0c-3.9-0.5-6.7,1.1-9.1,4.1c-2.5,3.1-1.9,6,2,7.4C40.7,17.9,43.5,18.1,46.1,18.6z"/>
<path d="M20.5,9.2c0.7,4.4-4.8,9.5-7.8,9.9c-1.8,0.2-3.8-0.4-5.6-0.9c-4.8-1.3-6.9-3.6-7-7.4c-0.1-3.6,2.5-7.5,6.1-9
	c1.2-0.5,2.4-1,3.6-1.4C10,0.2,10.3-0.1,10.6,0c2.6,1,5.4,1.6,7.7,3.1C20.2,4.4,20.7,6.8,20.5,9.2z M12.5,3.7C6,3.2,4.6,5.2,2.7,7.5
	c-1.9,2.3-1.3,5.3,1.4,6.9c1.9,1.1,4,1.9,6.3,2c4.2,0.3,7.6-2.1,8-6.1C18.9,5,17.7,3.7,12.5,3.7z"/>
<path d="M75.2,20.4c-5.8-0.1-7.5-1.3-9-6.7c0-0.2-0.1-0.3-0.1-0.5c-0.5-1.5-0.9-2.9-1.4-4.4c2.8-0.5,4.3-4.1,7.6-3.4
	c0.5,0.1,1,0,1.4,0c6.4-0.5,10.4,2.8,9.8,10.4c-0.2,3-0.1,3.1-3.2,3.8C78.7,20.1,76.9,20.2,75.2,20.4z M81.5,13.6
	c0.2-1.8-0.2-3.8-2.3-4.6c-1.9-0.7-4-1.2-6-1.3c-3.4-0.2-5.9,3.8-4.6,6.9c0.9,2.2,2.6,3.3,4.7,3.4c1.7,0.1,3.5-0.3,5.1-0.7
	C81.5,16.7,81.5,16.6,81.5,13.6z"/>
</svg>
