<?xml version="1.0" encoding="utf-8"?>
<!-- Generator: Adobe Illustrator 18.0.0, SVG Export Plug-In . SVG Version: 6.00 Build 0)  -->
<!DOCTYPE svg PUBLIC "-//W3C//DTD SVG 1.1//EN" "http://www.w3.org/Graphics/SVG/1.1/DTD/svg11.dtd">
<svg version="1.1" id="Layer_1" xmlns="http://www.w3.org/2000/svg" xmlns:xlink="http://www.w3.org/1999/xlink" x="0px" y="0px"
	 viewBox="0 0 28 24.7" enable-background="new 0 0 28 24.7" xml:space="preserve">
<path d="M9.6,24.7c-2.5-0.5-4.5-1.5-6-3.3c-1-1.2-2.1-2.5-2.8-3.8c-0.5-0.9-0.9-2.7-0.5-3c1.8-1.5,1.4-3.9,2.5-5.5
	c0.8-1.2,1.5-2.7,2.7-3.3C8.9,3.8,12,1.3,16.1,0.4c6.4-1.4,9.6,0.5,11.2,7c0.3,1.1,0.8,2.2,0.8,3.2c0.1,4.3-1,8.1-5.3,9.8
	C18.4,22.1,13.9,23.3,9.6,24.7z M26,11c-0.2-0.7-0.7-1.7-0.7-2.8c-0.1-2-0.3-4.2-2.4-4.9c-1.9-0.6-3.8-1.6-6-0.8
	c-4.3,1.6-8,4.1-11.7,6.7C4.5,9.7,4,10.9,4,11.7c0,0.8,0.6,1.9,1.3,2.3C6,14.3,7,13.8,7.9,13.6c-0.2-0.7-0.3-1.4-0.6-2
	c-0.5-1.4-0.1-2.1,1.3-2c1.8,0.1,3,1.1,2.8,2.6c-0.2,1.9-0.6,3.8-1.1,5.6c-0.2,0.7-0.8,1.5-1.7,0.6c-0.5-0.4-1-0.9-1.5-0.9
	c-0.7,0-1.8,0.3-2,0.8c-0.3,0.5,0.1,1.8,0.5,2.1c1.3,0.7,3,1.8,4.3,1.5c3.7-0.7,7.5-1.7,11.1-3C24.4,17.7,26.1,14.9,26,11z"/>
</svg>
