<?xml version="1.0" encoding="utf-8"?>
<!-- Generator: Adobe Illustrator 18.0.0, SVG Export Plug-In . SVG Version: 6.00 Build 0)  -->
<!DOCTYPE svg PUBLIC "-//W3C//DTD SVG 1.1//EN" "http://www.w3.org/Graphics/SVG/1.1/DTD/svg11.dtd">
<svg version="1.1" id="Layer_1" xmlns="http://www.w3.org/2000/svg" xmlns:xlink="http://www.w3.org/1999/xlink" x="0px" y="0px"
	 viewBox="0 0 27.5 23" enable-background="new 0 0 27.5 23" xml:space="preserve">
<path d="M15.4,23c-4.7-0.2-8.5-2-12.1-4.1c-2.9-1.7-3.9-5.6-2.9-8.9c0.5-1.7,1.2-3.3,2-4.9c0.3-0.7,1-1.3,1.6-1.6
	c2.8-1.1,5.7-2.1,8.6-3c4.3-1.3,7.8,0,10.5,3.5c0.9,1.1,1.6,2.4,2.6,3.5c2.3,2.4,2.2,2.3,0.4,5.2c-0.9,1.3-1.3,2.9-2,4.3
	C22.3,20.9,19.1,22.5,15.4,23z M17.1,12.8c0.3-1.2,0.6-2.6,1.1-3.9c0.2-0.5,0.7-0.9,1.1-1.4c0.5,0.5,1.3,1,1.4,1.5
	c0.2,1.7,1.3,1.2,2,0.7c0.4-0.3,0.8-1.5,0.6-1.9c-1.2-1.7-2.6-3.2-4-4.8c-0.3-0.3-0.9-0.5-1.3-0.4c-3.7,1.1-7.6,0.7-11.2,2.4
	C3.7,6.6,2,8.7,2,12.1c0,2.7,1.7,4.9,4.7,6c1.5,0.6,3,1.1,4.5,1.7c4.6,1.9,9,0.2,11.2-4.4c0.2-0.5,0.4-1.6,0.2-1.7
	c-0.7-0.3-1.5-0.3-2.2-0.5c-0.1,0.5-0.2,1-0.3,1.5c-0.1,0.6-0.3,1.2-0.4,1.7c-0.7-0.4-1.6-0.6-2-1.1C17.3,14.8,17.3,13.9,17.1,12.8z
	"/>
</svg>
