<?xml version="1.0" encoding="utf-8"?>
<!-- Generator: Adobe Illustrator 18.0.0, SVG Export Plug-In . SVG Version: 6.00 Build 0)  -->
<!DOCTYPE svg PUBLIC "-//W3C//DTD SVG 1.1//EN" "http://www.w3.org/Graphics/SVG/1.1/DTD/svg11.dtd">
<svg version="1.1" id="Layer_1" xmlns="http://www.w3.org/2000/svg" xmlns:xlink="http://www.w3.org/1999/xlink" x="0px" y="0px"
	 viewBox="0 0 19.3 26.1" enable-background="new 0 0 19.3 26.1" xml:space="preserve">
<path d="M5,4.4c1.2-1.1,2.2-2.2,3.3-3c2.6-1.9,4.6-2,6.5,0.9c3.2,4.7,5,10.1,4.2,16c-0.4,2.8-1.7,5-4.2,6.7c-1.5,1-3.1,1.4-4.5,0.8
	c-2.9-1.2-6.2-1.9-7.1-5.8c-0.2-1.2-1.3-2.2-2-3.3c-1.6-3-1.8-6-0.3-9.1c0.7-1.6,1-3.3,1.6-5c0.2-0.5,0.8-0.9,1.2-1.3
	c0.2,0.5,0.5,1.1,0.7,1.6C4.7,3.3,4.8,3.7,5,4.4z M17.1,14.7c-0.2-3.3-1.6-7.1-3.8-10.8c-1-1.7-2.4-1.4-3.7-0.7
	C8.7,3.7,8.3,4.7,7.6,5.3C6.7,6.1,5.8,7.1,4.8,7.5c-2.1,1-3.4,3-2.5,5.1c0.9,2.1,1.9,4,3,6c1.8,3.3,4.9,5,7.8,4.4
	C15.5,22.4,17.1,19.4,17.1,14.7z"/>
</svg>
