<?xml version="1.0" encoding="utf-8"?>
<!-- Generator: Adobe Illustrator 18.0.0, SVG Export Plug-In . SVG Version: 6.00 Build 0)  -->
<!DOCTYPE svg PUBLIC "-//W3C//DTD SVG 1.1//EN" "http://www.w3.org/Graphics/SVG/1.1/DTD/svg11.dtd">
<svg version="1.1" id="Layer_1" xmlns="http://www.w3.org/2000/svg" xmlns:xlink="http://www.w3.org/1999/xlink" x="0px" y="0px"
	 viewBox="332.5 89.4 226.5 328.3" enable-background="new 332.5 89.4 226.5 328.3" xml:space="preserve">
<path d="M424.5,89.4c-3.9,2.2-8.9,5.7-7.9,9c2.8,9.7-1.2,12.7-11.9,12.7c-11.7,0.6-24.4,1.7-33.3,5.9c-18.6,6.9-35.4,15.1-38.9,32.3
	c0.6,0.5,1.2,1.1,1.8,1.6c-1.1,3.1,0.1,7.1,4.4,9.9c0.9,0.9,16.7,23.9,26.6,31.6c18.3,14.3,28,31.1,31.3,45.1
	c5,21.2-11,39.4-17.5,58.2c-3.1,7.5-2,7.5-10.3,10.7c-1.2,0.2-3.3,0.1-5.6,0.3c-6.5-0.9-12.4,2.2-14.8,11.2
	c-3.9,15.1,23.7,73.8,76.1,87.7c56.8,15,108.8,25.2,132.2-27.6c8.9-20.1-9.2-43-38.6-50.2c0,0,0,0,0,0c0,0,0,0,0,0
	c-0.4-2.6-11.9-18.1-12.6-20.7c-2-7.8-4.5-15.6-3.9-23c0.6-8.3,3.4-15.9,5.6-23.5c2.1-7.4,8.9-42.2,30.3-56.7
	c12.9-8.7,14.6-23,15.5-38.2c0.3-4.7-4-8.2-8.7-9.6c-0.1-0.7-0.1-1.4-0.2-2.1c-0.5-3.5-2.9-6.9-6.8-8.9
	c-14.5-19.6-40.7-31.5-76.6-33.7c-15.8-1-19.7-8-25.5-15.3C433.3,93.5,425.5,88.8,424.5,89.4z M387.2,339
	c21.8,8.5,44.1,15.7,66.5,20c15,2.9,30.4,5.4,43.9,3c11.9-2.1,25.5-5.7,32.4-13.4c5,12.7,3.1,22.4-7.8,33.9
	c-15.2,16.1-60.2,15.1-89,5.1C413.6,380.8,394.1,363.8,387.2,339z M380.8,183.9c-1.7-1.4-1.8-3.5-2.8-5.2
	c29.9,12.7,61.1,22.9,92.1,23.6c18.9,0.4,37.4-2.4,51.4-10.2c1.1-0.6,2.2-1.3,3.2-1.9c-1.8,4.3-27.7,27.9-32.2,42.1
	c-2.3,7.2-4.4,14.5-6.5,21.9c-2.2,7.5-4.7,15-5.4,23.2c-0.7,7.8,1.1,16.1,3.2,24.4c1.4,5.6,13.8,24.2,13.6,29.6
	c-4.3,3.3-10.1,5.9-15.7,6.2c-11.7,0.7-23.8-1.6-36.2-4.4c-17.7-4-35.1-9.5-52.3-16c13.1-25.2,30.5-52,22.3-82.6
	C411.4,218.7,402.1,201.6,380.8,183.9z M516,149c0.7,1.6,1.3,3.3,1.9,4.9c0,1.6,0,3.2,0.1,4.8c0,2.9,0.4,4.3-1.6,6.2
	c-5.5,5.2-11,10.4-16.5,15.6c-12.5,4.4-28,5.7-41.5,4.7c-32.9-2.4-65.6-15.9-96.4-30.1c0.2-0.4,0.3-0.9,0.5-1.3
	c5.3-12.1,11.4-20.9,27.1-22.9c10.8-1.5,27.6-2.5,34.4,2.8c13.8,10.8-6.1,11.9-8.2,19.3c-1,2.9-0.1,7.1,1.8,9.9
	c1,1.8,5.9,2.9,8.9,2.8c6-0.3,12-1.3,17-3.3c13-3.4,40.2,0.2,12.1-24c-1-1,1-6.8,4-8.5C479.6,120.9,501.7,127.9,516,149z"/>
</svg>
