<?xml version="1.0" encoding="utf-8"?>
<!-- Generator: Adobe Illustrator 18.0.0, SVG Export Plug-In . SVG Version: 6.00 Build 0)  -->
<!DOCTYPE svg PUBLIC "-//W3C//DTD SVG 1.1//EN" "http://www.w3.org/Graphics/SVG/1.1/DTD/svg11.dtd">
<svg version="1.1" id="Layer_1" xmlns="http://www.w3.org/2000/svg" xmlns:xlink="http://www.w3.org/1999/xlink" x="0px" y="0px"
	 viewBox="0 0 137.1 84.7" enable-background="new 0 0 137.1 84.7" xml:space="preserve">
<path d="M106.7,58.1c-2.5-0.5-4.5-1.5-6-3.3c-1-1.2-2.1-2.5-2.8-3.8c-0.5-0.9-0.9-2.7-0.5-3c1.8-1.5,1.4-3.9,2.5-5.5
	c0.8-1.2,1.5-2.7,2.7-3.3c3.5-1.9,6.6-4.4,10.7-5.2c6.4-1.4,9.6,0.5,11.2,7c0.3,1.1,0.8,2.2,0.8,3.2c0.1,4.3-1,8.1-5.3,9.8
	C115.6,55.5,111.1,56.7,106.7,58.1z M123.1,44.4c-0.2-0.7-0.7-1.7-0.7-2.8c-0.1-2-0.3-4.2-2.4-4.9c-1.9-0.6-3.8-1.6-6-0.8
	c-4.3,1.6-8,4.1-11.7,6.7c-0.7,0.5-1.1,1.7-1.1,2.5c0,0.8,0.6,1.9,1.3,2.3c0.7,0.3,1.7-0.2,2.6-0.4c-0.2-0.7-0.3-1.4-0.6-2
	c-0.5-1.4-0.1-2.1,1.3-2c1.8,0.1,3,1.1,2.8,2.6c-0.2,1.9-0.6,3.8-1.1,5.6c-0.2,0.7-0.8,1.5-1.7,0.6c-0.5-0.4-1-0.9-1.5-0.9
	c-0.7,0-1.8,0.3-2,0.8c-0.3,0.5,0.1,1.8,0.5,2.1c1.3,0.7,3,1.8,4.3,1.5c3.7-0.7,7.5-1.7,11.1-3C121.6,51.1,123.2,48.4,123.1,44.4z"
	/>
<path d="M128.1,4.2c1.6,0,3.2,0,4.8,0c1.9,0,3.5,1.2,3.6,2.7c0.3,5.1,1.6,10.3-1.3,15.1c-1.9,3.3-4.5,5.3-8.4,5.6
	c-1.4,0.1-2.8,0.7-4.2,0.8c-4.7,0.5-6.3-1.4-7.3-4.5c-1.7-5.5-0.8-10.8,0.9-16c0.6-1.8,2.4-3.5,4.1-4.4c2.2-1.2,4.9-1.4,6.8-3.4
	c0.1-0.1,1.7,0.6,1.7,1C128.8,2,128.4,3.1,128.1,4.2c-0.1,0.1-0.3,0.1-0.4,0.2c-0.1,0.1-0.1,0.2-0.1,0.3
	C127.8,4.5,128,4.3,128.1,4.2z M134.9,14c0-1.5,0.1-2.5,0-3.5c-0.3-3.9-2.7-5.2-6.3-3.4c-1.4,0.7-2.9,1.3-4.4,1.8
	c-0.4,0.1-0.9-0.2-1.3-0.3c0.1-0.5,0.1-1.1,0.4-1.5c1.1-1.4-0.2-1.7-1-1.8c-1.9-0.3-3,1.1-3.7,2.6c-2.1,5-3,10.2-1,15.4
	c0.3,0.7,0.9,1.7,1.4,1.8c4,0.4,8,1.3,11.6-1.6C133.8,21,135.6,17.7,134.9,14z"/>
<path d="M19.6,53.2c2.1-0.9,3.4-1.5,4.7-1.9c0.7-0.2,1.8-0.1,2.1,0.2c0.5,0.7,0.9,2.1,0.5,2.5c-0.8,1-2.1,1.8-3.3,2.5
	c-1,0.5-2.1,0.5-3.2,0.8c-0.9,0.3-0.7,2.7-2.3,1.6c-0.6-0.5-0.6-2.1-0.6-3.1c0.1-2.1-0.9-4.6,1.9-6c0.2-0.1,0.2-1.2,0-1.4
	c-0.8-0.7-1.9-1.9-2.8-1.7c-4,0.6-8.3-0.2-11.9,2.4c-0.7,0.5-1.4,1.3-1.8,2.2c-0.5,1-0.7,2.1-0.8,3.2c-0.5,6.5,0.2,7.5,6.6,8.9
	c2.5,0.5,5.1,1,7.6,0.9c3.1-0.1,6.2-0.8,6.7-4.8c0.1-0.4,0.5-0.8,0.7-1.3c1.3,4.7-0.3,7.5-4.8,8.1C13.7,66.9,8.6,66,3.8,64.1
	c-2.3-0.9-4-2.8-3.8-5.6c0.1-0.8,0-1.6,0-2.4c0-7.3,2.6-10.2,9.8-11.1c1.3-0.2,2.6-0.1,3.8-0.5c2.5-1,4.4,0,6.3,1.4
	C23,48.2,23.1,49.5,19.6,53.2z"/>
<path d="M73.3,35.9c1,0.2,1.9,0.4,2.8,0.5c2.7,0.4,4.3,2.1,4.9,4.6c0.7,3.2,1.6,6.4,0.6,9.8c-0.9,3-2.7,4.7-5.7,4.8
	c-3.9,0.2-7.7,0-11.4-1c-5-1.4-7.5-5.4-5.8-10.3c0.9-2.8,2.5-5.5,4-8.1c0.8-1.5,2.3-2.2,4.1-2c1.7,0.2,3.1-0.3,4.3-1.6
	c0.7-0.9,1.6-1.7,2.8-0.6c1.1,1,0.6,2-0.2,2.9C73.5,35.1,73.5,35.5,73.3,35.9z M72.3,53.9c6.5-0.2,8.1-2.1,7.2-8.4
	c0-0.2,0-0.3-0.1-0.5c-1.1-5.9-1.1-5.9-7-5.9c-2.2,0-4.6,0.4-5.8-2.3c-0.1-0.2-1.7,0-1.9,0.3c-1.5,2.6-3.1,5.2-4,8.1
	c-1.3,3.6,0,5.9,3.7,7C67,53.1,69.7,53.4,72.3,53.9z"/>
<path d="M98,64.6c-0.4,0.6-0.9,1.4-1.6,2c-1.4,1.1-1.5,2.3-1.4,4.1c0.4,5.4-2.3,8.8-6.9,9.3c-1.9,0.2-3.8,0.5-5.7,0.9
	c-4.8,1.1-7.7-2.4-11.2-4.4c-0.7-0.4-1.2-1.7-1.1-2.5c0.4-4.2,1.4-8.3,4.2-11.4c2.4-2.6,6.1-2.5,9.4-3c0.3,0,0.6,0,1,0
	c3.1-0.5,5.7-0.5,7.7,2.9C93.3,63.6,96,63.8,98,64.6z M93.2,70.5c-0.9-2.1-2.3-5.3-3.8-8.3c-0.2-0.5-1.4-0.8-2.2-0.7
	c-2.2,0.2-4.4,0.8-6.6,0.8c-3.6,0.1-5.5,2-6.9,5c-1.3,2.9-1.4,5.8,0.5,8.2c2,2.4,4.7,3.9,8.1,3.2c1.9-0.4,3.8-0.6,5.7-0.9
	C91.2,77.2,93.1,74.9,93.2,70.5z"/>
<path d="M48.2,84.7c-4.8-0.5-9.6-1.2-13.4-4.5c-3.2-2.8-3.5-5.3-1.3-8.9c2.9-4.8,13-8.4,18.4-6.7c4.4,1.4,7.2,6.2,6.6,11
	c-0.7,5.7-4,8.9-9.4,9.1C48.8,84.7,48.5,84.7,48.2,84.7z M43.7,68.3c-2.1,0.7-4.2,1.3-6.2,2.2c-2.5,1.2-3.2,3.8-3.1,6.1
	c0,2.5,2.6,3.5,4.7,4.1c2.6,0.7,5.3,1.2,7.9,1.7c4.2,0.8,8-1.2,9.1-5c1.4-4.7-0.5-9.1-4.8-10.6c-2.7-0.9-5.4-0.9-7.5,1.4L43.7,68.3z
	"/>
<path d="M43.8,68.2c0.8,0,1.6-0.1,2.4,0c1.1,0.2,2.9-0.7,3.1,1.3c0.1,1.1-2.8,2.6-4.3,2.3c-1.6-0.3-2-1.3-1.4-3.5L43.8,68.2z"/>
</svg>
