<?xml version="1.0" encoding="utf-8"?>
<!-- Generator: Adobe Illustrator 18.0.0, SVG Export Plug-In . SVG Version: 6.00 Build 0)  -->
<!DOCTYPE svg PUBLIC "-//W3C//DTD SVG 1.1//EN" "http://www.w3.org/Graphics/SVG/1.1/DTD/svg11.dtd">
<svg version="1.1" xmlns="http://www.w3.org/2000/svg" xmlns:xlink="http://www.w3.org/1999/xlink" x="0px" y="0px"
	 viewBox="58.2 0.2 185.6 300.4" enable-background="new 58.2 0.2 185.6 300.4" xml:space="preserve">
<g id="Layer_2">
	<path fill="#FF0000" d="M238,159.8c-2.3-8.5-6.5-16.6-10.2-24.5c-3.3-7.1-7-14-11.2-20.6c-7-11.1-15.5-21.3-25.7-29.4
		c-0.3-0.4-0.5-0.7-0.8-1.1c-4.6-5.7-11.1-7.4-18-8.3c-3.9-0.5-7.7,1.2-10.8,3.9c-10.9,2.1-20.7,7.8-25.5,18.8
		c-3.4,7.7-4.8,15.9-3.9,24.3c0.2,2.1,0.5,4.1,0.9,6.2c-2.2,0-4.3,0.4-6.2,1.2c-1.8-0.3-3.7-0.3-5.6,0c-1.9-0.7-3.9-1.2-6-1.2
		c-5.1,0-10.2,0-15.2-0.1c-7.9,0-14,5.3-16.4,12.5c0,0,0,0,0,0.1c-0.1,0.2-0.2,0.4-0.4,0.7c-0.2,0.3-0.9,1.3-1.3,1.8
		c-1.5,1.7-3.2,3.3-4.9,4.9c-5,4.8-9.9,9.7-13.4,15.7c-8.4,14-6,31.8,3.5,44.4c-0.6,3.9,0.1,8.1,1.7,12c5,11.9,10.1,23.8,15.1,35.7
		c2.5,6,4.6,12.4,9.8,16.8c5.2,4.4,11.7,7,17.7,9.9c13.3,6.4,26.5,10.1,41.2,6.6c12.8-3.1,23.3-12.1,33.6-19.8
		c1.8-1.4,3.5-3,4.8-4.7c2.5-0.8,4.8-2.1,6.8-4.1c12-12.4,22.3-26.6,30.1-42.1C236.9,200.8,243.6,180.4,238,159.8z"/>
</g>
<g id="Layer_1">
	<path d="M169.4,63.2c7.6,3,13.7,6.1,19.8,8.4c12.9,4.6,22.1,12.2,26.6,25.9c3,7.6,6.9,15.2,11.4,22.1c19,26.6,20.6,54.8,9.9,83.8
		c-11.4,31.2-26.6,60.2-51.8,82.2c-19.8,18.3-51,19-76.1,6.9c-22.1-9.9-32.7-25.1-37.3-47.2c-3.8-16.8-8.4-33.5-12.2-51
		c-6.1-31.2,8.4-54.1,31.2-70.8c9.1-6.9,12.9-12.9,12.2-24.4c-0.8-16.8-1.5-33.5,0-49.5c0.8-9.9,4.6-19.8,9.9-27.4
		c6.9-10.7,20.6-16,28.2-8.4c10.7,9.9,16.8,3,22.1-2.3C175.5,0,190-0.8,204.4,0.8c9.1,0.8,19.8,10.7,18.3,17.5
		c-1.5,7.6-5.3,14.5-15.2,16.8C192.3,38.1,183.9,46.4,169.4,63.2z M142,287.8c10.7,3,21.3-1.5,28.9-11.4
		c11.4-13.7,22.1-28.9,35-41.9c21.3-19.8,22.1-47.2,22.1-70.8c0-30.5-22.1-54.8-38.8-79.2c-4.6-6.9-12.2-7.6-19.8-3
		c-4.6,3-9.1,6.1-13.7,9.1c-5.3,3-8.4,6.9-3,12.9c8.4,9.1,5.3,16-3.8,22.8c-9.1,6.9-18.3,13.7-26.6,22.1
		c-6.1,5.3-11.4,15.2-19.8,9.1c-8.4-6.9,6.1-11.4,5.3-18.3c0-2.3-0.8-6.1-2.3-7.6c-1.5-1.5-5.3-0.8-6.9,0c-6.9,6.1-15.2,11.4-19,19
		c-6.1,10.7-13.7,24.4-12.2,35.8c3,21.3,11.4,41.9,18.3,62.4C94.8,274.9,112.3,287.8,142,287.8z"/>
</g>
</svg>
