<?xml version="1.0" encoding="utf-8"?>
<!-- Generator: Adobe Illustrator 18.0.0, SVG Export Plug-In . SVG Version: 6.00 Build 0)  -->
<!DOCTYPE svg PUBLIC "-//W3C//DTD SVG 1.1//EN" "http://www.w3.org/Graphics/SVG/1.1/DTD/svg11.dtd">
<svg version="1.1" id="Layer_1" xmlns="http://www.w3.org/2000/svg" xmlns:xlink="http://www.w3.org/1999/xlink" x="0px" y="0px"
	 viewBox="0 0 39.9 25.9" enable-background="new 0 0 39.9 25.9" xml:space="preserve">
<path d="M34.1,9.8c1.3-1.4,2.3-2.7,3.5-3.8c1.1-1,1.8-0.2,2.1,0.7c0.8,2.4-1.1,6.1-3.5,7.2c-0.6,0.3-1.2,0.6-1.8,0.7
	c-1.5,0.2-2.1,1-2.2,2.5c-0.8,6.8-4.8,9.8-11.5,8.5c-5.2-1-10.3-2.2-15.5-3C2,22.1,0.8,20,0.2,17.4C-1.1,10.9,3,4.7,8.1,3.1
	c5.5-1.8,11-3.5,16.9-3c2.3,0.2,4,0.8,5.1,2.9C31.4,5.2,32.7,7.4,34.1,9.8z M29.9,14.5c-0.7,0.7-1.4,1.3-2.1,1.9
	c-0.5-0.9-1.2-1.8-1.5-2.8c-0.2-0.7,0.1-1.6,0.3-2.4c0.3-1.3,0.6-2.5,0.9-3.7c1-3.9,0-5.2-4.1-5.4C18,2,12.9,3.4,8.1,5.6
	c-4.6,2-6.5,5.9-5.9,10.9c0.3,2.3,1.2,3.5,3.5,4c2,0.5,4,1,6,1.4c4,1,8.1,1.9,12.3,1.5c2-0.2,4.1-0.6,4.9-2.5
	C29.7,19,30.8,16.9,29.9,14.5z M31.3,9.4c-0.5-0.4-0.8-0.7-1.2-1.1c-0.2,0.3-0.7,0.7-0.6,1c0.1,0.5,0.6,0.8,0.9,1.2
	C30.6,10.3,30.8,9.9,31.3,9.4z"/>
</svg>
