<?xml version="1.0" encoding="utf-8"?>
<!-- Generator: Adobe Illustrator 18.0.0, SVG Export Plug-In . SVG Version: 6.00 Build 0)  -->
<!DOCTYPE svg PUBLIC "-//W3C//DTD SVG 1.1//EN" "http://www.w3.org/Graphics/SVG/1.1/DTD/svg11.dtd">
<svg version="1.1" id="Layer_1" xmlns="http://www.w3.org/2000/svg" xmlns:xlink="http://www.w3.org/1999/xlink" x="0px" y="0px"
	 viewBox="0 0 24.3 39.4" enable-background="new 0 0 24.3 39.4" xml:space="preserve">
<path d="M14.7,8.3c1,0.4,1.8,0.8,2.6,1.1c1.7,0.6,2.9,1.6,3.5,3.4c0.4,1,0.9,2,1.5,2.9c2.5,3.5,2.7,7.2,1.3,11
	c-1.5,4.1-3.5,7.9-6.8,10.8c-2.6,2.4-6.7,2.5-10,0.9c-2.9-1.3-4.3-3.3-4.9-6.2c-0.5-2.2-1.1-4.4-1.6-6.7c-0.8-4.1,1.1-7.1,4.1-9.3
	C5.6,15.3,6.1,14.5,6,13c-0.1-2.2-0.2-4.4,0-6.5c0.1-1.3,0.6-2.6,1.3-3.6c0.9-1.4,2.7-2.1,3.7-1.1c1.4,1.3,2.2,0.4,2.9-0.3
	c1.6-1.5,3.5-1.6,5.4-1.4c1.2,0.1,2.6,1.4,2.4,2.3c-0.2,1-0.7,1.9-2,2.2C17.7,5,16.6,6.1,14.7,8.3z M11.1,37.8
	c1.4,0.4,2.8-0.2,3.8-1.5c1.5-1.8,2.9-3.8,4.6-5.5c2.8-2.6,2.9-6.2,2.9-9.3c0-4-2.9-7.2-5.1-10.4c-0.6-0.9-1.6-1-2.6-0.4
	c-0.6,0.4-1.2,0.8-1.8,1.2c-0.7,0.4-1.1,0.9-0.4,1.7c1.1,1.2,0.7,2.1-0.5,3c-1.2,0.9-2.4,1.8-3.5,2.9c-0.8,0.7-1.5,2-2.6,1.2
	c-1.1-0.9,0.8-1.5,0.7-2.4c0-0.3-0.1-0.8-0.3-1c-0.2-0.2-0.7-0.1-0.9,0c-0.9,0.8-2,1.5-2.5,2.5c-0.8,1.4-1.8,3.2-1.6,4.7
	c0.4,2.8,1.5,5.5,2.4,8.2C4.9,36.1,7.2,37.8,11.1,37.8z"/>
</svg>
