<?xml version="1.0" encoding="utf-8"?>
<!-- Generator: Adobe Illustrator 18.0.0, SVG Export Plug-In . SVG Version: 6.00 Build 0)  -->
<!DOCTYPE svg PUBLIC "-//W3C//DTD SVG 1.1//EN" "http://www.w3.org/Graphics/SVG/1.1/DTD/svg11.dtd">
<svg version="1.1" id="Layer_1" xmlns="http://www.w3.org/2000/svg" xmlns:xlink="http://www.w3.org/1999/xlink" x="0px" y="0px"
	 viewBox="0 0 75 128.3" enable-background="new 0 0 75 128.3" xml:space="preserve">
<path d="M65.8,33.1c-0.7,2.8-1.5,4.7-1.5,6.4c0.1,7.4-2.6,14.2-5.1,20.9c-1,2.7-1.8,5.1-1,8.2c1.2,4.4-0.5,8.7-3.1,12.3
	c-1.6,2.3-3.1,4.8-5.8,6.4c-2.9,1.8-5.7,3.8-7.4,7.1c-0.7,1.4-1.3,4-4.1,3c0,0-0.9,1.3-0.8,1.9c0.6,4.3,1.1,8.6,2,12.8
	c0.4,1.9,1.5,3.6-0.5,5.3c-0.3,0.3-0.5,0.9-0.5,1.3c-0.1,3.8-2.9,4.6-5.7,5.5c-0.8,0.2-1.7,0.2-2.2,0.7c-3,3.1-6.9,3.3-10.8,3.1
	c-4-0.1-8.1,0.8-12-0.9c-0.7-0.3-1.5-0.5-2.2-0.9c-2.2-1.4-2.3-3.2-0.1-4.4c2.1-1.1,4.5-1.7,6.7-2.5c1.3-0.5,2.7-1,3.9-1.7
	c0.5-0.3,0.5-1.4,0.6-2.1c0-0.1-1-0.5-1.5-0.5c-2.3,0.1-2.1-1.5-2.1-2.9c0-5-0.1-10,0-15c0.1-3.7,0.5-7.3,0.7-11.2
	c-2,0.8-2.7,2.2-2.6,4.2c0.4,4-3.1,5.3-5.2,7.6c-0.2,0.3-1.4,0.1-1.7-0.2c-0.8-0.8-1.5-1.7-1.8-2.7c-0.6-2-1-4-1.4-6.1
	c-0.1-0.7-0.3-1.7,0-2.2c0.8-1.6,0.6-2.7-0.2-4.3C-1.1,78.5,1.2,73.9,5,72c2-1,3.8-2.5,5.9-2.8c2.1-0.4,3.9-1.1,5.8-1.9
	c1.9-0.8,2.7-1.7,3-3.8c0.2-1.6,1.1-3.3,2-4.7c1.5-2.4,3.4-4.7,5-7.1c2.1-3.2,2.1-3.3-1.2-4.9c-2.4-1.1-4.1-2.8-5.7-5
	c-1.6-2.3-1.8-5-1.8-7.3c0-2.1-0.7-3.2-2-4.4c-1.2-1.1-2.4-2.1-3.8-3c-1.8-1.2-2.8-2.8-2.3-4.9c0.5-2.1,2.3-2.5,4.1-2.6
	c3.4-0.3,6.6-1.2,9.6-3c0.7-0.4,1.2-1,1.5-2.2c-0.9,0.3-1.8,0.6-2.7,0.9c-2.2,0.7-3,0-2.7-2.2c0-0.3,0.2-0.6,0.2-0.9
	c0.1-0.9,0.2-1.8,0.3-2.7c-0.8,0.3-1.6,0.6-2.5,0.8c-0.5,0.1-1.1,0-1.7,0c0.1-0.7,0-1.8,0.4-2.1c1.3-0.9,2.9-1.5,4.3-2.3
	c1.8-1.1,4.1-1.8,5.2-3.4C27.3,0.3,29-0.1,31.2,0c5.7,0.5,11.5-0.5,17.2,1c3.3,0.8,6.6,1.5,9.4,3.5c0.8,0.6,1.7,1,2.6,1.2
	c6.6,1.2,9.9,6.2,13.2,11.2c2.4,3.5,1.3,7.5,1.2,11.3c0,0.2-0.7,0.5-1.1,0.7c-0.1,0-0.6-0.4-0.6-0.6c-0.1-1.1,0-2.3-0.2-3.4
	c-0.1-0.7-0.5-1.4-0.8-2.1c-0.3,0.6-0.8,1.2-0.9,1.9c-0.4,2.8-0.7,5.7-1.1,8.6c-0.1,0.8-0.4,1.6-0.9,2.2c-0.6,0.6-1.5,0.9-2.3,1.3
	C66.6,35.9,66.3,35.1,65.8,33.1z M46.7,37c-0.3,0.3-0.6,0.7-1,1c-0.1,0.1-0.3,0.1-0.4,0.2c-0.1,0.1-0.1,0.2-0.1,0.3
	c0.2-0.2,0.3-0.3,0.5-0.5C46.1,37.6,46.4,37.3,46.7,37c0.3-0.3,0.7-0.6,1-0.9c0.3-0.1,0.7,0,0.9-0.2c0.3-0.3,0.4-0.7,0.7-1
	c-0.4,0.1-0.8,0.2-1.1,0.4c-0.3,0.2-0.4,0.5-0.6,0.8C47.3,36.3,47,36.6,46.7,37z M50.6,12.7c0.3,0.3,0.7,0.6,1,1
	c0.3,0.6,0.6,1.3,1,1.9c0.1,0.4,0.2,0.8,0.3,1.3c0.2-0.1,0.3-0.2,0.5-0.3c-0.3-0.3-0.5-0.6-0.8-1c-0.3-0.6-0.6-1.3-1-1.9
	C51.2,13.4,50.9,13.1,50.6,12.7c0-0.1-0.1-0.3-0.2-0.4c-0.1-0.1-0.2-0.1-0.3-0.1C50.3,12.4,50.4,12.6,50.6,12.7z M45.8,6.9
	c0.1,0.1,0.1,0.3,0.2,0.4c0.1,0.1,0.2,0.1,0.3,0.1C46.1,7.2,45.9,7.1,45.8,6.9c-0.1-0.1-0.1-0.3-0.2-0.4c-0.1-0.1-0.2-0.1-0.3-0.1
	C45.4,6.6,45.6,6.8,45.8,6.9z M53.5,5c-0.1-0.1-0.1-0.3-0.2-0.4c-0.1-0.1-0.2-0.1-0.3-0.1C53.2,4.7,53.3,4.8,53.5,5
	c0.1,0.1,0.1,0.3,0.2,0.4c0.1,0.1,0.2,0.1,0.3,0.1C53.8,5.3,53.7,5.1,53.5,5z M54.5,32.1c-0.3,0.3-0.5,0.6-0.8,1
	c0.2,0.1,0.3,0.2,0.5,0.3C54.3,33,54.4,32.6,54.5,32.1c0.3-0.6,0.6-1.3,1-1.9c0.3-0.5,0.7-0.9,0.9-1.4c0.1-0.2-0.2-0.5-0.2-0.8
	c-0.2,0.3-0.5,0.6-0.5,0.9c-0.1,0.4-0.1,0.9-0.1,1.3C55.1,30.8,54.8,31.5,54.5,32.1z M45.7,28.3c-0.1-0.4-0.2-0.8-0.3-1.3
	c-0.2,0.1-0.3,0.2-0.5,0.3C45.2,27.6,45.5,27.9,45.7,28.3c0.1,0.4,0.1,0.9,0.3,1.3c0.1,0.2,0.5,0.3,0.7,0.4c0-0.3,0.2-0.8,0-1
	C46.6,28.7,46.1,28.5,45.7,28.3z M65.1,10.8c-0.1-0.1-0.1-0.3-0.2-0.4c-0.1-0.1-0.2-0.1-0.3-0.1C64.8,10.5,65,10.6,65.1,10.8
	c0.2,0.3,0.3,0.6,0.5,0.8c0.3,0.2,0.7,0.3,1.1,0.4c-0.2-0.3-0.4-0.8-0.7-1C65.9,10.8,65.5,10.9,65.1,10.8z M59.3,33.1
	c1.3-0.9,1.1-2.1,0.5-3.3c-0.1-0.2-0.5-0.1-0.8-0.2c0.1,1,0.2,2,0.3,3C59.3,32.8,59.3,33,59.3,33.1c-0.3,0.5-0.6,0.9-0.9,1.4
	c-0.1,0.2,0.2,0.5,0.3,0.8c0.2-0.3,0.5-0.6,0.6-0.9C59.4,34,59.3,33.6,59.3,33.1z M9.9,72.9C8,73.7,7.5,75.4,8,77.4
	C8.6,75.9,9.2,74.4,9.9,72.9c0.1-0.1,0.3-0.1,0.4-0.2c0.1-0.1,0.1-0.2,0.1-0.3C10.2,72.6,10,72.7,9.9,72.9z M49.6,6
	c-0.3-0.3-0.6-0.5-0.9-0.8c-0.1,0.2-0.2,0.3-0.3,0.5C48.8,5.7,49.2,5.8,49.6,6c0.7,1.4,1.4,2.8,2.2,4.2c0.4,0.6,1.1,1.1,1.7,1.6
	c1.1,3.5,2.2,7,3.3,10.5c0.2,0.6,0.3,1.3,0.7,1.8c0.3,0.4,0.8,0.6,1.2,0.9c0.1-0.4,0.3-0.9,0.1-1.3c-0.8-1.9-1.2-3.6-1-5.8
	c0.2-2.3-0.8-5.5-4.3-6C54.1,8.2,53.7,7.7,49.6,6z M26.4,58.3c3.1-3,6.3-5.9,9.6-9.1c-3.2-1.2-5.1-0.6-6.3,2.2
	C28.7,53.8,27.5,56,26.4,58.3c-0.1,0-0.3,0.1-0.4,0.2c-0.1,0.1-0.1,0.2-0.1,0.3C26,58.6,26.2,58.5,26.4,58.3z M4,89.4
	c0,0.3-0.1,0.6,0,0.9c0.3,1.1,0.7,2.2,1.1,3.3c0.2-0.1,0.7-0.3,0.6-0.4c-0.3-1.1-0.6-2.3-1-3.4C4.7,89.6,4.3,89.5,4,89.4
	c0.7-0.6,1.3-1.3,2-1.9c0.9-0.6,2.2-0.9,2.8-1.6c1.2-1.4,1.8-3.6,3.3-4.5c1.6-0.9,3.7-0.5,5.7-1.3c8.4-3.4,14.5-9.9,21.6-15.1
	c0.8-0.6,1-1.3,0.7-2.5c-1.4-5.4-7.2-7.2-11.2-3.3c-3.5,3.3-6.6,7.2-10.4,10.1c-3.3,2.5-6,5.2-8.2,8.6c-0.9,1.4-1.8,2.4-3.5,3
	C4.3,81.9,3,86.4,4,89.4z M30.6,35c0.2,0.4,0.5,0.8,0.7,1.2c-0.6,0.3-1.2,0.5-1.8,0.8c-2.4,0.9-4.7,1.9-7.3,1.5
	c-0.4-0.1-1.2,0-1.2,0.2c-0.2,0.5-0.2,1.2-0.1,1.8c0.1,0.4,0.5,0.8,0.9,1.1c4.3,4,13.7,7.5,20.7,2.8c0.5-0.3,0.7-1,1-1.5
	c-0.5-0.2-1-0.3-1.5-0.6c-0.4-0.2-1.1-0.6-1.1-0.9c-0.1-0.7,0.6-1.8,0.3-2.2c-1.6-2.1-0.4-2.5,1.4-3.2c1.7-0.6,3.2-1.8,4.8-2.7
	c-1.6-1.2-3.2-2-4-3.2c-1.1-1.5-2-2.9-4.1-2.8c-0.3,0-1.1-1-1-1.2c1.3-2.4-1-3.4-1.8-5c-0.5,1.2-0.8,2.2-1.4,3.2
	c-0.2,0.4-0.9,0.5-1.4,0.7c-0.1-0.4-0.3-0.9-0.2-1.3c1.3-3.1,0.2-6-0.9-8.9c-0.9-2.4-2.2-2.6-3.9-0.8c-0.5,0.6-1.4,1.1-1.5,1.8
	c-0.9,3.7-4.2,4.1-6.9,5.2c-1.6,0.6-3.5,0.4-5.2,0.6c-0.7,0.1-2,0.5-2,0.8c0,0.9,0.3,1.9,0.8,2.5c0.6,0.7,1.6,1.1,2.3,1.7
	c2.4,1.9,4.9,3.7,4.4,7.5c-0.2,1.5,0.8,2,2.1,1.9c1.3-0.1,2.5-0.4,3.8-0.5C27.9,35.3,29.3,35.1,30.6,35z M56.3,69.3
	c-1.3,0.7-2.2,1.4-3.1,1.6c-1.5,0.3-2.3,1.1-2.7,2.4c-0.8,2.6-2.8,2.9-5,2.5c-1.7-0.4-3.4-0.9-4.9-1.8c-4.6-2.7-4.9-2.9-8.9,0.3
	c-3.9,3.1-7.9,6.1-12.5,8.1c-1.3,0.6-1.8,1.3-0.7,2.5c0.4,0.5,0.8,1,1.1,1.6c2.7,4.5,7.1,6.3,11.9,7.6c1.1,0.3,2.5,0.3,2.5-1.3
	c0-1.3-1-1.3-2.1-1.3c-2.6,0-4.4-1.6-4.6-4.1c0-0.5,0.5-1.1,0.7-1.6c0.4,0.2,0.9,0.3,1.1,0.7c1,1.6,2,2.8,4.1,2.9
	c4.6,0.2,9,0.1,13-2.6C52.3,82.6,55.9,77.2,56.3,69.3z M16.1,86.1c-0.3,3.6-0.4,6.3-0.9,8.9c-0.5,2.9-0.7,5.7,0.2,8.5
	c0.5,1.5,0.1,3.4,2,4c2.1,0.7,4.2,1.7,6.5,0.9c1.2-0.5,2-1.1,2.5-2.6c0.9-3.5-0.6-6.9-0.3-10.4c0-0.4-0.7-1.1-1.2-1.3
	C21.3,92.6,18.3,90.3,16.1,86.1z M53.3,67.4c0.9-1.9,1.9-3.7,2.8-5.6c2.7-5.4,2.8-5.5-0.8-10.3c-1.3-1.8-2.9-3.4-4.5-5
	c-0.9-0.9-2.1-1.5-3.1-2.2c-1.3-0.8-2,0.2-2.9,1c-1.1,1-0.2,1.6,0.4,2.4c1.7,2.3,3.4,4.7,5,7.1C52.7,58.5,52.8,62.9,53.3,67.4z
	 M34.9,55c4.1,1,4.1,1,6.3,4.1c2.5,3.6,2.5,3.6,5.5,0.6c2.1-2.1,2.2-2.2,0.6-4.9c-1-1.8-2.4-3.4-3.6-5.1c-0.8-1.3-1.9-1.2-2.9-0.6
	c-1,0.7-2,1.5-2.9,2.4C36.9,52.7,35.9,53.9,34.9,55z M50,61c-4,2.6-7.7,4.9-11.3,7.4c-0.2,0.2-0.1,1.7,0.3,1.9
	c2,1.2,4.1,2.4,6.3,3.2c0.6,0.2,1.8-0.3,2.4-0.8C50.8,69.5,51,65.7,50,61z M9,125c5.4,0.4,10.4,0.7,15.4,0.2
	c1.6-0.2,2.8-0.7,2.7-2.6c-0.1-1.9-1.4-2.6-3.4-2.9c-3.4-0.5-6.4,0.7-9.6,1.5C11.9,121.9,10.6,123,9,125z M49.3,41.2
	c3.5,3.8,6.6,7.2,10.1,10.9c0.6-2.5,3.3-4.5,0.2-7.2c-0.5-0.4-0.3-1.9,0-2.7c0.4-1.2,1.3-2.2,1.9-3.3c1.2-1.9,2.2-3.9,1.2-6.5
	c-0.5,1.6-0.8,2.9-1.4,4.2c-0.4,0.8-1.1,1.9-1.8,2c-1.9,0.3-2.7,1.5-3.6,2.9c-0.7,1.1-1.7,1.6-2.5,0.1
	C52.1,39.3,50.7,40.1,49.3,41.2z M22.2,110.8C22.2,110.8,22.2,110.8,22.2,110.8c-0.5,0-1,0-1.4,0c-1,0-2,0-3.1,0
	c0.3,1.2,0.4,2.5,0.9,3.6c0.3,0.8,1,1.6,1.7,2.3c1.1,1,4.7,1.2,5.9,0.4c1.5-1,1.1-2.5,1.1-3.9c0-1.5-0.5-2.5-2.2-2.4
	C24.1,110.8,23.2,110.8,22.2,110.8z M32.4,107.8c2.1,0.1,2.9-0.7,2.6-3.2c-0.2-1.4-0.7-2.8-0.9-4.2c-0.4-2.8-0.9-3.4-3.5-4.1
	c-1.7-0.4-2.5,0.4-2,2.1c0.6,2.2,1.7,4.2,0.9,6.8C28.9,106.9,30.6,107.7,32.4,107.8z M36.8,115.2c-0.3-1.2-0.5-2.1-0.8-3
	c-0.8-2.2-3.2-3.1-5.4-2.1c-0.4,0.2-0.8,0.7-0.8,1.1c-0.4,2.5,1.1,4.3,3.6,4.3C34.5,115.5,35.5,115.3,36.8,115.2z M45.7,19
	c0.3,0,0.7-0.1,1-0.1c0.4-2.9,0.5-5.8-1.1-8.5c-0.3-0.6-1.3-0.8-1.9-1.2c0,0.7-0.3,1.4-0.1,2.1C44.2,13.8,45,16.4,45.7,19z
	 M62.7,17.9c0.5-6.4-2.1-10.1-7.4-10.7C59,10,61.8,12.9,62.7,17.9z M35.2,120c-0.5-0.6-0.7-1.2-1.1-1.3c-0.9-0.3-1.8-0.5-2.8-0.6
	c-0.7-0.1-1.7-0.2-2.1,0.2c-1.2,1,0.2,1.6,0.6,2.3c0.5,0.7,0.8,2,2.1,1.3C33,121.4,34,120.7,35.2,120z M40.1,9.5
	c0.2-0.2,0.4-0.3,0.6-0.5c-0.9-1-1.7-2.3-2.8-2.8c-1.1-0.6-2.6-0.5-4-0.5c-0.4,0-0.8,0.7-1.1,1.1c0.4,0.3,0.7,0.7,1.1,0.8
	C35.9,8.3,38,8.9,40.1,9.5z M28,2.5c3.2,0.5,5.4,0.9,7.6,1.2c2.2,0.4,4.3,0.7,6.9,1.2C38.3,2.3,35.3,1.8,28,2.5z M50.5,19.2
	c0.4,2.5,0.8,4.9,1.2,7.4C52.2,24,53.5,21.3,50.5,19.2z M40.8,93.1c-0.8-0.4-1.1-0.7-1.5-0.7c-1.1-0.1-2.3,0-2.2,1.5
	c0,0.3,0.6,1,0.7,0.9C38.8,94.4,39.6,93.8,40.8,93.1z M40,16.5c0.7,1.2,1.3,2.5,2.3,4.3C43.1,18,41.9,17,40,16.5z M63.9,19.2
	c-0.1,0-0.2,0-0.4,0c0,1.8,0,3.6,0,5.4c0.1,0,0.2,0,0.4,0C63.9,22.8,63.9,21,63.9,19.2z M68,19.1c-0.3,0.1-0.6,0.2-1,0.4
	c0.5,1.4,1,2.8,1.4,4.2c0.3-0.1,0.5-0.2,0.8-0.2C68.8,22,68.4,20.5,68,19.1z M29.6,7.6c-0.1-0.3-0.1-0.5-0.2-0.8
	c-1.5,0.4-3,0.8-4.5,1.2c0.1,0.3,0.2,0.6,0.2,0.9C26.6,8.4,28.1,8,29.6,7.6z M40.2,13.6c0.1-0.2,0.2-0.4,0.3-0.6
	c-0.8-0.5-1.5-1-2.3-1.4c-0.2-0.1-0.5,0-0.8,0c0.1,0.4,0.1,1,0.4,1.1C38.6,13,39.4,13.3,40.2,13.6z M33.9,11
	c-0.7-0.3-1.2-0.6-1.7-0.9c0,0-0.4,0.6-0.3,0.6c0.3,0.3,0.7,0.6,1.1,0.8C33.1,11.6,33.4,11.2,33.9,11z M67.1,31.5
	c-0.2-0.3-0.4-0.5-0.5-0.7c-0.1,0.3-0.3,0.6-0.3,0.8c0,0.3,0.2,0.5,0.3,0.8C66.7,32.1,66.9,31.8,67.1,31.5z M4.5,76.2
	c0.1-0.1,0.3-0.1,0.3-0.2c0-0.1,0-0.3,0-0.4c-0.2,0.1-0.3,0.2-0.5,0.3C4.3,75.9,4.4,76.1,4.5,76.2z"/>
<path d="M25.3,23.2c0-0.3,0-0.4,0-0.6c0.3-0.8,0.7-1.7,1.1-2.5c0.1-0.1,1.1,0.1,1.2,0.3c0.1,1,0.1,2,0.1,3.1c0,0.3-0.2,0.6-0.4,0.8
	c-0.3,0.3-0.7,0.7-1.1,0.7c-0.3,0-0.6-0.6-0.8-0.9C25.3,23.8,25.3,23.5,25.3,23.2z"/>
</svg>
