<?xml version="1.0" encoding="utf-8"?>
<!-- Generator: Adobe Illustrator 18.0.0, SVG Export Plug-In . SVG Version: 6.00 Build 0)  -->
<!DOCTYPE svg PUBLIC "-//W3C//DTD SVG 1.1//EN" "http://www.w3.org/Graphics/SVG/1.1/DTD/svg11.dtd">
<svg version="1.1" id="Layer_1" xmlns="http://www.w3.org/2000/svg" xmlns:xlink="http://www.w3.org/1999/xlink" x="0px" y="0px"
	 viewBox="0 0 106.6 112.3" enable-background="new 0 0 106.6 112.3" xml:space="preserve">
<g>
	<path fill="#FFFFFF" d="M14.7,103.2c-2.1-5.2,0.5-12-4.5-15.9C10,87.1,9.8,87,9.7,86.9c1.3-1.1,1.6-2.9,0.4-4.6
		c0.1-0.1,0.2-0.3,0.3-0.5c0.5-2.9,0.7-5.9,1.1-8.9c0.2-1.8,1.4-5.5,0.5-7.2c-1.3-2.5-3.3-1-4.2,0.9c-2.9,5.6-0.1,12.2-2.1,17.9
		c-0.2,0.4-0.5,0.7-0.7,1.1c-0.9,1.5-2.5,3.3-2.8,5.1c-0.1,0.6-0.1,1.1-0.1,1.6c-0.5,1.6-0.5,3.1,0.4,4.3c0.3,0.3,0.6,0.4,1,0.3
		c0.2,0.3,0.5,0.6,0.8,0.9c0.6,1.4,1.8,2.5,3,3.6c0,0,0,0,0,0c0.1,0.1,0.2,0.2,0.2,0.3c1.2,1.6,3.4,2.6,4.2,4.4
		c0.8,1.7,3.3,0.3,2.6-1.4C14.8,104.3,14.9,103.8,14.7,103.2z"/>
	<path fill="#FFFFFF" d="M103.1,93c-0.1,0-0.2,0-0.3-0.1c0.7-0.6,0.9-1.9-0.2-2.4c-1-0.5-1.6-1.4-2.9-1c-0.3,0.1-0.6,0.3-0.8,0.5
		c-0.6-0.4-0.7-1.4-1.2-1.8c-0.7-0.6-1.3-0.8-1.9-0.8c-1-0.3-2.1-0.4-3.1-0.5c-0.2-0.5-0.6-0.9-1-1.3c-1-0.8-2.6-0.6-3.5,0.2
		c-0.9,0.8-1.1,2.1-0.5,3.2c0.2,0.4,0.5,0.6,0.9,0.7c-0.2,0.2-0.4,0.5-0.5,0.8c-0.6,1.2-0.8,2.3-0.8,3.6c0,1.5-0.6,3-1.1,4.3
		c-0.4,1.2-0.8,2.3-1,3.4c-0.5,0.7-0.7,1.3-1,2.1c-0.5,1.4,0.4,2.2,0.9,3.4c0.4,1.2,1.2,1.9,2.1,2.2c0.4,0.5,1,0.8,1.6,1
		c1.7,0.5,3.8-0.5,4.3-2.3c0.7-0.4,1.1-1,1.5-1.7c0.6-0.3,1.1-0.7,1.4-1.2c1.6-1.6,3-3.5,4-5.5c0.1-0.2,0.1-0.3,0.2-0.5
		c1.3-0.8,1.7-2.4,1.4-3.8c0,0,0,0,0,0c0.6,0.3,1.3,0.4,2,0.5C105.1,96.2,105,93.2,103.1,93z"/>
	<path fill="#FFFFFF" d="M89,34.1c0.3-0.7,0.5-1.5,0.4-2.2c0.2-1.9-0.9-4-3.3-4c-1.9,0-2.9,1.2-3.3,2.6c-0.8,0.4-1.5,1.2-1.7,2.2
		c0,0,0,0,0,0.1c-0.2,0.3-0.3,0.5-0.4,0.8c-0.5,1.1-0.7,2.3-0.3,3.6c0.2,0.6,0.5,1,0.8,1.5c-0.2,1.3,0.5,2.7,1.7,3.5l1.2,0.8
		c2.3,1.5,5.2-0.5,5.3-3c0.1-1.2-0.2-2.3-0.8-3.2C88.9,35.8,89.1,34.9,89,34.1z"/>
	<path fill="#FFFFFF" d="M11.4,19.5c1.2-1.9,0.5-5.1-2.2-5.5c0.2-0.3,0.3-0.6,0.4-0.9c0-0.1,0-0.2,0-0.3c1-0.5,1.9-1.4,2.4-2.4
		c0.6-1.2,0.3-2.7-0.9-3.4c-0.8-0.5-1.9-0.4-2.7,0.1C7.4,7.3,6.7,8.1,6.5,9C6.2,9.3,6,9.7,5.9,10.1c-0.2,0.1-0.5,0.1-0.7,0.3
		c-0.6,0.3-0.9,0.8-1.1,1.4c-0.5,1-0.3,2.3,0.4,3c-0.8,1-1,2.5-0.5,3.7c-0.8,1.4-0.6,3.4,0.6,4.6c-1.4,2-0.5,5.6,2.8,5.6
		c2.2,0,3.3-1.7,3.4-3.4C12.8,24.1,13,21,11.4,19.5z"/>
	<path fill="#FFFFFF" d="M5.4,1.2c-2.6,0-2.6,4,0,4S8,1.2,5.4,1.2z"/>
</g>
<g>
	<g>
		<path d="M13.8,64.2c-0.3,3.6-0.9,7.3-1.4,10.9c-0.1,0.6-0.1,1.3,0,1.9c0.1,1,0.4,1.9,0.3,2.9c-0.2,2.3,0.5,4.5,0.8,6.7
			c0.3,2.1,1,4.2,1.6,6.2c0.1,0.3,0.1,0.7,0,0.9c-1,2.8,0,5.6,0.6,8.3c0.5,2.3,0.3,4.5,0.4,6.7c0,1.3-0.9,1.6-1.8,2
			c-0.9,0.4-1.4-0.3-1.8-1c-2.4-4.2-6.6-6.8-9.5-10.6c-0.2-0.3-0.7-0.5-1-0.7c-2-1.4-2.2-2.2-1.7-4.6c0.4-1.9,0.9-3.8,1-5.8
			c0-0.8,0.2-2,0.8-2.4c1.8-1.4,2-3.8,3.5-5.3c0.7-0.8,0.9-1.5,0.6-2.3c-1.8-4.2,0-8.2,1-12.2c0.3-1.3,1.4-2.4,2.5-3.3
			c0.5-0.4,1.6-1.3,2.5-0.1C12.1,62.5,13.8,63.5,13.8,64.2z M4.7,97.6c0.4,0.7,0.7,1.7,1.4,2.3c2.2,1.8,4.8,3.3,6.4,5.9
			c0.4,0.7,1.3,0.4,1.4-0.4c0.1-0.5,0.1-1.1,0-1.6c-0.2-1.7-0.3-3.4-0.5-5.1c-0.3-2.5-0.5-4.9-0.9-7.4c-0.2-1-0.7-2-1.3-2.9
			c-0.5-0.8-1.2-0.9-1.9-0.2c-1.4,1.4-3.3,2.5-3.2,5c0,0.7-0.5,1.4-0.8,2.1C5.1,95.8,4.9,96.6,4.7,97.6z M11.3,67.9
			c0-0.3,0.1-0.7,0-1c-0.1-0.5-0.3-0.9-0.5-1.4c-0.4,0.3-1,0.5-1.2,0.9c-2.5,4.3-2.5,8.8-1.2,13.4c0.1,0.3,0.3,0.6,0.5,0.8
			c0.3,0.2,0.7,0.4,1.1,0.5c0.2,0,0.5-0.4,0.6-0.7c0.1-0.4,0.2-0.8,0.2-1.3C10.9,75.4,11.3,67.9,11.3,67.9z M6.2,83.9
			c0.1,2.1,0.7,2.9,1.7,2.9c1,0,2.5-1.4,2-2c-0.7-0.9-1.7-1.5-2.6-2.2C6.8,83.1,6.3,83.6,6.2,83.9z M6.5,88c-1-0.5-1.6-0.9-2.2-1
			c-0.1,0-0.6,0.8-0.7,1.2c-0.1,0.7,0.3,1.3,1.1,1.1C5.3,89.2,5.7,88.6,6.5,88z M4.3,95c-0.5-0.4-0.9-0.9-1.1-0.9
			c-0.4,0.1-0.8,0.5-1.2,0.8c0.3,0.3,0.6,0.8,0.8,0.8C3.2,95.7,3.6,95.3,4.3,95z"/>
		<path d="M88.5,112.3c-1.2,0.2-2.2-0.3-3-1.3c-1.7-2.1-3.3-4.1-2.4-7.2c0.8-2.5,1-5,2.1-7.5c0.6-1.5,0.5-3.3,0.6-5
			c0.1-1.8,0.1-3.7,0.1-5.5c0-2,1.4-3.1,3.4-2.7c0.3,0.1,0.6,0.3,0.9,0.4c2.2,0.7,4,2.5,6.5,2.3c0.6,0,1.3,0.7,1.9,1.1
			c0.4,0.2,0.6,0.7,1,0.9c1.2,0.5,2.6,0.5,3.5,1.3c0.8,0.6,0.9,2,2.1,2.7c2,1.3,2,2.9,0.4,4.6c-0.8,0.8-1.8,1.6-2.7,2.3
			c-0.3,0.3-0.8,0.5-0.9,0.9c-2,4.3-6.3,6.8-8.6,10.9C92.3,112,90.4,112.3,88.5,112.3z M93.1,91.3c-3.3-0.1-4.6,1.9-5.6,3.9
			c-1.2,2.7-2.1,5.7-2.9,8.6c-0.6,2.2,0.6,4.1,2.1,5.5c1.4,1.5,3.6,1.3,4.9-0.3c2.5-3,5-6,7.4-9c0.7-0.9,1.4-1.9,1-3.3
			C98.7,93.1,95.3,91.2,93.1,91.3z M90.4,85.2c-0.6,0.8-1.2,1.4-1.2,2c0,0.6,0.5,1.3,0.8,1.9c0.7-0.6,1.5-1.2,2-2
			C92.1,86.9,91.1,86.1,90.4,85.2z M97,89.9c0.1-0.3,0.5-0.7,0.4-1.1c-0.2-1-0.9-1.4-1.9-1.2c-0.4,0.1-0.8,0.5-0.9,0.8
			C94.5,89.1,95.9,90,97,89.9z M100.9,89.9c-0.6,0.7-1.1,1.1-1.2,1.6c-0.2,0.7,0.3,1.2,1,1.2c0.7,0,1.4-0.2,1.2-1
			C101.8,91.1,101.4,90.6,100.9,89.9z"/>
		<path d="M10.2,13.6c0.6,0.4,1.7,1.1,2.7,1.9c1,0.8,1.5,1.9,0.5,3.1c-0.4,0.5-0.9,1.1-0.3,1.7c1.5,1.5,0.6,3.2-0.1,4.4
			c-0.7,1.2-1.6,2.3-2,3.6c-0.4,1.3-1.4,1.8-2.8,1.7c-3.4-0.1-5.9-2.7-5.5-6.1c0.2-2,0.1-3.8-0.3-5.7c-0.4-2-0.2-4.1,0-6.1
			c0.1-0.8,0.9-1.7,1.6-2.3c1.4-1.4,2-1.9,0-3.6c-1.2-1-2-2.2-1.9-3.9C2.4,0.6,2.8,0.1,4.4,0c0.4,0,0.9,0,1.3,0
			c2.1,0.1,2.7,0.8,2.4,2.9c0,0.3-0.2,0.6-0.2,0.9c0,0.6,0,1.2,0.1,1.8c0.6-0.1,1.2-0.2,1.8-0.4c1.7-0.6,2.9-0.5,3.5,0.4
			c0.5,0.9,0.3,3.3-0.5,4.3C11.9,11.2,11.1,12.3,10.2,13.6z M11.6,7.7c-0.7-0.1-1.4-0.5-1.7-0.3c-1.7,1.1-3.2,2.5-4.8,3.7
			c-0.9,0.6-1.1,1.4-0.5,2.2c0.6,0.8,1.6,0.6,2.3,0c1.4-1.3,2.8-2.7,4.1-4.1C11.3,8.9,11.3,8.4,11.6,7.7z M8,19
			c2.5,0,3.9-0.6,3.7-1.3c-0.4-1.3-1.5-1.7-2.7-2c-1.3-0.3-2.6-0.4-3.8,0.2c-0.4,0.2-0.8,0.8-0.8,1.2c0,0.4,0.5,0.9,0.9,1.1
			C6.4,18.6,7.5,18.8,8,19z M5.9,20.3c-0.2,0.1-0.7,0.4-1.2,0.6c0.3,0.5,0.4,1.1,0.8,1.5c1.4,1.4,3.3,1.4,5,1.6
			c0.4,0,1.1-0.4,1.2-0.8c0.1-0.3-0.1-1-0.4-1.4c-0.3-0.4-0.8-0.7-1.3-0.9C8.9,20.7,7.6,20.6,5.9,20.3z M5.7,24.9
			c-0.2,0.2-0.6,0.4-0.6,0.6c0,0.4,0,1.1,0.2,1.2c1.2,0.5,2.4,0.8,3.6,1.2c0.1,0,0.4-0.3,0.4-0.5C9,25.9,7.5,26,6.6,25.3
			C6.3,25.2,6,25.1,5.7,24.9z M6.2,4.1c0-0.5,0.1-0.8,0-0.9C5.9,2.7,5.6,2.3,5.2,2.1c-0.3-0.2-1.1,0-1.2,0.2C4,2.6,4.1,3.2,4.2,3.6
			c0,0.2,0.1,0.5,0.3,0.6c0.4,0.3,0.9,0.5,1.3,0.7C5.9,4.6,6.1,4.2,6.2,4.1z"/>
		<path d="M87.3,44.4c-2.6-0.4-4.5-0.5-6.4-0.9c-2.2-0.5-2.8-1.8-1.7-3.8c0.3-0.7,0.5-1.1,0-1.7c-0.8-0.9-1-2.1-0.4-3
			c0.8-1.2,1.3-2.2,0.1-3.4c-0.1-0.1,0.4-1.3,0.9-1.4c1.1-0.4,1.7-0.7,2-2.1c0.3-1.4,3.4-2.2,5.1-1.5c0.9,0.4,1.8,0.8,2.6,1.3
			c1.9,1.1,2.7,3.7,1.5,5.5c-0.9,1.3-1,2.3-0.7,3.8c0.3,1.9-0.2,4.1-0.8,6C89.2,43.9,87.7,44.2,87.3,44.4z M88.2,38.2
			c-1.1-3.1-3.6-3-6-2.9c-0.5,0-1,0.5-1.6,0.7c0.4,0.5,0.6,1.1,1.1,1.4c0.5,0.3,1.2,0.4,1.8,0.4C85,38,86.5,38,88.2,38.2z
			 M84.5,39.1c-0.7,0.4-1.4,0.6-1.9,1.1c-0.3,0.2-0.4,0.7-0.5,1.1c0.4,0.2,0.7,0.4,1.1,0.5c0.9,0.2,1.9,0.4,2.8,0.4
			c0.5,0,1.1-0.2,1.6-0.3c-0.2-0.6-0.3-1.3-0.7-1.7C86.3,39.7,85.4,39.5,84.5,39.1z M89,31.4c0-1.5-1-2.1-1.9-2.6
			c-0.8-0.5-1.8-1-2.7-0.2c-0.2,0.2-0.3,1.1-0.1,1.2c1.2,0.7,2.4,1.3,3.7,1.9C88.3,31.8,88.7,31.5,89,31.4z M86.1,33.9
			c0.1,0,0.5,0,0.7-0.1c0.3-0.1,0.5-0.3,0.6-0.6c0.1-0.1-0.1-0.4-0.3-0.5c-0.2-0.2-0.5-0.3-0.8-0.5c-1.4-0.7-2.7-1.4-4.2-0.5
			c-0.1,0-0.1,0.5,0,0.6C83.1,33.6,84.4,33.9,86.1,33.9z"/>
	</g>
</g>
<path fill="#FFFFFF" d="M103.6,93.6c-1.3,0-1.3,2,0,2S104.9,93.6,103.6,93.6z"/>
<path fill="#FFFFFF" d="M3.2,90.4c-1.3,0-1.3,2,0,2S4.5,90.4,3.2,90.4z"/>
</svg>
