<?xml version="1.0" encoding="utf-8"?>
<!-- Generator: Adobe Illustrator 18.0.0, SVG Export Plug-In . SVG Version: 6.00 Build 0)  -->
<!DOCTYPE svg PUBLIC "-//W3C//DTD SVG 1.1//EN" "http://www.w3.org/Graphics/SVG/1.1/DTD/svg11.dtd">
<svg version="1.1" id="Layer_1" xmlns="http://www.w3.org/2000/svg" xmlns:xlink="http://www.w3.org/1999/xlink" x="0px" y="0px"
	 viewBox="0 0 437.5 559.2" enable-background="new 0 0 437.5 559.2" xml:space="preserve">
<path d="M69.9,41.8c-1.8-1.7-3.7-2.7-6.3-3c-3.6-0.4-7.3-1.3-9.8-4.6C53,33,52,33.1,51,34.1c-1.3,1.2-2.7,2.3-4.2,3.2
	c-2.1,1.4-2.6,2.2-1.9,4.7c0.6,2.2,1.4,4.3,2.1,6.4c0.1,0.4,0,1.2-0.2,1.2c-0.5,0.1-1.3,0.2-1.6-0.2c-1.2-1.2-2.6-1.7-4.2-2.1
	c-4.6-1.1-8-4-10.5-8.5c-1.4,1.5-2.9,2.5-3.7,4c-3,5.5-8.6,8-13.1,11.8c-0.3,0.3-1,0.7-1.3,0.5C11.9,55,11,54.1,11,54
	c2.3-3.1,1-7,2.4-10.3c0.3-0.6-0.1-1.5-0.2-2.3c-0.7,0.1-1.5,0.1-2.1,0.3c-1.6,0.5-3.5,2.2-4.7,0.3c-0.5-0.9,0.7-2.9,1.2-4.3
	c0.2-0.6,0.6-1.2,0.8-1.8c1.3-3.6-0.1-5.6-3.9-5.7c-1.3,0-2.1,0.4-2.7,1.6C1.3,32.6,0.6,33.3,0,34c0-1.6,0-3.2,0-4.8
	c0.5-1.1,1.3-2.1,1.6-3.3c0.4-2.1-1-0.5-1.6-0.6c0-1.9,0-3.9,0-5.8c3.2-2.4,5.9-5.2,5.9-9.7c0-0.9,0.7-2.3,1.5-2.7
	c2.9-1.6,3.5-4.3,4.3-7c2.3,0,4.5,0,6.8,0c1.5,1.6,2.9,3.3,4.4,4.9c2.4,2.4,2.7,2.3,4.2-0.8c0.5-1,1.1-1.9-0.8-2.3
	c-0.7-0.1-1.3-1.2-2-1.8c4.2,0,8.4,0,12.6,0c-1.7,0.8-3.3,1.7-5,2.5c-2.2,1-3.5,2.4-3.9,5c-0.4,3.3-1.5,6.5-2.2,9.8
	c-0.1,0.5,0,1.2,0,1.7c0.6-0.2,1.2-0.2,1.7-0.5c1-0.8,1.9-1.7,2.7-2.7c0.6-0.7,0.8-2.4,1.2-2.4c3.6-0.2,2.9-3.4,3.9-5.3
	c0.4-0.7,0.6-1.6,1.1-2.1c2-1.5,2-3.8,2.4-5.9c0.6,0,1.3,0,1.9,0C43,2.4,45.1,4.8,47.4,7c1.4,1.3,3.1,2.3,4.6,3.5
	c4.1,3.4,8.7,3.4,13.6,1.7c-1.3-3.5-2.9-6.8-5.9-9.2c-1.4-1.1-2.9-2-4.3-2.9c2.6,0,5.2,0,7.8,0c1.4,3.3,4.1,4.8,7.6,4.7
	c2.5-0.1,4.9-0.8,7.3-1.2c-0.4-1.1-0.9-2.3-1.3-3.4c1,0,1.9,0,2.9,0c0.3,0.8,0.6,0.7,1,0c0.6,0,1.3,0,1.9,0c0.3,4.5,1.6,5.6,5.4,4.7
	c2.5-0.6,2.8-2.7,3.3-4.7c1,0,1.9,0,2.9,0C93.5,2,92.8,4,92.2,5.9C92.1,6,91.9,6,91.8,6.1c-0.1,0.1-0.1,0.2-0.1,0.3
	c0.2-0.2,0.3-0.3,0.5-0.5c0.8-0.7,1.7-1.4,2.6-2.1c1.5-1.1,1.1-2.4,0.4-3.7c1,0,1.9,0,2.9,0c1.5,2.8,4.4,3,6.9,3.6
	c1.4,0.3,3.1-0.5,4.5-1.2c0.6-0.3,0.8-1.6,1.2-2.4c1,0,1.9,0,2.9,0c-0.6,2.6-1.3,5.2-1.9,7.8c-0.3,0.3-0.5,0.6-0.8,1
	c0.2,0.1,0.3,0.2,0.5,0.3c0.1-0.4,0.2-0.8,0.3-1.3c0.6-0.7,1.3-1.3,2-2c2.7-2.6,5.2-5.4,9.6-4.9c1.3,0.2,2.9,0.7,3.9-0.9
	c4.5,0,9.1,0,13.6,0c0.4,0.4,0.9,1.3,1.1,1.2c1-0.2,1.8-0.8,2.8-1.2c4.5,0,9.1,0,13.6,0c-1.1,0.6-2.2,1.1-3.3,1.7
	c-2,1.1-4.1,2.2-6.2,3.3c2.3,2.5,4.7,3,7.4,2.8c1.6-0.1,3.2,0,4.8,0c5.8,0,9.5-3.5,12.8-7.7c1.6,0,3.2,0,4.9,0
	c-0.4,0.5-0.6,1.2-1.1,1.5c-4,2.5-6.8,6.2-10.5,9.7c3.6,1,6.5,0.4,8.7-2c2.7-2.9,5.2-6.1,7.8-9.1c5.2,0,10.3,0,15.5,0
	c-1.6,3.7-4.1,6.4-7.9,7.8c-0.5,0.2-0.9,0.6-1.4,1c0.6,0.3,1.3,0.9,1.9,0.8c1.2-0.1,2.5-0.4,3.6-0.9c3-1.4,6.1-2.8,8.9-4.5
	c1.7-1,3-2.7,4.5-4.1c2.3,0,4.5,0,6.8,0c-2.3,2.2-4.7,4.3-6.9,6.6c-0.6,0.6-1,1.6-1.5,2.3c1,0.3,2.1,0.9,3,0.7
	c6.1-0.8,11.2-3.7,14.9-8.7c0.2-0.2,0.1-0.6,0.1-0.9c1,0,1.9,0,2.9,0c-1.7,2.5-3.5,4.9-5.3,7.5c1.9,0.4,3.3-0.4,4.4-2
	c1.3-1.8,2.5-3.7,3.8-5.5c3.6,0,7.1,0,10.7,0c3.4,2.4,3.4,2.4,6.8,0c1.3,0,2.6,0,3.9,0c-0.6,0.7-1.2,1.4-1.7,2.1
	c0.2,0.2,0.4,0.4,0.6,0.5c1.4-0.9,2.7-1.8,4.1-2.6c3.6,0,7.1,0,10.7,0c-0.4,0.5-0.7,1.1-1.1,1.6c-2.3,3.3-4.9,6.4-6.9,9.8
	c-1.8,3.1-3.1,6.5-4.8,10c1-0.3,2.2-0.5,3-1c5.4-3.8,9.8-8.7,13.8-14c1.4-1.8,2.1-4,1.8-6.4c1.3,0,2.6,0,3.9,0
	c0.1,1.8,0.2,3.7,0.2,5.9c0.9-0.5,1.3-0.7,1.6-1c0.3-0.3,0.5-0.9,0.8-1.1c1.1-0.8,1.1-1.7,0-2.6c-0.3-0.3-0.5-0.8-0.7-1.2
	c1.3,0,2.6,0,3.9,0c2.3,4,6.9,5,10.2,7.9c1.3,1.1,2.1,0,2.3-1.3c0.4-2.2,0.7-4.4,1.1-6.6c0.3,0,0.6,0,1,0c0,2.6-0.1,5.2,0.1,7.8
	c0.1,1.2,0.4,2.5,1,3.6c0.2,0.5,1.2,0.8,1.9,0.9c0.3,0,0.8-0.9,0.9-1.5c0.7-3.6,1.4-7.2,2.1-10.8c0.6,0,1.3,0,1.9,0
	c-1.3,6.7-2.7,13.4-4.2,20.7c3.6-3.1,6.9-5.7,9-9.3c2.2-3.7,3.9-7.6,5.8-11.5c1.3,0,2.6,0,3.9,0c-0.6,5.7,0.6,10.8,4.3,15.3
	c0.2,0.2,0.3,0.5,0.5,0.8c1.6,3.5,4.8,3.9,8,4.1c1.2,0.1,1.9-0.7,1.7-1.8c-1.3-5.8-2.8-11.5-8.1-15.3c-1.3-0.9-2.3-2.1-3.5-3.2
	c1,0,1.9,0,2.9,0c0.6,1.1,1.3,1.1,1.9,0c1,0,1.9,0,2.9,0c-0.2,1.2-0.9,2.7-0.5,3.6c1.8,3.3,4,6.3,6.2,9.8c2.3-3.4,2.7-6.6,1.1-10.2
	c-0.4-1-0.7-2.1-1.1-3.2c1,0,1.9,0,2.9,0c-0.1,3.5,1.6,5.7,5.1,6.4c3.1,0.6,6.4,0.1,9.2,2c0.1,0.1,1.2-0.6,1.3-1
	c0.3-1.3,0.5-2.7,0.5-4.1c0-1.1-0.4-2.2-0.6-3.3c0.6,0,1.3,0,1.9,0c0.1,1.1,0.6,1.6,1.6,2c4.3,1.8,5,4.7,3.7,8.6
	c-0.3,1.1-0.6,2.2-1.1,3.2c-3.4,5.9-8.2,10.7-12.8,15.6c-1,1.1-2.5,0.5-2.9-1.1c-0.2-0.9-0.1-1.9-0.2-2.9c-0.5-4.9,0.4-9.6,1.4-14.3
	c0.4-2-0.3-2-1.8-2.4c-3.3-0.7-3.3-0.8-4.4,2.3c-0.7,1.8-1.2,3.6-3.1,4.8c-0.5,0.3-0.6,1.7-0.4,2.5c0.1,0.7,0.7,1.4,1.1,2.1
	c0.4,0.8,0.6,1.6,0.9,2.5c-0.9,0.1-1.8,0.3-2.8,0.3c-0.8,0-1.5-0.6-2.3-0.6c-1.7-0.2-3.2-0.2-3.3,2.3c0,1.4-0.6,2.8-1,4.2
	c-0.4,1.3-1.8,1.5-2.6,0.5c-0.6-0.8-1-1.7-1.3-2.6c-0.7-2.1-1.1-4.3-2-6.4c-0.8-1.9-0.6-4.6-3.3-5.3c-0.4,2.6-0.5,5.2-1.1,7.6
	c-0.6,2.5-1.7,4.8-2.6,7.2c-0.3,0.7-1,1.2-1.5,1.7c-0.4-0.6-0.9-1.2-1-1.9c-0.4-1.9-0.4-3.9-1.1-5.6c-0.9-2.2-2.4-4.1-3.6-6.1
	c-1.4,0.8-2.9,1.6-4.3,2.5c-0.5,0.3-1,0.8-1.5,1.2c-1.3,1-2.8,3.1-4.4,1.7c-0.8-0.7-0.2-3.3-0.1-5c0-0.6,0.6-1.2,0.7-1.8
	c0.1-0.5,0-1.3-0.3-1.7c-1-1.1-2-2.1-3.2-3c-0.2-0.2-1.3,0.3-1.4,0.6c-0.5,1.3-0.3,3-1.1,4.1c-2.1,3-4.4,5.9-6.8,8.8
	c-0.6,0.7-1.4,1.3-2.3,1.7c-1.6,0.7-3.9,2-4.8,1.4c-2.1-1.4-0.3-3.5,0.5-5.1c1.9-4,1.7-8.1,1.5-12.3c-0.1-1.3-1.1-1.7-1.9-0.8
	c-1.3,1.4-2.5,2.9-3.5,4.6c-2.5,4.5-4.8,9.1-7.3,13.5c-1.6,2.8-3.5,5.4-5,8.2c-2.6,4.8-5,9.7-7.4,14.6c-6.5,13.3-13,26.6-19.5,39.9
	c-4.5,9.3-8.9,18.6-13,28.1c-1.2,2.8-3.1,5.7-1.6,9.1c0.5,1.3-0.2,2.6-1.5,3.2c-2.2,1-2.8,3-3.4,5c-1,3.3,0.2,5.4,3.6,5.7
	c1.9,0.2,3.8-0.4,5.7-0.5c0.6,0,1.4,0.2,1.7,0.6c0.3,0.4,0.2,1.3-0.1,1.7c-1.6,2.2-3,4.6-4.9,6.5c-2.3,2.3-4.9,4.1-8.5,3.6
	c-0.5-0.1-1.1,0.2-1.6,0.3c1.4,4.2,2.9,8.1,4.2,12.1c1.1,3.4,1.5,3.8,4.8,4.1c3.7,0.3,7.3,0.7,11,1c1.5,0.1,1.8,1,1.9,2.3
	c0.3,4.2-1.5,6.5-6.9,8.3c2.3,1,4.3,1.7,6,2.8c1.1,0.7,3.2,1.1,2.7,2.9c-0.3,1-1.6,1.8-2.6,2.5c-3.2,2.1-6.7,3-10.6,2.6
	c-2-0.2-2.4,0.5-1.4,2.2c2.8,4.8,4.5,10.5,10.6,12.6c0.3,0.1,0.5,0.4,0.8,0.6c2.1,1.8,2,3.8-0.5,4.9c-1.6,0.7-3.4,0.8-5.1,1
	c-2.3,0.3-2.9,0.7-2.5,3c0.4,2.4,1,4.7,1.4,7.1c0.1,0.3-0.4,0.9-0.8,1c-0.3,0.1-0.8-0.2-1.2-0.5c-0.2-0.2-0.4-0.5-0.4-0.8
	c-0.7-3.6-1.4-7.2-2.1-10.8c-0.2-0.8-0.4-1.6-0.9-2.2c-1.5-1.9-3-3.7-4.6-5.6c-0.8-0.9-1.5-0.3-1.8,0.5c-0.2,0.5-0.3,1.3-0.1,1.8
	c1.7,4.3,2.6,8.9,5.5,12.7c4.6,6.1,7.1,13.1,5.7,20.8c-0.5,3,0.3,4.6,2.2,6.6c3.6,3.9,4.3,8.8,3.7,14c-0.2,1.3-1.3,1.8-2.4,0.8
	c-1.7-1.6-3.6-2.4-6.3-2.4c0.7,1.5,1.3,2.6,1.9,3.7c1,1.8,0.7,3.9-0.8,5c-1.5,1.1-3,0.8-4.4-0.4c-0.4-0.3-0.7-0.6-1-1
	c-2.1-2.7-5.2-3.7-8.1-5.2c-1.8-0.9-3.9-0.1-4.4,1.6c-0.3,1.1-0.2,2.5,0.1,3.7c0.1,0.6,1,1,1.5,1.5c1.3,1.2,2.6,2.3,3.8,3.5
	c0.8,0.8,1.6,2.3,2.3,2.3c3.7-0.3,3.5,2.9,3.2,4.4c-0.5,2.5,0.7,4.2,1,6.2c0.6,3.4,2.8,4.5,5.5,5.3c0.6,0.2,1.3,0.1,1.9,0.4
	c1.5,0.6,1.7,1.8,0.6,3c-1.2,1.3-2.4,2.5-4.4,2.7c-1,0.1-2.2,1-2.9,1.9c-1.1,1.3-1.8,2.9-2.6,4.4c-0.7,1.2-1.2,2.5-1.8,3.8
	c-1.7,3.5,0,7.8-2.3,11.3c-0.4,0.6,0.1,1.9,0.5,2.7c2.6,5,3.1,10.4,2.8,16c-0.1,2.6,0.7,4.7,2.5,6.6c0.7,0.7,1.2,1.7,1.8,2.6
	c-1.1,0.7-2.1,1.7-3.2,1.9c-1.3,0.2-2.9-0.1-4.2-0.5c-1.2-0.3-2.2-1.1-3.1-1.6c-0.7,3.1-1.4,6-1.9,9c-0.2,0.9,0,1.8,0.2,2.7
	c1,4.2,3.5,7.5,6.2,10.8c1.3,1.6,1,2.3-1,3.2c-1.2,0.5-2.3,1.1-3.5,1.5c-2.7,0.8-5.1,0.2-7-1.9c-0.6-0.7-1.1-1.5-2.1-3.1
	c-0.2,2.5-0.9,4.1-0.4,5.5c1.3,3.9,1.7,8.2,5.2,11.2c1.6,1.4,1.3,2.7-0.6,3.9c-1.9,1.2-3.9,2.3-6,3c-2.2,0.7-2.3,1.6-1.6,3.5
	c1.7,4.2,2.9,8.6,7,11.3c1.5,1,1.3,2.1,0.3,3.2c-0.4,0.5-1,0.8-1.8,1.5c3.3,0.4,6,0.8,8.6,1.2c2.1,0.3,3.6,2.1,2.5,3.7
	c-1.9,2.7-1.3,4.5,0.8,6.5c0.3,0.3,0.3,0.9,0.4,1.4c1.3,3.6,2.6,7.3,4,10.9c0.6,1.5,1.6,3,3.6,2.6c1.7-0.4,0.9-2.1,1.1-3.3
	c0.1-1,0-1.9-0.1-2.9c-0.3-2.9-0.7-5.7-0.9-8.6c-0.2-1.9,0.1-3.8-1.3-5.5c-0.6-0.7-0.7-2.2-0.5-3.2c1.2-6.8,3.1-13.4,2.9-20.4
	c0-0.6,0.4-1.2,0.6-1.8c1.4-5.1,2.9-10.1,4-15.3c1.8-8,3.2-16,5-23.9c1.3-5.9,2.9-11.8,4.6-17.6c2.5-8.8,4.1-17.8,6-26.7
	c0.7-3,1.7-5.9,1.9-8.9c0.5-7.9,3.1-15.4,4.5-23.1c1.2-6.6,3.9-12.9,6-19.2c2.6-7.6,5.3-15.1,8.1-22.7c0.8-2.3,1.8-4.5,2.7-6.7
	c2.7-6.5,5.4-13.1,8-19.6c3.8-9.5,7.1-19.3,11.4-28.6c5.9-12.7,9.9-26.1,15.6-38.9c2.8-6.3,5.4-12.7,8.3-19c1.9-4.1,4.5-7.8,6.1-12
	c4-10.6,9.7-20.3,15.3-30c2.4-4.2,4.9-8.3,7.2-12.5c3-5.3,5.9-10.7,8.8-16c4.1-7.3,8.7-14.2,11.7-22.1c0.4-1,1-2,1.7-2.9
	c2.9-4,5.9-7.8,9.7-11.2c4.7-4.3,8.5-9.6,12.6-14.5c1.3,0,2.6,0,3.9,0c0,0.2-0.1,0.4-0.2,0.5c-1.2,1.1-3.2,2-3.3,3.2
	c-0.2,1.8,0.9,3.7,1.5,5.5c0.2,0.5,0.7,1.3,1.1,1.3c3.3,0.6,3.2,3.2,2.6,5.2c-0.7,2.7,0.3,6.6-4.8,7c2.2,1.6,3.8,2.8,5.5,4.1
	c0.1,0.1,0.1,0.6,0,0.8c-0.1,0.2-0.5,0.3-0.8,0.3c-0.1,0-0.3-0.1-0.4-0.2c-4-2.9-8.4-4.6-13.3-5.2c1-0.1,2.1-0.3,3.1-0.3
	c2.8,0.2,5-1.3,7.1-2.7c0.8-0.5,1.4-1.7,1.7-2.8c0.6-2.5-0.6-3.7-3.1-3.2c-5.1,1.1-8.3,4.7-10.8,9c-0.2,0.3-0.1,1,0.1,1.3
	c1.5,2,3.1,4,4.8,5.9c2.5,2.9,2.5,2.9,6.4,1.6c0.5-0.2,1.1,0.2,1.6,0.3c-0.2,0.4-0.3,0.9-0.6,1.2c-1.1,1-0.9,1.6,0.5,1.8
	c1.6,0.3,3.1,0.7,4.7,0.7c2.3,0.1,3.1-1.9,4.7-3.6c-1.6-0.1-2.7-0.1-3.8-0.3c-0.5-0.1-1-0.9-1.1-1.4c0-0.3,0.7-0.9,1.2-1.1
	c1.2-0.4,2.5-0.5,3.7-0.9c1.4-0.6,2.4-2.5,4.1-1.3c0.3,0.2-0.8,2.5-1.2,3.8c-0.9,3.1-2.8,5.4-5.8,6.6c-2.1,0.8-2.4,2.4-2,4.3
	c0.2,0.9,0.7,1.8,0.8,2.8c0.2,1.6,0.3,3.4-2.2,3.4c-1.3,0-1.9,0.8-0.9,1.8c2.2,2.4,0.8,5.6,2,8.3c0.6,1.4-1.5,2.8-3.3,2.1
	c-1.6-0.7-3.3-1.5-4.6-2.6c-1.5-1.2-2-0.6-3,0.7c-1.7,2.1-1.8,4.4-1.1,6.8c1.5,5.1,2.5,10.3,5.5,14.8c0.6,0.9,1.5,2.2,0.1,3
	c-3,1.8-2.2,4.6-2.4,7.2c-0.1,1.4-0.2,2.8-0.6,4.1c-0.6,2.1-1.4,4-1.6,6.4c-0.2,3-2.7,5-5.3,6.4c-0.7,0.4-1.6,0.5-2.1,1.1
	c-0.3,0.4-0.1,2,0,2c2.6,0.2,2.1,2.1,2.2,3.8c0.1,1.1,0.3,2.3,0.8,3.2c1.8,2.7,1.8,3,1.1,5.7c-0.5,2-1.2,2-2.6,0.9
	c-0.4-0.4-1.1-0.4-1.7-0.6c-0.2,0.7-0.5,1.5-0.5,2.2c0,0.6,0.4,1.2,0.7,1.8c0.3,0.7,0.8,1.3,1.4,2.4c0.8-1.4,1.4-2.4,2.1-3.5
	c0.3,0.4,0.4,0.5,0.4,0.7c0.1,1.7,2.1,6.9,3,8.2c0.4,0.6,0.8,1.6,0.6,2.1c-1.4,2.7,0,4.7,1.4,6.7c1.4,2,3.1,4,0.6,6.4
	c-0.1,0.1,0.3,1.3,0.7,1.4c1.3,0.6,2.7,1,4.1,1.4c2.4,0.8,3.1,1.9,1.7,3.8c-1.6,2.1-0.7,3.1,0.7,4.4c1.9,1.8,3.6,3.7,5.6,5.4
	c1.8,1.6,3.8,2.3,6.2,0.8c2.4-1.6,5-1.5,7.8-0.5c2.5,1,5.3,1.2,8,1.8c-0.1,0.4-0.1,0.9-0.2,1.3c-0.5,1.4-1.5,3-1.2,4.3
	c0.3,1.1,2.1,1.9,3.3,2.6c2.2,1.4,4.3,2.9,6.6,3.9c1.5,0.7,2.1,1.3,1.5,2.8c-0.5,1.5-1.7,3.4-1.2,4.4c0.9,1.7,2.8,3,4.5,4.1
	c1.8,1.2,3.6,2.6,6.1,2.5c1.5-0.1,1.7,1.1,0.6,2.3c-1,1-2.1,1.9-3.6,3.2c1.4,1.1,2.9,2.1,4.2,3.4c1.1,1,1.9,2.2,0.4,3.7
	c-0.4,0.4-0.6,1.4-0.4,2c0.3,1.4,0.9,2.8,1.5,4.1c1,1.9,1.1,3.5-0.3,5.4c-1.4,1.8-0.7,4.9-3.7,5.7c-0.2,0.1-0.4,1.1-0.3,1.7
	c0.3,1.9,0.8,3.8,1.1,5.6c0.2,1.5-0.9,2.6-2.2,2.4c-3.3-0.3-8.4-3.2-10.9-6.1c-0.6,2.1-1.2,4-1.8,6.1c-1-0.6-2.1-1-2.9-1.7
	c-2.4-1.9-5,0.1-7.4-0.5c-0.1,0-0.6,0.7-0.6,1.1c-0.1,1,0,1.9-0.1,2.9c-0.3,1.9-1.2,2.4-3,1.4c-1-0.5-1.9-1.3-2.8-1.9
	c-1.4-0.9-2.9-1.4-4.6-0.6c-1.9,0.9-3.7,0.8-5.6-0.2c-3-1.7-6.2-1.4-9.4-0.7c-0.8,0.2-1.6,0.5-2.3,0.3c-0.5-0.1-0.7-1-1-1.6
	c-0.1-0.2,0.4-0.5,0.5-0.8c1.5-2.9,1.1-3.8-1.9-4.2c-3.1-0.4-6.2-0.6-9.3-1c-3.6-0.5-6.8-1.8-9.3-4.6c-1.1-1.2-2.5-1.8-4-2.4
	c-3.2-1.3-6.3-3.2-9.2-5.1c-2.6-1.7-2.5-1.9-4.2,0.9c-0.1,0.1-0.2,0.3-0.2,0.4c-1.8,2.8-3.4,2.8-5.4,0c-1.5-2.1-2.9-4.2-4.3-6.3
	c-1.3,2.4-2.4,4.7-3.7,6.9c-1.1,1.7-2.1,1.7-3.4,0.1c-1-1.3-1.6-2.8-2.5-4.1c-2.1-3.1-1.8-7.5-5.3-9.9c-0.2-0.1,0.2-1.1,0.3-1.7
	c0.4,0.1,1,0.1,1.2,0.3c0.9,0.9,1.8,2.6,2.6,2.5c1.2-0.1,2.4-1.3,3.6-2.1c0.4-0.3,0.8-0.5,1.5-1c0.4,3-1.4,5-2.4,7.2
	c-0.4,0.8-1.4,1.3-0.7,2.4c0.8,1.2,1.5,2.4,2.4,3.5c0.1,0.1,1.6-0.4,1.8-0.9c0.8-1.7,1.3-3.6,1.9-5.4c0.2-0.6,0-1.3,0.2-1.9
	c0.4-1,1.6-2.1,1.3-2.7c-0.5-1-1.8-1.7-2.7-2.5c-2.1-1.9-4.3-3.8-6.4-5.7c-0.1-0.4-0.2-0.8-0.3-1.3c-0.2,0.1-0.3,0.2-0.5,0.3
	c0.3,0.3,0.5,0.6,0.8,1c0.6,1.4,1.2,2.8,2.1,4.9c-2.3-0.2-4.2-0.2-6-0.6c-1.4-0.3-1.7,0.2-1.9,1.4c-0.1,1.1-0.5,2.2-0.5,3.3
	c0,0.8,0.4,1.6,0.7,2.5c-1.7,0.2-3.5,1-5.1,0.6c-2.6-0.7-5.1-2.1-6.2-4.9c-0.3-0.8-1.1-1.7-1.8-2c-1.5-0.5-3.1-0.7-4.7-0.8
	c-0.2,0-0.7,1-0.7,1.5c-0.1,1.8-0.1,3.6,0,5.3c0.1,1.9-0.9,2.5-2.7,2.5c-3.1,0-4.3-0.8-5.2-3.9c-0.3-1.1-0.6-2.2-0.9-3.2
	c-0.3-1.2,0.1-2.9-1.6-3.1c-1.5-0.1-3.3,3.2-2.5,4.7c1.5,3.3,1.3,7.3,4.2,10c0.2,0.2-0.1,1.6-0.5,1.9c-2.1,1.4-4.3,2.9-7.1,1.4
	c-1-0.5-2.1-0.7-3.2-1c0,3.7,0,7.4,0,11.1c0,4.9-1.2,6.2-5.6,5c-2.4-0.7-3.5,0.2-5,1.5c-1.9,1.7-2.5,3.6-1.7,6.1
	c0.3,1.1,0.5,2.2,0.7,3.3c0.4,2.3-1,3.4-2.9,4.4c-3.1,1.6-3,1.7-2.5,5.2c0.4,2.6-0.3,4.8-2.5,6.3c-1.5,1-2.3,2.2-2.8,3.8
	c-3.4,10.7-6,21.6-7.9,32.6c-1.4,8-3.3,16-5.1,23.9c-1.7,7.6-3.5,15.2-5.2,22.9c2-1,4-2,6.1-2.9c1.3-0.5,2,0,2.4,1.5
	c0.7,3.2,0.8,3.2,3.9,3.1c2.7-0.1,5-1,7.1-2.5c0.8-0.6,2-0.5,3-0.8c0.1,1.1,0.5,2.3,0.3,3.3c-1.1,4.6-4,8-8.2,10.1
	c-0.9,0.4-1.8,0.6-2.7,1c-1.1,0.5-1.5,1.2-0.5,2.2c2.2,2.2,4.3,4.4,6.5,6.5c1.3,1.3,2.6,2.5,3.8,3.8c1.3,1.4,4.5,3.5,6.2,3.9
	c0.5,0.1,0.9,0.3,1.4,0.5c1.1,0.5,2.8,0.7,3.2,1.5c0.7,1.6-0.8,2.6-2.1,3.4c-3,1.8-5.7,4.2-9.5,4.3c-1.7,0-1.9,0.8-0.8,2.1
	c2,2.7,4.1,5.3,6,8.1c1.4,2.1,1,2.9-1.4,3.9c-1.1,0.4-2.9,0.7-3.2,1.4c-0.4,1,0.3,2.4,0.8,3.6c1,2.7,2.2,5.4,3.3,8
	c0.6,1.4,0.6,2.3-1.2,2.9c-3,1-3.4,2-2.6,4.9c0.7,2.3,1.3,4.7,3.5,6.1c2.2-1.4,1.1-3.9,2-5.6c3-5.9,1-10.9-2.5-15.7
	c-0.4-0.5-0.9-1-1.1-1.5c-0.2-0.5,0.1-1.1,0.2-1.6c0.4,0.1,1.1,0.1,1.3,0.4c2.5,3.2,5.1,6.3,5.7,10.4c0.8,5.5,3.9,8.9,9.3,10.2
	c2.8,0.7,3.3,2.1,1.5,4.3c-1.4,1.7-3,3.2-5.4,3.9c-2.5,0.7-2.7,1.5-2.1,4c1.6,6.1,0.6,11.7-2.9,17c-2.3,3.5-0.9,10.1,2.6,11.9
	c1.2,0.6,2.8,0.5,4.2,0.6c1.1,0.1,2.3,0,3.4,0.2c0.3,0.1,0.8,1.2,0.6,1.4c-1.7,2.4-3.7,4.7-6.7,5.1c-2.5,0.4-5.2,0.2-7.7,0.1
	c-1.8-0.1-3.4-1.5-3.3-3c0.2-2.7-0.4-5.9,2.7-7.7c-0.1,1.9,0,3.8-0.5,5.6c-0.5,2,0.2,2.8,2,2.9c2.6,0.2,5.2,0.3,7.6-1.5
	c-2.9-0.8-5.3-2-6.7-4.9c-0.4-0.9-1.6-1.5-2.4-2.2c-0.1-0.5-0.1-1-0.3-1.4c-3.1-4.4-4.3-9.6-6.3-14.5c-1.3-3-1.7-6-0.7-8.9
	c0.8-2.2,0-3.7-1.1-5.3c-0.3-0.4-0.6-0.7-1-1.1c-5.4-5.2-5.2-11.3-3-17.8c0.3-0.8,0.6-1.5,0.7-2.3c0.1-1.2-0.1-2.1-1.9-1.7
	c-3.6,0.8-3.6,0.6-3.9-3c-0.2-2.2-0.7-4.4-1-6.6c-0.3-2.4-0.4-4.8-0.9-7.1c-0.8-3-1.9-6-3-8.9c-0.1-0.3-1.3-0.4-2-0.3
	c-3.1,0.3-3.5,0-2.9-3.3c1-5.7,0.9-11.5,2.7-17c0.1-0.4,0.2-1-0.1-1.4c-1.1-1.7-2.4-3.3-4.1-5.6c-0.9,3.3-1.6,5.7-2.2,8.2
	c-1.7,7.8-3.4,15.6-5,23.4c-1.4,6.9-4.4,13.4-3.9,20.7c0.2,2.5-1,5-1.4,7.5c-0.1,0.7-0.3,1.8,0.1,2.2c0.8,0.9,1.6,0.3,2.4-0.5
	c1.5-1.6,1.8-0.3,1.9,1c-0.1,0.1-0.3,0.1-0.4,0.2c-0.1,0.1-0.1,0.2-0.1,0.3c0.2-0.2,0.3-0.3,0.5-0.5c2.1-1.5,4.1-3,6.3-4.5
	c0.2-0.1,0.8,0.2,1.2,0.4c0.1,0-0.1,0.6-0.3,0.8c-1.3,1.2-2.6,2.3-4.3,3.6c2.4,1,3.7-0.5,5.3-1.1c1.2-0.5,2.9-1.8,2.2,1.2
	c-0.1,0.2,0.7,0.6,1,1c2.2,2.5,4.3,5,6.6,7.4c1.5,1.6,2.1,3,1.9,5.4c-0.2,3.2,0.8,6.7,2.1,9.7c0.9,2.3-2.4,1.7-1.7,3.4
	c-0.3-0.2-0.7-0.3-0.9-0.5c-0.5-0.6-0.8-1.4-1.2-2.1c-1.6,1.4,1.7,3.5-0.8,4.6c-0.1,0,0.1,0.9,0.3,1.1c2.5,2.2,4.1,4.9,5.6,7.8
	c1,1.9,2.4,1.8,3.7,0.1c0.4-0.5,0.6-1.1,0.9-1.7c0.2-0.4,0.5-0.8,0.8-1.2c1.9,2.5,1.8,5.4,1.6,8.2c-0.1,2.5,0.3,4.7,1.5,6.9
	c2.4,4.4,2.6,9,1.5,13.8c-0.4,1.6-1,3.3,0.1,5.1c0.4,0.6,0.2,1.8,0.1,2.7c-0.5,3.3-0.4,3.6,3.1,4.7c0.8,0.2,1.5,0.6,2.3,0.7
	c6.2,0.4,12.5,0.8,18.8,1c5.1,0.2,9.8,1.6,14.5,3.1c0.5,0.2,1.2,0.8,1.3,1.3c0,0.5-0.5,1.3-1,1.5c-1.1,0.5-2.4,0.9-3.6,0.9
	c-3.2,0-6.3,0.8-9.5,1.4c-4.6,0.9-9,1.9-13.4,3.4c-0.5,0.2-1.2-0.3-1.7-0.4c0.3-0.7,0.5-1.7,1-1.9c3.8-1.2,7.6-2.4,11.5-3.4
	c2.6-0.7,5.2-1.1,7.9-1.6c0-0.3-0.1-0.6-0.1-0.9c-1.1-0.1-2.2-0.2-3.3-0.3c-2.5-0.3-5.1-0.6-7.6-0.8c-2.7-0.3-5.4-0.9-8.1-0.8
	c-2.7,0.1-5.3,0.7-7.8,1.1c1.1,2.6,2.1,5.2,3.3,7.7c0.5,0.9,1.4,1.6,2.1,2.4c1.6,1.7,3.2,3.4,2.1,5.9c-0.6,1.4,0,2.2,1.1,2.8
	c5.1,2.7,10.2,5.6,15.5,7.9c4.4,1.9,8.9,3.5,12.7,6.7c2.3,2,5,3.5,7.5,5.2c2.2,1.5,3.9,3.3,3.9,6.6c-1.1-0.3-2.1-0.5-3.1-0.8
	c-7.8-2.3-15.6-3.5-23.8-3.1c-2,0.1-3.3,0.6-3.7,2.9c-0.8,4.2-1.8,8.4-2.8,12.6c-0.1,0.5-0.2,0.9-0.4,1.3c-0.1,0.2-0.6,0.4-0.8,0.3
	c-0.3-0.1-0.6-0.4-0.6-0.6c0.2-1.2,0.3-2.5,0.7-3.7c0.7-2,0.9-4,0.1-6c0.1-0.1,0.3-0.1,0.4-0.2c0.1-0.1,0.1-0.2,0.1-0.3
	c-0.2,0.2-0.3,0.3-0.5,0.5c-2.1,0.8-1.9,2.7-1.9,4.4c0,1.9-0.1,3.8-0.3,5.7c0,0.4-0.9,1.1-1.3,1c-0.5-0.1-1.2-1.1-1.1-1.3
	c1.6-2.7-0.4-5.2-0.3-7.9c2.5-2,3.7-4.9,4.9-7.8c0.3-0.3,0.6-0.6,1-1c0.1-0.1,0.3-0.1,0.4-0.2c0.1-0.1,0.1-0.2,0.1-0.3
	c-0.2,0.2-0.3,0.3-0.5,0.5c-0.3,0.3-0.6,0.6-1,1c-2.8,1.8-4.9,4.1-4.8,7.8c-0.7,1.2-1.4,2.3-2.5,4.1c-1.4-6.5,1.9-10.2,6.4-13.9
	c-1.8-0.7-3.3-1.4-4.8-1.7c-5-1-10.1-1.8-15.1-2.6c-1.4-0.2-2.9-0.2-4.3-0.3c-1.3-0.1-2.6-0.2-3.8-0.4c-3.9-0.8-7.8-1.7-11.7-2.4
	c-1.1-0.2-2.4-0.4-3.4,0c-4,1.5-7.9,0.5-11.8-0.4c-1.6-0.4-2.2,0.4-2.2,1.6c0.1,2.2,0.5,4.4,0.7,6.7c0,0.5-0.5,1-0.8,1.5
	c-0.4-0.3-0.9-0.5-1-0.8c-0.4-1.4-0.9-2.8-0.9-4.2c-0.1-4.4,0.1-8.7-0.1-13.1c-0.2-4.1-0.9-8.2-2.5-12.1c-0.1,5-0.4,9.9,0.3,14.9
	c0.7,4.9,0.2,10,0.2,15c0,0.4-0.7,0.8-1.1,1.2c-0.3-0.4-0.7-0.7-0.7-1.1c-0.1-1.6-0.1-3.2-0.1-4.8c0-1.6,0.2-3.3-0.1-4.8
	c-0.1-0.8-0.9-2-1.5-2.1c-1.4-0.2-1.1,1.1-1.2,2c-0.1,1.1-0.3,2.2-0.6,3.3c-0.1,0.3-0.8,0.7-1.1,0.6c-0.4-0.1-0.8-0.7-0.8-1
	c0.1-4,0.3-8,0.5-12c0.3-0.3,0.5-0.6,0.8-1c-0.2-0.1-0.3-0.2-0.5-0.3c-0.1,0.4-0.2,0.8-0.3,1.3c-1,3.2-1.9,6.3-3,9.5
	c-0.1,0.3-0.6,0.5-1,0.5c-0.2,0-0.6-0.5-0.5-0.7c0.1-0.8,0.3-1.5,0.4-2.3c0.2-1.5-0.6-2.4-1.8-1.9c-5.5,2.2-11.5,3-16.6,6.2
	c-6.3,3.9-12.5,8-18.8,11.8c-2.1,1.2-2.7,2.6-2,4.8c0.1,0.5,0.5,1,0.4,1.4c-0.2,0.5-0.7,1-1.1,1.4c-0.4-0.4-1-0.7-1.3-1.2
	c-0.2-0.4-0.2-0.9-0.2-1.4c0-6.3,0-12.6,0-18.9c0-0.9,0.4-1.9,0.6-2.8c0.5-1.8,0.2-3.4-1.3-4.7c-2.4,9.6-0.7,19.3-1.5,29.5
	c-2.4-2.7-4.5-1.8-6.6-0.5c-7,4.5-14.9,6.4-22.8,8.3c-3.6,0.9-7,2.1-10.6,3c-1.5,0.4-3.3,1.1-4.7,0.6c-3.5-1.1-6.6-0.1-9.7,1.2
	c-0.5,0.2-1.6,0.4-1.7,0.2c-0.4-0.6-0.6-1.5-0.5-2.1c1.2-4,2.9-7.5,7-9.9c7.9-4.7,15.3-10,22.7-15.3c4-2.8,6.8-6.8,9.1-11.1
	c0.2-0.3,0.3-0.6,0.3-0.9c-0.1-0.4-0.3-0.9-0.4-1.3c-0.4,0.2-1,0.2-1.1,0.5c-0.6,2.4-1.6,1.8-2.1,0.1c-0.4-1.6-1.4-1.9-2.8-2
	c-4.3-0.3-8.6-0.6-13-0.9c-5.2-0.3-10.5-0.6-15.7-1c-0.5,0-1.1-0.5-1.4-0.9c-0.1-0.2,0.2-1,0.5-1.2c1.9-1.2,3.7-2.7,5.8-3.4
	c6.1-2.1,12.2-4,18.4-5.8c1.4-0.4,2.9-0.3,4.3-0.3c5.9-0.2,8.6-1.9,10.5-7.4c2.3-6.5,4.3-13.1,3.9-20.2c-0.1-2-0.5-4.2,1.9-5.6
	c0.7-0.4,0.8-1.9,0.9-3c0.6-4.3,1.1-8.6,1.7-12.8c0.1-0.6,0.4-1.4,0.2-1.9c-1.2-3,0.2-6,0-9c-0.4-5.1-1-10.2-1.5-15.3
	c-0.1-1.3-0.3-2.6-0.3-3.8c-0.1-6.6,0-13.3-0.1-19.9c-0.1-4.2-1.1-8.4-0.8-12.5c1-12.3,0.5-24.7,0.9-37c0.3-8.2,1-16.3,2-24.4
	c0.5-3.8,2-7.4,3.1-11.1c1.3-4.1,2.9-8.2,4.1-12.3c2.2-7.5,3.7-15.3,6.4-22.6c4-10.4,5.9-21.3,9.4-31.8c3.1-9.4,5.5-19.1,8.4-28.6
	c0.4-1.2,0-1.8-1-2.2c-0.4-0.2-0.9-0.5-1.3-0.6c-1.3-0.3-2.6-0.6-2.9-2.2c-0.4-2,1.6-1.6,2.5-2.3c3.9-3.5,7.5-7.1,7.2-13
	c-0.1-2,0.5-4.1,0.8-6.6c-1.9,0.9-3.6,1.5-5.2,2.5c-2.6,1.6-4.9,0.7-7.2-0.5c-0.9-0.5-1.4-1.8,0-2.2c4.7-1.4,5.9-5,5.8-9.3
	c0-0.6,0.4-1.2,0.6-1.8c0.3-1,0.5-2,0.7-3.1c-1.1,0.2-2.1,0.4-3.2,0.5c-0.6,0.1-1.3,0.3-1.9,0.3c-3.1,0.3-4.8-2-3.7-4.9
	c1-2.7,3.2-4.3,5.3-6.1c2.6-2.2,5-4.6,7.4-7c0.2-0.2,0-0.8,0-1.3c-0.4,0.1-1,0-1.2,0.2c-3.2,3.8-7.1,3.5-11.4,2.6
	c-3.5-0.7-6.6-1.4-8.7-4.4c-1.7-2.4-1.3-3.2,1.6-3.8c1.4-0.3,2.8-0.6,4.7-1.1c-2.2-1.5-3.8-2.6-5.4-3.8c-0.6-0.4-1.3-1.7-1.1-1.9
	c2.2-2.4-0.3-2.6-1.5-2.6c-2.5-0.1-4.4-0.9-5.8-2.8c-0.7-0.9-0.8-1.5,0.4-2.2c2.7-1.5,3-2.2,2.5-4.7c-0.2-1.1-0.6-2.2-0.8-3.3
	c-0.7-4.4-0.7-4.6-5.1-4.5c-3.1,0.1-5.5-1.7-8.2-2.5c-1.2-0.4-1.5-1.8-0.4-2.7c3.1-2.6,6-5.3,9.4-7.4c1.8-1.1,2.6-2.3,3.1-4
	c0.5-1.4,0.6-2.8,0.8-4.2c0.1-0.4,0.1-1.1-0.1-1.3c-2.5-2.1-2.6-4.1-0.1-6.3c0.1-0.1-0.2-1-0.4-1.1c-0.3-0.1-0.9,0.1-1.2,0.3
	c-2.1,1.7-4,3.6-6.3,5.1c-3.8,2.5-6.9,2.2-9.7-0.4c-0.9-0.9-1.4-1.7-0.6-2.9c1-1.6,1.8-3.4,2.8-5.1c-0.3-0.2-0.7-0.5-1.1-0.7
	c-2.8-1.6-2.8-1.6-1.8-4.6c1.1-3.5,0.8-4.7-2.1-7c-1.2-1-2.6-1.8-3.8-2.9c-1.6-1.4-1.7-2.5-0.4-4.2c0.2-0.3,0.5-0.5,0.7-0.7
	c3.8-4.2,3.8-4.2-1.1-7.5c-0.8-0.5-1.6-1.1-2.5-1.5c-3.6-1.9-5.5-4.5-5-8.9c0.3-3.3-0.2-3.6-3.7-2.7c-3.3,0.8-6.1-0.1-8.2-2.5
	c-2.1-2.4-1.7-3.5,1.2-5.2c1.2-0.7,2.3-1.7,3.5-2.5c-4.1-2.2-4.3-2.4-7.1,0.6c-4.6,4.9-10.3,3.3-14.6,1.4c-0.4-0.2-0.4-1.3-0.4-1.9
	c0-0.2,0.4-0.5,0.6-0.7c0.8-1.1,2.4-2.4,2.2-3.4c-0.2-1.4-1.7-2.6-2.8-3.8c-0.3-0.3-1.3-0.4-1.6-0.1c-1.4,1-2.7,2.2-3.8,3.5
	c-0.7,0.8-0.9,2.1-1.6,3c-2,2.4-1.6,4.3-0.2,7.1c2.9,6,2.8,12.1-1.5,17.7c-0.3,0.4-1.1,0.9-1.5,0.8c-0.4-0.1-0.7-0.9-0.9-1.4
	c-0.8-1.7-1.5-3.5-2.5-5.1c-0.5-0.9-1.5-1.2-2.3,0.1c-0.5,0.8-1.2,1.5-1.7,2.4C83,72,80,73.1,76.3,72.9c-1.8-0.1-3.6,0.2-3.7-2.5
	c0-1.3-1.1-1.5-2.1-1.1c-0.9,0.3-1.8,0.7-2.6,1.2c-1.6,0.9-2.8,0.1-4-0.7c-1-0.6-1-1.6-0.2-2.4c0.4-0.4,1.3-0.7,1.5-1.2
	c0.7-1.6,1.4-3.3,1.6-5c0.3-3-2.8-1.3-3.8-2.5c-0.2-0.2-0.6-0.3-0.9-0.4c-3.5-1.8-3.1-1.7-0.9-4.1c1.7-1.8,2.7-4.3,3.8-6.6
	C66.2,45.3,67.4,43,69.9,41.8c0.1,0.2,0.1,0.4,0.2,0.4c0.6,0.3,1.2,0.6,1.8,0.8c0.2-0.5,0.3-1.1,0.5-1.6c-0.7,0.1-1.4,0.1-2.1,0.2
	C70.2,41.7,70,41.7,69.9,41.8z M204.7,6.9c0.1-0.1,0.3-0.1,0.4-0.2c0.1-0.1,0.1-0.2,0.1-0.3C205,6.6,204.9,6.7,204.7,6.9
	c-0.3,0.3-0.6,0.7-1,1c-0.6,0-1.2,0-1.8,0.2c-0.3,0.1-0.5,0.6-0.8,0.9c0.5,0.1,1.1,0.4,1.5,0.3c0.5-0.3,0.8-0.9,1.1-1.4
	C204.1,7.5,204.4,7.2,204.7,6.9z M194,2c0.1-0.1,0.3-0.1,0.4-0.2c0.1-0.1,0.1-0.2,0.1-0.3C194.4,1.7,194.2,1.9,194,2
	c-0.1,0.1-0.3,0.1-0.4,0.2c-0.1,0.1-0.1,0.2-0.1,0.3C193.7,2.4,193.9,2.2,194,2z M180.5,9.8c0.3,0.3,0.6,0.6,1,1
	c0.4,1.4,0.6,2.9,1.2,4.1c0.5,0.9,1.5,1.6,2.2,2.4c0.7-0.7,1.5-1.4,2.1-2.3c0.5-0.8,0.7-1.7,1.1-2.7c-1.4-0.5-2.6-1.1-3.8-1.4
	c-0.9-0.2-1.9-0.1-2.9-0.2C181.1,10.4,180.8,10.1,180.5,9.8c-0.1-0.1-0.1-0.3-0.2-0.4c-0.1-0.1-0.2-0.1-0.3-0.1
	C180.1,9.5,180.3,9.6,180.5,9.8z M268.7,20.5c-0.3,0.6-0.6,1.3-1,1.9c-0.3,0.6-0.6,1.3-1,1.9c-0.3,0.3-0.5,0.6-0.8,0.9
	c0.2,0.1,0.3,0.2,0.5,0.3c0.1-0.4,0.2-0.8,0.3-1.3c0.3-0.6,0.6-1.3,1-1.9C268.1,21.8,268.4,21.1,268.7,20.5c0.3-0.3,0.5-0.6,0.8-0.9
	c-0.2-0.1-0.3-0.2-0.5-0.3C268.9,19.6,268.8,20,268.7,20.5z M114.5,9.8c0.3-0.3,0.5-0.6,0.8-1c-0.2-0.1-0.3-0.2-0.5-0.3
	C114.7,8.9,114.6,9.4,114.5,9.8c-0.1,0.1-0.3,0.1-0.4,0.2c-0.1,0.1-0.1,0.2-0.1,0.3C114.2,10.1,114.3,10,114.5,9.8z M213.4,496.7
	c-0.1-0.1-0.1-0.3-0.2-0.4c-0.1-0.1-0.2-0.1-0.3-0.1C213.1,496.4,213.3,496.6,213.4,496.7c0.1,0.4,0.2,0.8,0.3,1.3
	c0.2-0.1,0.3-0.2,0.5-0.3C213.9,497.4,213.7,497.1,213.4,496.7z M195,339.6c-0.3,0.5-0.7,0.9-0.9,1.4c-0.1,0.2,0.2,0.5,0.3,0.8
	c0.2-0.3,0.5-0.6,0.5-0.9C195,340.5,195,340,195,339.6c0.1-0.1,0.3-0.1,0.4-0.2c0.1-0.1,0.1-0.2,0.1-0.3
	C195.3,339.3,195.2,339.4,195,339.6z M196,372.6c0.2,1.3-0.6,2.9,1,3.9c0.5,3.6-0.7,6.6-3.5,8.9c-0.4,0.3-0.8,0.6-1,1
	c-0.4,0.8-1,1.9-0.7,2.4c0.4,0.6,1.7,1.3,2.3,1.2c2.4-0.7,4.7-1.8,7-2.7c-0.6-1.7-1.2-3.5-1.9-5.2c-0.7-1.9-1.5-3.7-2.3-5.6
	C196.6,375.2,196.3,373.9,196,372.6c-0.4-1.6,0.7-3.5-1-4.8c0-1,0-1.9-0.1-2.9c-0.1-0.6-0.4-1.1-0.7-1.6c0-0.1-0.4,0-0.4,0
	c-0.1,0.7-0.5,1.5-0.3,2.1c0.3,0.9,1,1.6,1.5,2.3C195.3,369.3,194.3,371.2,196,372.6z M150.4,507.4c-1.3,1.1-2.1,2.4-1,4.3
	C149.7,510.3,150,508.9,150.4,507.4c0.1-0.1,0.3-0.1,0.4-0.2c0.1-0.1,0.1-0.2,0.1-0.3C150.7,507.1,150.5,507.2,150.4,507.4z
	 M410.3,195c-1.7,0.1-2.7,1.1-3.6,2.6C409.4,198.1,410.1,196.9,410.3,195c0.2-0.1,0.3-0.3,0.5-0.5
	C410.6,194.7,410.5,194.9,410.3,195z M217.3,84.5c-0.1-0.1-0.1-0.3-0.2-0.4c-0.1-0.1-0.2-0.1-0.3-0.1
	C217,84.2,217.2,84.3,217.3,84.5c0.4,2.3,0.8,4.6,1.3,6.9c0.1,0.3,1.1,0.6,1.6,0.5c0.3,0,0.7-1.1,0.6-1.4
	C219.7,88.5,218.5,86.5,217.3,84.5z M149.4,503.5c-0.6,0.3-1.3,0.6-1.9,0.9c0.3-1.3,0.6-2.6,0.9-3.8c6.3-5.4,8.5-15.2,5.5-23.1
	c-0.8,4.5-1.5,9.5-2.6,14.4c-0.7,2.9-1.9,5.8-2.9,8.6c-0.7,0.6-1.6,1.1-2.2,1.8c-1.7,2.1-4.1,3-6.4,2.9c-5.8-0.3-11.1,1.7-16.4,3.3
	c-3.4,1.1-7.3,1.5-10.6,4.5c6.2,0.4,11.8,0.7,17.4,1c2.6,0.1,5.2-0.1,7.7,0.2c3.7,0.5,3.8,0.6,4.6-2.7c0.6-2.6,1.3-5,4-6.2
	c-0.6,1.6-1.3,3.2-1.7,4.9c-0.3,1.4-0.3,2.9-0.4,4.4c1-1.1,1.2-2.3,1.6-3.5c0.5-1.3,1.3-2.5,1.8-3.8
	C148.4,506.2,148.9,504.8,149.4,503.5c0.1-0.1,0.3-0.1,0.4-0.2c0.1-0.1,0.1-0.2,0.1-0.3C149.7,503.2,149.6,503.4,149.4,503.5z
	 M88.3,38c0.5,0.2,1,0.3,1.5,0.5c0.1-0.3,0.1-0.5,0.2-0.8C89.4,37.7,88.9,37.8,88.3,38c0.6-5.6,0.3-4.9-4.4-7.2
	c-1.1,3-0.4,5.1,2.9,6.1C87.3,37,87.8,37.6,88.3,38z M196,309.5c-1.3,0.6-2.2,1.6-1.7,3c0.9,2.5,2,4.8,3.4,8c1.1-2.9,1.9-4.9,2.5-7
	c0.2-0.8-0.3-1.8-0.7-2.6c-0.5-1.3-1.5-0.7-2.5-0.6C196.7,310.3,196.3,309.8,196,309.5c0.1-0.1,0.3-0.1,0.4-0.2
	c0.1-0.1,0.1-0.2,0.1-0.3C196.3,309.2,196.1,309.4,196,309.5z M290.1,173.7c1.4-0.8,2.7-1.8,4.1-2.5c2.5-1.1,3.2-3.4,3.9-5.7
	c0.6-2.3-1.6-2.1-2.5-2.9c-1-1-1.6,0.4-1.9,1.2C292.4,167.1,291.3,170.4,290.1,173.7c-0.1,0.1-0.3,0.1-0.4,0.2
	c-0.1,0.1-0.1,0.2-0.1,0.3C289.7,174,289.9,173.9,290.1,173.7z M191.1,309.5c3.3-2.8,6.4-5.5,4-10.7c-1.1-2.4-1-5.4-1.5-8.9
	c-1,1.4-2.1,2.3-1.9,2.9C192.9,298.4,191.8,304,191.1,309.5c-0.1,0.1-0.3,0.1-0.4,0.2c-0.1,0.1-0.1,0.2-0.1,0.3
	C190.8,309.8,191,309.7,191.1,309.5z M205.7,129.1c-0.3,0.2-0.6,0.3-0.8,0.5c-2,1.4-2.2,3.3-2,5.5c0.2,2.3,2.4,1.9,3.6,2.5
	c1.7,0.9,3.8,1.2,6.3,1.9c-1.3-2.3-2.1-4-3.2-5.6C208.3,132.3,207,130.7,205.7,129.1c0.1-0.1,0.3-0.1,0.4-0.2
	c0.1-0.1,0.1-0.2,0.1-0.3C206,128.8,205.8,128.9,205.7,129.1z M274.5,10.8c-0.5-0.7-1.2-1.4-1.3-2.1c-0.2-1,0.1-2,0.2-3.9
	C272,7,271.1,8.5,270,9.9c-1.1,1.4-2.5,2.5-3.7,3.9c-2,2.2-1.9,2.3-0.1,5.3c1.5-1.2,1.9-4.1,4.8-2.9c0.2,0.1,0.9-0.4,1.1-0.7
	C273,13.9,273.7,12.3,274.5,10.8c0.1-0.1,0.3-0.1,0.4-0.2c0.1-0.1,0.1-0.2,0.1-0.3C274.9,10.4,274.7,10.6,274.5,10.8z M184.3,357.1
	c3.7-1.7,4.3-5.5,5.6-8.6c0.8-2.1-1.5-6.1-3-5.7c-2.4,0.6-2.2,3-2.4,4.7C184.2,350.6,184.4,353.8,184.3,357.1
	c-0.1,0.1-0.3,0.1-0.4,0.2c-0.1,0.1-0.1,0.2-0.1,0.3C184,357.4,184.2,357.2,184.3,357.1z M242.5,354.1c-0.1-0.1-0.1-0.3-0.2-0.4
	c-0.1-0.1-0.2-0.1-0.3-0.1C242.2,353.8,242.4,354,242.5,354.1c1.6,3,3.3,6.1,4.9,9.2c1.6,3.1,2.5,3.7,6,3.3c0.5-0.1,1.1-0.5,1.4-0.9
	c0.1-0.2-0.2-0.9-0.5-1.2c-2.9-3.2-5.7-6.5-8.7-9.5C244.9,354.4,243.6,354.4,242.5,354.1z M388,230c1.5,0.6,2.9,1.2,4.5,1.7
	c3.2,1,4.1,0.3,4.2-3c0-1.1,0-2.3,0-3.4c0-1.4-0.5-2.2-2.1-1.5c-1.2,0.5-2.4,1-3.6,1.2c-0.6,0.1-1.3-0.5-2-0.8
	c0.1-0.1,0.3-0.1,0.4-0.2c0.1-0.1,0.1-0.2,0.1-0.3c-0.1,0.2-0.3,0.3-0.4,0.5c-0.4-0.2-0.9-0.3-1.3-0.5c-0.1,0.4-0.3,0.8-0.2,1.1
	C388.2,226.5,389.5,228.1,388,230c-1.7-0.6-3.3-1.2-5-1.6c-0.4-0.1-1.1,0.6-1.3,1.2c-0.1,0.2,0.6,1.2,0.9,1.2
	C384.4,230.7,386.4,231.6,388,230z M184.3,95.2c-1.3,3.3-3.2,6.5-0.5,9.8c1.2-2.2,2.3-4.4,3.6-6.6c0.8-1.4,0.7-1.9-0.9-2.3
	C185.7,95.9,185.1,95.5,184.3,95.2c0.3-1.4,0.9-2.8,0.9-4.2c-0.2-3.6,1.3-6.5,3.3-9.3c0.9-1.4,1.5-3,2.3-4.5
	c-2.5,0.2-4.7,0.9-6.4,2.2c-1.3,1-2.3,2.7-1.6,4.7c1,3,1,5.9-0.1,8.9C182.1,94.4,182.9,95.1,184.3,95.2z M176.6,134
	c-0.1-1.4,0-2.9-0.4-4.3c-0.2-0.6-1.4-0.8-2.1-1.2c-0.3,0.8-1,1.6-0.8,2.3C173.5,132.6,175.1,133.3,176.6,134
	c-1.9,4.2-4.2,8.1-8.1,10.9c-0.5,0.3-0.8,0.9-1.2,1.4c0.6,0.4,1.2,1,1.9,1.3c2,0.9,3.7,0.5,5.1-1.2c1.7-2,1.3-5.2,4-6.7
	c0.1-0.1,0.1-0.6,0-0.9C177.8,137.1,177.2,135.5,176.6,134z M152.3,83.5c-2.8,0.1-2.7-2.1-3.1-3.9c-0.7-2.9-1.5-3.1-3.8-1.3
	c-0.9,0.7-1.9,1.2-2.7,2c-0.8,0.7-1.3,1.7-0.3,2.4c2.3,1.6,4.7,3.3,7.3,4.5c1.5,0.7,2.3-0.2,2.6-2.2C152.4,84.5,152.3,84,152.3,83.5
	c1.4-3.8,2.8-7.7,4.2-11.5c0.1-0.3,0.1-0.7,0-0.9c-0.3-0.4-0.6-0.8-1-0.9c-0.3-0.1-1,0.3-1,0.6c-0.4,1.8-0.7,3.7-1,5.6
	C153.1,78.8,152.7,81.2,152.3,83.5z M235.7,26.3c0.9-1.8,1.9-3.6,2.6-5.5c0.2-0.5-0.3-1.9-0.6-1.9c-0.9-0.2-2.1-0.1-2.6,0.4
	c-0.8,0.7-1.2,1.9-1.6,2.9c-1.6,4.6-5.2,7.2-9.2,9.4c-1.2,0.6-2.3,1.3-3.6,2c0.6,0.4,0.9,0.5,1.1,0.7c3.3,2.2,3.3,2.2,5.6-0.8
	c2.2-2.8,4.3-5.6,6.6-8.2C235.4,23.6,235.6,25,235.7,26.3c-0.3,0.6-0.7,1.3-1,1.9c-1.7,1.9-3.4,3.7-5.1,5.6
	c-2.6,2.8-2.9,6.4-2.4,9.9c0.5,3.4,1.5,6.7,2.4,10.3c3.2-2.9,6.2-5.9,4.8-10.9c-0.1-0.4-0.2-1,0-1.3c0.8-1.2,1.4-2.2-0.8-1.3
	c-1.7,0.7-2.8,0.1-3.8-1.1c-1.3-1.6,0.2-2.7,0.9-3.8c1-1.5,2.2-2.7,3.1-4.2c0.5-0.9,0.6-2.1,0.9-3.1
	C235.1,27.6,235.4,26.9,235.7,26.3z M217.3,194.1c-0.1-0.4-0.2-0.8-0.3-1.3c-0.2,0.1-0.3,0.2-0.5,0.3
	C216.8,193.5,217.1,193.8,217.3,194.1c-0.1,1.1,0.2,2.4-0.3,3.3c-2.2,3.6-0.4,6.1,2,8.6c1.2,1.3,2.2,2.8,3.4,4
	c0.7,0.7,1.8,1.4,2.8,1.5c2,0.2,4,0.1,6.7,0.1c-0.8-0.9-1-1.4-1.4-1.6c-4-1.5-6.5-4.5-8.7-8C220.3,199.4,218.8,196.7,217.3,194.1z
	 M307.5,533.6c0.1,0.1,0.1,0.3,0.2,0.4c0.1,0.1,0.2,0.1,0.3,0.1C307.8,533.9,307.7,533.7,307.5,533.6c-3.4-2.6-6.8-5.2-10.3-7.7
	c-0.7-0.5-1.9-1-2.6-0.7c-2.7,0.9-5.6,1.5-7.4,4c-0.3,0.5-0.8,1.2-0.7,1.6c0.1,0.4,1,0.7,1.5,0.7c2.4,0.2,4.8,0.1,7.2,0.4
	C299.4,532.4,303.4,533,307.5,533.6z M40.8,32.1c-1.4,0.8-2.7,1.7-4.1,2.5c-0.3,0.2-0.9,0.1-1.3-0.1c-0.2-0.1-0.4-0.6-0.3-0.8
	c0.6-1.4,1.2-2.8-0.2-3.9c-1-0.8-2.2-1.5-4-2.6c0.6,3.3,1.7,5.8,0.2,8.2c-0.1,0.2-0.1,0.7,0.1,0.9c2.1,3.2,4,6.6,7.9,8.1
	c1.1,0.4,2.4,0.4,3.6,0.6c-0.1-1.2,0.2-2.5-0.2-3.6C41.4,38.4,40.2,35.4,40.8,32.1c0.3,0,0.7,0,0.9-0.1c0.5-0.3,1-0.7,1.4-1
	c0,0-0.4-0.6-0.4-0.5c-0.5,0.3-1,0.6-1.5,0.9C41,31.5,40.9,31.8,40.8,32.1z M211.5,24.3c-0.9,0.6-2.3,1.1-2.6,1.9
	c-1.7,4.8-5.7,9.2-3.2,15c0.2,0.4,0,1,0,1.4c0.4,2.1,0.7,4.3,1.2,6.9c4.2-6.5,5.9-14.9,4.7-21.3C211.4,27,211.5,25.6,211.5,24.3
	c2.7-0.3,1.5,3,3.5,3.5c1.5-2.3,2-5.3,5.3-6.2c1.2-0.3,1.1-2.4,0.1-3.3c-0.9-0.8-1.7-0.5-2.5,0.2C215.7,20.5,213.6,22.4,211.5,24.3z
	 M389,205.7c-1.3,0.1-2.2,0.8-1.7,2.2c0.2,0.6,0.9,1,1,1.6c0.2,0.8,0.1,1.7,0.2,2.5c-0.6-0.5-1.1-1.1-1.7-1.6
	c-0.1-0.1-0.3-0.2-0.5-0.3c-0.3,2.9-0.7,5.7,1.9,8c0.6,0.5,0.6,1.7,0.8,2.7c0.3,1.2,1.2,1.4,2.2,1.3c4.7-0.6,7.5-3.9,10.1-7.4
	c0.6-0.8,0.1-2-1.2-2c-2.8-0.1-6-1.5-8,2.1c-0.3,0.5-0.9,0.9-1.5,1.2c-0.3,0.2-1,0.2-1.2-0.1c-0.2-0.2-0.3-1-0.1-1.2
	c0.7-0.9,1.5-1.7,2.3-2.4c1.2-1.2,1.4-2.1-0.4-2.9C389.8,208.7,388.5,207.8,389,205.7c2.7,1.3,5.4,2.6,8.8,4.2
	c-2.4-3.3-4.1-5.7-6-8.1c-0.8-1-1.8-1.8-2.9-2.3c-0.5-0.3-1.4,0.1-2.1,0.2c0.1,0.5,0.1,1.1,0.3,1.6
	C387.7,202.9,388.4,204.3,389,205.7z M182.4,40.8c-1.3-1.6-2.7-3.1-3.8-4.7c-1.7-2.3-3.5-4.4-6.7-6.3c0.3,3.7,0.6,6.7,0.9,9.8
	c0.3,2.4,0.7,4.7,0.9,7.1c0.1,1.7,0,3.5,0,5.5C179.3,48.2,180.6,46.5,182.4,40.8c2-3.1,2.4-7.4,7.2-9.1c-2.7-2.2-5-3.9-7-5.9
	c-1.7-1.7-3.1-1.1-4.7-0.1c-3.2,2.1-3.3,2.9-0.5,5.7C180,34,182.4,36.8,182.4,40.8z M150.4,38.9c-1.4,1.9-2.6,4-4.3,5.7
	c-1.8,1.8-2,3.9-1.3,5.8c1.3,3.1,1.9,6.1,1.9,9.3c0,0.7,0.7,1.3,1.1,2c0.5-0.3,1.2-0.5,1.6-0.9c2.3-2.4,4.1-5.1,3.9-8.5
	c-0.3-4.2,1.9-9.1-2.7-12.4C150.3,39.7,150.4,39.2,150.4,38.9c0.3-0.3,0.5-0.6,0.8-1c-0.2-0.1-0.3-0.2-0.5-0.3
	C150.6,38,150.5,38.5,150.4,38.9z M85.4,57.3c-0.7,0.8-1.4,1.6-2.1,2.5c-1,1.3-1.8,1.3-2.5,0c-0.9-1.6-1.6-3.1-0.9-5
	c0.6-1.5,1-3,1.3-4.6c0.2-1.2,0.3-2.6,0.1-3.8c-0.2-1-1-1.6-2.1-0.7c-2.4,2-3.4,4.5-3.4,7.6c0,4.8-0.1,9.6-0.4,14.4
	c-0.1,2.3,0.6,3.6,2.7,3c1.6-0.4,3.2-1.4,4.3-2.6C85.1,65.1,85.6,61.3,85.4,57.3c0.1-0.1,0.3-0.1,0.4-0.2c0.1-0.1,0.1-0.2,0.1-0.3
	C85.7,57,85.6,57.2,85.4,57.3z M198.9,27.3c1.4-0.6,2.9-2.1,4,0.3c0.2,0.4-0.1,1.5-0.2,1.5c-3.6,0.3-2.8,3.6-3.5,5.6
	c-1.9,5.4-0.4,10.4,2.1,15.6c1.5-3.4,1.9-4.9,1.7-7.1c-0.5-5-0.6-10,2-14.5c0.7-1.2,0.7-2.2-0.6-2.8c-2.5-1.2-1.5-2.8-0.6-4.4
	c1.1-2,2.4-3.8,3.3-5.8c0.9-1.9,0.4-2.6-1.6-2.8c-0.6-0.1-1.3,0-1.9,0c-1.2,0-2.8-0.4-3.4,0.2c-0.8,0.7-0.9,2.3-1.1,3.6
	c-0.1,0.9-0.3,2.1,0.1,2.9C200.4,22.1,199.7,24.6,198.9,27.3c-0.3,0.6-0.7,1.3-1,1.9c-0.7,1.1-1.3,2.2-2.1,3.2
	c-0.4,0.5-1.2,1.2-1.8,1.1c-3.8-0.4-5.8,1.8-7.4,4.7c-3,5.4-4.4,11.8-10.1,15.4c-0.1,0.1,0.2,1.2,0.5,1.3c0.7,0.3,1.6,0.5,2.3,0.3
	c5.9-2.1,11.7-4.2,13.8-11.1c0.3-0.8,1.1-1.5,1.6-2.3c0.4-0.5,1-0.9,1.1-1.4c0.8-3.7,1.4-7.5,2.1-11.2
	C198.2,28.5,198.6,27.9,198.9,27.3z M309.5,137.8c-0.6-4.5,0.4-8.6,2.8-12.5c1.3-2.2,2-4.8,3.5-6.8c1.6-2.1-0.4-5.2,2.3-6.8
	c0.2-0.1,0-0.9-0.1-1.3c-0.5,0.2-0.9,0.5-1.4,0.7c-0.1,0.1-0.2,0.3-0.2,0.4c-4.8,10.2-9.6,20.4-14.3,30.6c-1.5,3.3-1.1,3.8,3,6
	c0.4-1.4,0.9-2.7,1.2-4.1c0.4-1.5,0.9-3.1,1.2-4.7C307.7,138.3,308.4,137.8,309.5,137.8c-0.5,2.3-0.7,4.8-1.6,6.9
	c-2.9,7.4-0.6,14.5,1,21.6c0.3,1.2,1.2,1.4,2.2,0.5c2.9-2.6,4-6.1,4.8-9.7c0.4-1.9,1.5-4-1.7-4.7c-0.4-0.1-0.8-1.4-0.7-2.1
	C313.5,145.7,311.3,141.8,309.5,137.8z M207.6,150.4c-1-0.9-2.1-1.8-3.1-2.7c-0.6,1.5-0.8,2.9-1.6,4c-2,2.7-3,5.5-2,8.9
	c0.4,1.3,0.1,2.9,0.1,4.3l-0.1,0.1c-0.9-0.4-1.8-1-2.1,0.6c-0.5,2.5-1.1,5-1.3,7.5c-0.3,4-0.2,8-0.2,12c0,0.3,0.6,0.6,0.9,0.8
	c0.1,0,0.6-0.3,0.6-0.6c1.4-5.8,5.1-11,3.7-17.6c1.3,0.6,2.1,1,3,1.3c1,0.4,2.1,0.9,3.2,1.1c3.2,0.7,5.4-1.5,4.6-4.6
	c-0.3-1.2-0.9-2.4-1.3-3.6C210.9,158,207.8,154.8,207.6,150.4c7.5,3.9,10.3,2.6,15.5-5.2c-5.9-1.7-11.9-3.4-18.5-5.2
	C205.9,143.8,208.4,146.7,207.6,150.4z M205.7,55.4c-0.1-0.1-0.1-0.3-0.2-0.4c-0.1-0.1-0.2-0.1-0.3-0.1
	C205.4,55.1,205.5,55.2,205.7,55.4c-0.3,9.5,3.1,18.1,5.8,27.8c1.6-3.6,2.4-6.2,1.2-9.3c-1-2.7-1.3-5.6-1.9-8.4
	c-0.1-0.4,0.2-1.1,0.5-1.1c0.4-0.1,1,0.1,1.3,0.4c0.4,0.6,0.8,1.4,1,2.1c0.7,3,1.4,5.9,1.8,8.9c0.2,1.5,0.7,2.6,1.6,3.9
	c2.7,3.8,5.2,7.7,7.7,11.6c0.7,1.1,0.1,1.8-0.8,2.4c-0.4,0.2-0.9,0.4-1.4,0.4c-0.8,0.1-1.6,0-2.4,0.1c-0.5,0.1-0.9,0.6-1.4,0.9
	c0.3,0.3,0.7,0.6,1.1,0.8c4,1.9,4.1,2.2,0.7,5.2c-0.7,0.6-1.6,1.1-2.4,1.6c-0.5,0.3-1.4,0.7-1.4,1c0.4,3.7-1.9,5.9-4.1,8.2
	c-0.3,0.4-0.6,1.3-0.3,1.6c2.1,3.1,3.3,6.8,6.1,9.3c11.1-23.1,22-46,32.9-68.8c-1.9,0.7-3.6,1.1-3.9,3.5c-0.6,4.7-1.2,5.1-6.2,5.4
	c-1.5,0.1-2.3,0.4-2.7,2c-0.3,1.4-1.4,2.1-3,1.3c-1.3-0.6-1,0.2-1,1.1c-0.1,2.4-0.3,4.8-0.8,7.1c-0.7,3.1-3.5,3.7-5.8,1.5
	c-0.8-0.8-1.2-1.9-2.1-2.6c-2.1-1.9-2.7-5.2-6.1-6c-0.3,1.1-0.5,2.1-0.9,3.1c-0.4,1.1-1.5,1.2-2.1,0c-0.5-1-1-2-1.4-3.1
	c-1.9-5.2-3.8-10.3-5.6-15.5C208.4,53.2,207,54.3,205.7,55.4z M206.4,210.9c-1.4,1.1-2,1.6-2.6,2c-2.8,2.1-5.4,4.7-8.6,6.1
	c-3,1.3-4.7,3.1-5.5,6.1c-2.3,8-4.5,16-7.1,23.9c-3.9,11.9-6.2,24.2-10.5,36c-4,11-6.7,22.4-10,33.6c-1.8,6-3.6,11.8-4.1,18.2
	c-0.7,8.8-1.4,17.6-1.6,26.4c-0.4,16.9-0.2,33.8-0.1,50.6c0.1,6.9,0.6,13.8,1,20.7c0,0.3,0,0.6,0.1,1c1.4,7.2,1.2,14.3,0,21.5
	c-0.7,4.1-0.9,8.3-1.1,12.5c-0.1,2,0.7,4.1,0.8,6.2c1,10.9-1.1,21.4-4,31.8c-1.5,5.3-4.4,9.9-7.2,14.5c-1.5,2.5-2.6,5.4-4.7,7.2
	c-4.3,3.8-9.1,7.1-13.9,10.3c-5.4,3.7-11,7.2-16.5,10.8c-1.7,1.2-2.9,2.8-2.8,4.7c3.2-0.1,6.1-0.3,9-0.2c4.2,0.1,8.3-0.5,12.3-2
	c2-0.7,3.9-1.5,6-1.9c7.3-1.5,14.1-4.1,20.5-8c3-1.8,4.4-3.7,4.2-7.3c-0.2-5-0.4-10.1,0.2-15c0.4-3.2-0.1-6-1.2-8.8
	c-0.3-0.7-0.7-1.5-0.9-2.2c-0.2-1.3-1.9-2.8,0.2-3.7c0.4-0.2,1.6,1.5,2.4,2.3c4.5,4.7,7.3,10.1,6.1,16.9c-0.2,1.1-0.4,2.2-0.5,3.3
	c-0.2,1.9-0.4,3.8-0.4,5.8c0,1.9,0.6,2.1,2.4,1.1c0.6-0.3,1.1-0.6,1.6-1c9.2-6.8,19-12.6,30.2-15.4c1.5-0.4,3-1.1,4.5-1.7
	c1.6-0.6,2.4-1.7,3-3.5c0.8-2.8,2-5.5,3.4-7.9c1.7-2.9,2.1-5.5,0.1-8.3c-0.5-0.6-0.7-1.5-1-2.2c-0.5-1.1-1.6-2.5-0.1-3.4
	c1.5-0.9,2.7,0.4,3.8,1.3c0.5,0.4,0.7,1.1,1,1.6c0.8,1.7,1.9,2,3.4,0.8c0.9-0.7,2.1-1.2,3.1-1.7c0.9,1.9-1,2.5-1.8,3.4
	c-1.5,1.6-2.4,2.8-1.7,5.4c1.2,4.5,1.5,9.1,2.2,13.7c0.5,3.6,6,8.1,9.2,6.6c3.8-1.7,7.3-0.6,10.8-0.2c7.5,0.8,14.8,2.4,22.2,3.7
	c3.6,0.6,7.3,1.1,10.9,1.7c2.3,0.4,2.6,0,2.3-2.7c-0.1-1-0.1-1.9,0-2.9c0.2-1.4,1.4-1.9,2.3-0.9c1.5,1.6,2.8,3.3,4.2,5
	c2.4-1.2,5-2.6,8.1-4.2c-0.9-0.6-1.5-1.1-2.2-1.4c-4.9-2.4-10-4.6-14.8-7c-3.1-1.6-6-3.6-8-6.8c-1.2-2-3.4-3.4-5.2-5
	c-4.2-3.8-8.8-7.2-12.4-11.4c-3-3.6-6.7-7-8.1-11.8c-0.2-0.7-0.9-1.4-1.4-1.9c-1.6-1.7-3.4-3.3-5-5.1c-3.3-3.6-4.4-3.7-7.9-0.6
	c-0.5,0.4-0.9,0.9-1.5,1.2c-0.3,0.2-1.2-0.1-1.2-0.2c0-2.7-1.2-4-4.1-3.8c-0.3,0-1.1-1.3-1.1-1.9c0-2.1-1.2-2.4-2.8-2.3
	c-0.9,0-1.7-0.2-2.8-0.4c2.1-3.3,3.8-6.3,4-10c-1.6,2.8-3.9,4.7-6.8,5.8c-0.7,0.2-1.6,0.4-2.2,0.1c-1-0.5-0.9-1.4-0.6-2.5
	c1.2-4.3,1.1-4.3-3.1-3.7c-0.9,0.1-1.8,0.5-2.8,0.7c-2.5,0.5-6.3,0-7.1-1.2c-1-1.6-2.3-2.5-4.1-3c-1.2-0.3-2.1-1.2-1.7-2.5
	c0.3-1,1-1.9,1.8-2.6c0.7-0.6,1.7-0.9,3.3-1.6c-2-0.7-3.3-1.1-4.4-1.6c-1.4-0.6-1.9-1.7-1.7-3.1c0.2-1.5,1.4-1.6,2.5-1.6
	c1.1,0,2.3,0,3.4,0c2.2-0.1,2.2-0.1,1.9-2.7c-0.2-1.5-0.2-3,1.4-3.7c1.5-0.7,2.4,0.2,3.4,1.1c0.9,0.9,1.8,1.9,2.8,2.7
	c0.4,0.3,1.1,0.1,1.6,0.1c-0.2-0.7-0.1-1.6-0.5-2c-1.2-1-2.8-1.5-3.9-2.7c-1.7-1.9-3.3-2.8-5.7-1.2c-0.4,0.3-1.7,0.1-1.9-0.3
	c-0.7-1-0.8-2.9-1.5-3.2c-0.9-0.3-2.3,0.8-3.5,1.1c-0.6,0.2-1.3,0.1-1.9,0c-1.4-0.2-2.2-1.6-1.3-2.8c1.1-1.5,1.3-2.4-0.3-3.5
	c-0.4-0.3-0.5-1.3-0.3-1.8c2-4.3-0.7-8.4-0.6-12.7c-1.5,1.4-2.6,2.9-3.8,4.3c-1.2,1.3-2.8,0.9-3.3-0.8c-0.2-0.8-0.3-1.6-0.2-2.4
	c0.7-3.9,1.5-7.8,2.3-12c-1.3-0.1-2.8,0-4.4-0.2c-1.1-0.1-2.2-0.4-3.1-0.9c-1.5-0.9-1.6-2.2,0.1-2.8c2.8-1,4.1-3,4.5-5.7
	c1-5.8,4.9-9.6,9.4-12.9c2.8-2,4-4.3,3-7.8c-0.4-1.3-0.3-2.8-0.4-4.2c-1.5,0.1-2.8,0.4-4,0.3c-2.1-0.2-2.5-1.2-1.9-3.3
	c0.6-2,0.9-4,1.2-6c0.3-1.9,0.4-3.8,0.8-5.7c0.4-1.8,0.1-3.2-1.3-4.3c-0.6-0.5-1.1-1.1-1.7-1.8c-0.8-0.9-0.6-1.8,0.3-2.5
	c1.4-1.1,3-2.1,4.3-3c-1.8-1.6-3.5-2.9-4.8-4.4c-1-1.1-0.7-2.5,0.9-3.1c6-2.3,8.7-7.7,12-12.8c-5.5,2.2-9.9,1-13.3-3.7
	c-0.3-0.4-0.7-0.7-1-1c-1-1.1-1.5-1.9,0.5-2.8c4.2-1.6,7-5,10-8.2c1.6-1.7,1.3-3.2-0.5-4.3c-3.1-1.9-3.1-2-0.9-5
	c2.2-2.9,3.9-5.9,2.5-9.7c-0.4-1-0.4-2.3-0.1-3.4c0.9-3.6,0.4-7.2,0-10.9c-0.4-3.8-0.2-7.8,0-11.6c0.1-2,0.6-4.1,1.5-6
	c1.8-4.1,4-8,6.1-12.1c-0.6-0.2-1-0.4-1.4-0.5c-3.5-0.9-4-1.6-2.4-4.5c2.3-4.1,4.9-7.9,7.4-11.8c0.3-0.5,1-1.1,1.5-1.1
	C205.8,217.4,205.4,214.3,206.4,210.9z M190.9,447.6c0,0.2,0,0.5,0.1,0.7c1.2-0.3,2.4-0.7,3.6-0.8c0.9-0.1,2.1,0.1,2.6,0.6
	c0.9,1.1-0.4,1.5-1.1,2.1c-0.3,0.2-0.7,0.5-0.6,0.6c0.1,0.4,0.6,1,0.7,0.9c2.1-1.3,4-0.3,6.1-0.1c4.6,0.3,9.2-0.4,13.9-0.5
	c5.2-0.1,5.2,0,6-5.1c0.1-0.5,0.1-1,0.1-1.4c0.1-3.3-1-4.3-4.3-5.1c-2.6-0.6-5.1,0.3-7.5-0.1c-4.6-0.8-9.6-0.8-13-5.8
	c0.5,5.3,0.1,5.8-4.5,5.9c-0.7,0-1.3,0.2-2.5,0.3c0.9,0.6,1.3,0.8,1.7,1.1c1.4,1.1,4.5,1,4.2,3.2c-0.3,2.1-2.9,2.7-4.9,3.3
	C191.2,447.4,191,447.5,190.9,447.6z M254.6,461.1c-0.6,0.6-1.4,1-1.7,1.7c-1.6,3.2-4.1,4.8-7.6,5.1c-0.8,0.1-1.5,0.5-2.3,0.8
	c-4,1.6-5.2,5.5-2.6,8.8c1.8,2.4,3.6,4.9,5.5,7.3c1,1.3,2.1,2.4,3.4,3.5c0.4,0.4,1.6,0.4,2.1,0.1c2.1-1.2,2.5-2.4,1.8-4.7
	c-0.3-1.1-0.7-2.1-0.9-3.2c-0.2-1.1,0.1-2.1,1.5-1c1.2,1,1.8,0.8,2.6-0.6C259.4,473.6,258.8,466.5,254.6,461.1z M338.1,102.7
	c0.1,3.8-1.7,6.7-4.2,9.3c-0.1,0.1-0.2,0.2-0.3,0.4c-0.7,1.4-2.3,2.9-2,4c0.4,1.9,1.9,3.6,3.2,5.3c0.4,0.6,1.4,0.8,2,1.3
	c0.4,0.4,0.8,1.3,0.6,1.6c-1.7,2.8,0.9,3.9,1.8,5.8c1.9,4,5.8,4.8,9.3,6.2c1.7,0.7,2.3-0.2,2.1-2.1c-0.2-2.4-0.9-5-0.1-7.1
	c0.8-2.5-0.1-3.6-1.5-5c-0.7-0.7-1.5-1.3-2-2.1c-1.9-2.6-4-3.5-6.9-1.3c-0.6,0.5-1.5,0.6-2.3,0.7c-0.9,0.1-1.8,0-2.6,0
	c0.2-0.7,0.3-1.5,0.5-2.2C337.1,112.8,338.9,108,338.1,102.7z M326.7,167.8c0.1-1.4,0-2.2,0.2-3c0.6-2.6-2.1-5.8,1.7-7.8
	c0.4-0.2,0.2-1.5,0.2-2.3c0-3.4-0.1-6.8,1.4-9.9c0.6-1.1,0.3-1.8-0.8-2.3c-2.1-0.9-4.1-1.8-6.2-2.6c-1.6-0.5-2.3,0.1-3.2,1.8
	c-2.8,5-1.2,10-0.6,15.1c0.1,0.5,0.7,1.1,1.2,1.2c0.7,0.2,1.6,0.1,2.4,0.2c2.2,0.3,2.7,1.5,1.3,3.2c-1.1,1.4-2.4,2.7-3.8,4.1
	c1,0.5,1.5,0.9,2.1,1.1C323.8,167,325,167.3,326.7,167.8z M230.6,440.3c-5.1,0.2-5.1,0.2-5.6,5.6c-0.1,1.3-0.6,2.5-0.8,3.7
	c-0.3,2,0.5,3.4,2.4,3.3c3.4-0.1,7.1,1.3,10.2-1.3c0.8-0.6,1.8-0.3,1.6,0.7c-0.5,2,0.6,1.9,1.7,1.3c1.4-0.7,3-1.4,3.9-2.5
	c0.4-0.5-0.8-2.2-1.3-3.4c-0.1-0.3-0.1-0.6-0.3-0.9c-1.2-3.1-2.9-5.6-6.7-5.8C234.1,440.9,232.3,440.5,230.6,440.3z M371.6,30.2
	c0.4,0.2,0.7,0.4,1.1,0.6c-0.2,1.7-0.5,3.4-0.6,5.1c-0.1,1.7-0.5,3.6-0.2,5.2c1.1,4.8,2.9,9.5,2.7,14.6c0,0.4,0.5,1.1,0.6,1.1
	c0.6-0.2,1.2-0.4,1.6-0.8c3.3-3.6,3.8-8.2,3.9-12.6c0.1-2.7-0.3-6.1-2.8-8.4c-2.1-2-4.1-3.9-5.1-6.8c-1-2.7-3.9-2.6-5.6-0.1
	c-1.5,2.3-2.7,4.9-4,7.3C366.2,33.9,370.6,34.8,371.6,30.2z M354.8,167.8c-0.1,0,0.6,0.2,1.1,0c1.6-0.7,3.5-1.2,4.3-2.5
	c0.4-0.7-0.9-2.8-1.8-4c-1.8-2.4-4-4.6-5.8-7c-0.8-1.1-1.5-2-3.1-1.9c-0.9,0.1-1.9-0.2-2.9-0.3c-1-0.1-2.5-0.5-3,0
	c-0.8,0.8-1.4,2.4-1.2,3.5c0.4,2.3,1,4.7,2.1,6.8C346.6,166.2,349.7,168.2,354.8,167.8z M197.8,346c2-4.9,3.9-9.9,6-15.1
	c1,3.8,1.3,7.3,2.9,9.9c1.6,2.6,3.9,5.8,8.2,4.2c-1.7-2.7-2.7-5.5-2.5-8.7c0.1-2.1,0-4.2,0-6.3c-0.1-3.1-1.2-5.9-2.9-8.4
	c-0.4,0.3-0.7,0.3-0.9,0.6c-2.2,3-4,6.2-6.6,8.8C198,335.2,196.8,340.2,197.8,346z M201.1,249.1c1.8-1.4,3.4-2.6,5.1-3.9
	c2-1.5,4.5-2.6,5.3-5.4c0.1-0.3,0.9-0.5,1.4-0.7c0.1,0.4,0.5,1,0.4,1.3c-1.5,2.9-0.6,5.2,1.6,7.3c0.5,0.5,0.3,1.7,0.9,2.2
	c1.1,1.1,1.1,3.7,3.7,3c0.2,0,0.7,0.6,0.8,0.9c0.5,3.7,3.8,3.9,6.3,4.9c1.2,0.5,2.7-0.9,2.2-2.3c-1-2.8-1.6-5.9-4.1-8
	c-1.7-1.4-2.6-1-3.1,1.3c-0.1,0.5-0.3,1-0.5,1.5c-0.5-0.3-1.4-0.4-1.6-0.8c-1.4-2.7-3.4-5.3-3.8-8.2c-0.5-3.3-2.3-5.5-4-8
	c-1.1-1.6-1.6-1.5-2.8,0.1c-2.1,3.1-4.2,6.1-6,9.3C201.9,245.2,200.5,246.7,201.1,249.1z M170.4,15c-7.8-1.9-15,5.8-14.3,12.7
	c0.3,2.6-0.8,5.3-1.2,8c-0.1,0.7,0.1,1.4,0.2,2.1c0.6-0.1,1.4,0,1.8-0.3c3.1-2.5,6-5.4,7.8-9C166.8,24.1,168.5,19.6,170.4,15z
	 M371.8,58.4c-0.3-0.2-0.6-0.3-0.9-0.5c-1.5,2.4-3.7,4.7-4.4,7.3c-0.9,3.1-2.9,4.9-5.1,6.6c-3.5,2.8-5,6.6-6.1,10.6
	c-0.7,2.5-0.9,5.1-1.4,8c5.6-2.8,9.9-6.2,11.8-12.6c1.3-4.6,3.3-8.9,4.1-13.7C370.1,62.1,371.1,60.3,371.8,58.4z M211,247.5
	c-4.3-0.1-6.9,2.2-7.3,5.7c-0.3,3.5,1.3,5.9,4.9,6.5c0.9,0.2,1.4,0.1,2.3,0.8c2.9,2.1,6.5,3.3,9,6.1c0.1,0.1,0.4,0.2,0.5,0.1
	c0.5-0.4,1.4-0.9,1.4-1.3c0-0.7-0.6-1.5-1-2.2c-2.6-4.8-5.1-9.6-7.8-14.3C212.6,248.1,211.4,247.7,211,247.5z M159.8,75.3
	c-3,2.5-4,5.7-4.8,8.9c-0.2,0.8-0.2,1.9,0.2,2.7c2.4,4.7,5.4,9.1,9.7,12.4c1.1,0.8,2,0.6,1.9-0.8c-0.1-1.9-0.5-3.8-0.7-5.7
	c0-0.4,0.2-1,0.6-1.2c0.2-0.1,1,0.1,1.2,0.4c0.6,1.1,1,2.3,1.7,3.9c0.7-1.8,1.2-3.2,1.8-4.7c0.7-1.8-0.5-2.2-1.7-1.8
	c-2,0.6-3.8,0.8-5.4-0.6c-0.4-0.3-0.6-1.3-0.4-1.6c1-1.2,1.7-2.4,0.6-3.9c-0.9-1.1-1.6-3-2.7-3.3C158.4,79.4,159,77.5,159.8,75.3z
	 M320.6,129.7c0.3-0.6,0.7-1.1,0.9-1.6c2.6-6.8,7.3-12.3,11.4-18.2c0.9-1.3,1.5-3,2.2-4.4c-1.7,0.3-3.3,0.5-5,0.8
	c-0.3,0.1-0.5,0.4-0.8,0.5c-4.7,2.2-8,5.7-10.3,10.3C316.5,122.1,316.7,125.8,320.6,129.7z M82,55.9c0.3,0.2,0.6,0.4,0.9,0.6
	c3-2.7,5.9-5.3,8.9-8c3.3-3.1,3.5-7.4,4-11.5c0.1-0.9-0.2-2.5-0.1-2.5c1.8-0.4,2,1,2.3,2.3c0.1,0.2,0.3,0.4,0.7,0.7
	c0-1.9,0.1-3.7-0.1-5.4c-0.1-0.6-1-1.4-1.6-1.5c-1.7-0.3-4.3,1.8-3.8,3.4c0.8,2.7-1.6,4.5-1.4,6.9c0,0.3-1.3,1-1.9,0.9
	c-0.9-0.1-1.8-0.6-2.5-1.2c-3.7-2.7-3.7-2.7-6.3,1.1c-0.1,0.2,0,0.5,0.1,0.9c0.5-0.2,0.9-0.4,1.3-0.5c0.7-0.2,1.3-0.4,2-0.6
	c0,0.6,0.2,1.2,0.1,1.8C83.8,47.5,82.9,51.7,82,55.9z M170.5,32.3c-3.5,2.4-5.7,5.5-7.6,8.8c-1.3,2.2-1.1,4.5-0.2,6.9
	c1.2,3.1,2.2,6.3,3.4,9.4c0.2,0.5,0.8,0.9,1.2,1.4c0.5-0.4,1-0.8,1.3-1.3c2.9-4.9,3.8-10.1,2.6-15.7
	C170.6,38.8,169.5,35.9,170.5,32.3z M200,86.5c-1.5,2.3-3,4.4-4.2,6.5c-0.4,0.8-0.8,1.9-0.6,2.7c1.5,6.1,1.5,12-1.2,17.8
	c-0.2,0.5-0.1,1.1-0.1,1.7c0.7-0.1,1.6-0.1,2.2-0.5c0.7-0.5,1.4-1.4,1.8-2.2c1.9-3.7,3.8-7.4,5.5-11.1c0.7-1.6,1.4-3.5,1.1-5.1
	C203.7,92.8,202.3,89.5,200,86.5z M181.4,87c-0.3-0.4-0.9-1.9-1.8-2.2c-1.7-0.6-5.4,2.7-5.9,4.5c-0.8,2.7-1.5,5.6-2.7,8.1
	c-1.4,2.8-3.4,5.4-5.1,8.1c-0.3,0.5-0.6,1.4-0.4,1.6c0.3,0.4,1.3,0.7,1.7,0.5c2.7-1.3,6-2.1,7.9-4.2C178.9,99.2,180.8,93.7,181.4,87
	z M278.5,201c3.2-2.8,7.2-4.6,8.1-9.3c0.6-3.2,2.9-3.3,5.5-1c2,1.8,4.1,3.5,6.4,5c1.1,0.7,2.2,0.2,2.3-1.4c0.1-2.2,0.1-4.5,0-6.8
	c-0.2-3.3-1-4.2-4.6-5.2c-0.3-0.1-0.7-0.2-0.8-0.4c-0.6-0.9-1-1.1-1.5,0c-1.6,3.9-4.9,5.7-8.6,7.2c-1,0.4-2.2,0.9-2.6,1.8
	C281.1,194.3,279.8,197.7,278.5,201z M38.9,28.8c5.6-4.1,8.9-15.1,6.3-20.5c-0.7-1.5-2-2.4-3.9-2.4c-1.5,0-2.3,0.7-3,2
	c-1.6,3.2-2.8,6.6-1.4,10.1C38.4,21.4,39.2,24.9,38.9,28.8z M197.5,68.5c-0.4,0-0.8,0-1.1,0c-0.4,1.9-0.6,3.9-1.3,5.6
	c-1.2,2.6-2.9,5-4.3,7.5c-1.7,3.1-3.4,6.2-3.4,9.9c0,2.6,1.6,3.5,3.7,2c2.9-2.1,5.5-4.4,6-8.3c0.3-2.2,0.4-4.7,1.6-6.4
	c1.5-2.3,1.2-4.1,0.4-6.3C198.4,71.2,198,69.8,197.5,68.5z M349.9,92.9c-0.2,0-0.5,0-0.7,0.1c0.2,2.1,0.5,4.3,0.7,6.4
	c0.5,3.8,2.7,7.2,2.3,11.2c-0.1,0.8,0.2,1.7,0.4,3.3c1.9-2.1,3.6-3.5,4.6-5.2c3-4.8,3.5-9.9,1.3-15.2c-0.8-1.9-1.9-2-3.6-0.7
	c-1.4,1-2.8,1.9-4.4,3C350.2,94.7,350.1,93.8,349.9,92.9z M123.5,27.8c-0.1,0.6-0.1,1.2-0.3,1.8c-0.2,0.5-0.7,0.9-1,1.3
	c-0.3-0.3-0.7-0.6-0.9-1c-0.9-2.6-2.1-5.2,0.7-7.4c0.2-0.1-0.3-1.1-0.5-1.7c-0.7,0.3-1.6,0.3-1.9,0.8c-0.4,0.6-0.2,1.6-0.2,2.4
	c0,1.8,0.1,3.6-0.1,5.3c-0.1,0.7-1.1,1.8-1.6,1.8c-4.2,0-5.1,2.9-6.1,6.2c-1,3.2-2.4,6.3-4.1,9.1c-1.7,2.9-2,2.8,1.3,3.2
	c1.7,0.2,3.5,0.2,5.1-0.3c3.2-1.1,3.8-3.8,2-6.7c-1-1.6-1.8-3.4-2.2-5.3c-0.6-2.8,0.2-3.3,3-2.8c1.4,0.3,2.9,0.5,4.3,0.3
	C125,34.3,125.8,32.3,123.5,27.8z M198.6,276.7c-1.9,2.8-2.9,5.4-2.6,8.4c0.2,2.4-0.2,4.9,0.1,7.2c0.3,2.3,0.8,4.8,1.9,6.8
	c0.8,1.6,1.2,2.9,0.6,4.5c-0.2,0.5,0.1,1.1,0.1,1.7c0.6-0.2,1.3-0.3,1.6-0.8c0.6-0.9,1.2-1.9,1.4-2.9c0.5-2.8,0.9-5.5,0.2-8.5
	c-1-4.4,0-8.9,2.3-13c0.2-0.4-0.3-1.3-0.5-2c-0.5,0.2-1.3,0.3-1.5,0.7c-0.9,1.8-1.5,1.1-2.3,0C199.5,278.2,199.1,277.5,198.6,276.7z
	 M196.4,135.6c-1.9,5.5-2.7,11.1-2.4,17c0.1,1.5-0.5,3.1-0.8,4.7c-0.2,1.2-0.5,2.3-0.8,3.6c3.4-0.4,4.7-2.4,5.5-5
	c0.7-2,0.6-4.6,3.1-5.7c0.4-0.2,0.5-1.1,0.7-1.7c0.9-2.7,0.4-5.3,0-8C201,136.5,200.9,136.4,196.4,135.6z M245.4,57
	c-0.6-3.1-1.3-6.3-2.1-9.6c-0.2-0.8-0.5-1.6-1.1-2.1c-0.8-0.7-1.9-1.5-2.8-1.4c-0.8,0.1-2.1,1.1-2.3,1.9c-0.6,3.3-2.3,5.9-4.5,8.3
	c-0.3,0.4-0.4,1.7-0.1,2c2.5,2,5,4.1,8.2,4.7C243.4,61.4,245.4,59.8,245.4,57z M332.4,163.9c1.3-1.3,2.9-2.3,3.7-3.7
	c2.6-4.7,4-9.8,3.4-15.3c-0.2-2.4-1-3-3.4-3.1c-1.9-0.1-3,0.9-3.6,2.5c-2.4,5.9-2,11.9-1,18C331.5,162.7,331.9,163.1,332.4,163.9z
	 M198.1,116.6c-2.1,1.3-3.7,2.6-5.6,1.2c-0.2-0.1-1,0.2-1.1,0.6c-1.6,3.5-4.3,6.6-2.4,11.2c1,2.5,0.2,5.7,0.3,8.6
	c0,1.3,0.1,2.7,0.2,4.3c2.7-1.8,4.1-3.8,4.6-6.5C195.3,129.8,196.6,123.6,198.1,116.6z M329.1,163.9c-0.3,5.8-0.3,5.8,2,9.5
	c2,3.3,9.7,6.7,13.4,5.9c0.5-0.1,1-0.7,1.3-1.2c0.1-0.1-0.4-0.9-0.8-1c-3.3-1.6-4.6-4.3-4.7-7.8c0-0.6-0.4-1.2-0.6-1.8
	c-1.5-4.5-1.9-4.7-5.8-2.2c-0.5,0.3-1.1,0.6-1.7,1C330.4,167.6,329.9,166.1,329.1,163.9z M139.3,58.5c1.6-2.8,3.2-4.8,3.3-7.5
	c0-1.5-0.3-2.5-2.2-2.2c-3.5,0.4-3.8,0.2-2.8-2.9c1.9-5.4-0.2-9.6-3.9-13.4c-0.6-0.6-1.8-1.1-2.4-0.9c-0.7,0.3-1.2,1.5-1.2,2.3
	c-0.1,1.6,0,3.2,0.4,4.8C132,45.8,136.2,51.5,139.3,58.5z M203.1,337.8c-1.3,3.4-2.3,6.5-3.7,9.3c-2.7,5.4-2.6,11.2-2.4,16.9
	c0,0.5,0.5,1.1,1,1.4c0.2,0.1,0.9-0.3,1.2-0.6c3.5-5.1,5.7-10.6,6.5-16.8C206.1,344.5,204.7,341.5,203.1,337.8z M186,55.3
	c-1.5,0.6-2.3,1.1-3.2,1.4c-1.4,0.4-3.1,0.1-4.1,0.9c-1,0.9-1.3,2.5-2.9,3.2c-1.1,0.5-2,1.6-2.7,2.7c-2.6,3.8-5.2,7.7-7.7,11.6
	c-0.2,0.3-0.1,0.9,0.1,1.2c0.1,0.2,0.6,0.4,0.8,0.3c0.6-0.1,1.3-0.3,1.8-0.6c4.2-2.4,8.3-4.7,10.5-9.3c0.8-1.6,2.4-2.9,3.8-4.1
	c0.9-0.7,1.6-1.3,1.8-2.6C184.6,58.6,185.3,57.3,186,55.3z M179.9,101c-1.6,2-2.8,4-4.4,5.4c-3,2.4-3.4,5.4-2.4,8.6
	c0.8,2.6,0.7,5-0.3,7.5c-0.2,0.4-0.4,0.9-0.4,1.4c0,0.7,0.1,1.4,0.1,2.1c0.7-0.3,1.8-0.3,2.1-0.9c2-2.8,4.2-5.6,5.6-8.7
	C182.3,111.5,181.9,106.4,179.9,101z M191.2,264.9c2.5-4.2,4.7-7.7,6.8-11.3c0.3-0.6,0.6-1.6,0.4-2.1c-1.2-2.7-0.1-5,1.2-7.3
	c1.3-2.2,2.8-4.3,4.1-6.5c0.4-0.6,1-1.3-0.2-2c-1-0.6-1.8-2-2.8-2.1c-2.2-0.1-0.7,1.9-1.2,2.9c-0.1,0.1-0.2,0.3-0.3,0.4
	c-1.9,3.3-4,6.5-5.7,10c-1.1,2.1-1.9,4.5-2.2,6.8C190.9,257.1,191.2,260.6,191.2,264.9z M233.6,188.1c-5.8-1.7-8.8-4.7-10.7-9
	c-0.6-1.3-1.4-2.6-2.4-3.6c-1.2-1.2-2.7-2.2-4.1-3.3c-0.3-0.2-1-0.2-1.3,0c-0.2,0.1-0.3,1-0.1,1.2c3.3,3.5,2.4,7.8,2.4,11.9
	c0,1.2-0.6,3,0,3.5c1,0.8,2.6,1.1,4.1,1.2c2.1,0.2,4.2,0.3,6.3,0C229.3,189.9,230.8,189.1,233.6,188.1z M217.2,65.6
	c4.6-9.1,3.7-17-1.4-24.6c-0.8-1.2-1.9-1.1-2.3,0.4c-0.5,2.1-3.1,4.1-0.6,6.5c0.2,0.2-0.2,1.2-0.3,1.8
	C211.9,55.4,214.8,60,217.2,65.6z M191.3,51.8c-1.1,1.6-2.2,2.8-2.9,4.2c-1,2-2.1,3.9-1.6,6.3c0.8,3.7,0.9,7.3-1.1,10.8
	c-0.3,0.5,0.1,1.5,0.1,2.2c0.6-0.1,1.2-0.1,1.8-0.3c4.2-1.7,6.1-5.5,7.9-9.3c0.2-0.5,0-1.2-0.2-1.8C194.1,60,192.8,56.1,191.3,51.8z
	 M219.5,246.4c3.6-3.2,4.2-6.8,3.4-10.8c-0.4-2.3-1-4.7-1.8-6.9c-0.7-1.7-1.8-3.3-2.9-4.9c-0.2-0.2-1.4-0.1-1.6,0.1
	c-1.5,3.2-5.4,6.1-1.7,10.3c0.4,0.4,0.2,1.2,0.5,1.8C216.7,239.4,218.1,242.8,219.5,246.4z M368,176.5c-4-2.1-7.5-3.8-10.9-5.6
	c-0.4-0.2-1-0.6-1.3-0.5c-3.6,1-6.5-0.6-9.6-2c-0.4-0.2-1.3,0.4-1.7,0.9c-0.4,0.4-0.5,1.2-0.7,1.8c-0.6,1.4-0.3,2.8,1.1,3.2
	c1.9,0.5,1-1.4,1.5-2.3c0.2-0.4,0.6-0.9,0.9-0.8c0.3,0,0.7,0.5,0.9,0.9c0.7,1.3,1,2.9,2,3.8c2.8,2.3,6.3,3,9.8,3.6
	C362.9,179.9,365.2,178.5,368,176.5z M162.9,55.4c0-1.9-0.1-3.4-2-3.8c-1.5-0.3-2.4,0.7-2.9,2c-0.9,2.5-2.4,5-2.5,7.6
	c-0.1,2.3,0.6,5.2,2,7c0.9,1.2,2.7,1.8,3.1,3.6c0.3,1.3,1.3,2.3,2.9,1.5c1.7-0.8,2.3-2.3,1.6-3.8c-0.7-1.8-1.5-3.5-2.2-5.3
	C161.8,61.3,161.8,58.1,162.9,55.4z M192,368.3c-1,1.6-2,3.9-2.6,3.9c-2.8-0.4-2.8,1.5-3.1,3.1c-0.7,3.4-1.4,6.9-1.9,10.3
	c-0.3,1.9-0.4,3.9,0.4,6.4c1.8-2.2,3.1-4,4.6-5.6c1.5-1.7,3.3-3,4.6-4.8c0.7-0.9,1.1-2.5,0.8-3.5C194.1,374.8,193,371.7,192,368.3z
	 M202,74.3c2.3-5.4,2.2-14.1,0.3-19.4c-3.2,1.7-3.4,1.7-3.3-1.3c0.1-3.3-1.5-5.9-3-9.3c-1.8,3.6-2.4,6.4-1.2,9.7
	C197.2,60.4,199.4,66.9,202,74.3z M315.4,167c-0.3-0.2-0.5-0.3-0.8-0.5c-1.6,1.5-3.2,3.1-4.9,4.6c-0.7,0.6-1.6,0.9-2.4,1.4
	c-0.3-0.9-0.7-1.7-0.8-2.6c-0.4-2.4-0.6-4.7-1-7.1c-0.1-0.5-0.6-0.9-1-1.4c-0.5,0.4-1.2,0.6-1.5,1.1c-2.2,4.4-5,8.7-5.9,13.7
	c-0.2,0.9,0.1,1.9,0.1,2.8c1-0.1,2.2,0.2,3.1-0.3c4-2.3,8-4.6,11.8-7.3C313.5,170.4,314.3,168.5,315.4,167z M187.1,138
	C187.2,138,187.2,138,187.1,138c0.1-0.8,0.2-1.6,0-2.4c-0.9-3.9-0.4-8.4-4.3-11.2c-1-0.7-2.1-1.2-3.2-1.9c-0.7,1.2-1.4,2.4-1.9,3.6
	c-0.2,0.4-0.1,1,0,1.4c0.9,3.9,1.8,7.7,2.8,11.6c0.2,0.6,0.8,1.3,1.4,1.6c1.1,0.6,2.3,1.2,3.5,1.5c0.5,0.1,1.5-0.5,1.6-0.9
	C187.3,140.2,187.1,139.1,187.1,138z M360.7,64.6c0.3,0.8,0.7,1.5,1,2.1c0.6-0.4,1.5-0.7,1.9-1.2c2.8-3.9,5.5-7.9,8.2-11.9
	c0.3-0.4,0.7-0.9,0.6-1.3c-0.5-2.8-1-5.6-1.8-8.4c-0.4-1.3-1.6-1.2-2.1-0.2c-2.2,4.5-4.2,9.1-6.5,13.5c-0.8,1.6,0,2.4,0.5,3.5
	c0.1,0.3-0.5,0.8-0.6,1.2C361.3,62.7,361,63.6,360.7,64.6z M69.8,37.3c0.1-4.3-2.7-6.5-5.4-8.8c-1.9-1.6-3.8-3.3-5.8-4.9
	c-0.8-0.7-1.8-1.2-2.8-1.9c-2.2,2.9-1.8,6-1.1,8.9c0.5,2.4,2,4.2,5,4.5C63,35.5,66.2,36.5,69.8,37.3z M354.2,192.6
	c1.6-0.6,3.1-1.2,4.6-2c0.3-0.1,0.4-1.4,0.2-1.5c-2.3-1.8-3-4.4-4.2-6.9c-1.1-2.3-3.7-2.9-6.1-1.9c-1,0.4-2.1,0.9-3.1,1.2
	c-2.5,0.8-3,2.1-1.4,4.1c1,1.3,2.4,2.2,3.3,3.5C349.1,191.6,351.3,192.4,354.2,192.6z M199.6,408c-2.4-4.8-4.7-9.5-7.1-14.1
	c-0.7-1.3-2-2.2-3.1-3.3c-0.9,1.3-2.2,2.4-2.8,3.8c-1,2.5-0.4,5.1,1.2,7.3c0.7,1,1.7,1.9,2.3,3C192.3,408.6,195.6,409.1,199.6,408z
	 M213.6,190.7c1.1-3.9,2.2-7.7,1.7-11.7c-0.6-4.2-5.1-7.4-9.1-6.8c-0.3,0-0.6,0.3-0.8,0.5c-1.1,1.1-1.3,5.4-0.4,6.6
	C207.8,183,210.5,186.7,213.6,190.7z M332.7,193.6c0.1,0,0.3-0.1,0.4-0.1c-0.6-2-0.8-4.1-1.8-5.8c-1.3-2.1-3.7-3.6-3.8-6.5
	c0-0.2-0.9-0.6-1.2-0.5c-0.4,0.2-0.9,0.7-1,1.2c-0.1,0.4,0.4,0.9,0.4,1.3c0,1.4-0.8,1.8-2.1,1.2c-0.4-0.2-0.8-0.7-1.2-0.8
	c-0.9-0.2-1.7-0.5-1.6,1.3c0.4,6.5,3.9,10.2,9.7,12.4c1.5,0.6,2.1,0.3,2.2-1.3C332.7,195.3,332.7,194.5,332.7,193.6z M361.2,105.4
	c-0.6,1.1-1.5,2.5-2.1,4.1c-0.5,1.1-1.1,2.5-0.8,3.6c1.2,5,3.1,6.4,8.4,6.4c1,0,1.9,0.1,2.9,0c1.8-0.2,2.3-1,1.5-2.6
	c-1.8-3.5-3-7.6-7.1-9.4C362.9,106.8,361.9,105.9,361.2,105.4z M171,118.5c-4.1,0.5-10.2,2.4-12.4,4.2c-1.6,1.4-4.4,2.4-3.9,5
	c0.5,2.2,3.5,1,5,2.1c0.3,0.2,0.9,0.2,1.4,0.2c1.8-0.1,3.7,0.2,5.2-0.4c0.9-0.4,1.2-2.3,1.9-3.4C169.7,123.9,171.2,121.7,171,118.5z
	 M204.8,295.9c-1.3,3.6-0.4,7.4-2.7,10.6c-0.8,1.1-0.3,3.6,0.4,5c1.4,2.6,3.5,4.9,5.3,7.3c2.1-3.7,3.5-7.5,2.3-11.7
	C209.1,303.1,208,299,204.8,295.9z M72.7,28.9c0,0,0.1,0,0.1,0c0,0.6-0.1,1.3,0,1.9c0.8,3.9,2.3,7.7,2.1,11.8c-0.1,1,1,1.1,1.8,0.5
	c2.3-1.9,3.4-4.1,4.1-7.2c1.1-4.9,0.7-8.4-4-10.9c-1.9-1-3.2-1-3.8,1.1C72.7,26.9,72.8,27.9,72.7,28.9z M205.2,231.6
	c7.8-2.7,11.1-10,8.2-17.8c-0.2-0.6-0.6-1.1-1-1.6c-0.4,0.5-0.7,1.1-1.1,1.6c-0.4,0.5-1.1,1.2-1.3,1.1c-2.4-1-2.2,1-2.7,2.2
	c-0.4,1-0.9,2.1-1.1,3.2C205.6,224.1,203.9,227.7,205.2,231.6z M356.3,4.3c-0.1,0.9-0.2,1.4-0.3,1.8c-0.5,2.2-0.9,4.4-1.5,6.5
	c-0.2,0.6-1,1.1-1.5,1.7c-0.3-0.5-0.7-1-1-1.4c-0.7-0.9-1.2-1.9-2-2.6c-1-0.8-2.1-0.8-2.7,0.7c-1.4,4.1-2.4,8.3-1.9,12.8
	c0.1,1.3,1,1.7,1.9,0.8c2.7-2.8,5.2-5.7,7.9-8.4c2-1.9,2.6-4.3,3.3-6.8C359.3,7.2,358.7,5.6,356.3,4.3z M430.1,196.5
	c-2.9-2.4-5.7-4.3-8-6.7c-2.7-2.8-5.9-3.6-9.6-3.4c-0.9,0-1.9,0.4-2.6,0.9c-1.8,1.2-1.7,2.8,0.3,3.6c3.4,1.5,6.6,3.2,9.3,5.8
	c0.6,0.6,1.7,0.9,2.6,1.1c1.1,0.2,1.8-0.3,1.4-1.7c-0.2-0.5,0-1.1,0.1-1.7c0.7,0.3,1.5,0.4,1.9,0.9
	C427.6,197.7,427.6,197.8,430.1,196.5z M215.9,13.1c3.9,3.1,7.5,3.8,11.4,3.3c4.7-0.7,7.9-3.9,11.5-6.5c0.3-0.2,0.5-0.9,0.4-1.2
	c-0.1-0.3-0.7-0.6-1.1-0.7c-0.6-0.1-1.3,0-1.9-0.1C229.1,7.1,223.4,11.1,215.9,13.1z M198,126.9c0,0.8-0.1,1.3,0,1.8
	c0.2,0.7,0.3,1.8,0.8,2c0.5,0.3,1.4-0.2,2.2-0.4c0.3-0.1,0.5-0.4,0.7-0.6c3.8-3.9,5.1-8.8,5.6-13.9c0.1-1.5-0.3-3.5-2.3-4.4
	c-1-0.4-1.7-0.7-2.3,0.5C200.1,116.7,198.6,121.8,198,126.9z M341.8,137.4c-0.9,10.1,3.5,14.2,13,12.5c-0.9-2.9-1.8-5.8-2.7-8.6
	c-0.2-0.5-0.7-1.2-1.2-1.3C347.9,139,344.9,138.2,341.8,137.4z M338.7,116.2c7.6-2.2,11.9-11.3,9.2-18.5c-0.2-0.5-1.3-1-1.8-0.8
	c-2.6,0.8-3.9,2.8-4.5,5.3C340.5,106.7,339.7,111.3,338.7,116.2z M232.1,38c1.1-0.4,1.8-0.5,2.2-0.9c3-2.8,6.1-5.6,9-8.5
	c2.9-2.9,4-6.8,4.8-10.7c0.4-1.8-0.3-2.5-2-2.1c-2.6,0.7-4.6,1.8-5.4,4.7C239,26.7,236,32.3,232.1,38z M5.4,27.9
	c1.7,0.1,2.5,0.3,3.2,0.2c3.7-0.6,7.1-1.8,9-5.5c0.6-1.2,2.1-3,2.8-2.9c3.1,0.7,3.2-1.8,3.6-3.4c0.6-2,0.5-4.3,0.8-7.2
	c-2.9,2.9-7.2,3.1-7.6,7.5c0,0.2-0.4,0.4-0.7,0.6C12.4,20.1,9.9,24.4,5.4,27.9z M354.9,53.5c1.4-0.3,2.8-1,4.2-0.9
	c2.4,0.1,3.3-1.2,4.3-3.1c1.6-3.1,3.5-6,5.2-9.1c0.4-0.7,0.8-1.4,1-2.1c0.3-1.6-0.8-2.7-2.2-2c-2.5,1.3-5.3,2.3-6.7,5.1
	c-1.7,3.6-3.4,7.2-6.7,9.9c-0.3,0.3-0.4,1.1-0.3,1.6C353.7,53.2,354.4,53.3,354.9,53.5z M349.2,193.4c-0.9,1.6-1.7,2.3-1.7,3.1
	c-0.1,2.1,0.3,4.1,0.3,6.2c0,1.2,0.4,2.7-1.5,3c-2.4,0.4-2.1,2-1.5,3.6c0.8,2.3,2.3,3.9,4.5,4.7c1.8,0.6,3.3,3.5,4.9,1.9
	c1.1-1.1,0.7-3.9,0.7-5.9c0-1.2-0.5-2.5-0.9-3.7c-0.2-0.5-0.7-1.3-1.1-1.3c-1.6-0.2-2.9-0.6-3.2-2.3c-0.3-1.5-0.3-3.2-0.3-4.7
	c0-0.9,0.5-1.8,0.6-2.8C350,194.8,349.6,194.3,349.2,193.4z M67.6,19.1c6.1,3,7.3,2.9,13.5-1.4c-0.6-0.6-1.2-1.1-1.6-1.8
	c-1.1-1.5-0.6-2.7,1.1-3.1c0.5-0.1,1-0.2,1.4-0.1c3.7,0.6,5.9-1.6,7.8-4.4c-0.5-0.1-0.8-0.3-1-0.2c-2.1,1-4.2,2.7-6.5,0.4
	c-0.2-0.2-1.2,0.1-1.7,0.4C75.8,11.7,71.1,14.6,67.6,19.1z M231.8,68c1.6-4.8-1.5-7.2-5.9-8.8c-0.6-0.2-1.2-0.6-1.8-0.7
	c-0.6,0-1.5,0.1-1.7,0.5c-0.7,1.8-1.5,3.6-1.7,5.4c-0.1,0.6,1.5,1.3,2.3,2.1c0.8,0.8,1.4,1.8,2.1,2.6c1.5,1.7,3,3.4,4.6,4.9
	c0.9,0.9,1.8,0.6,2-0.7C231.9,71.7,231.8,70.1,231.8,68z M306.8,177.5c0.8,12.1,3.6,15.9,11.8,18c-0.4-3.4-2.5-6.7-0.7-10.3
	c0.1-0.3-0.7-1.5-1.2-1.6C312.9,183,310,180.8,306.8,177.5z M329.4,118.7c-4.4,4.5-5.8,10.2-7.8,15.5c-0.2,0.6,0,1.8,0.5,2.1
	c2.2,1.3,4.4,2.5,6.7,3.4c1.3,0.5,1.9-0.5,1.4-1.9c-1.2-3.5-2.3-7-3.4-10.5c-0.2-0.7-0.1-1.5-0.2-2.2c0.7,0.1,1.4,0.3,2,0.4
	c1.1,0.2,2.2,0.6,3.2,0.5c1.5-0.2,1.9-1.6,1-2.9C331.9,121.7,330.7,120.4,329.4,118.7z M235.7,15.2c2.7,0.5,4.3,0.5,5.5-1.4
	c0.4-0.7,2.2-1.2,2.8-0.8c2,1,3.4,0.1,5-0.6c4.6-2.1,7.8-5.6,10.5-9.6c0.2-0.3,0-0.9-0.1-1.2c-0.1-0.1-0.6-0.2-0.8-0.1
	c-2.5,1.1-4.9,2.6-7.4,3.4C245.2,6.9,240.7,11,235.7,15.2z M281.8,25.5c2.8-3.3,5.3-6.1,7.7-9c0.4-0.4,0.4-1.2,0.5-1.8
	c0.5-4-2.1-8-6-9.2c-0.4-0.1-1.5,0.6-1.5,1c-0.2,2.1-0.1,4.2-0.2,6.2C282.2,16.6,282,20.5,281.8,25.5z M29.4,32.8
	c-0.3-1.9-0.5-3.2-0.7-4.4c-0.4-1.7-0.4-3.6-1.3-5c-1.3-2-3.2,0.8-4.9,0c-0.3-0.1-0.6-0.3-0.9-0.3c-1.6-0.1-2.5,0.9-1.9,2.3
	c0.9,2.2,2.2,4.3,3.1,6.5c0.7,1.6,1.1,3.3,1.6,5c0.3,1.2,0.2,3.3,0.7,3.5c1.9,0.5,2.2-1.5,2.7-2.7C28.5,35.9,29,34.1,29.4,32.8z
	 M314.8,124.3c-1,1.9-1.9,3.5-2.5,5.1c-2,4.7-0.8,9.1,1.7,13.3c0.8,1.3,2.5,1.2,3.1-0.1c0.8-1.7,1.6-3.5,1.9-5.4
	C319.9,132.3,316.8,128.8,314.8,124.3z M102.3,35.2c0.5-0.6,1-1.5,1.8-2.2c3.8-3.4,4.4-6.3,2.9-11.1c-0.6-1.9-1.7-2.6-3.3-2.8
	c-1.6-0.1-3.1,0.6-3.7,2.3c-0.3,0.9-0.7,1.8-1.2,2.5c-0.9,1.2-0.8,2.3-0.2,3.5C99.9,30.1,101.1,32.7,102.3,35.2z M172.9,162.3
	c1.8,2.8,4.6,2.4,7.1,2.9c5.6,1.2,8.9-0.7,10.6-5.9c0.5-1.7-0.1-2.1-1.5-2.1C183.3,157.2,178.1,158.8,172.9,162.3z M341,93.6
	c2.9-1.3,5.4-2.1,7.7-3.4c2.4-1.4,4-3.5,4.4-6.5c0.2-1.9,0.8-3.8,0.8-5.6c0-0.7-0.9-1.8-1.6-2.1c-0.7-0.2-2,0.2-2.5,0.8
	c-1,1.2-1.8,2.7-2.5,4.1C345.4,84.9,343.4,88.9,341,93.6z M400.1,171.5c-3.8-0.6-6.8-2.5-9.9-4.5c-2.6-1.7-3.9-4.1-5.6-6.4
	c-1-1.4-5.1-1.2-5.9,0.2c-0.1,0.2-0.2,0.7-0.1,0.9c1.7,2.6,2.6,6,5.9,7.3c2.2,0.9,4.2,1.9,6.3,3C393.6,173.4,397,173.2,400.1,171.5z
	 M15.2,50.6c2.1-1.5,4-2.8,5.8-4.2c0.5-0.4,1.1-1.2,1-1.5c-1.1-2.4,0.5-4.6,0.3-7c-0.2-2.9-1.3-5.3-3.3-7.1
	c-0.8-0.7-3.4,4.1-3.5,7.2C15.5,42,15.4,46.1,15.2,50.6z M196.8,162.6c-0.2-0.1-0.4-0.1-0.6-0.2c-1.3,1.9-2.4,4.1-4,5.8
	c-2.4,2.5-5.3,4.7-7.9,7.1c-1.3,1.2-3,2.1-2.9,4.2c0,1,0.2,1.9,1.6,1.6c3.9-0.7,7-3.1,10.3-4.9c0.6-0.3,1.1-1.3,1.2-2
	C195.4,170.4,196.1,166.5,196.8,162.6z M139.5,46.5c4.7-1.8,6.8-4.9,8.4-8.5c0.6-1.4,0.7-1.4-0.4-6.7c-0.1-0.5,0-1,0-1.4
	c-0.1-1.8-0.1-4.1-2.1-4.2c-1.9-0.1-1.8,2.4-2.2,3.8c-0.6,2.1-0.6,4.4-1,6.6C141.4,39.3,140.5,42.5,139.5,46.5z M381.1,80.2
	c-3.8-5.4-6.5-10.9-5.6-18.6c-1.9,1.8-3.4,2.6-3.7,3.7c-0.5,1.9-3.1,3.2-1.4,5.7c0.5,0.7,0.3,1.9,0.1,2.9c-0.3,2.3,1,3.6,2.5,4.9
	C375.3,80.5,377.8,81.1,381.1,80.2z M356,203.2c6.2,2.7,11.6,1.5,15.7-3.1c0.7-0.8,1.5-1.9,1.5-2.8c-0.1-1.5-1.6-1-2.6-1.2
	c-1.1-0.3-2.1-0.8-3.2-1c-0.7-0.1-1.6-0.3-2.1,0.1C362.3,197.6,359.4,200.3,356,203.2z M170.6,86.5c2.3-1.2,4.9-2.2,7-3.7
	c1.6-1.2,3.6-3.2,3.5-4.7c-0.2-2.2,1.1-3,1.7-4.5c1-2.3,1.7-4.8,2.3-7.2c0.1-0.4-0.4-1.3-0.8-1.6c-0.3-0.2-1.2,0.1-1.5,0.5
	c-1,1.2-2,2.5-2.8,3.8C176.4,74.5,175.2,81.3,170.6,86.5z M364.2,157c-0.2,0.2-0.3,0.5-0.5,0.7c1.4,1.2,2.9,2.4,4.3,3.6
	c2.1,1.8,4.5,3.2,5.1,6.5c0.4,1.9,2.7,3.4,4.3,4.9c1.3,1.2,2.4,0,2.3-1c-0.3-2.7,0.3-5.8-2.3-7.9c-1.9-1.5-4.1-2.6-5.2-5.1
	c-0.3-0.7-1.9-1.1-2.9-1.2C367.7,157.1,365.9,157.1,364.2,157z M349.6,119c1.2,1.8,2.6,3.4,3.5,5.3c1,2,1.5,4.2,2.3,6.2
	c0.4,1.1,1.8,1.7,2.2,0.9c1.2-3.1,3.3-6,2.1-9.5c-0.7-2-1.6-3.8-2.3-5.8c-0.5-1.4-1.4-1.7-2.6-0.8C353,116.5,351.3,117.7,349.6,119z
	 M192,151.3c0.2-1.8-0.4-3.3-2.4-4c-2.2-0.7-4-1.9-5.8-3.3c-1.1-0.9-3-1.1-4.5-1.1c-1.1,0-1.9,1-1.4,2.5c1.1,3.2,8,8.7,11.4,8.9
	C191.5,154.5,192,153.9,192,151.3z M405,177c1.3,1.7,2.5,3.4,3.8,5c1.6,2,9.1,3.8,11.5,2.7c0.1-0.1,0.3-0.2,0.4-0.2
	c1.4-0.8,1.4-1.5,0.2-2.5c-2.5-1.9-5.1-3.8-7.6-5.7c-2-1.5-4-1.9-6.1-0.4C406.4,176.3,405.7,176.6,405,177z M224.6,42.4
	c-0.2,0.1-0.5,0.2-0.8,0.3c-0.7,0.2-1.7,0.9-2,0.6c-1-0.7-0.4-1.5,0.3-2.4c1.3-1.8,1.2-2.8-0.4-3.9c-0.9-0.6-2-0.8-3.1-1
	c-1.2-0.2-2.4-0.2-1.8-2c0-0.1-0.6-0.6-0.7-0.6c-1.4,1-1.5,3.2-0.4,4.5c1.3,1.4,2.6,2.8,3.5,4.5c1.3,2.4,2,5.1,3.5,7.3
	c0.9,1.4,2,2.3,1.1,4.2c-0.2,0.4,0.8,1.4,1.2,2.2c0.7-0.6,2-1.1,2-1.7c0.1-2.4-0.1-4.8-0.5-7.1C226,45.6,225.2,44,224.6,42.4z
	 M257.4,342.8c-4,0.7-8.1,1.3-12,2.3c-1.5,0.3-2.9,1.2-4.1,2.2c-2.1,1.8-1.8,3,0.7,3.5C248.2,352,254.8,351.3,257.4,342.8z
	 M246,41.9c3.6-4.8,7.2-9.1,7.2-15.1c0-0.7,0.2-2.1,0.1-2.1c-1.3-0.3-3.6-1-3.9-0.5c-1.8,2.6-3.8,5.3-4.4,8.3
	C244.4,35.2,245.5,38.3,246,41.9z M202.2,314.8c-1.8,3.9-3.6,7.8-5.2,11.7c-1,2.3-1.6,4.8-2.5,7.2c-0.4,1.1-0.4,2,0.7,2.3
	c0.4,0.1,1.1-0.8,1.5-1.4c0.8-1.1,1.3-2.6,2.3-3.5c2.6-2.4,3.9-5.5,5.3-8.5C206.1,318.7,205.9,318.3,202.2,314.8z M83.6,16.1
	c8.5,1.9,13.8-1.6,17.6-8.2c0.7-1.3,1.1-2.3-0.8-3c-2.7-1-3.5-1.1-5.2,1.5C92.4,10.8,88.5,13.6,83.6,16.1z M382,190.1
	c2-1.1,3.1-1.9,4.4-2.4c0.6-0.3,1.9-0.3,2.2,0.1c2.2,2.7,5.9,2.2,8.5,4.1c1.9,1.3,3.7,0.4,5.5,0.1c1.1-0.2,0.9-1.4,0.2-1.8
	c-2.4-1.1-3.8-4.8-7.3-3c-2.7-1-6.2-0.3-7.5-4.1c-0.2-0.5-0.9-0.9-1.3-1.4c-0.9-0.9-1.8-0.8-2.2,0.4
	C383.6,184.4,382.9,186.8,382,190.1z M365.9,84.4c-1.6,1.3-3,2.7-4.6,3.7c-1.4,0.9-1.5,2-1.2,3.3c0.2,1.1,0.5,2.2,0.9,3.2
	c0.2,0.5,0.7,1.3,1.1,1.3c2.9,0.3,5.8,0.6,8.3-1.3c0.9-0.6,1.1-1.4,0.4-2.5C369.1,89.5,367.4,86.8,365.9,84.4z M152.7,12.7
	c-0.2-0.8-0.1-2-0.7-2.4c-1.5-0.9-3.1-1.5-4.8-2.1c-0.1,0-0.6,1-0.8,1.5c-1.3,4.5-2.4,9-5.3,12.8c-0.2,0.3-0.3,1-0.1,1.2
	c0.2,0.2,0.9,0.3,1.2,0.1c2.4-1.6,4.7-3.2,7-5C151.4,17.4,152.8,15.5,152.7,12.7z M354.2,56.4c-0.8-0.6-1.2-0.9-1.6-1.2
	c-3.2-2.7-3.2-3-0.1-5.6c2.5-2.2,4.2-4.8,5.2-7.9c0.2-0.7,0.3-1.8-1.1-0.6c-0.8,0.7-2.2-0.3-3.1,1.4c-2,4-4.5,7.8-6.7,11.7
	c-1.7,3-1.6,3,0.8,5.3c1.1,1,2,2,3,3.2c0.6,0.7,1,1.9,2.2,1c1.3-0.9,0.3-1.6-0.4-2.3c-1.1-1.1-2.2-2.1-0.4-3.5
	C352.8,57.4,353.3,57,354.2,56.4z M166,31.9c1.9-1.3,3.3-2.3,4.7-3.3c6-4.6,7.8-8.9,6.7-15.4c-0.1-0.4-0.4-1-0.7-1.1
	c-0.3-0.1-1,0.1-1.2,0.4c-1.5,2.4-3.5,4.4-4.5,7.3C169.7,23.8,167.9,27.5,166,31.9z M413.7,205.3c3.3-0.1,4.5,2.1,5.5,4.5
	c0.5,1.3,1,2.7,1.8,3.9c0.4,0.6,1.6,1.2,2.3,1c0.7-0.2,1.6-1.4,1.5-2c-0.9-3.9,0.7-7.7,0.3-11.7
	C420.5,200.4,417.5,203.7,413.7,205.3z M207.3,96.9c-1,2.6-1.9,5.2-3,7.9c-1.1,2.6-0.5,3.9,2.4,4.3c0.9,0.1,1.8,0.2,2.7,0.4
	c1.6,0.3,2.7-0.1,3.6-1.6c0.7-1.3,1.4-2.1,0.7-3.8C212.2,100.8,209.7,98.7,207.3,96.9z M186.9,197.3c2.8-1.6,5.1-3,7.4-4.4
	c0.5-0.3,1.2-0.9,1.1-1.4c-0.1-3.5-0.3-7-0.6-10.5c0-0.5-0.6-1.2-1.1-1.3c-0.5-0.1-1.4,0.3-1.5,0.7c-1.4,3.2-2.8,6.4-3.9,9.7
	C187.6,192.2,187.5,194.4,186.9,197.3z M132,2c0,0.7-0.1,1.5,0,2.3c0.9,4.1,1.9,8.2-0.7,12.1c0,0,0.8,0.9,1.2,0.8
	c2.3-0.4,2.9-2.9,4.6-4c2.6-1.8,2.8-4.6,3.5-7.1c0.3-1-0.2-1.8-1.4-2.1C136.9,3.5,134.6,2.8,132,2z M332.9,201
	c0.1,3.1-0.5,6.3,1.5,8.8c1.2,1.6,2.8,2.9,4.2,4.4c1.3-2,2.8-3.8,3.7-5.9c0.4-1-0.1-3-0.9-3.9c-1.4-1.6-3.4-2.7-5.8-4.4
	c0.5,1.3,0.9,2,0.9,2.7c0.1,0.6-0.3,1.1-0.5,1.7c-0.5-0.3-1.1-0.5-1.4-0.9C333.9,202.7,333.4,201.8,332.9,201z M209.4,188.9
	c-0.2,0.1-0.4,0.1-0.6,0.2c-0.5,4.1-1.1,8.2-1.4,12.4c-0.1,2.3,0.4,4.7,0.7,7c0,0.3,0.7,0.6,1.1,0.7c0.2,0,0.6-0.3,0.7-0.5
	c1.2-2.6,2.4-5.2,3.4-8c0.8-2.2,2.6-4.9-1.5-6.2c-0.6-0.2-0.9-1.6-1.3-2.5C210.1,190.9,209.8,189.9,209.4,188.9z M133,57.9
	c0.6,4.6,1.3,8.9,5.8,11.1c0.3,0.1,0.6,0.3,0.8,0.5c1.6,0.9,3.2,1.9,4.8,2.8c1.3-2.1-0.8-3.8-0.8-5.7c-0.1-2.4-1.2-3.5-3.6-3.4
	c-1.9,0.1-2.9-0.5-2.8-2.8c0-1.3-0.8-2.7-1.4-4c-0.5-1-1.8-0.9-2.2,0C133.2,57,133.1,57.6,133,57.9z M370.7,208.9
	c-0.6,3.3,0,6.2,3.7,7.8c2.1,1,3.1,0.7,2.8-1.8c-0.4-4-1.1-7.9-1.9-11.8c-0.5-2.1-1-1.9-2.9-0.6
	C369.8,204.2,370.3,206.4,370.7,208.9z M127.8,34.8c-3.3,0.8-6.3,1.5-9.4,2.2c-1.9,0.4-2.7,1.8-1.6,3.4c1.4,2.2,3.4,3.8,6.1,4.2
	c2.4,0.4,3.4-0.3,4.5-2.6C128.6,39.6,127.9,37.1,127.8,34.8z M391.6,175.2c2.5,1.9,4.3,3.6,6.5,4.9c1.5,0.9,2.4,1.7,2.7,3.6
	c0.3,1.4,1.4,2.8,2.5,3.8c0.8,0.7,2.7,1.3,3.3,0.9c1.3-0.9,1.9-2.5,0-3.8c-0.3-0.2-0.1-0.9-0.2-1.4c-1-3.9-5.2-5-7.1-8
	c-0.1-0.1-0.3-0.1-0.4-0.1C396.7,175,394.6,175.1,391.6,175.2z M372,137.1c1-0.3,2.1-0.6,3.1-0.9c-0.5-0.9-0.9-2-1.7-2.7
	c-2.7-2.4-4.7-5.3-5.5-8.8c-0.1-0.5-0.1-1.1-0.4-1.4c-0.6-0.4-1.4-0.9-2-0.8c-0.6,0.1-1.5,0.9-1.5,1.4c0.3,3,0.3,6.2,1.5,8.9
	C366.4,135,368.6,137.3,372,137.1z M315.4,6.5c-0.4,0-0.8,0-1.2-0.1c-1.3,2.3-2.7,4.7-4,7c-0.9,1.5-0.8,2.9,0.1,4.5
	c1.5,2.5,2.6,5.2,4.1,8.1C316.8,19.3,316.7,12.9,315.4,6.5z M304.5,155.3c0.2-3-1.4-4.9-3.3-6.8c-1-1-1.8-0.5-2.2,0.5
	c-0.9,2.6-1.7,5.1-2.5,7.8c-0.5,1.9,1.1,4.6,3.1,5.1c0.4,0.1,1.2,0.1,1.3-0.2C302.3,159.6,305.1,158.3,304.5,155.3z M405,234
	c1-5.3-0.4-9.9-1.5-14.5c-0.1-0.4-0.4-0.9-0.7-1.2c-0.3-0.2-1-0.4-1.2-0.2c-1.2,1.2-2.9,2.1-2.9,4.2c0.1,1.9-0.1,3.9,0.1,5.8
	c0.1,1,0.7,2.2,1.5,2.9C401.6,232.1,403.2,232.9,405,234z M395.7,184.4c0.3-0.1,1-0.4,1.7-0.7c-0.3-0.7-0.5-1.6-1.1-2
	c-3.2-2-5.6-4.7-7.7-7.8c-0.9-1.4-2.3-2.4-4.1-2c-1,0.2-1.9,0.9-2.9,1.3c0.5,0.9,0.8,2,1.5,2.7c1.8,1.8,4.2,3.1,5.6,5.2
	C390.4,183.6,392.5,184.3,395.7,184.4z M54.3,18c-4.6,1.3-7.5,3.6-8.4,8c-0.5,2.5-0.8,5-1.1,7.5c0,0.4,0.3,1.1,0.6,1.2
	c0.5,0.2,1.4,0.2,1.8-0.1c2.2-1.8,4.7-3.4,4.4-6.9c-0.1-1.5,0.4-3.1,0.9-4.6C52.9,21.4,53.6,19.9,54.3,18z M232.5,18.6
	c-2.3,0-4.4-0.1-6.4,0.1c-0.8,0.1-1.9,0.8-2.1,1.5c-1.3,3.5-2.7,6.8-5.3,9.6c-0.1,0.1-0.1,0.6,0.1,0.8c0.2,0.2,0.6,0.4,0.8,0.3
	C225.3,28.5,230.4,25.4,232.5,18.6z M87.6,19.9c0.8,1.6,1.5,2.9,2,4.2c0.4,1.3,0.5,2.8,0.7,4.2c0.4,2.5,1.3,3,3.5,1.5
	c1.2-0.8,2.4-1.8,2.2-3.5c-0.2-2.2,0.5-4.1,1.5-6c0.2-0.4-0.4-1.5-0.8-1.6c-1.4-0.6-2.9-1.2-4.6-0.3C90.9,19.1,89.4,19.3,87.6,19.9z
	 M252,51.4c0.4-0.3,1-0.4,1.1-0.8c1.1-2.9,2.3-5.9,2.9-8.9c0.2-1-1.2-2.5-2.3-3.3c-0.3-0.3-2,0.6-2.6,1.3c-1.8,1.9-3.3,3.9-4.9,5.9
	c-0.3,0.4-0.4,1.5-0.2,1.7C247.9,48.7,249.9,50,252,51.4z M377.2,88.3c0-0.8,0.1-2.5,0-4c-0.1-1.2-1.3-1.5-2.1-0.8
	c-2.2,2-2.9,5.6-1.5,8.2c1.4,2.6,1.4,2.6-1.2,4.5c-2.9,2.2-3,2.6-1.6,6c0.6,1.4,1.4,1.5,2.4,0.3C376.1,98.5,377.9,94.1,377.2,88.3z
	 M319.4,167.9c-2.7,0.1-3.7,1.6-2.4,4.2c1.9,3.7,5.5,4.7,9.1,5.4c1.4,0.3,2.8-2,2.4-3.4C327.4,171,322.7,167.9,319.4,167.9z
	 M153.5,106.7c2.6-0.5,5.3-2.6,7.4-5.5c1.4-1.9,0-2.8-1.2-4c-1.2-1.2-2.5-1.7-3.7-0.4c-2.2,2.3-4.3,4.6-6.2,7.1
	c-1.2,1.6-0.7,2.5,1.2,2.7C151.4,106.8,151.9,106.7,153.5,106.7z M341.5,67.2c-0.1,0.1-0.3,0.1-0.4,0.2c0.6,1.4,0.8,3.2,1.9,4
	c1.6,1.3,3.3,0,4.7-1.1c0.4-0.3,0.9-0.4,1.3-0.7c1.5-1,1.6-2.4,1.1-3.8c-0.3-0.9-1.1-1.6-1.6-2.4c-0.9-1.8-2.7-3.9-4.2-3.3
	c-1.4,0.6-1.9,3.4-2.7,5.2C341.3,65.8,341.5,66.5,341.5,67.2z M249.8,375.3c0.5-2.3-0.4-4.2-2-5.6c-0.3-0.3-1.4-0.4-1.6-0.1
	c-1.8,2.3-3.8,4.6-2.2,7.8c1.3,2.7,2.7,5.3,4.2,7.9c0.1,0.1,1.4-0.1,1.5-0.3c0.3-1.1,0.5-2.2,0.5-3.3
	C250.2,379.6,250,377.5,249.8,375.3z M373.9,154.8c-1.7-0.8-2.7-1.2-3.6-1.6c-4.1-1.9-8.4-3.5-9.9-8.5c-0.6-2-2.3-1.8-3.8-2.3
	c-1.7-0.5-1.8,0.8-1.4,1.5c1.4,2.7,2.5,5.9,4.7,7.6C363.5,154.5,368,156.1,373.9,154.8z M206.5,189.8c-0.4-2.7-0.6-4.6-1-6.4
	c-0.1-0.5-0.7-1.2-1.2-1.3c-0.4-0.1-1.1,0.6-1.3,1c-2.8,4.7-4.4,9.9-5.6,15.2c-0.1,0.4,0,1.1,0.2,1.2c0.3,0.2,1,0.1,1.3-0.1
	c2.1-1.9,4.4-3.8,4.8-6.9c0.1-0.9,0-2.2,1.4-1.9C206.7,190.9,206.5,190,206.5,189.8z M98.4,16.2c4.1,1.3,7.4-0.6,10.9-1.1
	c0.3-0.1,0.8-1.7,0.7-1.8c-2.8-1.7-1.3-4.3-1.4-6.5c0-0.9-0.3-1.6-1.4-1c-1.1,0.6-2.5,1-3.1,1.9C102.1,10.3,100.4,13.2,98.4,16.2z
	 M15.6,12.9c1.2-0.5,1.6-0.7,2-0.9c0.9-0.7,1.6-1.6,2.6-2.1C22,9,22.3,8.2,20.8,6.7c-0.8-0.8-1.2-1.9-2-2.7
	c-3.3-3.6-4.6-3.4-6.6,0.9c-0.4,0.9-1.1,2.4-0.8,3C12.7,9.8,14.3,11.3,15.6,12.9z M369.8,216.9c1.5,4.3,2.8,7.3,6.9,7.8
	c2.4,0.3,4.7,0.9,7,1.2c0.4,0,1.4-1.2,1.3-1.4c-1.4-3-1.6-6.8-5.2-8.5c-0.2,0.3-0.3,0.4-0.3,0.6c-0.3,1.5-0.1,3.7-1,4.4
	c-1.7,1.3-3.1-0.4-4.5-1.6C372.9,218.6,371.7,218,369.8,216.9z M126.4,56.4c4.1,0,4.1,0,4.6-3.6c0.1-0.6,0-1.4,0.4-1.9
	c1.3-2.2-0.3-4-0.8-5.9c-0.2-0.8-1.3-1.3-1.8-0.2c-1.3,3-3.5,5.3-5.7,7.6c-1.3,1.3-0.6,3.3,1.2,3.8C125,56.4,126,56.3,126.4,56.4z
	 M266.3,372.5c-4.1-0.6-8.2-1.4-12.3-1.8c-2.4-0.2-2.4,0-1.8,2.7c0.9,3.9,1.1,4,5.1,4C260.8,377.3,263.5,375.4,266.3,372.5z
	 M257.7,433.3c0.1,2.1,0.9,3.5,2.3,4.8c1.5,1.3,2.2,1.3,2.7-0.5c1-4,1.9-8,2.8-12.1c0.1-0.3,0-0.6-0.1-0.9c-0.2-0.4-4.6-0.1-4.7,0.3
	C259.6,427.8,258.7,430.5,257.7,433.3z M200.5,273.5c0.8-2.1,1.6-3.6,2-5.3c1-4.2,1.6-8.4-0.5-12.5c-0.5-1-1-1.2-1.7-0.4
	c-0.4,0.5-1,1-1.1,1.5C198.1,262.3,196.7,267.8,200.5,273.5z M340.6,184.1c0,0.7-0.1,1.5-0.1,2.3c-0.1,1.7,0.5,3.7-2.1,4.1
	c-0.2,0-0.6,0.9-0.4,1.2c1.2,2,2.4,4.1,3.9,5.9c0.8,1,2.1,1.7,3.1,2.5c0.4-1.6,0.8-3.3,1.1-5c0.4-2.5,0.2-4.7-1.9-6.6
	C342.8,187.3,341.9,185.7,340.6,184.1z M183.4,379.1c-0.4-1.1,1.8-2.5,0-3.2c-0.6-0.2-2,1.3-2.9,2.1c-0.7,0.6-1.2,1.5-1.9,2.2
	c-2.7,3-1.5,7.4-3.6,10.7c0,0,1,1,1.3,0.9c0.9-0.3,1.7-0.8,2.4-1.5C181.6,387.2,183.5,383.6,183.4,379.1z M206,194.8
	c-2,2.7-3.4,4.4-4.6,6.2c-2.1,3.3-3.3,6.9-3.4,10.8c0,1.2,0.6,1.8,1.8,1.1c0.5-0.3,1-0.9,1.5-1.1c3.1-1.5,4.6-3.5,3.4-7.2
	c-0.5-1.4-0.1-3.2,0.1-4.8C205,198.4,205.5,197.1,206,194.8z M422.8,218.2c0.8,1.4,1.5,2.6,2.3,3.7c0.9,1.3,0.7,1.9-0.8,2.4
	c-2.6,0.9-2.7,1-0.8,2.8c1.2,1.2,2.7,2.2,4.2,2.9c2.3,1,3,0.4,2.5-1.9c-0.3-1.5-0.9-3-1.2-4.6c-0.3-1.6-0.8-3.4,2.1-2.7
	c0.3,0.1,0.9-0.7,1.3-1.1c-0.6-0.4-1.1-1.1-1.7-1.1C428.2,218.3,425.7,218.3,422.8,218.2z M193.3,318.5c-3.4,3.4-6.6,6.6-9.7,9.8
	c-0.4,0.4-0.7,1.2-0.5,1.6c0.3,0.5,1.1,0.9,1.6,0.8c2.8-0.6,5.6-1.3,7.7-3.6C196.2,323.1,197.1,324.4,193.3,318.5z M205.5,421.9
	c-2.7-3.3-5.1-6.2-7.6-9.1c-0.7-0.8-1.8-1.4-2.8-1.9c-0.7-0.3-2-0.5-2.2-0.2c-0.5,0.7-0.8,1.8-0.6,2.6c1,3.4,3.8,5.5,6.3,7.7
	C200.5,422.8,202.9,421.9,205.5,421.9z M63.5,55.8c2.6,1.8,5.1,0.6,7.5,0.3c1.5-0.2,3.4-3.9,2.4-4.6c-2.1-1.6-1.3-3.5-0.9-5.5
	c-4.9,1.1-4.9,1.1-6.7,4.8C65.1,52.4,64.3,54.1,63.5,55.8z M356.6,207.4c0.9,1.3,1.8,2.6,2.7,3.9c1.5,2,3.3,3.5,5.8,4
	c1.5,0.3,2.5-0.2,2.5-1.9c0-1.6,0.1-3.2-0.1-4.8c-0.1-0.6-0.7-1.4-1.3-1.7C365.4,206.4,358.5,206.9,356.6,207.4z M91.7,52
	c-0.3,0.1-0.6,0.2-0.8,0.4c-1,1-2.5,1.9-2.8,3.2c-0.3,0.9,0.9,2.2,1.5,3.3c0.7,1.2,0.7,2.1-1,2.4c-1,0.2-0.8,0.8-0.3,1.3
	c1.6,1.7,3.2,3.3,4.8,5C95.8,61.1,95.6,58.9,91.7,52z M334.3,88.3c2,0.1,2,0.1,2.5-2.7c0.2-0.7,0.6-1.5,1.2-2c1.4-1,1.1-2.3,0.5-3.4
	c-0.7-1.2-1.5-2.4-2.5-3.4c-0.3-0.3-1.4-0.3-1.5-0.2c-1.3,2.6-2.8,5.1-3.6,7.8C330.2,87.1,331.5,88.2,334.3,88.3z M209.9,115.2
	c-0.8,3.3-1.2,5.8-1.9,8.2c-0.5,1.7,0.6,2.6,1.6,3.1c2,1,4.1,1.6,6.3,2.2c0.3,0.1,1.2-0.6,1.2-0.9c0-0.9-0.1-1.9-0.6-2.7
	C214.6,122,212.5,119.1,209.9,115.2z M370.1,165.9c-4.1-4.2-8.1-8.2-12-12.2c-0.3-0.3-0.5-0.9-0.9-1.1c-0.4-0.2-1-0.2-1.4,0.1
	c-0.3,0.2-0.5,0.9-0.4,1.2c0.9,1.5,2,2.9,3,4.3c1.6,2.2,3.7,4.1,4.9,6.5c1.4,2.8,1.8,3.6,3.8,2.9
	C368.3,167.2,369.2,166.4,370.1,165.9z M208.6,288.5c0.3,0.1,0.7,0.3,1,0.4c1.4-2.1,2.8-4.2,4.1-6.3c0.4-0.7,0.6-2.1,0.2-2.7
	c-1.7-2.3-3.6-4.5-5.5-6.6c-0.7-0.7-1.7-0.3-1.6,0.7c0,1.4,0.5,2.8,0.7,4.2c0.4,1.9,0.9,3.7,1.1,5.6
	C208.8,285.3,208.6,286.9,208.6,288.5z M381.2,185.9c-0.2-2-2.3-2.9-4.3-2.1c-1.5,0.6-2.8,1.4-4.3,2c-1.2,0.5-2.5,1-3.7,1.5
	c0.9,1.1,1.6,2.3,2.6,3.3c2.2,2.1,3.5,2.1,5.7,0.1c1.1-0.9,2.1-2,3-3.1C380.8,187.1,381,186.3,381.2,185.9z M274.5,213.2
	c-0.3,0-0.6-0.1-0.9-0.1c-1.2,2.8-2.4,5.6-3.5,8.4c-0.8,2.1-0.5,4.2,0.9,5.9c0.5,0.6,1.7,1.1,2.5,1c1.2-0.1,1.9-1,1.9-2.4
	c-0.1-3.1,0.1-6.1-0.1-9.2C275.3,215.6,274.8,214.4,274.5,213.2z M241.6,357.6c-0.3,0-0.6,0-1,0c-0.6,4.7-1.3,9.4-1.9,14.1
	c-0.1,0.5,0.4,1.1,0.8,1.5c0.1,0.1,1-0.1,1.2-0.5c1.4-1.9,2.8-3.8,4.1-5.8c0.9-1.5,0.8-3-0.3-4.5
	C243.4,360.9,242.5,359.2,241.6,357.6z M331.7,102.9c-0.5-1-0.8-1.8-1.2-2.5c-1.6-3.1-1.9-6.4-1.7-9.8c0.1-1,1.7-2.1,0-2.8
	c-0.3-0.1-1.5,1.4-2.1,2.2c-0.6,0.7-1,1.6-1.5,2.4c-2.2,3.3-2.1,3.3,0.1,6.4c0.7,1,1.2,2.2,1.8,3.4c0.7,1.3,1.8,1.8,3.2,1.5
	C330.8,103.6,331.3,103.2,331.7,102.9z M185.4,113.1c0-0.2-0.1,0.6,0,1.4c0.1,0.6,0.4,1.1,0.7,1.6c0.4-0.4,0.8-0.8,1-1.3
	c1.1-2.8,2-5.7,3.2-8.5c0.9-2.2,2.5-4.2,1.1-6.8c-0.2-0.3,0.5-1,0.6-1.5c0.2-0.5,0.2-1,0.4-1.5c-0.6,0.2-1.2,0.3-1.7,0.6
	c-0.4,0.2-0.8,0.6-1,1C187.3,102.4,185.1,106.9,185.4,113.1z M195.9,263.8c-0.3-0.1-0.7-0.2-1-0.2c-0.1,2.1,0.1,4.2-0.5,6.2
	c-0.6,2.2-3,3.9-2.3,6.6c0.1,0.5,0,1,0,1.4c0,1-0.1,2,0.1,2.9c0.3,1.7-1.1,3.8,1,5.2c0.4-1.5,0.8-2.9,1.3-4.4
	c0.1-0.3,0.2-0.6,0.4-0.9c1-2,2.6-3.9,2.8-6c0.2-2.2-1.1-4.6-1.6-6.9C195.7,266.4,195.9,265.1,195.9,263.8z M194.4,345.8
	c-3.4,5.3-5.4,13.8-4.7,18.6C193.8,359,197.6,353.8,194.4,345.8z M352.2,130.9c0.4,1.5,0.8,3,1.3,4.5c1.2,3.6,3.3,5.3,6.9,5.1
	c1.1-0.1,2.4-0.9,3.2-1.7c0.3-0.3-0.4-1.7-0.8-2.5c-0.4-0.9-0.9-1.7-1.6-2.4c-0.4-0.4-1.3-0.8-1.6-0.6
	C356.1,135.1,354.2,133.2,352.2,130.9z M351.2,199.5c0,2,1.3,2.9,3.1,2.1c0.4-0.2,0.8-0.5,1.2-0.8c2.1-1.7,4.1-3.4,6.2-5.2
	c0.6-0.5,1.2-1.1,1.6-1.8c0.6-0.9,0-1.6-0.9-1.6c-1.1,0.1-2.1,0.4-3.2,0.8c-1.5,0.6-2.9,1.4-4.4,1.9
	C352,195.9,351.2,196.8,351.2,199.5z M281.9,203.5c-1.3,0.4-2.6,0.9-3.9,1.2c-2,0.5-2.2,2.2-2.7,3.6c-0.6,1.7,1.3,1.4,2,2
	c0.8,0.7,1.7,1.6,2.7,2c1.3,0.5,2.7,0.7,4.1,0.8c0.2,0,0.9-1,0.8-1.3C283.9,209.1,282.9,206.3,281.9,203.5z M267.7,413.1
	c-2.5,4.8-2.3,7.2,0.8,10c0.4,0.4,1.2,0.8,1.7,0.7c2-0.5,4.1-0.7,5.5-2.5c0.7-0.9,1-1.8-0.4-2.1
	C271.9,418.5,269.8,416.1,267.7,413.1z M184.4,401.6c0.3,5.8-0.9,11.1,1.4,16.2C190.9,413.3,190.6,407.3,184.4,401.6z M396.5,204.7
	c1,0.7,1.5,1.1,2,1.5c3.3,2.7,4.5,2.6,7.4-0.5c0.6-0.7,1.2-1.5,1.6-2.3c0.5-0.9,0.9-1.9,1.4-2.9c-1.2-0.2-2.4-0.5-3.7-0.5
	c-0.6,0-1.2,0.3-1.8,0.6C401.4,201.8,399.2,203.1,396.5,204.7z M358.9,67.6c0-1,0.1-1.8,0-2.6c-0.2-0.9-0.5-1.7-0.8-2.5
	c-0.8,0.5-1.8,0.8-2.3,1.5c-1.3,2-2,4.3-3.4,6.1c-1.7,2.3,0.6,2.7,1.4,3.7c0.9,1.2,1.8,0.7,2.8-0.1
	C358.8,72.1,359.2,69.9,358.9,67.6z M256.4,23.6c-1.8,2.2-0.9,4.5-1.2,6.6c-0.6,4.5-0.5,5,3,8.5c0.8-2.1,1.6-3.9,2.3-5.8
	c0.2-0.4,0.3-1,0.1-1.3C259.3,29,257.9,26.4,256.4,23.6z M308,202.6c-0.2-2.8-1.1-5.5-0.3-7.7c1.2-3.3-0.9-5.5-1.5-8.1
	c-0.3-1.2-1.5-1.2-2.2-0.4c-0.6,0.6-1.1,1.5-1.1,2.4C302.2,194.1,304.4,198.5,308,202.6z M338.5,183.7c0.4-1.8-0.3-3-2.5-3.6
	c-1.4-0.3-2.6-1.2-3.9-1.9c-1.4-0.8-2-0.3-2.2,1.2c-0.3,4.4,2.9,6.1,6,7.8c1.5,0.9,2.3,0.4,2.6-1.4
	C338.5,185.3,338.5,184.6,338.5,183.7z M295.3,175.1c-0.1-0.5,0-0.9-0.2-1c-0.2-0.1-0.7-0.1-0.9,0.1c-0.9,0.7-1.6,1.8-2.6,2.1
	c-4.6,1.1-5.3,5.1-6.7,8.6c-0.4,1.2,0.1,1.4,1.1,1.4c0.6,0,1.4-0.1,1.8-0.4C291.6,183.1,293.5,179,295.3,175.1z M294.9,199.9
	c1-3.8-2.3-5.5-4.6-7.9c-0.3-0.3-1.1-0.6-1.2-0.4c-0.4,0.4-0.9,1.1-0.8,1.5c0.8,3.1,1.6,6.1,2.6,9.2c0.4,1.4,1.2,2.9,3,2.4
	c1.7-0.5,0.8-2.2,1-3.3C294.9,200.9,294.9,200.6,294.9,199.9z M402.8,211c2.1,0.6,4,0.8,5.7,1.7c2.5,1.3,4.3,0.3,6.1-1.1
	c0.8-0.7,2.1-1.8,1.9-2.5c-0.3-1.6-2-1.2-3.2-1.3c-1.1-0.1-2.2-0.5-3.3-0.6c-1,0-2.2,0.1-3,0.6C405.6,208.6,404.3,209.8,402.8,211z
	 M206.2,23.2c3.5,0.2,5.1-2.4,7.3-3.8c2.6-1.7,2.6-1.8,0.9-4.6c-0.3-0.6-0.5-1.2-0.9-1.7c-1.1-1.7-2.9-1.6-3.6,0.2
	C208.6,16.5,207.5,19.7,206.2,23.2z M369.4,223.4c0.2-1.9-1.1-4.4-2.8-5c-2.9-1-5.6-2.1-8-4c-0.3-0.2-1-0.3-1.2-0.1
	c-0.3,0.3-0.3,0.9-0.3,1.3c0,0.5,0.1,1,0.3,1.4c2.6,3.8,6.5,5.6,10.7,7C368.5,224.1,369.1,223.5,369.4,223.4z M359.5,168.9
	c-0.1,0.2-0.1,0.5-0.2,0.7c0.5,0.4,0.9,0.8,1.4,1.1c3.3,1.5,6.7,3.1,10,4.5c1.9,0.9,3.5,0.1,5.2-1c-0.7-0.5-1.1-0.7-1.5-1
	c-1.2-1.3-2.1-3.2-3.6-3.7c-1.4-0.6-3.3,0.3-5,0.4c-0.8,0-1.5-0.4-2.3-0.5C362.2,169.1,360.9,169.1,359.5,168.9z M367.4,137.9
	c-0.6,0.9-0.9,1.4-1.3,1.9c-0.5,0.6-1.1,1.2-1.6,1.7c-2.6,2.5-2.7,2.8-0.5,5.4c0.9,1.1,2.1,1.9,3.3,2.6c1.4,1,2.1,0.7,2.2-0.9
	C369.7,145.2,369.7,141.7,367.4,137.9z M252.8,380c-0.6,3-1,5-1.4,7c-0.1,0.5,0.1,1.5,0.5,1.7c2.1,1.1,4.2,2.1,6.4,2.9
	c0.6,0.2,1.8,0.1,2.1-0.3c0.3-0.4,0.2-1.6-0.2-2.1C258.1,386.2,255.7,383.5,252.8,380z M322.5,180.1c-2.5-2-4.7-3.5-6.6-5.4
	c-2-1.9-1.9-2.1-3.9-0.2c-0.9,0.8-1.6,1.8-2.6,3C314,179.4,317.5,183.5,322.5,180.1z M205.5,73.2c-1.4,2.9-2.7,5.5-3.9,8.2
	c-0.5,1.2,0.4,3.9,1.6,4.6c1.7,0.9,2.2-0.2,2.7-1.6c0.2-0.5,1-0.6,1.5-1c0.4-0.4,1.2-1,1.1-1.3C207.4,79.2,207.6,75.8,205.5,73.2z
	 M186.7,22.1c4.8-0.8,10-5.6,10.9-9.9c0.1-0.3-1-1.3-1.4-1.2c-1.2,0.3-3.1,0.3-2.4,2.6c0,0.1-1.3,1.1-1.7,0.9
	c-1.6-0.7-2.4-0.1-2.9,1.3C188.3,17.9,187.5,19.9,186.7,22.1z M376.9,178c-4.4-1.3-7.4,1.4-10.7,2.8c-0.6,0.3-1.4,1.5-1.2,1.8
	c0.4,0.7,1.2,1.5,2,1.7C371.2,185.1,374.8,182.8,376.9,178z M204.5,359.9c-0.7,1.4-1.1,2.5-1.7,3.3c-1.6,2.1-1.3,4.2-0.1,6.2
	c1.2,1.9,3.2,1.1,4.8,1.1c1.8,0,2.4-0.9,1.6-2.4C207.8,365.4,206.2,362.9,204.5,359.9z M150.7,76.8c2.9-8.5,3-10.7,0.9-14
	c-1.2,0.8-2.3,1.7-3.5,2.5c-1.3,0.8-1.6,1.8-0.9,3.2C148.4,71,149.4,73.7,150.7,76.8z M114.4,15.6c-0.2-0.2-0.4-0.4-0.6-0.6
	c-1.3,0.9-2.7,1.7-3.9,2.6c-0.5,0.3-1,0.9-1,1.4c-0.3,2.5,3.1,8.2,5.5,9.1c0.4,0.1,1.3,0,1.3-0.1c0.3-1.3,0.6-2.7,0.6-4.1
	c0-0.5-1-1.1-1.6-1.3c-2.7-0.8-2.8-1-1.8-3.5C113.3,17.8,113.9,16.7,114.4,15.6z M357.8,37.8c0.5-0.2,0.7-0.2,0.8-0.3
	c3.3-4,6-8.3,7.9-13.1c0.1-0.3-0.3-1.1-0.6-1.2c-0.5-0.1-1.3-0.1-1.6,0.2c-3.8,3.5-5.5,8.2-7.1,12.9C357,36.7,357.6,37.3,357.8,37.8
	z M34,16.2c-0.4-0.2-0.8-0.4-1.2-0.6c-0.5,0.8-1.1,1.6-1.7,2.4c-0.3,0.4-0.7,0.7-1,1c-1.7,2.1-0.8,4.7,1.7,5.8
	c1,0.4,1.9,1.2,2.9,1.7c0.5,0.2,1.1,0.3,1.6,0.1c0.2-0.1,0.4-0.9,0.2-1.3C35.8,22.3,34.9,19.2,34,16.2z M375.3,194.4
	c2.4,1.2,4,2.2,5.8,2.9c2.2,1,4.2,0.6,5.7-1.1c1.2-1.2,0.9-2.5-0.6-3c-1.2-0.4-2.6-0.4-3.6-1.1c-1.9-1.1-3.2-0.8-4.7,0.6
	C377.4,193.4,376.6,193.7,375.3,194.4z M404.9,194.2c-1-0.3-1.8-0.8-2.2-0.5c-2.6,1.5-5.2,3.1-7.7,4.7c-0.7,0.4-2.1,0.4-1.4,1.9
	c0.6,1.2,1.6,1.8,2.7,1.4c2.2-0.9,4.4-2,6.2-3.4C403.6,197.5,404,195.9,404.9,194.2z M369.2,192.3c-2-2.7-3.5-4.9-5.2-7
	c-1.1-1.3-2.4-2.5-3.9-3.5c-0.6-0.4-1.8,0.1-2.7,0.2c0.1,0.7,0.1,1.6,0.5,2.2C360.5,188.3,364,191,369.2,192.3z M367.4,21.4
	c0.9,0.3,1.7,1,2.2,0.8c0.8-0.4,1.5-1.1,2-1.9c1.9-3.3,4.3-6,8-7.3c0.6-0.2,1.2-0.7,1.4-1.2c0.2-0.4-0.4-1.6-0.4-1.6
	c-1.7,0.4-3.7,0.5-4.9,1.5c-2.6,2.2-4.7,4.8-7,7.3C368.2,19.6,367.9,20.4,367.4,21.4z M371.1,142.6c0.8,1.9,1.2,3.6,2.2,5
	c0.9,1.4,3.6,1.2,5.2-0.2c1.4-1.2-0.1-1.9-0.6-2.8c-0.6-1.1-1.2-2.3-1.8-3.4c-0.7-1.3-2-1.8-3.2-1.2
	C372.1,140.4,371.7,141.6,371.1,142.6z M430.7,216.3c4.3,0,4.4-0.1,2.9-4.4c-0.3-0.8-0.5-1.5-0.9-2.2c-0.2-0.4-0.7-0.7-1.1-0.8
	c-2.7-0.3-4.6,1.9-4.2,4.6c0.1,0.5,0.2,1,0.1,1.4c-0.5,1.3,0.4,1.3,1.2,1.3C429.4,216.4,430,216.3,430.7,216.3z M212.1,303.2
	c0.1-0.1,0.3-0.1,0.4-0.2c0.5-0.6,0.9-1.3,1.4-1.9c1.8-2.2,1.9-2.9,0.2-4.8c-0.8-1-1.7-1.9-2.8-2.6c-0.3-0.2-1.5,0.1-1.8,0.5
	c-1.5,2.2-0.6,6.6,1.7,8.7C211.5,303.1,211.8,303.1,212.1,303.2z M195.5,231.5c2.5,1.4,3.9-0.8,5.6-1.7c0.7-0.4,1.3-1.4,1.5-2.2
	c0.5-1.8,0.7-3.7,0.9-5.6c0.1-0.4-0.1-1-0.4-1.2c-0.2-0.1-0.9,0.1-1.1,0.4C199.6,224.4,196.7,227.4,195.5,231.5z M221.8,293.5
	c-4.9-0.4-5.5-4.5-6.9-7.7c-3.4,3.1-3.7,3.9-2.4,6.2C214.3,295.3,216.6,295.8,221.8,293.5z M148.5,93.8c0,2,0.7,3.1,2.1,3.2
	c1.6,0.1,5.5-2.8,5.4-4.1c-0.2-1.7-1.9-3.4-3.4-3.5C150.2,89.3,148.5,91.1,148.5,93.8z M182.6,338.9c0.1,0.3,0.2,0.5,0.4,0.8
	c1.8-0.2,3.7-0.3,5.5-0.8c3.5-0.9,3.9-1.6,3.5-5.1c-0.2-2-1.4-2.6-2.9-1.3C186.9,334.6,184.8,336.8,182.6,338.9z M87.2,29.3
	c0.2-0.2,0.5-0.4,0.7-0.6c-0.5-1.8-0.9-3.7-1.6-5.4c-1.9-4.2-2.5-4.4-6.3-1.9c-0.5,0.3-1.1,1-1,1.4c0.1,0.5,0.8,1.2,1.3,1.3
	c1.8,0.3,2.7,1.3,3.7,2.7C84.6,27.8,86,28.4,87.2,29.3z M7.8,13.3c0.1,0.8-0.1,1.5,0.2,2.1c0.6,1.6,1.4,3.1,2.2,4.6
	c0.9-1.1,1.9-2.1,2.7-3.2c1.9-2.4,1.9-2.4-0.3-4.6c-0.4-0.5-0.9-0.9-1.4-1.3c-1-0.8-2.7-0.4-3.1,0.8C7.9,12.2,7.9,12.9,7.8,13.3z
	 M168.5,141.8c1.4-1.8,2.6-3.2,3.6-4.7c0.8-1.3,0-5.2-1.1-6.1c-0.3-0.2-0.9-0.3-1.3-0.2c-1.8,0.6-2.9,2.7-2.7,5.1
	c0,0.5,0.1,1,0.2,1.4C167.5,138.5,167.9,139.9,168.5,141.8z M195.9,212.4c0-0.4,0.1-0.9,0-1.4c-0.1-0.4-0.4-1-0.7-1.1
	c-0.3-0.1-1.2,0.2-1.2,0.4c-0.3,3-3.4,3-4.9,4.7c-0.9,1-2.6,2-1.3,3.6c1.1,1.4,2.4,0,3.4-0.5C193.7,217.1,196.4,216.1,195.9,212.4z
	 M381.9,206.1c1.2-0.5,2.5-1.1,3.7-1.6c-0.9-1-1.8-2.1-2.8-3.1c-0.3-0.3-0.9-0.2-1.4-0.4c-0.8-0.4-1.7-0.7-2.3-1.4
	c-0.8-0.8-1.4-2-2.7-1c-1.4,1,0.1,2,0.3,3c0.1,0.6,0.6,1.1,0.8,1.7C378.3,205.3,379.7,206,381.9,206.1z M207,425.4
	c0.6,1.1,0.9,2,1.4,2.8c1.4,2.2,2.7,4.3,4.2,6.4c0.3,0.5,1.3,0.5,2,0.7c0.1-0.6,0.3-1.2,0.2-1.7c-1.1-2.8-2.2-5.7-3.4-8.4
	c-0.2-0.4-1.2-0.8-1.7-0.7C208.8,424.6,208.1,425,207,425.4z M417.9,200.6c0.2-2.3-1.4-4-3.3-4.7c-1.5-0.5-3.3,0.3-3.1,1.8
	c0.5,2.7-1.5,4.9-1.1,7.5c2.2-1.4,4.3-2.8,6.5-4.2C417.5,200.6,418.1,200.5,417.9,200.6z M176.8,57.4c-2-0.3-3.8-1.1-4.5-0.6
	c-2.4,2.1-4.6,4.5-6.5,7.1c-0.5,0.7,0.5,2.5,0.8,3.7c0.7-0.6,1.6-1,2-1.7C170.8,62.9,172.7,59.8,176.8,57.4z M319.7,105.9
	c0.1,0,0.3,0.1,0.4,0.1c0,0.6-0.1,1.3,0,1.9c0.2,1.6,0.7,1.9,2.1,1c0.8-0.5,1.6-1,2.4-1.6c2-1.7,1.1-6.3-1.4-7.1
	c-0.5-0.2-1.7,0.3-1.9,0.8C320.6,102.5,320.2,104.2,319.7,105.9z M264.9,21.9c-0.5-1.1-1-2.2-1.6-3.3c-0.2-0.3-0.8-0.6-1.1-0.5
	c-2.1,0.6-3.8,3.9-3,5.9c0.6,1.4,1.5,3.6,2.5,3.7c1.9,0.3,1.8-2.1,2.4-3.5C264.2,23.5,264.5,22.8,264.9,21.9z M404.8,212.9
	c0.1,7.3,1.6,9.1,6.1,8.2c1.1-0.2,2-1.2,3-1.9c-1-0.9-2-1.8-3.1-2.6c-0.2-0.2-0.6-0.1-0.9-0.1C407.7,217,406.4,215.6,404.8,212.9z
	 M226.2,466.4c4.7-3.8,5.3-5.2,3.6-9.3c-0.3-0.6-1-1.6-1.5-1.5c-1.1,0.1-2.1,0.6-2.3,2c-0.2,1.7-0.7,3.4-0.7,5.1
	C225.3,463.9,225.9,465.1,226.2,466.4z M342.9,95.6c-2.8,0.2-5.6,1.5-8.2-0.7c-0.4-0.3-2.3,0.4-2.6,1.1c-0.8,1.6,0,3.1,1.4,4.1
	c1.2,0.9,2.3,0.9,3.4,0c0.7-0.6,1.7-1.8,2.2-1.7C342,99.5,341.6,96.6,342.9,95.6z M215.8,93.8c0.5-3.4,0.5-3.4-0.5-7
	c-0.5-2-1-2.2-2.8-0.7c-1.2,0.9-2.2,2.3-3-0.3c-0.4-1.3-0.8-0.1-1,0.2c-0.8,1-0.9,2.1,0.3,2.9C211.1,90.5,213.4,92.1,215.8,93.8z
	 M188.8,302.2c-2,1.5-3.9,2.9-5.8,4.4c-1.9,1.6-1.8,2.7,0.2,4.2c1.5,1.1,3.4,0.8,4.3-1.2C188.6,307.3,189.8,304.9,188.8,302.2z
	 M206.9,90.9c1.6,4.3,4.6,6.5,7.1,9.1c1.2,1.2,2.6,1.1,4,0.4c0.4-0.2,0.8-0.7,0.9-1.1c0.1-0.3-0.3-1-0.6-1.1
	c-3.3-1.1-5.7-3.5-8.1-5.8C209.5,91.9,208.4,91.6,206.9,90.9z M335.2,128.1c-0.6,2.7-1,4.7-1.4,6.7c-0.2,0.9-0.6,2.3-0.2,2.6
	c1,0.9,2.4,1.5,3.7,2c0.2,0.1,1-0.4,1.1-0.6c0.2-1.5,1.6-2.8,0.4-4.5C337.5,132.6,336.6,130.6,335.2,128.1z M224.6,424.3
	c-1.6,2.8-1.2,7,1.1,9c1.2,1,1.6,1.8,1.1,3.2c-0.1,0.2,0.1,0.7,0.2,0.8c0.4,0.1,1.1,0.2,1.3-0.1c0.8-0.8,1.4-1.7,2-2.7
	c0.2-0.3-0.2-1.2-0.3-1.2c-2.3,0.3-1.7-1.5-2.2-2.7C226.9,428.5,225.7,426.5,224.6,424.3z M17.1,27.9c-1.5,0.6-3.1,1.2-4.6,2
	c-0.7,0.4-1.5,1.2-1.7,2c-0.6,2.5-0.9,5.1-1.4,7.9C14.9,37.7,13.9,31.5,17.1,27.9z M383,46.3c-0.8,2.9-1.2,4.8-1.9,6.5
	c-0.5,1.1-0.3,1.8,0.6,2.5c0.5,0.4,1,0.9,1.6,1.1c1,0.3,2.1,0.5,3.1,0.7c0.1-1.1,0.6-2.2,0.3-3.1C385.8,51.5,384.5,49.3,383,46.3z
	 M73.4,57.7c-5.3,1.7-4.8,5.9-5.5,9.9C74.4,65.4,74,65.2,73.4,57.7z M417.1,218.3c-0.4,0.9-0.8,1.4-0.9,2c-0.1,0.7-0.3,1.9,0,2
	c0.7,0.3,1.9,0.5,2.5,0.2c1.3-0.7,3.3-1.2,1.8-3.6c-1-1.6-1.5-3.5-2.3-5.2c-0.5-1.2-1.3-1.2-2.2-0.4c-1.1,0.9-1.9,1.7-0.4,3
	C416.3,216.9,416.7,217.7,417.1,218.3z M226.3,180.3c1.4-0.9,2.7-1.6,3.8-2.5c1.2-1,1-2.5-0.4-3.1c-1.9-0.8-3.9-1.4-5.9-1.8
	c-1.2-0.3-1.7,0.7-1.1,1.8C223.8,176.4,224.9,178.2,226.3,180.3z M236.1,461.7c3.9,0.1,7.8-2.5,8.3-5.5c0.2-1,0.1-1.7-1.5-1.4
	c-3.5,0.6-5.3,3.3-7.6,5.4c-0.2,0.2-0.3,0.7-0.1,0.9C235.4,461.4,235.9,461.6,236.1,461.7z M127,7.5c0-1,0-1.9,0-2.9
	c-0.1-1.2-0.8-1.6-1.9-1.6c-3.5,0.1-4.6,2-2.7,5c0.7,1.1,1.6,1.9,2.5,2.8c0.3,0.3,1,0.6,1.2,0.5c0.4-0.3,0.8-0.9,0.9-1.4
	C127.2,9.1,127,8.3,127,7.5z M367,98.4c-1.2,0.2-2.4,0.5-3.7,0.7c-1.6,0.3-1.9,1.7-1.3,2.5c1.3,1.9,3,3.7,5.5,4.1
	c1.4,0.2,2-0.6,1.5-2C368.4,102,367.7,100.2,367,98.4z M63.2,15c-1.5,0.3-2.6,0.4-3.6,0.7c-2.4,0.7-2.9,2.3-1.3,4.3
	c0.5,0.6,1,1.4,1.7,1.6c0.8,0.3,1.8,0.2,2.6,0c1.1-0.3,1.4-1,0.9-2.2c-0.3-0.7,0.1-1.7,0.2-2.6c0.1-0.5,0.5-1,0.3-1.4
	C64,15.1,63.3,15,63.2,15z M246.9,388.1c0.6,3.9,1,7,1.5,10.1c0.1,0.5,0.8,1.2,1,1.2c0.5-0.1,1.2-0.6,1.4-1.1c0.5-2,1.4-4.1,1.1-5.9
	c-0.3-1.3-2.3-2.2-3.6-3.3C248.2,389,248.1,388.9,246.9,388.1z M183.1,7.8c1.2-0.4,1.9-0.7,2.7-0.9c0.8-0.2,1.6-0.2,2.3-0.5
	c1.6-0.6,2.4-2.2,1.9-3.4c-0.5-1.1-3.8-2.1-4.6-1.3c-1.2,1.2-2.3,2.6-3.2,4.1C181.9,6.2,182.7,7.2,183.1,7.8z M373,152
	c1.1,0.6,2.1,1,3.1,1.6c1.3,0.8,2,1.7,0.1,2.8c-0.5,0.3-0.7,1.2-1,1.8c0.7,0.3,1.5,0.9,2.1,0.7c2.6-0.8,5.4-1.4,7.5-3.4
	c-1.3-1.3-2.4-1.7-3.4-0.3c-0.8,1.1-1.5,0.9-2.1-0.2c-0.4-0.7-0.9-1.3-1.4-1.9C376.2,150.9,376.2,150.9,373,152z M155.4,13.4
	c0,1.7-0.1,2.3,0,2.9c0.2,0.6,0.5,1.3,1,1.5c0.4,0.2,1.1-0.3,1.5-0.6c1.3-1.1,2.5-2.4,4-3.5c1.3-1,0.2-2.3-0.1-2.3
	c-1.7-0.3-3.5-0.6-5-0.2C155.9,11.5,155.5,13.2,155.4,13.4z M255.1,393.2c-0.3,0.3-0.7,0.6-0.7,1c-0.4,4-0.5,7.9,2,11.4
	c0.2,0.3,0.8,0.6,1.2,0.5c0.4-0.1,0.9-0.5,1.1-0.9c0.2-0.5,0.1-1.2,0-1.8c-0.8-3.2-1.7-6.4-2.6-9.6
	C255.8,393.7,255.5,393.5,255.1,393.2z M399.7,168.4c0.9,0.6,1.4,0.9,2,1.3c0.9,0.6,1.8,1.1,2.7,1.7c-0.6,0.7-1.3,1.3-1.8,2
	c-0.2,0.3-0.4,0.9-0.2,1.2c0.2,0.4,0.9,0.8,1.1,0.7c3-1.3,6.3-2.1,8.9-5.5c-1.5,0.2-2.9-0.1-3.2,0.4c-1.8,2.4-3.1,1-4-0.6
	C403.8,167.5,402.2,167.7,399.7,168.4z M139.3,36.4c1.9-2.4,1.3-5.2,1.3-7.8c0-0.8-0.6-1.1-1.2-0.4c-0.8,0.9-1.7,0.4-2.6,0.3
	c-1.1-0.1-2.2,0.1-3.5,0.2C135.5,31.4,137.4,33.9,139.3,36.4z M238.5,468.3c-0.7-1.3-1.6-3.2-2.8-4.8c-0.4-0.5-1.8-0.6-2.6-0.4
	c-0.5,0.1-1,1.2-1,1.8c-0.1,1.2,3,5.2,4.1,5.5C237.3,470.9,238.6,470.1,238.5,468.3z M387.7,44.9c0.1-0.1,0.2-0.3,0.2-0.4
	c-0.4-1.5-0.8-3-1.3-4.5c-1-2.9-1-2.9-4.7-2.7C382.9,44,382.9,44,387.7,44.9z M254.4,453.6c-3.8,0.1-5.6,2.2-7.3,4.3
	c-0.3,0.3-0.2,1.5-0.1,1.5c1.5,0.4,3.1,0.9,4.6,0.8c0.6,0,1.4-1.3,1.7-2.1C253.9,456.8,254,455.4,254.4,453.6z M368.2,76.3
	c-0.7,3.4-0.9,5.9,0.5,8.2c0.4,0.6,1,1.4,1.6,1.6c0.4,0.1,1.1-0.9,1.6-1.4c1.3-1.8,1.4-3.4-0.7-4.8
	C370.2,79.1,369.6,77.9,368.2,76.3z M123,13.1c-0.8-0.7-1.9-1.8-3-2.8c-0.6,0.8-1.2,1.7-1.7,2.5c-0.5,0.8-0.9,1.7-1.2,2.6
	c-0.6,1.4,0.5,2.8,2,2.7C120.7,17.9,123,15.3,123,13.1z M242.4,34.1c-1.6,1.3-2.6,2.2-3.6,2.9c-1.2,0.8-1.4,2.3-0.8,2.9
	c1.1,1,2.7,1.7,4.1,1.8c1.9,0,1.4-1.8,1.3-3C243.3,37.2,242.8,35.9,242.4,34.1z M252.1,412.4c0.5,2.1,0.8,3.9,1.3,5.8
	c0.1,0.2,0.4,0.5,0.7,0.5c0.2,0,0.7-0.2,0.7-0.4c0.7-2.6,1.4-5.1,2-7.7c0.1-0.5-0.6-1.6-1.2-1.7c-0.7-0.1-1.9,0.2-2.3,0.7
	C252.6,410.4,252.5,411.6,252.1,412.4z M395.6,194.3c0-0.3,0-0.7-0.1-1c-3.6,0.2-6-3.4-10.5-2.7c2.4,0.8,3.9,1.4,4.1,3.6
	c0.4,4.2,0.7,4.3,4.3,1.8C394.1,195.5,394.8,194.9,395.6,194.3z M69.4,29.4c0.4-2,0.6-2.9,0.8-3.8c0.5-2.2,0.1-2.9-2.1-3.1
	c-1.1-0.1-2.3-0.1-3.3,0.2c-0.9,0.2-1.9,1-0.8,2C65.6,26.2,67.3,27.6,69.4,29.4z M123.9,19c0.5,2,0.9,3.7,1.5,5.4
	c0.1,0.3,1.1,0.6,1.5,0.4c1.9-0.9,2.1-2.2,0.4-3.7c-1-1-1.3-1.7-0.4-2.8c0.4-0.5,0.9-1,1-1.6c0.1-0.5-0.2-1.4-0.6-1.6
	c-0.4-0.2-1.5-0.1-1.7,0.3C124.9,16.4,124.4,17.8,123.9,19z M178,406.6c1.7-2.9,3.4-5.1,4.2-7.5c0.5-1.3,1-3.4-0.8-4.8
	c-0.7,1.2-1.3,2.4-2,3.6C178.1,400.3,177.1,402.8,178,406.6z M242.9,465.6c1.6,0,2.1,0.2,2.5,0c1.2-0.7,2.3-1.4,3.4-2.2
	c0.1,0-0.3-0.8-0.6-1.1c-1-1.2-2.3-1.7-3.8-0.9c-0.4,0.2-0.9,0.3-1.3,0.6c-1,0.9-3.3,0.7-2.8,2.5
	C240.5,465.3,242.6,465.5,242.9,465.6z M184.5,154.6c-2.4-1.4-4.2-3-6.4-3.6c-1.1-0.3-2.6,1.2-4,1.8c0.9,0.6,1.7,1.3,2.6,1.6
	C179.1,155.3,181.4,156.5,184.5,154.6z M262,494.5c-0.4-0.9-0.6-1.4-0.8-1.8c-0.8-1.4-1.5-2.8-2.5-4.1c-0.3-0.5-1.4-1-1.8-0.8
	c-0.6,0.3-1.4,1.3-1.3,1.8c0.5,1.8,1.3,3.6,2.3,5.3c0.3,0.5,1.7,0.6,2.5,0.5C261,495.4,261.5,494.8,262,494.5z M216.7,462
	c1.8-0.5,3.1-0.8,4.2-1.3c2.4-1,2.7-3.5,0.8-5.2c-1.1-1-2.9-0.5-3.3,1C217.9,458.1,217.4,459.8,216.7,462z M313.7,198.9
	c0.4-2.4-1.3-3.1-2.3-4.1c-0.3-0.3-0.9-0.2-1.3-0.3c-0.2,1.2-0.4,2.4-0.6,3.7c0,0.2,0,0.4,0.1,0.5c1,1.5,0.1,4,2.5,4.7
	C312.7,201.7,313.2,200.2,313.7,198.9z M409.4,223.7c-2.4-0.2-2.8,0-2.8,1.2c-0.1,2.3,1.4,4,3.7,4.1c1.5,0.1,1.9-0.8,1.9-2.1
	C412.4,224.2,412.1,223.8,409.4,223.7z M336.3,72.8c2,2.7,3.8,5,5.5,7.4c-0.1-2.1-1-3.8-1.3-5.7c-0.3-1.9-0.1-4-0.1-6
	c-0.3-0.1-0.5-0.1-0.8-0.2C338.4,70,337.2,71.6,336.3,72.8z M266,436.2c-1.9,2.3-1.7,5.4-4.4,6.5c-0.2,0.1-0.4,0.9-0.3,1.2
	c0.5,1.5,1.1,3,1.7,4.4c0.1,0.2,0.6,0.5,0.7,0.5c0.4-0.2,0.9-0.5,0.9-0.8C265.1,444.3,265.5,440.6,266,436.2z M206.5,414.3
	c-1.3,0-1.9-0.1-2.6,0c-0.6,0.1-1.2,0.3-1.8,0.5c0.3,0.7,0.3,1.6,0.8,2c0.9,0.9,1.6,2.7,3.4,1.8c1.1-0.6,2.2-1.3,3.2-2.1
	c1-0.8,0.4-1.5-0.4-1.8C208.1,414.4,207,414.4,206.5,414.3z M195.2,28.9c0.8-2.4,1.5-3.7,1.6-5.1c0.1-1.3-0.4-2.7-0.6-4
	c-1.1,0.8-2.3,1.5-3.3,2.5c-0.4,0.4-0.4,1.5-0.2,2.1C193.2,25.7,194,26.8,195.2,28.9z M7.5,22.8c-0.4-2-0.7-3.8-1.1-6.1
	C5.1,18,3.8,19,2.8,20.2c-0.5,0.6-1.2,1.8-1,2.3c0.5,1.1,1.5,2.2,3.1,1.4C5.7,23.4,6.6,23.2,7.5,22.8z M242.8,339.9
	c-0.3,0-0.5-0.1-0.6,0c-2.5,1.8-4.8,3.8-5.3,7.1c0,0.3,0.2,0.8,0.4,0.8c0.4,0.1,0.9,0,1.2-0.2c1-0.8,2-1.6,2.7-2.6
	c0.9-1.2,1.6-2.7,2.2-4.1C243.5,340.7,243,340.2,242.8,339.9z M170.7,111.8c-0.2-0.3-0.4-1.4-1-1.7c-0.9-0.4-3.4,1.4-3.6,2.6
	c-0.1,1.1,0,2.2,0.3,3.2c0.1,0.3,1.4,0.4,2.1,0.2c1.2-0.4,2.4-1.1,2.2-2.7C170.6,113,170.7,112.7,170.7,111.8z M173.3,76.1
	c-2.6,0.9-4.4,3.3-7.3,2.7c-0.5-0.1-1.2,0.7-1.8,1.1c0.8,0.7,2.2,2.2,2.2,2.1C168.7,80,173.4,81.2,173.3,76.1z M383.2,214.5
	c0.4-0.6,0.9-1.1,0.8-1.4c-0.2-1.2-0.3-2.9-1.1-3.6c-1-0.9-3.2-1.7-4-1.2c-1.1,0.8-0.7,2.7,0.6,3.7
	C380.6,213,381.8,213.7,383.2,214.5z M267.7,426c-0.6,2.3-1.4,4.4-1.6,6.4c-0.1,0.6,1.2,1.8,2.1,2c1.2,0.4,1.5-0.8,1.5-1.8
	C269.6,430.4,270,428.1,267.7,426z M428.2,200.1c-0.5,2.2-1,4-1.3,5.8c-0.2,1.3,1.1,2.1,2.2,1.5c2.1-1.1,2.6-3.6,1-5.4
	C429.6,201.3,429,200.8,428.2,200.1z M193.7,103.8c-1.6,3.6-3,6.6-4.3,9.7c-0.2,0.5-0.1,1.3,0,1.9c0,0.3,0.3,0.6,0.5,0.7
	c0.2,0.1,0.7-0.1,0.8-0.2C191.9,112.2,194.6,108.8,193.7,103.8z M112.5,29.9c-0.4-0.3-1.1-0.7-1.8-1c-0.3-0.1-1.1,0-1.2,0.2
	c-0.9,1.6-1.7,3.3-2.4,5c-0.1,0.3,0.6,1,1,1.4c0.2,0.2,0.8,0.2,0.8,0.1C110,34,111,32.3,112.5,29.9z M349.3,109.2
	c-1,1.6-2.1,3.1-3.1,4.8c-0.3,0.6-0.2,1.4-0.3,2.1c0.9-0.1,1.9,0,2.6-0.5C350.8,114,350.2,111.7,349.3,109.2z M150.5,29.2
	c2-2.3,2-4.4,1.7-6.5c-0.1-0.4-0.9-0.9-1.3-0.9c-1.7,0.2-2.6,1.5-2.1,3C149.2,26.2,149.8,27.4,150.5,29.2z M164.2,35.1
	c-0.3-0.2-0.7-0.5-1-0.7c-2,2.6-6.2,4-4.4,9.2C160.7,40.6,162.5,37.9,164.2,35.1z M144.4,5.3c-0.1-0.2-0.2-0.5-0.3-0.7
	c-0.4,0.2-1,0.4-1.1,0.6c-0.6,3.3-1.2,6.5-3.1,9.3c-0.1,0.2,0.6,1,0.9,1.5c0.5-0.3,1.3-0.5,1.4-0.9C143,11.9,143.7,8.7,144.4,5.3z
	 M350,73.3c-0.4-0.4-0.9-1-1.1-0.9c-1.7,0.8-3.4,1.7-4.9,2.7c-0.2,0.1,0.2,1.4,0.5,2c0.3,0.5,1.3,1,1.4,0.9
	C347.2,76.5,348.5,74.9,350,73.3z M213.7,135.9c2.3-4.5,1.6-5.5-4.3-6.1C210.9,131.9,212.2,133.8,213.7,135.9z M48.8,11.7
	c-0.3,2.4-0.4,4-0.7,6.2c2.1-0.9,4.1-1,5-3.1C51.8,13.8,50.5,12.9,48.8,11.7z M250.7,19.1c2.9-1.4,3.7-3.9,4.2-6.9
	C250.3,14.3,250.3,14.3,250.7,19.1z M202.3,430.9c0.6-5.6,0.6-5.6-2.5-6.4c-0.4-0.1-0.9,0-1.3,0c0,0.6-0.1,1.3,0.2,1.7
	C199.7,427.7,200.9,429.1,202.3,430.9z M340.3,157.5c-1.8,1.7-1.6,3.3-0.6,5c0.8,1.3,1.2,2.8,1.9,4.2c0.1,0.3,0.6,0.4,0.9,0.6
	c0.2-0.4,0.7-0.9,0.7-1.2C342.3,163.2,341.3,160.4,340.3,157.5z M418,229.4c0-1,0.2-1.6,0-2c-0.7-1-1.5-2-2.3-2.9
	c-0.1-0.1-0.8,0-0.8,0c0,1.2,0,2.4,0.1,3.6c0,0.4,0.3,1,0.6,1.3c0.6,0.5,1.3,0.7,1.9,1.1C417.7,230,417.9,229.5,418,229.4z
	 M360.6,55.7c-0.1-0.3-0.1-0.6-0.3-0.8c-0.2-0.2-0.7-0.2-0.8-0.1c-0.9,0.7-1.8,1.3-2.5,2.1c-0.7,0.8-2.5,1.7-1.2,2.8
	c0.5,0.5,2.6-0.4,3.6-1.1C360.1,58.1,360.2,56.7,360.6,55.7z M266,499.2c-1.1-1.2-1.9-2.1-2.7-3c-1,1-1.9,2-2.9,3
	c0.8,0.7,1.6,2.1,2.3,2C263.7,501.2,264.7,500.1,266,499.2z M72.2,11.4c2-1.4,3.9-2.6,6-4.1C73.2,6,72.1,6.7,72.2,11.4z M132.2,25.9
	c-0.6-0.3-1.5-1.1-2.1-0.9c-1.8,0.6-3.2,3.2-2.8,5c0.1,0.3,0.8,0.8,0.9,0.8c1.6-1.2,1.7-3.8,4.2-4C132.4,26.6,132.3,26.4,132.2,25.9
	z M192.4,418c-0.4,3-0.6,5.4,0.6,7.6c0.2,0.3,0.7,0.4,1,0.6c0.1,0,0.3-0.2,0.3-0.3c0.2-1.6,0.5-3.3,0.3-4.9
	C194.5,420.1,193.4,419.3,192.4,418z M107.3,43.3c0.3-2,0.8-3.3,0.5-4.5c-0.1-0.7-1.3-1.3-2.1-1.6c-0.4-0.2-1.2,0.2-1.6,0.6
	c-0.2,0.2-0.2,1,0,1.3C104.8,40.2,105.7,41.2,107.3,43.3z M179.2,20.1c0.5,0.6,1,1.8,1.8,2c0.7,0.3,1.7-0.4,2.6-0.6
	c-0.4-0.7-0.9-1.5-1.3-2.2c-0.1-0.1-0.1-0.3-0.3-0.4c-0.6-0.4-1.3-0.7-2-1C179.9,18.5,179.6,19.1,179.2,20.1z M230.2,5.7
	c1.5,0,2.6,0.2,3.6-0.1c0.5-0.1,0.9-1.3,0.9-1.9c0-0.7-0.6-1.4-0.9-2c-0.6,0.3-1.5,0.5-1.9,1C231.2,3.5,230.8,4.5,230.2,5.7z
	 M182.8,115.3c-0.4,2.1-1.3,3.7-0.8,4.7c0.7,1.5,2.3,2.5,3.6,3.7c0.1,0.1,1-0.2,1.1-0.5c0.1-0.4-0.1-0.9-0.2-1.4
	c-1.8,0.4-2-1.2-2.5-2.3C183.5,118.5,183.3,117.3,182.8,115.3z M136.2,22.1c-0.6-0.9-1-2-1.8-2.4c-0.9-0.5-2.6,1-2.2,1.8
	c0.6,1,1.6,1.8,2.5,2.6C135.1,23.5,135.6,23,136.2,22.1z M187.1,423.6c0.9-0.4,2.3-0.7,2.7-1.5c0.4-0.7-0.1-2-0.4-3
	c0-0.2-1.1-0.4-1.1-0.3c-0.7,1.3-1.3,2.7-1.9,4.1C186.4,423,186.8,423.3,187.1,423.6z M213,512.5c-0.5,0.8-0.9,1.4-1,2
	c-0.2,1.2-0.3,2.6-0.1,3.8c0.1,0.5,1.2,0.8,1.9,1.2c0.2-0.6,0.6-1.2,0.5-1.7C214,516.1,213.5,514.5,213,512.5z M191.5,30.8
	c-1-5.4-1-5.4-5-4.8C188.1,27.5,189.5,28.9,191.5,30.8z M331.5,135.3c0.6-2.3,1-3.6,1.2-4.9c0.1-0.5-0.5-1.1-0.8-1.7
	c-0.6,0.6-1.8,1.2-1.7,1.8C330.1,131.8,330.8,133.1,331.5,135.3z M241.6,3.6c-1.3-0.6-2.2-1.2-3.2-1.3c-0.4,0-1.3,1-1.3,1.6
	c0,1.3,1.1,2,2.2,1.7C240,5.5,240.6,4.6,241.6,3.6z M206,429.3c-0.4,4.3-0.4,4.3,1.1,6.9C208.6,433.6,207.9,431.4,206,429.3z
	 M335.5,190.7c-0.3,0-0.5,0.1-0.8,0.1c0,1.4-0.1,2.7,0,4.1c0.1,1-0.6,2.4,1,2.6c0.2,0,0.8-1.9,0.7-2.8
	C336.4,193.3,335.9,192,335.5,190.7z M332.2,90.5c1.3,1,2.3,2.3,3.2,2.3c1.2,0,2.4-1.2,4.4-2.3C336.8,90.5,334.8,90.5,332.2,90.5z
	 M270.3,505.9c-1.6-1.1-2.8-2-4.1-2.8c-0.1-0.1-0.5,0.3-0.8,0.4c0.6,1,1.2,2,1.8,2.9c0.3,0.4,0.8,0.8,1.1,0.7
	C268.9,507,269.3,506.6,270.3,505.9z M68.6,13.5c0.2-1.7,0.3-2.9,0.5-4c0.4-2.3,0.4-2.3-2.6-2.2C67.2,9.2,67.8,11.1,68.6,13.5z
	 M257.1,418.1c0,1.9-0.1,3.1,0,4.3c0.1,0.8,0.5,1.7,1.5,1.1c0.5-0.3,1.2-1.4,1-1.8C259.1,420.6,258.3,419.7,257.1,418.1z
	 M203.7,292.1c2.4-2,2-4.6,1.3-7.2C204.6,287.3,204.2,289.7,203.7,292.1z M344.1,83.2c-0.3-0.2-0.6-0.4-0.9-0.7
	c-1,0.9-2.1,1.8-3,2.8c-0.2,0.2-0.1,0.9,0.1,1.2c0.2,0.2,1,0.3,1.2,0.2C342.4,85.6,343.3,84.4,344.1,83.2z M138.1,22.5
	c2.2-3.5,2.2-3.5-0.8-4.9C137.6,19.2,137.8,20.5,138.1,22.5z M154.3,30.2c-0.2-0.2-0.4-0.3-0.6-0.5c-0.7,1.2-1.5,2.4-2.1,3.6
	c-0.1,0.3,0.2,0.8,0.4,1.3c0.4-0.1,1-0.2,1.1-0.4C153.5,32.9,153.9,31.5,154.3,30.2z M144.4,55.6c-0.7,0.4-1.1,0.5-1.2,0.7
	c-0.5,1.4-2.2,2.5-1.1,4.3c0.1,0.1,0.3,0.1,0.4,0.2c0.5-1.2,1.1-2.4,1.6-3.7C144.2,56.9,144.2,56.6,144.4,55.6z M208.5,456
	c0.2,0.2,0.4,0.4,0.6,0.7c1-0.6,2-1.2,2.8-1.9c0.2-0.1,0.1-0.9-0.1-1.2c-0.3-0.3-1.1-0.4-1.2-0.3C209.9,454.1,209.2,455.1,208.5,456
	z M304.7,180.7c-0.6-0.4-0.9-0.7-1.2-0.9c-0.6,0.8-1.2,1.5-1.7,2.4c-0.1,0.1,0.5,0.6,0.8,0.9C303.3,182.4,303.9,181.6,304.7,180.7z
	 M248,453c0.3-0.2,0.6-0.4,0.9-0.5c-0.9-1.6-1.1-3.6-3.4-4.3C246.3,449.8,247.1,451.4,248,453z M155.5,47.9c0.1,0,0.3,0,0.4,0
	c0-2.5,0-4.9,0-7.4c-0.1,0-0.3,0-0.4,0C155.5,43,155.5,45.5,155.5,47.9z M222,462.7c-0.6,0.7-1,1.3-1.5,1.9c0.4,0.3,0.9,0.7,1.3,1
	c0.4-0.6,0.9-1.1,1.1-1.7C223,463.7,222.4,463.3,222,462.7z M338.8,197.9c-0.3,0.3-0.6,0.6-0.9,0.9c1.2,1.1,2.3,2.1,3.5,3.2
	c0.1-0.2,0.3-0.3,0.4-0.5C340.8,200.3,339.8,199.1,338.8,197.9z M383,180.6c-0.5-0.5-0.8-0.8-0.9-0.8c-0.8,0.7-1.5,1.3-2.3,2
	c0.2,0.1,0.6,0.5,0.7,0.4C381.3,181.8,382.1,181.2,383,180.6z M325.2,21c-0.3,1-0.6,1.4-0.5,1.6c0.3,0.7,0.7,1.4,1.1,2.2
	c0.3-0.3,0.9-0.8,0.8-1C326.3,23,325.9,22.3,325.2,21z M263.7,239.5c-0.8,1.4-1.2,2-1.4,2.6c-0.1,0.3,0.2,0.8,0.4,1.2
	c0.3-0.2,0.9-0.4,1-0.7C263.8,241.8,263.7,241.1,263.7,239.5z M237.2,62.2c-1-0.6-1.7-1-2.4-1.3c-0.2-0.1-0.5,0.4-0.8,0.7
	c0.5,0.5,1,1,1.5,1.4C235.5,63.1,235.9,62.8,237.2,62.2z M160.2,47.1c-0.5-0.4-0.9-0.7-1.3-1.1c-0.2,0.3-0.7,0.7-0.6,1
	c0.1,0.5,0.6,0.8,0.9,1.2C159.5,47.9,159.8,47.6,160.2,47.1z M319.9,162.8c0.6-0.6,1.1-1.2,1.6-1.8c0-0.1-0.3-0.4-0.4-0.6
	c-0.6,0.5-1.2,0.9-1.7,1.5C319.3,161.9,319.6,162.3,319.9,162.8z M194,342c-1.4-0.7-1.9-1.1-2.1-1c-0.3,0.2-0.6,0.6-0.7,1
	c0,0.3,0.4,0.9,0.5,0.9C192.4,342.7,192.9,342.4,194,342z M195.8,206.7c0.4-0.9,0.8-1.4,0.9-1.9c0-0.2-0.6-0.4-0.9-0.6
	c-0.2,0.4-0.5,0.7-0.6,1.1C195.1,205.5,195.4,205.9,195.8,206.7z M258.4,482.5c-0.6-0.3-1-0.7-1.2-0.6c-0.4,0.2-0.7,0.6-0.8,1
	c0,0.3,0.4,0.6,0.6,0.9C257.4,483.4,257.8,483.1,258.4,482.5z M279.4,528.7c-0.2-0.4-0.3-0.9-0.5-1.3c-0.2,0.4-0.5,0.8-0.5,1.2
	c0,0.5,0.3,0.9,0.5,1.3C279.2,529.5,279.3,529.1,279.4,528.7z M386.8,219.7c-0.5-0.4-0.9-0.8-1.3-1.1c-0.2-0.1-0.5,0.1-0.8,0.2
	c0.4,0.4,0.7,0.9,1.1,1.2C385.9,220.1,386.3,219.9,386.8,219.7z M379.5,7.1c0.4,0.2,0.7,0.4,1,0.4c0.1,0,0.4-0.6,0.4-0.6
	c-0.2-0.3-0.6-0.4-0.9-0.7C379.9,6.5,379.7,6.7,379.5,7.1z M229,426.4c-0.3-0.4-0.5-0.6-0.6-0.8c-0.3,0.5-0.6,1-0.9,1.5
	c0,0.1,0.3,0.3,0.5,0.5C228.4,427.2,228.7,426.8,229,426.4z M231.4,58.3c-0.5-0.3-1-0.5-1.6-0.7c0,0-0.3,0.5-0.3,0.6
	c0.4,0.3,0.9,0.6,1.4,1C231.1,58.9,231.2,58.7,231.4,58.3z M204.7,51.5c-0.1-0.4-0.3-0.8-0.4-1.2c-0.2,0.2-0.4,0.4-0.4,0.6
	c0,0.3,0.1,0.6,0.1,0.9C204.2,51.6,204.4,51.6,204.7,51.5z M242.3,439.6c-0.1-0.3-0.2-0.7-0.4-0.8c-0.2-0.1-0.5,0.1-0.8,0.2
	c0.2,0.3,0.3,0.6,0.5,0.8C241.7,439.9,242.1,439.7,242.3,439.6z M253.7,492.4c-0.2-0.3-0.3-0.6-0.5-0.8c-0.2-0.1-0.5,0.1-0.7,0.1
	c0.1,0.3,0.2,0.7,0.4,0.8C253,492.6,253.4,492.4,253.7,492.4z M234.1,458c-0.1-0.3-0.1-0.5-0.2-0.8c-0.3,0.1-0.7,0.2-0.8,0.4
	c-0.1,0.2,0.1,0.5,0.2,0.8C233.6,458.3,233.8,458.1,234.1,458z M244.9,4.5c-0.3,0.2-0.6,0.2-0.8,0.5c-0.1,0.1,0.1,0.5,0.1,0.7
	c0.3-0.1,0.7-0.2,0.8-0.4C245.2,5.1,245,4.7,244.9,4.5z M347,94.5c0-0.2,0-0.3,0.1-0.5c-0.2,0-0.4,0.1-0.6,0.1
	c0.1,0.1,0.1,0.3,0.2,0.4C346.7,94.6,346.9,94.5,347,94.5z M361.3,129.5c0.1-0.1,0.3-0.1,0.3-0.2c0-0.1,0-0.3,0-0.4
	c-0.2,0.1-0.3,0.2-0.5,0.3C361.2,129.2,361.2,129.4,361.3,129.5z M246.9,52c0.2,0.1,0.4,0.2,0.7,0.3c0.1,0,0.2-0.2,0.3-0.3
	c-0.2-0.1-0.4-0.2-0.7-0.3C247.1,51.7,247,51.9,246.9,52z M380.1,177.6c-0.1-0.1-0.1-0.3-0.2-0.4c-0.1,0-0.2,0.1-0.3,0.2
	c0.1,0.2,0.3,0.4,0.4,0.6C380,177.8,380,177.7,380.1,177.6z M407.4,193.3c-0.1,0.1-0.3,0.1-0.4,0.2c0,0.1,0.1,0.2,0.2,0.4
	c0.2-0.1,0.4-0.3,0.6-0.4C407.7,193.4,407.5,193.4,407.4,193.3z"/>
<path d="M0,54.4c2.7-2.6,2.2-5.8,1.3-8.9C0.1,41,2,37.7,4.8,34.6c0.3-0.3,0.9-0.3,1.3-0.4c0.1,0.6,0.3,1.2,0.1,1.6
	c-0.4,0.9-0.9,1.7-1.6,2.4C3,40.1,2.9,42,3.6,44.4c0.7,2.7,0.4,5.6,0.6,8.6c2.4-1.2,3.5-3.1,4.4-5.2c0.3-0.6,0.3-1.3,0.7-1.7
	c0.4-0.3,1.1-0.3,1.7-0.1c0.2,0,0.4,0.9,0.3,1.2C8.5,51.9,6,56.8,0,58.3C0,57,0,55.7,0,54.4z"/>
<path d="M376.4,0.1c-1,2.8-2.9,4.9-5.3,6.5c-2.6,1.8-3.5,1.4-4.4-1.5c-0.5-1.6-0.6-3.4-0.9-5.1c1,0,1.9,0,2.9,0c0,0.3,0,0.6,0,1
	c0.1,1-0.3,2.5,1.2,2.7c0.8,0.1,1.8-0.6,2.4-1.2c0.6-0.6,0.8-1.6,1.2-2.5C374.5,0.1,375.4,0.1,376.4,0.1z"/>
<path d="M3.9,0.1C2.6,0.7,1.3,1.4,0,2c0.1-1-0.5-2.4,1.5-2C2.3,0.2,3.1,0.1,3.9,0.1z"/>
<path d="M160.1,0.1c-0.3,0.8-0.6,0.8-1,0C159.4,0.1,159.8,0.1,160.1,0.1z"/>
<path d="M200.9,165c0.2,0.2,0.3,0.4,0.5,0.5C201.1,165.3,201,165.2,200.9,165L200.9,165z"/>
<path d="M147.4,504.5c-0.3,0.3-0.6,0.6-0.9,0.9C146.8,505.1,147.1,504.8,147.4,504.5z"/>
</svg>
