<?xml version="1.0" encoding="utf-8"?>
<!-- Generator: Adobe Illustrator 18.0.0, SVG Export Plug-In . SVG Version: 6.00 Build 0)  -->
<!DOCTYPE svg PUBLIC "-//W3C//DTD SVG 1.1//EN" "http://www.w3.org/Graphics/SVG/1.1/DTD/svg11.dtd">
<svg version="1.1" id="Layer_1" xmlns="http://www.w3.org/2000/svg" xmlns:xlink="http://www.w3.org/1999/xlink" x="0px" y="0px"
	 viewBox="0 0 74.6 200.5" enable-background="new 0 0 74.6 200.5" xml:space="preserve">
<path d="M31.3,19.9c-0.2-0.4-0.4-0.9-0.6-1.3c0.4-0.1,0.9-0.5,1.1-0.4c0.9,0.7,1.7,1.5,2.6,2.2c1.3,0.9,2.4,0.3,2.7-1.3
	c0.3-1.7,0.4-3.5,0.9-5.2c0.7-2.4,0.8-2.4,3.3-1.7c0.4,0.1,0.8,0.2,1.4,0.4C41.9,9,41.2,5.5,42.6,2.1c1-2.6,1.7-2.7,3.7-0.7
	c1.7,1.7,2.6,3.7,2.5,6.1c-0.1,1.3,0,2.6,0,4.4c2.9-0.8,5.4-1.6,8-2.2c0.9-0.2,2.4,0,3,0.6c0.6,0.7,0.4,2,0.5,3.1
	c0,0.1-0.1,0.3-0.2,0.4c-3,2.9-2.4,6.3-1.1,9.7c0.6,1.5,0.1,1.9-1.3,2.3c-2.3,0.7-3.2,2.2-3,4.1c0.2,2.7,1.6,3.7,4.1,2.5
	c2.7-1.3,5.3-3,7.8-4.7c1.1-0.8,2.4-1.7,3.4-0.5c0.9,0.9,1.6,2.5,1.4,3.7c-0.4,4-1.2,7.9-1.9,11.8c-0.1,0.8-0.4,1.7-0.1,2.4
	c2.9,7,2.2,14.5,3.4,21.7c1,6.1-2.6,14.3-10.5,17.9c-2.6,1.2-4.7,2.5-5.9,5.2c-0.5,1.1-1.5,2.2-2.6,2.8c-3,1.6-4.3,4.7-6.5,7
	c-1.9,2-1.7,2.9,0.5,4.8c5.3,4.8,6.5,10.5,5.2,17.4c-1.1,5.5-1,11.2-1.2,16.8c-0.1,2.5-0.1,4.7-2.3,6.5c-1.9,1.6-2.2,3.9-0.8,6.2
	c0.8,1.2,1.5,2.5,2.1,3.8c0.3,0.6,0.7,1.8,0.4,2.1c-2.9,3.2-0.4,5.6,1.1,8.1c1.8,2.9,3.5,5.7,5.3,8.5c0.5,0.8,1.1,1.6,1.7,2.3
	c4.3,4.6,3.8,4.4,7.6,0.3c0.4-0.5,0.9-0.9,1.4-1.4c1.3-1.3,3-2,4.3-0.7c1.1,1.1,2.2,3.2,2,4.5c-0.5,2.6-1.6,5.4-3.2,7.5
	c-2.8,3.7-6.5,6.5-11.3,7.6c-2.4,0.5-4.5,0.1-5.7-1.6c-1.4-1.9-3.3-3-4.9-4.5c-2.2-2-4-4.2-4.6-7.2c-0.5-2.5-1.8-4.3-3.8-5.9
	c-1.7-1.3-2.8-3.4-4.3-5.3c-2.5,2.4-3.9,5.2-3.7,8.8c0.1,1.6-0.5,3.1-0.8,4.7c-0.6,3.2,0,4.8,2.8,6.2c1.4,0.7,3,1.1,4.5,1.8
	c3.1,1.5,3.4,4.8,0.7,6.9c-3.1,2.5-6.5,2.7-10,1.5c-2.9-1-5.9-1.5-9-1.4c-1.5,0-3.2-0.4-4.6-1c-1.5-0.6-2.5-1.7-1-3.3
	c1-1,0.5-1.9,0.3-3.1c-0.3-1.9-0.5-4,0.1-5.7c1.5-4.3,2-8.7,2.6-13.2c0.2-1.4,0.7-2.8,1.2-4.2c0.6-1.7,1.3-3.3-0.5-4.8
	c-0.4-0.4-0.6-1.6-0.3-2.1c1-2,0.4-3.4-1.1-4.7c-6.3-5-5.5-11.9-4.6-18.6c0.4-3.1,0.7-5.6-0.4-8.7c-1.3-3.4-2.2-7.4,1.6-10.5
	c1.3-1.1,2-2.9,2.7-4.5c2.6-5.7,6.9-10,11.3-14.3c1.3-1.3,2.8-1.3,4.5-1.3c2.7,0,3.6-0.7,3.7-3.2c0.1-1.5-0.3-3.2-0.8-4.6
	c-0.2-0.5-1.7-0.5-2.6-0.6c-0.2,0-0.7,1.1-0.5,1.4c1.2,2.5-1.7,2.2-2.3,3.5c-0.9-0.5-1.8-0.9-2.7-1.4c-0.4-0.2-0.7-0.7-0.9-1.1
	c-0.5-0.7-0.9-1.5-1.4-2.3c-0.2,1.2-0.7,2.3-0.7,3.4c0,0.9,0.8,1.7,1.1,2.7c0.2,0.5,0.1,1.2,0.1,1.7c-0.6,0-1.2,0-1.8-0.1
	c-2.5-0.4-5-0.9-7.5-1.3c-0.1-0.1-0.1-0.3-0.2-0.4c-0.1-0.1-0.2-0.1-0.3-0.1c0.2,0.2,0.3,0.3,0.5,0.5c-0.4,0.6-0.8,1.2-1.2,1.8
	c-1.8-1.3-2.9-0.1-4.1,1.1c-1,1-2.2,1.4-3.4,0.5c-1.3-1-2.4-2.3-1.9-4.1c0.1-0.5,0.4-0.9,0.6-1.3c1-1.8,2.4-3.5,2.8-5.3
	c0.3-1.7-0.6-3.7-1-5.7c-2.3,1-0.8,3.6-2.2,4.9c-0.4,0.4-0.9,0.8-1.3,1.1c-0.1-0.5-0.4-1.1-0.4-1.6c0-0.5,0.3-0.9,0.4-1.4
	c0.3-1.2,0.8-2.5,0.9-3.7c0.2-1.6,0-3.2-0.5-5.1c-0.8,1.5-1.6,3.1-2.5,4.5c-0.2,0.3-1,0.5-1.2,0.4c-0.4-0.3-1-1.3-0.9-1.3
	c2.2-2.2,0.9-5.3,2-7.8c0.7-1.7,0.8-3.9-0.6-5.5C0.9,66.7,1,65.4,1.9,64c0.8-1.4,1.6-2.8,2.4-4.1c0.8-1.5,1.6-2.9,2-4.7
	c-1.6,1.7-3.7,2.8-4.2,5.3c-0.2,0.9-0.6,2.1-1.8,1.4c-0.4-0.2-0.3-1.8,0.1-2.5c1.4-2.3,2.8-4.7,4.6-6.7c2.2-2.5,4.8-4.6,7.2-6.9
	c0.2-0.2,0.3-1,0.2-1.1c-0.3-0.3-0.9-0.5-1.3-0.3c-3.2,1.1-5.6,3.1-6.9,6.2c-0.2,0.4-0.8,0.7-1.2,1.1c-0.2-0.7-0.7-1.6-0.4-2.1
	c1.7-3.7,4.7-6.1,8.5-7.3c0.6-0.2,1-0.6,1.5-0.9c-0.5-0.6-0.8-1.3-1.4-1.8c-0.3-0.3-0.9-0.2-1.4-0.4c-0.2-0.1-0.4-0.5-0.5-0.7
	c1.9-3.1,5.6-4.6,7.3-8c0.2-0.3,1.1-0.3,1.6-0.4c0,0.6,0.1,1.3-0.2,1.6c-1.4,1.6-1.5,3.3-0.6,5.2c1.1-2.7,4.3-4.8,2.3-8.5
	c-0.5-1,2.9-5.5,3.9-5.2c0.9,0.2,1.6,1.3,2.5,2.1c0.7-1.3,1.5-2.5,2-3.8C28.7,19.8,29.9,19.8,31.3,19.9c0.1,0.2,0.3,0.4,0.4,0.5
	C31.6,20.3,31.4,20.1,31.3,19.9z M11.8,57.8c0.3-0.3,0.7-0.6,1-0.9c0.2-0.2,0.3-0.3,0.5-0.5c-0.2,0.1-0.3,0.3-0.5,0.4
	C12.5,57.1,12.2,57.4,11.8,57.8c-0.3,0.3-0.6,0.6-1,1C9,59.9,7.3,61.2,7,63.6c-0.2,0.2-0.3,0.3-0.5,0.5c0.2-0.2,0.3-0.3,0.5-0.5
	c1.7-1.3,3.7-2.4,3.9-4.9C11.2,58.4,11.5,58.1,11.8,57.8z M9.9,69.4c0.3-0.3,0.7-0.6,1-1c0.1-0.2,0.3-0.3,0.4-0.5
	c-0.2,0.2-0.3,0.3-0.5,0.5C10.5,68.7,10.2,69.1,9.9,69.4c-0.2,0.1-0.3,0.3-0.5,0.5C9.6,69.7,9.8,69.6,9.9,69.4z M33.2,22.9
	c0.2,0.1,0.3,0.3,0.5,0.4C33.5,23.1,33.4,23,33.2,22.9c-0.1-0.2-0.3-0.4-0.5-0.5C32.9,22.5,33,22.7,33.2,22.9z M27.4,83
	c-0.1-0.1-0.1-0.3-0.2-0.4c-0.1-0.1-0.2-0.1-0.3-0.1C27.1,82.7,27.2,82.8,27.4,83c0.1,0.4,0.2,0.8,0.3,1.3c0.2-0.1,0.3-0.2,0.5-0.3
	C27.9,83.6,27.6,83.3,27.4,83z M42.9,38.4c-0.1-0.1-0.1-0.3-0.2-0.4c-0.1-0.1-0.2-0.1-0.3-0.1C42.6,38,42.7,38.2,42.9,38.4
	c0,1.4,0,2.8,0,4.2C43.8,41.1,44.4,39.6,42.9,38.4z M15.7,69.4c-1.6,0-2.1,1-2.4,2.3c0,0.1,0.2,0.3,0.3,0.3
	C15.3,71.9,15.6,70.7,15.7,69.4c0.1-0.1,0.3-0.1,0.4-0.2c0.1-0.1,0.1-0.2,0.1-0.3C16,69.1,15.9,69.2,15.7,69.4z M24.4,66.5
	c-2,0.9-4,1.8-6,2.9c-0.3,0.1-0.5,0.9-0.4,1.2c0.1,0.3,0.7,0.7,1.1,0.7c0.9-0.1,2.1-0.2,2.6-0.8C22.8,69.3,23.6,67.8,24.4,66.5
	c0.2-0.1,0.3-0.3,0.5-0.5C24.7,66.2,24.6,66.3,24.4,66.5z M21.5,75.2c-1.6,0.1-3.2,0-4.8,0.2c-1.5,0.2-2.1,1.4-1.8,2.9
	c0.3,1.3,1.5,1.7,3,1C19.8,78.5,21.4,77.5,21.5,75.2c1.9,0,2-1.3,1.8-2.6c0-0.2-0.7-0.6-0.9-0.5C21.2,72.8,20.6,73.8,21.5,75.2z
	 M50.7,117.9c0.1,0.4,0.2,0.8,0.3,1.2c0.2-0.1,0.3-0.2,0.5-0.3C51.1,118.5,50.9,118.2,50.7,117.9c1-3.8,0-7.1-2.7-9.9
	c-0.6-0.7-1.6-1-2.5-1.6c1.3,3.4,2.5,6.3,3.7,9.2C49.4,116.4,50.1,117.1,50.7,117.9z M38,102.4c-0.1-0.1-0.1-0.3-0.2-0.4
	c-0.1-0.1-0.2-0.1-0.3-0.1C37.7,102.1,37.9,102.2,38,102.4c1.1,5.3,3.9,10.1,4.4,15.5c0.1,1.4,0.3,2.9,0.6,4.3
	c0.2,1.5,2.1,3.1,3.3,3c1.2-0.1,2.5-2.2,2.2-3.8c-0.2-1.1-0.5-2.2-0.8-3.3C45.6,112.2,43.3,106.4,38,102.4z M26.4,128.6
	c0,0.5,0,1,0,1.4c0.1,1.8,0.3,3.6,2.3,4.3c1.9,0.7,3.2-0.1,4.9-2.6c0.4-0.6,0.7-1.1,1.2-1.9C31.7,129.3,29,129,26.4,128.6
	c0-1.1,0.4-1.9,1.6-2c1.6,0,3.2,0,4.8,0c3.2-0.1,5.4-1.4,5.8-4.6c0.6-3.7,1.9-7.5-0.3-11.2c-0.6-0.9-0.8-2.1-1.1-3.2
	c-2-5.7-6.8-6.9-11-2.7c-0.6,0.6-1.2,1.1-1.7,1.7c-1.6,1.9-1.4,2.6,0.6,4.3c2.8,2.4,5.5,5,8.1,7.5c0.4,0.4,0.4,1.1,0.5,1.7
	c-0.6,0-1.3,0.3-1.6,0c-1.9-1.8-3-1.1-4,1c-0.4,0.8-1.3,1.5-1.8,2.2C25.2,125.1,24.8,126.8,26.4,128.6z M41.9,51.9
	c-0.1-0.1-0.1-0.3-0.2-0.4c-0.1-0.1-0.2-0.1-0.3-0.1C41.6,51.6,41.8,51.8,41.9,51.9c0.3,1.1,0.2,2.5,0.9,3.1
	c1.8,1.4,4.2,2.3,1.5,5.1c-0.2,0.3,0.4,1.4,0.7,2.2c0.6,1.6,0,2.1-1.6,1.7c-1.6-0.4-0.9,0.6-0.7,1.3c0.1,0.6,0,1.2-0.1,2
	c-4-2.9-4-3-6.6,0.9c-0.6,0.9-0.7,2.1-1,3.1c-0.3,1.2-0.5,2.5-0.9,3.7c-0.9,2.6-0.6,3,2.2,3.2c1.6,0.1,3.1-0.1,4.5-1.3
	c2.3-2,2.9-1.8,3.4,1.3c0.1,0.8-0.2,1.8-0.6,2.5c-1.1,2-2.2,3.9-3.5,5.8c-2.4,3.5-0.2,7.7-1.7,11.3c1.4,1.3,2.7,2.6,4.1,3.8
	c0.2,0.2,0.5,0.2,0.4,0.1c2-2.3,3.8-4.5,5.7-6.7c1.1-1.2,2.8-2.1,3.3-3.5c1.9-5.1,6.2-7.5,10.5-10c0.4-0.2,0.9-0.4,1.3-0.7
	c3.6-2.3,5.6-5.8,6.1-9.9c0.4-3.3,0.1-6.8,0-10.2c0-0.5-0.5-1.6-0.7-1.5c-3.4,0.2-2.3-1.9-1.6-3.3c1.3-2.7,0.8-5.2,0.3-7.9
	c-0.4-1.7-0.8-3.5-0.7-5.2c0.3-4.2,1-8.5,1.6-13.4c-2.7,1.7-4.8,3.1-6.9,4.3c-3.4,2-3.5,1.9-6.6,1.7c0.4,2.9,0.9,5.8,1.2,8.8
	c0.1,0.5-1,1.7-1.1,1.7c-1.9-0.9-2.5,1-3.7,1.6c-0.3,0.2-1,0-1.2-0.2c-0.2-0.2-0.3-0.9-0.1-1.2c0.9-1.5,2.1-2.9,2.9-4.4
	c0.8-1.7,0-3.5-1.5-4c-2.3-0.8-4.5,0-4.8,2c-0.4,2-0.9,4.1-0.6,6.1C46.8,49.8,46.4,50.6,41.9,51.9z M40.5,123.9
	c-0.9,1.8-1.7,3.4-2.6,4.9c-1,1.6-2.4,3.1-3.3,4.8c-1,1.9-2.1,3.1-4.5,2.9c-1.6-0.1-1.9,0.8-1.3,2.2c0.5,1,0.9,2.1,1.1,3.2
	c0.5,2.5,1.2,5.1,1.1,7.6c-0.1,3.2-2,4.3-5.2,3.8c-0.8-0.1-1.6-0.3-2.4-0.3c-2.2,0.1-4.2,0-5.3-2.4c-0.2-0.4-0.8-0.6-1.2-0.8
	c-0.3-0.1-0.8-0.2-0.8-0.2c-0.2,0.4-0.4,1-0.3,1.3c0.3,0.7,0.7,1.5,1.3,2c3.9,3.4,7.9,6.9,13.6,3.2c0,3.2,0.5,4.8,2.4,6.5
	c0.6,0.6,1.9,1.1,2.5,0.8c3.7-1.6,7.3-3.3,10.8-5.1c1.7-0.9,1.9-2.3,0.8-4c-2-2.9-4.4-5.6-2.9-9.5c-1.7-3.1-0.1-5.9,1-8.8
	c0.7-2,1.5-3.9,2.4-5.8c0.5-1.1,0.3-2.2-0.8-2.2C44.1,127.9,42.6,125.8,40.5,123.9z M26.8,150.5c1.5,0.2,2.5-0.5,2.2-1.9
	c-0.8-3.6-1.8-7.1-2.8-10.6c-1.1-3.7-2.4-7.2-3.4-10.9c-0.2-0.8,0.3-1.9,0.8-2.7c1-1.8,2.2-3.5,3.2-5.4c1.5-2.8,1.4-3.3-1.4-4.9
	c-0.8-0.5-1.7-1-2.6-1.3c-0.5-0.1-1.4,0-1.7,0.3c-3,3.5-6.1,7-6.4,12.1c-0.2,4,1.5,7.3,3.8,10.2c1.9,2.5,2.4,4.4,1.6,7.4
	c-0.5,1.9,0.3,4.4,1.2,6.4c0.3,0.7,2.6,0.5,4,0.8C25.7,150.1,26.1,150.3,26.8,150.5z M53.2,180.5c2.2,0.5,3.5-0.7,3.1-2.8
	c-0.3-1.7-1-3.3-1.8-4.9c-2-4-5.8-6.8-7-11.4c-0.1-0.2-0.9-0.5-1.1-0.4c-2.6,1.2-5.2,2.5-7.8,3.7c-1.1,0.5-1.3,1.4-0.6,2.3
	c1.7,2.3,3.5,4.5,5.3,6.7c1.2,1.5,2.7,2.8,3.4,4.5c0.8,2,1.7,3,3.9,2.3C51.4,180.3,52.3,180.5,53.2,180.5z M34.9,167.1
	c-3.5-0.7-6.9-1.1-10.1-2c-1.9-0.6-2,0.1-2.6,1.6c-1.7,4.6-2,9.4-1.7,14.3c0.2,3.4,0.6,3.8,4.1,3.9c1,0,1.9,0,2.9,0
	c1.7-0.1,2.7-1.1,2.6-2.8c0-1.4,0.6-2.9-1-4c-1.2-0.8-0.6-1.7-0.1-2.5c0.7-1,1.5-2.2,2.5-2.9C33.6,171.2,34.3,169.2,34.9,167.1z
	 M55.9,190.1c0.5,0.6,0.6,0.9,0.8,1.1c0.3,0.2,0.6,0.3,0.9,0.3c4.5,0.8,7.8-1.7,10.5-4.6c2.3-2.5,4.6-5.5,3.7-9.5
	c-0.2-1-0.9-1.3-1.7-0.7c-0.8,0.6-1.4,1.3-2.1,2c-1.6,1.5-2.9,3.6-5.5,3.5c-0.3,0-0.8,0.9-0.8,1.3C61.8,188.8,61.5,189.3,55.9,190.1
	z M33.4,50.7c-0.1,0-0.5,0.1-0.6,0.3c-1.5,2.8-3.4,4.9-7,5.2c-1.1,0.1-2.3,1.1-3.2,2c-0.4,0.4-0.8,1.6-0.5,2c0.4,0.5,1.4,1,2,0.9
	c1-0.3,2-1,2.9-1.6c1.1-0.7,2.1-1.5,3.1-2.2c1.1-0.7,1.8-0.2,2,1c0.4,2.2,0.8,4.4,1.3,6.6c0.1,0.5,0.9,0.8,1.3,1.1
	c0.4-0.5,1.1-1,1.1-1.5c0.1-2.1,0.2-4.2-0.2-6.2C35.2,55.7,34.2,53.2,33.4,50.7z M34.1,197.7c0-0.1,0-0.2,0.1-0.3c0.6,0,1.3,0,1.9,0
	c1.6,0,3-0.8,3.2-2.3c0.1-0.6-1.7-1.6-2.7-2.1c-3-1.4-6.1-2.7-8.5,1.2c-0.4,0.6-1.3,0.9-2,1.3c0.8,0.3,1.7,0.8,2.5,1
	C30.4,196.9,32.3,197.3,34.1,197.7z M38.2,38.1c0,3.2-0.1,5.4,0,7.6c0.1,1.2,0.8,2.4,2.1,1.9c0.7-0.3,1.4-1.8,1.3-2.7
	c-0.2-1.4-1.2-2.6-1.6-4c-1.2-4.4-1.1-4.4-5.4-3.3c-0.9,0.2-2,0.4-2.7,0.9c-0.9,0.7-1.5,1.8-2.3,2.8c1.3,0.2,2.8,0.8,4,0.3
	C35,41.2,36.1,39.8,38.2,38.1z M24,192.4c3.4,0.3,4.3-1.3,4.8-3c0.1-0.4-0.6-1.5-1-1.6c-3-0.2-6.1,0.1-8.5-2.3
	c-0.1-0.1-0.6-0.1-0.8,0.1c-1.3,0.9-1,5,0.6,5.5C21,191.9,23.1,192.2,24,192.4z M34.1,46c-0.3-0.3-0.5-0.5-0.8-0.8
	c-1.1,0.6-2.6,0.9-3.2,1.8c-1.6,2.6-3.2,4.6-6.7,3.3c-0.7-0.3-1.9,0.4-2.7,0.8c-0.7,0.4-1.3,1.2-1.9,1.8c0.8,0.6,1.5,1.6,2.4,1.8
	c1.6,0.4,8.2-2.3,9.3-3.8C31.9,49.4,33,47.7,34.1,46z M20.7,86.7c-0.3-0.1-0.6-0.3-1-0.4c-1.1,2.1-2.4,3.5-5,3.8
	c-2.8,0.3-4.8,2.6-5.9,5.2c-0.3,0.6-0.4,1.7-0.1,2.2c0.9,1.3,1.7,0.1,2.3-0.4c1.4-1.3,2.7-2.6,4.1-3.9c0.7-0.7,1.3-1.4,1.9-2
	c0.7,1.2,1.3,2.2,1.8,3.2c0.3-1,0.6-2,0.9-3C20,89.7,20.3,88.2,20.7,86.7z M58.9,181.4c-2.5,0.9-4.8,1.7-7.1,2.6
	c-0.6,0.2-1.2,0.7-1.8,1.1c0.4,0.5,0.7,1.1,1.2,1.4c2.1,1.4,6.1,1.8,7.2,0.6C60,185.3,59.4,183.2,58.9,181.4z M40,20.1
	c-0.1,0-0.2,0-0.3,0.1c0.4,2.4,0.7,4.7,1.2,7c0.1,0.3,0.6,0.5,0.9,0.8c0.3-0.4,0.8-0.7,0.8-1.1c0.1-3.2,0.2-6.4,0.1-9.7
	c0-0.7-0.7-1.4-1.2-2c-0.2-0.3-0.9-0.7-1.1-0.5c-0.4,0.2-0.7,0.7-0.7,1.1C39.7,17.3,39.9,18.7,40,20.1z M20.9,81.6
	c-0.1-0.2-0.2-0.5-0.3-0.7c-3.1,1.2-6.2,2.2-9.2,3.5c-0.6,0.2-1.2,1.3-1.1,1.9c0.1,0.6,1,1.3,1.7,1.4c2.1,0.5,3.8-0.5,5.2-1.9
	C18.4,84.4,19.6,82.9,20.9,81.6z M30.2,61.2c-2.2,4.6-1.3,8.7,2,12.6C34.9,69,30.9,65.4,30.2,61.2z M39.3,35.1
	c0.1-4-0.9-6.1-3.7-7.5c-1.3-0.6-1.9-0.1-2.3,0.6c-0.3,0.4-0.3,1.6,0,1.9C35,31.7,36.8,33.1,39.3,35.1z M28.3,75.5
	C28.3,75.5,28.3,75.5,28.3,75.5c0-0.5,0.1-1,0-1.4c-0.5-1.7-1.2-3.5-1.7-5.2c-1.9,1.4-0.7,3.4-1,5.2c-0.2,1.1-0.2,2.3,0,3.3
	c0.2,0.8,0.8,1.5,1.3,2.3c0.5-0.8,1-1.5,1.3-2.3C28.4,76.8,28.3,76.1,28.3,75.5z M30.7,164.2c-1.2-3.7-3.6-5.1-7.1-4.7
	c-0.3,0-0.6-0.3-0.9-0.2c-0.4,0.1-1,0.3-1,0.5c-0.1,0.4,0.1,1.1,0.4,1.2C24.8,162.1,27.2,164.4,30.7,164.2z M57.7,13.4
	c-0.7-0.6-1.1-1.1-1.3-1.1c-2,0.6-4,1.1-5.8,2c-0.4,0.2-0.5,1.7-0.2,2.5c0.4,1,1.2,0.5,1.9,0.1c0.5-0.3,1.3-0.1,1.7-0.4
	C55.2,15.7,56.3,14.6,57.7,13.4z M17.6,146.6c0-1.1-0.1-2.1,0-3c0.1-1.1,0.8-2.2,0.7-3.2c-0.1-0.7-1-1.4-1.6-1.9
	c-0.3-0.2-1.5,0.3-1.5,0.6c-0.2,1.4-0.3,2.8-0.2,4.2C14.9,144.9,15.8,145.9,17.6,146.6z M46.7,7.5c-0.3-0.8-0.6-2.1-1.2-3.4
	c-0.2-0.4-0.9-0.6-1.4-0.9c-0.3,0.6-0.8,1.2-0.8,1.7c0.1,1.9,0.4,3.8,0.8,5.7c0.2,0.8,1.1,2.2,1.5,2.2c1.7-0.3,0.3-1.4,0.3-2.2
	C46.1,9.7,46.4,8.9,46.7,7.5z M24.3,63.6c-1.7-0.7-2.4-0.9-3.1-1.2c-2.3-0.7-3.7,0-4.4,2.1c-0.3,1,0.5,2.1,1.5,1.8
	C20.1,65.7,21.7,64.8,24.3,63.6z M44.4,34.7c1.2-0.5,2.7-0.9,4.1-1.6c0.4-0.2,0.6-1,0.5-1.5c0-0.3-0.8-0.7-1.1-0.7
	c-1.9,0.3-3.7,0.6-5.5,1.1c-0.4,0.1-0.8,0.6-0.9,1c0,0.3,0.4,0.9,0.7,1.1C42.8,34.3,43.4,34.4,44.4,34.7z M47.3,144.1
	c1.6-3.5,3-6.5,1.9-10.5C47.5,137,45.5,139.9,47.3,144.1z M36.1,47.6c0,1.3,0,2.4,0,3.5c0,0.9-0.1,2,0.2,2.8c0.2,0.6,1,1.1,1.5,1.7
	c0.4-0.6,1-1.1,1.1-1.8C39.4,51.3,38.3,49.3,36.1,47.6z M29.6,36.1c0.1,0.3,0.2,0.5,0.3,0.8c1.6-0.4,3.3-0.8,4.9-1.3
	c1.3-0.4,0.8-1.1,0.1-1.6c-1.3-0.9-2.5-1.6-3,0.8C31.7,35.4,30.3,35.7,29.6,36.1z M47,16.2c-1.8,0.6-2.2,1.7-2,3.1
	c0.1,0.5,0.7,1.3,0.9,1.3c1.6-0.3,1.8-1.6,1.7-2.9C47.6,17.2,47.2,16.7,47,16.2z M47.6,28c0,0.2,0,0.4,0,0.5c1.3,0,2.5,0.1,3.8,0
	c0.3,0,0.6-0.6,0.9-0.9c-0.4-0.3-0.8-0.8-1-0.7C50,27.1,48.8,27.6,47.6,28z M24.6,79.8c-0.4-0.1-0.7-0.1-1.1-0.2
	c-0.1,1.6-0.3,3.2-0.4,4.8c0,0,0.4,0.1,0.4,0.1C23.9,83,24.3,81.4,24.6,79.8z M19.1,194.9c0.4,0.4,0.5,0.5,0.7,0.6
	c1.1,0.5,2.2,1.4,3.4,0.3c0.1-0.1,0-0.4,0-0.4c-1-0.3-2-0.5-3-0.7C19.9,194.6,19.6,194.8,19.1,194.9z M9,71.7
	c-0.4,0.4-0.8,0.6-0.8,0.7c0.2,0.5,0.5,1,0.7,1.5c0.2-0.2,0.7-0.4,0.7-0.5C9.4,72.9,9.2,72.4,9,71.7z M14.9,63.7
	c0.6-0.6,1.1-1.1,1.5-1.7c0.1-0.1-0.2-0.5-0.3-0.8c-0.6,0.5-1.2,1-1.7,1.6C14.3,62.8,14.6,63.1,14.9,63.7z M29.1,44
	c-0.4-0.2-0.7-0.4-1-0.5c-0.1,0-0.4,0.6-0.4,0.6c0.2,0.3,0.6,0.4,0.9,0.7C28.7,44.6,28.9,44.4,29.1,44z M23.3,35
	c0.1-0.8,0.1-1.4,0.1-1.9c0-0.3-0.2-0.5-0.3-0.8c-0.2,0.6-0.3,1.3-0.4,1.9C22.6,34.3,22.9,34.6,23.3,35z M29.6,23.7
	c0.1,0.3,0.2,0.6,0.5,0.7c0.2,0.1,0.5-0.2,0.8-0.3c-0.2-0.3-0.4-0.7-0.6-1C30,23.3,29.8,23.5,29.6,23.7z M25.3,47.3
	c-0.1,0.3-0.3,0.6-0.2,0.7c0.1,0.2,0.5,0.3,0.8,0.5c0.1-0.3,0.3-0.6,0.2-0.8C26,47.5,25.6,47.5,25.3,47.3z M24.3,28.6
	c-0.1-0.1-0.2-0.3-0.2-0.4c-0.1,0.1-0.2,0.1-0.3,0.2c0.1,0.2,0.3,0.4,0.4,0.6C24.2,28.9,24.2,28.8,24.3,28.6z"/>
</svg>
