<?xml version="1.0" encoding="utf-8"?>
<!-- Generator: Adobe Illustrator 18.0.0, SVG Export Plug-In . SVG Version: 6.00 Build 0)  -->
<!DOCTYPE svg PUBLIC "-//W3C//DTD SVG 1.1//EN" "http://www.w3.org/Graphics/SVG/1.1/DTD/svg11.dtd">
<svg version="1.1" id="Layer_1" xmlns="http://www.w3.org/2000/svg" xmlns:xlink="http://www.w3.org/1999/xlink" x="0px" y="0px"
	 viewBox="0 0 65.5 184.8" enable-background="new 0 0 65.5 184.8" xml:space="preserve">
<g>
	<g>
		<path d="M21.2,42.3c-0.3-0.4-0.5-0.8-0.7-1.2c-0.3-0.7-0.6-1.4-0.9-2.1c0.7-0.1,1.5-0.2,2.2-0.3c0.6-0.1,1.3,0.1,1.7-0.2
			c1.4-1.1,1.9-0.2,2.6,0.8c2.2,3,2.2,3,5.5,1c1.1-0.7,2.2-1.3,3.5-1.6c0.7-0.2,2.1,0.2,2.2,0.4c0.2,2.5,2.4,1.7,3.6,1.9
			c5.6,1,10.3,3.9,14.4,7.5c3,2.7,4.8,6.7,7.1,10.2c0.3,0.5,0.8,1.3,0.6,1.8c-1.4,3.9,0,8.4-2.4,12.2c-0.4,0.7-0.8,1.4-1,2.2
			c-1.4,5-5.2,6.8-9.8,7.5c-1.4,0.2-2.7,0.9-4.1,1.4c-1.9,0.7-2.2,2-1.8,3.8c1.5,7,3.4,13.9,6.2,20.6c1.5,3.5,3.6,7.2,3.4,11.3
			c0,0.4,0.2,1.1,0.6,1.3c3.1,1.2,1.9,4.1,2.7,7.4c1.1-3,1.8-5.1,2.6-7.3c0.1-0.2,0.6-0.6,0.7-0.5c0.4,0.2,1,0.5,1,0.8
			c0,1.3-0.2,2.5-0.4,3.8c-0.1,1.1-0.3,2.1-0.4,3.4c0.8-0.3,1.2-0.4,1.7-0.5c1.3-0.3,2.8-2.1,3.7-0.2c0.7,1.4-1.4,1.7-2.3,2.6
			c-0.5,0.5-0.9,1.4-0.9,2c0.4,2.7,1,5.3,1.4,8c0.1,0.6-0.3,1.9-0.7,2c-4.9,1.7-5.8,6.1-7.1,10.2c-0.6,2-1.2,4-3,5.4
			c-1,0.8-1.7,0.7-2.3-0.4c-1.3-2.4-2.6-4.8-2.4-7.7c0.1-1.6-0.5-3.3-0.9-5.4c-0.8,0.8-1.2,1.1-1.5,1.4c-0.8,0.7-1.7,1.3-2.5,2
			c-0.1-1-0.5-2-0.3-3c0.3-1.3-0.6-1.1-1.3-1.4c-2.4-1.4-2.5-1.7-0.3-3.7c0.9-0.8,1.3-1.3,0.4-2.3c-0.4-0.5-1-0.9-1.3-1.4
			c-1.4-2-0.8-3.9,1.7-4.1c2-0.2,3.7-0.5,3.9-2.6c0.1-1.5-0.3-3.2-0.9-4.6c-0.8-1.7-2-3.3-3.3-5.2c-0.5,0.9-0.9,1.6-1.3,2.4
			c-1.1,2.3-2.1,4.7-3.4,6.9c-1.8,3.1-2.9,6.8-5.9,9.2c-0.6,0.5-0.4,1.8-0.6,2.8c-1.1,6.2-1.7,12.3,0.6,18.5c1,2.6,1.1,5.6,1.4,8.5
			c0.1,1-0.2,2.7-0.8,3.1c-3,1.8-2.2,4.7-2.2,7.2c0.1,4-0.9,5.5-5,6.2c-1.1,0.2-2.2,0.5-3.3,0.8c-1.7,0.5-3.2,0.1-4.3-1.3
			c-0.9-1.1-2.3-1.8-1.3-3.7c0.2-0.4,0-1.3-0.4-1.7c-1.1-1.1-0.8-2,0.3-2.8c2.6-1.9,2.2-4.3,2-7.3c-0.4-4.8-2.6-8.9-3.5-13.4
			c-0.8-3.9-1.3-7.9-1.8-11.8c-0.2-1.9,0.1-3.8-1.3-5.5c-0.9-1-1.4-2.7-1.4-4c0.1-5.3-2-10-2.9-15c-0.2-1.1-0.2-2.3-0.2-3.4
			c0.4-6.8-1.6-13.3-2.4-20c-0.5-4.3-1-8.6-1.5-12.8c-0.6-5.1-1.3-10.1-1.9-15.2c-0.2-1.7-0.4-3.3-0.3-5.1c0.4-4.5-0.1-9-0.2-13.5
			c0-0.6-0.4-1.3-0.3-1.9C1.6,39,0.4,31.8,0.8,24.5c0.1-1.3-0.2-2.7,0.3-3.8C1.9,19,3.7,17.6,4,15.9c0.3-1.7-1.1-3.6-1.1-5.4
			C2.9,9.2,4,7.8,5,6.9c1.1-1.1,2.3-0.2,3.4,0.6C8.8,7.9,9.5,7.8,10,7.9c0.1-0.6,0.3-1.2,0.2-1.8C10.1,5,9.5,3.9,9.6,2.8
			c0.3-2.4,2.8-3.5,5-2.4c0.7,0.4,1.4,0.8,2.1,1.1c3.4,1.2,5.3,3.4,5.4,6.8c0.1,1.6,0.1,3.2-0.1,4.8C22,14.1,21.6,15,21,15.7
			c-1.1,1.3-2.2,2.7-3.6,3.7c-4.1,2.8-4.2,6.9-3.9,11.2c0.2,3.2-0.2,6.4,1,9.5c1.3,3.4,1.4,3.5,5.3,2.4
			C20.2,42.4,20.7,42.4,21.2,42.3c0.1,0.1,0.1,0.3,0.2,0.4c0.1,0.1,0.2,0.1,0.3,0.1C21.5,42.6,21.3,42.5,21.2,42.3z M33.8,83
			c-0.1-0.1-0.1-0.3-0.2-0.4c-0.1-0.1-0.2-0.1-0.3-0.1C33.5,82.7,33.6,82.8,33.8,83c0.2,0.4,0.4,0.8,0.7,1.1c0.2,0.2,0.7,0,1-0.1
			c-0.1-0.2-0.2-0.6-0.4-0.7C34.7,83.1,34.2,83.1,33.8,83z M54.1,129.5c0.1,0.1,0.1,0.3,0.2,0.4c0.1,0.1,0.2,0.1,0.3,0.1
			C54.4,129.9,54.3,129.7,54.1,129.5c-0.9-1.8-2.5-3.6-2.6-5.4c-0.1-4.8-2.6-8.8-3.4-13.3c-0.3-2-1.3-4-2.1-5.9
			c-0.3-0.6-1.2-1.3-1.8-1.2c-0.6,0.1-1.5,0.9-1.6,1.5c-0.8,4.9-0.8,9.8,2.1,14.2c0.4,0.7,1.2,1.2,1.5,1.8c0.7,1.4,1.6,2.8,1.9,4.3
			C49.2,129.7,49.7,130.1,54.1,129.5z M20.7,99.7c-0.6,0.7-1,1-1.3,1.4c-2.7,3.2-4.9,7-8.2,9.3c-2.3,1.6-3.1,3.1-2.5,5.3
			c1,4,2.1,8,3.8,11.8c1.5,3.4,4.4,4.3,8,3.1c1.5-0.5,2.9-1.5,4.5-1.8c3.8-0.7,5.6-3.4,6.9-6.6c0.4-0.9,0.6-1.9,1.2-2.6
			c0.4-0.5,1.2-0.6,1.8-0.9c0.1,0.7,0.6,1.6,0.4,2.1c-1,2-2.2,3.9-3.3,5.9c-0.3,0.5-0.3,1.1-0.4,1.7c0.6,0,1.4,0.2,1.8-0.1
			c1.9-1.5,3.5-3,4.5-5.5c2.2-5.5,1.7-11.3,2.6-17c0.2-1.5,0-3.1,0-5.5c-1.1,2.3-1.7,3.8-2.5,5.2c-2.4,3.8-3.2,4.1-7.3,2
			c-1-0.5-1.6-0.6-2.6-0.2c-3.2,1.2-5.2,0.3-6.4-2.8C21.2,103.1,21.1,101.6,20.7,99.7z M4.5,82.7c0.7,3,1.2,5,1.6,7
			c0.4,2,0.4,4.2,0.8,6.2c0.3,1.4,1.1,2.7,1.9,3.9c2.5,3.7,6.9,3.4,9.2-0.5c2.3-4,3.7-8.1,3.2-12.8c-0.4-3.3-0.3-6.7-0.5-10.1
			c0-0.6-0.3-1.3,0-1.8c1-2,0.1-3.7-0.6-5.5c-0.8-1.9-1.3-3.9-1.8-5.9c-0.7-2.5-1.3-5.1-2-7.8c-1.5,1.7-2.6,3-3.9,4.2
			c-1.4,1.3-2.8,2.9-4.5,3.5c-3.5,1.3-4.7,3.5-4,7c0.3,1.4,0.4,2.9,0.9,4.2c1.3,3.8,1.9,7.8,4.5,11.1c0.2,0.2,0.1,1.1-0.1,1.2
			c-0.5,0.2-1.4,0.4-1.7,0.1C6.5,85.7,5.9,84.6,4.5,82.7z M12.3,2.7C12.1,3.1,12,3.3,12,3.3c1.4,3,0.9,5.7-0.2,8.7
			c-1.2,3.1-3.1,5.1-6.1,6.3c-0.8,0.3-1.7,1.6-1.8,2.5c-0.5,4.6-0.9,9.3-1,13.9c-0.2,7.3,0,14.5,0,21.8c0,1.1,0,2.3,0,3.4
			c0,1.5,0.9,2,2.2,1.5c5.7-1.8,8.3-6.3,10.1-11.5c0.2-0.7,0.1-1.7-0.2-2.3c-3.2-5.8-3.7-12.2-4.1-18.6c-0.2-3.3-1.1-7.4,2.9-9.7
			c2.7-1.6,2.9-5.3,5.9-6.6c0.4-0.1,0.5-1.1,0.5-1.7c0.3-2.4-0.5-4.3-2.7-5.8c0.3,2,0.7,3.7,0.8,5.4c0,0.4-0.6,1.3-1,1.3
			c-0.5,0-1.3-0.5-1.4-1c-0.3-1-0.1-2.3-0.6-3.3C14.4,6,14.9,3.5,12.3,2.7z M23.6,77.1c0.1,0.4,0.2,0.6,0.2,0.7
			c1.4,9.2,5.4,17.6,8.2,26.5c0.4,1.4,2.6,1.4,3.5,0.1c1-1.4,1.3-2.8,0.8-4.5c-2.1-6.6-2.9-13.8-8.2-19C27.4,80,27,78.9,26.4,78
			c-0.3-0.5-0.7-1.1-1.1-1.5c-0.2-0.2-0.7-0.2-0.9-0.1C24,76.5,23.8,76.9,23.6,77.1z M23.1,145.6c-0.1-5.9,0.8-5.2-5.5-5.4
			c-0.6,0-1.3-0.1-1.9,0.1c-0.5,0.2-1.1,0.9-1.1,1.3c0.3,2.7,0.7,5.4,1.2,8c0.2,0.7,1.1,1.8,1.8,1.8c4.1,0.3,5.5-1.2,5.4-5.4
			C23.1,145.9,23.1,145.7,23.1,145.6z M11.8,132c0.7,1.3,1,3.3,2.1,3.8c2.4,1.2,5.1,2.1,7.7,2.2c3.3,0.2,5.4-3,5.6-7.5
			C22.3,132.1,17.5,135.7,11.8,132z M20.2,181.6c2.2-0.4,3.6-0.5,5-0.8c2.3-0.4,2.4-0.8,2.2-3.2c-0.2-1.9-0.3-3.8-0.3-5.7
			c-0.1-1.9,0-3.7-0.1-5.6c0-0.5-0.5-1.1-0.7-1.6c-0.5,0.5-1.3,1-1.5,1.6c-0.6,2.5-1.4,4.9-1.5,7.4
			C23.2,176.6,22.5,179.1,20.2,181.6z M24.1,50.6c-8.3,0.9-7-0.1-5.7,7c0,0.2,0,0.3,0.1,0.4c0.6,0.7,1.3,1.4,1.9,2.1
			c0.6-0.6,1.3-1.1,1.9-1.8c0.7-0.8,1.6-1.7,1.9-2.7c0.5-1.5,0.5-3.2,0.7-4.8C24.8,50.8,24.1,50.7,24.1,50.6z M25.5,72
			c1.3-2.3,4-3.7,4.1-7.2c-1.4,0.9-2.4,1.6-3.5,2.1c-0.3,0.2-1,0.1-1.2-0.1c-0.2-0.2-0.3-0.8-0.2-1.2c0.1-0.5,0.4-1.1,0.6-1.6
			c-1.1,0-2.2-0.1-3.3,0c-0.2,0-0.5,1.1-0.4,1.5C22.4,67.8,22.9,70.2,25.5,72z M27.4,153.1c-0.5-5.1,1.2-10.2-0.2-15.3
			c-0.9,1-1.9,2-2,3.1C24.8,145.1,25.8,149.2,27.4,153.1z M25.6,93.8c-0.6,1.5-1.1,2.4-1.2,3.3c-0.1,2.2-0.1,4.4,0.1,6.6
			c0,0.5,1.3,1.4,1.7,1.2c0.8-0.3,1.4-1.1,2.1-1.7c-0.4-0.3-1-0.5-1.3-0.9c-0.3-0.4-0.8-1.2-0.6-1.4C28.4,98.4,26.7,96.4,25.6,93.8z
			 M24,155.7c0.1-1.3-0.8-2.2-2-1.7c-1.3,0.5-2.6,1.1-3.8,1.9c-0.3,0.2-0.6,1.2-0.4,1.5c0.5,1,1,2,1.8,2.6
			C20.2,160.4,24,156.6,24,155.7z M20.2,170.1c1.7-3.4,3-6.1,4.3-8.8c0.2-0.3,0-0.8,0-1.3c-0.4,0-1-0.1-1.3,0.1
			c-1.8,1.4-3.4,2.9-3.1,5.5C20.4,166.9,20.2,168.2,20.2,170.1z M40.1,84.3c-1.7,1.5-3.6,2.5-4.2,4.8c-0.2,0.7,0.3,1.5,0.5,2.2
			c0.6-0.3,1.6-0.4,1.9-0.9C39.1,88.6,41.5,87.2,40.1,84.3z M44.6,140.9c3.4,0.5,5-1.7,6.9-3.3c0.5-0.4,1.9-0.5,0.8-1.6
			c-0.3-0.3-1.2-0.5-1.7-0.3C48,136.7,46.4,138.6,44.6,140.9z M52.8,148.1c0.4-3,0.6-5.4-1.1-7.4C49.2,143,49.2,143,52.8,148.1z
			 M41.7,90.8c-0.2,3.8-0.3,6.8,1,9.6c0.1,0.3,0.7,0.4,1.1,0.6c0.1-0.4,0.4-0.9,0.3-1.2C43.3,97.1,42.6,94.3,41.7,90.8z M8.5,103.5
			c0.1,1.5,0,2.4,0.3,3c0.3,0.5,1.1,1,1.7,1c0.5,0,1.4-0.6,1.4-0.9c0-0.6-0.4-1.4-0.9-1.9C10.6,104.3,9.8,104.1,8.5,103.5z M6.3,9
			C6,9.1,5.8,9.2,5.6,9.3c0.2,1.2,0.2,2.5,0.6,3.6c0.2,0.4,1.2,0.6,1.8,0.8c0.1-0.6,0.6-1.3,0.4-1.7C7.8,11,7,10,6.3,9z M60.4,140.4
			c-1.4-1.4-2.1-2.2-3-2.7c-0.2-0.1-1.3,0.7-1.6,1.2c-0.8,1.7,0.9,1.2,1.6,1.4C58,140.5,58.8,140.4,60.4,140.4z M29.3,134.7
			c0.4,0.2,0.8,0.5,1.2,0.7c0.7-1.1,1.3-2.2,2-3.4c0,0-0.5-0.4-0.7-0.4C29.2,131.5,30.3,133.8,29.3,134.7z M38.6,98.9
			c0.4-0.1,0.8-0.2,1.2-0.3c-0.4-1.2-0.8-2.4-1.2-3.6c0,0-0.4,0.1-0.4,0.1C38.3,96.4,38.4,97.6,38.6,98.9z M60.2,134.6
			c-0.5-0.9-0.7-1.7-1-1.8c-0.4-0.1-1,0.4-1.5,0.6c0.2,0.5,0.3,1.1,0.7,1.4C58.7,135.1,59.3,134.8,60.2,134.6z M51.7,153.6
			c0.5-0.6,1.1-1,1-1.3c0-0.5-0.4-1-0.8-1.3c-0.2-0.2-0.8,0.2-1.2,0.3C51,152,51.3,152.7,51.7,153.6z M49.3,132
			c-0.3,0.2-0.7,0.3-0.7,0.4c0,0.3,0.1,0.6,0.3,0.7c0.2,0.1,0.5,0,0.8-0.1C49.5,132.6,49.4,132.3,49.3,132z M44.9,135.8
			c0.1-0.3,0.3-0.6,0.2-0.8c-0.1-0.2-0.5-0.3-0.8-0.4c-0.1,0.2-0.3,0.6-0.2,0.7C44.3,135.6,44.6,135.7,44.9,135.8z M38.2,63.2
			c0.2,0.3,0.3,0.6,0.5,0.7c0.1,0.1,0.5-0.1,0.7-0.1c-0.1-0.3-0.2-0.6-0.4-0.8C38.8,62.9,38.4,63.1,38.2,63.2z M33.4,54.3
			c0,0.1,0,0.3,0.1,0.3c0.1,0.1,0.3,0.1,0.4,0.1c0-0.2-0.1-0.4-0.1-0.6C33.7,54.2,33.6,54.2,33.4,54.3z M23.9,89.7
			c-0.1-0.1-0.2-0.3-0.2-0.4c-0.1,0.1-0.3,0.3-0.3,0.3c0.1,0.2,0.3,0.3,0.4,0.5C23.8,90,23.9,89.9,23.9,89.7z M28.7,159.5
			c-0.1-0.1-0.2-0.3-0.3-0.4c-0.1,0.1-0.3,0.3-0.3,0.3c0.1,0.2,0.3,0.3,0.4,0.5C28.7,159.8,28.7,159.6,28.7,159.5z"/>
		<path d="M34.8,99.2c0.2,0.6,0.6,1.2,0.6,1.8c-0.1,0.7-0.6,1.3-0.9,1.9c-0.5-0.3-1.3-0.6-1.3-1c-0.1-0.6,0.4-1.3,0.6-2
			C34.1,99.6,34.5,99.4,34.8,99.2z"/>
	</g>
</g>
</svg>
