<?xml version="1.0" encoding="utf-8"?>
<!-- Generator: Adobe Illustrator 18.0.0, SVG Export Plug-In . SVG Version: 6.00 Build 0)  -->
<!DOCTYPE svg PUBLIC "-//W3C//DTD SVG 1.1//EN" "http://www.w3.org/Graphics/SVG/1.1/DTD/svg11.dtd">
<svg version="1.1" id="Layer_1" xmlns="http://www.w3.org/2000/svg" xmlns:xlink="http://www.w3.org/1999/xlink" x="0px" y="0px"
	 viewBox="0 0 37.9 50.6" enable-background="new 0 0 37.9 50.6" xml:space="preserve">
<path d="M20.5,7.8c2-1.4,3.5-2.6,5.1-3.7c3.5-2.4,9.2-1.4,10.5,3.6c0.1,0.3,0.2,0.6,0.3,0.9c3,5.4,1.1,10.2-2,14.9
	c-2.5,3.9-5.2,7.7-7.6,11.7c-1.6,2.7-3.8,4.6-6.4,6.4c-3.1,2.2-5.7,5.1-8.5,7.7c-0.5,0.5-1.2,0.9-1.8,1.3c-0.4-0.8-1-1.5-1.3-2.3
	c-0.6-1.8-1-3.7-1.5-5.5C6.8,41,6,39.2,5.5,37.4C3.9,31.2,2,25.1,0.7,18.8c-0.8-3.9-0.9-8-0.5-12c0.3-3.2,3.1-5.2,6.1-6.3
	c3.2-1.1,6.4-0.7,9,1.7C17.1,4.1,18.8,6,20.5,7.8z M23.4,35.1c0.3-0.3,0.7-0.6,1-1c0.3-0.6,0.7-1.3,1-1.9c0.3-0.3,0.6-0.6,1-1
	c0.6-1,1.3-1.9,1.9-2.9c0.2-0.2,0.3-0.3,0.5-0.5c-0.2,0.2-0.3,0.3-0.5,0.5c-0.6,0.3-1.3,0.6-1.9,0.9c0.4-0.9,0.6-1.8,1.1-2.6
	c1.5-2.3,3.2-4.4,4.5-6.8C34,16,33.2,12,31.6,8.3c-0.4-1-2.1-2.1-2.9-2c-1.8,0.3-3.8,1.1-5.2,2.3c-2.5,2.1-1.9,3.4,1.2,4.3
	c0.5,0.1,1,0.4,2.4,1c-1.6,0.3-2.3,0.4-3,0.6c-0.5,0.1-0.9,0.3-1.4,0.5c0.4,0.3,0.7,0.6,1.1,0.7c1.6,0.5,2,1.1,0.3,2
	c-0.8,0.4-1.8,0.5-0.1,1.1c0.7,0.3,1.3,0.9,2.3,1.6c-1.2,0.2-1.6,0.3-2.1,0.3c-3.7-0.1-3.6-0.1-3.8-3.8c-0.1-1.2,0.1-2.8-0.6-3.7
	c-2.7-3.3-5.1-6.8-9.2-8.9C6.2,2,2.4,3.8,2,8.7c-0.4,4.9,0.4,9.7,1.4,14.3c1.2,5.6,3,11.1,4.6,16.7c1.2,4.4,2.8,4.8,6.4,1.9
	c2-1.6,4.1-3.1,6.1-4.6c1.6,1.5,1.8,0.2,2-1C22.7,35.8,23,35.5,23.4,35.1z M34,8.9c-0.1-0.4-0.2-0.8-0.3-1.2
	c-0.2,0.1-0.3,0.2-0.5,0.3C33.5,8.3,33.8,8.6,34,8.9c0.4,2.1,0.8,4.1,1.1,6.2C35.6,12.1,35.6,12.1,34,8.9z"/>
<path d="M9.1,18.3c-1-2.7,0.8-4.5,1.6-6.5c0.1-0.2,1-0.4,1-0.3c0.9,1.7,1.6,1.7,2.8,0c0.7-1.1,1.8-0.6,1.9,0.7
	c0.2,2.1,0.4,4.2,0.4,6.2c0,0.3-0.4,0.9-0.7,0.9c-0.4,0.1-1-0.1-1.2-0.4c-0.3-0.3-0.3-0.9-0.4-1.3c-0.3-0.8-0.5-1.6-0.8-2.3
	c-1.2,0.6-3.3-0.7-3.7,1.7C10,17.5,9.5,17.8,9.1,18.3z"/>
<path d="M13.5,29.2c-0.9,2.3-1.9,4.7-2.9,7c-0.1,0.3-0.7,0.4-1.1,0.6c-0.2-0.4-0.7-0.9-0.6-1.2c1-2.2,0.4-4-1.1-5.8
	c-0.2-0.3-0.2-0.8-0.3-1.2c0.6,0,1.5-0.1,1.7,0.2C10.6,30.9,11.9,29.8,13.5,29.2z"/>
<path d="M17.5,21.8c0.9,1,1.6,1.9,2.3,2.8c-1.5,0.7-0.6,3.8-2.6,3.4c-1.3-0.3-2.2-2.1-3.3-3.2C15,23.8,16.1,22.9,17.5,21.8z"/>
<path d="M18.5,30.6c-0.3,1.6-1.5,3.1,0.3,4.5c0.1,0.1-0.1,0.9-0.4,1c-1,0.3-2.1,0.5-3.2,0.7c0.1-0.9,0-1.8,0.2-2.6
	c0.3-1.2,0.7-2.5,1.2-3.7c0.1-0.3,0.7-0.8,1-0.8C18,29.7,18.2,30.3,18.5,30.6z"/>
<path d="M23.4,35.1c-0.3,0.3-0.7,0.6-1,1c-0.6,0.3-1.3,0.6-1.9,0.9c0.2-2.4,1.9-3.7,3.8-4.7c0,0.6,0,1.3,0,1.9
	C24,34.5,23.7,34.8,23.4,35.1z"/>
<path d="M26.3,31.2c-0.3,0.3-0.6,0.6-1,1l-0.5,0l-0.5-0.1c-0.1-1.4,0.4-2.4,1.9-2.8C26.2,30,26.3,30.6,26.3,31.2z"/>
<path d="M12.2,35.6c0.1-0.1,0.2-0.3,0.3-0.3c0.2,0.1,0.5,0.2,0.7,0.3c-0.1,0.1-0.2,0.3-0.3,0.3C12.6,35.8,12.4,35.7,12.2,35.6z"/>
<polygon points="27.8,19.9 27.9,20.2 27.6,20.2 "/>
</svg>
