<?xml version="1.0" encoding="utf-8"?>
<!-- Generator: Adobe Illustrator 18.0.0, SVG Export Plug-In . SVG Version: 6.00 Build 0)  -->
<!DOCTYPE svg PUBLIC "-//W3C//DTD SVG 1.1//EN" "http://www.w3.org/Graphics/SVG/1.1/DTD/svg11.dtd">
<svg version="1.1" id="Title_Page" xmlns="http://www.w3.org/2000/svg" xmlns:xlink="http://www.w3.org/1999/xlink" x="0px" y="0px"
	 viewBox="0 0 23.2 26.7" enable-background="new 0 0 23.2 26.7" xml:space="preserve">
<g>
	<g>
		<path d="M2.5,0.5c0,1.2,0.3,2.1,0,2.8c-1.3,2.7-0.2,5,1.1,7.2c1,1.7,2.3,3.3,3.1,5.1c2,4.3,5.1,4.5,10.6,3.3
			c1.2-0.3,2.4-0.9,3.6-1.2c0.7-0.2,1.5,0.1,2.2,0.1c-0.1,0.8,0,1.8-0.5,2.4c-3,4-6.8,6.4-12,6.1c-3.2-0.2-7-3.5-8-7.3
			c-1-4.1-1.9-8.2-2.6-12.4C-0.3,4.4,0.2,2.4,2.5,0.5z M9.2,24c0,0.2,0,0.4,0,0.5c1,0,2-0.1,2.9,0c3.3,0.4,5.6-1.8,8-3.5
			c0.2-0.2,0.1-0.7,0.2-1.1c-0.4,0-0.8-0.2-1.1-0.1C15.8,21.2,12.5,22.6,9.2,24z M2.8,13c-0.2,3,1.3,5.3,2.5,7.6
			c0.8,1.5,2.4,1.8,3.8,0.9C6.9,18.6,4.9,15.9,2.8,13z"/>
	</g>
	<g>
		<path d="M11.4,26.7c-1.7,0-3.3-0.6-4.8-2.3c0,0-0.1-0.1-0.1-0.2c-0.6-0.2-1.1-0.6-1.6-1.1c-2.2-2.4-3.8-7.2-3.7-11
			c0-0.5-0.1-1.1-0.3-1.7c0-0.2-0.1-0.4-0.1-0.6c-1-4.8-1-4.9,0.5-9.1C1.4,0.2,2-0.1,2.5,0.1c0.5,0.2,0.8,0.7,0.6,1.3
			C1.9,5,1.9,5,2.8,9.3c0,0.2,0.1,0.4,0.1,0.6c0.2,0.7,0.3,1.5,0.3,2.2c-0.1,3.3,1.3,7.5,3.2,9.6c0.7,0.7,1.4,0.8,2,0.3
			c1.7-1.6,3.7-2,5.7-2.4c0.4-0.1,0.8-0.2,1.3-0.3c0.3-0.1,0.7-0.1,0.9-0.1c0.6-0.1,0.9-0.1,1.1-0.4c0.6-0.7,1.6-1.1,2.4-1.2
			c0.7-0.1,1.3,0.1,1.8,0.3c0.2,0.1,0.4,0.1,0.6,0.1c0.3,0.1,0.5,0.2,0.6,0.4c0.1,0.2,0.2,0.5,0.1,0.8c0,0.1-0.1,0.3-0.1,0.5
			c-0.1,0.5-0.2,1.2-0.7,1.7c-0.3,0.3-0.7,0.7-1,1c-1.2,1.2-2.5,2.5-4.1,3c-0.3,0.1-0.7,0.2-1,0.3C14.6,26.1,13,26.7,11.4,26.7z
			 M9.1,23.9c1.9,1.3,3.9,0.6,6.3-0.2c0.4-0.1,0.7-0.2,1-0.3c1.1-0.3,2.2-1.4,3.2-2.5c0.4-0.4,0.7-0.7,1.1-1.1c0,0,0-0.1,0-0.2
			c-0.3-0.1-0.7-0.2-0.9-0.1c-0.4,0-0.8,0.2-1,0.5c-0.8,1-1.8,1.1-2.5,1.1c-0.2,0-0.4,0-0.6,0.1c-0.4,0.1-0.9,0.2-1.3,0.3
			c-1.7,0.4-3.4,0.7-4.7,1.9C9.5,23.7,9.3,23.8,9.1,23.9z"/>
	</g>
	<g>
		<path d="M9.9,21.3c-0.3,0-0.5-0.1-0.7-0.3c-0.4-0.5-0.9-0.9-1.3-1.4c-1-1.1-2-2.2-3-3.4c-0.8-1-1.5-2-2.2-3
			c-0.3-0.4-0.6-0.9-0.9-1.3c-0.3-0.5-0.2-1.1,0.2-1.4c0.5-0.3,1.1-0.2,1.4,0.2c0.3,0.4,0.6,0.9,0.9,1.3c0.7,1,1.3,2,2.1,2.9
			c0.9,1.1,1.9,2.2,2.9,3.3c0.4,0.5,0.9,0.9,1.3,1.4c0.4,0.4,0.3,1-0.1,1.4C10.4,21.2,10.2,21.3,9.9,21.3z"/>
	</g>
</g>
</svg>
