<?xml version="1.0" encoding="utf-8"?>
<!-- Generator: Adobe Illustrator 18.0.0, SVG Export Plug-In . SVG Version: 6.00 Build 0)  -->
<!DOCTYPE svg PUBLIC "-//W3C//DTD SVG 1.1//EN" "http://www.w3.org/Graphics/SVG/1.1/DTD/svg11.dtd">
<svg version="1.1" id="Layer_1" xmlns="http://www.w3.org/2000/svg" xmlns:xlink="http://www.w3.org/1999/xlink" x="0px" y="0px"
	 viewBox="0 0 27.2 25.8" enable-background="new 0 0 27.2 25.8" xml:space="preserve">
<path d="M5.3,14.1c1,0,2.1-0.3,2.9,0.1c3.2,1.6,5.9,0.1,8.7-1c1.5-0.6,2.6-1.3,2.5-3C19.3,5.3,22.9,2.9,25.8,0
	c0.1-0.1,1.2,0.3,1.3,0.6c0.4,1.6-0.1,3-1.6,3.6c-2.9,1.2-3.3,3.6-3.1,6.4c0.2,3.6,0.2,7-2.3,10c-2.1,2.6-4.8,4.3-8,5
	c-4.3,0.9-9.8-2-11.6-6.1C0,18.4-0.1,17,0.1,15.8c0.1-0.7,1.1-1.5,1.8-1.7C3,13.8,4.2,14,5.3,14.1C5.3,14,5.3,14.1,5.3,14.1z
	 M20.5,14.5c-1-0.1-1.4-0.2-1.6-0.1c-4,2.7-8.1,4.3-12.9,1.8C5.6,16,4.8,16,4.2,16.1c-0.7,0.2-1.5,0.4-1.9,1c-0.3,0.3,0,1.3,0.3,1.8
	c4,6.1,14.3,4.9,16.1-0.4C19.1,17.2,19.8,16.1,20.5,14.5z"/>
</svg>
