<?xml version="1.0" encoding="utf-8"?>
<!-- Generator: Adobe Illustrator 18.0.0, SVG Export Plug-In . SVG Version: 6.00 Build 0)  -->
<!DOCTYPE svg PUBLIC "-//W3C//DTD SVG 1.1//EN" "http://www.w3.org/Graphics/SVG/1.1/DTD/svg11.dtd">
<svg version="1.1" id="Layer_1" xmlns="http://www.w3.org/2000/svg" xmlns:xlink="http://www.w3.org/1999/xlink" x="0px" y="0px"
	 viewBox="0 0 12.4 36.9" enable-background="new 0 0 12.4 36.9" xml:space="preserve">
<path d="M2.5,36.9c-0.3,0-0.7,0.1-1,0c-0.5-0.3-1.3-0.5-1.4-1c-0.2-0.5,0.1-1.4,0.4-1.7c4.8-2.9,4.4-7,3.5-11.9
	c-0.8-4.2-0.3-8.7-0.2-13c0-1,0.7-2.1,1.2-3.1c0.9-1.7,1.9-3.3,3-4.8C8.5,0.7,9.5,0.3,10.3,0c0.5-0.1,1.2,0.3,1.7,0.5
	c-0.3,0.5-0.4,1-0.8,1.5c-1,1.3-2.1,2.4-3,3.7C5.9,9.2,5.9,11.8,8.6,15c4.2,4.8,4.5,10.1,2.8,15.8C10.4,34.1,6.1,37,2.5,36.9z
	 M6.2,32.8c3.7-1.5,3.2-4.5,3.4-7.4c0.2-3.2-0.4-6-2.5-8.5c-0.1-0.1-1,0.1-1.1,0.4c-0.2,0.6-0.3,1.3-0.1,1.9
	C7.3,23.7,7.2,28.2,6.2,32.8z"/>
</svg>
