<?xml version="1.0" encoding="utf-8"?>
<!-- Generator: Adobe Illustrator 18.0.0, SVG Export Plug-In . SVG Version: 6.00 Build 0)  -->
<!DOCTYPE svg PUBLIC "-//W3C//DTD SVG 1.1//EN" "http://www.w3.org/Graphics/SVG/1.1/DTD/svg11.dtd">
<svg version="1.1" id="Layer_1" xmlns="http://www.w3.org/2000/svg" xmlns:xlink="http://www.w3.org/1999/xlink" x="0px" y="0px"
	 viewBox="-0.1 134.7 300 30.5" enable-background="new -0.1 134.7 300 30.5" xml:space="preserve">
<g>
	<path fill="#FFFFFF" d="M299.9,135H135.8v-0.1H-0.1v10.4v0.6c0.9-0.4,1.2-1.2,1.5-2c0.2-0.7,0.4-1.4,0.7-2.1
		c0.2-0.5,0.5-0.9,0.8-1.3c0.1-0.1,0.4-0.1,0.6-0.3c1.1,0.6,2.2,1.2,3.2,1.8c0.2,0.1,0.4,0.4,0.3,0.5c0,0.2-0.3,0.4-0.5,0.4
		c-0.9,0.2-1.7-0.2-2.4-0.7c-0.4-0.2-1.1-0.3-1.3-0.1c-0.3,0.2-0.3,0.8-0.3,1.3c0.1,0.4,0.3,0.8,0.6,1.2c0.9,1.2,2.9,1.7,4.3,1.2
		c0.3-0.1,0.6-0.2,0.9-0.2c-1,1.4-2,2.7-3.6,3.3c-0.3,0.1-0.4,0.5-0.7,0.8c0.3,0.2,0.6,0.3,0.9,0.5c0.2,0.1,0.5,0,0.7,0
		c1-0.1,2.1-0.2,3.1-0.4c1.2-0.2,1.9-1,2.6-1.8c0.1,0,0.2-0.1,0.2-0.2c0.1-0.2,0.2-0.3,0.3-0.5c0,0,0-0.1,0.1-0.1
		c0.1-0.1,0.1-0.1,0.2-0.2c0.3,1.5,0.3,3,0.3,4.5c0,0.4,0,0.7,0,1.1c0.1,0.8,0.5,1,1.3,0.8c1.9-0.7,3.2-2.6,3.3-4.8
		c0-0.4,0.1-0.8,0-1.1c-0.2-1.2-0.2-2.3,1.4-2.5c0.2,0,0.4-0.3,0.6-0.5c0.2-0.1,0.5-0.2,0.6-0.2c1.5,1,3,0.4,4.5,0.1
		c0,0,0,0,0.1-0.1l0,0l0,0c-0.6,1.2-1.8,1.5-2.9,1.9c-0.2,0.1-0.5,0.3-0.7,0.4c0.2,0.2,0.3,0.6,0.5,0.7c0.8,0.4,1.5,0.8,2.5,0.5
		c0.5-0.2,1-0.1,1.5-0.1c0.4,0,0.9,0,1.4,0c-0.2,0.5-0.3,1-0.6,1.5c-0.2,0.3-0.5,0.5-0.8,0.8c-0.2,0.3-0.5,0.7-0.7,1
		c0.3,0.2,0.7,0.3,1.1,0.4s0.9,0.1,1.2,0c0.7-0.2,1.4-0.5,2.1-0.7c0.2,0,0.5,0.1,0.6,0.2c0.4,1.1,0,2.3-1,2.9
		c-0.6,0.4-1.2,0.7-1.7,1.1c-0.2,0.2-0.4,0.4-0.6,0.7c0.3,0.2,0.5,0.5,0.9,0.6c1.7,0.7,3.4,0.1,5-0.5c0.2-0.1,0.4,0,0.7-0.1
		c0,0.2,0,0.5-0.1,0.7c-0.4,0.9-1.2,1.4-1.9,2c-0.4,0.3-0.5,0.8,0.1,1c0.8,0.2,1.6,0.5,2.4,0.3c1.5-0.4,2.4,0.3,2.9,1.5
		c0.3,0.7,0.5,1.4,0.6,2.1c0.1,0.5,0,1,0,1.5c0,0.1,0.2,0.3,0.3,0.4c0.1,0,0.4,0,0.5-0.2c1.1-1.7,2.4-3.3,2.2-5.6
		c-0.1-0.7,0.1-1.4-0.5-1.9c-0.3-0.3-0.3-0.8,0.1-0.9c0.5-0.2,0.5,0.3,0.7,0.7c0.4,1.3,0.7,2.6,1.2,3.9c0.1,0.5,0.3,0.9,0.7,1.3
		c0.5,0.6,1.1,1.3,2,1s0.6-1.2,0.7-2v-1.9c0-0.6,0-1.3,0.1-1.9c1.1,1,2,1.9,3.1,2.8c0.2-0.4,0.5-0.8,0.5-1.2c0-1.4-0.1-2.7-0.1-4.1
		c0-0.5-0.1-1.1,0-1.6c0.1-0.5,1-1,0.4-1.4c-0.7-0.5-0.7,0.9-1.3,0.9c-0.1,0.1-0.1,0.1-0.2,0.2v-0.1c0,0,0.1,0,0.2-0.1
		c0.2-0.4,0.2-1.1,0.5-1.3c1.2-0.7,2.6-1.2,3.8-1.9c0,0.1,0.1,0.2,0.1,0.3c0,0.2,0,0.3,0,0.5c0.1,0.8,0.4,0.9,0.9,0.4
		c0.5-0.6,1.2-1.2,1.5-1.9c0.2-0.4,0.3-0.8,0.3-1.2l0,0c0-0.9,0-1.7-0.2-2.6c0.1-0.1,0.3-0.1,0.4-0.2c0.9-0.4,1.1-0.4,1.1,0.5
		c0,1-0.1,2.1-0.2,3.1c0,0.2,0,0.4,0.1,0.5c0.2,0.1,0.5,0.1,0.7,0c0.3-0.1,0.5-0.3,0.7-0.6c0.6-0.7,1.1-1.4,1.7-2.2
		c0.7,1.1,1.3,2.1,1.9,3.1c0.3,0.6,0.9,0.7,1.3,0.2c0.4-0.5,0.7-1.2,1-1.8c0.8,1.3,0.8,1.3,0.5,2.2c-0.6,1.9-1.8,3.5-2.9,5.1
		c-0.5,0.6-0.4,1.1,0.3,1.4c0.3,0.1,0.6,0.1,0.9,0.2c1.1,0.2,2-0.3,3-1c0,0.4,0,0.6,0.1,0.9c0.3,0.7,0.3,1.3-0.2,1.9
		c-0.5,0.6-1,1.2-2,1.2c-0.8,0-1.1,0.4-0.9,1.2c0.3,1.1,0.7,2.2,1.7,2.9c0.6,0.4,1.6,0.9,2.2,0.7c1.7-0.5,3.2-1.5,3.6-3.4
		c0.2-0.7,0.3-1.2,0.9-1.5c1.5-1,2-2.6,2.5-4.3c0.3-1.1,0.7-2,1.7-2.5c1.5-0.9,2.3-2.4,3.2-3.8c0.4-0.6,0.8-1.2,1.2-1.8
		c0.4-0.5,0.8-0.4,1,0.2c0.2,0.4,0.2,0.9,0.2,1.4s-0.1,1.1,0,1.7c0,0.1,0.4,0.3,0.5,0.2c1-1,2-1.9,3.1-2.9c0.1,0.3,0.3,0.6,0.4,0.9
		c0.4,0.8,0.7,0.9,1.4,0.3c0.4-0.3,0.7-0.7,1.1-1c0.4,1-0.3,1.7-0.4,2.6c-0.1,1.2-0.7,1.9-1.5,2.6l10.5-7.1c0.9-0.7,1.9-1.2,2.8-1.8
		c0.4-0.2,0.6-0.1,0.9,0.3c0.7,0.8,0.7,0.8,1.4,0c1-1,1.9-2.1,2.9-3.2c0,0,0,0,0,0.1c0.1,2,0.3,2.3,2.2,2.8c0.5,0.1,1.2,0,1.2,0.8
		c0,0.6,0.3,1.2,0.2,1.6c-0.2,0.7-0.7,1.3-1.2,1.8c-1.1,1-2.2,2-2.6,3.6c-0.1,0.3-0.3,0.7-0.5,1c-0.4,1.3-1.2,2.3-2.7,2.5
		c-0.3,0-0.6,0.4-0.7,0.7c0,0.2,0.3,0.6,0.5,0.7c0.8,0.2,1.6,0.2,2.4,0.5c0.7,0.2,1.6-0.9,2-0.1c0.4,0.6,0.2,1.5,0.2,2.4
		c0,0.3,0,0.6,0,0.9c0.1,0.4,0.2,0.9,0.5,1.2c0.6,0.7,1,1.5,1,2.5c0,0.6,0.5,0.7,0.9,0.2c0.7-0.9,1.4-1.9,2-2.9
		c0.1-0.1,0.1-0.4,0-0.5c-0.5-1-0.3-2.2-1-3.2c-0.9-1.2-0.6-2.8,0.8-3.3c1.3-0.5,1.5-1.2,1.5-2.4c0-0.3,0.3-0.7,0.3-1.1
		c0-0.8,0.5-0.9,1.1-0.9c1.3-0.1,2.6-0.3,3.9-0.4c0.5,0,0.7-0.3,0.7-0.7c-0.1-1,0.3-1.2,1.2-1.2c0.4,0,0.8-0.3,1.2-0.4
		c0.3-0.1,0.7-0.3,0.9-0.2c0.8,0.6,2,0.6,2.5,1.7c0.5,1.2,1.1,1.3,2.2,0.7c0.6-0.3,0.6-0.6,0.2-1.2c-0.3-0.5-0.7-1-1-1.5
		c0,0,0.3-0.4,0.4-0.4c0.9,0.3,1.8,0.7,2.7,1.1c1,0.4,1,0.4,1.7-0.6c0.5-0.7,0.6-0.7,1.3-0.2c1.6,1.2,3.3,2.2,4.9,3.3
		c0.7,0.5,1.6,0.5,2.4,0.3c0.9-0.3,1.7-0.7,2.5-1.2c0.3-0.2,0.7-0.6,0.7-0.9c0-0.6-0.6-0.5-1-0.5c-0.8,0-1.5-0.2-2-0.7
		c-0.7-0.6-0.7-1.1,0.1-1.4c1.2-0.5,1.9-1.6,3.2-1.7c0.3,0,0.6-0.3,0.9-0.5c0.2,0.3,0.3,0.7,0.5,1.1c0.7,1.9,2.6,3.4,5,2.9
		c0.5-0.1,1-0.2,1.5-0.2c1.9,0,3.5-0.8,5.1-1.5c0.3-0.2,0.6-0.4,0.9-0.7c0.3-0.4,0.2-0.7-0.3-0.8c-0.2,0-0.5,0-0.7-0.1v-0.2
		c0.5-0.1,1-0.2,1.5-0.2c0,0.2,0.1,0.3,0.1,0.4c-0.1,1.3-0.2,2.6-0.3,3.9c-0.1,0.9,0.2,1.2,1,0.9c1.1-0.3,2.1-0.8,2.7-1.9
		c0.5-1,1.1-2,1.1-2.9c-0.1-1.5,0.8-1.9,1.9-2.3c0.2-0.1,0.3-0.2,0.5-0.3c0.1,0,0.1-0.1,0.2-0.2v0.1c0,0-0.1,0-0.2,0.1
		c-0.1,0.2-0.1,0.5-0.2,0.7c-0.7,1.6-1.5,3.2-2.1,4.8c-0.3,0.9-0.3,0.9,0.7,1c1.2,0.1,2.4-0.2,3.4-0.7c0.8-0.3,1.1-0.1,1,0.8
		c0,0.5-0.2,1-0.3,1.5c-0.1,0.6,0.2,0.9,0.7,0.7c0.3-0.1,0.6-0.2,0.9-0.4c0.7-0.5,1.5-1.1,2.2-1.7c0.6,1.1,1.2,2.2,1.7,3.2
		c0.2,0.3,0.3,0.6,0.3,0.9c-0.2,1.4,0.7,1.7,1.7,2c0.5,0.2,0.9,0.3,1.4,0.3c1.4,0.2,2.8,0.3,4.6,0.6c-1.3-1.7-2-3.2-2.7-4.9
		c1.5,0.3,1.5,0.3,2.1,1.4c0.7,1.3,1.5,2.6,2.4,3.7c0.7,0.8,0.9,0.7,1.8,0c0.3-0.2,0.7-0.3,1-0.3c1.2-0.2,2.4-0.3,3.5-0.6
		c0.8-0.2,1-0.8,0.4-1.4c-0.7-0.8-1.5-1.5-2.2-2.2c0.7-0.6,1.4-1.1,2.2-1.7c1,1.7,2.4,2.9,4.1,3.6c0.8,0.3,1,0.2,1.1-0.6
		c0.2-1.1,0.3-2.2,0.4-3.3c0.1-1.7,0.9-2.2,2.5-1.5c0.2,0.1,0.4,0.3,0.6,0.4c1.5,1,3.9,0.7,5.4-0.7c0.2-0.2,0.4-0.7,0.3-0.9
		c-0.3-0.9,0.1-1.1,0.9-1.2c1.6-0.3,1.6-0.3,1.2-1.9c0-0.1-0.1-0.2-0.1-0.3c-0.3-0.6,0-0.8,0.5-0.8c2.4,0,4.7-0.1,7,0.5
		c0.7,0.2,1.4,0.2,2,0.1c0.5-0.1,0.9-0.5,0.4-1.1c-0.2-0.2-0.2-0.3-0.3-0.6c1-0.1,1.8-0.1,2.6-0.2c0.2,0,0.5-0.4,0.5-0.7
		c0-0.1-0.2-0.4-0.4-0.5c-0.2-0.1-0.5-0.2-0.7-0.2c-1.7-0.7-1.8-1.4-0.7-3.1c0.7,0.7,1.4,1.4,2.2,2c0.9,0.7,1.3,0.5,1.6-0.6
		c0.2-0.6,0.2-1.2,0.4-1.8c0-0.2,0.2-0.4,0.3-0.4c0.2,0.1,0.5,0.2,0.6,0.3c0.1,0.3,0.2,0.6,0.2,0.9c-0.1,1.1-0.2,2.2-0.4,3.3
		c-0.2,0.8-0.5,1.5-0.7,2.3c-0.2,0.5-0.5,0.9-0.7,1.3c-0.1,0.4,0.2,0.8,0.6,0.7c1.9-0.3,3.4-1.1,4.3-3.1c0.5-1.2,1.3-2.4,2-3.5
		c0.2-0.3,0.5-0.3,0.7,0c0.2,0.2,0.3,0.4,0.5,0.5c0.9,0.5,1.4,1,0.9,2.1c-0.2,0.4-0.1,1,0.1,1.4c0.5,1.3,1.1,2.5,1.7,3.8
		c0.1,0.2,0.5,0.3,0.7,0.4c0-0.2,0.2-0.5,0.2-0.7c0-0.3-0.1-0.6-0.2-0.9c-0.1-0.7,0.3-1.1,0.7-1.4c0.5-0.5,0.7,0.3,1,0.4
		c0.5,0.2,1,0.3,1.4,0.3c1.3,0,1.8,0.7,2.3,1.7c0.5,0.9,0.5,1.6-0.1,2.4c-1,1.4-1.4,3.1-3,4c-0.2,0.1-0.1,0.4-0.2,0.7
		c0.2,0,0.5,0.2,0.7,0.1c1.6-0.5,3.2-1,4.3-2.4c0.2-0.3,0.5-0.5,0.8-0.8c0.4-0.4,0.8-0.4,1,0.2c0.1,0.2,0.2,0.5,0.3,0.7
		c0.1,0.2,0.3,0.4,0.4,0.6c0.2-0.2,0.6-0.3,0.7-0.5c0.4-0.9,0.7-1.9,1-2.8c1,1.2,1.4,1.4,3.2,2c1.4,0.4,2.9,0.8,4,2.4
		c0.2-1.7,0.6-3.1-0.7-4.3c-0.1-0.1-0.1-0.3-0.1-0.5c0.2,0,0.5,0,0.7,0c0.7,0.2,1.4,0.5,2.1,0.7c0.4,0.1,0.7,0,1.1-0.1
		c0,0.1,0,0.2,0,0.4l0,0c-0.2,1.7,0.6,2.9,2.2,3.7c1.5,0.9,2.6,2,3.4,3.6c0.3,0.5,0.6,0.4,0.8,0c0.6-1.2,1.2-2.4,1.8-3.7
		c0.6-1.4,0.4-2.2-0.7-3.2c-0.9-0.8-1.2-1.8-0.9-1.8c0.8-0.1,1.4,0.5,1.8,1.1c1.5,2.2,3.8,2.3,6.1,2c0.5,0,1.1-0.5,1.5-0.9
		s0.3-0.7-0.2-1c-0.6-0.3-1.2-0.5-2-0.8c1.4-0.7,2.5-1.3,3.7-1.9c0.2-0.1,0.3-0.2,0.5-0.2c0.7,0,1.9,1.1,2.1,1.8
		c0.2,0.7,0.5,1.4,0.7,2.1c0.3,1.2,1,2.2,2,2.8c1.1,0.7,2,1.5,2.3,2.8c0,0.1,0.3,0.3,0.4,0.3c0.2-0.1,0.4-0.2,0.5-0.4
		c0.1-0.1,0.1-0.3,0-0.5c-0.7-1.5-0.5-3.1-0.6-4.8c0-0.5-0.2-0.9-0.3-1.4c0,0,0,0-0.1-0.1c-0.1-0.3-0.3-0.5-0.5-0.8
		c0.8-0.1,1.4,0,2.1,0.3c1.5,0.8,3.2,0.9,4.8,0.1c0.3-0.2,0.6-0.7,0.6-1c0-0.2-0.4-0.6-0.7-0.7c-0.6-0.2-1.3-0.4-1.9-1.2
		c1.9,0.3,3.7-0.7,5.3,0.7c0.1,0.1,0.3,0,0.5,0.1c1.2,0.3,2.3,0.1,3.4-0.2c0.8-0.2,1.3,0.1,1.6,0.8c1.2,2.4,3.2,3.5,5.7,3.1
		c0.9-0.1,1.1-0.5,0.6-1.4c-0.3-0.6-0.6-1.2-0.8-1.9c-0.1-0.3-0.1-0.7,0-0.8c0.4-0.3,0.9-0.6,1.4-0.2c0.2,0.2,0.4,0.5,0.4,0.7
		c-0.1,2.4,0.7,4.5,2.4,6.1v-1.1c0,0,0,0,0.1,0V135H299.9z"/>
	<path d="M299.9,142.7v-5.6c-0.9-0.1-1.6-0.6-2.2-1.3c-0.2-0.2-0.1-0.7-0.1-1h-2.2c-0.3,0.6-0.7,1.2-1.1,1.7
		c-0.2,0.2-0.6,0.5-0.9,0.5c-1.1-0.2-0.9,0.6-1,1.2c0,0,0,0,0,0c-0.1,0-0.2,0-0.2,0c-0.8-1-1.9-1.9-2.1-3.4h-0.7c0,0.2,0,0.3,0,0.4
		c0.1,1.6,0.1,1.6-1.3,1.1c-0.2-0.1-0.5-0.1-0.7-0.1c-1.4,0.2-2.4-0.4-3.2-1.4h-1.5c0.4,0.5,0.7,1,1.1,1.5c-0.9,0-1.9,0.1-2.8,0
		c-0.9-0.1-1.8-0.2-2.7-0.4c0.2-0.3,0.4-0.7,0.7-1.1h-1.5c-0.2,1-0.9,1.7-1.7,2.3c-1.1,0.7-1.9,0.3-2-1c0-0.5,0-0.9,0-1.3h-1.1
		c0.5,1.6,0.5,1.7-1,2.2c-0.9,0.3-0.9,0.3-1.8-0.1c0.8-0.7,1.6-1.4,2.4-2.1h-1.5c-0.6,1.1-1.8,1.5-2.9,1.9c-1,0.3-1.2,0.2-1.6-0.8
		c-0.2-0.3-0.2-0.7-0.3-1h-0.7v1.3c0,0.5-0.3,0.6-0.7,0.6c-0.7,0.5-1.7,0.6-2.4,1.3c-0.7,0.6-1.5,0.2-1.7-0.8c-0.5-2-0.4-2.1,1.6-2
		c0.6,0,1.1,0.1,1.4,0.7c0.2,0.5,0.6,0.8,1.2,0.8c0-0.2,0.1-0.6,0-0.7c-0.3-0.4-0.7-0.7-1.1-1.1h-4.9c0.3,0.7,0.8,1.4,1,2.2
		c0.2,0.7,0.1,1.2-0.8,1.2c-2.2,0.1-3.6-0.2-4.3-3.4h-1.1c0.3,0.7,0.7,1.4,1,2c-1.2-0.2-2.2-0.5-3.4-0.5c-0.8,0-1.6,0.2-2.4,0.4
		c-1.4,0.4-1.3,0.5-1,2.1c-0.7-0.2-1.2-0.4-1.8-0.5c-0.7-0.2-1-0.4-0.9-1.3c0.1-0.4,0-0.6,0.5-0.6c0.6,0,1.2,0,1.9,0
		c0.4,0,0.8,0,1.1-0.1c0.8-0.2,0.9-0.4,0.7-1.5h-1.1c-0.1,0.2-0.2,0.6-0.3,0.6c-1.2,0-2.5,0-3.8-0.1c-0.2,0-0.3-0.3-0.5-0.5h-1.5
		c0.7,0.6,1.5,1.2,2.4,2c-1.7-0.2-2.6-1.1-3.5-2h-1.9c1,0.7,1.9,1.3,2.9,2c0.2,0.1,0.3,0.4,0.3,0.6c-0.1,0.2-0.4,0.4-0.6,0.4
		c-1.7-0.1-3.3-0.2-4.9-0.4c-0.4-0.1-0.9-0.7-1.2-1.1c-0.3-0.4-0.6-0.9-0.9-1.4h-2.2c1.5,0.7,1.5,0.7,3.4,3
		c-1.9-0.7-3.6-1.2-5.4-1.8c0.4-0.3,0.8-0.7,1.3-1.2h-1.9c-0.2,0.4-0.5,0.4-0.7,0h-1.9c0.3,0.2,0.5,0.4,0.6,0.4
		c1.1,0.7,1.1,0.7,1,2.4c-1.2-0.9-2.5-1.6-3.2-2.9h-1.1c0,0.6,0.3,0.9,0.7,1.2c0.3,0.2,0.6,0.5,0.7,0.8c0.1,0.2-0.1,0.6-0.1,0.9
		c-0.2-0.1-0.5-0.2-0.7-0.4c-0.9-0.6-1.3-1.4-1.4-2.4h-0.7c0,0.4,0,0.9,0,1.3c0,0.3-0.2,0.7-0.3,1.1c-0.5-0.4-1.2,0.5-1.7-0.2
		c-0.8-0.8-1.6-1.5-2.4-2.3h-1.9c-0.2,1-0.3,1.9-0.5,3.2c-1.4-1.2-2.6-2.2-3.7-3.2H211c0.7,1.1,0.7,1.1,0.2,3.2
		c-0.4-0.3-0.9-0.7-1.3-1c-0.4-0.2-0.6-0.5-0.5-1c0.1-0.4-0.4-0.8-0.6-1.2h-1.1c0.1,0.2,0.1,0.3,0.2,0.5c-0.2,0-0.3,0.1-0.4,0.1
		c-0.3-0.2-0.6-0.4-0.9-0.6h-2.2c-0.3,0.6-0.5,1.1-1.4,1c-0.8-0.1-1.6,0.1-2.6,0.2c0.3-0.5,0.5-0.9,0.7-1.2h-1.1
		c-0.2,0.3-0.3,0.3-0.4,0h-4.9c-0.8,0.3-1.5,0.7-2.4,0.9c-0.7,0.2-1-0.3-1-0.9h-1.1c0.2,0.4,0.4,0.9,0.6,1.3c0,0.1,0,0.4-0.1,0.4
		c-0.1,0.1-0.4,0-0.5-0.1c-0.4-0.5-0.7-1.1-1.1-1.6h-3.4c-0.5,0.8-1.2,1.4-2,1.7c-1,0.4-1.5,0-1.3-1.2c0-0.2,0-0.3,0-0.5h-0.7
		c-0.2,0.3-0.3,0.3-0.4,0h-0.4c-0.1,1-0.2,2.1-0.3,3.1c0,0.2-0.3,0.3-0.5,0.4c-0.1-0.2-0.3-0.3-0.3-0.4c0.1-1,0.2-2,0.3-3.1h-2.6
		c-0.1,0.3-0.3,0.6-0.4,0.9c-0.2-0.3-0.5-0.6-0.7-0.9h-0.7c0.2,0.3,0.5,0.7,0.7,1.1c0.5,1,0.3,2.5-0.4,3.3c-0.7,0.8-1.5,0.6-1.9-0.4
		c-0.4-0.9-0.9-1.6-1.2-2.5c-0.2-0.5-0.4-1-0.6-1.5h-2.2c-0.9,1.7-2.6,1.9-4.5,2.2c0.3-0.8,0.5-1.5,0.8-2.2H165c0,0.2,0,0.4,0,0.5
		c-0.1,0.4-0.1,1-0.7,0.7c-0.5-0.2-0.3-0.7-0.1-1c0,0,0-0.1,0-0.2h-0.7c-1,1.4-2.2,2.4-3.9,2.8c-0.5-1.1,0.2-1.9,0.6-2.8H159
		c-0.2,0.6-0.3,1.1-0.4,1.7c-0.1,0-0.2,0-0.3,0v-1.6h-0.7c-0.4,0.5-0.7,0.5-1.1,0h-1.9c0.6,0.4,1.1,0.8,1.5,1.2
		c0.4,0.2,1,0.3,1.2,0.6c0.4,0.5,0.6,1.2,0.7,1.9c0,0.2-0.6,0.7-0.9,0.6c-0.5,0-0.9-0.4-1.5-0.7c0.2-0.3,0.4-0.5,0.5-0.7
		c0.2-0.3,0.4-0.7,0.3-0.9c-0.1-0.5-0.6-0.2-0.9-0.2c-0.5,0.1-1.1,0.1-1.7,0.1h-1.3c0.6-0.7,1-1.3,1.5-1.9h-1.1
		c-0.3,0.5-0.5,1-0.8,1.4c-0.1,0.1-0.3,0.2-0.5,0.2c-0.9-0.2-1-0.3-0.5-1.1c0.1-0.2,0.2-0.3,0.3-0.5h-1.1c-0.7,1.2-1.9,1.7-3.2,1.9
		c-0.9,0.1-1.8,0.3-2.7,0.3c-0.2,0-0.4-0.1-0.7-0.2c0.1-0.2,0.1-0.5,0.2-0.7c0.6-0.5,1.3-0.9,1.9-1.4H144c-0.2,0.3-0.6,0.5-0.7,0.8
		c-0.8,1.7-2.4,1.9-4,2.1c-0.1,0-0.5-0.4-0.4-0.5c0.3-0.8,0.7-1.5,1-2.3h-1.1c-0.3,0.5-0.5,1.1-0.7,1.7h-0.3c0-0.5-0.1-1.1-0.1-1.7
		H135c0,1.5-0.9,2.4-2.2,3.4c0-1.3,0-2.3-0.1-3.4H132c0,0.2-0.1,0.3-0.1,0.5c-0.1-0.2-0.2-0.3-0.3-0.5H129c-1.1,1.3-2.7,1.4-4.4,1.7
		c0.3-0.5,0.7-1.1,1-1.7h-1.1c0,0,0,0.1-0.1,0.2c-0.3,0.4-0.6,1.1-0.8,1.1c-0.6,0-1-0.6-1-1.2h-1.1c-0.1,1.1-0.8,1.8-1.5,2.5
		c-0.6,0.5-1.2,1.1-1.9,1.8c0.2-1.5,0.3-2.9,0.4-4.3h-1.1c-0.2,1.2,0.3,2.5-0.6,3.6c-1-0.9-1.5-2-2.2-3.1c0-0.1,0.1-0.3,0.2-0.5
		h-1.1c-0.1,0.1-0.2,0.2-0.3,0.3V135h-1.1c-0.2,0.3-0.4,0.7-0.7,0.9c-1.4,0.8-2.8,1.6-4.2,2.3c-0.2,0.1-0.7,0.2-0.9,0
		c-0.2-0.2-0.3-0.6-0.2-0.9c0.3-0.8,0.7-1.6,1-2.4h-1.1c-1.1,0.5-2.2,1-3.3,1.4c-0.3,0.1-0.8,0.1-1-0.1c-0.4-0.3-0.5-0.8-0.2-1.3H99
		c-0.3,0.5-0.6,1-0.9,1.4c-0.4,0.6-0.8,0.5-1-0.1c-0.2-0.4-0.2-0.8-0.3-1.2h-1.9c0.8,0.8,1.3,1.7,1.9,2.6c0.5,0.7,1,1.4,1.5,2
		c-0.8,0.2-2.7,0.3-3.5,0.1c-0.3-0.1-0.7-0.3-0.7-0.5c0.1-0.9,0.3-1.7-0.9-2c-0.2-0.8-0.3-1.5-0.5-2.3h-1.5c0.2,0.5,0.4,1,0.6,1.5
		c0.3,0.9,0,1.2-0.9,1c-1-0.2-1.9-0.5-3-0.8c0.4-0.6,0.7-1.2,1-1.7h-1.1c-0.9,2.4-3.2,2.7-5.3,3.4c0-2,1.2-2.8,2.7-3.4h-2.6
		c-0.3,0.8-0.5,1.5-0.8,2.3c-0.2,0.4-0.3,0.6-0.9,0.5c-0.7-0.2-1.4-0.2-2-0.2c-0.8,0-1.2-0.6-1.7-1.1c-0.5-0.5-0.1-1,0.1-1.5h-1.1
		v3.6c0,0.5,0,0.9-0.1,1.3c-0.1,0.5-0.3,1-0.5,1.4c-0.9,1.7-1.4,3.8-3.2,4.8c0.5-1.7,0.9-3.6,1.4-5.3c0.4-1.2,0.6-2.4,1.8-3.2
		c0.1,0,0.2-0.4,0.1-0.5c-0.2-0.2-0.4-0.3-0.6-0.3c-1.6,0.2-3.2,0.2-4.5,1.3c-0.1,0.4-0.4,0.9-0.3,1.2c0.5,1.1-0.4,1.4-1,1.8
		c-0.2,0.1-0.5,0.1-0.8,0.1c0-0.3-0.2-0.7,0-0.9c0.7-0.8,1.4-1.5,2.1-2.2c0.2-1,0.3-2,0.4-3h-0.7c0,1.6-0.5,2.9-1.8,3.8
		c-0.2,0.1-0.6,0.2-0.6,0.1c-0.6-1-1.2-2-1.6-3.1c-0.1-0.2,0.2-0.6,0.3-0.9h-1.1c-0.1,1.4,0.1,2.6,1.1,3.7c0.7,0.8,1.2,2,1.4,3.2
		s-0.5,2.1-1.4,2.9c-1.2,1-1.2,1-0.7,2.4c0.5,1.4,1.1,2.7,1.6,4c0.3,0.9,0,1.6-0.5,2.2c-0.1,0.1-0.5,0-0.6,0
		c-0.8-1.7-1.5-3.4-2.2-5.1c0-0.2-0.1-0.4,0-0.5c0.2-0.5,0.6-1,0-1.5c0.3-0.5,0.7-1,1-1.4c0.4-0.5,0.9-0.2,1.3,0
		c-0.2-0.5-0.2-1-0.4-1.4c-0.2-0.4-0.7-0.7-1-1.1c-0.9-1.2-1.6-2.4-0.7-3.9c0.7-1.1,0.2-2.3-0.1-3.4h-1.1c0.1,0.4,0.3,1.2,0.2,1.3
		c-0.5,0.4-1.4,0.9-1.9,0.8c-1.2-0.2-2.3-0.8-2.7-2.1H57c-0.4,0.5-0.8,0.9-1.4,1.6c-0.1-0.7-0.1-1.2-0.2-1.6H54
		c1.3,1.8,0,3.2-0.9,4.9c-0.6-1.1-1-2-1.5-3c-0.3-0.7-0.2-1.3,0.2-1.9h-1.5c0.7,1.9,1.3,3.8,2,5.8c-1.5-0.8-2.2-1.9-2.7-3.2
		c-0.1-0.2-0.2-0.3-0.3-0.5c-0.8-1-0.8-1-0.1-2.1H48c-1,1.1-2.4,1.5-3.8,1.7c-1.5,0.2-2.5,0.9-3.5,1.9c-0.6,0.6-0.6,0.6-1.7,0.7
		c0.4-0.4,0.6-0.8,0.9-1c1.1-0.5,0.6-1,0.2-1.5l-0.2-0.2c0,0,0.1,0,0.1,0c0,0,0,0.1,0.1,0.2c1.7,0.2,3.1-0.2,3.8-1.9h-2.2
		c0,0.3,0.1,0.7,0.2,1c-0.3,0-0.7,0-1-0.2c-0.3-0.2-0.5-0.5-0.7-0.8H39c0,0.6,0,1.2,0,1.9c0,0.7-0.5,0.9-1,0.7
		c-0.6-0.2-1.2-0.4-1.7-0.7c-1-0.5-1-0.7-0.3-1.8h-6c0,0.1,0.2,0.3,0.1,0.3c-0.5,1.1-1.1,2.2-2,3.1v-3.4h-1.5
		c0.2,0.1,0.3,0.3,0.4,0.4c0.6,0.5,0.5,1.3,0.2,1.9c-0.1,0.3-1,0.4-1.5,0.3c-0.9-0.1-1.6-0.5-2-1.4c-0.2-0.4-0.5-0.8-0.8-1.2h-2.6
		c0.3,0.3,0.6,0.6,0.9,1c0.8,1.1,0.5,2.4-0.7,3.1c-0.5,0.3-1,0.5-1.5,0.7c-0.3,0.1-0.8,0.3-1,0.2c-0.4-0.2-0.4-0.8-0.1-1.1
		c0.9-0.9,0.9-2.2,1.3-3.2c0.1-0.2,0-0.3,0-0.5h-1.1c0,2-0.3,2.2-2.6,2.6c0.5-0.8,1.5-1.5,1.5-2.6h-0.7c-0.7,1.4-1.6,2.5-3.1,3
		c-0.5,0.2-1,0.3-1.6,0.3c-0.3,0-0.5-0.2-0.8-0.3c0.1-0.2,0.2-0.5,0.3-0.7c0.7-1.1,1.7-1.8,2.9-2c0.3-0.1,0.5-0.3,0.8-0.4H12
		c-0.4,0.2-0.7,0.5-1.1,0.7c-0.2-0.2-0.3-0.5-0.4-0.7H9.7c-0.3,0.5-0.4,1.2-0.8,1.6c-0.4,0.3-0.8,1-1.5,0.7
		c-0.8-0.3-1.4-0.8-1.4-1.8c0-0.2,0-0.3,0-0.5H5.3c0,0.4,0,0.7-0.1,1.1c0,0.3-0.3,0.7-0.4,0.7c-0.3,0-0.7-0.2-0.9-0.4
		c-0.3-0.4-0.3-0.9-0.5-1.4H2.2c-0.2,0.3-0.3,0.3-0.4,0H1.1c0.1,0.3,0.3,0.8,0.2,1C1,136.5,0.4,137,0,137.5c0,0.6,0,1.2,0,1.9
		c1.2-0.5,2.4-0.9,3.9-1.5c-1,1.9-2.4,2.7-3.9,3.4v0.7c1.1-0.1,1.3,0,1,0.8c-0.2,0.6-0.2,1.5-1,1.8v1.1c0.9-0.4,1.2-1.2,1.5-2
		c0.2-0.7,0.4-1.4,0.7-2.1c0.2-0.5,0.5-0.9,0.8-1.2c0.1-0.1,0.5-0.2,0.6-0.4c1.1,0.6,2.2,1.2,3.2,1.8c0.2,0.1,0.4,0.4,0.3,0.5
		c-0.1,0.2-0.3,0.4-0.6,0.4c-0.9,0.2-1.7-0.2-2.4-0.7c-0.3-0.2-1.1-0.4-1.3-0.2c-0.3,0.2-0.3,0.9-0.3,1.4c0.1,0.4,0.3,0.8,0.6,1.2
		c0.9,1.2,2.9,1.7,4.4,1.2c0.3-0.1,0.6-0.2,0.9-0.2c-1,1.4-2,2.7-3.6,3.3c-0.3,0.1-0.4,0.5-0.7,0.8c0.3,0.2,0.6,0.3,0.9,0.5
		c0.2,0.1,0.5,0,0.7,0c1-0.1,2.1-0.2,3.1-0.4c1.3-0.2,2-1.1,2.8-2c0.1-0.1,0-0.3,0-0.3c-0.1-0.1-0.3-0.2-0.5-0.1
		c-0.2,0.1-0.4,0.3-0.6,0.5c-1,1.2-2.4,1.4-3.8,1.2c0.8-1.1,1.7-2.2,2.5-3.3c0.6-0.7,1.2-1.5,1.8-2.1c0.2-0.2,0.7-0.3,1-0.4
		c0,1.4-0.2,2.7,0,3.8c0.3,1.5,0.3,3.1,0.3,4.6c0,0.4,0,0.7,0,1.1c0.1,0.8,0.5,1,1.3,0.8c1.9-0.7,3.2-2.6,3.3-4.8
		c0-0.4,0.1-0.8,0-1.1c-0.2-1.2-0.2-2.3,1.4-2.5c0.2,0,0.4-0.3,0.6-0.5c0.2-0.1,0.5-0.2,0.6-0.2c1.5,1,3,0.4,4.5,0.1
		c0.2-0.1,0.3-0.3,0.4-0.4c0.2-0.1,0.3-0.3,0.4-0.4c0.1-0.2,0.3-0.3,0.4-0.4l0.4-0.4c0.2-0.8,0.5-1.5-0.7-1.9
		c0.7-0.6,1.3-1.1,1.9-1.7c0.4,0.5,0.8,0.9,1.2,1.4c-0.8,0.7-1.6,1.5-2.4,2.2c-0.2,0.2-0.3,0.3-0.4,0.4c-0.2,0.1-0.3,0.3-0.4,0.4
		c-0.2,0.2-0.3,0.3-0.4,0.4c-0.1,0.2-0.3,0.3-0.4,0.4c-0.6,1.2-1.8,1.5-2.9,1.9c-0.2,0.1-0.5,0.3-0.7,0.4c0.2,0.2,0.3,0.6,0.5,0.7
		c0.8,0.4,1.5,0.8,2.5,0.5c0.5-0.2,1-0.1,1.5-0.1c0.4,0,0.9,0,1.4,0c-0.2,0.5-0.3,1-0.6,1.5c-0.2,0.3-0.5,0.5-0.8,0.8
		c-0.2,0.3-0.5,0.7-0.7,1c0.3,0.2,0.7,0.3,1.1,0.4c0.4,0.1,0.9,0.1,1.2,0c0.7-0.2,1.4-0.5,2.1-0.7c0.2,0,0.5,0.1,0.6,0.2
		c0.4,1.1,0,2.3-1,2.9c-0.6,0.4-1.2,0.7-1.7,1.1c-0.2,0.2-0.4,0.4-0.6,0.7c0.3,0.2,0.5,0.5,0.9,0.6c1.7,0.7,3.4,0.1,5-0.5
		c0.2-0.1,0.4,0,0.7-0.1c0,0.2,0,0.5-0.1,0.7c-0.4,0.9-1.2,1.4-1.9,2c-0.4,0.3-0.5,0.8,0.1,1c0.8,0.2,1.6,0.5,2.4,0.3
		c1.5-0.4,2.4,0.3,2.9,1.5c0.3,0.7,0.5,1.4,0.6,2.1c0.1,0.5,0,1,0,1.5c0,0.1,0.2,0.3,0.3,0.4c0.1,0,0.4,0,0.5-0.2
		c1.1-1.7,2.4-3.3,2.2-5.6c-0.1-0.7,0.1-1.4-0.5-1.9c-0.3-0.3-0.3-0.8,0.1-0.9c0.5-0.2,0.5,0.3,0.7,0.7c0.4,1.3,0.7,2.6,1.2,3.9
		c0.1,0.5,0.3,0.9,0.7,1.3c0.5,0.6,1.1,1.3,2,1c0.9-0.3,0.6-1.2,0.7-2v-1.9c0-0.6,0-1.3,0.1-1.9c1.1,1,2,1.9,3.1,2.8
		c0.2-0.4,0.5-0.8,0.5-1.2c0-1.4-0.1-2.7-0.1-4.1c0-0.5-0.1-1.1,0-1.6c0.1-0.5,1-1,0.4-1.4c-0.7-0.5-0.7,0.9-1.3,0.9l-0.2,0.2
		c0,0,0-0.1,0-0.1c0,0,0.1,0,0.2-0.1c0.2-0.4,0.2-1.1,0.5-1.3c1.2-0.7,2.6-1.2,3.8-1.9c0,0.1,0.1,0.2,0.1,0.3c0,0.2,0,0.3,0,0.5
		c0.1,0.8,0.4,0.9,0.9,0.4c0.5-0.6,1.2-1.2,1.5-1.9c0.3-0.8,0.6-1.8-0.4-2.6c-0.3,1.1,0.1,2.4-1.1,3.2c-0.4-1.2-0.7-2.3-1.1-3.4
		c1.1-0.4,2.2-0.7,3.2-1.1c0.9-0.4,1.1-0.4,1.1,0.5c0,1-0.1,2.1-0.2,3.1c0,0.2,0,0.4,0.1,0.5c0.2,0.1,0.5,0.1,0.7,0
		c0.3-0.1,0.5-0.3,0.7-0.6c0.6-0.7,1.1-1.4,1.7-2.2c0.7,1.1,1.3,2.1,1.9,3.1c0.3,0.6,0.9,0.7,1.3,0.2s0.7-1.2,1-1.8
		c0.8,1.3,0.8,1.3,0.5,2.2c-0.6,1.9-1.8,3.5-2.9,5.1c-0.5,0.6-0.4,1.1,0.3,1.4c0.3,0.1,0.6,0.1,0.9,0.2c1.1,0.2,2-0.3,3-1
		c0,0.4,0,0.6,0.1,0.9c0.3,0.7,0.3,1.3-0.2,1.9c-0.5,0.6-1,1.2-2,1.2c-0.8,0-1.1,0.4-0.9,1.2c0.3,1.1,0.7,2.2,1.7,2.9
		c0.6,0.4,1.6,0.9,2.2,0.7c1.7-0.5,3.2-1.5,3.6-3.4c0.2-0.7,0.3-1.2,0.9-1.5c1.5-1,2-2.6,2.5-4.3c0.3-1.1,0.7-2,1.7-2.5
		c1.5-0.9,2.3-2.4,3.2-3.8c0.4-0.6,0.8-1.2,1.2-1.8c0.4-0.5,0.8-0.4,1,0.2c0.2,0.4,0.2,0.9,0.2,1.4c0,0.5-0.1,1.1,0,1.7
		c0,0.1,0.4,0.3,0.5,0.2c1-1,2-1.9,3.1-2.9c0.1,0.3,0.3,0.6,0.4,0.9c0.4,0.8,0.7,0.9,1.4,0.3c0.4-0.3,0.7-0.7,1.1-1
		c0.4,1-0.3,1.7-0.4,2.6c-0.1,0.8-0.4,1.5-0.9,2c0.5,0.1,0.9,0.1,1.3,0.2c0.9-0.8,1.8-1.5,2.7-2.2c1.9-1.5,3.9-3.1,5.9-4.5
		c0.9-0.7,1.9-1.2,2.8-1.8c0.4-0.2,0.6-0.1,0.9,0.3c0.7,0.8,0.7,0.8,1.4,0c1-1,1.9-2.1,2.9-3.2c0,0,0,0,0,0.1c0.1,2,0.3,2.3,2.2,2.8
		c0.5,0.1,1.2,0,1.2,0.8c0,0.6,0.3,1.2,0.2,1.6c-0.2,0.7-0.7,1.3-1.2,1.8c-1.1,1-2.2,2-2.6,3.6c-0.1,0.3-0.3,0.7-0.5,1
		c-0.4,1.3-1.2,2.3-2.7,2.5c-0.3,0-0.6,0.4-0.7,0.7c0,0.2,0.3,0.6,0.5,0.7c0.8,0.2,1.6,0.2,2.4,0.5c0.7,0.2,1.6-0.9,2-0.1
		c0.4,0.6,0.2,1.5,0.2,2.4c0,0.3,0,0.6,0,0.9c0.1,0.4,0.2,0.9,0.5,1.2c0.6,0.7,1,1.5,1,2.5c0,0.6,0.5,0.7,0.9,0.2
		c0.7-0.9,1.4-1.9,2-2.9c0.1-0.1,0.1-0.4,0-0.5c-0.5-1-0.3-2.2-1-3.2c-0.9-1.2-0.6-2.8,0.8-3.3c1.3-0.5,1.5-1.2,1.5-2.4
		c0-0.3,0.3-0.7,0.3-1.1c0-0.8,0.5-0.9,1.1-0.9c1.3-0.1,2.6-0.3,3.9-0.4c0.5,0,0.7-0.3,0.7-0.7c-0.1-1,0.3-1.2,1.2-1.2
		c0.4,0,0.8-0.3,1.2-0.4c0.3-0.1,0.7-0.3,0.9-0.2c0.8,0.6,2,0.6,2.5,1.7c0.5,1.2,1.1,1.3,2.2,0.7c0.6-0.3,0.6-0.6,0.2-1.2
		c-0.3-0.5-0.7-1-1-1.5c0,0,0.3-0.4,0.4-0.4c0.9,0.3,1.8,0.7,2.7,1.1c1,0.4,1,0.4,1.7-0.6c0.5-0.7,0.6-0.7,1.3-0.2
		c1.6,1.2,3.3,2.2,4.9,3.3c0.7,0.5,1.6,0.5,2.4,0.3c0.9-0.3,1.7-0.7,2.5-1.2c0.3-0.2,0.7-0.6,0.7-0.9c0-0.6-0.6-0.5-1-0.5
		c-0.8,0-1.5-0.2-2-0.7c-0.7-0.6-0.7-1.1,0.1-1.4c1.2-0.5,1.9-1.6,3.2-1.7c0.3,0,0.6-0.3,0.9-0.5c0.2,0.3,0.3,0.7,0.5,1.1
		c0.7,1.9,2.6,3.4,5,2.9c0.5-0.1,1-0.2,1.5-0.2c1.9,0,3.5-0.8,5.1-1.5c0.3-0.2,0.6-0.4,0.9-0.7c0.3-0.4,0.2-0.7-0.3-0.8
		c-0.2,0-0.5,0-0.7-0.1v-0.2c0.5-0.1,1-0.2,1.5-0.2c0,0.2,0.1,0.3,0.1,0.4c-0.1,1.3-0.2,2.6-0.3,3.9c-0.1,0.9,0.2,1.2,1,0.9
		c1.1-0.3,2.1-0.8,2.7-1.9c0.5-1,1.1-2,1.1-2.9c-0.1-1.5,0.8-1.9,1.9-2.3c0.2-0.1,0.3-0.2,0.5-0.3c0.1,0,0.1-0.1,0.2-0.2
		c0,0,0,0.1,0,0.1c0,0-0.1,0-0.2,0.1c-0.1,0.2-0.1,0.5-0.2,0.7c-0.7,1.6-1.5,3.2-2.1,4.8c-0.3,0.9-0.3,0.9,0.7,1
		c1.2,0.1,2.4-0.2,3.4-0.7c0.8-0.3,1.1-0.1,1,0.8c0,0.5-0.2,1-0.3,1.5c-0.1,0.6,0.2,0.9,0.7,0.7c0.3-0.1,0.6-0.2,0.9-0.4
		c0.7-0.5,1.5-1.1,2.2-1.7c0.6,1.1,1.2,2.2,1.7,3.2c0.2,0.3,0.3,0.6,0.3,0.9c-0.2,1.4,0.7,1.7,1.7,2c0.5,0.2,0.9,0.3,1.4,0.3
		c1.4,0.2,2.8,0.3,4.6,0.6c-1.3-1.7-2-3.2-2.7-4.9c1.5,0.3,1.5,0.3,2.1,1.4c0.7,1.3,1.5,2.6,2.4,3.7c0.7,0.8,0.9,0.7,1.8,0
		c0.3-0.2,0.7-0.3,1-0.3c1.2-0.2,2.4-0.3,3.5-0.6c0.8-0.2,1-0.8,0.4-1.4c-0.7-0.8-1.5-1.5-2.2-2.2c0.7-0.6,1.4-1.1,2.2-1.7
		c1,1.7,2.4,2.9,4.1,3.6c0.8,0.3,1,0.2,1.1-0.6c0.2-1.1,0.3-2.2,0.4-3.3c0.1-1.7,0.9-2.2,2.5-1.5c0.2,0.1,0.4,0.3,0.6,0.4
		c1.5,1,3.9,0.7,5.4-0.7c0.2-0.2,0.4-0.7,0.3-0.9c-0.3-0.9,0.1-1.1,0.9-1.2c1.6-0.3,1.6-0.3,1.2-1.9c0-0.1-0.1-0.2-0.1-0.3
		c-0.3-0.6,0-0.8,0.5-0.8c2.4,0,4.7-0.1,7,0.5c0.7,0.2,1.4,0.2,2,0.1c0.5-0.1,0.9-0.5,0.4-1.1c-0.2-0.2-0.2-0.3-0.3-0.6
		c1-0.1,1.8-0.1,2.6-0.2c0.2,0,0.5-0.4,0.5-0.7c0-0.1-0.2-0.4-0.4-0.5s-0.5-0.2-0.7-0.2c-1.7-0.7-1.8-1.4-0.7-3.1
		c0.7,0.7,1.4,1.4,2.2,2c0.9,0.7,1.3,0.5,1.6-0.6c0.2-0.6,0.2-1.2,0.4-1.8c0-0.2,0.2-0.4,0.3-0.4c0.2,0.1,0.5,0.2,0.6,0.3
		c0.1,0.3,0.2,0.6,0.2,0.9c-0.1,1.1-0.2,2.2-0.4,3.3c-0.2,0.8-0.5,1.5-0.7,2.3c-0.2,0.5-0.5,0.9-0.7,1.3c-0.1,0.4,0.2,0.8,0.6,0.7
		c1.9-0.3,3.4-1.1,4.3-3.1c0.5-1.2,1.3-2.4,2-3.5c0.2-0.3,0.5-0.3,0.7,0c0.2,0.2,0.3,0.4,0.5,0.5c0.9,0.5,1.4,1,0.9,2.1
		c-0.2,0.4-0.1,1,0.1,1.4c0.5,1.3,1.1,2.5,1.7,3.8c0.1,0.2,0.5,0.3,0.7,0.4c0-0.2,0.2-0.5,0.2-0.7c0-0.3-0.1-0.6-0.2-0.9
		c-0.1-0.7,0.3-1.1,0.7-1.4c0.5-0.5,0.7,0.3,1,0.4c0.5,0.2,1,0.3,1.4,0.3c1.3,0,1.8,0.7,2.3,1.7c0.5,0.9,0.5,1.6-0.1,2.4
		c-1,1.4-1.4,3.1-3,4c-0.2,0.1-0.1,0.4-0.2,0.7c0.2,0,0.5,0.2,0.7,0.1c1.6-0.5,3.2-1,4.3-2.4c0.2-0.3,0.5-0.5,0.8-0.8
		c0.4-0.4,0.8-0.4,1,0.2c0.1,0.2,0.2,0.5,0.3,0.7c0.1,0.2,0.3,0.4,0.4,0.6c0.2-0.2,0.6-0.3,0.7-0.5c0.4-0.9,0.7-1.9,1-2.8
		c1,1.2,1.4,1.4,3.2,2c1.4,0.4,2.9,0.8,4,2.4c0.2-1.7,0.6-3.1-0.7-4.3c-0.1-0.1-0.1-0.3-0.1-0.5c0.2,0,0.5,0,0.7,0
		c0.7,0.2,1.4,0.5,2.1,0.7c0.4,0.1,0.8-0.1,1.2-0.1c0.2-1.2,0.2-1.3,1.1-0.7c-0.4,0.2-0.7,0.5-1.1,0.7c-0.4,2,0.5,3.3,2.1,4.1
		c1.5,0.9,2.6,2,3.4,3.6c0.3,0.5,0.6,0.4,0.8,0c0.6-1.2,1.2-2.4,1.8-3.7c0.6-1.4,0.4-2.2-0.7-3.2c-0.9-0.8-1.2-1.8-0.9-1.8
		c0.8-0.1,1.4,0.5,1.8,1.1c1.5,2.2,3.8,2.3,6.1,2c0.5,0,1.1-0.5,1.5-0.9s0.3-0.7-0.2-1c-0.6-0.3-1.2-0.5-2-0.8
		c1.4-0.7,2.5-1.3,3.7-1.9c0.2-0.1,0.3-0.2,0.5-0.2c0.7,0,1.9,1.1,2.1,1.8c0.2,0.7,0.5,1.4,0.7,2.1c0.3,1.2,1,2.2,2,2.8
		c1.1,0.7,2,1.5,2.3,2.8c0,0.1,0.3,0.3,0.4,0.3c0.2-0.1,0.4-0.2,0.5-0.4c0.1-0.1,0.1-0.3,0-0.5c-0.7-1.5-0.5-3.1-0.6-4.8
		c0-0.5-0.2-0.9-0.3-1.4c0-0.1-0.3-0.2-0.5-0.2c-0.1,0-0.2,0.3-0.2,0.4c0.4,1.1,0.3,2.2,0.1,3.4c-2.6-0.7-3-2.7-3.5-4.8
		c1.2,0.2,2.3,0.5,3.4,0.3c0.9-0.1,1.5-0.1,2.2,0.3c1.5,0.8,3.2,0.9,4.8,0.1c0.3-0.2,0.6-0.7,0.6-1c0-0.2-0.4-0.6-0.7-0.7
		c-0.6-0.2-1.3-0.4-1.9-1.2c1.9,0.3,3.7-0.7,5.3,0.7c0.1,0.1,0.3,0,0.5,0.1c1.2,0.3,2.3,0.1,3.4-0.2c0.8-0.2,1.3,0.1,1.6,0.8
		c1.2,2.4,3.2,3.5,5.7,3.1c0.9-0.1,1.1-0.5,0.6-1.4c-0.3-0.6-0.6-1.2-0.8-1.9c-0.1-0.3-0.1-0.7,0-0.8c0.4-0.3,0.9-0.6,1.4-0.2
		c0.2,0.2,0.4,0.5,0.4,0.7c-0.1,2.4,0.7,4.5,2.4,6.1v-1.5c-1.3-1.2-1.6-2.7-1.5-4.3c0.1-0.9,0.8-1,1.5-1v-1.1
		c-1.5,0.6-3,0.5-4.3-0.7c-0.7-0.7-0.9-1.2-0.3-2c0.7-1,1.5-1.8,2.3-2.6c0.4-0.4,1.3,0,1.5,0.6c0.1,0.3,0.1,0.7,0,0.9
		C298.5,141.2,299.1,142,299.9,142.7z M2.7,137.5c-0.5,0.1-1,0.3-1.6,0.4c0,0-0.1,0.1-0.2,0.2c0,0,0-0.1,0-0.1c0,0,0.1-0.1,0.2-0.1
		c0.1-1,1-1.5,1.7-2.2c0.2,0.3,0.4,0.6,0.5,0.9C3.4,137.1,3.3,137.4,2.7,137.5z M3.6,143.4c-0.1,0-0.1-0.2-0.2-0.3
		c0.1,0,0.2-0.1,0.3,0s0.1,0.2,0.2,0.3C3.8,143.4,3.7,143.4,3.6,143.4z M24.4,138.2c-0.2,0.1-0.5,0.3-0.8,0.4
		c-0.4,0.1-0.9,0-1.3-0.1c0-0.3,0.1-0.7,0.1-1c0-0.5-0.1-1.1-0.2-1.7C23,136.6,23.7,137.4,24.4,138.2z M10,136.5
		c0,0,0.1-0.1,0.1-0.1c-0.2,0.8-0.5,1.5-1.4,1.8c0,0-0.1,0-0.2-0.1C9,137.6,9.5,137,10,136.5z M4.3,139.2c0,0,0-0.1,0-0.1
		s0.1,0,0.2-0.1c0.2-0.3,0.3-0.9,0.5-0.9c0.6-0.2,1.2-0.1,1.8-0.1c0.1,0,0.2,0.2,0.2,0.3c0,0.1-0.1,0.3-0.2,0.3
		c-0.8,0.2-1.5,0.3-2.3,0.5C4.4,139.1,4.4,139.2,4.3,139.2z M7.8,144.8c-1.4,0.8-1.5,0.7-3.6-0.3c1.9-0.2,3.2-0.7,4.5-1.5
		c0.6-0.4,1.4-0.8,2.4-0.3C10,143.4,9,144.2,7.8,144.8z M11.3,141.6c-0.2,0-0.3,0-0.4,0c-2.1,0.9-3.8-0.2-5.7-1.4
		c2-0.9,3.8-1.4,5.7-0.6c0.3,0.1,0.7,0.2,0.9,0.3c0.3,0.3,0.8,0.8,0.8,1.1C12.5,141.6,11.8,141.7,11.3,141.6z M12.6,139.5
		c0-0.1,0-0.3,0.1-0.4c0.6-0.3,1.2-0.5,1.8-0.8c-0.1,0.9-0.9,1-1.5,1.4C13,139.7,12.7,139.6,12.6,139.5z M13,141.8
		c0.4-0.5,0.9-0.9,1.3-1.3c0.8-0.9,1.4-2,2.6-2.2l0.2-0.2c0,0,0,0.1,0,0.1c0,0-0.1,0-0.2,0.1c-0.5,0.9-0.7,1.6,0.4,2.2
		c0.6,0.3,0.2,1-0.1,1.2c-0.4,0.3-1,0.3-1.6,0.3c-0.5,0-0.5-0.4-0.5-0.8c0-0.5-0.3-0.6-0.8-0.6c0,0.5,0,0.9,0,1.3
		c-0.1,0.6-0.6,0.6-1,0.5C13.1,142.3,12.9,141.9,13,141.8z M14.2,152.3c-0.3,0.2-0.6,0.2-0.7-0.3v-0.2c-0.1-2.1-0.2-4.2-0.3-6.3
		c-0.2-0.9-0.1-1.7,0.8-2.3c0.4-0.3,0.6-0.3,0.9,0c0.3,0.3,0.3,0.6,0,0.9c-0.1,0-0.1,0.1-0.2,0.1c-0.3,0.3-0.5,0.6-0.8,0.9
		c0.4,0.3,0.8,0.7,1.3,0.9c1.2,0.5,1.2,0.4,1.3,1.7C16.7,149.8,15.9,151.2,14.2,152.3z M23.8,143.6c-1,0.2-2,0.3-3.1,0.3
		c-0.6,0-0.4-0.7-0.5-1c-0.1,0-0.2,0.1-0.3,0.2c-1.2,1.5-2.8,2.2-4.9,2.3c0.5-0.5,1-0.7,1.4-1.1c0.5-0.5,1-1,1.3-1.5
		c1.4-2.3,1.6-2.5,4.4-3.1c-0.7,1.1-1.3,2.2-1.9,3.2c1-0.3,2-0.6,3-1c0.7-0.2,1.4-0.1,1.6,0.4C25,142.8,24.5,143.4,23.8,143.6z
		 M22.1,141.4c1.1-1.7,2.3-2.4,4.3-2.4C25.1,140.5,23.7,140.7,22.1,141.4z M205.2,135.4c0.3,0.2,0.5,0.4,0.8,0.6
		c-0.1,0.1-0.3,0.3-0.3,0.2c-0.3-0.1-0.6-0.3-0.9-0.4C205.1,135.6,205.2,135.5,205.2,135.4z M190.1,138.8c1.5-2.7,4-3.2,6.8-3
		c0.5,0,1-0.1,1.7-0.2c-1.3,2.6-3.2,3.9-5.8,4.1c-0.9,0.1-1.8,0.5-2.7,0.7c-0.3,0.1-0.6-0.1-0.9-0.1c0.1-0.3,0.2-0.5,0.3-0.8
		C189.7,139.3,190,139.1,190.1,138.8z M192,141.3c0.5-0.9,1-0.8,1.9-0.7C193.2,140.9,192.7,141,192,141.3z M196.8,141.3
		c-0.8,0.7-1.5,1.3-2.2,1.9c-0.3-0.4-0.8-0.9-1.3-1.5C194.3,141,195.5,141.3,196.8,141.3z M187.8,135.9c0.6-0.1,0.9,0,1.2,0.5
		c0.2,0.3,0.3,0.7,0.5,1c0.3,0.5,0.2,0.9-0.2,1.3c-0.2,0.2-0.5,0.4-0.7,0.7c-0.4,0.4-0.7,0.5-1.3,0.2c-0.7-0.4-1.4-0.5-2.3-0.8
		C185.2,137.1,186,136.1,187.8,135.9z M183.8,137.4c0.2-0.1,0.4-0.1,0.5,0s0.2,0.3,0.2,0.5c-0.1,0.5-0.3,0.9-0.5,1.6
		C183.1,138,183.1,137.8,183.8,137.4z M181.5,141.2c0.2-1.2,0.4-2.3,0.6-3.8c0.2,2,1.6,3,2.5,4.3c0.2,0.2,0.8,0.1,1.2,0.2
		c0.3,0.1,0.5,0.4,0.8,0.7c-0.2,0.2-0.4,0.6-0.6,0.7c-1.1,0.3-2.2,0.7-3.4,0.9c-0.6,0.1-1-0.3-1.1-1
		C181.5,142.6,181.4,141.9,181.5,141.2z M182.2,146c0,0.1-0.1,0.2-0.1,0.3c-0.2-0.3-0.3-0.5-0.5-0.8c0,0,0.1-0.2,0.3-0.3
		C182,145.5,182.1,145.7,182.2,146z M177.6,145.3c0.6-0.4,0.5-0.7-0.2-1c-0.4-0.2-0.8-0.5-1.2-0.7c-0.1,0-0.1-0.1-0.2-0.2
		c0,0,0.1,0,0.1,0c0,0,0,0.1,0.1,0.2c0.9-0.1,1.9-0.2,2.7-0.4c0.4-0.1,0.7-0.6,1.1-0.9c0.1,0,0.5,0.1,0.5,0.2c0,0.6,0.1,1.2,0,1.9
		c-0.1,0.7-0.9,0.6-1.3,0.9c-0.5,0.3-0.9,0.6-1.2,1c-0.8,1-0.7,1.1-1.9,0.3c-0.1-0.1-0.2-0.2-0.3-0.3
		C176.5,145.8,177.1,145.6,177.6,145.3z M174.7,145.4c-1.1,0.1-2.2,0.1-3.3,0c-0.3,0-0.7-0.3-0.8-0.6c-0.7-1.3-0.3-2,1.2-2
		c1.7,0,3,0.9,4.5,2C175.7,145.1,175.2,145.3,174.7,145.4z M178.5,147.2c0.6-0.6,1.3-1.1,2-1.7c0.7,1.1,0.7,1.9,0.2,2.8
		c-0.3,0.5-0.7,1-1,1.4c-0.5-0.5-1.1-1-1.5-1.6C178.1,147.9,178.3,147.3,178.5,147.2z M181,139.2c-0.6,2-1.1,2.4-2.8,2.3
		C179.1,140.6,180,139.9,181,139.2z M178.7,135.5c0.1,0.2,0.2,0.3,0.3,0.5c-0.2,0.2-0.3,0.4-0.5,0.7c-0.2-0.2-0.3-0.3-0.5-0.5
		C178.2,136,178.5,135.7,178.7,135.5z M178.1,137.6c0.4,0.4,0.9,0.8,1.2,1.2c0.1,0.1,0,0.5-0.1,0.5c-0.2,0.1-0.7,0.2-0.8,0
		c-0.3-0.4-0.5-0.9-0.7-1.4C177.8,137.8,178,137.7,178.1,137.6z M176.2,140.1c0.3-0.5,0.6-1,1-1.7c0.2,0.5,0.5,0.9,0.4,1.3
		c0,0.4-0.3,0.9-0.6,1.2c-0.1,0.2-0.6,0-0.9-0.2C176.1,140.7,176.1,140.3,176.2,140.1z M172.8,138.2c0.1,0.7-1.2,2.2-2,2.3
		c-0.1-0.2-0.4-0.3-0.4-0.6c-0.1-0.5,1-2.2,1.5-2.3C172.2,137.5,172.7,137.8,172.8,138.2z M170.5,135.7c0.2-0.2,0.5-0.1,0.8-0.2
		c0.1,0.3,0.2,0.7,0.2,1c0,0.1-0.2,0.2-0.2,0.3c-0.2,0.3-0.4,0.6-0.6,1C169.9,136.3,169.8,136.2,170.5,135.7z M170.3,141.5
		c1-0.5,2-0.8,3.1-0.6c0.7,0.2,1.5,0.2,2.2,0.4c0.7,0.2,1.4,0.6,2.1,0.9c-0.3,0.1-0.5,0.4-0.7,0.4c-1.2-0.2-2.4-0.2-3.4-0.5
		c-0.8-0.3-1.5-0.5-2.3,0c-0.2,0.1-0.5,0.2-0.7,0.2c-0.2,0-0.3-0.1-0.5-0.2C170.1,141.9,170.1,141.6,170.3,141.5z M141.9,138.5
		c0.3-0.1,0.8,0.2,1.1,0c1.4-0.6,2.9-0.4,4.3-0.6c0.2,0,0.3,0,0.4,0c2.1-1.1,4.2-0.4,6.3,0.2c-1.6,0.6-3.1,1.5-4.8,1.5
		c-0.4,0-0.8,0.2-1.1,0.1c-2.4-0.6-4.7,0.1-7,0c-0.7,0-1.5,0-2.1-0.7C139.8,138.3,140.9,138.8,141.9,138.5z M151.9,140.2
		c-0.2,0.1-0.4,0.2-0.5,0.3c-0.1,0-0.2,0-0.3-0.1c0.1-0.1,0.2-0.2,0.3-0.2C151.5,140.2,151.7,140.2,151.9,140.2z M132.2,139.8
		c0.3-0.3,0.7-0.5,1-0.8c1.1-0.9,2.1-1.7,2.6-3.1c0-0.2,0.3-0.3,0.4-0.5c0.2,0.2,0.5,0.4,0.6,0.7c0.1,0.2,0.1,0.5,0.1,0.7
		c-0.1,1.4-0.4,2.5-2,3c-0.6,0.2-1.1,0.6-1.7,0.8c-0.2,0.1-0.6,0.1-0.8-0.1C132.3,140.4,132.1,139.9,132.2,139.8z M132,136.5
		c-0.1,0.5,0,0.9-0.1,1.2c-0.2,0.6-0.4,1.1-0.7,1.7c0,0.1-0.2,0.2-0.2,0.2c-0.1-0.1-0.3-0.2-0.3-0.3c0-0.3,0.1-0.6,0.3-0.9
		C131.2,137.8,131.6,137.2,132,136.5z M120.8,138.1c0.5-0.5,1-1,1.5-1.6c0.3,0.7,0.8,1.2,1,1.9c0.3,1.3,1,2.3,2.6,2.6
		c-1,1.2-2,0.9-3,0.9c-0.1,0-0.4-0.3-0.3-0.3c0.4-1-0.2-1.1-1-1.2C120.7,140.3,120.3,138.7,120.8,138.1z M120.6,142.1
		c-0.1,0.1-0.2,0.2-0.2,0.2c-0.6,0.2-0.7-0.2-0.8-0.7c-0.2,0-0.3-0.1-0.5-0.1c0-0.1,0.1-0.1,0.1-0.2c0.1,0.1,0.2,0.2,0.3,0.3
		c0.1,0,0.2,0,0.2,0C120.1,141.8,120.3,141.9,120.6,142.1z M119.5,139.2c0.3,0.3,0.5,0.7,0.9,1c-0.2,0.1-0.4,0.3-0.5,0.2
		c-0.4-0.2-0.8-0.3-1.1-0.5C119,139.7,119.2,139.4,119.5,139.2z M114.6,137c0.3,1.1,1.3,1.4,1.1,2.5c0,0.2,0.3,0.5,0.5,0.7
		c0.6,0.5,1.2,1,1.8,1.5C115.1,141.1,114.2,139.8,114.6,137z M113.6,137.8c-0.2,2.8,1.4,3.8,3.1,4.9c-1.3,0.5-2.6,0.3-3.5-0.6
		C112,140.8,112.8,139.5,113.6,137.8z M111.1,137.1c0.7-0.6,1.4-1.1,2.2-1.7c0,0,0,0,0,0c-0.3,1.1-0.6,2.2-0.9,3.4
		c-0.5-0.3-0.9-0.6-1.2-0.8C110.5,137.7,110.7,137.4,111.1,137.1z M107.2,139.3c0.3-0.2,0.6-0.3,0.9-0.5c0.1,0.3,0.2,0.6,0.2,0.9
		c0,0.2,0,0.5,0,0.7c-0.1,0.8-0.4,1-1.1,0.6c-0.3-0.2-0.7-0.5-1.2-0.9C106.5,139.8,106.9,139.5,107.2,139.3z M94.1,143.5
		c-0.1,0.2-0.2,0.3-0.3,0.5c-0.8,1-1.9,1.4-3,1.9c-0.3,0.2-0.9,0-1.2-0.3c-1.1-1.1-2.1-2.3-3.1-3.4c0,0-0.1-0.1-0.1-0.2
		c0.4-0.7,0.7-1.4,1.2-2c0.2-0.2,0.8-0.2,1,0c1,0.6,2,1.2,3,1.9c0.7,0.5,1.3,0.9,2,1.4C93.8,143.2,93.9,143.4,94.1,143.5z
		 M93.1,139.8c0.2,0.3,0.5,0.5,0.5,0.6c-0.2,0.4-0.5,0.8-0.7,1.2c-0.3-0.2-0.5-0.5-0.8-0.7C92.4,140.5,92.7,140.2,93.1,139.8z
		 M86.1,138.2c0.7-0.6,1.3-0.7,2.2-0.4c1.4,0.4,2.7,0.7,4.1,1c-1.1,1.4-1.2,1.4-2.5,0.7l-1.2-0.6c-1-0.5-2-0.5-2.7,0.3
		c-0.4,0.4-0.7,0.6-1.6,0.3C85,139,85.6,138.6,86.1,138.2z M85.8,142.6c-0.2,0.2-0.4,0.3-0.5,0.5c0,0-0.2-0.1-0.3-0.1
		c0.1-0.2,0.3-0.3,0.4-0.5C85.4,142.5,85.6,142.6,85.8,142.6z M79.4,138.3c0.3,0.1,0.5,0.3,0.8,0.5c0.3,0.2,0.5,0.6,0.7,0.5
		c1.8-0.2,2.8,1.4,4.4,2c-0.4,0.2-0.7,0.5-1.1,0.6c-0.7,0.2-1.3,0.3-1-0.8c0-0.1-0.5-0.3-0.7-0.4c-0.1,0-0.2,0.1-0.3,0.1
		c-1.9,0.5-2.7-0.1-3.2-2C78.8,138.4,79.1,138.2,79.4,138.3z M76.8,139.8c0.1-0.5,0.1-1.1,0.2-1.7c0.1,0,0.3-0.1,0.4-0.1
		c0.5,0.9,0.9,1.7,1.5,2.6c-0.5,0.1-0.8,0.2-1.1,0.2C76.6,140.9,76.7,140.9,76.8,139.8z M73.3,137.4c0.2,0.3,0.5,0.5,0.4,0.6
		c-0.2,0.2-0.4,0.5-0.6,0.6c-0.1,0.1-0.3-0.2-0.5-0.3C72.8,138,73,137.7,73.3,137.4z M71.4,138.8c0.3,0.1,0.6,0.2,0.8,0.3
		c0.5,0.4,0.9,0.9,0.5,1.7c-0.4,1-0.5,2.1-0.8,3.2c-0.1,0-0.2,0-0.3,0c-0.1-1.5-0.3-3-0.4-4.5C71.2,139.3,71.4,139,71.4,138.8z
		 M70.3,149c0,0.1,0.2,0.3,0.2,0.3c1.2,0.1,0.5,0.9,0.8,1.7c-0.7-0.3-1-0.4-1.4-0.6c-0.9-0.5-0.9-0.5-0.5-1.5c0.2-0.4,0.4-1,0.3-1.4
		c-0.2-1.1,0.4-1.7,1.5-2c-0.1,0.2-0.2,0.5-0.4,0.5C69.7,146.8,70.7,148,70.3,149z M69.4,141.8c0.1-0.2,0.5-0.3,0.7-0.4
		c0.1,0.2,0.2,0.4,0.3,0.6c0.6,2.2,0.4,2.6-1.7,3.4c-0.5,0.2-1.1,0.3-2,0.4C67.8,144.3,68.6,143.1,69.4,141.8z M67,147.7
		c-0.1-0.2,0-0.5,0.1-0.7c0.2,0.2,0.6,0.3,0.6,0.5c0.1,0.5,0.1,1.1,0.1,1.6c-0.1,0-0.1,0-0.2,0.1C67.5,148.7,67.2,148.2,67,147.7z
		 M66,155.7c0.3-0.5,0.7-1,1.4-1.7c0.5,2.4,1.2,4.5-0.8,6.5c-0.3-1.3-0.6-2.4-0.8-3.5C65.7,156.5,65.8,156,66,155.7z M63.5,142.1
		c0.2,0.2,0.3,0.2,0.4,0.4c-0.2,0.1-0.3,0.2-0.4,0.2c-0.1,0-0.2-0.1-0.3-0.1C63.3,142.5,63.4,142.3,63.5,142.1z M61.5,142.3
		c0.5-0.5,1-1,1.7-1.7C62.6,141.9,62.6,141.9,61.5,142.3z M63.2,137.8c-0.5,2.5-0.8,2.8-4.3,5.7C59.5,140.8,61.1,138.7,63.2,137.8z
		 M49.9,141.6c0.1-0.3,0.3-0.5,0.6-1.2c0.4,0.5,0.6,0.8,0.8,1.1c0.5,0.7,0.3,1.2-0.5,1.2c-0.3,0-0.7-0.1-1.1-0.1
		C49.8,142.2,49.8,141.9,49.9,141.6z M47,137c0,0,0.3,0,0.5,0.1c1.2,0.3,2.1,1.7,1.7,2.9c-0.2,0.5-0.3,1-0.5,1.5
		c-0.7-0.6-1.4-1.1-2-1.7c-0.3-0.3-0.8-0.7-0.7-0.9C46.2,138.2,46.6,137.6,47,137z M46.8,141c0.7,0.7,1.3,1.6,1.9,2.5
		c0.3,0.5,0.5,1,0.9,1.4c0.3,0.4,0.2,0.6,0,1c-0.5,0.6-0.8,0.6-1.1,0c-0.5-1.1-1.4-1.9-2.2-2.8c-0.5-0.5-1-0.8-1.7-0.7
		c0,0.4,0,0.9,0,1.3c-0.1,1.1-0.4,2-1.5,2.5c0,0-0.1,0.1-0.2,0.2c0,0,0-0.1,0-0.1c0,0,0.1,0,0.2-0.1c0-0.1,0.1-0.3,0-0.3
		c-0.7-1.7,0.3-2.6,1.5-3.4c0.2-0.3,0.3-0.6,0.4-0.9C45.5,140.1,45.8,140,46.8,141z M46.6,148.7c-0.2,0-0.4-0.1-0.5-0.2
		c-0.2-0.4-0.3-0.8-0.4-1.2c-0.2-1.1-0.3-2.3-0.5-3.7c1.4,0.9,2,1.9,2.4,3C48.1,147.2,47.4,148.5,46.6,148.7z M40.9,142.2
		c0.5-0.5,1.2-0.8,1.8-1.2c0.2-0.1,0.2-0.4,0.3-0.6c-0.2,0-0.3-0.2-0.5-0.2c-0.2,0-0.5,0.2-0.7,0.2c-0.3,0-0.7-0.1-0.8-0.2
		c-0.1-0.2,0-0.6,0.2-0.9c1-1.3,2.3-2,4-1.9c-0.1,3.3-1.9,5.7-5.8,7.2C40,143.6,40.3,142.8,40.9,142.2z M38.9,143.6h-0.3
		c0.1-0.5,0.1-1,0.2-1.4c0-0.1,0.3-0.2,0.5-0.2c0.1,0,0.2,0.3,0.2,0.4C39.3,142.9,39.1,143.2,38.9,143.6z M39,140
		c0.2,0,0.4,0.1,0.5,0.2c0.2,0.2,0.4,0.4,0.3,0.5c-0.1,0.2-0.3,0.3-0.6,0.5c-0.3-0.2-0.7-0.2-0.8-0.4c-0.2-0.2-0.1-0.6-0.1-0.9
		C38.6,140,38.8,140,39,140z M40.3,145.7c0.5-0.3,1-0.5,1.6-0.9c0.5,2.9-1.2,4.5-3.1,6c-0.1,0-0.5-0.1-0.5-0.2
		C37.7,148.5,38.5,146.8,40.3,145.7z M41.4,150c-0.2,0.5-0.3,1-0.5,1.5c-0.5,1.1-0.5,1-1.9,0.3c0.7-0.7,1.4-1.4,2-2
		C41.2,149.9,41.3,149.9,41.4,150z M38,145.9c0,0,0.1,0,0.2-0.1c-0.3,1.2-0.5,2.2-0.7,3.4c0,0.2-0.1,0.4-0.2,0.5
		c-0.4,0.5-2.9,0.2-3.2-0.3c-0.3-0.5-0.3-0.9,0.3-0.9c1.5-0.1,2.5-0.9,3.2-2.1C37.8,146.1,37.9,146,38,145.9z M37.7,151.8
		c0,0.2-0.4,0.6-0.6,0.5c-0.6-0.1-0.1-0.4-0.1-0.7c0-0.2,0.2-0.5,0.3-1C37.5,151.2,37.8,151.5,37.7,151.8z M33,147
		c-0.7-0.2-1.2-0.7-2-1.3c2.8-0.8,5-1.9,6.4-4.3c0.8,1,0.5,2,0.2,3.1c-0.3,1.2-1,2.1-2,2.6C34.8,147.3,33.8,147.2,33,147z
		 M32.5,150.9c-0.7,0.5-1.3,0.9-2,1.5c-0.3-1-0.1-1.7,0.6-2.3c0.5-0.4,0.8-0.9,0.8-1.6c0-0.4,0.3-0.5,0.7-0.3
		C33.4,149,33.4,150.2,32.5,150.9z M31.7,144.6c0.5-1.7,1.5-2,3.1-1.6C33.9,143.8,32.9,144.3,31.7,144.6z M37.6,138.5
		c0-0.1,0.2-0.1,0.3-0.2c0,0.2,0.1,0.3,0,0.4c-0.1,0.1-0.3,0.2-0.4,0.3c-0.5,0.8-1,1.7-1.6,2.4c-0.4,0.4-1.2,0.6-1.7,0.5
		c-1.6-0.2-3.3-0.3-4.8-1.2c2.6-1.5,5.3-1.9,8.1-1.7C37.5,138.8,37.5,138.7,37.6,138.5z M35.3,137.1c0.5,0.3,1,0.7,1.8,1.1h-4.1
		c0.5-0.4,0.8-0.7,1-1C34.5,136.7,34.9,136.8,35.3,137.1z M31.7,135.7c0.3-0.1,0.5-0.3,0.8-0.3c0.5,0,1.3,0,1.5,0.3
		c0.3,0.5-0.3,1-0.7,1.3c-1,0.7-2,1.4-3.1,1.9c-0.3,0.2-0.7,0.1-1.2,0.1C29.6,137.5,30.3,136.3,31.7,135.7z M24.5,147.2
		c-0.5,0-1.1,0-1.7,0c1.8-1.1,3-2.7,4.4-4.1c1-1.1,2.4-1.4,3.8-0.7c0.4,0.2,0.5,0.4,0.2,0.9C29.6,145.6,27.4,147,24.5,147.2z
		 M29.3,149.9c-0.9,0.3-1.8,0.7-2.8,1.2c0.4-1.1,0.9-1.9,1.1-2.7c0.2-0.9,0.8-1.4,1.5-1.9c0.6-0.4,1-0.4,1.5,0.1
		c0.4,0.4,0.7,0.9,0.3,1.5C30.5,148.8,30.2,149.6,29.3,149.9z M29.7,155.9c-0.5,0.1-1.1,0-1.7,0c1.4-1.3,2.7-2.5,4-3.7
		c0.9-0.8,1.8-1.4,2.9-1.5c0.9-0.1,1.2,0.3,0.8,1.1c-0.6,1.2-1.3,2.5-2.5,3.1C32.2,155.5,30.9,155.7,29.7,155.9z M37.8,163.2
		c-0.5-0.9-1-1.8-1.5-2.6c-0.5-0.9-0.4-1.1,0.5-1.6c0.5-0.3,1.1-0.6,1.7-1C38.8,159.8,39.2,161.6,37.8,163.2z M37.9,154.9
		c-0.5,0.5-0.5,0.9,0.2,1c0.9,0.2,0.6,0.6,0.3,1s-0.7,0.7-1.2,0.9c-1.7,1-3.5,1.8-5.8,1.5c2-1.6,3.6-3,4.8-4.8c0.7-1,1.6-1.8,3-1.4
		c0.4,0.1,0.5,0.4,0.2,0.7C39,154.1,38.4,154.4,37.9,154.9z M43.8,162c0,0.3-0.3,0.5-0.4,0.8c-0.2-0.1-0.6-0.2-0.7-0.4
		c-0.3-0.6-0.7-1.2-0.9-1.8c-0.3-0.9-0.6-1.9-0.9-2.8c-0.3-1.2,0-2.1,1.1-2.8c0.5-0.4,1.1-0.7,1.8-1.2V162z M44,151.7
		c0.1,0.1-0.2,0.6-0.4,0.8c-1,1.2-2.2,2.2-3.9,2.3c0,0.1-0.1,0.1-0.2,0.2c0,0,0-0.1,0-0.1c0,0,0.1,0,0.2-0.1
		c0.5-0.8,1.2-1.6,1.6-2.5c0.4-0.7,0.9-1.5,1-2.4c0.1-1.4,1-2.3,1.7-3.3c0.1-0.2,0.4-0.2,0.6-0.2c0.1,0,0.3,0.3,0.3,0.4
		c0.1,0.5,0.1,1,0.2,1.5c0.4,1,0.2,1.7-0.8,2.1C43.9,150.7,43.4,151,44,151.7z M47.5,155.7c0.2,1,0.1,2,0,3.4c-1-0.8-1.8-1.4-2.5-2
		c-0.2-0.2-0.3-0.7-0.3-1c-0.1-0.9-0.2-1.7-0.3-2.6c0-0.2,0-0.5,0.2-0.7c0.2-0.4,0.3-1,1-0.9c0.6,0.2,0.6,0.7,0.5,1.2
		c-0.1,0.5-0.3,1-0.4,1.4c0,0.2,0,0.6,0,0.7c0.2,0.1,0.6,0.2,0.8,0C47.2,154.7,47.4,155.2,47.5,155.7z M50.8,149.4
		c-0.7,0.5-1.5,0.9-2.2,1.4c-1,0.6-1.9,0.9-3.1,0.1c0.3-0.3,0.5-0.7,0.9-1c1.4-1,2.9-2,4-3.9c0.4,1.2,0.7,2,0.8,2.7
		C51.3,148.8,51.1,149.2,50.8,149.4z M53.9,145c-2.2,0.9-2.7,0.8-4.3-1.4c2,0.2,3.5-0.9,5-2.3c0.1,0.7,0.1,1.2,0.2,1.7
		C55.2,144.4,55.2,144.5,53.9,145z M55.1,139.7c-0.2,0.2-0.5,0.3-0.7,0.4c0.2-1.8,1.9-2.6,3-3.8c0.2-0.2,0.6-0.1,0.8,0
		c0.8,0.5,1.5,1,2.2,1.6c0.1,0.1,0.2,0.4,0.2,0.6c-0.1,0.3-0.3,0.5-0.5,0.7c0,0.1-0.3,0-0.5-0.2c-0.2-0.2-0.3-0.5-0.5-0.8
		c-1-1.4-1.7-1.5-2.9-0.2C55.7,138.6,55.5,139.2,55.1,139.7z M57.4,147.6c-0.1,0.2-0.2,0.3-0.4,0.3c-0.1,0-0.3-0.2-0.3-0.3
		c-0.2-1.2,0-1.7,1.4-2.5C57.8,146.1,57.6,146.8,57.4,147.6z M57.2,144.1c-0.4,0.5-0.9,0.4-1.1-0.2c-0.2-0.6-0.4-1.3-0.7-2.1
		c0.4-1,0.7-2.1,1.4-3c0.5-0.7,1.2-0.6,1.6,0.2c0.5,0.9,1,1.8,0.2,2.9C58.1,142.5,57.8,143.4,57.2,144.1z M62.3,147.3
		c0,0.5-0.1,1.1-0.2,1.6c0,0.1-0.2,0.3-0.3,0.3c-0.1,0-0.3-0.1-0.4-0.2c-0.7-0.7-1.3-1.5-1.9-2.2c-0.8-0.9-0.9-1.4-0.1-2.4
		c1.2-1.5,1.6-1.5,2.4,0.2c0.4,0.8,0.5,1.7,0.8,2.6C62.4,147.3,62.3,147.3,62.3,147.3z M63.1,145.2c-0.3-0.4-0.5-0.8-0.8-1.2
		c0.2-0.1,0.3-0.2,0.4-0.2c0.6-0.1,1.2-0.2,1.8-0.3c0.1,0,0.2-0.1,0.2-0.2c0,0,0,0.1,0,0.1c0,0-0.1,0-0.2,0.1
		c-0.2,0.4-0.4,0.9-0.7,1.2C63.6,145,63.1,145.2,63.1,145.2z M63.4,156c-0.3,0.1-0.8,0.2-0.9,0.1c-0.2-0.3-0.3-0.7-0.2-1
		c0.6-1.4,1.2-2.7,1.9-4.1C65.6,153.3,65.2,155.2,63.4,156z M65.4,164.1c-1.1,0-1.6-0.2-2-1.3c-0.2-0.5-0.4-1-0.5-1.4
		c0.8-0.4,1.5-0.7,2.4-1.2c-0.2,0.4-0.3,0.7-0.5,1c-0.1,0.3-0.1,0.6-0.2,0.9c0.3,0,0.7,0.1,1-0.1c0.7-0.4,1.4-0.9,2-1.3
		c0.2-0.1,0.4-0.2,0.7-0.2c0.1,0.3,0.2,0.6,0.2,0.9C68.4,162.7,66.7,164.1,65.4,164.1z M68.7,157.9c0-0.7,0-1.4,0-2.1
		c0-0.1,0.2-0.2,0.3-0.2c0.1,0,0.2,0.1,0.3,0.2C69.9,156.7,69.2,157.3,68.7,157.9z M68.9,154.2c-0.3-0.1-0.5-0.5-0.6-0.9
		c-0.1-0.4-0.1-0.9-0.1-1.3v-0.7c0-0.6,0.3-0.7,0.9-0.5c1.9,0.8,2.1,1.4,0.7,2.8C69.6,154,69.2,154.3,68.9,154.2z M70,159
		c0,0-0.2-0.2-0.2-0.2c0.1-0.2,0.2-0.3,0.3-0.5c0,0,0.1,0.1,0.2,0.2C70.2,158.6,70.1,158.8,70,159z M71.6,156.6
		c0,0.2-0.2,0.4-0.4,0.8c-0.3-0.6-0.6-1.1-0.8-1.5c0.1-0.1,0.1-0.2,0.2-0.3c0.4-0.1,0.8-0.2,1.2-0.3
		C71.7,155.7,71.6,156.2,71.6,156.6z M74.9,151.9c0,0-0.1,0.1-0.1,0.2c-0.7,0.4-1.4,1.1-2.3,1.2c-0.7,0.1-0.9,1.3-2,1.2
		c0.3-0.5,0.5-0.9,0.8-1.3c0.5-0.9,0.8-1.7,0.7-2.7c0-0.5,0.1-1,0.2-1.5s0.3-0.7,0.8-0.3c0.5,0.3,1,0.6,1.5,1
		C75.7,150.6,75.8,150.9,74.9,151.9z M75.8,149.5c-0.8-0.5-1.6-1-2.3-1.5c-0.8-0.6-0.8-1.1-0.1-1.8c0.5-0.6,1.1-1.2,1.7-1.9
		C76,146.8,76.2,147.9,75.8,149.5z M78.4,145.4c-0.3,0.2-0.7,0.3-1,0.5c-0.2,0.2-0.3,0.5-0.5,0.7c0.3,0,0.5,0,0.8,0h0.5
		c-0.5,0.6-0.9,1.1-1.3,1.6c-0.1-0.2-0.2-0.4-0.3-0.5C76.2,145.8,76.4,145.5,78.4,145.4c0.3-0.5,0.8-0.3,1.2,0H78.4z M78.2,144.3
		c-0.7,0-1.3,0.3-2,0.5c-0.1-0.2-0.1-0.3-0.1-0.5c-0.8-1.9-0.3-2.5,1.9-2.6c1.1,0,2.2,0.2,3.3,0.3c0.3,0,0.3,0.3,0.1,0.5
		C80.5,143.4,79.6,144.3,78.2,144.3z M81,149.5c-0.3-2-0.7-4,0.5-5.8C83.6,146.7,83.5,147.6,81,149.5z M84.9,148.7
		c-1-1.8-1.5-3.8-2.4-5.9c0.6,0.1,1,0,1.3,0.2c1.2,0.6,1.7,1.9,2.3,2.9C86.6,146.6,86.1,147.5,84.9,148.7z M87,145.4
		c-0.3-0.3-0.6-0.7-0.9-1.1c0-0.1,0-0.3,0.1-0.5c0-0.1,0.2-0.1,0.3-0.1c0.6,0.1,1.1,0.9,1.1,1.5c0,0.1-0.1,0.3-0.2,0.3
		C87.3,145.5,87.1,145.5,87,145.4z M88.4,150.3c-0.3,0.2-0.7,0.5-1.2,0.8c0.2-1.4,0.4-2.7,0.6-4.1c0-0.2,0.2-0.5,0.3-0.7
		c0.3-0.5,0.6-0.6,1-0.2C90,147.5,89.8,149.4,88.4,150.3z M91.7,146.8c0,0-0.1,0-0.2,0.1c0,0.2,0,0.3-0.1,0.3
		c-0.2,0.3-0.5,0.7-0.7,1c0,0-0.3-0.1-0.3-0.2c-0.1-0.7,0.2-1,0.9-1.2h0.2c0,0,0.1-0.1,0.2-0.2C91.7,146.7,91.7,146.8,91.7,146.8z
		 M98,143.3c-0.8,0.4-0.9-0.7-1.2-1.3c0-0.1,0-0.2,0-0.2c-0.2-0.2-0.3-0.3-0.5-0.4c-0.1,0.2-0.2,0.4-0.3,0.7c0,0.1,0,0.2,0,0.3
		c0.6,1.4,0.5,1.5-0.4,2.3c-0.6,0.5-1.2,1-1.9,1.4c0.7-1.3,2-2.2,2.4-3.7c-0.3,0-0.7,0-1.1,0c-0.2-0.1-0.7-0.3-0.7-0.4
		c0-0.3,0.2-0.7,0.5-0.9c0.9-0.5,2.2-0.1,2.6,0.8C97.6,142.3,98.6,143,98,143.3z M101.9,140.9c-0.3,1.1-0.9,2-1.9,2.6
		c-0.1,0.1-0.2,0.2-0.4,0.3c-0.5-0.9-1.1-1.7-1.6-2.6c1-0.4,1.9-0.7,2.7-1.1c0.2-0.1,0.3-0.5,0.5-0.7c-0.3-0.2-0.5-0.3-0.8-0.4
		c-0.2-0.1-0.5,0-0.7-0.1c-1.4-0.4-1.6-1-0.7-2.2c0.3-0.4,0.7-0.9,1.2-1.4c0.2,0.5,0.5,0.9,0.7,1.3c0.2,0.5,0.2,1,0.5,1.4
		C102,138.8,102.2,139.8,101.9,140.9z M102.3,137.9c-0.1-0.1-0.2-0.3-0.2-0.5c0-0.1,0.1-0.2,0.2-0.2c0.3-0.1,0.6-0.1,0.9-0.2
		c0.6-0.1,1.3-1,1.8-0.4c0.4,0.4,0.2,1.4,0.3,2.1c-0.9-0.2-1.5-0.3-2.2-0.5C102.9,138.1,102.6,138.1,102.3,137.9z M105.8,143.8
		c-0.9-0.1-1.5-0.4-1.7-1.5c-0.1-1-0.7-2-1.1-3.1c0.8-0.3,1.4,0,1.7,0.6c1.1,1.8,2.8,2.6,5.3,2.7c-1,0.5-1.6,0.9-2.2,1.1
		S106.4,143.9,105.8,143.8z M103.9,156.1c-0.8,0.8-1.7,1.2-3.2,0.6c1.7-1,2.4-2.2,2.9-3.7c0.4-1,1-2,1.6-2.9
		c0.2-0.2,0.6-0.4,0.9-0.4c0.1,0,0.3,0.5,0.4,0.7c0.4,1.1,0.3,2.1-0.6,3.1C105.2,154.3,104.6,155.3,103.9,156.1z M106.9,153.4
		c0.3,0.8-0.2,1.1-0.7,1.4c0,0.1-0.1,0.1-0.2,0.2c0,0,0-0.1,0-0.1c0,0,0.1,0,0.2-0.1C106.4,154.3,106.6,153.8,106.9,153.4z
		 M107.3,159.9c0.5,1.4,0.4,1.9-0.6,3.4c-0.5-1.1-1.8-1.6-1.7-3.1c0.1-1.5,0.2-2.9,1.5-4.4C106.2,157.5,106.9,158.7,107.3,159.9z
		 M108.9,153.7c-1.4-1.7-2-3.4-1.9-5.6c0.3,0.2,0.4,0.2,0.5,0.3C109.5,150.5,109.5,150.5,108.9,153.7z M111.3,149.2
		c-1,0.5-1.4,0.5-2.2-0.2c-1.2-0.9-1.4-2.3-1.5-3.6c0-0.6,0.3-1,0.8-1c1.7-0.1,2.9,0.8,3.2,2.4c0,0.2,0,0.5,0.1,0.7
		C112.2,148.2,112.2,148.7,111.3,149.2z M111.6,144.2c-0.5-0.1-1-0.3-1.5-0.5c0.1-0.1,0.1-0.3,0.2-0.3c1.4-1.5,1.4-1.5-0.5-2.1
		c-0.2,0-0.5-0.3-0.5-0.6c-0.1-0.3-0.1-0.6,0-0.9c0.1-0.4,0.2-0.8,0.3-1.2c0.5,0.2,1.2,0.2,1.6,0.6c0.3,0.2,0.4,0.9,0.5,1.3
		c0.3,1,0.6,2,1.5,2.7c0.5,0.4,0.3,0.9-0.3,1C112.5,144.3,112,144.3,111.6,144.2z M114.6,149c-0.5,0.6-1.1,0.9-2.1,0.8
		c0.6-0.6,1-1.1,1.5-1.5c0.1-0.1,0.5,0,0.6,0C114.7,148.5,114.7,148.9,114.6,149z M115.1,146.8c-0.1-0.1-0.6-0.1-0.8,0
		c-0.4,0.3-0.7,0.7-1.1,1c-1-1.6-0.9-2.3,0.9-3c1.2-0.5,1.2-0.5,2,0.5c0.5,0.6,1,1.1,1.6,1.7C116.6,147.5,115.7,147.8,115.1,146.8z
		 M118.1,146.1c-0.4-0.2-0.7-0.5-1-0.9c-1-1.1-0.9-1.4,0.5-1.7c0.3,0,0.5-0.2,0.8-0.3c0.1,0,0.3-0.1,0.4-0.1c1.4,1.4,3.3,2.4,3.2,5
		C120.6,147.4,119.3,146.8,118.1,146.1z M126.5,147.2c-1.1-0.3-2.3-0.7-3.3-1.2c-0.8-0.5-1.4-1.3-2.1-2c-0.1-0.1,0.1-0.5,0.2-0.7
		c0.2-0.3,0.6-0.7,0.7-0.6c1.6,0.9,3.5,1.3,4.6,3c0.2,0.3,0.3,0.8,0.6,1.3C126.9,147,126.6,147.3,126.5,147.2z M130.6,144.7
		c-0.6,0.8-1.5,1-2.5,1c-0.2,0-0.5-0.3-0.7-0.5c-0.3-0.4-0.5-0.9-0.7-1.3c-0.6-0.3-1.2-0.6-1.8-0.9c0.5-0.2,0.8-0.4,1.1-0.6
		c0.2-0.2,0.5-0.3,0.7-0.5c0.4-0.3,1-0.7,0.7-1.4c-0.2-0.2-0.8-0.3-1.2-0.3c-1.3-0.2-1.8-0.5-2-1.5c0-0.2,0-0.4,0.1-0.5
		c0-0.1,0.4,0,0.4,0c0.4,0.7,0.9,0.3,1.3,0.1c1.6-0.9,3.1-1.8,4.6-2.7c0.2,1.5-0.4,2.6-1.7,3.1c-0.4,0.2-0.8,0.3-1.2,0.5
		c-0.1,0.1-0.2,0.3-0.2,0.5c0,0,0.2,0.2,0.3,0.2c1.5-0.3,2.6,0.5,3.7,1.4c1.4,1,3,1.5,5.1,1.2c-0.6,0.5-1,0.8-1.4,1.1
		c-0.6,0.4-1.3,0.6-2.1,0.3c-1.1-0.4-2.2-0.9-3.1-1.7c-0.3-0.3-0.5-0.3-0.7,0.2c-0.1,0.3-0.2,0.9-0.4,1c-0.3,0.2-0.9,0.2-1.3,0.1
		c-0.6-0.2-1.2-0.5-1.7-0.7c0.2,0.5,0.5,1,0.7,1.5c1.1,0,2.2-0.1,3.3-0.1c0.2,0,0.5,0.1,0.6,0.2S130.7,144.5,130.6,144.7z
		 M137.7,149.6c-1.5,0.9-2.9,1-4.3-0.2c-0.5-0.4-1.1-0.6-1.6-0.9c-0.4-0.3-1.1-0.6-1.1-0.9c0-0.5,0.5-1-0.1-1.4
		c0.4-0.5,0.7-1,1.2-1.4c0.2-0.1,0.7-0.2,0.8,0c1,0.9,2.4,1.2,2.9,2.9C135.9,148.3,137,148.8,137.7,149.6z M137.6,144.5
		c-0.6,0.4-1.2,0.8-1.9,1.2c-0.3-0.2-0.5-0.4-0.7-0.7c0-0.1,0.2-0.5,0.4-0.6c0.5-0.3,1-0.7,1.6-0.9c0.2-0.1,0.5,0.1,0.9,0.2
		C137.7,144,137.7,144.4,137.6,144.5z M140.2,143.1c-0.8,0.1-1.6-0.2-2.4-0.3c0.3-0.7,0.5-1.2,0.7-1.7c-0.6,0.1-1.2,0.1-1.8,0.2
		c-0.8,0.2-1.5,0.6-2.5,0c1.5-0.9,2.7-2,4.6-1.2c1.4,0.6,3,0.5,4.6,0.2c1.4-0.2,3-0.2,4.4-0.1c0.8,0,1.5,0.2,2.3,0.3v0.2
		c-1.9,0.5-3.7,0.9-5.6,1.4C143.1,142.5,141.6,142.9,140.2,143.1z M147.6,147c-0.5,0.1-1,0.2-1.5,0.2c-1.6,0.3-3.6-1-4-2.6
		c-0.1-0.6,0.1-1,0.7-1.2c1.6-0.3,3.3-0.6,4.9,0.3c1.2,0.7,2.4,1.3,3.6,2C150.2,146.7,148.8,146.5,147.6,147z M152.5,143.6
		c-0.5,0.2-1,0.4-1.5,0c-0.1-0.1-0.4-0.2-0.5-0.2c-1.5,1-2.2-0.7-3.4-1.1c0.9-0.2,1.7-0.4,2.6-0.6c0.9-0.2,1.9-0.2,2.7-0.5
		s1.4-0.3,1.8,0.6c0.2,0.3,0.4,0.6,0.7,0.9C154.1,142.9,153.3,143.2,152.5,143.6z M155.3,148.3c0-1.3,0.1-2.4,0-3.5
		c-0.1-0.9,0.3-1.2,1.1-1.4c0.4-0.1,0.9-0.2,1.3-0.2c0.2,0,0.5,0.3,0.6,0.5C158.4,145.1,156.9,147.5,155.3,148.3z M157.7,142
		c-0.7,0-1.4-0.2-2-0.4c-0.3-0.1-0.8-0.4-0.8-0.7c0-1.2-0.8-1.2-1.6-1.2h-0.7c1.3-1.1,2.6-0.4,3.9,0.1c1.1,0.5,2.2,1.1,3.2,1.6
		C159.3,142.1,158.5,142.1,157.7,142z M158.5,140c0.9-0.4,1.9-0.9,2.7-1.4c0.5-0.2,0.7-0.1,0.9,0.3c0.2,0.4,0.1,0.7-0.3,0.9
		C160.7,140.5,159.6,140.5,158.5,140z M164.2,144.4c0,1-0.4,1.8-1.4,2.2c-0.9,0.3-1.8,0.7-3.1,1.1c0.9-2.6,1.7-4.7,3.4-6.3
		c0.2-0.2,0.5-0.4,0.6-0.3c0.2,0.2,0.4,0.5,0.5,0.7C164.3,142.7,164.3,143.6,164.2,144.4z M162.9,138.5c-0.2-0.6,0-1,0.4-1.3
		c0.2-0.1,0.5-0.2,0.6-0.1c1.5,1.8,3.2,1.4,5.3,0.5c-0.8,2.1-2.1,3.1-3.8,2.9C164.1,140.4,163.3,139.7,162.9,138.5z M169.3,144.6
		c-1.7-0.2-3.1-1.5-3.1-2.8c0-0.2,0.2-0.4,0.3-0.4c0.3-0.1,0.8-0.1,1.1-0.3c0.6-0.3,0.9,0.1,1,0.5
		C168.8,142.6,169,143.5,169.3,144.6z M165.3,149c-0.3-0.7-0.5-1.4-0.7-2c0-0.2,0-0.4,0.1-0.5c0.7-1,0.7-2.2,0.5-3.3
		c0-0.2,0.2-0.3,0.3-0.5c0.1,0.1,0.2,0.2,0.3,0.4c0.6,0.9,1.2,1.8,1.9,2.7C166.4,146.2,167,148.5,165.3,149z M174.9,154.2
		c-0.5,0.5-1.2,0.2-1.9,0c-0.4-0.2-0.9-0.2-1.3-0.3c-1-0.2-1.5-0.7-1.7-1.7c-0.1-0.7-0.6-1.2-0.9-1.8c-0.3-0.6-0.6-1.3-1-2.2
		c1.3,0.4,2.4,0.6,3.2,1.1c1.3,0.7,2.6,1.6,3.1,3.2C174.6,153.1,175.1,153.9,174.9,154.2z M174.2,149.8c-0.4-0.1-0.7-0.4-1.1-0.6
		c-0.6-0.3-1.2-0.9-1.9-1c-1.2-0.2-1.9-0.9-2.9-1.6c2,0,4-0.1,5.9,0.1c0.7,0,1.4,0.4,2,0.9c1,0.9,2,1.9,3.2,3.2
		C177.4,150.4,175.7,150.1,174.2,149.8z M177.3,151.8c-0.1-0.1,0-0.3,0.1-0.4c0-0.1,0.2,0,0.3,0c0.2,0.1,0.4,0.2,0.5,0.3
		c0.6,1.1,1.3,2.1,1.5,3.4C178.4,154.3,178.1,152.9,177.3,151.8z M184.4,153.6c0.5,0.3,0.2,0.5-0.2,0.6c-0.9,0.2-1.7,0.3-2.6,0.4
		c-0.4-0.1-1-0.1-1.2-0.3c-0.4-0.6-0.7-1.4-0.7-2c0-0.3,0.5-0.8,0.9-1c0.1-0.1,0.5,0.2,0.8,0.3C182.4,152.2,183.4,152.9,184.4,153.6
		z M184.8,148.8c-0.4,0.6-1,1.2-1.5,1.7c-0.3,0.2-0.7,0.3-1,0.5c-0.3-0.2-0.5-0.3-0.7-0.5c-0.1-0.2,0-0.5,0.1-0.6
		c0.2-0.2,0.4-0.4,0.7-0.7c0.3-0.3,0.4-0.6,0.2-1.2c-0.2-0.8,0.2-1.8,0.5-2.6c0.1-0.2,0.5-0.3,0.8-0.3c0.3,0,0.6,0.1,0.8,0.2
		C185.7,146.3,185.7,147.6,184.8,148.8z M185.5,145c0.3-0.3,0.6-0.5,0.9-0.8c0.2-0.2,0.5-0.4,0.7-0.7c0.8-0.9,0.7-1.4-0.3-2
		c-0.3-0.2-0.7-0.4-0.9-0.7c-0.1-0.1,0-0.5,0.1-0.7c0.1-0.2,0.3-0.2,0.5-0.3c0.2,0.1,0.5,0.2,0.6,0.5c0.3,0.5,0.7,1,1,1.6
		c0.4,0.7,0.8,1.4,1.2,2c0.3,0.5,0.3,1-0.2,1.3c-0.7,0.3-1.5,0.5-2.3,0.5C186.3,145.7,185.9,145.3,185.5,145z M190.4,151.5
		c-0.1,0.9-0.5,1-1.3,0.5c-0.9-0.6-1.6-1.3-2.3-2.1c-0.2-0.3-0.4-0.9-0.3-1.2c0.3-0.8,0.5-1.4-0.3-2c0.7-0.2,1.4-0.4,2.1-0.5
		c1.1-0.2,2,0.4,2.2,1.5C190.5,149,190.5,150.2,190.4,151.5z M191.1,146.2c-0.3-0.3-0.7-0.5-0.1-1c0.4-0.3,0.1-0.7-0.3-1
		c-1.4-1.2-1.4-1.2-1.9-2.4c1.9-0.5,3.4,0,4.6,1.5c0.8,0.9,1.8,1.6,2.7,2.4C194.8,147.2,192.6,147.4,191.1,146.2z M198.1,147.6
		c-0.5,0.2-1,0.3-1.4,0.4c-0.4,0-0.7,0-0.8-0.1c-0.2,0-0.3-0.2-0.4-0.3c0-0.1,0.1-0.2,0.2-0.3c0.5-0.3,1.1-0.6,1.5-1
		c0.3-0.3,0.5-0.7,0.7-1.1c-0.4-0.2-0.7-0.5-1.1-0.6c-1.2-0.4-1.3-1-0.5-1.9c0.1,0,0.1-0.1,0.2-0.1c0.5-0.3,1-0.6,1.6-0.9
		c0.1,0.6,0.2,1.2,0.3,1.7c0.2,0.7,0.2,1.5,0.4,2.2C199.1,146.9,199.1,147.1,198.1,147.6z M200.1,144.8c-0.3-0.2-0.8-0.3-0.9-0.6
		c-0.1-0.5,0-1.1,0.2-1.6c0-0.1,0.5-0.1,0.7,0c0.3,0.2,0.6,0.4,0.8,0.7s0.3,0.7,0.4,1.1C201,144.5,200.6,144.6,200.1,144.8z
		 M202.8,141.6c-0.5,0.1-1.1,0-1.7,0c-0.9,0-1.6,0-2.2-0.7c-0.5-0.6-1.1-0.6-1.9-0.5c-0.9,0.2-1.7,0-2.6,0c1.3-0.6,2.6-1.2,3.5-2.4
		c0.4-0.5,0.9-0.4,1.3-0.2c1.5,0.5,2.9,1.2,3.9,2.4c0.3,0.4,1,0.8,1,1C204,141.9,203.3,141.5,202.8,141.6z M203.4,139.3
		c-0.7-0.5-1.4-1-2-1.6c-0.3-0.2-0.6-0.5-0.9-0.7c0.4-0.1,0.8-0.2,1.2-0.2c0.9-0.1,1.5,0.1,2.2,0.7c0.9,0.8,2,1.4,3,2.2
		c-0.4,0.1-0.7,0-1,0.2C204.9,140.4,204.1,139.9,203.4,139.3z M205.6,141.2c0.9-0.4,1.5-0.5,1.9-0.8c0.3-0.2,0.6-0.5,0.6-0.9
		c0-0.3-0.3-0.7-0.6-0.8c-0.9-0.3-1.7-0.5-2.2-1.3c2.2-0.5,2.5-0.3,3.5,1.5c0.4,0.8,0.8,1.6,1.2,2.4c0.1,0.2,0.2,0.3,0.3,0.7
		C208.7,142,207.3,141.7,205.6,141.2z M212.8,140.3c-0.5,0.1-0.7,0.2-0.9,0.2c-0.6-0.3-1.2-0.7-1.8-1.1c0-0.1,0.1-0.2,0.1-0.2
		c0.6,0.2,1.2,0.5,1.9,0.7C212.2,140,212.4,140.1,212.8,140.3z M217.6,143.5c0.8-1.5,1-2.9,1-4.5c0-1,0-1,0.6-2
		C221.9,139.5,221.3,142.3,217.6,143.5z M228.2,142.5c-0.2,0.2-0.4,0.3-0.6,0.5c-0.2,0.2-0.4,0.3-0.6,0.5c-0.6-0.9-1.2-1.8-0.9-2.7
		c0.3-0.9,0.9-1.6,0.3-2.6c0-0.1,0.1-0.3,0.2-0.3c0.2,0,0.4,0,0.5,0.1c0.2,0.3,0.4,0.7,0.6,1.1c0.2,0.3,0.4,0.8,0.7,1.1
		C229.6,141.4,229.6,141.4,228.2,142.5z M289.9,137.3c0,0,0.2,0,0.3,0c0.2,0.2,0.5,0.4,0.7,0.7c0.2,0.2,0.3,0.7,0.5,0.7
		c1.9,0.5,1.9,2.6,2.9,3.7c0.1,0.1,0,0.2,0,0.3c-1.4-1.4-2.7-2.8-4.1-4.3c-0.2-0.2-0.4-0.5-0.5-0.7
		C289.6,137.7,289.8,137.4,289.9,137.3z M285.2,137.2c0.3-0.4,0.7-0.3,1.1-0.1c0.7,0.3,0.1,0.7,0,1c0,0.1-0.1,0.2-0.2,0.3
		c-0.3,0.5-0.6,1-0.9,1.5c-0.5-0.3-1.1-0.7-1.5-1.1C284.2,138.3,284.7,137.8,285.2,137.2z M283.5,137.5c0.1-0.1,0.1-0.1,0.2-0.2
		c0,0,0,0.1,0,0.1C283.6,137.5,283.5,137.5,283.5,137.5c-1.3,1.6-3.1,2.1-5.2,2.2C280,139,281.8,138.2,283.5,137.5z M281.9,140.8
		c-0.1,0.2-0.4,0.3-0.5,0.3c-0.4-0.1-0.8-0.3-1.2-0.4c0-0.1,0-0.2,0-0.3c0.4-0.1,0.8-0.2,1.2-0.3c0.1,0,0.4,0,0.4,0.1
		C282,140.3,282,140.6,281.9,140.8z M277.3,137.3c1.3-0.7,2.7-0.7,4.3,0.2c-3,1.4-6,2.4-9.5,2.7
		C274.1,139.1,275.7,138.1,277.3,137.3z M278.2,139.8c-0.1,0.1-0.3,0.2-0.5,0.3c-0.1,0-0.2,0-0.3-0.1c0.1-0.1,0.2-0.2,0.3-0.2
		C277.9,139.8,278,139.8,278.2,139.8z M273.6,141.1c-0.2,0-0.3,0.1-0.5,0.1c-0.2,0-0.3-0.1-0.5-0.1c0.2-0.1,0.3-0.2,0.5-0.3
		C273.2,141,273.4,141,273.6,141.1z M271.9,139c0.4-0.3,0.8-0.7,1.4-1.1C273.2,139,272.6,139,271.9,139c-0.2,0.2-0.3,0.4-0.4,0.6
		c-0.2,0.3-0.3,0.8-0.4,1.2c-0.4-0.3-0.8-0.5-1.4-0.9C270.5,139.6,271.2,139.3,271.9,139z M271.5,142.2c-2,0.5-3-0.7-4.1-1.9
		C269.5,139.8,270.3,141.2,271.5,142.2z M260,139.2c0.6,0.1,1.3,0,1.9-0.1c-1.1,1.9-3,2.5-4.9,2.8c-1.9,0.3-3.8,0.3-5.4-1
		c1-0.7,2.1-1.5,3.5-1.7C256,139.2,259.1,139.2,260,139.2z M261.9,141.7c-0.1,0.1-0.2,0.3-0.3,0.3c-0.3,0-0.6,0-0.9,0
		c0-0.1-0.1-0.2-0.1-0.3c0.3-0.1,0.7-0.3,1-0.3C261.6,141.4,261.8,141.6,261.9,141.7z M255.3,144.3c-2.1-0.2-3.9-0.3-5.7-0.7
		c-0.8-0.2-1.2-0.7-1.7-1.5c1.7,0,3.2-0.3,4.5,0.4C253.4,143,254.2,143.6,255.3,144.3z M249.4,140.3c0.7,0.1,0.9-0.3,0.5-0.9
		c-0.2-0.3-0.5-0.5-0.7-0.9c-0.6-0.9-0.5-1.3,0.7-1.4c1.7-0.2,3.4-0.2,4.6,1.4c-0.8,0.4-1.7,0.8-2.5,1.2c-0.4,0.2-0.9,0.3-1.1,0.7
		c-0.7,1.2-1.8,0.7-2.9,0.9C248.4,140.6,248.6,140.2,249.4,140.3z M241.9,138.6c1.1-0.5,2.1-0.2,3.1,0.4c0.8,0.4,1.7,0.6,2.9,0.9
		c-0.4,0.3-0.8,0.9-1.1,0.9c-1.4,0-2.9,0.3-4.1-0.9c-0.5-0.5-1.1-0.8-1.8-1.2C241.3,138.7,241.6,138.8,241.9,138.6z M242.1,140.7
		c1,1,2.3,1.8,3.8,2.3c-0.2,0.1-0.3,0.1-0.5,0.2c-2.3,0.4-4.1-0.4-5.2-2.6c-0.1-0.2-0.3-0.3-0.5-0.5c-0.1-0.2-0.2-0.3-0.3-0.6
		C240.5,139.5,241.4,140,242.1,140.7z M242.8,144.9c-0.2,0.5-0.5,0.9-0.8,1.4c-0.2-0.2-0.6-0.4-0.6-0.7c-0.1-0.4-0.1-0.9,0.2-1.1
		c0.2-0.2,0.8-0.2,1.2-0.2C242.7,144.4,242.9,144.8,242.8,144.9z M230.6,137.3c0.5,0,1.1,0.1,1.6,0.3c1.2,0.5,2.5,1.1,3.8,1.7
		c-1.2,0.5-2.3,0.8-3.4,0c-0.6-0.5-1.5-0.5-2.2-0.9c-0.2-0.1-0.5-0.4-0.4-0.5C230.2,137.6,230.5,137.3,230.6,137.3z M230.6,142.7
		c-0.5,0-0.7-0.3-0.6-0.9c0.2-0.8,0.2-1.5,0.3-2.4c1.8,0.3,2.7,1.7,3.5,3.1C232.7,143.1,231.6,142.8,230.6,142.7z M233.7,140.8
		c0.2-0.1,0.3-0.2,0.4-0.2c0.7,0,1.2,0.5,1.2,1.2c0,0.1,0,0.2,0,0.2c-0.2,0-0.4,0.2-0.5,0.1C234.4,141.5,234.1,141.2,233.7,140.8z
		 M235.8,148.4c-0.7,1-1.5,2-3.1,2.6c0.7-1.3,1.3-2.2,1.9-3.2c0.2-0.3,0.5-0.6,0.9-0.3C235.7,147.7,235.9,148.3,235.8,148.4z
		 M238.1,148.9c-1-0.9-1.9-1.7-2.8-2.6c-0.2-0.2-0.5-0.4-0.7-0.7c-1.1-1.4-0.7-2.5,1.1-2.8c0.2,0,0.6,0.1,0.8,0.3
		C238.1,144.8,238.4,146.8,238.1,148.9z M239,145.6c-0.2-0.3-0.3-0.5-0.4-0.8c0-0.1,0.3-0.4,0.4-0.4c0.2,0.1,0.4,0.3,0.7,0.5
		C239.5,145.2,239.3,145.4,239,145.6z M236.1,141.3c-0.3-0.7-0.2-0.9,0.6-1.1c1.7-0.5,1.9-0.4,2.9,1c0.4,0.7,0.7,1.4,1.3,2.4
		C238.7,143.3,236.9,143.2,236.1,141.3z M245.9,149c0.1,0.2,0.1,0.4,0,0.5c0,0.1-0.3,0.2-0.4,0.1c-1.4-0.5-2.8-1-4.2-1.5
		c-1-0.5-1-0.6-1-2.2c0.5,0.6,0.9,1.2,1.3,1.7c0.4,0.4,0.8,0.4,1-0.2c0.2-0.6,0.5-1.2,0.8-1.9c0.9,0.4,1.5,0.8,1.5,1.9
		C244.9,148,245.6,148.4,245.9,149z M245.8,145.9c-0.8-0.4-1.7-0.7-1.8-1.9c0.6,0,1.1,0,1.7,0c0.2,0,0.5,0.1,0.6,0.3
		c0.4,1.1,1.4,1.7,2.2,2.4C247.5,146.7,246.6,146.3,245.8,145.9z M249,145.3c-0.7,0-1.4-0.3-1.7-1c0-0.2-0.1-0.4,0-0.5
		c0.1-0.1,0.3-0.2,0.4-0.3c0.2,0,0.3,0,0.3,0.1c1.6,1,3.5,1.1,5.3,1.4c0.3,0,0.8,0.2,0.9,0.5c0.5,0.9,0.9,1.7,1.2,2.7
		c0.1,0.2-0.1,0.7-0.3,0.8c-0.2,0.1-0.6,0-0.8-0.2c-0.5-0.4-1-0.9-1.5-1.4C252,146.1,250.7,145.5,249,145.3z M256.4,149.6
		c0.2-0.2,0.5-0.3,0.6-0.2c0.2,0.1,0.2,0.4,0.3,0.6c0.2,1.5-0.8,2.6-1.4,3.8c0,0-0.5,0-0.6-0.1c-1.2-1.3-2.5-2.4-4-3.3
		c-0.7-0.4-0.8-1.1-0.7-1.8c0.1-0.5,0.2-1.1,0.3-1.6c0,0,0,0,0,0c0.5,0.3,1,0.5,1.4,0.9c0.7,0.6,1.2,1.2,1.9,1.8
		C255,150.4,255.3,150.3,256.4,149.6z M256.1,145.7c-0.2-0.1-0.3-0.2-0.4-0.3c0-0.1-0.1-0.2-0.2-0.2c0,0,0.1,0,0.1,0
		c0,0,0,0.1,0.1,0.2c0.2,0,0.3,0.1,0.5,0.1C256.2,145.6,256.2,145.6,256.1,145.7z M255.9,142.9c1.3-0.2,2.4-0.3,3.6-0.5
		C258.5,143.8,257.3,143.6,255.9,142.9z M264.2,148.7c-0.2,0.7-0.9,0.4-1.4,0.4c-1.3-0.1-2.6-0.3-3.5-1.5c-0.6-0.8-1.4-1.4-2.5-2.3
		c2.5,0.3,4.5,0.5,6,2c0.2,0.2,0.3,0.3,0.4,0.4C263.5,148.1,264.2,148.5,264.2,148.7z M265.2,145.5c-1,0.3-1.8,0.7-2.9,0.1
		c-1.1-0.5-2.4-0.5-3.7-0.8c0-0.2,0-0.3-0.1-0.4c0.6-0.3,1.2-0.6,1.8-0.9c0.8-0.4,1.7-0.5,2.5-0.2c0.8,0.3,1.6,0.6,2.4,0.9
		c0.3,0.1,0.5,0.4,0.8,0.6C265.8,145.1,265.5,145.4,265.2,145.5z M264.2,142.9c0,0-0.2,0-0.2-0.1c-0.3-0.9-0.6-1.7-1.7-1.9
		c0,0-0.1-0.4,0-0.5c0.3-0.5,0.6-0.9,0.9-1.4c0-1.1,0.9-1.3,1.5-1.3c1.8,0,3.6,0.2,5.4,0.3c0.1,0,0.3,0.2,0.7,0.5
		c-1.5,0.5-2.8,0.9-4.2,1.2c-0.3,0.1-0.7-0.2-1-0.3c-0.8-0.1-1.6-0.2-2.4-0.4c1,0.9,1.7,2.2,3.3,1.9c0.3,0,0.6,0.3,0.9,0.6
		c0.7,0.5,1.3,1.1,2.1,1.8C267.6,143.7,265.9,143.5,264.2,142.9z M273.5,146.1c-0.2,0.2-0.9,0.1-1.3,0c-1.3-0.3-2.5-0.7-3.6-1.5
		c0.2-0.1,0.3-0.2,0.3-0.2c1.2,0.2,2.4-1.1,3.6-0.6c1.1,0.5,2,1.3,3.1,2C274.9,146,274.1,145.2,273.5,146.1z M280.5,146.7
		c-1,0.7-2.3,0.8-3.4,0.1c-0.1-0.1-0.2-0.4-0.2-0.6c0-0.1,0.2-0.2,0.2-0.3c0.5-1,0.4-1.2-0.6-1.3c-1.5-0.1-2.6-0.6-3.3-2
		c-0.1-0.2-0.5-0.3-0.9-0.5c1.7-0.3,2.9-0.1,4,1.2C277.6,144.6,279.1,145.6,280.5,146.7z M275.8,141.5c1.7-1.1,3.4-0.5,5.1,0.3
		c0.9,0.4,1.7,0.8,2.6,0.9c0.3,0,0.6,0.2,0.9,0.3C281.1,144.8,278.2,144.3,275.8,141.5z M283.6,141.8c-0.7-0.2-1-0.9-0.6-1.6
		c0.2-0.3,0.6-0.5,0.9-0.2c0.6,0.6,1.2,1.2,2.1,2.1C284.8,142,284.2,142,283.6,141.8z M288.7,143.8c-0.7-0.3-1.1-0.4-0.9,0.6
		c0,0-0.3,0.2-0.4,0.2c-0.2,0-0.5,0-0.7,0c-0.6-0.1-1.4,0.4-1.8-0.4c-0.1-0.2,0.9-0.6,1-1.1c0.5-1,1.2-0.9,2-0.6
		c0.7,0.2,1.4,0.3,2.2,0.4C289.7,143.5,289.4,144.1,288.7,143.8z M290.1,144.6c0.6-0.7,1.2-1.4,1.8-2c-0.7-0.9-1.7-0.4-2.6-0.5
		c-1-0.1-2.2-0.1-2.7-1c-0.5-1,0.3-2.1,0.8-3.1c0.3-0.5,0.7-0.5,1.1-0.1c1.8,1.9,3.8,3.5,5.1,5.9c0.3,0.6,0.3,0.9-0.3,0.8
		C292.2,144.5,291.1,145.1,290.1,144.6z M295.4,147.9c0,0.1-0.3,0.3-0.3,0.3c-1.1-0.2-2.4-0.2-3.2-1.1c-0.7-0.7-0.5-1.4,0.4-1.6
		c0.3-0.1,0.7-0.1,0.9-0.1C294.5,145.5,295.6,146.7,295.4,147.9z M294.9,140.2c-0.2,0.1-0.4,0.1-0.6,0.1c0-0.3-0.1-0.7,0-0.8
		c0.5-0.3,1.1-0.5,1.6-0.7c0.1,0.2,0.2,0.3,0.3,0.4C295.8,139.5,295.4,139.8,294.9,140.2z M298.8,137.8c-0.1-0.1-0.2-0.2-0.3-0.3
		c-1.7-0.3-3.3,0.4-4.8,1.1c-0.5,0.2-0.9,0.3-1.1-0.3c1.1,0,2-0.5,2.7-1.3c1-1.2,1-1.2,2.4-0.3c0.3,0.2,0.6,0.5,0.9,0.8
		c0.2,0,0.3,0.1,0.5,0.1C298.9,137.7,298.8,137.7,298.8,137.8z"/>
	<path d="M53.6,149.9c0,0.1-0.1,0.1-0.2,0.2C53.5,150,53.5,149.9,53.6,149.9z"/>
	<path d="M71.8,149.9c0,0,0,0.1,0,0.2c0.1,0,0.2,0,0.2,0c0,0,0-0.1,0-0.2C71.9,149.9,71.8,149.9,71.8,149.9z"/>
</g>
</svg>
