<?xml version="1.0" encoding="utf-8"?>
<!-- Generator: Adobe Illustrator 18.0.0, SVG Export Plug-In . SVG Version: 6.00 Build 0)  -->
<!DOCTYPE svg PUBLIC "-//W3C//DTD SVG 1.1//EN" "http://www.w3.org/Graphics/SVG/1.1/DTD/svg11.dtd">
<svg version="1.1" id="Layer_1" xmlns="http://www.w3.org/2000/svg" xmlns:xlink="http://www.w3.org/1999/xlink" x="0px" y="0px"
	 viewBox="0 0 638.2 488.1" enable-background="new 0 0 638.2 488.1" xml:space="preserve">
<path d="M145.4,474.3c-0.1,0.6-0.2,1.3-0.5,1.8c-0.2,0.3-1.3,0.3-1.4,0.1c-0.5-1-0.8-2.1-1.1-3.2c-0.2-1.2-0.8-1.6-2-1.6
	c-1.2,0-1.6,0.6-1.9,1.8c-0.4,2-1,4-1.7,6c-0.1,0.3-1,0.5-1.6,0.5c-0.2,0-0.4-0.8-0.5-1.2c-0.1-1.2,1.7-2.3,0-3.7
	c-2.3-2.1-2.2-2.2-5.9-2.6c0,0.8-0.1,1.6,0,2.4c1.3,6.7-3.9,11.9-11.2,13.3c-3.6,0.7-7-0.2-10.3-1.9c-1.2-0.6-2.3-1.4-1.4-3
	c0.1-0.3,0.3-0.6,0.3-0.9c0.2-5.1,0.8-6.2-5.5-5.2c-5.4,0.8-11,2-16.6,1.5c-1.5-0.1-3.2,0.3-4.7,0.7c-3.1,0.9-6.1,1.9-9.2,3
	c-3.8,1.3-7.7,2.4-11.8,2c-1.2-0.1-2.5,0.4-3.8,0.5c-1.9,0.1-3.8,0.3-5.7,0.2c-0.5,0-1-0.7-1.3-1.3c-0.1-0.2,0.4-0.9,0.8-1.1
	c1.1-0.7,2.3-1.3,3.4-1.8c4-2,7.7-4.5,11.4-7c2.4-1.6,5.3-2.3,7.9-3.3c3.6-1.4,7-3.2,9.6-6.1c-4.9-4.1-4.9-4.1-6,1.8
	c-1.9-0.6-1.4-2.2-1.6-3.6c-0.1-0.4-0.3-0.7-0.5-1c-0.2,0.4-0.3,1.2-0.5,1.3c-1.8,0.2-3,0.8-3,3c0,0.9-3.1,0.6-3.8-0.6
	c-0.8-1.4-1.4-2.3-3.2-1.6c-0.7,0.2-1.8-0.5-2.7-0.9c-1.7-0.9-1.8-1.8-0.2-3.1c0.2-0.2,0.5-0.4,0.8-0.6c1.4-1.3,3.6-2.3,4.1-3.9
	c0.3-1-1.7-2.8-2.5-4.3c-0.7-1.2-1.8-3.3-1.4-3.8c1.2-1.4,2.4,0.5,3.7,0.9c0.6,0.2,1.2,0.8,1.8,0.8c0.6,0,1.6-0.3,1.8-0.7
	c0.5-1.1,0.7-2.4,0.9-3.7c0.2-1.1-0.1-2.3,0.2-3.4c0.2-0.8,1.1-1.4,1.6-2.1c0.4,0.7,1.2,1.5,1.1,2.2c-0.7,5.4,4.2,7.2,6.8,10.4
	c0.1,0.1,1.5-0.4,1.7-0.9c0.7-1.6,1.1-3.4,1.7-5c0.4-1,0.8-2.5,2.3-1.9c0.6,0.2,0.9,1.5,1.1,2.3c0.2,0.6,0,1.3,0.1,1.9
	c0.2,1.3,1.2,1.6,2.1,1.1c4.2-2,8.3-3.9,10.8-8.4c2.2-4.1,5.1-7.8,7.6-11.7c0.4-0.6,0.6-1.5,0.6-2.3c0.6-5.5,2.4-10.6,4.6-15.6
	c2.2-5.1,4.4-10.3,5.4-15.9c1-5.5,2.8-10.8,4.4-16.2c0.4-1.5,1.3-2.9,2-4.3c3.3-5.7,4.1-12.1,5.7-18.2c1.6-5.9,2.6-11.9,4.1-17.8
	c2.4-9.1,4.8-18.3,7.7-27.3c2.1-6.4,5.1-12.5,7.5-18.8c3.6-9.7,8.1-18.9,12.6-28.2c2.2-4.6,3.4-9.7,5.1-14.5
	c2.4-7,4.9-13.9,7.4-20.8c0.6-1.6,1.9-3,2.7-4.6c5.4-10.8,10.7-21.6,16.2-32.3c5.2-10.2,11.1-19.9,19-28.4
	c3.9-4.2,7.2-9.1,10.7-13.6c3.7-4.8,7.4-9.7,11-14.6c1.3-1.8,2.1-3.9,3.3-5.8c3.8-6.5,7.6-13,11.7-19.4c1.5-2.4,3.5-4.6,5.5-6.7
	c1.5-1.5,2.1-3.1,2-5.2c-0.3-4.1,0.5-8.2,0.1-12.4c-0.2-2.2,0.4-4.5,1.1-6.6c1.9-5.4,4.8-10.1,9.4-13.7c2.2-1.7,4.2-3.5,6.2-5.3
	c2.8-2.6,5.6-5.2,8.4-7.8c0.3-0.3,0.6-0.6,1-1c0.3-0.3,0.6-0.6,1-1c2.3-0.7,4.6-1.4,6.5-3.5c-5.1-0.4-5.1-0.4-6.5,3.5
	c-0.3,0.3-0.6,0.6-1,1c-0.3,0.3-0.6,0.6-1,1c-3.6,0.9-7,3.1-11.4,2.8c0.4-1,0.6-1.8,0.9-2.4c0.5-0.9,0.8-1.9-0.2-2.5
	c-0.7-0.4-2-0.7-2.6-0.3c-2.6,1.3-5.1,2.8-7.6,4.2c-2.1,1.2-4.3,1.4-6.5,1.1c-2.4-0.3-2.9-1.4-1.7-3.5c0.5-0.8,0.9-1.7,1.7-3.1
	c-1.9-0.1-3.4,0.1-4.8-0.2c-1.7-0.4-3.3-1.7-4.8-1.5c-1.6,0.2-3,1.8-4.6,2.3c-2.3,0.8-3.4-0.2-3.1-2.8c0.3-2.7,0.5-5.3,0.8-8.4
	c-1.1,0.5-1.9,0.9-2.7,1.2c-3.2,1-3.6,0.8-5-2.6c-0.2-0.4-0.6-0.8-0.9-1.1c-0.4,0.4-0.9,0.6-1.2,1.1c-1,1.3-1.9,2.6-2.9,3.9
	c-0.3,0.3-0.8,0.6-1.2,0.7c-1.3,0.2-1.3,0.1-1.4,0.7c-0.2,0.8-0.4,1.5-0.8,2.3c-1,2.2-1.2,2.4-3.1,0.5c-1-1-1.6-0.7-2.3,0
	c-0.7,0.7-1.2,1.5-2,2c-1.2,1-2.4,0.9-3.2-0.6c-1.2-2.3-2.8-4.5-2.3-7.2c0.4-2.5-1.2-3.9-2.8-5.3c-0.3-0.3-0.9-0.5-1.3-0.4
	c-1.3,0.4-2.3,2.9-3.9,0.4c-0.3,0.3-0.6,0.5-0.9,0.8c-1,1.2-1.8,3-3.7,1.1c-0.3,0.4-0.7,0.8-0.9,1.2c-0.7,2.3-1.2,4.7-1.9,6.9
	c-0.3,1-0.9,2-1.6,2.9c-1,1.2-1.9,0.9-2.4-0.6c-1-3.2-2.1-6.4-3.2-9.6c-0.1-0.3-0.2-0.6-0.4-0.9c-1-1-2.5-1.9-2.7-3.1
	c-0.2-1.1,1-2.5,1.4-3.8c0.1-0.3-0.4-0.8-0.7-1.1c-0.1-0.1-0.7,0.1-0.8,0.3c-0.5,0.8-0.9,1.7-1.2,2.6c-1.3,4.1-3.4,7.7-7.7,9.4
	c-1.4,0.5-1.9,1.5-2.1,2.9c-0.2,1.5-0.7,3-1.2,4.9c-1.6-1.5-2.7-2.7-4-3.6c-2.3-1.7-3.1-1.4-5.6,0.2c-1.6,1-3.3,1.9-5.1,2.3
	c-2.2,0.5-2.9-0.7-2.1-2.8c0.7-1.8,1.5-3.6,2.1-5.4c0.3-0.7,0.3-1.6,0.3-2.4c0-0.6-0.3-1.4-0.7-1.6c-0.5-0.2-1.4,0.1-1.7,0.5
	c-0.8,0.9-1.6,1.9-2.1,3c-0.6,1.3-0.7,2.8-1.1,4.2c-1.4,4.6-5,6.8-9.2,8.3c-0.6,0.2-1.5-0.2-2.2-0.6c-0.2-0.1,0.1-1.2,0.4-1.7
	c3.5-5.2,4.1-11,4.1-17c0.1-0.1,0.3-0.1,0.4-0.2c0.1-0.1,0.1-0.2,0.1-0.3c-0.2,0.2-0.3,0.3-0.5,0.5c-1.1,0.9-2.1,1.9-3.2,2.8
	c-1.9,1.5-2.5,3.4-2.7,5.8c-0.5,6.2-2.8,11.5-9.2,14c-0.7,0.3-1.5,0.6-2.3,0.7c-1.6,0.2-2.6-0.9-1.8-2.3c2.2-3.6,1.4-7.4,1.7-11.2
	c0.3-0.6,0.7-1.3,1-1.9c0.3-0.3,0.6-0.6,1-1c0.1-0.1,0.3-0.1,0.4-0.2c0.1-0.1,0.1-0.2,0.1-0.3c-0.2,0.2-0.3,0.3-0.5,0.5
	c-0.3,0.3-0.6,0.6-1,1c-0.3,0.7-0.6,1.3-1,2c-1.7,1.2-3.4,2.5-5.1,3.7c-0.6,0.5-1.4,1-2.1,1.1c-1.1,0.1-2.3-0.1-3.1-0.6
	c-0.3-0.2,0.1-1.7,0.3-2.6c1-3.8,2-7.6,3.1-11.8c-3.3,0.8-6.3,0.8-9.2-0.5c-1.8-0.8-3.2-0.4-4,1.3c-2,4.2-6.2,5.4-9.9,7.2
	c-0.4,0.2-1.2-0.1-1.7-0.4c-0.2-0.1-0.1-0.9,0.1-1.3c0.7-1.5,1.5-2.9,2.1-4.3c0.5-1,1-2.1,1.2-3.1c0.4-2.1-0.1-2.6-2.3-3.2
	c-0.7-0.2-1.4-0.5-2.1-0.8c0.5-0.7,0.8-1.8,1.5-2.1c3.6-1.8,3.1-5.2,4.1-8.7c-1.7,1-2.8,1.5-3.8,2.3c-4,3.2-8.3,5.5-13.4,6.2
	c-2,0.3-2.4,1.2-2.3,2.9c0.1,1.9,0.2,3.9,0,5.8c-0.5,4.2-1.4,8.3-5.3,10.8c-2.3,1.5-3,1.3-3.4-1.4c-0.4-2.4-0.7-4.8-1.1-7.1
	c-0.3-1.6-0.6-2.9-3.1-2.3c-2.7,0.6-2.8,0-2.7-3.3c0.1-3.5,0-7,0-10.6c-3.2,0.8-5.7,2-7.4,4.5c-0.7,1-1.9,1.7-2.8,2.6
	c-0.3,0.3-0.7,0.8-0.7,0.9c0.2,0.4,0.7,0.8,1.1,0.8c2.5,0.4,4.7-0.6,6.8-1.9c0.4-0.3,1.1-0.2,1.7-0.3c-0.2,0.7-0.2,1.7-0.7,1.9
	c-3.2,2-6.5,3.6-10.4,1.5C48.1,27,48,25.9,50,24.4c0.3-0.2,0.6-0.3,0.9-0.4c4.6-3.2,4.6-3.1-0.3-5.7c-1.4-0.7-2-0.3-2.9,0.5
	c-2.4,2.1-4.8,4.3-7.3,6.3c-1,0.8-2.1,1.5-3.3,1.9c-0.8,0.3-1.9,0-2.7-0.3c-0.2-0.1,0.2-1.4,0.2-2.1c0-0.2-0.2-0.5-0.5-1
	c-2.1,4-4.8,7.2-8.3,10c-2.3,1.8-3.6,4.9-5.5,7.3c-1.1,1.4-2.3,2.7-3.5,3.9c-1.2,1.1-2.6,1.2-4,0.4c-1.3-0.8-1.1-2-0.8-3.4
	c0.7-2.5-0.1-3.3-2.5-2.7c-1.4,0.4-2.7,1.1-4.1,1.4c-1.2,0.2-2.6,0.1-3.7-0.3c-2.1-0.8-2.1-1.8-0.4-3.4c1.5-1.4,3-2.9,4.4-4.5
	c0.5-0.6,0.9-1.5,0.8-2.2c-0.5-3.9-0.4-4.7,0.9-7.3c-1-0.2-2-0.1-2.6-0.5c-0.7-0.4-1.1-1.3-1.6-2c0.7,0,1.4-0.1,2.1,0
	c1.7,0.1,2.4-0.7,2.1-2.3c-0.1-0.6-0.4-1.6-0.2-1.8c2.8-2,1.7-4.7,1.6-7.3C8.4,5.2,10.9,2.7,12.5,0c1,0,1.9,0,2.9,0
	c-1.2,1.7-2.4,3.4-3.6,5.1c-0.5,0.8-1.1,1.6-1.2,2.5c-0.2,2.3,1.1,3.6,3.6,4c2.8,0.4,5.6,0.9,7.7-1.8c0.9-1,2.1-1.9,3.2-2.6
	c0.6-0.3,1.5-0.1,2.2-0.2c-0.1,0.5-0.1,1.1-0.3,1.6c-1.4,2.4-2.2,5-1.9,7.7c0.5,4.1,1.4,8.1,2.1,12.3c8.2-6.5,6.5-16,1.6-22.4
	c-0.7-0.8-2.3-1.5-3.3-1.4c-4,0.5-6-1.6-7.2-5c1,0,1.9,0,2.9,0c0,0.2,0,0.3,0,0.5c0,1.1,0.1,2.3,1.6,2.3c0.6,0,1.1-0.3,1.7-0.4
	c-0.5-0.8-0.9-1.6-1.4-2.4c1,0,1.9,0,2.9,0c0.4,0.6,0.8,1.1,1.2,1.7c-0.1-0.6-0.1-1.1-0.2-1.7c1,0,1.9,0,2.9,0
	c-0.3,3.1,0.3,6,3.3,7.3c1.9,0.8,3.3,1.7,4.2,3.5c0.2,0.3,1,0.7,1.1,0.6c0.4-0.3,0.9-0.9,1-1.4C40,6.2,38.3,3.1,36.8,0
	c1,0,1.9,0,2.9,0c0.7,2.5,1.4,4.9,2.2,7.6c0.9-0.7,1.3-0.9,1.6-1.2c2.1-1.6,2.1-1.6,0.5-3.5C43.2,2,42.4,1,41.6,0c1,0,1.9,0,2.9,0
	c0.3,0.5,0.6,1.1,1.1,1.5C48,3.6,48.9,3.4,50.4,0c1.6,0,3.2,0,4.8,0c-1.4,0.9-3,1.7-4.1,2.9c-1.5,1.6-0.6,3,1.6,3.4
	c3.4,0.5,6.1-1.1,8.8-2.8C62.6,2.7,62.8,1.3,62,0c2.3,0,4.5,0,6.8,0c-3.2,3.1-6.7,6-9.6,9.4c-2,2.3-3.4,5.1-6.7,5.8
	c-0.3,0.1-0.5,0.7-0.5,1.1c0,0.2,0.3,0.6,0.6,0.7c1.1,0.2,2.3,0.6,3.3,0.4c3.8-0.8,7.5-1.7,10-5.1c0.8-1.1,2.2-1.8,3.3-2.7
	C71.8,7,74.8,4.4,73.6,0c0.6,0,1.3,0,1.9,0c0.1,0.9,0.2,2.1,1.6,1.5c1.1-0.4,2.2-1,3.3-1.5c1.9,0,3.9,0,5.8,0
	c-1.8,1.8-3.9,2.7-6.4,3c-0.9,0.1-2,0.3-2.7,0.9c-3.8,3.3-6.9,7-8.3,12.8c2.1-0.8,3.7-1.3,5.2-2.1c3.9-2.2,7.7-4.6,11.6-6.9
	c3.1-1.9,3.8-3.7,2.5-7.6c1,0,1.9,0,2.9,0c-0.3,2.1-0.6,4.2-0.8,6.4c0,0.3,0.1,0.7,0.3,0.8c0.4,0.1,0.9,0.2,1.3,0.1
	c2.9-1.7,3.2-3,2.2-7.2c0.6,0,1.3,0,1.9,0c0.2,0.9,0.2,1.9,0.5,2.8c1,3.6,1.1,3.6-2.1,5.3c-4,2.1-8.6,7.5-10.4,12.6
	c3.7-2.2,7.2-3.8,10.3-6.1c1.8-1.4,3.6-3.5,4.3-5.6c1-2.8,0.9-6,1.4-9c1.3,0,2.6,0,3.9,0c-0.8,1.6-1.6,3.1-2.3,4.7
	c-0.9,2.2,0.6,3.6,1.9,5c1.4,1.6,2.7,0.3,3.9-0.3c3.9-2.1,7.4-4.6,8.2-9.4c0.6,0,1.3,0,1.9,0c-0.3,1.2-1,2.6-0.7,3.6
	c0.3,0.8,2,1,2.9,1.6c0.6,0.4,1.1,1.1,1.6,1.6c-0.3,1.8-0.7,3.7-0.9,5.5c0,0.5,0.6,1.1,0.9,1.6c0.5-0.5,1.6-1.1,1.5-1.5
	c-0.4-1.9-1-3.8-1.6-5.7c0.3-2.3,0.6-4.5,1-6.8c0.6,0,1.3,0,1.9,0c-1.7,4.8-0.4,10.5,3.3,14.4c0.5-0.9,1-1.7,1.4-2.5
	C130.4,8,129.8,4,129.9,0c1,0,1.9,0,2.9,0c0,1,0,1.9,0.1,2.9c0.2,1.8,0.8,2.3,2.5,1.6c2.2-0.9,4.5-1.8,5.2-4.5c0.6,0,1.3,0,1.9,0
	c-1.4,3-2.2,6.2-2.2,10.2c3-1.5,5.6-2.6,8-4.1c2.1-1.3,3.5-3.3,2.9-6.1c0.6,0,1.3,0,1.9,0c0.7,1.8,1.3,3.7,2,5.5c0.3,0,0.6,0,0.9,0
	c0.6-1.8,1.3-3.7,1.9-5.5c1,0,1.9,0,2.9,0c-0.8,1.9-1.1,4.3-2.5,5.6c-2.9,2.7-2.5,5.3-1,8.2c3.3-4,3.5-9.2,5.4-13.8c1,0,1.9,0,2.9,0
	c-2.9,3.7-3.5,7.6-1.3,12c1,1.9,1.3,4.1,2.1,6.4c1.5-1.6,3-2.9,4-4.4c0.8-1.3,1.6-3.1,1.2-4.3c-1-3.3-2.7-6.5-4.1-9.7
	c1,0,1.9,0,2.9,0c-0.2,2.3,0.7,4.3,1.7,6.3c1,2.1,3.2,0.9,4.5,2c0.5-0.9,1-1.8,1.6-2.6c1.6-2.3-0.5-3.8-1.1-5.7c1,0,1.9,0,2.9,0
	c0.3,0.8,0.6,0.7,1,0c0.6,0,1.3,0,1.9,0c-1.2,3-2.4,5.9-3.4,8.9c-0.7,2.2-0.3,2.8,1.8,3.6c0.7,0.2,1.4,0.3,2.9,0.6
	c-5.6,3.3-9.5,7.3-12.7,11.9c-0.8,1.1-1.1,2.4-1.7,3.7c1.6,0.1,3.3,0.6,4.7,0.1c1.7-0.6,3.2-1.9,4.7-3c0.5-0.4,0.9-1,1.4-1.3
	c3-2.1,4.5-5,4.2-8.6c-0.5-4.4,1.1-7.9,4.2-10.7c1.8-1.6,1.9-3.2,0.7-5.1c1,0,1.9,0,2.9,0c-0.1,3.8,0.6,7.3,4,9.8
	c1.2,0.9,0.5,1.6-0.2,2.3c-2.3,2.2-5.1,4.1-6.7,6.8c-2,3.3-2.9,7.2-4.5,11.3c6.6-2.5,10.7-6.6,12.4-13c0.9-3.2,2.2-6.4,2.5-9.7
	c0.2-2.4,2.4-4.9,0.2-7.4c1,0,1.9,0,2.9,0c0,0.5,0.2,1,0,1.4c-1.6,3.3,0.2,5.4,2.5,7.3c0.6,0.5,1.1,1.1,1.7,1.7
	c1.4,1.4,2.7,1.6,4.2,0.1c1.5-1.5,2.9-3,4.4-4.5c0.8-0.9,0.8-1.6-0.4-2.2c-2.2-1.2-4.4-2.6-6.5-3.8c1.3,0,2.6,0,3.9,0
	c0.6,1.1,1.3,1.1,1.9,0c0.6,0,1.3,0,1.9,0c0.3,0.9,0.6,1.7,0.9,2.6c0.4,1.1,1.1,1.3,2.2,0.7c1.4-0.7,2.8-1.4,2.7-3.3
	c2.3,0,4.5,0,6.8,0c-0.2,0.3-0.3,0.7-0.6,0.7c-3.3,0.6-4.1,2.7-3.3,5.7c0.2,0.8,0.1,1.7,0.3,3.9c1.6-4.4,4.5-5,7.4-5.5
	c1.7-0.3,2.2-1.2,1.9-2.6c-0.1-0.8-0.6-1.5-0.8-2.2c1,0,1.9,0,2.9,0c0.3,4.9,1.9,6.9,6.1,7.6c0.8,0.1,2.3-0.4,2.4-0.8
	c0.2-2.2,2.2-4.5,0.3-6.8c1,0,1.9,0,2.9,0c0,0.6,0.1,1.3,0,1.9c-0.4,2.2-0.6,4.5-1.4,6.5c-0.7,1.8-2.8,1.1-4.3,1.5
	c-0.3,0.1-0.7,1-0.6,1.4c0.8,3.4,3.4,3.2,6.1,3.3c2.9,0.1,3.1,0.1,3.1-2.5c0-1.6-0.1-3.3-0.7-4.7c-1-2-1.2-3.5,0.4-5.2
	c0.4-0.5,0.2-1.5,0.3-2.3c1,0,1.9,0,2.9,0c-0.3,0.9-0.8,1.8-1,2.7c-0.1,0.7,0,1.4,0.1,2.1c0.9-0.2,2.2-0.2,2.5-0.7
	c0.7-1.2,0.9-2.7,1.3-4c1,0,1.9,0,2.9,0c-0.6,1.3-1.4,2.5-1.8,3.9c-0.4,1.8-1.4,2.6-3.1,3.1c-1.9,0.5-1.6,1-0.5,2.7
	c1.5,2.1,4,1.7,5.9,2.8c2.6,1.6,3.7,1.2,4.6-1.6c0.4-1.3,0.6-2.9,0.1-4.1c-0.8-2.4-2.2-4.6-3.3-6.8c1,0,1.9,0,2.9,0
	c0.8,1.7,1.6,3.5,2.4,5.2c1.8-1.7,1.6-3.4,0.5-5.2c1,0,1.9,0,2.9,0c-0.5,2.2-1,4.3-1.5,6.8c2.7-1.4,4.7-2.7,6.8-3.6
	c1.4-0.6,1.4,0.7,1.5,1.6c-2.1,1-4.3,1.9-6.3,3.1c-0.8,0.5-1.3,1.6-1.9,2.5c1,0.7,1.9,1.8,3,2c2.8,0.7,3.7-0.1,4.3-3
	c0.3-1.5,0.6-3.1,1-4.6c2-1.6,0.5-3.2,0-4.8c1,0,1.9,0,2.9,0c0.5,3,1.1,3.3,3.2,1.6c0.4-0.3,0.5-1.1,0.7-1.6c1,0,1.9,0,2.9,0
	c-1.1,1.3-2.2,2.6-3.3,3.9c-0.2,0.3-0.1,0.8-0.2,1.3c0.4,0,1.1,0.3,1.2,0.1c1.2-2,4.1-2.6,4.2-5.3c1.3,0,2.6,0,3.9,0
	c-1.3,1.3-2.7,2.7-4,4c-1.4,1.3-2.9,2.5-4.2,4c-1,1.2-0.3,2.5,1.3,2.7c2.2,0.3,4.3,0,5.5-2.1c1.5-2.6,3.5-4.5,6-6.1
	c0.7-0.4,0.9-1.6,1.3-2.4c2.3,0,4.5,0,6.8,0c-0.3,1.1-0.8,2.1-0.9,3.2c-0.2,1.6,0.1,3.2-0.1,4.8c-0.2,1.4-0.9,2.8-1.5,4.6
	c1.2-0.5,1.9-0.9,2.7-1.1c0.4-0.1,0.9-0.1,1.3-0.2c-0.1,0.5-0.1,1.4-0.5,1.6c-3.6,2-3.1,5.3-2.9,8.5c0.1,0.9,0.8,2.2,1.6,2.6
	c1.3,0.7,2.5-0.3,3.2-1.5c0.5-0.9,0.8-2.1,0.8-3.2c0-2.4-0.2-4.9-0.4-7.9c1,1.3,2,2.1,2.3,3c0.9,3.9,3.7,6.7,5.8,9.9
	c0.3,0.5,1.7,1.1,1.7,1c0.9-1.3,1.5-0.6,2.1,0.2c0.2,0.4,0.6,0.6,0.9,1c0.4-0.5,1.1-1,1.1-1.5c0.1-3.7,0.1-7.4,0.1-11.1
	c0-0.6-0.4-1.3-0.8-1.7c-2.9-2.3-6.3-3.7-9.9-4.5c-0.3-0.1-0.9,0.5-1.1,1c-0.3,0.7-0.3,1.5-0.4,2.3c-0.5-0.8-1.2-1.5-1.6-2.3
	c-0.3-0.5-0.6-1.2-0.5-1.8c0.1-0.9,0.3-2.1,1-2.5c0.4-0.3,1.6,0.2,2.4,0.4c0.6,0.2,1.1,0.5,2.3,1c0-2.3,0.1-4.1,0.1-6
	c1,0,1.9,0,2.9,0c-0.5,2-1,3.9-1.3,5.9c-0.1,0.3,0.7,0.9,1.2,1.1c0.2,0.1,1-0.5,1-0.9c0.1-2,0.1-4.1,0.1-6.2c0.6,0,1.3,0,1.9,0
	c0,1.7,0,3.4,0,5.8c1.9-2.3,3.4-4,4.9-5.8c1,0,1.9,0,2.9,0c-2.5,2-5,4.1-6,7.3c-0.2,0.6-0.6,1.5-0.3,1.7c1.1,1.1,2.3,2.4,3.7,2.9
	c0.7,0.3,2-0.7,2.9-1.2c2.8-1.6,5.5-3.2,8.2-4.7c0,0,0.6,0.6,0.6,0.8c0,0.6-0.2,1.3-0.4,1.9c-0.1,0.1-0.3,0.1-0.4,0.2
	C337,9,337.1,9.1,337,9.2c0.2-0.2,0.3-0.3,0.5-0.5c1.5-1.7,3.1-3.4,4.6-5.1c0.9-1.1,1.9-1.6,3.2-0.7c0.6,2.1,1.3,4.3,1.8,6.4
	c0.5,2,1,4,1.1,6.1c0,1.5-0.7,3-1,4.6c-0.1,0.8,0,1.8,0.3,2.6c0.1,0.4,1.5,0.6,1.6,0.5c0.4-0.8,0.8-1.6,0.9-2.5
	c0.3-1.7,0.3-3.5,0.7-5.2c0.4-1.6,1.9-3.5,1.4-4.7c-0.6-1.6-2.7-2.6-4.1-4c-1.1-1.1-1.9-2.5-2.8-3.8c-0.3-1-0.6-1.9-1-2.9
	c1,0,1.9,0,2.9,0c0.4,3.3,2.7,5.3,5,7.2c0.8,0.6,1.7,0.3,1.6-0.7c-0.1-2.2-0.5-4.3-0.8-6.5c0.6,0,1.3,0,1.9,0c0.5,2.4,1,4.8,1.5,7.3
	c3.5-2.8,4.6-2.6,1.4-7.3c1,0,1.9,0,2.9,0c0.3,0.8,0.6,0.8,1,0c0.6,0,1.3,0,1.9,0c0.3,1.9-0.8,4.1,1.9,5.3c4.9,2.3,5.6,2.1,7.5-3
	c0.3-0.7,0.2-1.6,0.3-2.3c1.6,0,3.2,0,4.9,0c-0.2,3.3,0.3,6.3,2.4,9.1c1,1.4,1.3,3.6,1.3,5.5c-0.1,3.5,2.2,5.7,4.2,8.1
	c0.4,0.4,1.5,0.5,2.2,0.3c1.2-0.3,2.5-0.8,3.6-1.4c3.2-1.8,3.3-2.3,0.7-4.8c-0.2-0.2-0.5-0.5-0.7-0.7c-3.4-2.7-5.1-7.5-10-8.4
	c-0.2,0-0.5-0.9-0.4-1.2c0.1-0.3,0.8-0.5,1.1-0.5c1.3,0.3,2.6,0.8,4.3,1.3c-0.1-2.8,0.5-5.2-0.9-7.4c1.3,0,2.6,0,3.9,0
	c0.1,2.2-2.4,3.9-1,6.3c0.7,1.1,0.4,3.1,2.3,3c1.3,0,2.2-3.3,1.6-4.9c-0.1-0.1-0.3-0.2-0.3-0.4c-0.3-1.4-0.5-2.7-0.8-4.1
	c0.6,0,1.3,0,1.9,0c-0.3,2.4,1.2,3.8,2.8,5.1c0.3,0.3,1.1,0.6,1.3,0.4c2.2-1.9,5.6-2.3,6.6-5.6c1.6,0,3.2,0,4.9,0
	c-0.1,0.9-0.7,2-0.3,2.7c0.5,1.1,1.5,2.2,2.6,2.6c1.9,0.9,2.7-1.2,3.7-2.2c0.8-0.8,1.2-2.1,1.8-3.1c1,0,1.9,0,2.9,0
	c-0.1,0.6-0.3,1.6-0.2,1.6c1.9,0.8,3.8,1.4,5.8,2c1.1,0.3,1.9,0,2.1-1.3c0.1-0.8,0.1-1.6,0.1-2.4c1.3,0,2.6,0,3.9,0
	c0,1.5,0,2.9,2.2,3c1.7,0.1,3.4,0.6,5.2,0.9c2.3,0.3,4.4,1,5.5,3.3c0.3,0.6,0.7,1.1,1.2,1.5c1,0.9,3.7,0.8,4.8-0.4
	c1-1.1,0.7-2.4-0.1-3.5c-1-1.6-2.1-3.2-3.2-4.8c0.6,0,1.3,0,1.9,0c1.6,3.5,1.8,3.5,4.4,1.2c0.5-0.4,0.9-0.8,1.4-1.2
	c1.3,0,2.6,0,3.9,0c-0.7,0.7-1.2,1.4-2,2c-4.3,3.1-5.1,6.4-2.6,11.2c1.3,2.5,2.2,2.7,4.3,0.9c0.4-0.3,0.8-0.7,0.9-1.1
	c1.3-3,3.7-3.6,6.7-3.4c0.9,0.1,1.9-0.3,2.7-0.7c0.4-0.2,0.9-1,0.8-1.3c-1.2-2.7,0.8-5,0.7-7.5c0.6,0,1.3,0,1.9,0
	c-1,4.3-1,4.3,3.5,5.2c0.3,0.1,0.6,0.4,0.9,0.3c0.4-0.1,1.1-0.2,1.2-0.5c0.5-1.6,1.6-3.3,0.2-5c1,0,1.9,0,2.9,0
	c-0.2,1.7-0.4,3.4-0.6,5.4c4.1,0.9,6.9,3.7,9.2,7.1c0.5,0.8,0.8,2.1,0.5,3c-0.9,3.4,0.3,5.7,3.6,5.8c2.3,0,4.7-0.5,7.1-0.8
	c-1.1-2.1-2-3.9-2.9-5.7c-1.3-2.8-3.3-4.7-6.2-5.7c-1.4-0.5-2.8-0.8-4.1-1.3c-0.3-0.1-0.4-0.7-0.6-1.1c0.4-0.1,1-0.5,1.2-0.4
	c2.5,1.5,4-0.1,5.2-1.8c0.9-1.3,1.4-2.8,2-4.3c1,0,1.9,0,2.9,0c-1.4,2.4-2.8,4.8-4.3,7.3c1.3,1,2.8,2.2,4.3,3.3
	c2.4,5.8,2.4,5.9,8,5.8c0.7,0,1.4-0.2,2.9-0.3c-2.1-1.8-3.8-3.1-5.3-4.5c-1.7-1.7-3.6-1.5-5.7-0.9c0.5-0.9,0.9-2.1,1.7-2.6
	c1.4-0.8,2.6,0,4,0.8c4.2,2.6,7.8,1.7,10.4-2.6c-4.6-0.5-9.2-0.9-13.8-1.5c-0.4,0-0.7-0.5-1-0.8c0.3-0.3,0.5-0.9,0.9-0.9
	c1.6-0.2,3.3-0.3,5.8-0.5c-1.9-0.5-3-0.7-4.1-1.1c-1-0.4-1.9-0.9-2.9-1.4c5.5,0,11,0,16.5,0c-0.9,1-2.4,2,0.1,2.9
	c0.9,0.3,1.8,0.9,2.7,0.8c2.4-0.3,4.7-0.7,7-1.4c2-0.6,3.8-0.4,5.6,0.5c1.4,0.7,2.8,1.6,4.6,0.4c-1.3-1.1-2.4-2.2-3.6-3.2
	c1.9,0,3.9,0,5.8,0c0,0.6-1.1,1.5,0.3,1.8c1.8,0.5,3.7,0.7,5.6,1.1c0.6,0.3,1.3,0.6,1.9,1c0.3,0.3,0.6,0.5,1,0.8
	c0.1-0.2,0.2-0.3,0.3-0.5c-0.4-0.1-0.8-0.2-1.2-0.3c-0.6-0.3-1.3-0.6-1.9-1c-0.1-1.8,1-2.2,2.5-1.9c1.9,0.4,3.4,1.9,2.9,3.6
	c-0.8,2.7,1,3.1,2.6,3.9c-0.1-0.8-0.6-1.3-0.8-2c-0.6-1.5,0.5-1.5,1.5-1.6c0,0,0.1,0.1,0.1,0.1c0.3,0.3,0.5,0.6,0.8,0.8
	c0,0,0.2,0.2,0.2,0.2c0.3,0.3,0.6,0.6,0.9,0.9c0,0,0,0,0,0c0.8,5.2,1.7,10.4,2.5,15.6c0.2,1.5-0.5,2.3-1.8,1.7
	c-4-1.9-8.4-3.4-10.5-8c-0.3-0.7-1.4-1.5-2-1.4c-4.4,0.3-8.2-1.4-12.1-2.8c-1.9-0.7-3.5-0.9-5,1.1c-2.3,2.9-5.6,4.2-9.2,5
	c4.2,0.4,5.9,3.9,8.5,6.3c0.7,0.6,0.6,1.5-0.4,1.9c-0.9,0.3-1.8,0.8-2.7,0.9c-4.4,0.6-8.9,1.2-13.3,1.6c-0.8,0.1-1.6-0.3-2.3-0.5
	c-0.1-0.1-0.1-0.3-0.2-0.4c-0.1-0.1-0.2-0.1-0.3-0.1c0.1,0.2,0.3,0.3,0.4,0.5c1.2,1.3,2.4,2.6,3.4,4c0.8,1.1,0.7,2.4-0.7,2.7
	c-2,0.6-4,0.9-6.1,1c-1.5,0.1-2.3,0.5-2.6,2.1c-0.5,2.3-1.2,4.6-2,6.9c-0.2,0.5-0.9,1.3-1.3,1.3c-0.6-0.1-1.3-0.7-1.7-1.2
	c-2.2-3.5-4.4-7-6.5-10.6c-2.2,0.5-4.7,1-7.2,1.6c-0.4,0.1-0.7,0.7-0.8,1.2c-0.3,1.6-0.4,3.1-0.7,4.7c-0.3,1.8-1,2-2.5,0.7
	c-1.5-1.2-3.1-2.3-4.5-3.6c-1.5-1.4-3-2-5.1-2.3c-2.8-0.4-6-0.9-5.6-5.1c0-0.4-0.6-1.1-1.1-1.4c-1.3-0.7-2.6-1.2-4-1.7
	c-0.3-0.1-0.8,0.1-1,0.4c-2,2.7-4.2,3-6.3,0.8c-0.6-0.7-1-1.7-1.6-2.4c-0.4-0.4-1.1-0.8-1.6-0.8c-3,0.2-6,0.5-9.1,0.8
	c-0.4,0-0.9,0.5-1,0.8c-0.1,0.4,0.3,1.2,0.5,1.2c2.7,0.3,4.2,3.5,7.3,3.1c1.3-0.2,2,1.1,1.2,2.1c-1.1,1.6-2.3,3.1-4.4,3.4
	c-1.1,0.1-2.1,0.5-3.2,0.7c0.3,1,0.7,1.9,1,2.9c0.4,1.5-0.3,2.5-1.7,3c-3.8,1.3-6.3-0.4-6.9-4.7c1.1,0.9,2.2,1.9,3.4,2.5
	c0.5,0.3,1.8,0,2-0.4c0.3-0.5,0.1-1.9-0.4-2.1c-1.3-0.8-2.9-1.2-4.4-1.6c-0.1,0-0.5,1-0.7,1.6c-0.9,1.3-1.7,2.7-2.6,4
	c-0.7,0.9-1.6,1.1-2.2-0.2c-0.5-1.2-0.7-2.5-1.2-3.7c-0.6-1.3-1.2-2.9-2.3-3.5c-1.8-1.1-2.6-2.7-3.4-4.5c-0.7-1.9-1-1.9-2.6-0.5
	c-3.6,3.1-4,4.6-2.3,9.3c0.8,2.3,0.4,2.9-1.8,3.1c-0.3,0-0.6,0-1,0c-1.5-0.1-3.4-0.8-4.5-0.1c-0.8,0.5-0.6,2.6-1,4
	c-1.3,5.1-5.1,8.4-8.4,12.1c-0.2,0.2-1,0.2-1.2,0c-0.2-0.2-0.3-0.9-0.1-1.2c1.5-3.5,1.5-3.5,1.1-8c-1.6,1.6-3.1,2.8-4.1,4.3
	c-5,8.2-11.7,14.8-19.1,20.9c-7.7,6.3-14.9,13.1-20.8,21.4c-3.9,5.5-9.5,9.5-14.9,13.7c-4.9,3.8-9.7,7.9-14.4,12
	c-4.3,3.8-7.1,8.6-9.3,13.9c-1.4,3.4-3.3,6.6-5,9.9c-0.2,0.4-0.8,0.7-0.8,1.2c-2,9.8-8,18.2-9.3,28.3c-0.3,2.2-1.2,4.3-1.7,6.5
	c-1.6,6.4-3.4,12.7-4.6,19.1c-0.5,2.4,0,5.2,0.9,7.6c2,5.8,2.1,11.8,1.6,17.7c-0.5,5.8,2.1,10.1,5.6,14.1c2.4,2.7,1.7,5.5-1.6,6.9
	c-1.4,0.6-2.4,0.4-3.6-0.4c-1.6-1.2-3.5-2.2-5.1-3.4c-1.4-1.1-2.6-1.8-4.4-0.9c-1.4,0.7-2.1-0.5-2.5-1.5c-0.2-0.6-0.3-1.4-0.1-1.9
	c1.5-3.7,0.5-8,2.7-11.6c1.2-2,1.5-4.5,2-6.9c0.7-3.4-0.8-5.9-4-7.4c-1.2-0.5-2.5-0.8-3.4-1.7c-5.9-5.6-6-9.5-1.7-15.6
	c2.8-3.9,4.4-8.1,6.1-12.5c0.6-1.6,1.5-3.2,2.1-4.9c0.5-1.5,0.8-3,1.2-4.5c0.1-0.1,0.3-0.1,0.4-0.2c0.1-0.1,0.1-0.2,0.1-0.3
	c-0.2,0.2-0.3,0.3-0.5,0.5c-0.8,0.1-1.5,0.3-2.3,0.4c-1.8,0.3-1.9-0.7-1.4-1.9c1.5-3.4,3.1-6.7,4.5-10.1c0.7-1.7,1-3.6,1.5-5.4
	c-2.5,0-3.6,2-4.7,3.5c-5.4,7.4-11.6,14.2-15.8,22.4c-2.7,5.3-6,10.3-9,15.4c-4.2,7.1-8.3,14.2-12.6,21.2
	c-3.3,5.3-6.8,10.5-10.4,15.7c-6.1,9-10.6,18.7-14.9,28.6c-3.9,9.1-7.8,18.3-11.6,27.5c-1.5,3.7-2.6,7.6-3.8,11.4
	c-1.3,4.3-2.3,8.7-3.7,12.9c-2.8,8.9-5.8,17.7-8.4,26.6c-1.2,4-1.8,8.1-2.6,12.2c-0.8,4.1-1.6,8.1-2.4,12.2
	c-0.3,1.6-0.6,3.2-0.6,4.8c-0.1,5.5,0.2,11-0.1,16.5c-0.5,9.8,1.6,19.1,3.4,28.6c0.7,3.6,1.3,7.3,3.4,10.5c1.6,2.4,3.5,4.6,5.3,6.9
	c0.5,0.6,1,1.3,1.5,1.9c2.2,3,2.2,3,5.7,1.7c0.4-0.2,0.9-0.4,1.4-0.5c0.4,0,1,0.2,1.3,0.5c0.2,0.3,0.1,0.9,0,1.3
	c-0.3,0.9-1.3,2.1-1,2.4c0.7,0.9,1.9,1.7,3,2.2c1.7,0.8,3.7,1.1,5.4,1.9c1.5,0.6,2.5,0.2,3.1-1.2c1.3-3,3-5.7,5.7-7.6
	c0.5-0.3,1.2-0.2,1.8-0.3c0,0.6,0.2,1.2,0,1.7c-0.8,2.1-1.8,4.1-2.6,6.2c-1.4,3.3-1.3,3.3,1.8,4.7c1.9,0.9,3.7,2,5.4,3.2
	c1.1,0.8,0.9,1.8-0.2,2.2c-2.2,0.8-4.4,1.7-7,1.1c-2.1-0.5-2.7,0.2-3.2,2.4c-0.3,1.4-0.8,2.7-1.2,4.3c2,0.4,4.4,0.3,6,2.5
	c2.1,2.9,2.3,5.3,0.2,8.2c-0.5,0.8-1.1,1.6-1.9,2.1c-1.1,0.7-1.1,1.4-0.3,2.3c0.5,0.6,1.2,1.1,1.6,1.8c0.7,1.1,0.1,2-0.8,2.3
	c-1,0.4-2.2,0.5-3.3,0.5c-9.2,0.1-18.3,0-27.2-2.7c-1.1-0.3-2.2-0.2-3.4-0.2c-1.7-0.1-3,0.1-2,2.4c0.2,0.4-0.6,1.2-0.9,1.9
	c-0.4-0.4-1-0.8-1.1-1.3c-0.6-3.4-1.1-6.9-1.6-10.4c-0.1-0.9-0.2-1.8-0.6-2.6c0,4.2,0,8.3,0,12.5c0,0.6-0.4,1.3-0.6,1.9
	c-0.5-0.4-1.3-0.7-1.3-1.1c-0.5-3.6-1.7-7.1-0.9-10.9c0.6-2.6,0.4-5.3-0.2-8.1c-0.4,1.7-0.8,3.3-1,5c-0.4,3.7-0.7,7.3-1.1,11
	c-0.1,0.5-0.7,0.9-1,1.3c-0.3-0.5-0.7-1-0.9-1.5c-0.2-0.6,0-1.3-0.2-1.9c-0.3-1.5-1.4-2-2.9-2c-1.6,0-1.6,1.1-1.8,2.3
	c-0.2,1.3-0.5,2.5-1,3.7c-2.5,5.5-6.5,7.2-12.3,5.3c-2.3-0.7-3.4-2.3-4-4.4c-0.3-0.9-0.2-1.9-0.2-2.9c-0.1-5.8-0.1-5.8-5.6-7.3
	c-0.9-0.2-1.9-0.3-2.8-0.7c-2-0.8-3.4-1-3.3,1.9C147.2,473.6,146.1,474,145.4,474.3c-0.3-2.4-0.7-4.8-1-7.1
	C143.5,469.8,144.2,472.1,145.4,474.3z M287,38.8c-0.3,0.3-0.6,0.7-1,1c-0.4,0.1-0.9,0.1-1.3,0.3c-0.2,0.1-0.3,0.5-0.5,0.7
	c0.3,0,0.8,0.2,1,0.1c0.3-0.2,0.5-0.7,0.8-1.1C286.4,39.5,286.7,39.1,287,38.8c0.2-0.1,0.3-0.3,0.5-0.4
	C287.3,38.5,287.2,38.6,287,38.8z M182.3,459.8c-0.1-0.1-0.1-0.3-0.2-0.4c-0.1-0.1-0.2-0.1-0.3-0.1
	C182,459.5,182.1,459.6,182.3,459.8c0.1,0.4,0.2,0.9,0.3,1.3c0.2-0.1,0.3-0.2,0.5-0.3C182.8,460.4,182.5,460.1,182.3,459.8z
	 M187.1,19.4c-0.3,1-0.6,1.9-1,2.9c-0.6,0.7-1.3,1.3-1.8,2c-0.2,0.3,0.1,0.8,0.2,1.3c0.4-0.2,1-0.3,1-0.6c0.3-0.9,0.3-1.8,0.5-2.7
	C186.5,21.3,186.8,20.4,187.1,19.4c0.1,0,0.3-0.1,0.4-0.2c0.1-0.1,0.1-0.2,0.1-0.3C187.4,19.1,187.3,19.2,187.1,19.4z M259.9,38.8
	c0.4-0.3,0.8-0.4,1.1-0.8c0.2-0.2,0-0.6,0-1c-0.2,0.1-0.6,0.2-0.7,0.4C260,37.9,260,38.4,259.9,38.8c-0.2,0.1-0.3,0.3-0.5,0.5
	C259.6,39.1,259.7,39,259.9,38.8z M403.4,19.4c0.1,0.1,0.1,0.3,0.2,0.4c0.1,0.1,0.2,0.1,0.3,0.1C403.8,19.7,403.6,19.6,403.4,19.4
	c-0.1-0.4-0.1-0.9-0.3-1.2c-0.1-0.2-0.5-0.3-0.7-0.4c0,0.3-0.2,0.8,0,1C402.6,19,403.1,19.2,403.4,19.4z M445.2,19.4
	c0.1,0.4,0.2,0.8,0.3,1.3c0.2-0.1,0.3-0.2,0.5-0.3C445.6,20,445.4,19.7,445.2,19.4c0-0.4,0-0.9-0.1-1.3c-0.1-0.3-0.4-0.6-0.5-0.9
	c-0.1,0.3-0.3,0.6-0.3,0.8C444.5,18.5,444.9,18.9,445.2,19.4z M82.4,451.1c-0.3,0.5-0.7,0.9-0.9,1.4c-0.1,0.2,0.2,0.5,0.3,0.8
	c0.2-0.3,0.5-0.6,0.6-0.9C82.4,452,82.4,451.5,82.4,451.1c0.1-0.1,0.3-0.1,0.4-0.2c0.1-0.1,0.1-0.2,0.1-0.3
	C82.7,450.7,82.5,450.9,82.4,451.1z M475.2,16.5c-0.6,0-1.3,0-1.9,0.1c-0.5,0.1-0.9,0.5-1.3,0.8c0.5,0.3,1.2,0.9,1.6,0.7
	C474.2,17.8,474.7,17.1,475.2,16.5c0.1-0.1,0.3-0.1,0.4-0.2c0.1-0.1,0.1-0.2,0.1-0.3C475.6,16.2,475.4,16.3,475.2,16.5z
	 M205.6,445.2c-1.9,1.1-2.6,2.8-2.9,4.9c-1.2,2.2-2.4,4.4-3.6,6.6c-0.1,0.1,0.2,0.6,0.4,0.7c0.2,0.1,0.7-0.1,0.8-0.2
	c0.8-2.4,1.6-4.8,2.4-7.2C204.6,449,205.2,447.2,205.6,445.2c0.1,0,0.3-0.1,0.4-0.2c0.1-0.1,0.1-0.2,0.1-0.3
	C205.9,444.9,205.7,445.1,205.6,445.2z M284.1,34.9c1.1-0.9,1.7-1.9,1.7-3.8c-1.4,1.1-2.5,1.9-3.6,2.8c-3.6,0.7-3.6,0.7-3.4,5.2
	c1.4-2.1,2.4-3.6,3.4-5.1C282.9,34.3,283.5,34.6,284.1,34.9c-0.1,0.1-0.3,0.1-0.4,0.2c-0.1,0.1-0.1,0.2-0.1,0.3
	C283.8,35.2,284,35.1,284.1,34.9z M221.1,18.4c-3.1,1.4-3.1,1.4-1.3,3.9C220.2,21.1,220.6,19.8,221.1,18.4c0.1-0.1,0.3-0.1,0.4-0.2
	c0.1-0.1,0.1-0.2,0.1-0.3C221.4,18.1,221.2,18.3,221.1,18.4z M276.4,136.8c-2.8,2.8-2.8,2.8-2.2,6.9
	C275.1,140.9,275.7,138.8,276.4,136.8c0.1-0.1,0.3-0.1,0.4-0.2c0.1-0.1,0.1-0.2,0.1-0.3C276.7,136.4,276.5,136.6,276.4,136.8z
	 M64.9,451.1c-0.1-0.1-0.1-0.3-0.2-0.4c-0.1-0.1-0.2-0.1-0.3-0.1C64.6,450.7,64.8,450.9,64.9,451.1c2.5,2.7,4.9,5.4,8,8.7
	C71.3,455.5,68.5,452.6,64.9,451.1z M200.7,435.5c-0.1-0.1-0.1-0.3-0.2-0.4c-0.1-0.1-0.2-0.1-0.3-0.1
	C200.4,435.2,200.6,435.4,200.7,435.5c0.4,2,0.6,4,1.1,6c0.2,1.1,0.8,2.1,1.5,3.8c0.4-2.3,3-3,1.7-4.9
	C203.8,438.7,202.1,437.2,200.7,435.5z M404.4,3.9c-5.2,2.3-5.4,3-3.3,9.9c0.4-1.6,0.8-3.3,1.3-4.9C403,7.1,403.8,5.5,404.4,3.9
	c0.1-0.1,0.3-0.1,0.4-0.2c0.1-0.1,0.1-0.2,0.1-0.3C404.7,3.6,404.6,3.7,404.4,3.9z M362.7,6.8c-0.1-0.1-0.1-0.3-0.2-0.4
	c-0.1-0.1-0.2-0.1-0.3-0.1C362.4,6.5,362.6,6.6,362.7,6.8c0.7,3.1,1.2,6.2,2.1,9.3c0.3,1.1,1.2,2,2.2,3.5c0.7-2.5,1.2-4.3,1.7-6.2
	c1-3.3,0.7-4.2-2.3-5.7C365.2,7.2,363.9,7.1,362.7,6.8z M276.4,25.2c-5.7,3-3.9,8.6-4.7,13.3c0,0.2,0.2,0.8,0.4,0.8
	c0.4,0.1,1,0.1,1.3-0.2c3.1-2.9,4.8-6.3,3.6-10.7C276.7,27.4,276.6,26.3,276.4,25.2c1.8-0.3,1.8,1.4,2.7,2.7c0.1-1.2,0.2-2.1,0.2-3
	c0-0.8-0.1-1.6-0.2-2.4c-0.7,0.5-1.4,0.9-2.1,1.5C276.7,24.3,276.6,24.8,276.4,25.2z M66.8,14.5c-1.4,0.6-1.9,1.6-1.9,3.1
	c0,3.1-0.1,6.1,0,9.2c0,0.7,0.4,1.7,0.9,2c0.5,0.2,1.6-0.1,2.1-0.5c3.2-2.7,4.5-6.4,5.5-10.6c-1.5,0.3-2.6,0.7-3.7,0.8
	C66.8,18.7,66.3,18,66.8,14.5c0.1-0.1,0.3-0.1,0.4-0.2c0.1-0.1,0.1-0.2,0.1-0.3C67.2,14.2,67,14.4,66.8,14.5z M255,39.8
	c0.7-0.4,1.6-0.6,1.9-1.1c1.5-2.4,2.6-5.2,4.4-7.4c2.5-3.1,2.6-6,0.7-9.2c-1.7,1.8-3.2,3.7-4.9,5.3c-3.2,3-3.8,6.5-2.5,10.5
	C254.8,38.5,254.9,39.2,255,39.8c-0.4,0.1-0.8,0.2-1.3,0.3c0.1,0.2,0.2,0.3,0.3,0.5C254.4,40.3,254.7,40,255,39.8z M481,21.3
	c-0.8-1-1.6-2-2.5-2.9c-0.3-0.3-1.3-0.4-1.6-0.2c-0.6,0.4-1,1.2-1.2,1.8c-0.1,0.3,0.9,1,1.4,1C478.5,21.4,479.8,21.3,481,21.3
	c0.3,2.1-0.8,3.6-1.8,5.3c-1.3,1.9-1,3.4,0.7,5.5c1.2,1.6,2.8,2.2,4.6,1.4c2.6-1.1,5.2-2.3,7.6-3.5c-2.8-2.5-5.4-4.9-8.2-7.2
	C483.1,22.2,482,21.8,481,21.3z M243.4,17.4c-1.1-2.7-2.1-5.3-3.3-8c-0.1-0.2-1.4-0.3-1.5-0.1c-0.5,0.8-0.8,1.7-1,2.6
	c-0.6,2.9-1.5,5.9-4.3,7.2c-3.5,1.6-3.3,4.7-4.1,7.5c-0.1,0.3,0.2,0.9,0.5,1.2c0.1,0.1,0.6,0,0.9-0.1c0.7-0.4,1.5-0.7,2-1.3
	c1.6-1.9,3-4,4.6-6C238.7,18.5,240.7,17.2,243.4,17.4c-0.4,0.7-0.6,1.6-1.1,1.9c-3.8,1.7-6.1,4.4-6.8,8.5c-0.4,2.2-1.3,4.3-2,6.4
	c-0.3,1-0.5,2-0.8,3.4c3.9-1.5,6.5-3.7,8.4-6.8c1.1-1.8,0.1-4.8,3-5.5c0.1,0,0.1-0.3,0.1-0.5C244.2,22.3,245.1,19.7,243.4,17.4z
	 M125,19.4c-0.6-0.2-1.6-0.6-1.6-0.7c0.6-2.8-1.3-2.4-2.8-2.1c-1,0.2-2,1-2.7,1.7c-2.4,2.7-5.3,4.6-8.6,6c-0.9,0.4-1.7,1.1-2.9,1.9
	c1.7,0.7,2.9,1.2,4,1.7c2.1,1.1,4.3,1.5,6.4,0.3c1.6-0.9,4.6-0.7,3.6-4.1c-0.1-0.3,1.1-1,1.7-1.4C123.5,22,125.1,21.4,125,19.4
	c0.2-0.1,0.4-0.3,0.5-0.5C125.4,19.1,125.2,19.2,125,19.4z M136.7,13.6c-0.1-0.7-0.4-1.6-0.2-2.1c0.5-1,1.5-1.7,1.9-2.7
	c0.3-0.6,0.2-1.7-0.2-2.2c-0.3-0.4-1.4-0.4-2.1-0.3c-2.6,0.4-4.6,1.5-4.8,4.6c-0.1,1.3-0.8,2.6-1.3,4.3
	C132.5,14.5,134.6,14.1,136.7,13.6c1.1,1.8,0.3,2.8-1.5,2.8c-2.7,0-5.1,1-7,2.8c-1.7,1.7-3.1,3.6-4.7,5.5c2.6,2.6,4,3.1,6.6,1.7
	c3.9-2,6.3-5.4,8.3-9.1c0.5-0.9,0.3-2.2,0.6-3.2c0.1-0.3,0.8-0.5,1.2-0.5c0.3,0,0.6,0.6,0.7,0.9c0.2,0.5,0.1,1.4,0.4,1.6
	c1,0.6,4.5-0.5,4.9-1.6c0.9-2.4,2.7-3.9,4.8-5.2c0.6-0.3,1.3-0.6,1.5-1.1c0.3-0.8,0.6-2,0.2-2.6c-0.8-1.3-1.7-0.1-2.2,0.5
	c-2.5,3-5.8,4.5-9.4,5.5C139.6,12.1,138.2,12.9,136.7,13.6z M97.9,23.3c5.3-0.3,9.9-2.8,14.5-5c2.8-1.3,5.3-3.6,6.1-7.1
	c0.4-1.4,1.4-3,0-3.9c-1-0.7-2.8-0.4-4.2-0.3c-0.6,0-1.1,0.6-1.6,1c-3.3,2.6-6.7,5-9.7,7.9C100.9,18,98.7,20.2,97.9,23.3
	c-0.1,0.1-0.3,0.1-0.4,0.2c-0.1,0.1-0.1,0.2-0.1,0.3C97.6,23.6,97.7,23.4,97.9,23.3z M274.4,152.3c0.8-1.2,1.5-2.4,2.3-3.6
	c4.3-7.3,8.5-14.7,13-22c1.2-2,3.1-3.7,4.8-5.3c1.9-1.9,4.1-3.6,6.1-5.5c2-1.8,2-4.2,1.6-6.6c-0.2-1.4-1.5-1.9-2.4-0.9
	c-2.8,2.9-7.5,3.6-9.1,7.9c-0.2,0.5-0.8,1-1.4,1.3c-1.4,1-3.2,1.7-3.3,3.8c0,0.2-1.2,0.5-1.5,0.3c-0.4-0.3-0.7-1.1-0.5-1.6
	c0.3-0.7,0.9-1.3,1.4-1.8c1.1-1.1,2.3-2.1,3.5-3.1c-3.2,0-6.2,0.5-8.9,1.6c-2.9,1.2-3.6,4.4-1.9,7.2c0.5,0.8,1.2,1.6,1.4,2.5
	c1.4,8.6-1.7,15.9-7.1,22.6C272.8,150,273.6,151.1,274.4,152.3c-1,0.2-2.1,0.3-3,0.8c-0.5,0.3-0.6,1.3-0.7,2.1
	c0,0.3,0.6,0.8,0.9,0.8c0.5,0,1.3-0.2,1.6-0.6C273.8,154.4,274.1,153.3,274.4,152.3z M289,186.2c-2.7,3.9-5.6,7.8-8.2,11.8
	c-3.6,5.5-1.7,11,4.5,13.5c4,1.7,6.5,6.3,5.5,10.6c-0.5,2.2-1.4,4.2-2.1,6.4c-0.6,1.8-1.3,3.6-1.6,5.5c-0.3,2.1,0.6,2.9,2.7,3
	c3.3,0.1,3.3,0.1,4,2.9c0.6,2.2,1.4,4.4,3.8,5.2c0.7,0.2,1.7-0.4,2.6-0.6c-0.2-0.7-0.3-1.5-0.7-2.1c-5.9-8.1-6-8.1-5.9-18
	c0.1-4.7-0.4-9.2-1.5-13.8c-1.3-5.1-1.7-10.5,0.1-15.6c2.2-6,2.2-12.7,5.1-18.5c0.3-0.7,0.1-1.6,0.2-2.4c0.3-1.8-0.7-2.7-2.2-3.2
	c-1.5-0.5-3,0.4-3.6,2.3c-0.8,2.4-1.3,4.8-2.3,8.4c1.6-1.5,2.2-2.1,3-2.9c-0.2,4.4-1.3,8.1-3.2,12.2c-1.2,2.5-2.3,5-3.2,7.5
	c-0.3,0.8,0.2,1.8,0.4,2.7c0.7-0.3,1.4-0.6,2.1-0.9c0.3-0.1,0.5-0.1,0.8-0.2c0,0.4,0.2,1,0,1.3c-0.4,0.7-1,1.4-1.6,1.8
	c-0.9,0.5-2.2,1.3-2.9,1.1c-1.2-0.4-1.7-1.8-1.1-3.2c1-2.8,1.9-5.7,2.9-8.6C287.5,190.4,288.3,188.3,289,186.2
	c0.1,0,0.3-0.1,0.4-0.2c0.1-0.1,0.1-0.2,0.1-0.3C289.3,185.9,289.1,186.1,289,186.2z M304.5,116.4c2.4-3.1,4-6.9,7.4-9.2
	c1.9-1.3,3.9-3,5.1-4.9c1.9-3.2,4.9-5,7.6-7.3c2.4-2.1,4.9-4.1,7.2-6.4c3.1-3,5.8-6.4,9.6-8.7c1.7-1,2.3-2.6,1.6-4.6
	c-0.4-1.2-0.5-2.5-1-3.7c-0.6-1.7-1.4-3.2-3.3-3.9c-3.2-1.1-6.2-2.9-9.5-3.4c-6-0.8-12.2-1-18.3-1c-4.3,0-8.6,0.6-13,0.8
	c-4.6,0.3-9.4-0.6-13.9,1c-2.3,0.8-4.5,1.6-6.8,2.4c-0.7,0.2-1.5,0.2-2.2,0.2c0.3-0.6,0.5-1.5,1-1.8c3.3-2.1,6.7-3.8,10.8-3.7
	c3.2,0,6.5-0.1,9.7,0c2.2,0.1,3.7-0.8,4.9-2.5c0.3-0.4,0.2-1.6-0.1-1.9c-2.8-2.5-5.3-5.3-9.3-6.5c-4-1.2-6.9-0.6-9.6,2.3
	c-1.1,1.2-2.2,2.4-3.5,3.3c-6.1,4.3-11.4,9.4-16.5,14.9c-3.2,3.5-4.3,8.2-5.4,12.7c1.5,3.3,0.2,6.6-0.1,9.9
	c-0.1,1.3,0.1,2.7,0.2,4.9c2.2-2.4,4.4-3.9,5.2-6c1.1-2.5,2.7-2.9,4.9-3c2.1-0.1,4.3,0.3,6.3-0.3c5.5-1.6,11.1-1.6,16.7-1.8
	c4.2-0.1,8.5,0.3,12.7-0.9c2.9-0.8,5.9-1.5,8.9-1.9c1.6-0.2,2.5-0.9,3.4-2.3c1.7-2.5,3.7-4.9,5.8-7.1c1.9-2,4.4-2.7,7.1-2.3
	c0.5,0.1,0.8,0.7,1.2,1.1c-0.4,0.3-0.8,0.7-1.1,0.7c-2.7-0.1-5.3,0.9-7,2.8c-2,2.2-3.4,5-5.1,7.5c-0.7,1-1.4,2.1-2.3,3
	c-3,2.8-6.2,5.5-9.1,8.4c-1.3,1.3-2.2,3.2-3.3,4.7c-0.7,1-0.5,1.7,0.4,2.5c2.4,2.1,2.8,4.9,2.6,8
	C304.5,113.8,304.5,115.1,304.5,116.4c-0.1,0.1-0.3,0.1-0.4,0.2c-0.1,0.1-0.1,0.2-0.1,0.3C304.2,116.7,304.3,116.6,304.5,116.4z
	 M310.3,88.3c-1.7,0.2-3.6,0.2-5.2,0.7c-3,1-5.9,1.4-9,1.2c-9.4-0.8-18.6,1.3-27.8,2.1c-0.7,0.1-1.6,0.5-2.1,1
	c-5.8,6-12.4,11.4-17,18.5c-4.2,6.5-8.3,13-11.1,20.2c-0.5,1.2-1.4,2.1-2.2,3.2c-3.9,5.1-7.9,10.1-11.8,15.2
	c-3.7,4.8-7.1,10-11.2,14.4c-9.3,9.9-15.7,21.6-21.7,33.5c-3.3,6.6-6.3,13.3-9.7,19.9c-1.5,2.9-2.6,5.9-4.4,8.6
	c-3.4,5-5.3,10.7-7.1,16.3c-3.5,11.3-6.8,22.7-12.6,33.2c-2.9,5.3-4.8,11.2-7.1,16.9c-3.1,7.7-6.3,15.5-9.2,23.3
	c-1.5,4.1-2.4,8.3-3.5,12.5c-1.9,7.4-3.8,14.9-5.7,22.3c-2.1,8.6-3.3,17.4-7.8,25.2c-0.9,1.5-1.4,3.3-1.8,5
	c-1.3,4.8-2.6,9.6-3.5,14.5c-1.3,7-4.5,13.4-7.1,19.9c-0.5,1.1-1,2.5-0.8,3.6c0.6,2.7-0.1,5.2-1.4,7.3c-3.6,6.1-7.5,12-11.5,17.8
	c-1.1,1.6-3,2.9-4.8,3.9c-2.1,1.2-4.5,1.7-6.6,2.7c-0.9,0.4-1.7,1.4-2.1,2.3c-0.4,1.2,0.1,2.2,1.6,2.4c0.6,0.1,1.2,0.5,1.7,0.9
	c1.5,1.4,2.8,1.1,4.2-0.3c1.6-1.6,3.1-3.4,4.9-4.7c8.1-5.9,13.6-14,18.7-22.4c0.6-1.1,0.5-3,2.5-2.9c-0.4,1.3-0.4,2.9-1.1,4
	c-3.1,4.7-6.4,9.3-9.7,13.8c-1.7,2.3-3.5,4.6-5.7,6.5c-2.6,2.3-5.3,4.3-7.6,7c-3.2,3.8-8.1,5.7-11.1,9.8c-0.4,0.6-1.4,0.7-2.1,1
	c-5,2.1-10.2,4-15,6.5c-4.3,2.2-8.4,5.1-12.8,7.8c2-0.3,3.7-0.7,5.4-0.9c2.1-0.3,4.2-0.2,6.2-0.7c4.5-1.1,8.9-2.5,13.4-3.8
	c1.7-0.5,3.4-1.2,5.1-1.3c7.2-0.8,14.3-1.4,21.5-2c1.3-0.1,1.8-0.6,2.5-1.7c0.9-1.6,2.6-2.7,3.9-4c2.8,1.4,3.7-0.5,4.8-2.6
	c0.4-0.8,1.3-1.5,2.1-2c1.1-0.7,2.4-0.6,2.5,0.9c0.1,1.9,0.9,2.5,2.7,2.5c0.9,0,1.9,0.4,2.6,0.9c2.5,1.8,5.4,1.1,8,0.8
	c2.3-0.3,1.9-3.1,2.8-4.7c0.2-0.3,0.2-0.6,0.4-0.9c2-2.6,1.7-5.3,0-7.9c-0.7-1.1-1.3-2.2-1.9-3.3c-1.5-2.5-3-5-4.4-7.5
	c-0.2-0.3-0.1-1,0.1-1.2c0.2-0.2,1-0.2,1.2,0c2.7,2.3,5.3,4.7,7.9,7.1c0.9,0.8,1.5,1.9,2.3,2.9c1-0.8,2-1.6,2.9-2.5
	c0.9-0.9,1.7-2,2.6-2.9c1.4-1.3,2.9-2.5,4.4-3.7c0.2-0.2,0.8,0.1,1.2,0.3c0.1,0.1,0.1,0.7,0,0.9c-0.7,0.9-1.5,1.6-2.2,2.5
	c-2,2.7-4.1,5.3-5.9,8.2c-0.6,1-1.2,2.5-0.9,3.6c0.8,2.7,2.1,5.4,3.2,8c0,0.1,0.2,0.2,0.4,0.2c3.4,0.7,6.9,1.5,10.4,2
	c0.9,0.1,2.5-0.6,2.8-1.3c0.9-2.2,3.3-1.9,4.5-3c1.4-1.3,1.7-3.6,2.5-5.5c0.1-0.1,0.2-0.2,0.3-0.4c1-1.3,2-1,2.7,0.2
	c0.4,0.7,0.6,1.8,0.4,2.6c-0.3,1.4-0.9,2.5,1.5,2.1c0.9-0.1,2.2,1.1,3.1,1.9c1.3,1.2,1.8,2.9,2.1,4.7c0.2,1.5,1.7,1.8,3.1,1.7
	c1.3-0.1,1.5-1.1,1.4-2.1c-0.1-1.9,0-3.9-0.6-5.7c-1.1-3.7-2.6-7.2-3.9-10.8c-1-2.5-2.1-5-3.1-7.6c-0.1-0.4,0.3-1.1,0.7-1.5
	c0.1-0.1,1,0.2,1.2,0.5c0.5,0.6,0.9,1.3,1.3,2c1.7,2.9,3.2,5.9,5,8.7c1.2,2,2,2,3.6,0.2c0.8-0.8,1.4-1.7,2.2-2.6
	c0.1-0.2,0.6-0.2,0.8,0c0.2,0.1,0.5,0.6,0.5,0.8c-0.3,1.1-0.8,2.1-1,3.2c-0.3,1.7-0.9,3.6-0.3,5.1c1.2,3.2,2.5,6.2,2.6,9.7
	c0,1.6,0.9,3,2.9,3.4c4.4,0.8,8.7,2.1,13.1,2.6c5.7,0.7,11.6-0.7,17.3,0.9c0.3,0.1,0.8-0.4,1-0.7c0.1-0.1-0.2-0.7-0.4-0.8
	c-3.2-1.4-5.6-3.9-7.8-6.4c-2.4-2.8-5.5-4.7-8.6-6c-7.8-3.3-13.6-9-19.7-14.4c-0.7-0.6-1.3-1.5-1.4-2.3c-0.5-4-2-7.6-4.5-10.8
	c-0.3-0.4-0.2-1-0.3-1.5c0.6,0,1.3-0.3,1.8,0c0.6,0.4,1.2,1.1,1.5,1.8c1.8,3.6,4,7.1,5.1,10.8c0.5,1.7,1.4,2.7,2.4,3.8
	c0.8,0.9,1.8,2.2,3.2,1.3c0.4-0.2,0-1.7,0.1-2.6c0-0.5,0.3-0.9,0.4-1.4c0.7-5.8,1.7-11.6,0.3-17.4c-0.2-0.8,0-1.8-0.5-2.3
	c-3-3.8-4.1-8.3-4.9-12.9c-1.1-6.1-2.7-12.2-3.2-18.4c-0.6-7.4-0.1-14.9-0.1-22.3c0-1.4,0.4-2.8,0.3-4.2c-0.6-6-0.8-11.9,1.3-17.6
	c0.6-1.6,0.9-3.4,1.3-5.1c1-4,1.6-8.2,3.1-12.1c4.7-12.6,9-25.3,12.4-38.4c1.7-6.6,4.7-13,7.3-19.4c2.7-6.6,5.5-13.1,8.4-19.5
	c4-8.8,8-17.5,13.3-25.6c6-9.1,12.2-18.2,17.8-27.5c6.1-10.1,11.6-20.4,17.4-30.6c0.8-1.4,1.7-2.7,2.7-4c2-2.7,4.2-5.3,6.2-8
	c5-6.8,11.3-12.4,17.3-18.3c4.1-4,8.4-7.9,12.3-12c2.7-2.8,4.9-6,7.5-8.8c2.6-2.9,5.3-5.7,8.3-8.2c5.4-4.5,11.3-8.5,16.6-13.1
	c3.1-2.7,6.5-5.2,9-8.6c3.2-4.2,6.7-8.2,10.2-12.2c1.5-1.7,3-3.5,4.8-4.7c6.5-4.5,12.7-9.3,17.5-15.7c3.5-4.6,7.2-9,10.8-13.5
	c0.6-0.8,1.1-1.7,2.3-3.6c-1.8,1.1-2.6,1.6-3.4,2c-0.4,0.2-1.2,0.1-1.3-0.2c-0.3-0.5-0.3-1.1-0.2-1.7c0.1-0.5,0.3-0.9,0.6-1.3
	c1.7-2.7,0.5-4.9-1.3-7c-0.9-1.1-1.7-1.6-3,0c-2.1,2.6-4.6,4.9-7,7.3c-0.2,0.2-0.8,0.2-1.2,0.3c0-0.5-0.3-1.1-0.1-1.3
	c2.3-2.8,2-5.9,1.5-9c-1.8,0.7-3.3,1.7-5,2c-1.7,0.3-3.5,0.1-5.2-0.2c-0.7-0.1-1.6-0.8-1.7-1.4c-0.1-0.5,0.6-1.5,1.2-1.8
	c3.8-2,5.1-5.4,6.1-9.9c-2.3,2.5-4.2,4.7-6.2,6.7c-0.4,0.4-1.2,0.8-1.6,0.7c-0.4-0.1-0.8-1-0.8-1.5c-0.1-1.9-0.1-3.9-0.1-5.8
	c0.1-2.3-1.7-3-3.3-3.6c-1.6-0.6-2.2,0.9-3,1.9c-0.5,0.6-0.7,1.4-1.2,2.1c-2.3,3.8-5.6,6.6-9.4,8.9c-0.5,0.3-1.3,0.3-1.8,0.1
	c-0.3-0.2-0.3-1.1-0.2-1.6c0.8-5.3,0.6-5-3.3-7.5c-1.9-1.2-2.5,0-3.7,0.6c-1.4,0.7-2.5,1.5-2,3.3c0.9,3.7-0.7,6.9-2.1,10.1
	c-0.9,2-2.6,2.3-4.4,1.1c-1.1-0.7-1.9-1.8-2.9-2.5c-0.5-0.3-1.6-0.4-2-0.1c-8.5,6.7-16.9,13.4-24.3,21.3c-0.9,0.9-1.4,2.2-2.1,3.4
	c4.7-0.2,8.8-0.5,13-0.5c2.9,0,5.7,0.9,8.6,0.8c4.3-0.2,8.3,0.8,12.3,2.2c5.6,2,8.6,6.5,8.5,12.5c0,1.2-0.5,2.7-1.3,3.4
	c-3.8,3.2-7.9,6-10.9,10.1c-1.4,1.9-3.3,3.5-5.2,4.9c-4.4,3-8.3,6.7-11.9,10.6c-2.6,2.8-5.2,5.6-7.5,8.6c-1.2,1.5-1.8,3.4-2.9,5
	c-0.7,1-1.7,1.8-2.6,2.7c-0.7-1-1.3-1.9-2-3c-1.3,1.1-2.7,2.3-4.1,3.3c-3.1,2.2-5.5,4.8-7.1,8.3c-1.2,2.6-2.8,5-4.4,7.5
	c-2.5,3.9-5.4,7.6-7.4,11.8c-1,2.2-2.1,4.2-3.3,6.2c-1.3,2.1-2.7,2.4-4.9,1.7c-1.2-0.4-2.5-0.3-3.7-0.2c-2.3,0.3-2.9,0-3.2-2.2
	c-0.6-4.1,0.9-7.4,4.3-9.6c2.5-1.5,4-3.4,5-6.2c0.7-1.9,2-3.7,3.3-5.3c2.4-3,2.7-5.6,0.6-9.2c-2.5-4.3-1.3-8.2,3.2-10.2
	c1.7-0.8,3.6-1.3,5.5-1.6c5-0.8,9.4-3.1,13.5-6c0.6-0.4,1.7-0.9,0.3-1.6c-1.7-0.9-1.5-1.7-0.3-2.9c1-1,2-2.2,2.6-3.4
	c1.4-2.6,3.3-4.7,5.8-6.4C308.3,91.8,310.1,90.7,310.3,88.3c0.1-0.1,0.3-0.1,0.4-0.2c0.1-0.1,0.1-0.2,0.1-0.3
	C310.6,88,310.5,88.1,310.3,88.3z M300.1,30.3c-6.1,2.2-6.2,2.3-6.3,8.2c0,2.8-0.4,5.5-2.1,7.7c-1,1.4-0.5,2.2,0.8,2.5
	c3.8,0.9,6.5,3.4,9.1,6c1.8,1.8,2,1.8,3.9-0.1c5.8-6,12.1-11.5,19.2-16.2c-0.6-0.7-0.9-1.2-1.4-1.6c-2.3-2.2-2.1-2-4.4,0.1
	c-2.2,2.1-3.9,4.4-5.2,7.2c-0.8,1.7-2.8,3.1-4.5,4.2c-1.4,0.9-2.5-0.1-2.3-2c0.2-2.6,0-2.9-2.9-2.7c-1.1,0.1-2.2,0.6-3.3,0.8
	c-2.1,0.3-4.1,0.4-5.7-1.6c1.8-2.2,3.6-4.2,5.2-6.4c0.5-0.7,0.7-1.7,0.7-2.5C301,32.8,300.5,31.6,300.1,30.3z M313.3,135.8
	c-0.4-0.4-0.8-0.7-1.1-1.1c-0.4,0.7-0.8,1.4-1.3,2.1c-3.2,4.7-7.3,8.4-11.7,11.9c-2,1.6-3.7,3.5-5.4,5.3c-0.4,0.4-0.6,1.3-0.4,1.7
	c1.2,2.4-0.3,4.4-1.1,6.4c-1.1,3.1-2.5,6.1-3.7,8.9c2.7-0.7,5.3-2.2,7.7-1.9c2.6,0.3,3.1-0.4,3.4-2.5c0.2-0.9,0.8-1.7,1.1-2.6
	c1.3-3.1,2.5-6.2,3.7-9.3c1.2-3.1,2.1-6.4,3.5-9.4C309.6,142.2,311.5,139,313.3,135.8z M117.3,469.6c0.3,1.1,0.5,2.1,0.7,3.1
	c-1,0.1-2.1,0.5-3.1,0.3c-0.7-0.1-1.3-1-2-1.3c-2.4-1-3.7,0.1-3.8,2.8c0,1.1-0.4,2.1-0.5,3.2c-0.4,4,1.7,7.5,5,8.1
	c4.2,0.9,10.3-2,12.4-5.8c2.8-5.3-0.4-10.6-6.3-10.5C118.8,469.5,117.9,469.6,117.3,469.6z M174.8,472.3c0.7-1.3,0.7-3-1.2-4.1
	c-0.6-0.3-1.5-0.3-2.2-0.4c0.3,0.5,0.9,0.9,0.8,1.4c0,0.4-0.7,1.2-1,1.2c-1.1-0.1-2.2-0.4-3.2-0.7c-4.5-1.4-4.5-1.4-6,3.3
	c-0.2,0.8-0.7,1.5-0.8,2.3c-0.2,2.7-0.5,5.5,1,7.8c1.3,2.2,3.9,1.7,6.2,1.8c1.9,0.1,3.1-0.8,3.9-2.3
	C174,479.6,175.4,476.4,174.8,472.3z M477.9,24.6c-1.1-0.7-2-1.3-2.8-1.9c-3.2-2.4-6.2-5.1-10.7-4.3c-0.6,0.1-1.4-0.6-2.2-0.8
	c-1-0.3-2.1-0.8-3-0.7c-1,0.1-2.2,0.7-3,1.4c-0.9,0.9-0.4,6.7,0.6,7.3c1.8,1,3.7,2.2,5.7,2.4C467.8,28.5,473.1,27.8,477.9,24.6z
	 M360.3,7.3c-3.4,1.4-5.2,4.5-7.2,7.4c-1,1.4-1.7,3.3-1.6,4.9c0.1,3.6,0.7,7.3,1,10.9C362,23.3,365.2,16,360.3,7.3z M334.6,27.3
	c3-1.8,6-2.8,7.8-4.9c2.3-2.6,4.4-5.8,3.6-9.7c-0.3-1.7-1.1-3.3-1.8-4.9c-0.8-1.9-1.4-2-2.7-0.5c-1.4,1.5-2.5,3.4-4,4.8
	c-1.9,1.8-2.6,4-2.9,6.4C334.4,21.1,334.6,23.9,334.6,27.3z M375.4,2.3c-0.7,0.8-1.5,1.4-1.8,2.3c-1.4,3.9-2.8,7.8-3.9,11.8
	c-0.4,1.3-0.1,2.9,0,4.3c0.2,1.6,0.5,3.1,0.8,4.7c0.1,0.5,0.5,1.1,0.9,1.5c0.2,0.1,1-0.2,1.2-0.5c2.1-2.8,4.4-5.5,6.2-8.4
	c1.6-2.6,0.8-5.5-0.3-8.2C377.6,7.3,376.6,5.1,375.4,2.3z M211.4,454.9C211.4,454.9,211.4,454.9,211.4,454.9c0.8,0,1.6,0,2.4,0
	c1.1,0,2.3,0.1,3.4-0.1c2.1-0.4,3.6-2.2,3.9-4.3c0.3-2.2-1.5-2.6-2.9-3.2c-1.8-0.8-3.7-1.8-5.7-2.1c-1.5-0.2-3.8,0-4.5,0.9
	c-1.5,1.9-2.4,4.4-3.2,6.8c-0.4,1.2,0.4,2.1,1.9,2.1C208.2,454.9,209.8,454.9,211.4,454.9z M225.6,445.8c-0.2-0.1-0.3-0.1-0.5-0.2
	c-0.4,0.6-0.9,1.2-1.1,1.9c-0.7,3.3-1.4,6.6-2.1,9.8c-0.2,0.8-0.5,1.5-1.6,0.9c-3.3-1.7-11.1-1.9-14.3-0.4c-1.5,0.7-2,2.7-0.7,3.9
	c0.7,0.7,1.6,1.1,2.4,1.5c1.7,0.8,3.4,1.7,5.2,2.4c0.5,0.2,1.4,0.3,1.6,0c1.5-1.8,3.5-2.6,5.5-3.7c1.3-0.7,2.4-2.3,2.8-3.7
	C224,454.1,224.7,449.9,225.6,445.8z M202,8.4c-0.5,2.9-1.1,5.2-1.2,7.6c-0.2,3.7,0,7.4,0,11.1c0,0.8,0,1.6,0.2,2.4
	c0.4,1.3,1.8,1.9,2.5,1c1.5-2,4.4-3.4,3.2-6.8c-0.3-0.8,0.4-1.8,0.5-2.7c0.2-1.5,0.3-3.1,0.3-4.6C207.6,12.8,205.2,10.9,202,8.4z
	 M210.2,21.4c3.1-1.6,5.4-2.6,7.7-3.9c4.5-2.5,6.5-6.1,6.1-12c-0.1-1.6-0.9-1.9-2.2-0.8c-3.2,2.7-8.2,3.9-8.5,9.3
	c0,0.1-0.2,0.2-0.3,0.3C211.2,16.1,210.9,18.3,210.2,21.4z M49.8,10.2c-0.1-0.1-0.3-0.1-0.4-0.2c0-0.6,0-1.3-0.1-1.9
	c-0.3-1.8-1.1-2.2-2.6-1.3c-0.8,0.5-1.5,1.1-2.3,1.7c-4.9,3.5-5.4,9.2-7.2,14.3c-0.1,0.2,0,0.8,0.2,0.8c0.4,0.1,1,0.3,1.2,0.1
	c3.2-2.7,6.4-5.3,9.3-8.3C49,14.1,49.2,12,49.8,10.2z M237.2,7.2c-0.4-0.3-0.8-0.9-1-0.8c-2.8,0.5-5.7,1-7.4,3.7
	c-1.2,1.9-2.7,3.6-3.7,5.6c-1,1.9-1.8,4-2.6,6.1c2.5,0.7,4-1.5,6-2.1c0.5-0.1,0.9-0.4,1.3-0.6C235.2,17,235,11.4,237.2,7.2z
	 M23.7,23.7c0.2,0,0.4-0.1,0.6-0.1c-0.3-0.7-0.6-1.3-1-2c-0.5,0.3-1.2,0.5-1.6,0.8c-2.4,2-5,3.8-4.6,7.7c0.2,1.6-0.9,3.3-1.3,5
	c-0.5,1.7-1,3.4-1.2,5.1c-0.1,0.6,0.4,1.4,0.7,2.1c0.6-0.2,1.3-0.3,1.6-0.8c1.9-2.4,3.8-4.7,5.5-7.2c0.5-0.7,0.7-1.8,0.8-2.7
	C23.4,29,23.5,26.3,23.7,23.7z M509.2,18.4c-2.4,0.3-5.4-1-4.2,3.1c0,0.1-1.1,0.5-1.5,0.9c-0.2,0.3-0.2,1.2,0,1.3
	c3.2,1.4,6.2,3.2,9.9,2.4c2-0.4,4.1-0.6,6.1-1c0.6-0.1,1.5-0.6,1.5-0.9c0-0.7-0.4-1.5-0.9-1.9C516.9,19.5,512.9,18.6,509.2,18.4z
	 M149.2,32.3c2.4-0.4,4-0.7,5.6-1c0.4-3.6,3.9-4.5,6.1-6.4c3.3-2.7,3.2-6.1,2.6-9.6c-0.2-1.1-1.3-2.1-1.9-3.2
	c-0.8,0.9-1.6,1.8-2.2,2.7c-0.3,0.5-0.3,1.2-0.6,1.8c-1.5,3.7-2.8,7.4-5.8,10.3C151.8,28.3,150.8,30,149.2,32.3z M407,3.5
	c-1.3,3-2.5,5.5-3.3,8c-1,3.5,1.3,7.3,4.8,8.4c0.9,0.3,2.1,0,3.2-0.3c0.4-0.1,0.8-0.9,0.8-1.3C412.5,13,411.2,8.2,407,3.5z
	 M246.4,17.7c-0.1,4.2,0,7.8-1.7,11.3c-1.5,3.1,0.3,5,4.1,4.9c1.2,0,2.6,0.5,3.2-1.3c0.9-2.6,1.5-5.1,0.3-7.9
	C251.2,21.9,250.1,19.1,246.4,17.7z M285.5,36.3c0.2,0.2,0.4,0.4,0.6,0.6c2.3-1.6,4.5-3.3,6.8-4.9c0.6-0.5,1.5-0.9,1.9-1.5
	c0.7-1,1.1-2.3,1.7-3.4c0.7-1.2,1.7-2.3,2.4-3.6c1.5-2.8,2.9-5.6,4.8-9.2c-4.4,1.7-7,4.2-9.8,6.6c-0.4,0.4-0.9,1.2-0.8,1.6
	c0.6,2.7-1.2,4.5-2.5,6.4C288.9,31.4,287.2,33.9,285.5,36.3z M23.2,11.7C17,14.9,12.6,19.1,9,24.4c-0.5,0.7-0.5,1.6-0.8,2.4
	c0.9,0,2,0.4,2.7,0.1c2.5-1.1,4.9-2.4,7.2-3.9C22,20.4,22.6,16.4,23.2,11.7z M261.9,34.1c5.1-2.4,8.6-5.3,11.8-8.7
	c2.1-2.2,2.8-4.9,3.5-7.7c0.1-0.5-0.2-1.5-0.5-1.7c-0.6-0.2-1.8-0.3-2.1,0.1c-2.1,2.1-4.4,4.3-6,6.7
	C266.2,26.2,264.4,29.9,261.9,34.1z M144.7,21.4c-0.4-1.1-0.6-2.3-1.2-2.6c-0.6-0.3-2,0.2-2.5,0.8c-1.9,2.2-4,4.3-5.2,6.8
	c-1.3,2.7-2.6,5.1-4.8,7.1c-0.4,0.4-0.5,1.1-0.8,1.6c0.7,0.3,1.6,0.9,2,0.7c2-1,3.9-2.1,5.6-3.5C141.3,29.4,142.2,24.9,144.7,21.4z
	 M281.9,31c1-0.5,2.2-0.7,3-1.4c1.9-1.7,4-3.1,4.2-6.1c0.1-1.4,1.8-2.7,2.2-4.2c0.2-1-0.5-2.3-1.1-3.3c-0.2-0.3-1.7-0.2-2.1,0.2
	C282.6,21.3,279.9,22.8,281.9,31z M430.5,8c0.7,0.4,1.4,0.8,2.1,1.2c1.2,0.7,2.4,1.5,3.5,2.3c-1.4,1-2.8,2-4.2,2.8
	c-0.5,0.3-1.2,0.4-2.8,0.9c2.8,0.8,4.9,2.2,6.5,1.8c3.8-0.9,8.3-1,11-4.9c-2.8-1.2-5.6-2.1-8-3.6C436.4,7.2,434.1,6.4,430.5,8z
	 M74.9,21.5C73.3,24,72,26,70.9,28c-0.5,0.9-1.1,2.2-0.9,3.1c0.5,3.1,1.3,6.1,2.1,9.3C77,36.1,78.2,28.1,74.9,21.5z M303.5,4.4
	c0-0.1,0.1-0.9,0-1.7c-0.1-0.5-0.5-1.1-1-1.4c-0.2-0.1-1,0.3-1.1,0.6c-0.8,2-2.5,2.7-4.1,3.8c-1.5,1.1-2.7,2.7-3.9,4.2
	c-1,1.3-0.1,2.4,0.5,3.5c0.8,1.3,1.8,0.9,2.9,0.5C302.3,12.4,303.5,10.7,303.5,4.4z M506.8,32.6c-1.8-2.4-3.8-4.4-5-6.8
	c-1.3-2.6-3.3-2.8-5.6-2.4c-0.8,0.1-1.5,0.9-2.3,1.4c0.5,0.7,0.9,1.9,1.5,2.1c2.2,0.5,2.2,1.3,1,2.9c-0.3,0.3,0.1,1.5,0.5,2
	C499.2,34.5,501.8,34.7,506.8,32.6z M548.5,9.9c-1.9-2.4-4-4.6-7.3-5.1c-0.6-0.1-1.4-0.4-1.7-0.1c-2.2,1.7-4.4,3.6-6.7,5.5
	C538,12.8,543.1,13.6,548.5,9.9z M451.2,11.7c-3.1,1.8-4.5,3.8-4,6.8c0.6,3.4,1.8,6.5,3.9,9.2c0.4,0.6,1.5,0.7,2.3,1
	c-0.2-0.7-0.5-1.4-0.6-2c-0.1-0.4-0.4-1-0.2-1.3C455.5,20.5,452.5,16.5,451.2,11.7z M153.7,10.1c-6,3.6-5.4,3.8-7,9.5
	c-0.4,1.5-2.2,3.4-0.5,5.3c1.4-1,2.8-2,4.1-3.1C155.1,18.1,155.7,16,153.7,10.1z M170.1,18.8c-3.8,3.4-7.5,6.6-11.1,9.9
	c-0.6,0.6-1.5,1.9-1.3,2.2c0.6,0.8,1.6,1.7,2.5,1.9c1,0.2,2.1-0.4,3.1-0.8c2.7-1.3,3.4-4.5,5.5-6.4
	C171.1,23.5,170.9,21.2,170.1,18.8z M478,37c0-1,0-1.5,0-2c-0.5-5-2.2-6.2-7.2-5.1c-1.4,0.3-2.9,0.1-4.3,0.4
	c-0.6,0.1-1.7,0.7-1.7,1.2c-0.1,0.8,0.3,1.9,0.8,2.4c0.6,0.5,1.9,0.9,2.6,0.6c1.8-0.8,3-0.2,4.3,1.1c0.9,0.9,2,1.5,3.1,2.2
	c0.5,0.3,1.4,0.9,1.6,0.7C477.7,37.9,477.9,37.2,478,37z M427.3,40.6c2-2.2,3-4.4,2.1-6.8c-1.1-2.6-2.7-5.1-4.2-7.5
	c-0.6-0.9-1.5-1.1-2.4-0.4c-2.5,1.9-3.2,5.3-0.7,7.4C424.3,35.3,425.8,37.7,427.3,40.6z M334,10.1c-1.2,0.6-2.6,1.1-3.8,1.8
	c-3.4,2.1-5.2,7.9-3.8,11.4c0.8,1.9,1.8,2.2,3.1,0.5c3-3.9,4.1-8.5,4.9-13.2C334.4,10.6,334.2,10.4,334,10.1z M384.6,40.6
	c3.5-4.1,4.5-8.5,4.2-13.2c0-0.7-0.8-1.6-1.5-2c-0.7-0.6-1.8-0.7-2.6-1.2c-1.3-0.8-1.7,0-2,1c-0.2,0.7-0.4,1.6-0.3,2.3
	C383,31.7,383.8,35.9,384.6,40.6z M116.9,42.7c5.9-2.2,8.2-5.5,9.5-11.3c0.4-1.7-0.1-2.3-1.4-2.9c-1.9-0.8-3.2-0.2-3.8,1.6
	C119.8,34.1,118.5,38,116.9,42.7z M127.1,46.9c-0.2,0.8-0.4,1.7-0.6,2.6c-0.1,0.4,0,0.9,0,1.3c0.6,0,1.2,0.1,1.7-0.2
	c3.8-1.8,6.8-6.9,6.4-11c-0.1-0.6-0.8-1.6-1.2-1.6c-2.8-0.3-5.7,2-6.2,4.8C126.9,44.1,127.1,45.4,127.1,46.9z M395.7,6.7
	c-1,1.4-1.8,2.1-2.3,3c-1.3,2.4-0.8,4.7,1.5,6.3c1.1,0.8,2.3,1.6,3.4,2.4c-1,1-2,1.9-3.1,2.9c-0.2,0.2-0.6,0.5-0.6,0.7
	c0,0.5,0.2,1.3,0.5,1.3c1.8,0.2,3.6,0.5,5.4,0.3c1.7-0.2,2.1-1.4,1-2.6c-1.3-1.4-1.7-2.9-2.2-4.6C398.4,13.3,397.1,10.3,395.7,6.7z
	 M228.8,468.1c-0.4-0.6-1.1-2.1-2.3-3c-1.4-1.1-1.7,1-2.6,1.5c-2,1-1.9,1.1-4.4-1.4c-0.1-0.1-0.3-0.4-0.3-0.3c-0.9,0.5-2,1-2.8,1.7
	c-0.2,0.2,0.1,1.3,0.4,1.7c1.8,1.8,3.8,3.5,5.7,5.2c0.4,0.4,1.2,0.7,1.7,0.7C226.6,473.9,228.8,471.3,228.8,468.1z M212.9,33.5
	c3.7-2.3,4.8-5.7,4.2-9.6c-0.1-0.8-1.1-2.2-1.4-2.2c-2,0.5-4.3,0.8-5.6,2.2c-0.9,0.9-0.6,3.3-0.1,4.9
	C210.5,30.4,211.8,31.8,212.9,33.5z M142.2,46.8c5.2-1.7,5.6-6.8,6.9-11.3c0.1-0.5-0.2-1.3-0.6-1.7c-1.1-1.2-1.5-2.4-0.8-3.9
	c0.1-0.3-0.5-1.1-0.9-1.4c-0.3-0.1-1.1,0.4-1.3,0.8c-0.5,1-0.8,2.1-1,3.2C143.7,37.3,143,42.1,142.2,46.8z M332.3,24
	c-3.7,2.6-2.8,5.8-1.1,8.6c1.1,1.9,1.9,5.4,4.6,4.8c2.8-0.6,2.3-4.2,3.1-6.5c0.1-0.3,0-0.7-0.1-0.9c-0.4-0.8-0.6-1.7-2-1.5
	c-3.9,0.6-3.9,0.5-4.2-3.5C332.6,24.7,332.4,24.4,332.3,24z M432.5,12.4C429.5,9,427,6,423,4.5c-1.6-0.6-2.1-0.1-2.1,1.4
	c0,0.6-0.1,1.3,0,1.9c1.5,5,0,7.1,6.7,5C429.1,12.4,430.6,12.5,432.5,12.4z M404,41.6c0.1-0.9,0.3-2.3,0.2-3.7
	c-0.1-0.6-0.8-1.3-1.4-1.7c-0.1-0.1-1,0.5-1.3,1c-2.8,4.3-2.3,9-1.7,13.8c0.2,1.3,1.2,1.5,2,0.5C404.1,48.9,405,45.8,404,41.6z
	 M405.8,23.5c-2.3,0.9-4.3,1.9-6.4,2.6c-1.5,0.5-1.9,1-0.9,2.3c0.7,0.9,1.1,2,1.9,2.8c1.4,1.2,2.9,2.3,4.4,3.4
	c0.6-1.6,1-3.3,1.8-4.8C407.9,27.3,406.4,25.5,405.8,23.5z M419.3,11.4c-0.4-2-0.8-4.1-1.3-6.3c-0.1-0.3-0.9-0.8-1-0.8
	c-1.3,1.3-3.4,2.6-3.6,4.1c-0.3,2.6,0.4,5.4,0.9,8c0.2,0.8,1.1,1.5,1.8,2.1c0.9,0.7,1.9,0.8,2.1-0.6
	C418.6,15.8,418.9,13.7,419.3,11.4z M15.4,27.4c-3.6,1.2-7.1,1.4-8.2,5.4C7,33.6,5.9,34.2,5.3,35c-0.8,1-2.3,2.4-2.1,2.9
	c1,1.8,2.5-0.1,3.7-0.2c4.5-0.4,7.4-2.7,7.6-7.6C14.6,29.3,15,28.6,15.4,27.4z M314.7,35.9c0.2,0.2,0.3,0.5,0.5,0.7
	c0.8-0.3,1.6-0.5,2.4-0.8c-0.3-0.6-0.6-1.3-0.9-1.9c-0.7-1.2-1.6-2.4-2.3-3.6c-0.7-1.2-1.6-1.1-2.2-0.2c-1.3,1.8-2.5,3.7-3.5,5.7
	c-0.6,1.3-2.5,2.8-1.1,4.2c1.5,1.4,3.2-0.3,4.8-0.7c0.8-0.2,1.9-0.6,1.3-2C313.4,37,314.3,36.4,314.7,35.9z M269,38.3
	c-1.6,1.5-3.4,3-4.8,4.7c-1.4,1.6-2.4,3.4-3.7,5.4c5.1,0.4,9.6-0.5,12.6-5.2C270,43,270,43,269,38.3z M396,44.1
	c2.3-3.5,3-6.2,2.4-9.1c-0.5-2.9-3.5-5.1-6.3-4.7c-0.4,0.1-1,0.5-1.1,0.8c-0.1,1.7-1,3.6,0.9,4.8C394.6,37.6,395.7,40,396,44.1z
	 M524.2,11c-1.7-0.2-3.4,0-4.8-0.6c-3.8-1.9-6.4,0.9-9.4,2c-0.2,0.1-0.2,1.3,0.1,1.5C514.3,16.8,520.5,15.6,524.2,11z M189.8,43.7
	c2.5-4.9,2.5-9.5,2.9-14.7c-1.9,1-3.2,1.8-4.6,2.6c-2.2,1.3-2.4,1.9-1.5,4.3C187.6,38.2,188.6,40.6,189.8,43.7z M420.4,18.7
	c-0.8,3.1-0.8,3.1-3.1,2.9c-1.1-0.1-1.7,0-2.2,1.2c-0.7,1.6-1.6,3.1-2.4,4.6c-0.3,0.6-0.5,1.2-0.5,1.8c0,0.5,0.3,1.2,0.7,1.6
	c0.1,0.1,0.9-0.1,1.2-0.4c2.1-1.7,4.2-3.4,6.2-5.2C423.1,22.6,423.1,22.5,420.4,18.7z M87.3,9.6c-1.3,0.5-2.6,0.9-3.8,1.6
	c-1.9,1.1-3.7,2.5-5.6,3.7c-1.6,1-1.5,1.8-0.8,3.7c0.6,1.7,0.7,2.1,2.2,1.4C83.5,17.9,85.6,14.1,87.3,9.6z M472.5,7.2
	c1.1,1.2,2.1,2.2,3,3.3c2.4,2.9,5.6,3.4,9.1,2.9c0.6-0.1,1.3-0.4,1.5-0.9c0.2-0.3-0.2-1.1-0.6-1.5c-1.7-2-3.8-3.2-6.7-3.2
	C476.9,7.8,474.9,7.4,472.5,7.2z M445,25.2c-0.7-1.4-1.1-2.2-1.5-3.1c-2.1-4.1-2.1-4.1-6.6-2.9c-0.8,0.2-1.6,0.2-2.3,0.4
	c-0.3,0.1-0.7,0.7-0.7,1c0,0.8,4.2,4.5,5.1,4.5C440.9,25.2,442.7,25.2,445,25.2z M209.9,35.1c-0.2,1-0.2,2-0.6,2.8
	c-1.1,2.1,0,3.7,1.2,5.2c1.3,1.7,2.1,1.6,3.2-0.2c1.4-2.4,2.7-4.7,4-7.2c0.3-0.5-0.2-1.4-0.3-2.1c-0.6,0.3-1.4,0.4-1.8,0.9
	C213,37.7,213,37.7,209.9,35.1z M260.1,18c-0.3-1.1-0.5-2-0.7-2.9c-0.9,0.4-1.9,0.7-2.8,1.2c-0.7,0.4-1.4,0.8-2,1.3
	c-2.3,1.8-1.3,4-0.5,6c0.3,0.8,1,1.4,1.5,2.1c1.2-1.3,2.5-2.4,3.4-3.8C259.7,20.7,259.8,19.2,260.1,18z M516.5,6.9
	c6.7,3.1,12,1.4,17.6-0.3C528.1,2.7,522.8,4.8,516.5,6.9z M461,14c3.3,2.2,6.4,3.9,9.9,0.8c0.2-0.2,0.6-0.1,0.9-0.2
	c2.6-0.9,2.6-0.9,0.9-2.8c-1-1.2-1.8-2-3.3-0.3c-0.5,0.6-2.1,0.3-3.2,0.3C464.2,11.6,462.5,12.4,461,14z M553.7,16.5
	c0-1.3,0-2,0-2.6c-0.1-3.3-0.1-3.3-3.2-2.2c-4,1.3-4.5,3-1.7,6c1,1.1,2.6,1.8,4,2.5c0.7,0.4,1.6,0.2,1.3-1.1
	C553.9,18,553.8,16.9,553.7,16.5z M373.9,35.7c2.8,0.6,5.4-0.5,6.5-2.8c1.4-2.9,1-6.2-0.2-9.8C378,27.6,376,31.5,373.9,35.7z
	 M163.4,35.2c-2.3-0.2-4.1-0.3-6.1-0.5c-0.7,3.1-1.4,6.2-2.2,9.8C160.2,41.9,162,39.7,163.4,35.2z M237.4,44.4
	c0.2,0.9,0.5,1.8,0.7,2.7c1-0.3,2.2-0.4,3-1c1.9-1.3,1.8-2.4-0.1-4.8c-0.3-0.4-0.5-1.2-0.4-1.7c0.2-0.8,0.8-1.4,0.9-2.2
	c0.1-0.6-0.2-1.3-0.4-2c-0.8,0.3-2.1,0.5-2.2,1.1C238.3,39,237.9,41.7,237.4,44.4z M442.6,35.2c-3.7-3.3-7.3-4.4-11.8-3.8
	c0.6,1.5,0.9,2.8,1.6,3.8c0.5,0.7,1.6,1.5,2.3,1.5C437.2,36.4,439.6,35.8,442.6,35.2z M191.5,6.1c-3,1.9-3.2,4.8-4.2,7.3
	c-0.5,1.4,0.8,2.7,2.2,2c1.7-0.9,3.4-2.3,4.6-3.9c0.3-0.4-0.8-2.1-1.4-3.2C192.4,7.6,192,7,191.5,6.1z M104.4,24.2
	c-3.2,0.4-4.9,1.6-5.5,4.3c-0.2,1.1-0.6,2.1-0.9,3.2c-0.2,1-0.3,2-0.5,3c1-0.4,2.2-0.6,3-1.3c0.9-0.8,1.6-1.9,2.1-3
	C103.4,28.6,103.7,26.7,104.4,24.2z M493.1,31.7c-0.5,0.8-1.3,1.4-1.2,1.9c0.3,1.5,0.9,3,1.5,4.4c0.6,1.4,1.4,3.4,3,2.9
	c0.9-0.3,1.1-2.7,1.6-4.1c0-0.1,0.1-0.4,0-0.4C496.5,34.9,494.9,33.4,493.1,31.7z M308.5,31.5c-3.5,2.8-7.3,5.4-9.5,9.8
	c3.6,1.2,5.2-0.3,6.3-3C306.2,35.9,307.4,33.7,308.5,31.5z M172.3,19.5c0.5,0.3,1,0.6,1.5,0.9c0.9-1.2,1.6-2.4,2.6-3.4
	c2.5-2.8,2.5-3.8-0.4-6.2c-1-0.9-1.9-0.7-2.2,0.5C173.2,14,172.8,16.8,172.3,19.5z M408.8,30.1c-0.5,1.8-1,3-1.1,4.2
	c-0.2,1.7-0.5,3.5-0.2,5.2c0.1,0.8,1.3,1.8,2.2,2c1.6,0.3,1.4-1.2,1.5-2.3c0.2-2.2-1.2-4.2-0.3-6.5C411,32.2,409.8,31.3,408.8,30.1z
	 M276.5,40.1c-1.6,3.3-2.2,6.3-5,7.6c-0.1,0,0.3,1.3,0.4,1.3c1.8,0,4,0.4,5.5-0.4c1.8-1,0.8-3.1,0.2-4.7
	C277.2,42.9,277,41.9,276.5,40.1z M427.8,27.5c1.4,0.4,2.5,0.8,3.7,1c0.8,0.1,2.2,0.3,2.5-0.2c0.4-0.6,0.4-1.9,0.1-2.7
	c-0.8-2.2-1.9-4.3-2.9-6.4c-0.1-0.2-0.5-0.4-0.7-0.4c-0.2,0-0.7,0.3-0.7,0.5c-0.1,0.9-0.2,1.9,0,2.8
	C430.3,25.5,430.3,25.5,427.8,27.5z M281.4,5.2c-0.3,0.1-0.6,0.2-1,0.3c-0.3,1.4-1.4,3.2-0.9,4c1.5,2.6,0.7,5.8,2.4,8.6
	c2.2-3.1,1-6.3,1.1-9.4C283.1,7.6,282,6.4,281.4,5.2z M485.1,15.5c-0.5,1.4-1.7,3.3-1.3,3.8c2,2.3,4.4,4.1,6.7,6.1
	c0.2,0.2,0.8-0.1,1.1-0.3c0.1-0.1,0.1-0.7,0-0.9c-1.6-2.5-3.2-5-4.9-7.5C486.3,16.3,485.7,16,485.1,15.5z M261.3,51
	c-1.1-0.7-2.2-1.3-3.1-2.1c-0.6-0.5-1-1.4-1.4-2.1c-0.8,0.7-1.8,1.4-2.3,2.3c-0.6,1.1-0.7,2.4-1.1,3.7
	C256.5,54.2,258.9,52.4,261.3,51z M227.9,23c-0.2-0.1-0.5-0.2-0.7-0.2c-1.4,2.4-2.9,4.7-4,7.2c-0.5,1.1-0.2,2.5,0,3.8
	c0.1,0.4,0.8,0.8,1.4,0.9c0.3,0.1,1-0.4,1.1-0.7C226.5,30.4,227.2,26.7,227.9,23z M251.6,39.1c-2,2-3.4,3.2-4.6,4.6
	c-1.1,1.3-0.6,2.6,1,2.7c1.8,0.1,3.5,0,5.3-0.2c0.5-0.1,0.9-0.8,1.3-1.2c-0.5-0.3-1-1-1.4-0.9c-1.6,0.6-2.1-0.2-2-1.6
	C251.2,41.8,251.4,40.9,251.6,39.1z M427.2,23.7c1.2-8.8-0.4-8.4-6.5-8.2C422.8,18.1,424.7,20.5,427.2,23.7z M166.2,33.3
	c-0.6,1.9-1.1,3.6-1.8,5.3c-0.7,1.6-0.1,2.4,1.4,2.9c0.8,0.3,1.7,0.4,3,0.6C168.3,39,170,35.6,166.2,33.3z M318,31.8
	c0.9-2.9,1-3,0.3-3.9c-1.8-2.4-3.7-4.7-5.6-7.1c-0.9,1.4-1.7,2.4-0.4,4C314.2,26.9,315.9,29.3,318,31.8z M311.5,27.4
	c-2.8-2.4-5.3-0.7-7.8,0.8c-1.3,0.8-1.5,2.5-0.5,3.8c1.3,1.5,1.8-0.3,2.6-0.8C307.6,29.9,309.5,28.7,311.5,27.4z M198.6,22.6
	c-0.9,1.1-1.5,2.1-2.3,2.6c-2.6,1.8-1.6,4.1-1,6.3c0.1,0.4,0.6,0.9,1,0.9c0.3,0,0.9-0.4,1.1-0.7C199.3,29,198.8,26,198.6,22.6z
	 M178.3,30.3c-5.2,1.5-5.5,2-5.2,7.3C175.3,35.6,177.6,33.9,178.3,30.3z M51.6,14c2.1-1.8,3.5-3,4.9-4.3c0.3-0.3,0.1-1.5,0.1-1.5
	c-1.4-0.1-2.9-0.5-4.1-0.1c-0.5,0.2-0.7,1.8-0.9,2.8C51.3,11.5,51.5,12.1,51.6,14z M269.7,16.5c0.4-0.1,1.1-0.2,1.6-0.5
	c0.3-0.2,0.7-0.8,0.6-1.1c-0.3-1.2-3.3-2.4-3.9-1.6c-1.4,1.9-3.5,2-5.5,2.7c-0.3,0.1-0.3,1.1-0.5,1.6c0.4,0,0.8,0.2,1.2,0.1
	C265.3,16.9,267,14.8,269.7,16.5z M325.3,35.5c1.9-2.2,1.8-4.6,1-7.1c-0.1-0.2-1.1-0.5-1.3-0.3C322.5,30.5,322.5,31.7,325.3,35.5z
	 M284.6,43.6c0.1,0.2,0.1,0.5,0.2,0.7c0.9-0.2,1.8-0.5,2.6-0.5c4.4,0.2,4.6,0,3.4-4.1c-0.1-0.2-0.4-0.3-0.6-0.4
	C288.3,40.8,286.5,42.2,284.6,43.6z M72.7,448.5c-0.3,0.1-0.6,0.2-0.9,0.3c0,0.8,0,1.6,0,2.3c0,0.5,0,1,0.1,1.4
	c0.3,1.8,1.6,2.6,3.5,2.1c0.4-0.1,0.9-1.1,0.8-1.3C75.1,451.8,73.9,450.2,72.7,448.5z M220.6,33.5c0.5-2.2,0.9-4.4,1.3-6.5
	c0.1-0.5-0.5-1-0.7-1.5c-0.6,0.3-1.7,0.5-1.8,1C218.8,28.9,217.5,31.6,220.6,33.5z M407.3,22.6c1.1,1.7,1.8,3.9,2.8,4.1
	c2,0.3,2.3-2.1,2.9-3.7c0.1-0.2-0.1-0.6-0.1-1.1C411.3,22.2,409.6,22.3,407.3,22.6z M265.3,24.3c1.3-2,2.3-3.3,3.1-4.9
	c0.2-0.4-0.1-1.4-0.5-1.6c-1.4-0.6-4,1.6-3.8,3.1C264.3,21.9,264.8,22.7,265.3,24.3z M34.5,10.2c0.2,3.7,0.5,7.1,0.7,11
	C36.8,17.1,38.5,13.5,34.5,10.2z M245.1,42.8c2.6-2.1,4.5-3.7,6.3-5.4c0.2-0.1-0.3-1.3-0.4-1.3c-0.9,0.1-1.9,0.1-2.6,0.6
	c-1,0.9-1.9,2-2.6,3.1C245.5,40.5,245.5,41.3,245.1,42.8z M279.4,44.3C279.4,44.3,279.4,44.3,279.4,44.3c0,0.8-0.1,1.6,0.1,2.4
	c0.1,0.5,0.5,1,0.8,1.5c0.5-0.5,1.3-1,1.4-1.6c0.2-1.2-0.2-2.4,0.1-3.6c0.2-1,0.6-1.9-0.9-2c-1.3-0.1-1.4,1-1.4,2
	C279.4,43.4,279.4,43.8,279.4,44.3z M270.5,33.6c-0.6-0.4-1.3-1.1-1.5-1c-1.3,0.9-2.5,1.9-3.5,3.1c-0.5,0.6-0.7,2.2-0.3,2.5
	c1.2,1.1,1.3-0.6,1.9-1.1c0.9-0.7,1.7-1.4,2.5-2.2C269.9,34.5,270.1,34.1,270.5,33.6z M262,39.7c-0.7,0.6-1.7,1.1-2.4,1.9
	c-0.7,0.7-2.2,1.4-0.9,2.6c0.4,0.4,2-0.3,2.8-0.9c0.7-0.5,1.1-1.5,1.6-2.3c0.1-0.2,0.2-0.6,0-0.8C262.9,40,262.6,39.9,262,39.7z
	 M395.9,28.1c0.1-0.3,0.2-0.6,0.4-0.9c-1-0.7-1.9-1.5-3-2.1c-0.6-0.3-1.5-0.3-2-0.1c-0.3,0.1-0.5,1.3-0.2,1.7c0.3,0.6,1,1.2,1.6,1.3
	C393.7,28.2,394.8,28.1,395.9,28.1z M230.3,35.9c0.7-1.5,1.4-2.6,1.8-3.8c0.4-0.9-0.6-1.9-1.6-1.7c-2,0.3-2.6,1.5-1.7,3.3
	C229.1,34.3,229.6,34.9,230.3,35.9z M302,21.4c-1.2,2.6-2,4.5-3.1,6.8C303.5,26.1,303.5,26.1,302,21.4z M209.4,32.3
	c-0.3-0.6-0.5-1.5-1-2c-0.4-0.4-1.2-0.4-1.9-0.6c-0.2,0.7-0.7,1.5-0.5,2.1c0.2,0.7,1,1.2,1.6,1.7c0.3,0.2,0.9,0,1.2-0.1
	C209.2,33.2,209.2,32.8,209.4,32.3z M154.3,22.4c-0.4-0.3-0.8-0.5-1.2-0.8c-0.8,2.2-4.2,2.7-3.4,6.9
	C151.6,26.1,152.9,24.2,154.3,22.4z M11.3,17.1c2.8-1.3,2.8-1.3,4.4-3.2C12.5,14,12.5,14,11.3,17.1z M80.9,457.3c0.8,2,1.7,4,2.5,6
	c0.3-0.1,0.6-0.3,1-0.4C84,460.7,83,458.7,80.9,457.3z M219,38.4c-0.2-0.1-0.4-0.1-0.6-0.2c-0.5,0.9-1.2,1.7-1.6,2.7
	c-0.1,0.3,0.5,1.1,0.9,1.3c0.3,0.1,1.2-0.4,1.3-0.7C219.1,40.5,219,39.4,219,38.4z M132.8,28.2c-0.2-0.2-0.4-0.4-0.6-0.6
	c-0.6,0.4-1.3,0.8-1.8,1.3c-0.6,0.6-1.4,1.9-1.3,2.1c1,1.2,1.4-0.3,2-0.7C131.8,29.7,132.3,28.9,132.8,28.2z M230.2,452.9
	c0-0.2,0.1-0.4,0.1-0.6c-0.8-0.4-1.6-0.9-2.5-1.3c-0.5-0.2-1.1-0.1-1.6-0.1c0,0-0.1,0.4-0.1,0.4c0.5,0.5,0.9,1.3,1.5,1.4
	C228.3,453.1,229.3,452.9,230.2,452.9z M99.8,15.6c0.2,0.1,0.4,0.1,0.6,0.2c0.6-0.7,1.3-1.4,1.7-2.2c0.2-0.4,0-1,0-1.6
	c-0.5,0.2-1.4,0.3-1.5,0.6C100.1,13.5,100,14.6,99.8,15.6z M309.3,44.7c0.2,0.2,0.4,0.3,0.6,0.5c0.7-0.6,1.4-1.1,2-1.8
	c0.3-0.4,0.4-1,0.5-1.5c-0.6,0.1-1.5-0.1-1.7,0.2C310.1,42.9,309.7,43.9,309.3,44.7z M266.6,153.3c0.4,0.4,0.8,0.8,1.2,1.1
	c0.4-0.7,0.9-1.4,1.1-2.2c0.2-0.7,0.2-1.5,0.3-2.2c-0.6,0.4-1.4,0.6-1.8,1.1C267,151.8,266.9,152.6,266.6,153.3z M66.9,462.9
	c0.3,0,0.5,0,0.8,0c0-0.8,0-1.6,0.1-2.3c0.1-1,0.3-2.1,0.5-3.1c-1.7,0.5-1.3,1.9-1.4,3.1C66.9,461.3,66.9,462.1,66.9,462.9z
	 M141.6,467.1c-0.3-0.5-0.5-0.7-0.7-0.9c-0.4,0.4-0.9,0.8-1.2,1.3c-0.3,0.5-0.3,1.1-0.4,1.7c0.3,0,0.7,0.2,0.8,0
	C140.7,468.4,141.2,467.7,141.6,467.1z M168.5,31.1c-0.1,0.2-0.2,0.3-0.3,0.5c0.5,0.5,0.9,1.2,1.5,1.6c0.4,0.3,1.1,0.1,1.6,0.2
	c-0.2-0.5-0.4-1.1-0.8-1.4C169.9,31.6,169.1,31.4,168.5,31.1z M246.9,36.9c-0.3-0.4-0.5-0.8-0.6-0.8c-0.9,0.5-1.7,0.9-2.6,1.5
	c0,0,0.2,0.5,0.3,0.8C244.9,37.8,245.9,37.4,246.9,36.9z M61.6,460.4c0.1,0.1,0.3,0.3,0.4,0.2c0.9-0.3,1.8-0.6,2.7-1
	c0.1,0,0-0.6,0-0.9c-0.9,0.3-1.7,0.6-2.6,1C62,459.9,61.8,460.2,61.6,460.4z M200.4,445c-0.2,0-0.4,0.1-0.6,0.1c0,0.9-0.1,1.9,0,2.8
	c0,0.5,0.4,0.9,0.6,1.4c0.3-0.6,0.9-1.1,0.8-1.6C201.1,446.7,200.7,445.9,200.4,445z M88.1,459.2c-0.8-0.4-1.4-0.8-2-1.1
	c-0.1,0-0.5,0.5-0.5,0.6c0.4,0.5,0.9,1,1.3,1.6C87.2,460,87.5,459.7,88.1,459.2z M256.4,13.7c-0.2-0.4-0.3-0.6-0.4-0.9
	c-0.6,0.3-1.3,0.6-1.8,1.1c-0.1,0.1,0.2,0.8,0.4,1.2C255.2,14.5,255.8,14.1,256.4,13.7z M440.1,5.8c-0.5,0.2-0.8,0.3-1.1,0.4
	c0.7,0.5,1.4,0.9,2.1,1.3c0.1,0,0.4-0.3,0.5-0.5C441.1,6.6,440.6,6.2,440.1,5.8z M265,153.3c-0.3,0.5-0.7,0.8-0.6,0.8
	c0.4,0.6,0.9,1.2,1.3,1.8c0.2-0.2,0.5-0.5,0.4-0.6C265.8,154.7,265.4,154,265,153.3z M78.2,457c-0.6-0.3-1.2-0.6-1.7-0.8
	c-0.1,0-0.2,0.2-0.4,0.3c0.4,0.4,0.9,0.8,1.3,1.2C77.5,457.6,77.8,457.3,78.2,457z M274.3,52.4c0.5-0.2,0.9-0.3,1.3-0.4
	c-0.5-0.2-1-0.5-1.5-0.5c-0.3,0-0.7,0.3-1.1,0.5C273.5,52.1,273.9,52.3,274.3,52.4z M138.2,456.5c0.7,0.3,1.2,0.6,1.8,0.8
	c0.1,0,0.3-0.3,0.3-0.3c-0.3-0.5-0.6-1-0.9-1.6C139.2,455.6,139,455.8,138.2,456.5z M295.4,17.5c-0.3-0.4-0.5-0.8-0.6-0.8
	c-0.4,0.2-0.9,0.4-1.2,0.7c-0.1,0.1,0,0.5,0.1,0.8C294.2,18,294.7,17.7,295.4,17.5z M142.3,462c-0.3,0.4-0.6,0.7-0.5,0.8
	c0.3,0.5,0.7,0.9,1,1.3c0.1-0.2,0.4-0.5,0.4-0.6C143,463,142.7,462.6,142.3,462z M430.7,3.9c-0.2-0.4-0.5-0.8-0.7-1.2
	c-0.1,0.4-0.3,0.9-0.3,1.3c0,0.4,0.2,0.8,0.4,1.2C430.3,4.8,430.4,4.5,430.7,3.9z M480.6,16.4c0.3-0.1,0.5-0.2,0.8-0.3
	c-0.2-0.1-0.5-0.4-0.7-0.4c-0.3,0-0.6,0.3-1,0.4C480.1,16.2,480.3,16.3,480.6,16.4z M286.2,13.8c-0.3,0.1-0.7,0.2-0.8,0.4
	c-0.1,0.2,0.1,0.6,0.2,0.8c0.3-0.2,0.6-0.3,0.8-0.5C286.5,14.4,286.3,14.1,286.2,13.8z M272.9,145.5c-0.2-0.3-0.3-0.7-0.4-0.7
	c-0.3,0-0.6,0.1-0.7,0.3c-0.1,0.2,0,0.5,0,0.8C272.3,145.7,272.6,145.6,272.9,145.5z M286.6,239.1c-0.1,0.2-0.2,0.4-0.3,0.7
	c0,0.1,0.2,0.2,0.3,0.3c0.1-0.2,0.2-0.4,0.3-0.7C286.8,239.3,286.7,239.2,286.6,239.1z M202.4,459c-0.1-0.2-0.2-0.5-0.3-0.7
	c-0.1,0.1-0.3,0.2-0.3,0.3c0,0.2,0.2,0.5,0.2,0.7C202.3,459.2,202.3,459.1,202.4,459z"/>
<path d="M638.2,0c-0.1,0.3-0.2,0.7-0.4,0.8c-4.2,2.2-8.3,4.4-12.5,6.6c-0.3,0.1-0.8,0.3-0.9,0.2c-3.7-3.1-3.5,1-4.7,2.5
	c-0.4,0.5-0.6,1.2-1,1.7c-0.6,0.9-1.3,0.8-1.8-0.1c-0.1-0.1-0.1-0.3-0.2-0.4c-0.8-1.7-1.3-4.3-2.6-4.8c-1.4-0.6-3.6,0.9-5.5-0.1
	c-0.2-0.1-1,0.6-1.2,1c-0.3,0.9-0.2,1.9-0.4,2.9c-0.6,3.2-2.6,5.5-5.2,7.2c-4.4,2.9-5,2.6-5.2-2.7c-0.2-3.8-0.5-4.2-4.3-4.9
	c-0.6-0.1-1.2-0.4-1.8-0.6c-2.1-0.5-2.2-0.3-2.3,2.1c0,2.1-0.2,2.2-2,1.5c-0.9-0.4-1.7-0.8-2.6-1.2c-0.7-0.3-1.5-0.6-2.3-0.9
	c-0.3,2.1-0.9,4.1-0.8,6c0.1,1.7,0.9,3.3,1.2,5c0.1,0.5-0.5,1.5-0.9,1.6c-2.6,0.6-5-0.5-7.5-1.4c-2.6-1-3.6-3.1-3.8-5.6
	c-0.2-1.8-1.3-2.6-3-2.5c-2.7,0.2-4.4-0.9-6-3.1c-1.2-1.7-3.6-2.5-5.5-3.7c0,0,0,0,0,0c-0.3-0.3-0.6-0.6-0.9-0.9
	c0,0-0.2-0.2-0.2-0.2c-0.3-0.3-0.5-0.6-0.8-0.8c0,0-0.1-0.1-0.1-0.1c-1.3-1.6-2.5-3.2-3.8-4.8c1,0,1.9,0,2.9,0
	c3.3,2.5,5.1,7.1,9.8,7.8c-0.4-2.9-0.7-5.3-1.1-7.8c1.3,0,2.6,0,3.9,0c2.1,3.4,5.3,1.5,8,1.7c-0.1-0.6-0.2-1.1-0.2-1.7
	c1,0,1.9,0,2.9,0c1,0.7,2.3,1.2,2.8,2.1c0.6,1,0.1,2.8,0.8,3.6c1.2,1.3,3,2.3,4.6,3.2c1.8,0.9,2.3,0.6,2.3-1.3
	c0.1-2.5,0-5.1,0.1-7.6c5.5,0,11,0,16.5,0c-0.8,2.7-0.8,2.7,2.5,5.2c0.7-1.7,1.7-3.4,0.4-5.2c1,0,1.9,0,2.9,0c0,0.8-0.2,1.7,0.1,2.4
	c0.4,0.8,1.1,1.7,1.9,1.8c0.6,0.1,1.5-0.8,1.9-1.5c0.5-0.8,0.6-1.8,0.9-2.7c0.6,0,1.3,0,1.9,0c-0.1,3,0.8,5.7,2.5,8.4
	c3.1-4.4,3.1-4.4,0.5-8.4c1.3,0,2.6,0,3.9,0c0.3,0.7,0.4,1.6,0.9,2.1c1.6,2,2.5,2,4.1,0c0.5-0.6,0.6-1.4,0.8-2.2c1,0,1.9,0,2.9,0
	c0.3,0.7,0.6,0.8,1,0C633.7,0,635.9,0,638.2,0z M577.1,8.7c-2-4.2-1.9-5.7-7.5-4.4C571.7,6.7,573.4,9.4,577.1,8.7
	c0.5,2.6-1.5,3.1-3.2,4.1c-1,0.6-2.9,0.8-2.4,2.5c0.4,1.6,0.4,3.6,2.4,4.4c1.3,0.5,2.6,0.8,4.1,1.3c0-3.6,0.1-6.7,0-9.7
	C577.9,10.4,577.4,9.6,577.1,8.7z M595.7,7.8c2.1-0.2,3.6-0.1,5-0.4c0.4-0.1,1-1.5,0.8-1.7c-1.8-2-3.4-4.4-6.7-3.8
	c-1.2,0.2-2.6,0.1-3.8-0.3c-1.9-0.7-2.2,0.2-2.3,1.8c-0.1,1.9,0.7,3.2,2.5,3.7C592.9,7.4,594.6,7.6,595.7,7.8z M563.7,11.5
	c3.3-0.2,6.3,0.8,9.2-1c-1.7-1.6-3.2-3-4.6-4.4c-1.4-1.4-2.8-2.9-5.2-3C563.6,6,566.2,8.4,563.7,11.5z M605.1,8.2
	c-1.6,0.6-2.7,1.5-3.9,1.4c-2.5,0-3.1,1.1-2.8,3.3c0.1,0.8,0.2,1.5,0.4,2.3C603.3,13.7,603.3,13.7,605.1,8.2z"/>
<path d="M171,397.7c1.7-2.1,2.6-3.6,3.9-4.7c1.9-1.8,3.9-1.7,5.4,0.3c1,1.4,1.9,3.1,2,4.7c0.1,3-0.4,6-0.7,9.1
	c-0.3,3.3-0.9,6.7-1,10c-0.2,5.4-2.4,10.2-3.5,15.4c-0.1,0.5-0.3,0.9-0.4,1.4c-0.8,4-0.7,3.9-4.1,2c-6.4-3.5-11.2-8.5-14.1-15.2
	c-0.6-1.3-1-2.7-1.3-4.1c-0.7-2.9-1.4-5.9-1.8-8.9c-0.8-5.6,1.5-10.4,5-14.6c1.3-1.6,3.2-1.6,4.9-1C167.7,393,170.2,394.1,171,397.7
	z M172.6,408.1c1.8,0.1,3,0.3,4.2,0.2c0.5,0,1.3-0.6,1.4-1c0.2-3.3,0.9-6.8-1-9.9c-1-1.7-2.2-1.8-3.3-0.2c-0.4,0.5-0.6,1.2-0.9,1.7
	c-1.4,2.3-2,2.4-4,0.6c-1-0.8-1.8-2-2.8-2.6c-0.9-0.5-2.2-1-3.1-0.8c-2.2,0.5-4.1,1.6-5,4.1c-1.3,4-0.7,7.8-0.2,11.8
	c1,7.9,4.8,13.8,10.5,18.9c1.2,1.1,2.6,1.9,4,2.6c1,0.5,1.8,0,2-1.3c1.1-6.9,2.2-13.9,3.5-20.8c0.3-1.8-0.5-2.1-1.7-1.9
	c-2.2,0.3-4.4,1-6.6,1.4c-0.5,0.1-1.6-0.1-1.6-0.2c-0.2-2.5-2.8-2.1-3.8-3.5c-0.4,1.3-0.7,2.5-1,3.6c-2.3-1,0.2-2.5-0.4-3.8
	c-0.4-0.8-0.1-1.9,0-2.9c0.1-1.3,0.8-1.1,1.5-0.5c0.7,0.6,1,0.4,1.5-0.2c0.7-0.9,1.4-0.6,1.8,0.3c0.4,1,0.6,2.1,1,3.2
	c0.3,0.8,0.8,1.5,1.2,2.2c0.2-0.7,0.5-1.4,0.6-2.2c0.1-0.5,0.1-1-0.1-1.4c-0.8-2,0.2-2.7,1.9-2.8c0.9-0.1,1.8,0.1,3.7,0.3
	c-1.8,1-2.8,1.6-3.9,2.2c1.1,0.2,2,0.4,3,0.6C174.4,406.5,173.7,407.1,172.6,408.1z M177,393.9c1.2,2.4,2.3,4.4,3.7,7.4
	C180.4,397.7,180.5,395.1,177,393.9z"/>
<path d="M176.6,375.5c-1.5,2.6-3,5.2-4.7,7.7c-0.7,1-1.5,0.4-1.8-0.4c-0.3-0.7-0.2-1.6-0.5-2.3c-1.2-2.6-2.5-5.2-3.6-7.8
	c-3.4-8.8-5.3-18-3.9-27.4c0.7-4.8,3-9.5,7.7-12.2c3.8-2.2,5.8-2,8.9,1.3c0.4,0.5,1,0.9,1.3,1.5c0.5,0.9,0.8,1.2,2.1,0.6
	c3.9-1.9,6.8-0.6,8.6,3.2c1.3,2.8,1.2,5.4,0.1,8.3c-2.3,5.6-4.3,11.4-6.7,17c-1,2.5-2,5.2-4.5,6.7l-0.3-0.3c0.1-0.6,0.1-1.2,0.2-1.8
	c0.3-0.3,0.6-0.6,1-1c0.1-0.1,0.3-0.1,0.4-0.2c0.1-0.1,0.1-0.2,0.1-0.3c-0.2,0.2-0.3,0.3-0.5,0.5c-0.3,0.3-0.6,0.6-1,1
	c-0.3,0.6-0.6,1.3-0.9,1.9c0,0-0.1,0.1-0.1,0.1c-0.3,0.3-0.6,0.6-0.9,0.9c0,0-0.1,0.1-0.1,0.1c-0.3,0.3-0.6,0.6-0.9,0.9c0,0,0,0,0,0
	c-0.4,0.3-0.9,0.5-1.1,0.8c-0.2,0.5-0.2,1.1-0.3,1.6c0.4-0.2,0.9-0.4,1.3-0.6C176.3,375.3,176.6,375.5,176.6,375.5z M176.4,335.6
	c0.2,0.1,0.3,0.3,0.5,0.4C176.8,335.9,176.6,335.8,176.4,335.6c-0.3-0.4-0.6-0.7-0.9-1c-0.2-0.1-0.3-0.3-0.5-0.4
	c0.1,0.2,0.3,0.3,0.4,0.5C175.8,335,176.1,335.3,176.4,335.6z M171.6,377.3c0.9-4.9,5.4-7,6.5-11.3c4-2.2,4.7-6.7,6.8-10.3
	c2.4-4,2.6-8.5,2.2-13.1c-0.1-2-1.4-3.7-2.9-3.9c-1.8-0.3-2,1.3-2.6,2.4c-1,1.9-2,1.2-2.9,0.1c-1.2-1.3-2.1-2.9-3.3-4.1
	c-2.8-3-5.4-2.5-7.8,0.8c-4.6,6.6-4.6,14.1-3.3,21.3C165.4,365.3,167.2,371.4,171.6,377.3z"/>
<path d="M179.5,371.6c-1,1.3-2,2.6-2.9,3.8c0,0-0.2-0.2-0.2-0.2c0-0.6,0.1-1.2,0.1-1.8l0,0c0.3-0.3,0.6-0.6,0.9-0.9
	c0,0,0.1-0.1,0.1-0.1c0.3-0.3,0.6-0.6,0.9-0.9c0,0,0.1-0.1,0.1-0.1c0.3,0,0.5,0,0.8-0.1C179.2,371.4,179.5,371.6,179.5,371.6z"/>
<path d="M170.9,426.5c-0.5-0.9-0.9-1.6-1.3-2.4c-0.4-0.7-0.8-1.8-1.4-2.1c-1.1-0.5-1.2-1.2-0.3-1.6c1.7-0.8,3.5-1.3,5.4-1.9
	c0.1,0,0.5,0.7,0.8,1C169.1,420.1,172.9,424.4,170.9,426.5z"/>
<path d="M170.7,412.2c1.7,0.5,2.9,0.6,1.7,2.2c-0.3,0.4-0.4,1.1-0.3,1.7c0.1,1.3-0.4,1.9-1.6,1.4c-1.1-0.4-2.2-1.1-3.3-1.7
	C168.5,414.5,169.7,413.2,170.7,412.2z"/>
<polygon points="173,424.6 172.9,424.3 173.2,424.3 "/>
<path d="M175.5,346.6c0,0.3,0.1,0.7,0,1c-0.3,1-0.8,2-1.1,2.9c-1.6-0.9-0.8-2.1-0.4-3.1c0.9-2.2-1-1.9-2-2.3
	c-1.7-0.7-1.1,0.9-1.4,1.6c-0.2,0.6-0.5,1.1-0.8,1.7c-0.1,0.1-0.3,0.2-0.4,0.2c-0.2-0.1-0.6-0.3-0.6-0.5c-0.4-2.5,1.1-4.3,2.2-6.2
	c0.3-0.5,4.4,1.2,4.5,1.8C175.5,344.7,175.5,345.7,175.5,346.6C175.5,346.6,175.5,346.6,175.5,346.6z"/>
<path d="M180.4,351.1c-1.4,0.1-2.2-0.6-2-2c0.2-1.6,0.5-3.2,1.1-4.6c0.3-0.6,1.5-0.9,2.3-1.1c0.3-0.1,0.9,0.4,1.1,0.7
	c0.1,0.2-0.3,0.9-0.6,1c-0.8,0.4-2.5,0.4-0.1,1.2c0.1,0,0.4,0.1,0.4,0.2c0.1,0.4,0.1,0.8,0.3,1.2c0.3,1-2.9-0.4-1.1,1.8
	C182.7,350.8,181.5,351.1,180.4,351.1z"/>
<path d="M171.1,358.6c-0.1,2.9-3.2,5.2,0,7.4c-0.2,0.2-0.3,0.5-0.5,0.7c-0.6,0.5-1.2,0.9-1.8,1.3c-0.3-0.5-0.8-1-1-1.6
	c-0.4-1.3-0.7-2.7-1-4.1c-0.2-0.9-1.1-2.3-0.8-2.5c1.2-1.1,1.3,0.6,1.9,1c0.2,0.1,0.7-0.1,0.9-0.3
	C169.4,360.1,170.1,359.5,171.1,358.6z"/>
<path d="M174.1,369c-0.6-0.8-1.4-1.4-1.4-1.9c0.2-1.9,0.7-3.7,1.2-5.5c0-0.2,0.5-0.4,0.7-0.4c0.2,0,0.6,0.3,0.7,0.5
	c0.3,1.9,0.6,3.7,0.7,5.6C176,367.8,174.9,368.3,174.1,369z"/>
<path d="M173.8,358.7c-0.5-0.8-1.1-1.4-1.3-2.1c-0.2-0.7-0.6-1.7-0.2-2.1c0.7-0.8,1.8-1.3,2.7-1.9c0.4,0.8,1.2,1.7,1,2.3
	C175.5,356.1,174.6,357.2,173.8,358.7z"/>
</svg>
