<?xml version="1.0" encoding="utf-8"?>
<!-- Generator: Adobe Illustrator 18.0.0, SVG Export Plug-In . SVG Version: 6.00 Build 0)  -->
<!DOCTYPE svg PUBLIC "-//W3C//DTD SVG 1.1//EN" "http://www.w3.org/Graphics/SVG/1.1/DTD/svg11.dtd">
<svg version="1.1" id="Layer_1" xmlns="http://www.w3.org/2000/svg" xmlns:xlink="http://www.w3.org/1999/xlink" x="0px" y="0px"
	 viewBox="0 0 118.4 304" enable-background="new 0 0 118.4 304" xml:space="preserve">
<path d="M57.6,296.7c0.2-0.9,1.9-1.6,0.3-2.7l-0.2-0.2c1.7-4.5,3.3-9,5-13.5l0,0c0.3-0.3,0.7-0.7,1-1l0,0c0.7-0.6,1.5-1,2-1.7
	c1-1.3-0.2-1-0.8-1c-0.1-0.2-0.3-0.3-0.4-0.5c2.8-3.5,6.6-5.6,10.6-7.4c3-1.4,2.9-1.3,2.6-4.3c-0.1-1.4,0.4-2.8,0.4-4.2
	c0.1-2.3,0-4.5,0.1-6.8c0.1-1.8-0.8-2.2-2.4-2.2c-3.7,0-7.4,0.1-11.2-0.1c-2.4-0.1-4.8-0.5-7.1-0.8c-2-0.2-2.7,0.5-2.4,2.5
	c0.1,0.8,0.4,1.5,0.8,2.3c1.3,3-0.1,6-0.1,9c0,0.4-0.5,0.9-0.8,1.1c-0.3,0.2-0.9,0.3-1.3,0.2c-0.2,0-0.4-0.5-0.4-0.8
	c0-0.3,0.2-0.6,0.3-0.9c1.5-3.8,1.2-7.3-0.3-11.2c-0.7-1.7-1.5-2.7-3-3.3c-2.5-1-5.1-2.1-7.7-2.7c-2.1-0.5-3.1-1.7-3.6-3.5
	c-0.6-2.2-1.3-4.4-1.4-6.6c-0.4-10.1-0.9-20.2-0.7-30.3c0.1-4.6,1.6-9.2,3-13.6c0.5-1.6,2.5-2.9,4.1-3.9c3.1-1.8,6.3-3.2,9.6-4.7
	c2.8-1.3,5.1-6,3.8-8.7c-1.6-3.5-2.9-7.2-6.8-9.1c-1.1-0.5-1.7-2.2-2.4-3.4c-0.3-0.5-0.6-1.2-0.7-1.8c-2.1-7.3-4.2-14.6-6.8-21.9
	c-0.2,3.6-0.4,7.3-0.7,10.9c0,0.4,0,1.2-0.3,1.3c-3,1.4-1.9,4.1-2,6.3c-0.2,4.1,0.4,8,1.4,11.9c0.5,2.3,0.4,4.8,0.5,7.2
	c0,0.4-0.5,0.8-0.7,1.1c-0.4-0.4-1.1-0.8-1.1-1.2c0.2-5.2-1.3-10.2-2-15.3c-0.4-3.2-0.2-6.5-0.1-9.7c0-0.9,0.2-2,0.7-2.7
	c3.1-4.7,2.2-10,1.7-15c-0.4-4.3-1.6-8.5-2.2-12.8c-0.2-1.4,0.6-2.8,0.6-4.2c0.1-3.9,0-7.7,0-12c-2.4,1.8-1.8,4.4-2.5,6.4
	c-1.3,3.9-2,8.1-3,12.1c-1.4,6.1-2.9,12.4-1.9,18.6c0.8,4.9,1.1,9.7,0.5,14.4c-1,7.7-0.6,15.5-0.7,23.2c0,2.7,1.1,5.5,0.7,8.1
	c-0.5,4.2,0.4,8.3,0.2,12.4c-0.2,3.7,0,7.4-0.1,11.2c-0.1,2.7,0.4,5.1,2.7,6.9c0.5,0.4,0.9,1,1.1,1.6c0.1,0.4-0.1,0.9-0.2,1.3
	c-0.4-0.1-0.9-0.1-1.2-0.3c-3.4-2.6-4.3-6.3-4.4-10.2c-0.1-5,0-10-0.1-15c-0.2-9.8-0.7-19.6-0.8-29.4c0-6.3,0.6-12.5,0.8-18.8
	c0.1-4-0.3-8,0-12c0.4-4.9,1.3-9.8,2.2-14.7c1.4-7.6,2.6-15.2,4.8-22.5c1.5-5.2-0.8-9.8-0.3-14.7c0.1-1.4-0.6-2.1-1.7-2.6
	c-1.8-0.8-3.1-2.1-4.2-3.8c-0.9-1.4-2.6-2.4-4.1-3.2c-4.1-2.1-7.1-5.3-9.9-9c-2.2-3-2.4-6.2-2.3-9.6c0-0.3,0.2-0.7,0.1-1
	c-0.9-2.3,6-1.5,2-5.1c-2.2-1.9-0.6-4.6-1.1-6.8c-0.2-0.7-0.7-1.6-1.3-1.8c-2.2-0.9-3.7-2.9-6.4-3c-3-0.1-3.7-2-2-4.7
	c1.1-1.7,2.7-3.1,4.2-4.6c0.7-0.7,1.9-0.9,2.3-1.7c0.6-1,0.7-2.3,1.1-3.5c-1-0.3-2.1-0.8-3-0.8c-2.5,0.2-5,0.6-8,1
	c0.5-2.7,2.2-3.3,3.8-3.8c6.6-2,13.3-4,20.2-4.2c3.5-0.1,6.4-1.2,8.6-3.5c5-5.3,11.7-7.9,17.7-11.6C51,0.1,52.6-0.2,53,0.2
	c3.4,3.5,8.4,4.4,11.7,8c3.5,3.9,6.2,8.2,8.5,12.8c1.8,3.7,0.8,7.2-0.3,10.8c-0.9,3.1-2,6.1-3.1,9.1c-0.5,1.5-0.4,2.5,1.4,2.8
	c2.2,0.3,4.4,0.5,6.6,0.9c0.9,0.2,1.8,0.6,2.6,0.9c-0.4,0.7-0.8,1.6-1.4,2.1c-0.8,0.7-1,1.3-0.2,2c2.7,2.6,5.3,5.2,8.1,7.6
	c1.7,1.5,3.2,2.9,4.1,5.2c1.5,3.5,3.6,6.8,5.4,10.2c0.2,0.3,0.3,0.6,0.4,0.9c2.8,6.5,5.8,12.9,8.4,19.4c1.1,2.6,1.4,5.6,2,8.4
	c0.2,0.8,0.1,1.7,0.4,2.4c3.2,6,2.9,12.8,4.1,19.2c0.9,4.9-0.3,10.2-0.3,15.3c0.1,8-1.3,16,0.4,24c0.2,0.8,0.2,1.6,0.1,2.4
	c-1.1,7.4,0.1,14.6,1.8,21.8c0.6,2.7,1.1,5.6,0.5,8.5c-0.2,1.3,0.4,2.8,0.9,4.1c4.7,13.1,3.7,26.3-0.2,39.3
	c-1.4,4.6-3.8,8.8-8.6,10.4c-3.1,1.1-6.6,1.2-9.9,1.7c-2.4,0.3-4.7,0.6-7.5,0.9c0.8,3.5,1.6,6.5,2.2,9.6c0.4,2.4,0.4,4.8,0.5,7.2
	c0,0.4-0.7,0.8-1.1,1.3c-0.3-0.5-0.9-1-0.8-1.5c0.4-4.8-1.3-9.2-2.2-13.8c-0.3-1.4-0.9-2.7-2.8-2.8c-4.2-0.3-4.9,0.1-4.7,4.4
	c0.2,4.3-1,8.7,1.2,12.9c0.2,0.3-0.5,1-0.6,1.5c-0.1,0.4,0,0.8,0,1.2c0.4-0.1,1,0,1.3-0.2c2.4-1.7,4.4-3.6,5.3-6.6
	c0.7,2.4,1.6,4.6-0.7,6.8c-0.7,0.7-0.5,2.3-0.1,3.7c0.3-0.9,0.5-1.8,0.8-2.6c0.2,0,0.4,0,0.6,0c0,2.1,0,4.1,0,6.2l0,0
	c-3.9-0.7-2.5-4.2-3.6-6.9c-1.7,1.1-3.1,2-3.3,4.1l0,0c-0.6,0.4-1.2,0.7-1.8,1.1l-0.2-0.2c-0.3-0.6-0.6-1.2-0.9-1.9
	c0.3-0.9,0.8-1.8,0.9-2.7c0.2-1.8-0.7-2.4-2.3-1.8c-0.9,0.4-1.8,0.8-2.5,1.4c-2.8,2.6-5.5,5.4-8.3,8c-0.7,0.7-1.2,1.4-0.3,2.4
	c0.6,0.7,1,1.6,1.6,2.4c0.8,0.9,1.5,1,2.2-0.2c1-1.8,1.7-3.9,3.9-4.7c0,0.3,0.1,0.7-0.1,0.9c-2.8,3.8-4.5,7.8-2.8,12.6l-0.1,0.2
	c-0.8-1.5-1.5-2.9-2.8-5.4c0.4,3.3,0.7,5.5,1,7.7c0.3,1.9,0.6,3.9,0.5,5.9c-2.9-3.4-0.2-8.2-3-11.4c-2.6,2.4-5.3,4.8-8,7.2
	C57.9,296.9,57.8,296.8,57.6,296.7z M49.1,3.9c-3.9,1.3-7.6,2.8-10.5,6C52.7,16.6,60.1,28.7,67,42.3c1.5-4.4,2.7-7.9,3.9-11.3
	c1.9-5.1,0.8-9.7-2-14.1c-2.3-3.7-4.9-7-8.5-9.7c-3.1-2.4-6.1-3.7-10-1.7C49.2,6.2,49.2,4.8,49.1,3.9c0.1-0.1,0.2-0.1,0.4-0.2
	c0.1,0,0.1-0.2,0.1-0.3C49.4,3.6,49.3,3.8,49.1,3.9z M104.3,178c0.4,0.2,0.8,0.3,1.3,0.5c-0.6,2.4-1.3,4.9-1.8,7.3
	c-0.1,0.7,0.3,2,0.5,2c3.5,0.2,5.8,2.7,9.2,5.5c-3.1-11.2-3.7-21.4-3.4-31.7c0-0.8,0.1-1.7-0.1-2.4c-2.2-6.5-0.5-13.1-0.3-19.5
	c0.3-8.2,0.7-16.3-1-24.4c-0.5-2.5-0.8-5-1.4-7.5c-0.5-2.2-1.4-4.3-2-6.4c-1.1-3.8-1.5-8-3.2-11.5c-3.4-6.7-4.9-14.4-9.9-20.3
	c-0.4-0.5-0.3-1.2-0.6-1.8c-1.9-4.3-3.9-8.6-8.4-10.8c-0.8-0.4-1.5-1.2-2.1-2c-2.5-3.2-5.4-4.6-9.6-3.3c-4.6,1.3-9.4,1.9-14,3
	c-2.4,0.6-4.3,1.9-5.6,4.2c-1.1,1.9-3,3.4-4.6,4.9c-3,2.9-6.2,5.6-9.2,8.5c-1.9,1.8-2.6,4-2.3,6.6c0.3,2.9,0.6,5.7,1,8.6
	c0.1,0.7,0.5,1.3,1,2.6c0.6-1.6,1.1-2.5,1.3-3.4c0.5-2.2,1.3-4.4,1.4-6.6c0.2-5,2.2-8.9,5.8-12.3c4.2-4,8.7-7.3,14.4-8.9
	c-0.3,0.7-0.6,1.1-1.1,1.5c-3.4,2.4-7.1,4.5-10.2,7.2c-2,1.7-3.9,4.1-4.7,6.5c-2.5,8.4-4.5,17-6.6,25.6c-0.3,1.2-0.2,2.6,0.1,3.8
	c1.1,5.3,1.1,10.5,0.1,15.8c-0.6,3.1,0.1,5.9,2,8.5c0.7,1,1.2,2.3,1.5,3.5c1.1,4.5,1.8,9.1,3,13.6c0.9,3.4,2.3,6.6,3.4,9.9
	c0.6,2,0.8,4.1,1.4,6.1c1.6,4.8,4.5,7,9.6,7.3c1.3,0.1,2.8-0.3,3.8,0.2c2.9,1.4,5.4,0.3,7.9-0.8c5.1-2.3,7-7.1,5-12.4
	c-0.6-1.6-0.8-3.4-1.2-5.1c-0.3-1.2-0.3-2.6-0.8-3.7c-2.5-5.6-1.3-11.2,0.8-16.4c1.4-3.6,2-7.1,2-10.8c-0.1-4.4,0-8.7,1-13
	c0.7-2.8,1.4-5.6,1.7-8.5c0.3-2.7,0.2-5.4-1.1-8c-2.3-4.4-4.4-8.9-6.3-13.5c-1.1-2.7-2.9-4.5-5.3-6c-3.3-2.1-6.5-4.3-10.2-6.7
	c2.9-0.3,4.8,0.7,6.6,2.2c1.6,1.3,3.3,2.5,5.1,3.5c2.7,1.5,4.3,3.8,5.6,6.4c0.5,1,0.9,2,1.4,3.1c1.8,4.1,3.7,8.2,5.3,12.3
	c0.7,1.8,1.1,3.8,0.9,5.7c-0.3,3.3-1.2,6.6-1.7,9.9c-0.4,2.7-0.8,5.4-1,8.1c-0.2,2.7,0.1,5.5-0.2,8.2c-0.3,2.3-0.9,4.7-1.8,6.9
	c-1.7,4.4-2.6,9-1.7,13.6c0.8,4.2,2.2,8.3,3.2,12.5c0.3,1.2,0.7,2.7,0.3,3.8c-1.6,3.7,0.2,7.3,0.1,10.9c-0.1,1.2,0.2,2.1,1.7,2.3
	c3.2,0.6,5,2.5,5.1,6c0.1,1.7,0.9,3.4,1.6,5c0.3,0.6,1,1.3,1.7,1.5c3.6,0.8,7.2,1.5,10.9,2.1c2.2,0.4,2.6-0.1,3.2-2.3
	C103,182.5,103.7,180.3,104.3,178z M80.1,178.6c-0.2,0.5-0.4,0.8-0.3,0.9c1.8,1.9,1.5,4.5,2.1,6.7c-1.9,0.5-3.8,1-5.7,1.5
	c-0.2,0-0.3,0.2-0.4,0.2c-1.1-0.2-2.2-0.2-3.2-0.6c-0.6-0.3-1.3-1.2-1.2-1.8c0.2-1.4,1.2-0.4,1.8-0.2c0.6,0.2,1.2,0.6,1.8,0.7
	c2.7,0.1,4.1-1.8,3.2-4.3c-1-2.8-1.9-5.7-2.8-8.6c-2.3,0.7-4.8,1.3-7.2,2.1c-2.6,1-5.1,0-7.6-0.4c-1.5-0.2-2,0.6-1.3,2.1
	c2,3.8,3.6,8.1,8.8,8.6c0.3,0,0.5,0.6,0.8,1c-0.5,0.3-1.1,0.9-1.5,0.8c-1.8-0.4-3.8-1.9-5.4-1.5c-5,1.1,0-3.6-2.4-3.7
	c-0.1,0-0.1-0.3-0.2-0.4c-0.2-0.2-0.4-0.5-0.6-0.5c-0.3,0-0.7,0.3-0.7,0.5c-0.4,1.4-0.8,2.8-1,4.2c-0.4,2.8-0.4,2.8-2.8,2.2
	c-1.2-0.3-2.6-0.8-3.7-0.4c-2.4,0.9-4.7,2.1-6.8,3.5c-1.2,0.9-2.2,2.4-2.6,3.8c-1.9,7-3.6,14-3,21.4c0.3,3.7,1.3,7.5,0.7,11
	c-0.9,5,0.8,9.5,1.3,14.2c0.2,1.8,1.1,3,2.8,3.6c6.1,2,12.2,3.9,18.7,4c6,0.1,12,0.2,17.9,0.1c4.8-0.1,9.7,0.5,14.4-0.8
	c2.7-0.8,2.7-0.5,1.7-3.5c-0.4-1.2-0.4-2.5-0.5-3.8c-0.7-9.5,0.4-19,2.3-28.3c1.2-6.1,1.2-12.5,4.2-18.2c0.8-1.6,0.1-2.3-1.6-2.5
	c-3.3-0.3-6.7-0.7-10-1.3c-1.1-0.2-2.1-1.1-3.2-1.7c1-1.8,2.2,0,3.2,0c1.6,0,3.2,0.5,4.8,0.7c3.8,0.5,7.6,0.9,11.3,1.4
	c-5.3-1.9-10.7-3-16.1-3.9c-2.8-0.5-5.3-0.7-6.1-4.2C83.8,181,82,179.7,80.1,178.6z M59.7,51c-4.4,0.5-5.4-0.1-6.3-3.9
	c-0.1-0.3,0.3-0.7,0.1-0.9c-0.5-0.7-1.1-1.4-1.7-2c-0.1,0.8-0.5,1.7-0.3,2.5c0.4,1.5,1.2,3,1.7,4.5c0.1,0.3-0.1,0.8-0.2,1.2
	c-0.4-0.3-0.9-0.5-1-0.8c-0.4-0.9-0.5-2.4-1.1-0.1c-0.1,0.3-0.9,0.8-0.9,0.8c-2-2.2-2.8,0.3-4,1.1c-1.2,0.8-2.3,1.7-3.7,2.1
	c-1.3,0.4-2,0.9-1.9,2.2c0,0.8,0,1.6-0.2,2.4c-0.1,0.4-0.6,0.8-0.9,0.8c-0.3,0-0.9-0.5-0.9-0.9c0-2.9,0-5.8,0.1-8.7
	c0-0.5,0.6-1,0.9-1.4c0.3,0.5,0.8,0.9,1,1.4c0.9,2.5,1.2,2.7,3.1,1.5c1.4-0.9,2.9-2.1,3.7-3.6c1.3-2.7,2.1-5.7,3-8.6
	c0.9-2.9-0.8-5-3.6-4.2c-2,0.5-3.2,0.5-4.3-1.4c-0.3-0.5-1-0.8-1.6-1c-4.4-2-8.7-4.3-13.2-5.9c-2.4-0.8-5.2-1.6-7.9-0.3
	c-1.3,0.6-1.3,0.6-3.2-0.6c-0.3-0.2-0.9-0.2-1.3,0c-2.8,1.1-2.9,1.3-2.2,4.7c0.1,0.5,0.2,0.9,0.2,1.4c0,0.2-0.3,0.5-0.5,0.6
	c-0.1,0.1-0.4,0-0.4-0.2c-0.3-0.5-0.7-1-1-1.6C10,29.1,10,29.1,7.8,31c-0.8,0.7-1.6,1.6-2.2,2.5c-1.3,1.8-1.2,2,0.9,2.4
	c3.3,0.6,5.7,2.8,8.2,4.8c0.8,0.6,1.7,2.3,1.4,2.8c-1.9,3.4,0.6,5,2.5,6.9c0.6,0.6,1.1,1.2,1.7,1.8c1.2,1.3,0.7,2.4-0.7,3.1
	c-1,0.5-1.9,1.1-3.1,0.2c-1.5-1.2-2,0.1-2.1,1.3c-0.4,4.5,1.6,8.1,4.6,11.1c3.8,3.7,9,5.6,12.4,9.9c1,1.2,1.8,0.2,2-0.8
	c0.3-2.7,1.4-4.9,3.4-6.7c2.8-2.6,5.7-5.1,8.5-7.7c1.5-1.4,3.4-2.6,4.3-4.3c1.9-3.5,5.1-4.7,8.4-5.9C58.4,52,58.9,51.6,59.7,51z
	 M104.9,193.3c-0.8,1.7-1.9,3.3-2.2,5.1c-1.5,7.4-2.8,14.8-3.9,22.2c-0.6,3.8-0.5,7.7-1.3,11.4c-1,4.1,0.5,7.9,0.7,11.9
	c0.1,2.4,2.9,3.7,5.6,3.4c2.1-0.2,2.4-0.9,2.6-4.3c0.3-7.7,0.1-15.4,0.7-23.1C107.8,211.2,108,202.3,104.9,193.3z M107.9,245.5
	c3.1-1.4,4.1-4,4.9-6.5c1.8-5.6,3.7-11.3,3.3-17.4c-0.1-2.1-0.2-4.2,0-6.3c0.6-6.6-1.3-12.7-3.9-18.6c-0.4-0.9-0.8-1.8-1.4-2.5
	c-0.3-0.4-1.1-0.9-1.6-0.8c-0.4,0.1-0.9,0.9-0.9,1.4c0,2.1,0.1,4.2,0.2,6.3c0.2,5,0.7,9.9,0.5,14.9c-0.2,6.3-0.9,12.6-1.2,18.9
	C107.7,238.3,107.9,241.7,107.9,245.5z M62.9,48.1c2.4-3.7,1.7-6.8-0.2-9.9c-1.4-2.3-2.6-4.8-4.1-7.1c-4.2-6.4-8.8-12.3-15.4-16.5
	c-6.1-3.9-5.8-4-12,1c-0.1,0.1-0.1,0.3-0.4,0.8c2.5,1.8,5,3.8,7.7,5.4c5.1,3.1,10.5,5.7,14.3,10.5C56.8,37.2,61.7,41.3,62.9,48.1z
	 M61.1,50.2c0.1-0.6,0.3-0.9,0.2-1.2c-1.1-4.1-4-7.3-6-10.8c-2.6-4.6-6.6-7.5-10.5-10.5c-4.1-3.3-8.8-5.9-13.3-8.6
	c-1.6-0.9-3.6-1.3-5.5-1.6c-1.9-0.2-3.9-0.1-5.8,0.2c-3.3,0.5-6.7,1-9.6,3.1c3.1,0.5,6.1,0.6,9.2,0.5c4-0.1,7.6,1.3,10.8,3.4
	c3.7,2.3,7.4,4.6,10.8,7.2c1.8,1.3,3.4,2.1,5.6,2.2c4,0.2,5.1,1.8,5.3,6.3c0,0.7,0.3,1.6,0.8,2.1C55.8,45,58.4,47.5,61.1,50.2z
	 M61,170c-0.9-0.2-1.9-0.4-2.8-0.4c-0.4,0-1,0.1-1.1,0.3c-0.1,0.4-0.1,1.1,0.2,1.4c0.5,0.6,1.1,1.2,1.8,1.4c5,1.7,9.8,1.4,14.4-1.1
	c0.7-0.4,1.5-0.9,1.8-1.5c0.4-0.7,0.4-1.7,0.5-2.6c-0.7,0.1-1.5,0-2.1,0.2C69.7,169.6,65.7,171.6,61,170z M76.8,47.9
	c0-0.3-0.1-0.6-0.1-0.9c-2.8-0.4-5.7-1-8.5-1.2c-1.8-0.1-2.5,1.2-2.5,2.9c0,2.3,1.5,0.9,2.4,0.9c1.3,0,2.6,0.1,3.9-0.2
	C73.6,49,75.2,48.4,76.8,47.9z M59.6,291.2c6.6-2.9,6.6-3.1,4.1-9C62.3,285.2,61.2,287.7,59.6,291.2z M82.5,177.9
	c0.3-0.3,0.5-0.5,0.8-0.8c-1-0.8-1.9-1.8-3-2.5c-0.3-0.2-1.1,0.4-1.6,0.6c0.2,0.5,0.3,1.4,0.7,1.6C80.3,177.5,81.4,177.6,82.5,177.9
	z M28.9,26.2c0-0.2,0.1-0.5,0.1-0.7c-0.9-0.3-1.7-0.8-2.6-1c-0.3-0.1-0.8,0.4-1.2,0.6c0.3,0.3,0.5,0.9,0.8,0.9
	C27,26.2,27.9,26.1,28.9,26.2z M56.8,48.3c-0.4-0.4-0.8-0.8-1.2-1.1c-0.1,0.2-0.4,0.5-0.4,0.6c0.3,0.5,0.7,0.9,1.1,1.3
	C56.4,48.8,56.5,48.6,56.8,48.3z M14.9,24.4c-0.2-0.3-0.3-0.6-0.6-0.7c-0.2,0-0.5,0.2-0.8,0.3c0.2,0.3,0.5,0.6,0.7,0.9
	C14.5,24.8,14.7,24.6,14.9,24.4z"/>
<path d="M20.9,290.1c-3.1-0.2-6.4,0.7-9.9-1.8c3-0.8,5.4-1.6,7.8-2c1.4-0.2,2.8-0.3,3.7-1.5c0.3-0.4,1.2-0.8,1.1-1
	c-0.5-2-0.9-4.1-1.9-5.8c-1.3-2.2-1.6,0.2-2.4,1c-0.8-3.2-1.6-6.4-2.5-10.3c2.5,1.5,4,2.5,4.1,4.9c-0.6,0-1.2,0-1.8,0
	c0.4,0.5,0.7,0.9,1.1,1.4c0.2-0.5,0.5-0.9,0.7-1.4c1.7,1.3,2.2,3.9,4.9,4c0.6,0,1.1,0.1,1.7,0.1c-0.2-0.6-0.4-1.2-0.6-1.7
	c-0.1-0.3,0.2-0.6,0.2-0.8c1.4,0.8,2.9,1.5,4.3,2.3l0.2,0.2c-0.1,1-0.4,2.8-0.2,2.9c1.7,0.6,0.6-2,2-2c0,0,0,0,0,0
	c-0.2,1.6-0.2,3.2-0.5,4.7c-0.1,0.8-0.6,1.7,0.6,1.8c0.5,0.1,1.7-0.7,1.7-1.1c0-3.2,1.2-1.7,2.7-1c1.8,0.9,3-0.4,2.4-2.4
	c-1.4-4.4-3-8.7-4.5-13.1c-0.1-0.4-0.1-1,0.1-1.2c0.2-0.2,1-0.2,1.2,0c1.5,1.7,2.9,3.4,4.3,5.1c-0.1,0.2-0.3,0.3-0.4,0.4
	c-0.4,0.3-1.2,0.6-1.1,0.8c0.8,3.1,1.9,6.1,2.7,9.2c1,4,1.9,8.1-0.4,12.1l0,0c-0.4-0.6-0.7-1.2-1.1-1.8c-0.6-1-1.2-2-1.8-3
	c0-0.7,0-1.3,0-2c0.9,0.7,1.7,1.5,2.7,2.3c0-0.7,0.1-1.3,0.1-1.9c0-0.5,0.1-1-0.1-1.4c-0.3-0.5-0.7-0.9-1.1-1.4
	c-0.5,0.5-1,1-1.5,1.5c-0.2,0.2-0.1,0.6-0.1,0.9c-0.3,0-0.7,0-1,0c0-0.1-0.1-0.3-0.2-0.4c-0.1-0.1-0.2-0.1-0.3-0.1
	c0.2,0.2,0.3,0.3,0.5,0.5c0.3,0.7,0.6,1.3,1,2c0.3,2.9,0.7,5.8,1,8.7l0,0c-0.8-2.7-2.4-4.1-5.4-3.9c-1.7,0.1-3.4-0.6-5.1-1
	c-3.2-0.9-3.9-2.4-2-5.2c1.2-1.7,0.9-2.9-0.1-4.3l0.3-0.4c1.2-2.3,0.9-2.8-2.1-3.6c0-0.1-0.1-0.3-0.1-0.4c0-0.1-0.2-0.1-0.3-0.1
	c0.1,0.2,0.3,0.3,0.4,0.5c0.4,0.9,0.7,1.9,1.1,2.8l-0.3,0.3c-0.6-0.1-1.5-1.4-1.7,0.1c-0.1,1.4,0.4,2.8,0.6,4.2
	c0.1,0.6-0.1,1.2-0.2,1.8c-0.6-0.1-1.2,0-1.7-0.2c-0.6-0.2-1.1-1-1.6-1c-1.5,0-3.1,0.2-4.6,0.4c0.1,2.3,2.6,0.6,3.3,1.9
	C20.8,289.8,20.9,289.9,20.9,290.1L20.9,290.1z M38.3,292.7c-1.3-5.8-1.7-6-6.4-4.8c-0.6,0.2-1.3,0.1-1.9,0.4c-0.4,0.1-1,0.6-1,0.8
	c0.1,0.6,0.5,1.4,0.9,1.5C32.6,291.3,35.2,291.9,38.3,292.7z M30.6,285.7c0.4-0.2,0.9-0.4,0.9-0.5c-0.1-0.5-0.3-1.1-0.5-1.6
	c-0.3,0.2-0.9,0.4-0.9,0.6C30.1,284.7,30.4,285.2,30.6,285.7z"/>
<path d="M87.9,290.1c-2.4,2.4-4.9,4.9-7.4,7.4c-0.5-2.7-1-5.1-1.7-8.7c-1.6,4.9-3,8.8-4.4,13c-1.1-1.8,1-3.8-1.1-5l0,0
	c-0.3-3.4,1.8-5.9,3.7-8c2-2.4,2.2-4.7,2.1-7.4c0-0.6-0.1-1.3-0.1-1.9l0.3-0.3c0.3,1.3,0.7,2.7,0.8,4c0.4,3.6,0.7,7.3,1.2,11.5
	c2.2-7,2.2-13.2-0.2-19.3l0,0c1,0,1.7,0.4,2,1.5c0.5,2.4,1.2,4.7,1.9,7.1l0.1,0.2c-0.3,2-1.8,3.9-0.6,6c0.5-1.1,1-2.1,1.5-3.2l0,0
	c0.2,0.6-0.1,2,1.1,1.2c1.1-0.8,1.9-2.1,2.8-3.1l0,0c1.1,0,1.8-0.4,1.9-1.6c0-1.1,0.1-2.2,0.1-3.3c0,0,0,0,0,0
	c0.3,0.3,0.7,0.6,0.9,1c0.4,0.8,0.6,1.7,0.9,2.5c1-0.5,2.1-0.8,2.8-1.5c0.9-0.8,1.5-2,2.2-3l0,0c0.5,2.9-0.8,4.8-3,6.5
	c-1.6,1.3-3.2,2.7-2.8,5.1c0.2,1.8,0.4,1.9,2.8,0.9l0.1,0.1c-0.9,2.3-1.8,4.7-2.8,7.6c-0.4-1.9-0.9-3.5-1.1-5.1
	c-0.2-1.4-0.1-2.9-0.2-4.3c0-0.2-0.4-0.5-0.6-0.4c-0.3,0.1-0.6,0.3-0.7,0.6c-0.2,0.3-0.3,0.7-0.2,0.9c1.3,3.1,0.8,5.8-2.4,8.2
	c0.3-1.5,0.5-2.7,0.7-3.9c0.2-1.2,0.8-2.5-0.6-3.5l-0.1-0.1C87.9,291.3,87.9,290.7,87.9,290.1c0.1-0.1,0.3-0.1,0.4-0.2
	c0.1-0.1,0.1-0.2,0.1-0.3C88.2,289.8,88.1,289.9,87.9,290.1z"/>
<path d="M51,294.9c-3.3,1.2-4,4-3.9,8.3c-1.4-5.1-0.8-8.2,1.9-12.2l0,0c0.2,0.9,0.1,2.3,1.6,1.4c3-1.9,4.8-4.8,5.1-8.3
	c0.3-2.9,0.4-5.6,1.7-8.3c0.8-1.7-0.1-3.1-2.3-3c-0.1-0.1-0.3-0.3-0.4-0.4c1.6-1.6,3.3-3.2,4.9-4.8l0.3,0.3c0.1,2.9,0.1,2.9,2.8,1.8
	l0,0c-0.3,1.4-0.6,2.7-0.8,4.1c0.2,0,0.3,0,0.5,0.1c0.9-1.5,1.8-2.9,2.8-4.4c-0.5-0.2-0.9-0.5-1.4-0.7l0,0c1-2.3,3.5-2.4,5.8-3.1
	c-0.4,0.7-0.8,1.4-1.3,2.1c-1.6,2.6-3.2,5.1-4.8,7.7c0,0,0.7,0.5,1,0.8c0.1,0.2,0.3,0.3,0.4,0.5c-0.4,0.9-0.8,1.8-1.2,2.7l0,0
	c-0.3,0.3-0.7,0.7-1,1l0,0c-1.3,0.7-2.6,1.3-3.9,2c0-0.8,0-1.5-0.1-2.3c-0.1-0.4-0.4-0.7-0.5-1c-0.3,0.3-0.8,0.6-0.9,0.9
	c-0.2,0.6-0.3,1.2-0.3,1.8c0,1.9,1.2,0.5,1.9,0.6c-0.5,1.3-0.9,2.7-1.6,4c-0.5,1.1-2,2,0,3.1c0.1,0.1-0.2,1.1-0.5,1.5
	c-2.1,2.4-4.3,4.8-6.4,7.1l-0.3-0.3C50.3,296.8,50.7,295.8,51,294.9c0.3-0.3,0.6-0.7,0.9-1c0.3-0.3,0.6-0.6,1-1
	c0.1,0,0.3-0.1,0.4-0.2c0.1-0.1,0.1-0.2,0.1-0.3c-0.2,0.1-0.3,0.3-0.5,0.4c-0.3,0.3-0.6,0.6-1,1C51.7,294.3,51.4,294.6,51,294.9z
	 M58.6,271c-0.2,0.1-0.4,0.2-0.6,0.3c0.2,0.7,0.4,1.4,0.6,2c0.7,1.8-0.1,4.3,2.2,5.4c-0.4-1.9-0.7-3.9-1.2-5.8
	C59.5,272.2,59,271.6,58.6,271z"/>
<path d="M41.5,271.4c2.8,0.7,2.4,4,4.5,5.7c0.5-5.9-0.8-11.1-4.7-16.1c4.5,0.8,6.5,3.5,7.7,6.9c0.5,1.5,0.9,2.8,2.8,2.5l0.3,0.3
	c-0.9,1.4-2.5,2.6-1.9,4.6c0.1,0.3,0.3,0.6,0.5,0.7c0.2,0.1,0.6,0,0.8-0.2c1.1-1.1,2.1-2.3,3.1-3.4c0.1,0.1,0.3,0.3,0.4,0.4
	c-1.3,2.5-2.6,5-4,7.5c-0.9,1.5-0.2,2.6,1.2,2.6c1.4,0,1.9,0.1,1.1,1.4c-1.4,2.3-2.8,4.5-4.3,6.8l0,0c-0.3-1-0.6-1.9-0.9-2.9l0,0
	c1.3-1.8,2-3.5,1.2-6.1c-0.8-2.5-0.3-5.4-0.3-8.2c0-2.7-0.8-5.2-2.2-7.4c0,6.5,0,12.9,0,19.4c0,0.4-0.4,0.8-1.1,2
	c-1-6.3-1.4-11.5-4.5-16C41.3,271.7,41.4,271.6,41.5,271.4z"/>
<path d="M100.4,290c-0.3-0.6-0.5-1.2-0.8-1.7l-0.2-0.2c1.7-2.9,4.8-3.7,7.6-5c0.1,0.1,0.3,0.3,0.4,0.4c-0.4,1-0.8,2-1,3.1
	c-0.1,0.5,0.3,1.2,0.5,1.8c0.4-0.4,0.9-0.8,1.3-1.3l0,0c1.1,0.5,2.2,1,4.2,1.9c-0.8,0.4-1.4,0.7-2,0.9c-2.3,0.9-2.7,2.6-1.8,4.7
	c0.8,1.8,0.8,3.6,0.1,6c-0.7-2.7-1.2-4.9-1.7-7.2c-0.2,0-0.4,0.1-0.6,0.1c-0.1,1.6-0.1,3.2-0.3,4.7c0,0.4-0.5,0.7-0.7,1.1
	c-0.4-0.4-0.9-0.8-1.1-1.2c-0.2-0.6-0.2-1.2-0.3-2.1c-1.3,1-2.4,1.9-3.6,2.7l-0.1-0.1c0-0.6,0-1.3,0-1.9l0,0c0.3-0.3,0.7-0.7,1-1
	l0,0c1.6-1.6,3.2-3.3,4.8-4.9c0.1-0.1,0.3-0.1,0.4-0.2c0.1-0.1,0.1-0.2,0.1-0.3c-0.1,0.2-0.3,0.3-0.4,0.5c-0.7,0-1.3,0-2,0
	c0.2-1.1,1.8-2.3,0.4-3.3c-0.3-0.3-1.7,0.8-2.6,1.3c-0.5,0.3-1,0.7-1.5,1.1L100.4,290z"/>
<path d="M87.9,278.5c0.3-0.7,0.8-1.3,1-2c0.4-1.5,0.7-3,1.3-5.7c1,2.1,1.3,3.4,2.1,4.1c0.6,0.5,1.9,0.1,2.9,0.1
	c-1.1,1.8-2.2,3.6-3.4,5.4l0,0c-1,0.1-1.8,0.4-1.9,1.6c0,1.1-0.1,2.2-0.1,3.3l0,0c-0.7-0.6-1.3-1.3-2-1.9c-0.1-0.1-0.1-0.3-0.2-0.4
	c-0.1-0.1-0.2-0.1-0.3-0.1c0.2,0.1,0.3,0.3,0.5,0.4c-0.7,1.3-1.3,2.6-2,3.9c0,0,0,0,0,0c-0.3-0.9-0.6-1.9-0.9-2.8
	c0,0-0.1-0.2-0.1-0.2C85.9,282.3,86.9,280.3,87.9,278.5C87.9,278.4,87.9,278.5,87.9,278.5z M90.6,275.3c-0.1-0.1-0.2-0.2-0.3-0.3
	c-0.1,0.2-0.2,0.5-0.3,0.7c0,0.1,0.2,0.2,0.3,0.3C90.4,275.8,90.5,275.6,90.6,275.3z"/>
<path d="M77.3,279.5c-1.7,5-3.4,9.9-5.1,14.9c-0.3,0.7-0.8,1.4-1.6,2.7c-0.1-1.9-0.2-2.9-0.3-4l0.1-0.2c0.9-2.3,1.8-4.6,2.7-6.8
	c1-2.4,1.6-5.1,3.9-6.7L77.3,279.5z"/>
<path d="M31.5,277.4c0.1-2-0.1-4.2,2.7-5.3c0.7,2.3,1,4.4-0.6,6.4l0,0c-0.6-0.3-1.2-0.6-1.8-0.9L31.5,277.4z"/>
<path d="M107.1,283.1c0.4-1.2,0.7-2.9,2.2-2.4c1.4,0.5,0.9,2.1,0.5,3.2c-0.4,1.1-1,2.1-1.6,3.2c0,0,0,0,0,0
	c-0.3-1.2-0.5-2.4-0.8-3.6C107.4,283.4,107.2,283.2,107.1,283.1z"/>
<path d="M98.6,297.8c-0.7,0.9-1.5,1.8-2.7,3.3c-0.5-4,0.9-6.2,2.6-8.3l0.2,0.1c0,1-0.1,1.9-0.1,2.9l0,0
	C97.5,296.5,97.4,297.2,98.6,297.8C98.6,297.8,98.6,297.8,98.6,297.8z"/>
<path d="M60.7,264.9c0.2-0.2,0.3-0.7,0.6-0.7c1.2-0.2,3.2-0.7,3.4-0.3c0.7,1.6-1.3,1.6-2,2.4c-0.7,0.8-1.8,1.1-2.8,1.7
	c0,0-0.3-0.3-0.3-0.3c0.4-0.6,0.7-1.2,1.1-1.8l0,0C60.7,265.5,60.7,265.2,60.7,264.9C60.7,264.8,60.7,264.9,60.7,264.9z"/>
<path d="M58,297.1c-1.2,2.2-2.4,4.4-3.9,7c-0.1-3.5,0.2-4.2,3.5-7.3C57.8,296.8,57.9,296.9,58,297.1z"/>
<path d="M101.5,275.5c-0.6-0.3-1.3-0.6-1.9-1l0,0c1.9-2.3,1.9-2.3,5.4-3.4C103.5,273,102.5,274.2,101.5,275.5L101.5,275.5z"/>
<path d="M47.2,290.1c-1,2.3-2,4.5-3,6.8l0,0C44.1,294.1,44.5,291.6,47.2,290.1L47.2,290.1z"/>
<path d="M100.5,296.8c-0.6,0.3-1.3,0.7-1.9,1l0,0c0-0.7,0-1.3,0-2l0,0c1.3-1.3,2.6-2.6,3.9-3.9c-0.3,1.3-0.7,2.6-1,3.9l0,0
	C101.2,296.2,100.8,296.5,100.5,296.8C100.5,296.9,100.5,296.8,100.5,296.8z"/>
<path d="M51.9,270.5c0.9-1.6,1.7-3.3,4-2.8l0,0c-0.8,1.5-1.9,2.8-3.8,3L51.9,270.5z"/>
<path d="M56.8,266.8c0.7-1.9,2.2-2,3.9-1.9l0,0c0,0.3,0,0.7,0,1l0,0C59.5,266.2,58.2,266.5,56.8,266.8
	C56.9,266.8,56.8,266.8,56.8,266.8z"/>
<path d="M40.4,297.8c0.4,1.2,0.7,2.4,1.1,3.7c-0.2,0-0.4,0-0.4,0C40.8,300.3,40.6,299.1,40.4,297.8L40.4,297.8z"/>
<path d="M97.6,276.5c0,1.4-0.7,2.4-2,2.9l0,0C95.6,278,96.2,277,97.6,276.5L97.6,276.5z"/>
<path d="M98.5,292.9c0.6-1,1.3-2,1.9-2.9l0.3,0.2c-0.7,1-1.3,1.9-2,2.9L98.5,292.9z"/>
<path d="M79,279.6c-0.6,0-1.1,0-1.7-0.1c0,0-0.1-0.1-0.1-0.1c0.6-1,1.3-2,1.9-2.9c0,0,0.2,0.2,0.2,0.2c0,0.9,0,1.8,0,2.7
	C79.3,279.3,79,279.6,79,279.6z"/>
<path d="M86,294.9c0,1.4-0.6,2.4-2,2.9l0,0C84,296.4,84.5,295.4,86,294.9L86,294.9z"/>
<path d="M50.2,298c-0.1,0.4-0.2,1-0.5,1.3c-0.3,0.4-0.9,0.6-1.3,0.9c0.1-0.5,0.1-1.1,0.4-1.6c0.2-0.4,0.7-0.6,1-0.9
	C49.9,297.7,50.2,298,50.2,298z"/>
<path d="M95.6,291.9c0-1.3,0.6-1.9,1.9-2c0,0,0.2,0.2,0.2,0.2c-0.6,0.6-1.3,1.3-1.9,1.9C95.7,292.1,95.6,291.9,95.6,291.9z"/>
<path d="M87,293c-0.3,0.6-0.7,1.3-1,1.9c0,0-0.1-0.1-0.1-0.1C86.2,294.2,86.6,293.6,87,293C86.9,292.9,87,293,87,293z"/>
<path d="M47.1,290c0.3-0.6,0.7-1.3,1-1.9l0,0C47.8,288.8,47.5,289.4,47.1,290L47.1,290z"/>
<path d="M21,282.3c-0.3-0.3-0.5-0.7-0.8-1c0.2-0.1,0.3-0.2,0.5-0.3C20.8,281.4,20.9,281.9,21,282.3C21,282.3,21,282.3,21,282.3z"/>
<path d="M99.6,278.4c0.3-0.6,0.6-1.3,1-1.9l0,0C100.2,277.1,99.9,277.8,99.6,278.4L99.6,278.4z"/>
<path d="M100.5,298.8c-0.1,0.5-0.2,0.9-0.3,1.4c-0.2-0.1-0.4-0.2-0.6-0.4C99.9,299.5,100.2,299.1,100.5,298.8L100.5,298.8z"/>
<path d="M84,297.8c-0.1,0.4-0.2,0.9-0.3,1.3c-0.2-0.1-0.4-0.2-0.5-0.3C83.5,298.5,83.7,298.2,84,297.8L84,297.8z"/>
<path d="M44.2,296.9c-0.1,0.4-0.2,0.9-0.3,1.3c-0.2-0.1-0.4-0.2-0.5-0.3C43.7,297.5,44,297.2,44.2,296.9
	C44.3,296.9,44.2,296.9,44.2,296.9z"/>
<path d="M42.3,294c0.3,0.3,0.5,0.6,0.8,0.9c-0.2,0.1-0.3,0.2-0.5,0.3C42.5,294.8,42.4,294.4,42.3,294C42.3,293.9,42.3,294,42.3,294z
	"/>
<path d="M57.9,294c-0.3,0.3-0.7,0.6-1,0.9l0,0c0.3-0.3,0.6-0.7,0.9-1L57.9,294z"/>
<path d="M55.9,295.9c0.3-0.3,0.7-0.6,1-1l0,0C56.6,295.3,56.2,295.6,55.9,295.9L55.9,295.9z"/>
<path d="M55.9,295.9c-0.2,0.2-0.3,0.4-0.5,0.7C55.6,296.4,55.7,296.1,55.9,295.9L55.9,295.9z"/>
<path d="M87.9,292.1c-0.3,0.3-0.6,0.6-1,1l-0.1-0.1C87.2,292.6,87.5,292.3,87.9,292.1L87.9,292.1z"/>
<path d="M21,290c0.2,0.2,0.3,0.4,0.5,0.5C21.3,290.4,21.1,290.3,21,290L21,290z"/>
<path d="M97.5,290c0.3-0.3,0.7-0.6,1-0.9l0,0c-0.3,0.3-0.6,0.7-0.9,1C97.7,290.1,97.5,290,97.5,290z"/>
<path d="M98.5,289.1c0.3-0.3,0.6-0.7,0.9-1c0,0,0.2,0.2,0.2,0.2C99.3,288.5,98.9,288.8,98.5,289.1C98.6,289.1,98.5,289.1,98.5,289.1
	z"/>
<path d="M73.3,296.9c-0.1,0.2-0.3,0.4-0.4,0.7C73.1,297.3,73.2,297.1,73.3,296.9C73.4,296.9,73.3,296.9,73.3,296.9z"/>
<path d="M62.7,269.7c0.3-0.3,0.6-0.6,1-1l0,0C63.3,269.1,63,269.4,62.7,269.7L62.7,269.7z"/>
<path d="M55.9,267.7c0.3-0.3,0.6-0.6,1-1l0,0C56.6,267.1,56.2,267.5,55.9,267.7L55.9,267.7z"/>
<path d="M99.5,278.4c-0.3,0.3-0.7,0.6-1,1l0,0C98.9,279.1,99.2,278.8,99.5,278.4L99.5,278.4z"/>
<path d="M94.7,280.4c0.3-0.3,0.6-0.6,1-1l0,0C95.3,279.7,95,280,94.7,280.4L94.7,280.4z"/>
<path d="M94.7,280.4c-0.2,0.2-0.3,0.3-0.5,0.5c0-0.1,0-0.3,0.1-0.3C94.4,280.5,94.6,280.4,94.7,280.4
	C94.7,280.4,94.7,280.4,94.7,280.4z"/>
<path d="M21,282.3c0.2,0.1,0.4,0.3,0.7,0.4C21.4,282.6,21.2,282.4,21,282.3L21,282.3z"/>
<path d="M27.6,283.4c-0.3-0.3-0.6-0.6-1-1l0.3-0.3c0.3,0.3,0.6,0.6,0.9,0.9L27.6,283.4z"/>
<path d="M99.6,274.6c-0.3,0.3-0.6,0.7-1,1l0,0C98.9,275.2,99.2,274.9,99.6,274.6C99.5,274.5,99.6,274.6,99.6,274.6z"/>
<path d="M97.6,276.5c0.3-0.3,0.6-0.7,1-1l0,0C98.3,275.9,97.9,276.2,97.6,276.5L97.6,276.5z"/>
<path d="M101.5,275.5c-0.3,0.3-0.7,0.6-1,1c0,0,0,0,0,0C100.8,276.2,101.2,275.9,101.5,275.5C101.5,275.5,101.5,275.5,101.5,275.5z"
	/>
<path d="M40.9,49.9c0.8-2.5,1.3-4.1,1.9-6.2c-1.9,0.9-3.5,1.7-6,2.9c2.4-3.4,4.9-4.9,7.3-6.6c0.5-0.3,1.7,0.4,2.5,0.8
	c0.1,0.1-0.1,0.9-0.2,1.4c-2-0.7-1.8,0.1-1.7,1.8C44.7,46,43.6,47.9,40.9,49.9z"/>
<path d="M29,60.1c1.2,4.7-0.6,7.6-4.5,7.8c-1,0.1-3-0.4-3-0.7c-0.1-1.7,1.5-1.2,2.5-1.2c1.9,0.1,3-0.9,3.6-2.6
	C27.9,62.5,28.4,61.6,29,60.1z"/>
<path d="M42.3,37.5c-1.5,1-3,2-4.6,3c-0.1,0.1-0.6-0.1-0.8-0.3c-0.1-0.2-0.1-0.7,0-0.8c0.9-0.8,1.8-1.5,2.7-2.2
	c-0.8-0.6-1.1-1.3,0-1.6c0.6-0.2,1.5,0.4,2.1,0.7C42,36.4,42,36.8,42.3,37.5z"/>
<path d="M20.7,32.9c-0.3-0.7-0.7-1.2-0.6-1.4c0.2-0.5,0.7-0.8,1.1-1.2c0.2,0.3,0.8,0.7,0.7,1C21.6,31.7,21.2,32.2,20.7,32.9z"/>
<path d="M18.2,39.3c-0.2,0.4-0.4,0.6-0.5,0.9c-0.2-0.3-0.5-0.6-0.6-1c0-0.2,0.2-0.5,0.4-0.8C17.7,38.7,18,39,18.2,39.3z"/>
<path d="M18.6,34.4c-0.2,0.2-0.4,0.4-0.5,0.4c-0.2,0-0.4-0.3-0.6-0.4c0.1-0.1,0.2-0.3,0.3-0.3C18.1,34.2,18.3,34.3,18.6,34.4z"/>
<path d="M23.9,35c0.3-0.3,0.6-0.5,0.9-0.8c0.1,0.2,0.2,0.3,0.3,0.5C24.7,34.8,24.3,34.9,23.9,35L23.9,35z"/>
<path d="M20.8,36.2c-0.1,0.1-0.2,0.2-0.3,0.3c-0.1-0.2-0.2-0.5-0.3-0.7c0-0.1,0.2-0.2,0.3-0.3C20.6,35.7,20.7,35.9,20.8,36.2z"/>
<path d="M23.9,34.9c-0.3,0.3-0.7,0.6-1,0.9c-0.1-0.2-0.2-0.4-0.4-0.6C23,35.2,23.4,35.1,23.9,34.9L23.9,34.9z"/>
<path d="M78.2,274.5c-1.3,1.3-2.6,2.6-3.9,3.9C74.5,276.1,75.9,274.8,78.2,274.5z"/>
<path d="M74.3,278.4c-0.3,0.3-0.7,0.7-1,1C73.7,279.1,74,278.8,74.3,278.4z"/>
<path d="M104.4,291c-0.7,0.3-1.3,0.7-2,1C103.1,291.7,103.8,291.4,104.4,291z"/>
</svg>
