<?xml version="1.0" encoding="utf-8"?>
<!-- Generator: Adobe Illustrator 18.0.0, SVG Export Plug-In . SVG Version: 6.00 Build 0)  -->
<!DOCTYPE svg PUBLIC "-//W3C//DTD SVG 1.1//EN" "http://www.w3.org/Graphics/SVG/1.1/DTD/svg11.dtd">
<svg version="1.1" id="Layer_1" xmlns="http://www.w3.org/2000/svg" xmlns:xlink="http://www.w3.org/1999/xlink" x="0px" y="0px"
	 viewBox="0 0 76.5 21.1" enable-background="new 0 0 76.5 21.1" xml:space="preserve">
<path d="M15,17.3c-2.7,0-5.4,0.2-8.1,0C2.7,16.9,0.1,13.7,0,9.5C0,9.3,0,9.2,0,9c0.2-2.2,0.3-4.4,0.5-6.7C3.1,1.5,5.6,0.2,8.2,0
	c2.5-0.2,5.4,0.3,7.5,1.6c3.7,2.1,7.6,3.2,11.7,4.1c3.2,0.7,5.9,2,7.2,5.6c0.7,2.1,0.2,3.6-1.2,4.8c-2.9,2.4-6.4,3.5-10.3,3
	c-1.1-0.1-2.2-0.4-3.2-0.8c-1.5-0.7-2.3-0.4-3,1.1c-0.2,0.5-0.9,1-1.4,1.3c-0.3,0.2-1.2,0.2-1.2,0.1c-0.2-0.5-0.5-1.4-0.3-1.7
	c0.5-0.6,1.4-0.8,2.1-1.2C15.7,17.7,15.3,17.5,15,17.3z M24.9,14.4c1.5-0.6,3.7-1.4,5.9-2.3c1.2-0.5,1.1-1.7,0.1-2.2
	c-2.6-1.2-5.2-2.1-7.9-3c-0.4-0.2-1.2,0.3-1.7,0.7c-1.6,1.2-2.1,2.9-1.5,4.7C20.3,14.1,22.2,14.3,24.9,14.4z M17.5,12.7
	c-0.3-1.4-0.2-3.5-1-3.9c-1.6-0.8-3.7-1-5.5-0.8c-1.5,0.2-3,1.3-4.9,2.1C10.2,11.1,13.7,11.9,17.5,12.7z M13.3,14.1
	c-3.9-1-7.5-1.9-11.3-2.9C5.6,15.1,9,16,13.3,14.1z M10.4,2.9c-2.2,0-4.1-0.1-6,0.1C3.9,3,3.3,3.9,3.1,4.5C3,5,3.3,5.9,3.7,6.1
	C4,6.3,4.8,5.9,5.3,5.6C6.9,4.8,8.5,3.9,10.4,2.9z M23.9,15.8c-0.1,0.3-0.3,0.6-0.2,0.8c0.1,0.2,0.5,0.3,0.8,0.4
	c0.1-0.2,0.3-0.6,0.2-0.7C24.5,16.1,24.2,16,23.9,15.8z"/>
<path d="M52.3,4.6c0.8,0,1.1-0.1,1.4,0c3.8,1.1,7.5,2.5,11.6,1.1c0.9-0.3,2.6,0.6,3.5,1.4c2.4,2.1,4.6,4.5,7,6.7c1,1,0.7,2,0.1,3.1
	c-1.4,2.7-5.8,4.7-9.1,4.1c-1.6-0.3-3.1-0.6-4.7-0.7c-1.2-0.1-3,1.2-3.2-1.4c0-0.2-1.3-0.6-1.6-0.4c-2.1,1.3-3.4,0.2-5-1
	c-1.4-1-3.2-1.5-4.7-2.2c-3-1.5-3.5-3.3-2-6.3C47,5.8,49.2,4,52.3,4.6z M67,18.5c1.7-0.4,3.5-0.4,5-1.1c2-0.9,1.9-2.3,0.3-3.7
	c-0.8-0.7-1.9-1.3-2.4-2.2c-1.9-3.3-4.6-3.9-8.1-3c-3.6,0.9-4.8,3.6-2.4,6.5C61.4,17.4,63.7,18.9,67,18.5z M56.4,9.6
	c0.3-2.5,0-2.9-2.2-2.9c-1.2,0-2.5,0.3-3.7,0.4c-2,0.2-3.3,1.4-3.7,3.4c-0.3,1.8,0.8,2.6,2.4,3c0.7,0.2,1.4,0.8,2.1,1.1
	c1.8,0.9,4.4-0.2,4.9-2.1C56.4,11.5,56.3,10.5,56.4,9.6z"/>
<path d="M21.6,9c0.3,0.3,0.5,0.4,0.6,0.6c-0.3,0.3-0.6,0.5-0.9,0.8c0,0-0.3-0.2-0.3-0.3C21.2,9.7,21.4,9.3,21.6,9z"/>
</svg>
