<?xml version="1.0" encoding="utf-8"?>
<!-- Generator: Adobe Illustrator 18.0.0, SVG Export Plug-In . SVG Version: 6.00 Build 0)  -->
<!DOCTYPE svg PUBLIC "-//W3C//DTD SVG 1.1//EN" "http://www.w3.org/Graphics/SVG/1.1/DTD/svg11.dtd">
<svg version="1.1" id="Layer_1" xmlns="http://www.w3.org/2000/svg" xmlns:xlink="http://www.w3.org/1999/xlink" x="0px" y="0px"
	 viewBox="0 0 41.7 58.9" enable-background="new 0 0 41.7 58.9" xml:space="preserve">
<path d="M0.1,40.7c-0.2-2-0.1-3.9,1.6-5c4.4-3,5.6-7.6,6.1-12.4C8.5,16,12.2,10,16.6,4.5C18.9,1.6,22.1,0,25.9,0
	c3.3,0,4.4,0.6,5.3,3.8c0.9,3.2,1.4,6.6,1.9,9.9c0.5,3,0.7,6,1,9.1c0.1,1.1,0.4,2.2,0.8,3.2c1.7,3.6,3.6,7.2,5.2,10.9
	c0.9,2,1.2,4.3,1.6,6.5c0.1,0.4-0.6,1.2-1.1,1.3c-3.6,1.3-7.2,2.6-10.9,3.6c-1.1,0.3-2.5-0.1-3.7-0.3c-3.5-0.4-6.8-0.9-10.2,1.4
	c-2,1.4-4.8,1.7-7.3,2.2c-1.8,0.4-3-0.5-3.7-2.4c-0.4-1.3-1.2-2.9-2.2-3.4C0.3,44.5-0.3,42.9,0.1,40.7z M27,45.7
	C27,45.7,27,45.6,27,45.7c1.1-0.1,2.3,0,3.4-0.1c2.4-0.3,2.9-1.3,1.6-3.5c-1.9-3.3-3.8-6.7-5.7-10c-1.8-3-3.6-6.1-5.6-8.9
	c-0.9-1.3-1.1-2.2-0.2-3.4c1.3-2,2.4-4.2,4-6c2.9-3.1,2.2-6.5,0.8-9.8C24.3,1.8,22.8,1.5,21,3c-3.6,3.2-6.7,7-8.7,11.5
	c-1.6,3.6-1.3,7.9-3.5,11.3c1.3,5-2.9,9.5-1.2,14.6C8,41.1,7.1,42.1,6.8,43C6.5,43.9,6,44.9,6,45.8c0.3,3.6,2.1,4.5,4.7,3.2
	c1.4-0.7,2.8-1.6,4.2-2.3c2.6-1.2,5.1-2.6,8.1-1.3C24.3,45.8,25.7,45.6,27,45.7z M27.2,2.2c0.4,3.6,1,7,0.9,10.4
	c-0.1,4-1,7.9-1.4,11.9c-0.1,1.1-0.5,2.4,0,3.2c2.4,4.3,4.9,8.6,7.6,12.7c0.7,1,1.7,2.8,3.4,1.7c1.7-1,1.2-2.8,0.6-4.3
	c-0.1-0.1-0.2-0.3-0.2-0.4c-1.6-3.2-3.2-6.3-4.6-9.5c-0.7-1.4-1.1-3-1.3-4.6c-0.8-5.4-1.2-10.8-2.2-16.1C29.6,5.5,29.7,2.9,27.2,2.2
	z M26.3,16.3c-0.3-0.1-0.7-0.2-1-0.3c-0.7,1.2-1.3,2.5-2,3.7c-1.4,2.2,0,3.1,1.7,4.3C25.4,21.3,25.8,18.8,26.3,16.3z M4.7,36.3
	c-2.8,1.3-2.9,3.3-2.5,5.4c0.1,0.3,0.7,0.8,1,0.8c0.5-0.1,1.4-0.4,1.5-0.7C4.8,40.1,4.7,38.4,4.7,36.3z"/>
<path d="M24.9,51.5c1.4-0.2,2.2,0.6,2.8,1.9c0.7,1.3,0.5,2.4-0.5,3.5c-1.8,2-4.2,2.6-6.8,1.6c-2.1-0.8-2.6-2.2-1.4-4
	C20.1,52.8,22.7,51.5,24.9,51.5z M24.2,55.7c-0.3-0.5-0.5-1-0.5-1c-0.5,0.2-1.1,0.4-1.6,0.6c0.2,0.3,0.4,0.8,0.5,0.8
	C23.1,56.1,23.6,55.9,24.2,55.7z"/>
</svg>
