<?xml version="1.0" encoding="utf-8"?>
<!-- Generator: Adobe Illustrator 18.0.0, SVG Export Plug-In . SVG Version: 6.00 Build 0)  -->
<!DOCTYPE svg PUBLIC "-//W3C//DTD SVG 1.1//EN" "http://www.w3.org/Graphics/SVG/1.1/DTD/svg11.dtd">
<svg version="1.1" id="Layer_1" xmlns="http://www.w3.org/2000/svg" xmlns:xlink="http://www.w3.org/1999/xlink" x="0px" y="0px"
	 viewBox="0 0 270.4 151.1" enable-background="new 0 0 270.4 151.1" xml:space="preserve">
<g>
	<path d="M154.1,95c1.6,3.5,3.2,7,4.8,10.5c2.2,4.9,1.3,7.8-4.3,11.9c2.3-3.8,5.2-6.7,1.9-10.2c-2.4,2.3-5,4.6-7.3,7
		c-1.4,1.4-1.4,1.9-0.8,4.8c0.1,0.5,0.1,1,0.1,1.4c0.1,2.2-0.5,2.9-2.3,2.8c-2.2-0.1-0.7-1.6-0.8-2.5c-0.1-0.5,0.1-1,0-1.4
		c-0.1-0.5-0.5-1-0.7-1.5c-0.3,0.5-0.9,0.9-0.9,1.4c-0.1,1.8,0,3.5-0.4,5.4c-4.3-9.3-8.5-18.5-17.7-24.2c0.4,0.5,0.7,1.1,1.2,1.6
		c5.9,5.9,10,12.9,12.3,21c1,3.5,2,7.1,1.5,10.9c0,0.3-0.6,0.5-1,0.8c-0.2-0.4-0.6-0.7-0.6-1.1c0-1.4,0.1-2.7,0.1-4.1
		c-1.3,0.9-2.7,1.5-3.7,2.6c-1,1.1-1.4,2.7-2.2,4.4c-0.8-6.4-0.5-12.5,1-18.6c0.1-0.6,0.5-1.2,0.5-1.8c0-0.4-0.4-0.8-0.6-1.2
		c-0.3,0.3-0.9,0.5-1,0.8c-0.8,3.6-1.5,7.2-2.1,10.8c-1.6,8.9-4.5,17.1-11.5,23.3c-2.4,2.1-3.2,2-4.2-1.2
		c-1.5-4.9-1.7-10.1-0.4-14.8c1.8-6.3,0.6-11.6-2.7-16.8c-0.7-1.2-1.7-2.2-2.6-3.3c-0.1-0.1-0.1-0.3-0.2-0.4
		c-0.1-0.1-0.2-0.1-0.3-0.1c0.2,0.2,0.3,0.3,0.5,0.5c1.1,3.8,2.2,7.7,3.3,11.5c0.4,1.2,1,2.4,1.2,3.6c0.1,0.5-0.4,1.1-0.7,1.7
		c-0.4-0.4-0.9-0.6-1-1.1c-1.1-3.2-2-6.4-3.2-9.6c-0.4-1.2-1.4-1.1-2.2-0.1c-0.9,1.1-0.4,3.4-2.8,3.2c0.4-1.3,0.8-2.6,1.1-3.9
		c0.6-2.4-0.7-3.9-2.4-5.3c-0.4,3.2-0.7,6.3-1.2,9.3c-0.1,0.4-0.6,0.7-0.9,1c-0.4-0.4-1-0.9-1-1.3c-0.2-2.5,1.1-4.9,0.1-7.6
		c-1.2-3.2-2.6-4.9-5.9-4c-2.4,0.6-4.4-0.4-6.6-0.4c-1.8,0-2.3-1.2-1.1-2.5c1.2-1.3,1.8-2.2-0.1-3.3c-0.4-0.2-0.8-0.7-0.9-1.1
		c-0.4-5.4-5-7.9-7.9-11.5c-0.3-0.3-0.6-0.6-1-1c-0.3-0.3-0.6-0.6-1-1c-0.3-0.3-0.6-0.6-1-1c-0.3-0.3-0.6-0.7-1-1
		c-0.3-0.3-0.6-0.6-1-1c-0.1-0.1-0.1-0.3-0.2-0.4c-0.1-0.1-0.2-0.1-0.3-0.1c0.2,0.1,0.3,0.3,0.5,0.4c0.3,0.3,0.6,0.6,1,1
		c0.3,0.3,0.6,0.6,1,1c0.3,0.3,0.6,0.6,1,1c0.3,0.3,0.6,0.6,1,1c0.3,0.3,0.6,0.6,1,1c1.1,1.9,2.3,3.8,3.3,5.8
		c1.8,3.7,4,7.4,3.5,11.8c-0.1,0.5-0.6,1-0.9,1.5c-0.4-0.4-0.9-0.8-1-1.3c-0.4-1.8,0.5-3.9-1.4-6c-0.6,2.6-0.9,4.8-1.6,7
		c-0.3,0.9-1.3,2.5-1.8,2.4c-1.4-0.2-3.1,0.5-4.1-1.6c-1.4-2.9-3.1-5.6-5.1-8.2c-2-2.6-4.5-4.9-7.4-6.7c0.5,0.7,0.9,1.4,1.5,2.1
		c4.2,5.2,6.6,11.4,8.7,17.6c0.1,0.4-0.3,1-0.5,1.5c-0.4-0.2-1-0.3-1.2-0.6c-0.5-1.1-0.8-2.2-1.5-4c-0.1,2.9-0.2,5.1-0.4,8.5
		c-1-1.7-1.7-2.3-1.6-2.9c0-2.2,0.1-4.5,0.5-6.7c0.4-1.9,0.3-3.5-1.3-5.3c-0.1,2.3,0,4.3-0.4,6.3c-0.4,1.9-1.1,3.7-0.1,5.6
		c0.1,0.2-0.3,1-0.6,1.1c-0.4,0.1-1-0.2-1.2-0.5c-1-1.7-2.1-3.3-2.6-5.2c-0.8-2.8-2.5-4.9-4.5-6.7c-2.7-2.3-5.5-4.5-8.7-6.3
		c0.5,0.6,0.9,1.3,1.4,1.9c2.8,3.1,5.6,6.2,8.4,9.3c2.9,3.2,4.1,7.2,5.2,11.2c0.1,0.2-0.2,0.6-0.5,1.2c-1.5-3-2.9-5.8-4.3-8.5
		c-0.1-0.1-0.1-0.3-0.2-0.4c-0.1-0.1-0.2,0-0.3-0.1c0.2,0.1,0.3,0.3,0.5,0.4c0,2.4,0.1,4.8,0,7.2c0,0.7-0.7,1.5-1.1,2.2
		c-0.3-0.7-0.7-1.3-0.8-2c-0.1-1.2,0-2.5-0.9-3.8c0,1.8,0.1,3.5,0,5.3c0,0.5-0.6,1-0.9,1.5c-0.4-0.4-1-0.8-1-1.3
		c-0.1-1.4,0-2.9-0.1-4.3c0-0.5-0.1-1-0.4-1.3c-0.3-0.3-0.8-0.5-1.2-0.4c-0.2,0-0.7,0.7-0.6,0.9c0.2,0.8,0.7,1.4,1,2.2
		c0.5,1.5-0.7,1.5-1.6,1.6c0-1.4-0.4-2.4-1.9-2.7c-0.1,0-0.2,0.1-0.4,0.2c0.6,0.8,1.2,1.6,1.9,2.3c0.1,0.1,0.3,0.1,0.4,0.2
		c0.3,0.7,0.9,1.5,0.8,2.2c0,0.6-0.7,1.5-1.3,1.6c-0.8,0.2-1.5-0.3-1.3-1.4c0.4-2.9-2.2-3.6-3.8-4.9c-0.3-0.3-1.5,0.3-2.2,0.6
		c-2.2,1-4.3,2.2-6.5,3.2c-1.7,0.8-2.3,0.4-2.3-1.6c0-1.5,0-2.9,0.1-4.4c0.2-1.9-0.6-2.9-2.3-3.8c-3.3-1.7-6.5-3.5-9.7-5.3
		c-0.9-0.5-1.6-1.4-3.1-2.8c2,0.2,3.1,0.2,4.1,0.5c2.7,0.9,5.4,2.1,8.1,3c0.9,0.3,2.2,0.1,3.1-0.4c3.5-1.9,6.9-4,10.4-6.1
		c1.8-1.1,1.8-2.2,0.3-3.8c-0.8-0.8-1.7-1.6-2.4-2.4c-0.5-0.6-0.8-1.3-1.2-1.9c0.9,0,1.8-0.1,3.1-0.1c-1.7-3.7-3.4-7.5-5.1-11.3
		c-0.1,0-0.3,0-0.4,0.1c0.4,2,0.9,3.9,1.3,5.9c0.1,0.6-0.2,1.3-0.3,2c-0.4-0.4-1-0.8-1.1-1.3c-0.7-2.9-1.4-5.9-2-8.9
		c-0.3-1.3-0.8-1.9-2.4-1.5c-2.5,0.7-2.6,1-1,3.1c0.8,1,3.1,2.3,1.9,3.3c-1.7,1.4-2.4-1.1-3.4-2.2c-3.1-3.5-5.9-7.3-10.6-8.7
		c-0.3-0.3-0.7-0.6-1-1c-0.3-0.3-0.6-0.5-0.9-0.8c-0.1,0.2-0.2,0.3-0.3,0.5c0.4,0.1,0.8,0.2,1.3,0.3c0.3,0.3,0.6,0.7,1,1
		c3,3.8,6.2,7.4,8.8,11.4c1.5,2.3,2,5.3,2.8,8.1c0.2,0.6-0.5,1.4-0.8,2.1c-0.8-0.3-2-0.5-2.3-1.1c-1-1.9-2.5-2.3-4.4-2.1
		c-7.2,0.7-14-1.1-20.9-2.9c-3.7-1-3.7-1-3.3-5.6c2.4,2.7,5.2,0.8,7.6,0.4c2.9-0.6,5.6-2.3,8.4-3.5c1.3-0.6,1.1-1.6,0.2-2.2
		c-1.9-1.5-4-2.7-6-4.1c-1-0.7-2-1.4-2.7-2.5c3.7,0.7,6.3,3.2,9.3,5.2c0.7,0.5,1.1,1.2,1.8,1.6c0.4,0.3,1.1,0.2,1.6,0.2
		c-0.1-0.5,0.1-1.3-0.2-1.6c-2.2-1.8-4.5-3.6-6.8-5.3c-0.8-0.6-1.7-0.9-2.5-1.5c-0.3-0.2-0.5-1-0.3-1.3c0.3-0.5,1-1.1,1.4-1
		c1.9,0.4,3.8,0.9,5.5,1.7c2.5,1.2,5.3,2.2,7,4.1c2.6,2.9,5.1,2.4,8.6,1c-2.5-1.8-4.7-3.3-6.8-4.9c-0.5-0.4-1.2-1.3-1.1-1.8
		c0.1-0.5,1.2-1.2,1.7-1.2c2.5,0.2,2.9-1.1,2.9-3.2c0.1-3.5-0.7-6.7-1.6-9.9c-0.1-0.3,0.2-1,0.5-1.2c0.3-0.1,0.9,0.2,1.3,0.3
		c0.1,0,0.2,0.2,0.3,0.3c2.1,1.9,1.7,5.6,5.5,6.5c2.7,0.6,5.1,2.5,7.7,3.7c0.4,0.2,1.5-0.3,1.7-0.8c0.5-1.2,0.6-2.5,1.1-3.7
		c0.3-0.6,1-1.6,1.4-1.6c0.8,0.2,2,0.8,2.2,1.4c0.3,1,0.2,2.3-0.2,3.2c-0.8,2,0,3.8,0.6,5.6c0.5,1.4,2.7,1.6,3.5,0.4
		c0.5-0.8,0.8-1.7,1.1-2.7c0.3-1.1,0.1-2.5,0.7-3.2c2.5-3.1,0.5-5.4-1.1-7.8c-1-1.5-2.2-2.8-3.2-4.3c-0.4-0.6-0.5-1.4-0.7-2.1
		c0.8,0.2,1.7,0.3,2.4,0.8c1.7,1.2,3.4,2.5,4.8,4c1.2,1.1,2,1.3,3.2,0.1c0.9-0.9,2.1-1.5,3.2-2.1c0.5-0.3,1.3-0.3,1.8-0.1
		c0.3,0.2,0.3,1.1,0.2,1.6c-0.2,0.8-0.7,1.5-1,2.2c-2.9,6-2.9,6.3-0.3,12.2c0.3,0.7,0.8,1.4,1.4,1.8c0.4,0.3,1.2,0.1,1.8-0.2
		c0.2-0.1,0.3-0.9,0.2-1.2c-0.4-1.1-1-2.2-0.9-3.9c3.5,2.6,7.1,5.2,10.7,7.8c0.2-0.8,0.2-1.8,0.5-2.7c0.6-1.7-0.5-1.6-1.5-1.3
		c-1.9,0.6-2.4-0.5-1.3-1.5c1.8-1.5,1.2-2.8,0.2-4.1c-1.6-2-3.4-3.8-5.4-6.1c3.3-0.4,5.2,1.5,7.3,2.8c1.2,0.8,1.9,0.9,2.6-0.5
		c0.6-1.1,1.4-2.1,2-3.3c1.7-3.2,1.6-5.2-0.8-7.8c-1.3-1.5-2.7-2.8-2.6-4.9c0-0.1-0.1-0.4-0.2-0.4C75,40.4,75,35,73.3,30.2
		c-1.8-4.9-1.7-9.8-1.8-14.8c0-2,0.6-3.3,2.6-4.2c4.8-2.2,9.6-4.1,15-4.8c4-0.6,8.2-0.4,12.3-2.1c3-1.3,6.9-0.7,10.3-0.8
		c0.8,0,1.6,0.3,2.4,0.2c8.6-1.2,17.1-2.5,25.7-3.5c3.5-0.4,7,0.1,10.6,0.4c3,0.2,6.1,0.5,9.1,1.1c4.8,1.1,9.6,2.5,14.4,3.8
		c3.7,1,7.4,2.1,11.1,3.2c0.8,0.2,1.6,0.3,2.2,0.8c2.4,1.8,5.2,2.5,8,3.1c2.9,0.7,3,0.9,2.7,4.1c-0.1,1.6-0.1,3.2,0,4.8
		c0.3,3.8,0.6,7.7,0.9,11.5c0.3,3.7,0.7,7.3,1.1,11c0.1,0.6,0.3,1.2,0.6,1.8c1.9,3.3,3.8,6.6,5.9,10.2c2-0.7,3.2-2.7,4.9-4
		c0.3-0.3,1.1,0,1.6,0c-0.1,0.4-0.1,0.9-0.3,1.3c-0.1,0.3-0.4,0.5-0.6,0.7c-1.1,1.5-2.4,2.9-3.2,4.6c-0.4,0.8,4,5,6.2,6.2
		c0.4-3.2,0.7-6.1,1.1-9.1c0.1-1,0.5-2.9,0.9-2.9c1.9-0.1,1.4,1.8,1.7,2.8c1,3.1,1.7,6.2,2.3,9.3c0.4,2,1.6,3.1,3.1,4.2
		c0.5,0.4,1.5,0.4,2.2,0.2c0.3-0.1,0.5-1.2,0.4-1.7c-1.3-5.1-2.8-10.2-4.1-15.3c-0.2-0.7-0.1-1.7,0.3-2.1c1.1-1,1.9,0.1,2.2,0.8
		c1.2,2.3,2.2,4.7,3.3,7c1.2,2.4,1.7,2.4,3.2,0.4c1.4-1.7,2.9-3.4,4.5-5c0.4-0.4,1.5-0.9,1.6-0.7c0.5,0.5,0.9,1.3,1,2
		c0.2,3.4-0.5,6.7-1.8,9.9c-1,2.5-1.9,5-2.6,7.7c2.5-3.7,5.8-6.4,9.7-8.2c0.7-0.3,1.4-0.8,2.2-1c1.6-0.4,2.5,0.7,2.1,2.2
		c-0.1,0.5-0.5,0.9-0.6,1.3c-0.4,1.2-2,2.5,0.3,3.5c3,1.3,5.2,0.9,6.2-1.4c0.5-1.2,0.9-2.4,1.5-3.5c0.3-0.5,1-0.9,1.5-0.9
		c0.3,0,0.9,0.9,0.9,1.4c0.1,1.8,0.2,3.6,0,5.3c-0.2,1.6-0.9,3.1,1.3,4c0.2,0.1,0.2,1.4-0.2,2c-0.4,0.6-1.3,0.9-1.8,1.5
		c-0.2,0.3-0.2,1,0.1,1.3c0.2,0.3,0.9,0.5,1.2,0.4c0.9-0.3,1.7-0.9,2.6-1.2c1.5-0.5,3-1,4.6-1.4c0.5-0.1,1.2,0.3,1.6,0.7
		c0.2,0.2,0,1-0.3,1.3c-0.9,0.9-1.8,1.9-2.8,2.6c-2.9,2-5.9,4-8.8,5.9c-0.8,0.6-2.5,0.8-1.4,2.3c0.9,1.2,2.1,2.2,3.7,1.3
		c1.1-0.6,2.1-1.5,3.2-2.1c2.5-1.3,5.1-2.6,7.7-3.8c0.4-0.2,1.4-0.1,1.6,0.2c0.3,0.4,0.2,1.3,0,1.7c-0.3,0.7-0.9,1.3-1.5,1.9
		c-0.6,0.6-1.4,0.9-1.9,1.5c-1.7,2.1-3.9,4.2-4.5,6.6c-0.4,1.5,1.5,3.7,2.4,5.6c0.4,0.9,1.2,1.6,1.5,2.5c0.1,0.5-0.5,1.6-0.8,1.6
		c-1.6,0.2-3.3,0.5-4.8,0.1c-3.2-0.8-6.7-1.4-9.5-3.1c-4.9-2.9-10.2-3.8-15.6-4.5c-0.8-0.1-1.6-0.2-2.4-0.4
		c-2.8-0.5-3.5,0.1-4.1,2.9c-0.1,0.6-0.7,1.1-1,1.6c-0.2-0.7-0.7-1.4-0.6-2.1c0.8-4.8,0.7-9.5-0.3-14.3c-0.7-3.4-2.7-5.8-4.5-8.4
		c-2.5-3.6-5.4-6.9-8.4-10.1c-0.3,0.2-0.5,0.4-0.8,0.7c1.5,1.9,3.1,3.9,4.6,5.8c4,5.1,7.2,10.6,8.2,17.2c0.1,0.8-0.1,1.7-0.2,2.6
		c-0.7-0.6-1.3-1.1-2.4-2c-0.3,2.6-0.6,5.1-0.9,7.5c-0.1,0.6-0.3,1.3-0.5,1.9c-0.1,0.2-0.5,0.4-0.7,0.4c-0.3-0.1-0.7-0.3-0.7-0.5
		c0-2.2-0.3-4.4,0.1-6.6c0.4-2.5,1.4-4.9,2.1-7.4c0.1-0.3-0.4-0.8-0.7-1c-0.1-0.1-0.6,0.2-0.8,0.4c-0.4,0.5-0.7,1.1-0.9,1.7
		c-0.8,3.6-1.5,7.1-2.4,10.7c-0.1,0.4-0.8,0.8-1.2,1.1c-0.2-0.4-0.6-0.8-0.6-1.2c0.1-1.1,0.5-2.2,0.4-3.3c-0.2-1.5-0.2-3.4-1.1-4.4
		c-2.9-3.1-6.2-5.8-9.9-8.3c0.9,1.4,1.6,3.1,2.7,4.2c2.9,3,3.8,7,5.5,10.7c0.2,0.4-0.3,1-0.5,1.6c-0.6-0.3-1.8-0.7-1.8-1
		c0.1-3-2-2.7-4-2.8c-2.4-0.2-4.8-0.8-7.2-0.9c-2.4-0.1-2.5,0.3-2.2,2.9c0.3,2.2,0.3,4.5,0.4,6.7c0,0.2-0.7,0.8-1,0.7
		c-0.3-0.1-0.8-0.7-0.8-1c1-7-1.7-13.5-2.3-20.2c-0.1-1.6-1.5-3-3-4.3c0.8,3,1.5,6,2.5,8.9c1.5,4.4,0.7,8.9,0.8,13.4
		c0,0.3-0.4,0.7-0.7,1c-0.3-0.3-0.9-0.6-1-1c-0.2-1.3-0.2-2.6-0.2-3.8c0-1.9,0-3.8,0-6.7c-1.8,5.8-3.3,10.5-4.8,15.2
		c-0.2,0.7-0.6,1.5-1.1,2.1c-0.2,0.3-0.8,0.3-1.3,0.2c-0.2,0-0.4-0.5-0.4-0.8c0.3-1.1,0.6-2.2,1-3.2c1.9-5.7,3.8-11.4,5.7-17.2
		c-0.3-0.1-0.6-0.2-0.9-0.4c-1.6,3-3.3,5.9-4.8,8.9c-1.4,2.7-2.6,5.5-3.7,8.3c-0.4,1.2-0.3,2.5-0.5,3.8c-0.1,1.2-0.2,1.2-2.4,2.7
		c0.4-3.3,0.2-6.4-0.3-9.6c-0.5-3.9,0.1-8,0.3-12c0-0.8,0.4-1.7,0.2-2.4c-0.2-0.6-0.9-1.1-1.4-1.7c-0.4,0.5-1,0.9-1.1,1.5
		c-0.2,0.8-0.1,1.6-0.1,2.4c0,1.9-0.1,3.9-0.1,5.8c0.1,4.1,0.4,8.3-2.2,12.4c-1.4-2.6-0.3-5.2-0.8-7.6c-0.5-2.5-1.3-4.9-2.2-8.1
		c-1,3.5-1.5,6.4-2.6,9.1c-1.1,2.6,0,5.8-2.3,8.5c-1.2-3.9,0.2-6.8,1-9.9c0.6-2.5,1.6-4.9,2.1-7.4c0.4-2.3,0.9-4.9-2-6.5
		c-2.3,4.6-3.3,9.6-4.3,14.5c-0.6,3-0.8,6-1.2,9c0,0.2-0.4,0.4-0.5,0.6c-0.3-0.3-0.8-0.6-0.9-0.9c-0.2-1.1-0.3-2.2-0.4-3.3
		C160.3,101.9,157.6,98.2,154.1,95c0-1.4-0.6-2.3-2-2.7c-0.1,0-0.2,0.1-0.4,0.2c0.6,0.8,1.3,1.5,1.9,2.3C153.8,95,153.9,95,154.1,95
		z M160.9,84.4c-0.1-0.1-0.1-0.3-0.2-0.4c-0.1-0.1-0.2-0.1-0.3-0.1C160.5,84,160.7,84.2,160.9,84.4c0.3,0.3,0.7,0.6,1,1
		c0.7,1.8,1.4,3.6,2.3,5.8c1.5-3.4,1.5-3.5-0.6-4.9c-0.5-0.3-1.1-0.6-1.7-0.9C161.5,85,161.2,84.7,160.9,84.4z M114.3,110.6
		c0.1,0.1,0.1,0.3,0.2,0.4c0.1,0.1,0.2,0.1,0.3,0.1C114.6,110.9,114.5,110.7,114.3,110.6c-0.3-0.3-0.7-0.6-1-0.9
		c-0.3-0.3-0.6-0.5-0.9-0.8c-0.1,0.2-0.2,0.3-0.3,0.5c0.4,0.1,0.8,0.2,1.2,0.3C113.7,109.9,114,110.2,114.3,110.6z M109.5,109.6
		c0.3,0.3,0.6,0.6,1,1c2.1,3.7,4.1,7.4,6.4,11.5c0.5-7.9,1.5-5.9-4.7-10.6c-0.5-0.4-1.1-0.6-1.7-0.9
		C110.1,110.3,109.8,109.9,109.5,109.6c-0.1-0.1-0.1-0.2-0.2-0.4c-0.1-0.1-0.2-0.1-0.3-0.1C109.2,109.3,109.3,109.4,109.5,109.6z
		 M265.6,89.2c0.3,0,0.7,0,0.9-0.2c0.3-0.2,0.4-0.7,0.7-1c-0.4,0.1-0.8,0.2-1.1,0.4C265.9,88.6,265.8,89,265.6,89.2
		c-0.3,0.3-0.6,0.7-0.9,1c-1.6,0.8-3.4,1.6-4.9,2.6c-0.3,0.2,0.1,1.6,0.2,2.4c0.5-0.2,1.2-0.1,1.5-0.5c1.1-1.5,2.1-3,3.1-4.6
		C265,89.9,265.3,89.5,265.6,89.2z M85.2,9.7c0.4,0,0.9,0.1,1.3,0c0.3-0.1,0.6-0.4,0.9-0.6c-0.3-0.1-0.6-0.3-0.8-0.3
		C86.1,9,85.7,9.4,85.2,9.7c-0.4,0-0.9,0-1.3,0.1c-0.3,0.1-0.6,0.4-0.9,0.6c0.3,0.1,0.6,0.3,0.8,0.3C84.3,10.3,84.7,10,85.2,9.7z
		 M214.2,83.4c0.3,0.3,0.6,0.7,1,1c0.6,1,1.1,2.1,1.8,3.1c0.2,0.3,1,0.2,1.6,0.3c-0.1-0.5,0-1.3-0.3-1.6c-0.9-0.7-2-1.2-3.1-1.8
		C214.9,84.1,214.5,83.7,214.2,83.4c-0.3-0.4-0.4-0.9-0.8-1.1c-0.4-0.3-1-0.3-1.5-0.4c0.3,0.4,0.6,0.9,1,1.2
		C213.3,83.3,213.8,83.3,214.2,83.4z M58.1,102.8c-0.9,0.5-2,0.9-1.5,2.3c0,0.1,0.2,0.2,0.4,0.3C57.3,104.5,57.7,103.7,58.1,102.8
		c0.1-0.1,0.2-0.1,0.4-0.2c0.1-0.1,0.1-0.2,0.1-0.3C58.4,102.5,58.2,102.7,58.1,102.8z M136.6,103.8c-1.9,2.5-1.9,2.5,0,4.8
		c1.3,3.3,3,6.4,5.5,9.2c0.4-2.6,0.5-5.1,0.3-7.6c-0.2-3.2-0.6-6.3-1-9.4c2.2,1.9,2.2,4.7,3.1,7.3c0.7,1.9,0.2,4.4,2.9,6.5
		c-0.4-3.1-1-5.4-1-7.7c-0.1-4.7-2-8.3-5.9-10.8c-0.1-0.1-0.1-0.3-0.2-0.4c-0.1-0.1-0.2-0.1-0.3-0.1c0.2,0.2,0.3,0.3,0.5,0.5
		c0.3,1.6,0.6,3.3,1,4.9c-1.9-0.1-2.3,1.5-2.7,2.8c-0.3,1-0.2,2.2-0.3,3.3c-0.1,1.2-0.9,1.6-1.9,1.6
		C136.6,107,136.6,105.4,136.6,103.8c0.1-0.1,0.3-0.1,0.4-0.2c0.1-0.1,0.1-0.2,0.1-0.3C136.9,103.5,136.8,103.6,136.6,103.8z
		 M61.9,66.9c-0.3-1-0.6-1.9-1-2.9c-0.2-3.4-2.1-5.9-4.8-7.8C56,56.1,56,56,55.9,55.9c-0.1-0.1-0.2-0.1-0.3-0.1
		c0.2,0.1,0.3,0.3,0.5,0.4c1.2,2.9,2.4,5.7,4.8,7.8C61.3,65,61.6,65.9,61.9,66.9c0.1,0.9,0,1.9,0.1,2.8c0.1,0.6,0.4,1.1,0.7,1.6
		c0,0.1,0.3,0,0.4,0c0-0.7,0.2-1.4,0-2.1C62.9,68.5,62.3,67.7,61.9,66.9z M103.6,19.4c-0.3-0.3-0.6-0.7-1-0.8
		c-0.4-0.1-0.8,0.1-1.2,0.2c0.3,0.2,0.6,0.4,0.9,0.5C102.7,19.4,103.2,19.3,103.6,19.4c1.9,1.8,4.1,0.7,6.2,0
		C107.7,19.4,105.7,19.4,103.6,19.4z M230.7,80.5c-1.6,0-3.2-0.2-3.6,2c0,0.1,0.1,0.3,0.2,0.4c1.8,0.6,2.3-1.1,3.2-1.9
		C230.6,80.8,230.6,80.6,230.7,80.5c0.1-0.1,0.2-0.1,0.3-0.2c0.1,0,0.1-0.2,0.1-0.3C231,80.2,230.9,80.4,230.7,80.5z M252,81.4
		c2.7-0.5,2.7-0.5,2.2-4.2C253.3,79.1,252.7,80.3,252,81.4c-0.1,0.1-0.2,0.1-0.3,0.2c-0.1,0.1-0.1,0.2-0.1,0.3
		C251.8,81.8,251.9,81.6,252,81.4z M40.6,116.4c-0.3-0.3-0.6-0.5-1-0.8c-0.1,0.2-0.2,0.3-0.3,0.5C39.8,116.2,40.2,116.3,40.6,116.4
		c0.9,2,3,2.2,4.5,3.2C44.5,117.2,42.9,116.2,40.6,116.4z M125,91.1c0,0.1,0.1,0.3,0.2,0.4c0.1,0.1,0.2,0.1,0.3,0.1
		C125.3,91.5,125.1,91.3,125,91.1c-0.7-1.1-1.3-2.2-2-3.2c-0.2-0.3-0.8-0.2-1.3-0.3c-0.1,0.4-0.3,1-0.1,1.2
		C122.3,90.2,123.3,91.2,125,91.1z M181.3,73.7c-1.8,1.5-2.9,3.3-2,5.8c-1.4-1.1-2.9-2.3-4.9-3.8c1.2,4.4,4.6,6.7,6.1,10.2
		c1.5,3.5,2.9,6.9,4.3,10.3c2.3-2.1,0.7-4.6,0.3-7c0.4,0.2,0.8,0.5,1.2,0.7c0.4,0.2,0.8,0.5,1.2,0.7c0.2-0.4,0.6-0.8,0.5-1.1
		c-0.4-2.3-0.7-4.8-3.8-5.1c0.1-1.2,0.3-2.5,1.9-1.5c1.2,0.8,2.1,2,3.2,2.9c0.2,0.2,0.8,0.3,0.9,0.2c0.3-0.3,0.6-0.8,0.5-1.2
		c-0.9-2.9-1.9-5.8-2.8-8.7c-0.7-2.1-0.6-2.1,2.2-2.5c0.3,0.3,0.7,0.6,1,1c0.5,0.2,1.2,0.8,1.4,0.7c2.7-1.7,2.7-2.7,0-5.8
		c-1.1,1.5,0.7,3.9-1.4,5.2c-0.3-0.3-0.6-0.7-1-1c0-1.4-0.2-2.9,0.1-4.3c0.3-1.5,1.1-2.8,1.7-4.2c0.8,1.1,1.7,2.2,2.4,3.4
		c1.5,2.5,1.5,2.5,3.8,0.5c0.2-0.2,0.4-0.5,0.7-0.7c0.8-0.4,1.6-0.7,2.4-1.1c-0.1,1,0.1,2.1-0.3,3c-1.1,2.6-2.4,5.2-3.8,7.7
		c-0.4,0.7-1.4,1-2.2,1.5c0.6-1.7,1.2-3.5,1.8-5.2c-1.4,0.9-2.3,1.9-3,3.1c-0.7,1.2,0.3,1.6,1.2,2.1c0.5,2.2,0.9,4.3,2.9,7
		c0-2.6-0.1-4.2,0-5.8c0.1-1.9,0.8-2.5,2.8-2.2c0.7,0.1,1.4,0.5,2.1,0.9c2.3,1.3,4.5,2.6,6.8,4c1.4,3.2,4.4,4.6,6.8,6.8
		c0.1,0.1,0.1,0.3,0.2,0.4c0.1,0.1,0.2,0.1,0.3,0.1c-0.2-0.1-0.3-0.3-0.5-0.4c-1.1-3.4-3.5-5.5-6.8-6.8c-0.5-1-1.1-1.9-1.5-3
		c-0.3-0.7-0.2-1.5-0.3-2.2c0.7,0,1.5-0.2,2.1,0.1c3.5,1.4,6.6,3.4,9.1,6.2c0.2,0.2,1,0.3,1.2,0.2c0.3-0.2,0.5-0.9,0.3-1.2
		c-0.8-1.6-1.5-3.3-2.6-4.6c-5.9-6.2-9.6-13.9-14.2-21c-4-6.2-8.5-12-13.1-17.8c-1.8-2.3-2.1-4.7-0.5-7.1c0.2-0.3,0.8-0.7,1.1-0.7
		c0.4,0,0.9,0.6,0.9,0.9c0.2,1,0.1,2.1,0.2,3.1c0.2,1,0.3,2.2,0.9,3c0.8,1.1,2,2,3.2,3.1c0.2-0.8,0.5-1.3,0.3-1.7
		c-1.2-3.8-0.7-7.7-0.9-11.5c-0.1-2.4-0.4-4.8-0.9-7.1c-0.6-3.1-0.9-3.2-3.8-2.3c-3.5,1.2-6.8,2.7-10.7,2.6c-3,0-6,0.6-9,0.9
		c-4.8,0.6-9.5,1.3-14.3,1.7c-5.4,0.5-11-0.8-16.3,0.9c-0.4,0.1-1,0.1-1.4,0c-4.3-0.6-8.6-1.2-12.8-1.8c-2.7-0.4-5.2-1.2-8-0.1
		c-1.2,0.5-2.9,0.1-4.3,0c-2.2-0.2-4.4-0.5-6.7-0.8c-1.4-0.2-2.9-0.3-4.2-0.7C93.5,20,83.8,17.4,74,14.7c-0.7,4.3-0.1,8.1,0.8,11.9
		c0.7,2.6,1,5.4,1.8,7.9c0.6,1.8,0.3,4.3,3.1,5.2c-0.2-3.5-1.5-6.7-0.6-10.1c0.8-2.8,1.9-4.1,3.9-4.1c2.4,0.1,5.4,2.2,5.4,4.4
		c0,1.3-0.1,1.8,1.3,1.5c2.3-0.5,4.7-1,7-1.5l0,0c0.2,1.8-1.2,2.4-2.3,3.4c-0.3,0.3-0.2,1.1-0.3,1.7c0.5,0,1.1,0.2,1.6,0.1
		c0.3,0,0.5-0.5,0.8-0.6c0.5-0.2,1.1-0.2,1.7-0.3c-0.2,0.7-0.3,1.4-0.5,2c-0.1,0.3-0.4,0.5-0.7,0.7c-2.7,2.6-4.3,2.3-6.5-0.9
		c-0.8-1.2-1.8-2.2-2.9-3.1c-2-1.6-3.2-1.1-3.3,1.5c-0.2,2.4,0.1,4.8-0.1,7.3c-0.1,2.2,0.9,2.9,2.9,2.6c1.1-0.1,2.1-0.1,4.3-0.2
		c-2.1-1.2-3.4-1.9-4.5-2.7c-0.9-0.6-0.9-1.2,0.1-1.8c0.5-0.3,1.3-0.7,1.2-0.9c-0.4-2.2,0.3-1.9,1.5-0.8c1.4,1.2,2.3,2.6,2.2,4.6
		c-0.2,1.8,0,3.7,0,5.8c-1-0.3-2-0.8-3.1-0.8c-0.8,0-1.7,0.4-2.6,0.7c0.3,0.8,0.4,1.9,1,2.5c1.6,1.6,3.4,3,5,4.5
		c0.3,0.2,0.3,1,0.1,1.3c-0.1,0.3-0.8,0.4-1.2,0.3c-1.2-0.4-2.2-2.6-3.6-1c-0.5,0.6,0.3,2.3,0.6,3.6c0.3,1.3,0.7,2.5,0.8,3.7
		c0.1,1.2,0.7,1.8,1.9,1.7c0.6,0,1.5-0.2,1.7-0.6c0.5-1,0.2-1.4-1.1-1.9c-1.2-0.5-0.8-2.8,0.5-3.5c0.3-0.2,1,0.4,1.5,0.6
		c0.1-0.8,0.2-1.6,0.5-2.3c0.2-0.5,0.8-1,1.2-1.4c0.5,0.5,1.1,1,1.6,1.5c0.4,0.5,0.6,1.2,1.4,2.8c0.1-1.6,0.3-2.2,0.1-2.5
		c-1-2.1-0.3-3.4,1.6-4.3c3.5-1.6,6.3-3.9,7.7-7.6c0.1-0.3,1-0.4,1.5-0.5c0.1,0.4,0.5,1,0.3,1.3c-1.2,1.9-2.4,3.7-3.8,5.5
		c-1.1,1.4-3.4,2.7-3.3,3.9c0.1,3.6-2.4,4.5-4.6,5.9c-0.7,0.5-1.4,1.4-1.6,2.2c-1.1,4.8-3.3,8.7-7.3,11.8c-2.3,1.9-4.4,4.1-7,5.5
		c-2.3,1.2-4.5,2.5-6.7,3.7c0.1,3.1,3.4,4,4.4,6.5c0.1,0.1,0.5,0.1,1,0.1c1.2-1.8,2.6-3.6,3.8-5.4c1.3-1.9,1.5-4.5,4.6-5.9
		c-1.2,4.1-1.8,7.8-3.3,11c-1.6,3.3-1.5,5.7,1.3,8.1c0.9,0.8,1,2.5,2.8,2.1c1.2-0.3,2.4-0.8,3.6-1.4c0.3-0.2,0.6-0.8,0.6-1.2
		c0-1.1-0.8-2.6-0.3-3.1c1.3-1.4,2,0.8,3.2,1c0.5,0.1,1,0.2,1.4,0.2c0.4,0,1-0.2,1.3-0.5c0.2-0.3,0.1-1-0.1-1.3
		c-0.8-1-1.8-1.9-2.6-2.9c-0.1-0.2-0.2-0.6,0-0.8c0.2-0.2,0.6-0.4,0.8-0.3c0.6,0.2,1.3,0.3,1.7,0.8c2.3,2.6,5,1.6,7.6,0.9
		c1.6-0.4,1.9-1.3,0.7-2.3c-2.3-2-4.8-3.7-7.2-5.6c-1.2-1-3.1-2.1-2-3.8c1.1-1.6,2.8-0.4,4.3,0.4c3.6,2,7.4,3.5,11.6,4.2
		c-0.7-1.5-1.4-2.9-2.6-3.8c-2.3-1.7-4.8-3.1-7.2-4.6c-0.4-0.3-0.7-0.9-1-1.4c0.5-0.3,1-0.9,1.5-0.9c0.9,0,1.9,0.5,2.8,0.5
		c3.8,0.3,4,0,3.3-4c-0.1-0.5-0.2-0.9-0.2-1.4c0-0.3,0.2-0.7,0.4-0.8c0.4-0.1,1.1-0.2,1.3,0c1.2,1.7,2.6,3.3,3.5,5.2
		c1.5,3.1,3.9,4.6,7.6,5.6c-0.9-1.9-1.5-3.2-2.2-4.4c2.5,0.3,2.9,2.7,4.1,4.3c1.6,2.3,3.2,4.7,5.3,7.6c0.4-3,2-5.3-1.3-6.7
		c-1.1-3.7-5-4.8-7.1-7.6c-0.5-0.6-1.4-0.9-2.5-1.6c0.7,1.8,1.2,2.9,1.6,4c-1.7-1.7-3.4-3.3-4.9-5c-0.3-0.3-0.1-1.1,0-1.6
		c0.1-0.2,1-0.2,1.3,0c3.5,2.2,6.9,4.4,10.4,6.6c0.1,0.1,0.1,0.3,0.2,0.4c0.1,0.1,0.2,0.1,0.3,0.1c-0.2-0.1-0.3-0.3-0.5-0.4
		c0-1.6,0-3.3,0-4.9c1.2,3,2.3,6,3.5,9.1c0.3-4.1-1.2-10.1-3.3-12.7c-0.1,1.4-0.1,2.5-0.2,3.6c-1.9-1.3-0.8-3.2-1-4.9
		c-0.1-0.5,0.4-1.4,0.8-1.5c0.4-0.1,1.3,0.3,1.6,0.7c0.8,1.5,1.5,3.1,2,4.8c0.7,2.6,1.2,5.3,1.8,8c1.3-2.5,1.8-4.9,2.5-7.4
		c0.6-2.2,1.3-4.4,4.1-4.8c0.6-0.1,1.2-0.6,1.6-1c2.4-2.6,5.3-3.1,8.3-1.6c1.9,1,3.5,2.6,5.1,4.1c0.4,0.4,0.3,1.4,0.5,2.6
		c-2.4-1.6-4.2-2.9-6.2-4c-2.5-1.4-3.5-1.2-5.6,0.7c-3,2.6-5.8,5.4-6.1,9.8c-0.1,1.1-0.5,2.2-1.1,3.2c-3.1,5.8-3.6,12.7-7.6,18.1
		c-0.3,0.4-0.4,1.4-0.1,1.7c1.3,1.6,2.7,3.1,4.2,4.6c0.2,0.2,1.1,0.2,1.2,0c1.5-2.2,3.4-4.4,4.3-6.9c0.4-1.1-0.8-2.9-1.2-4.4
		c-0.1-0.4,0.1-0.8,0.3-1.7c2.2,1.9,4.2,3.5,6,5.2c2.9,2.8,2.7,2.6,5.7,0.1c1.6-1.3,1-2,0-3c-1.2-1.3-2.5-2.5-3.7-3.8
		c-0.7-0.8-1.4-1.7-1.9-2.7c-0.2-0.4,0-1.1,0.2-1.7c0-0.1,0.9-0.1,1.2,0.1c1.8,1,3.6,2.2,5.4,3.3c1.4,0.8,2.7,1.6,4.1,2.4
		c0.7-1.2,1.3-2.5,2.1-3.6c0.2-0.3,1-0.4,1.5-0.3c0.2,0.1,0.2,0.9,0.3,1.3c-2.1,0.7-2,2.8-2.3,4.4c-0.1,0.5,1.1,1.3,2.3,2.7
		c0-3,0-5.1,0-7.1c1.8-1.6,0.9-3-0.2-4.6c-0.6-0.8-0.9-1.8-1.3-2.7c1,0.2,2.1,0.2,3.1,0.6c0.9,0.3,1.6,1,2.4,1.5
		c1.4,1,2.8,1.9,4.4,3c0.7-2.1-0.6-2.9-1.5-4c-1.1-1.3-2.2-2.7-3.2-4.1c-0.2-0.2,0-0.8,0.2-1.2c0.1-0.1,0.7-0.2,0.9,0
		c1.7,0.9,3.4,1.9,5,2.8c0.9,0.5,1.6,0.6,2.6-0.1c2.5-1.8,2.7-2.2,1.4-5.1c-0.4-0.9-0.8-1.9-1.6-3.7c2.3,1.6,3.6,2.6,5,3.6
		c2,1.3,2.4,1.2,3.7-0.7c0.4-0.7,0.7-1.4,1.2-2.1c1.1-1.8,1.9-3.9,4.2-4.7c-0.1,2.2-0.2,4.3-0.3,6.5c0,0.3-0.3,0.6-0.4,0.9
		c-0.5,3.2-0.9,6.3-1.4,9.5c-1-1.3-1.9-2.6-2.9-3.9C182.1,78.3,181,75.8,181.3,73.7c0.1-0.1,0.2-0.1,0.3-0.2c0.1,0,0.1-0.2,0.1-0.3
		C181.6,73.4,181.4,73.6,181.3,73.7z M168.6,82.4c-0.1-0.3-0.2-0.6-0.4-0.8c-0.5-0.4-1-0.6-1.5-0.9c0,0-0.4,0.5-0.3,0.5
		c0.4,0.4,0.9,0.8,1.4,1.1C168,82.5,168.3,82.4,168.6,82.4c0.6,2.2,0.9,4.6,3.9,4.8c-0.7,3.2,1,5.6,2.6,8.3c1-3.5-0.2-6.1-2.6-8.2
		C172.3,84.8,170.5,83.6,168.6,82.4z M73.6,72.8c0-0.1-0.1-0.3-0.2-0.4c-0.1-0.1-0.2-0.1-0.3-0.1C73.3,72.4,73.4,72.6,73.6,72.8
		c0.6,1.1,1.1,2.2,1.7,3.3c0.5,1,1.1,1.9,2.1,3.4C77.7,75.6,75.9,74.1,73.6,72.8z M87.1,68.9c-0.1-0.1-0.1-0.3-0.2-0.4
		c-0.1-0.1-0.2-0.1-0.3-0.1C86.9,68.5,87,68.7,87.1,68.9c0.4,1.2,0,3.5,2.4,1.8c0.8-0.5,1.4-1.5,2-2.3c-1.1-0.1-2.1-0.2-3.2-0.2
		C88,68.3,87.6,68.7,87.1,68.9z M94.9,16.5c0.9,2,2.5,2,5.3,1.6C97.8,17.3,96.4,16.9,94.9,16.5c-0.9-0.9-1.6-2-2.7-2.6
		c-0.7-0.4-1.8,0.1-2.7,0.2c0.5,0.6,0.9,1.6,1.6,1.9C92.3,16.3,93.7,16.3,94.9,16.5z M105.6,100.9c-0.8-0.3-1.7-0.7-2.5-1
		c-0.8-0.3-1.7-0.5-2.5-0.7c0.3,0.8,0.7,1.5,1,2.3c0.2,0.4,0.3,1.1,0.7,1.2c0.6,0.2,1.4,0.3,1.9,0
		C104.8,102.3,105.1,101.5,105.6,100.9c1.1-0.5,2.4-1,0.9-2.3c-1-0.8-2.2-1.3-4.4-2.5C103.7,98.3,104.7,99.6,105.6,100.9z
		 M114.3,18.4c-0.9-1.1-1.9-1.3-3.8,0C112.2,18.4,113.3,18.4,114.3,18.4c6.4,2.6,13,2.5,19.8,2C127.5,19.8,120.9,19.1,114.3,18.4z
		 M101.7,108.6c0.5-4-1.4-6.8-4.7-8.9c1.1,3,2.7,5.9,4.3,8.7C101.3,108.5,101.6,108.5,101.7,108.6c1.7,2.1,3,4.6,5.6,6.6
		c-0.1-0.9-0.1-1.2-0.2-1.5c-1.4-2.6-3-5.2,0.9-7.3c0.2-0.1,0.2-1,0-1.2c-0.2-0.2-0.9-0.2-1.2,0C105,106.3,103.3,107.5,101.7,108.6z
		 M121.1,97c0.1,0.4,0.2,0.9,0.3,1.3c0.2-0.1,0.3-0.2,0.5-0.3C121.6,97.6,121.3,97.3,121.1,97c0.5-4.2-1.4-7.7-2.9-11.4
		c-0.2-0.4-0.7-0.6-1-0.8c-0.3,0.5-0.9,1.1-0.8,1.5C117.6,89.9,118.4,93.9,121.1,97z M78.4,64c-0.1-0.1-0.1-0.3-0.2-0.4
		c-0.1-0.1-0.2-0.1-0.3-0.1C78.1,63.7,78.3,63.8,78.4,64c2.1,3.3,4.1,6.7,6.1,10c0.2,0.3,1.1,0.4,1.2,0.3c0.3-0.6,0.9-1.5,0.7-1.9
		C84.5,68.9,82.4,65.5,78.4,64z M260.8,81.5c-3.5,1-7,1.9-10.4,3.1c-0.8,0.2-1.3,1.1-2,1.7c0.8,0.7,1.5,1.5,2.4,1.9
		c0.6,0.2,1.6-0.2,2.2-0.6C255.6,85.6,258.2,83.5,260.8,81.5c0.1-0.1,0.2-0.1,0.4-0.2c0.1-0.1,0.1-0.2,0.1-0.3
		C261.1,81.2,261,81.3,260.8,81.5z M104.6,85.4c0-0.1-0.1-0.3-0.1-0.4c-0.1-0.1-0.2-0.1-0.3-0.1C104.3,85,104.5,85.2,104.6,85.4
		c3.7,3.2,6.6,7.4,12,9c-0.2-2.9-0.8-5-3.1-5.9C110.6,87.3,107.6,86.4,104.6,85.4z M51.3,101.8c1,1,2.1,2.4,3.5,1.3
		c1.5-1.3,2.6-3.1,4.5-5.6c-1.7,0.8-2.3,1-2.8,1.3c-0.8,0.5-1.5,1.1-2.3,1.6C53.2,101,52.2,101.4,51.3,101.8
		c-0.5-2.8,1.4-3.9,3.4-5.2c1.8-1.2,1.7-2-0.1-3.2c-1-0.7-2.1-1.6-3.3-2c-2.8-1.1-4.9-2.9-6.7-5.2c-1.3-1.6-2.9-2.9-4.3-4.4
		c0.1,2.2,0.6,4,1.9,5.7c1.8,2.4,4.3,4.8,4,8c-0.2,2.2,0.2,3.1,2,4C49.4,100,50.3,101,51.3,101.8z M118.6,146.4
		c4.5-4,5.9-9.4,9.1-13.5c0.2-0.2,0.1-0.6,0.1-0.9c1.3-6.2,1.4-12.7,4.4-18.6c0.3-0.6,0.1-1.6-0.3-2.2c-1.5-2.3-3.1-4.4-4.8-6.6
		c-0.7-0.9-1.7-0.8-2.4,0.1c-2.5,3.2-4.6,6.6-4.4,10.8c0.3,5.9-0.9,11.4-2.4,17.1C116.8,137,117,141.4,118.6,146.4z M48.5,78.6
		c-0.3,3.7,1.2,6.5,2.3,9.2c0.4,1,2.7,1.2,4.1,1.9c0.6,0.3,1,0.8,1.6,1.1c1.4,0.6,2.8,2.2,4.4,0.8c1.9-1.7,5.3-2.2,5.2-5.6
		c0-2,1.1-2.9,2.7-2.4c2.3,0.8,3.7-0.7,5.3-1.5c1.4-0.6,1.7-1.9,1-3.2c-1.1-1.8-2.2-3.5-3.5-5.2c-0.3-0.4-1.5-0.6-2-0.3
		c-3.7,2-7.5,1.4-11.3,0.9c-0.8-0.1-1.6-0.3-2.3-0.3c-1.1,0.1-1.5,1.1-0.8,2c1.1,1.4,2.9,2.3,3.7,4.5c-4.3-0.2-5.3-4.9-9.7-5.9
		c1.2,1.8,2,2.7,2.7,3.8c0.9,1.5,1.8,3,2.8,4.5c0.8,1.1,0.6,2.1-0.2,3.1c-0.4,0.4-0.9,0.7-1.4,1c-0.2-0.4-0.6-0.8-0.7-1.2
		C51.7,83.3,51.5,80.7,48.5,78.6z M262.6,105.7c-2.4-5.1-3.5-10.3-9.5-11.2c-4.3-3.3-9.2-5.9-12.6-10.3c-1.3-1.7-3.3-3-5-4.4
		c-1.4,1.2-2.9,2.5-4.3,3.7c-0.2,0.2-0.5,0.4-0.8,0.6c-1.4,1.2-2.1,3.5-1.4,5.1c0.1,0.3,0.9,0.8,1.1,0.7c2.9-1.6,5.6,0.6,8.4,0.5
		c2.3-0.1,4.6,1,6.9,1.8c0.6,0.2,1.1,1.1,1.3,1.7c0.1,0.2-0.8,1-1.4,1.1c-2.5,0.4-5.1,0.7-7.6,1.1c-0.9,0.2-1.8,0.7-2.7,1
		c3.8,1,7.2,1.7,10.5,2.9c4.8,1.7,9.5,3.7,14.3,5.5C260.3,105.8,261.2,105.6,262.6,105.7z M52.9,111.6c-0.1-0.2-0.1-0.8-0.4-1.1
		c-1.4-1.8-2.8-3.5-4.3-5.2c-0.3-0.3-1.3-0.4-1.7-0.1c-3.4,1.8-6.8,3.7-10.1,5.7c-0.2,0.1-0.3,1.3,0,1.5c0.9,0.7,1.9,1.5,2.9,1.6
		c2.7,0.4,4.9,1.4,6.8,3.3c0.4,0.4,1.2,0.6,1.7,0.5C50.4,117.4,52.9,114.3,52.9,111.6z M175,18.6c-3.1-1.6-5.9-2.1-9.2-1.2
		c-4.3,1.1-8.8,1.6-13.2,2c-4.8,0.5-9.5,0.7-14.3,1.1c-0.4,0-0.8,0.6-1.3,1c0.4,0.2,0.8,0.5,1.2,0.6c0.8,0.1,1.6,0,2.4,0.1
		c8.7,0.9,17.2-1.4,25.7-2.3c1.7-0.2,3.5-0.4,5.2-0.6C172.7,19.1,173.8,18.8,175,18.6z M199,81.8c-0.1,1.4-0.3,2.7-0.2,3.9
		c0.1,1.5-1.1,2.2-1.6,3.3c-0.8,1.9,1.5,4.8,3.7,4.9c2.7,0.1,5.4,0.2,8.6,0.3C206.5,89.6,204.5,84.5,199,81.8z M75,107.8
		c0.7-2.8,0.9-5.2,1.8-7.4c1.6-3.8-0.2-6.1-2.8-8.4c-0.8-0.7-1.5-0.5-1.9,0.3c-0.5,1-1,2.1-1.1,3.2C70.8,99.9,69.1,104.7,75,107.8z
		 M10,89.2c4.9,2.7,9.8,1.7,14.6,1.8c0.4,0,1.2-1,1.3-1.6c0.5-3.6-1.7-5.5-5.2-4.3C17.1,86.3,13.6,87.9,10,89.2z M165.2,7.8
		c1.7,0.9,3.4,1.7,5,2.7c0.8,0.5,2,1.2,2,1.8c0.1,3.3,2.2,3.3,4.5,3.2c1.4,0,2.9,0.3,4.3,0.3c0.4,0,1.2-0.1,1.2-0.3
		c0.2-0.5,0.2-1.2,0-1.7c-0.2-0.6-0.5-1.3-1-1.6C176.4,9.2,171.6,6.2,165.2,7.8z M152.3,9.4c5.1,4.7,11.2,4.8,17.3,4.9
		c0.9,0,1.1-1.3,0.3-1.8C164.6,9.5,159.4,5.6,152.3,9.4z M160.3,15.2c-2.1-0.6-3.3-1.1-4.6-1.3c-0.7-0.1-1.7-0.2-2.3,0.1
		c-3.7,2.4-7.8,2.4-12,2.5c-1.5,0-3.7-1-4.4,1.6c1.6,0.4,3.2,0.8,4.8,1.1c0.4,0.1,0.9-0.2,1.4-0.3c3.1-0.5,6.3-0.9,9.4-1.5
		C155,16.9,157.3,16.1,160.3,15.2z M151.5,97.4c-0.2,1.9-0.2,3.4-0.6,4.7c-0.4,1.5-1.1,3-1.6,4.5c-0.4,1-0.7,2.1-0.9,3.2
		c-0.1,0.4,0.2,1.1,0.5,1.2c0.3,0.2,1,0,1.3-0.2c5.3-3.7,5.9-7.2,2.1-12.5C152.2,98.1,151.9,97.9,151.5,97.4z M110.3,77.6
		c-0.1,0.3-0.3,0.7-0.4,1c1.8,0.9,3.7,1.8,5.5,2.7c4.2,2,8.7,3.4,11.4,7.5c0.4,0.6,1,1.2,1.8,2.3c-0.3-3.9-1.9-6.4-4.4-7.8
		C119.8,80.9,115.7,77.5,110.3,77.6z M255.4,75.4c-2.3-3.3-6.1-2.5-9.2-3.4c-0.7-0.2-1.8,0.5-2.5,1c-1.2,1-2.3,2.2-3.4,3.4
		c-0.3,0.3-0.3,0.8-0.5,1.3c0.5,0.1,1.3,0.5,1.6,0.3c3.8-2.7,8.2-2.5,12.5-2.4C254.4,75.6,254.8,75.5,255.4,75.4z M103.9,12.4
		c2.6,1.2,4.1,2,5.7,2.6c1,0.3,2.2,0.3,3.2,0.1c2.2-0.4,4.3-1,6.4-1.8c0.6-0.2,1.1-1,1.6-1.5c-0.6-0.4-1.2-1.1-1.8-1
		C114.3,11.2,109.7,11.8,103.9,12.4z M251,78.1c-3.5-1.5-6.1,0.1-8.7,1.6c-0.3,0.2-0.6,1.3-0.4,1.5c1.2,1.3,2.4,3.2,3.8,3.4
		c1.2,0.1,2.7-1.7,3.8-3C250.2,80.7,250.5,79.4,251,78.1z M162.4,102.5c0.2-4.3,2.3-7.3,0.4-10.7c-0.6-1.2-0.4-3-2.2-3.1
		c-0.2,0-0.4,2.3-0.9,3.4C158.1,95.8,159.4,98.7,162.4,102.5z M47.6,86.3c0.3-4.7-2.2-6.9-5.6-8.6c-2.3-1.1-4.6-2.3-6.9-3.4
		c-0.8-0.4-1.7-0.4-2.6-0.6c2,2.8,5.5,3,7.7,5.5C42.2,81.8,44.9,83.8,47.6,86.3z M219.8,70.9c-0.2,0.2-0.5,0.5-0.7,0.7
		c1.9,2.3,3.7,4.7,5.6,7c0.4,0.4,1.3,0.9,1.7,0.7c1.6-0.8,3.8-0.4,4.9-2.3C227.3,75,223.6,73,219.8,70.9z M62.4,114.5
		c0.5-3.8,1-6.7,1.2-9.7c0-1.1-0.9-2.2-1.6-3.2c-0.1-0.2-1.1-0.1-1.2,0.1c-0.9,2.3-2.5,4.6-1.5,7.3C60,110.7,61.1,112.2,62.4,114.5z
		 M34.7,64.8c0.5,1.9,0.9,2.8,1,3.7c0.2,3.8,2.8,5.5,5.9,6.7c0.4,0.1,1.2,0.2,1.3,0c0.3-0.5,0.6-1.2,0.5-1.7
		c-0.1-0.6-0.5-1.2-0.9-1.6C40.2,69.7,37.8,67.6,34.7,64.8z M112.7,6.6c0-0.3-0.1-0.5-0.1-0.8c-3.3,0.3-6.6,0.6-9.9,1.1
		c-1.7,0.3-3.5,0.7-5,1.5c-1.1,0.6-3.2-0.6-3.4,1.7c1.4,0.2,2.8,0.5,4.2,0.5c0.8,0,1.5-0.3,2.3-0.5c2.4-0.8,4.7-1.7,7.1-2.4
		C109.5,7.2,111.1,6.9,112.7,6.6z M236.3,56.6c-5,4.1-5.7,6.9-3.1,12.1C234.3,64.5,236.5,61,236.3,56.6z M241.7,93.5
		c-3.3-1.8-6.7-1.9-10-0.3c-1,0.5-1.7,1.8-2.4,2.8c-0.2,0.3-0.2,1,0,1.3c0.2,0.2,1,0.3,1.2,0.1C233.7,94.5,237.4,93.3,241.7,93.5z
		 M115.6,16.2c5.9,1.2,11.5,2.1,17.2,2.2c0.2,0,0.3,0,0.5,0c0.4-0.2,0.7-0.5,1.1-0.7c-0.4-0.3-0.9-1-1.3-0.9
		c-4,0.9-7.9,0.1-11.5-1.5C119.3,14.3,117.6,14.6,115.6,16.2z M70.4,89c-0.3-0.1-0.9-0.6-1.1-0.4c-2.2,1.7-4.5,3.5-6.5,5.4
		c-0.2,0.2,0.4,1.7,1,2.1c0.6,0.4,2.2,0.6,2.4,0.3c1.5-2.2,2.8-4.5,4.2-6.8C70.4,89.5,70.4,89.3,70.4,89z M183.2,10.8
		c0.7,1.9,1.1,3.2,1.6,4.4c0.2,0.4,0.6,1.1,1,1.1c2.5,0.1,5,0,7.5,0c0.1-0.3,0.2-0.6,0.2-0.9C190.3,14,187.1,12.6,183.2,10.8z
		 M94.8,13.3c4.1,2.2,7.7,4.2,13,2.9C103.2,14.8,100,11.1,94.8,13.3z M97.3,105.3c-1.8-4.1-1.5-3.5-4.8-2.4
		c-0.8,0.2-1.6,0.5-2.2,0.9c-0.4,0.3-1,1.2-0.8,1.4c0.5,0.5,1.2,1.3,1.8,1.2C93.1,106.2,95,105.7,97.3,105.3z M108.6,102
		c4-1,7.5-1.8,10.9-2.7C116.5,96,115,96.3,108.6,102z M135.9,118.8c-0.3,0.1-0.6,0.2-0.8,0.2c-0.3,2-0.6,4.1-0.8,6.1
		c-0.1,0.9,0.1,1.7,0.2,2.6c0.8-0.5,1.8-0.8,2.3-1.5c0.5-0.7,0.9-1.8,0.8-2.6C137.1,121.9,136.4,120.4,135.9,118.8z M227.9,61.6
		c-0.3,0.1-0.6,0.1-0.8,0.2c0.6,3.2,1.2,6.4,1.9,9.6c0.1,0.5,1.1,0.8,1.6,1.3c0.3-0.6,1-1.4,0.8-1.8
		C230.3,67.6,229.1,64.6,227.9,61.6z M243.9,68.5c-4.1,0.3-5.9,3.3-8,5.9c-0.1,0.1,0.2,0.8,0.3,0.8c0.6,0.1,1.4,0.3,1.7,0
		C239.9,73,241.9,70.8,243.9,68.5z M41.7,119.9c-1.8-0.9-2.8-1.7-4-2c-0.5-0.2-1.7,0.1-1.9,0.5c-0.4,0.9-0.5,2-0.7,3.1
		c1,0.1,2.1,0.5,3,0.3C39.2,121.5,40.1,120.8,41.7,119.9z M137.3,13.7c8.3,1.3,9.9,1.1,13.2-1.3C145.5,12.9,141.4,13.3,137.3,13.7z
		 M114.1,102.6c1.6,1.4,2.7,2.3,3.8,3.2c1.4,1.2,2-0.2,2.6-1c0.9-1,0.1-1.7-0.9-2.2C118,101.7,116.3,101.6,114.1,102.6z M145.3,7.6
		c-3.2-0.2-5.8-0.5-8.5-0.6c-0.2,0-0.7,0.5-0.7,0.5c0.2,0.4,0.5,1,0.7,1C139.4,8.2,142.2,11.1,145.3,7.6z M33,72.3
		c0.5-1.5,0.7-1.9,0.7-2.3c0-0.8,0-1.6-0.1-2.4c-0.4-2.6-1.6-4.8-2.1-4.1c-1.2,1.5-0.2,3,0.3,4.5C32.1,69.1,32.4,70.2,33,72.3z
		 M81.4,37.9c1.1-3.1,1.9-5.2,2.5-7.5c0.2-0.6-0.2-1.7-0.6-1.9c-1.1-0.5-1.8,0.2-1.9,1.4C81.4,32.2,81.4,34.5,81.4,37.9z
		 M124.8,14.5c3.4,0,5.9,0,8.4,0c0.4,0,0.7-0.5,1.1-0.7c-0.3-0.3-0.5-1-0.8-1C130.9,12.8,128.1,12.1,124.8,14.5z M105.4,95.4
		c2.2,1.5,3.5,3.1,5.7,1.6c0.5-0.3,1.2-1.2,1.1-1.3c-0.5-0.6-1.1-1.5-1.7-1.4C109,94.4,107.6,94.9,105.4,95.4z M76.6,110.7
		c2.8-6.4,3.2-9.1,2.1-11.3c-0.7,3.1-1.5,6-2.1,8.9C76.4,109.1,76.6,109.9,76.6,110.7z M181.9,103.3c1.6-4.2,1.3-7.8-0.9-11.1
		C181.4,96.1,181.6,99.3,181.9,103.3z M111.1,8.9c0,0.2,0.1,0.4,0.1,0.6c3.9-0.3,7.8-0.6,11.7-0.9c0.1,0,0.3-0.1,0.4-0.2
		c0.2-0.2,0.4-0.5,0.4-0.8c-0.1-0.2-0.5-0.5-0.7-0.5C119,7.7,115,8.3,111.1,8.9z M154.1,5.9c-2.7-0.4-4.7-0.6-6.7-0.9
		c-0.2,0-0.6,0.3-0.6,0.6c-0.1,0.2,0.1,0.6,0.3,0.8C149.1,7.9,151.3,8.2,154.1,5.9z M83.9,65.6c0.3-2.6,0.6-4.8,0.9-7
		C80.8,62.4,80.7,62.7,83.9,65.6z M118,109.5c-1.7-3.1-4.3-4.3-7-5.3C112.7,106.5,114.5,108.8,118,109.5z M80.5,78.5
		c3.1-3.1,3.1-3.1,0-6.4C80.5,74.2,80.5,76,80.5,78.5z M184.2,18.9c-2.8-0.2-6.1-1.4-9.2,1.9C178.6,20.1,181.4,19.5,184.2,18.9z
		 M151.9,2.8c4.1,2.3,6.4,2.8,10,2.1C158.4,4.2,155.6,3.6,151.9,2.8z M58.4,63.6c-1.3,3-2.7,4.9-1.9,8.2
		C57.7,69.1,59.6,67.3,58.4,63.6z M43.6,68.7c-0.2,0.2-0.4,0.4-0.6,0.6c1.2,1.3,2.3,2.6,3.6,3.8c0.2,0.2,0.8,0,1.2,0
		c0-0.4,0.1-1.1-0.1-1.3C46.4,70.8,45,69.8,43.6,68.7z M98.5,108.8c-2-2-4.5-1-6.7-1.1c-0.3,0-0.7,0.4-1,0.6
		c0.5,0.3,0.9,0.9,1.4,0.9C94.2,109.2,96.3,109,98.5,108.8z M175.8,88.3c0.3-0.9,0.5-1.3,0.6-1.7c0.2-1.1,1.5-2.2,0.1-3.4
		c-0.1-0.1-0.4-0.2-0.4-0.2c-0.5,1.2-1.1,2.4-1.4,3.6C174.6,86.8,175.1,87.3,175.8,88.3z M128.7,8c0,0.2-0.1,0.4-0.1,0.6
		c1.4,0,2.8,0.1,4.1-0.1c0.5-0.1,0.9-0.7,1.4-1.1c-0.5-0.2-1-0.7-1.4-0.6C131.3,7.2,130,7.6,128.7,8z M36.9,115.5
		c0.1-0.3,0.2-0.7,0.2-1c-1.8-0.4-3.7-0.8-5.5-1.2c-0.1,0.3-0.1,0.6-0.2,0.9C33.3,114.6,35.1,115.1,36.9,115.5z M147.1,103.8
		c0.4,0.1,0.7,0.2,1.1,0.3c0.5-1.3,1-2.7,1.4-4c0.1-0.2-0.1-0.5-0.1-0.8c-0.3,0.1-0.7,0.1-0.8,0.3
		C148.1,100.9,147.6,102.3,147.1,103.8z M126.1,95.7c-0.9-0.8-1.7-1.5-2.5-2.2c-0.1,0.4-0.5,1-0.3,1.3c0.4,0.7,1.1,1.3,1.7,1.9
		C125,96.8,125.5,96.2,126.1,95.7z M172.7,83.8c0.2,0,0.3,0.1,0.5,0.1c0.4-1,0.9-1.9,1.2-3c0.1-0.3-0.4-0.7-0.7-1.1
		c-0.3,0.2-1,0.5-1,0.7C172.6,81.7,172.7,82.7,172.7,83.8z M149.7,11c0.1-0.2,0.1-0.4,0.2-0.7c-0.4-0.2-0.8-0.6-1.2-0.6
		c-1,0.1-2.1,0.4-3.1,0.7c0.8,1.4,1.9-0.3,2.8,0.3C148.8,11,149.3,11,149.7,11z M69.1,97.3c-0.2-0.1-0.4-0.2-0.5-0.2
		c-0.4,0.6-0.9,1.1-1.1,1.8c-0.1,0.3,0.2,0.8,0.3,1.2c0.4-0.2,0.9-0.4,1-0.8C68.9,98.7,69,98,69.1,97.3z M81.7,93.4
		c0.3,0.2,0.6,0.4,0.9,0.6c0.5-1,1-2,1.5-3c-0.2-0.1-0.4-0.2-0.6-0.4C82.9,91.6,82.3,92.5,81.7,93.4z M218.4,66.4
		c0.2-0.1,0.5-0.1,0.7-0.2c-0.3-1.1-0.5-2.2-0.9-3.4c0-0.1-0.5-0.1-0.9-0.1C217.7,64,218.1,65.2,218.4,66.4z M127.3,11
		c-0.1-0.1-0.3-0.3-0.4-0.3c-0.9,0.2-1.7,0.5-2.5,0.7c0,0,0.1,0.4,0.1,0.4c0.9-0.2,1.8-0.3,2.6-0.5C127.2,11.3,127.2,11.1,127.3,11z
		 M62.4,59.9c0.2-0.6,0.4-1.1,0.4-1.6c0-0.1-0.6-0.2-0.9-0.4c-0.2,0.5-0.4,1-0.5,1.6C61.4,59.5,61.9,59.7,62.4,59.9z M60.3,68.9
		c-0.5,0.9-0.8,1.4-0.9,1.9c0,0.1,0.6,0.4,0.9,0.7c0.2-0.4,0.6-0.7,0.6-1.1C60.9,70,60.6,69.7,60.3,68.9z M112,20.6
		c0,0.1,0,0.3,0,0.4c0.6,0.1,1.2,0.2,1.7,0.2c0.3,0,0.6-0.2,0.8-0.3c-0.3-0.2-0.6-0.5-0.9-0.5C113.1,20.4,112.5,20.6,112,20.6z
		 M54.7,114c-0.1,0.1-0.3,0.2-0.3,0.3c0,0.7,0,1.5,0.1,2.2c0,0,0.2,0,0.3,0.1c0.1-0.7,0.1-1.5,0.2-2.2
		C54.9,114.3,54.8,114.2,54.7,114z M135.1,4.4c-0.1-0.1-0.2-0.3-0.3-0.3c-0.7,0-1.5,0-2.2,0.1c0,0,0,0.2-0.1,0.3
		c0.7,0.1,1.5,0.1,2.2,0.2C134.8,4.6,134.9,4.5,135.1,4.4z M86.5,62.5c-0.1,0.6-0.1,1-0.1,1.5c0,0.1,0.1,0.2,0.2,0.4
		c0.1-0.3,0.3-0.7,0.4-1.1C86.9,63.1,86.7,62.9,86.5,62.5z M168,21.9c0-0.1,0-0.3-0.1-0.3c-0.1-0.1-0.3,0-0.4-0.1
		c0,0.2,0.1,0.4,0.1,0.5C167.8,22,167.9,21.9,168,21.9z M114.1,75.6c-0.1-0.1-0.2-0.2-0.2-0.4c-0.1,0.1-0.3,0.3-0.3,0.3
		c0.1,0.2,0.2,0.3,0.4,0.5C114,75.8,114.1,75.7,114.1,75.6z M255.6,70.5c-0.1,0-0.3,0-0.3,0.1c-0.1,0.1-0.1,0.3-0.1,0.4
		c0.2,0,0.4-0.1,0.5-0.1C255.7,70.7,255.6,70.6,255.6,70.5z M47.2,66.8c-0.1-0.1-0.2-0.2-0.3-0.3c-0.1,0.2-0.3,0.4-0.3,0.7
		c0,0.1,0.2,0.2,0.3,0.3C47,67.2,47.1,67,47.2,66.8z"/>
	<path d="M372.2-110.5c-2.2-1.8-2.7-4.6-3.9-6.9c-2.5-4.6-5.6-8.5-11.2-9.8c-5.3-1.2-10.5-2.8-15.8-4.2c-5.6-1.5-11.6,3.1-11.6,8.9
		c0,2.3,0,4.4,1.1,6.6c0.7,1.4,0.8,3.1,1.2,4.6c0.2,0,0.6,0,0.7-0.1c0.8-1.1,1.5-2.3,2.2-3.5c1.5,1.5,0,2.9-0.2,4.4
		c-0.5,4.3-2.9,8.2-2,12.7c0.4,1.9,0.5,3.8,0.7,5.7c0.3,2.8,0.8,5.6,0.9,8.5c0.5,9.5,4,18.1,8,26.5c2.2,4.7,4.1,9.5,6.1,14.2
		c0.2,0.6,0.6,1.2,0.6,1.8c0.1,6.4,3.4,12,4.9,18c0.4,1.5,1.5,2.8,2.1,4.3c0.2,0.4,0.1,1.3-0.2,1.6c-0.4,0.3-1.4,0.3-1.6,0
		c-1.8-2-2-0.6-2.1,0.9c-0.3,2.9-0.7,5.7-0.8,8.6c0,0.8,0.4,2,1.1,2.4c3.2,2.1,6.6,4,9.9,5.9c1.8,1,3,0.2,3.3-1.9
		c0.5-4.5,1-8.9,1.5-13.4c0-0.3,0.2-0.7,0.1-0.9c-1.6-4.6,0.5-8.8,0.9-13.2c0.3-3.6-0.6-7.3-1.1-11c-0.1-0.9-0.6-1.9-0.5-2.8
		c0.5-9.6-2.9-18.7-4.2-28c-0.1-0.9-0.3-1.9-0.5-2.8c-0.8-3.9-1.5-7.8-3.9-11.3c-2-2.9-3.5-6.1-4.9-9.4c-1-2.5-1.8-5.2-1.9-7.9
		c-0.1-6.5-2.2-12.2-5-17.9c-0.1-0.3-0.5-0.5-0.5-0.8c0-0.4,0.2-0.9,0.4-1.2c0.1-0.1,0.7-0.1,0.9,0.1c0.9,0.9,1.9,1.8,2.4,2.9
		c2.6,5.5,4.9,11.3,4.7,17.5c-0.1,2.8,0.6,5.4,1.9,7.9c1,1.9,1.9,3.7,3.1,5.4c4,5.9,5.5,12.6,6.7,19.4c0.8,4.4,1.9,8.8,2.7,13.2
		c0.6,3.1,0.8,6.4,1.1,9.5c0.4,3.3,0.7,6.7,1.1,10c0.6,5.6,0,11.2-0.2,16.8c-0.3,7.4-1.1,14.7-1.8,22.1c-0.1,0.6-0.4,1.6-0.8,1.6
		c-2.7,0.4-2.1,2.4-2.2,4.1c-0.1,0.9-0.3,2.4-0.7,2.6c-2.8,0.8-2.1,3-2,4.7c0.3,4,1.1,7.9,2.9,11.5c0.4,0.7,0.8,1.5,0.8,2.3
		c-0.1,5.4,3.6,8.4,7.1,11.5c0.7,0.6,1.6,1,2.4,1.6c1.3,1,1.7,2.3,0.6,3.8c-1.2,1.7-2.3,2-4.1,1c-1-0.6-1.8-1.4-2.7-2
		c-1.7-1.2-3.4-2.5-6.1-1.5c2.3,2.3,4.4,4.5,6.5,6.7c0.8,0.8,1.7,1.7,2,2.7c0.3,1,0.1,2.3-0.4,3.2c-0.2,0.4-1.7,0.2-2.5,0
		c-1.5-0.4-3.1-0.8-4.4-1.6c-1.6-0.9-2.4-0.3-3,1.1c-0.4,1-0.7,2.1-1,3.2c-0.2,0.8-0.1,1.6-0.4,2.4c-0.5,1.4-1.2,2.7-3.1,2.4
		c-1.5-0.2-2.2-1.2-2.4-2.6c-0.1-1.8,0.2-3.4-2.9-2.7c-2.5,0.6-3.4-1.3-3-4.3c0-0.3-0.1-0.7,0-1c2.8-4.2,0.8-8.7,0.8-13
		c0-2.3-1.9-4.9-1.3-6.9c0.7-2.5-0.7-4.4-0.6-6.6c0-0.6-0.4-1.2-0.8-1.8c-1-1.6-0.7-2.9,0.5-4.4c1.2-1.5,3-3.2,0.7-5.3
		c-0.2-0.2-0.1-0.6-0.1-0.9c0.5-5.2,1.1-10.4,1.7-15.6c0.2-1.4,0.2-2.5-1.2-3.3c-1.9-1.1-2.1-3-0.9-4.6c1.2-1.6,1.1-3.3,1.2-5
		c0-1.3,0-2.6,0.1-3.9c0.7-11.2-1.6-21.7-6.2-31.9c-1.1-2.3-1.8-4.8-2.8-7.2c-0.5-1.1-1.2-2.1-1.9-3.3c-0.3,0.5-0.5,0.6-0.5,0.8
		c0.5,6.4,1.2,12.8,1.5,19.2c0.2,4.4,1.5,8.5,2.9,12.6c0.9,2.8,1.1,6,1.3,9c0.4,7.1,0.9,14.1,0.9,21.2c0,4.1-0.6,8.3-1.3,12.4
		c-0.5,2.9-0.9,5.7,0,8.6c0.2,0.7,0.4,1.6,0.2,2.4c-0.2,0.6-1,1.1-1.5,1.6c-0.4-0.5-1.1-0.9-1.2-1.4c-0.7-4-0.3-8,0-12
		c0.2-3.8,0.9-7.5,1.5-11.2c0.4-2.6-0.2-5.3-0.3-8c-0.2-3.5-0.5-7.1-0.4-10.6c0.1-4.8-0.8-9.3-2.4-13.7c-1.4-3.8-2.6-7.6-2.4-11.7
		c0.1-1.8-0.4-3.1-2.3-3.8c-1.7-0.5-3.3-1.3-4.9-1.8c-3.2-1.1-3.7-2.2-2-5c3.3-5.4,5-11.3,3.6-17.3c-0.9-4-1.3-7.9-1.3-11.9
		c0-0.8-0.2-1.7,0.2-2.4c1.4-2.7,0-4.3-1.7-6.3c-2.8-3.2-6.5-4.8-10-6.6c-2.6-1.4-3.8-3.2-4.7-5.6c-0.1-0.1-0.1-0.3-0.1-0.5
		c-0.8-2.3-1-4.9-2.5-6.7c-1.4-1.7-4.1-2.4-6.1-3.8c-1.6-1.1-2.4-0.4-2.9,1c-0.9,2.4-1.2,5-3.4,6.8c-1.2,1-2.1,1.1-3.3,0
		c-3.3-3-4.7-7.1-5-11.2c-0.4-5.1-2.2-9.2-5.5-12.9c-0.7-0.8-1.2-1.9-2-2.7c-1.2-1.3-1.7-2.6-0.9-4.4c0.5-1.1,0.5-2.5,0.5-3.8
		c-0.1-2.4,1.2-3.6,3.2-4.2c0.8-0.2,1.7-0.6,2.4-0.4c4,1.1,6.2-2,9-3.6c1.1-0.6,0.9-1.5-0.2-2.2c-4.4-3-8.8-6-13.1-9.1
		c-3.1-2.2-3.7-3.6-2.5-5.9c0.4-0.7,1.4-1.5,2.1-1.5c4.8,0,9.7-0.6,14.4,1.2c3.4,1.3,3.7,1.1,5-2.2c1.1-2.7,1.9-5.5,3.1-8.1
		c2.1-4.5,4.6-5.5,9.7-5c7.5,0.7,14.4,3.4,21.4,5.6c2.7,0.8,5.1,2.8,7.4,4.5c5,3.9,9.5,8.3,12.9,13.6c1.4,2.2,1.6,4.3,0.2,6.7
		c-2.4,4-3.7,8.5-4.4,13.2c-0.3,1.7-0.3,2.3,1.6,2.5c6.1,0.6,12.1,1.1,18.2,2c2.5,0.4,5,1.3,7.3,2.3c0.8,0.3,1.9,1.4,1.8,2
		c-0.1,0.9-0.9,2.2-1.8,2.5c-1.8,0.6-3.7,0.7-5.6,1.1c-0.5,0.1-1.1,0.5-1.5,0.9c-0.1,0.1,0.3,0.9,0.6,1.2
		c7.6,5.1,11.6,13.3,17.5,19.8c1.3,1.4,2.3,3.3,2.7,5.1c1.1,4.7,2.7,9.3,4.9,13.6c2.7,5.2,3.5,11,4.9,16.5c2,7.4,2.1,14.9,2,22.5
		c0,2.1-1,4.6,1.9,6c0.6,0.3,0.8,1.7,0.9,2.7c0.1,4.8,0.1,9.7,0.1,14.5c-3.6,8.6-2.7,17.7-2.8,26.7c-0.1,5,0,9.9,0.7,14.9
		c0.5,3.5-0.5,7.4-1.8,10.8c-3.7,9.4-7.9,18.6-12,27.9c-0.4,0.9-0.9,1.7-1.3,2.6c-0.5,1.1-1.1,1-1.8,0.4c-0.7-0.6-1.3-0.4-1.2,0.4
		c0.1,1.7,0.3,3.5,0.8,5.2c1.4,4.6,2.1,9.4,3.3,14c1.4,5.5,2.2,11.4,5.8,16.2c0.9,1.2,1.2,2.9,1.7,4.5c0.5,1.5,0.5,3.3,1.3,4.6
		c2.3,3.5,2.2,7.5,3,11.4c0.7,3.4-1,6-4.3,6.9c-2.6,0.7-5.3,1.2-8,1.6c-0.8,0.1-2-0.3-2.7-0.8c-2-1.8-4.2-2.1-6.7-1.8
		c-0.6,0.1-1.4,0.1-1.9-0.2c-0.5-0.2-0.9-0.9-1-1.4c-0.1-0.3,0.4-1.1,0.7-1.1c3.4-0.3,6.9-2.1,9.8,1.4c0.5,0.6,1.6,1.1,2.4,1.1
		c2.4-0.2,4.8-0.6,7.1-1.3c0.9-0.3,1.5-1.6,2-2.5c0.1-0.2-0.9-1.5-1.1-1.4c-3.5,1.1-6.2-0.6-8.9-2.4c-3.6-2.4-7-2.8-10.7-0.1
		c-1.4,1-3.2,1.5-4.8,2.2c-2.3,1-2.7,1.4-1.9,3.6c2.5,7.1,2.7,14.5,2.6,21.9c-0.1,4.6-2,6.5-6.5,6.6c-5.5,0.1-10.9,0-16.3-1.6
		c-2.5-0.8-5-0.6-7.5,0.6c-1.9,0.9-4,1.4-6,1.5c-8,0.6-16.1,1.3-23.9-1.6c-2.8-1.1-5-3.1-4.4-4.4c1.1-2.2,3.2-2.9,5.5-3.3
		c6.3-1.1,12.7-1.7,18.8-3.7c0.9-0.3,2,0,2.9-0.3c3.3-0.9,7.1-0.3,9.6-3.6c0.5-0.6,1.7-0.7,2.6-1.1c1.1-0.6,2.4-1.1,3.1-2
		c1-1.2,0.2-3.9,3.1-3.3c0.1-0.6,0.4-1.2,0.3-1.8c-0.7-4.4-1.5-8.8-2.3-13.2c-0.1-0.5-0.5-1-0.3-1.4c1.6-6.1-0.6-12.1-0.4-18.2
		c0.1-4.4-1.6-8.8-2.6-13.2c-0.4-1.7-0.9-3.4-1.1-5.2c-0.3-2.5-1.4-4.3-3.8-5.2c-3.1-1.1-4.3-3.7-5.4-6.5c-0.2-0.6-0.5-1.3-0.4-1.9
		c1.4-7.2-1-14.4-0.1-21.6c0.1-1,0-1.9,0.1-2.9c0.2-1.6,0.9-2.7,2.9-3.3c0,3-0.1,5.9,0,8.8c0.1,5-0.6,10,0.8,14.9
		c0.3,1-0.1,2.2-0.4,3.3c-0.6,2.6,0.3,4.4,2.5,5.7c2.9,1.7,5.7,3.5,8.6,5.2c0.5,0.3,1.2,0.6,1.8,0.5c3.5-0.4,7-0.8,10.5-1.3
		c4.5-0.6,7-3.5,8.2-7.6c1-3.3,2.6-6.3,4.9-8.7c1.5-1.5,3.6-2.5,5.5-3.6c0.4-0.2,1.1,0.3,1.7,0.5c-0.3,0.5-0.4,1.1-0.8,1.5
		c-1.1,1.2-2.4,2.2-3.3,3.4c-0.8,1.1,0.1,2.4,1.4,2.2c2.4-0.3,4.4-0.7,5.5-3.6c3-7.6,6.2-15.1,9.8-22.5c2.9-6,2.5-12.2,1.8-18.5
		c-0.1-1.3-0.5-2.6-0.3-3.8c1.5-7.5,0.4-15.1,0-22.7c-0.2,2.1-0.2,4.3-0.5,6.4c-0.1,0.8-0.8,1.5-1.2,2.2c-0.7-0.6-2-1-2.1-1.7
		c-0.2-1.5-0.1-3.2,0.3-4.8c0.8-3.8,1.8-7.5,2.7-11.2c0.3-1.6,0.6-3.2,0.6-4.8c0.1-7.4,0.2-14.8,0-22.2c-0.1-5.5,0.3-11.2-1.2-16.3
		c-2-7-2.6-14.6-6.7-21c-1.5-2.4-2-5.4-2.7-8.1c-0.9-3.1-2-6-4.3-8.5c-3.3-3.7-6.2-7.8-9.4-11.6c-3.8-4.4-8.5-7.6-14-10.1
		c0.7,0.9,1.5,1.7,2.2,2.6c3.2,3.6,5.3,7.6,6.2,12.3L372.2-110.5z M305.4-115.4c-0.1-0.1-0.1-0.3-0.2-0.4c-0.1-0.1-0.2,0-0.3-0.1
		C305.1-115.7,305.3-115.6,305.4-115.4c0.4,0.3,0.7,0.6,1,0.9c0.3,0.3,0.6,0.6,1,1c0.1,0.1,0.1,0.3,0.2,0.4c0.1,0.1,0.2,0,0.3,0.1
		c-0.2-0.1-0.3-0.3-0.5-0.4c-0.3-0.3-0.6-0.6-1-1C306-114.8,305.7-115.1,305.4-115.4z M315.1-113.5c-0.3-0.3-0.6-0.6-1-1
		c-0.2-1.5-0.5-3-0.8-4.8c3.2,3,8.8,11.2,9.4,14.3c0.4,1.8,1.2,3.7,0.1,5.6c-0.3,0.4,0,1.6,0.4,1.9c2.3,1.6,4.7,3.1,7,4.6
		c0.6-9.7,0.9-15.4-2.4-23.8c-1.1-2.7-1.6-5.7-2.3-8.5c-0.1-0.2,0.2-0.6,0.3-0.9c0.4-0.1,0.9-0.2,1.3-0.3c-0.1-0.2-0.2-0.4-0.3-0.5
		c-0.3,0.3-0.6,0.5-1,0.8c-1.2,0.4-2.5,0.5-3.5,1.2c-1.7,1.1-2.4,0.2-2.8-1.2c-0.3-1.1-0.4-2.2-0.5-3.3c-0.4-2.8-0.5-5.7-2.2-8.2
		c-1.1-1.6,1.7-6.3,3.6-6.4c0.3,0,0.6,0.1,0.9,0.3c1.6,1.3,3.4,2.5,4.8,4c1,1.1,2.4,2.6,1.3,4.2c-0.2,0.3-2.2-0.4-3.3-0.7
		c-0.2,0-0.3-0.1-0.4-0.2c-1.7-0.5-2.4-0.1-2.5,1.7c-0.1,1.8,0,3.6,0.1,5.3c0.2,1.8,1,2.3,2.6,1.3c3.8-2.3,6.1-5.4,6-10.2
		c-0.2-8.1-5.6-11.8-12.9-8.5c-1.4,0.6-2.4,1.4-2.8,3.1c-0.6,2.3-1.7,4.4-1,7c0.3,0.9,0.5,2.6-1.1,2.6c-0.6,0-1.3-1.6-1.6-2.5
		c-0.3-1-0.1-2.2-0.1-3.3c-0.5,2.2-4.2,2-2.7,5.7c-1.5-1.3-2.1-1.8-2.6-2.4c-1.2-1.2-3.3-1.4-3.6-3.7c-0.1-1-0.2-2.6-0.9-2.9
		c-1.1-0.5-2.5-0.3-3.8-0.2c-2,0.2-6,5.1-5.5,7.1c0.3,1.1,1,1.9,2.5,0.7c1.6-1.2,3.3-0.4,2.6,1c-1,2.4,0.4,2.2,1.8,2.4
		c1.4,0.2,2.9,0.1,4.3,0.4c0.7,0.1,1.7,1,1.7,1.4c-0.1,1.9-0.2,4-1.1,5.5c-1,1.7-1.4-1.2-2.6-0.9c-0.2,0-0.3,0-0.5,0.1
		c-3,0.5-5.2,2.1-7.3,4.2c-1.6,1.7,0,3.3,0.1,5c0,0.8-0.1,1.7,0.2,2.4c0.7,1.6,1.5,3.2,2.5,4.6c0.6,0.9,1.7,1,2.2-0.2
		c0.8-1.8,1.4-3.6,2.3-5.3c1.2-2.5,2.4-5.1,5.7-5.3c1.8-0.1,1.7-1,1.1-2.3c-0.1-0.3,0.1-1,0.4-1.2c0.3-0.2,1,0,1.3,0.2
		c1.1,0.9,2.1,1.7,1.4,3.6c-0.5,1.5-0.2,3.3,0.1,4.9c0.1,0.3,2.2,0.1,3.4,0.2c0.3,0,0.6,0.2,0.9,0.4
		C314.5-114.2,314.8-113.8,315.1-113.5c0.1,0.1,0.1,0.3,0.2,0.4c0.1,0.1,0.2,0.1,0.3,0.1C315.4-113.2,315.3-113.3,315.1-113.5z
		 M371.4,43.6c-0.3-0.3-0.6-0.7-1-1c-0.5-0.9-0.9-2.3-1.7-2.7c-2.8-1.2-3.4-3.7-4.1-6.2c-1.9-6.6-3.8-13.2-5.7-19.8
		c-0.3-0.9-0.6-1.9-1.1-2.6c-0.8-1.1-4.7-1.5-0.4-3.3c0.1,0,0.1-1-0.2-1.3c-1.1-1.2-2.2-2.3-3.5-3.3c-0.3-0.2-1.4,0-1.5,0.3
		c-1.4,3.2-1.3,6.6-0.9,9.9c2.8,0.3,1.3,2.1,0.8,2.9c-3,4.7-2.8,9.6-1,14.6c0.2,0.6,0,1.3,0.3,1.9c0.2,0.5,0.9,1.3,1.2,1.2
		c1.9-0.3,2,1,2.4,2.2c0.7,2.5,1.3,5,2.2,7.4c2,4.9,6.3,7.5,10.5,10.2c0.3,0.2,1,0,1.3-0.3c0.2-0.2,0.2-1,0-1.2
		c-1.5-1.4-2.9-3.2-4.7-3.9c-2.5-1-3.4-2.5-3.7-5c-0.3-2.2-1.2-4.3-1.6-6.5c-0.2-1.5-2.4-3.6,0.2-4.6c2.1-0.8,2.2,1.8,2.8,3.1
		c1.8,3.6,4.2,6.5,8.4,7.1C370.7,43,371.1,43.3,371.4,43.6c0.1,0.1,0.1,0.3,0.2,0.4c0.1,0.1,0.2,0,0.3,0.1
		C371.7,43.9,371.5,43.8,371.4,43.6z M359.7,9.7c0-0.1-0.1-0.3-0.1-0.4c0-0.1-0.2-0.1-0.3-0.1C359.4,9.4,359.6,9.5,359.7,9.7
		c0.1,0.4,0.2,0.8,0.3,1.3c0.2-0.1,0.3-0.2,0.5-0.3C360.3,10.3,360,10,359.7,9.7z M311.2-177.5c-0.3,0-0.7,0-0.9,0.1
		c-0.5,0.3-1,0.7-1.4,1.1c0,0,0.3,0.6,0.4,0.6c0.5-0.3,1.1-0.6,1.5-0.9C311-176.9,311.1-177.3,311.2-177.5c0.1,0,0.3-0.1,0.4-0.2
		c0.1-0.1,0.1-0.2,0.1-0.3C311.6-177.8,311.4-177.7,311.2-177.5z M405.3-22.3c2-4.2,0.6-8.6,0-12.9
		C405.3-30.9,405.3-26.6,405.3-22.3c-0.3,0.5-0.6,1-0.9,1.5c-0.1,0.2,0.2,0.5,0.3,0.8c0.2-0.3,0.5-0.6,0.6-0.9
		C405.4-21.4,405.3-21.9,405.3-22.3z M339.2-138.8c7.3,0,14.5-6,15.6-13.2c0.2-1.2,0.2-2.8-0.4-3.7c-2.2-3.3-5.2-5.6-9.1-6.9
		c-0.2-0.1-0.7,0.1-0.8,0.4c-0.1,0.2-0.1,0.6,0.1,0.9c0.3,0.6,0.8,1,1.1,1.6c0.2,0.4,0.1,1.2-0.1,1.2c-0.5,0.2-1.3,0.4-1.7,0.1
		c-0.5-0.3-0.8-1-1.2-1.5c-4-4.4-8-8.8-12.1-13.2c-0.9-1-2.2-1.9-3.5-2.3c-2.2-0.8-4.6-1.5-7-1.9c-1.5-0.2-3.5-0.4-4.7,0.3
		c-5.7,3.6-11.2,7.1-12.4,15c-0.6,4.2-0.4,7.5,1.9,10.9c1.3,2,3.1,2.6,5.3,2.2c3.1-0.6,6.3-1.2,9.4-1.9c5.5-1.2,5.9-0.6,9.5,3.5
		c0.7,0.8,1.3,1.9,1.6,3C332-140,335.1-138.6,339.2-138.8z M372.8,139.4c0.8-2.3,2.1-4.2-0.3-6c-0.4-0.3-0.7-1.2-0.5-1.7
		c1.7-6.3-1.6-11.9-2.5-17.9c-0.5-3.2-1.3-6.2-1.1-9.5c0.1-2.2-0.2-4.5-0.2-6.8c0-2.9-0.1-5.8,0.5-8.6c0.5-2.2,0.6-4.1-0.3-6.1
		c-1.5-3.4-1.7-6.7,0.7-10.2c-2.7,0-5-0.4-7.1,0.1c-2.9,0.7-5.6,1.6-8.5-0.1c-0.1,0.8-0.2,1.1-0.1,1.4c2.4,7.4,3.8,14.9,3.7,22.7
		c-0.1,4.6,0.6,9.3,0.9,13.9c0,0.5,0.2,0.9,0.3,1.4c0.5,3.3,1.1,6.6,1.5,9.9c0.3,2.6,0.4,5.3,3.6,6.3c0.4,0.1,0.8,0.6,1.1,0.9
		C367.1,132.6,369.8,135.8,372.8,139.4z M397.7,105.5c-1.4-2.9-0.9-6-2.9-8.4c-1.4-1.7-2.4-3.8-2.9-5.9c-2.2-9-4.1-18.1-6.1-27.2
		c-0.3-1.2-0.9-2-2.4-1.6c-0.9,0.3-1.8,0.2-2.7,0.4c-0.7,0.1-1.6,0.3-1.9,0.7c-1.8,2.2-3.4,4.6-5.2,6.9c-0.9,1.1-0.7,1.8,0,2.9
		c1.5,2.5,3.1,5,3.8,7.8c1.8,6.5,3.9,12.9,6.9,19c0.9,1.9,1.5,3.9,2,5.9c0.9,3.6,1.1,3.7,4.4,2.4c1.8-0.7,3.7-1.1,5.5-1.8
		C396.5,106.3,397.1,105.9,397.7,105.5z M314.9,144.1c3.6,2.3,6.5,3.3,9.8,3.3c3.9-0.1,7.7,0,11.6,0.1c3,0.1,5.8-0.4,8.4-1.7
		c3.1-1.5,6.3-2.3,9.6-0.6c0.7,0.3,1.6,0.3,2.4,0.3c4.1,0.2,8.1,0.4,12.2,0.9c0.8,0.1,1.6-0.1,2.3-0.4c2.3-0.8,2.4-1.7,0.6-3.6
		c-0.7-0.7-1.2-1.5-1.8-2.2c-2.7-2.9-5.5-5.9-8.3-8.7c-0.5-0.5-1.7-1-2-0.8c-2.7,2.5-6.7,2.6-9.2,4.9c-3.5,3.1-7.6,3.1-11.5,4.1
		c-0.9,0.2-2,0-2.9,0.3C329.5,142,322.6,143,314.9,144.1z M370.1,99.1c0.2,0,0.4,0,0.6,0.1c0,2.1-0.1,4.2,0,6.2
		c0.2,2.2,0.4,4.5,1,6.6c0.8,2.6,1.9,3,4.4,2c0.7-0.3,1.5-0.7,2.1-1.1c6.2-3.8,6.7-5.2,3.3-11.6c-3.1-5.9-5.1-12.1-6.6-18.6
		c-0.5-2.2-1.6-4.2-2.5-6.2c-0.3-0.5-1.2-0.8-1.9-1.1c-0.3,0.7-1,1.4-1,2.1c0.2,1.7,0.7,3.4,1,5.2c0.3,1.7,0.9,3.5,0.8,5.2
		C371.1,91.5,370.5,95.3,370.1,99.1z M287.5-165.2c0,0.1-0.1,0.3-0.1,0.4c-0.8,0-1.6-0.1-2.4,0c-0.6,0.1-1.1,0.4-1.7,0.7
		c0.2,0.6,0.3,1.3,0.7,1.6c2.2,1.8,4.5,3.6,6.8,5.3c1.5,1.1,3.1,2.2,4.7,3.3c1.2,0.8,2.1,0.4,2.7-0.9c0.5-1,1-2,1.2-3.1
		c0.6-3.1,0-4.3-3.2-5.2C293.4-164,290.5-164.5,287.5-165.2z M357.7,62.8c1.7-5.8,1.7-9,0.2-12.1c-1.9-3.7-3.8-7.4-5.7-11.1
		c-0.1,0-0.3,0.1-0.4,0.1C353.7,47.1,355.6,54.4,357.7,62.8z M333-59.2c-0.9,2.4-1.6,4.1-2.4,5.9c-0.5,1.1-1.9,2.7-1.5,3.2
		c0.7,1,2.3,1.5,3.5,2.1c0.7,0.4,1.3,1.1,2,1.2c0.5,0.1,1.5-0.8,1.5-1.1C335.2-51.4,334.2-54.9,333-59.2z M320.8-99.4
		c-0.3-2.4-0.6-4.5-0.9-6.7c-0.1-0.7-0.5-1.7-1-2c-1.2-0.6-2.5-0.9-3.8-1.2c-0.2,0-0.8,0.8-0.7,1
		C315.7-104.9,315.7-100.5,320.8-99.4z M361.2,7.3c0.3-1.5,1.9-3,0-4.2c-2.4-1.6-4.9-3-7.4-4.3c-0.3-0.1-1,0.1-1.2,0.3
		c-0.2,0.3-0.1,1,0.2,1.2C355.6,2.6,358.4,4.9,361.2,7.3z M390.5,111.8c2.7,1.3,4.8,2.4,6.9,3.3c1,0.4,1.9,0,2-1.3
		c0.2-1.7,0-2.8-2.1-3.5C394.8,109.5,393.1,110.6,390.5,111.8z M290.3-142c-0.7,0.1-1.6,0.2-2.5,0.4c-2.7,0.6-3.2,1.5-2.2,4
		c0.8,1.8,1.7,3.4,2.7,5.4C289.1-135.8,289.7-138.8,290.3-142z M377.4-128.3c-5.2-1.9-9.6-3-14.5-2.3
		C366.7-127.9,368-127.7,377.4-128.3z M335.4-61.7c-0.3-2-0.6-4-0.9-6c-0.3-2.2-0.6-4.4-1-6.6c-0.4-1.8-0.9-3.6-1.5-6.3
		C331.5-74.8,333.2-65.5,335.4-61.7z M305.1-144.5c-0.3,0.2-1.5,0.5-2,1.2c-0.3,0.4,0.5,1.7,0.9,2.4c0.3,0.5,0.8,1,1.3,1.4
		c0.7,0.7,1.4,0.8,1.8-0.2c0.3-0.7,0.6-1.5,0.8-2.2C308.5-143.9,308-144.5,305.1-144.5z M341.5-136c2.9,0,5.1,0.2,7.3-0.1
		c1.5-0.2,1.4-1.6,1-2.6c-0.1-0.3-1.4-0.5-1.9-0.3C345.9-138.2,343.9-137.2,341.5-136z M335.3-172.7c1.5,3.1,4.8,5.3,9,5.8
		C341.7-169.7,338.6-171.2,335.3-172.7z M352.2,53.3c-0.7,1.2-1.2,1.9-1.5,2.7c0,0.1,0.9,0.9,1.4,0.9c1.1-0.1,1.7-0.7,1.2-1.9
		C353,54.5,352.7,54.1,352.2,53.3z M293.1-131.7c-0.3,0-0.5,0-0.8,0c-0.1,1.1-0.3,2.3-0.4,3.4c0,0.3,0.5,0.6,0.8,0.9
		c0.2-0.3,0.7-0.6,0.7-1C293.4-129.4,293.3-130.5,293.1-131.7z M283.7-135.3c-0.2,0.2-0.4,0.4-0.6,0.6c0.3,0.7,0.6,1.4,1,2
		c0.4,0.5,0.9,0.9,1.4,1.3c0.2-0.2,0.3-0.3,0.5-0.5C285.2-133,284.4-134.2,283.7-135.3z M332.5-132.9c-0.2-0.2-0.4-0.3-0.6-0.5
		c-0.7,0.7-1.4,1.4-2,2.2c-0.1,0.1-0.1,0.4,0,0.4c0.2,0.1,0.6,0.3,0.7,0.2C331.3-131.4,331.9-132.2,332.5-132.9z M302.4-152.3
		c-0.4-0.4-0.7-0.9-1.1-1.3c-0.1-0.1-0.4,0.2-0.7,0.3c0.3,0.6,0.6,1.2,0.9,1.8C301.8-151.7,302-151.9,302.4-152.3z M321.6-139.8
		c-1.5-0.4-1.9-0.7-2-0.6c-0.5,0.5-0.9,1.1-1.3,1.7c0.2,0.1,0.5,0.3,0.7,0.2C319.7-138.7,320.4-139.1,321.6-139.8z M296-128.4
		c0.5,0.4,0.9,0.8,1.3,1.1c0.2,0.1,0.5-0.1,0.8-0.2c-0.4-0.4-0.7-0.9-1.1-1.2C296.9-128.9,296.5-128.6,296-128.4z M351.4-132.6
		c-0.6,0-1-0.1-1.4-0.1c0,0-0.1,0.5,0,0.5c0.3,0.1,0.6,0.1,0.9,0.1C351-132.1,351.1-132.4,351.4-132.6z M311.7-144.1
		c-0.1-0.3-0.2-0.6-0.5-0.7c-0.1-0.1-0.5,0.1-0.7,0.1c0.1,0.3,0.2,0.6,0.4,0.8C311.1-143.8,311.4-144,311.7-144.1z"/>
	<path d="M325.4-17.9c0.7,1.9,1.7,3.8,2,5.8c0.4,2.4,1.1,4.3,3.4,5.5c0.4,0.2,0.6,1.4,0.5,2c0,0.3-1.3,0.7-1.6,0.5
		c-3.9-2.2-7.5-0.5-11,0.9c-1,0.4-1.9,1-2.7,1.7c-2.2,2-4.7,2.4-6.9,0.5c-1.9-1.7-3.9-1.9-6.2-1.9c-2.5,0-5.2,0.6-7.4-1.5
		c-0.3-0.3-1.5,0.1-2,0.5c-1.9,1.4-3.1,3.2-3.6,5.6c-0.4,2-1.7,3.5-3.8,3.9c-2.3,0.5-3.8-0.5-4-2.9c-0.1-0.8,0.1-1.6,0-2.4
		c-0.2-0.9-0.5-1.8-0.8-2.7c-0.8,0.4-1.6,0.7-2.3,1.2c-1.6,1.3-3.2,1.5-4.8,0.3c-1.6-1.2-2.1-2.7-1.5-4.7c0.5-1.5,0.8-3.1,1.4-4.6
		c0.6-1.6-0.1-2.4-1.5-2.9c-0.8-0.3-1.6-0.4-2.3-0.6c-3-0.9-3.6-2.8-1.2-4.8c3.5-3.1,6.6-6.5,9.3-10.3c1.2-1.7,3.1-2.7,5.5-2
		c4,1.1,8,2.2,12,3.3c4.8,1.3,9.6,2.7,13,6.8c0.4,0.5,1.7,0.9,2,0.7c2.1-1.4,5.2-0.9,6.4-3.9c0.2-0.4,0.6-0.8,0.9-1.1
		c3.3-2.5,6.6-5,10-7.4c2-1.4,3-3.3,3.3-5.7c0.1-1.4,0.9-2.2,2.2-1.8c1.4,0.4,1.9,1.4,1.3,3c-1.2,3.5-2.1,7.1-6.2,8.6
		c-0.9,0.3-1.4,1.6-2.2,2.4c-1,1.1-0.7,1.9,0.2,2.9c1.3,1.4,2.4,3,3.6,4.5c2.2,2.6,3,5.6,3.7,8.8c0.1,0.4-0.3,1.3-0.7,1.4
		c-0.5,0.1-1.4-0.1-1.7-0.5c-0.7-1.1-1.2-2.3-1.8-3.4c-1.3-2.2-2.6-4.4-3.9-6.5C325.9-18.2,325.6-18.1,325.4-17.9z M287-18.9
		c0,3.9,1.5,5.5,5,5.1c3.3-0.4,7.1,0,8.8,2.4c2.2,3.1,5.8,4,8.1,6.6c0.8,0.9,1.7,0.8,2.5-0.1c0.6-0.6,1.2-1.1,1.7-1.7
		c2.2-3.2,4.6-6.3,8.6-7.3c0.4-0.1,0.9-1,0.8-1.5c-0.3-3-2.5-4.5-5.4-3.6c-1.8,0.6-3.6,1.5-5.4,2.1c-2.8,1-3.6,0.6-5.7-1.8
		c-1.1-1.3-2.5-2.5-4.1-3.2c-3.5-1.5-7.6-1.3-10.7-3.9c-0.2-0.2-0.8,0.2-1.2,0.4c-0.1,0.1,0,0.6,0.2,0.9c1,1.7,2.6,2.2,4.5,2.3
		c6.4,0.3,10.6,4.2,13.8,9.4c0.3,0.5-0.1,1.4-0.1,2.1c-0.6-0.1-1.4,0.1-1.8-0.3c-1.2-1.1-2.4-2.2-3.2-3.5c-1.7-2.9-4.4-4.3-7.5-4.6
		c-2.5-0.2-4.8-0.5-6.7-2.2c-1.2-1-1.7,0-2.1,0.9C287-19.9,287-19.2,287-18.9z M286.9-26.3c-4.3-1.9-4.4-2-5.8-0.4
		c-2.6,3.1-5,6.3-7.6,9.6c2.7,1.2,4.3,0.4,5.6-1.7c2-3.3,4.2-5.2,7.2-6.8C286.5-25.7,286.6-25.8,286.9-26.3z M282.9-10.8
		c0.8,3.8,1.7,7.6,2.6,11.7C288.8-3.1,288.6-4,282.9-10.8z M279.8-13.4c-2.9,2.3-3.2,5.5-4.2,8.2c-0.1,0.2,0.1,0.7,0.4,0.8
		c0.2,0.1,0.7,0.1,0.8,0C278.2-7.1,280.6-9.5,279.8-13.4z M318.9-7.3c0.9-0.2,1.3-0.3,1.7-0.4c1.5-0.4,3.1-0.7,3.7-2.5
		c0-0.1-0.1-0.3-0.2-0.3c-2-0.8-3.3,0.3-4.4,1.7C319.4-8.5,319.3-8.2,318.9-7.3z M295.9-10.6c-0.2,0.3-0.5,0.5-0.7,0.8
		c2,1,2.1,4.9,6,3.7C299.2-7.8,297.5-9.2,295.9-10.6z"/>
	<path d="M351.2,119.5c1.3,1.6,4,1.4,3.4,3.5c-0.8,2.5-2.6,0.5-4,0.3c-1.7-0.2-3.5-0.5-5.1-1.1c-1.5-0.5-1.8-1.9-0.6-3
		c0.7-0.6,1.6-1.1,2.4-1.5c1.7-0.8,3.5-1.5,5.3-2.1c0.5-0.2,1.2,0.1,1.8,0.2c-0.2,0.7-0.2,1.5-0.6,2
		C353.2,118.4,352.2,118.8,351.2,119.5z"/>
	<path d="M372.4-110.7c1.2,2.4,2.4,4.8,3.5,7.3c0.1,0.3-0.2,0.8-0.3,1.2c-0.4-0.2-1-0.2-1.2-0.5c-0.5-1-0.8-2.1-1.1-3.1
		c-0.4-1.5-0.7-3.1-1.1-4.6L372.4-110.7z"/>
	<path d="M100.4,44.5c-1.3,1.4-1.9,2.4-2.7,3c-1.3,0.8-1.9,1.6-1.2,3.1c0.2,0.5,0,1.2-0.3,1.7C96,52.7,95.4,53,95,53
		c-0.3,0-0.9-0.5-0.9-0.8c-0.1-3.7-0.1-7.4,0-11.1c0-0.4,0.8-1.2,1.2-1.2c0.8,0.1,2.2,0.4,2.4,0.9c0.7,2.1,1.1,1.3,2,0.1
		c1.2-1.4,2.4-1.2,2.6,0.3c0.3,2.4,0.3,4.8,0.4,7.1c0,0.2-0.6,0.6-1,0.7c-0.2,0.1-0.6-0.3-0.7-0.5C100.7,47.5,100.6,46.3,100.4,44.5
		z"/>
	<path d="M96.9,30.1c1.1-2.9,3.7-1.9,5.8-2c2.4-0.1,4.5,0.8,5.9,2.6c0.4,0.5,0,1.8-0.3,2.5c-0.1,0.3-1.5,0.3-1.9-0.1
		c-1.4-1.1-2.9-1.4-4.5-0.6c-2,0.9-1.8-0.1-1.5-1.5c0-0.1-0.9-0.5-1.3-0.6C98.3,30.3,97.6,30.2,96.9,30.1L96.9,30.1z"/>
	<path d="M113.5,35c-0.3,0.9-0.5,1.5-0.7,2.1c-0.5,0.9-1.1,2.5-1.5,2.4c-1.5-0.1-1.7-1.6-1.7-2.9c0-1.5,0.7-2.5,2.1-2.6
		C112.2,34,112.8,34.6,113.5,35z"/>
	<path d="M184.2,84.4c0,1,0,2,0,2.9c-0.7-1.3-1.3-2.6-2-3.9C182.9,83.7,183.5,84,184.2,84.4z"/>
	<path d="M167.1,75.4c0.3-0.2,0.5-0.4,0.8-0.5c0.2,0.3,0.4,0.7,0.6,1c0,0.1-0.3,0.3-0.3,0.3C167.8,75.9,167.5,75.7,167.1,75.4z"/>
	<path d="M184.1,87.3c0.3,0.7,0.7,1.3,1,2C184.8,88.6,184.5,87.9,184.1,87.3z"/>
</g>
</svg>
