<?xml version="1.0" encoding="utf-8"?>
<!-- Generator: Adobe Illustrator 18.0.0, SVG Export Plug-In . SVG Version: 6.00 Build 0)  -->
<!DOCTYPE svg PUBLIC "-//W3C//DTD SVG 1.1//EN" "http://www.w3.org/Graphics/SVG/1.1/DTD/svg11.dtd">
<svg version="1.1" id="Layer_1" xmlns="http://www.w3.org/2000/svg" xmlns:xlink="http://www.w3.org/1999/xlink" x="0px" y="0px"
	 viewBox="0 0 776 582" enable-background="new 0 0 776 582" xml:space="preserve">
<g>
	<g>
		<path d="M182.4,551c0.3,2.2,0.6,4.4,0.9,6.6c0,0.2-0.6,0.6-1,0.8c-0.1,0.1-0.6-0.3-0.7-0.5c-0.5-1.7-1-3.4-1.9-5.1
			c0,1.4,0,2.8-0.2,4.2c-0.1,0.5-0.6,0.9-1,1.4c-0.3-0.5-0.9-0.9-0.9-1.4c-0.5-4.9-1-9.9-1.4-14.6c-1.1,2.2-0.9,2.2-0.8,4.5
			c0.2,2.5,0,5.1,0,8.2c-2.9-2.5-5.4-2.3-8.4-1.5c-5.7,1.4-10.7,4.5-16.2,6.2c-6.9,2.1-13.7,4.9-21,4.7c-3.8-0.1-7.6-1-11.4-1.4
			c-2-0.2-4.1,0-6.1,0c-0.3,0-0.6,0.3-0.9,0.3c-1.9,0-4.1,0.9-5.3-1.3c-1.3-2.5,1.2-3.2,2.5-4.5c5.7-5.5,12.5-9.5,19.6-13
			c2.6-1.3,5.5-1.9,8-3.2c4.3-2.1,8.5-4.5,13.4-7.1c-1.6-0.6-2.5-1.1-3.5-1.3c-5.8-1.1-11.7-2.1-17.4-3.4c-2.3-0.5-4.5-1.7-6.5-2.9
			c-1.4-0.8-1.3-2.1,0.3-2.9c2.7-1.5,5.2-3.1,8.6-2.9c1.8,0.1,3.7-0.8,5.9-1.3c-1.8-3.2-4.1-5-6.9-6.4c-0.3-0.2-0.7-0.8-0.7-1.1
			c0.1-0.3,0.6-0.8,1-0.8c4.4-0.4,8.4-0.2,10.8,4.5c0.6,1.2,1.7,2.8,2.8,3c2.2,0.4,4.5,0.2,6.7-0.1c1.3-0.2,1.7-1.4,1.4-2.7
			c-0.2-1-0.5-2.1-0.9-3.4c2.6,0.7,3,2.7,4,4.3c0.5,0.8,1.1,1.3,1.8,0.4c2-2.5,1.4-8.4-1-10.3c-0.5-0.4-2.4,0.5-1.3-1.3
			c0.6-1.1,1.9-1.7,2.9-0.8c1.5,1.2,2.6,2.7,4.2,4.4c0.9-1.2,1.7-2.4,2.6-3.5c0.6-0.7,1.3-1.5,2.1-1.9c0.3-0.2,1.2,0.3,1.6,0.6
			c0.2,0.2,0.2,1,0,1.2c-2.3,1.9-2.6,4.7-3.4,7.3c-0.8,2.6,0.3,3.9,2.8,4.2c3,0.3,5-0.6,6-3.6c2.2-6.9,4.9-13.6,6.7-20.6
			c1.6-6.2,2.2-12.6,3.2-18.9c1-7.1,1.9-14.3,2.8-21.4c0.2-1.8,0.4-3.6,0-5.3c-1.3-5.1-0.7-10.3-0.9-15.4c-0.1-2.2-0.5-4.4-0.7-6.7
			c-0.1-0.5-0.2-1-0.1-1.4c1.8-8.5,0.4-17.1,0.9-25.6c0.5-7.5,1.3-15,1.8-22.5c0.4-5.6,0.8-11.2,1-16.8c0.4-11.9,0.2-23.9,1.2-35.7
			c0.9-10.3,0.4-20.6,0.8-30.9c0.3-6.7,0.3-13.5,1-20.2c0.8-7.5,1.9-14.9,3.3-22.3c1.4-7.2,2.6-14.5,4.3-21.7
			c2.1-8.9,4.6-17.7,6.4-26.6c2-9.9,3.5-19.8,5.3-29.8c1.8-10.1,3.7-20.1,5.4-30.2c1.5-8.4,2.8-16.7,4.3-25.1
			c0.9-5.2,1.9-10.4,3-15.6c1.7-7.8,3.7-15.6,5.3-23.4c1.3-6.7,2.2-13.6,3.2-20.4c0.1-0.9,0-1.9,0-3.5c-5.7,5.1-10.8,10.2-19.2,6.4
			c2.8-2.8,3.5-6.2,4.1-9.7c0.3-1.9-0.4-2.2-1.9-2.5c-2.4-0.4-4.7-0.8-7-1.5c-2.4-0.7-2.6-1.8-1.1-3.9c0.6-0.8,1.2-1.4,2.4-2.9
			c-2.8,0.7-4.8,1.4-6.8,1.7c-3.1,0.4-5.9,1.4-8.6,3.1c-2.8,1.7-6.3,2.4-9.7,1.5c-1.5-0.4-1.8-1.3-0.7-2.3c0.5-0.4,1.1-0.6,1.6-1
			c0.4-0.3,0.7-0.7,1-1c-1.5-1-3.1-1.9-4.4-3.1c-2-1.9-1.4-3.6,1.3-4.4c1.1-0.3,2.1-0.8,3.2-1.2c-0.8-1.6-1.5-2.7-3.4-1.8
			c-1,0.5-2.1,0.8-3.2,1.2c-2.5,1-2.4,1-3.9-1.7c-0.4-0.8-1.2-1.4-2-1.9c-1.8-1-3.7-1.9-5.8-3c1.9-1.9,3.6-3.2,6-3.5
			c1.6-0.2,3-1.2,4.6-1.5c2-0.3,2.6-1.7,3.3-3.1c0.1-0.1,0.3-0.1,0.4-0.2c0.1-0.1,0.1-0.2,0.1-0.3c-0.2,0.2-0.3,0.3-0.5,0.5
			c-2.5,1.1-5,2.1-7.5,3.3c-1.4,0.7-2.3,0.3-2.2-1.3c0.1-2,0.4-4.1,0.8-7.1c-2.8,5-7,6.9-11.2,8.8c-1.3,0.6-1.7,1.2-1.5,2.9
			c1,5.5,0.4,10.7-4.5,14.4c-1.3,1-2.6,1.9-4,2.6c-1.8,0.8-3.5-0.5-2.8-2.3c2.3-6.2-1.1-11.3-3-16.6c-0.6-1.7-2.1-2.2-4.3-1.8
			c-1.6,0.3-1.6,1.4-1.5,2.6c0.2,3.7-2.1,6-4.5,8.1c-1.8,1.5-2.8,1.1-3.4-1.1c-0.3-1.2-0.7-2.5-0.9-3.7c-0.3-2.3-0.9-4-3.7-4.2
			c-0.7,0-1.8-1.7-1.8-1.8c2.5-2.7-1.1-3.6-1.6-5.4c-0.2-0.7-0.7-1.3-1.5-2.6c-1.1,2.9-2.1,5.3-3,7.6c-0.4,1-0.6,2.2-1,3.2
			c-0.9,2-1.5,2-3.1,0.4c-5-4.8-6.4-15.1-2.6-20.5c0.4-0.6,0.6-1.5,0.8-2.2c1,0,1.9,0,2.9,0c-0.7,1.4-1.3,3-2.1,4.3
			c-2.9,4.5-1.7,8.9,0.3,13.3c0.3,0.5,0.9,0.9,1.3,1.3c0.4-0.4,1-0.8,1.3-1.3c2.7-5.6,3.5-11.6,4.1-17.7c0.6,0,1.3,0,1.9,0
			c0.2,3.1,2.4,2.9,4.6,2.9c2.6,0,2.6,0,2.2-2.9c1,0,1.9,0,2.9,0c0.7,1.6,1.8,2.2,3.4,1.6c1.2-0.4,2.2-1.1,3.4-1.6
			c1.6,0,3.2,0,4.9,0c-0.7,0.6-1.2,1.6-2,1.9c-2.4,0.9-4.9,1.4-7.3,2.1c-1.7,0.5-3.4,1-5.8,1.8c5.1,2.2,9.2,4.3,14.1,3.9
			c2.2-0.2,3.7-0.8,4.7-2.6c1.4-2.4,2.7-4.7,4-7.1c4.2,0,8.4,0,12.6,0c3.3,1.3,6.5,1.3,9.7,0c1.6,0,3.2,0,4.9,0
			c-1.1,2.8-2.2,5.6-3.2,8.5c-0.8,2.4-2.2,4.6-1.4,7.3c8-1.5,14.6-8.5,13.3-15.8c2.3,0,4.5,0,6.8,0c0.5,0.6,0.9,1.3,1.4,1.8
			c0.6,0.7,1.3,0.9,1.4-0.4c0-0.5,0.1-0.9,0.1-1.4c1,0,1.9,0,2.9,0c-1.7,3.8-0.8,7.8-0.7,11.8c0,0.9,1,2.2,1.8,2.4
			c0.8,0.2,2.1-0.6,2.7-1.3c2.4-3,4.8-5.9,5.7-9.8c0.2-1.1,0.7-2.1,1.1-3.1c1,0,1.9,0,2.9,0c-0.1,0.3-0.2,0.6-0.3,0.9
			c-0.9,1.4,0,2.1,1.1,2.3c1.6,0.3,0.9-1.1,1.1-1.8c0.1-0.4,0-0.9,0-1.4c0.6,0,1.3,0,1.9,0c0.1,1.7,0.1,3.4,0.2,5.1
			c0.2,0,0.5,0,0.7,0c0.7-1.7,1.3-3.4,2-5.1c1,0,1.9,0,2.9,0c-1.7,3.5-3.3,7.2-5.2,10.6c-1.7,3-3.8,5.7-5.7,8.5
			c1.8,0.4,3.5,0.4,4.9-1c3.6-3.6,7.4-7,10.9-10.7c1.9-2,2.7-4.7,2.9-7.4c0.6,0,1.3,0,1.9,0c0.2,1.8-0.5,4,2.7,4
			c0.9,0,1.9,1.1,2.7,1.8c2.4,2,2.6,1.9,3.5-1.1c0.4-1.3,0-1.7-1-2.1c-2.3-0.9-4.6-1.7-6.9-2.6c2.9,0,5.8,0,8.7,0
			c0.3,0.8,0.6,0.7,1,0c0.6,0,1.3,0,1.9,0c-0.5,1.5-0.9,3-1.5,5c2.9-2.2,2.9-2.2,3.4-5c0.6,0,1.3,0,1.9,0c0.7,1.7,1.3,3.6,2.2,5.2
			c1.5,2.7,2.2,2.7,4-0.2c1-1.6,1.7-3.3,2.5-5c0.6,0,1.3,0,1.9,0c0.2,1.5,0.4,2.9,0.7,5.1c1.3-2,2.3-3.5,3.2-5.1c1,0,1.9,0,2.9,0
			c0.3,0.7,0.6,0.8,1,0c1.6,0,3.2,0,4.8,0c-2.7,2-5.3,4.1-8.1,6c-4.2,2.8-5.6,6.4-4,11.2c5.5-2.5,12.8-9.9,14.7-14.7
			c0.3-0.7,0.2-1.6,0.3-2.4c2.3,0,4.5,0,6.8,0c2.6,3.8,5.9,6.7,10,8.8c4.4,2.4,8.8,1.6,11.8-2.4c0.1-0.2-0.2-0.7-0.3-1.1
			c-2.9,1.6-4.5-1.8-7.1-1.8c-1.9,0-3.9-1.4-4.7-3.6c1.3,0,2.6,0,3.9,0c0.6,1,1.3,1.1,1.9,0c1,0,1.9,0,2.9,0c2.3,2.5,2.4,2.5,5.8,0
			c1.3,0,2.6,0,3.9,0c-0.4,1.7-0.8,3.4-1.1,5.1c-0.6,3-1.8,6-1.5,8.9c0.3,3.1,0.9,5.9-0.2,8.9c-0.2,0.5,0.2,1.2,0.3,1.8
			c0.7-0.2,1.6-0.2,2-0.7c5.2-5.2,9.4-15,4.3-24c1,0,1.9,0,2.9,0c0.5,0.4,1,0.9,1.6,1.3c0.1-0.4,0.2-0.9,0.4-1.3c1,0,1.9,0,2.9,0
			c-0.8,4.6-1,9.4-3.4,13.7c-0.4,0.8-0.4,1.8-0.5,2.8c-0.1,0.1-0.3,0.1-0.4,0.2c-0.1,0.1-0.1,0.2-0.1,0.3c0.1-0.2,0.3-0.3,0.4-0.5
			c3.8-1.8,7-4.2,8-8.8c0.6-2.6,1.8-5.1,2.7-7.7c1.3,0,2.6,0,3.9,0c0.1,0.4,0.2,0.8,0.3,1.3c0.2-0.4,0.4-0.8,0.7-1.3
			c0.6,0,1.3,0,1.9,0c-0.4,3.1-1.2,6.2,0.8,9.6c1.3-1.6,2.2-3.3,3.6-4.6c1.3-1.3,3-2.2,4.4-3.4c0.5-0.4,0.6-1.1,0.9-1.7
			c1,0,1.9,0,2.9,0c-0.4,0.9-1,1.7-1.2,2.6c-0.1,0.6,0.3,1.7,0.7,1.8c2.2,0.8,4.4,1.4,7.5,2.3c-1.5-1.5-2.6-2.4-3.4-3.4
			c-0.9-1-1.7-2.2-2.6-3.3c1,0,1.9,0,2.9,0c2.1,4.6,6.3,3.2,10,3.3c0.2,0,0.6-0.7,0.6-1.1c-0.2-0.8-0.5-1.5-0.8-2.2c1,0,1.9,0,2.9,0
			c0.6,1.1,1.3,1.1,1.9,0c1,0,1.9,0,2.9,0c-0.9,2-1.9,4-2.7,6.1c-0.2,0.6,0.2,1.5,0.4,2.2c0.6-0.1,1.2-0.1,1.8-0.4
			c1.9-0.9,3.7-1.8,5.5-2.8c2.1-1.2,4-2.6,4.8-5.1c0.6,0,1.3,0,1.9,0c0.1,1.8,1.2,3,2.7,3.5c0.2,0.1,1.1-1.8,1.6-2.7
			c0.2-0.3,0.3-0.5,0.5-0.8c1.3,0,2.6,0,3.9,0c-0.6,0.5-1.2,0.9-1.8,1.5c-0.7,0.7-2.1,1.1-1.4,2.6c0.5,1.2,1.3,1.7,2.6,1.6
			c5.6-0.5,11.1-1.2,15.1-5.7c1,0,1.9,0,2.9,0c-0.8,3-0.8,3,1.8,5.2c-0.3-1.8-0.6-3.5-0.8-5.2c0.6,0,1.3,0,1.9,0
			c1.2,3.7,3.2,6.8,6.5,8.9c1.4,0.9,2.3,0.5,2.1-1c-0.4-2.7-1.2-5.3-1.8-7.9c0.6,0,1.3,0,1.9,0c0.5,0.4,1,0.9,1.6,1.3
			c0.1-0.4,0.2-0.9,0.4-1.3c1.3,0,2.6,0,3.9,0c-2.9,2.3-2.7,5.9-3.6,9c-0.4,1.2,0.2,2.7,0.3,4.1c1.5-0.4,3-0.7,4.4-1.3
			c0.8-0.4,1.2-1.4,1.8-2.2c2.3-2.9,2-6.3,2-9.6c1.6,0,3.2,0,4.9,0c0,0.3,0,0.6,0,1c0.1,1.4,0.6,2.5,2.1,2.8c1.5,0.2,2.3-0.7,2.8-2
			c0.2-0.6,0.6-1.1,0.9-1.7c3.2,0,6.5,0,9.7,0c2.3,1.4,4.5,1.5,6.8,0c2.6,0,5.2,0,7.8,0c-0.6,1.2-1.2,2.3-1.7,3.5
			c-2.4,5.4-4.8,10.8-4.1,17.1c0.3,2.6,1.4,3.5,3.7,2.3c5.5-3.2,8.4-7.4,6.9-14.6c-0.6-2.8-1.9-5.4-2.8-8.1c1.6,0,3.2,0,4.9,0
			c1.2,1,2.3,2.1,3.6,3c0.7,0.5,1.9,0.9,2.5,0.6c1.9-1,3.7-2.3,5.5-3.6c1.6,0,3.2,0,4.8,0c1.4,3.2,2.8,6.4,4.4,9.4
			c0.3,0.5,1.7,0.8,2.4,0.6c3.2-0.8,6.5-1.7,9.6-2.9c3.2-1.2,5.8-3.3,8.7-6.2c-6.6,0.3-12.6-0.9-18.3,1.4c-2.7,1.1-1.9-1.1-2-2.4
			c8.1,0,16.2,0,24.2,0c1,0.3,1.9,0.6,2.9,1c0.1,0.1,0.1,0.3,0.2,0.4c0.1,0.1,0.2,0.1,0.3,0.1c-0.2-0.2-0.3-0.3-0.5-0.5
			c0-0.3,0-0.6,0-1c1,0,1.9,0,2.9,0c1.6,2.6,4.7,2.4,6.9,3.7c0.3,0.2,1.3-0.2,1.6-0.6c0.5-0.9,0.8-2,1.2-3.1c1,0,1.9,0,2.9,0
			c-0.3,1.3-0.7,2.6-1,3.9c-0.1,0.2-0.3,0.3-0.4,0.5c0.2-0.1,0.3-0.3,0.5-0.4c1.3-1.3,2.6-2.6,3.9-3.9c2.6,0,5.2,0,7.8,0
			c1.8,3.2,5.1,4.3,8.3,5c4.5,1.1,6.1-0.3,6.3-5c0.6,0,1.3,0,1.9,0c0.3,1.5,0.9,3,1,4.6c0.3,3.5,1.3,4.9,4.8,6.2
			c5.3,2,10.5,2.5,15.7,0.1c-3.9-3.6-7.9-7.3-11.8-10.9c1.3,0,2.6,0,3.9,0c1,0.6,1.9,1.3,2.9,1.9c0.1,0.1,0.1,0.3,0.2,0.4
			c0.1,0.1,0.2,0.1,0.3,0.1c-0.2-0.2-0.3-0.3-0.5-0.5c0-0.6,0-1.3,0-1.9c1,0,1.9,0,2.9,0c0.8,0.6,1.6,1.6,2.5,1.8
			c2.2,0.6,4.5,0.9,7,1.3c0.1-0.9,0.1-2,0.2-3.1c3.2,0,6.5,0,9.7,0c2.4,0.9,4.8,2.1,7.4,2.7c1.8,0.4,3.8,0.2,5.6-0.2
			c1.7-0.3,1.1-1.5,0.6-2.6c2.3,0,4.5,0,6.8,0c-2.1,2.6-4.3,5.1-6.3,7.7c-1.2,1.6-0.8,3,1,3.5c1.2,0.4,2.6,0.5,3.8,0.2
			c0.7-0.1,1.1-1.3,1.7-1.9c1.2-1,2.4-2.2,3.8-2.8c2.9-1.2,6-2,9-3c2.6-0.9,5.8-0.9,7.4-3.8c1.6,0,3.2,0,4.8,0
			c-1.7,1.3-3.5,2.7-5.5,4.2c3.1,1.7,5.8,1.8,9,0.4c6.9-3,13.8-2.3,20.6,0.6c2.4,1,4.8,1.6,7.2,2.5c0.5,0.2,1.3,0.7,1.3,1
			c0,0.5-0.5,1.3-0.9,1.5c-4.7,2-9.2,4.7-15.4,4.4c2.1,2.9,3.8,5.3,5.6,7.7c0.7,0.9,1.7,1.6,2.2,2.6c1.2,2.4,3.4,2.7,5.7,2.7
			c4.7,0.1,8.6,1.5,11,6.1c2.1,4,4.9,7.5,9.2,9.7c0.5,0.3,1.3,1,1.2,1.3c-0.3,0.7-0.8,1.4-1.4,1.7c-5.2,2.2-10.5,2.8-16.1,1.9
			c-2.3-0.4-2.8,0.1-2.4,2.2c0.4,2,1.1,4,1.4,6.1c0.2,1.6,0.2,3.2,0.2,4.8c0,0.8-0.5,1.6-0.3,2.3c0.5,3.3,0.5,3.3-2.4,3.4
			c-2.7,0.1-4.5-1.7-6.3-3.1c-1.8-1.4-3.4-3-4.8-4.8c-0.8-0.9-1.6-2.4-1.3-3.3c0.7-2.2-0.4-3.2-1.7-4.5c-1.3-1.2-2.7-2.4-3.7-3.8
			c-1.9-2.7-3-5.7-3.1-9.1c-0.3,0.8-0.5,1.6-0.7,2.4c-0.3,1.2-0.3,2.6-0.9,3.5c-2.2,3.2-4.5,6.2-7.1,9.1c-0.8,1-2.4,1.5-3.7,1.9
			c-1.4,0.3-2.4-0.4-2.5-2.1c-0.1-3.1,0.2-6.1,1.2-9c1.4-3.9,1-4.5-2.6-6.4c-2-1-3.9-2.2-6.1-3.5c-1.1,3.2-2.1,6.4-3.2,9.6
			c-0.2,0.6-1.3,1.6-1.6,1.5c-0.8-0.2-1.9-1.1-1.9-1.7c-0.2-3.8-2.8-6.1-5.2-8.4c-1.5-1.4-3.1-2.8-4.6-4.2c-1.1-2.1-2.1-4.2-3.4-6.1
			c-0.4-0.5-2-0.3-2.9,0c-0.6,0.2-1,1.3-1.1,2c-0.8,4.4-1.8,8.8-0.8,13.5c2.6-1.7,4.2-4,5.4-6.6c0.6-1.2,0.9-2.9,2.9-2.8
			c-0.1,1.1,0.2,2.5-0.3,3.3c-2,3.1-4.2,6.1-6.6,8.9c-1.1,1.3-2.9,2-4.5,2.7c-1.1,0.5-1.8-0.2-1.6-1.4c0.1-0.3,0.2-0.6,0.3-0.9
			c2.3-4.2,1.9-8.7,2.1-13.2c0.1-1.9,0.7-3.7,1.1-5.6c0.2-0.9,0.9-2.2,0.5-2.7c-0.9-1.1-2.1-2-3.4-2.5c-1.3-0.5-4.4,1.6-4.9,3
			c-0.7,2.1-1.3,4.3-2,6.4c-0.5,1.5-0.8,3.1-1.4,4.6c-1.4,3.6-2.3,3.7-5,1.1c-4.8-4.5-6.6-10.1-5.7-16.5c0.3-2.2-1.2-2.8-2.2-3.9
			c-0.2-0.3-1-0.4-1.2-0.2c-0.3,0.2-0.6,0.9-0.4,1.2c1.2,3.2,0,6-1,8.9c-1.5,4.4-3,8.7-4.6,13.4c-4-3.1-6.8-6.4-7.7-11.1
			c-0.6-3.2-0.9-3.2-4.3-3.3c-1.9-0.1-4.1-0.7-5.5,0.1c-1.1,0.7-1.1,3.2-1.7,4.8c-1.2,3.3-2.4,6.6-3.7,9.9c-1.2,2.9-2.1,3-4.8,1.4
			c-2.6-1.6-3-4.4-4-7c-0.3-0.7-0.4-1.6-0.4-2.4c0-2.3-2.1-2.6-3.5-3.6c-0.2-0.1-1.5,1.2-2.3,1.9c-1.4,1.4-2.6,2.9-4.1,4.1
			c-0.8,0.6-2.1,1.3-2.9,1c-0.8-0.3-1.7-1.6-1.7-2.5c-0.1-2.9,0.2-5.8,0.4-8.7c0.1-1.3,1.3-2.7-0.6-3.7c-0.3,1.2-0.6,2.3-0.8,3.5
			c-0.6,3.9-1,7.9-1.9,11.8c-0.6,2.8-2,3.4-4.6,2.4c-4.3-1.6-7.6-4.3-9.1-8.7c-0.8-2.3-1.7-3.6-4.7-3.7c-2.5-0.1-5-1.8-7.6-2.8
			c-0.7,4.7-1.1,9.8-2.3,14.7c-0.6,2.5-2.3,4.9-3.8,7.1c-0.7,1-2.2,0.3-2.3-0.6c-0.4-3.5-2.4-6.8-1.1-10.3c0.9-2.5,0.6-4.6-1.4-6.6
			c-1.7-1.7-2.9-3.8-4.4-5.8c-0.2,0.4-0.3,0.7-0.5,1c-1.5,2.2-3.1,4.4-4.7,6.6c-3.5,0-3.7-3.4-5.6-5.2c-1.2-1.2-2-2.9-3.5-5.1
			c-0.5,0.9-0.8,1.7-1.3,2.3c-2.4,2.9-2.2,2.7,0,5.9c1.6,2.3,2.6,5.1,3.9,7.7c0.5,1.1,0.2,2.1-0.8,2.4c-1.3,0.3-2.7,0.1-4.1,0
			c0.2-0.7,0.2-1.7,0.7-1.9c1.9-0.9,1.6-2.1,0.7-3.5c-0.3-0.4-0.5-0.8-0.8-1.2c-3.9-5.7-2.8-4.9-9.7-2c1.9,1.2,3.6,2.2,5.2,3.3
			c1.1,0.7,1.4,1.6,0.3,2.8c-2.5,2.5-5.6,3.9-8.8,4.8c-1.2,0.3-2.8-0.5-4.1-1c-2.1-0.7-2.9-0.5-3.2,1.4c-0.8,6.8-6.7,9.4-10.9,13.4
			c-0.5,0.5-1.5,0.9-2.2,0.9c-1.4,0-2.8-0.3-4.2-0.5c0.2-1.2,0.3-2.5,0.7-3.6c2.1-5.3,0.9-6.9-4.7-6.5c-1.6,0.1-2.2,1-2.8,2.2
			c-1.3,2.3-2.6,4.7-4.2,6.9c-1,1.4-2.5,2.7-4.5,1.8c-1.7-0.8-2.3-2.5-1.9-4.9c0.1-0.5,0.3-0.9,0.4-1.4c0.2-1.5-0.1-2.5-1.9-2.6
			c-0.9-0.1-1.9-0.5-2.8-0.6c-0.2,0-0.7,0.7-0.6,1c0.1,0.4,0.5,0.8,0.8,1.2c2.4,2.7,1.9,6.1,1.8,9.3c-0.1,2.1-1.9,2.6-3.4,2.7
			c-2.7,0.1-5.4-0.2-8.2-0.4c-0.9,0-2.1-0.5-2.7-0.1c-3.8,2.5-8.3,3.1-12.5,4.5c-1.1,0.3-1.2,0.9-0.8,1.8c1.3,2.3,1.9,5.1,5.1,6
			c1.6,0.4,1.5,1.6,0.2,2.8c-1.9,1.8-4.2,2.2-6.7,1.8c-0.6-0.1-1.1-0.3-2.2,0.3c1.3,1.5,2.7,3,4,4.5c0.3,0.3,0.8,0.5,1.2,0.8
			c3.4,2.7,2.8,6.4-1.3,7.9c-1.8,0.7-3.7,0.7-5.6,1.1c-0.1-0.1-0.1-0.3-0.2-0.4c-0.1-0.1-0.2-0.1-0.3-0.1c0.2,0.2,0.3,0.3,0.5,0.5
			c0.7,1.6,1.3,3.3,2,4.9c1.2,2.5,1.6,4.9-0.8,7c-1.7,1.5-0.8,2.3,0.7,3.2c3.9,2.2,7,5.2,8.5,9.6c0.6,1.8,1.8,2.6,3.7,2.4
			c3.5-0.3,6.6,1.1,9.4,3c3.2,2.1,6.1,5,10.5,3.1c0.2-0.1,1.1,0.4,1.1,0.7c0.1,0.5-0.1,1.4-0.4,1.6c-2.3,1.5-4.5,3-7,4.2
			c-2.6,1.3-2.8,1.2-0.6,3.4c3.3,3.3,6.7,6.4,8,11.3c0.5,2,2.8,2.4,4.7,2.8c0.6,0.1,1.6,0.8,1.6,1.3c0.1,0.6-0.4,1.6-1,2
			c-2.2,1.7-4.7,1.8-7.3,1.1c-2.8-0.7-3.7-0.1-3,2.7c0.5,2,1.6,3.8,2.5,5.6c0.9,1.7,2,3.3,2.9,5c0.7,1.6,0.1,2.5-1.7,2.5
			c-2.9,0.1-5.8,0.5-8.5-1.3c-1.4-0.9-2-0.3-2.3,1.1c-0.2,1.1-0.7,2.2-0.8,3.3c-0.2,1.6,0.2,2.9,1.8,3.6c4.2,1.8,7.9,4.3,11.5,7
			c2.5,1.9,5.1,1.4,7.6-0.2c0.4-0.3,1.3-0.3,1.6,0c0.4,0.3,0.6,1.2,0.4,1.7c-1.4,3.2-3.7,5.6-6.8,7.2c-3.5,1.7-7.1,2.8-11.2,1.3
			c0.2,2.9,1.2,4.8,3.6,5.8c0.4,0.2,0.9,0.4,1.3,0.7c3.6,2.2,3.7,3.6,0.1,5.8c-0.7,0.4-1.4,0.7-2.2,1.1c-1.6,0.8-2.1,1.7-0.9,3.4
			c1.7,2.3,1.9,5,2,7.8c0.1,3.5,0.2,3.4,3.6,4.4c2,0.6,3.9,1.5,5.9-0.3c0.2-0.2,1.7,0.4,1.8,0.7c0.5,5.1,1.4,10.2-2.5,14.7
			c-2.1,2.4-4.6,2.7-7.4,2.4c-2.5-0.3-5.1-0.8-7.6-0.9c-5.6-0.2-11.2-5.7-10.8-11.4c0.2-2.3-0.7-2.9-2.2-3.6
			c-0.7-0.3-1.5-0.5-2.3-0.8c-3.8-1.5-4.6-3.1-3.5-7.1c0.9-3.3,1.8-6.5,2.9-9.7c1.1-3.2,1.7-6.1-1-8.9c-1.2-1.2-1.7-3.1-2.5-4.7
			c-1.5,0.8-2.8,1.6-4.2,2.2c-1.4,0.5-3.1,0.4-3.8-1.1c-0.3-0.8,0-2.2,0.6-3c2.2-2.9,3.4-6.2,4.5-9.5c1.5-4.6,3.6-8.5,8.3-10.7
			c2.3-1,4.1-3,6.1-4.7c1.3-1.1,2-2.5,1.1-4.3c-3.2,4.6-8,6.9-12.5,9.8c-1.4,0.9-2.6,0.3-2.6-1.4c0-1.3,0.1-2.6,0.4-3.8
			c0.3-1.2,0.8-2.4,1.3-3.6c0.9-2.2,2.6-4.5,2.5-6.7c-0.1-2.7-1.7-5.4-2.7-8.1c-0.9-2.3-1.4-2.3-3.2-0.6c-0.4,0.4-1,0.7-1.4,1
			c-0.3-0.6-0.6-1.1-0.7-1.7c-0.4-1.7-0.7-3.4-1.2-5.7c-1.5,4-4.3,6.2-7,8.3c-1.8,1.5-4.2,1.7-6.5,1.2c-1.5-0.3-2.2-2-1.2-2.9
			c5.8-5,5.2-11.7,4.9-18.3c0-0.5-0.5-1-0.4-1.4c2-4.3-0.4-6.9-3.2-9.8c-2.6-2.7-4.2-6.2-2.2-10.2c0.3-0.5,0.1-1.3,0.2-1.9
			c2-2.1,2.6-4.7,2.8-7.4c0.3-3.3-2.4-6.7-5.6-6.5c-2.7,0.2-2.9-1.1-3.1-3c-0.3-1.9-0.7-3.8-1.2-5.6c-0.1-0.4-1-0.5-1.6-0.7
			c-0.1,0.4-0.3,0.9-0.1,1.1c1.6,1.3,0.7,2.6,0,3.9c-1.4,3.1-1.4,5.8,1.3,8.3c2,1.8,3.8,3.8,5.8,5.7c1.3,1.2,2.1,2.4,1.7,4.2
			c-1.5-0.8-3-1.5-4.6-2.3c-1.6,1.8-3.2,3.7-5.1,5.5c-0.9,0.9-1.9,0.5-2-0.8c-0.2-3-1-5.6-2.8-8c-1.1-1.4-2.1-1.4-3.2-0.4
			c-1.7,1.6-3.4,3-5.8,3.1c-1.3,0-2.4-1.4-1.5-2.2c4.7-4.1,2.3-9.1,1.3-13.5c-0.7-3.1-0.2-5.3,1.6-7.6c2.2-2.8,3.4-5.8,1.7-10.5
			c-0.3,4.6-2.8,7.3-3.8,10.6c-0.6,2.1-0.7,4.4-1.2,6.6c-0.2,0.9-0.8,1.6-1.2,2.5c-0.8-0.5-1.8-0.8-2.2-1.5
			c-1.3-2.2-2.6-4.4-3.3-6.8c-0.5-1.8-0.3-2.9-2.9-2.1c-2,0.7-4.5,0.3-6.7,0.2c-0.7,0-1.5-0.7-1.8-1.3c-0.2-0.3,0.7-1.2,1.1-1.7
			c0.9-1.3,2-2.5,2.8-3.8c0.2-0.4-0.1-1.3-0.5-1.7c-0.2-0.2-1.1-0.1-1.5,0.2c-1.8,1.2-3.7,2.1-5.9,1.8c-2.4-0.3-3.5,0.8-4.1,3
			c-2.2,8-4.9,16-6.6,24.1c-2.2,11-4.5,21.9-7.4,32.7c-0.2,0.6-0.4,1.2-0.5,1.9c-0.3,7.2-3,13.7-5.2,20.4c-1.5,4.7-2.7,9.6-3.5,14.4
			c-1.4,8.5-3.1,17-5.4,25.3c-0.2,0.6-0.5,1.2-0.5,1.9c-0.1,11.2-4.2,21.7-6.4,32.5c-1.6,7.7-2.8,15.4-4.4,23.1
			c-2.1,9.7-1.6,19.8-4.6,29.4c-0.2,0.6-0.2,1.3-0.1,1.9c0.8,8.2-2.3,15.8-3.3,23.7c-0.1,1.1-0.6,2.2-0.6,3.3
			c-0.1,7.8-0.1,15.5,0,23.3c0,3.3,0.1,3.2,3.5,3.1c2,0,4.4,0,6.1,0.9c5,2.7,10.9,3.7,15.4,7.6c1.2,1.1,3.3,1.2,4.7,2.1
			c1.7,1.1,0.9,2.1-0.6,2.7c-0.1-0.1-0.1-0.3-0.2-0.4c-0.1-0.1-0.2-0.1-0.3-0.1c0.2,0.2,0.3,0.3,0.5,0.5c1.6,1.5,3.3,2.9,4.9,4.4
			c0.3,0.3,0.5,1.1,0.4,1.2c-0.4,0.3-1,0.6-1.5,0.6c-2.8,0-2.8,0-2.2,2.6c0.2,0.8,0.4,1.5,0.4,2.3c0,0.5,0,1-0.2,1.4
			c-0.2,0.3-0.7,0.5-1.1,0.7c-0.9-3-3.7,2.2-4.6-1.1c-0.2-0.9-0.6-1.7-1-2.5c-0.1-0.1-0.1-0.3-0.2-0.4c-0.1-0.1-0.2-0.1-0.3-0.1
			c0.2,0.2,0.3,0.3,0.5,0.5c-0.3,0.3-0.7,0.7-1.1,0.8c-0.6,0.2-1.6-0.9-1.8,0.6c-0.3,2.7-0.8,5.4-0.9,8.1c-0.1,2.5,1.3,4.3,3.1,5.8
			c2.2,1.9,2,2.9-0.4,4.5c-1.2,0.9-2.9,1.4-4.5,1.5c-1.7,0.2-2.7,0.4-3.6,2.3c-1.6,3.6-4.3,6.3-8.1,7.8c-2.9,1.1-2.7,1.4-2.3,4.6
			c0.5,4.1,0.7,8.3,1.1,12.5c0.2,1.9,0.5,3.8,0.8,5.7c0.7,5.4,1.4,10.8,2.2,16.2c0.3,1.7,0.7,3.4,1.3,5.1c0.7,2,2.1,3.8,2.2,5.8
			c0.3,5.2,4,7.1,7.9,8.7c2.9,1.3,6.1,1.8,9.2,2.5c5.5,1.1,10.9,2.8,16.1,4.7c2.6,1,5,2.9,7.2,4.8c1.9,1.7,2.5,8.5,0.9,10.6
			c-2.8,3.6-5.3,7.6-9.8,9.8c-2.4,1.2-4.3,3.3-6.4,5c-3.2,2.7-6.3,5.5-9.5,8.2c-1.4,1.2-1.4,2.3-0.5,3.7c0.9,1.3,1.8,2.7,2.6,4.1
			c1.3,2.2,2.8,4.3,3.8,6.7c2,5,6,7.5,10.8,8.8c2.7,0.8,5.7,0.7,8.5,1.2c5.8,0.9,11.7,1.9,17.4,3c2.6,0.5,3.3,3.9,1.3,5.7
			c-6.3,5.8-13.7,7.3-22,5.2c-2.5-0.6-5-0.8-7.6-1.1c-0.4,0-1.1,0.5-1.1,0.6c0.1,0.6,0.3,1.4,0.7,1.6c4,1.5,8.2,2.9,12.2,4.4
			c2.1,0.8,4.1,1.6,6.1,2.7c0.5,0.3,0.8,1.3,0.8,2c0,0.4-0.8,1-1.3,1.1c-2.9,0.4-5.7,0.8-8.6,1.1c-6.5,0.6-13,1.3-19.4,1.9
			c-2.1,0.2-4.2,0-6.3,0.2c-2.4,0.2-4.7,0.5-7.7,0.8c3.6,2.5,6.8,4.5,9.7,6.9c4.7,3.8,10.3,5.7,16,7.6c3.9,1.3,7.3,3.5,9.3,7.2
			c1,1.9,0.5,3.2-1.6,3.4c-2.7,0.2-5.5,0.3-8.2,0c-6.2-0.8-12.4-1.5-18.5-2.8c-5.9-1.3-11.7-3.2-17.5-5.3c-5.6-2-11-4.4-16.5-6.7
			c-0.4-0.2-0.9-0.4-1.4-0.5c-3.9-0.4-3.5-1.7-4.8,2.4c-0.3,1.1-1.2,2-1.8,3c-1.5-1.2-0.7-2.5-0.2-3.9c0.5-1.5,0.9-3,1.4-4.6
			c0.3-0.1,0.6-0.2,0.8-0.5c0.4-0.5,0.7-1,0.9-1.5c0,0-0.5-0.4-0.5-0.4c-0.4,0.4-0.8,0.9-1,1.4c-0.1,0.2-0.1,0.6-0.1,0.9
			c-1.3,1.8-2.6,3.6-4,5.3c-0.2,0.2-0.9,0.2-1.3,0.1c-0.2,0-0.3-0.5-0.4-0.8c0-0.1,0.1-0.3,0.1-0.4c0.7-1.6,1-3.3-1.2-3.7
			c-0.5-0.1-1.6,2.1-1.9,3.3c-0.3,1.7,0,3.5-0.2,5.3c-0.1,0.8-0.8,1.5-1.6,3c-0.9-6.1-0.1-11,1.1-16c0.2-0.9,0.3-1.9,0.5-2.8
			c0.3-0.3,0.5-0.6,0.8-0.9c-0.2-0.1-0.3-0.2-0.5-0.3c-0.1,0.4-0.2,0.8-0.3,1.3c-1.2,2.6-2.5,5.1-3.7,7.7c-0.3,0.7-0.5,1.5-0.9,2.2
			c-0.1,0.2-0.6,0.5-0.8,0.4c-0.4-0.2-0.9-0.6-0.9-1c-0.1-0.6,0.4-1.3,0.3-1.8c-0.1-0.5-0.5-1.4-0.9-1.5c-1.9-0.4-3.8-0.8-5.7-0.8
			c-0.6,0-1.6,1.1-1.8,1.8c-0.3,1.2-0.1,2.6-0.3,3.8c-0.1,0.8-0.7,1.6-1.3,2.8c-1.6-4.1,0-7.5,0.5-10.9c0.2-1.6,0.6-3.1,0.9-4.7
			c0.3-0.3,0.5-0.6,0.8-1c-0.2-0.1-0.3-0.2-0.5-0.3c-0.1,0.4-0.2,0.8-0.3,1.3c-2.2,2.4-2.7,5.3-2.9,8.4c-0.1,1.6-0.1,1.5-2.4,3
			c-0.5,0.3-0.4,1.4-0.7,2.1c-0.2,0.3-0.7,0.5-1,0.8c-0.3-0.4-0.8-0.7-0.7-1.1c0.1-1.3,0.3-2.5,0.5-3.8c0.5-2.7,0.3-3.3-1.7-3.5
			c-2.2-0.2-2.6,0.2-2.7,2.8c-0.1,1.4,0,2.8-0.8,4.3c-0.3-2-0.6-3.9-0.8-5.9c-1.5,2.1-2.3,4.3-2.4,6.6c0,0.5-0.5,1-0.8,1.5
			c-0.4-0.6-1-1.2-1-1.8c0-1.1,0.4-2.2,0.6-3.3c0.1-0.9,0.2-1.9-0.5-3.1c-0.8,1.5-1.6,3-2.6,4.3c-0.3,0.5-1.3,0.5-1.9,0.8
			c0-0.6-0.1-1.3,0.1-1.7c0.9-1.7,1.9-3.3,3-5.1c-2.7-1.1-5.2-1.8-7.6,0.4c-0.6,0.5-1.8,0.4-2.7,0.5c-1.7,0.2-3.5,0.3-5.2,0.5
			c-0.9,0.1-2.1,0.4-2.6,1c-0.4,0.5,0.3,1.6,0.3,2.5c0,0.7-0.2,1.3-0.3,2c-0.6-0.3-1.5-0.5-1.8-1C183.6,553.5,183,552.2,182.4,551
			c-0.3-1.6,0.7-3.5-1-4.8c-0.3-0.7-0.6-1.3-1-2c-0.3-0.6-0.7-1.3-1-1.9c-0.1-0.4-0.2-0.8-0.3-1.3c-0.2,0.1-0.3,0.2-0.5,0.3
			c0.3,0.3,0.5,0.6,0.8,0.9c0.3,0.7,0.6,1.3,1,2c0.3,0.6,0.7,1.3,1,1.9C181.7,547.7,180.7,549.6,182.4,551z M365.7,88.3
			c0.2,0.2,0.3,0.3,0.5,0.5C366,88.6,365.9,88.4,365.7,88.3c-0.3-0.3-0.6-0.7-1-1c-0.8-1.1-1.6-2.2-2.5-3.5c0.2,2.5,0.2,2.5,2.5,3.5
			C365,87.6,365.4,88,365.7,88.3z M138.7,517c-0.3-0.3-0.7-0.6-1-1c-0.1-0.4-0.1-0.9-0.3-1.3c-0.1-0.2-0.5-0.3-0.7-0.4
			c0,0.3-0.2,0.8,0,1c0.3,0.3,0.7,0.5,1.1,0.8C138.1,516.4,138.4,516.7,138.7,517c0.3,0.4,0.6,0.7,0.9,1c0.2,0.2,0.3,0.3,0.5,0.5
			c-0.1-0.2-0.3-0.3-0.4-0.5C139.4,517.6,139,517.3,138.7,517z M535.4,12.6c0.1,0.1,0.1,0.3,0.2,0.4c0.1,0.1,0.2,0.1,0.3,0.1
			C535.7,12.9,535.6,12.8,535.4,12.6c-0.3-0.3-0.6-0.7-1-1c-0.5-3.5-0.5-3.5-3.9-3.9c-0.1-0.1-0.1-0.3-0.2-0.4
			c-0.1-0.1-0.2-0.1-0.3-0.1c0.2,0.2,0.3,0.3,0.5,0.5c1.3,1.3,2.6,2.6,3.9,3.9C534.8,12,535.1,12.3,535.4,12.6z M266.8,356
			c-0.3,0.3-0.6,0.6-1,1c-0.1,0.1-0.3,0.1-0.4,0.2c-0.1,0.1-0.1,0.2-0.1,0.3c0.2-0.2,0.3-0.3,0.5-0.5
			C266.1,356.6,266.4,356.3,266.8,356c0.1-0.1,0.3-0.1,0.4-0.2c0.1-0.1,0.1-0.2,0.1-0.3C267.1,355.7,266.9,355.8,266.8,356z
			 M340.5,39.8c0.3,0.3,0.7,0.6,1,0.9c0.1,1.6,1,2.8-0.5,4.7c-2.3,2.9-2.6,6.8-2.2,10.5c0.1,1.1,0.9,1.3,1.7,0.7
			c0.6-0.4,1.3-1,1.6-1.7c2-3.8,2.6-7.8,2.2-12.1c-0.2-1.5-1.3-2.1-2.8-2.1C341.1,40.4,340.8,40.1,340.5,39.8
			c-0.1-0.2-0.3-0.3-0.5-0.5C340.1,39.5,340.3,39.6,340.5,39.8z M367.6,34.9c0.3,0.3,0.6,0.6,1,1c0.3,2.7,2.7,3.8,4.4,5.7
			c1.1-1.2,2-2.2,2.9-3.1c-2.5-0.9-4.9-1.8-7.2-2.7C368.3,35.6,368,35.2,367.6,34.9c-0.1-0.2-0.3-0.4-0.5-0.5
			C367.3,34.6,367.5,34.8,367.6,34.9z M277.4,521.9c0.1-0.2,0.3-0.3,0.4-0.5C277.7,521.5,277.6,521.7,277.4,521.9
			c-0.4,0.3-0.7,0.6-1,0.9c-0.3,0.3-0.7,0.6-1,1c-0.3,0.6-0.7,1.3-1,1.9c-0.1,0.2-0.3,0.3-0.4,0.5c0.2-0.2,0.3-0.3,0.5-0.5
			c0.3-0.7,0.6-1.3,1-2c0.3-0.3,0.6-0.7,1-1C276.8,522.5,277.1,522.2,277.4,521.9z M382.1,80.6c0.3,0.3,0.7,0.6,1,0.9
			c-0.4,0.8-0.7,1.6-1.1,2.4c-0.3,0.6-0.6,1.1-1,1.6c0.6,0.2,1.3,0.8,1.7,0.6c1.3-0.5,3.2-1,3.5-2c0.4-1.4-1.2-2.3-2.6-2.6
			c-0.2,0-0.3,0-0.5-0.1C382.8,81.1,382.5,80.8,382.1,80.6c-0.3-0.4-0.6-0.7-0.9-1c-0.7-2-1.3-3.9-2.1-5.8c-0.2-0.6-0.7-1.2-1.2-1.4
			c-1.5-0.7-3.1-1.4-4.7-1.9c-0.4-0.1-1-0.1-1.2,0.1c-0.2,0.2-0.2,0.9,0,1.3c2.1,3.7,4.7,6.9,9.2,7.9
			C381.5,79.9,381.8,80.2,382.1,80.6z M335.6,54.3c0.3-0.3,0.5-0.6,0.8-1c-0.2-0.1-0.3-0.2-0.5-0.3
			C335.8,53.5,335.7,53.9,335.6,54.3c-0.1,0.1-0.3,0.1-0.4,0.2c-0.1,0.1-0.1,0.2-0.1,0.3C335.3,54.6,335.5,54.5,335.6,54.3z
			 M177.5,532.5c-1.5,1.2-0.9,2.7,0,4.2C177.5,535.3,177.5,533.9,177.5,532.5c0.2-0.3,0.5-0.6,0.8-1c-0.2-0.1-0.3-0.2-0.5-0.3
			C177.7,531.7,177.6,532.1,177.5,532.5z M362.8,15.5c-0.6,0.5-1.3,1-1.8,1.6c-0.2,0.2-0.2,0.7-0.3,1.1c0.4-0.1,1-0.2,1.2-0.5
			C362.3,17,362.5,16.3,362.8,15.5c0.2-0.1,0.4-0.3,0.5-0.4C363.1,15.2,362.9,15.3,362.8,15.5z M654.7,32c-0.8,0-1.6,0-2.3,0.1
			c-0.3,0-0.6,0.4-1,0.7c0.5,0.2,1.1,0.7,1.4,0.6C653.6,33,654.1,32.5,654.7,32c0.1,0,0.3-0.1,0.4-0.2c0.1-0.1,0.1-0.2,0.1-0.3
			C655,31.7,654.9,31.8,654.7,32z M161,513.1c-0.1-0.4-0.2-0.8-0.3-1.3c-0.2,0.1-0.3,0.2-0.5,0.3C160.5,512.5,160.8,512.8,161,513.1
			c0.3,1.5-0.6,3.3,1.3,4.3c0.1,0,0.3-0.1,0.3-0.2C163.2,515.4,162.2,514.2,161,513.1z M270.6,535.4c1.4-1.4,2.2-3,1.3-6.1
			C271.4,532.1,271,533.7,270.6,535.4c-0.3,0.3-0.5,0.6-0.8,1c0.2,0.1,0.3,0.2,0.5,0.3C270.4,536.3,270.5,535.9,270.6,535.4z
			 M184.3,537.4c-1.2,1.1-2.2,2.3-1.6,4.1c0,0.1,0.3,0.2,0.3,0.2C184.8,540.6,184,538.8,184.3,537.4c0.2-0.3,0.5-0.6,0.8-1
			c-0.2-0.1-0.3-0.2-0.5-0.3C184.5,536.5,184.4,537,184.3,537.4z M389.9,53.3c0.1,0.4,0.2,0.8,0.3,1.3c0.2-0.1,0.3-0.2,0.5-0.3
			C390.4,54,390.2,53.7,389.9,53.3c0-1.7,0-3.5-0.1-5.2c0-0.3-0.4-0.6-0.6-1c-0.3,0.3-0.9,0.7-0.9,1
			C388.8,49.9,389.4,51.6,389.9,53.3z M200.8,529.6c2,0.6,4.1,1.2,6.8,2C204,528.4,204,528.4,200.8,529.6c-0.4,0.1-0.8,0.2-1.3,0.3
			c0.1,0.2,0.2,0.3,0.3,0.5C200.2,530.1,200.5,529.9,200.8,529.6z M655.7,19.4c0.5-0.8,1-1.5,1.8-2.6c-2.3-0.5-4.1-0.9-6-1.3
			c-0.1,0.3-0.2,0.6-0.2,1c1,0.3,1.9,0.7,2.9,0.9C655.4,17.6,655.7,18.3,655.7,19.4c-0.3,0.1-0.6,0.2-0.9,0.4c-0.5,0.5-1,1-1.5,1.4
			c0.2,0.2,0.6,0.6,0.7,0.5c0.5-0.5,1.1-0.9,1.5-1.5C655.7,20.1,655.7,19.7,655.7,19.4z M192.1,26.2c-1.4,0.3-2.8,0.3-4.1,0.9
			c-0.9,0.4-1.9,1.2-0.7,2.6c1,1,2,1.2,2.8,0.2C191,28.8,191.4,27.4,192.1,26.2c0.1,0,0.3-0.1,0.4-0.2c0.1-0.1,0.1-0.2,0.1-0.3
			C192.4,25.9,192.2,26,192.1,26.2z M219.2,545.1c2.7-4,3.5-8.2,2.4-13.8C219.8,536.3,220.1,540.9,219.2,545.1
			c-0.2,0.3-0.5,0.6-0.7,1c0.2,0.1,0.3,0.2,0.5,0.3C219,546,219.1,545.6,219.2,545.1z M225,537.4c1.1-1.9,2.2-3.8,3.3-5.7
			c1-1.8,2-3.6,3.1-5.4C227,528.7,225.8,532.9,225,537.4c-0.3,0.5-0.7,0.9-0.9,1.4c-0.1,0.2,0.2,0.5,0.3,0.8
			c0.2-0.3,0.5-0.6,0.5-0.9C225.1,538.3,225,537.8,225,537.4z M136.8,19.4c-4.5,2-4.7,2.8-1.9,8.9c0.7-1.9,1.5-3.2,1.8-4.6
			C137,22.3,136.8,20.8,136.8,19.4c0.1-0.1,0.3-0.1,0.4-0.2c0.1-0.1,0.1-0.2,0.1-0.3C137.1,19.1,136.9,19.2,136.8,19.4z
			 M382.2,188.2c5.2-4.4,9-9.6,8.4-17.7C385.5,175.9,384.9,182.5,382.2,188.2c-0.2,0.1-0.3,0.3-0.5,0.4
			C381.9,188.5,382,188.3,382.2,188.2z M365.7,57.2c-0.1,0.9-0.1,1.9-0.4,2.8c-0.9,2.4,0.2,4.2,1.8,5.6c0.8,0.7,2.3,1.2,3.4,1
			c0.8-0.1,1.7-1.4,1.9-2.3c0.4-1.4,0.1-2.7-1.5-3.6C369,59.8,367.4,58.4,365.7,57.2c-0.5-1.1-1.1-1.9-2.6-1.6
			c-1.4,0.2-2.9,0.5-4.1,0.1c-2.2-0.8-3.4,0.2-4.5,1.7c-2.3,3.6-1.7,7.2-0.2,10.5c1.9-2.8,3.8-5.7,5.8-8.6
			C361.5,57.4,363.4,56.9,365.7,57.2z M397.7,219.2c0.1,0.1,0.1,0.3,0.2,0.4c0.1,0.1,0.2,0.1,0.3,0.1
			C398,219.5,397.9,219.4,397.7,219.2c-0.6-1.1-1-2.4-1.9-3.2c-2.2-2.1-2.6-4.3-1.3-7c1.2-2.5,0.7-4.6-2.1-5.9c-1,3.5-2,7-3,10.4
			c-0.4,1.4-0.3,2.7,1.1,3.2C392.8,217.8,395.3,218.5,397.7,219.2z M368.6,143.6c4.7-1.7,7-5.2,7.7-10c0.1-0.7-0.3-2-0.5-2
			c-2.9,0-2-2.3-2.4-3.8c-0.5-1.8-0.5-3.8-2.5-5.5c0,2.1-0.4,3.7,0.1,5.1c1.4,4.9,0.6,9.5-1.5,13.9C369,142,368.8,142.8,368.6,143.6
			c-0.1,0.1-0.3,0.1-0.4,0.2c-0.1,0.1-0.1,0.2-0.1,0.3C368.3,143.9,368.4,143.7,368.6,143.6z M380.3,106.7c-0.2-0.1-0.3-0.3-0.5-0.4
			C379.9,106.4,380.1,106.6,380.3,106.7c1.9,3,2.8,6.1,1.2,9.6c-0.3,0.6-0.3,1.9,0.1,2.3c1.5,1.4,3.2,2.6,4.9,3.8
			c1.5,1,3.2,1.2,4.9,0.4c-1.4-3.3-2.6-6.4-4.1-9.5C385.9,110.2,383.8,107.6,380.3,106.7z M415.2,27.2c-0.1-0.1-0.1-0.3-0.2-0.4
			c-0.1-0.1-0.2-0.1-0.3-0.1C414.8,26.8,415,27,415.2,27.2c0.1,0.5,0.1,1,0.4,1.3c1.9,2.7,1.8,3.1-1,4.3c-0.7,0.3-1.6,0.3-2.2,0.7
			c-0.7,0.5-1.7,1.5-1.7,2.2c0.1,1.7,0.7,3.4,1.3,5c0.2,0.4,1,0.8,1.6,0.9c1.4,0.1,3,0.3,4.3-0.1c0.8-0.2,1.9-1.4,2-2.2
			c0.2-2.9,0.2-5.8-0.2-8.6C419.2,27.4,418.9,27.4,415.2,27.2z M343.4,94.1c4.5-3.1,5-8.3,6.6-12.9c0.1-0.3-0.3-1.1-0.5-1.2
			c-2-0.3-3.7-0.8-4.7-2.8c-0.1-0.2-0.9-0.2-1.2,0c-1.9,1-2.8,3.5-2.4,5.7C341.9,86.6,342.6,90.3,343.4,94.1
			c-0.1,0.1-0.3,0.1-0.4,0.2c-0.1,0.1-0.1,0.2-0.1,0.3C343.1,94.4,343.2,94.2,343.4,94.1z M189.1,42.7c6.9-1.1,13.3-7,14.3-13.7
			c0.5-3.5,0.4-7,1.8-10.3c0.1-0.2-0.2-0.8-0.3-0.8c-0.4,0-1,0-1.3,0.3c-0.4,0.4-0.7,1.1-0.9,1.7c-0.4,1.9-0.5,3.8-1.1,5.6
			c-0.9,3.1-2,6.1-3.2,9c-0.2,0.6-1.2,0.8-1.8,1.2c-0.3-0.5-0.7-1-0.8-1.6c-0.4-1.8-0.8-3.5-1.2-5.3C192.8,33.5,191,38.1,189.1,42.7
			c-0.1,0.1-0.3,0.1-0.4,0.2c-0.1,0.1-0.1,0.2-0.1,0.3C188.8,43,189,42.8,189.1,42.7z M379.3,6.8c-2.9,1.6-6,3-8.7,5
			c-3.9,2.8-7.8,5.8-6.4,11.6c0.1,0.2-0.3,0.6-0.4,0.9c-0.5,0-1,0-1.4,0.1c-0.3,0.1-0.6,0.2-0.8,0.4c0.2,0.1,0.6,0.5,0.7,0.4
			c0.6-0.2,1.1-0.5,1.6-0.8c4.5-0.5,8.5-2.7,11-6.1C377,14.9,377.8,10.6,379.3,6.8c0.1-0.1,0.3-0.1,0.4-0.2c0.1-0.1,0.1-0.2,0.1-0.3
			C379.6,6.5,379.4,6.6,379.3,6.8z M679,32c-0.1-0.1-0.1-0.3-0.2-0.4c-0.1-0.1-0.2-0.1-0.3-0.1C678.7,31.7,678.8,31.9,679,32
			c0.9,1.3,1.5,2.6-0.4,3.6c-0.8,0.4-1.8,0.8-2.3,1.4c-0.6,0.9,1,6.3,2,7.1c4.6,3.8,10.2,4.9,15.7,1.1c-2.5-3.1-5.5-5.9-7.5-9.3
			C684.6,32.8,682.4,31.7,679,32z M272.6,382.2c-0.6-0.4-1.6-0.6-1.8-1.1c-0.2-0.6,0.5-2,0.7-2c2.8,0.1,3.8-1.6,4.8-3.7
			c0.2-0.5,1.4-0.8,2.1-0.9c0.9-0.1,1.9,0.1,2.9-0.1c0.9-0.1,1.7-0.5,2.6-0.7c-0.4-0.7-0.7-1.4-1.1-2c-1.9-2.6-2.8-5.1-1.8-8.5
			c1.2-3.8-0.2-7.6-1.7-11.2c-0.8-1.8-2.3-2.5-4.2-2.3c-0.3,0-0.8,0.9-0.8,1.2c1.3,7.9-1.2,11.7-4.8,16c-1,1.2-2.3,0.8-2.7-0.8
			c-0.4-1.4-0.7-2.8-1.1-4.2c-0.1-0.3-0.7-0.8-1-0.7c-0.4,0-1,0.4-1.1,0.8c-0.3,0.9-0.5,1.8-0.6,2.8c-0.1,2.7,0.2,5.5,0,8.2
			c-0.5,4.7,1,8.8,3.5,12.9C268.5,384.6,270.5,383.4,272.6,382.2c0.1-0.1,0.3-0.1,0.4-0.2c0.1-0.1,0.1-0.2,0.1-0.3
			C272.9,381.9,272.7,382,272.6,382.2z M311.3,567.5c-2.5-4-5.7-5.8-9.4-6.5c-3.7-0.7-7-2.4-10-4.6c-3-2.1-6-4.3-9.1-6.3
			c-6.5-4.2-12.8-8.7-19.6-12.3c-5.8-3.1-9.9-8-14.6-12.3c-1.5-1.4-2.9-2.9-4.2-4.5c-0.4-0.4-0.6-1.6-0.3-1.9c0.5-0.4,1.5-0.7,2-0.5
			c0.8,0.4,1.5,1.2,2.2,1.9c3.3,3.6,6.3,7.3,9.8,10.6c2,1.9,4.8,3.1,7.2,4.7c1.6,1.1,2.3,0,2.9-1.3c1.6-3.3,1.4-6.9,1.4-10.4
			c0-1.7-0.4-3.1-1.7-4.3c-1-1-1.7-2.3-2.1-3.6c-0.9-3.1-1.7-6.2-2.3-9.3c-0.6-3.3-1.2-6.6-1.1-9.9c0-1.9,0.4-3.7-0.2-5.7
			c-0.4-1.3-0.3-2.9-0.2-4.3c0.5-5.1,1.2-10.2,1.7-15.3c0.1-1.3,0-2.6-0.1-3.9c-0.2-2.7-0.7-5.4-0.8-8.1c-0.1-10,0.1-20-0.1-30.1
			c-0.1-4.8-0.9-9.6-1.7-14.3c-1.3-7.5-1.3-15-0.7-22.6c0.7-8.8,1.2-17.6-0.3-26.4c-0.3-1.6,0-3.2,0.1-4.8c0.2-1.9,0.6-3.8,0.7-5.7
			c0.2-5.6-0.1-11.2,0-16.8c0.1-6.7,0.2-13.5-0.7-20.2c-0.9-7.8-0.3-15.7,1.7-23.5c1.2-4.7,2.5-9.3,2-14.2c-0.1-0.6,0.1-1.3,0.2-1.9
			c1.9-11.4,3.6-22.7,5.6-34.1c1.6-8.8,3.7-17.5,5.5-26.3c1.4-6.7,3.8-13.2,4.2-20.2c0.2-3,0.9-6,1.6-9c1-4.7,2.2-9.4,3.2-14
			c1.6-7.7,3-15.4,4.9-23c1.4-5.9,3.6-11.6,5.2-17.5c1-3.7,1.4-7.5,2.3-11.3c1.3-6.1,2.7-12.2,4.2-18.3c1.8-7.6,3.2-15.3,5.5-22.9
			c3.7-12.3,6.7-24.7,10-37.1c0.6-2.3,0.9-4.7,1.7-7c1.2-3.8,2.8-7.5,4-11.3c1-3.1,1.7-6.3,2.5-9.5c-4.4,2.7-8.3,5.8-12,9.1
			c-1.7,1.5-3.4,3.1-5.8,3.3c-1.4,0.1-2.2-0.7-1.9-2c0.5-1.7,1.1-3.4,1.7-5.2c-2.7,1.7-4.9,3.4-7.3,4.5c-1.3,0.6-3.3,0.8-4.5,0.2
			c-0.7-0.3-0.7-2.6-0.6-4c0.2-2.5,0.6-5.1,1.2-7.6c0.3-1.2,0-1.8-1-2.3c-1.1-0.6-2.1-1.4-3.3-1.9c-1.7-0.7-2.3,0.1-2.2,2.1
			c0.1,1.1,0.1,2.2-0.1,3.3c-0.4,3.3-2,6.1-4.3,8.4c-0.9,0.9-1.8,2.3-2.7,2.3c-2,0.1-1.7-2.2-2-3.4c-1.2-4.5-2.7-8.8-6-12.7
			c-2,2.1-4,4.3-6.1,6.2c-1.3,1.2-1.8,2.6-1.7,4.3c0.1,1.1,0,2.3,0,3.4c-0.1,5.5-2.6,8.8-7.9,10c-2.1,0.5-3.1-0.4-2.5-2.5
			c0.9-3.3,1.2-6.5-0.7-9.7c-1.5,1-2.8,2-4.2,2.8c-0.4,0.2-1.2,0-1.6-0.3c-0.3-0.2-0.5-0.9-0.3-1.3c0.4-1.3,1-2.5,1.4-3.5
			c-2.9,1-5.7,2.1-8.6,2.9c-1.1,0.3-1.6,0.8-1.8,1.9c-0.5,2.8-1.2,5.6-1.7,8.5c-2,10.7-4.3,21.3-5.9,32.1c-1,7-1.8,14-3.9,20.7
			c-0.8,2.6-1.5,5.3-2,7.9c-2.1,12.1-4,24.3-6.1,36.5c-1.8,10.4-3.8,20.8-5.7,31.2c-1.1,6-1.9,12-2.9,18c-0.5,2.7-1.3,5.3-1.8,8
			c-1.8,8.9-3.3,17.9-5.3,26.9c-1.8,8.3-4.1,16.5-5.9,24.8c-2.3,10.6-4.5,21.3-5.3,32.2c-0.6,7.9-0.7,15.8-1,23.6
			c-0.5,12.7,0.5,25.5-0.9,38.2c-0.8,7.3-0.4,14.8-0.9,22.2c-0.7,9.4-1,18.9-2,28.3c-0.8,7.3-1,14.8-1,22.2
			c0.1,13.1-0.9,26.1,0.7,39.2c0.5,4.4-0.9,9-0.7,13.4c0.4,6.9-1.5,13.4-2.4,20.1c-1.3,10-3.6,19.9-7.3,29.3
			c-3.1,7.9-7.3,15-15,19.4c-1.5,0.9-2.8,2.2-4.2,3.2c-2.1,1.4-4.3,2.7-6.5,4c-1.7,1-3.4,1.9-5.1,2.8c-4.1,2.2-8.2,4.7-12.5,6.3
			c-4.6,1.6-9,3.6-13,6.3c-3.6,2.4-7.8,4.3-10.4,8.3c3.8,0.5,7.3,0.9,10.7,1.3c2.1,0.3,4.1,0.8,6.2,0.9c4.3,0.2,8.5-0.6,12.8-1.5
			c6.5-1.4,12.7-3.5,18.7-6.2c2.6-1.2,5.4-2.2,8.2-2.8c6.1-1.2,6.2-1.1,6-7.6c-0.1-4.4-3.1-6.5-7.4-5.2c-0.9,0.3-1.8,0.6-2.8,0.8
			c-0.4,0.1-1-0.2-1.1-0.5c-0.1-0.4,0.1-1.1,0.4-1.3c2.1-1.4,4.3-3.1,7-2.8c3.8,0.5,5.2-1.2,6.4-4.7c1.1-3.3,3.5-6.1,5.4-9.1
			c0.2-0.3,0.9-0.6,1.2-0.4c0.3,0.2,0.6,0.8,0.6,1.2c0,0.6-0.1,1.3-0.3,1.9c-0.9,3.2-2,6.4-2.9,9.7c-0.3,1.2-0.4,2.5-0.4,3.7
			c0,0.3,0.5,0.9,0.9,1c0.3,0.1,0.9-0.2,1.1-0.6c1.5-2.5,2.8-5,4.4-7.5c0.7-1.1,1.6-2,2.6-2.8c0.3-0.3,1.2,0,1.7,0.2
			c0.2,0.1,0.2,0.9,0.1,1.2c-0.2,0.6-0.6,1.2-0.8,1.8c-1.7,4.9-3.4,9.7-4.9,14.6c-0.8,2.5-0.1,3.4,2.4,3.1c3.2-0.4,6.3-1,9.4-1.9
			c2.3-0.7,4.2-2.2,6.8-1c1.3,0.6,2.4-0.1,3.2-1.9c1-2.4,0.2-4.4-0.2-6.6c-0.6-3.4-3-5.2-6.3-4.6c-0.8,0.1-1.6,0.6-2.3,0.6
			c-0.7,0-1.7-0.5-1.9-1c-0.2-0.6,0.2-1.7,0.7-2.1c1-0.8,2.2-1.4,3.4-1.6c1.6-0.3,3.2-0.2,4.8-0.2c1.5,0,2.5-0.4,2.4-2.1
			c0-0.7,0.2-1.5,0.4-3.4c1.2,2.2,2.2,3.4,2.4,4.7c0.8,5.3,3.1,10.5,1.3,16.1c-0.8,2.5,0.5,3.5,3.2,3.2c1.5-0.2,2.2-1.1,2.4-2.6
			c0.6-6.5,3.2-12.8,1.3-19.5c-0.1-0.5,0.7-1.6,1.2-1.7c0.5-0.2,1.7,0.4,1.9,0.9c0.7,2,1,4,1.5,6c0.2,1,0.6,2,1.1,4
			c1.5-5.8,4.6-8.9,9.4-9.8c1-0.2,2.2-0.1,3.2,0.2c0.5,0.1,0.9,0.8,1.4,1.2c-0.4,0.4-0.8,1-1.3,1.1c-2.2,0.7-4.3,1.8-5.4,3.8
			c-2.9,4.8-5.5,9.8-6.3,15.5c-0.1,0.4,0,1,0.2,1.4c1.3,2.1,7.3,2.1,8.6,0c1.3-2.1,2.1-4.4,3.7-6.2c2.3-2.6,4.9-5.1,7.7-7.1
			c1.9-1.4,4.4-0.8,4.7,0.4c0.5,2.1-1.5,2.4-2.5,3c-3.9,2.5-6.1,6-7.4,10.3c-0.7,2.5-0.1,3.4,2.4,3c1-0.2,2-0.9,2.9-1.4
			c2.2-1.4,4.3-2.8,6.4-4.2c1.7-1.2,3.3-0.8,4.9,0.3c1.1,0.7,1.2,1.6,0.1,2.2c-1.5,0.9-3.1,1.4-4.6,2.3c-0.7,0.5-1.2,1.4-1.8,2.1
			c0.7,0.6,1.4,1.3,2.2,1.6c5.2,2,10.5,3.9,15.8,5.8c5,1.7,10,3.5,15,4.9c4.5,1.3,9.1,1.9,13.6,3.2C301.7,568,306.2,567,311.3,567.5
			z M283.1,492.9c3-2,5.3-3.2,7.2-4.9c4.7-3.9,9.3-7.9,13.9-11.9c0.5-0.4,1-0.8,1.6-1c3.8-1.5,6-4.8,8.1-8.1
			c1.7-2.5,1.4-5.9-0.9-7.9c-1.5-1.3-3.4-2.5-5.3-3.2c-4-1.5-8.2-2.7-12.3-3.9c-3.7-1.1-7.3-2.4-11.1-2.8c-3.4-0.4-6.7-0.8-9.9-1.7
			c-2.2-0.6-2.8-0.3-2.7,1.9c0.2,5.3-1.9,10-3.7,14.8c-0.6,1.5-1,3.1-1.1,4.6c-0.1,2.8,1.5,4.3,3.9,3.2c4.9-2.3,10.2-1,15.1-2.7
			c3.2-1.2,6.3-0.3,9.4,0.1c0.5,0.1,0.9,0.7,1.3,1c-0.5,0.3-0.9,0.8-1.5,0.9c-0.8,0.2-1.6,0.1-2.4,0c-2.3-0.1-4.4,0-6.1,2
			c-0.7,0.8-2,1.1-2.9,1.8c-1.8,1.4-3.5,2.8-5.1,4.4c-0.4,0.4-0.4,1.5-0.2,2.1c0.3,0.9,0.9,1.8,1.6,2.4
			C282.4,486.1,284,488.6,283.1,492.9z M277.1,528.6c1.1,3.8,0.7,7.4,0.4,11.1c-0.1,1.5,0.3,2.6,2.1,2.5c4-0.2,8-0.4,12-0.7
			c4.3-0.3,8.6-0.9,12.9-1.2c4.3-0.4,8.6-0.7,14-1.1c-4.3-1.5-7.5-2.6-10.6-3.7c-1.8-0.6-3.5-1.4-5.3-2
			C294.6,530.5,286.5,528.1,277.1,528.6z M318.5,528.1c4.9,0,9-1.8,12.8-4.4c0.5-0.3,1-1.1,0.9-1.5c-0.1-0.5-0.8-1-1.4-1.1
			c-4.7-0.9-9.3-2.6-14.2-2.1c-1.2,0.1-2.7,0.1-3.8-0.4c-1.5-0.6-2.5-0.1-3.4,1c-1.3,1.6-2.8,2.4-5,2.4c-2.7,0.1-5.4,0.6-8.1,1
			c-0.4,0.1-1.1,1.1-1,1.1c0.9,1.1,1.8,2.3,3,3.1c1.1,0.8,1.9-0.4,2.8-0.8c2.3-1,4.6-2,7.3-0.9C311.6,526.7,315.1,527.2,318.5,528.1
			z M265.9,461.3c0.9-1.9,1.5-2.7,1.6-3.6c0.8-7.6,1.4-15.3,2.1-23c0.1-1,0-1.9-0.1-2.9c-0.3-3.6-0.5-7.3-1.1-10.9
			c-0.8-4.6-1.9-9.1-2.9-13.6c-0.1-0.4-1-0.7-1.5-0.8c-0.3,0-0.9,0.5-1,0.8c-0.1,1.9-0.3,3.9,0,5.8c1.1,5.5,1.9,11,1.8,16.7
			c-0.1,7.7-0.1,15.5,0,23.2C264.9,455.6,265.5,457.9,265.9,461.3z M267.8,509.7c-0.1,2.5,0,2.5,2.1,2.8c0.6,0.1,1.4,0.5,1.8,1
			c0.5,0.6,0.6,1.5,0.9,2.2c1.8,4.5,1.8,4.5,5.9,2.1c0.6-0.3,1.1-0.6,1.7-0.9c1.3-0.7,1.2-1.7,0.5-2.8c-1-1.6-2-3.2-3-4.8
			c-0.2-0.3-1-0.8-1.1-0.7c-0.4,0.3-1,0.9-1,1.3c0.2,1.7,0.6,3.4,0.8,5.2c0.1,0.5-0.5,1.1-0.7,1.6c-0.6-0.4-1.7-0.7-1.8-1.2
			c-1-3.5-2-7.1-1-10.9c0.2-0.7,0.4-1.8,0-2.2c-2.1-2.6-1.6-5.4-0.7-8.2c0.8-2.4,0-4.5-0.9-6.5c-0.9-1.9-4.3-2.4-4.8-0.8
			c-0.9,2.9-2.9,6.1-0.8,9.2C268.5,500.5,269.7,504.8,267.8,509.7C267.7,510.1,267.8,510.5,267.8,509.7z M293.8,506.6
			c-0.4-1-0.6-1.7-1.1-2.4c-1.5-2.3-3-4.6-4.5-6.8c-1.8-2.7-2.7-2.9-5.3-1.3c-0.9,0.5-2.1,1-2.7,1.8c-1.3,1.8-2.8,3.6-3.5,5.6
			c-0.8,2.1,2.1,2,2.8,3.4c0.4,0.9,0.9,1.7,1.4,2.5c0.5,0.8,1,1.6,1.6,2.4c0.9,1.2,2,1.6,3.2,0.3c1.8-1.9,3.8-3.5,6.4-4
			C292.8,507.9,293.3,507.1,293.8,506.6z M376,124.1c0.9-2.6,1.7-4.7,2.3-7c0.5-1.7,0.8-3.4,0.9-5.1c0.1-1.4-0.1-2.6-2.2-1.8
			c-0.8,0.3-2.2,0-3-0.5c-2.9-1.8-4.5-4.4-4.5-7.9c0-1.7,0-3.4,0-5.2c-0.3-0.1-0.6-0.1-0.9-0.2c-1.1,2.7-2.2,5.5-3.2,8.2
			c-1,2.7-0.9,5.3,1.2,7.6c1.6,1.8,3.3,3.5,4.7,5.4C372.8,119.5,374.2,121.6,376,124.1z M125.6,524.5c0,0.3,0,0.6-0.1,1
			c2,0.7,4,1.6,6.1,2c4.4,0.9,8.8,1.5,13.2,2.3c5.6,1.1,5.6,1.2,6.7-4.5c0.7-3.5,0-4.6-3.4-4.3c-5.7,0.5-11.4,1.5-17.1,2.3
			C129.2,523.6,127.4,524.1,125.6,524.5z M534.8,16.4c-3.2-3.2-5.4-5.7-8-7.9c-1.7-1.4-3.7-2.6-5.7-3.5c-1.4-0.7-3.1-1-4.6-1
			c-1.7,0-3,1.3-3.2,3c-0.5,3.8,2,7.2,5.8,8.3C523.9,16.9,528.9,16.4,534.8,16.4z M198,29.1c0.9-2.8,1.8-5.3,2.6-7.9
			c0.1-0.4-0.1-1-0.3-1.3c-2.1-2.1-1.8-5-2.4-7.5c-1-3.9-1.3-8.3-6.2-9.8c-0.9,2.3-1.7,4.7-2.8,7c-0.6,1.3-0.4,2.3,0.3,3.6
			C192,18.1,194.8,23.3,198,29.1z M675.5,10.5c-3.8-1.5-6.7-3-9.7-3.9c-5-1.6-9.8-0.9-14.2,2c-1.7,1.1-3.5,2.1-5.3,3.2
			c-0.4,0.2-0.5,0.8-0.8,1.3c0.5,0.3,1.1,0.9,1.6,0.9c0.8-0.1,1.6-1,2.4-1c4.5,0.1,8.9,0.3,13.4,0.6
			C667.1,13.8,670.8,12.3,675.5,10.5z M405.8,6.3c-3.5,3.1-4.4,4.3-5.6,7c-0.6,1.3-0.6,2.5,0.2,3.6c1.5,2.1,2.9,4.2,4.5,6.2
			c0.8,1,1.9,1.9,2.9,2.8c-1.2,0.8-2.4,1.5-3.5,2.4c-0.2,0.1-0.1,0.5-0.2,0.8c3,1.8,3.9,2,6.2,1.9c1.5-0.1,2.4-1,1.5-2.1
			c-3-3.9-2.7-8.4-2.6-12.9C409.3,12.2,408.5,9,405.8,6.3z M633,22.5c0.5,2.7,0.9,5.4,1.4,8c0.2,0.7,0.5,1.7,1.1,2
			c3.2,2,6.4,4.2,9.9,5.8c1.3,0.6,3.3,0,4.9,0c-0.5-1.4-0.8-2.9-1.5-4.3c-0.7-1.4-1.9-2.5-2.8-3.9C643,25.4,638.9,22.7,633,22.5z
			 M230.5,39.5c-1.9,0.9-3.5,1.5-4.9,2.3c-1.2,0.7-2.6,1.5-3.2,2.6c-1.3,2.2-2.3,4.6-3,7c-0.7,2.3-2.3,4.6-1.1,7.2
			c2.5-0.9,5.2-1.6,7.5-2.9c2.7-1.6,3.9-4.5,5-7.5C231.8,45.3,231.6,42.3,230.5,39.5z M675.2,33.2c-0.7-1.1-1.3-2.1-2-3
			c-1.8-2-3.7-4-5.5-6c-1.9-2.2-3.7-4.4-5.6-6.6c-0.9-1.1-1.9-1.3-2.6,0.3c-0.6,1.3-1.4,2.6-1.7,4c-0.7,2.9,0,3.6,3,4.4
			c0.9,0.2,1.9,0.7,2.3,1.4c0.2,0.5-0.5,1.8-1.2,2.2c-1.9,1.1-1.1,2,0,2.9c0.6,0.5,1.4,1,2.1,1C667.6,34.1,671.2,35,675.2,33.2z
			 M604.9,10c-0.3,0.8-0.6,1.5-0.8,2.2c-1,3.1-0.9,3.3,2.4,4.2c1.3,0.3,2.5,0.4,2.3,2.4c-0.1,0.5,0.9,1.1,1.5,1.6
			c3.6,3,7.9,3.2,12.3,2.7c0.5-0.1,1.3-0.5,1.5-1c0.1-0.4-0.3-1.2-0.7-1.5c-1.2-1-2.7-1.8-3.8-3C615.6,13.3,610.7,10.9,604.9,10z
			 M527.7,21.7c-0.2-0.5-0.3-1.8-0.9-2c-2.2-0.9-4.6-1.4-6.9-1.9c-0.4-0.1-1.2,0.5-1.4,1c-0.2,0.4,0,1.2,0.3,1.7
			c0.3,0.5,1.3,0.6,1.5,1.1c0.2,0.6,0.1,1.6-0.3,1.9c-0.5,0.5-1.4,0.6-2.2,0.9c-1.7,0.7-2.2,2.1-1.6,3.5c1.3,2.9,2.9,5.7,6.4,6.8
			c1.7,0.5,2.7,0.1,3.1-1.7C526.4,29.4,527,25.8,527.7,21.7z M351.5,40.4c-2-3-4-5.7-5.8-8.5c-2.7-4.3-7.8-5.1-11.7-7.5
			c-0.7-0.4-1.9-0.1-2.8,0c-1,0.1-1.5,0.8-0.8,1.6c2.9,3.4,5.4,7.2,8.9,9.8C342.7,38.3,346.2,41.9,351.5,40.4z M482.1,6.8
			c-0.3,0.3-0.5,0.6-0.8,0.8c1.6,1.3,3,2.9,4.8,3.8c2.6,1.4,2.8,1.2,0.8,3.1c-1.1,1-1.2,2-0.3,2.9c2.4,2.3,3.9,5.1,5.3,8
			c0.7,1.6,2,2,3.6,1.3c0.7-0.3,1.7-0.3,2.2-0.8c0.7-0.7,1.7-1.9,1.5-2.6c-0.8-2.9-1.9-5.8-3.1-8.6c-0.5-1.1-1.1-0.6-1.5,0.4
			c-0.6,1.9-1.6,1.2-2.4,0.2c-0.5-0.6-0.8-1.4-1.2-2.1C489.2,9.5,485.9,7.8,482.1,6.8z M649.8,18.7c-2.6-1.6-4.7-3-6.9-4.2
			c-3-1.6-6.3-2.3-9.8-1.8c-3.5,0.6-6.9,1.3-10.3,2c-0.2,0.1-0.4,0.4-0.6,0.6c0.3,0.3,0.7,0.8,0.9,0.8c2.9-1.1,5.2,1.7,8.1,1.3
			c4.9,5,10.9,3.1,16.6,2.5C648.3,19.9,648.9,19.3,649.8,18.7z M678,60.1c0.2,0,0.3-0.1,0.5-0.1c-0.9-4-1.7-8.1-2.7-12.1
			c-0.4-1.3-1.5-2.5-2.4-3.5c-0.6-0.7-1.5-0.7-1.8,0.4c-0.6,2.5-1,5-1.6,7.5c-1.6,5.9-1.7,5.9,2.9,9.7c1,0.8,2.1,1.5,3.2,2.2
			c1.4,0.9,1.9,0.6,2.1-1.1C678,62.1,678,61.1,678,60.1z M629.6,41.2c2.7-5.4,1.8-10.2,1.7-15c0-0.6-0.3-1.3-0.8-1.7
			c-0.5-0.4-1.3-0.9-1.8-0.8c-3.4,1-6.8,2.1-10.5,3.3c1.2,1.8,2.2,4.1,3.9,5.3C625.2,34.5,627.5,37.3,629.6,41.2z M368.5,42.9
			c0.2-0.3,0.5-0.5,0.7-0.8c-1.5-2.1-3.3-4-4.5-6.2c-2.9-5.4-6.6-8.9-13.2-7.9c-1.4,0.2-2-0.9-1.3-2.4c0.7-1.3,0.2-1.9-0.8-2.1
			c-1.1-0.2-2.3-0.3-3.3,0.1c-0.9,0.4-1.8,1.4-2.2,2.3c-0.1,0.3,1.1,1.5,1.9,1.9c2.5,1.1,5,2.1,7.6,2.9c2,0.6,2.9,1.7,3.5,3.5
			c0.4,1.3,0.8,3.2,1.8,3.8C361.9,39.8,365.2,41.3,368.5,42.9z M448.8,30.3c-4-2.5-7.8-4.9-11.7-7.1c-1.3-0.7-3.1-0.7-4.6-0.8
			c-1.5-0.2-2.1,1.1-3,2c-1,1.1-2.6,1.6-4.2,2.4C432.7,30.4,439.9,33.8,448.8,30.3z M144.7,17.3c5.1,0.4,8.1-2.9,11.3-5.3
			c3.1-2.4,6.9-4.3,9.5-7.6c-2-0.5-3.7-1-5.5-1.2c-2.6-0.4-5.1-0.4-6.9,2.1C150.4,9.2,147.7,13,144.7,17.3z M374.7,106.1
			c1.5-2.2,2.9-4.3,4.3-6.4c0.4-0.7,1-1.3,1.1-2.1c0.4-3.1-5.1-10.6-8.1-11.2c-0.5-0.1-1-0.1-1.4-0.1c-1.6,0-2,0.6-1.2,2.1
			c2.4,4.4,3.5,9,3.3,13.9C372.5,104.2,373.2,105.5,374.7,106.1z M153.5,19.9c0.8,0.2,1.2,0.4,1.7,0.4c4.8,0.3,8.2-2.6,11.5-5.3
			c2-1.6,3.5-3.7,5.1-5.8c0.4-0.5,0.3-1.6-0.1-2.1c-0.2-0.4-1.3-0.5-1.9-0.4C162.3,8.4,157.3,13.3,153.5,19.9z M285.8,15.9
			c-0.3-3.3-0.4-5.7-0.8-8c-0.1-0.8-0.9-1.7-1.6-2.3c-1.2-1-2.6-1.7-3.9-2.5c-0.5,1.1-0.7,2.4-1.5,3.2c-2.5,2.6-0.9,5,0.2,7.5
			c0.9,1.9,1.7,3.8,2.7,5.6c0.6,1.1,0.1,3.5,2,3.2c0.9-0.1,1.7-2.2,2.2-3.4C285.6,17.8,285.7,16.4,285.8,15.9z M209.9,43.4
			c1.9,0.7,3.5,1.4,5.1,1.9c2.6,0.7,3.4,0.3,5-2.2c0.7-1.1,1.6-2,2.2-3.1c0.7-1.2,1.5-2.5,1.7-3.9c0.1-1.1-0.6-2.3-0.9-3.5
			c-0.9,0.6-1.8,1.1-2.6,1.7c-1.4,1-2.7,2-4,3c-0.6-1.6-1.1-3.1-1.7-4.8C210.3,34.8,212.7,40.1,209.9,43.4z M237.3,24.4
			c0.5-2.1,0.9-4.5,1.7-6.7c0.9-2.5,0.7-4.7-0.4-7c-1-2.2-3-4.1-4.7-3.8c-1.8,0.2-4.2,3.3-3.9,5.4c0.4,3,1.2,5.9,3.5,8.2
			C234.9,21.8,236.1,23.2,237.3,24.4z M362.7,60.3c-4.5,4.3-6,8.8-4.9,14.1c0.6,2.8,1,5.6,1.6,9.1c2.4-4.1,4.8-7.5,6-11.5
			c0.5-1.5,0.8-3.4-0.7-4.5C362.5,65.8,362.8,63.4,362.7,60.3z M325.3,24.7c-0.5,2.1-0.4,4.1,0.5,6c0.5,1.1,0.9,2.4,1.1,3.6
			c0.8,5.6,3.4,7.8,8.9,7.3c1.2-0.1,1.8-0.5,1.3-1.8C334.6,33.7,331.4,28.2,325.3,24.7z M435.9,50.7c0.3,0,0.6,0.1,0.9,0.1
			c3.5-0.6,5.1-3.7,7.5-5.7c2.1-1.8,3.8-4,3.9-7c0-1.2,0.2-2.4,0.4-3.6c-1.4-0.1-2.9-0.5-4.2-0.3c-1.2,0.2-2.4,1-3.4,1.7
			c-1.1,0.8-1.6,1.5,0.4,2.1c1.4,0.4,0.7,1.5,0,2.2c-1.2,1.2-3,2.2-3.6,3.6C436.7,45.9,436.5,48.4,435.9,50.7z M293.5,527.7
			c-1.5-3.6-2.7-6.9-4.1-10c-1.2-2.5-5-2.9-6.5-0.6c-1.6,2.5-2.8,5.3-4.4,8.2C283.5,526.2,288.3,526.9,293.5,527.7z M575.2,18.8
			c-4.7-1-8.1-2.8-10.9-5.9c-0.8-0.9-1.5-2.1-2.3-3c-1.2-1.4-2.6-1.3-3.4,0.3c-1.7,3.2-0.5,6.1,1,9.1c1.2,2.5,3.3,2,5.3,2.2
			C568.3,21.6,571.5,20.9,575.2,18.8z M227.7,38c5.1-8.5,3.7-16.2-0.5-24.7c-1,1.8-2.7,3.5-2.3,4.2c1.4,2.8,0.2,5.2-0.3,7.8
			c-0.3,1.2-0.3,2.5,0,3.7C225.4,31.8,226.4,34.4,227.7,38z M553.6,24.6c-4.8-4.6-9-9.9-15.5-13.9c0.4,2,0.3,3.7,1.1,4.6
			c1,1.1,0.6,1.8,0.4,2.9c-0.4,2.7,3.7,7.8,6.4,8C548.5,26.3,551.1,26.7,553.6,24.6z M404.5,33c-0.5,0.3-1.9,0.7-2.7,1.7
			c-3.1,4.1-1.5,11.6,0.9,14.3c1,1.1,1.9,1.3,2.5-0.2c0.8-1.9,1.2-4,2.3-5.7c1.2-1.8,1.5-3.4,0.7-5.3c-0.3-0.7-0.8-1.7-0.6-2.3
			C408.9,32.8,407,33.1,404.5,33z M397.1,37.7c-0.5-2-0.8-4.1-1.6-5.9c-0.8-1.9-6.1-2.4-6.1-0.9c0,2.1-1.4,3.9-0.9,5.8
			c1,3.5,2.5,6.8,3.9,10.2c0,0.1,1.6,0,1.8-0.4C395.8,43.8,397.3,41.1,397.1,37.7z M403.6,26.1c-3-3.8-5.4-6.8-7.7-9.9
			c-1-1.4-1.8-3.1-2.8-4.5c-0.3-0.4-1.1-0.8-1.6-0.7c-0.5,0.1-1.1,0.7-1.3,1.3c-1.2,3.4-0.2,5.7,3.1,7.1c0.7,0.3,1.3,0.9,1.9,1.3
			c-0.6,0.6-1.2,1.3-1.9,1.8c-0.5,0.4-1.2,0.5-1.8,0.8c-1.5,0.7-1.8,1.7-0.6,2.8c0.6,0.6,1.7,1.1,2.5,1
			C396.6,26.9,399.8,26.5,403.6,26.1z M602,18.7c-3.2-1.8-5.6-4-7-7.2c-1.7-3.7-4.7-5.6-8.7-5.9c-0.6-0.1-1.3,0.4-2,0.7
			c0.2,0.7,0.3,1.6,0.8,2c1.1,0.9,2.4,1.6,3.6,2.4c1.4,0.9,1.6,2.1,0.1,2.9c-2.2,1.1-1.5,2.3,0,3.1C592.9,19,597.3,19.8,602,18.7z
			 M335,21.9c1.4,0.7,2.6,1.5,4,2c0.7,0.2,1.7,0.2,2.3-0.2c5.1-2.9,6.6-10.2,3.3-15.2C338.7,11,338.4,17.4,335,21.9z M387.9,144.5
			c1.2-2.5,2.3-4.4,3.2-6.4c0.4-0.9,0.7-1.8,0.9-2.7c1-3.5-0.7-8.1-3.6-9.4c-1-0.4-2.1-0.5-3.2-0.7c-0.1,1-0.2,2-0.2,3
			c0,2.4,0.1,4.8,0,7.2C384.9,138.6,385.6,141.4,387.9,144.5z M667.3,51.1c0.7-3.2,1.6-6.3,1.9-9.4c0.3-3.5-0.5-4.1-4.2-4.8
			c-5.4-1-5.1-1.1-4.5,4.3C661,45.7,662.8,48.9,667.3,51.1z M395.8,202.3c0.8-4.8,0.5-9.3,3.3-13.2c1.2-1.7-0.6-2.7-1.8-3.3
			c-1.1-0.5-2.5-0.4-3.7-0.4c-3.9,0-5.6,2.3-4,5.8C391.4,195,393.7,198.6,395.8,202.3z M367.4,47.4c-1,0.2-2.1,0.4-3.1,0.6
			c0.5,1.1,0.9,2.2,1.5,3.2c0.6,1.3,1.4,2.5,2,3.8c1,2.5,3.1,3.6,5.5,4c1,0.2,2.3-0.1,3.2-0.6c1.3-0.8,0.4-1.9,0.1-3
			c-0.2-0.7-0.1-1.6-0.2-2.4c-0.3-2.8-1.3-4.8-4.5-5C370.3,48,368.9,47.6,367.4,47.4z M404.8,147.5c-2.7,0-3.7,0.7-4,3.2
			c-0.5,4.3,1.1,7.9,4.3,10.6c1.5,1.3,3.6,1.8,5.5,2.6c0.3,0.1,1-0.2,1.2-0.5c0.2-0.3,0.1-1-0.2-1.3c-3.4-3.4-4.7-7.5-4.3-12.2
			C407.5,147.8,406.3,147.4,404.8,147.5z M403.7,176.7c1.5,1.9,2.9,3.7,0.3,5.3c-0.2,0.1,0.1,1.2,0.4,1.7c1.2,2.7,3.5,4.1,6.4,4.4
			c3.2,0.3,6.3-0.2,9-2.7c-2.6-1.6-5.1-2.9-7.4-4.6C409.8,179.1,407.4,177.3,403.7,176.7z M446.9,5c-0.2,0.4-0.6,0.9-0.6,1.4
			c-0.4,5.1,3.4,10.7,8.1,12.1c2.7,0.8,2.7,0.9,2.6-2.2c0-0.8-0.1-1.7,0.2-2.4c1-2.3-0.2-3.7-2-4.7c-2.5-1.4-5-2.7-7.5-4.1
			C447.6,5.2,447.4,5.2,446.9,5z M148.1,20.9c1,2.9,1.9,5.3,2.5,7.8c0.5,2.5,0.6,5,0.9,7.5c0,0.2,0,0.4,0.1,0.5
			c0.5,0.3,1.1,0.8,1.4,0.7c3.8-1.9,6.2-7.3,4.9-11.5c-0.4-1.4-1.1-2.4-2.9-2.7C152.8,22.8,150.8,21.8,148.1,20.9z M399.8,223.2
			c-0.2,0.1-2.5,0.3-2.7,0.9c-0.3,1.4,0.4,3,0.9,4.5c0.3,0.9,1,1.6,1.7,2.3c1.7,2,5.9,3.2,7.8,2.2c0.7-0.4,1.6-1.4,1.5-2
			C408.8,225.9,405.8,223.1,399.8,223.2z M423.8,24.2c-2.9-3.1-5.2-5.7-5.9-9.3c-0.4-2-4.4-5.5-4.7-4.8c-0.9,1.6-1.2,3.5-1.8,5.2
			c0,0.1,0,0.3,0,0.5c-0.3,5.5,2.4,8.4,7.9,8.4C420.5,24.2,421.8,24.2,423.8,24.2z M381.7,8.1c-1.3,3.1-2.6,6.1-3.8,9.3
			c-0.4,1-0.5,2.2-0.5,3.3c0,0.5,0.6,1.4,1,1.4c3.7,0.1,7.6,1.2,11.3-1.3C385.8,17.2,383.5,13,381.7,8.1z M400.5,164.2
			c-4.9,4.2-5.8,5.9-6.7,11.5c-0.1,0.8-0.5,1.5-0.6,2.3c-0.2,1.3-0.4,2.7-0.5,4c1.4-0.2,2.8-0.2,4.1-0.6c1.4-0.4,2.7-1,3.9-1.7
			c0.4-0.2,0.6-1.3,0.4-1.6c-2.8-3.3-1.4-6.9-0.9-10.5C400.3,166.6,400.3,165.5,400.5,164.2z M350.4,63.4c-5.2,1.8-5.2,1.8-5.1,6.9
			c0,0.5-0.1,1,0,1.4c0.8,1.7,1.5,3.5,2.5,5c1.2,1.6,2.6-0.2,4-0.1c0.9,0,1.8-0.2,2.8-0.3C353.3,71.8,351.9,67.6,350.4,63.4z
			 M399.1,146.8c-2.4-0.8-3.7,0.4-4.8,1.8c-3.7,4.7-6.4,9.8-8,15.8C394.8,161.4,396.9,154.2,399.1,146.8z M463.3,32.6
			c-2.1-1.4-4-2.6-5.7-4c-1.7-1.4-3.1-3.1-4.7-4.7c-0.4-0.5-0.8-1-1.4-1.3c-0.6-0.4-1.5-0.8-2-0.6c-0.6,0.2-1.1,1.2-1.2,1.8
			c-0.4,2.5,1.7,4.7,4.9,5.4c0.8,0.2,1.6,0.6,2.4,1c-0.7,0.6-1.3,1.2-2.1,1.7c-0.6,0.4-1.3,0.5-2.1,0.7
			C454.6,36.6,460,36.5,463.3,32.6z M422,32.9c-0.6,2.6,1.2,4.6,3.3,5.5c2.7,1.2,5.8,1.6,8.8,2.2c0.3,0.1,0.9-0.4,1-0.7
			c0.1-0.4-0.2-0.9-0.4-1.3c-2.1-2.4-4.2-4.9-6.3-7.3c-0.5-0.6-1.3-1-2-1.4C423.1,28.2,422,28.9,422,32.9z M402.7,144.1
			c-1-4.7-1-9-4.1-12.2c-1.1-1.2-2.3-2.5-3.4-3.7c-0.2-0.3-0.4-0.6-0.6-0.8c-0.2,0.4-0.7,0.9-0.6,1.2c1.2,3.3,1,6.5,0,9.9
			c-0.7,2.5,0.2,3.5,2.7,4.2C398.4,143,400.3,143.5,402.7,144.1z M336,58.6c-5.4-0.1-8,1.8-9.2,6.6c-0.4,1.7-1.1,3.3-1.4,5
			c-0.1,0.7-0.1,1.8,0.3,2.1c0.5,0.4,1.8,0.6,2.2,0.2c1.7-1.4,3.6-2.8,4.6-4.7C334,64.9,334.8,61.7,336,58.6z M348,20.7
			c6.3-1.2,10.4-3.7,13.6-7.9c0.8-1,1.2-2.2,1.7-3.4c0.2-0.5,0.3-1.5,0-1.8c-0.5-0.4-1.4-0.5-2.2-0.6c-0.4,0-1,0.2-1.3,0.5
			C355.6,10.9,351.4,14.6,348,20.7z M409.4,125.5c-2.8-1.7-4.9-3.2-7.2-4.3c-2.3-1.1-4.7-2-7.2-2.7c-1.5-0.4-2.1,0.5-1.6,1.9
			c1,2.9,4.7,3.9,5,7.2c0,0.2,1.1,0.4,1.8,0.4C403.4,128.2,406.2,127.2,409.4,125.5z M444.5,11.8c-1-1.4-1.5-2.7-2.4-3.4
			c-1-0.8-4.5,0.4-5.2,1.7c-1.7,3.1-3,6.4-6.3,8.2c-0.2,0.1-0.2,0.9,0,1.2c0.2,0.3,0.9,0.7,1.2,0.6c2.9-1,5.9-1.7,8.5-3.2
			C441.9,15.8,443,13.6,444.5,11.8z M306.4,14.4c-0.1-2.9-1.3-3.6-3.8-2.2c-1,0.6-2,0.9-2.9,1.6c-0.7,0.5-1.6,1.3-1.7,2.1
			c-0.5,2.5-0.8,5-1,7.6c0,0.4,0.9,1.4,1.3,1.4C301.7,24.2,306.5,18,306.4,14.4z M410.8,200.4c0.1-0.4,0.2-0.7,0.2-1.1
			c-5.1-2.1-6-7.2-7.8-12c-1.3,2.9-2.6,5.2-3.3,7.7c-1,4,1.5,6.9,5.5,6.6C407.2,201.5,409,200.8,410.8,200.4z M590.3,20.4
			c-0.3,0.3-1.4,1-1.3,1.6c0.3,4,0.8,7.9,4.1,10.8c1,0.8,1.8,0.9,2.2-0.3c1-3,1.9-6.1,2.6-9.2c0.1-0.5-0.5-1.6-1-1.7
			C594.9,21.2,592.8,20.9,590.3,20.4z M368.6,70.6c-1.2,2.9-2.5,5.8-3.7,8.7c-0.6,1.6-0.3,3.2,2.1,3.2c3.9,0,7.8,0.8,11.9-0.6
			C374.8,78.7,369.4,76.7,368.6,70.6z M168.5,520c-2.1,0-3.7-0.1-5.3,0c-7.8,0.3-8,0.5-8,8c0,1,0.2,2,0.4,4.1
			C159.1,526.3,165.7,525.9,168.5,520z M355,43.7c-3.2,0-3.5,0.1-4.3,1.8c-0.6,1.3-0.7,2.6,0.5,3.5c3.2,2.5,6.8,4.3,11,4.2
			c1.2,0,1.6-0.9,0.8-2c-1.2-1.7-2.8-3.2-3.7-5C358.2,44.2,356.9,43.4,355,43.7z M341.4,59.3c-4.5,3.8-7.1,7.6-7.5,12
			c-0.2,2.9-2.2,6.2,1.1,9.3C337,73.5,341.5,67.5,341.4,59.3z M306.8,518.4c-4.2-2.4-8-3.9-10.6-7.2c-0.4-0.5-1.4-0.6-2.1-0.5
			c-3.9,0.7-4.3,1.6-2.2,5.2c0.4,0.7,0.6,1.7,1.2,2.1c1.1,0.8,2.5,1.7,3.8,1.6C299.9,519.5,302.9,518.9,306.8,518.4z M253.1,12.3
			c-0.9-1.6-1.9-3.4-3-5.2c-0.9-1.4-1.7-0.9-2.5,0.3c-2.5,3.8-3.2,8.3-4.7,12.6c-0.4,1.1,0.8,1.4,1.5,0.8c2.8-2.4,5.5-4.8,8.2-7.3
			C252.8,13.3,252.8,13,253.1,12.3z M575.1,34.7c1.8-6,5.3-10.2,4.7-16.4c-2.2,1.6-3.8,2.8-5.5,4c-3.6,2.3-3.7,2.3-2.2,6.4
			C572.8,30.4,573.8,32,575.1,34.7z M415.3,148.5c0.1-0.2,0.2-0.4,0.3-0.6c-1.1-1.5-2.8-2.8-3.2-4.4c-1.2-5.2-5.5-7.6-8.7-11
			c-0.4-0.5-1.1-0.7-1.6-1.1c1.7,2.9,2.6,5.7,2.6,8.8c0,1,0.7,2.6,1.4,2.8c2.4,0.6,3.6,2.7,5.4,3.9C412.6,147.7,414,148,415.3,148.5
			z M190,20.9c0.1-2.3-1-3.5-2.5-4.2c-1.4-0.6-2.6,0.3-3.2,1.4c-1.7,2.9-3.1,6-4.6,9c-0.2,0.3,0,1.2,0.2,1.3c0.5,0.2,1.2,0.2,1.7,0
			c3.2-1.1,5.4-3.4,7.6-5.8C189.6,22.1,189.8,21.3,190,20.9z M375.2,62.4c0.1,4.1,1,7.6,6,7.9c0.1,0,0.3,0.2,0.4,0.2
			c1.6,0.6,3.1,1.9,4.9,0.8c-0.6-1.4-1.2-2.7-1.8-4.1C382.9,62.9,379.8,61.1,375.2,62.4z M380.6,45.6c-0.5,2.1-1,3.7-1.3,5.2
			c-0.5,3.5,0.7,7.1,6.2,8c1.5,0.2,2.1-0.4,1.8-1.8c-0.5-2.3-0.9-4.7-1.4-7c-0.1-0.4-0.6-1.1-0.6-1.1
			C382.6,49.9,382.3,47.1,380.6,45.6z M347.9,50c-0.8,1.9-1.5,3.8-2.2,5.7c-0.7,1.8-1.4,3.6-2.1,5.4c-0.1,0.4,0,1,0.2,1.3
			c0.2,0.2,0.9,0.3,1.2,0.2c2.7-1.2,5.4-2.3,6.8-5.1c2.2-4.3,2.7-4-1.6-6C349.4,51.1,348.7,50.5,347.9,50z M654.3,40.9
			c-1.7,0-3.4-0.3-4.8,0.1c-1.2,0.4-2.8,1.5-3.1,2.5c-0.7,3-2.1,6.1-1,9.4C649.6,49.6,652.4,45.8,654.3,40.9z M537.5,6.5
			c2.4,1.8,4.6,3.5,6.9,5.1c0.4,0.3,1.3,0.5,1.7,0.3c1.2-0.6,2.1-4.9,1.4-6.1c-2.2-3.4-5.5-3.8-8.5-1C538.5,5.2,538.1,5.8,537.5,6.5
			z M410,221.1c-0.2-0.5-0.2-0.6-0.3-0.8c-2.8-3.4-5.2-7.2-9.2-9.6c-1.2-0.7-1.8-0.8-2.8,0.2c-0.9,1-1,1.9,0,2.9
			c1.6,1.6,3,3.3,4.8,4.6c1.8,1.3,3.9,2.2,5.9,3.1C408.8,221.7,409.5,221.2,410,221.1z M503.7,12.8c-0.6,8.8,0.1,9.5,8.2,9.4
			c0.9,0,1.8-0.1,3.1-0.2C511.7,18.1,508.1,15.3,503.7,12.8z M363.2,28.7c1.1,1.3,2.1,2.5,2.9,3.5c0.7-0.7,1.5-1.4,2.2-2.1
			c0.5,0.6,1.1,1,1.4,1.7c0.9,2.3,2.4,3.3,4.8,3.1c1.1-0.1,2.2-0.1,3.3-0.2c0-4.5-4-4.7-6.4-6.6C368.7,26.1,365.9,27.5,363.2,28.7z
			 M325.2,39.1c-4.1,6.4-5.2,9.9-4.4,13.6C327.7,49,330.4,44.7,325.2,39.1z M216.2,11.3c0.1-1.9-2.3-5.4-3.4-5.1
			c-0.9,0.3-1.3,1.8-2,2.8c-0.6,0.9-1.3,1.8-1.8,2.8c-0.9,1.9-0.8,3.8,0.8,5.3c0.4,0.4,1.3,0.8,1.5,0.6
			C213.7,16,215.2,13.6,216.2,11.3z M337.9,45c-1.4-0.3-2.8-0.5-4.1-0.8c-3-0.6-3.1-0.6-3.2,2.9c0,0.6-0.3,1.2-0.5,1.7
			c-0.7,2.3-1.4,4.5-2,6.8c-0.1,0.4,0.1,1.1,0.4,1.2c0.5,0.2,1.3,0.3,1.7,0.1c0.6-0.4,1.2-1.1,1.5-1.7c1-2.2,2.3-4.3,2.6-6.6
			C334.7,46.1,335.9,45.3,337.9,45z M263.8,25c0-4.3,0-4.2-3.8-3.7c-1.4,0.2-1.8,0.9-1.9,2.2c-0.3,2.8,1.1,5.6,0.3,8.4
			c0,0,1.1,0.6,1.4,0.5C263.1,30.9,264.3,28.2,263.8,25z M601.5,10.8c-0.1-2.3,0-3.6-0.2-4.9c-0.3-1.7-1.2-3-2.9-3.5
			c-0.5-0.2-1.3-0.1-1.7,0.2c-1.7,1.3-2.1,3.7-1,5.5c0.5,0.8,1,1.6,1.5,2.5c0.9,1.5,1.4,3.3,3.5,3.6
			C600.9,12.8,601.3,11.3,601.5,10.8z M206.4,32c2.2-1.1,3.7-1.8,5.1-2.5c3-1.4,3.3-2.1,1.7-4.8c-0.3-0.6-1.1-0.9-1.7-1.4
			c-1.3-1-2.5-2-4.3-3.4C207,23.8,206.7,27.5,206.4,32z M472.5,4.3c0.5,2.4,0.8,3.6,1,4.8c0.8,5,2.2,6.1,7.1,5.3
			c0.8-0.1,1.7-0.8,2.2-1.5c0.2-0.3-0.4-1.5-1-1.9C479,8.9,476.1,6.9,472.5,4.3z M532.2,31.1c0.3,0.2,0.7,0.4,1,0.5c1-1,2-2,3-3
			c3.5-3.6,3.6-4.5,0.5-8.5c-0.4-0.5-1.2-1.1-1.6-1c-0.6,0.2-1.4,1-1.5,1.6C533.1,24.3,532.7,27.7,532.2,31.1z M275.3,499.3
			c0.9-1.2,1.8-2.4,2.7-3.7c3.2-4.7,3.1-5-0.4-9c-0.3-0.4-0.5-0.8-0.9-1.1c-0.5-0.4-1.2-0.7-1.8-1.1c-0.2,0.7-0.6,1.3-0.6,2
			c0,1.3,0,2.7,0.6,3.8C276.3,493.2,275.1,496.1,275.3,499.3z M479.1,16.5C479.1,16.5,479.1,16.5,479.1,16.5
			c-0.7,0.1-1.3,0.1-1.9,0.1c-1.5,0-2,0.9-1.6,2.2c0.2,0.6,0.4,1.3,0.8,1.7c1.6,1.5,3.2,2.9,4.9,4.4c0.8-1.5,1.6-3.1,2.3-4.6
			c0.3-0.6,0.8-1.5,0.6-2c-0.3-0.7-1.1-1.3-1.8-1.5C481.4,16.5,480.2,16.6,479.1,16.5z M218.7,31.9c2.9-3.3,3.6-7,4.3-10.7
			c0.1-0.4-0.2-1.2-0.4-1.3c-0.5-0.1-1.2,0-1.6,0.3c-1.5,0.9-3,1.9-4.3,3c-0.5,0.4-0.9,1.3-0.7,1.8
			C216.7,27.3,217.7,29.4,218.7,31.9z M645.2,9.9c0-0.4,0.1-0.7,0.1-1.1c-3.4-0.6-6.8-1.8-10.2-1.7c-4.5,0.2-6.7,1.7-8.8,4.3
			C632.7,11,639,10.4,645.2,9.9z M551.4,38.4c1.4-3.6,2.6-6.7,4.2-10.7c-2.8,0.6-4.9,0.9-7,1.5c-0.5,0.1-1.3,1.2-1.2,1.6
			C548.2,33.5,548.4,36.5,551.4,38.4z M274.2,477.5c-0.6-0.5-1.5-1.8-2.6-2.1c-2.2-0.6-3.9,0-4.1,3c-0.1,1.3-1.5,2.6-2.3,3.9
			c1.9,1.7,3.5-1,5.4-0.3c0.1,0.1,0.3,0,0.5,0C272.8,481.8,274.3,480,274.2,477.5z M652,29.3c1-0.3,2.2-0.6,3.3-1
			c-0.7-1-1.2-2.1-2.1-3c-0.9-0.9-1.9-1.8-3.1-2.2c-1.4-0.5-3.1-0.5-4.6-0.5c-0.3,0-1.1,1.1-1,1.2c1.2,1.6,2.4,3.4,4,4.7
			C649.3,29.2,650.7,29.1,652,29.3z M392.2,57.8c6.6-1.8,8.3-5.5,5.8-11.6C394.8,49.3,392.9,53.1,392.2,57.8z M321.8,61.9
			c-0.3-0.7-0.5-1.3-0.7-2c-0.3-1,0.2-2.6-1.5-2.5c-1,0.1-2.2,0.8-2.7,1.7c-1,1.8-1.7,3.8-2.5,5.7c-0.5,1.3,0.7,2.5,1.8,1.8
			c1.8-1,3.4-2.3,5-3.6C321.7,62.9,321.7,62.3,321.8,61.9z M426.3,21.9c0.1-2.8,0.4-3.8,2.8-5.5c3.1-2.2,4.2-5.6,6.2-8.5
			c0.2-0.3-0.3-1.1-0.4-1.7c-0.5,0.2-1.2,0.4-1.6,0.8c-0.3,0.3-0.4,0.8-0.5,1.3c-1.3,4.5-4,7.5-8.6,8.8c-1.9,0.5-2,1.7-0.5,3.1
			C424.4,20.8,425.4,21.2,426.3,21.9z M258.8,9.6c-0.2-0.1-0.3-0.3-0.5-0.4c-1.9,2.7-3.8,5.3-5.7,8c-0.1,0.1-0.2,0.3-0.1,0.4
			c0.2,1,0.5,2.1,0.8,3.1c1.2-0.5,2.6-0.7,3.7-1.4c0.5-0.3,0.7-1.4,0.8-2.2C258.1,14.6,258.4,12.1,258.8,9.6z M234.3,41.1
			c0.7-3,1.5-5.9,2.1-8.9c0.3-1.5,0.7-3.2-0.7-4.5c-0.4-0.4-1-0.8-1.5-1.2c-0.4,0.6-1.2,1.2-1.2,1.8C232.7,32.7,232.5,37,234.3,41.1
			z M555.8,9.9c-0.6-0.5-1.2-1.4-2-1.5c-1.1-0.2-2.9-0.4-3.4,0.2c-1.2,1.4-2,3.3-2.5,5.1c-0.2,0.6,0.6,1.6,1.2,2.2
			c0.3,0.3,1.3,0.2,1.6-0.1c1.6-1.5,3.2-3.1,4.7-4.7C555.6,10.9,555.6,10.5,555.8,9.9z M123.5,6c-1,4.3,1.5,6.7,3.9,9
			c0.2,0.2,1,0.1,1.2-0.1c1.5-1.8,2.1-4.7-0.1-5.9C126.9,8.1,125.3,7.1,123.5,6z M381.9,137c-0.3-5.1,1.3-10.3-1.1-15.7
			C378.4,125.9,378.8,132.1,381.9,137z M383.2,45.1c0.6-0.2,1.1-0.5,1.7-0.7c0.4-2.3,0.7-4.6,1-6.9c0-0.4-0.5-1.1-0.6-1.1
			c-1.5,0.3-3.4,0.3-4.4,1.3c-0.7,0.6-0.5,2.7-0.1,4C381.3,42.8,382.4,43.9,383.2,45.1z M409.8,48.8c-0.3,0-0.6,0-0.9,0
			c-0.7,1.4-1.5,2.8-2.2,4.2c-0.7,1.5-1.7,1.7-3.1,0.8c-0.4-0.3-0.7-0.7-1.2-0.8c-0.4-0.1-1,0.1-1.1,0.4c-0.2,0.3,0,1.1,0.2,1.2
			c1.6,0.6,3.2,1.4,4.9,1.5c4.5,0.3,5.1-0.4,4-4.7C410.2,50.5,410,49.6,409.8,48.8z M505.7,10.8c2.9,2.1,5.8,4.3,8.7,6.5
			c0.4,0.3,0.7,0.6,1.2,0.8c0.2,0.1,0.8,0,0.8-0.1c0.1-0.4,0.1-1-0.1-1.2c-1.6-1-3.4-1.7-4-3.9c-0.4-1.7-1.2-3.2-1.8-4.9
			c-1.6,0.7-3.1,1.4-4.7,2.2C505.8,10.3,505.8,10.5,505.7,10.8z M332.3,6.2c-1.3,2.5-2.6,4.7-3.6,6.9c-0.3,0.6-0.4,1.7,0,2
			c0.9,0.8,2,1.4,3.1,2c0.1,0.1,0.9-0.5,0.9-0.9c0.3-2,0.7-4,0.7-6C333.3,9.1,332.7,7.9,332.3,6.2z M498.6,28.1
			c-0.3-0.2-0.6-0.5-0.9-0.7c-1,0.9-2.6,1.8-2.8,2.8c-0.4,3.6-0.6,7.3,0.2,11.4C498.9,37.2,496.6,32.2,498.6,28.1z M418.2,223.1
			c-1.8,0-2.7,0-3.7,0c-0.5,0-1,0-1.4,0c-3.3,0.4-3.8,1.2-2.5,4.3c0.4,1,0.8,2,1.5,3.5C414.1,228.3,415.9,226,418.2,223.1z
			 M353.7,101.3c3.2-3.8,2-3.8,0.2-5.9c-1.6-1.7-2.9-3.7-4.6-5.8c-0.2,1.5-1,3.2-0.5,4.2C350.2,96.5,352.1,98.8,353.7,101.3z
			 M407.9,214.3c0.4-4.5-0.7-7.5-3.6-9.1c-0.6-0.3-1.6-0.2-2.2,0c-0.4,0.2-0.6,1.1-0.5,1.7c0.1,0.7,0.5,1.6,1,2.1
			C404.3,210.8,406,212.4,407.9,214.3z M360.5,22.1c-0.3-0.5-0.4-0.8-0.5-1c-1-1.3-2.1-1.9-3.7-0.8c-1.4,0.9-3.5,1.1-3.1,3.6
			c0.1,0.3,0.2,0.8,0.4,0.8c1.5,0.3,3.2,1.1,4.4,0.7C359.1,24.9,359.7,23.2,360.5,22.1z M129.5,19c3.2-0.4,6.9-2.8,7.8-4.9
			c0.1-0.3,0.2-0.7,0-0.9c-0.6-1.4-3.7-1.8-4.4-0.5C131.7,14.8,130.7,16.9,129.5,19z M370,24.7c2.1,1.3,4.1,2.6,6.2,3.6
			c0.4,0.2,1.4-0.3,1.8-0.8c0.4-0.5,0.7-1.7,0.5-2c-1.1-1.1-2.3-2.3-3.7-2.9c-0.8-0.3-2,0.6-3,1C371.2,23.9,370.6,24.3,370,24.7z
			 M424.3,41.6c-1.2,0.8-2.1,1.4-3.1,1.9c-3,1.5-3.5,2.3-3,5.4c0.1,0.4,0.4,1,0.7,1.1c0.3,0.1,1-0.1,1.3-0.4
			C422.2,47.5,424,45.2,424.3,41.6z M450.8,3.9c3.6,2.1,6.1,3.6,8.7,5.1c0.6-1.9,1.2-3.8,1.9-6.2c-2,0.4-3.4,0.8-5,1
			C454.9,4,453.3,3.9,450.8,3.9z M421,222.8c-2.2,3.3-3.9,5.8-5.6,8.3c-0.6,0.9-1.7,2.4-1.5,2.6c1.5,1.4,2.6-0.1,3.6-0.9
			c0.9-0.8,1.9-1.9,2.3-3C420.4,227.8,420.5,225.8,421,222.8z M555.5,14.6c-4.3,2.7-4.3,2.9-1.8,6.1c0.8,1,1.6,2.1,2.5,3.2
			C559.2,20.2,554.7,17.9,555.5,14.6z M263.9,389.5c-0.3,0-0.7,0.1-1,0.1c0,3.7,0,7.3,0,11c0,1,0.3,2.2,1.6,1.8
			c0.6-0.2,1.3-1.4,1.2-2.1C265.2,396.6,264.5,393.1,263.9,389.5z M355.8,39.1c-0.5-1.5-0.9-2.8-1.3-4.1c-0.7-2.6-3-3-5.1-3.7
			c-0.2-0.1-0.6,0.1-0.8,0.3c-0.1,0.2-0.2,0.7,0,0.8C350.7,34.9,352,38.2,355.8,39.1z M614.4,6.5C612.6,6.3,611,6,609.3,6
			c-1.9,0-3.6-2.6-5.6-0.3c1.6,0.9,3.2,1.8,4.8,2.6C611,9.6,613.1,9.3,614.4,6.5z M438.8,21.2c0.3,0.2,0.6,0.6,1,0.7
			c0.9,0.3,7-2.5,6.9-3.2c0-0.9-0.5-1.8-1-2.5c-0.1-0.2-1.1,0-1.4,0.3C442.6,17.9,440.8,19.5,438.8,21.2z M200.9,38.6
			c3.2,0.3,5.5-0.4,7.5-2.1c0.4-0.4,0.8-1.1,0.7-1.6c-0.1-0.3-0.9-0.7-1.5-0.7C204.3,33.7,203,36.3,200.9,38.6z M386.1,31
			c-1.1-1.8-2.2-3.6-3.3-5.3c-0.1-0.2-1.1,0-1.2,0.2c-0.4,1.3-1.3,3.1-0.8,3.9c0.8,1.1,2.6,1.5,4,2.1
			C385.1,31.9,385.5,31.4,386.1,31z M491.3,10.1c0.1-0.1,0.3-0.3,0.4-0.4c-1.5-2.3-2.9-4.5-4.4-6.7c-0.6-0.9-1.5-1.2-2.3-0.1
			c-0.4,0.6-0.9,1.1-1.2,1.4C486.4,6.3,488.9,8.2,491.3,10.1z M393.8,8.7c1.5,1.8,2.5,3.1,3.8,4.8c1-1.9,1.8-3.5,3-5.9
			C398.1,8,396.2,8.3,393.8,8.7z M319.1,42c0.2,0.1,0.4,0.1,0.6,0.2c1.3-2.7,2.7-5.4,4-8.1c0.2-0.5,0.1-1.3,0-1.9
			c0-0.3-0.3-0.6-0.5-0.7c-0.2-0.1-0.7,0.1-0.8,0.3C321.3,35.1,320.2,38.6,319.1,42z M273.9,541.3c1.5-3.3,2-6,1-10
			C274,535.1,271.4,537.5,273.9,541.3z M327.6,17.6c-1.1,1.6-2.2,3-1.1,4.6c0.4,0.6,1.4,0.9,2.1,1.4c0.3-1,2.6-1.2,1.3-2.9
			C329.1,19.6,328.4,18.7,327.6,17.6z M184.8,36.3c2.8,3.1,3.2,3,4.5-0.6c0.3-0.7,0.5-1.4,1-2.6C188,34.5,186.4,35.4,184.8,36.3z
			 M349.6,13.5c1-1,1.8-1.7,2.6-2.4c0.9-0.8,0.4-1.5-0.4-1.9c-0.9-0.4-2-0.6-3-0.9c0.1,1,0.1,2.1,0.3,3.1
			C349.1,11.9,349.3,12.5,349.6,13.5z M378.1,40c-0.8,0.6-1.3,1-1.7,1.4c-1.7,1.6,0.7,3.5-0.4,5.2c0.3,0.2,0.5,0.3,0.8,0.5
			c0.5-1.4,1-2.9,1.4-4.3C378.4,42,378.1,41.1,378.1,40z M658,33.2c-3.3,1.2-3.3,1.2-4.4,3.5C655.9,36.7,658,36.7,658,33.2z
			 M401.9,31.1c-0.7-0.8-1.1-1.7-1.6-1.7c-0.6-0.1-1.9,0.6-1.9,0.9c0.1,0.9,0.6,1.7,1,2.5C400.1,32.2,400.9,31.8,401.9,31.1z
			 M173.1,24.7c3.4,2.6,3.4,2.6,4.6-1.2C176.2,23.9,174.7,24.3,173.1,24.7z M433.4,33.3c-0.2,0.2-0.3,0.4-0.5,0.6
			c1.3,0.8,2.6,1.7,3.9,2.4c0.2,0.1,0.9-0.6,1.2-1.1c0.1-0.2-0.3-1-0.6-1C436.2,33.8,434.8,33.6,433.4,33.3z M389.5,148.9
			c0.2,0.1,0.4,0.2,0.6,0.3c1-1.2,2.1-2.3,3-3.6c0.2-0.3-0.2-1.2-0.5-1.4c-0.3-0.2-1.3,0.1-1.4,0.5
			C390.5,145.9,390,147.4,389.5,148.9z M138.8,16.6c0.1,0.2,0.3,0.4,0.4,0.5c1.1-0.7,2.3-1.4,3.3-2.2c0.3-0.2,0.1-1,0.2-1.6
			c-0.7,0.1-1.6-0.2-1.9,0.2C140,14.4,139.5,15.6,138.8,16.6z M280.8,473.3c-2.3,0.5-3.9-0.7-4.9,1.1c-0.1,0.2,0.2,0.9,0.6,1.1
			C278.5,476.9,278.9,475,280.8,473.3z M323.4,58.6c1.8-2,1.8-2,2.2-5C323.4,54.9,322.6,56.4,323.4,58.6z M500.1,18.1
			c0.4-1.3,0.9-2.2,1.1-3.3c0.1-0.3-0.7-1-1.1-1.1c-0.4,0-1.2,0.7-1.1,1C499.1,15.8,499.6,16.8,500.1,18.1z M360.2,41.3
			c0.7,3.1,2,3.7,4.1,2.9C363.1,43.3,362,42.6,360.2,41.3z M388,11.5c-0.1-0.2-0.3-0.7-0.5-1.3c-0.4,0.6-1,1.1-1.2,1.8
			c-0.1,0.3,0.2,0.9,0.4,1.3c0.1,0.2,0.5,0.5,0.7,0.5c0.1,0,0.5-0.3,0.5-0.5C387.9,12.9,387.9,12.4,388,11.5z M673.1,41.3
			c0.3-0.1,0.6-0.1,0.9-0.2c-0.1-0.7,0-1.4-0.2-2.1c-0.2-0.6-0.6-1.1-1-1.6c-0.2,0.1-0.5,0.2-0.7,0.3
			C672.4,39,672.8,40.2,673.1,41.3z M446.5,23.8c-0.7-0.6-1.2-1.2-1.5-1.2c-0.5,0.1-0.9,0.7-1.3,1.1c0.4,0.4,0.8,1,1.3,1.1
			C445.3,25,445.8,24.3,446.5,23.8z M272,445.4c0.4-0.2,0.7-0.4,1.1-0.7c0.2-0.6,0.5-1.2,0.6-1.8c0-0.3-0.5-0.7-0.8-1
			c-0.4,0.7-0.8,1.4-1,2.1C271.8,444.5,271.9,444.9,272,445.4z M210.2,536.3c-0.1-0.1-0.3-0.1-0.4-0.2c0,1.5,0,2.9,0,4.4
			c0.1,0,0.3,0,0.4,0C210.2,539.1,210.2,537.7,210.2,536.3z M387,24.6c-0.4,0.4-0.7,0.7-0.7,0.8c0.4,0.7,0.9,1.4,1.3,2.1
			c0.1-0.3,0.3-0.6,0.2-0.8C387.7,26,387.3,25.3,387,24.6z M174.5,6.3c0.4-0.2,0.6-0.3,0.8-0.4c-0.4-0.3-0.8-0.7-1.3-0.9
			c-0.2-0.1-0.5,0.2-0.8,0.3C173.7,5.6,174.1,5.9,174.5,6.3z M272.3,521.5c-0.1,0-0.3,0-0.4,0c-0.1,0.6-0.2,1.2-0.2,1.7
			c0,0.3,0.2,0.5,0.3,0.8c0.2-0.3,0.5-0.6,0.5-0.9C272.5,522.6,272.4,522,272.3,521.5z M455.9,21.7c-0.2,0.2-0.6,0.3-0.7,0.5
			c0,0.2,0.2,0.5,0.4,0.8c0.3-0.2,0.6-0.5,0.9-0.7C456.4,22,456.1,21.9,455.9,21.7z M629.2,20.4c-0.6-0.3-1.2-0.6-1.7-0.8
			c-0.1,0-0.2,0.2-0.4,0.3c0.4,0.4,0.9,0.8,1.4,1.2C628.5,21.1,628.8,20.8,629.2,20.4z M388.7,44.6c-0.2-0.2-0.3-0.6-0.5-0.6
			c-0.2,0-0.5,0.2-0.8,0.4c0.3,0.3,0.5,0.6,0.8,0.9C388.3,45,388.5,44.8,388.7,44.6z M290.9,355.4c-0.1-0.3-0.2-0.5-0.4-0.8
			c-0.1,0.2-0.4,0.5-0.4,0.7c0,0.3,0.3,0.6,0.5,0.9C290.7,356,290.8,355.7,290.9,355.4z M152.6,531.2c0,0.1-0.1,0.3-0.1,0.4
			c0.2,0,0.4,0,0.5,0.1c0-0.1,0-0.3-0.1-0.4C152.9,531.2,152.7,531.2,152.6,531.2z M380.8,34.3c0,0.1,0,0.3,0.1,0.3
			c0.1,0.1,0.3,0.1,0.5,0.1c0-0.2-0.1-0.4-0.1-0.5C381.1,34.2,381,34.2,380.8,34.3z M324.8,61c-0.1-0.1-0.2-0.2-0.2-0.4
			c-0.1,0.1-0.3,0.3-0.3,0.3c0.1,0.2,0.3,0.3,0.4,0.5C324.7,61.3,324.7,61.2,324.8,61z M269.3,515.7c-0.1,0-0.3,0-0.3,0.1
			c-0.1,0.1-0.1,0.3-0.1,0.4c0.2,0,0.4-0.1,0.5-0.1C269.4,515.9,269.3,515.8,269.3,515.7z"/>
		<path d="M66.9,68.9c-4.2,2.5-8.7,4.2-13.7,3.9c-2.2-0.2-4.6-0.2-6.6-1.1c-2.3-1-4.1-0.2-6,0.4c-1.5,0.5-2.9,1.3-4.4,2.1
			c-4.5,2.3-5.5,5.1-3.4,9.9c0.8,1.8,1.5,3.5,2.1,5.4c0.5,1.7,0.9,3.4,1.4,5.3c2.8-1.6,3.2-4.4,3.4-7c0.3-3.9,0.2-7.7-1.5-11.4
			C38,76,38.3,75.4,38.4,75c0.5,0.2,1.2,0.2,1.6,0.6c0.4,0.4,0.6,1.1,0.8,1.7c1.6,4.4,1.1,8.9,0.6,13.4c-0.3,2.9-2.2,4.9-4.5,6.6
			c-1.6,1.2-3,0.7-3-1.2c0-4.5-1.3-8.5-3.2-12.5c-0.5-1.1-0.4-2.5-0.8-3.7c-0.2-0.7-0.6-1.3-1.6-1.8c0,0.8-0.2,1.6,0,2.3
			c2.2,7.5-2.2,12.6-6.6,17.6c-2,2.3-3.7,1.5-4.4-1.8c-0.5-2.5-0.7-5.1-0.9-7.6c-0.1-1.8,0-3.5,0-6.4c-1.4,1.6-2.3,2.4-2.8,3.3
			c-1.2,1.9-2.9,3.1-4.9,3.6c-1.6,0.4-3-0.9-2.5-2.5c2-6.4,4.2-12.8,6.4-19.2c0.2-0.7,0.8-1.4,1.5-1.7c2.7-1.5,5.5-2.7,8.6-2.7
			c4.1,0,8.1-0.2,12.3-1.6c3.7-1.3,8.3-1.1,12.4,0.5c7.1,2.8,12-0.3,15.5-5c1-1.3,1.4-2.5,0.7-4.2c-1.9,0.9-3.7,1.9-5.6,2.7
			c-3.6,1.5-7.3,1.4-10.7-0.3c-2.8-1.4-2.8-2.8-0.1-4.5c3.3-2,6.4-4.2,8.9-7.6c-1.1-0.2-2.1-0.2-2.9-0.6c-2.2-1-2.6-2.2-1.7-4.6
			c1.9-4.8,3.8-9.6,5.7-14.3c0.6-1.5,1.2-2.9,2-4.8c-8.1,1.2-13.5,7.4-21.6,9.4c4.4,2.5,7.8,5,12.4,3.2c0.5-0.2,1.3,0.5,2,0.7
			c-0.4,0.6-0.7,1.5-1.2,1.7c-4.8,2.1-12.8-0.7-15-5.3c-0.6-1.3-0.6-2.1,0.8-2.6c1.1-0.4,2.1-0.9,3.2-1.1c4.9-1,8.4-4.7,12.6-7
			c1.2-0.6,1.9-2.6,2.4-4c1.5-4,3.6-7.5,7.5-9.7C63.3,3.5,64,2,65,1c1.9,0,3.9,0,5.8,0c-1.2,0.7-2.3,1.5-3.5,2.2
			c-4.7,2.9-8.8,6.3-10.7,12.4c4.4-0.6,8-1.8,10.4-5.3c2.1-3,3.9-6.2,5.8-9.4c1,0,1.9,0,2.9,0c1.5,2.2,2.8,4.6,4.4,6.7
			c0.7,0.8,2.1,1,3.2,1.4c0.3-1.2,0.8-2.3,0.8-3.5c0-1.5-0.5-3.1-0.7-4.6c1,0,1.9,0,2.9,0c0.4,1.4,0.6,4,1.2,4.1
			c2.2,0.4,1.3-2.2,2.3-3.3C90,1.6,90.1,1.3,90.2,1c1,0,1.9,0,2.9,0c-1.8,5.1-1.9,9.9,1.5,14.5c1.9,2.6,3.5,5.4,5.4,8.3
			c0.8-1.5,1.7-2.9,2.2-4.4c1.7-4.4,2-8.7-0.5-12.9C100.5,4.6,99.2,2.8,98,1c1,0,1.9,0,2.9,0c0.9,1.3,1.7,2.6,2.6,3.9
			c0.6,0.8,1.5,1.2,2.4,0.3c1.3-1.3,2.5-2.8,3.8-4.1c1,0,1.9,0,2.9,0c-2,2.3-4,4.5-5.8,7c-0.6,0.8-1,2.1-0.9,3
			c0.7,6.4-2.5,11.5-5.2,16.8c-0.7,1.3-1.8,1.3-2.5-0.2c-0.5-1.1-0.7-2.4-1.2-3.6c-0.6-1.5-1.2-2.9-2.1-4.8
			c-1.9,2.7-3.7,4.4-6.6,4.3c-1.9-0.1-2.2,1.1-1.5,2.6c1.7,3.5,1.6,7.2,1.6,10.9c0,1.5-0.1,3-1.7,3.7c-1.7,0.7-3.2,0.1-4.3-1.3
			c-1.7-2.2-3.2-4.4-5-6.5c-0.6-0.7-1.8-1.4-2.7-1.4c-1.1,0-2,2.3-1.4,3.6c1.9,4.3,4.2,8.4,8.5,10.8c4,2.1,6.9,5.3,9.3,9
			c1.2,1.9,1.1,2.6-0.9,3.1c-3.5,1-7.1,1.7-10.7,2.5c-1.8,0.4-2.3,0.9-1.4,2.6c2,3.8,2.7,7.8,2.6,12.1c-0.1,2.8-0.9,5.1-2.9,6.9
			c-2.5,2.2-5.2,4.3-7.8,6.4c-1.4,1.1-2.9,1.9-4.4,2.9c-1.8,1.2-3.3,0.8-3.4-1.3c-0.3-6.1-0.9-12.3,3-17.7
			C65.9,71.2,66.4,70,66.9,68.9c0.1-0.1,0.3-0.1,0.4-0.2c0.1-0.1,0.1-0.2,0.1-0.3C67.2,68.5,67.1,68.7,66.9,68.9z M74.7,43.7
			c-0.1-0.1-0.1-0.3-0.2-0.4c-0.1-0.1-0.2-0.1-0.3-0.1C74.4,43.3,74.5,43.5,74.7,43.7c-0.6,2.1-1.2,4.3-1.6,6.5
			c-0.1,0.7,0.4,1.5,0.7,2.2c0.5,1,1.1,0.9,1.8,0.1c0.4-0.4,1-0.4,1.5-0.6c0.1,0.6,0.4,1.2,0.3,1.8c-0.4,3.2-0.1,3.9,2.9,3.6
			c2.6-0.3,5-1.4,8.4-2.4c-2.2-2.1-3.6-3.9-5.3-5.2C80.6,47.5,77.6,45.6,74.7,43.7z M69.8,56.3c0.5,0.1,1.3,0.1,1.3,0.3
			c0.8,3.6,2.8,7.1-0.2,10.9c-2,2.5-3.4,5.5-5,8.3c-1.9,3.4-2.3,7-1.7,10.8c0.1,1,0.8,1.8,2,0.9c2.2-1.6,4.5-3,6.8-4.6
			c5.8-4.2,6.8-7.2,4.5-14.1c-1.5-4.5-3.3-9-4.9-13.4c-0.2-0.5-0.6-1-0.9-1.5c-0.4,0.4-0.9,0.8-1.3,1.3
			C70.2,55.4,70.1,55.8,69.8,56.3c-6.4,4.7-12.6,9.6-21.1,10.9c1.1,1,1.9,2.4,2.7,2.4c3.8,0.3,7.7,1,11.3-1.1
			C67.5,65.7,69.7,61.6,69.8,56.3z M73.7,4.1c-1.2,2-2.3,3.8-3.5,5.7c-4.3,6.9-3.9,14.3-2.2,21.8c0.1,0.5,0.2,1.1,0.6,1.3
			c0.4,0.2,1.3,0.4,1.5,0.1c2.5-3,4-6.6,4.4-10.4c0.1-0.9-0.6-2.1-1.2-2.9c-2-2.4-1.9-3,1-4.3c2.3-1,4.6-2.1,6.6-3
			C78.5,9.7,76.3,7.2,73.7,4.1z M46.2,64.5c-0.6-0.2-0.9-0.4-1.2-0.5c-4.2-0.7-8.7-3.2-11.9,2.1c-0.2,0.3-0.9,0.1-1.3,0.3
			c-4.9,1.9-7.2,6-9.7,10.7C31.3,74.5,39.5,71.3,46.2,64.5z M64.9,16c-3.3,1.1-3.7,4-4.8,6.1c-2.8,5.1-4.7,10.5-6,16.2
			c-0.4,1.8,0.7,1.4,1.5,1.4c0.5,0,1-0.2,1.4-0.4c4.1-3.1,6.8-7.4,7.8-12.3C65.5,23.5,64.9,19.7,64.9,16z M88.2,7.9
			c-1.6,4.6-5.5,6.2-9.3,8c-0.7,0.3-1.5,0.7-2.1,1.1c-0.9,0.6-0.8,1.3,0,1.9c2.1,1.6,4.7,0.8,6.9,1.6c4.1,1.4,7.1,0.1,9.6-2.4
			C91.7,14.8,90.1,11.6,88.2,7.9z M66.1,35.4c-2.2,2-2.4,4.5-1.9,7.1c0.7,4.4,1.7,8.7,2.5,13.1c5.6-4.9,6-11.3,4.6-18.3
			C68.2,39,68.2,39,66.1,35.4z M25.3,78.6c-1.5,0.9-2.7,1.7-3.9,2.4c-2.9,1.8-3,1.8-2.9,4.7c0.1,2.9,0.2,5.7,0.7,8.5
			c0.3,1.8,1.5,2,2.6,0.6c0.9-1.1,1.9-2.2,2.5-3.5C26.3,87.4,28.7,83.4,25.3,78.6z M9.6,86.3c0.6-0.4,1.3-0.7,1.6-1.1
			c2.4-3.6,4.8-7.1,7.1-10.8c1-1.6,1-3.4,0.1-5c-0.4-0.8-0.8-2.1-1.3-2.2c-0.7-0.1-1.8,0.5-2.4,1.1c-0.6,0.6-0.9,1.6-1.2,2.5
			c-1.5,3.9-2.9,7.8-4.3,11.7C9,83.4,8.9,84.2,8.9,85C8.9,85.3,9.3,85.7,9.6,86.3z M85.1,37.8c0.3-4.7,0.6-8.7-1.6-12.6
			c-1.4-2.4-2.9-3.5-5.6-2.8c-0.4,0.1-1,0.5-1.1,0.8c-0.4,1.4-0.8,2.8-0.7,4.2c0,0.8,1,1.5,1.6,2.2c1.4,1.7,2.8,3.5,4.2,5.2
			C82.9,35.8,83.9,36.6,85.1,37.8z M61.7,39c-0.9,1.4-1.7,3.2-2.9,4.5c-2.2,2.5-4.7,4.8-7.1,7.2c-0.4,0.4-0.9,1.2-0.7,1.5
			c0.2,0.5,0.9,0.9,1.5,1c2.8,0.5,5.5-0.2,7.8-1.7c2.9-1.9,3.3-3.3,2.5-6.8C62.4,42.7,62.1,40.7,61.7,39z M26.4,66.7
			c0-0.2,0-0.3,0-0.5c-1.8,0-3.6,0-5.4,0c0,0.2,0,0.3,0,0.5C22.8,66.7,24.6,66.7,26.4,66.7z M23.8,70.7c-0.3-0.3-0.6-0.7-0.6-0.7
			c-0.6,0.4-1.2,0.7-1.7,1.2c-0.1,0.1,0.3,0.7,0.5,1C22.6,71.7,23.2,71.2,23.8,70.7z M19.1,78.8c0-0.1,0-0.3,0.1-0.4
			c-0.2,0-0.4,0.1-0.5,0.1c0,0.1,0.1,0.3,0.2,0.4C18.8,79,19,78.9,19.1,78.8z"/>
		<path d="M118.3,528.4c2.5-0.1,4.4,0.6,5.5,3.1c1,2.2,2.5,4.1,3.4,6.3c1.1,2.6,0.7,3.4-1.3,4.1c-2.1,0.7-2.4-0.8-2.9-2.2
			c-0.2-0.6-0.5-1.2-0.8-1.8c-1.4-2.8-3.3-4.6-6.8-4.3c-1.3,0.1-3.2,0.8-3.8-1c-0.7-2.2,1.8-2.4,2.9-3.3
			C115.5,528.5,117.1,528.6,118.3,528.4z M117,530.6c0,0.2,0,0.4-0.1,0.6c1.3,0.2,2.6,0.4,3.9,0.6c0-0.3,0.1-0.6,0.1-0.9
			C119.6,530.8,118.3,530.7,117,530.6z"/>
		<path d="M242.8,422.4c1.1-1.2,2-2.5,3.2-3.5c3.8-3.1,9.4-1.4,10.9,3.3c1.3,4.2,1.8,8.7,0.8,12.9c-1.4,5.9-2.4,11.8-5,17.5
			c-1.9,4-3.9,8.3-3.7,13.1c0.1,1.4-1.1,1.8-2.2,0.9c-4.6-3.5-9.6-6.5-12.6-11.7c-0.3-0.6-0.6-1.2-1-1.7c-5.2-5.3-6.5-12-6.4-19.1
			c0-2.3,0-4.5,0-6.8c0-3.6,1.3-6.4,4.7-7.7c3.4-1.2,6.9-1.7,9.8,1.6c0.2,0.2,0.4,0.5,0.7,0.7C242.3,422.1,242.6,422.3,242.8,422.4z
			 M230.8,421.9c-1.3,0.8-2.2,1.7-1.4,3.9C230,424.2,230.5,423.1,230.8,421.9c0.2-0.1,0.3-0.3,0.5-0.4
			C231.2,421.6,231,421.8,230.8,421.9z M255.1,423.9c0.2,0.2,0.3,0.3,0.5,0.5C255.4,424.2,255.3,424,255.1,423.9
			c0.1-2-0.5-3.5-3.3-4.7C253.2,421.3,254.2,422.6,255.1,423.9z M229.9,442.3c-0.1-0.4-0.2-0.8-0.3-1.3c-0.2,0.1-0.3,0.2-0.5,0.3
			C229.4,441.7,229.6,442,229.9,442.3c-0.4,3.6,1.7,6.2,3.9,8.8c0.2,0.1,0.3,0.3,0.5,0.4c-0.2-0.2-0.3-0.3-0.5-0.5
			C233.2,447.8,231.9,444.9,229.9,442.3z M229.8,430.8c0.1,2.3-0.1,3.7,0.3,4.9c2.6,8.1,5.7,16,11.9,22.2c4.5,4.4,4.5,4.5,7.2-1.3
			c0.3-0.7,0.6-1.5,0.8-2.2c1.3-5.8,2.3-11.6,4-17.2c1.3-4.5,0.5-8.5-1-12.6c-0.4-1.1-1.2-2.2-2.1-3.1c-1.8-1.8-3.3-1.7-4.8,0.4
			c-0.8,1.1-1.2,2.6-1.8,3.9c-0.6,1.3-1.4,1.1-2.2,0.3c-0.5-0.6-0.8-1.4-1.3-2c-3-3.1-7.8-2.5-9.6,1.5
			C230.4,427.4,230.1,429.7,229.8,430.8z"/>
		<path d="M276.3,368.6c0.1-0.8,0-1.5,0.3-1.7c0.5-0.5,1.2-0.8,1.8-1c0.2,0,0.7,0.9,0.8,1.5c0.1,0.4-0.2,1-0.4,1.3
			c-0.4,0.6-1,1.1-1.5,1.6C276.9,369.6,276.6,369,276.3,368.6z"/>
		<path d="M235.4,435.6c0.4-1.9,0.8-3.4,1.2-5c0.4-1.8,1.1-2.3,2.4-0.6c0.1,0.1,0.8-0.1,1.2-0.4c1-0.7,1.4-0.3,1.5,0.7
			c0.1,0.6-0.1,1.4,0.1,1.9c0.5,1,1.3,1.9,2,2.9c0.2-1,0.6-2.1,0.7-3.1c0.4-2.7,1.2-3.6,3.6-3.3c0.6,0.1,1.2,0.9,1.8,1.3
			c-0.6,0.2-1.1,0.4-1.7,0.6c-0.3,0.1-0.6,0.2-0.9,0.2c0.1,0.2,0.2,0.5,0.4,0.5c3,1.1,1.8,1.7-0.2,2.3c-0.3,0.1-0.7,0.9-0.6,1.1
			c0.3,0.5,0.8,0.9,1.3,1.1c0.6,0.3,1.3,0.3,1.9,0.5c-0.6,0.5-1.1,1.3-1.7,1.4c-1.2,0.2-2.4,0-3.6,0.1c-1.1,0.1-2.3,1.1-3,0.7
			c-0.7-0.4-0.8-1.9-1.2-2.9c-0.2-0.4-0.5-0.8-0.8-1.1c-0.4-0.3-0.9-0.5-1.3-0.5c-0.2,0-0.4,0.7-0.5,1.1c-0.4,0.9-0.7,1.9-1,2.8
			C236.2,437.3,235.8,436.4,235.4,435.6z"/>
		<path d="M245.4,447.2c0.6,0,1.4-0.1,1.9,0.2c0.3,0.2,0.4,0.9,0.5,1.4c-4.1,0.6-2.3,3.6-2.3,5.8c0,0.5,0.4,1,0.3,1.4
			c-0.1,0.5-0.5,1-0.8,1.5c-0.5-0.4-1.2-0.6-1.3-1.1c-0.3-0.9-0.3-1.9-0.4-2.8c0-1.2-0.2-2.2-1.7-2.4c-0.9-0.1-0.9-0.8-0.3-1.3
			C242.7,448.8,244.1,448,245.4,447.2C245.4,447.2,245.4,447.2,245.4,447.2z"/>
		<path d="M245.4,447.2c-1.1-0.5-2.2-1-3.3-1.6c-1.4-0.8-2.1-1.4,0-2.4c2.7-1.3,2.6-1.5,2.8,1.7C245,445.6,245.2,446.4,245.4,447.2
			L245.4,447.2z"/>
		<path d="M247.5,454.9c-0.3-0.4-0.4-0.6-0.6-0.7c0.3-0.2,0.7-0.4,1-0.6c0,0,0.3,0.3,0.2,0.3C248,454.2,247.7,454.5,247.5,454.9z"/>
		<polygon points="251.7,435.8 251.8,436.1 251.6,436.1 		"/>
	</g>
</g>
</svg>
