<?xml version="1.0" encoding="utf-8"?>
<!-- Generator: Adobe Illustrator 18.0.0, SVG Export Plug-In . SVG Version: 6.00 Build 0)  -->
<!DOCTYPE svg PUBLIC "-//W3C//DTD SVG 1.1//EN" "http://www.w3.org/Graphics/SVG/1.1/DTD/svg11.dtd">
<svg version="1.1" id="Layer_1" xmlns="http://www.w3.org/2000/svg" xmlns:xlink="http://www.w3.org/1999/xlink" x="0px" y="0px"
	 viewBox="0 51.2 300 197.6" enable-background="new 0 51.2 300 197.6" xml:space="preserve">
<g>
	<g>
		<g>
			<defs>
				<rect id="SVGID_1_" y="51.2" width="300" height="197.6"/>
			</defs>
			<clipPath id="SVGID_2_">
				<use xlink:href="#SVGID_1_"  overflow="visible"/>
			</clipPath>
			<g clip-path="url(#SVGID_2_)">
				<path fill="#FFFFFF" d="M6.7,60.1c1.6,4.2,1.6,4.3,4.6,2.3c0.8-0.5,1.4-1,2-1.5c-0.1-0.3-0.2-0.5-0.4-0.8
					C10.9,60.1,8.8,60.1,6.7,60.1z"/>
				<path fill="#FFFFFF" d="M288.5,178c2.4-2,3.2-4.7,3.8-7.6c0.4-2.7-1.1-4.1-3.8-3.5c-1,0.2-1.8,0.9-2.7,1.5
					c-2.9,2.3-5.7,4.7-8.6,7.1c1-4.8-1.3-8.6-3.7-12.5c-1.6-2.6-4.3-3.7-7.1-4.5c-1.4-0.4-2.6,0.8-2,2.2c0.5,1.7,1.4,3.2,2,5
					c1.7,4.6,1,6.6-3.1,8.8c-2.4,1.3-2.8,1.2-3.6-1.5c-1-3.3-2.4-6-6.3-6.5c-1.3-0.2-3.2,0.2-3.9-0.5c-1-1.1-1.1-2.9-1.6-4.4
					c-0.3-1-0.5-2.2-1.1-3c-1.6-2.8-3.5-5.6-7.2-5.7c-1.8,0-3-0.9-4.1-2.2c-0.6-0.6-1.4-1.2-2.2-1.6c-0.2-0.1-0.8,0-1,0.2
					s-0.5,0.8-0.4,0.9c3.1,3.2,1.5,7.1,1.7,10.8c0.1,0.4-0.6,1-1.1,1.4c-0.1-0.6-0.5-1.3-0.4-1.9c0.1-1.1,0.6-2,0.8-3.1
					c0.4-3.8-0.2-4.4-4-4.2c-0.8,0-1.6-0.1-2.4-0.2c0.3-1.2,0.3-2.6,1-3.5c0.6-0.9,1.9-1,2.8-1.6c1.6-1.3,3.2-2.8,4.6-4.3
					c0.2-0.3,0-1.4-0.3-1.9c-0.1-0.3-1-0.3-1.4-0.2c-0.5,0-1,0.4-1.5,0.5c-3.7,0.6-4.5,0.1-6.6-3.3c-1.6-2.6-3.8-4.9-6.8-5.8
					c-1.1-0.4-2.4-0.2-3.6,0c-0.9,0.1-1.5,1.9-2.6,0.6c-0.5-0.6-0.1-1.9-0.3-2.9c-0.4-1.8,1.1-1.9,2-2.7c3.2-2.5,5-5.7,5-9.7
					c0.1-1.8-1.3-2.4-2.9-1.5c-1.7,1-3.3,2.4-5.2,2.6c-4,0.5-8,0.5-12.9,0.8c1.5-1,2.3-1.6,3.1-2.2c4.5-3.2,9.2-6.3,12-11.3
					c0.4-0.8,0.3-1.7,0.2-2.5c0-0.2-1.2-0.3-1.8-0.2c-5,1.3-10,2.5-15,3.8c-0.1,0-0.2,0.1-0.3,0.2l0,0c0.1,0,0.2-0.1,0.3-0.1
					c0.5-1,1.1-1.8,1.3-3.1c1.3-3.1,0.5-4.4-2.7-4.6c-2.4-0.1-4.6,0-7-0.1c-3.5-0.1-3.9-0.3-3.6-3.7c0.4-4.2-1-7.6-3.2-11
					c-1.6-2.6-3.7-3.1-6.4-2.5c-1.7,0.4-3.3,1.4-5.1,1.7c-0.6,0.1-1.6-0.5-2.2-1.1c-0.3-0.3-0.1-1.3,0.2-1.8c0.5-1,1.4-1.7,1.8-2.7
					c1.7-3.9,3.5-7.9,5-11.9c0.2-0.6-0.4-1.6-0.6-2.5c-0.8,0.3-1.6,0.5-2.3,1c-2.5,1.7-4.7,3.9-7.4,5.2c-2.9,1.5-5.9,2.7-8.2,5.1
					c-1.2,1.3-2.7,2.4-4.2,0.8c-1.3-1.4,0.4-2.6,0.9-3.8c0.3-0.9,1-2.5,0.9-2.6c-2.7-1.4-0.4-3-0.1-4.4c0.4-1.7,2.9-3.5,1-5.3
					c-0.1-0.1-0.1-0.1-0.2-0.1h-2.5c-0.8,0.3-1.5,0.8-2.2,1c-1.1,0.3-2.8,1-3.3,0.4c-0.8-0.7-1.6-1.2-2.4-1.4H15.3
					c2.1,3,2.2,3.1,4.4,3.3c2.9-0.1,5.4,0,8,2c1.4,1.2,2.3,1.7,2.3,3.6c0,1.5-0.9,3.8,1.2,4.2c1.1,0.2,2.6-1.4,3.9-2.2
					c0.2,0,0.3-0.2,0.4-0.3c1.8-1.6,5.4-1.1,6.6,1.3c0.4,0.8,0.3,2.2-0.1,2.8c-0.6,0.8-1.2,1.4-1.9,2.1L40,77.3
					c-0.7,0.7-1.4,1.4-2.1,2.1c-1.3,1.4-0.9,2.9,1,2.9c3.2-0.1,6.3-0.6,9.5-1c0.1,0.9-0.1,2.1,0.3,2.6c1.5,1.5,3.2,3,5.2,3.8
					c1.2,0.4,3-0.3,4.5-0.8c1.2-0.4,2.4-1.2,3.6-1.8c0.1,0.8,0.3,1.1,0.3,1.4c0.1,2,0.3,4.2,0.5,6.3c2.7,0.3,4.1-1.7,5.9-3
					c1.3-1,2.6-0.3,4.3,1.8c1.1,1.3,0,1.9-0.8,2.6c-1.2,1.1-2.6,1.9-3.6,3.2c-0.8,0.9-1.3,2.5-1,3.3c0.3,0.6,2,1.1,3.1,1.2
					c3.1,0.3,6.3,0.3,10,0.5c-1.8,1.9-3.1,3.3-4.4,4.9c-2.3,2.6-2.2,3.8,1,5.2c1.5,0.6,1.5,1.2,1,2.3c-1.4,3.1-2.8,6.3-4.1,9.4
					c-0.6,1.5,0.1,2.4,1.7,2c5-1,8.1-4.2,10.6-8.3c0.1-0.1,0.2-0.3,0.2-0.5c0.7-0.7,1.4-1.3,2-2.1c0.5,1.1,0.4,2.4,0,4.4
					c-0.4,1.4-1.1,2.5,0.4,3.8c0.6,0.4,0.8,1.9,0.5,2.8c-0.3,1.5-1.1,2.9-1.9,4.3c-2,3.5-4.1,6.8-6.1,10.1c-0.3,0.4-0.2,1.3,0,1.8
					c0.1,0.2,1.1,0.4,1.5,0.2c1.1-0.4,2.2-1.1,3.1-1.8c1.2-1,2.3-2,3.9-3.6v3.9c0,1.3-1.8,2.9,0,3.8c0.9,0.4,2.5-0.6,3.8-1
					c0.2-0.1,0.5,0.1,1.1,0.2c-0.8,3.2-0.2,6.9-4.3,8.5c-0.6,0.3-1,1.6-1.4,2.5c1.1,0.4,2.5,1.6,3.1,1.3c3.5-1.8,6.8-4,10-6.1l0,0
					c0.8-0.5,1.5-1,2.1-1.6c0.6,1.4,1.1,2.9,1.7,4.3c0.5,1.3,1.3,1.9,2.3,0.9c2-2.4,3.3-1.1,4.6,0.6c0.8,0.9,1.4,1.8,2.2,2.8
					c-1.3,1-3.6-1.5-4.2,0.9c-0.4,1.7-0.5,3.7-0.1,5.3c0.3,1.2,1.6,2.3,2.6,3.6c-1.9,2-3.6,4.4-6.7,5c-0.5,0.1-1.5,1.1-1.4,1.4
					c0.2,0.6,0.9,1.4,1.5,1.8c0.6,0.4,1.6,0.8,2.5,0.8c2.6,0.1,5.5-0.9,7.8,0.1c2.3,0.9,3,4.2,5.6,5.4c0.2,0,0.2,0.3,0.4,0.6
					c-0.8,0.6-1.5,1.3-2.3,2c-0.6,0.5-1,1.3-1.5,1.9c0.9,0.5,1.6,1.3,2.6,1.6c1.5,0.4,3.5,0.1,4.6,0.9c4.2,2.8,8.3,1.4,12.4,0.1
					c1.1-0.3,2.8-1.7,3.1-1.4c1.5,1.5,0,3-0.6,4.3c-0.8,1.6-2,2.9-3,4.4c-0.4,0.8-0.9,1.7-1.3,2.6c1.1,0.4,2.3,1.2,3.3,1.1
					c1.2-0.1,2.4-0.8,3.3-1.5c2.4-1.8,4.7-3.8,7.1-5.7c-0.2-0.9,0-0.3,0.3,0.1c1.6,1.9,2.4,1.8,3.2-0.1c0.9-2.2,1.7-4.2,3-7.4
					c0.2,3.9-0.3,6.9,0.8,9.2c2,4.3,4.9,8.3,7.8,12.1c1.9,2.5,3.7,5.1,2.8,8.1c-1.8,6.8,1,12,5,16.7c1.4,1.7,2.4,3.2,3,5
					c0,0.6,0.2,1.2,0.4,1.8c0.1,0.4,0.1,0.8,0.1,1.2c0.1,4.9,4.2,6.5,8.3,3.6c1.6-1.2,3.2-2.3,4.6-3.7c1.3-1.2,2.4-1.4,3.9-0.6
					c1.1,0.5,2.3,1.1,3.5,1.3c4.1,0.9,7.6-2.6,11.8-1.6c0.4,0.1,1-0.9,1.6-1.3c2.4-1.5,1-4.6,2.5-6.1c1.6-1.7,4.7-0.1,6.9-2.2
					c2.3-2,3.5-4.4,4-7.3s-0.6-5.1-3.6-5.3c-1.9-0.1-3.9,0.4-5.8,0.5c-3.7,0.2-7.4,0.5-11.2,0.4c-2.6-0.1-4.6-1.7-5.9-4.1
					c-1.7-3.1-3.6-6.3-5.2-9.4c-0.6-1.3-1-2.7-1.3-4.1c-0.5-2.4-0.9-5-1.7-7.2c-1.5-4.2-3-8.4,0.5-12.4c0.1-0.1,0.1-0.2,0.2-0.3
					c0.3-0.2,0.5-0.4,0.7-0.7c1.5,0.9,2.8,2.2,2.6,4.2c-0.3,4.2,1.8,8.4,0.1,12.7c-0.3,0.6-0.2,1.5,0,2.2c0.4,1.4,1.3,2.7,2.7,1.8
					c2.8-1.7,3.7-0.3,4.6,2c0.6,1.4,1.8,2.7,2.9,3.8c1.3,1.4,2.7,0.9,3.5-0.6c1.1-2,1.7-4.3,2.8-6.4c1.2-2.3,2.4-4.1,5.7-2.8
					c1.9,0.9,3-0.5,2.5-2.7c-0.6-2.6-1.6-5.1-2.5-7.7c-0.2-0.6-0.5-1.5-0.3-2c0.5-1.5,6.3-4.2,8.2-3.8c6.5,1.4,10.8,6,14.7,10.9
					c3.9,4.7,3.7,5,6.7-1.2c0.4,2,1.2,3.6,1,5c-1.1,5.2,2.3,8.4,5.1,11.8c1,1.2,2.3,1,3.2-0.2c0.5-0.8,1.1-1.5,1.2-2.4
					c0.4-5.7,5.8-9.6,5.4-15.5c0-0.4,1.3-1.3,1.4-1.2c2.7,2,5.7,0,8.3,0.8c5.8,1.7,11.3,0.2,16.8-1.4c0.8-0.2,1.8-0.6,2-1.3
					c0.2-0.5-0.4-1.7-1.1-2C286.5,180.9,286.6,179.6,288.5,178z M48.4,81L48.4,81c1.7-1.5,3.7-1.6,6.3-2.5
					C51.8,82.1,51.8,82.1,48.4,81z M189,220.7c1.4,1.5,2.7,3,4.2,4.9c-1.1,0.4-1.5,0.8-1.9,0.8c-2.4-0.1-3.9-2.5-3.2-5
					C188.1,221,189,220.7,189,220.7z"/>
			</g>
		</g>
	</g>
</g>
<g>
	<g>
		<g>
			<defs>
				<rect id="SVGID_3_" y="51.2" width="300" height="197.6"/>
			</defs>
			<clipPath id="SVGID_4_">
				<use xlink:href="#SVGID_3_"  overflow="visible"/>
			</clipPath>
			<g clip-path="url(#SVGID_4_)">
				<g>
					<path d="M196.3,107.5c5-1.3,10-2.5,15-3.8c0.6-0.1,1.8,0,1.8,0.2c0.1,0.8,0.2,1.7-0.2,2.5c-2.8,5.1-7.4,8.1-12,11.3
						c-0.9,0.5-1.6,1.2-3.1,2.2c5-0.2,9-0.2,12.9-0.8c1.8-0.2,3.5-1.6,5.2-2.6c1.6-0.9,3-0.3,2.9,1.5c0,4-1.7,7.2-5,9.7
						c-1,0.8-2.5,0.9-2,2.7c0.2,1-0.2,2.3,0.3,2.9c1.1,1.3,1.7-0.5,2.6-0.6c1.2-0.2,2.5-0.4,3.6,0c3,1,5.2,3.2,6.8,5.8
						c2,3.5,2.9,4,6.6,3.3c0.5-0.1,1-0.5,1.5-0.5c0.4-0.1,1.3-0.1,1.4,0.2c0.3,0.5,0.5,1.6,0.3,1.9c-1.4,1.5-3,3-4.6,4.3
						c-0.9,0.6-2.2,0.8-2.8,1.6c-0.6,0.9-0.6,2.3-1,3.5c0.8,0.1,1.6,0.2,2.4,0.2c3.8-0.2,4.4,0.4,4,4.2c-0.1,1.1-0.6,2-0.8,3.1
						c-0.1,0.6,0.3,1.3,0.4,1.9c0.4-0.4,1.2-1,1.1-1.4c-0.2-3.7,1.4-7.6-1.7-10.8c-0.1-0.1,0.2-0.6,0.4-0.9c0.2-0.2,0.8-0.3,1-0.2
						c0.8,0.4,1.5,1,2.2,1.6c1.1,1.3,2.3,2.2,4.1,2.2c3.8,0.1,5.6,2.9,7.2,5.7c0.5,0.9,0.8,2,1.1,3c0.5,1.5,0.6,3.3,1.6,4.4
						c0.6,0.8,2.6,0.3,3.9,0.5c3.9,0.4,5.3,3.1,6.3,6.5c0.8,2.7,1.2,2.8,3.6,1.5c4.1-2.3,4.9-4.2,3.1-8.8c-0.6-1.7-1.5-3.2-2-5
						c-0.5-1.4,0.6-2.6,2-2.2c2.8,0.9,5.5,1.9,7.1,4.5c2.4,3.9,4.7,7.8,3.7,12.6c-0.3,0.3-0.8,0.8-1.1,1.1c-0.3,0.3-0.8,0.8-1.1,1.1
						c-0.3,0.8-0.8,1.4-1.1,2.2c-0.1,0-0.3,0.1-0.4,0.1c-0.1,0.1-0.1,0.2-0.1,0.3c0.2-0.2,0.3-0.3,0.5-0.5c0.3-0.8,0.8-1.4,1.1-2.2
						c0.3-0.3,0.8-0.8,1.1-1.1c0.3-0.3,0.8-0.8,1.1-1.1c2.9-2.4,5.7-4.9,8.6-7.1c0.9-0.6,1.7-1.3,2.7-1.5c2.7-0.6,4.2,0.8,3.8,3.5
						c-0.5,2.8-1.4,5.5-3.8,7.6c-1.8,1.5-1.9,2.8,0.3,4.1c0.6,0.3,1.3,1.5,1.1,2c-0.2,0.6-1.3,1.1-2,1.3c-5.5,1.6-11,3.1-16.8,1.4
						c-2.6-0.8-5.6,1.3-8.3-0.8c-0.1-0.1-1.4,0.8-1.4,1.2c0.4,5.9-5,9.8-5.4,15.5c-0.1,0.9-0.6,1.6-1.2,2.4c-1,1.2-2.3,1.4-3.2,0.2
						c-2.8-3.3-6.1-6.6-5.1-11.8c0.2-1.4-0.5-2.9-1-5c-3,6.1-2.8,5.9-6.7,1.2c-3.9-4.9-8.2-9.5-14.7-10.9c-1.9-0.4-7.7,2.3-8.2,3.8
						c-0.2,0.5,0.1,1.4,0.3,2c0.9,2.6,1.8,5.1,2.5,7.7c0.5,2.2-0.5,3.6-2.5,2.7c-3.3-1.3-4.5,0.5-5.7,2.8c-1.1,2-1.7,4.3-2.8,6.4
						c-0.8,1.5-2.2,2-3.5,0.6c-1.1-1.1-2.3-2.4-2.9-3.8c-1-2.4-1.8-3.8-4.6-2c-1.4,0.9-2.3-0.4-2.7-1.8c-0.2-0.6-0.3-1.5,0-2.2
						c1.7-4.3-0.4-8.5-0.1-12.7c0.2-2.3-1.4-3.6-3.2-4.5c-1.2-2.4-2.2-5-3.6-7.2c-1.5-2.4-0.2-5.7-2.6-7.8c0.6-0.4,1.4-1.3,1.7-1.2
						c3.6,1.7,6.4-0.1,9.2-1.9c-3.5-0.3-6.8-0.3-10.1-0.3c-0.9,0-1.8,0.1-2.6,0.4c-0.9,0.3-1.7,1-0.9,1.9c3.1,3.6,2.9,8.4,4.9,12.4
						c1,1.9,0.4,2.7-1.6,2.5c-3.1-0.3-6.1-1-9.6-1.5c0.6,4.7-0.9,8.8-2.5,12.7c-0.3,0.6-1.3,1.4-1.9,1.4c-0.6-0.1-1.5-1-1.7-1.7
						c-0.3-1-0.2-2.2-0.2-3.2c-0.1-1.6-0.2-3.2-0.3-5.4c-0.5,0.9-0.8,1.2-1,1.4c-1.1,1.9-1.7,4.6-5.1,3c-0.3-0.1-1.6,0.8-1.8,1.5
						c-2,5.3,0.2,10.2,5.6,12.5c1.3,0.5,2.8,1,2.6,2.9c-0.5,0-1.1,0-1.5,0.1c-0.3,0.1-0.6,0.4-1,0.5c0.3,0.1,0.6,0.3,0.9,0.3
						c0.5-0.2,1.1-0.6,1.6-1c1.8-0.5,3.7-1.2,5.5-1.7c1.5-0.5,3-1.5,4.5-1.5c2.4-0.1,2.9-1.2,3-3.3c0.2-4.4,0.6-8.8,1.1-13.3
						c0-0.5,0.8-1,1.2-1.4c0.3,0.4,0.8,0.8,0.9,1.2c0.2,0.6,0.3,1.4,0.4,2.3c1.9-1.8,1.7-5.1,5-4.9c0,0.5,0.1,1.3-0.2,1.6
						c-3.6,4-2,8.2-0.5,12.4c0.9,2.3,1.2,4.9,1.7,7.2c0.3,1.4,0.6,2.8,1.3,4.1c1.6,3.1,3.5,6.3,5.2,9.4c1.3,2.4,3.3,4,5.9,4.1
						c3.8,0.1,7.6-0.2,11.2-0.4c1.9-0.1,3.9-0.6,5.8-0.5c2.9,0.2,4.1,2.4,3.6,5.3c-0.5,2.9-1.7,5.3-4,7.3c-2.2,2-5.3,0.4-6.9,2.2
						c-1.5,1.5-0.1,4.6-2.5,6.1c-0.6,0.4-1.2,1.4-1.6,1.3c-4.2-1-7.7,2.5-11.8,1.6c-1.2-0.2-2.4-0.8-3.5-1.3
						c-1.5-0.8-2.6-0.5-3.9,0.6c-1.4,1.4-3,2.5-4.6,3.7c-4.1,2.9-8.2,1.3-8.3-3.6c-0.1-3.3-1.5-5.5-3.6-8c-4-4.7-6.8-9.9-5-16.7
						c0.9-3-0.9-5.6-2.8-8.1c-2.9-3.8-5.7-7.8-7.8-12.1c-1.1-2.3-0.5-5.3-0.8-9.2c-1.3,3.2-2.2,5.3-3,7.4c-0.9,1.9-1.6,2-3.2,0.1
						c-0.3-0.4-0.5-1-0.3-0.1c-2.4,1.9-4.7,3.9-7.1,5.7c-1,0.8-2.2,1.4-3.3,1.5s-2.3-0.6-3.3-1.1c0.4-0.9,0.9-1.8,1.3-2.6
						c1-1.5,2.3-2.8,3-4.4c0.6-1.3,2.2-2.8,0.6-4.3c-0.3-0.3-2,1.1-3.1,1.4c-4.1,1.3-8.2,2.7-12.4-0.1c-1.2-0.8-3.1-0.4-4.6-0.9
						c-1-0.3-1.7-1.1-2.6-1.6c0.5-0.6,0.9-1.4,1.5-1.9c0.8-0.8,1.5-1.4,2.3-2c-0.2-0.3-0.2-0.6-0.4-0.6c-2.6-1.2-3.3-4.5-5.6-5.4
						c-2.3-1-5.2,0-7.8-0.1c-0.9,0-1.8-0.3-2.5-0.8c-0.6-0.4-1.3-1.2-1.5-1.8c-0.1-0.3,0.9-1.3,1.4-1.4c3.1-0.5,4.7-2.9,6.7-5
						c-1-1.3-2.3-2.4-2.6-3.6c-0.4-1.6-0.3-3.6,0.1-5.3c0.6-2.4,2.9,0.1,4.2-0.9c-0.8-1-1.4-1.9-2.2-2.8c-1.3-1.7-2.6-3-4.6-0.6
						c-1,1.1-1.7,0.4-2.3-0.9c-1.7-4.5-3.6-9-5.5-13.7c-3.6,3.5-2.7,7.7-4.3,11.9c2-1.3,3.3-2,4.7-2.8c0.3-0.2,1.4,0,1.4,0.1
						c0.1,0.6,0.2,1.6-0.1,1.8c-3.2,2.2-6.6,4.3-10,6.1c-0.6,0.3-2-0.9-3.1-1.3c0.4-0.9,0.8-2.2,1.4-2.5c4.1-1.6,3.6-5.3,4.3-8.5
						c-0.5-0.1-0.9-0.3-1.1-0.2c-1.3,0.3-2.9,1.4-3.8,1c-1.8-0.9,0-2.5,0-3.8c0-1.1,0-2.2,0-3.9c-1.6,1.5-2.7,2.6-3.9,3.6
						c-1,0.8-2,1.4-3.1,1.8c-0.4,0.2-1.4,0-1.5-0.2c-0.2-0.5-0.3-1.4,0-1.8c2-3.3,4.1-6.7,6.1-10.1c0.9-1.4,1.6-2.8,1.9-4.3
						c0.2-0.9,0.1-2.4-0.5-2.8c-1.5-1.3-0.9-2.4-0.4-3.8c1-4,0.2-5.4-3.5-7.2c-1.8-1-3.7,0.1-4.3,2.3c-0.3,1-1,1.7-1.4,2.7
						c-0.5,1.2-1,2.5-0.5,4.4c2.5-2.3,5-4.5,8.2-7.3c-0.3,1.7-0.2,2.7-0.6,3.3c-2.5,4.1-5.6,7.3-10.6,8.3c-1.6,0.3-2.4-0.5-1.7-2
						c1.3-3.1,2.7-6.3,4.1-9.4c0.5-1.1,0.5-1.6-1-2.3c-3.1-1.4-3.2-2.6-1-5.2c1.3-1.5,2.6-2.9,4.4-4.9c-3.8-0.2-6.9-0.2-10-0.5
						c-1.1-0.1-2.8-0.5-3.1-1.2c-0.3-0.9,0.2-2.5,1-3.3c1-1.3,2.4-2.2,3.6-3.2c0.8-0.6,1.8-1.3,0.8-2.6c-1.7-2.2-3-2.8-4.3-1.8
						c-1.8,1.3-3.2,3.3-5.9,3c-0.2-2-0.4-4.2-0.5-6.3c0-0.3-0.2-0.6-0.3-1.4c-1.2,0.6-2.4,1.4-3.6,1.8c-1.5,0.4-3.3,1.2-4.5,0.8
						C52.3,86,50.5,84.5,49,83c-0.4-0.4-0.2-1.7-0.3-2.6c3.5,1.2,3.5,1.2,6.4-2.5c-2.6,0.9-4.6,1-6.3,2.5c-3.2,0.3-6.4,0.9-9.6,1
						c-1.8,0-2.3-1.5-1-2.9c1.3-1.5,2.9-2.7,4.1-4.3c0.4-0.6,0.5-2,0.1-2.8c-1.2-2.4-4.7-2.9-6.6-1.3c-0.1,0.1-0.2,0.3-0.4,0.3
						c-1.3,0.8-2.8,2.4-3.9,2.2c-2-0.4-1.2-2.7-1.2-4.2c0-1.8-0.9-2.4-2.3-3.6c-2.6-2-5.1-2.2-8-2c-2.3-0.2-2.3-0.2-4.5-3.5
						c4.1,0,7.8-0.2,11.5,0.1c1.5,0.1,2.9,1.8,4.4,1.8c1.4,0,2.8-1.5,4.3-1.8c2.7-0.6,3.6,0.1,4.4,2.9c0.2,0.6,0.4,1.4,0.6,2
						c0.3,1.2,1.1,1.3,1.9,0.6c1.5-1.3,3-2.5,4.4-3.9c2.3-2.4,6.8-2.8,8.8-0.3s4.4,2,6.9,1.7c0.6-0.1,1.3-1.3,1.8-2.2
						c0.8-1,1.6-1.1,1.9,0c0.5,1.5,0.9,2.7,1.9,0.5c0.9-1.5,1.9-1.6,3.2-1.6c6.7,0,13.3-0.1,20,0c1.5,0,3.1,0.6,4.6,1.1
						c1.6,0.4,3.3,1.5,4.7-0.6c0.3-0.4,1.6-0.4,2.5-0.3c0.6,0.1,1.3,0.8,1.9,0.8c2.6-0.1,5.3-0.8,7.8-0.3c2.7,0.5,5.3,0.6,7.9-0.2
						c0.9-0.3,1.7-0.4,2.6-0.4c2-0.1,2.5,0.5,1.8,2.5c-0.3,0.9-0.8,1.6-1.2,2.7c3.7,0.8,6.4-1,9.2-2.4c0.2-0.1,0.2-1,0.2-1.5
						c0-0.3,0.1-0.8,0.1-1.1c4.1,0.6,8.5-1.9,12.3,1.5c0.5,0.5,2.3-0.1,3.3-0.4c1.6-0.4,3.5-2.3,5-0.9c1.9,1.8-0.5,3.6-1,5.3
						c-0.3,1.4-2.6,3,0.1,4.4c0.1,0.1-0.5,1.7-0.9,2.6c-0.4,1.2-2.2,2.4-0.9,3.8c1.5,1.6,3,0.5,4.2-0.8c2.3-2.4,5.3-3.6,8.2-5.1
						c2.7-1.3,5-3.5,7.4-5.2c0.6-0.4,1.5-0.6,2.3-1c0.2,0.9,0.9,1.8,0.6,2.5c-1.5,4-3.2,8-5,11.9c-0.4,1-1.3,1.7-1.8,2.7
						c-0.3,0.5-0.5,1.5-0.2,1.8c0.5,0.5,1.5,1.2,2.2,1.1c1.7-0.3,3.3-1.3,5.1-1.7c2.7-0.6,4.7-0.1,6.4,2.5c2.3,3.5,3.7,6.8,3.2,11
						c-0.3,3.3,0.1,3.6,3.6,3.7c2.4,0.1,4.6,0,7,0.1c3.2,0.2,4,1.5,2.7,4.6C197.4,105.7,196.9,106.5,196.3,107.5
						c-0.1,0.1-0.3,0.1-0.4,0.2c-0.1,0.1-0.1,0.2-0.1,0.3C195.9,107.8,196.1,107.6,196.3,107.5z M144.6,101c0.3-0.3,0.8-0.8,1.1-1.1
						c0.1,0,0.3-0.1,0.4-0.1c0.1,0,0.1-0.2,0.1-0.3c-0.2,0.2-0.3,0.3-0.5,0.5C145.2,100.3,144.9,100.7,144.6,101
						c-0.1,0.1-0.3,0.1-0.4,0.2c-0.1,0.1-0.1,0.2-0.1,0.3C144.1,101.3,144.3,101.1,144.6,101z M193.1,109.7c-0.1,0-0.3,0.1-0.4,0.1
						c-0.1,0.1-0.1,0.2-0.1,0.3C192.8,110,192.9,109.8,193.1,109.7c0.1-0.1,0.3-0.1,0.4-0.2c0.1-0.1,0.1-0.2,0.1-0.3
						C193.5,109.3,193.3,109.5,193.1,109.7z M203.9,228.5c-0.2,0-0.3,0.1-0.4,0.2c-0.1,0.1-0.1,0.2-0.1,0.3
						C203.6,228.9,203.7,228.6,203.9,228.5c0.1-0.1,0.2-0.1,0.3-0.2c0.1-0.1,0.1-0.2,0.1-0.3C204.2,228.1,204.1,228.3,203.9,228.5z
						 M183.4,143.2c-0.3-0.3-0.8-0.8-1.1-1.1c0.8-1.8,1.5-3.6,2-5.4c0.5-1.6,0.8-3.5,0.9-5.1c0-0.2-1.1-1-1.3-0.9
						c-2.6,1.5-4,4-4.5,6.8c-0.5,2.4,1.3,3.5,2.9,4.5C182.7,142.4,183.1,142.8,183.4,143.2c0.4,0.9,0.9,1.7,1.4,2.6
						c0.2-0.8,0.6-1.5,0.5-2.3C185.1,141.9,184,143.2,183.4,143.2z M202.8,154c-1.6,0.4-3.3,0.8-5.8,1.4
						C201.8,156.7,201.8,156.7,202.8,154c0.1-0.1,0.3-0.1,0.4-0.2c0.1-0.1,0-0.2,0.1-0.3C203.1,153.6,203,153.8,202.8,154z
						 M251.5,175.6c-0.1-0.2-0.1-0.3-0.2-0.4c-0.1-0.1-0.2-0.1-0.3-0.1C251.1,175.1,251.2,175.4,251.5,175.6
						c0.4,1.3,0.8,2.6,1.4,3.8c0.2,0.3,1.5,0,2.4-0.1c-0.2-0.6-0.2-1.5-0.5-1.8C253.6,176.8,252.5,176.2,251.5,175.6z M146.7,166.8
						c-0.9,0.2-1.7,0.3-2.5,0.8c-3.1,1.7-3.2,3.1-0.5,6.4C144.7,171.7,145.6,169.3,146.7,166.8c0.4-0.3,0.8-0.8,1.1-1.1
						c1.1-0.5,2.3-1.1,3.2-1.7c1.1-0.9,1.9-1.9,3-2.8c0.8-0.6,1.7-1,3.1-1.7c-6.1,0-6.7,0.4-9.3,6.4
						C147.4,166.2,147,166.5,146.7,166.8z M198.5,131.3c-0.3-0.3-0.8-0.8-1.1-1.1c-1-1.7-2.3-3.2-2.9-5.1c-0.5-1.6,0-3.9-0.9-5
						c-1.2-1.4-3.3-1.8-5.1-2.8c-0.1-0.1-0.1-0.5-0.1-1.4c2.2,0.2,4.2,0.4,6.5,0.8c-2.4-3.6-5.3-5.6-9.8-4.9
						c-3.2,0.5-6.6,0.6-10.1,1c0.4,1,1,2.2,1.5,3.1c0.2,0.3,1.2,0.4,1.2,0.4c2-5.2,3.1-1.6,4.4,0.5c0.2,0.4,0.9,0.5,1.4,0.8
						c2.6,1,4,2.9,5.2,5.3c0.5,1.1,1.4,2.3,2.4,2.8c2.4,1.3,2.5,3.1,1.6,5.3c1.9-0.3,3.5-0.5,5-0.9
						C197.8,130.5,198.2,130.9,198.5,131.3c1.9,2,3.9,4.2,5.8,6.3c1.4,1.4,3.1,1.6,4.9,0.6c0.4-0.2,0.8-0.9,0.8-1.3
						c0-0.3-0.4-1-0.9-1.1C205.6,134.3,202,132.7,198.5,131.3z M143.4,195c1.4-1.2,3.1-2,4-3.6c1.4-2.4,2.4-5.1,3.5-7.8
						c0.1-0.3-0.3-1.2-0.6-1.3s-1.1,0.1-1.4,0.4c-0.8,0.8-1.5,1.6-1.8,2.6C145.6,188.6,144.6,191.9,143.4,195
						c-0.1,0.1-0.2,0.1-0.3,0.2c-0.1,0-0.1,0.2-0.1,0.3C143,195.3,143.3,195.1,143.4,195z M160.7,126.9c-1.2-0.5-2.3-1.2-3.5-1.7
						c0,0-0.1,0.2-0.2,0.3C158.3,126.1,159.5,126.5,160.7,126.9c1.7,1.9,3.7,3.9,5.2,6c1.4,1.8,3.1,1.4,4.9,1c0.5-0.1,1.1-1,1.2-1.6
						c0.1-0.5-0.3-1.5-0.8-1.6C167.6,129.4,164.2,128.2,160.7,126.9z M125,85.8c1.1,0,2.2-0.1,3.2,0c4.2,0.4,7-1.6,9.5-5
						C129.7,79.9,127.9,80.6,125,85.8c-0.3,0.4-0.6,0.8-1.1,1.1c-1.3-0.2-2.7-0.4-4-0.8c0.8-0.9,1.6-1.7,2.4-2.6
						c0.4-0.5,0.8-1.1,1.4-1.8c-1.8-0.2-3.2-0.2-4.6-0.6c-1.4-0.3-1.5,0.3-1.6,1.3c-0.1,0.6-0.1,1.7-0.5,2c-2.7,1.7,0.6,3.5-0.1,5.1
						c1.7,0.6,3.7,2,5.2,1.6c2-0.5,3.7-0.3,5.7-0.1c2.6,0.2,5.4,0,8-0.5c1.9-0.4,3.6-0.4,5.2,0.6c1.5,1,5,1.2,4.2,3.2
						c-0.9,2.4-3.1-0.3-4.9-0.4c-1.9-0.1-3.9-0.4-5.8-0.5c-2.9,0-2.9,0.1-5.7,1.9c3.3,0.6,6.6,0.9,9.6,2c3.5,1.3,5.9,0.1,8.4-1.7
						c3.8-2.8,4.1-5,1.5-8.8c-0.4-0.6-1-1.4-1.7-2.4c-0.6,0.9-1.2,1.4-1.4,2c-0.5,2.2-1.9,2.2-3.7,1.5c-0.6-0.2-1.6-0.1-2-0.5
						c-2.2-2.3-4.2-1.3-6.1,0.3c-2.9,2.5-6,0.5-9.1,0.5c-0.1,0-0.3-1-0.4-1.5C124.4,86.6,124.7,86.2,125,85.8z M121.8,119.4
						c2.8-0.4,5.2-3.2,8.4-1.4c0.2,0.1,0.8-0.2,0.9-0.4c1.6-2.3,3.1-4.5,4.7-6.8c0.1-0.1,0.3-0.1,0.4-0.2c0.1-0.1,0.1-0.2,0.1-0.3
						c-0.2,0.2-0.3,0.3-0.5,0.5c-3.3,1.2-6.7,2.2-9.9,3.6C123.8,115.3,122,116.7,121.8,119.4c-0.2,0-0.3,0.1-0.4,0.2
						c-0.1,0.1,0,0.2-0.1,0.4C121.5,119.8,121.7,119.6,121.8,119.4z M123,151.7c0.6,1.6,1.3,3.1,2.2,4.6c0.1,0.2,1,0.3,1.4,0.1
						c0.2-0.1,0.4-1.1,0.2-1.3C125.5,154.1,124.2,152.9,123,151.7s-2.4-2.5-3.7-3.7c-0.8-0.6-1.6-1.3-2.6-1.6
						c-0.9-0.3-2.4-0.4-2.8,0c-0.5,0.6-0.6,2.3-0.2,2.9c1.9,2.8,4.1,5.4,6.3,8c0.1,0.1,0.6,0.2,0.9,0s0.6-0.5,0.5-0.9
						c-0.1-0.9-0.3-1.7-0.6-2.5C119.3,151.2,121.3,151.6,123,151.7z M56,68.7c-1.7,0-3.6-0.2-5,1.3c-2.7,3-5.6,5.6-9.1,7.8
						c-0.3,0.2-0.3,0.8-1,2c4.5-1.5,8.4-2.7,12.2-4.1c0.9-0.3,1.6-1.5,1.8-2.4C55.6,71.8,55.7,70.2,56,68.7c0.1-0.1,0.2-0.1,0.3-0.2
						c0.1-0.1,0-0.2,0.1-0.3C56.3,68.2,56.1,68.4,56,68.7z M170.4,70.8c-2.3,1-4.6,1.8-6.9,3c-2.2,1.2-4.2,2.7-6.1,4.1
						c-0.3,0.2-0.3,1.4-0.1,1.7c3.1,2.7,7.6,2.4,9.6-1.2C168.4,76.1,169.3,73.3,170.4,70.8c0.1-0.1,0.2-0.1,0.3-0.2
						c0.1-0.1,0.1-0.2,0.1-0.3C170.8,70.5,170.6,70.6,170.4,70.8z M192.3,228.6c-5.4,0.1-7.3-1.8-7.2-7.2c0-0.9-0.3-1.7-0.5-2.6
						c-0.9-4.3-1.7-8.7-2.6-13.1c-1.5-7.6-1.4-7.6-8.5-3.8c-3.5,1.8-3.6,1.9-2.2,5.8c1,2.9,1.7,5.6,0.4,8.8c-1,2.4-0.2,5.1,1.3,7.2
						c1.6,2.3,3.6,4.3,5.2,6.7c1,1.4,1.5,3.2,1.9,4.9c0.3,1,0,2.2,0.2,3.2c0.5,2.5,3,3.2,4.9,1.4c0.5-0.5,0.9-1.1,1.3-1.6
						c2.7-3.5,5.3-4.2,9.4-2.7c1.2,0.4,2.4,1.3,3.5,1.2c1.3-0.1,3-0.9,3.6-1.8c0.4-0.9-0.2-3-1.1-3.6c-2.5-1.6-4.6-4.7-8.3-2.9
						C193.1,228.7,192.8,228.6,192.3,228.6z M223.4,219.6c-1.9-2.3-3.7-2.3-5.1-1.7c-3.9,1.4-7.8,0.8-11.8,1
						c-4.7,0.2-8.4-1.7-10.6-5.9c-2.3-4.4-4.4-9-6.7-13.5c-0.3-0.8-1.3-1.9-1.6-1.8c-1.1,0.3-2.2,1.1-3,1.8c-0.3,0.2-0.2,1-0.2,1.5
						c-0.2,4.9,0.6,9.6,2.4,14.2c0.3,0.9,1.1,1.8,1.9,2.4c2.5,1.5,4.7,3.1,5.8,6c0.5,1.4,1.8,2,3,1.3c2.5-1.5,4.5,0,6.7,0.6
						c1.6,0.5,3,0.9,4.5-0.1c2.2-1.4,3.8-4.3,7.1-2.6c0.2,0.1,0.9-0.2,0.9-0.4C217.9,219.5,220.5,219.8,223.4,219.6z M160.1,107.1
						c1.5,2.3,2.9,4.4,4.5,6.6c0.6,0.9,1.6,1.7,2.7,0.6c1.7-1.7,3.5-3.6,5-5.5c0.9-1.1,0.2-3.9-0.6-4.3c-1.3-0.6-2.9,0.3-3.8,2
						c-0.1,0.1,0,0.3-0.1,0.5c-0.2,0.5-0.5,1-0.9,1.5c-0.6-0.5-1.6-1-1.7-1.6c-0.4-1.8-0.5-3.9-1-5.7c-0.3-1.9-0.9-3.8-1.2-5.7
						c-0.1-0.5,0.5-1.2,0.9-1.7c0.4,0.4,1.1,0.8,1.3,1.3c1.2,2.5,0.5,5.6,2.8,7.7c0.9-0.4,1.5-0.8,2-1.1c2.9-1.7,2.9-1.6,3.8,1.5
						c0.2,1,0.8,1.9,1.2,2.8c0.6-1,1-1.8,0.6-2.4c-0.8-1.7-1.8-3.5-2.6-5.2c-0.3-0.6,0.1-1.6,0.2-2.5c0.6,0.2,1.4,0.2,1.8,0.6
						c1.1,0.9,2,2,3.2,2.9c1.4,1,2.5,0.3,3-1.4c0.8-2.3,0.4-4.4,0-6.7c-1.4-6.4-2.9-7.2-8.7-5.2c-0.5,0.2-1.1,0.8-2.2,1.6
						c2.4,0.2,3.9,0.2,5.5,0.5c0.3,0.1,0.9,1.4,0.6,1.6c-1.3,1.4-2.5,3-4.1,4c-0.5,0.3-2-1-3.2-1.3c-0.9-0.2-1.8-0.1-2.7-0.1
						c-3.5,0-6.8,0-10.2-0.1c-3.3,0-3.3,0-4.4,4.3c2.8-1.5,5.6-2.8,8.6-1.4c0.5,0.2,1.4,0.5,1.4,0.9c0.4,2.8,0.6,5.7,1.2,8.4
						C163.5,107.3,161.4,106.5,160.1,107.1z M185,150.1c-0.3,1-0.4,1.7-0.9,2.3s-1.3,1-1.9,1.4c-0.1-0.8-0.4-1.6-0.2-2.3
						c1-3.6-0.3-6.3-2.7-8.7c-1-1-2-2-3-3c-0.9-0.9-1.2-1.6-0.3-2.8c2.9-3.7,5.3-7.8,8.6-10.8c2-1.8,1.7-3,0.4-4.2
						c-1.4-1.2-3.3-1.8-5.2-2.5c-0.9-0.3-1.8,0.5-1.3,1.6c1.7,3.5-2.7,6.3-0.9,9.7c0.1,0.2-0.5,1-1,1.2c-3,2.2-5.4,5.8-10,4.7
						c-1.1-0.2-2.5,0.3-3.6,1c-5.4,3.2-10.7,6.5-16.5,10c2.7,0.6,4.9,1,6.8,1.7c2,0.8,3.2,0.2,4.2-1.5c0.5-1.1,1.2-2.3,1.9-3.2
						c1.3-1.7,2.6-3.5,4.2-4.9c2.6-2.3,6.8-2.4,8.1-0.2c2.7,5,7.2,8.8,8.8,14.6c0.9,3,1.3,3,4.7,2c0.6-0.2,1.3-0.3,2-0.5
						C186.5,153.9,185.9,152.3,185,150.1z M94.5,73c-0.1-0.4-0.3-0.9-0.4-1.2c-3.9,2.6-8,1.7-11.9,1c-2.7-0.5-5.2-2.3-7.8-3.3
						c-0.4-0.2-1.2,0.3-1.7,0.5c0.2,0.5,0.5,1.5,0.8,1.5c2.9,0,4.5,2,6.1,3.9c1.9,2.2,3.8,4.3,5.5,6.6c2.5,3.2,1.6,5.7-2.2,7.3
						c-4.5,2-8.5,4.6-11.5,9.3c5.5,0,10.4,0.4,14.9-2.9c3.2-2.5,3.7-1.9,3.3-6.5c0-0.8,0.8-2.2,0.9-2.2c2.5,0.5,5-1.5,7.6,0.5
						c2.2,1.7,5,1.9,7.2-0.5c0.5-0.6,1.5-0.9,2.2-1.3c-1.7-3.7-4.7-2.8-7-1.8c-4.6,2-8.4-0.5-12.4-1.6c-1.7-0.4-2.3-2.4-1.9-4
						c0.2-1,1.2-2.2,2-2.7C90.2,74.7,92.3,73.9,94.5,73z M177.7,158c0.8-4.3-1.2-7-2.8-9.7c-1-1.5-2-1.8-3.5-0.3
						c-0.5,0.6-1.3,1.3-2,1.6c-2.2,1.1-2.6,3-1.9,5c1.3,4.3,2.8,8.5,4.4,12.7c1.4,3.9,4.7,5.2,8.4,5.9c2.7,0.5,3.8-0.9,2.9-3.3
						c-1.7-5.2-5.1-9-9.8-11.5c-1.2-0.6-2.4-1.5-3.3-2.5c-0.3-0.3-0.2-1.4,0.1-1.8c0.3-0.3,1.3-0.4,1.7-0.2
						C173.7,155,175.5,156.4,177.7,158z M163.9,153.8c-2,3.5-3.8,6.4-5.5,9.3c-1.3,2-1.2,4,0.2,6c2.3,3.5,4.5,6.9,6.9,10.6
						C168.9,170.9,168.6,162.6,163.9,153.8z M111,83.7c4,0.1,4.4-0.4,3.7-3.3c-0.3-1.4-0.5-2.8-1-4.1c-0.9-2.6-2.7-4.5-5.2-4.7
						c-1.5-0.1-2.5-0.2-3.7-1.2c-1.3-1.1-6.8,0.1-7.4,1.2c-0.5,0.9,1.2,3.9,3,5.3c0.1,0.1,0.3,0.2,0.4,0.3c2.4,1.8,4.7,3.7,7.2,5.4
						C109.3,83.1,110.6,83.5,111,83.7z M71.4,66.7c-2.8-1-5.6-1.7-8.7-0.6c-2.9,1.1-4.4,2.5-4.6,5.6C58,74.2,57.3,76.6,57,79
						c-0.2,1.3-0.3,2.7-0.5,4c1.5-0.6,3.1-1.1,4.5-1.9c0.9-0.5,1.5-1.5,2.2-2.4C65.8,75,68.5,71,71.4,66.7z M188.5,166.2
						c1.8,4.5,3.1,9.2,6.9,12.2c1.6,1.3,3.6,2.3,5.3,3.3c1-1.8,2-3.6,2.8-5.5c0.9-2.3,0-3.7-2-5.3
						C197.5,167.8,192.8,168.1,188.5,166.2z M70,77.4c0,0.3,0,1.1,0.2,1.7c0.3,1.2,0.9,2.4,1.4,3.5c2.9,7.1,4.3,7.7,11,4.3
						c1.6-0.9,1.6-1.9,0.8-3c-2-2.7-4.2-5.3-6.6-7.8c-0.9-1-2.3-1.7-3.6-2C70.8,73.6,70,74.5,70,77.4z M102.6,115.4
						c4.5,4.1,6.4,8.6,5.4,14.5c-0.6,4,1.1,7.8,5.2,9.8c0.5,0.3,1.3,0.3,1.8,0.4c0.1-0.6,0.4-1.6,0.2-2c-0.8-1.1-2.8-1.9-2.6-2.7
						c0.2-1.4,1.9-2.3,1.7-4.1c-0.1-1.7,1.1-4,0.3-5.2C111.9,121.6,109.9,115.9,102.6,115.4z M130,107.5c0.2,0,0.8,0,1.3-0.1
						c3.1-1.2,6.3-2.4,9.4-3.6c1-0.3,0.6-2-0.4-2.6c-5-2.3-10.4-2.3-15.6-3.2c-0.5-0.1-1.9,1.1-2,1.8
						C122.1,104.8,124.8,107.6,130,107.5z M136.5,144.8c1.9,0,2.7,0.1,3.3,0c0.6-0.2,1.4-0.5,1.8-1.1c0.2-0.2-0.4-1.2-0.9-1.6
						c-1.7-1.8-3.6-3.6-5.4-5.3c-3.1-3-3.2-3-6.9-1c-0.8,0.4-1.6,0.6-2.5,1c-2.4,0.9-2.4,1.2-1.4,3.5c0.8,1.8,2,2.8,3.8,3.6
						C131.5,144.9,134.5,145.9,136.5,144.8z M87.4,70.8c0.8-0.1,2.3-0.4,3.8-0.6c-1-1.4-1.8-2.8-2.8-4.2c-0.4-0.5-1-1.1-1.5-1.5
						c-3.7-2.8-7.8-4.4-12.4-2.9c-2.3,0.8-2.5,1.6-1,3.3C76.8,69,81.3,70.7,87.4,70.8z M129.9,161.3c0,0.3,0,0.5,0.1,0.9
						c1.2,0.3,2.7,0.3,3.6,1c2.9,2.4,6.1,1.4,9.3,1.4c1.9,0,3.3-1.2,4.2-2.9c0.6-1.2,0.5-1.7-0.8-2.4c-2.2-1.1-2-1.9,0-3.1
						c2.4-1.3,4.9-2.5,8-4.1c-1.7-0.3-2.8-0.2-3.5-0.5c-2.5-1.3-3.8-0.3-5.2,1.7c-2.2,3.2-5.2,5.3-9.2,6
						C134.2,159.8,132,160.7,129.9,161.3z M96.8,103.9c-1.7,1.5-3.2,2.7-4.6,4c-0.5,0.5-1.3,1.8-1.2,2c0.6,0.8,2.2,1.1,2.5,1.8
						c0.4,0.9-1.3,2.3,0.2,3.3c0.1,0.1,0.3,0.2,0.4,0.3c1.7,0.8,3.3-0.5,3.6-2.7c0-0.4,0.5-1.1,0.8-1.1c1.2,0,2.7-0.1,3.7,0.4
						c3.7,2.2,6.3,1,8.3-2.3c0.3-0.5,0.9-1.1,1.5-1.8c-6-2-11.1,1.7-17.2,1.8C97.1,108.3,99.1,106.6,96.8,103.9z M145,105.6
						c1.4,2.4,2.4,3.7,3,5.1c0.6,1.7,1.1,3.7,1.4,5.5c0.2,1,0.1,1.9,0.2,2.9c1-0.3,2-0.6,3-1.1c0.6-0.3,1.4-0.8,1.6-1.3
						c1.1-2,2.4-2.7,4.7-1.7c1.2,0.4,2.3-0.8,1.5-1.8c-1.1-1.6-2.4-3.3-4-4C153.2,107.6,149.6,106.9,145,105.6z M194.2,150.5
						c0.2-4,0.2-7.3-1.8-10c-0.8-1-2.2-1.5-3.2-2.2c-0.4,1.1-1.1,2.3-1.2,3.3c-0.2,1.9,0,4-0.1,5.9c-0.2,2.9,1,5.3,2.5,7.6
						c0.4,0.8,1.6,1.1,2.5,1.5c0.5-0.9,1.3-1.6,1.5-2.6C194.3,152.7,194.2,151.3,194.2,150.5z M169.1,89.9c-2.6-3.7-5.3-6.4-9.6-6.7
						c-2.4-0.1-4.9-0.2-7.2,0c-2,0.2-2.6,1.8-1,3.3c1.3,1.2,2.8,2.2,4.4,2.7C159.9,90.9,164.3,89.8,169.1,89.9z M149.7,73
						c-0.2-0.4-0.3-0.9-0.5-1.2c-4.2-0.3-8.4-0.6-12.7-1c-1.2-0.1-2.9-0.6-3.3-0.1c-1.2,1.3,0.5,2,1.3,2.9c0.2,0.2,0.5,0.8,0.4,1
						c-1.3,3.2,1,2.8,2.9,2.8c1.2,0,2.6,0,3.7,0.5c1.8,1,3.2,0.2,4.4-0.6C147.2,75.9,148.4,74.4,149.7,73z M93.7,101.2
						c0.1-2.8-0.9-3.7-2.6-3.5c-1,0.1-2.3,0.3-2.9,1c-3.1,2.9-6,6-9.1,9.1c-0.2,0.2-0.3,0.9-0.2,1c0.3,0.3,0.9,0.5,1.3,0.5
						c1.1-0.1,2.2-0.8,3-0.6c4.4,0.8,6.9-2.2,9.3-5C93.4,102.9,93.6,101.5,93.7,101.2z M253.7,193.9c-0.5-6.1-1.9-11.3-5-15.7
						c-1.7-2.6-4.6-4.6-9.2-3.1c4.6,2.6,5.8,6.9,7.2,10.8C248,189.4,250.4,191.3,253.7,193.9z M93.1,90.8c0.2,0.5,0.4,1,0.6,1.5
						c2,3.8,4.1,7.4,6.1,11.2c0.5,1,1,2.2,2.4,1.3c1.5-1.1,3.1-5.6,2.6-7.2C103.6,92.7,98.8,90,93.1,90.8z M212.2,170
						c-0.1,0.3-0.1,0.6-0.2,1c0.4,0.3,0.6,0.9,1.2,1.1c5.7,2.6,11.4,4.6,17.8,4.6c1.2,0,2.5,0.4,3.7,0.4c0.4,0,0.9-0.5,1.2-0.9
						c0.1-0.1-0.1-0.8-0.3-0.9c-0.9-0.5-1.8-1.2-2.8-1.5c-4.5-2-9.4-3.2-14.3-3.7C216.3,170,214.2,170,212.2,170z M152.1,157.1
						c3.2-0.5,6.4-0.3,8-2.5c2.4-3.1,4.4-6.4,8.2-7.9c0.6-0.2,1.1-1,1.5-1.5c0.8-0.8,1.6-1.4,0.9-2.7c-0.8-1.3-1.7-1.6-3-1.6
						c-2.6,0-3.8,1.7-5,3.7c-1.4,2.3-2.7,4.7-4.4,6.7S154.6,155,152.1,157.1z M197.7,195.5c1.8-1,3.6-1.7,5.1-2.8
						c3.6-2.4,5.2-6.6,4.1-10.6c-0.1-0.4-0.6-0.8-1.1-1c-0.2-0.1-0.8,0.1-0.9,0.4c-0.3,0.4-0.8,0.9-0.8,1.4
						c-0.4,2.7-1.9,2.6-3.8,1.6c-0.6-0.3-1.3-0.8-1.9-0.8c-0.5,0-1.4,0.6-1.4,0.9C197.2,188.3,197.4,191.7,197.7,195.5z
						 M213.7,147.7c-0.1-1,0-1.6-0.2-2c-0.5-0.9-1.1-1.7-1.9-2.2c-0.3-0.2-1.3,0.9-1.9,1.4c-0.2,0.2-0.4,0.6-0.4,1
						c-1.5,4.9-2.9,9.8-5.8,14c-0.1,0.1,0.9,1.3,1,1.3c2-1.1,4.3-1.9,6-3.3c1.7-1.4,2.7-3.3,1.6-5.7c-0.2-0.4,0.5-1.2,0.8-1.8
						C212.9,149.2,213.4,148.3,213.7,147.7z M175.7,123.5c0.1-3.5-2-6-3.6-8.8c-0.1-0.2-1.8,0-2,0.3c-1,2-1.7,4.2-2.4,6.4
						c-1.3,4.5-1.3,4.5,3,6.1c0.2,0.1,0.3,0.1,0.5,0.2c2.6,1,2.6,1,3.6-1.8C175.2,125.1,175.4,124.3,175.7,123.5z M115.1,120.4
						c-0.1,0.5-0.2,0.8-0.1,0.9c1.3,2.5,5.1,4.4,2.2,8.1c-0.1,0.2,0.3,1,0.6,1.4c3.1,4.4,6.1,4.6,11.2,0.9c-2.3-1.9-4.5-4-6.8-5.9
						C119.8,123.9,118.6,120.8,115.1,120.4z M111.9,173.6c5.9-1.7,10.5-3.6,14.8-6c1.4-0.9,2-1.9,0.6-3.5c-1.1-1.2-3.2-2.3-0.9-4.2
						c-0.2-0.2-0.3-0.5-0.5-0.5c-0.6,0.1-1.5,0.1-1.9,0.5C120.2,164.2,116.4,168.6,111.9,173.6z M123.4,143.6
						c-0.8,2.3,0,3.7,1.3,5.2c2.2,2.6,4,5.4,5.9,8.1c0.2,0.3,0.6,0.8,1,0.8c3.1,0,4.5-1.7,3.2-4.7c-0.6-1.5-1.7-3.1-3-4.1
						C129.2,146.9,126.3,145.4,123.4,143.6z M247.2,173.5c-1.4-4.2-2.8-6.7-6.9-6.6c-1.5,0-3-0.9-4.5-1.3c-1.4-0.3-2.8-0.6-4.2-0.8
						c-1.4,0-1.8,1-1,2.2c1.3,1.7,2.6,3.5,4.1,5c0.4,0.4,1.6,0.8,2.2,0.4C240.2,171,243.5,170.9,247.2,173.5z M142.1,184
						c6.5-3.1,9.5-7.4,10.4-13.3c0.2-1.5,1.4-3.3-0.2-4.2c-0.6-0.3-2.6,1.4-3.7,2.5c-0.6,0.5-1.2,1.5-1.2,2.3
						c-0.3,3.1-2.3,5.5-3.6,8.2C143.1,180.6,142.8,181.9,142.1,184z M92.8,132.6c0.3,0.3,0.6,0.6,1,1.1c2.8-1.2,5.6-2.2,8.3-3.5
						c2.4-1.2,3.7-3.5,3.3-6.1c-0.1-1-0.6-2.4-1.4-2.7c-0.6-0.3-2.2,0.3-2.7,1.1C98.4,125.7,95.6,129.2,92.8,132.6z M243,164.7
						c3,0,3.3-0.4,2.4-3.5c-1.4-4.2-3.3-6-6.4-6.1c-1.4,0-2.3,0.4-2.7,1.9C235,161.2,237.9,164.6,243,164.7z M218.4,168.6
						c2.2-1.5,3.3-2.4,4.7-3.2c1.5-0.9,3.5-1.3,4.5-2.5c1.4-1.5,2.2-3.6,2.9-5.4c0.1-0.3-1.2-1.8-1.4-1.7c-2.4,1-4.9,2-7.1,3.5
						c-1.4,0.9-2,2.3-2,4.1C220.2,164.6,219.3,166,218.4,168.6z M194.7,103.4c-1,0-1.8,0-2.7-0.1c-4-0.8-8,1.8-12.1,0
						c-0.3-0.1-1.1,0.2-1.4,0.5c-0.9,1-0.3,3.8,1,5.5c1.1,1.5,2.6,0.8,3.3,0.2c2.2-1.8,4.7-2,7.3-2.7
						C191.9,106.3,194.1,106,194.7,103.4z M111.2,63.8c0-0.1,0-0.2,0-0.3c-0.3,0-0.8,0-1.1,0c-1.6-0.1-2.9,0.2-3.1,2
						c-0.2,1.7,0.9,2.5,2.4,3c3.6,1.4,9.3,0,11.7-3c0.3-0.4,0.6-1.3,0.4-1.4c-0.4-0.4-1.2-0.8-1.7-0.8
						C116.8,63.4,114,63.6,111.2,63.8z M124.4,73.6c2.8-0.3,4.6-0.9,5.5-3.6c0.9-2.5,3.2-3,5.8-2.5c4.1,0.8,5,0.1,5.7-3.9
						c0.1-0.6-0.1-1.6-0.5-2.2c-0.2-0.2-1.3,0-1.8,0.3c-2.9,1.7-5.6,4-8.6,5.1C126.9,68.1,125.7,70.5,124.4,73.6z M120.6,104.5
						c0,0.1,0.2-1.1,0-2c-0.5-1.9-2-3.5-0.1-5.6c1.1-1.1-0.4-2.8-1.7-3.5c-1.2-0.5-3-0.9-3.9-0.2c-0.9,0.6-1.6,2.6-1.3,3.7
						c0.4,1.6,1.5,3.2,2.7,4.4C117.7,102.6,119.4,103.6,120.6,104.5z M121.8,109c-2.4,0.3-4.3,0.2-6,0.9c-1.9,0.8-3.7,2-5.4,3.2
						c-1.4,1-0.9,2,0.2,3s2,1,3.3,0.8C118.3,116.1,119.8,112.8,121.8,109z M228.9,145.5c-4.2-2.8-9.1-2.4-12.1-5.8
						c-0.3-0.3-1.6,0.1-2.4,0.5c-0.2,0.1,0,1.2,0.2,1.8c1.8,4.3,5.7,6.3,10.2,5.1C226.1,146.8,227.3,146.1,228.9,145.5z
						 M154.7,136.4c-3.2-2.7-5.7-6.4-10.2-6.1c-1,0-1.9,0.5-2.9,0.9c0.4,1.1,0.5,2.5,1.3,3.2c1,1,2.4,1.9,3.7,2
						C149.2,136.6,152,136.4,154.7,136.4z M207,143.3c-2.8-2.8-5.4-5.3-8-7.7c-0.9-0.9-1.9-1.5-3-2c-0.3-0.2-1,0.2-1.4,0.4
						c-0.2,0.1-0.2,0.8-0.1,1c2.6,3.5,5.1,6.9,7.7,10.2c1,1.3,2,1.1,3-0.3C205.7,144.4,206.4,144,207,143.3z M136.8,124.2
						c3-1.8,5.8-3.6,8.6-5.4c0.5-0.3,0.6-1.2,0.9-1.8c-0.8,0-1.5-0.1-2.3-0.1c-1.7,0.1-3.6,0.3-5.3,0.3s-3.2,0.2-3.9,2
						c-0.3,0.9-1.4,2-1.2,2.4C134.3,122.7,135.4,123.2,136.8,124.2z M132.3,187.3c4.6,0,9.8-5.3,9.8-9.8c0-0.4-0.5-1-0.9-1.2
						c-0.2-0.1-0.9,0.3-1.1,0.5c-2.5,3.2-5,6.5-9.4,7.3c-0.8,0.1-1.4,0.8-2,1.1c0.6,0.5,1.3,1.2,1.9,1.6
						C131.2,187.2,131.9,187.2,132.3,187.3z M146.1,103c3.2,1,5.3,1.7,7.3,2.2c1,0.2,2.2,1.7,3.2-0.1c1-1.6,2.8-2.9,1.4-5.3
						c-0.9-1.4-1.7-2.4-3.5-1.5C152,99.6,149.5,101,146.1,103z M108,148.5c1.8-2.7,2.8-5.3,1.5-6.8c-2.6-2.9-3-6.6-4.4-10
						c-2.9,2-3.1,2.3-2.4,4.1C104.3,139.9,106,143.9,108,148.5z M162.6,133.6c-0.1-0.5-0.1-0.9-0.3-1.2c-3.6-4.1-9.1-4.4-13.4-7
						c-0.2-0.2-1.2,0.6-1.7,1.1c0.3,0.5,0.5,1.2,1,1.5c3,1.8,6.1,3.7,9.3,5.3c1.2,0.6,2.7,0.8,4.1,1
						C161.8,134.4,162.2,133.9,162.6,133.6z M108.5,97.4c2.8-1.9,3.3-5.3,5-8c0.3-0.4,0.1-1.3,0.2-1.9c-0.6,0.1-1.3,0-1.9,0.2
						C104.5,90.2,102,89.2,108.5,97.4z M101.2,80.6c-1.8-1.6-3.5-3.2-5.2-4.7c-0.4-0.3-1.4-0.5-1.9-0.3c-1.6,0.6-3.2,1.5-4.7,2.4
						c-1.1,0.6-0.9,1.9,0.4,2.4C93.4,81.6,97.1,83,101.2,80.6z M288.8,169.4c-4.7,2.3-7.6,6.3-11.1,10
						C285.3,179.6,289.1,176.1,288.8,169.4z M258.3,179.3c2.2,3.3,5.1,3.3,7.8,2c2.7-1.2,4.4-3.6,4.6-6.7c0-0.3-0.2-0.9-0.4-0.9
						c-0.4-0.1-1.2-0.1-1.4,0.1C266,177.1,262,177.5,258.3,179.3z M153.4,186.9c4.3-4.2,4.2-9.3,4-14.6c0-0.5-0.8-1.1-1.2-1.6
						c-0.4,0.4-1.1,0.8-1.3,1.3C153.3,176.9,152.6,181.7,153.4,186.9z M127,120.6c-1.9,0.1-4,2.2-3.3,3c1.7,2.3,3.8,4.4,6.7,5
						c1,0.2,2.2-0.9,3.2-1.4c-0.4-0.8-0.6-1.6-1.2-2.3c-1.1-1.2-2.2-2.4-3.5-3.3C128.3,121.1,127.4,120.8,127,120.6z M104.6,105.2
						c3.9,0,6.9,0.1,9.9-0.1c1.3-0.1,1.5,2.3,2.7,1c0.2-0.3-1-2.2-1.7-3c-4.7-4.7-4.7-4.7-9.5,0.3
						C105.7,103.8,105.4,104.3,104.6,105.2z M207.7,171.4c-0.8,8.4,1.4,9.7,10.1,6.3C214.3,175.6,211.2,173.6,207.7,171.4z
						 M213.3,166.5c-3.8-0.8-7-1.2-10-2.2c-3.2-1-6.4-0.8-9.5,0.1c1.7,0.9,3.9,1,5.4,1.8C203.9,169.2,208.3,168,213.3,166.5z
						 M152.8,140.2c-2.4-0.4-4.6-0.8-6.9-1.3c-1.2-0.3-2.3-1-3.3-1.4c-1.5-0.5-1.6-3.5-4.1-2.3c1,1.4,1.9,2.8,3,4.1
						c0.8,1,1.7,1.8,2.8,2.5C148.1,144.5,148.9,144.4,152.8,140.2z M241.7,187.9c1.6-1.9,1.3-4.2,0.5-6.4c-0.6-1.7-1.8-2.9-4.1-2
						c-1.4,0.5-3,0.5-5.1,0.8C236.1,182.9,238.8,185.4,241.7,187.9z M210.5,181.6c-0.2,0.4-0.4,0.9-0.5,1.4
						c-0.2,1.7-0.4,3.5-0.4,5.2c0,0.8,0.4,1.9,1,2.2c1.4,0.5,3.5,1.5,4.4,0.9c1.8-1.1,0.1-2.8-0.3-4.2c-0.4-1.3-1.1-2.6-1.8-3.9
						C212.5,182.6,211.7,182.4,210.5,181.6z M208.1,107.8c-5.4-0.3-9.3,2-13.6,4.7c1.2,0.3,2,0.3,2.5,0.8c1.9,2,3.5,1.6,5.3-0.3
						C203.8,111.3,205.7,109.9,208.1,107.8z M215.1,155.8c0.5,1,1,2.7,1.9,3.2c1.6,0.9,2.4-0.9,3.1-2.2c0.1-0.1,0.2-0.3,0.3-0.4
						c1.3-2.3-0.5-3.7-1.6-5.2c-0.4-0.6-1.4-0.9-2.2-1.3c-0.3,1.3-0.6,2.7-1.1,4C215.5,154.4,215.4,155,215.1,155.8z M141.9,105.4
						c-1.6,3.5-2.9,6.3-4.4,9.6c2.7-0.5,5.2-1,8.2-1.5C144.4,110.7,143.3,108.4,141.9,105.4z M127.7,180.9
						c5.7-5.4,6.7-10.4,3.2-14.1C129.9,171.3,128.9,175.9,127.7,180.9z M203.3,123c4,4.6,6.7,4.9,10.6,0.6c0.3-0.3,0.5-1.1,0.3-1.4
						s-1-0.5-1.4-0.5C209.7,122.1,206.6,122.6,203.3,123z M204.1,201.1c2.9-1.5,5.6-4.6,5.8-6.9c0-0.3-1.3-1.4-1.6-1.3
						c-1.7,0.9-3.9,1.6-4.7,3.1C202.9,197.2,203.9,199.4,204.1,201.1z M117.6,78.2c2-2.7,3.3-4.4,4.6-6.3c0.2-0.4,0.4-1.4,0.2-1.4
						c-0.5-0.3-1.3-0.5-1.9-0.4c-1.1,0.1-2,0.5-3,0.9c-1.6,0.5-2.4,1.5-1.6,3.2C116.3,75,116.7,76,117.6,78.2z M196.2,121.5
						c1.5,4.4,3.1,7.6,7.1,8.8c0.4,0.1,1.2,0.3,1.3,0.1c0.3-0.3,0.4-1.1,0.3-1.5c-0.5-1.1-1-2.3-1.8-2.9
						C201.1,124.5,198.9,123.4,196.2,121.5z M248.9,194c0.2,2,0.1,3.9,0.8,5.2s2.2,2,3.2,3c0.5-1.3,1.3-2.5,1.7-3.8
						c0.3-1.1-0.2-1.9-1.5-2.4C251.8,195.6,250.6,194.9,248.9,194z M101.9,118.8c-2.7-0.2-4.2-1.9-5.6-0.2c-1.3,1.6-2.4,3.5-3.3,5.3
						c-0.1,0.2,0.3,1.1,0.8,1.3c0.3,0.2,1.1,0.1,1.3-0.1C97.1,123.2,99,121.4,101.9,118.8z M127.4,170.2c-2.9,1.4-5.1,2.5-7.3,3.7
						c2.4,1.3,2.6,4.4,5.5,4.6C126.1,176,126.6,173.6,127.4,170.2z M45,70.6c2,0.3,5.3-2.6,5.4-4.7c0.1-0.8-0.5-1.5-0.8-2.4
						c-0.6,0.3-1.3,0.5-1.8,0.9c-1.2,0.9-2.3,1.6-3.3,2.6c-0.4,0.4-0.9,1.2-0.8,1.7C44,69.5,44.7,70.2,45,70.6z M256.7,193.3
						c2.4-3,2.6-5.4,2-7.7c-0.2-0.9-1.2-1.5-1.8-2.3c-0.8,0.9-2.2,1.8-2,2.6C255.1,188.1,255.9,190.2,256.7,193.3z M196.8,142.9
						c0,2.6-0.1,5.2,0.1,7.8c0,0.4,1.1,1.1,1.5,1c1.2-0.2,2.3-0.8,3.2-1.4c0.3-0.2,0.4-1.3,0.2-1.6
						C200.1,146.7,198.4,144.7,196.8,142.9z M268.9,162.2c0.2,1.5,0.1,2.2,0.3,2.7c1.3,2.6,2.6,5.3,4,7.8c0.2,0.5,0.8,0.9,1.2,1.3
						c0.2-0.6,0.8-1.4,0.5-1.9C274.1,168.4,272.5,165.2,268.9,162.2z M121.1,77.6c3.1,1.9,6.1,1.9,9.2,0.5c0.4-0.2,1-0.9,0.9-1.1
						c-0.2-0.5-0.9-1.6-1.2-1.5C127.2,76.4,123.8,75.2,121.1,77.6z M142.7,68.1c7.3,1.1,7.4,1.1,7.7-4.4
						C147.7,64.6,144.9,65.1,142.7,68.1z M64.5,88.1c4.7-2.5,4.7-2.5,2.7-10.6C64.4,80.6,66.6,84.5,64.5,88.1z M171.8,183.9
						c2.6-3.1,1.5-6.5,1.4-9.6c0-0.8-0.9-1.5-1.5-2c-0.3-0.2-1.1-0.4-1.3-0.2c-0.3,0.2-0.6,1.1-0.4,1.3
						C172.3,176.3,171.1,180.1,171.8,183.9z M251.6,168.8c0.2,2.7,1.5,4.7,3.6,6.1c0.2,0.2,1.4-0.3,1.5-0.6
						C257.5,171,256.4,169.8,251.6,168.8z M151.1,77.9c-4.3,1.8-7.8,3.2-11.2,4.6c-0.1,0.1-0.2,0.3-0.3,0.4c-0.1,0.3-0.2,0.8-0.1,1
						c0.1,0.2,0.6,0.5,0.9,0.4C143.7,82.5,148.2,82.8,151.1,77.9z M33.1,68.8c1.4-1.3,2.8-2.4,3.8-3.6c0.4-0.5,0.4-1.8,0.1-2.4
						c-0.3-0.4-1.6-0.5-2.3-0.2C32.4,63.8,31.8,65.9,33.1,68.8z M92.8,141.2c2.3-1.4,3.9-2.2,5.1-3.3c0.5-0.5,0.4-1.8,0.5-2.8
						c-0.8,0.1-1.6,0.3-2.4,0.4C93.4,136,93,137.9,92.8,141.2z M144.1,150.4c-0.3-0.2-0.6-0.6-1.1-0.6c-1.9-0.1-4.7,2.7-4.9,4.7
						c0,0.3,0.5,1,0.9,1C140.8,155.3,144.1,152,144.1,150.4z M193.2,225.5c-1.5-1.8-2.8-3.3-4.2-4.9c0,0-0.9,0.3-1,0.6
						c-0.6,2.5,0.9,4.9,3.2,5C191.7,226.3,192.1,225.9,193.2,225.5z M271.6,183.7c0,0.1,0,0.2,0,0.3c3.6,0,7.1,0,10.7,0
						c0.4,0,0.9-0.4,1.3-0.8c-0.5-0.3-1-1.1-1.5-1.1C278.5,182.6,275.1,183.1,271.6,183.7z M89.8,62.6c0.4,0.6,0.5,1,0.8,1.2
						c1.1,1.6,2.2,3.3,4.4,3.3c0.2,0,0.6-0.5,0.5-0.6c-1-1.8-2-3.8-4.4-4.1C90.8,62.3,90.5,62.5,89.8,62.6z M162.6,123.8
						c-0.9-1.9-1.4-3.2-2.2-4.5c-0.3-0.4-1.2-1-1.6-0.9c-0.5,0.1-1.1,0.9-1.2,1.5c-0.2,1.1-0.1,2.2,1.3,2.6
						C160,122.8,160.9,123.2,162.6,123.8z M101.9,64.2c-1.4,0.1-1.9,0-2.5,0.2c-0.4,0.1-1.1,0.5-1.1,0.9c0,0.4,0.4,0.9,0.8,1.2
						c0.4,0.3,1.1,0.8,1.4,0.6c1.2-0.4,2.3-1.1,3.5-1.6C103.2,65,102.3,64.5,101.9,64.2z M132.8,180c2.5-0.9,3.7-2.2,4-4
						c0.1-0.6-0.3-1.3-0.5-1.9c-0.6,0.4-1.5,0.6-1.7,1.3C133.9,176.6,133.5,178,132.8,180z M144,125.2c-0.3-0.3-0.6-0.9-0.8-0.8
						c-1.6,0.6-3.2,1.4-4.7,2.2c0,0,0.2,1.1,0.5,1.2c1.8,0.6,4.3-0.5,5-2.2C144.1,125.4,144,125.2,144,125.2z M208.7,162.2
						c2.3,1.6,4.1,1,5.5-0.5c0.3-0.3-0.5-1.8-0.9-2.8C211.8,160,210.4,161,208.7,162.2z M120.2,145.7c0.5-2.3,0.5-3.5,1-4.3
						c1.2-2.4-0.9-2.6-2-3.3c-0.1-0.1-0.9,0.5-0.9,0.6C118.7,140.6,119.3,142.6,120.2,145.7z M209.8,231.1c-1,1.2-1.7,2-2.5,2.8
						c0.5,0.4,1.5,1.5,1.6,1.4c0.9-0.6,1.6-1.5,2.2-2.5C211.3,232.7,210.6,232.1,209.8,231.1z M161.5,117.1c1.6,2.3,2.7,3.7,4.2,5.7
						C165.7,118.3,165.7,118.3,161.5,117.1z M155.2,120.8c-0.5-0.4-0.9-1-1.2-0.9c-0.9,0.2-1.7,0.4-2.4,1c-0.5,0.4-0.6,1.2-1,1.8
						c0.8,0.1,1.7,0.6,2.3,0.4C153.8,122.6,154.4,121.6,155.2,120.8z M115,159.8c-0.5,0.9-1.2,1.6-1.1,1.8c0.6,1,1.4,1.7,2.3,2.6
						c0.4-0.8,1.3-1.6,1.2-2.2C117,161.3,116.1,160.8,115,159.8z M186.8,190.2c-0.4,0-0.8,0-1.2,0c0.1,1.3,0.1,2.7,0.2,4
						c0,0.2,1,0.6,1.2,0.5c0.4-0.2,0.9-0.9,0.8-1.3C187.7,192.4,187.3,191.3,186.8,190.2z M192.4,135.5c-1.3-1-1.8-1.7-2.6-1.8
						c-0.5-0.1-1.2,0.4-1.8,0.6c0.5,0.5,1.1,1.3,1.7,1.6C190.2,136.2,190.9,135.8,192.4,135.5z M123.6,113.2
						c1.3-1.1,2.2-1.7,2.9-2.5c-0.2-0.2-0.4-0.5-0.6-0.6c-1.4-0.6-1.8,0.4-2.3,1.3C123.5,111.8,123.6,112.2,123.6,113.2z
						 M139.4,148.3c-1.1-0.3-1.7-0.8-2.2-0.5c-0.4,0.1-1,1.1-0.9,1.3c0.2,0.4,1,1.1,1.4,1S138.5,149.1,139.4,148.3z M221.7,140.3
						c0.4-0.4,0.9-0.9,1.3-1.2c-1.1-1-2.3-1.9-3.3-3c-0.3,0.3-0.5,0.6-0.9,1C219.7,138.1,220.7,139.2,221.7,140.3z M210.8,227.7
						c0.1,0.2,0.3,0.5,0.4,0.8c1.1-0.6,2.2-1.3,3.3-1.9c-0.2-0.3-0.3-0.5-0.5-0.9C212.9,226.3,211.9,227,210.8,227.7z M224.7,151.4
						c-0.6-0.5-1.1-1-1.5-1.3c-0.2,0.4-0.8,0.8-0.8,1.2s0.4,1,0.9,1.1C223.4,152.5,223.9,151.9,224.7,151.4z M135.7,132.5
						c0.8-0.6,1.4-1.1,1.7-1.6c0.1-0.2-0.4-0.8-0.6-1.2c-0.5,0.4-1.2,0.6-1.5,1.2C135.1,131.1,135.4,131.8,135.7,132.5z
						 M226.4,166.7c-0.5,0.6-1,1.2-1.4,1.6c0.5,0.2,1.2,0.5,1.7,0.5c0.4,0,0.9-0.5,1.3-0.8C227.6,167.7,227.2,167.3,226.4,166.7z
						 M52.8,63.4c0.4,0.2,0.8,0.5,1.1,0.8c0.1,0,0.2-0.2,0.4-0.3c-0.3-0.3-0.5-0.8-0.9-1.1C53.3,62.9,53.1,63.1,52.8,63.4z
						 M138.3,168.4c-0.1,0.6-0.1,1.1-0.1,1.6l0.6,0.1c0.1-0.3,0.2-0.6,0.1-1C138.9,169,138.6,168.8,138.3,168.4z M205.5,231.1
						c0.2,0.1,0.5,0.3,0.8,0.3c0.1,0,0.2-0.2,0.3-0.3c-0.2-0.1-0.5-0.3-0.8-0.3C205.7,230.8,205.6,231,205.5,231.1z M188.2,128.4
						c-0.1,0.1-0.3,0.2-0.3,0.3c0,0.3,0.2,0.5,0.2,0.9c0.1-0.1,0.3-0.2,0.3-0.3C188.5,129,188.3,128.7,188.2,128.4z M221.9,223.6
						l-0.2-0.2v0.2H221.9z M210,129.7l-0.2-0.2v0.3L210,129.7z"/>
					<path d="M13.4,60.9c-0.6,0.5-1.3,1-2,1.5c-3,2-3,1.9-4.6-2.3c2.2,0,4.2,0,6.3,0C13.2,60.4,13.3,60.6,13.4,60.9z"/>
				</g>
			</g>
		</g>
	</g>
</g>
</svg>
