<?xml version="1.0" encoding="utf-8"?>
<!-- Generator: Adobe Illustrator 18.0.0, SVG Export Plug-In . SVG Version: 6.00 Build 0)  -->
<!DOCTYPE svg PUBLIC "-//W3C//DTD SVG 1.1//EN" "http://www.w3.org/Graphics/SVG/1.1/DTD/svg11.dtd">
<svg version="1.1" id="Layer_1" xmlns="http://www.w3.org/2000/svg" xmlns:xlink="http://www.w3.org/1999/xlink" x="0px" y="0px"
	 viewBox="0 0 300 300" enable-background="new 0 0 300 300" xml:space="preserve">
<g>
	<g>
		<defs>
			<rect id="SVGID_1_" y="51.2" width="300" height="197.6"/>
		</defs>
		<clipPath id="SVGID_2_">
			<use xlink:href="#SVGID_1_"  overflow="visible"/>
		</clipPath>
		<g clip-path="url(#SVGID_2_)">
			<path fill="#FFFFFF" d="M6.7,60.1c1.6,4.2,1.6,4.3,4.6,2.3c0.8-0.5,1.4-1,2-1.5c-0.1-0.3-0.2-0.5-0.4-0.8
				C10.9,60.1,8.8,60.1,6.7,60.1z"/>
			<path fill="#FFFFFF" d="M288.5,178c2.4-2,3.2-4.7,3.8-7.6c0.4-2.7-1.1-4.1-3.8-3.5c-1,0.2-1.8,0.9-2.7,1.5
				c-2.9,2.3-5.7,4.7-8.6,7.1c1-4.8-1.3-8.6-3.7-12.5c-1.6-2.6-4.3-3.7-7.1-4.5c-1.4-0.4-2.6,0.8-2,2.2c0.5,1.7,1.4,3.2,2,5
				c1.7,4.6,1,6.6-3.1,8.8c-2.4,1.3-2.8,1.2-3.6-1.5c-1-3.3-2.4-6-6.3-6.5c-1.3-0.2-3.2,0.2-3.9-0.5c-1-1.1-1.1-2.9-1.6-4.4
				c-0.3-1-0.5-2.2-1.1-3c-1.6-2.8-3.5-5.6-7.2-5.7c-1.8,0-3-0.9-4.1-2.2c-0.6-0.6-1.4-1.2-2.2-1.6c-0.2-0.1-0.8,0-1,0.2
				c-0.2,0.2-0.5,0.8-0.4,0.9c3.1,3.2,1.5,7.1,1.7,10.8c0.1,0.4-0.6,1-1.1,1.4c-0.1-0.6-0.5-1.3-0.4-1.9c0.1-1.1,0.6-2,0.8-3.1
				c0.4-3.8-0.2-4.4-4-4.2c-0.8,0-1.6-0.1-2.4-0.2c0.3-1.2,0.3-2.6,1-3.5c0.6-0.9,1.9-1,2.8-1.6c1.6-1.3,3.2-2.8,4.6-4.3
				c0.2-0.3,0-1.4-0.3-1.9c-0.1-0.3-1-0.3-1.4-0.2c-0.5,0-1,0.4-1.5,0.5c-3.7,0.6-4.5,0.1-6.6-3.3c-1.6-2.6-3.8-4.9-6.8-5.8
				c-1.1-0.4-2.4-0.2-3.6,0c-0.9,0.1-1.5,1.9-2.6,0.6c-0.5-0.6-0.1-1.9-0.3-2.9c-0.4-1.8,1.1-1.9,2-2.7c3.2-2.5,5-5.7,5-9.7
				c0.1-1.8-1.3-2.4-2.9-1.5c-1.7,1-3.3,2.4-5.2,2.6c-4,0.5-8,0.5-12.9,0.8c1.5-1,2.3-1.6,3.1-2.2c4.5-3.2,9.2-6.3,12-11.3
				c0.4-0.8,0.3-1.7,0.2-2.5c0-0.2-1.2-0.3-1.8-0.2c-5,1.3-10,2.5-15,3.8c-0.1,0-0.2,0.1-0.3,0.2c0,0,0,0,0,0c0.1,0,0.2-0.1,0.3-0.1
				c0.5-1,1.1-1.8,1.3-3.1c1.3-3.1,0.5-4.4-2.7-4.6c-2.4-0.1-4.6,0-7-0.1c-3.5-0.1-3.9-0.3-3.6-3.7c0.4-4.2-1-7.6-3.2-11
				c-1.6-2.6-3.7-3.1-6.4-2.5c-1.7,0.4-3.3,1.4-5.1,1.7c-0.6,0.1-1.6-0.5-2.2-1.1c-0.3-0.3-0.1-1.3,0.2-1.8c0.5-1,1.4-1.7,1.8-2.7
				c1.7-3.9,3.5-7.9,5-11.9c0.2-0.6-0.4-1.6-0.6-2.5c-0.8,0.3-1.6,0.5-2.3,1c-2.5,1.7-4.7,3.9-7.4,5.2c-2.9,1.5-5.9,2.7-8.2,5.1
				c-1.2,1.3-2.7,2.4-4.2,0.8c-1.3-1.4,0.4-2.6,0.9-3.8c0.3-0.9,1-2.5,0.9-2.6c-2.7-1.4-0.4-3-0.1-4.4c0.4-1.7,2.9-3.5,1-5.3
				c-0.1-0.1-0.1-0.1-0.2-0.1h-2.5c-0.8,0.3-1.5,0.8-2.2,1c-1.1,0.3-2.8,1-3.3,0.4c-0.8-0.7-1.6-1.2-2.4-1.4H15.3
				c2.1,3,2.2,3.1,4.4,3.3c2.9-0.1,5.4,0,8,2c1.4,1.2,2.3,1.7,2.3,3.6c0,1.5-0.9,3.8,1.2,4.2c1.1,0.2,2.6-1.4,3.9-2.2
				c0.2,0,0.3-0.2,0.4-0.3c1.8-1.6,5.4-1.1,6.6,1.3c0.4,0.8,0.3,2.2-0.1,2.8c-0.6,0.8-1.2,1.4-1.9,2.1c0,0-0.1,0.1-0.1,0.1
				c-0.7,0.7-1.4,1.4-2.1,2.1c-1.3,1.4-0.9,2.9,1,2.9c3.2-0.1,6.3-0.6,9.5-1c0.1,0.9-0.1,2.1,0.3,2.6c1.5,1.5,3.2,3,5.2,3.8
				c1.2,0.4,3-0.3,4.5-0.8c1.2-0.4,2.4-1.2,3.6-1.8c0.1,0.8,0.3,1.1,0.3,1.4c0.1,2,0.3,4.2,0.5,6.3c2.7,0.3,4.1-1.7,5.9-3
				c1.3-1,2.6-0.3,4.3,1.8c1.1,1.3,0,1.9-0.8,2.6c-1.2,1.1-2.6,1.9-3.6,3.2c-0.8,0.9-1.3,2.5-1,3.3c0.3,0.6,2,1.1,3.1,1.2
				c3.1,0.3,6.3,0.3,10,0.5c-1.8,1.9-3.1,3.3-4.4,4.9c-2.3,2.6-2.2,3.8,1,5.2c1.5,0.6,1.5,1.2,1,2.3c-1.4,3.1-2.8,6.3-4.1,9.4
				c-0.6,1.5,0.1,2.4,1.7,2c5-1,8.1-4.2,10.6-8.3c0.1-0.1,0.2-0.3,0.2-0.5c0.7-0.7,1.4-1.3,2-2.1c0.5,1.1,0.4,2.4,0,4.4
				c-0.4,1.4-1.1,2.5,0.4,3.8c0.6,0.4,0.8,1.9,0.5,2.8c-0.3,1.5-1.1,2.9-1.9,4.3c-2,3.5-4.1,6.8-6.1,10.1c-0.3,0.4-0.2,1.3,0,1.8
				c0.1,0.2,1.1,0.4,1.5,0.2c1.1-0.4,2.2-1.1,3.1-1.8c1.2-1,2.3-2,3.9-3.6v3.9c0,1.3-1.8,2.9,0,3.8c0.9,0.4,2.5-0.6,3.8-1
				c0.2-0.1,0.5,0.1,1.1,0.2c-0.8,3.2-0.2,6.9-4.3,8.5c-0.6,0.3-1,1.6-1.4,2.5c1.1,0.4,2.5,1.6,3.1,1.3c3.5-1.8,6.8-4,10-6.1
				c0,0,0,0,0,0c0.8-0.5,1.5-1,2.1-1.6c0.6,1.4,1.1,2.9,1.7,4.3c0.5,1.3,1.3,1.9,2.3,0.9c2-2.4,3.3-1.1,4.6,0.6
				c0.8,0.9,1.4,1.8,2.2,2.8c-1.3,1-3.6-1.5-4.2,0.9c-0.4,1.7-0.5,3.7-0.1,5.3c0.3,1.2,1.6,2.3,2.6,3.6c-1.9,2-3.6,4.4-6.7,5
				c-0.5,0.1-1.5,1.1-1.4,1.4c0.2,0.6,0.9,1.4,1.5,1.8c0.6,0.4,1.6,0.8,2.5,0.8c2.6,0.1,5.5-0.9,7.8,0.1c2.3,0.9,3,4.2,5.6,5.4
				c0.2,0,0.2,0.3,0.4,0.6c-0.8,0.6-1.5,1.3-2.3,2c-0.6,0.5-1,1.3-1.5,1.9c0.9,0.5,1.6,1.3,2.6,1.6c1.5,0.4,3.5,0.1,4.6,0.9
				c4.2,2.8,8.3,1.4,12.4,0.1c1.1-0.3,2.8-1.7,3.1-1.4c1.5,1.5,0,3-0.6,4.3c-0.8,1.6-2,2.9-3,4.4c-0.4,0.8-0.9,1.7-1.3,2.6
				c1.1,0.4,2.3,1.2,3.3,1.1c1.2-0.1,2.4-0.8,3.3-1.5c2.4-1.8,4.7-3.8,7.1-5.7c-0.2-0.9,0-0.3,0.3,0.1c1.6,1.9,2.4,1.8,3.2-0.1
				c0.9-2.2,1.7-4.2,3-7.4c0.2,3.9-0.3,6.9,0.8,9.2c2,4.3,4.9,8.3,7.8,12.1c1.9,2.5,3.7,5.1,2.8,8.1c-1.8,6.8,1,12,5,16.7
				c1.4,1.7,2.4,3.2,3,5c0,0.6,0.2,1.2,0.4,1.8c0.1,0.4,0.1,0.8,0.1,1.2c0.1,4.9,4.2,6.5,8.3,3.6c1.6-1.2,3.2-2.3,4.6-3.7
				c1.3-1.2,2.4-1.4,3.9-0.6c1.1,0.5,2.3,1.1,3.5,1.3c4.1,0.9,7.6-2.6,11.8-1.6c0.4,0.1,1-0.9,1.6-1.3c2.4-1.5,1-4.6,2.5-6.1
				c1.6-1.7,4.7-0.1,6.9-2.2c2.3-2,3.5-4.4,4-7.3s-0.6-5.1-3.6-5.3c-1.9-0.1-3.9,0.4-5.8,0.5c-3.7,0.2-7.4,0.5-11.2,0.4
				c-2.6-0.1-4.6-1.7-5.9-4.1c-1.7-3.1-3.6-6.3-5.2-9.4c-0.6-1.3-1-2.7-1.3-4.1c-0.5-2.4-0.9-5-1.7-7.2c-1.5-4.2-3-8.4,0.5-12.4
				c0.1-0.1,0.1-0.2,0.2-0.3c0.3-0.2,0.5-0.4,0.7-0.7c1.5,0.9,2.8,2.2,2.6,4.2c-0.3,4.2,1.8,8.4,0.1,12.7c-0.3,0.6-0.2,1.5,0,2.2
				c0.4,1.4,1.3,2.7,2.7,1.8c2.8-1.7,3.7-0.3,4.6,2c0.6,1.4,1.8,2.7,2.9,3.8c1.3,1.4,2.7,0.9,3.5-0.6c1.1-2,1.7-4.3,2.8-6.4
				c1.2-2.3,2.4-4.1,5.7-2.8c1.9,0.9,3-0.5,2.5-2.7c-0.6-2.6-1.6-5.1-2.5-7.7c-0.2-0.6-0.5-1.5-0.3-2c0.5-1.5,6.3-4.2,8.2-3.8
				c6.5,1.4,10.8,6,14.7,10.9c3.9,4.7,3.7,5,6.7-1.2c0.4,2,1.2,3.6,1,5c-1.1,5.2,2.3,8.4,5.1,11.8c1,1.2,2.3,1,3.2-0.2
				c0.5-0.8,1.1-1.5,1.2-2.4c0.4-5.7,5.8-9.6,5.4-15.5c0-0.4,1.3-1.3,1.4-1.2c2.7,2,5.7,0,8.3,0.8c5.8,1.7,11.3,0.2,16.8-1.4
				c0.8-0.2,1.8-0.6,2-1.3c0.2-0.5-0.4-1.7-1.1-2C286.5,180.9,286.6,179.6,288.5,178z M48.4,81C48.4,81,48.4,81,48.4,81
				c1.7-1.5,3.7-1.6,6.3-2.5C51.8,82.1,51.8,82.1,48.4,81z M189,220.7c1.4,1.5,2.7,3,4.2,4.9c-1.1,0.4-1.5,0.8-1.9,0.8
				c-2.4-0.1-3.9-2.5-3.2-5C188.1,221,189,220.7,189,220.7z"/>
		</g>
	</g>
</g>
</svg>
