<?xml version="1.0" encoding="utf-8"?>
<!-- Generator: Adobe Illustrator 18.0.0, SVG Export Plug-In . SVG Version: 6.00 Build 0)  -->
<!DOCTYPE svg PUBLIC "-//W3C//DTD SVG 1.1//EN" "http://www.w3.org/Graphics/SVG/1.1/DTD/svg11.dtd">
<svg version="1.1" id="Layer_1" xmlns="http://www.w3.org/2000/svg" xmlns:xlink="http://www.w3.org/1999/xlink" x="0px" y="0px"
	 viewBox="0 0 567.5 613.2" enable-background="new 0 0 567.5 613.2" xml:space="preserve">
<g>
	<g>
		<path d="M468.7,0c-0.9,0.9-1.7,2-2.7,2.8c-0.9,0.7-2.2,1.1-2.9,1.9c-2.2,2.5-5.5,3.2-8.2,5c-0.3,0.2-0.8,0.3-1,0.2
			c-1.5-0.9-2.5,0.2-3.6,0.9c-4.2,2.5-5.2,6.5-4.6,10.9c0.2,1.8-0.4,2.6-1.8,2.9c-1.5,0.3-2.9,1-4.6,0.2c-1.1-0.5-2,0.3-1.7,1.5
			c0.6,2.9,0.1,6,1.9,8.7c1.1,1.6,1.9,3.5,2.3,5.4c0.4,1.7,1.3,2.8,2.3,3.9c1.9,2.1,3.9,4.2,6.5,5.4c1.9,0.9,3.1,2.3,4.3,4
			c2.7,3.7,5.2,7.5,7.1,11.7c1.9,4.1,2.3,8.5,3.2,12.9c0.3,1.4,0.5,2.8,0.9,4.2c0.7,2.5,1.3,5.1,2.1,7.6c1.6,4.7,4,9,6.2,13.4
			c2.7,5.4,5.1,10.9,6.9,16.6c0.5,1.7,1.5,3.3,1.9,5c0.6,2.8,1.2,5.6,1.4,8.5c0.3,6,1.9,11.8,3.4,17.6c0.9,3.6,1.3,7.3,1.8,11
			c0.3,1.8,0.5,3.6,0.7,5.3c0.3,2.4,0.7,4.8,0.7,7.2c0.1,8.4,0,16.7,0.1,25.1c0,1.9,0.4,3.8,0.5,5.7c0,0.5,0.1,1,0,1.4
			c-1.2,3.9-0.8,8-0.5,11.9c1.1,11.2,0.5,22.5,0.5,33.7c0,5.2-0.2,10.6-1.3,15.8c-0.1,0.5,0,1-0.1,1.4c-0.9,13.6-0.6,27.3-0.8,40.9
			c-0.1,3.9-0.8,7.9-1.2,11.8c-0.1,1-0.1,1.9-0.1,2.9c0,10-0.1,20.1,0,30.1c0,4-0.4,7.9-1.3,11.8c-0.3,1.3-0.2,2.6-0.2,4
			c0.2,5.8-0.9,11.5-2,17.1c-0.5,2.7-0.6,5.5-0.9,8.2c-0.2,2.1-0.3,4.3-0.8,6.4c-0.9,4.3-0.5,8.8-1.9,13.2c-0.9,2.8-0.6,6-1,8.9
			c-0.6,4.3-1.4,8.5-2,12.8c-0.2,1.1-0.1,2.2-0.1,3.3c0,16,0,32,0,47.9c0,3.5-0.5,7-0.8,10.4c-0.2,2.3-0.6,4.5-0.6,6.8
			c0.1,3.5-0.7,6.9-1.2,10.4c-0.8,5.5-1.5,11-1.1,16.5c0,0.4,0,0.8,0.2,1.1c2.2,4.1,3.1,8.5,4.2,12.9c1,3.8,3,7,4.9,10.3
			c1.7,2.9,3.4,5.7,5.2,8.6c1.2-0.4,1.4-1.3,1-2.4c-0.7-2.4-0.4-4.7,0.4-7.1c0.4-1.1,0.4-2.4,0.7-3.5c0.1-0.5,0.8-1.4,0.9-1.3
			c0.7,0.3,1.7,0.7,1.9,1.3c0.7,2.3,1.1,4.6,1.6,7c0.6,3,1.2,6.1,1.8,9.1c0.2,0,0.6,0,0.7-0.1c2.3-4.9,6.4-7.8,11.1-10.2
			c1.5-0.8,2.9-1.1,4.4-1c1.6,0.1,1.9,0.6,1,2.1c-0.5,0.8-1.2,1.5-1.9,2.2c-2.3,2.2-4.6,4.4-7.2,6.9c2.5,0.8,4.4,0.6,6.4,0
			c1.5-0.4,3-0.7,4.6-0.9c0.7-0.1,1.5,0,2.1,0.3c0.9,0.5,2.2,1.6,2.1,2c-0.4,1.2-1.7,0.8-2.8,0.7c-4.1-0.4-7.1,1.9-10,4.2
			c-0.8,0.7-0.4,1.2-0.1,1.9c0.8,1.8,1.7,3.5,2.3,5.3c1.3,3.7,2.6,7.5,3.5,11.3c0.5,2.1,1.6,3.4,3.3,4.4c0.2,0.1,0.5,0.1,0.7,0.2
			c1.4,0.7,2.7,1.6,3,3.3c0.1,0.7-2.3,0.2-4.2-0.9c-1.4-0.8-2.9-1.7-4.4-2.4c-2.2-1-4.6-1.9-6.8-2.8c-0.7-0.3-1.4-0.4-2-0.8
			c-0.8-0.6-1.5-0.5-2.3-0.1c-2.7,1.4-5.2,1-8,0c-2.7-1-5.4-1.6-7.9-3.2c-0.6-0.4-1.6-0.2-2.5-0.3c-1.4-0.1-2.9,0-4.3-0.4
			c-1.9-0.6-3.3-0.3-4.5,1.2c-0.3,0.3-0.7,0.6-1.1,0.9c-1,0.7-2.1,0.4-2.3-0.7c-0.7-3.3-2.2-6.5-1.2-10.2c0.7-2.3,0.1-5-0.2-7.7
			c-0.3,0.7-0.9,1.5-0.8,2.2c0.3,3.9-1.5,7.5-1.8,11.4c-0.1,1.3-0.5,2.5,0.1,3.8c0.2,0.5,0.2,1.2,0.2,1.8c-0.1,0.6-0.4,1.3-0.6,1.9
			c-0.4-0.5-1-0.9-1.3-1.5c-0.2-0.4-0.1-1-0.3-1.4c-0.7-1.5-1.5-2.7-3.4-2.6c-1.3,0.1-2.6,0.2-3.9,0.4c-2.1,0.3-4.3,0.5-6.4,1.1
			c-2.3,0.6-4.5,1.6-6.7,2.5c-1.4,0.6-1.7,1.7-1.1,2.9c0.8,1.7,0.7,3.9,2.8,4.8c0.2,0.1,0.4,0.3,0.5,0.5c1.1,3.2,3.6,5.2,5.8,7.5
			c0.6,0.6,1.3,1.5,0.5,2.2c-0.7,0.6-2.3,1.4-2.8,1c-2.6-1.6-5.5-0.6-8.1-1.3c-4.3-1.1-8.5-1.3-12.9-1.5c-1.3,0-2.6-1.5-3.7-2.5
			c-0.7-0.6-1.2-0.9-2.2-0.6c-1.4,0.4-2.8,0.5-4.2,0.7c-0.4,0.1-1,0.1-1.4-0.1c-0.5-0.2-0.9-0.7-1.3-1.1c0.3-0.3,0.6-0.6,1-0.9
			c0.4-0.3,0.8-0.5,1.6-0.9c-3.8-0.5-6.8-1.7-9.4-4.2c-1.6-1.5-3.9-2.2-6-3.4c-1.1,3.1,0.5,6.4-1.5,9.7c-0.7-2.5-0.9-4.3-0.7-6.4
			c0.3-2.4-0.5-5-0.8-7.5c-0.1-1.1-0.5-2.2-0.4-3.2c0.3-2.8-1.3-5.1-1.7-7.7c0-0.3-0.9-0.7-1.4-0.7c-1.6,0-2.7,1.3-2.7,2.8
			c0,0.4,0,0.7,0.2,1.1c1.1,2.9,1.3,5.8,1.3,8.9c0,2.1,0.6,4.3,0.6,6.4c0,1.9-0.4,3.8-0.7,5.7c-0.1,0.4-0.6,0.9-0.9,0.9
			c-0.4,0-1-0.5-1-0.8c-0.1-1.5-0.2-3.1,0.1-4.6c0.5-2.4,0.5-4.8-0.4-7.1c-0.2-0.4-0.4-0.9-0.7-1.2c-1.4-1.2-7.2-0.4-8.3,1.1
			c-0.6,0.8-0.9,2.2-1.9,1.7c-1.4-0.7-0.2-2,0.2-2.8c0.8-1.6,1.9-3.1,2.8-4.6c0.6-1,1-2.1,1.5-3.2c1,0,1.4-0.5,1.4-1.5
			c0.5-0.2,1.2-0.3,1.6-0.6c4.6-3.5,8.8-7.7,14-10.3c0.5-0.3,1.1-0.6,1.4-1c0.6-0.7,1-1.4,1.4-2.2c-1,0-2.1,0-3.1,0
			c-0.2,0-0.4,0.3-0.6,0.4c-5.8,3.6-10.9,8-14.8,13.7c-0.5,0.5-1,0.9-1.5,1.4c-2.1,1.2-3.6,3.1-5,5.1c-1.7,2.4-3.4,4.9-5.2,7.3
			c-0.7,1-1.6,0.9-2.1-0.3c-0.6-1.5-1.1-2.5-2.7-0.8c-0.3,0.3-1.1,0.3-1.7,0.3c-1.2,0-2.5,0.2-3.6,0c-4.5-0.8-8.4,1.4-12.5,2.5
			c-2.1,0.5-3.5,2.7-4.2,5.1c-0.3,1.1-0.9,2.1-1.4,3.1c-1.5-0.9-1-2.5-0.7-3.5c0.8-3,1-6.1,0.5-9c-0.7-4.6-0.4-9.1-0.8-13.7
			c-0.2-2.6-1.1-5.1-1.7-7.7c0-0.2-0.4-0.3-0.9-0.6c0,1.4,0,2.5,0,3.7c0,4,0.2,8,0,12c-0.3,6.2-0.8,12.4-2.8,18.3
			c-0.2,0.5-0.7,0.8-1,1.2c-0.2-0.4-0.5-0.8-0.6-1.2c-0.1-0.6,0.1-1.3-0.1-1.8c-0.2-0.4-0.7-0.9-1.2-1c-0.8-0.2-1.4,0.1-1.5,1.1
			c0,0.8,0,1.7-0.1,2.5c-0.1,0.4-0.4,0.7-0.7,1.1c-0.3-0.3-0.8-0.6-0.8-1c0-1.7,0-3.4,0.3-5c0.2-1.7,0.7-3.3,1.2-4.9
			c0.2-0.8,0.6-1.6,1-2.3c1.4-2.4,2.8-4.7,4.1-7.1c0.3-0.6,1-1.4-0.1-1.8c-0.3-0.1-1.1,0.3-1.4,0.7c-3.1,4.1-6.1,8.4-8,13.3
			c-1.1,2.9-2.5,5.7-3.8,8.5c-0.3,0.7-1.4,0.7-1.8,0.1c-0.5-0.7,0.2-2.2-1.2-2.3c-1.2-0.1-2.5-0.2-3.6,0.1c-2.4,0.6-4.8,1.6-7.2,2.3
			c-0.7,0.2-1.4,0.3-2.1,0.3c-1.3,0.1-2.7,0-4,0c-4.3,0-8.6-0.5-12.6,2c-1.5,1-3.2,0.9-5-0.4c-1.5-1-3.6-1.1-5.5-1.6
			c-0.6-0.2-1.2-0.2-1.7-0.4c-0.9-0.5-1.1-1.6-0.4-2.4c0.5-0.6,1-1.1,1.5-1.5c2.2-1.9,4.5-3.8,6.4-6.2c0.8-1.1,2.2-1.8,3.5-2.4
			c2.9-1.4,5.8-2.4,7.4-5.6c0.7-1.4,2.7-2.2,4.2-3.3c0.5-0.4,1.1-0.8,1.5-1.3c0.2-0.3,0.3-1,0.1-1.3c-0.3-0.4-1.1-0.9-1.4-0.7
			c-2.3,0.9-4.4-0.7-6.7-0.3c-2.3,0.3-4.6,0.2-6.9,0c-1.2-0.1-2.3-0.7-3.5-1c-1.3-0.3-2.6-1.4-4.1-0.6c-0.3,0.2-1-0.1-1.3-0.4
			c-0.5-0.4-1.1-1.1-1-1.6c0-0.5,0.7-1.3,1.2-1.4c2.5-0.7,4.7-1.5,6.4-3.6c0.7-0.9,2.1-1.1,3.1-1.8c2.9-2.1,5.8-4.3,8.6-6.5
			c2.5-1.9,5.2-3.3,8.1-4.4c2.6-0.9,4.9-2.5,7.3-3.8c0.7-0.4,1.6-0.5,2.3-1c1-0.7,1.9-1.5,2.2-3c0.8-4,3.1-7.1,6.2-9.8
			c0.9-0.8,1.7-1.7,2.5-2.6c0.6-0.8,1.5-1,2.2-0.6c0.5,0.3,0.8,1.2,0.7,1.8c-0.2,1.2-0.6,2.3-1.2,3.4c-1.6,2.7-1.9,5.7-2.8,8.5
			c-0.3,1,0.2,1.3,1,1.3c0.5,0,1.2,0.1,1.4-0.1c1.6-1.8,3.7-1.4,5.7-1.3c1.7,0.1,2.9-0.6,3.9-1.6c2.2-2.3,5-4.2,6.2-7.3
			c0.1-0.2,0.1-0.6,0.3-0.6c3-1.5,3.3-4.5,4.3-7.2c1.1-3.1,2.2-6.1,3.2-9.2c0.3-0.9,0.3-1.9,0.5-2.8c0.5-4,1-8.1,1.5-12.1
			c0.2-1.8,0.5-3.6,0.7-5.3c0.3-2.3,0.6-4.5,0.8-6.8c0.2-1.7,0.4-3.3,0.6-5c0.3-2,0.6-4,0.9-6c0.2-1.2,0.4-2.4,0.6-3.5
			c0.3-1.7,0.5-3.3,0.8-4.9c0.2-0.9,0.6-1.9,0.6-2.8c-0.1-3.8,0.6-7.4,1.3-11.1c0.4-2,0-4.1,0.2-6.2c0.1-1.4,0.5-2.8,0.8-4.2
			c0.1-0.5,0.5-0.9,0.5-1.3c-0.3-5.5,2.3-10.5,3.3-15.8c0.9-4.4,1.2-9,2.5-13.4c0.2-0.7,0.1-1.4,0.1-2.2c0-8.4,0.2-16.7,0-25.1
			c-0.1-6.2-0.8-12.5-1.1-18.7c-0.1-1.5,0.3-3.1,0.5-4.6c0.2-2,0.5-4,0.6-6.1c0.1-2.3-0.2-4.6,1.2-6.7c0.2-0.3,0.3-0.7,0.3-1
			c-0.2-4.5,1.8-8.7,2.5-13c0.1-0.6,0.4-1.2,0.4-1.7c-0.3-3.6,1.2-6.8,1.9-10.2c1.1-5.3,2.2-10.5,3.2-15.8c0.1-0.4,0-0.7,0-1.1
			c0.2-5.3,0.4-10.6,0.8-15.9c0.4-5,0.5-10.1,1.6-15c0.8-3.6,0.7-7.2,1.5-10.6c1.1-4.2,1.1-8.3,1.2-12.5c0-1.4,0.9-2.9,0.6-4.2
			c-0.7-3.4,0.8-6.9-0.5-10.3c-0.3-0.8-0.1-1.9-0.1-2.9c0.1-4.8-0.5-9.6-1.3-14.3c-0.3-1.6-0.2-3.4-0.1-5.1c0.2-3.2-0.4-6.2-1.1-9.3
			c-0.2-0.8-0.4-1.7-0.4-2.5c0.1-3.4-0.3-6.6-1.4-9.9c-1-2.9-1.1-6.1-1.6-9.2c-0.1-0.8-0.4-1.6-0.6-2.4c-0.2-0.8-0.7-1.6-0.7-2.4
			c0-6.2-2.2-12.1-1.6-18.3c0.3-3-1.3-5.7-2.2-8.5c-1.3-4-3.7-7.4-4.6-11.5c-0.2-0.9-0.2-1.9-0.4-2.9c-0.3-1.3-0.2-2.9-1-3.7
			c-2.4-2.5-2.7-5.5-3.3-8.6c-0.2-1.2-0.5-2.4-1-3.4c-2.1-4-3.5-8.4-6.8-11.8c-1.3-1.4-1.6-3.6-2.4-5.5c-1.5-3.6-3-7.3-4.6-10.9
			c-0.4-0.9-1.3-1.7-2-2.5c-4.1-4.5-7.5-9.2-9.5-15.1c-1.2-3.4-3.7-6.4-5.8-9.4c-2.1-3-4.4-6-6.7-8.9c-2-2.5-3.8-5.2-6.4-7.3
			c-2.6-2.2-4.7-4.8-7.2-7.1c-1.6-1.4-3.3-2.6-5-4c-1.1-0.9-1.7-0.6-2.2,0.6c-1,2.3-2.8,3.9-4.8,5.3c-0.9,0.6-1.9,1.2-2.6-0.4
			c-0.2-0.4-0.6-0.8-0.9-1.1c-0.6-0.6-1.3-0.7-1.7,0.2c-0.1,0.2-0.2,0.4-0.4,0.6c-1.2,1.8-1.4,1.8-2.8,0.3c-1.2-1.4-2.3-2.9-3.7-4.7
			c-0.1,1-0.2,1.8-0.4,2.5c-0.2,0.9-0.3,2.1-0.9,2.7c-2.5,2.2-3.2,3-5.1-0.4c-0.5-0.8-0.8-1.7-1.4-2.6c-0.7-1.1-1.6-1-2.1,0.2
			c-0.3,0.6-0.5,1.4-0.6,2c-0.3,3.8-1.9,7.1-4.2,10.1c-0.7,0.8-1.5,1.5-2.4,2.1c-1,0.7-1.7,1-2.4-0.7c-0.8-2-1.9-1.9-2.9-0.1
			c-1.5,2.6-2.4,5.5-3.4,8.3c-1.1,3.2-2.6,6.2-4.1,9.2c-0.3,0.6-0.9,1.2-1.5,1.6c-3.6,2.3-4.3,6.1-5.3,9.7c-0.8,2.9-1.7,5.8-3,8.5
			c-1,2.1-1.4,4.1-1.3,6.3c0.1,1.3,0.1,2.7,0,4c-0.1,1-0.3,2.3-1,3c-0.7,0.8-1.9,1.6-3,1.7c-1.4,0.2-1.4-1.4-1.8-2.3
			c-0.1-0.3-0.1-0.7-0.2-1.1c-0.3-0.8-1.2-1-1.7-0.4c-0.2,0.2-0.3,0.4-0.4,0.6c-2.2,4.9-6.1,8.6-9.2,12.9c-0.7,1-1.1,1.8-0.8,3
			c1,4.5,0.9,9.1-0.1,13.6c-0.4,1.9-1.2,3.5-2.8,4.8c-2.5,2-2.6,3.2-1.5,6.3c0.4,1,0.5,2.1,0.6,3.1c0.2,1.8,0.4,3.6,0.6,5.3
			c0.3,2.1-0.4,2.9-2.5,2.4c-0.5-0.1-1-0.1-1.4-0.2c-0.8-0.3-2-1.1-2.1-1c-0.8,0.8-1.4,1.9-1.9,3c-1.2,2.5-2.2,5-3.4,7.5
			c-0.1,0.3-0.3,0.7-0.5,1c-1,1.5-2.3,1.5-2.9-0.1c-0.9-2.5-2.1-4.9-2-7.6c0-0.8-0.1-1.6-0.2-2.8c-1.8,0.8-2.5,2.1-3.3,3.4
			c-0.5,1-0.9,2-1.5,2.9c-0.8,1.3-2,1.3-2.9,0.2c-0.3-0.4-0.5-0.8-0.8-1.2c-0.9-1.2-1.5-1.2-2.3,0.2c-1.2,1.9-2.2,3.8-3.5,5.6
			c-0.8,1.1-1.7,2-2.8,2.9c-1.1,0.9-1.9,0.7-2.5-0.7c-0.3-0.8-0.5-1.6-0.5-2.4c0-1.3,0.2-2.6,0.2-4c0-0.7-0.2-1.3-0.4-2
			c-0.5,0.4-1.1,0.7-1.6,1.1c-0.6,0.6-1.3,1.1-1.7,1.8c-0.6,0.9-1.3,1.2-2.1,0.8c-0.5-0.3-0.7-1.1-0.9-1.7c-0.2-0.5-0.4-1.1-0.6-1.6
			c-0.5,0.3-1.1,0.4-1.5,0.8c-3.6,4.4-8.6,7.2-13.2,10.3c-0.5,0.3-1,0.8-1.5,0.9c-0.5,0.1-1.2-0.2-1.5-0.6c-0.3-0.3-0.3-1.2,0-1.6
			c0.7-0.9,1.6-1.7,2.4-2.6c2-2.1,4.6-3.7,4.8-7.1c-4.3,0.1-8.4,1.1-12.4,2.5c-2.1,0.8-3.6,1.7-4.7,3.8c-1.1,2-3,3.7-4.9,5.2
			c-0.9,0.7-2.6,1.1-3.7,0.8c-3.2-0.8-6.1-0.1-9.1,1c-1.1,0.4-1.6,1.1-1.8,2c-0.6,2.3-0.2,4.3,1.5,6c3.9,3.8,6.2,8.6,7.2,13.8
			c0.5,2.7,0.4,5.5,0.4,8.3c0,1.1-0.9,1.4-1.8,1c-1.7-0.8-3.4-1.8-5.1-2.7c-0.4-0.2-0.9-0.3-1.3-0.5c-0.2,0.5-0.6,1.1-0.4,1.6
			c0.4,1.6,0.7,3.4,1.5,4.8c1.7,2.8,1.3,5.8,1.3,8.8c0,1.1-0.8,1.5-1.7,0.7c-2.4-2-4.6-4.2-6.8-6.4c-1.4-1.3-1.9-1.4-2.3,0.4
			c-0.4,1.6-0.4,3.3-0.7,5c-0.1,0.5-0.5,0.9-0.8,1.4c-0.3-0.3-0.6-0.7-0.8-1c-1.5-3.4-2.9-6.9-4.3-10.3c-0.2-0.6-0.5-1.1-0.8-1.6
			c-0.1-0.2-0.5-0.4-0.5-0.4c-0.3,0.2-0.6,0.4-0.7,0.7c-0.1,0.7,0,1.5-0.1,2.2c-0.3,1.6-1.3,2.2-2.9,1.9c-2.2-0.5-3.4-1.9-3.7-4.3
			c-0.2-1.7-0.7-3.3-0.7-5c-0.1-6.1,1.6-11.8,5-16.9c1.6-2.5,3-5.2,4.6-7.7c0.6-0.9,1.3-1.8,2-2.5c1.8-1.7,3.8-3.3,4.4-5.9
			c0.1-0.5,0.7-1,1.1-1.4c2.8-3,5.6-6,8.4-8.9c1.1-1.1,2.3-2.2,3.6-3c1.3-0.8,1.7-1.7,1.1-3c-0.7-1.4,0.2-2,0.9-2.7
			c2.7-2.8,6.5-4,9.7-6c2.9-1.8,5.9-3.5,8.8-5.4c1-0.7,1.9-0.9,3.4-0.5c-3.9,3.6-7.5,6.9-12.2,8.8c-1,0.4-1.8,1.2-2.7,1.8
			c-0.6,0.5-1.1,1.1-1.6,1.7c1.1,0.9,1.7-0.6,2.4-0.6c3.3,0.1,5.1-3,8.2-3.5c1-0.2,2.1-1.3,2.6-2.3c1.8-3.3,5.1-4.4,8-6.2
			c0.7-0.4,1.4-0.8,2.1-1.1c1.6-0.7,2.9-2.1,4.8-2c0.1,0,0.3-0.3,0.3-0.5c0-0.2-0.2-0.5-0.4-0.5c-1.7,0-3.6-0.6-5,0
			c-2.7,1.2-5.7,1.1-8.4,2.1c-2.8,1-5.6,2.1-8.4,3.1c-0.9,0.3-1.8,0.6-2.8,0.6c-0.5,0-1.3-0.3-1.4-0.6c-0.1-0.4,0.2-1.2,0.5-1.5
			c2-1.3,4-2.7,6.1-3.8c3.7-1.9,7.4-3.8,11.2-5.5c1.9-0.9,4-1.7,6-1.9c3.3-0.4,5.9-1.8,7.8-4.4c0.3-0.4,0.4-1,0.6-1.5
			c-0.5-0.1-1.1-0.3-1.6-0.4c-0.2,0-0.4,0.2-0.7,0.3c-3.7,0.2-7.4,0.6-10.5,3c-0.7,0.6-1.8-0.3-1.6-1.2c0.2-0.9,0.5-1.9,1-2.6
			c1.2-1.8,2.6-3.4,3.9-5.1c0.3-0.4,0.8-0.8,1.3-1.1c2.7-1.3,5.3-2.6,8.3-3.1c5.2-0.8,9.3-4.2,13.3-7.4c0.1-0.1,0.2-0.5,0.1-0.6
			c-0.1-0.2-0.4-0.3-0.6-0.3c-0.3,0-0.7,0-1.1,0.2c-0.8,0.3-1.8,0.8-2.2-0.2c-0.3-0.8-0.3-2.2,0.2-2.7c1.3-1.3,2-3.2,4.4-3.4
			c1.3-0.1,2.5-1.4,3.7-2.1c2.6-1.5,4.9-3.4,8.1-3.7c1.4-0.2,2.7-1.2,4.5-2c-1.1-0.3-2-0.3-2.5-0.8c-0.7-0.5-1.3-1.3-1.5-2.2
			c-0.1-0.3,0.8-1,1.3-1.5c0.3-0.2,0.6-0.4,1-0.5c1.5-0.6,1.2-0.7,2-2.2c0.9-1.9,2-3.9,3.7-5.1c2.9-2.1,6.2-3.6,9.8-4.3
			c2.6-0.5,3.9-1.7,5-4.2c2.1-4.5,4.3-9.1,8.1-12.5c0.3-0.3,0.4-0.8,0.7-1.3c-2.2,0.2-4.3,0.3-6.4,0.5c-1.3,0.1-2-0.6-2.5-1.7
			c-0.5-1.3,0.5-1.8,1.2-2.3c3-2.2,6.1-4.2,8.9-6.6c1.2-1,1.8-2.8,3.7-3c0.2,0,0.4-0.9,0.4-1.3c-0.2-2.4,0.4-4.5,1.6-6.5
			c0.8-1.3,0.9-2.5-0.7-3.3c-0.9-0.4-0.9-1.1-0.3-1.7c0.5-0.5,1-1,1.5-1.6c1.8-1.8,1.8-2.2,0.2-4.2c-1.9-2.5-3.9-4.9-5.9-7.3
			c-0.4-0.5-0.9-0.9-1.4-1.1c-1.5-0.7-1.8-1.7-1.1-3.2c0.8-1.8-0.1-2.9-1.6-4c-1.9-1.3-3.5-2.9-5.5-4.1c-1.5-0.9-1.8-1.8-1.6-3.5
			c0.4-3.3-1.6-5.6-4.6-5.6c-1,0-1.5,0.3-1.7,1.4c-0.6,2.8-1.6,5.5-2.1,8.3c-0.4,2-2.6,1.6-3.3,3c-0.2,0.3-0.9,0.4-1.3,0.4
			c-1.3,0.1-2,2.3-3.4,1.2c-1-0.7-1.4-2.2-2.1-3.2c-0.2-0.3-0.4-0.5-0.9-1.1c-0.7,1.3-1.3,2.4-2,3.5c-1.4,2.2-1.9,2.4-4.3,1.7
			c-0.6-0.2-1.1-0.5-1.7-0.6c-1.9-0.3-3.9-0.4-5.2,1.5c-0.3,0.4-0.6,0.8-1,1c-1.1,0.7-2.3,0.1-2.4-1.1c-0.1-2.1-0.1-4.1,0-6.2
			c0-1.4-0.2-2.6-1.3-3.6c-1-0.9-1.8-1.4-3.2-0.8c-2.3,1-4.7,1.8-7,2.7c-0.1,0-0.2,0.2-0.3,0.2c-1.4,0.6-3.7,0.5-4.1-0.3
			c-0.6-1.5,0.3-2.5,1.3-3.5c0.8-0.8,1.5-1.6,2.1-2.4c1.8-2.3,1.9-3.1,0.1-5.3c-0.7-0.9-1.7-1.7-2.8-2.9c-2,2.2-3.8,4.3-5.6,6.4
			c-1,1.1-2,2.2-3,3.1c-1,1-2.1,0.7-2.5-0.6c-0.1-0.2-0.1-0.5-0.1-0.7c0.4-4.3-0.8-8.3-1.4-12.5c1.2,0,2.4,0,3.6,0
			c-0.1,1-0.4,2.1-0.4,3.1c-0.1,1.9-0.2,3.8-0.1,5.7c0,0.6,0.4,1.5,1.4,0.5c2.5-2.7,5-5.3,7.5-8c0.3-0.3,0.3-0.9,0.4-1.3
			c2.2,0,4.4,0,6.5,0c-0.3,0.6-0.6,1.3-0.8,1.9c-0.2,0.8-0.5,1.6-0.6,2.4c-0.1,1.4,0.7,2.3,1.9,2.8c1.1,0.5,2,0,2.8-0.9
			c1-1.1,2.3-2,3.5-3c1.1-0.9,2.4-1.5,2.7-3.1c1,0,1.9,0,2.9,0c0,0.2,0,0.6-0.1,0.7c-2.4,2.3-2.9,5-2,8c0.1,0.4,0.4,0.8,0.5,1.2
			c0.4-0.2,1-0.3,1.2-0.6c1.9-2.9,3.9-5.7,4-9.3c1,0,1.9,0,2.9,0c0.1,2,0.1,4,1.1,6c0.7,1.5,1.3,3.6,0.8,5.2
			c-0.9,3.4,0.8,7.4-2.4,10.3c-0.1,0.1,0.1,0.7,0.3,0.8c0.3,0.1,0.8,0.1,1,0c0.3-0.2,0.4-0.6,0.5-0.9c2.2-4.5,4.4-9,6.4-13.6
			c0.5-1.2,0.6-2.5,0.7-3.8c0-0.2-0.3-0.6-0.5-0.8c-0.1-0.1-0.5,0.1-0.6,0.2c-0.9,1.1-1.6,3-3,2.5c-0.9-0.3-1.1-2.4-1.5-3.8
			c-0.2-0.7-0.1-1.4-0.1-2.2c2.9,0,5.8,0,8.7,0c0.1,1.3-0.1,2.7,0.3,3.9c0.9,2.9,1.4,5.8,1.2,8.8c-0.1,0.9,0.1,1.6,1.3,1.7
			c1.3,0.1,1.7-0.8,1.9-1.7c0.1-0.5-0.3-1.1-0.4-1.7c-0.1-3.7-0.1-4,3.3-3.8c0.4,0,0.7,0,1.1,0c1.2,0,1.3-0.5,1-1.6
			c-0.5-1.8-0.7-3.7-1-5.6c2.2,0,4.4,0,6.5,0c-0.4,1.6-0.8,3.2-1.4,4.8c-0.9,2.6,0.3,4.4,2.9,3.8c1.5-0.3,3.2-1.1,4.2-2.3
			c1.4-1.7,2.4-3.9,2.2-6.3c1,0,1.9,0,2.9,0c-0.3,1-0.7,2-1,2.9c-0.1,0.3-0.2,0.9-0.1,0.9c0.4,0.2,1.1,0.5,1.3,0.3
			c1.4-1.3,3.5-2.1,4.2-4.2c2.2,0,4.4,0,6.5,0c-0.4,1.6-0.8,3.2-1.3,4.8c-1.1,3.4-2.4,6.7-3.5,10.1c-0.3,0.8,0.3,1.1,1,1
			c0.5-0.1,1.1-0.5,1.5-0.9c1.4-1.3,2.8-2.7,4.1-4.1c2.9-3.1,4.2-6.8,4.8-10.9c2.7,0,5.3,0,8,0c0.1,1.8-0.1,3.6,0.3,5.4
			c0.4,1.6,0.6,3,0,4.5c-0.2,0.4,0.1,1.3,0.4,1.5c0.4,0.2,1.2,0.2,1.7-0.1c0.9-0.5,1.6-1.5,2.5-2c2.4-1.4,2.6-3.5,2.3-5.9
			c-0.2-1.2-0.4-2.3-0.6-3.5c1,0,1.9,0,2.9,0c0.2,0.3,0.3,0.6,0.5,1c0.1-0.3,0.1-0.6,0.2-1c2.4,0,4.8,0,7.3,0
			c-0.1,2.5-1.9,3.5-3.8,4.3c-1.3,0.5-2.2,1.3-2.9,2.5c-0.8,1.4-1.2,3.1-3.1,3.8c-0.6,0.2-1,1.6-1.1,2.5c-0.2,1.3,0,2.7,0,4
			c0,3.2,0,3.1,2.8,1.8c1.2-0.6,2.5-0.9,3.8-1.1c1.5-0.3,2.4-1.1,2.5-2.6c0.2-2.7,1.3-5.1,2.4-7.5c1.1-2.6,2.2-5.2,5-6.7
			c0.2-0.1,0.2-0.7,0.3-1c1.2,0,2.4,0,3.6,0c1.7,2,3.5,3.9,4.9,6.1c1.7,2.6,3.3,5.3,1.9,8.7c-0.4,1.1-0.2,2.4-0.3,4
			c4.1-3.2,3.8-7.5,5-11.4c0.1-0.4-0.1-1-0.3-1.4c-1.1-2-2.2-4-3.2-6c1.2,0,2.4,0,3.6,0c0.3,1.7,1,3.1,2.7,4.2
			c0.6-1.5,1.2-2.8,1.7-4.2c6.3,0,12.6,0,18.9,0c-0.1,2.9,1.6,5.3,2.4,7.9c0.4,1.3,2.5,1.1,3.2-0.3c1.2-2.5,2.1-5.1,3.2-7.6
			c1,0,1.9,0,2.9,0c-0.8,2.3-1.3,4.7-2.9,6.7c-0.9,1.1-1.1,2.6-1.7,3.9c-0.6,1.2-0.3,1.9,0.6,2.8c1.2,1.1,2.4,2.2,2.6,4.1
			c0.1,0.9,0.9,1.8,1.4,2.7c0.9-0.7,2-1.2,2.7-2.1c0.5-0.7,0.8-1.8,0.8-2.7c-0.2-2.6-0.1-5.4-1-7.7c-1-2.6-1.1-5.1-1.1-7.7
			c1,0,1.9,0,2.9,0c1.2,6.3,3.5,12,7.6,17.3c1.1-2.1,2.1-3.9,2.9-5.7c1-2.4,0.5-3.4-1.9-4.3C352.5,6,351.1,4,351,0c1,0,1.9,0,2.9,0
			c0.1,0.3,0.2,1,0.3,1c2,0.1,4,0.1,5.9,0c0.1,0,0.2-0.6,0.3-1c1,0,1.9,0,2.9,0c-0.2,4.2,2.6,7.4,3.7,11.4c0.2-3.1,2.3-3.8,4.5-4.8
			c2.5-1.1,4.1-2.9,3.5-5.9c0-0.2,0-0.5,0-0.7c1.9,0,3.9,0,5.8,0c1,3.1,1.9,6.2,3,9.2c0.3,0.8,1,1.4,1.5,2.1c0.4-0.8,1-1.7,1.1-2.5
			c0.1-0.6-0.3-1.4-0.4-2.1c-0.3-2.2-0.6-4.5-0.9-6.7c1,0,1.9,0,2.9,0c0.4,0.9-0.7,2.2,0.9,2.7c-0.1-0.9-0.1-1.8-0.2-2.7
			c1.2,0,2.4,0,3.6,0c0,1.8,0,3.6,0.1,5.4c0.1,0.9,0.4,1.8,0.8,2.7c0.1,0.3,0.8,0.6,1.2,0.5c1.6-0.3,2.4-2.3,1.6-3.8
			c-0.8-1.6-1.5-3.2-2.2-4.8c1.2,0,2.4,0,3.6,0c1.7,3.5,3.5,6.9,5.1,10.5c0.4,0.8,0.8,1.1,1.6,1.1c1,0,1.2-0.6,1.2-1.4
			c-0.1-2.9,0.1-5.7,1.3-8.5c0.2-0.4-0.3-1.1-0.5-1.7c1.5,0,2.9,0,4.4,0c-0.5,2.2-0.8,4.6,0.2,6.6c1.6,3.3,2.8,6.5,3.2,10.2
			c0.3,3.1,1.1,6.1,1.7,9.2c0.1,0.5,0.3,0.9,0.4,1.3c0.5-0.2,1.1-0.3,1.6-0.7c1.5-1.1,2.9-2.4,4.5-3.5c1.3-0.9,1.6-1.3,0.5-2.4
			c-2.1-2.2-4.2-4.3-4.4-7.6c0-0.3-0.3-0.7-0.5-1C414.9,8.6,414.1,4,412,0c1.5,0,2.9,0,4.4,0c1.6,4.7,1.9,4.8,6.1,2.7
			c1-0.5,1.9-0.9,2.8-1.5c0.3-0.2,0.4-0.8,0.6-1.2c1.9,0,3.9,0,5.8,0c0.8,2.8,1.8,5.6,3.7,7.9c1.1,1.4,2.3,2.7,3.5,4
			c0.4,0.5,1.2,1.1,1.6,1c0.7-0.2,1.6-0.8,1.7-1.4c0.2-1.4,0.2-2.8,0-4.2c-0.3-2.5-0.7-4.9-1.1-7.4c1.2,0,2.4,0,3.6,0
			c0,2.4,0.1,4.8,0.1,7.2c0,1.3,0.8,1.6,1.9,1.5c2.1-0.1,4-2.6,3.6-4.8c-0.2-1.3-0.3-2.6-0.5-3.9c1.5,0,2.9,0,4.4,0
			c-0.4,0.6-0.9,1.1-1.2,1.8c-0.7,1.2-0.4,3.9,0.7,5c1.3,1.2,2.1-0.3,3.1-0.8c0.2-0.1,0.5-0.1,0.7-0.2c1.5-1.8,4.3-2.7,4-5.7
			C463.9,0,466.3,0,468.7,0z M350.3,578.4c-0.4,0.3-0.8,0.6-1.2,0.9c0.1,0.1,0.2,0.2,0.2,0.3C349.7,579.2,350,578.8,350.3,578.4
			c0.1,0,0.2-0.1,0.3-0.1c0.1,0,0.1-0.1,0.1-0.2C350.5,578.2,350.4,578.3,350.3,578.4z M465.1,549.4c-1.4-0.2-2.5,0.4-3.2,1.6
			c-0.1,0.2-0.1,0.7,0,0.9c0.2,0.2,0.7,0.3,0.9,0.2C464.2,551.7,465,550.8,465.1,549.4c0.3,0,0.7,0,1-0.1c0.3-0.2,0.6-0.5,0.9-0.7
			c-0.5-0.1-1-0.4-1.4-0.3C465.3,548.3,465.2,549,465.1,549.4z M501.4,569.7c2.2-2,4.4-3.9,6.6-5.9c0.2-0.2,0.2-0.6,0.3-0.9
			c-0.3-0.1-0.7-0.3-0.9-0.1C504.6,564.4,502.1,566.2,501.4,569.7c-0.7,0.4-1.5,0.7-1.1,1.8c0,0.1,0.2,0.1,0.3,0.2
			C500.9,571,501.1,570.4,501.4,569.7z M133.7,191.8c1.5-1.3,3-2.3,5.2-2.5c1.8-0.1,3.7-0.8,5.3-2c1-0.8,1.3-1.7,1-2.9
			c-0.2-0.7-0.6-1.4-1.6-0.9c-2.4,1.2-4.8,2.5-7.3,3.6C134.3,188.2,133.5,189.7,133.7,191.8c-1.9,0-1.5,1.9-2.3,2.8
			c-1.6,1.9-2.6,4-0.7,6.5c0.3,0.4,0.3,1.2,0.4,2.2c0.4-1.8,0.8-3.2,1.1-4.6C132.7,196.5,133.2,194.2,133.7,191.8z M218.7,107.6
			c-1.7,0-2.8,1.9-4.7,1.5c-0.9-0.2-6.2,1.8-7.2,2.4c-2.2,1.3-4.4,2.5-7.3,4.2c3.5,0.8,6.3,0.5,9.1,0.4c1.2-1.9,2.7-0.7,4.1-0.6
			c1.8,0.2,3.7,1,5.5-0.4c0.6-0.4,1.6-0.2,2.5-0.4c0.7-0.1,1.4-0.4,2-0.7c0.3-0.2,0.5-0.7,0.7-1.1c-0.5-0.3-1-0.8-1.4-0.8
			c-1.1,0-2.1,0.5-3.1,0.6c-1.6,0-2.4-1.2-1.7-2.7C217.6,109.1,218.2,108.3,218.7,107.6c0.3,0,0.7,0.1,1-0.1
			c0.3-0.2,0.6-0.5,0.9-0.8c-0.5-0.1-1-0.4-1.4-0.3C219,106.5,218.9,107.1,218.7,107.6z M250,4.4c-0.5,0.3-1.1,0.4-1.5,0.8
			c-2.1,2.3-4.9,3.7-7.8,4.8c-4,1.5-4.5,1.9-5.1,5.7c-0.1,0.5,0.1,1.2,0.4,1.6c1,1,2.2,1.8,3.2,2.7c1.6,1.3,2,1.3,3.6-0.2
			C247.6,15.6,248.9,10.1,250,4.4c0.2-0.2,0.4-0.5,0.6-0.7c-0.1-0.1-0.3-0.2-0.4-0.2C250.1,3.7,250.1,4,250,4.4z M335.2,571.2
			c4.2-4.2,8.3-8.2,12.3-12.2c0.5-0.5,1.1-1.2,1.1-1.8c0.2-2.6,2-4,3.8-5.3c1.1-0.9,2.9-1.7,3.1-2.8c0.4-2.1,2.7-2.6,3.1-4.5
			c0.1-0.4,0.9-0.8,1.4-1c0.4-0.2,0.8,0,1.3,0c0,0.4,0.1,1,0,1.3c-1.1,2.1-2.2,4.3-3.6,6.2c-0.9,1.2-1.6,2.6-3.3,3.2
			c-0.9,0.3-1.8,1.4-2.1,2.3c-1.5,3.9-4.3,6.6-7.1,9.5c-1.4,1.4-3,2.9-4.7,3.7c-1.1,0.5-1.7,1-2.5,1.8c-1.8,2-3.5,4.1-5.8,5.7
			c-4.1,3-8.7,4.9-13.2,7c-2,1-4.3,1.6-6.1,2.8c-3.7,2.6-7.4,5.4-10.2,9c-1.2,1.5-2.4,2.5-4.3,3c-1.6,0.4-3.2,1.1-4.5,2.2
			c-2,1.7-3.7,3.7-5.6,5.5c-0.6,0.7-0.6,1.6,0.1,1.8c3.2,1,6.1,3.1,9.8,0.8c3.5-2.1,3.8-1.6,7.7-1.8c4.5-0.2,9.2,1.1,13.4-1.4
			c0.2-0.1,0.5,0,0.7,0c2.3-0.5,4.7-1,7-1.6c0.6-0.2,1.3-0.8,1.6-1.4c1.6-2.7,3.1-5.5,4.7-8.3c1.7-2.9,3.5-5.7,5.3-8.6
			c0.1-0.1,0.2-0.2,0.3-0.2c4.1-2.5,4.3-6.2,3.5-10.3c-0.2-0.8-0.4-1.7-0.3-2.5c0.2-2.1,1-3.4,2-3.4c1.8-0.1,1.9,1.5,2.5,2.6
			c0.6,1,1,2.1,1.4,3.1c1-0.5,2.1-1,3.1-1.6c0.8-0.5,1.6-1.1,2.4-1.6c0.9-0.5,1.9-0.9,2.9-1.4c1.1-0.5,1.7-0.2,1.6,1
			c-0.2,2.5-1.4,4.6-2.8,6.4c-1,1.3-2.4,2.3-3.8,3.1c-2.2,1.3-2.3,3.2-1.9,5.3c0.2,1.1,0.4,2.1,0.5,3.2c0.2,0.9,0.3,1.9,0.4,2.8
			c0.8-0.4,1.7-0.8,2.5-1.2c0.3-0.2,0.7-0.3,0.9-0.6c1.3-1.3,3-1,4.5-0.7c0.6,0.1,1.3,1,1.6,1.7c0.4,1-0.6,1-1.2,1.3
			c-0.5,0.2-1,0.6-1.4,1.1c-0.3,0.3-0.3,0.8-0.4,1.2c0.4,0.1,0.9,0.3,1.3,0.3c0.5,0,1-0.2,1.3-0.5c1.1-1.1,2.4-0.9,3.7-1
			c1.9,0,3.9,0,5.8,0c0.8,0,1.7,0,2.5-0.3c1.9-0.8,3.7-1.7,5.5-2.6c0.5-0.2,1.1-0.6,1.3-1.1c2.2-3.6,5.6-6.2,8.5-9.2
			c1.6-1.6,3.2-3.5,2.5-5.9c-0.9-2.9-2.3-5.7-3.6-8.5c-0.4-1-1.3-1.7-1.9-2.6c-0.6-1.1-0.3-1.6,0.9-2.2c1.1-0.5,1.9,0.1,2.6,0.7
			c3,2.4,6,4.8,8.8,7.4c1.2,1.1,1.9,1,3.3,0.1c2.7-1.7,5.2-4.1,8.8-3.5c0.9,0.2,1.9,0.5,2.4,1.2c0.8,1-0.2,2-0.8,2.9
			c-0.4,0.5-1,0.7-1.4,1.1c-2.5,1.8-5,3.7-7.4,5.5c-1.6,1.3-2,2.1-1.3,3.7c1.5,3.7,1.9,7.7,2.6,11.5c0.2,0.9,0.4,1.4,1.3,1.8
			c2.5,1.1,5,2.2,6.6,4.6c0.3,0.4,0.7,0.8,1.1,0.9c2.6,0.5,5,2.3,7.9,1.8c1.4-0.3,2.9-0.2,4.3,0c2.1,0.2,4.7,0.6,5.6,2.6
			c1.1,2.3,2.4,3.4,4.9,3.2c0.5,0,1,0.1,1.4,0.3c3.2,1.8,6.6,0.9,10,1.1c0.7,0,1.2-0.5,0.8-1.2c-0.6-1-1-2.4-1.9-2.9
			c-1.3-0.6-1.7-1.6-2.2-2.7c-1-2.3-2-4.6-2.7-7c-1.4-4.8-2.5-9.7-3.9-14.6c-0.4-1.2-1-2.5-1.9-3.4c-4.7-4.9-9.6-9.7-14.4-14.6
			c-2.8-2.9-5.9-5.6-8.1-9c-0.5-0.8-1-1.6-1.4-2.5c-0.1-0.4,0-1.1,0.2-1.3c0.5-0.3,1.2-0.4,1.7-0.2c0.5,0.2,0.8,0.8,1.2,1.3
			c1.2,1.8,2.2,3.8,3.5,5.4c2.2,2.7,4.6,5.3,8.4,5.6c1.1,0.1,2.1,0.4,3.2,0.6c2.4,0.5,4.4,2.7,3.9,4.8c-0.8,3,1.1,4.5,2.6,6.3
			c0.5,0.6,1.1,0.4,1.3-0.3c0.5-1.8,0.9-3.7,1.4-5.5c0.3-1.3,0.6-2.6,1.2-3.7c0.5-1,1.9-0.7,2.2,0.4c0.2,0.7,0.2,1.4,0.3,2.1
			c0.3,3.1,0.5,6.2,0.8,9.3c0.1,1.2,0.9,1.3,1.8,0.9c0.3-0.1,0.6-0.5,0.9-0.6c1.7-0.7,3.8-1,5.2-2.2c2.1-1.8,3.6-0.4,5.4,0.1
			c0.3,0.1,0.7,0,1.1,0c1,0,1.9,0,2.9,0.1c1.4,0.2,2.1,1.5,1.1,2.5c-0.7,0.8-1.6,1.7-2.5,1.8c-4.4,0.4-7.7,2.5-10.7,5.8
			c-2,2.1-3.3,4.6-5.1,7c1.8,0.4,3.4,0.7,5-0.2c3.2-1.8,6.8-2.3,10.4-2.4c1.7,0,3.4-0.1,5.1,0c1.6,0.1,2.2-0.9,2.5-2.1
			c0.2-0.6,0.2-1.2,0.1-1.8c-0.7-5.3,1.6-9.9,3.2-14.7c0.2-0.7,0.6-1.3,1.1-1.9c0.6-0.7,1.3-0.7,1.8,0c1,1.4,1.6,2.9,0.8,4.7
			c-1.1,2.6-1.4,5.3-0.5,8.1c0.2,0.5,0,1.2-0.1,1.7c-0.8,2.7-0.1,5,1.6,7.2c0.6-0.5,1.1-1.2,1.7-1.2c3.1-0.1,6.3-0.7,9.3,0.5
			c2.5,1.1,5,2.3,7.6,3c2.9,0.8,5.8,2.2,9.1,0.8c1.4-0.6,3.2-0.4,4.9,0.5c1.7,1,3.8,1.4,6,2.1c-0.7-2.3-1.3-4.2-1.9-6.2
			c-0.9-2.8-1.6-5.8-2.9-8.4c-1.6-3.3-4.8-5.3-8-6.8c-3.7-1.8-7.9-2.7-11-5.5c-0.3-0.3-0.9-0.4-1.3-0.4c-2.2,0.1-3.6-1.5-4.6-3
			c-1.9-2.6-4-4.3-7.3-4.4c-0.4,0-1.1-0.2-1.3-0.5c-1.3-1.7-3.3-2.3-5.2-2.9c-2.5-0.8-4.9-1.7-7.5-2.3c-1.2-0.3-2.3-0.3-3.3-1.1
			c-2.1-1.5-4.3-2.9-6.6-4.1c-3.2-1.8-5.7-4.7-9.7-5.1c-0.5-0.1-0.9-0.7-1.4-1c-1-0.6-2-1.2-3-1.9c-3-2-5-4.8-6.1-8.2
			c-0.3-1-0.7-2.6,0.7-3.2c0.4-0.2,1.4,1,2.1,1.6c0.3,0.3,0.6,0.6,1,1c0.5-0.9,0.8-1.6,1.3-2.1c0.4-0.4,1.3-0.8,1.7-0.6
			c0.5,0.2,0.9,1,1.1,1.6c0.1,0.4-0.3,0.9-0.4,1.4c-0.7,2.6,0.2,5.8,2.9,7.1c1.8,0.9,3.6,1.9,5.3,3c3.3,2.1,6.5,4.4,9.9,6.4
			c0.9,0.6,2.3,0.6,3.4,0.5c0.6-0.1,1-1.1,1.6-1.7c0.4-0.4,0.8-0.9,1.2-1.3c3-2.8,7.3-2.3,10.7-4.1c0.2-0.1,0.5,0,0.7,0.1
			c1.4,0.5,1.8,0,1.3-1.3c-0.3-0.8-0.5-1.6-0.8-2.4c-2.2-5.6-2.9-11.4-1.6-17.3c0.5-2.2,1.2-4.4,1.5-6.7c0.4-3.3,0.6-6.7,0.8-10.1
			c0.3-5.1,0.5-10.1,0.8-15.2c0-0.7,0.1-1.4,0.2-2.1c0.4-3,1.1-5.9,1.1-8.9c-0.1-8.2-0.4-16.4-0.7-24.6c0-0.6-0.3-1.2-0.3-1.8
			c-0.1-3.7-0.6-7.5,0-11.2c0.5-2.9,1-5.6,1-8.5c0-1.1,0.1-2.2,0.3-3.2c0.4-3,0.8-5.9,1.2-8.9c0.1-1.1,0.3-2.1,0.5-3.2
			c0.3-2.5,0.6-5,1-7.5c0.2-1.4,0.4-2.8,0.5-4.3c0.3-2.4,0.6-4.8,0.9-7.1c0.3-3.1,0.5-6.2,0.9-9.3c0.2-2.1,0.4-4.3,1-6.4
			c0.7-2.7,1.1-5.4,1.1-8.2c0-1.3,0.4-2.6,0.5-3.9c0.3-2.9,0.7-5.7,0.9-8.6c0.5-10.3-0.5-20.5,0.7-30.8c0.8-6.7,0.6-13.5,0.8-20.2
			c0.2-6.3-0.1-12.5,0.6-18.8c0.8-6.8,0.6-13.7,0.9-20.6c0.1-2,0.4-4,0.7-6.1c0.2-2.1,0.7-4.3,0.7-6.4c-0.3-19.2,0.6-38.4-0.5-57.7
			c-0.6-9.9,0-19.8-0.9-29.7c-0.3-2.9-0.3-5.8-0.8-8.6c-0.6-4-1.3-8-2.2-12c-0.6-2.8-1.6-5.5-2.4-8.2c-0.3-0.9-0.5-1.9-0.4-2.8
			c0.5-4.9-1.3-9.5-1.8-14.3c-0.5-5.2-2.9-10-5.1-14.7c-2-4.5-4.4-8.8-6.6-13.3c-0.9-1.9-1.9-3.8-2.5-5.8c-0.8-2.3-0.9-4.9-1.9-7.1
			c-1.5-3.2-1.8-6.7-2.4-10.1c-1-6-2.6-11.5-6.4-16.4c-2.6-3.3-5.2-6.3-8.7-8.7c-3.6-2.4-7-5.4-8.4-10c-0.6-1.9-1.4-3.8-2.4-5.6
			c-0.7-1.4-1.7-2.6-2.6-3.9c-0.7-0.9-2.6-1.1-3.2-0.4c-0.6,0.9-0.4,1.7,0.4,2.5c1.8,1.7,1.4,4,1.3,6.1c0,0.3-0.2,0.7-0.5,0.9
			c-2.4,1.5-4.8,3.1-7.3,4.4c-1.6,0.8-4.6,0.2-4.9-0.9c-0.5-1.5-1.4-3-0.7-4.9c0.7-1.8,0.8-3.7,1.1-5.6c0.2-1.2-0.6-2.1-1.6-2.6
			c-0.5-0.2-1.3,0.3-1.8,0.6c-2.1,1-2.8,0.8-3.8-1.3c-0.2-0.5-0.7-0.9-1.1-1.1c-2.2-1.1-4.4-2.1-6.6-3.3c-1.2-0.7-2.2-1.9-1.5-3.3
			c0.9-1.7,0.2-3.1-0.3-4.5c-0.7-1.9-1.7-3.7-2.7-5.5c-0.9-1.6-1.6-1.8-3.3-1.3c-0.7,0.2-1.4,0.4-2,0.8c-2.9,1.6-2.9,1.6-5.5-0.9
			c-0.2,0.3-0.3,0.7-0.5,1c-2.4,3.6-4.2,3.7-7,0.5c-0.6-0.7-0.9-1.6-1.3-2.5c-0.4-0.9-0.6-1.8-1.1-2.7c-0.8-1.7-1.1-1.7-2.3-0.5
			c-1.2,1.1-2.2,2.2-4,2.2c-0.5,0-0.9,0.7-1.4,1c-2.1,1.5-2.8,3.8-3.8,6c-0.4,0.9-1,1.7-2.2,1.5c-1.1-0.2-1.7-0.8-1.9-1.9
			c-0.3-1.4-0.5-2.8-0.7-4.2c-0.2-1.2-0.5-2.5-0.7-3.7c-0.6,1.4-0.5,2.8-1.1,3.9c-1.5,3.3-3.1,6.4-4.8,9.6c-1.3,2.5-2.1,2.5-3.6,0.1
			c-0.3-0.5-0.5-1.1-0.8-1.6c-0.2-0.4-0.4-0.9-0.7-1.3c-0.5-0.5-1.1-0.9-1.6-1.3c-0.3,0.5-0.7,0.9-1,1.4c-1.1,1.6-1.8,3.5-3.2,4.5
			c-1.1,0.8-1.3,1.5-1.3,2.6c0,1.1,0.1,2.2,0.3,3.2c0.5,2.5-0.1,4.2-2.1,5.6c-2.8,2-5.4,1-6.2-2.3c-0.1-0.6,0-1.2-0.2-1.8
			c-0.5-1.9-0.8-3.8-2.5-5.1c-0.6,3.6-1.2,7.1-2,10.6c-0.2,0.9-0.6,1.9-1.9,1.9c-1.5,0-1.8-1-2.1-2.1c-0.2-0.6-0.2-1.2-0.3-1.9
			c-0.6,0.4-1.2,0.7-1.7,1.1c-0.7,0.6-1.3,1.4-1.8,2.1c-0.9,1.4-1.6,3-2.6,4.3c-1.1,1.3-2.5,1-3.1-0.6c-0.6-1.5-1.1-3.2-1.6-4.8
			c-0.1-0.3-0.3-0.6-0.5-0.9c-0.3,0.3-0.7,0.6-0.8,1c-0.4,5.2-3.6,8.6-7.6,11.4c-0.6,0.4-1.9,0.4-2.6,0c-1.4-0.7-2.5-1.7-3-3.4
			c-0.6-2.1-1.2-4.2-2.1-6.1c-1-2.2-1.4-2.3-3.9-1.8c-1.9,0.4-3.7-0.2-5.4-0.7c-0.4-0.1-0.8,0-1.3,0c0.1,0.4,0.2,0.9,0.4,1.2
			c0.4,0.4,0.9,0.9,1.4,1c4.6,1.5,7.5,4.8,9.5,9c0.9,1.9,2.2,3.8,3.8,5c1.5,1.1,3,2.1,4.6,3.2c6.4,4.3,11.2,10.3,16.8,15.5
			c1.1,1,1.8,2.5,2.7,3.8c2.3,3.2,4.2,6.7,6.8,9.5c3.6,3.8,5.7,8.3,7.5,13.1c1.5,4,4,7.5,7.2,10.2c1.9,1.7,3.3,3.4,4.2,5.7
			c1.4,3.5,2.6,7.2,4,10.7c0.5,1.2,1,2.5,1.8,3.5c2.1,2.7,4.1,5.4,5.3,8.7c1.3,3.6,3,7,3.5,10.9c0.1,0.9,0.3,1.6,1.3,1.8
			c1.3,0.3,1.4,1.3,1.6,2.5c0.6,3.6,1.4,7.3,2.2,10.9c0.1,0.3,0.3,0.6,0.5,0.9c2.2,3.1,3.8,6.7,4.4,10.3c0.9,5.3,1.1,10.7,1.6,16.1
			c0.2,2.3,0.6,4.5,0.9,6.8c0.1,0.8,0.4,1.6,0.6,2.5c0.6,3.7,1,7.4,1.8,11c1.5,6.1,2.6,12.2,2.5,18.5c0,1.3-0.1,2.7,0.1,4
			c0.6,5,1.2,10,2.1,14.9c0.8,4.2,0.6,8.4,0.7,12.6c0,1.7,0,3.4,0,5.1c0,0.8,0.1,1.7-0.2,2.5c-1.1,3.5-1.3,7.1-1.3,10.7
			c0,2.1-0.3,4.3-0.6,6.4c-1,6.9-2.6,13.7-2.3,20.7c0.1,1.1,0,2.2-0.4,3.2c-0.9,2.8-1.1,5.7-1.1,8.6c0,3.1-0.4,6.2-0.5,9.4
			c-0.2,4.8-2.7,9.3-2.5,14.2c0,0.7-0.5,1.3-0.6,2c-0.3,1.6-0.7,3.3-0.8,4.9c-0.1,1.7-1.8,2.7-1.5,4.6c0.2,1.2-0.4,2.5-0.7,3.8
			c-0.2,0.7-0.5,1.4-0.6,2.1c-0.6,3.7-1.1,7.3-1.6,11c-0.5,3.8-1.2,7.6-1.3,11.4c-0.1,7.6,0.1,15.2,0.5,22.8
			c0.5,9.9-0.3,19.8-0.6,29.7c0,0.5,0,1-0.1,1.4c-1.8,5.8-2,12-4.1,17.8c-0.5,1.4-0.6,3-0.8,4.6c-0.4,2.4-0.7,4.7-1,7.1
			c-0.4,3.1-1,6.2-1.1,9.3c-0.1,2.8-0.4,5.5-1.1,8.2c-0.2,0.7-0.3,1.4-0.4,2.1c-0.8,4.5-1.5,9-2.3,13.5c-0.2,1.3-0.7,2.6-0.5,3.9
			c0.6,6-1.3,11.7-1.8,17.6c-0.4,4.2-1.2,8.3-1.2,12.5c0,1.1-0.2,2.2-0.5,3.2c-1.5,4.1-3.1,8.1-4.7,12.1c-0.3,0.8-0.7,1.9-1.3,2
			c-2,0.5-2.6,2.4-3.2,3.6c-0.7,1.5-1.8,2.3-2.9,3.3c-3,2.7-6.3,4.7-10.5,4.9c-1.6,0.1-2.8,1.2-2.9,2.2
			C332.5,565,332.8,568.2,335.2,571.2z M287.6,581.2c0.8,0.1,1.9-0.1,2.6,0.4c2.3,1.5,4.9,1.2,7.4,1.2c2.8,0,5.6,0,8.3,0
			c0.8,0,2-0.2,2.4,0.3c1.8,1.7,3.6,0.8,5.4,0.2c2-0.7,4-1.3,5.9-2.3c1.4-0.8,3.4-1.8,2.9-3.7c-0.8-3-2-5.9-3.3-8.7
			c-0.4-0.9-1.2-1.5-0.4-2.4c0.8-1,1.9-0.9,2.9-0.3c0.3,0.2,0.5,0.6,0.7,0.8c3.6,2.1,3.6,2.1,5.8-1.5c0.3-0.4,0.5-0.9,0.9-1.1
			c0.9-0.6,1.1-1.5,0.6-2.2c-0.3-0.5-1.2-0.6-1.8-0.7c-3.7-0.8-6.9,1.8-10.5,1.7c-0.2,0-0.5,0.6-0.8,0.7c-3.6,1.4-6.7,3.8-10.4,5.1
			c-1.5,0.5-3.3,1.4-4.7,2.9C297.5,575.5,292.5,578.3,287.6,581.2z M294.4,2.8c-2.1,2.6-3.6,5-4.6,7.9c-1.3,3.7-1.4,7.5-2.5,11.2
			c-0.3,1.1,0.3,2.6,0.7,3.8c0.3,1,1.3,1.4,2.4,1.1c2-0.6,3.7-1.9,5.6-2.8c2.9-1.4,3.4-3.6,3.5-6.4c0-1.4,0-2.9,0.4-4.3
			c0.6-1.9,0.2-3.2-1.1-4.6c-0.7-0.7-1-1.6-1.6-2.4C296.3,5.2,295.4,4.1,294.4,2.8z M265.4,40.1c-0.8,1.4-1.3,1.9-1.5,2.6
			c-0.6,2.8-2.3,4.9-4.2,6.9c-0.9,1-1.9,1.8-2.6,2.9c-1.6,2.1-2.9,4.4-2.7,7.2c0.1,2.6,0.4,5.3-1.6,7.5c-0.3,0.3-0.4,0.9-0.5,1.3
			c0,0.3,0.2,0.7,0.4,0.9c0.3,0.2,0.7,0.2,1,0.1c0.3-0.1,0.5-0.5,0.8-0.7c3-3.1,6-6.2,8.9-9.4c0.5-0.6,0.9-1.5,1-2.3
			c0.6-3,1.2-6.1,1.4-9.2C266,45.7,266.3,43.3,265.4,40.1z M313.3,24.4C313.3,24.4,313.2,24.4,313.3,24.4c-0.1-1-0.2-2-0.1-2.9
			c0.2-1.7-0.7-2.6-2-3.5c-0.7-0.5-1.2-0.5-1.7,0.3c-1.4,2.2-2.6,4.5-2.8,7.3c-0.3,3.8-0.9,7.6-1.3,11.4c-0.2,1.8-0.2,3.6,0,5.4
			c0,0.6,0.6,1.4,1.2,1.6c0.9,0.5,1.6-0.1,2.1-0.9c0.5-0.7,0.9-1.6,1.5-2c1.3-0.8,1.7-1.9,1.8-3.3C312.4,33.5,312.9,29,313.3,24.4z
			 M268.9,43.5C268.9,43.5,268.9,43.5,268.9,43.5c0,3.5-0.1,7,0,10.5c0,1.3,0.4,2.6,0.9,3.8c0.6,1.3,1.9,1.3,2.4-0.1
			c0.7-1.9,1.1-3.9,1.6-5.9c0.9-3.3,0.2-7,1.9-10.2c0.4-0.7,0.1-1.9-0.3-2.7c-0.7-1.5-1.7-2.9-2.6-4.2c-0.9-1.2-1.5-2.4-0.9-4
			c0.2-0.4-0.1-1-0.2-1.5c-0.7,0.1-1.8,0.1-1.9,0.4c-0.5,1-0.9,2.3-0.9,3.4C268.8,36.5,268.9,40,268.9,43.5z M329,28.8
			c1.6-2.4,2.3-4.8,2.4-7.5c0.1-3.6-0.5-7.2,0.5-10.8c0.3-0.9-0.5-2.3-1.2-3.2c-1.3-1.7-3.3-2.6-5.2-3.6c-1.2-0.6-1.5-0.3-1.7,0.6
			c-0.2,0.9-0.1,1.9-0.1,2.8c0,0.9,0.5,2.1,0.1,2.7c-1.5,2.3-0.6,4.5,0.5,6.4c1.5,2.7,2.3,5.7,3.3,8.6
			C327.9,26.2,328.5,27.5,329,28.8z M266.2,20.2c-3.5,3.9-6.6,7.3-9.7,10.8c-0.5,0.6-1.1,1.3-1.3,2.1c-0.4,2.3-0.6,4.6-0.8,7
			c-0.1,1.2,0.6,1.2,1.7,0.9c4.3-1.2,6.3-4.9,8.9-7.9c0.8-1,1.4-2.3,1.8-3.5C267.7,26.5,267.9,23.5,266.2,20.2z M176.1,134.7
			c1.9,0.1,3.7,0.9,5.5-0.5c0.4-0.3,1.3,0,2,0c2.9,0.3,5.6,0,8.1-1.8c3.2-2.3,6.8-4.2,9.4-7.4c0.5-0.6,1.3-1.3,2.1-1.4
			c2.8-0.4,3.8-2.7,5.9-4.2c-4.8-1.5-7.4,2.8-11.1,3.4c-1.6,2.7-4.8,3.2-7.1,5c-2.5,1.8-5.3,2.5-8.3,2.9
			C180,131.2,177.9,132.4,176.1,134.7z M162.7,166.7c-3.8,0.4-7.7,2.2-10,6.6c-1.2,2.3-1.6,5-3.4,7c-0.3,0.3-0.3,0.9-0.3,1.4
			c0.1,0.4,0.4,1.1,0.6,1.1c0.5-0.1,1.2-0.3,1.4-0.7c2.4-5,6.7-7.1,11.8-7.9c2.1-0.3,5.2-3.1,5.6-5.1c0.3-1.4-0.4-2.4-1.8-2.5
			C165.6,166.7,164.6,166.7,162.7,166.7z M166.3,162.8c3.2,0,5.9-0.1,8.5-0.1c0.6,0,1.3,0,1.7-0.4c1.1-1,2.5-0.8,3.7-1.1
			c2.3-0.5,5.5,0.6,6.2-3.2c0.1-0.3,0.8-0.5,1.2-0.8c0.8-0.7,1.7-1.3,2.4-2.1c0.2-0.3,0.2-0.9,0.1-1.3c0-0.1-0.6-0.3-0.9-0.2
			c-1.9,0.1-3.8,0.5-5.7,0.5c-2.9-0.1-5.4,1-7.9,2.2c-3.2,1.5-6.1,3.6-9.1,5.5c-0.2,0.1-0.4,0.6-0.4,0.9
			C166.2,162.9,166.6,163,166.3,162.8z M241.8,94.4c0.2-0.1,0.9-0.1,1.3-0.4c3.1-2.3,6.1-4.5,9.1-6.9c1-0.8,1.8-1.9,2.8-2.8
			c0.9-0.8,1.1-1.6,0.4-2.5c-0.1-0.2-1.2,0.4-1.8,0.7c-2.2,1.2-2.4,1.1-3.8-1.3c-0.4-0.6-0.6-1.4-1.5-0.3c-0.3,0.3-0.8,0.4-1.2,0.6
			c-2.2,1.3-4.2,2.6-4.7,5.4c-0.4,2.1-1.5,4-2.2,6.1C239.8,94.1,240.1,94.5,241.8,94.4z M319.8,36.2c8.4-5.5,6.6-13,0.2-18.5
			c-1.3,3.4-3.9,6.4-3,10.3C317.5,30.8,318.8,33.4,319.8,36.2z M320.4,6.1c0-0.5,0.1-1.2,0-1.9c-0.2-1.8-1.2-2.3-2.7-1.2
			c-1.8,1.4-3.6,2.8-5.2,4.4c-1.6,1.6-2.5,3.6-2.2,5.9c0.1,0.5,0.7,1.2,1,1.2c1.9-0.1,2.7,0.9,3.5,2.5c0.8,1.6,1.8,1.6,2.6,0.1
			C319.3,13.7,320.6,10.2,320.4,6.1z M236.6,96c-2.9,2.3-2.9,2.4-1.8,5.1c1,2.2,0.8,4.4,0.3,6.7c-0.5,2.3-0.7,4.7-1,7.1
			c0,0.4,0.4,1.2,0.5,1.2c0.5,0,1.1-0.2,1.5-0.6c2.2-2.3,3.8-5.1,4.7-8.1c0.6-2.1,2.3-4,1.9-6.4c-0.3-1.8-1.1-2.6-2.8-2
			c-0.4,0.1-0.7,0.6-1.1,0.9c-1.2,0.7-1.7,0.4-1.9-0.9C236.8,98,236.7,97.1,236.6,96z M201.5,137c2.7-0.2,5.5-0.2,8.2-0.6
			c0.8-0.1,1.8-0.9,2.1-1.7c1-2.1,1.8-4.4,2.7-6.6c0.6-1.5-0.1-2.7-1.5-2.3c-2.5,0.8-5.3,1.4-7.4,3c-2.2,1.7-3.8,4.2-5.5,6.5
			C199.4,136.5,200,137.3,201.5,137z M218.9,148c-1.4,3.7-2.8,6.6-3.6,9.7c-0.7,2.7,0.1,5.6,1.9,7.8c1.4,1.6,3.3,2.7,5.1,4
			c0.8,0.6,1.6,0.3,1.4-0.6c-0.5-3.5-1-7.1-1.8-10.6C221.1,155.1,220,151.9,218.9,148z M193,184.7c1.6-1.4,6.9-9.2,7.4-10.7
			c1.1-3.3,2.4-6.5,3.4-9.8c0.2-0.7,0.3-2.1,0-2.3c-0.7-0.4-1.9-0.6-2.7-0.2c-0.9,0.4-1.6,1.4-2.1,2.3c-1.1,2.1-2,4.2-2.9,6.4
			C194.2,174.8,193.8,179.6,193,184.7z M267.4,7.8C267.4,7.8,267.3,7.8,267.4,7.8c0-1.6,0-3.1,0-4.7c0-0.5-0.5-1-0.7-1.5
			c-0.5,0.4-1.3,0.6-1.6,1.1c-0.7,1.5-1.3,3.1-1.9,4.7c-0.6,1.4-0.9,3.2-2,4.2c-2.7,2.5-2.6,5.5-2.4,8.7c0,0.5,0.4,1.3,0.8,1.4
			c0.5,0.1,1.2-0.2,1.6-0.5c1.5-1.5,2.9-3.1,4.2-4.8c1.4-1.8,2.4-3.9,2-6.3C267.3,9.2,267.4,8.5,267.4,7.8z M129.2,191.9
			c-0.7,0.3-1,0.3-1.2,0.6c-2.4,3.1-5.4,5.6-7,9.4c-1.1,2.8-2.8,5.3-4.1,7.9c-0.4,0.7-0.6,1.6-0.6,2.4c0.1,2.2-0.4,4.3-1.1,6.4
			c-0.8,2.4-0.7,4.5,1.6,6.3c1-3.9,1.7-7.8,2.9-11.6c1.2-3.6,1.9-7.4,3.7-10.9C125.3,199,128.3,196.2,129.2,191.9z M287.8,31.2
			c3.3,1.2,5.5,2.4,8.2,1.6c1.5-0.5,3,0.3,4.4,1.2c1.4,1,2.1,0.7,2.4-1c0.4-2.5,0.7-5,0.9-7.5c0.1-0.8-0.5-1.7-0.8-2.6
			c-0.9,0.3-1.8,0.5-2.6,0.9c-0.5,0.3-0.8,0.9-1.3,1.2c-2.2,1.4-4.4,2.7-6.6,4C291.1,29.8,289.8,30.3,287.8,31.2z M266.6,69.5
			c0-0.3,0-0.6-0.1-0.8c-0.7-1.1-1.2-2.8-2.1-3.1c-0.9-0.3-2.3,0.9-3.3,1.7c-0.7,0.5-1.1,1.8-1.9,2.1c-3.4,1.4-5,3.8-5.1,7.4
			c0,0.5-0.1,1.2,0.2,1.5c0.6,0.7,1.6,0.7,2.2,0c1.5-1.6,3.6-2.2,5.5-3.2C264.4,74.1,265.9,72,266.6,69.5z M226.9,135.1
			c2.2-2.1,5.3-2.7,6.1-5.8c0.1-0.3,0.4-0.6,0.7-0.8c1.6-0.8,2.1-2.5,3-3.9c0.9-1.5,1.9-3,2.9-4.5c0.5-0.8,1.2-1.6,0.4-2.6
			c-0.3-0.4-0.6-0.7-1-0.9c-0.1,0-0.5,0.4-0.7,0.7c-1.4,2.5-3.5,4.1-6.3,4.9c-0.4,0.1-1,0.3-1.2,0.7
			C228.6,126.5,226.3,130.1,226.9,135.1z M237.2,84c1.6-0.9,3.1-1.7,4.6-2.6c1.9-1.1,3.9-2.1,5.7-3.4c0.6-0.4,1-1.5,1-2.2
			c0-2.2,0-4.3,1.2-6.3c0.1-0.2,0-0.7-0.2-0.9c-0.2-0.2-0.8-0.3-1-0.1c-1,0.6-2,1.3-2.9,2.1c-3.1,2.8-5.7,6-7.9,9.6
			C236.9,81.4,236.7,82.5,237.2,84z M276.7,53.7c-1.1,3.1-2,5.9-3,8.7c-0.3,0.6-1,1.3-1.7,1.5c-0.9,0.3-1.5-0.4-1.9-1.3
			c-0.4-0.8-0.7-1.5-1.2-2.2c-0.2-0.3-0.5-0.4-0.8-0.6c-0.2,0.3-0.5,0.5-0.5,0.8c-0.6,2.8,0.5,5.2,2,7.4c0.8,1.1,1.3,3.2,2.7,2.9
			c1.2-0.3,2.1-2,3.1-3.2c0.2-0.2,0.2-0.4,0.3-0.7c0.9-2.8,1.9-5.7,2.6-8.5C278.6,57,278.5,55.2,276.7,53.7z M240,87.2
			c-1.5,0.1-2.6-0.1-3.5,0.3c-1.6,0.7-3.1,1.6-4.6,2.5c-2.9,1.7-6.3,1.7-9.3,3c-1.6,0.6-2.7,1.3-3,3c-0.1,0.3,0.6,0.7,0.9,1
			c1.5-1.9,3.6-1,5.4-1.1c3.2-0.2,3.2-0.1,6-1.6c0.7-0.4,1.4-1,2.2-1.3c1-0.4,4.5-3.2,5-4.1C239.3,88.6,239.5,88.2,240,87.2z
			 M218.7,142.5c0.3-1,0.8-1.7,0.7-2.3c-0.1-1.4,0.4-2.3,1.4-3.2c3.8-3.2,3.7-8.2,5.8-12.2c0.1-0.2-0.1-0.8-0.3-0.9
			c-0.2-0.1-0.7-0.1-1,0.1c-1.8,1.1-3.4,2.8-5.8,2.6c-0.2,0-0.5,0.2-0.6,0.3c-2,2-3.4,4.2-3.4,7.2c0.9-0.6,1.5-1.4,2.3-2.1
			c0.6-0.5,1.2-1,1.9-1.4c0.3-0.2,0.8-0.2,0.9-0.1c0.2,0.2,0.3,0.7,0.2,1c-0.5,1.1-0.8,2.4-1.7,3.2
			C216.5,137,217.1,139.4,218.7,142.5z M198.4,146.1c1.5,0.7,2.6,1.3,3.8,1.8c1.5,0.5,3.1,0.8,4.5-0.3c1.1-0.8,2.2-1.5,3-2.5
			c0.7-0.8,1.4-1.1,2.4-1.2c3.2-0.2,3.4-0.6,2.2-3.6c-0.3-0.7-0.6-1.2-1.6-1c-1.7,0.3-3.4,0.2-5,0.4c-0.7,0.1-1.7,0.2-1.9,0.6
			C204.2,143.3,201.2,144.3,198.4,146.1z M212.9,121.4c1.4,0.7,2.5,1.3,3.7,1.7c2.8,1.1,5.1-0.2,7.4-1.7c1.2-0.7,2.2-1.8,3.5-2.3
			c2.6-1,3.9-2.8,4.2-5.4c0.1-0.5-0.1-1.4-0.5-1.6c-0.3-0.2-1.2-0.1-1.6,0.3c-1,0.8-1.9,1.8-2.9,2.7c-1.6,1.6-3.5,2.5-5.8,3
			C218.3,118.8,215.2,118.8,212.9,121.4z M135.5,202.9c-0.7,2.3-1.4,3.8-1.7,5.4c-0.9,5,3.8,9.5,7,11.3c0.3,0.2,1,0.3,1.2,0.1
			c0.3-0.3,0.4-0.9,0.3-1.3C141,213.2,139.3,208.1,135.5,202.9z M172.2,186c0.5-0.3,1-0.6,1.4-1c2.7-2.8,5.4-5.7,8.1-8.5
			c1.2-1.3,2.6-2.4,3.8-3.8c1.5-1.6,1.6-3.4,0.4-4.9c-0.3-0.3-1.2-0.6-1.5-0.4c-1.4,1-3.1,2-4,3.4c-2,2.9-4,6-5.4,9.3
			C174.2,182.1,173.1,183.8,172.2,186z M480.9,559.2c-0.2-0.4-0.2-0.7-0.3-0.9c-1.1-2.5-2.1-5-3.5-7.3c-0.9-1.4,0.7-3.9-1.5-4.3
			c-1.4-0.3-2.8,1.6-4.6,1.4c-0.4,0-1.3,0.8-1.4,1.4c-0.1,0.8,0.1,2.3,0.6,2.5c1.2,0.5,1.6,1.4,2.1,2.3c1.7,2.6,4.4,3.8,6.9,5.1
			C479.6,559.6,480.3,559.3,480.9,559.2z M278.1,44.3c-0.6,2.3-0.8,4.2,0.4,6c2,3.2,4.1,6.4,6.3,9.5c0.2,0.4,0.6,0.6,1,0.9
			c0.2-0.4,0.6-0.8,0.6-1.2c-0.2-2.3-0.4-4.5-0.7-6.8c-0.2-2.5-0.5-4.9-0.7-7.6c-0.4,0.3-0.6,0.3-0.6,0.4c-0.1,0.2-0.2,0.4-0.3,0.6
			c-1.4,2.2-2,2.3-3.7,0.5C279.5,46.1,278.9,45.3,278.1,44.3z M421.4,40.1c0.3,0.5,0.6,1.3,1.2,1.7c0.3,0.2,1.2-0.4,1.8-0.7
			c0.9-0.6,1.7-1.4,2.6-1.8c2.3-1,2.8-1.6,1.6-3.6c-1.5-2.6-2.7-5.3-3.5-8.2c-0.1-0.5-0.9-1.2-1.4-1.2c-0.5,0-1.3,0.5-1.6,1
			c-0.3,0.5-0.3,1.4-0.1,1.9c1.2,2.2,1.2,4.3,0.3,6.6C421.8,37.1,421.7,38.4,421.4,40.1z M227.4,146.8
			C227.4,146.8,227.4,146.8,227.4,146.8c0-1.9,0-3.8,0-5.8c0-1.1-0.5-1.5-1.6-1.5c-0.5,0-1,0-1.4,0c-1.9,0.1-1.9,0.1-2,2.1
			c-0.2,4,0.8,7.8,1.6,11.6c0.2,0.9,0.5,2.2,1.6,2c0.7-0.1,1.3-1.2,1.7-2c0.3-0.5,0.1-1.2,0.1-1.8
			C227.4,150,227.4,148.4,227.4,146.8z M150.8,171.6c-2.4,0-4.8-1.2-6.1,2.4c-0.5,1.4-2.7,2.2-4,3.3c-2.3,1.9-4.1,4-5.9,7.3
			c3.9-1.8,7.1-3.2,10.2-4.9c1.6-0.9,3-2.1,3.7-4.1C149.2,174.3,150.1,173.1,150.8,171.6z M284.8,29.4c0.1,0,0.2-0.1,0.4-0.1
			c-0.6-1.9-1.4-3.8-1.7-5.7c-0.2-1.4-0.9-1.7-2.1-1.8c-1.4-0.1-2.2,0.6-3,1.5c-1.1,1.3-1.6,2.9-1.4,4.6c0.1,1.7,1.2,2.4,2.7,2.9
			c1.2,0.4,2.4,0.9,3.6,1.4c1.2,0.5,1.5,0,1.6-1C284.8,30.6,284.8,30,284.8,29.4z M127.3,202.1c-4.6,8.1-6.1,16-1.1,24.9
			c0.1-1.1,0.2-1.5,0.3-2c0.1-4.9-0.4-9.9,0.7-14.8c0.3-1.2,0.4-2.3,0.6-3.5C127.8,205.2,128.2,203.7,127.3,202.1z M204.5,5.6
			c-0.9,1.3-1.5,2.1-2.1,3c-0.8,1.3-1.4,2.8-2.4,4c-2.4,2.9-1,5.7-0.1,8.5c0.1,0.2,0.9,0.5,1.1,0.3c2.3-1.7,4.3-3.9,4.4-6.8
			C205.6,11.9,204.9,9,204.5,5.6z M203.7,158.7c1.7-0.7,2.9-1.2,4.3-1.7c3.4-1.3,5.4-4,7-7.2c0.7-1.4-0.3-2.5-1.8-2.1
			c-1.1,0.3-2.1,0.9-3.2,1.4c-3.6,1.6-4.6,5.3-6.5,8.2C203.3,157.5,203.6,158.1,203.7,158.7z M425.7,6.5c0.6,2.4,1.1,4.9,1.8,7.3
			c0.1,0.5,0.8,0.9,1.3,1.1c2,0.8,4.7-1.5,4.5-3.6c-0.3-2.5-1.4-4.5-3.1-6.3c-0.9-1-1.4-1.3-2.7-0.8C426.3,4.6,425.7,5.2,425.7,6.5z
			 M174.8,147.6c0,0.2,0.1,0.4,0.1,0.7c1.4-0.1,3,0.2,4.2-0.4c3.1-1.3,6.1-3,9.1-4.5c2.3-1.2,2.9-3.3,3.4-5.6c0.1-0.4-0.2-1-0.5-1.3
			c-0.3-0.2-1-0.2-1.2,0c-1.2,1.3-3,1.7-3.9,3.4c-1.5,2.6-3.5,4.6-6.6,5.5C177.9,146,176.4,146.9,174.8,147.6z M179.3,151.1
			c2.6,0,4.5-0.2,6.2,0.1c2.3,0.4,4.2-0.6,5.7-1.7c3.4-2.7,6.4-5.9,9.8-9c-4.2,0.4-6.4,4.4-10.5,5.3
			C186.8,146.5,183.5,149,179.3,151.1z M434.5,21.2c0-0.6,0-1.2,0-1.8c-0.1-2-0.7-2.4-2.3-1.3c-1.3,0.9-2.3,0.9-3.7,0.4
			c-1.1-0.4-2,0.4-1.7,1.4c0.6,1.9,1.3,3.8,2.2,5.6c0.2,0.4,1,0.6,1.5,0.6C433.5,26.2,434.5,24.9,434.5,21.2z M296.6,48.7
			c0,2.7,2,8.3,3.3,9.9c0.4,0.5,0.7,1,1.1,1.4c0.2,0.2,0.9,0,1.1-0.2c0.3-0.3,0.3-0.9,0.6-1.3c1.5-2.3,1.4-3.2-0.3-5.2
			c-1.2-1.4-2.2-3-3.4-4.5c-0.5-0.7-1.2-1.3-1.8-1.9C296.9,47.6,296.6,48.5,296.6,48.7z M406.8,18.1c0.1,0,0.1,0,0.2,0
			c0,1.3-0.1,2.7,0,4c0.2,1.3,2,2.7,3.1,2.5c1.2-0.2,1.7-1.2,1.4-3.1c-0.1-1.1-0.1-2.2-0.3-3.2c-0.4-1.9-0.8-3.7-1.3-5.6
			c-0.1-0.4-0.8-1-1.2-1c-0.4,0-1.1,0.6-1.2,1C407.2,14.6,407,16.4,406.8,18.1z M222.4,108.6c3.5,1,5.5-0.8,7.8-2.3
			c2.4-1.6,2.5-3.6,2.2-5.9c-0.1-0.7-0.7-1.4-1.1-2.1c-0.8,0.6-1.7,1.1-2.5,1.7c-0.3,0.3-0.4,0.9-0.5,1.3c-0.6,2-1.8,3.5-3.2,4.9
			C224.2,107,223.4,107.7,222.4,108.6z M135.9,232.7c0.6-2.5,0.6-2.5-0.4-4.3c-1.2-2.2-2.3-4.5-2-7.2c0.1-0.7-0.2-1.4-0.5-2
			c-0.7-1.3-1.6-2.5-2.4-3.8c-0.4,1.6-1.4,3.2-1.1,4.7C130.3,224.8,132.7,228.8,135.9,232.7z M341.5,27.7c0.1,0,0.2,0,0.2-0.1
			c-0.3-1.1-0.4-2.4-0.9-3.4c-1.1-2.6-2.4-5.1-3.6-7.7c-0.4-0.8,0-2.3-1.5-1.7c-0.5,0.2-0.6,1.6-0.7,2.5c-0.1,0.6,0.2,1.2,0.4,1.7
			c0.6,1.9,1.1,3.9,1.8,5.8c0.6,1.7,1.4,3.3,2.1,4.9c0.2,0.3,0.9,0.8,1.1,0.7c0.4-0.3,0.8-0.8,1-1.2
			C341.6,28.7,341.5,28.2,341.5,27.7z M245.4,103.5c-0.4,0.2-0.8,0.3-0.8,0.5c-0.4,2.8-1.5,5.3-2.9,7.7c-0.7,1.3-0.4,2.5,0.2,3.8
			c0.9,1.8,1.6,3.8,2.4,5.6c0.1,0.3,0.4,0.5,0.6,0.7c0.2-0.3,0.5-0.5,0.6-0.8c0.2-1.4,0.9-2.9,0.5-4.2c-0.8-3.4-0.3-6.7-0.5-10.1
			C245.5,105.7,245.5,104.6,245.4,103.5z M250.3,93c-0.3,0.2-1.2,0.7-2,1.2c-0.8,0.5-1.4,1.3-2.2,1.8c-1,0.6-0.8,1.2-0.5,2.1
			c0.8,2.1,3.3,3.3,3.1,5.9c0,0.1,0.3,0.4,0.5,0.4c0.2,0,0.5-0.2,0.5-0.3c1-2.9,2.1-5.8,3-8.7C253.2,93.8,252.6,93.1,250.3,93z
			 M441.2,588.9c0.7-4.6,3.8-6.7,6.2-8.8c2.4-2.1,6.1-2.8,9.8-4.4c-2.2,0-4.1-0.5-5.4,0.1c-4,1.7-8.3,2.8-10.8,7
			C439.6,585.2,439.3,585.4,441.2,588.9z M203.4,175.8c0.2,0.4,0.5,0.8,0.8,1.3c0.3-0.3,0.7-0.6,0.9-1c2-4.4,3.9-8.7,5.8-13.1
			c0.4-0.9-0.1-2.9-0.7-2.8c-0.8,0.2-1.9,0.8-2.1,1.5c-1.6,4-2.9,8.1-4.3,12.1C203.6,174.4,203.6,175,203.4,175.8z M255.4,17.5
			c-2.9,2-3.8,4.8-4.8,7.6c-0.5,1.4,1.1,4,2.5,4.3c1,0.2,2.5-0.9,2.6-2.5C255.9,23.9,256.1,20.8,255.4,17.5z M238.6,67.9
			c0.1,0.1,0.2,0.3,0.2,0.4c0.6-0.2,1.3-0.4,1.9-0.6c1.9-0.8,3.5-2.3,5.8-2.3c3.4-0.1,5.2-2.6,4.7-6c-0.1-0.9-0.8-1.2-1.5-0.6
			c-0.8,0.7-1.4,1.6-2.2,2.3c-2.4,1.7-4.8,3.3-7.2,4.9C239.8,66.4,239.3,67.2,238.6,67.9z M248.4,22.6c-0.3-0.3-0.4-0.6-0.6-0.7
			c-0.3,0-0.8-0.1-1,0.1c-1,1-2.1,2-3,3c-0.3,0.3-0.3,0.9-0.2,1.3c0.2,0.8,0.5,1.7,1,2.3c1.7,2.3,3.6,4.5,5.4,6.7
			c0.2,0.3,0.7,0.4,1.1,0.6c0.1-0.4,0.4-1,0.3-1.3c-0.9-1.9-1.5-3.9-3.1-5.5c-1.9-1.9-1.9-2.7-0.7-5.1
			C247.8,23.5,248.1,23,248.4,22.6z M250.1,53.3c0,0.1,0.1,0.7,0.4,0.9c0.2,0.2,0.9,0,1.2-0.3c1.7-1.6,3.8-2.8,4.7-5.2
			c0.3-0.9,1.4-1.6,2.1-2.4c0.6-0.7,1.6-2,1.4-2.1c-1.1-1.1-1.8,0.1-2.7,0.6c-0.4,0.2-0.9,0.3-1.3,0.5c-3.1,1.3-3.9,4.6-5.7,7
			C250,52.3,250.1,52.6,250.1,53.3z M288.9,46.5c-1,5.3,0.3,8.3,3,11.5c0.2,0.3,1.4,0.3,1.4,0.3c0.3-1.4,1.1-2.9,0.7-4.1
			C293,51.4,290.9,49.1,288.9,46.5z M293.2,47.8c1.8-4.2,1.6-4.9-1.7-7.1c-0.3-0.2-0.6-0.4-0.9-0.6c-2.5-1.6-3.9-1.2-5.2,1.2
			c-0.5,0.9-0.1,1.4,0.8,1.4C289.5,42.8,291.7,44.5,293.2,47.8z M214.9,180c0.6-0.9,1.4-1.8,1.6-2.7c0.2-1.3,0.5-2.4,1.4-3.5
			c1.2-1.6,0.7-2.5-1.1-3.7c-0.4-0.3-0.7-0.7-1.1-0.9c-1.1-0.7-1.9-0.5-2,0.8c-0.1,1.6-0.1,3.1,0,4.7
			C213.8,176.4,213.3,178.3,214.9,180z M255.9,90.9c0.7-0.6,1.5-1.1,2.1-1.8c0.6-0.7,1-1.6,1.5-2.4c1.3-2.2,2.4-4.6,3-7.1
			c0.1-0.3,0-0.6-0.1-0.9c-0.4,0.1-1,0.1-1.3,0.3c-0.4,0.4-0.6,1-0.9,1.5c-1.8,2.6-3.6,5.3-5.4,7.9c-0.3,0.4-0.6,0.8-0.9,1.3
			C254.5,90,255.1,90.4,255.9,90.9z M269.7,19c-0.4,3.5,1.3,5.1,2.8,6.7c0.3,0.3,1.1,0.1,1.6,0.2c0-0.4,0.1-0.9,0.1-1.3
			c-0.3-2.2-0.7-4.4-1.1-6.7c-0.1-0.6-0.5-1.2-0.7-1.8c-0.6,0.3-1.3,0.5-1.7,1C270.2,17.9,269.8,18.8,269.7,19z M192.1,165.2
			c0.9-0.4,1.6-0.6,2.2-1c2.4-1.5,3.5-4.1,5.3-6.2c0.1-0.1,0-0.6-0.1-0.6c-0.3-0.1-0.8-0.2-0.9-0.1c-2.1,1.7-4.4,2.8-7,3.5
			c-1.3,0.3-1.4,1.6-1.1,2.7C190.8,164.2,191.6,164.6,192.1,165.2z M276.9,34c0.9,2.3,1.7,4.5,2.7,6.7c0.2,0.4,0.6,0.8,1,1
			c0.3,0.1,1.1,0.1,1.2-0.1c0.6-1.7,1.2-3.4,1.6-5.1c0.2-0.8-0.2-1.4-1.1-1.5C280.6,34.7,278.9,34.4,276.9,34z M195.4,8.8
			c0,0.1-0.2-0.8-0.7-1.2c-0.3-0.2-1.3,0.2-1.8,0.6c-1.1,0.9-2.1,1.9-3.1,2.8c-0.9,0.8-1.8,1.5-2.7,2.2c-0.2,0.2-0.5,0.4-0.7,0.7
			c0.4,0.2,0.8,0.7,1.1,0.6c2.2-0.9,4.6-1.2,6.7-2.6C195,11.2,195.6,10.7,195.4,8.8z M424.4,14.6c-0.8-2.3-1.4-4.5-2.3-6.5
			c-0.2-0.4-1.2-0.7-1.8-0.6c-0.3,0-1,0.9-0.9,1.2c0.7,2.3,1.4,4.5,2.3,6.7c0.2,0.4,1.3,0.6,1.9,0.5C423.9,15.7,424.1,15,424.4,14.6
			z M330.5,548.9c-0.1-0.3-0.2-0.6-0.3-0.6c-0.3,0-0.7,0.1-0.9,0.2c-2.5,2.3-3.9,5.3-4.9,8.4c-0.3,0.8,0.4,1.1,1,1
			c0.6-0.1,1.5-0.5,1.7-0.9C328.3,554.3,329.4,551.6,330.5,548.9z M192.9,169.8c-0.6-0.6-1.1-1.4-1.7-1.6c-0.2-0.1-0.9,0.8-1.4,1.3
			c-0.1,0.1,0,0.2-0.1,0.3c-0.3,2.5-1.2,4.8-2.6,6.9c-0.3,0.4-0.5,0.8-0.6,1.3c0,0.2,0.6,0.8,0.7,0.7c0.5-0.2,1.3-0.5,1.4-0.9
			c0.4-1.7,1.4-2.9,2.5-4.2C191.9,172.5,192.2,171.2,192.9,169.8z M216.6,21.4c0.2-0.1,0.3-0.1,0.5-0.2c-0.2-1.7-0.5-3.5-0.5-5.2
			c0-1.8,0.4-3.5,0.6-5.3c0-0.2,0.1-0.5,0-0.7c-0.2-0.4-0.5-0.7-0.7-1.1c-0.2,0.2-0.6,0.4-0.7,0.7c-0.7,1.8-1.3,3.5-1.9,5.3
			c-0.1,0.3,0,0.7,0.2,1C214.9,17.8,215.8,19.6,216.6,21.4z M328.5,571.6c0.1,0.7,0,1.5,0.3,2.1c0.3,0.9,0.6,2,1.9,1.7
			c1.1-0.3,1.5-1.2,1.4-2.2c-0.1-1.2-0.4-2.3-0.8-3.4c-0.3-0.7-0.8-1.3-1.3-2c-0.4,0.7-0.8,1.3-1.1,2.1
			C328.6,570.4,328.6,571,328.5,571.6z M395.2,573c0-0.4,0-0.5,0-0.7c-0.2-1-3.8-4.4-4.8-4.6c-0.2,0-0.5,0.1-0.6,0.2
			c-0.5,0.5,0.9,4.7,2.1,5.5c0.7,0.5,1.8,0.4,2.7,0.4C394.9,573.8,395.1,573.2,395.2,573z M199.7,151.8c-0.2-0.3-0.3-0.7-0.5-0.8
			c-0.4-0.2-0.9-0.3-1.3-0.2c-2.3,1-4,2.6-5,4.9c-0.1,0.3-0.1,0.9,0,0.9c0.4,0.1,1,0.3,1.3,0.1c1.7-1.4,3.4-2.8,5.1-4.2
			C199.5,152.3,199.5,152,199.7,151.8z M439.3,571.6c-0.5,1.3-0.9,2.6-1.4,3.8c-0.7,1.8-0.7,3.5,0.3,5.1c0.2,0.3,0.8,0.7,1.1,0.6
			c0.3,0,0.9-0.6,0.9-0.9c-0.1-2.8-0.3-5.5-0.6-8.3C439.6,571.9,439.5,571.8,439.3,571.6z M440,17.5C440,17.5,440,17.5,440,17.5
			c-0.4,0-0.7-0.1-1.1,0c-1.2,0-1.5,0.6-0.9,1.6c0.2,0.3,0.3,0.7,0.5,1c0.5,1,1,2,2.4,1.7c1.2-0.2,0.9-1.3,1.1-2
			c0.1-0.3,0.2-0.7,0.4-1c0.3-0.8-0.1-1.1-0.8-1.2C440.9,17.5,440.5,17.5,440,17.5z M322.6,569.3c0.9,2.8,1.5,4.7,2.2,6.7
			c0.1,0.3,0.3,0.7,0.5,0.9c0.3,0.3,0.8,0.4,1.2,0.5c0.1,0,0.4-0.6,0.4-0.9C327.1,573.5,325.4,571.6,322.6,569.3z M387.4,590
			c1.4,0,2.5,0,3.5,0c1.1,0,1.5-0.5,1.4-1.5c0-0.4,0.1-0.7,0-1.1c-0.1-0.5-0.4-1.4-0.6-1.4c-0.6,0-1.5,0.2-1.9,0.6
			C389,587.5,388.3,588.6,387.4,590z M175,164.9c-0.7,0.3-1.1,0.4-1.6,0.6c-1.8,0.6-2.6,2.5-1.6,4.1c0.2,0.3,1.1,0.5,1.2,0.3
			c1-1.1,1.9-2.3,2.7-3.6C175.8,166,175.3,165.4,175,164.9z M220.4,103.2c1-0.5,2.6-1.3,4.1-2.1c0.3-0.2,0.2-0.8,0.3-1.2
			c-0.3-0.1-0.7-0.3-1-0.2c-1.8,0.7-3.5,1.5-5.2,2.3c-0.2,0.1-0.4,0.5-0.3,0.6c0.2,0.3,0.4,0.5,0.7,0.6
			C219.2,103.2,219.4,103.1,220.4,103.2z M492.6,557.8c-1.4,4.2,0.1,7.4,0.2,10.6c0,0.3,0.5,0.7,0.7,1c0.2-0.4,0.5-0.8,0.6-1.1
			c0.1-1.2,0.4-2.7-0.1-3.5C492.6,562.8,492.7,560.7,492.6,557.8z M198.4,131.6c-0.2-0.2-0.3-0.3-0.5-0.5c-1.1,0.9-2.1,1.8-3.2,2.7
			c-0.9,0.8-0.8,1.7-0.4,2.6c0.3,0.6,0.9,1,1.4,0.2C196.6,135,197.5,133.2,198.4,131.6z M183,164.1c-3.6,0.4-4.6,2.8-5,5.8
			C179.6,167.9,181.3,166,183,164.1z M157.4,179.8c2.6,0.7,4.2,0.2,5.5-1c0.2-0.2,0.4-0.7,0.3-0.9c-0.1-0.2-0.6-0.4-0.9-0.5
			C160.4,177.2,159.5,178.8,157.4,179.8z M354.9,593.5c-4.3,1.6-4.5,1.9-4.3,5.5C352.2,597,353.4,595.4,354.9,593.5z M427.8,565.3
			c-0.4,0.2-0.8,0.3-0.9,0.5c-0.1,0.2,0.1,0.7,0.2,1c0.2,0.3,0.4,0.7,0.7,0.8c0.6,0.2,1.3,0.2,1.9,0.4c-0.2-0.7-0.3-1.5-0.7-2.2
			C428.9,565.5,428.2,565.5,427.8,565.3z M146.7,189c1.8-0.2,3.2,0.4,4.1-1c0.3-0.5,0.3-1.2,0.4-1.8c-0.5,0.2-1,0.4-1.5,0.7
			C148.8,187.4,148,188,146.7,189z M339.5,601.6c0.3-0.5,0.7-0.9,1-1.4c1-1.8,0.9-3.4,0.3-3.1c-0.6,0.4-0.9,1.4-1.3,2.2
			c-0.3,0.5-0.4,1.1-0.6,1.7C338.9,601.1,339.2,601.3,339.5,601.6z M468.7,553.5c-1.2-0.6-1.7-1-2.2-1c-0.4,0-0.8,0.6-1.2,0.9
			c0.4,0.4,0.7,1,1.1,1C466.9,554.4,467.5,553.9,468.7,553.5z M221.1,19.3c-0.4-0.3-0.7-0.7-0.8-0.6c-0.3,0.2-0.6,0.4-0.6,0.7
			c0,0.2,0.2,0.5,0.4,0.8C220.4,19.9,220.7,19.6,221.1,19.3z M169.4,175.5c-0.6,0.8-0.9,1.1-1.1,1.4c0.3,0.1,0.6,0.3,0.9,0.2
			c0.3-0.1,0.6-0.4,0.6-0.6C169.8,176.3,169.6,176,169.4,175.5z M172.1,175c-0.2-0.1-0.4-0.2-0.6-0.1c-0.2,0.1-0.3,0.4-0.4,0.6
			c0.2,0.1,0.5,0.2,0.6,0.2C171.9,175.5,172,175.2,172.1,175z M506.2,573.3c-0.1-0.2-0.2-0.5-0.3-0.5c-0.2,0-0.4,0.1-0.5,0.2
			c-0.1,0.1,0,0.4,0,0.6C505.6,573.5,505.9,573.4,506.2,573.3z M510.6,560.5c0,0.1,0,0.2,0.1,0.2c0.1,0.1,0.2,0,0.3,0.1
			c0-0.1-0.1-0.3-0.1-0.4C510.8,560.5,510.7,560.5,510.6,560.5z M508.3,572.3c-0.1-0.1-0.1-0.2-0.2-0.2c-0.2,0-0.4,0.1-0.5,0.2
			c0.1,0.1,0.1,0.2,0.2,0.2C508,572.4,508.1,572.3,508.3,572.3z"/>
		<path d="M122.8,0c-0.2,2-0.5,4-0.7,6.1c-0.3,2.7-0.5,5.5-0.8,8.2c-0.1,1.1-0.6,1.9-1.9,0.9c-1.2-0.9-2.8-0.9-4.1-2
			c-1.6-1.4-2.5-1.1-4.1,0.3c-1.3,1.1-2.5,2.3-3.7,3.4c-0.5,0.5-1.2,0.9-1.8,1.1c-1.3,0.5-2.4-0.4-2.2-1.8c0.2-1.4,0.4-2.8,0.7-4.3
			c0.4-2.3-0.6-3.2-2.6-2.3c-1.8,0.8-3.8,0.8-5.5,2.2c-1.5,1.3-2.8,0.3-3-1.8c-0.2-2.5-0.5-5-0.8-7.5c-1.7,0.4-2.7,1.3-3.5,2.7
			c-1.4,2.5-3,4.9-4.4,7.4c-0.7,1.2-1.5,1.1-2.4,0.5c-1.3-1.1-2.4-2.3-2.1-4.3C80,7.5,80,6.3,79.8,5.1c-0.3-2-1.6-2.6-3.4-1.7
			c-1.2,0.6-2.3,1.3-3.5,1.8c-0.6,0.3-1.3,0.6-2,0.6c-3.9,0-6.3,2.1-8.5,5.1c-2.3,3-5.1,5.6-7.7,8.4c-0.5,0.5-1.1,0.9-1.7,1.1
			c-0.8,0.2-1.3,1.7-2.5,0.7c-0.9-0.8-1.5-1.8-1-2.9c0.8-1.9-0.1-3.5-0.5-5.2c-0.4-1.5-1.1-1.6-2.3-0.4c-0.9,0.8-1.7,1.7-1.6,3.1
			c0.5,5.9-1.3,11.7-1.5,17.6c-0.1,2-0.9,2.5-2.8,2c-1.3-0.3-2.5-0.6-3.2-2.1c-0.8-1.5-3.2-1.6-3.5-3.7c-0.5,0.1-1.2,0.2-1.4,0.5
			c-0.8,1.2-1.4,2.5-2.2,3.7c-0.4,0.7-1,1.3-1.5,2c-0.7,0.9-1.4,0.7-2.2,0.2c-2-1.2-3.1-3-3.6-5.2c-0.7-2.9-1.3-5.8-1.9-9
			c-0.9,0.9-1.6,1.7-2.5,2.3c-0.5,0.4-1.4,0.7-1.9,0.5C16.5,24.4,16,23.5,16,23c0-1.9,0.3-3.8,0.4-5.7c0.1-0.8,0-1.7,0-2.5
			c0-1.3,0-2.5,0.2-3.8c0.2-1.9-0.9-2.7-2.6-2.1c-0.3,0.1-0.7,0.3-0.9,0.6c-1.6,2.1-4.3,2.8-6.1,4.7c-1.8,1.9-4.2,3.1-6.4,4.6
			c-0.2,0.1-0.5,0.1-0.7,0.1C0,12.6,0,6.3,0,0c3.1,0,6.3,0,9.4,0c0.3,0.9,0.7,1.8,1.2,3.4c1-1.5,1.7-2.4,2.4-3.4c1.5,0,2.9,0,4.4,0
			c-0.2,0.4-0.3,0.9-0.5,1.3c-0.2,0.4-0.5,0.7-0.7,1.1c0.4,0.2,0.8,0.4,1.3,0.5c1.6,0.1,3.2-1.1,4.3-2.8c1.2,0,2.4,0,3.6,0
			c-1,2.4-2,3.4-4,4.5c-1,0.5-2.3,1.5-2.3,2.4c-0.3,3.6-0.3,7.3-0.1,11.2c3.2-1.6,5.6-3.3,6.7-6.3c1.4-3.9,2.7-7.8,4.1-11.8
			c1.7,0,3.4,0,5.1,0c-0.4,0.8-0.7,1.9-1.4,2.3c-3.1,1.9-3.3,4.8-2.9,7.9c0,0.5,0.6,1.2,0.9,1.3c0.6,0,1.5-0.2,1.8-0.6
			c2.8-3.6,5.4-7.2,8.1-10.8c1.2,0,2.4,0,3.6,0c-2,3.2-4,6.4-6.8,9.1c-1.4,1.3-2.1,3.2-1.8,5.3c0.1,0.5,0.4,1.3,0.7,1.4
			c0.4,0.1,1.1-0.1,1.6-0.5c1.7-1.2,3.4-2.6,5.1-3.9c0.5-0.4,1-0.7,1.3-1.2c2.2-3.4,5.3-6.2,6.4-10.3c1.2,0,2.4,0,3.6,0
			c-0.8,1.7-1.5,3.5-2.5,5.1c-1.9,3.1-2.1,6.2-0.7,9.5c0.4,1,1.1,1.9,2.1,1.1c2.9-2.3,5.8-4.5,5.4-9C59.3,2.8,59.6,2.8,61,0
			c1,0,1.9,0,2.9,0c-0.3,1.4-0.5,2.8-0.8,4.3c0.5,0,1.1,0.1,1.4-0.1c1.5-1.2,3.3-1.1,5-1.5C71.7,2.2,74,1.9,75.6,0
			c1.9,0,3.9,0,5.8,0c0,2,0,4.1,0.2,6.1c0,0.5,0.8,1,1.3,1.5c0.2,0.1,0.8,0,0.9-0.2C85.4,4.9,87,2.4,88.7,0c1.9,0,3.9,0,5.8,0
			c0.2,1.3,0.6,2.4,0.2,3.8c-0.5,1.4,0.5,3.1,1.4,3.3C99,8,101.4,6.2,104,5.6c0.2-1.4,0.4-2.8,0.6-4.1c0.1-0.5,0-1,0.1-1.4
			c0.7,0,1.5,0,2.2,0c-0.1,3.8-0.2,7.7-0.3,11.5c0,0.4,0,0.9,0.1,1.3c0.6,0,1.2,0.1,1.7-0.2c1.5-0.8,2.2-2.7,3.4-3.5
			c2.4-1.5,2.6-3.5,2.4-5.9c-0.1-1.1,0-2.2,0-3.2c0.7,0,1.5,0,2.2,0c-0.7,3.6,1.9,6.9,0.8,10.5c-0.1,0.2,0.5,0.9,0.8,0.9
			c0.4,0.1,1.1-0.2,1.2-0.5c0.4-1,0.8-2,0.8-3.1c0.1-2.6,0-5.3,0.1-7.9C120.9,0,121.8,0,122.8,0z M24.4,24.1c0.5,2.2,1,4.4,1.6,6.6
			c0.1,0.5,0.8,1.1,1.2,1.1c0.6-0.1,1.2-0.6,1.7-1.1c0.1-0.1,0.1-0.5,0.2-0.7c1.4-3.8,2.8-7.7,4.1-11.5c0.2-0.4,0.2-1,0.2-1.4
			c-0.1-0.6-0.4-1.4-1.1-0.7c-1.3,1.4-2.3,1.3-3.6-0.1c-0.9-0.9-2-0.3-2.3,0.7C25.7,19.4,24.1,21.5,24.4,24.1z M41.8,17.5
			c-2.2,1.6-4.1,2.9-6,4.3c-1.3,1-1.5,2-1.1,3.7c0.7,2.5,2.7,3.5,4.4,4.9c0.6,0.5,1.4,0,1.7-0.8C42.3,25.7,42.4,21.7,41.8,17.5z
			 M1.7,13.9c1.6-0.9,3-1.5,4.3-2.3c1.8-1,2.5-3.4,5-3.6c0.2,0,0.4-1.1,0.4-1.6c0-0.2-0.7-0.5-1.2-0.5c-0.5,0-0.9,0.2-1.4,0.2
			c-1.9,0.3-2.4-0.1-3-2c-0.1-0.5-0.2-1-0.4-1.4C5,2.4,4.6,2,4.1,1.6C3.8,2.1,3.2,2.4,3,2.9C2,6.3,1,9.6,1.7,13.9z"/>
		<path d="M160.6,0c0,0.2,0.1,0.6-0.1,0.7c-2.3,2.2-2.3,5.2-2.7,7.9c-0.5,4.2-1.7,8.2-3.2,12.1c-0.9,2.2-2,2.5-3.3,0.6
			c-2.2-3.4-5.7-3.1-8.3-0.9c-1.2,1-2.3,2.1-3.3,3.3c-1.2,1.3-1.7,1.4-2.6-0.2c-1.4-2.5-2.6-5.2-3.9-7.7c-0.6-1-1.3-2-2-2.9
			c-0.9-1.3-1.9-1.7-3.3-0.5c-0.5,0.4-1.2,0.7-1.9,0.8c-1.1,0.1-2-0.2-1.3-1.7c0.1-0.2,0.2-0.5,0.2-0.7c0.3-3.6,0.6-7.2,0.9-10.7
			c0.7,0,1.5,0,2.2,0c0,2.3,0,4.6,0,6.8c0,0.5,0.2,1.3,0.5,1.6c1.5,1.1,5.6-0.6,5.9-2.4c0.3-2,0.5-4,0.8-6c1,0,1.9,0,2.9,0
			c-0.2,1.8-0.7,3.5-0.6,5.3c0.1,2.4-0.1,4.6-2.5,5.9c-1.3,0.7-1.2,1.6-0.5,2.7c1.4,2.1,2.8,4.2,4.4,6.6c2.3-2.2,4.6-4.4,6.9-6.7
			c0.4-0.4,0.9-1.3,0.7-1.8c-0.7-2.3-1.3-4.7-2.7-6.6c-1.2-1.7-1.5-3.4-1.4-5.3c0.7,0,1.5,0,2.2,0c0.8,1.9,1.7,3.8,2.7,6.2
			c1.6-2.3,2.5-4.1,3.1-6.2c1,0,1.9,0,2.9,0c-1.2,2.6-2.3,5.2-3.5,7.8c-1.6,3.4-1,6.5,1,9.5c0.7,1.1,1.5,1,2.3-0.1
			c0.3-0.4,0.5-0.8,0.7-1.3c0.9-3.2,2.2-6.3,1.8-9.7c-0.2-2,0-4.1,0-6.1C157.2,0,158.9,0,160.6,0z"/>
		<path d="M567.5,0c-1,2.6-2.3,5-4.3,6.9c-1.1,1-2,2-3.7,1.9c-0.7,0-1.5,0.6-2.2,1c-1.4,0.6-2.5,0.2-2.7-1.2
			c-0.3-1.5,0.1-3.3-1.7-4.1c-1.6-0.7-2.6,1.1-3.9,1.4c-0.9,0.2-1.8,0.8-2.6,1.2c-3,1.4-2.4,1-3.2-1.7c-0.5-1.7-0.2-3.6-0.2-5.4
			c1,0,1.9,0,2.9,0c-0.1,1.1-0.2,2.2-0.3,3.3c1.4-0.3,3,0,4.1-1.4c0.5-0.6,0.9-1.3,1.3-1.9c1.9,0,3.9,0,5.8,0
			c0.2,1.5,0.2,3.1,0.6,4.6c0.3,1.2,1.2,1.4,2.2,0.8c2.1-1.2,3.3-3,3.7-5.4C564.6,0,566.1,0,567.5,0z"/>
		<path d="M488.3,0c0.2,1.6-1.1,1.7-2,2.1c-1.4,0.7-2.6,1.3-2.4,3.1c0,0.2-0.2,0.4-0.3,0.7c-1.7,4.4-1.8,4.4-6.5,4.4
			c-4.7,0-4.8,0-4.8-4.8c0-1.8,0-3.6,0-5.4c0.7,0,1.5,0,2.2,0c0.3,2,0.5,4,0.8,6c0.1,0.5,0.6,1,1,1.2c1.9,0.5,2.8-0.1,3.8-1.7
			c1.2-1.9,0.6-3.6,0.1-5.5C483,0,485.7,0,488.3,0z"/>
		<path d="M521.8,0c0.4,1.8-0.4,3.3-1.3,4.7c-0.3,0.5-0.7,1.1-1.2,1.2c-2.3,0.5-4.7,1.4-6.9,1.1c-2.1-0.2-4.2-1.3-5.6-3.4
			c-0.8-1.2-1.1-2.3-1-3.7c1,0,1.9,0,2.9,0c0.9,1.1,2,2.1,2.7,3.3c0.7,1,1.4,1.2,2.4,0.7c0.8-0.3,1.5-0.9,2.3-1c2-0.1,2.6-1.4,2.8-3
			C519.8,0,520.8,0,521.8,0z"/>
		<path d="M537,0c-2,2.1-2.8,2.1-5.8,0C533.1,0,535.1,0,537,0z"/>
	</g>
</g>
</svg>
