<?xml version="1.0" encoding="utf-8"?>
<!-- Generator: Adobe Illustrator 18.0.0, SVG Export Plug-In . SVG Version: 6.00 Build 0)  -->
<!DOCTYPE svg PUBLIC "-//W3C//DTD SVG 1.1//EN" "http://www.w3.org/Graphics/SVG/1.1/DTD/svg11.dtd">
<svg version="1.1" id="Layer_1" xmlns="http://www.w3.org/2000/svg" xmlns:xlink="http://www.w3.org/1999/xlink" x="0px" y="0px"
	 viewBox="0 0 284.7 544.7" enable-background="new 0 0 284.7 544.7" xml:space="preserve">
<g>
	<g>
		<path d="M157.8,0c-3,6.7-6,13.5-9,20.2c-5.5,12-11.1,23.9-15.4,36.4c-2.1,6.1-4.7,12-7,18c-1.1,3-2,6.1-3.1,9.1
			c-1.9,4.9-4,9.8-5.9,14.7c-2.3,6-4.6,12-6.5,18.1c-1.1,3.5-2.2,7-4,10.3c-2.2,3.9-3.5,8.3-5.2,12.4c-0.6,1.3-1,2.8-2,3.8
			c-4.3,4.3-5.8,9.9-7.6,15.4c-0.6,2-1.1,4.1-1.9,6c-2.1,4.8-2.9,9.9-3,15c-0.1,8.6-1.8,16.9-4,25.1c-1.2,4.6-1.9,9.4-2.8,14.1
			c-0.4,2.2-0.8,4.4-1.3,6.6c-1,4.1-1.6,8.1-1.7,12.4c-0.2,5-1,9.9-1.6,14.8c-0.1,1.3-0.2,2.6-0.3,3.8c0,4.5,0.2,9.1-0.1,13.6
			c-0.5,7.5-1.3,15-1.8,22.6c-0.2,2.3-0.3,4.5-0.1,6.8c0.7,8.5-1.2,16.6-3.1,24.8C69,330.3,68,336.6,67,343
			c-0.2,1.2,0.3,2.6,0.8,3.7c3,6.9,3.9,14.2,3.7,21.7c-0.4,14.6,2.6,28.7,6.2,42.7c2.7,10.4,5.7,20.7,8.7,31
			c0.7,2.3,2.2,4.3,2.5,6.6c0.6,3.9,0.6,8,1,12c0.4,4.7,0.4,9.3-2.7,13.3c-0.3,0.3,0,1.2,0.2,1.7c0.1,0.2,0.9,0.2,1.3,0
			c1.2-0.4,2.4-1,3.6-1.4c0.3-0.1,0.8,0.4,1.2,0.6c-0.2,0.4-0.3,1-0.7,1.2c-1.8,0.8-3.5,1.5-5.4,2.2c-4.1,1.5-8.2,2.8-12.2,4.4
			c-2.1,0.8-2.1,1.3-0.7,3.1c1.1,1.4,2.2,2.8,3.3,4.1c0.8,0.9,1.5,2.3,3.1,1.7c1.5-0.5,3.1-1.1,3.2-3.1c0.1-0.9,0.4-1.9,0.6-2.8
			c0.2-0.9,0.3-1.9,0.7-2.8c0.5-0.9,1.3-1.6,2-2.4c0.4,1,1.2,1.9,1.2,2.9c0.2,2.9,0.1,5.8,0.1,9c2.6-1.6,4.8-2.9,7-4.1
			c0.3-0.2,0.9,0,1.3,0c-0.1,0.6,0.1,1.3-0.2,1.6c-3.3,3.4-6.6,6.7-8.8,10.9c-1.2,2.3-2.5,4.5-3.2,7c-0.4,1.6,0.1,3.4,0.3,5.1
			c0.1,0.4,0.9,0.9,1.4,1c1.4,0.2,2.9,0,4.3,0.4c1.4,0.3,2.5,0.9,3.9-0.4c1.6-1.5,1.7-3,1.4-4.8c-0.7-3.6-1.5-7.2-2.2-10.8
			c-0.1-0.7,0.1-1.5,0.1-2.2c0.8,0.3,1.8,0.5,2.4,1c3.4,3.4,4.2,7.9,4.9,12.3c0.3,1.9,0,3.9,0.6,5.9c0.7-2.3,1.5-4.5,2-6.8
			c0.5-2.3,0.6-4.8,1.2-7.1c0.7-2.8,0.4-5.2-1-7.8c-1.6-3.1-3-6.3-2.8-10.4c3.5,1.6,4.7,4.7,6.8,7.9c0.7-1.9,1.2-3.3,1.8-4.6
			c0.9-2.1,2-4.1,4.3-5c0.4-0.2,1-0.1,1.3,0.1c0.3,0.2,0.5,0.9,0.4,1.3c-0.4,1.2-1.2,2.3-1.5,3.5c-1.1,3.7-2.4,7.3-2.9,11.1
			c-0.3,2,0.9,4.3,1.7,7.1c2.5-2.5,4.5-4.5,6.5-6.5c1.1-1.1,0.9-2.2,0.7-3.5c-0.6-3.1-1-6.3-1.4-9.5c-0.1-0.6,0.3-1.2,0.5-1.8
			c0.7,0.3,1.7,0.4,2,0.9c1.1,1.8,2,3.6,2.8,5.5c1.3,3.3,1.2,3.3,4.3,2.1c0.9-0.4,1.9-1,2.7-0.9c3.1,0.5,4.2-1.3,5.1-3.7
			c1-2.7,2.2-5.3,3.4-8c0.4-0.9,0.9-1.7,1.6-2.4c0.2-0.3,1-0.5,1.3-0.3c0.3,0.1,0.7,0.8,0.6,1.2c-0.4,1.7-0.9,3.4-1.3,5.1
			c-0.6,2.5-0.9,5-1.6,7.5c-0.6,2.4-0.7,4.5,1,6.7c1.2,1.5,0,2-1.4,1.5c-1-0.4-1.6-0.2-1.5,0.9c0.1,0.7,0.5,1.7,1,1.9
			c1.7,0.5,3.1-0.3,4.2-1.6c2.5-3,5-5.9,7.7-9.2c-0.4-0.2-0.8-0.5-1.2-0.7c-3.2-2.1-4-4.9-2.7-8.6c1-2.9,1.4-5.9,2.1-8.9
			c0.6-2.8,0.5-3.2-2-4.6c-1.5-0.9-3.1-1.7-4.6-2.6c-5.8-3.6-9.1-9.1-11.4-15.2c-1.2-3.3-2.3-6.7-2.1-10.3
			c0.3-5.5,5.1-11.5,10.4-12.3c0.7-0.1,1.6,0,2.3,0.3c2.5,1.1,4.9,2.3,7.5,3.5c0,0,0.2-0.3,0.3-0.7c1.7-4.2,3.3-5.4,7.1-5.3
			c3.4,0.1,6.5,2.3,7.6,5.7c1.6,4.8,2.1,9.8,0.8,14.6c-2.5,9.3-3.1,18.7-2.8,28.2c0.1,3-0.9,5.3-2.8,7.4c-0.9,0.9-1.7,1.9-2.4,3
			c-0.8,1.2-2.9,2-1.2,4.2c0.3,0.4-1.1,2.1-1.8,3.3c0.2,0.2,0.3,0.5,0.6,0.6c2,0.5,3.3,3.5,5.4,2.3c1.4-0.8,1.9-3.2,3-4.8
			c1.7-2.6,1.8-5.3,1-8.2c-0.2-0.7,0-1.5,0.1-2.2c0.7,0.2,1.5,0.2,2,0.6c2.5,1.7,2.6,1.7,3.6-0.8c0.6-1.3,1-2.7,1.7-4
			c0.3-0.6,1.2-1,1.9-1.1c0.4,0,1.3,0.8,1.2,1.3c-0.2,3.2,2,5.2,3.7,7.5c1,1.3,1.7,2.9,2.5,4.4c1.3-0.9,2.6-1.8,3.9-2.7
			c0.7-0.4,1.4-0.8,2.2-1.2c-1.5-4-4.1-6.9-7.4-9.6c-1.4-1.2-1.9-3.6-2.8-5.5c-0.8-1.9-1.6-3.8-2.2-5.8c-0.6-1.8-1.2-3.6-1.6-5.5
			c-0.6-2.7-0.9-5.4-1.5-8c-2.3-9.5-5-18.9-7.1-28.5c-2-9.2-3.6-18.6-5-27.9c-1.2-7.6-2.2-15.3-3-22.9c-0.6-5.6-0.2-11.3-1-16.8
			c-1.1-8.2-0.8-16.4-1-24.6c-0.2-9.4,0.1-18.7,1.8-27.9c0.3-1.9,0.2-3.9,0.2-5.8c-0.1-4.7,1.1-9.2,1.5-13.9
			c1.2-13,5.5-25.4,8.2-38.1c1.3-6.4,3.8-12.6,5-19.1c2.1-11.1,6.4-21.5,9-32.5c1.9-8.1,2.8-16.4,4.5-24.6c1.4-6.9,3-13.8,5.1-20.5
			c2.4-7.8,5.8-15.4,8.3-23.2c4-12.4,7.2-25,9.8-37.7c0.5-2.4,1.3-4.6,2-6.9c1-3.4,2.2-6.7,3.1-10.1c0.9-3.4,2.3-6.6,4.2-9.7
			c2.2-3.5,3.8-7.5,5.7-11.2c2.7-5.3,5.6-10.5,8.3-15.8c0.7-1.3,1.1-2.7,1.8-4c1.4-2.7,2.7-5.5,4.2-8.1c3.7-6.2,7.6-12.4,11.4-18.5
			c0.6,0,1.3,0,1.9,0c-4,6.8-8.1,13.5-12.1,20.3c-1,1.7-2,3.3-2.9,5c-2.8,5.4-5.4,10.9-8.2,16.3c-3.5,6.9-7.2,13.7-10.7,20.6
			c-0.8,1.6-1.2,3.3-1.7,5c-3.2,10.6-6.3,21.2-8.7,32c-2.4,10.7-5.6,21.1-9.1,31.4c-2.2,6.5-5,12.9-7,19.5
			c-1.6,5.3-2.5,10.9-3.6,16.4c-1.2,5.8-2.4,11.6-3.3,17.5c-1.1,7.3-3.4,14.4-5.9,21.3c-2.6,7.5-3.6,15.3-5.6,22.9
			c-3.6,14-7.4,27.9-10.6,41.9c-1.4,6.2-2.1,12.6-2.6,19c-0.4,6.1-1.1,12.1-1.8,18.2c-0.7,5.6-0.4,11.3-0.4,16.9
			c0,5.2,0,10.3,0.1,15.5c0.3,8.8,0.3,17.7,1.1,26.5c0.7,7.8,2.4,15.5,3.4,23.3c1.3,11.2,4,22.1,6.2,33.1c1.4,6.9,3.3,13.7,4.8,20.6
			c1,4.5,1.9,9.1,2.9,13.6c0.1,0.3-0.1,0.7,0.1,1c0.5,0.9,1,2.1,1.8,2.6c0.8,0.5,2.7-2.2,2.6-3.5c-0.3-2.7-0.7-5.4-0.8-8.1
			c0-1.1,0.6-2.3,0.9-3.4c1,0.8,2.1,1.4,2.8,2.3c1,1.4,1.6,3.1,2.6,5.1c1.2-0.8,2.4-1.6,3.5-2.4c0.6-0.5,1.1-1.3,1.8-1.6
			c0.9-0.4,1.9-0.5,2.9-0.8c-0.3,0.9-0.4,1.9-0.9,2.6c-1.2,1.5-2.6,2.8-4,4.2c-3,3-3,2.9-2.3,7.4c2.9-1.5,5.3-4.2,9.1-3.7
			c0.7,0.1,1.7-1.5,2.9-2.5c1,4.5-0.9,8.3-1.2,13.3c2.5-2.5,4.5-4.4,6.3-6.4c0.5-0.5,0.3-1.7,0.2-2.6c-0.2-1.9-1-3.8,0.7-5.3
			c0,0.5-0.1,1,0.1,1.4c0.2,0.5,0.7,0.8,1,1.2c0.2-0.6,0.5-1.3,0.4-1.9c-0.1-0.3-1-0.5-1.5-0.7c0-0.6-0.2-1.3-0.1-1.9
			c0.2-1.1,0.5-2.2,0.8-3.3c0.6,1.1,1.3,2.1,1.7,3.2c0.5,1.7,0.6,3.4,1,5.6c2-0.4,3.9-0.7,4.4-3.3c0.2-0.8,0.5-1.5,0.9-2.2
			c0.2-0.3,0.7-0.7,1-0.7c0.4,0.1,0.8,0.6,0.9,0.9c0.1,2.2,0.2,4.5,0.2,6.8c0,1.2,0.7,1.7,1.8,1.7c-0.8,1.5-1.8,2.9-3.8,2.9
			c0.3-0.7,0.6-1.5,0.7-2.2c0.1-0.3-0.3-0.7-0.5-1c-0.6,0.7-1.3,1.4-1.9,2.1c0.5,0.4,1.1,0.9,1.6,1.3c-1.1,1.8-2.1,3.6-3.7,6.2
			c3.8-2.4,5.9-5.1,8.2-7.7c0.2-0.2-0.3-1-0.5-1.5c0.9-1.5,1.7-0.7,2.6,0.1c1.1,1.1,2.4,0.9,2.6-0.5c0.2-1.1-0.2-2.4-0.4-3.6
			c0.5,0.1,1.1,0.2,1.6,0.4c-0.3-0.6-0.6-1.2-0.9-1.8c-0.2,0.5-0.4,1-0.7,1.4c-0.4-0.5-0.9-0.9-1-1.5c-0.3-1.3-0.9-3.6-0.4-3.8
			c1.6-0.9,2.4,0.9,3.2,2c2.2,3,2.1-1.3,3.8-0.8c0.7,1.7,1.3,3.7,0,5.8c-0.2,0.3-0.4,0.6-0.4,0.9c0.6,4.4,1.2,8.8,1.9,13.1
			c0,0.3,1.1,0.8,1.5,0.6c0.7-0.2,1.3-0.9,1.7-1.5c0.2-0.2-0.1-1-0.3-1.3c-1.7-2.4-1-4.8,0.1-7.4c1.5,0.7,2.6,1.7,2.4,3.6
			c-0.7,0.1-2.2-1-1.7,0.9c0.5,2.2,1.4,4.2,2.2,6.3c0.2-0.1,0.4-0.1,0.6-0.2c-0.3-2.3-0.6-4.6-1-6.9c0.8,1,1.7,2,2.7,3.2
			c2-1.2,0.6-3.4,1.1-5.2c0.4,0.4,0.7,0.9,1.1,1.3c0.6,0.6,1.2,1.1,1.8,1.6c-1.3,1.6-2.5,3.3-3.8,4.9c1.8-0.8,3.2-2,4.3-3.4
			c0.2-0.2-0.3-1-0.5-1.6c-0.4-1-0.7-2.1-1.2-3c-0.5-0.9-1.2-0.7-1.7,0.2c-0.3-0.6-0.6-1.3-0.9-1.9c0.9-0.2,1.7-0.5,2.6-0.6
			c0.2,0,0.6,0.3,0.7,0.6c1.2,3.5,3.7,2.5,6.9,0.8c-2.3,4.6-6.9,7.2-4.9,12.3c1.1-1.9,2-3.8,3.2-5.5c0.3-0.4,1.1-0.6,1.7-0.6
			c0.2,0,0.5,0.8,0.5,1.2c0,1.1-0.2,2.1-0.4,3.5c3.4-1.1,6.3-2.2,9-3.9c0.3-0.2,0.9,0.1,1.3,0.1c-0.1,0.4,0,1-0.2,1.2
			c-3.3,3.5-7,6.5-11.6,8.2c0.3-0.6,0.6-1.3,0.9-1.9c1.3-1,2.6-1.9,3.9-2.9c0.1,0,0.3-0.1,0.4-0.2c0.1-0.1,0.1-0.2,0.1-0.3
			c-0.2,0.2-0.3,0.3-0.5,0.5c-1.8,0.3-3.6,0.5-3.9,2.9c-4.1,0.3-4.1,0.3-5.3,4.1c1.4-0.7,2.8-1.4,4.3-2.1c-0.2,1.7-0.5,3.3-0.8,5.4
			c1.7-0.7,3.1-1.2,4.5-1.7c0.1,0.1,0.2,0.2,0.3,0.4c-1.7,1.2-3.6,2.3-5.2,3.7c-1.4,1.3-0.1,1.7,1.1,1.9c-0.1,0.7-0.1,1.4-0.1,2.1
			c0,0.1,0.7,0.3,0.7,0.2c0.4-0.5,0.8-1,0.8-1.6c0-0.2-0.9-0.5-1.3-0.8c1.4-2.6,4.2-3.2,6.4-4.7c1.8-1.3,3.5-2.7,5.2-4l0,0
			c0.1-0.1,0.4-0.2,0.4-0.2c-0.1-0.2-0.2-0.4-0.3-0.7l-0.2-0.2c0.2-0.2,0.4-0.6,0.6-0.7c1-0.3,2-0.4,3-0.6c-0.4,0.9-0.7,2.1-1.4,2.7
			c-1.8,1.6-3.7,3.1-5.6,4.4c-0.9,0.7-1.6,1.2-0.6,2.2c0.8,0.8,1.6,2.4,3.1,1.2c1-0.8,1.8-1.8,2.8-2.7c0.6-0.6,1.4-1.1,2.4-1.3
			c-0.6,2.9-1.8,5.4-3.6,7.6c-0.6,0.7-1.5,1.5-1.6,2.3c-0.1,1.3,0.5,2.7,0.7,4c0.9-0.3,1.9-0.4,2.6-0.9c2.8-2.2,5.4-4.6,8.1-6.8
			c0.6-0.5,1.1-0.9,2.3-0.7c-1.1,1.4-2.4,2.8-3.4,4.3c-0.6,0.9-0.8,2-1.2,3c1.5,0.5,2.4,2.9,4.5,1.6l0.1,0c-0.4,2-0.6,4,0.8,5.7
			l0.2,0.2c0.1,0.7,0.1,2.1,1.1,0.9c1.2-1.4,1.8-3.3,2.7-4.9c0,0,0,0,0,0l0.5,0l0.5,0l0.1,0c0,0.5,0,1,0.1,1.4
			c0.2,0.9,0.8,1.6,1.5,0.7c0.9-1.3,1.5-2.8,2.3-4.2c0.2-0.3,0.8-0.6,1.1-0.5c0.3,0.1,0.6,0.7,0.7,1.1c0.1,0.4,0.2,1,0,1.4
			c-1.1,2.8-0.7,5,2.5,6.4c-1.5,0.2-3,0.4-4.4,0.5l0,0c-0.5-0.9-1.2-1.1-1.8-0.2c-0.8,1.3-1.3,2.8-2,4.2L276,513c0-0.3,0-0.6,0-1
			c0-1.5-0.5-1.7-1.6-0.7c-0.3,0.3-0.8,0.5-1.2,0.8l-0.1-0.1c-0.1-2.5,2.5-2.6,3.4-4.2c0.1-0.2,0.2-0.8,0.2-0.8
			c-0.4-0.2-1-0.5-1.2-0.3c-1.1,0.9-2,2-3,3c-1,1.2-2,2.4-3,3.6c-0.2-0.1-0.3-0.3-0.5-0.4c0.3-1,0.6-2,1-3.5c-3,1.9-4.2,4.4-5.2,8
			c-1.1-3.9-0.3-6.7,1.5-9.2c0.3,0.4,0.5,0.9,0.8,1.3c0.3-0.5,0.5-1,0.8-1.5c-0.6,0.1-1.1,0.2-1.7,0.3c0-0.8-0.1-1.6-0.1-2.3
			c-0.2,0-0.4-0.1-0.6-0.1c-1,2.5-2,5-3.1,7.4c-1,2-2.1,2.2-3,0.1c-0.7-1.7-3.6,0.5-3.1-2.2c-0.2,0.2-0.6,0.3-0.6,0.5
			c-0.2,1.2,0,2.6-2.2,3.2c0.5-5.9,3.7-9.9,7.7-13.8c-2.3,0.7-3.6,1.4-4.8,3.2c-1.8,2.6-3.5,5.4-5.1,8.1c-0.3,0.6,0.1,1.5,0,2.3
			c0,0.2-0.4,0.6-0.6,0.7c-0.2,0.1-0.7-0.2-0.7-0.3c-0.3-5.4-4.5-10-3.2-15.8c0.1-0.4-0.5-0.9-0.8-1.4c-0.3,0.5-0.7,1-0.7,1.5
			c-0.1,1.3-0.4,2.7,0,3.8c0.7,2.1-0.4,3.6-1.1,5.3c-0.2,0.5-0.7,0.9-1.1,1.3c-0.4-0.5-0.9-0.9-1-1.4c-0.7-2.6-2.6-4.5-4.5-6.2
			c-0.5-0.5-1.6-0.7-2.1-0.5c-0.4,0.2-0.9,1.4-0.7,1.9c1,2.2-0.2,3.3-2.1,4.4c-0.2-1.5-0.3-2.8-0.6-5.3c-0.7,1.8-1,2.5-1.3,3.1
			c-0.4,0.7-1.2,2.1-1.3,2.1c-1.5-0.8-0.6-1.8-0.2-2.8c0.3-0.7,0.7-1.5,1-2.2c0.1-0.2,0-0.8-0.1-0.9c-0.4-0.2-1-0.5-1.3-0.3
			c-1,0.7-2,1.5-2.8,2.5c-0.4,0.4-0.1,1.3-0.4,1.8c-0.4,0.7-1.1,1.2-1.7,1.8c-0.2-0.8-0.6-1.7-0.6-2.5c0-1.4,0.2-2.9,0.2-4.3
			c0-0.6-0.3-1.2-0.8-2.9c-0.9,2.9-1.7,4.8-1.8,6.9c-0.1,2.2-0.8,4.3,0.6,6.5c1,1.7,0.2,2.8-1.9,2.6c-3.4-0.3-6.7-0.7-10-1.4
			c-1.5-0.3-2.6-0.3-4.1,0.5c-1.6,0.9-3.6,1.3-5.4,1.9c-1.6,0.6-3.3,1.3-5.1,2c2.5,2.3,3.3,5,2.2,7.9c-0.6,1.7,0,2.7,1.1,3.8
			c2.7,2.3,5.3,4.7,8,7c0.8,0.7,1.8,1.3,2.6,2.1c1,1,0.8,2.3-0.5,2.6c-2.4,0.5-5,1.1-7.4,0.9c-3.8-0.3-7.5-1.3-11.3-2
			c-0.8-0.1-1.6-0.2-2.4-0.2c-2.1,0-2.3,0.3-2,2.7c0.1,0.7-0.1,1.4-0.2,2c-0.5-0.6-1-1.1-1.4-1.7c-0.5-0.8-0.8-1.7-1.3-2.9
			c-0.7,2-1.3,3.6-1.9,5.2c-0.2,0-0.3,0-0.5-0.1c0-0.8-0.1-1.5,0-2.3c0.5-3.1,0.9-6.3,1.5-9.4c0.9-4.7,1.8-9.4,2.7-14.1
			c0.2-1.3,0.3-2.5,0.5-3.8c0.3-1,0.6-1.9,1-2.9c0.1-0.1,0.3-0.1,0.4-0.2c0.1-0.1,0.1-0.2,0.1-0.3c-0.1,0.2-0.3,0.3-0.4,0.5
			c-0.3,1-0.6,1.9-1,2.9c-0.5,0.6-1.1,1.2-1.3,1.9c-2.6,8.4-5.1,16.9-7.6,25.3c0,0.1-0.2,0.2-0.5,0.5c-0.5-2.4-0.6-4.5,0.2-6.7
			c0.1-0.3-0.2-1.2-0.3-1.2c-0.6,0-1.2,0-1.7,0.3c-0.3,0.2-0.2,1.1-0.5,1.3c-0.7,0.4-1.7,0.9-2.4,0.8c-0.5-0.1-1.2-1-1.4-1.6
			c-0.7-2.4-1.2-4.9-2.6-7.3c-0.1,2.6-0.2,5.1-0.3,7.7c0,0.3-0.6,0.9-0.9,0.9c-0.3,0-0.9-0.5-0.9-0.8c-0.2-0.8,0-1.6-0.2-2.4
			c-0.3-0.8-0.6-1.9-1.3-2.3c-3-2-6.2-3.8-9.9-6.1c-0.2,2.6-0.2,4.5-0.4,6.4c-0.1,0.5-0.6,1-1,1.4c-0.3-0.4-1-0.9-1-1.3
			c0-1.6,0.2-3.2,0.3-4.8c0.2-1.8,0.4-3.5,0.6-5.3c1.2-2.6,2.6-5.1,3.7-7.7c1.5-3.7,3.8-6.3,8.2-6.4c-5.8-0.5-7.8,0.3-9.4,4.4
			c-1.2,3.1-1.7,6.4-2.5,9.7c-0.8,0.2-2.1,1.1-2-0.6c0.2-2,1-4,1.4-6c0.2-0.8,0-1.8-0.1-2.7c-0.9,0.2-1.8,0.1-2.5,0.6
			c-2.6,1.7-2.9,2.5-2.1,5.5c0.1,0.3,0.4,0.6,0.4,0.9c-0.1,1.6,2.1,3.2-0.1,4.7c-0.6-1.5-1.4-3-1.7-4.6c-0.5-2.3-0.8-4.6-1.9-6.9
			c-0.3,4-0.6,7.9-0.8,11.9c0,0.5,0.1,1-0.1,1.4c-0.4,0.8-1,2.2-1.4,2.2c-1.3-0.1-1.7-1.2-1.5-2.5c0.3-0.7,0.9-1.4,0.8-2
			c-0.6-3.4-1.3-6.8-2-10.2c-0.2-0.9-0.7-1.8-1.1-2.7c-0.2,4.9-2.1,10,2.3,14c0.1,0.1,0,0.6-0.1,0.9c-0.5-0.3-1-0.7-1.6-0.9
			c-0.5-0.2-1.1-0.4-1.6-0.5c0.1,0.6,0.1,1.1,0.3,1.7c0.4,1,0.9,1.9,0.8,3.2c-1.9-2-3.8-3.9-5.7-5.9c-1-1,0.3-1.2,0.7-1.8
			c-0.8-0.6-1.6-1.4-2.5-1.9c-0.9-0.5-1.4-0.1-1.7,0.9c-0.1,0.4-0.5,0.7-0.7,1c-0.3-0.3-0.9-0.6-1-1c-0.2-1.2-0.7-2.6-0.4-3.8
			c1.3-4.7-0.6-9.2-0.3-13.8c0-0.3-0.5-0.6-0.8-0.9c-0.3,0.3-0.7,0.7-0.7,1c-0.1,0.8-0.1,1.6,0.1,2.4c1.6,5.4,0.5,10.9,0.8,16.3
			c0,0.3,0,0.7-0.1,0.9c-0.2,0.4-0.5,0.8-0.9,0.9c-0.3,0.1-0.8-0.4-0.9-0.8c-0.2-0.7-0.3-1.5-0.4-2.4c-2.1,0.9-1.2,2.9-1.7,4.3
			c-0.1,0.4-0.6,0.8-1,0.8c-0.3,0-0.7-0.5-0.8-0.9c-0.5-2.1-0.9-4.2-1.5-6.2c-0.1-0.4-0.9-0.7-1.5-0.9c-0.1,0-0.6,0.6-0.7,1
			c-0.1,0.6-0.1,1.3,0,1.9c0.1,1.7-0.4,1.5-2.2,2.3c-1.6,0.7-1.8,0.7-2-0.9c-0.3-2.7-0.8-5.3-1.1-7.7c-0.6,1.6-1.5,3.3-1.8,5.1
			c-0.3,1.5,0.1,3.1,0,4.6c0,0.5-0.6,1-0.9,1.4c-0.3-0.4-0.9-0.9-0.9-1.3c0-3.1,0-6.1-1.9-8.8c1.3,0,2.9,1.1,3-1.8
			c0.2-4.1,1.1-8.2,1.7-12.3c0.2-1.6,0.7-3.1,0.9-4.7c0.2-1.4,0.3-2.8,0.4-4.2c-3,7.5-5,15.1-6,22.9c-0.3,0.9-0.7,1.7-0.8,2.6
			c-0.1,2.1,0,4.2-0.1,6.2c0,0.9-0.5,1.7-0.7,2.6c-0.5-0.7-0.9-1.4-1.5-2c-1.8-1.7-1.8-4-1.8-6.2c0-3.2-0.1-6.4-0.1-9.6
			c0-2-0.3-3.8-1.8-5.2c-0.1-0.4-0.2-0.9-0.3-1.3c-0.1,0.1-0.3,0.2-0.4,0.3c0.2,0.3,0.5,0.6,0.7,1c0.4,7.5,0.8,15,1.2,23.6
			c-2.7-3.5-1.8-7.4-4.8-9.8c2.3,7.5,2.3,7.6,0.9,13.8c-0.1-2.5-0.4-3.8-0.3-5.1c0.3-3.3-1.5-5.9-2.9-8.6c-0.7-1.3-4.6-1.8-6.1-0.9
			c-0.2,0.2-0.3,0.9-0.2,1.2c0.2,0.3,0.7,0.7,1.1,0.6c0.7-0.1,1.3-0.4,2-0.6c-0.5,0.7-0.9,1.5-1.4,2.2c-0.3,0.4-0.7,0.6-1.1,0.9
			l-0.2,0.2c-0.6,0-1.6,0.2-1.6,0.1c-0.3-1.2-0.4-2.4-0.8-4.7c-0.6,1.7-0.9,2.4-1.1,3.1c-0.2,0.7-0.3,1.5-1.3,2.3
			c0-0.9,0.1-1.9-0.2-2.7c-0.4-1-1.1-1.8-1.7-2.7c-0.9,0.6-1.8,1.1-2.7,1.7c-0.3,0.3-0.4,0.8-0.8,1.9c-0.4-1.5-0.7-2.5-1-3.4
			c-0.3,0.1-0.6,0.1-0.9,0.3c-1.4,0.7-3.3,1.1-4,2.3c-0.5,0.9,0.4,2.7,0.6,4.1c0.1,0.6-0.1,1.2-0.2,2.6c-0.9-1.3-1.4-2-1.8-2.8
			c-0.4-0.8-0.6-1.7-1.3-2.7c0.4,2.6-2.1,3.9-2.7,6c-0.4,1.2-2.1,2-3.3,2.8c-0.2,0.2-1.2-0.3-1.4-0.6c-0.5-1.3-0.8-2.7-1.7-4.1
			c-0.1,0.6-0.1,1.4-0.4,1.9c-0.3,0.7-0.9,1.2-1.3,1.8c-0.2-0.7-0.5-1.4-0.7-2.1c-0.1-0.5-0.1-0.9-0.2-1.5c-6,1.5-12,3.3-18,4.5
			c-5.8,1.1-11.5,3.2-17.5,2.7c-1.1-0.1-2.3,0-3.3-0.4c-0.9-0.4-1.8-1.4-2.3-2.3c-0.1-0.3,1-1.4,1.7-1.9c2.1-1.7,4.2-3.5,6.4-5.1
			c1.4-1,1.4-2,0.4-3.2c-0.8-1-1.5-2.1-2.1-3.2c-0.2-0.4-0.3-1.3-0.1-1.6c0.3-0.4,1.2-0.6,1.7-0.4c1.5,0.5,2.9,1.3,4.3,2
			c2.1,1,3.5,0.3,3.7-2c0.2-2.2,0-4.4-0.1-6.5c-2.8-0.4-5.4,2.1-7.6-0.5c0.6-0.2,1.3-0.3,1.8-0.6c4.2-2,4.4-2.4,2.2-6.7
			c-0.1-0.1-0.1-0.3-0.2-0.4c-0.7-1.7-1.7-2.2-3.4-1.2c-2.6,1.6-5.2,3-8.4,4.9c1.9,0.8,3.3,1.3,4.7,2c1.1,0.5,2.1,1.3,3.1,1.9
			c-3,0.5-5.7-0.3-8.2-1.9c-2.4-1.5-2.4-1.6-0.6-4c1.1-1.5-0.8-2-0.9-3.2c-0.1-1.6-1.4-1.7-2.5-1.4c-2.6,0.6-5.2,1.4-7.8,2.1
			c-0.5,0.1-0.9,0.5-1.3,0.4c-0.5-0.1-1-0.4-1.6-0.7c0.3-0.3,0.4-0.8,0.8-1c1.2-0.8,2.4-1.4,3.6-2.2c0,0,0.2,0.2,0.2,0.2
			c0.2,0.4,0.4,1.2,0.5,1.2c2.5-0.5,4.9-1.1,7.4-1.7c0.2-0.1,0.5-0.8,0.3-1.1c-0.2-0.4-0.7-0.9-1-0.8c-1.4,0.1-2.8,0.3-4.3,0.5
			c0,0-0.2-0.2-0.2-0.2c-0.5-0.7-1-1.4-1.4-2.2c-0.1-0.2,0.4-1.1,0.5-1c2.1,0.3,2-0.8,1.6-2.2c-0.2-0.7-0.4-1.5-0.6-2.2
			c1.3,0.9,2.5,1.9,3.9,2.7c0.3,0.2,1,0,1.3-0.3c0.2-0.2,0.3-1,0.1-1.2c-2.3-2.2-3.8-5.3-7.2-6.1c-0.1-0.1-0.1-0.3-0.2-0.4
			c-0.1-0.1-0.2-0.1-0.3-0.1c0.2,0.1,0.3,0.3,0.5,0.4c0.6,1.6,1.3,3.2,1.9,4.8c-3.1-1.4-3.5-4.9-5.4-7.2c-0.2-0.2-0.1-1,0.1-1.2
			c0.3-0.3,1-0.4,1.3-0.2c2.3,1.4,4.7,2.8,6.9,4.3c0.7,0.4,1.1,1.2,1.7,1.7c1,0.6,1,2.9,2.6,2c0.6-0.3,0.3-2.4,0.2-3.6
			c-0.1-0.9-0.4-1.8-0.9-3.2c3.2,1.3,4.3,3.5,5.1,5.9c0.2,0.7,0,1.6,0.3,2.4c0.2,0.5,0.8,1.1,1.3,1.1c0.4,0,1.1-0.7,1.2-1.1
			c0.2-1.4,0.2-2.9,0.2-4.3c0-1.3-0.1-2.6,0-3.9c0.1-1,0.6-2,0.9-2.9c0.8,0.7,1.7,1.3,2.5,2c0.3,0.3,0.4,1,0.8,1.2
			c1.1,0.5,2.3,0.9,3.5,1.3c0.3-1,0.7-2,0.8-3c0.1-0.9-0.1-1.9,0.1-2.9c0.1-0.5,0.5-1.3,0.9-1.4c0.5-0.1,1.3,0.3,1.6,0.7
			c2.2,2.4,2.6,5.5,2.5,8.6c0,2.2,0.1,4.2,2.1,5.5c0.2,0.1,0.6,0.1,1.1,0.2c-0.5-3.2-1-6.3-1.4-9.4c-0.1-0.5,0.3-1.4,0.7-1.6
			c0.4-0.2,1.3,0.1,1.6,0.5c0.8,1,1.5,2.1,2.1,3.2c0.8,1.4,1.5,2.8,2.4,4.4c1-4.1,1-4.1-1.1-7.4c1.3,0.7,2.7,1.3,4,2.1
			c1.2,0.7,2.2,1.9,3.5,2.4c2,0.8,4.1,1.1,0.9,3.3c-0.4,0.3-0.5,1.5-0.4,2.2c0.2,1.3,0.7,2.6,1.1,3.9c0.2,0,0.5,0.1,0.7,0.1
			c0.7-3,1.4-6,2.1-9c-1.8-1.3-3.5-2.7-5.3-4c-0.6-0.5-1.3-1-2-1.4c-1.6-0.8-3.3-1.2-4.8,0.2c-0.6-0.2-1.1-0.4-1.6-0.7
			c-0.1-0.1,0.2-1.1,0.4-1.1c4.1-0.9,4.2-3.8,3.6-7.1c-0.1-0.4,0.1-1,0.3-1.4c0.2-0.4,0.5-1.1,0.8-1.1c0.6,0,1.1,0.3,1.6,0.6
			c0.3,0.1,0.5,0.5,0.5,0.8c0.9,4.7,5,6.8,7.8,9.9l0.2,0.1c0.3,0,0.5,0,0.8,0l0.2-0.2c1.6-0.7,2.2-2,1.6-3.6c-0.9-2.5-2-5-3.1-7.4
			c-0.2,0-0.4,0-0.5,0.1c0,1.4,0,2.8,0,4.2l0,0c-1.7-1.4-0.9-3.2-0.8-4.9c0-0.3,1-1.1,1.3-0.9c1.9,0.7,3,0.5,3.4-1.7
			c0.1-0.3,0.6-0.6,0.9-0.9c0.4,0.5,0.9,0.9,1,1.4c0.2,0.9,0.3,2,0.1,2.9c-0.8,3.7-0.1,7.4,0.1,11c0,0.6,0.7,1.2,1.1,1.7
			c0.5-0.3,1.3-0.8,1.3-1c-1.2-4.2,3.2,1.1,3.1-1.9c-0.1-1.7-0.1-3.6-1.6-4.6c-0.1-0.1-0.3-0.1-0.4-0.2c-0.8-0.7-1.7-1.4-2.5-2
			c0.9-0.6,1.7-1.4,2.7-1.6c1.7-0.4,2-1.4,1.9-2.8c0-1.1-0.1-2.3,0-3.4c0-0.4,0.6-0.8,0.9-1.3c0.3,0.5,0.7,1,1,1.4
			c-1.3,2.2-1.4,4.3,0.9,6.2c-0.3-2-0.5-4.1-0.8-6.1c0.7,1.3,1.3,2.7,2,4c0.6,1.2,1.2,2.3,2.6,3.2c0-0.6,0-1.2,0-1.7
			c-0.1-1-0.2-2-0.3-3.1c1.1,0.4,2.1,0.8,3.2,1.2c0.2,0.1,0.4,0.3,0.5,0.4c0.4,0.9,1,2.1,1.8,0.8c1.3-2.1,2.2-4.5,1.5-7
			c-0.8,1.3-1.7,2.7-2.6,4.1c0,0,0,0,0,0c-0.3-0.6-0.6-1.3-1-1.9l0,0c1-1.9,0.4-3.6-1.4-4.3c-0.1,0.4-0.2,0.8-0.4,1.3l-0.3,0.3
			c-0.4-0.7-1-1.3-1.3-2c-0.2-0.5,0-1.1,0-1.7c0.6,0.1,1.2,0,1.8,0.2c0.6,0.2,1.2,0.5,1.7,0.9c1.6,1.6,2.7,1.2,3.6-0.6
			c0.1-0.2,0.5-0.3,1.1-0.7c0.3,2.2,1.2,4.1,0.5,6.5c-0.7,2.2,0.5,4,2.2,5.9c0.5-0.9,1-1.5,1.2-2.2c0.3-0.9-0.1-2.1,0.4-2.8
			c3.1-4.6,1.7-9.3,0.4-13.9c-2.9-10-6.3-19.9-9-30c-2.4-8.7-4.2-17.5-6.1-26.2c-0.6-2.8-0.8-5.7-1-8.6c-0.4-6.4-0.9-12.9-1-19.3
			c0-4.9-1-9.5-2.9-14.1c-0.7-1.7-1.2-3.7-1.1-5.6c0.3-6.9,1.1-13.7,2.9-20.4c1.6-6.2,3.3-12.4,3-19c-0.3-6.8,0.4-13.5,1.7-20.1
			c0.1-0.5,0.1-1,0.1-1.5c0.3-9.2,0.6-18.4,1-27.5c0.5-12.5,1.6-25,4.3-37.3c1.7-7.7,3.5-15.3,5.1-23c0.8-3.8,1.3-7.6,1.4-11.5
			c0.1-6.8,1.1-13.4,3.5-19.8c1-2.7,1.5-5.6,2.5-8.3c1.2-3.2,2-6.7,4-9.3c6-7.6,8-17.2,12.5-25.5c1.6-3,1.7-6.8,3-10.1
			c2.3-6.2,5.1-12.2,7.5-18.3c1.9-4.8,3.5-9.7,5.3-14.4c2-5.1,4.2-10.1,6.1-15.2c0.9-2.2,1.4-4.6,2.2-6.9c1.6-4.4,3.4-8.7,5.1-13
			c1.1-2.7,2.1-5.4,3.3-8c2.2-4.8,4.5-9.6,6.7-14.5c3.1-6.7,6.1-13.5,9.2-20.2C156.5,0,157.2,0,157.8,0z M216,487.9
			c-0.3,0.3-0.6,0.7-1,1c-3.2,0.5-4.5,3.4-6.6,5.2c-2.2,2-2.1,2.1,0.8,4.4c1,0.9,2.1,1.8,3.6,3.1c0.5-2.2,0.8-3.8,1.3-6.1
			c-2.1,1.3-3.5,2.2-4.8,3c0.4-1,0.8-2.1,1.3-3c1.4-2.3,3-4.5,4.5-6.8C215.3,488.5,215.7,488.2,216,487.9c0.1-0.1,0.2-0.1,0.3-0.2
			c0.1-0.1,0.1-0.2,0.1-0.3C216.3,487.6,216.1,487.8,216,487.9z M257.7,491.8c-0.3,0.3-0.6,0.7-1,1c-0.1,0.1-0.3,0.1-0.4,0.2
			c-0.1,0.1-0.1,0.2-0.1,0.3c0.1-0.2,0.3-0.3,0.4-0.5C257,492.4,257.4,492.1,257.7,491.8c0.1-0.1,0.2-0.1,0.3-0.2
			c0.1-0.1,0.1-0.2,0.1-0.3C258,491.5,257.9,491.6,257.7,491.8z M223.8,492.8c-0.3,0.3-0.6,0.6-1,1c-2.8,1.8-4.3,4.6-6,7.3
			c-0.5,0.9-2.5,2-0.3,2.9c1.8,0.7,0.7-1.4,1.3-2.2c1.9-2.5,3.3-5.3,4.9-8C223.1,493.4,223.4,493.1,223.8,492.8
			c0.1-0.1,0.2-0.1,0.3-0.2c0.1-0.1,0-0.2,0.1-0.3C224,492.4,223.9,492.6,223.8,492.8z M185,499.6c-0.1,0-0.3,0.1-0.4,0.1
			c-0.1,0.1-0.1,0.2-0.1,0.3C184.6,499.9,184.8,499.7,185,499.6c0.1-0.1,0.2-0.1,0.3-0.2c0.1-0.1,0.1-0.2,0.1-0.3
			C185.2,499.2,185.1,499.4,185,499.6z M217,467.5c-0.1,0.1-0.3,0.1-0.4,0.2c-0.1,0.1-0.1,0.2-0.1,0.3
			C216.6,467.8,216.8,467.7,217,467.5c0.1-0.1,0.3-0.3,0.4-0.4C217.2,467.2,217.1,467.4,217,467.5z M172.3,511.2
			c0-0.1-0.1-0.3-0.1-0.4c0-0.1-0.2-0.1-0.3-0.1C172.1,510.9,172.2,511,172.3,511.2c0.1,0.4,0.2,0.8,0.3,1.2
			c0.1-0.1,0.3-0.2,0.4-0.3C172.8,511.8,172.6,511.5,172.3,511.2z M144.2,430.7c0.3,0.3,0.6,0.5,0.9,0.8c0.1-0.1,0.2-0.3,0.3-0.4
			C145,430.9,144.6,430.8,144.2,430.7c-0.3-0.2-0.7-0.5-1-0.7c-0.1,0.2-0.2,0.3-0.3,0.5C143.4,430.5,143.8,430.6,144.2,430.7z
			 M203.4,471.4c0.4-0.2,0.8-0.4,1.1-0.7c0.2-0.2,0-0.7,0-1c-0.2,0.1-0.6,0.2-0.7,0.5C203.6,470.6,203.5,471,203.4,471.4
			c-0.1,0.1-0.2,0.1-0.3,0.2c-0.1,0-0.1,0.2-0.1,0.3C203.1,471.7,203.2,471.6,203.4,471.4z M198.6,487.9c-0.4,0.2-0.8,0.4-1.1,0.7
			c-0.2,0.2-0.2,0.5-0.3,0.7c0.4-0.1,0.9,0,1.1-0.2C198.4,488.8,198.4,488.3,198.6,487.9c0.3-0.7,0.6-1.3,0.9-2
			c1.5-0.6,2.1-1.7,1.4-3.8c-0.6,1.6-1,2.7-1.4,3.8C199.2,486.6,198.9,487.3,198.6,487.9z M182.1,458.8c-0.6,1-1.3,1.9-1.9,2.9
			c-0.4,0.6-0.9,1.2-1.3,1.8c-0.1,0.2,0.1,0.5,0.1,0.7c0.2-0.1,0.7-0.2,0.7-0.3c0.2-0.7,0.3-1.5,0.4-2.3
			C180.7,460.7,181.4,459.8,182.1,458.8c0.1-0.1,0.2-0.1,0.3-0.2c0.1-0.1,0.1-0.2,0.1-0.3C182.3,458.5,182.2,458.7,182.1,458.8z
			 M105.4,490.8c0-0.1-0.1-0.3-0.2-0.4c0-0.1-0.2-0.1-0.3-0.1C105.1,490.5,105.3,490.6,105.4,490.8c0.3,1.2,0.2,2.5,2.2,2.6
			C106.9,492.5,106.1,491.7,105.4,490.8z M53,475.3c-0.2-0.1-0.3-0.3-0.5-0.4C52.7,475,52.9,475.2,53,475.3c0.1,1.7,1.1,2.7,2.9,2.9
			C55,477.2,54,476.2,53,475.3z M47.2,494.7c0-0.5,0-1-0.1-1.4c0-0.3-0.2-0.6-0.3-0.9c-0.1,0.4-0.4,0.8-0.3,1.2
			C46.6,494,47,494.3,47.2,494.7c-0.4,1.1-0.9,2.3-1.4,3.5C47.7,497.4,48.9,496.5,47.2,494.7z M205.3,480.1c0.8-0.4,1.7-0.7,2.3-1.3
			c0.3-0.3-0.2-1.3-0.4-1.9c-0.4,0.4-1,0.6-1.2,1.1C205.7,478.6,205.6,479.4,205.3,480.1c-0.1,0.1-0.3,0.1-0.4,0.2
			c-0.1,0.1-0.1,0.2-0.1,0.3C205,480.5,205.2,480.3,205.3,480.1z M190.8,517c-3.5,1.6-3.5,1.6-4.4,4.7
			C188,520,189.4,518.5,190.8,517c0.6-0.2,1.2-0.4,1.7-0.6c0.3-0.1,0.4-0.5,0.6-0.7c-0.4,0-0.9-0.2-1.1-0.1
			C191.5,516,191.2,516.6,190.8,517z M74.4,488.9c-0.1-0.1-0.1-0.3-0.2-0.4c-0.1-0.1-0.2-0.1-0.3-0.1
			C74.1,488.5,74.2,488.7,74.4,488.9c0.3,2.3,1.6,4,3.5,5.2C77,492.2,76.3,490.1,74.4,488.9z M172.4,479.2c-0.4,0.7-0.8,1.3-1,2
			c-0.4,1.1-1.4,2.2,0,3.4c0.6-1,1.3-2,1.7-3.2C173.1,480.8,172.6,479.9,172.4,479.2c0.2-0.3,0.5-0.7,0.8-1
			c-0.2-0.1-0.3-0.2-0.5-0.3C172.6,478.3,172.5,478.8,172.4,479.2z M29.7,498.6c-0.4-1.1-0.8-2.1-1.3-3.2c-0.3,0.2-0.6,0.4-0.9,0.6
			C28.3,496.8,29,497.7,29.7,498.6c-0.1,2.1,1,3.6,2.5,4.8c0.3,0.2,0.7,0.1,1.1,0.2c0-0.5,0.2-1.1,0-1.3
			C32.2,501,31,499.8,29.7,498.6z M202.4,479.2c1.5-2.4,3.9-4.2,4.5-7.1C204.6,473.9,202.4,475.9,202.4,479.2
			c-0.1,0.1-0.3,0.1-0.4,0.2c-0.1,0.1,0,0.2-0.1,0.3C202.1,479.5,202.3,479.3,202.4,479.2z M49.2,474.3c0.1,0.1,0.1,0.3,0.2,0.4
			c0.1,0.1,0.2,0.1,0.3,0.1C49.5,474.7,49.3,474.5,49.2,474.3c-0.4-2.3-0.7-4.7-1.1-7c-0.7,2-0.8,3.9-0.6,5.8
			C47.6,473.5,48.6,473.9,49.2,474.3z M223.8,462.7c-1.3,1.4-2.8,2.6-3.9,4.1c-2.3,3-2.3,3-2.1,5.5
			C219.9,468.9,221.8,465.8,223.8,462.7c0.1-0.1,0.3-0.1,0.4-0.2c0.1-0.1,0-0.2,0.1-0.3C224,462.4,223.9,462.5,223.8,462.7z
			 M249.9,497.6c-0.9,1.9-2.7,3.7-1.4,6.2c1.4-2.2,2.8-4.4,4.4-6.8C251.5,497.3,250.8,497.4,249.9,497.6c0.4-1.6,3-2.7,1-4.6
			c-0.4-0.4-1.1-0.9-1.4-0.8c-0.5,0.2-1,0.8-1.1,1.4c-0.2,1.1-0.2,2.2,0,3.2C248.4,497.2,249.4,497.4,249.9,497.6z M200.5,475.3
			c-0.6,0.5-1.3,0.9-1.8,1.5c-1.6,1.9-2.1,4.7-4.6,6c-0.1,0,0,0.6,0.2,0.8c0.2,0.2,0.7,0.2,0.8,0.1
			C197.8,481.4,201,479.5,200.5,475.3c0.2-0.3,0.5-0.6,0.7-0.9c-0.1-0.1-0.3-0.2-0.4-0.3C200.7,474.5,200.6,474.9,200.5,475.3z
			 M229.6,484c-1,0-2.1,0-1.7-1.5c0.3-1,0.8-1.9,1.4-3.2c-4.4,2.3-4.4,2.3-3.5,7.8C227.2,486,228.4,485,229.6,484
			c1.5-1.8,3.2-3.6,2.6-6.4C231.3,479.7,230.4,481.9,229.6,484z M41.4,484c-0.2-0.4-0.5-0.7-0.7-1.1C40.9,483.3,41.2,483.7,41.4,484
			c0.1,3,0.1,6,0.3,9c0,0.4,0.8,0.8,1.3,1.2c0.4-0.5,1.1-1,1.1-1.4c-0.4-2.6-1-5.3-1.6-7.9C42.4,484.5,41.8,484.3,41.4,484z
			 M181.1,490.8c-0.6,0.2-1.4,0.3-1.7,0.7c-2.3,3.3-4.6,6.6-5.2,10.7c-0.1,0.9-1.2,1.9,0,2.8C176.5,500.2,178.8,495.5,181.1,490.8
			c0.1-0.1,0.2-0.1,0.3-0.2c0.1-0.1,0-0.2,0.1-0.3C181.4,490.5,181.2,490.7,181.1,490.8z M187.9,496.6c4.8-1.4,9.1-4.8,14.5-4.2
			c0.1,0,0.2-0.4,0.5-0.9c-1-0.2-1.9-0.7-2.7-0.5c-2.9,0.7-5.9,1.5-8.7,2.6C190.1,494.2,189.1,495.6,187.9,496.6
			c-0.1,0.1-0.2,0.1-0.4,0.2c-0.1,0-0.1,0.2-0.1,0.3C187.5,496.9,187.7,496.8,187.9,496.6z M169.5,512.1c0.1,0.1,0.1,0.3,0.2,0.4
			c0,0.1,0.2,0.1,0.3,0.1C169.7,512.5,169.6,512.3,169.5,512.1c-0.7-0.5-1.4-1.1-2.1-1.7c-0.2,0.7-0.6,1.5-0.5,2.1
			c1.2,4.9,2.5,9.7,3.8,14.5c0.5-1.7,0.3-3.2-0.1-4.7c-0.6-2.5-1.4-4.9-2-7.4C168.2,513.9,168.1,512.7,169.5,512.1z M194.7,467.6
			c-3.1,3-4.2,7-5.7,10.8c-0.1,0.3-0.1,0.7,0.1,0.9c0.2,0.4,0.5,0.8,0.8,1.1c0.1,0.1,0.8-0.3,0.9-0.6
			C192.2,475.7,194.7,472,194.7,467.6c0.1-0.1,0.3-0.1,0.4-0.2c0.1-0.1,0-0.2,0.1-0.3C194.9,467.2,194.8,467.4,194.7,467.6z
			 M27.8,482.1c-0.5,0.1-1.2,0.1-1.3,0.4c-1.8,3.8-0.5,7.5,3.7,10.1c-0.1-2.6-0.3-5.1-0.4-7.6c1.3,1.1,2.6,2.3,3.9,3.3
			c0.7,0.6,1.6,1,2.4,1.3c0.2,0.1,1.1-1,1.1-1.1c-2.2-3.3-4.7-6.4-8.6-7.8C28.5,480.7,28.1,481.6,27.8,482.1z M171.4,489.9
			c-1.4-3.8-1.8-4.4-4.8-7.1C167.9,485.6,168.7,488.3,171.4,489.9c0.2,0.6,0.5,1.2,0.5,1.8c0.1,1.3,2.3,2.2,0.7,3.8
			c-0.7-1-1.3-2-2.1-2.9c-0.5-0.5-1.2-0.8-1.8-1.2c-0.3,0.7-1,1.5-0.9,2.1c0.6,2.8,1.3,5.6,2.1,8.3c0.2,0.6,1.2,0.9,1.9,1.3
			c0.6-2.1,0.9-4,1.7-5.7C175,494.1,174,491.8,171.4,489.9z M61.8,480.2c0-0.1-0.1-0.3-0.1-0.4c0-0.1-0.2-0.1-0.3-0.1
			C61.5,479.8,61.6,480,61.8,480.2c0.7,1,1.1,2.3,1.9,3.2c1.9,2.2,2.5,2.2,4.7,0.3c1.3-1.2,2.5-2.1,4.5-2c1.1,0.1,2.3-1.4,3.2-2.4
			c0.4-0.4,0-1.5-0.1-2.2c-0.6,0.1-1.2,0.1-1.7,0.3C70.1,478.2,65.9,479.2,61.8,480.2z M177.2,510.2c-1-0.6-2-1.3-2.9-1.9
			c0-0.1-0.1-0.3-0.1-0.4c-0.1-0.1-0.2-0.1-0.3-0.1c0.2,0.1,0.3,0.3,0.5,0.4c0.2,0.8,0.3,1.6,0.7,2.3c1.8,3,1.5,5.8-0.3,8.6
			c-0.4,0.7-0.8,1.4-1.2,2.1c-1.1,2-0.3,9.5,1.2,11.2c0.4,0.4,1,0.7,1.8,1.2c0.2-0.9,0.6-1.5,0.5-2.1c-0.5-4.5,0.9-8.4,3.7-12.1
			c1.6-2.2,1.2-3.4-0.6-5.5C179.1,512.7,178.1,511.4,177.2,510.2c3.1,0.4,3.5,0.5,3.9-2.2c0.6-3.6,0.5-7.3,0.7-10.9
			c0-0.3-0.4-0.7-0.7-1c-0.3,0.3-0.8,0.6-0.8,1c-0.1,2.6-0.1,5.1-0.2,7.7c0,1.2,0.2,2.6-1.8,3.1c-0.2-1.6-0.3-3.2-0.5-4.8
			C176,505.4,176.4,507.8,177.2,510.2z M207.3,507.3c-2.7,1.8-5.4,3.6-8.6,5.6c4.7-0.2,7.9-2.5,11.1-5.4
			C208.8,507.4,208,507.4,207.3,507.3c1.2-0.6,2.5-1.2,3.7-1.7c0.3-0.1,1.1,0.2,1.2,0.5c0.2,0.5,0.1,1.1-0.1,1.6
			c-0.1,0.4-0.6,0.7-0.9,1.1c-1,1-0.6,1.8,0.6,2.1c1.5,0.4,3.1,0.7,4.7,0.9c0.6,0.1,1.2-0.1,1.8-0.2c-0.1-0.6-0.1-1.2-0.3-1.7
			c-0.9-2.4-3-3.6-5-5c-3.9-2.8-7.5-6.1-11.3-9.1c-1.7-1.3-7.2-0.4-7.7,1.4c-0.7,2.8-1,5.7-1.2,8.5c0,0.4,1,1.4,1.5,1.4
			C198.7,506.9,203,508.1,207.3,507.3z M64.8,507.7c0.2-0.6,0.6-1.3,0.7-2.1c0.6-3.3,2.1-6.1,4.6-8.2c0.7-0.6,1.8-0.9,2.8-1.3
			c0,1.1,0.3,2.2,0.1,3.2c-0.6,2.2-1.5,4.2-2.1,6.4c-0.8,2.6-1.5,5.2-2.1,7.9c-0.1,0.7,0.7,1.5,1,2.3c0.7-0.6,1.8-1,2-1.7
			c0.7-2.1,1-4.4,1.5-6.6c0.6-2.6,0.9-5.4,2.1-7.8c1.1-2.3,0.6-3.9-0.6-5.8c-1.4-2.3-2.7-4.7-3.9-7.1c-0.9-1.8-1.3-2-2.8-0.7
			c-2.9,2.5-5.7,5.2-8.8,7.6c-1.6,1.3-3.4,2.3-5.3,3.1c-4.3,1.7-8.1,3.9-11,7.6c-5.3,6.7-11.4,12.7-18,18.1c-2,1.6-4,3.3-5.9,5
			c-0.3,0.3-0.6,0.8-0.6,1.2c0,0.3,0.6,0.6,1,0.7c0.6,0.1,1.3,0,1.9,0.1c4.4,0.4,8.6-1.2,12.8-1.9c6.9-1.3,13.9-2.4,20.8-5.6
			c-0.9-1.4-1.6-2.9-2.6-4c-2.6-2.8-5.4-5.5-8-8.2c-0.4-0.4-0.6-1.1-0.9-1.6c0.7-0.3,1.3-0.9,2-0.9c1.1,0,2.4,0,3.3,0.5
			c3.4,1.8,6.8,3.7,8.6,7.4c0.6,1.3,1.1,2.7,1.7,3.9c0.2,0.3,1.3,0.5,1.5,0.2c1.4-1.3,2-4.5,1-6.1c-2.1-3.4-4.4-6.7-6.6-10.1
			c-0.4-0.6-0.5-1.4-0.7-2.1c0.9,0,2-0.3,2.6,0.2C59.6,503.2,62.1,505.4,64.8,507.7z M160.5,471.6c0.6-6-1-10.9,0-15.9
			c0.8-3.8,0.5-7.7,1.4-11.4c1.5-6.1-0.5-11-4-15.7c-0.8-1.1-1.9-2.2-3.2-1.5c-1,0.5-2,1.7-2.4,2.7c-0.4,1-0.2,2.2-0.3,3.3
			c-0.2,2.2-0.2,2.2,1.9,1.8c0.4-0.1,0.9-0.1,1.3-0.1c-0.2,0.5-0.2,1.2-0.6,1.5c-1.4,1.3-1.6,1.9,0.7,2c1.7,0.1,1.2,0.9,0.3,1.7
			c-0.4,0.4-0.7,0.9-1,1.3c0.6,0,1.2,0,1.7,0.1c0.3,0.1,0.5,0.6,0.8,0.9c-0.9,0.6-1.8,1.6-2.8,1.7c-1.5,0.2-1.5-1.4-1.8-2.4
			c-0.3-0.9-0.4-1.9-0.8-2.8c-0.5-1-0.9-2.2-1.8-2.7c-2.8-1.8-5.7-3.6-8.8-5.1c-3-1.4-5.7-0.7-7.6,2.1c-1.7,2.3-2.6,4.6-2.1,7.9
			c1.3,9.3,5.4,16.6,13.3,21.8c2.6,1.7,4.9,3.8,8.1,4.5C155.4,468.1,157.6,470,160.5,471.6z M202.3,539.4c0.9-0.3,1.8-0.5,2.7-0.8
			c-0.5-0.7-1-1.5-1.6-2.1c-1-1-2-2-3.1-3c-1-0.8-2.5-2.5-2.9-2.2c-2.9,1.8-2.7-0.6-3.1-2.1c-0.7-2.2-1.4-4.3-3.5-5.6
			c-1.3-0.9-2.3-0.7-3.4,0.3c-2.5,2.3-3.6,5.2-3.9,8.5c-0.3,2.8,0.2,3.5,3.1,4.1c1.4,0.3,2.8,0.7,4.2,1
			C194.7,538.1,198.5,538.8,202.3,539.4z M155.2,500.7c-2.2,1.4-3.4,2.5-4.9,3.1c-3.4,1.4-4.7,3.9-4.1,7.5c0.1,0.4,0.2,0.9,0.3,1.8
			c1.5-1.8,3.6-2.6,3.4-5.3c-0.1-1.2,0.6-1.1,1.5-0.6c0.6,0.3,1.5,0.5,2.1,0.2c3-1.3,6-2.3,9.3-2.2c1.2,0,1.6-0.8,1.6-1.9
			c0.1-1.6-0.2-2.9-1.6-3.8c-2.8-1.9-5.7-3.7-8.4-5.6c-1-0.7-1.7-0.7-2.4,0.2c-0.6,0.8-1.3,1.4-1.8,2.3c-1.9,2.9-1.4,3.7,2,4
			C152.9,500.4,153.5,500.5,155.2,500.7z M168.1,525c-1.1-4.3-2.3-8.5-3.3-12.8c-0.5-2-1.8-2.2-3.2-1.7c-1.1,0.4-2.4,1.2-2.9,2.2
			c-1.6,3-2.9,6.1-4.1,9.2c-0.2,0.6,0.2,2,0.7,2.3c2.9,1.7,5.9,3.1,8.9,4.7c-0.4-1.8-0.8-3.3-1.1-4.7c1.5,0.3,3,0.6,4.5,0.9
			C167.7,525.2,167.8,525.1,168.1,525z M121.7,504.2c-1.7,3-3.1,5.4-4.5,7.8c-0.2,0.3-0.7,0.4-1.1,0.5c-0.2-0.4-0.6-0.9-0.4-1.2
			c0.6-1.5,1.2-3.1,2.2-4.3c2.4-3,5-5.8,7.6-8.7c0.5-0.5,1.5-1,0.4-1.8c-0.4-0.3-1.3-0.2-1.7,0.1c-2.4,2.1-4.9,4-7,6.4
			c-2.8,3.2-3.6,6.9-2.2,11.2c0.7,2.1,2.5,0.8,3.4,1.8c0.2,0.2,1.2,0.1,1.5-0.2C122.7,512.7,123.9,509.1,121.7,504.2z M188.5,504.6
			c1.4,4-0.4,7.5-1.3,11.3c4.3-2.1,8.1-3.9,11.9-5.8c-0.1-0.2-0.1-0.4-0.2-0.6c-2.6,0-5.3,0-8.3,0c0-1.3-0.1-2.6,0-3.8
			c0.2-1.4,0.6-2.8,0.7-4.2c0.1-1.1-0.1-2.2-0.1-3.3c-1,0.7-1.1,1.5-1.5,2.1c-0.3,0.4-0.8,0.7-1.2,1c-1.2-1.9-1.9-0.7-2.4,0.5
			c-1.6,3.5-3.1,7-4.6,10.5c-0.1,0.1,0,0.3,0,0.4c0.2,0.3,0.3,0.6,0.6,0.7c0.2,0.1,0.7,0.1,0.8-0.1c0.4-0.7,0.6-1.5,0.9-2.2
			C185.2,508.9,185.7,506,188.5,504.6z M39,491.2c-1.6,0.6-3,1-4.3,1.6c-1,0.5-1.8,1.2-2.8,1.8c-1.2,0.7-1.1,1.4-0.3,2.3
			c0.5,0.6,1.2,1.1,1.7,1.7c1.2,1.8,2.6,1.9,4.4,0.9c4-2.2,3.6-1.1,2.2-5.6C39.6,493.1,39.4,492.3,39,491.2z M128.1,507.6
			c4.6-1.6,4.7-5.5,5.2-9.1c0.2-1.5-0.8-2.1-2.1-1.8c-2.9,0.5-4.7,2.9-4.3,5.8C127.2,504.2,127.7,505.9,128.1,507.6z M145.2,503.4
			c-6.2,0.3-12.6,2.7-16.1,6.1c-0.3,0.3-0.8,0.7-0.9,1.1c-0.1,0.7,0.1,1.5,0.2,2.2c0.6-0.2,1.3-0.2,1.6-0.6c2.2-2.8,5.1-4.1,8.4-5.2
			C140.7,506.3,142.8,504.7,145.2,503.4z M187.4,476.9c2.4-4.9,4.7-9.7,7-14.5c-3,2.7-5.7,5.6-8.2,8.7
			C184.5,473.4,184.8,474.2,187.4,476.9z M154.3,470.6c-0.5,2.7-0.9,4.7-1.1,6.7c-0.1,0.8,0.4,1.7,0.6,2.6c0.7-0.4,1.3-0.7,2-1.1
			c0.1-0.1,0.3-0.2,0.3-0.3c1-1.9,4.1-1.9,4.3-4.6C158.5,472.8,156.6,471.8,154.3,470.6z M194.1,479.8c4.9-7.2,9.6-13.4,16.5-19.1
			c-3.2,0.5-4.6,2-6,3.4c-2.4,2.5-4.9,5-7.3,7.6C195.5,473.7,194.1,476,194.1,479.8z M235.3,480.9c-0.3,0-0.6,0-0.9,0
			c0,1.9,0,3.8,0,5.7c0,0.3-0.6,0.8-0.9,0.9c-0.3,0-0.6-0.5-0.9-0.8c-0.3-0.3-0.8-0.8-0.9-0.7c-1.9,1.7-2.6,5.3-1.6,7.5
			c0.2,0.4,0.7,0.8,1.1,0.8c0.3,0,0.8-0.4,1-0.7c0.3-0.5,0.3-1.5,0.7-1.7c2.6-1.5,2.6-3.8,2.4-6.2
			C235.2,484.1,235.3,482.5,235.3,480.9z M191,486.4c-1.8,1.2-3.6,2.4-5.3,3.7c-2.9,2-2.9,2.1-1.8,6.3
			C188.1,494.6,189.5,490.6,191,486.4z M250.4,510.1c1.8-2.5,3.3-4.8,5-6.8c1.3-1.5,0.4-2.2-0.5-3.1c-1.2-1.2-2-0.3-2.8,0.5
			C249.7,503.4,249.7,506.5,250.4,510.1z M215.7,498.1c3.1-2.9,6.3-5.6,4.5-11c-1.6,1.6-3.6,2.9-4.3,4.7
			C215.2,493.5,215.7,495.7,215.7,498.1z M242.8,496.2c-6.3-2-11.4,1-16.5,4C231.8,498.8,237.3,497.5,242.8,496.2z M183.8,461.4
			c-0.2,0-0.4-0.1-0.5-0.1c-1,2.3-2,4.6-2.8,7c-0.6,1.5-0.1,2.8,1.5,3.5c1.1,0.5,1.9,0.4,1.9-1C183.8,467.7,183.8,464.6,183.8,461.4
			z M80.2,499.3c0.5,5.2,1,10.4,1.5,15.6c0,0.2,0.6,0.4,1,0.6C83.1,510.8,81.9,501.4,80.2,499.3z M134.2,512.4
			c-1.1,0.5-2.1,0.8-2.8,1.3c-0.9,0.7-1.7,1.7-2.5,2.6c0.9,0.6,1.7,1.4,2.6,1.9c2.2,1.1,2.8,0.7,2.8-1.9
			C134.4,515.2,134.3,513.9,134.2,512.4z M48.6,511c1.6,1.6,3.1,3.2,4.6,4.9c1.4,1.5,2,3.7,4.8,5.4C56.2,515.6,53.7,512.1,48.6,511z
			 M111.1,504.1c-0.3,0-0.7,0.1-1,0.1c0.9,5.2,1.8,10.3,2.7,15.5C113,514.4,113.2,509.1,111.1,504.1z M77,469c0.5,2.9,1,5.9,1.6,8.8
			c0.1,0.5,0.8,0.8,1.2,1.2c0.4-0.5,1.3-1.1,1.3-1.6C80.6,474.2,79.5,471.3,77,469z M208.6,481.3c-3.7,1.7-5.8,4-7.5,6.7
			c-0.2,0.3-0.2,1.2-0.1,1.2c0.5,0.2,1.2,0.4,1.7,0.3c0.4-0.1,0.8-0.5,1.1-0.9C205.3,486.4,206.7,484.2,208.6,481.3z M260.5,511.4
			c0.4,0,0.8,0.1,1.2,0.1c0.9-2,1.9-3.9,2.6-6c0.2-0.5-0.4-1.3-0.7-1.9c-0.6,0.3-1.8,0.5-1.9,1C261.1,506.9,260.8,509.2,260.5,511.4
			z M224.7,479.4c-0.2-0.3-0.4-0.6-0.5-0.9c-1.9,1.2-3.8,2.5-5.8,3.5c-2,1-4.2,1.7-5.4,5C217.4,484.2,221,481.8,224.7,479.4z
			 M167.3,488.6c-0.3-0.2-0.6-0.4-1-0.5c-1.6,2.3-2.8,4.8-3.6,7.6c-0.1,0.4,0.4,1.1,0.7,1.6c0.4-0.4,1.1-0.6,1.3-1.1
			C165.7,493.7,166.5,491.1,167.3,488.6z M14.1,489c3.6,1.8,7,2.4,8.9,5.6c0.1,0.2,0.7,0.2,1,0.3c0-0.4,0.2-1,0.1-1.2
			c-0.5-0.8-1.4-1.4-1.8-2.2c-0.9-1.9-2.3-2.6-4.2-2.4C17,489,15.9,489,14.1,489z M58.6,480.9c-0.3-0.1-0.5-0.2-0.8-0.3
			c-1.2,4.3-2.4,8.5-3.5,12.8c-0.1,0.2,0.5,0.7,0.7,1c0.3-0.3,0.7-0.6,0.8-1C56.7,489.2,57.6,485,58.6,480.9z M214.5,469.8
			c-1,0.9-1.9,1.8-3,2.5c-1,0.6-0.9,1.3-0.4,1.9c0.5,0.6,1.2,1.4,1.9,1.4c0.8,0.1,1.7-0.5,2.7-0.9
			C215.4,473.1,215,471.6,214.5,469.8z M14.2,493.8c0.4,1.2,0.9,2.7,1.5,4.1c0.1,0.3,0.8,0.5,1.2,0.4c0.3-0.1,0.9-0.6,0.8-0.9
			c-0.3-1.9-0.7-3.7-1.2-5.6c-0.1-0.2-0.5-0.6-0.7-0.5c-0.4,0.1-0.9,0.3-1.1,0.6C14.5,492.4,14.5,492.9,14.2,493.8z M71.1,499
			c-4.1,3.3-3.5,7.5-5,10.7c-0.1,0.2,0.3,0.5,0.4,0.8c0.3-0.2,0.8-0.3,0.9-0.6C68.6,506.6,69.7,503.3,71.1,499z M140.8,517.3
			c0.5-3.2,1-5.6,1.3-7.9c0.1-0.5-0.4-1-0.6-1.5c-0.5,0.3-1.4,0.5-1.6,0.9c-0.3,0.8-0.5,1.8-0.4,2.7
			C139.8,513.1,140.2,514.6,140.8,517.3z M24.7,477c-1.4,4.2-2.3,7.5-1.3,11.3C25.4,484.8,24.7,481.3,24.7,477z M87.6,470.2
			c-0.3-0.2-0.6-0.4-0.8-0.5c-0.7,0.6-1.5,1.2-2.1,1.9c-0.8,0.9-1.6,1.9-2.2,2.9c-0.2,0.3,0.1,0.9,0.4,1.2c0.1,0.1,0.9,0,1.1-0.3
			C85.2,473.7,86.4,471.9,87.6,470.2z M174.5,485.3c-0.3,0.1-0.6,0.2-0.7,0.4c-0.8,1.5,0.5,5.1,2.2,5.7c0.2,0.1,1-0.6,1-0.7
			c-0.6-1.8-1.3-3.5-2-5.3C174.8,485.5,174.6,485.4,174.5,485.3z M225.6,464.3c-1.1,5.9-1,6.5,1.3,10.1
			C226.4,471.1,226,467.7,225.6,464.3z M150.7,487c0-3.8,0-6.9,0-9.9C150.7,480.2,147.7,483.3,150.7,487z M244.3,483.8
			c-3.9,3-3.2,5.8-2.5,9.6C242.7,489.9,243.4,487.4,244.3,483.8z M62.7,508.7c-0.3,0.1-0.6,0.3-0.8,0.4c1.3,2.5,2.5,5.1,3.8,7.6
			c0.2,0.3,0.6,0.5,1,0.7c0.1-0.4,0.5-1,0.4-1.2C65.6,513.7,64.1,511.2,62.7,508.7z M32.8,511.6c0.3,0.1,0.6,0.1,0.8,0.2
			c0.5-1.5,1.1-3.1,1.5-4.6c0.1-0.4-0.4-0.9-0.6-1.4c-0.5,0.3-1.4,0.6-1.4,1C32.9,508.3,32.9,509.9,32.8,511.6z M77.9,515.1
			c2.2-3.2,0.9-6.2,0.9-9.1C78.8,508.9,76.7,511.5,77.9,515.1z M48.7,489.6c0.2,0,0.4-0.1,0.6-0.1c-0.1-2.6-0.2-5.2-0.4-7.8
			c0-0.4-0.6-0.7-0.9-1c-0.2,0.3-0.6,0.7-0.6,1C47.8,484.4,48.3,487,48.7,489.6z M195.2,523.7c0-2.7-0.5-4-2.3-4.4
			c-0.4-0.1-0.9,0.2-1.2,0.5c-0.2,0.2-0.2,0.9,0,1.1C192.8,521.8,194.1,522.8,195.2,523.7z M216.8,479.6c-0.1-0.3-0.3-0.8-0.4-0.8
			c-1.2,0.3-2.4,0.7-3.4,1.2c-0.2,0.1,0,1.1,0,1.6c0,0.3,0.3,0.7,0.5,0.8C214.3,482.6,216.7,480.4,216.8,479.6z M219.5,478.9
			c0.3-2.8,0.6-4.9,0.9-7.3C217.6,473.8,217.4,476,219.5,478.9z M87.5,498.1c-0.3-0.2-0.7-0.4-1-0.5c-1,1.8-1.9,3.5-2.8,5.3
			c-0.1,0.2,0.2,0.6,0.5,0.8c0.1,0.1,0.6,0,0.7-0.2C85.7,501.7,86.6,499.9,87.5,498.1z M136.1,496.8c-1.6,3-1.6,3-0.6,6.2
			C136.8,501,136.5,499.1,136.1,496.8z M42.9,501.2c0-0.2-0.1-0.4-0.1-0.6c-1.2,0.1-2.5,0-3.7,0.4c-0.8,0.2-1.5,1.1-2.2,1.6
			c0.8,0,1.7,0.2,2.5,0C40.6,502.2,41.7,501.6,42.9,501.2z M186.7,468c1.3-1.8,2.7-3.6,4-5.4C188.5,463.8,186.2,464.8,186.7,468z
			 M208.9,485.6c-0.2-0.1-0.4-0.2-0.6-0.3c-0.8,1.2-1.7,2.4-2.3,3.7c-0.1,0.3,0.4,1.2,0.8,1.3c0.3,0.1,1.2-0.3,1.3-0.7
			C208.5,488.4,208.6,487,208.9,485.6z M57.7,492.1c1.8-1.3,2.9-1.8,3.4-2.6c0.2-0.4-0.6-1.5-0.9-2.2c-0.4,0.3-1,0.5-1.2,0.9
			C58.6,489.1,58.4,490,57.7,492.1z M68.5,468.8c3.8,2.6,3.8,2.6,6.3,2.9C72.4,469.3,72.4,469.3,68.5,468.8z M163.8,434.8
			c-0.8-5.2-0.8-5.2-3.8-6.7C161.3,430.4,162.4,432.4,163.8,434.8z M74.4,514.3c1.3-3,2.4-6,1.4-10.3
			C75.3,508.1,74.8,511.2,74.4,514.3z M240.9,503.4c0.2-0.1,0.4-0.2,0.7-0.4c-0.2-1.2-0.3-2.3-0.6-3.5c-0.1-0.3-0.8-0.7-1-0.6
			c-0.5,0.3-1.2,1-1.1,1.2C239.4,501.3,240.2,502.4,240.9,503.4z M83.8,498.2c0-1.7,0-3.2,0-4.8C81.5,496.3,81.5,496.3,83.8,498.2z
			 M86.8,486.7c-0.1,0-0.3,0.1-0.4,0.1c0,2.6,0,5.3,0,7.9c0.1,0,0.3,0,0.4,0C86.8,492.1,86.8,489.4,86.8,486.7z M263,501
			c1.7,1,3.3,1.9,5.9,3.4C267.2,501.4,265.9,500,263,501z M182,450.8c-0.2,0-0.5,0-0.7,0c0,1.1-0.1,2.2,0,3.3
			c0.1,0.5,0.6,0.9,0.9,1.4c0.2-0.5,0.7-1.1,0.6-1.6C182.7,452.8,182.3,451.8,182,450.8z M49.4,490.5c0,1.8-0.2,2.6,0.1,3.3
			c0.2,0.5,1,0.9,1.5,1.3c0.2-0.7,0.6-1.4,0.5-2C51.3,492.4,50.5,491.9,49.4,490.5z M223.6,472c-0.2,0.1-0.5,0.1-0.7,0.2
			c-0.1,1.1-0.3,2.1-0.3,3.2c0,0.2,0.7,0.7,1.1,0.6c0.3,0,0.9-0.6,0.8-0.9C224.3,474,223.9,473,223.6,472z M33.6,476
			c-0.4,0.1-0.8,0.1-1.3,0.2c0.4,1.5,0.7,3.1,1.1,4.6c0,0,0.3,0,0.4,0C33.8,479.2,33.7,477.6,33.6,476z M183,487.6
			c2.1,0.4,3.5-0.5,3.9-2.6C185.6,485.8,184.3,486.7,183,487.6z M135.9,494.9c-2.8-1.9-2.8-1.9-6.2-1.2
			C131.9,494.1,133.4,494.4,135.9,494.9z M170.7,504.3c-0.5,0.6-1,1.1-1,1.2c0.3,0.6,0.8,1.1,1.3,1.5c0.1,0.1,1-0.6,1-0.7
			C171.7,505.7,171.2,505.2,170.7,504.3z M252.2,489.8c-0.3,0.2-0.6,0.5-0.9,0.7c0.9,1.2,1.9,2.5,2.8,3.7c0.2-0.2,0.4-0.3,0.7-0.5
			C253.9,492.4,253.1,491.1,252.2,489.8z M82,465.9c-0.3,0.1-0.6,0.2-0.8,0.3c0.4,1.1,0.7,2.2,1.2,3.3c0.1,0.2,0.7,0.4,0.7,0.3
			c0.2-0.4,0.6-0.9,0.5-1.1C83.1,467.7,82.5,466.8,82,465.9z M210.9,486.4c1.2-1,1.5-2,0.7-3.3c-0.1-0.2-0.5-0.3-0.8-0.5
			c-0.1,1-0.3,2-0.4,3.1C210.4,485.9,210.7,486.1,210.9,486.4z M237,481.8c0.3,0,0.5,0.1,0.8,0.1c0.3-1.7,0.5-3.4,0.8-5.1
			c-0.3,0-0.6-0.1-0.9-0.1C237.5,478.3,237.2,480,237,481.8z M60.8,482.5c-0.3,0.2-0.6,0.4-1,0.7c0.9,1.2,1.8,2.5,2.8,3.7
			c0.2-0.2,0.5-0.3,0.7-0.5C62.5,485.1,61.7,483.8,60.8,482.5z M86.7,462.6c0.4,2.2,0.7,3.3,0.9,4.5c0,0.1,0.3,0.1,0.5,0.1
			c-0.1-1.2-0.1-2.3-0.2-3.5C87.9,463.6,87.7,463.5,86.7,462.6z M59.6,465.1c-0.1,1-0.3,1.8-0.4,2.7c0,0.1,0.5,0.2,0.7,0.3
			c0.2-0.8,0.4-1.7,0.5-2.5C60.6,465.5,60.2,465.4,59.6,465.1z M208.6,471.7c-0.2,3.3-0.2,3.3,1.3,4.7
			C209.5,474.9,209.1,473.5,208.6,471.7z M26.9,518c-0.6-0.6-1.1-1.1-1.7-1.6c-0.1-0.1-0.5,0.1-0.8,0.2c0.5,0.7,0.9,1.4,1.5,2
			C25.9,518.6,26.3,518.3,26.9,518z M17.6,484.2c-0.6,0.3-1.1,0.4-1.1,0.5c0.2,0.9,0.4,1.7,0.7,2.5c0.2-0.1,0.7-0.2,0.7-0.3
			C17.8,486.1,17.7,485.2,17.6,484.2z M122.5,490.6c-0.2,0-0.3,0.1-0.5,0.1c0.1,1.1,0.1,2.2,0.3,3.3c0,0.2,0.5,0.5,0.7,0.4
			c0.2,0,0.6-0.5,0.5-0.6C123.2,492.7,122.9,491.6,122.5,490.6z M194.7,488.7c-0.2-0.6-0.3-0.8-0.4-1.1c0,0-0.3,0-0.4,0.1
			c-0.6,0.9-1.1,1.7-1.6,2.6c0.3,0.1,0.7,0.3,0.7,0.3C193.7,489.9,194.2,489.2,194.7,488.7z M19.1,493.7c-0.4,0.6-0.7,1-0.7,1
			c0.6,0.6,1.2,1.1,1.8,1.7c0-0.3,0.2-0.6,0.1-0.8C20,495,19.6,494.4,19.1,493.7z M138.5,489.5c-0.3-0.3-0.5-0.6-0.7-0.8
			c-0.3,0.7-0.7,1.3-0.9,2c-0.1,0.2,0.5,0.5,0.8,0.8C137.9,490.8,138.2,490.2,138.5,489.5z M32.3,489.1c-0.2,0.6-0.5,1-0.4,1.3
			c0.1,0.4,0.5,0.6,0.8,1c0.2-0.3,0.7-0.7,0.6-1C33.2,490,32.8,489.7,32.3,489.1z M228.3,492.6c-0.2,0-0.5,0.1-0.7,0.1
			c0.1,1,0.2,2.1,0.3,3.1c0.1,0,0.3,0,0.4,0C228.3,494.7,228.3,493.6,228.3,492.6z M70.1,473c-0.1,0.1-0.3,0.2-0.3,0.3
			c0,0.7,0,1.5,0.1,2.2c0,0,0.2,0,0.3,0c0.1-0.7,0.1-1.5,0.2-2.2C70.3,473.2,70.2,473.1,70.1,473z M209.6,463.9
			c-0.4,0.6-0.7,0.9-0.8,1.3c-0.1,0.2,0.3,0.5,0.5,0.7c0.3-0.2,0.7-0.4,0.8-0.6C210.1,464.9,209.8,464.6,209.6,463.9z M235.8,493.4
			c-0.2-0.3-0.4-0.6-0.5-0.5c-0.5,0.2-1,0.4-1.5,0.6c0.1,0.2,0.3,0.7,0.3,0.7C234.7,493.9,235.2,493.7,235.8,493.4z M245.4,474.9
			c-0.3,0.7-0.6,1.2-0.8,1.8c0,0,0.2,0.2,0.3,0.3c0.3-0.5,0.6-0.9,0.9-1.4C245.9,475.4,245.7,475.2,245.4,474.9z M176.7,482.4
			c-0.4,0.2-0.9,0.4-0.8,0.4c0.1,0.4,0.3,0.9,0.6,1.3c0.1,0.1,0.4,0,0.6,0C176.9,483.5,176.8,483,176.7,482.4z M167,504.8
			c0.1-0.1,0.3-0.2,0.3-0.3c0-0.7-0.1-1.5-0.1-2.2c0,0-0.2,0-0.2-0.1c-0.1,0.7-0.1,1.5-0.2,2.2C166.8,504.5,166.9,504.7,167,504.8z
			 M243,498.8c-0.1,0.3-0.3,0.6-0.2,0.8c0.1,0.2,0.5,0.4,0.8,0.5c0.1-0.3,0.3-0.6,0.2-0.9C243.7,499,243.3,498.9,243,498.8z
			 M38.1,506.9c0.3-0.2,0.6-0.3,0.7-0.5c0.1-0.2-0.1-0.5-0.1-0.7c-0.3,0.1-0.6,0.2-0.8,0.4C37.8,506.2,38,506.6,38.1,506.9z
			 M73.9,474.8c-0.2-0.3-0.3-0.6-0.5-0.7c-0.1-0.1-0.5,0.1-0.7,0.2c0.1,0.3,0.2,0.6,0.4,0.8C73.3,475.1,73.6,474.9,73.9,474.8z
			 M225.3,497c0.1-0.3,0.3-0.5,0.3-0.8c0-0.3-0.2-0.5-0.3-0.8c-0.2,0.3-0.4,0.6-0.5,0.9C224.9,496.5,225.1,496.8,225.3,497z
			 M238.9,492.1c0-0.1,0-0.3,0.1-0.4c-0.2,0-0.3,0.1-0.5,0.1c0,0.1,0.1,0.3,0.2,0.4C238.7,492.2,238.8,492.1,238.9,492.1z
			 M259.2,505.8c-0.1,0.2-0.2,0.5-0.3,0.7c0,0.1,0.2,0.2,0.2,0.3c0.1-0.2,0.2-0.5,0.3-0.7C259.4,506.1,259.3,505.9,259.2,505.8z
			 M63.1,523.2c0.1-0.1,0.3-0.1,0.3-0.2c0-0.1,0-0.3,0-0.5c-0.2,0.1-0.3,0.2-0.5,0.3C62.9,522.9,63.1,523.1,63.1,523.2z"/>
		<path d="M273.1,503.3c1.5-2.6,3.1-5.1,4.6-7.7c0.6,2.7,0.6,5-1.5,6.8l-0.1,0c-0.3-0.9-0.7-0.7-0.9,0l0,0c-0.6,0.4-1.2,0.7-1.8,1.1
			L273.1,503.3z"/>
		<path d="M270.3,500.5c-0.1-0.4-0.2-1.2-0.4-1.3c-0.9-0.2-2.1,0.1-1.2-1.4c0.5-0.9,1.3-1.8,2-2.6c0.2-0.2,0.8-0.2,1.2-0.1
			c0.2,0,0.4,0.6,0.4,0.8C271.7,497.5,271,499,270.3,500.5L270.3,500.5z"/>
		<path d="M249.8,484.8c2.1-2.3,4.7-3.6,7.8-3.8l0.2,0.2c0,0.3-0.1,0.6-0.1,0.9c0,0,0,0,0,0c-2.5,1-5.1,2.1-7.6,3.1
			C250,485.1,249.9,484.9,249.8,484.8z"/>
		<path d="M276.3,513.3c-0.4,2.1-0.8,4.2-1.2,6.3c-1.4-2.5-0.7-4.6,0.9-6.5L276.3,513.3z"/>
		<path d="M56.8,476.2c-0.3-2.2-0.6-4.5-0.9-6.7l0,0c0.7,2.2,1.3,4.5,2,6.7l-0.2,0.2c-0.3,0-0.5,0-0.8,0L56.8,476.2z"/>
		<path d="M269.6,513.3c-0.1,1.3-0.2,2.5-0.5,3.8c-0.1,0.3-0.8,0.7-1.1,0.6c-0.3-0.1-0.8-0.8-0.7-1.1c0.5-1.3,1.1-2.5,1.7-3.8
			C269.3,513.1,269.4,513.2,269.6,513.3z"/>
		<path d="M279.1,512.2c-0.2,1.9,0.7,4-1.2,5.5C278.7,515.9,277,513.7,279.1,512.2L279.1,512.2z"/>
		<path d="M273.3,512.2c-0.4,1.6-0.6,3.4-2.8,4.7c0.4-2.2,0.8-3.9,2.7-4.8L273.3,512.2z"/>
		<path d="M77.3,460.8c-0.7-0.9-1.4-1.9-2.1-2.8l0.3-0.3C76.1,458.7,76.7,459.7,77.3,460.8L77.3,460.8z"/>
		<path d="M282,514.1c0.6-0.5,1.1-1,1.8-1.3c0.2-0.1,0.6,0.2,1,0.4c-0.2,0.2-0.3,0.7-0.5,0.7C283.5,514,282.7,514,282,514.1
			C282,514.1,282,514.1,282,514.1z"/>
		<path d="M82.2,530.6c0.3-1,0.6-1.9,1-2.9c0,0,0,0,0,0C82.8,528.6,82.4,529.6,82.2,530.6L82.2,530.6z"/>
		<path d="M82.1,530.6c0,0.5,0.1,0.9,0,1.4c-0.1,0.3-0.4,0.6-0.6,0.9c-0.1-0.3-0.4-0.6-0.3-0.8C81.4,531.5,81.8,531.1,82.1,530.6
			L82.1,530.6z"/>
		<path d="M280,509.3c-0.3,1-0.6,1.9-1,2.9l0,0C279.4,511.2,279.7,510.2,280,509.3L280,509.3z"/>
		<path d="M272.2,505.3c0.3-0.7,0.6-1.3,0.9-2l0.3,0.2c-0.3,0.6-0.7,1.3-1,1.9C272.3,505.4,272.2,505.3,272.2,505.3z"/>
		<path d="M84.1,525.7c-0.3,0.6-0.6,1.3-1,1.9c0,0,0,0,0,0C83.4,527.1,83.8,526.4,84.1,525.7C84.1,525.8,84.1,525.7,84.1,525.7z"/>
		<path d="M84.1,525.8c0.3-0.6,0.6-1.3,1-1.9l0,0C84.7,524.4,84.4,525.1,84.1,525.8C84.1,525.7,84.1,525.8,84.1,525.8z"/>
		<path d="M77,464.4c0.4-0.6,0.8-1.2,1.2-1.7l0,0c-0.2,0.7-0.5,1.4-0.7,2.1C77.4,464.7,77.2,464.6,77,464.4z"/>
		<path d="M5.4,493.6c0.7-0.3,1.3-0.6,2-1l0.2,0.2c-0.6,0.3-1.3,0.7-1.9,1L5.4,493.6z"/>
		<path d="M85.1,523.8c0.2-0.2,0.3-0.4,0.5-0.5c0,0.1,0,0.3-0.1,0.3C85.3,523.7,85.2,523.7,85.1,523.8
			C85,523.8,85.1,523.8,85.1,523.8z"/>
		<path d="M281,515.1c-0.2,0.2-0.3,0.3-0.5,0.5c0-0.1,0-0.3,0.1-0.3C280.7,515.2,280.8,515.1,281,515.1L281,515.1z"/>
		<path d="M281,515.1c0.3-0.3,0.7-0.6,1-1l0,0C281.6,514.4,281.3,514.7,281,515.1C281,515.1,281,515.1,281,515.1z"/>
		<path d="M86.1,520.8c0.1,0.2,0.2,0.4,0.4,0.6c-0.2-0.1-0.4-0.2-0.6-0.4L86.1,520.8z"/>
		<path d="M271.2,506.2c0.3-0.3,0.7-0.6,1-0.9l0.2,0.2c-0.3,0.3-0.6,0.7-0.9,1L271.2,506.2z"/>
		<path d="M4.4,494.6c0.3-0.3,0.6-0.7,0.9-1c0,0,0.3,0.3,0.3,0.3c-0.3,0.3-0.7,0.6-1,0.9C4.7,494.8,4.4,494.6,4.4,494.6z"/>
		<path d="M127.7,399.6c-0.8-0.9-2-1.7-2.3-2.8c-2.1-5.9-4.2-11.8-5.9-17.8c-1.4-4.7,0.1-9.4,2.2-13.5c3.2-6.1,12-6.3,16-0.7
			c1.3,1.9,1.3,1.9,3,0c4.1-4.8,8.6-4.4,11.2,1.3c3.9,8.3,4.5,16.5-1,24.7c-3.7,5.5-5.9,11.7-6.6,18.4c0,0.3-0.3,0.5-0.5,0.8
			c-5.5-1.6-10.1-4.8-14.5-8.2c-0.7-0.5-1-1.4-1.4-2.2c1.7,0.8,3.4,1.5,5,2.5c2.5,1.4,4.8,3.2,7.3,4.5c2.3,1.2,3,0.8,3-1.7
			c0-6.2,2.8-11.5,5-17c0.3-0.8,1.3-1.3,1.9-1.9c0,0.6,0,1.3,0,1.9c-0.1,0.1-0.3,0.1-0.4,0.2c-0.1,0.1-0.1,0.2-0.1,0.3
			c0.1-0.2,0.3-0.4,0.4-0.5c0.3-0.6,0.6-1.3,1-1.9c1.1-0.6,1-1.3,0-1.9c0-3.2,0-6.5,0-9.7c0.5,1.3,1.1,2.7,1.9,4.7
			c0.1-4.7-0.2-8.4-2.9-11.5c-0.6-1-1.3-1.9-1.9-2.9c-0.1-0.1-0.1-0.3-0.2-0.4c-0.1-0.1-0.2-0.1-0.3-0.1c0.2,0.1,0.3,0.3,0.5,0.4
			c0,0.6,0,1.3,0,1.9c-0.6-0.5-1.2-0.9-1.9-1.4c-2-1.6-3-1.6-4.2,0.6c-0.9,1.6-1.1,3.6-1.8,5.4c-0.1,0.4-0.5,0.9-0.9,0.9
			c-0.3,0-0.8-0.4-1-0.8c-0.6-1.6-1.2-3.3-1.8-5c-1-2.6-3.1-3.5-5.7-3.5c-3,0-6.1,0.4-7.6,3.2c-2.6,5-3.4,10.3-1.6,15.8
			C123.7,387.8,125.7,393.7,127.7,399.6z"/>
		<path d="M139.5,438.1c0.8,1.1,1,1.6,1.3,1.9c0.4,0.2,1.3,0.3,1.3,0.2c0.3-0.9,0.3-1.9,0.7-2.7c0.4-0.9,1.4-1,1.8-0.1
			c1.2,2.8,2.3,5.6,3.4,8.4c0.1,0.2-0.2,0.7-0.4,0.8c-0.2,0.1-0.7-0.1-0.8-0.3c-0.8-1.7-1.5-3.5-2.2-5.3c-0.9,0.9-0.4,2.7-2.5,3
			c-1.6,0.2-0.4,2.1-0.8,3.2c-0.2,0.5-0.5,1-0.7,1.5c-0.4-0.5-1.1-0.9-1.1-1.4C139.4,444.5,139.5,441.8,139.5,438.1z"/>
		<path d="M149.1,458.5c2.6-1.6,5.3-3.2,7.9-4.8c0.3,0.2,0.6,0.4,0.8,0.6c-2.8,2.1-3.1,4.6-1.9,7.5c0.1,0.3-0.5,0.9-0.7,1.4
			c-0.3-0.3-0.7-0.6-1-1c-0.1-0.1-0.1-0.3-0.2-0.4c-0.5-1.1-0.7-2.5-1.5-3.3c-0.4-0.3-1.9,0.6-2.9,0.9
			C149.4,459.1,149.2,458.8,149.1,458.5z"/>
		<path d="M153.8,449.3c-0.2,2.5-1.5,4-3.2,3.7c-1.3-0.2-2-1-1.2-2.3c0.3-0.5,0.8-0.9,1-1.4c0.2-0.5,0.1-1.1,0.2-1.7
			c1,0.3,2,0.6,2.9,0.9C153.7,448.5,153.7,449,153.8,449.3z"/>
		<path d="M158.3,460.2c0.1,0.3,0.2,0.5,0.3,0.8c0,0.1-0.2,0.2-0.3,0.3c-0.1-0.3-0.2-0.5-0.3-0.8C158,460.4,158.2,460.3,158.3,460.2
			z"/>
		<polygon points="161.2,440.1 161.1,439.8 161.3,439.8 		"/>
		<path d="M29.7,485c-1.5-0.4-2-1.5-1.9-2.9C29.2,482.6,29.8,483.6,29.7,485z"/>
		<path d="M132.1,376.9c0.5-1.3,1-2.6,1.7-4.1c3,3,2.6,6.8,3.6,10.2c0,0.1-0.3,0.6-0.5,0.6c-0.3,0-0.7-0.2-0.8-0.5
			c-0.3-0.7-0.5-1.5-0.7-2.2c-0.3-1.3-0.6-2.7-1.5-3.9c-0.1,0.8-0.1,1.6-0.4,2.3c-1,2-1.6,0-2.4-0.3c-0.4,1-0.7,2-1.1,3
			c-0.4-0.2-1.1-0.4-1.1-0.7c-0.1-1.4-0.2-2.9-0.1-4.3c0.1-1.4,0.4-2.7,0.7-4.1c2.2,0.3,0.8,2.5,1.9,3.4
			C131.5,376.4,131.8,376.6,132.1,376.9z"/>
		<path d="M144.4,381.4c-2.5,2.1-2.5,2.1-3.3-0.4c-0.2-0.8-0.5-1.5-0.7-2.3c-0.9-5,0-5.7,5.8-4.8c-1.2,0.4-2,0.5-2.6,0.9
			c-0.6,0.3-1.1,0.9-1.7,1.4c0.7,0.1,1.3,0.2,2,0.3c0.1,0,0.3-0.1,0.5-0.1c0.5,0.3,1,0.6,1.5,0.8c-0.3,0.3-0.5,0.8-0.9,0.9
			c-0.6,0.2-1.5,0.1-1.8,0.4c-1.2,1.3-1,2.3,0.9,2.5L144.4,381.4z"/>
		<path d="M139,391.6c-1.4-1.1-2.7-2.1-3.9-3c0.8-0.8,1.6-1.6,2.2-2.5c1-1.4,2,0.1,2.9-0.1c0,0.3,0.1,0.7,0.1,1
			C140.4,387,139.1,391.3,139,391.6z"/>
		<path d="M140.7,391.9c0.9,2,0.5,3.5,0.5,4.9c0,0.6,0.1,1.4,0.4,1.9c0.6,0.9,0.5,1.6-0.5,1.7c-0.6,0.1-1.6-0.5-1.7-1
			c-0.3-0.9-0.2-1.9-0.1-2.8C139.6,395.2,140.1,393.9,140.7,391.9z"/>
		<path d="M130.9,395.5c0.8-0.7,1.5-1.5,2.3-2.2c0.4,2.3,0.7,4.6,1.1,7.5c-1.9-1.6-3.5-2.7-4-4.8
			C130.6,395.8,130.7,395.7,130.9,395.5z"/>
		<path d="M148.1,366.7c0.6,0.3,1.3,0.6,1.9,0.9c0.3,2.3,0.6,4.5,1,6.8C150.1,371.9,149.1,369.3,148.1,366.7z"/>
		<path d="M144.1,381.1c0.5-0.3,1-0.7,1.5-0.9c0.2-0.1,0.5,0.2,0.8,0.3c-0.2,0.3-0.4,0.7-0.7,0.8c-0.4,0.1-0.9,0.1-1.4,0.1
			C144.4,381.4,144.1,381.1,144.1,381.1z"/>
		<path d="M151,384.2c0,0.6,0,1.3,0,1.9c-0.3,0-0.6,0-1,0C150.4,385.4,150.7,384.8,151,384.2z"/>
		<path d="M130.4,396c-0.3-0.3-0.6-0.7-1-1c0.2-0.2,0.3-0.3,0.5-0.5c0.3,0.3,0.7,0.6,1,1C130.7,395.7,130.6,395.8,130.4,396z"/>
		<path d="M129.4,395c-0.1-0.4-0.2-0.7-0.2-1.1c0.2,0.2,0.5,0.4,0.7,0.6C129.7,394.7,129.6,394.9,129.4,395z"/>
	</g>
</g>
</svg>
