<?xml version="1.0" encoding="utf-8"?>
<!-- Generator: Adobe Illustrator 18.0.0, SVG Export Plug-In . SVG Version: 6.00 Build 0)  -->
<!DOCTYPE svg PUBLIC "-//W3C//DTD SVG 1.1//EN" "http://www.w3.org/Graphics/SVG/1.1/DTD/svg11.dtd">
<svg version="1.1" id="Layer_1" xmlns="http://www.w3.org/2000/svg" xmlns:xlink="http://www.w3.org/1999/xlink" x="0px" y="0px"
	 viewBox="0 0 698.5 552.4" enable-background="new 0 0 698.5 552.4" xml:space="preserve">
<path d="M684.9,490.9c2.7,0.4,4.2-0.7,4.9-3.4c0.5-2,1.4-3.9,2.3-5.8c0.3-0.6,1.2-1.1,1.8-1.2c0.4-0.1,1.1,0.6,1.4,1.1
	c2.4,5.3-0.6,10.7-6.3,11.2c-1.6,0.1-2.5,0.8-3.7,1.7c-3.3,2.5-7,4.5-10.4,6.9c-1.6,1.1-2.9,2.5-4.4,3.7c-1.4,1.1-2.9,2.1-4.3,3
	c-0.4,0.3-0.9,0.3-1.4,0.4c-1.6,0.6-0.6,4-3.9,3.1c-1.3-0.3-3.2,1.7-4.8,2.8c-1.6,1.1-3,2.4-4.6,3.6c-0.8,0.6-1.6,1.1-2.5,1.5
	c-7.1,3.3-13.3,7.9-19.2,12.8c-3.5,2.9-5.9,7.2-8.7,10.8c-1,1.2-1.8,2.6-2.5,4c-0.2,0.5-0.3,1.3,0,1.7c0.3,0.4,1,0.7,1.6,0.8
	c0.4,0.1,0.9-0.4,1.3-0.5c5.2-1.3,10.4-2.8,15.6-3.9c5.9-1.2,11.8-2.1,17.7-3.1c0.7-0.1,1.6,0.1,3.4,0.2c-1.8,1.3-2.6,2.3-3.7,2.6
	c-2.3,0.6-4.7,0.9-7.1,1.1c-8.2,0.5-16.1,2.4-23.6,5.8c-1.8,0.8-6.9,0.2-8.1-1.2c-0.4-0.4-0.3-1.6,0-2.1c2.5-4.1,4.7-8.4,7.6-12.3
	c5.9-7.8,14.1-13,22.4-17.8c3.7-2.2,7.3-4.6,11.8-7.5c-2-0.4-2.8-0.8-3.7-0.8c-5.6,0-11.1,0.8-16.5,2.3c-0.9,0.2-1.9,0.4-2.8,0.5
	c-0.3,0-0.7-0.5-1-0.8c-0.1-0.2,0.1-0.6,0.2-0.9c0.1-0.1,0.2-0.3,0.3-0.4c4.8-2.5,8.2-6.8,12.2-10.2c3.3-2.7,7.2-4.2,11.3-5.1
	c3.1-0.7,5.8-1.7,6.4-5.4c0.1-0.6,0.5-1.2,1-1.6c0.3-0.3,0.9-0.6,1.2-0.5c0.3,0.1,0.8,0.6,0.8,1c0.2,1.1,0.3,2.2,0.5,3.4
	c2-0.5,3.7-0.7,5.4-1.3c4.3-1.6,6.9-5.3,9.3-8.8c1.6-2.4,3.1-5.1,4.1-7.9c1.1-3,1.6-6.2,2.2-9.3c2.1-10.6,0.9-21.1-1.4-31.5
	c-2.5-11.2-5.2-22.4-7.6-33.7c-0.7-3.6-0.5-7.4-0.8-11c-0.3-4-0.7-8-1.1-12c-0.5-4.3-1.1-8.6-1.7-12.8c-0.4-2.5-0.6-5.1-1.2-7.6
	c-1.7-7.5-3.5-14.9-5.3-22.4c-0.1-0.5-0.3-1-0.2-1.4c0.2-5.4-1.1-10.5-1.9-15.7c-1.3-8.4-3.5-16.6-6.6-24.5
	c-2.2-5.5-4-11.1-5.4-16.9c-1.7-7.1-4.7-14-7.2-20.9c-1.6-4.5-3.5-9-5-13.6c-2.8-8.1-5.5-16.2-9.7-23.6c-4.7-8.2-9.7-16.2-15.8-23.5
	c-6.9-8.2-14.7-15.7-20.2-25.2c-1.9-3.3-4.8-6-7.4-8.9c-6.7-7.6-12.5-15.9-16.9-25.1c-2.2-4.6-5.1-8.9-7.6-13.4
	c-1.5-2.7-2.7-5.5-4.1-8.1c-2.5-4.7-4.7-9.4-9.2-12.8c-2.1-1.6-3.5-4.2-5.2-6.3c-0.6-0.7-1.1-1.8-1.8-2.2c-4.3-2.2-7.1-6-10.2-9.4
	c-2.6-2.8-6.4-4.4-8.3-8c-0.3-0.5-1.8-0.8-2.6-0.6c-0.6,0.2-1,1.4-1.3,2.1c-0.2,0.4,0,1-0.1,1.4c-0.3,2-1.2,2.4-2.9,1.4
	c-1.1-0.6-1.8-2.9-3.4-1.6c-0.7,0.6-0.3,2.4-0.5,3.7c-0.2,2.4-1,3-3,1.6c-1.6-1.1-2.2-0.5-3.2,0.5c-2,2.2-4.6,3.4-7.5,4.2
	c-2.6,0.7-2.1,0.3-3.5-2.4c-1.2-2.3,0.7-5.3-2.3-7.1c-0.3,0.9-0.7,1.7-1,2.6c-0.4,1.4-0.5,2.9-1.1,4.1c-2.8,5.4-3.3,5.4-6.4,0.3
	c-1.1-1.8-2.1-1.5-3.6-0.8c-1,0.4-2.4,0.3-2.3-0.8c0.5-3.9-2.4-6.1-3.9-9c-0.1-0.3-0.3-0.6-0.6-1.1c-0.9,0.5-1.8,1.1-2.7,1.6
	c-1.3,0.7-1.8,1.5-1.2,3.1c0.9,2.5,0.5,5-0.4,7.6c-1.4,3.8-3.2,5.1-7.2,4.5c-1.4-0.2-2,0-2.5,1.3c-0.8,2.3-1.5,4.6-2.6,6.7
	c-1.3,2.5-1.8,4.6-0.3,7.3c1.5,2.5,2.1,5.4,1.8,8.4c-0.3,3.7-1,4.5-4.9,5.4c-0.4,0.1-0.9,0.7-1,1.2c-0.7,2.1-1.2,4.3-1.9,6.4
	c-0.5,1.5-1.2,1.6-2.4,0.5c-1.3-1.2-2-3.2-4.5-3.1c-1.1,0-1.8-0.1-2.1,1c-0.3,0.8-0.4,1.6-0.7,2.3c-0.8,1.6-1.8,2.3-3.3,0.8
	c-1.5-1.5-2.2-0.4-2.8,0.9c-0.8,1.6-1.5,3.2-2.4,4.7c-0.8,1.4-1.7,2.8-2.8,3.9c-1.5,1.6-3,1.2-3.6-0.9c-0.4-1.8-0.3-3.8-0.5-5.7
	c0.6,0.4,1.6,0.7,1.8,1.2c0.3,1.3,0.3,2.7,0.4,4.6c4.6-3.5,5.2-8.5,7.1-12.9c-2.6,1.9-4.5,4.6-7.9,5.4c-0.6,0.1-1,1.2-1.5,1.8
	c-4.1,3.5-7,7.8-8.6,13c-0.4,1.2-0.7,2.5-1.2,3.7c-1.1,3-1.6,3.3-4.4,1.6c-1.5-0.9-2-0.3-2.5,0.9c-0.7,1.4-1.4,2.9-2.3,4.2
	c-0.5,0.7-1.5,1.1-2.2,1.6c-0.3-0.8-1-1.7-0.9-2.4c0.2-2.2,0.7-4.4,1.2-6.6c0.5-2.1,0.1-2.6-2-2.2c-1.7,0.3-3.5,0.6-5.2,1
	c-1.5,0.4-1.8,1.4-1.1,2.9c1.4,3,1.4,3.2-0.8,5.3c-1.9,1.7-4.1,2.6-6.6,2.4c-2.2-0.2-3.5,0.4-4.2,2.9c-0.8,2.9-1.2,3.1-4,1.7
	c-2-1-2.6-0.1-3.2,1.4c-0.3,0.7-0.3,1.6-0.4,2.4c-0.1,2-0.9,2.4-2.8,1.9c-2.8-0.7-2.9-0.6-3,2.4c0,1.3,0,2.6,0,3.9
	c0,0.6,0.1,1.7-0.2,1.9c-3.1,1.6-2.3,5-3.6,7.4c-0.6,1-1.5,1.6-2.3,1c-1.4-1-2.8-1-4.4-0.9c-0.8,0.1-1.6-1-2.4-1.5
	c-0.5-0.3-1.4-0.9-1.6-0.7c-2.7,2.4-4.3,0.1-6.3-1.2c-0.5-0.3-1.1-0.6-2.1-1c-0.2,0.6-0.5,1.1-0.5,1.6c-0.1,1.7-0.9,2.1-2.6,1.7
	c-3.1-0.7-3.3-0.7-4.3,2.4c-1.5,4.3-4.7,7.3-7.9,10.2c-2,1.8-2.6,3.9-3.2,6.3c-0.5,2.3-1.4,4.6,0.1,6.9c0.5,0.7,0.4,1.9,0.4,2.8
	c0,2.8-0.3,3.3-3.2,3.7c-1.4,0.2-2.3,0.4-2.8,2c-0.5,1.7-1.9,3.1-4,2.9c-2-0.2-3.1-1.5-3.7-3.4c-0.1-0.5-0.2-1-0.4-1.4
	c-0.4-0.6-1-1.1-1.5-1.7c-0.5,0.6-1.2,1.1-1.5,1.8c-1.3,2.9-3.1,5.4-2.6,9c0.4,2.8-1.9,4.6-5,4.8c-0.5,0-1.2,0.3-1.5,0.7
	c-0.5,0.6-0.7,1.4-1.1,2.1c-1.9,2.9-4,2.8-5.7-0.3c-0.8-1.4-1.2-2.9-2.1-4.9c-1.3,2.3-2.3,4.3-3.5,6.1c-1.6,2.3-3.1,2.1-4.1-0.5
	c-0.4-1.2-0.6-2.5-1.1-3.7c-0.2-0.6-1-1.7-1.2-1.6c-0.8,0.2-1.8,0.7-2.2,1.5c-0.9,1.6-1.5,3.5-2.3,5.2c-0.2,0.4-0.5,0.9-0.8,1.2
	c-1.1,1-1.9,3-3.8,2.5c-2.1-0.6-1.1-2.8-1.2-4.2c-0.2-2.4,0-4.8,0-7.3c0.8-0.2,1.9-1.2,1.9,0.7c0,2.5,0,5,0,8
	c1.9-1.3,2.5-2.4,2.3-4.1c-0.1-0.7,0.1-1.7,0.6-2.1c2.9-2.4,1.8-5.6,1.9-8.6c0-0.5-0.5-1.3-0.9-1.5c-2.9-1-2-2.8-1.1-4.6
	c1.8-3.9,3.6-7.8,5.4-11.7c-6.9-0.3-14.2,3.9-16.9,9.7c-0.5,1,0.5,2.4,1.6,2c2-0.6,3.9-1.5,5.8-2.2c1.2-0.4,2.3-1.9,4.6-0.2
	c-4.3,0.7-3.5,3.3-3.4,6.1c0.1,2.8-1.1,5.6-1.8,8.4c-2.3,3.2-4.7,6.3-7,9.5c-1.1,1.5-2,3.2-3,4.8c-1.8,2.8-3.4,5.8-5.4,8.4
	c-1.1,1.5-2,2.7-2,4.6c-0.2,5-1.3,5.7-6.3,3.9c-0.2-0.1-0.3-0.1-0.4-0.2c-0.1-0.1-0.1-0.3-0.2-0.4c-0.1-0.1-0.2-0.1-0.3-0.1
	c0.2,0.2,0.3,0.3,0.5,0.5c0,2.6,0.1,5.2,0,7.8c0,1.1-0.3,2.2-0.8,3.2c-0.8,1.6-1.8,1.6-2.9,0.2c-1.2-1.6-2.4-3.3-3.9-5.2
	c-1,1.7-1.8,3-2.7,4.6c-2.5-2.6-2.9-5.8-3.7-9.2c-1.5,2.2-2.8,4.1-4.3,6c-0.4,0.5-1.2,0.8-1.8,1.2c-0.3-0.8-1.1-1.7-1-2.4
	c0.8-3.8,0.5-7.6,0.2-11.4c-0.6-0.1-0.9-0.2-1.2-0.2c-4.1,1-4.1,1-4.3,5.2c0,0.8,0,1.7-0.2,2.4c-0.3,0.9-0.8,1.9-2.1,1
	c-0.1-0.1-0.2-0.2-0.4-0.3c-1.2-0.8-2.4-1.5-3.7-2.2c-0.9,2.3-4.2,2.4-4.5,5.3c-0.2,1.5-1,3.1-1.9,4.4c-1.2,1.9-2.7,1.8-3.7-0.2
	c-1-2.1-1.7-4.4-2.7-6.8c-1.6,2.3-3,4.4-4.9,7.1c-1.3-5.3-5.9-3.8-8.3-5.7c-1.6,3.4-3.1,6.9-4.8,10.3c-0.9,1.8-1.9,2-3.4,0.5
	c-1.7-1.7-3.1-3.7-4.7-5.5c-0.4-0.4-1.1-0.8-1.6-0.7c-0.4,0.1-0.7,1-0.8,1.5c-0.1,1.1,0,2.3-0.1,3.4c-0.2,2.8-2.7,4.2-5.1,2.6
	c-2.2-1.4-4.1-3-6.2-4.6c-2.3,1.2-2.6,3.9-4,5.8c-0.4,0.6-1.1,1.1-1.7,1.2c-0.3,0.1-1.1-0.8-1.2-1.3c-0.5-2.5-0.9-5-1.2-7.6
	c-0.1-0.6-0.1-1.2-0.2-1.9c-1.9,0.7-2.5,2-2.7,3.8c-0.5,4.9-2.5,5.8-7.1,3.7c-0.4-0.2-0.8-0.4-1.5-0.9c-0.4,1.7-0.8,3.2-1.3,4.7
	c-0.9,2.9-2,3.3-4.5,1.5c-0.5-0.4-1-0.8-1.7-1.5c-0.9,2.8-1.6,5.3-2.6,7.8c-0.4,0.9-1.3,1.6-2,2.4c-0.6-0.7-1.2-1.4-1.7-2.2
	c-0.3-0.4-0.3-0.9-0.5-1.3c-0.6-0.9-1.5-0.9-1.9,0c-1.1,2.4-2.9,3.9-5.3,4.6c-3,0.9-4.2-0.2-3.6-3.4c0.3-1.3,0.2-1.7-1.1-2.5
	c-2.8-1.6-5.3-3.8-8.2-5.9c-2.8,1.8-5.9,3.9-9.3,5.9c-0.8,0.5-2.2,0.8-3.1,0.5c-1.4-0.6-1.2-2.1-1-3.4c0.1-0.7,0.5-1.4-0.1-2.5
	c-0.6,0.7-1.7,1.6-1.6,2.2c0.6,3.7-1.9,5.9-3.6,8.5c-0.8,1.2-1.8,0.2-2.4-0.5c-1.2-1.5-2-1.4-3.5-0.1c-2.3,2-2.9,1.8-3.9-1.1
	c-0.7-2.1-1.2-4.3-1.7-6.5c-0.2-1.1-0.6-1.8-1.8-1.6c-1.8,0.3-2.9,1.4-2.5,2.7c0.6,1.8,0.8,3.9,3.4,4.2c0.3,0,0.6,1.2,0.8,1.9
	c-0.7,0.2-1.7,0.8-2,0.5c-1-0.7-2-1.7-2.6-2.7c-0.8-1.1-1.2-2.5-2.5-3.5c0.1,0.7,0.1,1.4,0.3,2c0.6,1.9,0.3,4-1.3,4.8
	c-1.4,0.7-3.4,0.4-5,0.1c-1.5-0.3-2.8-1.1-4.2-1.7c-0.3,1.4-0.6,2.8-1,4.1c-0.2,0.8-0.6,1.5-0.8,2.3c-0.4,1.8-1.5,1.9-2.9,1.2
	c-2.2-1.1-4.3-2.4-5-4.9c-0.3-1.2-0.8-2.5-2.1-2.1c-0.8,0.2-1.2,1.7-1.7,2.6c-0.3,0.3-0.6,0.6-1,1c-0.3,0.3-0.6,0.6-1,1
	c-1.1,0.8-2.3,2.4-3.4,2.4c-3.6,0-1.9,3.1-3.1,4.4c0,0,0.3,0.6,0.5,0.6c0.3,0.1,0.7,0,0.9-0.2c2-2.2,4.2-4.3,5.1-7.3
	c0.3-0.3,0.6-0.6,1-1c0.3-0.3,0.6-0.6,1-1c0.5-0.2,0.9-0.3,1.4-0.5c0.2,0.5,0.6,1.3,0.4,1.6c-2.7,3.9-5.5,7.9-8.4,11.7
	c-0.9,1.2-2.6,1.2-3.3-0.1c-1.2-2.2-2-1.3-3.1-0.1c-1.6,1.8-3.1,3.6-4.7,5.4c-0.9,1-1.7,2-2.7,2.7c-0.8,0.6-1.6,0.3-1.7-0.7
	c-0.2-1.6-0.2-3.2-0.3-5.3c-1.2,3.6-2.5,6.6-3.2,9.8c-0.5,2.5-0.4,5.1-0.5,7.7c0,4,0.5,8.1-2,11.7c-0.4,0.5-0.2,1.5-0.2,2.2
	c0.1,1.9,0.4,3.9,0.2,5.8c-0.1,1.1-0.8,2.5-1.7,3.1c-1.7,1.1-2.8,2.3-3.2,4.4c-0.6,2.9-1.6,3.5-4.8,3c-1.4-0.2-1.6,0.3-1.9,1.4
	c-0.3,1.6-0.7,3.1-1.3,4.6c-0.6,1.5-1.4,3.2-3.4,1.2c-0.1-0.1-1.1,0.4-1.1,0.7c-0.2,1.1-0.2,2.1-0.2,3.2c0,4.2,0.8,8.4-0.6,12.5
	c-0.2,0.4-0.3,1.1-0.1,1.4c2.1,4.1-0.3,8.2-0.1,12.3c0,0.6,0.1,1.4-0.1,1.9c-0.8,1.4-1.5,3.5-2.6,3.7c-2.1,0.5-2.1-2-2.5-3.4
	c-1.2-4.3-2.3-8.6-3.4-13c-0.2-0.9-0.4-2,0-2.9c1.4-3.9,0.5-8,0.9-12c0.3-2.9,0.8-5.7,1.2-8.5c0.1-0.8,0.8-1.7,0.5-2.3
	c-1.5-4.4,0.2-8.5,1-12.7c0.1-0.3,0.1-0.6,0.1-1c-0.7-9.7,2.7-18.6,5.8-27.6c1.4-4.2,3.1-8.1,6.3-11.2c1.8-1.8,1.6-5.9,5.7-5.4
	c0.2,0,0.5-1.1,0.8-1.6c2.1-3.2,3.5-7.2,6.4-9.5c4.2-3.6,7.4-8.4,12.5-10.8c4.7-2.2,8.5-5.7,12.9-8.3c1.1-0.6,2.3-1,3.4-1.5
	c2.4-1,4.9-1.6,7.1-2.9c4.5-2.5,9.1-3.4,14.3-2.4c2.1,0.4,4.6-0.8,6.8-1.5c4.4-1.5,8.7-3.4,13.1-4.7c1.5-0.5,3-0.8,4.4-1.7
	c4.5-2.9,9.4-3.4,14.3-1.2c2.3,1.1,4-0.1,5.9-0.8c3.2-1.1,6.3-2.5,9.4-3.6c3.4-1.1,6.8-1.9,10.4-1.5c0.6,0.1,1.3,0,1.9,0.1
	c1.5,0.3,7.7,0.2,9-0.1c1.6-0.4,3.1-0.8,4.7-0.9c1.4-0.1,1.9-0.7,2.3-1.9c0.7-2,2.3-2.9,4.5-3c1.7-0.1,3.5-0.7,5.2-0.7
	c3,0.1,6.1,0.4,9.1,0.8c4.9,0.7,6.2,0.2,8.2-4.1c0.6-1.2,1-2.3,2.4-2.7c8.2-2.2,16.3-4.8,24.9-4.9c2,0,4.1,0.3,6.1,0.5
	c0-0.3,0-0.6-0.1-0.8c-1.6-4.1-1.4-4.7,2.8-5.3c1.9-0.3,3.9-0.1,5.7,0.4c2.7,0.7,5.4,1.9,8.1,2.9c0.5,0.2,1.3,0.1,1.7-0.2
	c3-1.9,5.9-3.7,9.7-3.8c0.4,0,0.9-0.7,1.3-1.1c4.9-5.3,10.3-9.5,17.6-11.3c2.7-0.7,5.2-2,8.3-1.9c1.1,0.1,2.3-1.5,4-2.8
	c-1-0.4-1.5-0.5-1.9-0.7c-2-1.1-2.2-1.8-0.5-3c3.8-2.6,8.1-4,12.5-4.7c1.8-0.3,3.4-0.4,4.8-1.8c1.5-1.6,3.5-2.1,5.7-2.2
	c1.6,0,3.2-0.5,4.7-0.9c0.6-0.2,1.1-0.9,1.7-1.4c0.1-0.1,0.1-0.3,0.1-0.5c0.8-2.9,6.3-2.5,4.9-7.2c-0.9-2.9-1-6-1.4-9
	c-0.3-2.3,0-3,2.1-3.2c3.4-0.4,6.7-0.1,9.5,2.9c0.6-1.5,1-2.6,1.4-3.6c0.6-1.5,1-3.1,1.7-4.5c2.4-5.2,3.1-5.3,6.7-0.8
	c1.4,1.7,2.7,3.8,5.9,2.6c-0.5-0.7-1.1-1.2-1.4-1.8c-0.3-0.6-0.5-1.6-0.2-2c0.9-1.1,1.9-2.2,3.1-3c2.8-1.9,5.7-3.6,8.6-5.3
	c1.1-0.6,2-1.1,1.1-2.5c-1.4-2.1-0.1-3.5,1.6-4.1c2.9-1,5.9-1.5,8.8-2.1c1.2-0.2,1.7-0.4,1.2-1.7c-0.5-1.4,0.5-2.1,1.6-2.5
	c6.5-2.2,13-4.5,19.6-6.4c2.5-0.7,3.6-2.5,5.2-4.1c0.1-0.2,0.1-0.7,0-0.9c-1.7-2.2,0.2-2.5,1.5-3.6c2.3-1.8,4.8-3.2,7.5-4.3
	c2.2-0.9,4.1-2.2,5.6-4.3c1.7-2.3,4.3-3.9,6.4-5.8c1.4-1.3,2.4-2.4,2.3-4.8c-0.1-1.7,2-3.8,3.6-5.3c2.3-2.2,4.9-4,7.9-6.4
	c-1.9-0.2-3.1-0.4-4.3-0.5c-0.1-0.4-0.2-0.7-0.1-1c1.9-4.4,4-8.7,4.5-13.6c0.3-3.6,2.2-7,3.1-10.5c0.5-2,0.4-4.1,0.6-6.8
	c-2.5,3.3-4.4,6.1-6.5,8.7c-1,1.2-2,1.2-2.5-0.3c-0.8-2.6-1.4-5.2-1.8-7.9c-0.3-1.5,0-3.2,0-5.3c-1.7,1.8-2.9,3.4-4.3,4.6
	c-1.8,1.5-2.9,1.1-3.4-1.2c-0.6-2.8-0.7-5.7-1-8.6c-0.1-0.9,0-1.9,0-3.9c-1,3-1.7,5.1-2.3,7.1c-0.8,2.4-3,3.3-4.9,4.5
	c-0.6,0.4-1.9,0-2.6-0.4c-0.3-0.2,0-1.4,0-2.1c0-0.3,0.1-0.6,0.1-1c5.2,1.7,7.4-1.2,6.3-8.1c-1.3,0.6-2.7,1.2-4.7,2.1
	c0.8-5.3,1.5-9.9,2.3-14.4c0.1-0.2,0.3-0.3,0.4-0.5c-0.2,0.1-0.3,0.3-0.5,0.4c-1.4,0.9-2.7,2.5-4,2.4c-3.5-0.2-3,2.1-2.6,3.9
	c0.9,3.6,0.2,7.7,2.9,11c0.5,0.6-0.1,2.1-0.1,3.1c-1-1.7-2.1-3.5-3.1-5.2c-3.9,4.3-4,4.3-7.2-0.8c-0.8-1.3-1.5-2.8-2.7-4.9
	c-1.3,4.7-4.9,5.9-8.1,7.4c-1.7,0.8-3,0.2-3-1.6c-0.1-2.7,0.1-5.5,0.3-8.2c0.1-1.3,0.4-2.5,0.4-3.8c0-0.3-1.1-1-1.2-0.9
	c-1.5,1.4-6.1-0.7-4.8,4c-1.4,1.3-2.7,2.7-4.3,3.7c-1.5,1-3.3,2.2-5.1,0.2c-0.3-0.3-1.5-0.1-2,0.3c-1.3,0.9-2.4,2.6-3.7,2.7
	c-1.3,0.2-2.7-1.3-4.1-1.9c-0.5-0.2-1.2-0.4-1.7-0.2c-0.8,0.2-1.6,0.6-2.1,1.2c-1.9,2.2-3.8,2.6-6.4,1c-1.7-1-2.1-0.6-2.3,1.5
	c-0.1,2.3,0.3,4.7-3.4,4.2c-0.7-0.1-1.5,1.8-1,3.3c0.7,1.9-0.3,2.8-2.1,2.5c-3.5-0.7-5.9,1-7.7,3.7c-2.7,4.2-7.3,4.1-11.4,5.3
	c-0.4,0.1-1.4-0.6-1.4-0.9c0-3.3-1.8-2.4-3.8-2c-1.9,0.4-2.9-0.6-3.2-2.7c-0.2-1.4,0-2.9-0.1-4.4c-0.1-1.1-0.4-2.1-0.6-3.2
	c-0.9,0.3-1.8,0.6-2.7,0.8c-1.8,0.5-3.2-0.6-3.2-2.9c0-1.5,0.5-2.5-1.7-1.9c-2.6,0.6-3,0.2-3.4-2.3c-0.3-2.2-0.7-4.3-1.1-6.4
	c-0.3,0-0.6,0-1,0c-0.2,0.8-0.5,1.6-0.7,2.4c-0.3,0.9-0.4,1.9-0.9,2.7c-1.2,1.8-2.6,1.9-3.9,0.2c-1-1.3-1.6-2.8-2.4-4.2
	c-1.4-2.2-2.9-4.2-4.2-6.5c-0.9-1.6-1.8-1.6-2.9-0.4c-0.4,0.5-0.9,0.9-1.4,1.3c-1.4,0.9-2.7,0.3-2.7-1.3c0-3.5,0.2-7.1,0.3-10.6
	c0-0.6,0-1.2,0-1.8c-0.7,0.3-1.5,0.3-2,0.8c-1.2,1.3-2.2,2.8-3.4,4c-1.8,1.8-3.7,3.6-5.8,5c-1.6,1.1-2.9,0.2-2.7-1.8
	c0.3-3.2,0.9-6.3,1.4-9.5c0.4-2.5,0.1-3-2.2-2.8c-3.9,0.3-7.8,5.8-6.8,9.5c0.1,0.3,0.4,0.7,0.5,0.7c0.4,0,1.2-0.1,1.3-0.3
	c1-2.3,1.9-4.7,3-7c0.2-0.5,0.8-0.9,1.2-1.4c0.2,0.5,0.8,1.1,0.6,1.5c-1.1,3-2.1,6.1-3.7,8.8c-1.3,2.3-2.6,2.1-4,0
	c-0.3-0.4-0.4-0.9-0.7-1.3c-1.5-2.4-2.5-2.4-4.2,0c-0.7,1-1.5,1.9-2.3,2.8c-0.8-1.1-1.9-2.2-2.4-3.5c-1.1-2.8-1.9-5.6-2.8-8.5
	c-0.3,0-0.6,0.1-1,0.1c-0.1,2-0.2,3.9-0.2,5.9c0,1.6-0.8,2.2-2.4,2.3c-3.5,0.2-5.6-2-7.9-4c-1.3-1.1-2.2-2.9-4.3-2.9
	c-0.5-2.1-0.9-4.2-1.4-6.4c-4.7,2.8-5.8,7-5.4,12.7c1.1-1.4,1.6-2.3,2.3-3.1c1.3-1.4,2.2-3.2,4.5-3.2c-1.1,3.8-4.5,5.7-7,8.3
	c-0.1,0.1-1.6-0.5-1.6-0.9c0-2.4,0.2-4.8,0.3-7.2c0-0.7-0.3-1.3-0.4-2c-0.7,0.2-1.7,0.3-2.1,0.8c-0.6,0.7-0.7,1.7-1.1,2.6
	c-1.5,3.4-1.9,3.7-5.5,2.7c-2.1-0.6-2.3,1.8-3.8,2.3c-1.1,0.3-0.2,1.3,0.2,1.9c0.3,0.5,0.6,1.2,0.5,1.7c-0.9,2.9-1.8,5.8-2.9,8.7
	c-0.6,1.6-1.8,1.8-3,0.5c-0.9-0.9-1.5-2.1-2.3-3.1c-0.9-0.9-2.3-2.7-2.8-2.4c-4,1.7-3.1-1.9-3.9-3.5c-1.3-2.8-1.5-5.9-1.4-9
	c0-0.3-0.5-0.6-0.7-0.9c-0.2,0.4-0.5,0.7-0.6,1.2c-0.1,0.4,0.4,1.1,0.2,1.3c-2.5,3.7-3.5,5.8-3.5,7.8c0,0.4,0.2,1.1,0.5,1.2
	c0.3,0.2,0.9,0,1.3-0.3c0.8-0.6,1.6-1.3,3.1-2.6c-0.7,2.9-2.1,4.1-3.5,4.9c-2.5,1.3-3.2,3.3-3.5,5.9c-0.3,2-1.1,3.9-1.9,6.5
	c-3.2-4.6-5.8-8.4-8.6-12.4c-0.9,1.1-1.8,2.4-2.8,3.5c-0.8,0.9-1.8,0.8-2.2-0.4c-0.4-1.2-0.8-2.4-0.9-3.7c-0.2-1.4,0-2.9-0.1-4.4
	c-0.1-1-0.7-1.6-1.6-0.9c-1.3,1-2.5,1.8-4.4,1c-0.4-0.2-1.5,0.9-2.2,1.5c-3.9,3.5-5.9,3.8-10.5,1.3c-1-0.6-1.8-0.4-2.4,0.6
	c-0.7,1.1-1.2,2.3-2,3.3c-1.4,1.8-2.7,1.8-3.7-0.2c-1.8-3.4-3.3-6.9-5-10.4c-1.2-2.4-2.4-5-4.1-7c-1.6-1.8-2-3.7-1.6-5.8
	c0.7-3.6,1.7-7.1,2.6-10.7c0.2-0.8,0.2-1.6,0.3-2.4c0.6,0,1.3,0,1.9,0c-0.6,3.1-1.2,6.2-1.7,9.3c-0.4,3-0.8,6.1,1.1,8.8
	c1,1.3,2.2,1.4,3-0.1c0.5-0.8,1.1-1.8,1.1-2.6c-0.4-5.2-1.1-10.3-1.6-15.5c1,0,1.9,0,2.9,0c-0.3,2.2,1.1,3.5,2.5,4.9
	c3.4,3.4,5.5,3,6.9-1.6c0.3-1,0.2-2.2,0.3-3.3c1,0,1.9,0,2.9,0c0,1,0,1.9,0.1,2.9c0.2,1.6,3.3,5.7,4.2,5.3c1.7-0.8,3.5-1.8,4.5-3.2
	c0.9-1.3,0.7-3.3,0.9-5c1.6,0,3.2,0,4.9,0c0.3,0.6,0.8,1.1,0.9,1.7c0.3,2.2,2.6,1.2,3.6,2.3c0.4,0.4,1.2,0.8,1.6,0.6
	c2-0.8,2.8-2.4,2.6-4.6c0.6,0,1.3,0,1.9,0c0,0.6,0,1.3,0.1,1.9c0.1,0.6,0.4,1.1,0.7,1.6c0.6-0.4,1.5-0.7,1.8-1.2
	c0.4-0.6,0.3-1.5,0.3-2.3c3.6,0,7.1,0,10.7,0c-0.5,0.9-1,2.5-1.6,2.6c-4,0.3-5.3,3.6-5.8,6.3c-0.7,4.1-0.2,8.3-0.1,12.5
	c0,0.9,0.7,1.8,2,1c5.1-3.2,7.9-7.9,8.3-13.9c0.2-2.8,0.1-5.7,0.1-8.6c0.3,0,0.6,0,1,0c0.3,1.1,0.8,2.1,0.8,3.2
	c-0.1,2.5-0.4,5.1-0.7,7.6c-0.2,1.6-0.5,3.1-1,4.6c-1.6,5-1.5,10.1,0,15.1c0.1,0.5,0.8,1.2,1.1,1.2c0.5-0.1,1.1-0.6,1.4-1.1
	c2.1-3.1,2.8-6.5,2.1-10.1c-1.4-6.8-2-13.6-1.8-20.5c0.6,0,1.3,0,1.9,0c0.3,1.7,1,3.5,0.7,5.1c-0.8,5.2,0.1,12.5,2,17.3
	c0.7,1.9,1.9,1.9,3.3,1.9c1.8-0.1,2.6-1.1,2.6-2.8c0-2.9-0.1-5.8,0.1-8.7c0.1-2.9-0.7-5.4-2.9-7.3c-1.6-1.4-2.8-3.1-2.9-5.3
	c1.6,0,3.2,0,4.9,0c-0.2,1.8-1.1,3.3,0.6,5.2c2,2.3,2.7,5.3,2.4,8.5c-0.2,1.7-0.1,3.5,0,5.3c0.1,0.9,0.4,1.9,0.9,2.6
	c0.5,0.6,1.8,1.4,2.2,1.2c0.7-0.4,1.5-2.1,1.3-2.3c-2.3-2.2,0.4-4,0.3-6c0.3-0.3,0.7-0.6,1-0.9c0.2-0.2,0.3-0.3,0.5-0.5
	c-0.2,0.2-0.3,0.3-0.5,0.5c-0.3,0.3-0.6,0.7-0.9,1c-3.8,1.4-3.8,1.4-3.9-2.3c-0.1-4.6,0.6-8.8,3.9-12.3c1.3,0,2.6,0,3.9,0
	c-0.9,0.8-1.8,1.7-2.8,2.4c-2.5,2-3.3,4.6-2.9,7.6c0.1,0.5,0.5,1.2,1,1.4c0.5,0.2,1.4,0,1.7-0.4c2.4-3.3,5.2-6.5,5-11
	c0.6,0,1.3,0,1.9,0c0.8,2.9-1.6,5.1-1.9,7.8c-0.3,0.3-0.7,0.6-1,1c-0.2,0.2-0.3,0.3-0.5,0.5c0.2-0.2,0.3-0.3,0.5-0.5
	c0.3-0.3,0.6-0.7,1-1c2.3-1.7,3.8-4.6,7-5.2c0.4-0.1,0.5-1.7,0.7-2.5c0.6,0,1.3,0,1.9,0c-0.1,2.1-0.3,4.2-0.4,6.7
	c2.1-2.2,1.2-4.6,1.4-6.7c1,0,1.9,0,2.9,0c0.2,2.5,0,4.8-1.8,6.7c-0.5,0.6-0.6,1.5-1.1,2.1c-2.4,3.1-1.3,6,0.2,8.9
	c1,1.8,2,1.9,3.4,0.3c2.2-2.6,4.2-5.2,6.2-7.9c0.6-0.8,1-1.7,1.3-2.6c0.8-2.1,0.9-4.1-1-5.8c-0.6-0.5-1-1.3-1.4-1.9c1,0,1.9,0,2.9,0
	c0.4,0.5,0.8,0.9,1.2,1.4c0.3-0.5,0.5-0.9,0.8-1.4c0.6,0,1.3,0,1.9,0c-0.8,3.8-2.3,7.3-4.2,10.6c-1.9,3.2-1.5,4,1.9,5.9
	c0.4-2.8,0.7-5.7,1.4-8.4c0.7-2.8,1.9-5.4,2.9-8.1c0.6,0,1.3,0,1.9,0c-2.2,4.7-4.2,9.4-3.9,14.7c0.1,2.2,0.9,4,2.5,5.6
	c0.9,0.9,1.8,1.4,2.4-0.4c0.8-2.3,1.6-4.6,2.8-6.6c1.1-1.7,1-3.2,0.4-5c-0.9-2.7-1.5-5.5-2.3-8.3c1,0,1.9,0,2.9,0
	c-1.8,3.2,0.8,5.1,1.7,7.6c1.9-1.4,3.4-2.4,4.9-3.7c1.4-1.2,2.7-2.6,4.1-3.9c1.6,0,3.2,0,4.9,0c-0.7,0.7-1.2,1.5-2,2
	c-2.5,1.7-5.1,3.3-7.7,4.8c-2.1,1.2-3.2,3.1-3.8,5.3c-0.3,1-0.5,2.4-1.3,2.9c-2.9,2-2.8,4.7-2.4,7.8c3.9-2.4,4.7-2.8,6.2-5.9
	c3.6-7.5,9.7-12.1,17.1-15.3c0.7-0.3,1.1-1.1,1.6-1.7c1.3,0,2.6,0,3.9,0c0.2,1.2,0.5,2.4,0.7,3.6c1-0.7,2.1-1.3,3-2.1
	c0.5-0.4,0.7-1,1.1-1.5c0.6,0,1.3,0,1.9,0c-1,2.5-5.3,7.2-8.5,9.8c-1.3,1-2.3,2.7-2.8,4.2c-0.3,1.1,0.4,2.6,0.8,4.3
	c3.1-2,5.9-3.6,8.5-5.4c1.9-1.4,2.9-3.4,2.9-5.8c0-2.4,0-4.8,0-7.2c0.6,0,1.3,0,1.9,0c0.3,1.5,0.5,3.1,0.9,4.5c0.1,0.4,1,1,1.3,0.9
	c0.5-0.1,1.2-0.7,1.3-1.2c0.3-1.4,0.2-2.8,0.3-4.2c0.3,0,0.6,0,1,0c0.6,1.8,1.1,3.7,1.8,5.5c0.7,1.8,1.5,3.5,2.7,5.1
	c1.5,2.1,2.7,2,4.7,0.2c1.5-1.3,2.5-3.2,4.9-3.5c-1,1.6-2.4,2.8-3.5,4.2c-2.1,2.8-4,5.8-5.9,8.7c-0.3,0.4-0.4,1.4-0.1,1.7
	c0.3,0.3,1.2,0.4,1.7,0.3c4.1-1.4,7.2-4.3,9.7-7.7c2.5-3.3,1.6-6.8-1.8-9.2c-1.6-1.1-3.3-2-4.9-3c-0.9-0.6-1.6-1.4-2.4-2.1
	c1.6,0,3.2,0,4.9,0c0.3,0.4,0.4,0.9,0.8,1.2c3.6,3.4,4,3.3,6-1.2c0.6,0,1.3,0,1.9,0c-0.4,1.2-0.7,2.4-1.1,3.6
	c-0.2,0.9-0.8,2-0.5,2.6c1.3,2.6,2.8,5,4.3,7.5c0.1,0.2,1.4,0.1,1.5-0.2c1.8-4.3,3.5-8.7,3.6-13.5c0.6,0,1.3,0,1.9,0
	c0,1.4,0,2.8,0,5.3c2.4-2.2,4.1-3.8,5.8-5.3c2.6,0,5.2,0,7.8,0c3.5,3.1,4.6,7.1,3.9,11.6c-0.4,0.7-0.8,1.3-1,2
	c-1.9,6.2-6.2,10.1-11.9,12.8c-1.7,0.8-2.7,0.6-3.4-1.1c-0.2-0.5-0.3-1.1-0.6-2.1c-1,1.2-1.7,2.1-2.4,2.9c-3.9,1.4-5,2.8-4.7,7
	c0.1,2.4,0.8,4.7,1.3,7.8c2.3-3.3,3.7-6.1,3.4-9.4c-0.1-1.7,0-3.5,0-5.3c1.1,0,2,0.3,2,1.6c-0.1,2.4-0.3,4.8-0.5,7.2
	c-0.1,1.2-0.5,2.7,0,3.7c1.4,2.7,3.1,5.2,4.8,7.8c0.3,0.4,1.1,0.8,1.6,0.8c0.4-0.1,0.7-0.9,0.8-1.5c0.8-4.6,1.7-9.2-0.7-13.6
	c-0.3-0.5-0.3-1.4,0-1.9c0.4-0.5,1.2-0.8,1.8-1.1c0,0.4,0,0.9,0.1,1.3c0.1,0.3,0.3,0.6,0.5,0.9c0.1-0.3,0.3-0.6,0.3-0.8
	c-0.2-0.5-0.6-1-0.9-1.4c-0.1-0.6-0.4-1.2-0.4-1.9c0-0.5,0.4-1,0.6-1.6c0.5,0.3,1.2,0.5,1.4,1c0.6,1.3,0.9,2.7,1.4,4.1
	c0.3,0.7,0.9,1.2,1.3,1.9c0.6-0.5,1.4-0.9,1.8-1.5c2.3-3.3,3.1-6.9,2.4-10.9c-0.2-0.9-0.6-2.2-0.2-2.6c1.7-1.8,1.2-3.9,1.3-5.9
	c3.1-3.3,4.8-7.3,5.8-11.6c0.6,0,1.3,0,1.9,0c0,0.3-0.1,0.6-0.1,1c0,0.6-1.4,2.3,0.8,1.5c1.8-0.6,3.4-1.6,5.1-2.5c1.3,0,2.6,0,3.9,0
	c0.1,0.8,0.2,1.5,0.3,2.3c0.7-0.5,1.4-0.9,2.1-1.5c0.2-0.2,0.3-0.5,0.5-0.8c0.6,0,1.3,0,1.9,0c-0.2,0.6-0.1,1.4-0.5,1.8
	c-1.3,1.4-2.8,2.7-3.9,4.2c-2.1,2.8-4.1,5.7-6,8.5c-0.2,0.3,0.1,0.9,0.2,1.3c0.4-0.1,1,0,1.2-0.3c0.7-0.6,1.3-1.4,1.9-2.1
	c2.3-2.6,4.4-5.3,7.6-7c2.4-1.3,3.4-3.7,3.4-6.4c1.6,0,3.2,0,4.9,0c0,1.8,0.1,3.5,0,5.3c-0.1,2.3,0.2,4.7,2.4,5.9
	c2.5,1.4,4.6-0.6,6.6-1.8c1.7-1,1.6-2.7-0.2-3.8c-2.3-1.4-4.1-3.1-4.9-5.6c1,0,1.9,0,2.9,0c2,2.8,4,5.6,5.8,8.3
	c1.4-1.3,2.6-3.4,4.3-3.9c2.7-0.8,2.4-2.5,2.5-4.3c0.3,0,0.6,0,1,0c0.2,0.9,0.5,1.7,0.7,2.6c0.8-0.5,1.6-0.9,2.3-1.4
	c0.4-0.3,0.5-0.8,0.8-1.2c0.6,0,1.3,0,1.9,0c0.5,0.9-1.4,2.2,0.2,2.7c1.1,0.3,2.5,0.1,3.6-0.4c0.8-0.4,1.3-1.5,2-2.3
	c0.6,0,1.3,0,1.9,0c-1,5.4-4.3,9.5-7.8,13.6c2.4,0.6,3.8,0.4,5-2c1.9-4,4.5-7.8,6.7-11.7c0.6,0,1.3,0,1.9,0
	c-3.3,5.4-6.6,10.8-9.8,16.2c-0.8,1.3-1.3,2.9-1.7,4.4c-0.1,0.4,0.4,1.3,0.9,1.4c0.4,0.2,1.3-0.1,1.7-0.4c1.8-1.8,3.5-3.7,5.1-5.7
	c0.7-0.8,1.5-1.9,1.6-2.9c0.4-4.7,2.1-8.9,4.2-13c0.6,0,1.3,0,1.9,0c-0.3,1-0.7,2.1-1,3.1c-1.1,3.3-2.3,6.5-3.4,9.8
	c-0.1,0.3,0.1,1.1,0.3,1.2c0.3,0.2,0.9,0,1.3-0.2c0.6-0.4,1.3-0.9,1.7-1.5c2.4-4.1,4.7-8.3,7-12.4c0.3,0,0.6,0,1,0
	c-0.5,2.4-1.2,4.6-2.9,6.5c-1.2,1.4-2,3.2-2.7,5c-0.8,2,0.3,6.3,1.5,6.7c1.2,0.4,5-1.9,5.9-3.5c0.2-0.3,0.3-0.6,0.4-0.9
	c0.5-2.3,1.1-4.6,1.6-7c0.3-1.2,0.5-2.4,0.7-3.6c1,0.7,2.1,1.2,3.1,2c1.3,1,2.3,2.3,3.6,3.2c0.7,0.5,1.8,0.7,3.1,1.1
	c-2.6-3.9-4.8-7.2-9.1-8.2c-0.2-0.1-0.2-0.9-0.4-1.3c1.6,0,3.2,0,4.9,0c0.2,2.7,2.7,3.6,4,5.5c1.5,2.1,1.8-0.6,2.8-0.6
	c-0.3,2.9-0.6,5.8-1,8.7c-0.3,0.6-0.6,1.3-1,1.9c-0.1,0.1-0.3,0.1-0.4,0.2c-0.1,0.1-0.1,0.2-0.1,0.3c0.2-0.2,0.3-0.3,0.5-0.5
	c0.3-0.6,0.6-1.3,1-1.9c0.1-0.1,0.3-0.1,0.4-0.2c1.4-2.2,3.6-4.3,4.1-6.7c0.4-2-1-4.4-1.6-6.7c1.3,0,2.6,0,3.9,0c0,0.5,0.1,1,0,1.4
	c-0.8,3.4,1.2,5.5,3.6,7.3c0.6,0.5,1.8,0.6,2.6,0.4c0.3-0.1,0.6-1.4,0.5-2.1c-0.1-0.8-0.6-1.5-0.9-2.2c-0.6-1.6-1.3-3.3-1.9-4.9
	c0.6,0,1.3,0,1.9,0c0.4,0.5,0.8,1.1,1.2,1.6c0.2-0.5,0.5-1.1,0.7-1.6c1,0,1.9,0,2.9,0c-0.5,0.9-0.8,2.2-1.6,2.7
	c-1.8,1.2-0.8,2,0.1,3c1.2,1.3,1.5,0,2-0.7c1.1-1.7,3.4-2.5,3.5-5c1.9,0,3.9,0,5.8,0c-0.3,1.9-0.9,3.8-0.8,5.7
	c0,2.4-0.6,4.5-1.8,6.4c-1.3,2-2.7,4-3.9,6.1c-0.2,0.4,0.1,1.2,0.2,1.7c0.5-0.2,1.1-0.3,1.4-0.7c2.4-2.8,4.7-5.7,7.2-8.4
	c1.2-1.3,3.2-2,3.9-3.4c1.1-2-2-2.6-2.2-4.3c-0.1-0.4,0.1-0.9,0.2-1.4c0.4,0.1,1,0.1,1.1,0.4c1.7,2.7,3.4,5.4,5,8.1
	c4.9-2.8,3.7-5.6-0.7-7.8c-1.1-0.5-1.9-1.6-2.9-2.4c1,0,1.9,0,2.9,0c2.1,1.8,2.3,1.8,2.9,0c0.6,0,1.3,0,1.9,0c0.2,1.3-0.7,2.4,0.3,4
	c2,3,1.5,3.1-0.7,5.7c-2.2,2.5-4.2,5.2-6.4,7.8c-0.6,0.7-1.1,1.6-1.9,2.2c-4.8,3.3-5.4,8.3-5.9,13.6c1.2-1,1.9-1.9,2.8-2.4
	c2.4-1.3,4.1-2.9,4.1-6c0-1.4,0.4-2.9,1.2-4.1c3.8-5.8,7.7-11.5,12.9-16.2c1.1-0.9,2.3-1.7,4.1-3.1c0.1,2,0.5,3.4,0.1,4.6
	c-0.7,2.2,0.1,3.6,1.5,5.2c3.1,3.5,6.2,7,7.5,11.7c0.2,0.6,0.6,1.1,1,1.6c3.3,4,6.6,7.9,9.8,11.9c0.7,0.9,1.5,1.7,1.9,2.8
	c2.2,6.3,5.9,11.6,10.5,16.4c1,1,1.6,2.4,2.5,3.5c4,5.4,7.7,11.2,12.2,16.1c4.6,5.1,10.1,9.4,15.2,14.1c0.8,0.8,1.7,1.5,2.4,2.4
	c2.1,2.4,4.2,4.9,6.4,7.2c3.9,4.1,7.1,8.7,9,14.1c0.6,1.8,1.4,3.6,2.6,5.2c4.5,6,7.7,12.6,10.9,19.3c4,8.4,9.8,15.4,15.9,22.2
	c3,3.3,5.8,6.9,8.2,10.6c2.4,3.7,4.9,7.1,7.9,10.3c4,4.4,7.8,8.9,11.6,13.5c6.8,8.4,12.6,17.5,17.2,27.2c2.7,5.8,4.7,11.9,7,18
	c3.5,9.5,7.1,18.9,10.5,28.5c1.4,3.9,2.1,8,3.2,12c0.9,3.1,1.7,6.2,3.1,9.1c4.7,10,6.6,20.7,8.6,31.4c1.2,6.3,0.8,12.7,2.6,19
	c2,6.9,3.1,14,4.5,21.1c0.6,3.1,1.1,6.3,1.4,9.5c0.5,4.1,0.7,8.3,1.1,12.5c1.1,10.3,1.4,20.7,4.4,30.9c2.3,7.8,4,15.8,5.7,23.8
	c1.9,8.7,2.2,17.5,0.8,26.3c-1.2,7.3-3.2,14.4-5.1,21.5C685.3,487.1,685.2,489,684.9,490.9c-0.1,0.1-0.3,0.1-0.4,0.2
	c-0.1,0.1-0.1,0.2-0.1,0.3C684.6,491.2,684.8,491.1,684.9,490.9z M312.5,44.7c0.3-0.3,0.5-0.6,0.8-0.9c-0.2-0.1-0.3-0.2-0.5-0.3
	C312.7,43.9,312.6,44.3,312.5,44.7c-0.1,0.1-0.3,0.1-0.4,0.2c-0.1,0.1-0.1,0.2-0.1,0.3C312.2,45,312.3,44.9,312.5,44.7z M407.5,22.4
	c1.4-0.7,2.2-1.7,1.4-4.1C408.3,20.1,407.9,21.3,407.5,22.4c-0.1,0.1-0.3,0.1-0.4,0.2c-0.1,0.1-0.1,0.2-0.1,0.3
	C407.2,22.7,407.4,22.6,407.5,22.4z M64.1,268.8c-2.1,0.1-3,1.2-2.6,3.7C62.5,271,63.3,269.9,64.1,268.8c0.1-0.1,0.3-0.1,0.4-0.2
	c0.1-0.1,0.1-0.2,0.1-0.3C64.5,268.5,64.3,268.6,64.1,268.8z M371.6,144.6c2-0.4,3.8-1,4.8-2.9c0.1-0.1,0.3-0.1,0.4-0.2
	c0.1-0.1,0.1-0.2,0.1-0.3c-0.2,0.2-0.3,0.3-0.5,0.5C374.4,141.9,371.8,141.3,371.6,144.6c-0.3,0.3-0.6,0.7-1,1
	c-4.6,1.1-8.6,2.9-10.8,7.5c-1.2,2.4-2.8,4.7-4.1,7c-0.2,0.4,0.1,1.1,0.1,1.7c0.4-0.1,1-0.2,1.3-0.4c2.4-1.9,4.7-3.8,7-5.8
	c1.5-1.3,4.1-2.1,2.8-5.2c-0.2-0.3,0.5-1.1,0.9-1.6c0.9-1.1,1.9-2.2,2.8-3.3C371,145.3,371.3,144.9,371.6,144.6z M308.6,15.6
	c-0.1-0.1-0.1-0.3-0.2-0.4c-0.1-0.1-0.2-0.1-0.3-0.1C308.3,15.3,308.4,15.5,308.6,15.6c0.3,3.3,0,6.4-1.3,9.5
	c-0.7,1.7-1.1,3.4,0.1,5c0.3,0.4,1.1,0.5,1.6,0.5c0.1,0,0.6-0.9,0.4-1.2c-1.2-2.4-0.5-4.7,0.1-7c0.4-1.4,0.4-2.8,0.7-4.2
	C310.5,16.7,309.6,16.1,308.6,15.6z M152.4,11.7c-0.9,0.2-2,0.7-2.8,0.4c-2.2-0.8-3.3,0.1-4.2,1.9c-0.4,0.8-1.3,1.4-1.8,2.2
	c-0.3,0.5-0.3,1.1-0.4,1.7c0.6,0.1,1.3,0.5,1.8,0.3C148.2,17,150.4,14.5,152.4,11.7c0.1-0.1,0.3-0.1,0.4-0.2
	c0.1-0.1,0.1-0.2,0.1-0.3C152.7,11.4,152.6,11.6,152.4,11.7z M275.6,17.6c-2,0.1-3.4,1.3-3.7,3.2c-0.6,3.9-1.9,7.8-0.5,12.5
	c1.2-3,5.2-4.4,2.4-8.3c-0.3-0.5,0.1-1.5,0.3-2.3C274.5,20.9,275.1,19.2,275.6,17.6c0.1-0.1,0.3-0.1,0.4-0.2
	c0.1-0.1,0.1-0.2,0.1-0.3C275.9,17.2,275.8,17.4,275.6,17.6z M354.2,150.4c5.1-2.1,10.3-4.1,15.7-7c-2-0.6-3.3-1.1-4.7-1.4
	c-0.7-0.1-1.7-0.1-2.2,0.4C360,145,357.1,147.7,354.2,150.4c-0.4,0.1-0.8,0.2-1.3,0.3c0.1,0.2,0.2,0.3,0.3,0.5
	C353.5,151,353.9,150.7,354.2,150.4z M354.2,153.4c-1.4-0.1-3.4,0.3-4.1-0.4c-1.6-1.6-2.5-1-3.9,0c-2.4,1.8-5.5,2.8-7.2,6.2
	C345.1,159,349.7,156.4,354.2,153.4c3,0.9,3,0.9,4.7-2.9C357,151.6,355.6,152.5,354.2,153.4z M276.6,22.4c2.4-0.2,3.5-2,4.7-3.7
	c0.4-0.6,0.6-1.7,1.1-1.9c2.1-0.6,2.5-2.3,3-4c0.4-1.5,1.8-3.6,0.3-4.4c-1.9-0.9-2.7,1.6-3.6,2.9c-0.3,0.4-0.7,0.7-0.9,1.1
	C279.9,15.9,276.5,18.4,276.6,22.4c-0.1,0.1-0.3,0.1-0.4,0.2c-0.1,0.1-0.1,0.2-0.1,0.3C276.3,22.7,276.4,22.6,276.6,22.4z
	 M123.3,248.4c1,0,1.9,0,2.9,0.2c0.3,0.1,0.4,0.9,0.5,1.4c0,0.4-0.2,0.8-0.3,1.2c0.7-0.1,1.5-0.3,2.2-0.4c-0.9-3.4,2.1-2.9,3.8-3.6
	c4.3-1.8,8.8-2.8,14.2-3C141.3,241.8,130.1,244.1,123.3,248.4c-0.1,0.1-0.3,0.1-0.4,0.2c-0.1,0.1-0.1,0.2-0.1,0.3
	C123,248.7,123.1,248.6,123.3,248.4z M324.1,182.4c0.9-1.8,1.7-3.5,2.8-5.7c-4-0.3-6.8,1.6-9.3,3.3c-2.5,1.8-6.2,2.2-8.4,6.2
	c2.3-1,3.8-2.4,5.1-2.1c3.4,0.7,5.7-1,8.3-2.4C322.9,181.6,323.6,182.2,324.1,182.4c-0.3,0.7-0.6,1.3-1,1.9c-2.5-0.2-2,2.2-2.8,3.4
	c-2.3,3.6-4.3,7.5-6.4,11.3c-0.2,0.3-0.2,1,0,1.3c0.2,0.2,0.9,0.2,1.2,0.1c3.8-2.3,6.9-5.2,9.1-9c0.3-0.5,0.3-1.6,0.2-1.6
	c-3-1.1-1.2-3.5-1.4-5.3C323.4,183.7,323.8,183.1,324.1,182.4z M363.9,30.2c-1.9-0.4-3.6,1.6-5.5,0.3c-0.1-0.1-1,0.5-0.9,0.7
	c0.4,2.6,0.6,5.3,1.3,7.9c0.5,1.8,2.3,2.3,3.8,1.4c1.3-0.8,2.6-4.4,1.5-5.4C362.3,33.2,363.9,31.8,363.9,30.2
	c0.1-0.1,0.3-0.1,0.4-0.2c0.1-0.1,0.1-0.2,0.1-0.3C364.2,29.9,364,30,363.9,30.2z M244.6,230c1.6-0.6,3.2-1.5,4.9-1.8
	c3.5-0.7,4.7-3.2,5.5-6.1c-2.4,0.4-4.7,0.9-7,1c-1.2,0.1-1.6-0.8-0.9-1.9c0.3-0.4,0.6-0.9,0.9-1.3c-1-0.2-1.5,0.1-2,0.4
	C242.9,223.1,243.4,226.5,244.6,230c-0.1,0.1-0.3,0.1-0.4,0.2c-0.1,0.1-0.1,0.2-0.1,0.3C244.2,230.3,244.4,230.1,244.6,230z
	 M21.5,302.7c0.7-0.7,1.4-1.3,1.9-2c1.7-2.7,3.2-5.6,5.1-8.1c0.8-1,1.5-1.8,1.7-3.2c0.2-1.7,0.9-3.4,1.4-5.1
	c0.2-0.8,0.2-1.6,0.3-3.4C25.8,287.8,22.3,294.6,21.5,302.7c-0.1,0.1-0.3,0.1-0.4,0.2c-0.1,0.1-0.1,0.2-0.1,0.3
	C21.2,303,21.3,302.9,21.5,302.7z M116.5,263c-0.8,0.1-1.7-0.1-2.3,0.3c-2.1,1.2-5.1,1.6-3.7,5.4c0.2,0.6-1,1.9-1.7,2.6
	c-2,1.9-3,4.2-3.3,7.3c3.3-2,6.4-3.8,9.3-5.7c1.8-1.2,1.7-1.8-0.1-3.2c-1.3-1-1.3-2.2-0.7-3.3C114.6,265.1,115.6,264.1,116.5,263
	c0.1-0.1,0.3-0.1,0.4-0.2c0.1-0.1,0.1-0.2,0.1-0.3C116.8,262.7,116.7,262.8,116.5,263z M91.3,262c-1.9,0.9-3.6,2.2-5.6,2.7
	c-6.3,1.4-7.5,7-10.2,11.7c3.6-1,7-2.4,10.3-3.9c1.3-0.6,1.8-1.6,0.2-2.4c-1.7-0.9-1.6-1.8-0.4-2.9C87.5,265.4,89.4,263.7,91.3,262
	c0.4-0.5,0.9-1.1,1.3-1.6c-0.4-0.1-0.9-0.2-1.3-0.4c-4-4.8-9.4-3.2-13.4-0.5c-1.8,1.2-3.3,2.9-5.2,4.7c4.8,1.2,8.6-0.1,12.5-1.6
	c2.1-0.9,4.1-1.7,6.2-2.6C91.3,260.7,91.3,261.3,91.3,262z M73.8,273.6c1.5-2.1,3-4.1,5.1-7c-3.5,0.3-6.3-0.1-8.5,0.9
	c-2.8,1.2-5.6,3-7.1,5.9c-0.7,1.3-0.8,2.9-1.5,5.4c3.5-2.4,5.9-4.1,8.4-5.8c0.7-0.4,1.4-0.9,2.1-1.1
	C73.8,271.5,73.7,272.7,73.8,273.6c-6.2,2.6-6.6,4.2-1.8,8.4c0.5,0.4,0.9,0.9,1.5,1.1c0.9,0.3,2.1,1.7,2.8,0.2
	c0.5-0.9,0.1-2.4-0.3-3.6c-0.2-0.6-1.3-0.9-2-1.2c-1.3-0.6-1.5-1.5-1-2.7C73.5,275.2,73.6,274.4,73.8,273.6z M181.5,238.7
	c-7.6,2.2-12.9,7.3-17.5,13.8c4.2,0.5,7.3-1.7,10.5-3.2c1-0.5,1.8-1.7,2.5-2.8C178.6,244,180,241.3,181.5,238.7
	c0.1-0.1,0.3-0.1,0.4-0.2c0.1-0.1,0.1-0.2,0.1-0.3C181.8,238.4,181.7,238.6,181.5,238.7z M326,185.4c4.1-0.8,7.2-3.2,9.7-6.4
	c1.2-1.5,3-2.8,3.4-4.4c0.3-1.3-1.4-3-2.2-4.5c-1.6,1.1-3.5,1.8-4.6,3.1C329.3,176.7,326.8,180.6,326,185.4
	c-0.1,0.1-0.3,0.1-0.4,0.2c-0.1,0.1-0.1,0.2-0.1,0.3C325.7,185.7,325.9,185.5,326,185.4z M286.3,34c-0.9,0.7-1.7,1.4-2.6,2.1
	c-1.3,1-2.2,0.7-2.2-0.9c-0.1-3.2,0-6.4-0.2-9.6c0-0.8-0.8-1.5-1.2-2.2c-0.7,0.5-1.8,0.9-2.2,1.6c-0.6,1.1-0.5,2.6-1.2,3.5
	c-1.2,1.6-1,2.7,0.1,4.3c2,2.8,4.4,5.4,5.4,9c0.3,1.1,1.5,1.9,2.9,3.6C285.5,40.9,285.9,37.5,286.3,34c0.3-0.1,0.6,0,0.9-0.2
	c0.3-0.2,0.6-0.6,0.7-0.9c0-0.1-0.4-0.6-0.5-0.5c-0.3,0.2-0.7,0.4-0.9,0.7C286.3,33.4,286.3,33.8,286.3,34z M405.6,134
	c-1,0.5-2.1,0.9-2.9,1.7c-2.1,1.9-4.2,3.4-7.2,3.3c-0.6,0-1.4,0.3-1.7,0.7c-2.3,3.5-4.9,6.9-5.3,11.8c4.1-1.4,7.9-2.3,10.4-5.5
	C401.5,142.2,404.2,138.4,405.6,134c0.1-0.1,0.3-0.1,0.4-0.2c0.1-0.1,0.1-0.2,0.1-0.3C405.9,133.6,405.7,133.8,405.6,134z
	 M42.8,272.7c-3.3,0.9-5.6,2.8-6.9,6c-1.1,3-2.5,5.9-3.4,8.9c-0.8,2.7-1,5.6-1.3,8.5c-0.1,0.5,0.4,1.1,0.9,1.5
	c0.2,0.1,0.9-0.2,1.2-0.5c3.5-2.4,5-6.5,7.3-9.9c0.5-0.8,0.5-2.3-1-2.7c-2.1-0.6-1.9-1.8-1.1-3.3C40,278.3,41.4,275.5,42.8,272.7
	c0.1-0.1,0.3-0.1,0.4-0.2c0.1-0.1,0.1-0.2,0.1-0.3C43.1,272.3,43,272.5,42.8,272.7z M433.7,98.1c1.4,0,2,0.7,2,2.1
	c-0.1,3.9-0.2,7.9-0.2,11.8c0,0,0.2-0.1,0.5-0.2c0.7-0.3,1.4-0.5,2.1-0.8c-0.1,0.7,0.1,1.6-0.3,2.1c-1.8,3.1-2.5,6.2-1.5,9.7
	c3.7-3.5,8.5-9.8,8.7-13.1c0.2-2.9,1.5-4.3,3.9-5.2c1.8-0.7,2.4-2,2.2-3.8c-0.4-2.8-0.6-5.7-1.1-8.5c-0.5-2.7-1.8-4.6-5-4.3
	c2.3,6.3,2.4,12.5-1.7,18.2c-0.5,0.7-1.6,1.5-2.2,1.3c-0.7-0.2-1.3-1.3-1.5-2.2c-0.8-2.4-1.2-5-2.1-7.3
	C436.6,95.8,435.8,95.9,433.7,98.1c-1.4,0.8-2.7,1.7-4,2.5c-3.7,2.5-7.4,4.9-11,7.6c-0.7,0.5-1.3,2-1.1,2.8c0.3,0.8,1.7,1.1,2.6,1.6
	c0.2,0.1,0.6,0,0.9-0.1c5.8-1.7,10.5-4.5,11.7-11.2C433,100.2,433.4,99.1,433.7,98.1z M327.4,44.2c0.3-0.1,0.6-0.3,0.9-0.4
	c0.8,1.5,1.6,3,2.5,4.5c0.3,0.4,1,1,1.4,0.9c0.5-0.1,1.1-0.7,1.3-1.3c0.7-1.9,0-3.2-2.1-4.1c-1.5-0.6-3.3-0.7-3.5-2.8
	c-0.1-0.5,0.1-0.9,0.2-1.4c0.3,0.2,0.7,0.2,0.9,0.5c1.8,2.3,4.6,1.9,7,2.5c0.8,0.2,1.6-0.4,1.2-1.5c-1.2-2.9-2.5-5.8-3.8-9.1
	c-1.3,1.3-2.2,2.2-3,3.2c-0.4,0.5-0.9,1.5-1.2,1.4c-2.9-0.7-2,1.4-2.2,2.8c-0.6,3.5-1.1,6.9-1.9,10.4c-0.4,1.9-1.2,2-2.6,0.7
	c-0.9-0.9-1.6-2-2.4-3c-1.3-1.5-2.5-3.1-4-4.9c-1.6,3.1-3.1,5.6-4.1,8.3c-0.5,1.5-0.6,4.4,0.2,4.9c1.6,1,3.1-0.8,4.3-2.1
	c0.3-0.3,0.5-0.8,0.8-1.2c2-2.5,3-2.7,4.7-0.1c1.2,1.8,2.6,2.2,4.4,2.1c3-0.1,3.8-1.1,3-3.9C328.8,48.4,328.1,46.3,327.4,44.2z
	 M412.6,102c3.5,1.9,6,0.1,8.5-1.6c0.7-0.5,1.1-1.2,1.8-1.6c0.4-0.3,1.1-0.2,1.7-0.2c-0.1,0.6-0.1,1.4-0.4,1.6
	c-3.3,1.9-5.8,5.3-10.2,4.8c-0.6-0.1-1.3,0.3-1.7,0.7c-2.6,2.2-5.1,4.4-7.6,6.6c-0.4,0.4-0.4,1.1-0.6,1.7c0.6,0.2,1.2,0.5,1.8,0.5
	c3.2-0.2,5.8-1.7,8.1-3.8c2.8-2.6,5.5-5.5,8.8-7.4c3.2-1.8,3.8-4.2,4.2-7.4c0.3-2.8,1.2-5.6,1.9-8.4c0.2-0.8,0.5-1.6,0.8-2.4
	c-0.3-0.2-0.6-0.4-0.8-0.6c-1,1.2-2.2,2.4-3,3.7c-2,3.2-4.7,5.5-7.7,7.8C415.9,97.6,413,98.7,412.6,102z M469.1,51.9
	c-2.2,1.4-2.7,2.8-2.6,5.3c0.1,5.6-1,11.1-2.7,16.5c-0.2,0.6-0.7,1.5-1,1.5c-1.9,0-1.8,1.2-1.8,2.5c-0.1,1.4-0.3,2.8-0.6,4.2
	c-0.7,3.6-1.4,7.1-2.2,10.6c5.7-4.7,10.6-9.6,7.7-17.8c-0.2-0.4-0.1-1-0.1-1.4c0-0.3,0.2-0.6,0.4-0.9c0.4,0.2,0.8,0.4,1.2,0.7
	c0.3,0.3,0.6,0.7,0.9,1.2c0.4-1.8,0.9-3.4,1.2-5.1c1.2-5.6,2.8-11.1,0.1-16.7C469.4,52.4,469.3,52.2,469.1,51.9z M461.2,50.6
	c-0.1,1.1-0.3,1.7-0.3,2.3c0.5,6.8-1.4,12.7-6.6,17.3c-0.9,0.8-1.6,1.6-0.2,2.7c0.4,0.3,0.5,1.5,0.2,2c-1.3,1.8-2.7,3.5-4.2,5.3
	c-1.4,1.6-3.2,2.9-4.4,4.8c4.1,1.6,7-1.6,10.5-1.9c0.3,0,0.7-0.7,0.9-1.1c0.6-2.3,1.3-4.6,1.7-6.9c0.1-0.7-0.7-1.6-1.2-2.4
	c-0.3-0.5-0.9-0.9-1.3-1.4c-0.1-0.2-0.1-0.6,0.1-0.9c0.2-0.2,0.6-0.5,0.8-0.4c0.8,0.2,1.5,0.6,2.2,0.9c2.3,0.8,2.9,0.5,3.3-1.7
	c0.5-2.5,1.1-5,1.6-7.5C465.3,57.7,464.4,54.1,461.2,50.6z M319.8,18.3c0.2,1.6,0.3,3.2,0.5,4.7c0.2,1.1,0.9,1.2,1.8,0.8
	c3.5-1.5,6.3-3.7,8.3-7.1c1.5-2.5,1.2-5.3,1.9-7.9c0.8-3,0.2-4.4-2.2-6.2c-1.3-0.9-2.3-0.9-3.2,0.6c-1.3,2.4-2.5,4.9-4.1,7
	C320.9,12.7,320.1,15.4,319.8,18.3z M390.6,141.3c-2.9,0.5-5.6,1.3-8.2,1.3c-4.6,0-7.9,2.4-10.8,5.5c-1.1,1.2-0.1,1.9,0.9,2
	c1.2,0.2,2.6,0.1,3.8-0.2c2-0.5,4-1.3,6-1.9c1.1-0.3,2.7-2,3.3-0.5c0.7,2-1.6,1.6-2.8,2c-1.6,0.6-3.1,1.4-4.7,2.1
	c1.1,1.6,2,3.2,3.2,4.7c0.7,0.8,1.8,1.4,2.8,1.9c0.8,0.4,2.4,0.7,2.5,0.5c0.7-1.2,1.2-2.5,1.3-3.9c0-0.8-1.1-1.5-1.5-2.4
	c-0.3-0.7-0.5-1.6-0.3-2.2C387.4,147.3,389,144.3,390.6,141.3z M285.8,213.5c1.2-0.1,2.2,0,3-0.4c1.6-0.7,3.2-1.6,4.6-2.5
	c1.5-1,2.9-2,4.1-3.3c1.2-1.4,2-3.2,3.2-4.7c1-1.3,2.5-2.3,3.3-3.7c0.4-0.7,0.2-2.3-0.3-3c-0.9-1.2-2.3-0.9-3.3,0.1
	c-1.6,1.6-3.5,2.8-5.9,3c-0.6,0-1.4,0.3-1.7,0.8C289.8,203.9,286.7,207.9,285.8,213.5z M662.1,496.8c-11.6,3.4-12.1,3.6-19.7,10.2
	c-0.4,0.4-0.5,1.1-0.8,1.6c0.6,0.2,1.1,0.4,1.7,0.6c0.1,0,0.3,0,0.5,0c5.5-1.7,11-0.6,16.5-0.7C660.9,504.7,661.4,501,662.1,496.8z
	 M426.8,28c6.5-2,11.3-6,15.4-11c1-1.2,1.6-2.8,1.8-4.3c0-0.5-1.9-1.2-3-1.9c-0.3-0.2-0.5-0.5-0.7-0.7c-2.3-1.7-2.5-1.7-4.1,0.6
	c-0.9,1.3-1.6,2.7-2.4,4.1c-0.4,0.7-0.5,1.7-1.1,2.1C428.8,19.5,428.5,24.1,426.8,28z M481.6,39.2c0.5,0.3,0.9,0.4,0.9,0.6
	c0.3,2.8,2.3,5,2.4,8c0.1,2.1,1.5,4.2,2.5,6.2c0.6,1.2,1.5,1.1,2.2,0.1c1.4-2,2.6-4,1.7-6.6c-0.9-2.7-1.7-5.5-2.3-8.3
	c-0.3-1.2-0.5-1.9-1.9-2.3c-1.3-0.3-2.5-1.3-3.6-2.1c-1-0.7-1.8-1.5-3.2-2.7c0.3,6.1-1.8,11.5,0.7,17.1
	C484,46,480.1,42.6,481.6,39.2z M482.6,75.8c0.4-1.6,0.4-2.8,1-3.7c1.7-2.7,2-5.3,0.1-8.1c-0.4-0.6-0.4-1.5-0.5-2.3
	c0-0.4,0.4-0.8,0.6-1.2c0.4,0.4,1.2,0.7,1.2,1.1c0.3,3.4,2.5,5.5,4.8,7.5c0.4,0.4,1.6,0.4,2.1,0.1c2.6-1.6,2.5-7.7,0-9.3
	c-0.2-0.1-0.6-0.2-0.9-0.1c-2.1,0.9-2.9-0.9-3.8-2.1c-0.9-1.3-1.4-2.9-2.2-4.3c-0.5-0.9-1.6-2.5-1.9-2.4c-1.8,0.8-0.5,2-0.2,3.2
	c0.1,0.4,0,1,0,1.4c-0.2,2.4-0.7,4.7-0.7,7.1c0,2.5-0.3,4.8-2,6.7c-0.9,1-0.9,2-0.1,3C480.9,73.5,481.6,74.4,482.6,75.8z M492.8,54
	c1.2,4.5,1.8,8.2,3.1,11.7c1.3,3.5,2.3,7.1,3.2,10.7c6-2,6.1-2.3,6.4-8c0.2-3.3-1.4-6.6-0.2-9.9c0.1-0.2-0.5-0.6-0.9-0.8
	c-0.1-0.1-0.6,0.3-0.6,0.6c-0.1,0.4-0.1,1-0.2,1.4c-0.5,2.7-1,3-3.4,1.7c-1.1-0.6-2.2-1.4-3.1-2.3C495.8,57.8,494.7,56.3,492.8,54z
	 M463.5,35.5c0.1,4.6,0.2,8.7,0.4,12.9c0,0.6,0.1,1.3,0.4,1.9c0.5,1.2,1.9,1.4,2.7,0.3c2.3-3,4.1-6.5,3.4-10.2
	c-0.8-4.7-1.2-9.2-0.1-13.8c0.1-0.2-0.2-0.8-0.3-0.8c-0.4-0.1-1.1-0.1-1.3,0.1c-1.3,1.8-2.4,3.8-3.8,5.5
	C463.7,32.8,462.1,33.9,463.5,35.5z M418.4,29.2c-9,3.8-13.1,18.8-8.2,26.7c2.4-2,4.6-4.3,4.9-7.4c0.5-4.1,0.1-8.3-1.9-12.1
	c-0.8-1.5-0.7-1.5,1.1-1.9c0.7-0.1,1.6-0.3,1.9-0.7C417.1,32.3,417.7,30.7,418.4,29.2z M395,128.3c0.2,0.1,0.3,0.2,0.5,0.4
	c-1.6,1.9-3.1,3.8-4.7,5.6c-0.1,0.1-0.2,0.3-0.3,0.3c-0.9,0.3-1.9,0.5-2.7,1c-1.4,1-2.8,2.1-4,3.4c-0.7,0.8-0.1,1.5,0.9,1.6
	c0.8,0,1.6-0.1,2.3-0.4c7.7-2.9,11.5-9.2,14.4-16.2c-3,0.4-5.7,0.6-8.3,1.3c-1.8,0.5-3.7,1.3-5,2.5c-1.7,1.6-2.9,3.7-4.5,5.8
	c0.8,0.1,1.5,0.4,2,0.2C388.8,132.1,391.9,130.2,395,128.3z M412.6,113.7c-7.8,5.8-11.2,14.4-15.6,23c1-0.2,1.5-0.2,1.8-0.5
	c4.9-3.4,9-7.5,12.6-12.3C413.9,120.7,415.2,117.8,412.6,113.7z M418,139.1c1.2-0.6,2-0.8,2.5-1.3c3.2-3.4,6.2-6.9,9.6-10.2
	c2.8-2.7,3.6-5.9,4.1-9.5c0.1-0.4,0-1.2-0.2-1.2c-0.5-0.2-1.4-0.4-1.7-0.1c-1.4,1.1-2.6,2.4-3.9,3.6c-5,4.6-7.8,10.5-10.6,16.5
	C417.5,137.4,417.9,138.1,418,139.1z M483.4,14.1c-1.8,2.1-3.5,4.1-5.2,6.2c-0.3,0.4-0.6,1.3-0.4,1.7c2.3,4.6,3.9,9.8,9,12.5
	C488.6,25.4,487.8,21.1,483.4,14.1z M401.5,42.7c0.7-0.4,1.2-0.6,1.5-0.9c1.9-1.9,4-3.7,5.7-5.8c1.3-1.6,3.1-3.6,2.9-5.3
	c-0.3-2.3,0.6-4,1.3-5.9c0.2-0.5,0.2-1.5-0.1-1.7c-0.6-0.4-1.5-0.7-2.2-0.5c-0.9,0.2-1.7,0.9-2.4,1.5c-3.6,3.2-5.6,7.3-6.5,11.9
	c-0.3,1.7-0.7,3.4-1,5.1C400.8,41.6,401.3,42.1,401.5,42.7z M381.5,34.4c2.5-2,5.1-3.1,6.2-5c1.9-3.1,3-6.7,4.3-10.1
	c0.8-2.2-0.3-4-2.1-4.5c-2.1-0.6-3.7,0.1-4.5,2.4c-1.4,4.2-2.7,8.5-3.9,12.8C381.3,31.1,381.5,32.4,381.5,34.4z M168.6,243.1
	c-4-2.8-7.8-0.8-11.4-0.8c-3.4,0-6.8,1.4-9.6,4.9c3.1,1.1,5.9,2.6,8.7,2.9c2.5,0.3,5.4-0.3,7.6-1.5
	C165.8,247.6,167,245.1,168.6,243.1z M154.9,2.3c-0.5,1.7-1.3,3.3-1.3,5c-0.1,2,0.7,0.1,1.2,0.1c0.5,0,1.3,0.4,1.3,0.6
	c-0.2,1.1-0.6,2.1-0.9,3.2c-1.1,5.2-1.9,10.3-0.4,15.7c5.4-3.2,5.4-8.7,6.1-13.3C161.4,9.2,159.2,5,154.9,2.3z M298,38.2
	c0.4,0.1,0.7,0.3,1.1,0.4c1.4-1.9,3.3-3.6,4.1-5.7c1.5-4,2.2-8.3,3.5-12.5c0.7-2.3,0.1-3.9-1.7-5.2C298.5,21.7,297.6,29.7,298,38.2z
	 M250.5,220.2c0.2,0.3,0.5,0.6,0.7,0.9c3.2-2,6.5-4,9.7-6c1.5-0.9,3.1-2.1,4.7-2.4c2.2-0.4,3.8-1.2,4.9-3.3c1-1.8,3.2-2.8,4.2-5.3
	C264.6,207.3,255,210,250.5,220.2z M369.6,33.1c3.7-0.9,7.5-3.2,11.1-5.8c0.2-0.2,0.4-0.5,0.5-0.8c0.6-2.1,1.2-4.3,1.8-6.4
	c0.3-1.1-0.4-1.5-1.3-1.3c-0.5,0.1-0.9,0.3-1.3,0.5c-4,2.9-7.9,5.9-11.8,8.9c-0.9,0.7-1.6,1.6-2.3,2.5c-0.8,1.1-0.2,2.2,1.1,2.4
	C367.8,33.1,368.3,33,369.6,33.1z M203,234.9c0.8,0,0.5,0,0.2,0c-1.8,0.1-4.9,2.2-4.7,3.4c0.2,2.2,2.3,2.4,3.9,3
	c0.4,0.2,0.9,0.2,1.4,0.3c3,0.3,5.9,0.9,8.9,0.8c1.8-0.1,3.5-1.2,5.2-2.1c0.4-0.2,0.5-1.7,0.2-2.1c-0.8-0.9-1.8-2.1-2.9-2.2
	C211.4,235.4,207.8,235.3,203,234.9z M427.1,30.6c0.6,0.6,0.9,1.3,1.4,1.5c3.1,1.3,3.6,3.8,3.3,6.7c-0.1,0.8,0,1.6,0,2.4
	c-0.2,2.6,0.7,4.7,2.5,6.5c0.8,0.8,1.5,1.7,2.2,2.5c1.1,1.2,2.3,1.1,2.7-0.4c0.4-1.7,0.3-3.5,0.8-5.2c0.6-1.8-0.2-3.1-1-4.5
	c-0.7-1.1-1.5-1.3-2.8-0.6c-1.8,1-2.5,0.6-2.6-1.4c-0.1-3.6,0-7.2,0-10.9C431.6,28.4,429.5,29.5,427.1,30.6z M226.6,231.5
	c-1.2-3-3.3-5.1-6.2-5.6c-3.3-0.6-6.7-0.5-10-0.4c-1.4,0-2.2,1.9-1.4,2.9c1.5,1.9,2.9,4,5.8,4.6C219,233.9,222.8,233.1,226.6,231.5z
	 M395.2,33.2c0.9-0.6,1.8-1,2.5-1.6c3.6-3.1,6.4-6.7,8.2-11.1c0.5-1.2,2.4-2.5,0.7-3.7c-1.4-1-2.6,0.8-3.5,1.8
	c-2.8,2.8-5.5,5.8-9.5,7c-1.1,0.3-2,1.6-2.8,2.5c-0.3,0.4-0.5,1.5-0.2,1.7C392,31,393.6,32.1,395.2,33.2z M377.2,12
	c-0.1-0.2-0.1-0.7-0.3-0.7c-0.4-0.1-1-0.2-1.3,0.1c-5.3,3.4-9.9,7.6-13.5,12.8c-0.5,0.6-0.8,1.4-0.9,2.2c-0.2,1.1,0.1,1.9,1.5,1.5
	c2.9-0.7,5.1-2.6,7.5-4.1C374.7,20.9,376,16.6,377.2,12z M350.4,2.1c-1.7,0.7-2.6,1.4-3.7,1.6c-3.4,0.6-5.6,3-7.8,5.3
	c-2,2-2.2,4.6-2.7,7c-0.3,1.4,1.3,2.6,2.4,1.9c4.7-2.9,8.8-6.4,10.9-11.7C350,5.2,350.1,3.9,350.4,2.1z M403.3,143.5
	c4.2,0,7.6-1.6,9.9-4.5c2.8-3.4,5.2-7.3,7.3-11.3c0.8-1.5,0.3-3.7,0.3-5.6c0-0.1-1.3-0.4-1.5-0.2c-0.7,0.8-1.4,1.8-1.8,2.8
	c-1,2.5-2,5.1-2.9,7.6c-0.5,1.4-0.6,3.1-2.7,1.9C408.8,137,403.7,137.8,403.3,143.5z M419.5,64.6c1.7-3.1,3.7-5.5,4.3-8.1
	c0.7-3.1,0.4-6.4-1.1-9.4c-0.6-1.2-1.7-2.1-2.6-3.1c-0.9,1.1-1.9,2.1-2.6,3.3c-0.3,0.4-0.2,1.3,0.1,1.8c0.8,1.5,0,2.7-0.1,4.1
	C417.3,56.8,416.2,60.6,419.5,64.6z M205.4,260.5c3.9-3.8,4.7-8.6,5.1-13.5c0.2-2.2-1.4-3.1-3.4-2.1c-1.4,0.7-2.7,2-4.1,2.3
	c-1.9,0.5-2.4,1.6-2,3.1C201.9,254,202.6,257.7,205.4,260.5z M446.3,72c1.5-0.3,2.2-0.3,2.9-0.6c6.2-2.8,10-9.1,9.7-15.9
	c0-0.9-0.4-1.8-0.6-2.7c-0.8,0.4-1.7,0.8-2.4,1.3c-0.6,0.5-1.2,1.1-1.5,1.8C451.7,61.1,449.2,66.2,446.3,72z M180.3,245.4
	c3.9,0.2,7.6,0.3,11-2.2c1.5-1.1,5-0.3,3.3-4.1c-0.1-0.3,0.7-1,1.1-1.5c0.4-0.6,0.7-1.3,1-2c-0.9-0.2-1.8-0.7-2.7-0.6
	c-6.1,0.9-10.6,4.1-13.8,9.3C180.1,244.5,180.3,244.9,180.3,245.4z M501.8,55.1c-0.9-4.1-1.9-8.3-2.8-12.5c-0.1-0.3-0.2-0.7-0.4-0.8
	c-0.5-0.2-1.2-0.6-1.6-0.4c-4.3,2.6-5.9,8.1-2.1,11.7c1,1,1.6,2.4,2.6,3.4c1,1,2.2,1.6,3.4,2.4C501.2,57.7,501.5,56.5,501.8,55.1z
	 M324.9,4.1c-3.9,1.3-7.6,3.2-9.6,6.6c-1.8,3.1-2.6,6.8-3.7,10.3c-0.2,0.6,0.5,1.7,1.1,2.3c1,1.1,2.4,0.5,3-0.3
	c1.1-1.3,2.2-2.9,2.4-4.5c0.4-4.2,1.5-7.8,4.5-10.9C323.5,6.7,324.1,5.3,324.9,4.1z M362.6,138.3c5.5,2.6,5.5,2.5,9.5,1.7
	c1.4-0.3,2.9-0.2,4.3-0.4c1.7-0.3,3.5-0.5,5.1-1.1c1.7-0.6,1.7-1.3,0.4-3c-0.3-0.4-0.6-0.9-0.5-1.3c0.9-2.9-0.9-2.5-2.4-2
	C373.7,134.2,368.5,136.2,362.6,138.3z M478.3,35.6c-0.5-4.1-1.4-8.2-3.3-11.9c-0.6-1.1-1.9-1.1-2.1,0.1c-0.6,2.6-1.6,5.4-1.2,7.9
	c0.6,3.5,1.8,6.9,0.9,10.6c-0.3,1.1,0.9,1.6,1.9,0.7C476.9,41.1,478.6,38.8,478.3,35.6z M392.8,42.6c-0.4-3.4-0.5-5.9-0.9-8.4
	c-0.2-1.5-2.5-2.9-3.6-2.4c-3.2,1.2-4.8,5.2-3.2,8.5c0.8,1.6,1.7,3.1,2.7,4.5c0.9,1.2,0.7,3.7,2.7,3.4c2-0.3,1.3-2.7,1.9-4.1
	C392.6,43.3,392.8,42.6,392.8,42.6z M478.7,51.8c-0.1,0-0.3-0.1-0.4-0.1c0-0.5,0.1-1,0-1.4c-0.3-2,0.8-4.2-1.1-5.9
	c-1.8,0.9-3.7,1.7-5.4,2.7c-0.5,0.3-1,1.4-0.9,2c0.7,3.9,1.4,7.8,3.2,11.4c0.3,0.6,1.1,1,1.6,1.5c0.5-0.6,1.3-1.1,1.4-1.8
	C477.8,57.4,478.2,54.6,478.7,51.8z M424.4,31.3c-0.5,1.8-1,3.1-1.3,4.5c-0.4,1.8-1.4,3.7-1,5.3c0.4,1.7,1.9,3.3,3,4.8
	c0.7,1,1.8,1.7,2.7,2.5c0.6-1,1.5-2,1.7-3.2c0.5-2.8,1.6-5.9,0.8-8.4C429.6,34.6,426.6,33.2,424.4,31.3z M427.3,10.9
	c-0.3,0.1-0.8,0.1-1.1,0.4c-4.3,3.7-7.9,8-10.6,13c-0.3,0.6,0.3,1.8,0.4,2.7c0.7-0.3,1.4-0.5,2.1-0.9c1.4-0.8,2.7-1.8,4-2.6
	c3.9-2.2,5.6-6.1,7.3-9.9C430,12.2,428.9,10.8,427.3,10.9z M446.4,67.5c-3.6,2-4.7,3.1-4.7,6.1c-0.1,2.5-0.9,4.7-2,6.9
	c-0.7,1.3-1.1,2.7-1.5,4.1c-0.1,0.5,0,1.5,0.3,1.6c0.5,0.2,1.5,0.1,1.8-0.2c1.1-1.7,3.1-2.1,4.5-3.3c2.9-2.4,5.6-5.1,6.2-9.4
	c-1.8,0.6-3.4,1.2-4.9,1.4c-1.6,0.3-2.7-1.3-2-2.8C444.6,70.5,445.4,69.2,446.4,67.5z M259.5,247.2c1.8-1.4,3.8-2.4,5-4
	c1.8-2.4,3.1-5.2,4.5-7.9c0.4-0.9,0.4-2.1,0.4-3.2c0-0.9-0.1-1.8-0.2-2.7c-0.8,0.6-1.6,1.3-2.4,1.9c-1.1,0.9-2.3,1.7-3.4,2.5
	c-0.7,0.6-1.8,1.1-2,1.9C260.1,239.3,258.3,242.8,259.5,247.2z M362.1,5.2c-1.3,1-2,1.6-2.8,2.1c-5.1,2.9-8.2,7.5-11.3,12.2
	c-0.2,0.3-0.2,0.8-0.2,1.3c0.4-0.1,0.8-0.3,1.2-0.4c0.3-0.1,0.6-0.4,0.8-0.4c5,0.2,5,0.2,7.4-2.6c1.9-2.1,4.5-3.6,3.2-7.1
	c-0.1-0.3,0.8-1,1-1.5C361.7,7.8,361.8,6.8,362.1,5.2z M50.8,287.5c0.3,0.2,0.6,0.4,0.9,0.5c1.1-1.3,2.2-2.7,3.4-4
	c3-3.4,4.2-7.4,4.1-11.9c0-0.7-0.5-2-0.8-2c-0.8,0-2,0.2-2.5,0.8c-4.8,5.4-5.5,7.5-5.3,15.2C50.7,286.6,50.8,287,50.8,287.5z
	 M391.7,5.1c0-0.1,0-0.2-0.1-0.4c-2.6,0.5-5.3,0.9-7.9,1.6c-1.7,0.4-2.8,1.7-3.1,3.3c-0.2,1-0.1,2.6,0.6,3.1c0.8,0.7,2.5,1,3.4,0.6
	c1.3-0.5,2.4-1.4,3.9-0.7c0.4,0.2,1.3-0.2,1.7-0.6c1.8-1.6,3.5-3.3,5.1-5.1c0.6-0.7,0.3-1.6-0.7-1.7C393.6,5,392.6,5.1,391.7,5.1z
	 M428.4,63.5c1.2-0.8,1.7-1.2,2.2-1.5c8-6.2,9.2-6,0.6-14C427.1,52.3,427.6,57.5,428.4,63.5z M220.7,235.9c0,0.3,0,0.5,0,0.8
	c1.4,0.3,2.7,0.8,4.1,1c2.7,0.4,5.4,0.7,8.1,0.8c0.7,0.1,1.6-0.2,2.2-0.6c2-1.6,4-3.3,5.9-5c0.7-0.7,0.6-1.7-0.4-1.8
	c-1.8-0.2-3.6-0.5-5.3,0C230.3,232.5,225.5,234.3,220.7,235.9z M58,263.2c-7.6,2.7-15.7,11.5-16.5,18.4c3.6-2.6,7.2-4.6,9.8-7.5
	C54,271,55.7,267.1,58,263.2z M48.3,279.7c-3.3,1.5-5.6,3.1-5.6,6.9c0,1.3-1.2,2.6-1.6,4c-0.5,2-1,4-1.2,6c-0.1,0.6,0.5,1.3,0.8,2
	c0.5-0.3,1.3-0.4,1.6-0.9C46.1,292.4,49.7,287.2,48.3,279.7z M374.6,43.8c0,0.6,0,1.2,0,1.8c0.2,1.9,0.6,2.1,2.4,1
	c0.3-0.2,0.5-0.4,0.8-0.6c5.2-3.4,5.6-4.8,2.9-10.4c-0.3-0.7-0.3-1.6-0.7-2.3c-0.4-0.8-1.2-1.9-1.7-1.9c-1.2,0.1-2.5,0.6-2.6,2.3
	C375.3,37.1,374.9,40.4,374.6,43.8z M359.4,173.1c-0.6-2.4-1.1-4.8-1.8-7c-0.4-1.2-1-1.9-2.8-1.7c-1.8,0.2-2.7,0.9-3.3,2.2
	c-1.6,3.6-1.2,5.6,1.7,8.5c1.3,1.3,2.7,3.4,4.6,2.6C358.8,177.4,358.9,174.8,359.4,173.1z M455.5,2c-1.9,2.3-3.8,4.2-5.2,6.5
	c-1.9,3.1-3.5,6.5-5.2,9.7c-0.2,0.5-0.3,1.6-0.1,1.7c0.7,0.3,1.5,0.6,2.2,0.4c0.7-0.2,1.5-0.7,2-1.3c1.5-1.9,3-3.8,4.2-5.9
	C455.2,9.9,456.9,6.6,455.5,2z M338.6,178.7c-1.3,1.5-1.9,2.5-2.8,3.1c-3.4,2.6-4.1,6.7-5.7,10.3c-0.3,0.7,0.1,1.9,0.6,2.5
	c0.2,0.3,1.5,0,2.2-0.3c1-0.5,1.9-1.1,2.8-1.8c1.9-1.7,3.7-3.5,5.7-5.4C338.5,185,338.5,182.1,338.6,178.7z M442.1,104.4
	c0.5-1,1.1-1.9,1.5-3c1.3-4.3,1.5-8.5-0.9-12.5c-0.3-0.5-0.8-1.1-1.3-1.2c-3-0.4-6,3.1-4.4,5.6C439.1,96.8,440.5,100.3,442.1,104.4z
	 M268.4,214.5c-0.4,0.3-2,0.9-2.4,2c-1.5,3.5-2.7,7.2-3.7,10.8c-0.2,0.7,0.3,2.1,0.9,2.3c0.7,0.3,1.8,0,2.7-0.3
	c0.5-0.2,0.7-1,1.1-1.5c2.8-3.2,2.6-7.5,4.1-11.1C271.7,214.9,271.3,214.5,268.4,214.5z M252,229.2c-3.9,2.2-7.5,4-10.9,6
	c-1.3,0.8-2.4,2.1-3.5,3.3c-0.3,0.3-0.6,1.1-0.5,1.2c0.4,0.4,1,0.8,1.5,0.8c1.1,0.1,2.3,0.1,3.3-0.2c2.3-0.6,4.5-1.6,6.8-2.3
	c1.7-0.5,2.8-1.2,2.6-3.2C251.3,233.2,251.7,231.5,252,229.2z M339.7,26.8C339.7,26.8,339.7,26.8,339.7,26.8c0,1.6,0,3.2,0.1,4.8
	c0.1,1.3,1,1.6,1.9,0.7c1.6-1.5,3.4-3,4.7-4.8c0.6-0.8,1-3,0.6-3.4c-1.9-1.5-1.6-3.8-2.3-5.6c-0.6-1.6-1.1-1.6-2.3-0.9
	c-1.8,1.1-2.5,2.8-2.7,4.8C339.6,23.9,339.7,25.3,339.7,26.8z M163.4,20.1c4.5-2.3,7.7-5.3,8.3-8.6c0.5-3,1.6-5.7,3.9-8.2
	C168.4,4.5,162.9,12.2,163.4,20.1z M189.1,232.7c7.1,0,13.5,0,20.4,0c-1.1-1.3-2.1-2.1-2.7-3.1c-1.3-2.3-3.2-3-5.6-2.5
	c-2.9,0.6-5.9,1.3-8.7,2.4C191.4,229.9,190.6,231.3,189.1,232.7z M271.4,225.3c0.1,0,0.2,0,0.3,0.1c0,0.8-0.1,1.6,0,2.4
	c0.2,0.7,0.7,1.3,1,1.9c0.5-0.4,1.1-0.6,1.5-1.1c2.7-3.3,3.9-7.4,5-11.4c0.3-1,0-2.2-0.2-3.3c-0.1-0.4-1.2-0.9-1.4-0.7
	c-2,1.3-4.9,1.7-5,5.1C272.6,220.7,271.9,223,271.4,225.3z M318,187.3c-3.7,0.3-7.3,0.6-10.9,1c-2.4,0.3-4.8,0.6-7.1,1
	c-0.6,0.1-1,0.7-1.5,1c0.5,0.6,0.8,1.3,1.4,1.6c3.7,2.1,7.5,2.1,11.6,1C314.7,192.1,316.9,190.3,318,187.3z M504.6,53.6
	c-0.3-1.5-0.9-3-0.9-4.6c-0.2-3,0.7-6.3-0.3-8.9c-1.1-2.8-3.9-5-5.9-7.5c-2.8-3.7-5.5-7.5-8.4-11.6c0.4,2.8,0.6,5.3,1,7.8
	c0.1,0.7,0.7,1.8,1.3,1.8c2.5,0.4,3.2,2.6,4.5,4.1c1.5,1.7,2.2,4,4.9,4.4c0.3,0.1,0.8,1,0.7,1.5C500.8,45.2,502.8,49.4,504.6,53.6z
	 M309.7,200c-0.2-1.1-0.2-1.9-0.6-2.6c-0.2-0.5-0.9-0.9-1.5-1c-0.2-0.1-0.9,0.5-1,0.8c-1.4,4.5-6,7.7-5,13.2
	c0.3,1.5-1.8,3.2,0.1,4.8c1.2-1.2,2.6-2.3,3.4-3.8C307.3,207.8,308.8,203.9,309.7,200z M184.2,248.5c-6.7-0.6-10.3,3.9-14.5,7.1
	c-0.2,0.2-0.4,0.5-0.4,0.8c-0.1,0.9-0.1,1.9-0.1,2.8c0.9,0,1.8,0.1,2.6-0.1c1.5-0.5,3-1,4.3-1.7
	C179.6,255.5,181.9,252.4,184.2,248.5z M76.4,257.5c-9.1,0.1-15,3.4-18.3,10.3C65.3,266.3,71.7,264,76.4,257.5z M271,2
	c-1.7,0.8-2.5,1.2-3.4,1.6c-5,2.2-9.6,5.1-13.1,9.4c-0.4,0.5-0.5,1.3-0.7,2c0.8,0.1,1.6,0.5,2.2,0.3c1.3-0.4,2.5-1.3,3.8-1.8
	C265.1,11.7,268.6,8.1,271,2z M141.2,32.3c2.5-0.3,4.1-0.1,5.1-0.7c2.1-1.4,3.9-3.2,5.7-4.9c0.2-0.2,0.2-0.6,0.2-0.9
	c0-2.6,0-5.1,0-7.7c0-0.4-0.4-1-0.7-1.1c-0.4-0.1-1,0.1-1.2,0.4c-0.6,0.9-1.2,1.8-1.7,2.8c-0.6,1.1-1,2.3-1.7,3.3
	C145.3,26.1,143.5,28.7,141.2,32.3z M237.7,243.4c-3.2-1.8-6.2-2.4-9.6-1c-1.7,0.7-3.7,0.9-5.6,1.1c-1.8,0.2-3.3,0.9-4.9,2.2
	c3.8,1.8,7.4,0.9,10.9,1.3C232.7,247.6,235.1,246.2,237.7,243.4z M451.1,26.8c-0.8,0.7-1.5,1.3-2.2,1.8c-0.2-0.8-0.5-1.6-0.7-2.5
	c-0.1-0.3,0.1-0.6,0.1-1c0-0.8,0-1.7,0-2.5c-0.9,0.4-2,0.6-2.5,1.2c-0.7,1-1.3,2.3-1.4,3.5c-0.2,4-0.1,7.9-0.1,12.9
	C449.1,36.3,451.6,32.4,451.1,26.8z M468.9,23.4c7.7-3.6,13.5-7.9,12.8-17.2C476.6,11.2,471.2,15.7,468.9,23.4z M511.2,74.3
	c-0.1-0.3,0-1.2-0.4-1.8c-0.4-0.6-1.3-1.1-2-1.2c-0.4,0-1,0.9-1.4,1.4c-1,1.5-2,2.9-2.8,4.5c-1.1,2-2.1,4-2.9,6.1
	c-0.5,1.6,0.6,2.4,2.2,1.9C508,83.9,511.2,79.2,511.2,74.3z M456.5,31.3c-4.4,4-6.5,9.1-8.8,13.9c-0.1,0.2,0,0.8,0.2,0.8
	c0.4,0.2,0.9,0.3,1.3,0.1c2.5-1.4,5-2.8,7.4-4.4c1.5-1,2.6-3.3,1.6-4.5C456.5,35.5,457.4,33.6,456.5,31.3z M355.2,157
	c-4.3,0.8-5.2,0.9-6.4,2.3c-2.8,3.4-5.5,7-8.2,10.6c-0.3,0.4-0.2,1.1-0.3,1.7c0.6,0.1,1.3,0.3,1.8,0.1c3.2-1.2,6-2.9,7-6.6
	c0.2-0.7,0.6-1.7,1.1-1.8C353.7,162.4,353.7,159.3,355.2,157z M435.7,84.1c-0.3-0.5-0.9-1.4-1.4-2.4c-0.7,0.7-1.8,1.3-2.2,2.2
	c-1.4,3.5-2.7,7.1-3.9,10.8c-0.3,0.9,0.2,2.1,0.3,3.1c1-0.3,2.2-0.3,3.1-0.8c0.6-0.3,1-1.2,1.5-1.8
	C435.5,92.1,435.1,88.3,435.7,84.1z M356,20.7c-1.1,0.7-1.7,1.1-2.4,1.5c-5.6,2.6-7.5,7.3-5.1,12.8c0.3,0.7,1,1.2,1.5,1.7
	c0.5-0.5,1.3-0.9,1.6-1.5c1.9-3.6,1.9-8,4.4-11.4C356.4,23.2,356,22,356,20.7z M145.4,254.3c-2.7,0-5.1-0.2-7.4,0.1
	c-3.9,0.5-6.5,3.2-8.7,6.3c-0.2,0.3-0.3,1-0.1,1.4c0.1,0.3,0.8,0.7,1.1,0.6C136.2,261.6,141.6,259.9,145.4,254.3z M196.4,250
	c-3.8,1.4-6.6,3-9.6,1.5c-0.3-0.1-1.1,0.2-1.3,0.4c-1,2.2-1.9,4.3-2.7,6.6c-0.1,0.3,0.8,1.2,1.3,1.2c1.1,0.1,2.3,0.2,3.2-0.3
	c3.3-1.5,7.1-2.5,7.4-7.2C194.7,251.9,195.3,251.4,196.4,250z M287.5,13.7c-1.1,1.8-1.6,3.7-2.8,4.7c-2.6,2.3-2.4,5.1-2.2,7.9
	c0.2,2.1,0.8,4.1,1.2,6.2c1.6-2.1,2-4.6,3.3-6.3C290,22.2,289.6,18.3,287.5,13.7z M422.9,122.6c1.9-2.6,3.6-4.7,6.5-5.7
	c2.4-0.8,5.4-8,4.9-10.4c-0.1-0.4-0.6-0.7-0.9-1.1c-0.3,0.3-0.7,0.5-0.9,0.9c-1.2,1.5-2.1,3.3-3.5,4.5c-1.7,1.4-4.5,1.9-5.5,3.6
	c-1.2,1.8-0.9,4.6-1.2,6.9C422.3,121.4,422.5,121.6,422.9,122.6z M676.7,491.9c-1.1,0.5-2,0.8-2.9,1.2c-0.9,0.3-1.8,0.6-2.7,0.9
	c-3.6,1.2-3.6,1.2-3.7,5.3c0,1.1-0.1,2.2,0,3.3c0.1,0.5,0.5,1.1,0.9,1.4c0.2,0.1,0.9-0.2,1.2-0.5c2.3-1.9,4.6-3.9,6.9-5.9
	c0.9-0.8,1.4-1.6,0.8-2.9C676.9,494.1,676.9,493.1,676.7,491.9z M329.4,187c-0.9,0.7-1.7,0.9-1.8,1.3c-1.1,3.6-3.5,6.4-5.5,9.4
	c-1.5,2.3-1.8,5.3-2.5,8.1c-0.1,0.4,0.6,1,1.1,1.4c0.2,0.2,1-0.1,1.2-0.3c2.2-3.5,6.6-5.8,5.5-11.3
	C326.9,193.2,328.6,190.3,329.4,187z M451.7,56c-3.6-1.3-3.7-1.3-5.6,1.1c-2.5,3.1-5.1,6.2-7.5,9.4c-0.4,0.5-0.3,1.3-0.5,2
	c0.6,0,1.4,0.3,1.8,0.1c3.9-2.4,8.5-4.1,10.1-9.1C450.5,58.3,451.2,57.2,451.7,56z M266.8,12.6c-0.2-0.1-0.4-0.3-0.6-0.4
	c-0.7,0.5-1.3,1.1-2,1.4c-4.5,1.5-6,5-6.1,9.4c0,0.6-0.1,1.3-0.3,1.9c-0.5,1.4-1.3,3,0.1,3.9c0.5,0.3,2.2-1.4,3.3-2.2
	c0.5-0.4,1-0.8,1.3-1.4c0.4-0.8,1.2-1.9,0.9-2.4c-1-2,0.1-3.4,0.8-5C265.1,16,266,14.3,266.8,12.6z M506.1,46.3
	c-0.2,0.1-0.5,0.1-0.7,0.2c0.5,2.8,0.8,5.6,1.4,8.4c0.5,2.3,1.1,4.7,1.7,7c0.1,0.5,0.8,1.1,1.3,1.1c0.5,0,1.2-0.5,1.5-0.9
	c0.9-1.5,1.8-3.1,2.4-4.7c0.2-0.6,0.1-1.6-0.3-2.1C511,52.2,508.5,49.3,506.1,46.3z M448.7,121.8c2.5-4.9,4.1-9.7-0.4-14.8
	c-0.5,1.3-0.8,2.3-1.3,3.2c-0.5,1.2-1.1,2.3-1.7,3.5c-2.7,5.5-2.7,5.5,2.9,8C448.4,121.8,448.5,121.8,448.7,121.8z M144.3,262.4
	c4.9-2.8,8.9-4.9,12.7-7.2c0.7-0.4,1.3-1.3,1.9-2c-0.8-0.3-1.6-0.7-2.4-0.9c-0.8-0.2-1.7,0.2-2.4-0.1c-3.1-1.5-4.7,0.4-6.3,2.6
	c-0.7,1-1.7,2-2.3,3.1C145,258.9,144.9,260.2,144.3,262.4z M114.7,254.5c-0.5-0.4-0.9-0.9-1.2-0.9c-4.4,1-8.7,1.9-13.1,3
	c-1.3,0.3-1.1,1.4-0.2,2.5c1.9,2.4,4.8,1.4,7.1,2.4c1.5,0.6,3.2,1.1,2.6-1.9c-0.2-0.9,1.4-2.3,2.3-3.3
	C112.9,255.7,113.7,255.2,114.7,254.5z M344.9,32.3c-0.8,0.7-1.3,1.5-1.9,1.8c-4.4,1.5-4.2,4.6-3.3,8.2c0.5,2.1,1.1,2.4,2.9,1.5
	c6.1-3.2,6.3-3.8,3.1-10.1C345.5,33.3,345.4,33.1,344.9,32.3z M367.6,160.4c0.3,1.4,0.5,2.8,0.8,4.2c1.3-0.8,2.5-1.7,3.8-2.5
	c2.1-1.4,2.3-3.7,2.9-5.8c0.9-3.4-0.1-4.5-3.6-3.7c-0.7,0.1-1.3,0.7-1.9,1.2C367.5,155.5,367.7,158,367.6,160.4z M479.9,59.7
	c-1,1.6-1.8,3-2.8,4.2c-0.5,0.5-2,1-2.4,0.7c-1.9-1.8-2.4-0.3-2.8,1.1c-0.4,1.2-0.3,2.5-0.6,3.8c-0.4,1.4-1.4,3.2,0,3.9
	c1.1,0.5,2.9-0.7,4.3-1.3c0.4-0.2,0.7-0.6,1-1C479,67.7,481.3,64.4,479.9,59.7z M455,105.4c0.6-1.3,0.9-1.8,0.9-2.2
	c0-1.9,0.2-3.5,2.2-4.4c0.5-0.2,0.8-1,1.1-1.5c0.6-1,0.7-2-0.8-2c-2.7-0.1-2.7-1.8-2.5-3.6c0.1-0.8,0.4-1.5,0.5-2.3
	c0.1-1.1,0.1-2.1,0.1-3.2c-1,0.1-2.1,0.1-3.1,0.4c-2.2,0.8-2.5,1.4-1.8,3.6c0.2,0.8,0.3,2.1,0.8,2.2c2.4,0.7,1.7,2.6,1.8,4.1
	c0.1,2.4,0.1,4.8,0.1,7.3C454.3,104.1,454.6,104.5,455,105.4z M28.5,297c-0.9,1.6-1.3,2.8-2.1,3.7c-3.2,3.7-2.7,7.8-1.8,12.1
	c0.1,0.4,0.6,1,0.9,1c0.5-0.1,1.2-0.4,1.4-0.9C29.5,308,31.7,303,28.5,297z M295.4,33.3c-1.2,1.1-2,2.1-3.1,2.8
	c-0.5,0.4-1.4,0.3-2.1,0.3c-0.6,0-1.3-0.3-1.9-0.5c0.2,0.7,0.2,1.7,0.7,2.2c1.5,1.5,2.3,3,2.1,5.1c-0.1,1.4-0.6,3.4,1.2,3.7
	c0.9,0.1,2.3-1.5,3.1-2.6c0.8-1.1,1.4-2.7,1.3-4C296.7,38.1,295.9,35.9,295.4,33.3z M129.7,255c-3.2-0.9-5.2-1.6-7.2-2
	c-0.8-0.2-2-0.2-2.6,0.2c-2.1,1.3-4.2,2.9-6.1,4.5c-0.4,0.3-0.6,1.1-0.9,1.6c0.7,0.3,1.3,0.8,2,0.8C120,259.8,124.2,257.2,129.7,255
	z M466.7,11.9c-0.2-0.4-0.4-1.2-0.9-1.7c-0.3-0.2-1.3,0.1-1.7,0.5c-1.8,1.5-4,2.9-5.3,4.8c-1.3,2-3.8,3.5-3.2,6.5
	c2.2-0.9,4.5-1.6,6.5-2.8C464.7,17.7,466.5,15.4,466.7,11.9z M442.7,42.5c-1,4-0.1,8.3-2,12.2c-0.5,1.1,0,2.8,0.2,4.2
	c0,0.2,1.2,0.6,1.3,0.5c1.6-2.4,3.2-4.7,4.6-7.2c0.3-0.5,0.2-2-0.2-2.1c-3-1.3-1.6-3.4-0.9-5.2c0.6-1.7,0.1-2-1.5-1.6
	C443.8,43.3,443.2,42.7,442.7,42.5z M179.5,258.3c-2.5,1.2-4.6,1.9-6.2,3.1c-1,0.7-2.1,2.9-1.7,3.4c1.4,1.8,3.3,3.5,5.3,4.8
	c1.2,0.8,2.6-0.1,2.6-1.7C179.6,264.9,179.5,261.8,179.5,258.3z M131.3,273.5c4-2,6.6-4.7,8.3-8.3c0.4-0.8,0.5-1.8,0.8-2.6
	c-0.9,0.1-1.7,0.2-2.6,0.4c-1.5,0.5-2.9,1.3-4.5,1.6c-2.4,0.5-3.2,2.1-3.1,4.1C130.2,270.3,130.9,271.8,131.3,273.5z M304.9,215.8
	c-0.9,0.9-1.9,1.8-2.5,2.8c-0.2,0.3,0.5,1.4,1.1,1.8c2,1.5,4.1,3,6.2,4.4c0.6,0.4,1.8,0.7,1.9,0.5c0.6-0.8,1.5-2,1.3-2.7
	c-0.6-1.7-1.7-3.3-2.6-4.9c-0.8-1.6-1.6-2.2-3-0.5c-0.8,1-1.6,0.9-1.8-0.6C305.5,216.4,305.2,216.2,304.9,215.8z M98.6,275.5
	c2.6-1.9,5.1-3.4,7.3-5.5c1.2-1.1,1.8-3,2.5-4.6c0.1-0.3-0.5-1.2-0.9-1.3c-0.9-0.2-2.2-0.4-2.8,0.1c-1.9,1.5-3.7,3.1-5.2,4.9
	C98.1,270.8,97.7,272.8,98.6,275.5z M408.2,134.2c1.3-1,1.7-1.2,2.1-1.5c5.1-3.7,5.6-10.8,10.5-14.6c0.1-0.1,0.2-0.3,0.2-0.4
	c-0.1-0.9-0.3-1.8-0.5-2.7c-0.7,0.3-1.4,0.6-2.1,0.9c-1.4,0.7-2.1,1.8-2.5,3.3c-0.5,2.1-1.5,3.8-3,5.4c-1.5,1.7-2.6,3.6-3.7,5.6
	C408.7,130.9,408.7,132.1,408.2,134.2z M95.3,270c-1.4,0.3-2.3,0.5-3.3,0.7c-3,0.8-3.9,2.3-3.3,5.3c0.3,1.7,0.5,3.5,0.8,5.2
	c0.1,0.6,0.6,1.3,1.1,1.4c0.3,0.1,1.2-0.4,1.4-0.9c1.4-3.4,2.7-6.8,4-10.2C96.1,271.1,95.4,270.4,95.3,270z M131.1,15.4
	C131.1,15.4,131.1,15.4,131.1,15.4c0,1.3-0.2,2.6,0.1,3.9c0.3,1.7,0.8,3.4,1.5,5c0.2,0.5,1.3,0.8,2,0.8c0.4,0,1-0.8,1.1-1.3
	c0.3-4,0.4-8.1-1.8-11.7c-0.4-0.8-1.3-1.3-1.9-1.9c-0.3,0.8-0.8,1.6-1,2.4C131,13.4,131.1,14.4,131.1,15.4z M435.7,36.6
	c3.8-4.5,9.3-8,5.1-14.9C434.5,25.1,435.9,30.9,435.7,36.6z M389.8,122.8c5.5,1,9.7,0.5,13.6-2.3c1.4-1,2.3-2,2.6-4.1
	C399.9,116.6,395.1,119.2,389.8,122.8z M279.8,196.8c3.2,0.2,6.1,0,8.8,0.5c3.2,0.7,5.9-0.5,8.7-1.1c0.5-0.1,1.3-1,1.2-1.2
	c-0.3-0.6-0.8-1.3-1.5-1.6c-0.7-0.3-1.6-0.1-2.4-0.2C289.4,192.5,284.6,194.1,279.8,196.8z M303.8,56.1
	C303.8,56.1,303.8,56.1,303.8,56.1c0.1,1.3,0,2.6,0.1,3.9c0,0.4,1,1,1.3,0.9c2-0.8,4.2-1.6,4.2-4.1c0.1-2.4,1.1-5.3-1.5-7.2
	c-0.3-0.2-1-0.5-1.2-0.3c-1.3,1.1-3.3,1.6-3,3.9C303.9,54.1,303.8,55.1,303.8,56.1z M308.8,46.3c-0.4-12.1-0.4-12.1-2.8-14.6
	C301.6,38.2,302.2,40.2,308.8,46.3z M12.2,338.2c-3.3,3.7-2.3,8.3-2.2,12.7c0,0.8,0.9,1.7,1.5,2.3c0.8,0.9,1.7,0.3,1.8-0.5
	C14.1,347.9,16.4,342.8,12.2,338.2z M242.6,221.3c-4.9,2.9-10.2,3.7-14.5,7.3c1.1,0.4,1.9,0.9,2.6,0.9c2.2-0.1,4.4-0.4,6.7-0.5
	c3.6-0.2,3.6-0.1,4.3-4.1C241.8,223.9,242.1,223,242.6,221.3z M20.7,294.8c-0.9,1.1-1.2,1.4-1.4,1.8c-2.7,4.2-3.6,8.8-4.1,13.7
	c-0.2,1.8-1.2,3.9,0.9,4.6c1.9,0.6,2.1-1.9,3.1-3.1c0.6-0.7,0.9-2.5,0.5-2.9c-2-1.8-1.2-3.8-0.9-5.8
	C19.3,300.6,19.9,298.2,20.7,294.8z M458.2,104c-0.6,0.9-1,1.6-1.4,2.2c-0.4,0.7-0.7,1.4-1.2,2.1c-2.1,3.1-2.2,3.1,0.1,5.5
	c0.8,0.8,1.6,1.6,2.4,2.4c1.3,1.1,2.3,0.8,2.5-1C461.2,111.4,460.7,107.7,458.2,104z M206,16.8c0.2,0.2,0.5,0.5,0.7,0.7
	c1.7-0.9,3.5-1.6,5.1-2.6c5-2.7,5.9-4.5,5.1-10.8C212.5,7.9,209.4,12.5,206,16.8z M418,43.2c0.7-1.6,1.5-3.2,2.1-4.8
	c1-2.7,2.8-5.5,2.6-8.1c-0.2-3.7,3.4-4.5,3.9-7.3c0.1-0.3-0.1-0.6-0.1-0.9C420.2,26.8,416.9,34.3,418,43.2z M434.6,61.4
	c-1.8,1.2-3.1,2.6-4.7,3c-2.4,0.7-3.2,2.3-3.8,4.3c-0.6,2.1-1.2,4.2-1.9,6.7C430.3,72.6,433,67.7,434.6,61.4z M297.9,47.9
	c0,0.5,0,0.8,0,1.1c0.1,2.3,0.5,2.5,2.5,1.6c1.2-0.5,2.4-1,3.3-1.9c1.1-1.1,2.2-2.4,0.5-4.1c-1.4-1.4-1-4.2-3.7-4.6
	c-0.9,2-1.8,4-2.6,6C297.8,46.8,297.9,47.5,297.9,47.9z M115.3,268.1c3.8-0.6,6.8-1,9.7-1.7c1.2-0.3,3.2-1,0.9-2.8
	c-0.3-0.2-0.2-1.2,0.1-1.6c0.5-0.8,1.2-1.5,1.8-2.2c0.2-0.2,0.2-0.8,0.1-0.9c-0.4-0.2-0.9-0.4-1.2-0.3
	C122.3,260.5,118.9,263.6,115.3,268.1z M131.5,249.4c0,0.3,0,0.6,0,0.8c1.5,0.3,3,0.8,4.5,1c1.9,0.2,3.8,0.1,5.8,0.1
	c1.4,0,2.9,0,4.3-0.1c0.4-0.1,1.2-0.8,1.1-1.1c-0.2-1.4-3.3-3.8-4.7-3.5C138.8,247.4,135.2,248.5,131.5,249.4z M15.5,320.8
	c-2.2,1.6-3.1,3.5-2.8,5.7c0.3,2.5,0.4,5.1,1.1,7.5c0.5,1.8-0.1,5.2,2.1,5.1c2.4-0.2,1.4-3.8,2.5-5.7c0.1-0.1,0.1-0.4,0-0.5
	c-0.2-0.2-0.5-0.5-0.7-0.4c-2.6,0.7-2.1-1.3-2.1-2.5C15.5,326.8,15.5,323.8,15.5,320.8z M484.3,79.7c0,0,0,1.1,0.4,1.2
	c0.6,0.2,1.5,0,2.1-0.2c2.9-1.1,3.6-3.9,4.8-6.4c0.2-0.3,0.1-1.1-0.2-1.3c-1.4-1-2.9-1.9-4.3-2.8c-0.6,1.3-1.3,2.5-1.7,3.8
	C484.8,75.7,484.7,77.4,484.3,79.7z M195.3,31.1c-0.4-1.3-0.7-2.7-1.4-3.9c-0.6-1.1-2.7-1.2-3.3-0.2c-0.8,1.5-1.8,3.2-2,4.8
	c-0.1,1.2,1.1,2.5,1.9,3.7c0.6,0.9,1.6,1.5,2.4,2.2c0.4-0.9,0.9-1.8,1.2-2.8C194.6,33.7,194.9,32.5,195.3,31.1z M101.7,263.4
	c-2.4-1.1-4.4-2.6-6.6-1.2c-2.6,1.7-5,3.7-7.8,5.7C92.5,269.2,97.3,267.6,101.7,263.4z M149.5,265.2c-0.2-0.6-0.3-1.5-0.8-1.9
	c-1-0.8-6.3,1.2-6.7,2.5c-0.2,0.7-0.4,1.7,0.9,1.4c1.3-0.3,1.9,0.1,1.4,1.4c-0.8,1.8-0.8,3.4,0.7,4.8c0.9,0.9,1.8,1.1,2.2-0.2
	C148,270.6,148.7,268,149.5,265.2z M22.3,312.2c-0.3-0.1-0.7-0.3-1-0.4c-1.1,2.6-2.4,5.1-3.2,7.8c-0.8,2.8-0.6,5.8-0.1,9.4
	C22.3,323.6,23.2,318.1,22.3,312.2z M242.4,242.6c-2,2.1-3.6,3.7-5.1,5.5c-0.4,0.4-0.4,1.2-0.4,1.8c0,2.9,0,5.7,0,9.4
	C240.8,254,243,249.1,242.4,242.6z M212.7,248.7c-0.1,0-0.3,0.1-0.4,0.1c0.4,1.8,0.6,3.7,1.4,5.4c0.3,0.7,1.8,1.4,2.6,1.4
	c1-0.1,2.4-0.8,2.9-1.6c0.8-1.5,0-4.7-1.3-5c-2-0.6-2.8-1.9-3.6-3.5c-0.1-0.2-0.6-0.5-0.7-0.4c-0.4,0.2-0.8,0.6-0.9,0.9
	C212.6,246.7,212.7,247.7,212.7,248.7z M111.7,247.1c-2,0.5-3.6,0.8-5,1.3c-0.6,0.2-1.7,1-1.6,1.4c0.2,0.8,0.9,2.2,1.4,2.2
	c3.9,0,7.8-0.3,11.7-0.6c0.3,0,0.8-0.6,0.8-1c0-0.3-0.5-0.8-0.8-1C116,248.5,113.7,247.8,111.7,247.1z M296.8,22.6
	c-1.8,0.9-3.6,1.9-5.5,2.7c-1.6,0.7-2.1,1.8-2.1,3.4c-0.1,2.4,0.8,4.9,1.9,5.1c1,0.2,3.1-1.8,3.6-4.1c0.4-2.2,0.6-4.3,2.8-5.6
	c0.2-0.1,0.3-0.6,0.2-0.9C297.5,23,297.1,22.8,296.8,22.6z M89.7,254.4c1,2.3,2.8,3,4.6,3.6c0.7,0.2,2,0.1,2.2-0.3
	c1.5-2.8,4.7-3,7.6-4.7C98.4,249.8,94.3,253.4,89.7,254.4z M292.6,225.5c0.1,0.1,0.3,0.1,0.4,0.2c0,0.8,0,1.6,0.2,2.4
	c0.2,0.5,0.6,1.2,1.1,1.4c0.4,0.1,1.2-0.5,1.3-1c1.1-2.9,2.2-5.9,3.1-8.9c0.3-0.9-0.3-2.1-0.7-3.1c-0.1-0.3-1.7-0.3-1.8-0.1
	C295,219.3,293.8,222.4,292.6,225.5z M329.4,211.5c2.9,0.3,4-1,3.2-3.1c-0.6-1.5-1.3-2.9-2.1-4.2c-0.7-1.2-1.7-1.5-2.8-0.5
	c-0.5,0.4-0.9,0.9-1.4,1.4c-2.7,2.8-2.6,3.9,1,5.6C328.1,211.1,329,211.3,329.4,211.5z M11.1,327.9c-0.3-0.2-0.6-0.3-1-0.5
	c-1,0.8-2,1.6-2.9,2.4c-0.5,0.5-1.2,1.2-1.2,1.9c-0.1,2.2-0.1,4.5,0.1,6.8c0.1,0.7,1.1,1.5,1.9,1.7c0.3,0.1,1.4-0.9,1.5-1.5
	C10.2,335.1,10.6,331.5,11.1,327.9z M253,232.5c5.5-1.1,5.1-6.4,7.9-9c1.5-1.4,1.5-4.3,2.4-7.2c-4.2,2.7-7.1,5.7-7.6,9.5
	C255.4,228.2,254.5,230.1,253,232.5z M425.1,77.8c-1.5,2.5-2.8,4.7-3.9,6.9c-0.5,0.9-0.4,2.1-0.6,3.1c1-0.3,2.2-0.3,3-0.8
	c2.4-1.5,4.6-3.3,7-5.1C428.8,80.6,427.2,79.3,425.1,77.8z M365.7,168.4c0-2.9,0.1-5.6,0-8.3c-0.1-1.7-1.3-2.3-2.6-1.3
	c-1.7,1.4-3.3,3-5.1,4.8c2.3,1.7,4.2,3.1,6.2,4.5C364.5,168.2,365,168.2,365.7,168.4z M171.4,28.6c-5.3,3.5-5.5,4.2-2,9.5
	c0.4,0.7,0.8,1.4,1.3,2c0.3,0.3,0.8,0.4,1.3,0.4c0.2,0,0.5-0.5,0.5-0.7C172.6,36.1,173.6,32.4,171.4,28.6z M193.9,258.7
	c-2.8,1.4-5.5,2.7-8.7,4.3c1.3,1.7,2.5,3.4,3.9,4.9c0.3,0.4,1.9,0.3,1.9,0.1C191.8,264.9,194.9,262.4,193.9,258.7z M472.7,81.1
	c-0.4-1.4-0.6-2.8-1.1-4c-0.2-0.5-1.2-0.9-1.8-1c-0.3,0-0.9,0.9-0.9,1.3c0,3.2-0.3,6.3-2.3,9c-0.1,0.2,0.2,0.8,0.5,1
	c1.1,0.9,2.2,1,3.4-0.2C471.9,85.5,472.6,83.5,472.7,81.1z M461,41.3c-3.8,4-7.6,6.8-10.1,12.3c3.3-1.8,5.8-3,8.2-4.6
	C461.8,47.1,462.4,45,461,41.3z M67.1,281.7c-0.3-0.7-0.4-1.8-0.9-2.4c-0.3-0.3-1.5,0.4-2.3,0.7c-0.6,0.2-1.1,0.6-1.7,0.9
	c-2.1,1.3-2.4,2.1-1.4,4.2c0.4,1,1.1,2,1.8,2.8c1.3,1.4,2.7,1.2,3.3-0.5C66.4,285.7,66.7,283.8,67.1,281.7z M340.7,181.6
	c0,0.1,0.2,0.7,0.5,1.3c0.1,0.1,0.7,0.2,0.8,0c2.6-3.2,5.5-6.3,6.2-10.6c0.1-0.4-0.9-1.3-0.9-1.3c-2,1.4-4.9,2-5.6,4.8
	C341.3,177.7,341.1,179.4,340.7,181.6z M4.5,342.6c-1.3,4.8,0.8,9.2,0.7,13.6c0,0.5,1,1.1,1.5,1.6c0.4-0.6,1-1.2,1.1-1.8
	c0.1-2.4-0.1-4.8,0.1-7.2C8.1,346.2,7.4,344.1,4.5,342.6z M7.8,364.5c-1.4-0.4-3.3,3-3.9-0.7c-0.3,0.1-0.7,0.2-0.7,0.4
	c-0.2,4.1-0.3,8.2,1.7,12.3C8.5,372.8,7.9,368.7,7.8,364.5z M434.6,78.1c3.6,0.7,4.6-0.1,4.9-3.3c0.1-0.8-0.2-1.5-0.3-2.3
	c-0.8,0.2-1.7,0.4-2.4,0.8c-2.2,0.9-4.4,1.9-6.5,3c-0.5,0.3-1.1,1.5-0.9,1.8c0.3,0.6,1.3,1.1,2,1.1C432.4,79,433.5,78.5,434.6,78.1z
	 M316.8,55.8c-0.8,0.6-1.4,1.3-2.2,1.8c-1.1,0.6-2.3,0.9-3.4,1.6c-1.1,0.7-1.8,1.6-1,3.2c0.8,1.6,1.6,1.5,3,0.9
	c1.3-0.6,2.8-0.7,4.1-1.3c2.4-0.9,2.4-1.5,0.7-3.6C317.5,57.7,317.2,56.7,316.8,55.8z M256,243.1c-1,0.2-1.4,0.2-1.5,0.3
	c-0.6,1.9-2.1,4.2-1.5,5.6c0.8,2,3.1,3.5,4.9,5c0.8,0.6,2,0,1.9-1.2c0-0.8-0.5-2-1.1-2.2c-1.6-0.6-1.7-1.7-1.7-3
	c0-1,0.1-1.9-0.2-2.8C256.8,244,256.2,243.4,256,243.1z M156.6,263.7c4.2-2,7.4-4.6,10.1-8C159.1,255.1,156.4,257.1,156.6,263.7z
	 M160.2,35.1c2.4-2.1,3.1-4.5,4.1-6.6c0.6-1.2,0.7-2.8,0.7-4.2c0-1.6-1-2.2-2.6-1.8c-1.5,0.3-2.1,1.3-2.1,2.8
	C160.2,28.4,160.2,31.4,160.2,35.1z M316.5,202.4c-1.9,0.6-3.4,0.9-4.7,1.5c-0.8,0.4-1.9,1.1-1.9,1.7c0,2.2,0.2,4.4,0.7,6.5
	c0.3,1.2,1.3,1.5,1.9,0.1C313.8,209.2,315.1,206,316.5,202.4z M203.6,244.1c-3.5-1.4-6.5-1.9-9.2,0.7c-0.5,0.5-1.5,0.5-2.2,0.8
	c-1.6,0.6-2.7,1.8-3.5,3.5C192.6,249.2,196.6,247.8,203.6,244.1z M231.4,20.7c-0.5-1.4-1-3-1.6-4.5c-1.2,0.9-2.4,1.9-3.6,2.9
	c-0.2,0.2-0.5,0.4-0.7,0.7c-1.5,1.7-1.6,2.6,0.3,3.8c1.3,0.8,2.9,1.1,4.3,1.6C230.5,23.7,230.9,22.4,231.4,20.7z M320,175
	c2.9-0.2,5-0.2,7.1-0.4c0.8-0.1,1.6-0.3,2.2-0.8c0.6-0.6,0.9-1.6,1.3-2.4c-0.8-0.2-1.5-0.5-2.3-0.5c-1.6-0.1-3.3-0.3-4.8,0.1
	c-1.8,0.5-3.5,1.5-5.1,2.4c-0.6,0.4-0.7,1,0.2,1.3C319.3,174.9,320.1,175,320,175z M316,166.9c-3.2-0.1-3.5,0.3-3,3
	c0.2,1.2,0.2,2.5,0.6,3.7c0.5,1.5,1.2,2.9,1.8,4.3c0.1,0.1,0.7,0.2,0.8,0.1c0.3-0.3,0.5-0.7,0.6-1.1c0-0.2-0.3-0.5-0.5-0.8
	c-1.6-2.4-1.6-2.4,0.3-4.1c0.6-0.5,1.3-0.9,1.9-1.4c0.6-0.5,1-1.1,1.5-1.7c-0.7-0.6-1.3-1.3-2.1-1.7C317.2,167,316.3,167,316,166.9z
	 M252.2,254.1c0.2-0.1,0.4-0.1,0.6-0.2c-0.3-0.7-0.6-1.5-0.9-2.2c-0.7,0.5-1.4,0.9-2,1.5c-1.3,1.2-1.7,2.6-0.8,4.3
	c0.8,1.6,1.3,3.2,2.1,4.8c0.2,0.5,0.8,0.9,1.2,1.3c0.4-0.4,1.1-0.8,1.2-1.3c0.2-1.2,0.2-2.5,0-3.6
	C253.2,257.1,252.6,255.6,252.2,254.1z M289,220.4c-0.1,0-0.1,0-0.2,0c-0.1,0.7-0.1,1.5-0.2,2.2c0.8-0.3,1.7-0.5,2.4-0.9
	c3-1.6,3.1-4.6,3.8-7.4c0.1-0.4-0.2-1.2-0.4-1.3c-0.5-0.1-1.2,0-1.7,0.2c-2.7,1.4-5.5,2.7-3.8,6.6
	C289.2,220.1,289.1,220.3,289,220.4z M244.5,261.3c1.9-2.4,2.3-4,1.5-6.1c-0.5-1.3-0.6-2.8-0.5-4.2c0.2-2.7,0.7-5.4,0.9-8.1
	c0-0.5-0.6-1.1-0.9-1.6c-0.4,0.5-1.3,1.2-1.1,1.6c0.9,2.8-0.2,5.4-0.8,8C242.7,254.2,243.7,257.3,244.5,261.3z M223.6,220.7
	c3.7,5.5,5.5,5.8,11.4,1.1C230.9,221.6,227.8,217.8,223.6,220.7z M7.2,325.5c5.7-3.7,6.5-6.4,4.4-12c-0.1-0.3-0.5-0.7-0.6-0.6
	c-0.4,0.2-0.9,0.4-1,0.7C9,317.5,8.1,321.5,7.2,325.5z M138.5,281.4c2.3-3.5,2.5-6.9,2.1-10.4c0-0.3-1-0.9-1.3-0.7
	c-2.6,1.1-4,4.1-3,6.7C136.7,278.3,137.6,279.6,138.5,281.4z M24.7,330.4c3.2-3.4,2.5-7.5,2.4-11.5c0-0.4-0.5-1.1-0.6-1.1
	c-0.6,0.2-1.5,0.4-1.6,0.8C23.7,322.5,22.2,326.4,24.7,330.4z M138.4,9.9c-1.9-0.1-2.8,0.8-2.2,2c0.7,1.6,1.6,3.1,2.6,4.5
	c0.3,0.4,1.8,0.6,2,0.3c1-1.4,2-2.9,2.4-4.5c0.1-0.4-2.2-1.3-3.5-2C139.2,10,138.5,9.9,138.4,9.9z M248.7,250.7c1-1.9,2-3.7,2.8-5.7
	c0.7-1.6,1.4-3.2,2-4.9c0.1-0.4,0.1-1.1-0.1-1.2c-0.3-0.2-1-0.2-1.3-0.1C248.1,240.9,246.5,246.5,248.7,250.7z M171.6,16.7
	c-5.4,4.8-5.4,4.8-3.2,11.1C172.5,25.1,171.9,21.1,171.6,16.7z M21.8,339c-0.5-1.4-1-2.6-1.4-3.9c-0.4,1.1-0.9,2.3-1.3,3.4
	c-0.6,1.6-1.3,3.3-1.9,4.9c-0.2,0.6-0.5,1.3-0.3,1.8c0.2,0.7,0.8,1.6,1.4,1.7c0.5,0.1,1.7-0.5,1.8-1C20.8,343.7,21.3,341.3,21.8,339
	z M431.4,72.8c4-0.9,3.9-1,4.2-4.6c0.1-1.2,0.8-2.5,1.6-3.3c2.1-2.2,2.7-4.4,0.8-7C435.8,63,433.6,68,431.4,72.8z M178.6,236.8
	c-4.6,0-8.4,0-12.3,0c-0.5,0-1,0.1-1.4,0.2c-0.2,0.1-0.5,0.5-0.5,0.7c0,0.2,0.3,0.6,0.5,0.7c2.1,0.5,4.1,1.2,6.1,2.2
	c2.4,1.1,3.9-2.2,6.1-2.7C177.4,237.8,177.7,237.5,178.6,236.8z M358.1,28.4c1.4-2.3,3-5.2,4.7-7.9c0.9-1.4,0.9-2.7-0.1-4
	c-0.2-0.3-1.1-0.5-1.1-0.4c-1.1,1.9-3.5,2.9-3.5,5.5C358.2,24,358.1,26.5,358.1,28.4z M380.4,160.8c-0.1-0.8,0-1.5-0.3-2
	c-0.6-1.1-1.3-2.8-2.1-2.9c-1.7-0.1-1.2,1.7-1.6,2.9c-0.2,0.9-0.6,1.8-1.1,2.6c-1.1,2,0.6,2.6,1.7,3.2c1.2,0.7,2.1,0,2.5-1.3
	C379.9,162.5,380.2,161.6,380.4,160.8z M146.4,20.9c-1.7-0.6-2.8-0.6-3.8,0.7c-1.3,1.6-2.9,3.1-4.2,4.7c-0.8,1-1.5,2.2-2.5,3.8
	C142.6,29.8,142.9,23.8,146.4,20.9z M127.7,268.1c-1.9,0.4-2.7,0.5-3.4,0.7c-0.8,0.2-1.5,0.4-2.3,0.6c-2.8,0.9-3.2,1.9-1.8,4.5
	c1,1.9,2.4,2.1,3.7,0.4C125.1,272.6,126.1,270.7,127.7,268.1z M133.3,34.8c0.1-2,0.2-3.5,0.3-4.9c0-0.4,0.1-1-0.1-1.3
	c-1.5-2.2-3-4.4-4.5-6.5c-0.1-0.2-0.7-0.3-0.8-0.2c-0.3,0.2-0.7,0.8-0.7,1C129,26.9,130.3,31.1,133.3,34.8z M352.3,43.6
	c4.3-5.3,4.7-6.8,2.9-11.8C351.2,40,351.2,40,352.3,43.6z M343.1,162.4c-3.8,1-7.2,1.8-10.5,2.7c-0.5,0.1-0.9,0.7-1.4,1
	c0.5,0.4,0.9,1.1,1.4,1.1c1.5,0.1,3.1-0.3,4.6-0.2C340.4,167.2,342.1,165.5,343.1,162.4z M361.6,169.5c-0.3,0.1-0.6,0.2-0.9,0.3
	c0.4,2.5,0.6,5,1.2,7.5c0.3,1.3,1.2,2.8,2.9,2.5c0.3,0,0-2,0.4-2.9c0.6-1.3,0-2.1-0.7-3C363.5,172.4,362.6,170.9,361.6,169.5z
	 M134,276.6c-0.7-0.1-1.5-0.5-2.1-0.4c-2.4,0.7-2,3.5-3.5,4.9c-0.6,0.5-0.3,1.9-0.4,2.9c1-0.4,2.2-0.5,2.9-1.1
	C132.7,281.5,133.9,279.6,134,276.6z M337.6,21.1c-0.3,0-0.7,0-1-0.1c-0.8,3.1-1.7,6.3-2.3,9.5c-0.1,0.8,0.6,1.8,1.1,2.5
	c0.3,0.4,1,0.6,1.6,0.6c0.2,0,0.6-0.7,0.6-1.2C337.6,28.7,337.6,24.9,337.6,21.1z M151.5,264.6c0,3,0.6,3.9,3,4.7
	c0.5,0.1,1.4-0.1,1.6-0.4c0.3-0.6,0.4-1.8,0.1-1.9c-1.8-0.9-1.9-2.3-2-4c0-0.9,0.6-2.7-1.2-2.4c-0.6,0.1-1.1,1.7-1.5,2.6
	C151.3,263.6,151.5,264.1,151.5,264.6z M331.8,161.8c-0.9-1.2-1.8-2.2-2.7-3.3c-0.6,0.8-1.5,1.5-1.9,2.4c-0.7,1.9-1.1,3.9-1.6,5.9
	c-0.1,0.4,0.4,1,0.7,1.5c0.5-0.3,1.3-0.6,1.3-1c0.3-2.1,1.5-3.4,3.2-4.4C331.3,162.8,331.5,162.3,331.8,161.8z M370.7,177.2
	c-0.3-1.4-0.6-3.5-1.3-5.4c-0.2-0.5-1.6-0.6-2.4-0.7c-0.2,0-0.9,0.7-0.8,0.9c0.7,2.6,1.5,5.1,2.4,7.7c0.1,0.3,0.8,0.6,1.2,0.6
	c0.3,0,0.7-0.6,0.8-0.9C370.7,178.8,370.6,178.3,370.7,177.2z M368.7,167.3c1.8,2.3,3.3,4.3,5.3,7c0.2-2.1,0.6-3.3,0.4-4.5
	c-0.2-1.5-0.9-3-1.3-4.4C371.8,166,370.4,166.6,368.7,167.3z M7.2,378.6c-1,0.3-2,0.4-2.7,0.9c-0.5,0.3-1.3,1.2-1.2,1.6
	c0.8,2.6,0.8,5.5,3.3,8.7C6.8,385.5,7,382.3,7.2,378.6z M389.5,153.1c0.1,0.4,0.2,0.8,0.3,1.1c1.8,0,3.6,0.3,5.2-0.1
	c1.5-0.3,2.9-1.3,4.2-2.1c0.2-0.1,0.3-1,0.1-1.3c-0.3-0.4-1.1-0.9-1.4-0.8C395.1,151,392.3,152.1,389.5,153.1z M514,70
	c0-0.1,0.2-0.4,0.2-0.7c0.2-5.4,0.2-5.5-4.8-3.3c-0.6,0.3-1.1,0.9-1.7,1.3c0.5,0.5,1,1.3,1.7,1.6C510.8,69.4,512.4,69.6,514,70z
	 M307.8,226.3c-1.2-0.9-2-1.8-3-2.4c-0.6-0.4-1.4-0.3-2.2-0.5c-0.1,1.2-0.5,2.4-0.2,3.5c0.4,1.2,0.9,3.2,2.6,2.7
	C306,229.3,306.7,227.6,307.8,226.3z M491,37.3c0.1,0.3,0.2,1.6,0.7,2.8c0.2,0.6,1,1,1.6,1.5c0.5-0.6,1.2-1.1,1.4-1.8
	c0.6-2-0.1-3.8-1.5-5.2c-0.4-0.4-0.9-0.8-1.3-1.1c-0.3,0.5-0.6,1-0.8,1.6C490.9,35.4,491,35.9,491,37.3z M227.1,253.2
	c-0.1-0.8,0-1.3-0.1-1.7c-0.4-1.8-1.8-2.1-3.4-2c-0.7,0.1-1.8,0.4-2,0.8c-0.6,1.5,0.5,2.3,1.7,3c0.4,0.2,0.8,0.6,1.2,0.8
	c0.7,0.3,1.4,0.6,2.1,0.5C226.9,254.6,227,253.5,227.1,253.2z M492.2,77.9c-0.7,1-1,2-1.7,2.6c-1.7,1.5-1.2,3-0.2,4.6
	c0.8,1.3,1.5,1.2,2.4-0.2C494,82.6,494.4,80.4,492.2,77.9z M413.9,141.3c-1.8,0.5-2.2,2-2.7,3.6c-1.4,4.4-1.5,4.4-1.1,6.7
	C414.2,144.6,414.2,144.6,413.9,141.3z M165.6,270.6c1.1-2.4,2.3-4,2.6-5.9c0.1-0.8-1.5-1.9-2.4-2.9c-0.1-0.1-0.2-0.2-0.4-0.4
	C163.6,264.4,163.6,267.3,165.6,270.6z M453.7,123.7c-0.4-2.9,4.5-5.7-0.3-9C452.8,117.9,450.9,120.8,453.7,123.7z M420.9,140.5
	c-0.2-0.1-0.5-0.2-0.7-0.4c-1.5,1.6-3.2,3.2-4.5,5c-0.8,1-0.3,2.2,0.9,2.9c1.4,0.8,1.7-0.5,2-1.3
	C419.4,144.7,420.1,142.6,420.9,140.5z M420.4,14.2c1.9-1.8,3.5-3.3,5.2-5c-1.1-1.2-2-2.7-3.4-3.1C421.6,9,421.1,11.5,420.4,14.2z
	 M520.8,74.6c-0.6-1.2-1.1-2.6-1.9-3.7c-0.5-0.7-1.4-1.1-2.1-1.6c-0.3,0.7-0.7,1.4-0.9,2.1c-0.4,1.7,2.4,4.4,4.2,4.1
	C520.4,75.4,520.5,75,520.8,74.6z M257.3,233.3c0.2,0.1,0.3,0.1,0.5,0.2c-0.2,0.8-0.4,1.6-0.6,2.3c-0.4,1.1-1,2.2-1.2,3.4
	c-0.1,0.6,0.3,1.3,0.5,1.9c0.5-0.4,1.1-0.6,1.3-1.1c0.6-1.3,1.2-2.6,1.5-4c0.2-1-0.1-2-0.3-3c-0.1-0.3-0.7-0.5-1-0.8
	C257.8,232.6,257.6,232.9,257.3,233.3z M362.6,11.4c0.7,1.2,1.4,2.5,2.1,3.9c0.8,1.5,1.6,1.1,2.6,0.2c1.4-1.1,0.6-1.6-0.4-2.4
	c-0.9-0.6-1.4-1.7-2.1-2.5c-0.4-0.5-0.9-0.8-1.3-1.3C363.2,9.9,363,10.5,362.6,11.4z M358.6,143.6c-0.1-0.4-0.3-0.7-0.4-1.1
	c-1.9,0.5-3.8,1-5.7,1.6c-0.4,0.2-0.9,1-0.9,1.5c0.1,0.5,0.8,1,1.3,1.1c0.7,0.1,1.6,0.1,2.1-0.3
	C356.3,145.7,357.4,144.6,358.6,143.6z M323.1,210.5c-0.3,0.6-0.9,1.2-0.8,1.6c0.4,1.2,0.8,2.4,1.6,3.4c0.3,0.4,1.7,0.6,2,0.3
	c0.5-0.6,1.2-2,0.9-2.4C325.9,212.3,324.6,211.6,323.1,210.5z M214.3,264.1c1.5-1.4,2.2-2.8,2.1-4.4c-0.1-1.8-1.9-1.8-2.9-1.8
	c-1.5-0.1-0.9,1.4-0.7,2.1C213,261.2,213.7,262.5,214.3,264.1z M37.6,296.3c-3,2.8-3,2.8-1.8,6.8C38.6,301.4,38,299,37.6,296.3z
	 M518.8,63.6c-0.5-0.9-0.8-1.9-1.4-2.5c-0.5-0.6-1.7-1.3-2.2-1c-1,0.4-0.9,1.4-0.2,2.4c0.5,0.6,0.7,1.4,1.2,2
	c0.4,0.5,0.9,0.8,1.4,1.2C518,64.9,518.3,64.3,518.8,63.6z M444.6,123.1c-0.5-0.7-1-2.2-1.8-2.3c-1.8-0.3-1,1.5-1.4,2.4
	c-0.2,0.4-0.5,1-0.4,1.3c0.2,0.5,0.6,1.2,1.1,1.3c0.5,0.1,1.2-0.2,1.6-0.6C444.1,124.8,444.2,124.1,444.6,123.1z M23.8,341.3
	c2-1.5,1.5-3.3,1.5-5c-0.1-1.5-1-2.4-2.5-3.1C23.2,336.1,23.5,338.5,23.8,341.3z M198.7,251.2c-1.3,2.9-2,5-0.1,6.9
	c0.3,0.3,0.9,0.5,1.2,0.4c0.3-0.1,0.7-0.8,0.6-1.1C200,255.6,199.4,253.8,198.7,251.2z M459,24.6c-0.2-0.3-0.4-0.5-0.7-0.8
	c-1.4,0.7-2.9,1.3-4.1,2.1c-0.3,0.2-0.2,1.4,0.1,1.9c0.3,0.6,0.9,1.4,1.8,0.4C457,26.9,458,25.8,459,24.6z M98.8,277.6
	c-1.3-0.1-3.2,1.2-3.1,2.4c0,0.6,0.4,1.2,0.8,1.7c0.2,0.2,1.1,0.3,1.2,0.2c0.7-1.2,1.2-2.5,1.8-3.8C99.5,278.1,99,277.8,98.8,277.6z
	 M313.3,216.5c1.9-2.8,4.8-5.3,3.5-9.6C315.6,210.4,314.5,213.4,313.3,216.5z M236.9,21.1c0.6,1.7,1.2,3.5,2,5.1
	c0.1,0.3,0.9,0.7,1.1,0.6c0.3-0.2,0.6-0.7,0.7-1.1C240.9,23.1,238.8,22.3,236.9,21.1z M299.9,208.5c-0.4-0.3-0.8-0.5-1.2-0.8
	c-0.6,0.9-1.5,1.7-1.9,2.7c-0.2,0.7,0.3,1.6,0.6,2.4c0.4-0.3,1.1-0.6,1.3-1C299.2,210.8,299.5,209.6,299.9,208.5z M682,489.6
	c-0.3-0.1-0.6-0.2-0.9-0.3c-0.6,1.2-1.2,2.4-1.6,3.7c-0.1,0.3,0.6,1,1.1,1.3c0.1,0.1,1-0.4,1-0.7C681.8,492.2,681.9,490.9,682,489.6
	z M520.3,66.1c-0.3,2.3,0.3,3.7,1.7,4.6c0.3,0.2,1,0.1,1.3-0.2c0.2-0.2,0.3-1,0.2-1.2C522.6,68.3,521.6,67.4,520.3,66.1z
	 M441.7,40.2c0.3-0.1,0.6-0.2,0.9-0.3c-0.5-1.8-0.9-3.6-1.5-5.8C438.1,37.2,441.2,38.4,441.7,40.2z M381.9,16.1
	c-0.9-0.3-1.6-0.4-2-0.8c-0.7-0.8-1.3-1.6-1.8,0.1c-0.2,0.8-0.2,1.8-0.2,2.6c0.8-0.3,1.6-0.5,2.4-0.9
	C380.8,16.9,381.1,16.6,381.9,16.1z M289.2,11.5c0.5,2,0.8,3.2,1.2,4.3c0.2,0.5,0.8,0.8,1.2,1.2c0.3-0.8,1-1.9,0.7-2.4
	C291.8,13.6,290.7,12.9,289.2,11.5z M332.3,197.4c-1.3,1-2.7,1.7-2.1,3.7c0.1,0.2,0.6,0.5,0.7,0.4
	C332.3,200.5,333.2,199.4,332.3,197.4z M175.7,28.4c0-0.8,0-1.3-0.1-1.7c-0.1-0.4-0.5-0.7-0.7-1c-0.3,0.4-0.8,0.8-1,1.2
	c-0.2,0.4-0.1,1,0.1,1.4c0.3,0.5,0.7,0.9,1.1,1.3C175.3,29.1,175.6,28.6,175.7,28.4z M664.7,500.4c-0.3,0-0.5-0.1-0.8-0.1
	c-0.4,1.9-0.8,3.7-1.2,5.6c0.3,0.1,0.6,0.1,0.9,0.2C664,504.1,664.4,502.2,664.7,500.4z M126.1,278c0.9-1.3,1.4-2,1.9-2.9
	c0.1-0.2-0.4-0.6-0.6-0.9c-0.6,0.6-1.3,1.3-1.8,2C125.5,276.4,125.8,276.9,126.1,278z M224.4,240.3c-1.3-0.2-2.1-0.4-3-0.4
	c-0.3,0-0.5,0.6-0.8,0.9c0.8,0.2,1.6,0.5,2.4,0.6C223.3,241.4,223.6,240.9,224.4,240.3z M451.7,48.2c-0.2-0.2-0.4-0.3-0.6-0.5
	c-0.4,0.2-0.9,0.3-1.3,0.6c-0.5,0.5-0.9,1-1.3,1.6c-0.1,0.1,0.3,0.5,0.5,0.7c0.5-0.4,1.1-0.7,1.5-1.2
	C451.1,49.2,451.4,48.7,451.7,48.2z M513.4,79.7c0.2,0.1,0.5,0.2,0.7,0.3c0-0.8,0.3-1.6,0.1-2.3c-0.3-1.1,1.8-2.3-0.2-3.3
	c-0.2,1.1-0.5,2.3-0.6,3.4C513.2,78.4,513.3,79.1,513.4,79.7z M319.7,52.9c-0.2,0.4-0.4,0.7-0.4,0.9c0.3,0.8,0.6,1.6,1,2.3
	c0.1,0.1,0.6,0,0.9,0c-0.2-0.8-0.2-1.7-0.5-2.4C320.6,53.4,320.1,53.2,319.7,52.9z M495.7,71.3c-0.2,0-0.4,0.1-0.6,0.1
	c-0.1,0.8-0.3,1.5-0.2,2.3c0,0.5,0.4,1,0.7,1.4c0.3-0.5,1-1,1-1.5C496.5,72.9,496,72.1,495.7,71.3z M311.6,198.1
	c0.2,0.1,0.4,0.2,0.6,0.2c0.4-0.7,0.8-1.3,1-2c0.1-0.5-0.2-1.1-0.3-1.7c-0.4,0.4-1,0.7-1.2,1.2C311.5,196.5,311.6,197.3,311.6,198.1
	z M350.2,175.5c-0.2-0.1-0.5-0.2-0.7-0.3c-0.3,0.8-0.7,1.6-0.9,2.5c-0.1,0.3,0.4,0.7,0.7,1.1c0.3-0.4,0.8-0.7,0.9-1.1
	C350.3,177.1,350.2,176.3,350.2,175.5z M143.3,7.9c-0.8-0.5-1.5-1-2.3-1.5c0,0-0.5,0.7-0.7,1c0.8,0.4,1.6,0.8,2.4,1.2
	C142.7,8.7,142.9,8.3,143.3,7.9z M13.4,305.7c-0.6,0.9-1,1.3-1,1.7c-0.1,0.7-0.1,1.4,0,2.1c0,0.2,0.5,0.3,0.8,0.4
	c0.2-0.7,0.4-1.4,0.5-2.1C13.7,307.4,13.6,306.9,13.4,305.7z M417.1,114.1c-0.5-0.4-1.1-0.9-1.7-1.3c-0.1,0.3-0.5,0.8-0.4,0.9
	c0.4,0.5,1,0.9,1.5,1.4C416.7,114.9,416.8,114.6,417.1,114.1z M307,213.4c0.1,0.3,0.2,0.7,0.4,0.7c0.2,0.1,0.5-0.2,0.8-0.3
	c-0.2-0.3-0.4-0.7-0.6-1C307.4,213,307.2,213.2,307,213.4z M163.2,10.6c0.5-0.7,0.7-0.9,0.7-1.1c-0.1-0.7-0.2-1.4-0.4-2.1
	c-0.1,0.1-0.3,0.2-0.3,0.3C163.2,8.6,163.2,9.3,163.2,10.6z M426.2,51c-0.1,0.6-0.1,1-0.1,1.4c0,0.1,0.2,0.2,0.3,0.4
	c0.1-0.4,0.3-0.8,0.4-1.2C426.8,51.5,426.5,51.3,426.2,51z M6.7,359.8c-0.2-0.1-0.6-0.3-0.7-0.2c-0.2,0.2-0.4,0.5-0.5,0.8
	c0.3,0.1,0.6,0.3,0.8,0.2C6.5,360.5,6.6,360.1,6.7,359.8z M21.4,328.4c-0.3,0.2-0.6,0.4-0.6,0.5c0,0.3,0.2,0.6,0.4,0.7
	c0.2,0.1,0.5-0.1,0.8-0.1C21.7,329.1,21.5,328.8,21.4,328.4z M300.5,221.8c-0.1,0-0.3,0-0.3,0.1c-0.1,0.1-0.1,0.3-0.1,0.4
	c0.2,0,0.4-0.1,0.6-0.1C300.6,222.1,300.5,222,300.5,221.8z M139.3,20.9c-0.1,0.1-0.3,0.2-0.3,0.3c0,0.2,0.2,0.5,0.3,0.7
	c0.1-0.1,0.3-0.2,0.3-0.3C139.5,21.4,139.4,21.2,139.3,20.9z M266.6,18.8c0-0.2,0-0.3,0.1-0.5c-0.2,0-0.4,0.1-0.6,0.1
	c0.1,0.1,0.1,0.3,0.2,0.4C266.3,18.9,266.5,18.8,266.6,18.8z"/>
<path d="M698.5,45.7c-2.5,1.6-2.5,1.6-3.9-0.7c-0.2-0.3-0.3-0.5-0.5-0.7c-0.3,0.3-0.9,0.6-1,0.9c-0.5,2-0.6,4.1-1.2,6.1
	c-0.5,1.5-1.4,2.8-2.5,4c-0.5,0.5-1.8,0.8-2.5,0.6c-1.8-0.8-2.6,0-3.5,1.4c-0.7,1.2-1.9,1.2-2.8,0.1c-1.3-1.5-2.6-2.1-4.6-1.2
	c-0.4,0.2-1.8-0.8-2-1.4c-0.4-1.1-0.2-2.4-0.3-4c-1.2,0.5-2.5,1.1-3.8,1.5c-2.6,0.9-3.3,0.1-3-2.7c0.4-3.6,1.9-6.8,3.5-9.9
	c0.7-1.3,0.5-1.5-1.1-1.4c-0.8,0.1-1.7-1-2.7-1.6c-0.2,0.4-0.6,1.2-1,1.8c-1.7,2.8-2,2.8-3.7,0.1c-0.9-1.4-1.5-2-2.9-0.6
	c-0.4,0.4-1.5,0.8-1.6,0.7c-2.8-2.6-3.7,0.6-4.4,1.8c-1.5,2.4-4.9,1.6-6.2,4.1c0,0.1-1.5-0.3-2.1-0.8c-1.4-1.2-2-0.3-2.4,0.9
	c-0.3,0.7-0.5,1.5-0.8,2.3c-0.5,1.2-0.8,1.8-2.4,0.7c-2.8-1.9-4.3-1-4.7,2.3c-0.1,0.6,0,1.3-0.1,1.9c-0.4,2.2-1.3,2.7-3.3,1.8
	c-1.2-0.5-2.3-1.1-3.4-1.8c-0.8-0.4-1.5-1.6-2.4-0.3c-0.8,1.1-1.6,2.1-0.2,3.8c5.7,6.7,11.2,13.7,16.8,20.5c2.7,3.2,5.5,6.3,8.3,9.4
	c2.8,3.1,5.4,6.4,8.4,9.3c5.6,5.3,9.6,11.6,13.7,18c3.2,5,7,9.5,10.7,14.2c2,2.5,3.9,5,5,8.2c0.8,2.2,2.3,4.2,3.6,6.2
	c2.2,3.5,4.6,6.9,6.9,10.3c0,1.3,0,2.6,0,3.9c-5.2-7.1-10.3-14.3-13.8-22.5c-0.5-1.2-1.3-2.2-2-3.3c-5.7-8.2-11.4-16.3-17.1-24.5
	c-0.6-0.8-1.1-1.6-1.7-2.3c-6.7-7.4-13.6-14.6-20.1-22.2c-5.4-6.2-10.3-12.7-15.5-19.1c-0.9-1.1-1.9-2.2-3-3.2
	c-4.5-4.2-8.5-8.8-12-13.8c-0.4-0.5-0.9-0.9-1.4-1.3c-1.8,1.5-1.6,3.5-1.6,5.4c0.1,3.9-2.6,6.1-5.2,8.3c-0.2,0.2-1.5-0.4-1.6-0.8
	c-0.9-2.5-1.7-5.2-2.6-8.1c-1.9,1.5-3.7,3.1-5.6,4.4c-0.8,0.5-2,0.5-3,0.8c-0.1-0.9-0.7-2-0.4-2.7c2.1-4,2.1-8.2,1.8-12.6
	c-0.1-1.4,0.6-2.8,0.8-4.2c0.1-0.4-0.3-1-0.6-1.1c-0.3-0.1-1,0.1-1.2,0.4c-0.4,0.6-0.7,1.4-0.9,2.2c-0.9,3.3-2.4,6.1-5.4,8.2
	c-2.8,2-5.2,5-5.8,8.6c-0.6,3.5-2.8,6-4.6,9.6c-1.7-3.4-3.2-6.1-4.6-8.9c-0.5-1-0.8-2.2-1.5-3c-3-3.4-2.9-7.6-2.2-11.5
	c0.5-2.8,0.2-5.4-0.4-8c-0.6-2.6-1-5,0-7.5c0.3-0.7,0-1.5-0.1-2.3c0-0.1-0.2-0.3-0.3-0.3c-0.3,0-0.6,0.1-0.8,0.3
	c-0.2,0.2-0.3,0.6-0.3,0.9c-0.1,0.5-0.1,1,0,1.5c0.2,4-2.4,7.6-0.6,12.1c1.4,3.5,0.6,8,0.5,12c-0.1,1.9-0.6,3.8-1.4,5.5
	c-0.7,1.6-2.1,1.5-2.7-0.1c-1.1-2.9-1.9-5.8-2.8-8.7c-0.2-0.7-0.6-1.4-1.1-2.6c-2.4,4.4-5.4,7.2-9.8,8.4c-1.3,0.4-1.8,3.2-3.7,2.1
	c-1-0.6-1.3-2.4-1.9-3.7c-0.4-0.7-0.7-1.4-1.1-2c-2.3,0.8-4.5,1.8-6.8,2.1c-3.6,0.6-4.5-0.8-3.1-4.1c0.9-2.1,2.1-4,3.1-6
	c0.3-0.6,0.8-1,1.1-1.6c0.5-1.1,1.6-2.2,0.3-3.5c-0.8,0.7-1.6,1.4-2.3,2.2c-1.8,1.9-3.4,3.9-6.5,3.4c-1.9-0.3-2.6-1-2.1-2.9
	c0.4-1.5,1.1-3,1.6-4.5c0.7-1.8,1.4-3.6,2.3-6c-1.3,0.3-2.1,0.4-2.9,0.7c-3.6,1.4-3.6,1.5-5-2.3c-0.2-0.4-0.8-1-1.1-0.9
	c-2.7,0.2-3.5-1.9-4.6-3.6c-0.3-0.5-0.3-1.2-0.6-1.8c-0.9-2.1-1.3-2.2-3.1-0.8c-1.1,0.9-2.1,2.3-3.8,1.4c-1.8-1.1-2.5-3-2.4-5
	c0.1-2.1,0.3-4.2,1-6.1c0.7-1.9-0.2-2.4-1.5-2.8c-1.7-0.5-3.6-0.8-3.5-3.3c1,0,1.9,0,2.9,0c2.1,2.5,2.8,2.5,3.9,0c0.3,0,0.6,0,1,0
	c-0.4,2.7-0.7,5.4-1.1,8.1c-0.2,1.1-0.7,2.2-0.7,3.3c-0.1,1.4-0.4,3.5,1.4,3.6c1.3,0,2.7-1.5,3.8-2.6c0.3-0.2,0.1-1.2,0-1.8
	c-0.1-0.9-0.4-1.9-0.6-2.8c-0.8-3.4-0.8-3.4,2.3-6.1c-0.4,1.3-1.1,2.5-0.9,3.4c0.8,4.6,1.8,9.1,4.2,13.2c0.2,0.4,1.2,0.6,1.6,0.4
	c1.4-0.5,3-1.3,2.5-3c-1.3-4.6,0.4-10.2-4.2-13.9c-0.4-0.3-0.3-1.2-0.5-1.8c0.6,0,1.3,0,1.9,0c1.2,2.1,2.3,4.2,3.5,6.3
	c2.5-1.5,3.7-3.5,3.3-6.3c1.3,0,2.6,0,3.9,0c-0.6,1.1-1,2.4-1.8,3.2c-2.8,3-4.3,6.3-4,10.5c0.1,1.2-0.3,2.5-0.5,3.8
	c-0.2,1.4-0.4,2.9-0.4,4.3c0,0.7,0.3,1.9,0.8,2c0.6,0.2,1.6-0.2,2.2-0.7c1.2-1,1.9-2.8,3.3-3.4c3.3-1.6,4.1-4.9,5.6-7.6
	c1.8-3.3,0.5-6.6-0.5-9.8c-0.2-0.8-0.4-1.5-0.6-2.3c1.3,0,2.6,0,3.9,0c0.4,1.8,0.5,4,1.5,5.4c1.3,1.8,1.7,3.3,0.7,5.3
	c-0.6,1.1-0.5,2.5-1,3.7c-1.3,2.8-0.2,5.2,0.7,7.8c0.9,2.5,4.4,1.1,4.9,3.8c0.3-0.1,0.6-0.1,0.9-0.2c3.1-1.8,4.8-6.1,3.5-9.2
	c-1.6-3.8-3.5-7.5-5.5-11c-1.2-2-3-3.7-4.6-5.5c1.6,0,3.2,0,4.9,0c0.6,0.5,1.2,1,1.8,1.4c1.5,0.9,1.9,0,2-1.4c0.6,0,1.3,0,1.9,0
	c0.1,0.4,0.2,0.8,0.3,1.3c0.2-0.4,0.4-0.8,0.7-1.3c0.6,0,1.3,0,1.9,0c-0.1,0.5,0,1.1-0.2,1.4c-1.9,1.8-2.6,3.7-1,6.1
	c0.7,1.1,0.8,2.5,1.2,3.8c1.1-0.8,2.2-1.7,3.3-2.5c0.3-0.2,0.5-0.5,0.7-0.6c3.6-1.6,5.1-4.6,5.7-8.2c0.6,0,1.3,0,1.9,0
	c0.2,1.8-1.9,3.4-0.3,5.4c2.1-1.8,4.1-3.6,6.2-5.4c1,0,1.9,0,2.9,0c3.7,3.1,7.3,6.1,11,9.1c-0.3-3-0.9-6.1,0.7-9.1
	c0.6,0,1.3,0,1.9,0c-0.3,2.5-0.6,5.1-0.9,7.6c-0.1,1.1,0.3,1.8,1.5,2c2.3,0.4,4.9,1.7,6.8,1.1c2.2-0.8,2.3-4.5,0.8-6.7
	c-0.9-1.3-1.6-2.7-2.4-4c0.6,0,1.3,0,1.9,0c1.9,4.2,3.4,4.5,6,1.2c0.3-0.4,0.5-0.8,0.8-1.2c1,0,1.9,0,2.9,0c-1,1.2-2.1,2.4-3.1,3.6
	c-0.9,1.1-2,2.1-2.7,3.3c-2.8,4.6-2.7,5.1,1.3,8.5c0.5,0.4,1,0.7,1.5,1.1c0,1.7,0,3.4,0,5.4c2.3-1.2,4.2-2.2,6.2-3.2
	c0.8-0.4,1.1-0.7,0.9-1.8c-0.6-4.3-1-4.5-4.7-2.1c-0.8,0.5-1.6,1.1-2.3,1.6c0-2.1,1.4-3.1,3-4c1-0.5,2.5-0.9,2.8-1.7
	c1.5-3.7,4.8-6.5,4.8-10.8c0.6,0,1.3,0,1.9,0c-0.9,2.5-1.9,5-2.7,7.6c-0.3,1.1,0.1,1.7,1.3,2c2.1,0.6,4.2,1.3,6.2,2
	c0.3,0.3,0.6,0.7,1,1c0.3,0.3,0.7,0.6,1,1c0.1,0.1,0.1,0.3,0.2,0.4c0.1,0.1,0.2,0.1,0.3,0.1c-0.2-0.2-0.3-0.3-0.5-0.5
	c-0.3-0.3-0.6-0.7-1-1c-0.3-0.3-0.7-0.6-1-1c-1.3-3.8-2.5-7.6-1-11.6c0.6,0,1.3,0,1.9,0c-0.2,0.8-0.4,1.5-0.6,2.3
	c-1,4.2,0.8,8.6,4.4,10.6c0.5,0.3,1.3,0.5,1.7,0.3c1.9-0.8,3.4-5.1,2.4-6.9c-0.7-1.2-1.7-2.3-2.3-3.5C624.1,2,624,1,623.8,0.1
	c0.6,0,1.3,0,1.9,0c1.3,3.2,2.5,6.3,3.9,9.5c0.2,0.4,0.6,0.8,1,0.8c0.3,0,0.7-0.5,0.8-0.9c1-3.1,2-6.3,3-9.4c0.6,0,1.3,0,1.9,0
	c-0.3,1.2-0.5,2.5-0.9,3.6c-0.5,1.5-1.1,3-1.7,4.5c-0.7,1.7,0.2,2.8,1.4,3.7c1.4,1,1.9-0.6,2.6-1.2c0.8-0.7,1.6-1.6,2.2-2.5
	c1.7-2.7,3.4-5.4,5.1-8.1c0.3,0,0.6,0,1,0c0.2,2.5,0.1,4.7-2,6.6c-1.5,1.3-2,3.2-1,5.2c0.3,0.7,0,1.6,0.2,2.4c0.5,2.4,0.4,6,2.9,6.6
	c2.5,0.6,4.5-2.2,6-4.3c2-2.7,2.5-5.6,0.4-8.9c-1.4-2.2-1.7-5.1-2.6-7.6c1,0,1.9,0,2.9,0c1,2.2-0.6,5.1,1.9,6.8
	c1.8,3.4,1.5,6.7-0.6,9.8c-0.9,1.3-1.9,2.6-2.8,3.8c-1.3,1.7-1.3,1.7,1.5,2.8c1,0.3,1.9,0.6,2.9,1c1.7,2.8,2.8,5.7,1.4,9.1
	c-0.2,0.5,0.5,1.3,0.7,2c0.5-0.5,1.4-0.8,1.6-1.4c0.8-3.1-0.3-6-1.2-8.9c-0.1-0.5-1.6-0.6-2.5-0.8c-1-0.3-1.9-0.7-2.9-1
	c-0.7-1.3-1.2-2.5,1.1-2.3c3.1,0.2,3.1,0.2,4.3-2.7c0.5-1.3,1-2.7,1.3-4.1c0.3-1.1,0.9-1.6,2-1.5c4.9,0.8,9.7,6,9.7,11.1
	c0,3.2,0.9,5.9,2.6,9.6c0.9-3.1,1.8-5.3,2.1-7.6c0.6-3.6,0.8-7.3,4-9.9c0.5-0.4,0.4-1.7,0.4-2.5c0-0.4-0.4-0.9-0.8-1.1
	c-0.2-0.1-0.8,0.4-1.1,0.7c-0.4,0.5-0.6,1.1-0.9,1.7c-1.9,4.1-3.8,5.4-8.5,1.1c-0.6-0.5-1.1-1.2-1.6-1.8c-3.1-4.1-4.7-8.7-4-13.9
	c0.6,0,1.3,0,1.9,0c-0.6,4.3,0.7,8.3,3.1,11.8c1,1.5,2.7,2.7,4.1,3.8c0.4,0.3,1.5,0.3,1.7,0.1c1.3-1.8,2.7-3.7,3.3-5.7
	c0.3-0.8-1.3-2.3-2.2-3.3c-1.8-1.9-3.5-3.8-3.2-6.7c0.6,0,1.3,0,1.9,0c0.4,3.5,1.9,6.1,5.4,7.3c0.5-2.6,1-5,1.4-7.3c1,0,1.9,0,2.9,0
	c-1.2,2.7-1.9,5.5-2.3,8.5c-0.4,3.1,0.2,4.5,3.1,5.1c1.7,0.3,3.4,0.7,5.1,1c0.1,0.1,0.1,0.3,0.2,0.4c0.1,0.1,0.2,0.1,0.3,0.1
	c-0.2-0.2-0.3-0.3-0.5-0.5c0.6-2.2-1.6-4.3-0.2-6.5c1.8-2.9,0.7-5.5-0.8-8.1c0.6,0,1.3,0,1.9,0c0.6,0.8,1.2,1.6,1.8,2.3
	c0.4-0.8,0.8-1.6,1.1-2.3c0.6,0,1.3,0,1.9,0c-0.7,1.6-1.2,3.3-2.2,4.6c-2.1,2.9-2,6-1.4,9.2c0.7,3.4,2,3.7,4.9,1.8
	c0.5-0.3,1.1-0.7,1.6-1c0,1.3,0,2.6,0,3.9c-1.7,0.9-2.8,2.1-2.9,4.1c-0.3,4.7,0.3,9.2,2.9,13.4c0,1.3,0,2.6,0,3.9
	c-0.4,0.2-0.9,0.4-1.1,0.7c-0.3,0.4-0.3,1-0.5,1.5c0.5-0.1,1.1-0.2,1.6-0.3C698.5,43.1,698.5,44.4,698.5,45.7z M617,45.7
	c-0.1-0.1-0.1-0.3-0.2-0.4c-0.1-0.1-0.2-0.1-0.3-0.1C616.7,45.4,616.9,45.5,617,45.7c1,1.3,1.9,2.6,2.9,3.9c0.1,0.1,0.1,0.3,0.2,0.4
	c0.1,0.1,0.2,0.1,0.3,0.1c-0.2-0.2-0.3-0.3-0.5-0.5C620,47.5,619.6,45.8,617,45.7z M642.3,19.5c0.1,0.1,0.1,0.3,0.2,0.4
	c0.1,0.1,0.2,0.1,0.3,0.1C642.6,19.8,642.4,19.7,642.3,19.5c-0.4-2.3-0.8-4.6-1.3-6.9c0-0.2-1.4-0.4-1.4-0.3
	c-0.4,0.9-1.1,2.2-0.7,2.8C639.7,16.7,641.1,18.1,642.3,19.5z M626.7,21.4c0.3-0.7,0.8-1.3,0.9-2c0.2-1.8,0.2-3.6,0.3-5.4
	c-1.6,1-3.1,2-4.5,2.9C623.7,19.2,626.9,19,626.7,21.4c-1.3,0.8-2.5,1.6-1.9,3.6C625.5,23.9,626.1,22.6,626.7,21.4z M637.4,40.9
	c1,0.9,2.1,1.7,3.2,2.7c0.8-1.5,1.6-2.9,2.3-4.3c0.7-1.4,1.4-1.7,2.3-0.2c0.3,0.5,0.8,0.9,1.7,1.9c0-1.8,0.2-2.9,0-3.9
	c-0.4-1.8-1.7-2.2-3.1-1.1C641.7,37.6,639.5,39.2,637.4,40.9c-0.5,0-1-0.1-1.4,0c-0.5,0.2-0.8,0.7-1.2,1c0.6,0.2,1.3,0.6,1.9,0.4
	C637.1,42.3,637.2,41.4,637.4,40.9z M610.9,28.3C610.9,28.3,610.9,28.3,610.9,28.3c-0.5,0-1,0-1.5,0c-4.4,0.1-5.3,1.6-3.1,5.6
	c0.3,0.6,0.7,1.1,1.1,1.6c3.4,4.6,8.6,6.7,13.3,9.5c1.1,0.7,2.1-0.2,1.8-1.3c-0.9-3.9-1.9-7.7-3.1-11.5c-0.8-2.6-2.9-3.7-5.6-3.9
	C612.9,28.2,611.9,28.3,610.9,28.3z M677.2,28c0.2,1,0.5,2.2,0.7,3.5c0.4,2.2,1.8,3.1,3.3,1.8c3.8-3.1,6.4-7.1,8.3-11.5
	c0.2-0.6,0.2-1.3,0.2-1.9c0.1-2.1-1-3.5-2.8-4c-1.8-0.4-3.9-0.9-5.4,0.9C679,20,677.7,23.7,677.2,28z M629.2,20.5
	c0.5,4.8,1.1,5.5,5.5,6.9c0.9,0.3,1.8,0.8,2.6,1.2c2.3,1.1,4.4,0.6,6.4-0.6c1-0.6,1.4-1.1,0.5-2.2c-2.1-2.6-4-5.4-6.1-8
	c-1.7-2.2-3.4-4.6-6.6-4.8C630.7,15.5,629.9,18,629.2,20.5z M669.4,25.4c0-4.7-1.8-8-4.9-9.3c-1.7-0.7-3.2-0.3-3.5,1.2
	c-0.5,2.8-1.9,5.4-0.7,8.4c1.1,2.9,1.6,6.2,2.4,9.2c0.1,0.6,0.5,1.1,0.7,1.7c0.7-0.3,1.5-0.5,2-1.1
	C667.8,32.5,669.7,29.2,669.4,25.4z M587,11.5c-1.2,0.4-2.2,0.5-2.5,1c-0.3,0.5,0,1.5,0.3,2.2c0.5,1.1,1.3,2.2,2,3.3
	c1.7,3.1,3.3,6.2,5.1,9.2c0.5,0.8,1.5,1.8,2.4,1.9c1.5,0.2,2.1-1.1,2.4-2.5c0.4-1.7,0.7-3.4,1.4-5c1.1-2.6,0.2-4.6-1.9-5.8
	C593.2,14.1,589.9,12.8,587,11.5z M547.1,32.5c0-0.3,0-0.6,0-1c-0.2-1.2,0.5-2.7-1.3-3.2c-2.3-0.6-3.8,0-4.9,1.8
	c-1.7,2.9-3.5,5.7-5.2,8.5c-1,1.7-1.8,3.4-2.6,5.1c-0.6,1.3,0.1,1.9,1.3,1.8c1.2-0.1,2.5-0.4,3.6-1c1.5-0.8,2.9-2,4.4-2.9
	C545.9,39.7,547.1,36.4,547.1,32.5z M571.3,39.6c1.3-2.2,1.8-3.5,2.7-4.6c2.8-3.6,3-8,3.2-12.2c0.1-1.2-0.6-2.4-1.1-3.6
	c-0.6-1.3-1.8-1.8-3.2-1.5c-1.4,0.3-3,0.6-3.2,2.4c-0.4,2.8-1.1,5.7-0.9,8.5C569,31.9,570.2,35.2,571.3,39.6z M579.1,47.6
	c0.6-0.4,1.2-0.7,1.7-1.1c1.7-1.7,3.3-3.6,5.1-5c3.1-2.4,3.9-5.7,4.7-9.1c0.1-0.6,0-1.3-0.2-1.8c-1-2.3-4.8-5.6-5.4-4.8
	c-1.1,1.5-1.5,3.4-2.2,5.1c-0.2,0.6-0.6,1.2-0.5,1.8c0.1,3.5-1.2,6.5-2.6,9.6c-0.6,1.3-0.9,2.7-1.2,4.1
	C578.3,46.6,578.8,47,579.1,47.6z M601.7,24.7c3.2,1.2,6.4,1.8,9.8,1.6c4-0.2,7.7,0.3,9.9,4.4c0.8,1.5,4.3,1.9,5.7,1
	c0.3-0.2,0.4-0.9,0.3-1.2c-0.4-0.7-0.9-1.3-1.6-1.8c-3.2-2.6-6.5-5.2-9.8-7.8c-0.7-0.6-1.8-1.3-2.6-1.1
	C609.3,20.7,604.6,20.2,601.7,24.7z M555.3,23.6c-4.2,0.8-5.9,2-6,5.1c-0.2,5.2-0.1,10.3,0,15.5c0,1.3,1.2,1.8,2,1.2
	c1.5-1.3,2.9-2.9,4-4.7c0.5-0.7,0.1-2.1-0.1-3.1c-0.7-3.4-2-6.8-0.4-10.3C555.3,26.2,555.2,24.9,555.3,23.6z M594,50.8
	c3.8-2.2,6-5.2,6.7-9.2c0.2-1.2,1-2.4,1.2-3.6c0.6-2.7,1.1-5.3,1.4-8c0.1-0.8-1-2.2-1.8-2.4c-0.7-0.2-2.1,0.6-2.6,1.4
	c-2.3,3.3-3.6,7-3.2,11.2C596,43.7,596.1,47.4,594,50.8z M651.1,40c1.6-2.6,3.1-4.6,4.1-6.9c1.6-3.6,0.7-5.5-2.7-7.4
	c-0.7-0.4-1.6-0.7-2-1.3c-1.5-1.9-3.1-1.5-5.4-0.1c0.6,0.3,1,0.6,1.5,0.8c1.3,0.6,1.7,1.5,0.6,2.6c-0.6,0.6-1.2,1.1-1.9,1.5
	c-1.2,0.7-1,1.4-0.3,2.3C646.9,34,648.8,36.6,651.1,40z M694.3,30.3c-4.9,3.1-8.6,6.6-10.8,11.7c-0.2,0.6-0.5,1.3-0.3,1.9
	c0.2,0.6,0.7,1.5,1.3,1.6c2.1,0.5,5.5-1.2,6.3-3.2c0.5-1.3,0.7-2,2.6-1.9c2.2,0.2,3.1-1.6,2.6-3.9C695.5,34.6,694.9,32.6,694.3,30.3
	z M576.2,57.2c0.7-1.2,1-1.9,1.5-2.6c1.4-2.1,1.9-3.9-0.4-5.8c-0.7-0.6-0.8-2.3-0.6-3.5c0.2-1.4,1.1-2.7,1.4-4.1
	c0.2-1.2,0.2-2.6-0.1-3.7c-0.4-1.5-2.1-1.7-2.9-0.5c-1.5,2.3-2.7,4.7-4.3,6.9c-0.9,1.2-1,2-0.1,3.3
	C572.5,50.3,574.1,53.6,576.2,57.2z M668.9,50.1c7.4-2,11.2-6.4,12.2-13.9c-0.3,0.1-0.6,0.1-0.9,0.3c-1.6,1-2.8,3.7-5.2,1.1
	c-0.1-0.1-1.2,0.3-1.5,0.8C671.2,41.9,669,45.5,668.9,50.1z M562.1,7.8c-3.3,1.4-6.6,2.5-8.3,5.5c-1.5,2.7-3.8,5.3-2.8,9
	c0.7-0.3,1.3-0.8,1.9-0.8c4.8,0.2,6.3-2.7,7-6.8C560.3,12.5,561.3,10.4,562.1,7.8z M604.5,54.2c6.6-5.3,6.6-11.3-0.3-19
	c0.9,2.7,1.4,4.8-0.9,6.4c-0.7,0.5-0.9,2.1-0.7,3.1C603.1,47.9,603.8,50.9,604.5,54.2z M582.1,15.7c0.1-3.8-5.2-11.5-8.3-12.3
	c-0.3-0.1-1.1,0.4-1.1,0.6c0,1.9-0.5,4.2,0.4,5.6c1.9,2.9,4.4,5.4,6.8,8c1,1.1,1.7,0.3,2.1-0.7C582,16.4,582,15.9,582.1,15.7z
	 M612.1,11.4c-1,0.5-2.2,0.7-2.5,1.4c-1.3,2.6,0.7,5.7,3.6,5.6c2.5-0.1,4.4,0.7,5.9,2.6c0.4,0.5,0.9,0.9,1.3,1.4
	c1,1,1.8,0.5,2.3-0.3c0.3-0.5,0.4-1.6,0.1-1.9c-2.1-2.2-4.2-4.5-6.5-6.5C615.1,12.6,613.5,12.1,612.1,11.4z M570.1,3
	c-1.5,1.1-2.9,1.9-4,3c-2.8,2.9-3.2,7.5-1.1,10.2c1.5,1.8,3.1,1.7,3.9-0.6C570.3,11.8,571,7.7,570.1,3z M556.1,33.7
	c0.9-1,1.5-2.1,2-2c3.2,0.1,3.5-2.7,4.7-4.6c1.3-2.2,1.2-4.6,0.6-7c-0.4-1.5-2-1.8-2.9-0.6C557.4,23.6,555.5,28,556.1,33.7z
	 M624.2,33.8c-0.5,0.8-1.1,1.4-1.2,2c-0.4,3.6,2.7,8.4,6.1,9.5c0.6,0.2,1.3,0.4,1.9,0.3c0.8-0.3,1.8-0.8,2.3-1.5
	c0.2-0.3-0.4-1.4-0.8-2c-1.8-2.2-3.7-4.4-5.6-6.6C626.1,34.9,625.2,34.5,624.2,33.8z M584.4,17.6c-1.3,1.1-2.4,2.7-3.2,2.6
	c-2.1-0.4-1.9,0.7-2,2c-0.3,3.2-0.5,6.4-1.3,9.4c-0.6,2.2,0.2,3.1,1.8,3.9c0.9-3.8,1.7-7.4,2.5-10.9c0.3-1.2,0.8-2.1,2.3-1.9
	c1.1,0.2,1.9,2.4,3.1,0.9c0.3-0.4-1-2.1-1.6-3.2C585.5,19.5,585,18.6,584.4,17.6z M692.3,18.9c-1.1,2.7-2,5.4-3.4,7.8
	c-1.4,2.5-3.4,4.6-5.1,6.9c-0.4,0.5-0.6,1.1-0.7,1.7c-0.1,0.4,0.3,0.8,0.6,1.2c0.1,0.1,0.6-0.1,0.8-0.3c2.6-2.4,5.1-4.8,7.6-7.2
	c1.4-1.3,2.3-7.6,1.3-9.3C693.3,19.5,692.8,19.3,692.3,18.9z M563.7,49.9c0-1.9-0.5-4,0.1-5.7c1.5-3.6-0.6-6.9-0.4-10.4
	c0-0.4-0.5-1.1-0.8-1.1c-0.5,0-1.3,0.2-1.6,0.6c-0.5,0.7-1.1,1.6-1.2,2.5C559.6,40.9,560.9,45.5,563.7,49.9z M535.1,16
	c-0.8,1.4-1.2,2.8-2.1,3.6c-3.5,2.9-2.2,6.3-1.1,9.7c0.2,0.5,0.7,1,1.1,1.4c0.5-0.5,1.4-0.9,1.6-1.5c0.7-2.1,1.3-4.2,1.7-6.4
	C536.8,20.5,536.8,18.3,535.1,16z M683.4,48.1c0.3,0.8,0.6,1.6,1,2.2c0.9,1.6,1.6,4.2,3.8,3.5c1.1-0.3,1.9-2.8,2.3-4.4
	c0.7-2.1-0.4-3.1-2.5-2.7C686.5,47.1,685,47.6,683.4,48.1z M636.9,38.8c2-1.3,3.8-2.3,5.4-3.6c1.4-1.1,0.9-3.3-0.8-3.8
	c-0.9-0.3-1.9-0.1-2.8-0.2c-1.7-0.1-2.3,0.8-2.2,2.3C636.6,35,636.7,36.6,636.9,38.8z M545.1,49.1c1.1-2.8,2-4.7,2.6-6.6
	c0.2-0.7-0.1-1.5-0.1-2.2c-0.7,0.3-1.4,0.4-2,0.8c-0.5,0.3-0.9,0.9-1.4,1.3c-1.3,1-1.7,2.1-0.7,3.6
	C543.9,46.7,544.2,47.4,545.1,49.1z M549,12.4c0.3-0.2,0.6-0.4,0.9-0.6c-1.2-3.4-0.7-7.9-6.5-8.6C545.4,6.6,547.2,9.5,549,12.4z
	 M529.9,29.4c-0.7,0.5-1,0.6-1.1,0.8c-0.6,1.6-1.2,3.2-1.7,4.9c0,0.2,0.7,0.8,0.9,0.8c1.1-0.5,2.4-1,3-1.9c0.4-0.7,0-2-0.2-3
	C530.7,30.4,530.2,29.9,529.9,29.4z M633.4,31.4c-0.1-0.4-0.2-0.9-0.4-1.2c-1.7-2.6-5.6-5.2-5.7-4.2c-0.2,2.5,2.6,3.4,3.3,5.5
	c0.1,0.4,0.6,0.8,1,1c0.3,0.1,0.9,0,1.2-0.1C633,32.1,633.1,31.7,633.4,31.4z M676.4,52.8c0.2,0.1,0.5,0.3,0.7,0.4
	c1.3-1.7,2.7-3.3,3.8-5.1c0.3-0.4-0.3-1.4-0.5-2.2c-0.7,0.3-1.7,0.4-2,1C677.6,48.8,677,50.8,676.4,52.8z M540.5,27.6
	c-0.6-1-1-2-1.7-2.8c-0.2-0.3-0.9-0.4-1.3-0.2c-0.3,0.1-0.7,0.7-0.7,1c0.2,1.6,0.5,3.1,0.9,4.6c0.1,0.2,0.4,0.5,0.7,0.5
	c0.3,0,0.7-0.2,0.8-0.4C539.7,29.5,540,28.6,540.5,27.6z M626.5,46.9c-0.1,0.3-0.3,0.5-0.4,0.8c1.5,1.1,3,2.2,4.6,3.3
	c0.3,0.2,1.2,0.2,1.3,0.1c0.3-0.5,0.5-1.3,0.3-1.7c-0.3-0.6-1-1.3-1.7-1.5C629.3,47.4,627.8,47.2,626.5,46.9z M633.3,39.4
	c0.3-0.3,0.8-0.6,0.8-1c0-0.7,0-1.7-0.4-2.1c-1.1-0.9-2.4-1.5-3.6-2.2c-0.3-0.2-0.8-0.2-1.2-0.3c0,0.5-0.3,1.1-0.1,1.3
	c1.2,1.4,2.6,2.7,3.9,4.1C632.8,39.4,633,39.3,633.3,39.4z M683.1,53.2c-0.3-0.6-0.6-1-0.8-1.4c-0.4,0.5-1,0.9-1.2,1.5
	c-0.1,0.4,0.4,1,0.6,1.4C682.2,54.3,682.6,53.7,683.1,53.2z M571.4,13.7c0.7,0.5,1.2,0.9,1.9,1.3c0.2,0.1,0.5-0.1,0.8-0.1
	c-0.5-0.6-1.1-1.3-1.6-1.9C572.4,12.9,572,13.3,571.4,13.7z M670.9,34.5c0.2-0.2,0.3-0.4,0.3-0.5c-0.2-0.9-0.4-1.7-0.6-2.5
	c0-0.1-0.3,0-0.4-0.1c0,0.7-0.1,1.4,0,2C670.2,33.8,670.6,34.1,670.9,34.5z M623.9,49.3c-0.3-0.4-0.6-0.9-0.9-1.3
	c-0.3,0.2-0.9,0.6-0.9,0.7c0.3,0.5,0.6,0.9,1,1.4C623.4,49.8,623.6,49.6,623.9,49.3z"/>
<path d="M690.8,529.7c0-3.6-0.2-7.3,0.1-10.9c0.2-1.8,1-3.7,2-5.3c1.7-2.8,3.8-5.4,5.7-8.1c0,1.3,0,2.6,0,3.9
	c-5.6,5.7-7.3,13.7-4.5,21.1c0.3,0.7,0.8,1.7,0.5,2.3c-0.8,2.1-0.2,4,0,6c0.1,0.6-0.7,1.3-1,2c-0.4-0.4-0.9-0.7-1.3-1.1
	c-0.2-0.2-0.4-0.5-0.6-0.7c-5.9-6.4-3.8-6.1-13.5-3.5c-1.3,0.4-2.6,1-3.6,2.4c3-0.6,6-1.2,9-1.7c0.6-0.1,1.3,0.4,1.9,0.6
	c-0.5,0.5-1,1.3-1.6,1.4c-2,0.5-4.1,0.7-6.1,1.1c-3.4,0.7-7,1.2-9.6,3.8c-1.2,1.1-4-0.4-4.2,2.6c0,0.5-1.3-0.5-1.3-1.2
	c0-3.5,1.5-6.5,2.9-9.5c1.3-2.7,2.6-5.5,3.9-8.2c0.3-0.6,0.6-1.3,1-1.9c0.3-0.3,0.7-0.6,1.1-1.2c0-0.1,0,0.1-0.1,0.2
	c0.1-0.1,0.3-0.1,0.4-0.2c0.1-0.1,0.1-0.2,0.1-0.3c-0.1,0-0.2,0.1-0.4,0.3c-0.4,0.5-0.7,0.8-1,1.2c-0.3,0.6-0.6,1.3-1,1.9
	c-3.5,3.3-5.5,7.4-6.8,11.9c-0.6,2-1.4,3.9-2.1,5.9c-0.1,0.2-0.6,0.4-0.8,0.3c-0.3-0.2-0.9-0.7-0.8-1c1-3.7,1.8-7.5,3.3-11
	c1.4-3.2,3.5-6.1,5.4-9.1c2-3.2,5-5.4,8.2-7.3c0.4-0.3,1.3-0.2,1.7,0.1c0.3,0.2,0.3,1.2,0,1.6c-2.1,3.8-4.4,7.5-6.5,11.3
	c-1,1.9-1.7,4.1-2.6,6.1c-0.1,0.1-0.3,0.1-0.4,0.2c-0.1,0.1-0.1,0.2-0.1,0.3c0.2-0.2,0.3-0.3,0.5-0.5c0.6-0.5,1.3-0.9,1.9-1.5
	C676.3,528.8,683.1,527.2,690.8,529.7c0.1,0.4,0.2,0.8,0.3,1.3c0.2-0.1,0.3-0.2,0.5-0.3C691.3,530.3,691,530,690.8,529.7z
	 M687.9,531.6c0.1,0.1,0.1,0.3,0.2,0.4c0.1,0.1,0.2,0.1,0.3,0.1C688.2,532,688,531.8,687.9,531.6c-2.1-1.9-4.6-1.1-6.8-0.8
	c-3.8,0.6-7.8,1.6-9.7,5.7c-0.1,0.1-0.3,0.1-0.4,0.2c-0.1,0.1-0.1,0.2-0.1,0.3c0.2-0.2,0.3-0.3,0.5-0.5
	C676.4,533.4,681.7,531.1,687.9,531.6z"/>
<path d="M698.5,537.5c-1.8-3-3.1-6-3-9.7c0.1-2.3-0.5-4.7-0.5-7.1c0-3.2,1.3-6.1,3.5-8.5c0,2.6,0,5.2,0,7.8c-1.2,1-1.2,1.9,0,2.9
	C698.5,527.8,698.5,532.6,698.5,537.5z"/>
<path d="M654.9,6.8c0.6-2.2,1.3-4.5,1.9-6.7c1,0,1.9,0,2.9,0C658.3,2.5,657.9,5.6,654.9,6.8z"/>
<path d="M698.5,5.9c-0.6-1.9-1.3-3.9-1.9-5.8c0.6,0.4,2-0.9,2,1C698.5,2.7,698.5,4.3,698.5,5.9z"/>
<path d="M432.7,4.9c-0.3-1.6-0.7-3.2-1-4.8c0.6,0,1.3,0,1.9,0C433.4,1.7,434.5,3.6,432.7,4.9z"/>
</svg>
