<?xml version="1.0" encoding="utf-8"?>
<!-- Generator: Adobe Illustrator 18.0.0, SVG Export Plug-In . SVG Version: 6.00 Build 0)  -->
<!DOCTYPE svg PUBLIC "-//W3C//DTD SVG 1.1//EN" "http://www.w3.org/Graphics/SVG/1.1/DTD/svg11.dtd">
<svg version="1.1" id="Layer_1" xmlns="http://www.w3.org/2000/svg" xmlns:xlink="http://www.w3.org/1999/xlink" x="0px" y="0px"
	 viewBox="0 0 643.2 488.2" enable-background="new 0 0 643.2 488.2" xml:space="preserve">
<path d="M562.1,22.1c-0.9-5-1.6-10.1-2.4-15.2c-0.5-0.4-0.9-0.9-1.5-1.1c-0.6-0.2-1.3-0.2-2-0.3c0.1,0.6,0.2,1.1,0.4,1.7
	c0.2,0.4,0.5,0.8,0.7,1.2c-2.9-1-2.9-1-3-3.4c-0.1-2.2-1.3-3.5-3.3-3.9c-1.5-0.3-1.9,0.7-2,2c-1.8-0.4-3.7-0.6-5.5-1.1
	c-0.5-0.2-0.8-1.1-1.3-1.7h-4.9c1.2,1,2.3,2.1,4.2,3.7c-1.9,0-3.2,0.4-3.9-0.1c-4.2-2.6-8.4-0.9-12.6-0.3c-1.5,0.2-2.7,0.1-4.1-0.4
	c-2.6-1-0.9-1.9-0.1-2.9h-15.5c1.3,0.6,2.6,1.3,3.9,1.9c0.6,0.3,1.2,0.7,1.8,1c-0.4,0-0.9-0.1-1.3,0c-1.7,0.3-3.9-1.1-5.1,1.3
	c1.7,0.3,3.3,0.6,5,0.8c3,0.4,6,0.7,9,1.1c0.4,0,0.7,0.5,0.9,0.8c0.1,0.2-0.1,0.6-0.3,0.8c-2.8,2.9-6.7,3.4-10.4,1.2
	c-3-1.7-3.7-1.5-5.4,1.7c2.7-1.3,4.9-0.3,6.9,1.7c1.1,1.1,2.3,2.3,3.8,3.8c-1.3,0.1-2,0.3-2.7,0.3c-5.9,0.1-5.9,0.1-8-5.7
	c-1.5-1.2-3-2.3-4.2-3.3c1.1-2.6,2.2-5,3.2-7.4c-0.6,0-1.3,0-1.9,0c-0.3,0.9-0.5,1.9-1,2.7c-0.7,1.2-1.4,2.8-2.5,3.4
	c-1,0.5-2.7-0.1-4-0.1c-0.3,0-0.7,0.4-1,0.7c-0.1,0.1,0.2,0.7,0.4,0.8c1.2,0.5,2.4,1,3.6,1.3c3.4,0.8,5.5,3.1,7,6.1
	c0.9,1.7,1.8,3.4,2.7,5.1c-2.2,1.9-5.1,1.5-7.7,1.2c-1.2-0.1-2.3-1.5-3.2-2.5c-0.7-0.9-1.6-2.2,0.1-3.3c0.3-0.2,0.3-1.5,0-2.1
	c-1.7-3-3.9-5.5-7.1-7c-2.7-1.3-2.7-1.3-2.1-4.4c0.1-0.6,0.1-1.3,0.1-1.9h-2.9c0.3,0.6,0.7,1.1,0.7,1.7c0.4,2.8-0.7,4.9-4.1,3.3
	c-0.4-0.2-0.9-0.3-1.4-0.3c-1.8,0-2.2-0.9-1.7-2.5c0.2-0.7,0.4-1.5,0.6-2.3c-0.6,0-1.3,0-1.9,0c0.2,2.5-2.2,4.8-0.4,7.5
	c0.1,0.1-1.2,1.8-1.8,1.7c-4.5-0.3-7.3,2.4-10.3,5.2c-1.7,1.6-2.2,1.1-3.7-0.9c-2-2.8-1.2-5.8-1-8.8c0-0.6,1.1-1.1,1.6-1.7
	c1-1,1.9-2,2.9-3c-1,0-1.9,0-2.9,0c-0.5,0.4-0.9,0.8-1.4,1.2c-0.7,0.7-1.5,1.4-2.2,2.1c-0.8-1.1-1.5-2.2-2.3-3.3c-0.6,0-1.3,0-1.9,0
	c0.9,1.5,1.9,3,2.8,4.4c1.3,1.9,1.3,3.3,0,4.2c-1.9,1.4-4.3,1.1-5.5-0.6c-0.3-0.4-0.5-0.9-0.7-1.3c-0.9-2-2.6-2.8-4.7-2.9
	c-1.3-0.1-2.6-0.1-3.9-0.1c-3-0.2-3-0.2-3.7-3.7h-3.9c0.3,3.7-0.1,4.2-3.1,3.3c-1.5-0.5-3.1-0.8-4.5-1.4c-0.5-0.2-0.8-1.2-1.1-1.8
	h-1.9c-0.8,1.3-1.5,2.7-2.5,3.8c-0.8,0.8-1.5,2.5-3,1.5c-1.1-0.7-2.1-1.9-2.8-3.1c-0.3-0.5,0.4-1.4,0.6-2.2h-3.9
	c-2,1.7-3.9,3.6-6,5.2c-1.2,1-2.6,1-3.7-0.5c-1-1.4-2.2-2.7-1.9-4.7h-1.9c0,0.8-0.2,1.8,0.2,2.3c2.1,2.9,0.8,5.3-0.7,8
	c-3.3-3.2-3.5-6.6-1.4-10.3H391c0.4,2.3,0.8,4.6,1.3,7.6c-2.1-0.6-3.4-1.1-4.7-1.4c-0.3-0.1-0.8,0.3-1.2,0.5
	c0.2,0.4,0.4,1.1,0.7,1.1c5.9,1.2,7.7,7,11.7,10.4c0.9,0.7,0.9,1.6-0.2,2.3c-0.7,0.4-1.3,1-2,1.4c-4.3,2.3-5.6,1.9-8.1-2.5
	c-1.3-2.2-2.8-4.3-2.3-7.1c0.1-0.6,0.1-1.4-0.3-1.9c-2.2-3.1-2.4-6.9-3.7-10.3c-1.3,0-2.6,0-3.9,0c-0.8,2.5-1.5,5-2.4,7.8
	c-2-1-3.7-1.9-5.4-2.5c-2-0.7-2.7-1.9-1.9-3.9c0.2-0.4,0-0.9,0-1.4h-1.9c-0.3,0.7-0.6,0.9-1,0c-1,0-1.9,0-2.9,0
	c0.2,0.4,0.4,0.9,0.7,1.2c1.6,1.6,1.5,3.1-0.2,4.5c-0.6,0.5-1.1,1.1-1.9,1.8c-0.6-2.7-1-5.1-1.5-7.6H358c1.1,2.4,1.2,4.9,0.5,7.6
	c-3.8-1.3-5.9-3.7-6.3-7.6h-1.9c-0.1,3.2,1.5,5.4,3.9,7.3c1,0.8,2,1.6,2.8,2.5c0.3,0.4,0.6,1.4,0.4,1.7c-2,3.1-2.4,6.5-2.4,10.1
	c0,0.5-1.1,1.6-1.3,1.5c-0.8-0.4-1.5-1-2.1-1.6c-0.1-0.1,0-0.7,0.1-0.9c4-6-0.2-11-1.8-16.3c-0.5-1.6-1.7-1.7-2.9-0.4
	c-1.6,1.8-3,3.7-5.2,5.2c0.3-0.6,0.6-1.2,0.9-1.8c0.1-0.4,0.1-0.8,0.1-1.2c-0.3,0-0.7,0-0.9,0.1c-3.6,2.2-7.1,4.5-10.8,6.8
	c-2.9-1.7-4.2-4.4-3-8.1c-0.7-0.1-1.8,1.3-1.9-0.6c0-1.4,0-2.8,0-4.2h-1.9c0,1.9,0,3.8-0.1,5.7c0,0.7,0.2,1.8-1.1,1.4
	c-0.9-0.3-1.8-0.6-1.4-2c0.3-1,0.5-2.1,0.7-3.2c0.1-0.6-0.1-1.3-0.1-1.9c-0.6,0-1.3,0-1.9,0c0.2,1.2,0.7,2.5,0.5,3.6
	c-0.5,2.1-1.4,2.3-3.5,1.4c-2.1-1-2.3-0.9-2.1,1.4c0,0.3,0.1,0.6,0.1,1c0.2,1.4-0.2,3.8,1.4,3.6c2.1-0.3-0.6-2.3,0.5-3.9
	c3.6,0.6,7,2.4,10.2,4.5c0.8,0.5,1.6,1.8,1.6,2.8c0.2,3.5,0.1,7.1,0,10.6c0,0.5-0.6,1.1-0.9,1.6c-0.4-0.4-1-0.6-1.2-1.1
	c-0.8-1.3-1.4-1.1-2,0.1c-0.6-0.4-1.4-0.7-1.8-1.2c-1.9-2.8-3.6-5.7-5.4-8.6c-0.8-1.3-1.4-2.6-2.7-3.8c0.8,2.8,1.5,5.5,0.5,8.3
	c-0.3,0.9-0.5,2-1.1,2.5c-0.7,0.7-2,1.4-2.9,1.2c-0.8-0.2-1.6-1.6-1.7-2.5c-0.3-3.7-0.5-7.5,3.4-10.2c-1.2,0.3-2.4,0.7-3.6,1
	c-0.1-0.2-0.4-0.5-0.3-0.7c1.1-2,1.4-4.2,1.4-6.5c0-1.7,0.5-3.4,0.8-5.1h-2.9c0,2.4,0.1,4.8,0,7.2c-0.1,3.6-4.5,7.7-8,7.1
	c-1.2-0.2-2.3-1.5-3.2-2.5c-0.2-0.2,0.6-1.3,1-2c1.6-2.4,3.3-4.6,6.1-6c1.1-0.5,1.5-2.6,2.2-3.9h-1.9c-0.3,0.7-0.3,1.9-0.8,2.1
	c-3.4,1.8-5.1,5.2-7.6,7.8c-1.1,1.1-2.3,1.7-3.8,1.5c-1.8-0.3-2.7-2-1.7-3.5c0.8-1.2,2-2.1,3-3.1c1.7-1.6,3.4-3.2,5.2-4.8H295
	c-0.3,2.7-2.7,3.7-4.3,5.3c-0.2,0.2-0.8-0.1-1.2-0.2c0.1-0.4,0-0.9,0.3-1.2c1-1.3,2.2-2.6,3.3-3.9c-1,0-1.9,0-2.9,0
	c-0.1,0.5-0.1,1.1-0.4,1.4c-0.7,0.6-1.6,1.4-2.3,1.3c-1.6-0.1-1.1-1.6-1.2-2.7h-2.9c0.5,1.6,2,3.2,0,4.8c-0.1-0.9-0.1-2.3-1.5-1.6
	c-2.3,1.1-4.5,2.5-7,3.9c0.6-2.4,1.1-4.8,1.7-7.1h-1.9c-0.4,1.8,0.5,3.8-1.3,5.6c-0.9-2-1.7-3.8-2.5-5.6c-1,0-1.9,0-2.9,0
	c1,1.8,2.3,3.5,3,5.4c0.6,1.4,0.8,3.1,0.7,4.7c-0.3,3.1-2,4.2-4.9,2.8c-2.6-1.3-5.8-1.6-7.2-5.1c3.8-1.1,5.5-3.9,5.5-7.8H263
	c0,2.1,0.1,4.2-2.4,5.1c-1.3,0.5-2.3-0.1-2.1-1.4c0.1-1.2,0.4-2.4,0.6-3.7h-1.9c-0.6,1.8-1.7,3.6-1.6,5.3c0.1,1.8,1.5,3.5,2,5.4
	c0.8,3-1.2,4.9-4.2,4.4c-2.8-0.5-5.4-1.1-5.5-5c0.9-0.1,1.8-0.2,2.8-0.3c1.7-0.2,2.6-1,2.8-2.8c0.2-2.3,0.6-4.6,0.9-7
	c-1,0-1.9,0-2.9,0c0.1,0.3,0.3,0.6,0.4,0.9c0.7,3-0.1,6.3-1.6,6.7c-2.3,0.6-6.7-2.1-7.3-4.8c-0.2-0.9-0.1-1.9-0.2-2.8h-2.9
	c0.3,0.9,0.7,1.8,0.9,2.7c0.2,1-0.2,1.9-1.4,2.1c-0.5,0.1-0.9,0.4-1.4,0.4c-3.1,0.1-5.2,2-6.8,4.4c0-0.9,0.1-1.8,0-2.8
	c-0.1-1.5-0.8-3.2-0.3-4.4c0.4-1.1,2.1-1.6,3.2-2.4c-1.9,0-3.9,0-5.8,0c-0.1,2.3-1.6,3.7-3.5,3.7c-1.8,0-2-2.1-2.3-3.7h-1.9
	c-0.6,1.1-1.3,1.1-1.9,0h-3.9c2.2,1.3,4.3,2.6,6.6,3.9c1.2,0.7,1.2,1.3,0.4,2.2c-1.3,1.4-2.6,2.8-3.9,4.3c-1.4,1.5-2.6,1.7-4.1,0.6
	c-1.8-1.4-3.4-2.9-5-4.5c-0.4-0.4-0.4-1.4-0.3-2.2c0.1-1.4,0.4-2.8,0.6-4.2h-1.9c-0.6,3.9-0.8,7.9-2.4,11.7c-1.1,2.8-1,5.9-2.3,8.7
	c-2.1,4.5-5.8,7.1-9.9,9.4c-0.3,0.2-1,0.1-1.3-0.2c-0.2-0.2-0.3-0.9-0.1-1.2c0.9-2.2,1.9-4.4,2.7-6.6c1.6-4.2,4.7-7.2,8.1-10
	c1.1-0.9,1.5-1.3,0-2.4c-3.1-2.3-3.8-5.8-3.6-9.5H196c0,1.9-0.2,3.6-1.7,5.2c-2.8,3-4.9,6.5-4.2,11.1c0.3,1.7-0.7,3.8-1.7,5.3
	c-2.5,3.6-5.2,7.2-10.3,7.7c-1.1,0.1-2.4,0.8-2.9-0.5c-0.3-0.6,0.3-1.7,0.7-2.4c3-4.6,6.2-9,11.1-11.8c0.4-0.3,0.6-0.9,1-1.4
	c-0.4-0.2-0.8-0.5-1.3-0.5c-2.4,0-2.7-1.5-2.1-3.3c1.1-3.2,2.4-6.2,3.6-9.4h-1.9c-0.6,1.1-1.3,1-1.9,0h-1.9c2,2.7,1.9,5.5,0.3,8.4
	c-6.5-1.5-6.6-1.5-7.1-8.4h-1.9c-0.4,3,0.7,5.8,2.3,8.2c1.1,1.6,1.1,2.9,0.4,4.3c-1.1,2.3-2.9,4-4.6,6.2c-1.3-3.6-2.6-6.5-3.5-9.5
	c-0.4-1.3-0.3-2.8,0-4.2c0.3-1.7,1-3.4,1.5-5h-1.9c-0.7,2.9-2.1,5.5-2.3,8.7c-0.1,1.8-1.9,3.5-3.1,5.5c-1.6-2.6-2-4.8,0-7.5
	c1.5-2,2.3-4.5,3.5-6.7h-2.9c0,0.6,0.1,1.3-0.2,1.9c-0.6,1.4-1.3,2.8-2.3,4.8c-0.9-2.6-1.7-4.6-2.4-6.7h-1.9
	c0.5,3.4-1.5,5.4-4.1,6.8c-2.2,1.2-4.5,2.3-7.3,3.6c0.6-3.8,1.1-7.3,2.7-10.5h-1.9c-0.5,3.7-3.6,3.9-6.2,4.7
	c-0.3,0.1-1.2-0.5-1.3-0.9c-0.2-1.2-0.2-2.5-0.2-3.7h-2.9c0.9,4.3,0.1,8.6-1.2,12.7c-0.2,0.6-1,1.1-1.6,1.6c-0.5-0.6-1.2-1-1.5-1.7
	c-2-4-2.6-8.2-2.5-12.6h-1c-1.6,3.8-0.2,7.5,0.6,11.2c0.5,2,0,2.9-1.8,3.1c-0.3,0-1-0.6-1-0.9c0.1-1.1,0.4-2.2,0.7-3.3
	c0.8-3.6,0-4.8-3.6-5.3c-0.3,0-0.6-0.2-1.1-0.4c0.5-1.5,1-2.9,1.4-4.4h-1.9C119.9,6,115,8,110.9,10.4c-2.1,1.3-5.3-2.2-4.7-4.9
	c0.4-1.8,1.1-3.6,1.7-5.4h-1.9c-0.7,2.8-2.3,5.3-2.2,8.3c0.1,1.2-0.9,2.7-1.8,3.8c-3.2,3.8-7.6,5.9-12,7.9c-0.2,0.1-0.8,0-0.8-0.2
	c-0.1-0.4-0.2-1,0-1.2c3.9-3.5,5.6-9.2,11.2-11c1.9-0.6,2.1-2.2,1.7-4c-0.3-1.2-0.6-2.5-0.8-3.7H99c0.8,2.5,1.5,4.9-1.3,6.6
	c-0.6,0.4-1.4,0.5-2,0.7c-0.1-0.6-0.4-1.2-0.4-1.8c-0.1-1.9-0.1-3.7-0.1-5.6h-1.9c1.2,4,0.4,6.2-2.7,8c-3.8,2.1-7.5,4.3-11.2,6.4
	c-0.3,0.2-0.5,0.5-0.8,0.6c-1.4,0.3-2.7,0.6-4.1,0.9c0.4-1.3,0.6-2.7,1.2-3.9C78.3,7,81.7,2.8,88.1,2c1.1-0.1,2.1-1.2,3.2-1.9h-4.9
	c-1.6,0.6-3.1,1.2-4.7,1.6c-0.2,0.1-0.7-1-1.1-1.6h-1.9c1.6,4.4-1.6,6.7-4.1,9.3c-1.5,1.6-3.3,2.9-4.8,4.6c-3,3.2-6.9,3.6-10.8,3.8
	c-0.8,0-1.5-0.9-2.9-1.8c4.8-1.5,6.8-5.4,9.7-8.2c2.7-2.6,5.4-5.1,8.1-7.6H68c-1.5,4.4-4.3,6.5-9.1,6.6c-1.5,0.1-3.1,0-3.3-1.8
	c-0.2-1.7,0.5-3.1,2.2-3.8c0.8-0.3,1.7-0.7,2.5-1h-4.8c-1.8,3.9-2.7,3.9-5.8,0h-1.9c1.1,1.5,2.3,3,3.5,4.7c-1.3,0.9-2.6,1.8-4,2.8
	c-1.2-2.5-2.3-5-3.4-7.4h-1.9c2.1,3.8,3.8,7.6,1.9,13c-1.7-3-3-4.9-5.8-5.6c-1.2-0.3-2-2.4-2.7-3.8c-0.6-1.1-0.8-2.4-1.2-3.7h-1.9
	c0,0.6,0,1.2,0,1.7c-0.3-0.6-0.6-1.2-1-1.7h-2.9C28.6,1,29,1.9,29.4,2.7c-1.3,0.3-2.5,0.4-3.2-1c-0.3-0.6-0.6-1.1-0.9-1.6h-1.9
	c1.2,3.4,3.2,5.5,7.2,4.9c2.5-0.4,3.9,1.4,5,3.2c3.2,5.2,4.4,15.4-3.2,20.8c-1.1-6.6-3.4-12.7-1.1-19.3C31.6,8.8,32,7.9,32.3,7
	c-1.6-0.5-2.2,0.7-3.1,1.6c-1.5,1.4-3.2,3.1-5,3.4c-2.3,0.4-5-0.2-7.4-0.9c-1.4-0.4-1.6-3.5-0.5-5.2c1.3-2,2.8-3.9,4.2-5.8h-2.9
	c-0.6,1.1-1.3,2.1-1.9,3.3c-0.8,1.6-2.2,3.4-1.9,4.8c0.7,3.3,0.2,5.9-1.1,8.9c-0.8,2-0.6,4-3.5,2.7c-0.3-0.1-1,0.3-1.1,0.6
	c-0.1,0.4,0.2,1.1,0.4,1.2c1.3,0.4,2.6,0.6,4.1,0.9c-0.6,1-1.2,2.2-1.9,3.2c-0.7,1-1.3,1.9-0.2,3c1.8,1.7,1,3.1-0.4,4.5
	c-1.4,1.4-2.7,2.7-4.2,4.1c-0.9,0.9-0.8,1.6,0.1,2.4c1,0.9,2,1.3,3.5,0.9c2.5-0.8,5.1-1.4,7.9-2.1c-0.1,1.6-0.1,2.7-0.3,3.8
	c-0.1,0.9-0.9,1.8,0.3,2.5c1.2,0.8,2.4,1.2,3.6,0.2c1.4-1.2,3-2.5,4.1-3.9c1.9-2.4,3-5.7,5.3-7.3c4.1-2.8,6.3-6.8,8.9-10.9
	c0.1,0.7,0.2,1.2,0.2,1.6c0.1,0.9,0.2,1.7,0.3,2.6c1-0.1,2.3,0,3.1-0.5c2.6-1.7,5-3.5,7.4-5.4c4.1-3.4,4-3.5,8.4-1.2
	c1.3,0.7,1.1,1.5,0.2,2.2c-1.4,1.1-2.9,2-4.3,3.1c-1.4,1.1-1.3,2.1,0.2,2.8c3.7,1.9,8.2,1.3,11.3-1.5c0.3-0.3,0.3-1.1,0.4-1.6
	c-0.6,0.1-1.3-0.1-1.7,0.2c-1.7,1.3-3.6,2.2-5.8,1.9c-0.7-0.1-1.4-0.5-2.1-0.8c0.4-0.6,0.7-1.2,1.2-1.7c0.8-0.8,2.1-1.3,2.5-2.2
	c1.4-3,4.1-3.7,7.2-4.2c0,3.7,0,7.2,0,10.7c0,3.2,0.1,3.5,3.3,2.9c2-0.3,2.2,0.4,2.4,1.9c0.4,2.9,0.8,5.7,1.2,8.6
	c0.2,1.3,0.8,1.5,2,1c2.7-1.1,4.3-3.3,5.5-5.9c1.4-3.2,1.3-6.6,1.3-10c0-3.9,0.1-3.8,3.7-4.9c2.7-0.9,5.5-1.9,8-3.1
	c2.5-1.2,4.7-2.8,7.3-4.4c-0.4,5.1-0.7,6.1-2.8,7.8c-0.8,0.7-2.4,1.5-2.3,2.1c0.2,1.5,1.9,1.4,3.2,1.5c0.6,0,1.2,0.2,2.3,0.5
	c-1.6,3.5-3,6.7-4.4,9.9c-0.2,0.5-0.1,1.1-0.1,1.7c0.6-0.1,1.2,0,1.8-0.2c4.1-1.5,8.1-3.3,10.1-7.6c0.6-1.2,1.5-1.8,2.7-1.1
	c3.1,1.9,6.5,1.9,10.3,1.2c-1.1,4.1-2.1,7.6-3.2,11.1c-0.3,1.2-1.7,2.5-0.2,3.4c0.9,0.5,2.5,0.1,3.6-0.3c1.2-0.4,2.2-1.4,3.1-2.2
	c1.5-1.2,2.8-2.6,4.2-3.8c-0.3,1.5-0.9,3.1-0.9,4.6c-0.1,2.9,0.1,5.8-1.6,8.4c-0.3,0.4-0.3,1.6,0,1.8c0.6,0.4,1.5,0.6,2.1,0.4
	c5.5-1.6,9.4-5,10.3-10.9c0.7-4.9,2.2-9.2,6.3-12.3c0.4-0.3,0.6-0.7,0.9-1.1c0.1,1.5-0.4,2.8-0.4,4c0,5.4-1,10.5-4.4,15
	c-0.2,0.2,0.8,1.6,0.9,1.6c3.3-1.1,7-1.8,8.7-5.4c1.3-2.9,2.5-5.9,3.4-9c0.5-1.7,1.4-2,2.8-1.8c1.6,0.3,1.4,1.8,1.1,2.7
	c-0.7,2.5-1.7,4.8-2.5,7.2c-0.6,1.6,0,2.4,1.8,2.5c2.2,0.1,4.1-0.8,5.6-2.4c1.5-1.5,2.9-1.8,4.7-0.7c1,0.7,2.1,1.3,3.1,2
	c1.3,1.1,2.3,0.9,2.7-0.6c0.2-0.8,0.3-1.6,0.3-2.4c0-1.5,0.8-2.3,2.1-2.9c4.3-1.9,6.5-5.6,7.6-10c0.2-0.8,0.5-1.5,1-2.1
	c0.3-0.4,1.2-0.8,1.4-0.7c0.5,0.4,1,1.2,0.8,1.6c-0.6,1.3-2.1,2.5-2,3.6c0.1,1,1.9,1.8,2.8,2.8c0.2,0.2,0.3,0.6,0.4,0.9
	c1.1,3.2,2.1,6.4,3.2,9.6c0.2,0.7,0.9,1.2,1.4,1.7c0.5-0.4,1.2-0.8,1.4-1.3c1.3-3.4,2.5-6.9,3.7-10.3c1,0.5,2.2,1.7,3.2-0.4
	c0.3-0.6,1-1.1,1.5-1.6c1.4,2.4,2.5,0.4,3.8-0.2c0.4-0.2,1.3,0.1,1.7,0.5c1.4,1.3,2.9,2.6,2.5,4.9c-0.4,2.4,0.8,4.3,1.8,6.4
	c1.2,2.8,2.2,2.1,4.1,1.1c0.3-0.1,0.5-0.4,0.7-0.6c1.3-1.7,2.6-2.4,4.3-0.4c0.2,0.2,1.4-0.2,1.8-0.6c0.5-0.6,0.6-1.5,0.8-2.3
	c0.3-0.8,0.3-0.8,1.7-1.1c0.4-0.1,0.9-0.4,1.1-0.8c1.3-1.7,2.5-3.4,3.9-5.3c0.7,1,2,2,1.8,2.7c-0.4,2.1,0.7,2.2,2.1,1.9
	c1.8-0.4,3.6-1.1,5.6-1.8c-0.5,1.8-1.3,3.3-1.4,4.8c-0.2,2.2-1,4.5,0.6,6.5c1.9-0.6,3.9-1.2,5.8-1.9c0.7-0.2,1.9-0.9,2.1-0.6
	c2.4,2.2,5.4,1.5,8.6,1.9c-0.8,1.4-1.5,2.5-2,3.6c-0.7,1.4-0.3,2.8,1.2,2.9c2,0.1,4.3,0.2,6.1-0.5c2.4-0.9,4.6-2.3,6.6-3.8
	c1.5-1.1,2.8-1.5,4.5-0.9c1.3,0.5,2.4,1,0.9,2.6c-0.4,0.4-0.2,1.5-0.3,2.2c0.9,0,1.8,0.3,2.6,0.1c2.6-0.7,5.2-1.6,7.7-2.4
	c0-0.1,0.1-0.1,0.1-0.2c0.6-1,1.3-2.1,1.8-3.2c1.3-2.5,3.1-3,5.8-2.3c0.8,0,1.6,0.2,2.4,0.2c0.5,0,0.7,0,1-0.1c0,0,0,0,0,0
	c0.1-0.4,0.3-0.7,0.6-0.9c1.6-3.2,1.9-6.6,1.9-10.1c0-2.3,1.1-3.5,3-4.4c3.3-1.6,3.4-1.5,4.9,1.7c0.6,1.4-0.1,2-0.8,2.9
	c-1.8,2.2-3.6,4.4-5.5,6.7c4.1,2.6,7.9,0.3,11.6,0.6c0.1,0.2,0.3,0.5,0.3,0.8c0.2,1.4,0.4,2.7,0.7,4.1c1.5-0.8,3.1-1.5,4.4-2.5
	c0.9-0.6,1.6-1.7,1.9-2.7c1.2-3.7,4.3-5.9,6.7-8.5c0.4,0.2,0.7,0.2,0.9,0.4c2.9,3.5,2.7,3.4-0.7,6.2c-5.2,4.3-10.8,8-15.3,13.2
	c-2,2.3-50.5,44.6-52.8,49c-3.8,7.1-9.5,12.9-13.3,20.1c-2,3.8-3.9,7.8-6.4,11.2c-6.1,8.3-12.4,16.4-18.8,24.5
	c-5.7,7.3-12.1,14.2-16.6,22.4c-3.5,6.5-6.9,13.1-10.2,19.7c-3.7,7.3-7.2,14.8-11.2,22c-4.2,7.5-7.5,15.3-10,23.5
	c-2.3,7.7-5.1,15.2-8.1,22.7c-2.8,6.9-6.2,13.5-9.1,20.2c-3.2,7.5-6.7,15-9.2,22.8c-2.9,8.8-5.1,17.9-7.4,26.9
	c-1.6,6-2.8,12.2-4.2,18.3c-1.6,6.9-3.4,13.7-7,19.9c-0.5,0.8-1,1.7-1.2,2.6c-1.4,5.4-2.8,10.9-4,16.3c-1.1,4.9-2.7,9.6-4.9,14.1
	c-1.3,2.6-2.2,5.3-2.9,8.1c-1.5,5.7-2.6,11.5-6.4,16.3c-1.3,1.6-2.6,3.3-3.5,5.2c-1.9,3.7-4.2,6.8-8.6,7.7c-1.4,0.3-2.8,1.3-4.1,1.1
	c-2.6-0.4-0.3-2.7-1.1-4c-0.3-0.5-0.7-1-1.1-1.5c-0.5,0.4-1.1,0.7-1.3,1.2c-1.1,2.6-2,5.2-3.1,8c-2-2.3-3.5-4.5-5.5-6
	c-1.6-1.2-1.9-2.4-1.8-4.1c0-0.8,0.1-1.6-0.1-2.4c-0.1-0.5-0.5-1-0.8-1.5c-0.4,0.4-1.2,0.7-1.3,1.2c-0.4,2-0.6,4.1-0.9,6.1
	c-0.5,2.8-1.4,3.2-3.9,2c-1-0.5-2-1.1-3-1.5c-0.3-0.1-1-0.1-1.2,0.2c-0.2,0.3-0.2,1,0,1.3c1.6,2.4,3.3,4.7,4.9,7
	c-1.9,1.5-4,3-5.9,4.7c-1.5,1.4-1.2,2.6,0.8,3c2.3,0.4,4.8-0.4,6.1,2.6c0.3,0.6,1.9,0.6,2.9,0.9c0.2-0.7,0.3-1.5,0.6-2.2
	c0.2-0.4,0.6-1,0.8-1c2.9,0.5,2.1-1.2,1.4-2.4c-1.2-2.1-2.6-4-4-6c-0.9-1.3-2.1-2.4-3.1-3.6c4.8,2,7.6,5.5,8.6,10.6
	c0.3,1.5,0.7,3,1.1,4.5c0.8-0.7,1-1.3,1-1.8c0.1-1.4-0.5-3.3,1.2-3.7c0.7-0.2,2,1.3,2.9,2.1c1.9,1.8,1.9,2.1-0.3,3.5
	c-2.8,1.6-5.7,3-8.6,4.3c-2.7,1.3-5.6,2.3-8.3,3.8c-3.8,2.1-7.4,4.5-11.1,6.8c-0.8,0.5-1.6,1.1-2.3,1.7c-0.3,0.3-0.7,1-0.6,1.2
	c0.3,0.5,0.9,1,1.4,1.1c1.3,0.1,2.6,0.1,3.9,0c2.5-0.2,5.1-0.6,7.6-0.9c1.1-0.1,2.3-0.2,3.3-0.5c4.6-1.4,9.2-2.9,13.7-4.4
	c1.4-0.4,2.8-0.8,4.2-0.9c5.6-0.4,11.2-0.7,16.8-1.1c0.8-0.1,1.6-0.3,2.3-0.5c4.2-1,4.5-0.8,5,3.7c0.1,0.5,0.4,1.1,0.2,1.3
	c-2.1,2.7,0.3,3.9,1.9,4.7c1.9,1,3.8,1.5,5.7,1.6c2.7-0.9,5.5-1.6,8.3-2c0.4-0.2,0.8-0.4,1.1-0.7c4.2-2.8,6.3-6.9,4.5-12.1
	c-0.1-0.4,0.2-1.5,0.4-1.5c1.3-0.1,2.6-0.2,3.8,0.1c0.4,0.1,0.5,1.4,1,2c0.5,0.6,1.7,1,1.8,1.6c0.2,1-0.3,2.2-0.3,3.3
	c0,0.3,0.5,0.7,0.8,1c0.1,0.1,0.6-0.2,0.7-0.4c0.4-1,0.7-2.1,1-3.2c0.2-0.8,0-1.7,0.4-2.3c0.5-0.9,1.4-1.8,2.3-2.1
	c1.4-0.5,2,0.5,2.2,1.8c0.1,0.6,0.4,1.3,0.8,1.8c0.3,0.4,0.9,0.6,1.4,0.9c0.2-0.6,0.4-1.1,0.7-1.7c1.4,0.1,2.1-0.5,2-2
	c0-1.6,0.7-2,2.1-1.3c0.6,0.3,1.2,0.3,1.9,0.5c2.3,0.6,5.4,0.5,6.7,2c1.2,1.5,0.6,4.6,0.9,6.9c0.2,1.3,0.5,2.5,1,3.7
	c0.3,0.7,0.9,1.5,1.6,1.7c7,2.1,11.7,2.4,14.1-5.6c0.3-0.9,0.7-1.8,0.8-2.8c0.1-2.2,1.5-2.2,3.1-2c1.8,0.2,2.7,0.9,1.9,2.8
	c-0.2,0.4,0,1,0.2,1.4c0.2,0.4,0.7,0.6,1,0.9c0.2-0.3,0.7-0.7,0.7-1c0.4-4,0.6-8,1.1-12c0.2-1.5,0.6-2.9,0.9-4.3
	c0.6,3.5,0.6,6.9,0.6,10.3c0,2.7,0.1,5.4,0.4,8.1c0,0.4,0.5,0.8,0.9,1.2c0.3-0.1,0.7-0.3,1-0.4c0.1-0.3,0.1-0.7,0.1-1
	c0-4.1,0-8.1,0-12.2c0.9,3.3,1.2,6.6,1.7,10c0.1,0.8,0.4,1.6,0.7,2.4c0.6-0.2,1.1-0.3,1.7-0.4c-0.1-0.2-0.1-0.4-0.2-0.5
	c-0.3-2-0.1-2.1,2-1.8c5.4,0.8,10.8,1.4,16.1,2.6c5.5,1.2,10.9,0.3,16.4,0.7c0.5,0,1-0.1,1.4-0.3c1.5-0.5,1.9-1.8,0.8-2.9
	c-0.9-0.9-2.1-1.5-3.5-2.5c3.7-2.6,6.6-4.6,5.4-9c-1.1-4.1-4.1-4.9-7.4-5.1c0.5-1.7,1.1-3.1,1.5-4.5c0.6-2.5,1-3.1,3.6-2.2
	c2.1,0.7,3.8,0,5.6-0.6c0.5-0.2,1.3-0.8,1.3-1.2c-0.1-0.7-0.6-1.5-1.1-1.8c-1.6-1-3.4-1.9-5.1-2.7c-1.8-0.8-2.7-1.7-1.6-3.7
	c0.7-1.3,1-2.7,1.6-4c0.4-0.9,1-1.7,1.3-2.6c0.2-0.7-0.1-1.5-0.2-2.2c-0.6,0.2-1.2,0.3-1.7,0.6c-0.5,0.3-1,0.8-1.4,1.3
	c-1.3,2-2.5,4.1-3.9,6c-0.5,0.6-1.6,1.5-2.1,1.3c-2.6-0.7-5.2-1.7-7.7-2.7c-1.5-0.6-2.5-1.6-1.1-3.3c0.4-0.5,0.3-1.4,0.5-2
	c-0.7,0-1.6-0.2-2.2,0c-3.8,1.3-3.8,1.4-6.3-2.1c-0.6-0.8-1.3-1.4-1.9-2.2c-2.4-3.2-5.5-5.9-6.5-10c-0.9-3.6-1.8-7.1-2.4-10.8
	c-0.9-5-2-10.1-2.2-15.2c-0.4-8.9-0.1-17.8,0-26.7c0-1.6,0.3-3.2,0.6-4.8c0.7-3.8,1.8-7.5,2.3-11.3c1.3-10.2,4.8-19.9,8-29.6
	c2.2-6.9,4.6-13.7,6.4-20.7c1.1-4.4,2.1-8.7,4-12.8c2.5-5.6,4.7-11.3,7.1-16.9c2.9-6.8,5.6-13.7,8.8-20.4
	c4.4-9.1,9.7-17.7,15.6-26.1c7.2-10.2,13-21.5,19.4-32.3c6.7-11.2,13-22.6,21.2-32.8c2.1-2.6,44.8-45.6,51.1-50.8
	c5.2-4.3,10.4-8.7,15.5-13.1c1.2-1,2.1-2.4,3.1-3.7c4.7-6.2,9.7-12.1,15.8-16.8c8.7-6.7,16.8-14,22.8-23.4c1.2-1.9,2.6-3.4,4.2-4.6
	c1.8,2.6,1.5,4.8-0.4,6.8c-0.1,0.1-0.3,0.3-0.3,0.4c0,0.6,0.1,1.1,0.1,1.7c0.4-0.1,1.1,0,1.3-0.3c1.7-1.9,3.4-3.9,5-5.9
	c2.1-2.5,3.5-5.4,3.3-8.7c-0.1-2,0.7-2,2.3-1.8c1.6,0.3,3.2,0.5,4.7,0.4c1.1-0.1,1.8-0.6,1.3-2.3c-1.8-5.6-2.2-7,2-10
	c0.7-0.5,1.4-1.1,1.9-1.6c0.8,1.8,1.1,3.9,2.4,4.9c3,2.3,4.6,5.3,5.3,8.9c0.2,1.2,1.4,1.4,2.1,0.3c1-1.5,1.6-3.2,2.6-4.6
	c0.3-0.5,1.2-0.9,1.8-0.8c0.9,0.1,1.9,0.4,2.7,0.9c1.1,0.6,1.7,1.7,0.9,2.8c-0.4,0.4-1.7,0.2-2.5,0c-0.9-0.2-1.6-2.2-2.6-0.5
	c-0.2,0.4,0.9,2.1,1.8,2.5c1.1,0.6,2.5,0.7,3.7,0.6c2.7-0.2,3.1-1.1,2.2-3.8c-0.8-2.3-0.8-2.4,1.8-2.9c2.2-0.4,4-1.3,5.3-3.1
	c0.4-0.5,0.2-1.5,0.3-2.2c-0.6-0.1-1.2-0.3-1.7-0.1c-1.4,0.5-2.4-0.2-2.9-1.2c-1-1.9-4.6-0.5-4.5-3.6c1.9-0.2,3.7-0.4,5.6-0.5
	c2.8-0.2,5.7,1.2,8.2,2.9c1.2,0.8,3,0.8,4.5,0.9c1.1,0.1,1.8-0.6,1.3-1.9c-0.1-0.2,0.1-0.7,0.2-0.7c1.3-0.3,5.6,2.1,5.7,3.4
	c0.3,3.5,2.7,4.9,5.5,4.9c2.8,0.1,4.5,1.6,6.4,2.9c1.7,1.1,3.2,2.5,4.8,3.8c1.6-1.8,0.9-4.2,1.6-6.2c0.1-0.5,0.4-1.1,0.7-1.2
	c2-0.7,4-1.2,6-1.8c1-0.3,1.8-0.1,2.4,1c1.8,3.2,3.7,6.4,5.6,9.5c0.4,0.6,1,1.1,1.4,1.6c0.5-0.6,1.3-1.1,1.5-1.8
	c0.7-2.1,1.3-4.3,1.8-6.5c0.3-1.5,1-2.1,2.6-2.2c1.7-0.1,3.5-0.3,5.2-0.9c2.5-1,2.6-1.9,0.8-3.8c-1-1.1-2.1-2.2-3.5-3.8
	c7.4,2,13.7-0.3,20.9-1.7c-3.5-3-4.9-7.3-9.7-7.7c4.1-0.8,7.5-2.7,10.2-5.8c1-1.2,1.9-1.2,3.4-0.6c4.1,1.8,8.3,3.5,13,3.3
	c0.8,0,1.9,1,2.4,1.9c2,4.2,5.9,5.8,9.9,7C562,24.2,562.4,23.7,562.1,22.1z M512.4,3.8c-0.4-0.1-0.7-0.5-1-0.7c0.4,0,0.9,0,1.3,0.1
	c0.3,0,0.6,0.2,0.9,0.3C513.2,3.6,512.7,3.8,512.4,3.8z M178.8,11.4c0.3-0.5,1.2-1.2,1.3-1.2c1.1,0.9,2.3,1.8,3,2.9
	c0.4,0.6,0.1,1.9-0.4,2.5c-1.3,1.6-2.8,2.9-5,5.1C177.6,16.9,177.2,14.1,178.8,11.4z M59,8C59.8,8,60.6,8,61.4,8
	c0.3,0,0.6,0.1,1.5,0.3c-2,2.2-3.4,4.4-6.4,5c-0.1-0.9-0.2-1.7-0.2-2.5C56.5,8.2,56.5,8.2,59,8z M16.8,15.1c1-1.4,2.5-1.8,5.2-0.7
	c-1.6,1.1-2.6,2-3.8,2.7c-0.7,0.4-1.6,0.4-2.4,0.5C16.1,16.8,16.2,15.8,16.8,15.1z M26,12.7c0.5-0.3,1.1-0.3,1.7-0.5
	c0.2,0.6,0.5,1.2,0.4,1.8c-0.6,3.7-1.4,7.1-5,9.3c-5.1,3.1-6.2,3.8-11.2,3.8C16.2,21.3,20.4,16.3,26,12.7z M13.9,37.3
	c-0.3,0.1-0.6,0.4-0.9,0.3c-1.7-0.2-3.2,1.5-4.9,0.4c1-1.2,1.9-2.4,2.9-3.6c0.4-0.5,1.1-1,1.2-1.5c0.5-4,4.2-3.8,6.7-5.2
	c0.3-0.2,0.9,0.3,1.3,0.4C20.4,33.1,18.4,36,13.9,37.3z M28.7,26.3c-0.1,0.6-0.4,1.2-0.4,1.9c-0.2,1.9,0,3.9-0.5,5.7
	c-0.3,1.3-1.4,2.5-2.3,3.7c-1.6,2-3.3,3.9-4.9,5.9c-0.4-0.1-0.8-0.2-1.1-0.3c0.2-1.7,0.3-3.4,0.7-5.1c0.4-2,1.2-4,1.4-6.1
	c0.4-5.1,2.9-8.5,7.8-10.9C29,22.8,28.9,24.5,28.7,26.3z M40.2,21.1c-0.3-4-0.5-7.4-0.8-10.8C43.6,13.4,42.1,17.1,40.2,21.1z
	 M50.8,18.5c-2.6,2.4-5.5,4.3-8.3,6.5c0.9-6.8,2-13.1,7.8-17.2c0.5-0.4,1.1-0.7,1.6-1C53.3,5.9,54,6.6,54.2,8
	C54.9,12.1,53.9,15.7,50.8,18.5z M72.2,13.4l0.5,0.3c-0.2,0.3-0.5,0.6-0.7,0.9C72,14.2,72.1,13.8,72.2,13.4z M70,30
	c0-4.5-0.1-8.6,0.1-12.8c0-0.9,1.1-1.7,1.7-2.5c-0.6,3.6,0,4.2,3.4,3.6c0.6-0.1,1.3-0.6,1.8-0.5c0.6,0.2,1.5,1.1,1.4,1.3
	C76.8,23.4,75.4,27.9,70,30z M79.1,39.6c-0.8,1.4-2.1,1.3-2.4-0.1c-0.8-3.1-1.3-6.2-1.8-9.4c-0.1-0.7,0.4-1.5,0.9-2.2
	c1.2-2,2.5-4,4.1-6.4c0.3,0.4,0.6,0.6,0.7,0.9C82.4,28.4,82.2,34.1,79.1,39.6z M84.1,20.1c-0.5,0.3-1.4-0.1-2-0.2
	c1.2-1.5-2.7-2.7-0.5-4.1c3.6-2.4,7.3-4.5,10.9-6.7C91.4,14.3,88.6,17.9,84.1,20.1z M175.3,18.2c2.3,6.5-2.7,9.8-6.2,13.6
	c-0.8,0.9-3,1.1-4.5,0.9c-2.2-0.4-2.5-2.2-0.8-3.8C167.7,25.4,171.5,21.8,175.3,18.2z M158.8,10.4c2.2,4.8,1.8,7.1-2.2,11
	c-1.7,1.6-3.7,3-6.4,5.1C151.8,19.7,151.5,13.1,158.8,10.4z M159.8,21c-0.8,3.7-3,5.1-5.3,7.4C154.5,24.3,157.3,23.3,159.8,21z
	 M133,19.3c1.3-1.1,2.9-1.9,4.5-2.6c1.3-0.6,2.8-0.7,4.2-1.1c0.2-0.1,0.5-0.6,0.4-0.6c-0.3-0.4-0.7-1-0.9-0.9
	c-1.9,0.3-3.7,0.8-6.3,1.5c0.8-2.2,1.8-3.9,1.8-5.5c0-2.7,1.8-3.2,3.6-3.6c1-0.2,2.1,0.2,3.1,0.3c-0.1,1.1,0,2.2-0.4,3.2
	c-0.3,0.9-1,1.6-1.9,2.8c1.2-0.1,2.2,0,3.1-0.2c4.2-1.2,8-3.3,11.3-6.2c0.5-0.4,1.3-0.5,2-0.8c0,1,0.2,2.2-0.2,3.1
	c-0.2,0.6-1.2,1-1.9,1.4c-2,1-3.4,2.5-4.1,4.5c-0.8,2.3-2.6,2.2-4.4,2c-0.4,0-0.8-1-1.2-1.5c-0.3-0.4-0.6-0.8-0.9-1.2
	c-0.4,0.4-1.3,0.8-1.3,1.2c-0.2,4.9-3.6,7.7-6.8,10.6c-2.2,2-4.8,2.4-7.6,0.9c-1.1-0.6-1.3-1.3-0.4-2.3
	C130.3,22.5,131.5,20.7,133,19.3z M138.4,27.9c-1.1,1.4-2.1,2.9-3.3,4.3c-0.3,0.3-1,0.3-1.6,0.4c-0.1-0.6-0.4-1.3-0.2-1.8
	C134.2,28.6,136.2,28.2,138.4,27.9z M130.6,19c0,0.1,0,0.3-0.1,0.3c-0.1,0.1-0.2,0.1-0.3,0.1C130.3,19.3,130.5,19.2,130.6,19z
	 M105.5,12.2c0.1-0.2,1.1-0.2,1.6-0.1c0.2,0,0.4,0.9,0.3,1.1c-0.6,0.9-1.3,1.8-1.9,2.6c-0.2-0.1-0.5-0.1-0.7-0.2
	C105,14.6,105.2,13.4,105.5,12.2z M108.6,28.3c-0.9,2-1.1,4.4-3.4,5.5c-0.8,0.4-1.7,0.5-2.6,0.8c0.1-0.9,0.2-1.7,0.4-2.6
	c0.2-0.8,0.8-1.5,0.8-2.2c-0.3-4.7,3.1-5.2,6.4-5.8C109.6,25.5,109.2,26.9,108.6,28.3z M109.9,21.8c-2.4,0.9-5,1.5-8.4,2.5
	c3.8-5.2,6.7-9.7,11.5-12.6c1.1-0.7,1.9-1.8,2.9-2.5c1-0.8,2.1-1.7,3.3-1.9c1.5-0.3,3.1,0.1,4.6,0.2c-0.1,1.4-0.1,2.7-0.4,4.1
	c-0.5,3.1-2.7,5.1-5.2,6.5C115.6,19.5,112.7,20.7,109.9,21.8z M115.6,28.3c-1.2-0.6-2.5-1-4.5-1.9c2.1-1.2,3.4-2,4.8-2.7
	c2.7-1.2,5.2-2.7,6.5-5.4c1.1-2.2,3.3-1.6,5-2.2c0.3-0.1,1,0.6,1.4,1c0.5,0.7,0.9,1.5,1.3,2.3c0,0,0,0,0,0c0,1.9-1.3,3-2.7,3.6
	c-1.6,0.6-2.6,1.1-1.8,3.1c0.1,0.3-0.5,1-0.9,1.3C121.8,29.2,118.8,29.9,115.6,28.3z M122.3,43.4c0.7-5,1.8-9.4,4.1-13.5
	c0.9-1.5,2-1.8,3.7-1.2c1.8,0.7,2.1,2,1.7,3.5C130.5,37.3,127.5,41,122.3,43.4z M139.6,41.7c-1,4.4-2.8,8.4-8,9.7
	c0.2-3,0.4-5.6,0.5-8.3c0-2.2,1.3-3.7,3-4.6c1.1-0.5,2.8-0.4,4,0.1C139.6,38.8,139.8,40.7,139.6,41.7z M140.4,34.7
	c-1.9,1-3.7,1.9-6.2,0.7c3.7-3,5.5-7.1,7.7-11c1.2-2.2,3.3-3.8,5.2-5.5c0.5-0.4,1.5-0.2,2.3-0.3c0,0.7,0.3,1.5,0.1,2.1
	C147.4,26,146.1,31.7,140.4,34.7z M152.8,40.8c-0.9,2.8-2.3,5.6-5.6,6.2c0.8-4.9,1.6-9.7,2.4-14.6c0.1-0.5-0.1-1.1,0.2-1.4
	c0.5-0.9,1.3-2.5,1.9-2.4c1.7,0.2,1.7,1.4,1.1,2.9c-0.2,0.4,0,1.3,0.4,1.7C155.7,35.8,153.6,38.4,152.8,40.8z M157.3,32.2
	c-0.8-0.1-1.6-0.1-3.3-0.3c6.3-6,9-13.4,12.2-20.9c1.9,1.4,2.5,3.1,2.6,5c0.1,1.6-0.1,3.2,0,4.8c0.1,1.6-0.6,2.7-2,3.5
	c-1.6,1-3.2,2.2-4.6,3.4c-0.7,0.6-1.9,1.6-1.8,2.1C161.3,33.6,159.1,32.5,157.3,32.2z M160,44.5c0.8-3.3,1.4-5.9,2-8.5
	c0.2-1.1,0.5-1.6,1.9-1.2c1.5,0.4,3.1,0.4,4.7,0.5C167,40.5,165.7,41.9,160,44.5z M174.2,40.6c-0.3,0.9-0.5,2.5-2.2,1.7
	c-1.2-0.6-3.6-0.3-3-2.8c0.5-2,1.3-3.9,2.1-6.4C173.8,35.4,175.2,37.7,174.2,40.6z M172.3,31.5c3.8,0.4,3.8,0.4,3.8,3.6
	C174.9,33.8,173.9,32.9,172.3,31.5z M183,31.9c-1,2.4-2.7,4.2-5,5.6c-0.3-4.9,0.5-6.5,3.6-7.2c0.4-0.1,1,0,1.3,0.3
	C183.1,30.9,183.1,31.6,183,31.9z M193.5,9.5c0.8-1.2,2.2-2,3.3-3c0.9,1.5,1.9,3,2.6,4.2c0,2-4.6,5.4-6.1,4.8
	c-0.5-0.2-1.1-1.2-1-1.8C192.5,12.2,192.8,10.7,193.5,9.5z M189.7,25.7c0-0.6-0.3-1.3-0.1-1.7c0.3-0.6,1-1.1,1.6-1.6
	c0.4-1.1,0.8-2.2,1.3-3.4c0.1,0.1,0.3,0.2,0.3,0.2c-0.5,1.1-1,2.1-1.6,3.2c-0.1,0.8-0.1,1.6-0.3,2.3
	C190.7,25.1,190.1,25.4,189.7,25.7z M195,44.2c-1.3-3.2-2.2-5.5-3.2-7.9c-1.2-3.1-1-3.7,2-5.3c1.1-0.6,2.3-1.1,3.6-1.7
	C198.5,34.5,196.8,39,195,44.2z M202.4,32c-0.5,0.8-1.2,0.9-1.9,0.2c-1.6-1.6-1.9-3.3-0.6-5.2c1-1.4,2.2-2.7,3.7-4.6
	C203.9,26.2,204.3,29.2,202.4,32z M299.6,16.8c0.1-0.1,0.5,0.2,0.7,0.4c-0.4,0.4-0.8,0.9-1.2,1.3c-0.4-0.4-0.6-0.5-0.9-0.7
	C298.7,17.4,299.1,17,299.6,16.8z M290.5,14.4c0.1-0.2,0.5-0.3,0.7-0.5c0.2,0.2,0.4,0.4,0.5,0.7c-0.3,0.2-0.7,0.4-1,0.6
	C290.6,15,290.4,14.7,290.5,14.4z M293.1,16.3c1.6-1.4,3.6-0.3,3.7,1.9c0,0.3,0.1,0.7,0,1c-2.5,4.9-3.8,10.7-10.4,12.6
	c0-1.3,0.1-2.2,0-2.9C285.3,22.8,289.3,19.5,293.1,16.3z M285.9,5.5c3.5,3.4,3.9,7,0.9,12.9C283.9,9.9,283.9,9.1,285.9,5.5z
	 M284.5,22.6c0.1,0.7,0.2,1.4,0.2,2.1c0,1,0,2.1,0,3.4c-1.6-0.5-1.2-3.2-3.2-2.8c0.3-0.7,0.4-1.6,0.9-2
	C282.8,22.8,283.7,22.8,284.5,22.6z M267.2,33.4c3-4.9,5.9-9.8,9-14.6c0.8-1.3,2.4-2.1,3.7-3c1.4-0.9,2.4-0.3,2.4,1.4
	c-0.1,2.8-1,5.4-2.8,7.5C276.2,28.4,272.6,31.9,267.2,33.4z M275.1,33.5c-1.5,1.8-2.9,3.5-4.3,5.1c0,0.1-0.7-0.3-0.7-0.4
	c0.2-1.2,0.2-2.6,0.9-3.5c0.8-1,2.3-1.4,3.5-2C274.7,32.7,275.1,33.5,275.1,33.5z M267.5,39.4c0,0,0.6,0.5,1.2,1
	c-1.1,1.6-2.1,3.2-3.2,4.7c-0.2,0.2-1.2,0-1.7-0.3c-0.3-0.2-0.7-1-0.5-1.2C264.6,42.2,266,40.8,267.5,39.4z M264.5,39.4
	c0-0.1,0-0.3,0.1-0.3c0.1-0.1,0.2-0.1,0.3-0.1C264.7,39.1,264.6,39.2,264.5,39.4z M264.9,38.9c0-1.2,0.6-1.9,1.9-1.9
	C266.2,37.6,265.6,38.2,264.9,38.9z M269.2,21c0-0.8,0.6-1.9,1.2-2.2c0.9-0.5,2.1-0.5,3.1-0.7c0.1,0,0.6,0.9,0.4,1.1
	c-1,1.6-2.1,3.1-3.6,5.2C269.8,22.8,269.2,21.9,269.2,21z M277.9,28.6c1.1-1.2,2.3-2.1,3.5-3.2c0.3,2,0.6,4,0.9,6.1
	c0.7,4.3-2.1,6.6-5.4,9.4c-0.1-3.6-0.3-6.7-0.3-9.8C276.7,30.2,277.3,29.2,277.9,28.6z M277.8,7.3c1.5-1.5,3.3-2.4,5.5-2.3
	c-0.2,2-0.1,4.1-0.6,6c-0.2,0.9-1.7,2.4-2.4,2.3c-1.9-0.4-3.7-1.5-5.5-2.4C275.9,9.6,276.7,8.3,277.8,7.3z M267.6,16.1
	c2.2-0.3,3.8-1.4,5.5-2.8c0.6-0.4,2.3,0.5,3.4,0.9c0.3,0.1,0.5,0.7,0.9,1.3c-0.8,0.4-1.5,0.9-2.2,0.9c-2.4-0.1-4.8-0.3-6.8,1.6
	c-0.1,0.1-1.1-0.3-1.1-0.4C267.2,17.1,267.3,16.1,267.6,16.1z M267.2,21.7c2.1,4,1.3,7.2-1.2,10.4c-1.2,1.5-1.8,3.4-2.7,5.1
	c-0.9,2-2.4,3.4-5.3,4.3c1.5-2.1,1.4-3.9,1.2-5.9c-0.4-3.6,0.5-7,3.5-9.5C264.3,24.9,265.7,23.2,267.2,21.7z M264.7,15.6
	c0.2,0.9,0.2,1.9,0.3,2.8c0.3,2.5-0.7,4.3-2.5,5.9c-2.2,2-2.5,2-3.6-0.6c-1.6-3.8,0.5-7.8,4.7-8.7C263.9,15,264.6,15.3,264.7,15.6z
	 M259.3,13c0.2-0.4,0.6-0.8,0.9-0.8c0.4,0,1,0.4,1.1,0.7c0.1,0.5,0.1,1.3-0.2,1.6c-0.7,0.7-1.5,1.1-2.9,2.1
	C258.7,14.8,258.9,13.9,259.3,13z M258.2,27c0.5,1.7-0.4,4-1.2,5.8c-0.4,0.8-2.1,1.1-3.2,1.4c-2.5,0.6-4-0.4-4.3-2.9
	c-0.1-0.8-0.2-1.7,0.1-2.4c1.7-3.7,2.3-7.6,1.4-12.4C255.6,19.5,257.1,23.3,258.2,27z M243.1,10.2c0.2-0.5,0.9-0.9,1.5-1
	c0.2-0.1,0.8,0.5,1,0.9c1,2.5,2,5,2.9,7.6c-2.2-0.2-4.1,0.6-5.5,2.4c-1.8,2.2-3.6,4.5-5.4,6.8c-0.4,0.5-0.9,0.9-1.4,1.3
	c-0.9,0.6-2.3-0.1-2-1.1c0.8-2.7,0.4-5.9,3.7-7.3c2.2-1,3.3-3,3.9-5.2C242.1,12.9,242.5,11.5,243.1,10.2z M220.1,10
	c1.8-2.4,5-3.9,7.6-5.6c0.1-0.1,1.2,0.6,1.2,0.9c0.4,4.3-0.1,8.2-3.9,11.2c-3,2.3-6.2,3.7-9.9,4.9C215.6,16.8,217.7,13.2,220.1,10z
	 M226.1,18.6c-0.4,1.4-0.8,2.7-1.2,4.1C223,19.9,223,19.9,226.1,18.6z M215.4,23.5c0.8-0.6,1.7-0.9,2.6-1.3c3.4-1.4,4.2-0.9,4.3,2.9
	c0.1,3.5-1.2,6.2-4.6,8.8c-1.2-2.5-2.3-4.8-3.4-7.1C213.6,25.4,214.3,24.3,215.4,23.5z M207.1,31.6c-2-1.4-1-3.5-1.2-5.3
	c-0.3-2.5-0.5-5.1-0.8-8.7c0.3-1.6,0.7-4.3,1.4-6.9c0.5-1.9,1.3-2,2.7-0.7c3.6,3.1,4.7,7.4,3.1,12c-0.2,0.7-0.1,1.5-0.3,2.2
	c-0.2,1.2-0.2,2.6-0.8,3.5C210,29.2,208.4,30.3,207.1,31.6z M213.6,33.8c-0.4,0.1-1.1,0.1-1.3-0.1c-0.5-0.5-1.2-1.3-1.3-2
	c-0.1-0.6,0.5-1.3,0.8-2c0.6,0.3,1.4,0.4,1.8,0.9c0.5,0.6,0.6,1.4,1,2.2C214.2,33.1,213.9,33.6,213.6,33.8z M217.1,45.7
	c-2.8-3.1-4.2-6.1-2.4-9.8c0.6-1.2,1.2-2.2,1.9,0c0.5,1.5,1.6,1.3,2.6,0.4c0.8-0.8,1.4-1.8,2.2-2.5c0.3-0.2,1-0.3,1.3-0.2
	c0.3,0.2,0.4,0.8,0.5,1.3c0.1,0.3,0.1,0.7-0.1,0.9C221.1,39,219.2,42.2,217.1,45.7z M224.1,41.2c-0.1,0.8-0.4,1.7-1.4,1.2
	c-0.5-0.3-1.2-1.4-1.1-1.7c0.4-0.9,1.3-1.6,2.5-2.9C224.1,39.4,224.2,40.3,224.1,41.2z M226.9,27c-0.3,2.5-0.8,4.9-1.3,7.3
	c-2.5-2.7-2.9-5.2-1.1-8.2c0.2-0.4,1.2-0.7,1.6-0.5C226.5,25.8,227,26.6,226.9,27z M227.3,20.8c2.4-4,4.6-8.1,7.4-11.7
	c1.1-1.4,3.6-1.7,5.6-2.4c0.5-0.2,1.1,0.1,1.7,0.1c-0.1,0.6-0.1,1.2-0.3,1.8c-0.3,1.1-0.7,2.1-1.1,3.2c-0.7,1.8-0.9,4.2-2.2,5.1
	c-3.1,2.2-6.7,3.7-10.4,5.7C227.6,21.8,227.1,21.1,227.3,20.8z M230.8,33.8c-0.1,0.5-1,1.2-1.2,1.1c-0.6-0.3-1.4-0.9-1.4-1.5
	c-0.1-1.2-0.2-2.7,0.3-3.7c1.1-2.3,2.5-4.5,3.8-6.7l0.7,0.2C232.3,26.7,231.6,30.2,230.8,33.8z M236,35.1c-0.1,0.2-0.7,0.4-0.8,0.4
	c-0.7-0.8-1.4-1.7-1.9-2.6c-0.2-0.4,0.1-1.4,0.4-1.5c1-0.5,2-0.6,3.1-0.9c0.1,0,0.3,0.5,0.6,0.9C237.1,32.5,236.6,33.8,236,35.1z
	 M237.7,38.4c0.3-2.1,0.3-3.1,0.6-4.1c0.7-2.4,1.6-4.9,2.4-7.3c1.1-3.5,3.1-6.2,6.7-7.5c0.5-0.2,0.7-1.2,1-1.8c1,2.1,2.3,4.2,1,6.6
	c-0.4,0.8-1,1.4-1.6,2.1c-0.4,0.4-1.2,1-1.1,1.2c1.5,2.6-0.8,4.1-1.9,5.4C243.1,34.8,240.6,36.2,237.7,38.4z M243.2,47.3
	c-0.4-0.1-1.2-0.9-1.1-1.3c0.5-3.3,1.2-6.5,2-9.8c0.1-0.4,1.2-0.8,1.9-0.8c0.3,0,1,1.2,0.9,1.4c-1.5,2.2-1.3,4,1.1,5.3
	c0.2,0.1,0.2,0.6,0.3,0.9C248.3,44.9,245.2,47.6,243.2,47.3z M249.1,38.4c-0.1-0.3-0.3-0.7-0.3-0.8c0.8-0.5,1.7-1,2.6-1.5
	c0,0,0.3,0.4,0.6,0.8C250.9,37.5,250,38,249.1,38.4z M250.7,39.8c1.2-0.7,2.6-1.1,2.9-2.9c0.1-0.4,1.6-0.5,2.5-0.6
	c0.1,0,0.6,1.1,0.5,1.3c-2.1,1.9-4.2,3.8-6.7,5.9C249.4,41.7,249.3,40.6,250.7,39.8z M251.8,45.4c-0.8-2.4,2.5-3.9,5.1-6.1
	c-0.3,1.6-0.4,2.3-0.5,3c-0.3,1.5-0.2,2.6,1.9,2c0.3-0.1,0.9,0.6,1.3,0.9c-0.3,0.3-0.6,0.7-1,1c-0.1,0.1-0.3,0.2-0.5,0.1
	C256,46.2,252.5,47.9,251.8,45.4z M257.8,53.1c0.6-1.6,1.2-3.2,1.9-4.7c0.5-1.1,1.2-1.8,2.6-1.7c1.8,0.1,0.4,1.5,0.8,2
	c0.9,1,2,1.7,3,2.5C263.8,52.9,261.1,54.1,257.8,53.1z M265.4,48.3c2.5-4.3,5.9-7.7,9.7-11.1c-0.8,5.1-0.8,5.1,3,6.1
	C274.9,48.2,270.7,49.3,265.4,48.3z M280.4,52.3c-0.7,0-1.5-0.1-2.2-0.1c0-0.1,0-0.3,0.1-0.3c0.7-0.1,1.5-0.1,2.2-0.1
	c0.1,0,0.2,0.2,0.3,0.3C280.7,52.1,280.5,52.3,280.4,52.3z M281.5,49.4c-1.3,0-2.6,0.1-3.8-0.1c-0.5-0.1-1.1-0.6-1.5-1
	c-0.1-0.1,0.3-0.8,0.6-1.2c1.7-2.2,3.4-4.4,5.5-7.1c0.4,2.8,0.7,5.2,1,7.6C283.3,48.8,282.6,49.4,281.5,49.4z M287,45.4
	c0,1.6,0,1.6-2.6,3.8c0-2.3,0-4.3,0-6.4c0-1,0.2-2.1,1.5-1.7c0.5,0.1,0.9,1,1.1,1.7C287.2,43.6,287,44.5,287,45.4z M288,34.7
	c0,0-0.9,0-1,0.2c-1,1.2-1.9,2.5-3.2,4.2c-0.6-2.5-0.5-4.1,1.5-5c1.8-0.8,3.6-1.7,6.1-2.8c-0.7,1.5-0.9,2.5-1.5,3.1
	C289.6,34.7,289.1,38.5,288,34.7z M289.1,40.1c0.9-0.5,1.9-0.8,2.9-1.1c-0.7,0.8-1.3,1.6-2.1,2.3c-0.2,0.2-0.8,0-1.2-0.1
	C288.8,40.8,288.8,40.2,289.1,40.1z M293.1,44.5c-1.2,0-2.4-0.2-4-0.4c2.4-1.9,4.4-3.5,6.7-5.3c0.2,0.3,0.6,0.9,0.8,1.6
	C297.2,43.4,296.2,44.5,293.1,44.5z M300.1,30c-2.2,3-5.3,5.5-9.6,6.3c1.8-2.6,3.7-5.1,5.3-7.9c1.1-1.8,3.3-3.2,2.3-5.9
	c-0.1-0.3,0.2-1,0.5-1.2c2.6-2.2,5.1-4.3,7.8-6.4c0.3-0.2,1-0.1,1.3,0.1c0.2,0.1,0.2,0.8,0,1.2C305.3,20.8,303.1,25.8,300.1,30z
	 M303.6,28.7c1.2-2.5,2.3-4.6,3.3-6.8C309.1,25.9,309.1,25.9,303.6,28.7z M310.2,39.3c-0.2,0.6-0.6,1.3-1.1,1.5
	c-1.6,0.6-3.2,0.9-4.8,1.4c-1-2,0.8-2.8,1.8-3.9c2.4-2.7,4.9-5.4,7.4-8.1c-1.1,0.6-2.1,1.1-3.2,1.7c-0.5,0.2-1.2,0.7-1.6,0.5
	c-0.5-0.2-0.8-1-0.9-1.5c-0.1-0.6-0.1-1.3,0.1-1.9c1.2-2.3,3.6-2.3,5.7-3.1c1.8-0.7,2.5,0.7,3.3,1.8c-1.2,0.9-2.3,1.7-3.4,2.5
	c0.4,0.3,0.9,0.6,1.3,0.8C312.5,33.3,311.1,36.2,310.2,39.3z M316.9,43.5c-0.7,0.6-1.5,1.1-2.2,1.6c-0.1-0.1-0.3-0.3-0.2-0.4
	c0.5-0.9,0.9-1.8,1.6-2.6c0.2-0.2,0.9-0.1,2-0.1C317.5,42.8,317.3,43.2,316.9,43.5z M321.8,36.5c-0.3,0.3-1.1,0.1-2.5,0.1
	c0,0-0.8,0.5-0.7,0.8c0.3,1.2,0,2-1,2.3c-1.5,0.4-3,0.7-4.6,0.9c-0.2,0-1-1.3-0.8-1.7c0.5-1.5,1.2-3,2.1-4.3
	c1.1-1.7,2.4-3.3,3.7-4.9c1.6,1.7,3.2,3.3,4.7,5.1C322.8,34.9,322.3,36,321.8,36.5z M324.2,30.5c-0.2,1.3-1.2,1.5-1.9,0.6
	c-1.6-2-3-4.1-4.7-6c-1.5-1.6-0.8-2.8,0.2-4.1c2,2.5,4.1,4.9,6,7.4C324.2,29,324.3,29.9,324.2,30.5z M72.8,457.4c0,0,0.4,0,0.4,0.1
	c-0.1,1.9-0.3,3.9-0.5,5.8c-0.3-0.1-0.7-0.1-1-0.2C72.1,461.2,72.4,459.3,72.8,457.4z M68.9,460.7c-0.5,0.3-1.4-0.1-2.2-0.1
	c0.4-0.5,0.8-1.1,1.3-1.5c0.6-0.4,1.3-0.7,2-1c0.2,0.2,0.4,0.5,0.6,0.7C70,459.4,69.6,460.3,68.9,460.7z M69.5,450.7
	c0.1,0,0.2,0,0.3,0.1c0.1,0.1,0.1,0.2,0.1,0.3C69.8,451,69.6,450.8,69.5,450.7z M80,454.9c-2.5,0.3-3.1-0.2-3.2-2.7
	c0-1.1,0-2.2,0-3.3c0.3-0.1,0.7-0.2,1-0.3c1.1,1.5,2.3,2.9,3.3,4.4C81.8,454.2,81.2,454.8,80,454.9z M83.1,458.6
	c-0.7-0.5-1.4-1.1-2.1-1.6c0.2-0.2,0.5-0.6,0.6-0.6c0.8,0.5,1.5,1,2.3,1.6c0.1,0.1,0.1,0.3,0.3,0.7
	C83.4,458.6,83.2,458.6,83.1,458.6z M231.5,450.7c1.3,0.4,2.6,0.8,3.8,1.3c0.4,0.2,0.5,0.8,0.7,1.2c-0.4,0.1-0.8,0.2-1.4,0.4
	c-1.1-0.5-2.3-1.1-3.4-1.8C231.1,451.9,231.4,451.1,231.5,450.7z M444.7,6.1c0.7,0.3,1.3,0.6,2,1c0,0-0.1,0.4-0.2,0.7
	c-0.8-0.4-1.7-0.7-2.7-1.1C444.2,6.3,444.5,6,444.7,6.1z M439.6,6.6c2.2,0.9,4.2,2.4,6.4,3.3c2.1,0.9,4.4,1.4,7.2,2.2
	c-5.9,3.6-11.1,7.7-18.3,3.2c1.5-0.6,2.4-0.9,3.3-1.4c1.1-0.6,2.1-1.3,3.1-2c-0.9-0.7-1.9-1.4-2.8-2.1c-0.8-0.7-1.6-1.4-3.1-2.7
	C437.3,6.8,438.6,6.2,439.6,6.6z M435.3,23.6c-0.4-1.2-0.4-2.5-0.5-3.7c0-0.3,0.4-0.7,0.7-1c0.4,0.2,0.8,0.3,0.9,0.6
	c1,2.2,2.1,4.3,2.9,6.5c0.9,2.5-0.2,3.6-2.9,3c-0.8-0.2-1.5-0.4-2.3-0.7c-0.4-0.2-0.6-0.6-1-0.9c0.3-0.3,0.6-0.8,0.9-0.8
	C435.8,26,435.7,25,435.3,23.6z M435.2,2.7c0.1,0.4,0.3,0.9,0.4,1.4c-0.2,0.4-0.3,0.8-0.5,1.2c-0.2-0.4-0.5-0.7-0.4-1.1
	C434.8,3.7,435.1,3.2,435.2,2.7z M427.7,4.5c1.8,0.9,3.7,1.9,5.3,3.2c1.5,1.1,2.8,2.6,4.7,4.4c-1.7,0.6-2.8,1.3-4,1.3
	c-2.2,0.1-4.4-0.2-6.6-0.3c-0.3-2.6-0.7-5.2-1-7.8C426.1,5.1,427.4,4.4,427.7,4.5z M433.1,17.6c-0.1,2-0.4,4.1-0.7,6.6
	c-1.6-1.9-2.8-3.2-3.7-4.6c-0.9-1.4-1.5-2.9-2.2-4.4c2,0.3,4,0.5,5.9,0.9C432.7,16.2,433.1,17.1,433.1,17.6z M419.5,6.2
	c0.9-0.8,2-1.3,3-1.9c0.5,1.1,1,2.2,1.4,3.4c0.2,0.7,0.1,1.6,0.2,2.4c0.1,0,0.2,0,0.3,0c-0.2,2.5-0.3,5.1-0.7,7.6
	c-0.2,1.6-1.7,2-2.9,1c-0.7-0.6-1.4-1.5-1.5-2.4c-0.2-2.6-0.2-5.1-1.4-7.5C417.7,8.3,418.8,6.9,419.5,6.2z M417.9,22.6
	c0.2,1.3-1.1,2.8-2,4.1c-0.1,0.2-1.7-0.1-1.9-0.5c-0.8-1.2-1.2-2.5-1.9-4.3c1.3,0.2,2,0.3,2.8,0.4C415.9,22.6,417.6,20.6,417.9,22.6
	z M411.5,4.7c0.6-1.1,1.9-0.5,2.3,0.5c1.3,3.3,4,6.2,3.5,10.2c-0.1,0.6,0,1.3,0.1,1.9c0.2,2.7-0.1,3.2-2.5,3.1
	c-2.5,0-5.3-2.5-6.1-5.3C407.8,11.1,409.8,7.9,411.5,4.7z M409,20c-0.1,0-0.3,0-0.3-0.1c-0.1-0.1-0.1-0.3-0.2-0.4
	C408.6,19.7,408.8,19.8,409,20z M404.4,8c1.1-1.8,2.5-3.8,5-4c-1.1,3.3-2.3,6.6-3.5,10.1c-0.2-0.8-0.2-1.5-0.4-2.2
	C405.1,10.6,403.9,8.9,404.4,8z M408.5,19.5c-0.3-0.1-0.7-0.2-0.8-0.4c-0.2-0.3-0.3-0.7-0.4-1.1c0.4,0.2,0.8,0.3,1,0.6
	C408.5,18.8,408.4,19.2,408.5,19.5z M398.4,14.8c-1.3-1.1-1.6-2.3-0.6-3.8c0.6-0.9,1-2,1.6-3c0.6-0.9,1.5-0.7,1.9,0.1
	c0.9,2.2,1.7,4.4,2.5,6.6c0.7,1.9,1.5,3.9,2.3,5.8c0.3,0.8,0.7,1.6,1,2.4c-1,0.4-2,0.8-3,1.1c-0.4,0.1-0.9-0.3-1.2-0.4
	c-0.9,0.2-1.8,0.5-2.4,0.3c-0.4-0.1-0.7-1.1-0.8-1.7c0-0.3,0.6-0.7,1-1c2.4-2.5,2.4-2.4-0.4-4.7C399.5,15.9,399,15.3,398.4,14.8z
	 M396.5,24.8c0.1-0.2,1.3-0.4,1.7-0.1c1.2,0.9,3,1.3,3.4,3c-0.2,0.4-0.4,0.9-0.4,0.9c-1.6-0.3-3.3-0.6-4.9-1.3
	C396,27.3,396.2,25.7,396.5,24.8z M387.4,23.6c0.9,0.2,1.3,0.2,1.7,0.3c1.6,0.7,3.9,1.2,4.5,2.4c0.8,1.7,0.6,4.1,0.1,6.1
	c-0.6,2.9-1.1,6-4.6,8.3C389.3,34.6,386.8,29.3,387.4,23.6z M386.1,19.7c0,0,0.3,0.4,0.6,0.8c-0.6,0.2-1.1,0.4-1.6,0.6
	c0-0.2-0.2-0.6,0-0.7C385.3,20.1,385.7,19.9,386.1,19.7z M386.8,31.7c0.1,0.5-0.2,1.4-0.6,1.7c-2.1,1.3-4,3.5-7,2.3
	c2-4.2,4-8.4,6.4-13.4C386.1,26,386.5,28.8,386.8,31.7z M374.8,15.4c1.1-3.7,2.5-7.2,3.9-10.8c0.3-0.8,1.1-1.5,1.9-2.3
	c1.3,3.1,2.2,5.7,3.5,8.1c1.5,2.9,1.3,5.8-0.2,8.3c-1.7,2.9-4.1,5.3-6.3,7.9c-0.6,0.7-1.7,0.9-1.8-0.2
	C375.3,22.7,373.7,19.1,374.8,15.4z M371.5,7.8c3.1,1.7,3.4,2.7,2.3,6.2c-0.5,1.7-1,3.3-1.7,5.3c-4.2-3.5-1.8-9.2-4.7-13.3
	C368.8,6.7,370.2,7.1,371.5,7.8z M357.5,15.3c1.9-2.8,4.2-5.2,6.5-7.7c0.2-0.2,1.6,0.1,1.8,0.5c2.2,4.7,3.3,9.4-0.2,14.1
	c-2.3,3.1-4.1,6.5-8,8.4c-0.4-3.5-1-6.9-1.1-10.2C356.3,18.7,356.6,16.7,357.5,15.3z M347,6.8c0.8-0.8,1.7-1,2.1,0.4
	c0.6,1.8,1.3,3.7,1.9,5.5c1.3,3.4-1.9,9-4.9,11.1c-1.8,1.3-3.9,2.2-5.9,3.3C337.5,18.5,341.3,12.3,347,6.8z M334.3,27.8
	c0.4-1.4,1.7-2.6,3-4.7c0.2,1.6,0.3,2,0.3,2.5c0.3,3.7,0.3,3.7,3.8,3.1c2.2-0.4,2.9,0.3,2.4,2.5c-0.4,1.9-0.9,3.7-1.6,5.5
	c-0.2,0.5-1.3,1-1.8,0.9C338.2,37.1,333.7,30.1,334.3,27.8z M334.5,34.2c-0.2,0.2-0.4,0.3-0.6,0.5c-0.2-0.3-0.3-0.7-0.5-1
	c0.3-0.1,0.6-0.4,0.8-0.3C334.3,33.5,334.3,33.9,334.5,34.2z M340,10.3c-1.6,4.9-2.2,9.5-5.1,13.3c-0.5,0.7-1.5,1-2.3,1.5
	c-0.5-0.9-1.5-1.7-1.6-2.7C330.5,17.7,332.5,11.3,340,10.3z M328,31.5c0.1-0.9,0.4-1.9,1-2.6c0.4-0.5,1.2-0.9,1.8-0.9
	c0.3,0,0.7,0.9,0.9,1.5c0.2,0.6,0,1.3,0,1.9c0,0,0,0,0,0c0,0.2,0.1,0.3,0,0.5c-0.5,1.2-0.9,2.6-1.7,3.5
	C329.6,35.7,327.8,33.1,328,31.5z M86.5,452.8c0.3-0.8,0.6-1.5,0.9-2.3c0.1,0.1,0.4,0.1,0.4,0.2c-0.2,0.8-0.3,1.7-0.5,2.5
	c0,0.1-0.2,0.2-0.5,0.4C86.6,453.1,86.5,452.9,86.5,452.8z M85.9,457.5c0.3-0.2,0.5-0.3,0.8-0.5c0.8,1.3,1.8,2.5,2.4,3.9
	c0.3,0.6-0.1,1.5-0.2,2.2c-0.5-0.4-1.2-0.8-1.5-1.3C86.8,460.4,86.4,458.9,85.9,457.5z M126.3,484.9c-1.2,0.5-2.4,0.9-3.7,1.1
	c-6,1-9.2-1.8-9-7.9c0.1-1.4,0.1-2.8,0.3-4.2c0.3-2.5,1.8-3.3,4-2.1c0.8,0.5,1.5,1.3,2.4,1.5c0.8,0.2,1.8-0.2,2.7-0.4
	c-0.2-0.7-0.5-1.4-0.7-2.1c-0.1-0.3-0.2-0.6-0.3-1c1.6-0.1,3.2-0.2,4.8-0.2c2.6,0.1,4.8,2.1,5.2,4.7
	C132.7,478.7,130.5,483,126.3,484.9z M143.8,455.1c0-0.1,0.2-0.3,0.3-0.4c0.1,0.1,0.3,0.2,0.3,0.3c0.2,0.8,0.4,1.7,0.5,2.5
	c-0.1,0-0.4,0.1-0.4,0.1C144.3,456.8,144.1,455.9,143.8,455.1z M146.1,468.9c-0.1,0.3-1,0.3-1.6,0.5c0-0.4-0.2-0.8,0-1.2
	c0.3-0.7,0.7-1.3,1.1-2c0.3,0,0.6,0,0.9,0.1C146.4,467.2,146.4,468.1,146.1,468.9z M148,465.1c-0.4-0.8-0.8-1.6-1.1-2.4
	c0-0.1,0.4-0.4,0.9-0.8c0.2,0.8,0.5,1.4,0.6,2.1C148.4,464.3,148.2,464.7,148,465.1z M149.4,467.3c0.3,2.4,0.7,4.7,1,7.1
	C149.3,472.2,148.5,469.9,149.4,467.3z M177.9,482.1c-1.7,2.8-6.9,4.1-9.8,2.4c-0.9-0.6-1.5-1.9-2-3.1c-0.3-0.8-0.1-1.9-0.1-2.9
	c-0.1,0-0.3-0.1-0.4-0.1c0.5-2.5,0.9-5,1.6-7.4c0.8-2.6,1.5-2.8,4.4-2c1.5,0.5,3,1,4.6,1.3c0.3,0.1,0.9-0.4,1-0.7
	c0.1-0.3-0.4-0.7-0.6-1.1c-0.3-0.4-0.7-0.6-1-1c0.4-0.2,0.9-0.6,1.3-0.6c1.7,0,3.2,1.3,3.4,3.4C180.7,474.6,180.1,478.6,177.9,482.1
	z M188.2,462.2c-0.2,0.1-0.6-0.2-0.7-0.4c-0.2-0.8-0.4-1.7-0.5-2.5c0.2-0.1,0.4-0.1,0.6-0.2c0.4,0.8,0.8,1.6,1.1,2.4
	C188.8,461.6,188.4,462,188.2,462.2z M228.7,466.6c1.3-1.1,2.4-3.1,4.2-0.7c2.1,2.9,1.8,5.4-0.7,7c-0.9,0.6-2,1-3.1,1.5
	c-0.7-0.4-1.6-0.6-2.1-1.1c-1.7-1.5-3.4-3-4.9-4.6c-1.3-1.5-0.8-3,1.2-3.7c0.3-0.1,1.3,0.4,1.3,0.6c-0.3,2.8,1.5,2.1,3,1.8
	C227.9,467.3,228.3,466.9,228.7,466.6z M227,456.9c0.4-2,0.6-4.1,1.1-6.1c0.5-2,1.3-3.9,1.9-5.8c0.2,0.1,0.4,0.2,0.6,0.3
	c-0.7,3.7-1.2,7.5-2,11.2c-0.7,3.2-2.2,6-5.8,6.9c-0.5,0.1-1.1,0.3-1.3,0.6c-1.8,3.7-4.1,1.6-6.3,0.6c-1.5-0.7-3-1.2-4.3-2.2
	c-0.7-0.6-1.4-1.9-1.2-2.8c0.1-0.8,1.3-2,2.1-2.1c2.2-0.4,4.5-0.3,6.7-0.4c1.6-0.1,3.2-0.2,4.8-0.2c0.5,0,1.1,0.1,1.5,0.4
	C226.3,458.3,226.8,458.2,227,456.9z M216.3,445.1c1.5,0,3,0.8,4.5,1.3c0.9,0.3,1.9,0.5,2.7,1c1.1,0.7,2.7,1.5,3.1,2.6
	c0.4,1.5-2.3,4.5-4,4.8c-1.6,0.2-3.2,0.2-4.8,0.2c-1.8,0.1-3.5,0-5.3,0.2c-2.5,0.3-2.7,0.2-2.7-2.2
	C209.7,449.1,212.8,445.2,216.3,445.1z M210.8,444.4c0.2-0.3,0.6-0.5,1-0.7c-0.1,0.4-0.2,0.8-0.4,1.1c-0.2,0.2-0.5,0.3-0.8,0.4
	C210.7,445,210.6,444.6,210.8,444.4z M208.8,438.4c2.2,2.9,2.2,3-0.9,6.7c-0.9-3.5-1.7-6.8-2.8-11.2
	C206.8,436,207.9,437.2,208.8,438.4z M204.9,445.1c1.2,2.5,1.2,2.5,0,4.8V445.1z M204,456.2c1.7-3.9,3.1-7.9,6.5-10.8
	c-1.6,3.8-3.2,7.5-4.8,11.3c-0.2,0.4-0.9,0.5-1.4,0.8C204.2,457.1,203.9,456.5,204,456.2z M207.5,458.7c-0.1,0.2-0.2,0.5-0.3,0.7
	c-0.1-0.1-0.3-0.2-0.3-0.3c0.1-0.2,0.2-0.5,0.3-0.7L207.5,458.7z M401.2,49.2c-3.7,4.7-7.4,9.3-11.1,13.9
	c-4.8,5.9-11.5,10.7-17.6,15.1c-5.3,3.8-9.5,8.8-13.3,13.9c-4.1,5.5-8.9,10.1-14.3,14.3c-5.3,4.2-10.9,8-15.9,12.6
	c-5.1,4.7-9.4,10.2-14.2,15.1c-5.7,5.9-11.6,11.6-17.4,17.5c-4.4,4.5-8.8,9-12.8,13.8c-7.7,9.4-12.3,20.3-18.4,30.7
	c-6.5,11.1-12.7,22.4-20,32.9c-5.7,8.1-10.6,16.5-14.8,25.4c-3.3,7.1-6.2,14.5-9.2,21.8c-2.7,6.5-5.6,13-8.1,19.6
	c-1.3,3.4-1.8,7.1-2.9,10.6c-1.9,6.1-3.6,12.3-5.9,18.3c-2.9,7.5-5.4,15.1-7.2,22.9c-0.8,3.3-1.7,6.5-2.6,9.8
	c-1.4,4.9-1.9,9.8-0.6,14.7c0.2,0.9,0.4,2,0.2,2.9c-1.8,7.8-0.8,15.8-0.7,23.6c0,4.3,1.2,8.6,2,12.8c0.4,2.5,1.4,5,1.5,7.5
	c0.2,3.4,1.8,6.2,3.2,9c0.7,1.4,2.3,2.6,2.5,4c0.4,3.4,0.4,6.9,0.3,10.4c-0.1,3.7-0.6,7.4-1,11c-0.1,0.7-0.6,1.3-1,2
	c-0.5-0.3-1.1-0.5-1.6-0.9c-3-2.4-4.6-4.9-6.8-10.6c-0.7-1.8-1.4-3.6-2.1-5.4c-0.2-0.4-0.4-1-0.8-1.2c-0.5-0.3-1.1-0.2-1.6-0.3
	c0,0.4-0.3,0.9-0.1,1.3c0.5,1.2,1.2,2.3,1.7,3.5c0.9,1.9,2.2,3.8,2.3,5.8c0.3,3.7,2.7,5.8,5.2,7.7c5.5,4.2,10.9,8.4,17.2,11.5
	c3.3,1.6,6.1,4.1,9,6.4c2.3,1.9,4.4,4.1,6.6,6.2c-0.2,0.2-0.2,0.4-0.3,0.4c-4.6-0.1-9.1-0.3-13.7-0.3c-5,0-9.8-1.3-14.7-2.2
	c-5-0.8-5.1-0.9-5.9-5.7c-0.3-2-0.7-4.2-1.6-6c-1.7-3.4-1.9-6.4,0.5-9.4c0.2-0.2,0.1-0.6,0.1-0.9c0-0.1-0.1-0.3-0.3-0.8
	c-1.6,0.4-2.4,1.9-3.4,2.8c-1.6,1.4-2.2,1.5-3.3-0.3c-1.7-2.7-3.2-5.6-4.8-8.3c-0.4-0.7-0.6-1.5-1.2-2.1c-0.5-0.5-1.3-0.6-1.9-0.9
	c0,0.6-0.2,1.2,0,1.7c1.6,4,3.3,8,5,12c1.6,3.7,2.6,7.6,2.1,11.7c-0.1,0.8-0.7,2-1.3,2.1c-1.2,0.4-2.6,0.1-3.2-1.4
	c-0.4-0.9-0.6-1.8-0.9-2.7c-0.8-2-1.7-3.8-4.4-3.6c-1.6,0.1-1.6-1.1-1.6-2.3c0-1.2,0.5-2.8-1.3-3.2c-1.7-0.3-2,1.4-2.5,2.5
	c-1.1,2-1.3,4.7-4.6,4.7c-0.5,0-1.1,1.1-1.5,1.8c-0.8,1.6-2.2,1.9-3.7,1.6c-3.1-0.6-6.3-1.2-9.4-2.1c-0.8-0.2-1.6-1.4-2-2.4
	c-0.5-1.1-0.4-2.7-1.1-3.6c-2.3-2.9-1.2-5.3,0.7-7.7c2.2-2.7,4.6-5.3,6.9-8c0.2-0.3,0.2-0.8,0.2-1.2c-0.5-0.1-1.1-0.3-1.3-0.1
	c-1.6,1.3-3.2,2.7-4.7,4.1c-1.6,1.6-3.1,3.3-4.4,4.7c-3.3-3.3-6.6-6.7-10.1-10c-0.4-0.3-1.1-0.3-1.7-0.4c0,0.6-0.1,1.2,0.1,1.7
	c2.5,4.3,5.6,8.3,7.3,13c0.4,1.2,0.6,2,0,3.1c-0.6,1.1-0.8,2.4-1.5,3.6c-0.8,1.5-1.6,3.9-2.8,4.1c-2.4,0.5-5-0.1-7.5-0.4
	c-1.2-0.2-2.3-1.2-3.5-1.3c-1.7-0.1-3,0-2.4-2.5c0.3-1.1-1.3-1.7-2.1-1.1c-1.2,0.9-2.2,2.2-3.1,3.5c-0.7,1.1-1.1,1.9-2.9,1.5
	c-2.2-0.5-4,0.9-4.8,3.1c-0.6,1.5-1.5,2.2-3.3,2.2c-3.4,0.1-6.7,0.6-10,1c-8,0.9-16,1.4-23.4,4.8c-2.6,1.2-5.5,1.5-8.4,1.9
	c-3,0.4-6,0.5-9.6,0.7c7.7-3.7,13.7-9.3,21.8-11.3c2.6-0.6,5-2.1,7.5-3.2c0.4-0.2,0.9-0.5,1.2-0.8c2.2-4,6.6-5.5,9.6-8.6
	c8.6-8.8,18-16.9,24-27.9c0.2-0.3,0.4-0.5,0.5-0.8c0.3-1.2,0.6-2.4,0.9-3.6c-1.8-0.1-1.7,1.5-2.3,2.5c-5,9.2-11.3,17.2-19.7,23.5
	c-0.6,0.5-1.2,1.1-1.8,1.6c-4.3,4-4.3,4-9.2,1.6c-1.4-0.7-1.5-1.6-0.7-2.7c0.7-0.8,1.6-1.5,2.5-1.9c10.8-4.6,7.6-1.9,14.1-11.4
	c2.6-3.9,5.4-7.6,7.7-11.7c1.1-2,1.8-4.5,1.9-6.9c0.1-2.7,0.6-5.1,1.7-7.4c3.3-6.7,5.4-13.7,7-21c0.9-4.1,1.9-8.1,3-12.1
	c0.4-1.4,1-2.7,1.7-4c3.7-6.4,5.1-13.5,6.8-20.5c3-12.3,5.7-24.7,9.1-36.9c1.8-6.5,4.8-12.6,7.2-18.9c2.3-5.7,4.5-11.4,6.9-17
	c1.8-4.3,3.9-8.5,5.9-12.7c3.9-7.8,6.2-16.2,8.7-24.5c2.2-7.3,5.1-14.2,8.8-20.9c4.6-8.3,8.4-17.1,12.7-25.5
	c2.8-5.5,5.8-10.8,8.8-16.1c4.3-7.8,10.1-14.5,15.6-21.4c6.3-7.9,11.9-16.4,18.7-24c4.9-5.5,8.4-11.8,12-17.8
	c3.7-6.3,7.2-11.8,12.3-17c-0.1-1.4,45.8-43,46.4-42.7c0.6-1.6,2.4-2.4,3.5-3.7c6.4-7.3,13.3-12.7,20.8-18.7c1.6-1.3,2.8-2.6,4-0.6
	c0.4,0.7,1.5,1.1,2.4,1.6c1.6,0.9,2.8,0.5,3.7-1c1.3-2.4,2.5-4.9,2.2-7.8c-0.1-1.3-0.4-2.9,0.2-3.8c1-1.4,2.6-3,4.1-3.1
	c1.6-0.1,3.7,1.1,4.8,2.4c0.8,1,0.3,3.1,0.4,4.7c0,1,0.1,2.1,0.1,3.1c1-0.5,2-0.8,2.9-1.4c4.4-2.6,7.5-6.5,9.7-11.1
	c0.7-1.5,1.6-1.7,3-0.9c2.8,1.5,3.3,4.2,3.4,6.9c0,0.6-0.6,1.2-0.5,1.8c0.1,0.7,0.5,1.4,0.8,2.2c0.7-0.3,1.5-0.4,1.9-0.9
	c1.1-1.2,2-2.6,3-3.7c0.8-0.9,1.8-1.7,2.8-2.5c-0.5,1.7-0.9,3.4-1.6,4.9c-0.9,2.2-1.7,4.6-4.7,5c-0.5,0.1-0.8,0.9-1.2,1.4
	c0.6,0.5,1,1.1,1.7,1.4c2.5,1.2,5,1,7.4-0.3c0.8-0.5,1.7-0.9,2.9-1.5c0.4,3.2,1.1,6.1-1.1,8.8c-0.2,0.3-0.1,0.8-0.1,1.3
	c0.6-0.1,1.3,0.1,1.7-0.2c2-2.1,4-4.2,5.9-6.4c1.5-1.8,1.8-1.9,3.4-0.5c2.7,2.4,2.8,3.4,0.9,8.2c-0.2,0.5-0.2,1.2-0.2,1.8
	c0.7,0.1,1.5,0.2,2.2,0.1c0.4-0.1,0.8-0.6,1.2-0.8c0.2-0.1,0.5-0.1,1.1-0.1C401.5,48,401.6,48.7,401.2,49.2z M90.6,459.1
	c-0.1-0.1,0.5-0.6,0.7-0.9c0.5,0.5,1.1,0.9,1.6,1.5c0.1,0.1-0.4,0.6-0.8,1.3C91.5,460.2,91,459.7,90.6,459.1z M403.3,40.3
	c-0.5,1.3-1.2,2.6-2.3,4.7c0-4.3-1.1-7-4.2-8.9c-1.9-1.1-2-3.3-0.7-5c1.1-1.5,2.6-0.8,3.9-0.3C403.3,32.2,404.7,36.1,403.3,40.3z
	 M409.3,47.1c-0.2,2.5-2,4.3-4.3,6.3c-1.7-5.8-1.6-10.8,1.2-15.6c0.3-0.6,1.1-1,1.6-1.5c0.5,0.6,1.4,1.1,1.4,1.8
	C409.4,41.1,409.5,44.1,409.3,47.1z M410.7,34c-0.3,1-1.5,1.2-2.4,0.2c-1.9-2.1-3.8-4.3-6.1-6.9c2.3-1.1,3.9-1.8,5.5-2.5
	c3.2-1.5,4-1.3,4.2,2.2C412.1,29.3,411.4,31.7,410.7,34z M415.7,41.7c-2.2,0.4-3-0.7-3.6-2.8c-0.9-3.2,1.3-5.4,1.5-8.3
	c1.9,0.8,2.6,2,2.6,3.8c-0.1,1.4,0.1,2.9,0.1,4.3C416.2,39.7,418.1,41.2,415.7,41.7z M419.1,30.6c-0.4,0.3-1.5,0.3-1.7,0.1
	c-0.3-0.5-0.6-1.5-0.3-2c1-2.2,2.1-4.3,3.3-6.3c0.2-0.4,1.2-0.8,1.6-0.6c2.7,1.2,3.6,0.1,3.2-3c2.9,4.1,2.9,4.1,0.2,6.7
	C423.4,27.2,421.3,28.9,419.1,30.6z M432.6,40.4c-1.9-2.3-3.6-4.2-5.1-6.3c-0.9-1.3-1.7-2.7-2.1-4.2c-0.5-1.8,1.1-4,3-4.3
	c0.6-0.1,1.6,0.5,1.9,1c1.4,2.3,2.9,4.6,4,7.1C435.4,36.2,434.3,38.4,432.6,40.4z M447.5,35.4c-2.2,0.5-3.7,0.8-5.3,1.1
	c-3.4,0.7-4.4,0.1-5.8-3.1c-0.4-0.9-0.8-1.7-1.5-3.1C439.3,31.7,443.8,31.4,447.5,35.4z M444,25.2c-2.7-0.3-3.3-3.2-5.2-4.5
	c0,0,0.3-1,0.7-1c2.1-0.6,4.3-1.2,6.5-1.7c0.3-0.1,1,0.6,1.2,1.1c0.9,1.9,1.7,3.8,2.7,6.2C447.8,25.3,445.9,25.4,444,25.2z
	 M450.2,16.5c0.3,1.9,0.5,3.4,0.8,5.2C449.4,19.2,449.4,19.2,450.2,16.5z M458.7,24.4c-0.1,0.6-0.6,1.2-0.6,1.8
	c0,0.9,0.4,2.4,0.2,2.5c-1.6,0.6-2.3-0.9-2.8-1.9c-1.1-2.1-2.2-4.3-2.9-6.6c-1-3.3-0.5-6.3,3.2-8C459,15.8,459.1,20,458.7,24.4z
	 M552.3,4.3c-0.1,0.2-0.2,0.3-0.3,0.5c-0.3-0.2-0.6-0.5-0.9-0.7C551.5,4.1,551.9,4.2,552.3,4.3z M491.8,17.2
	c1.1,2.5,2.4,4.8,4.5,6.6c0.3,0.3,0.3,0.9,0.5,1.7c-0.6,0.2-1.3,0.6-1.5,0.4c-2.3-2-4.6-4-6.5-6.3c-0.7-0.8,1.9-1.9,0.8-3.4
	c0.3-0.1,0.7-0.3,0.8-0.2C490.9,16.3,491.6,16.6,491.8,17.2z M485.3,8c2.4,0.3,4.1,1.7,5.6,3.4c1,1.2,0.2,1.8-0.8,2
	c-5,1.2-9.5-1-12.4-6.2C480.6,7.5,483,7.7,485.3,8z M487,16.1c-0.4,0.5-0.6,0.9-0.7,0.8c-0.5-0.1-0.9-0.4-1.3-0.6
	c0,0,0.1-0.6,0.2-0.6C485.7,15.9,486.3,16,487,16.1z M480.2,16.6c-0.5,0.6-1,1.3-1.6,1.6c-0.3,0.2-1-0.5-1.6-0.7
	c0.4-0.3,0.8-0.6,1.3-0.8C478.9,16.6,479.6,16.6,480.2,16.6z M468,12.3c0.8-0.4,1.8-0.4,2.8-0.5c0.9-0.1,2,0.1,2.8-0.2
	c1-0.3,2.3-1.6,2.8-1.3c1.1,0.7,1.8,2.1,3,3.5c-1.9,0.8-3.4,1.4-4.8,2.1c-2.3,1.1-4.6,1.1-6.7-0.5c-0.6-0.4-1.1-1-1.6-1.5
	C466.9,13.3,467.4,12.6,468,12.3z M462.7,26.4c-1.4-0.7-1.9-1.4-1.9-2.9c0-0.8,0-1.6,0-2.4c0.1-3.7,2.8-5.3,6.3-3.5
	c0.8,0.4,1.8,1,2.6,0.9c3.7-0.5,6.4,1.2,9.1,3.3c1.2,1,2.6,1.8,4.1,2.9C476.3,28.5,469.8,29.7,462.7,26.4z M483.1,37.5
	c-0.1,1.1-0.8,1.4-1.6,0.9c-1.3-0.8-2.7-1.7-3.8-2.8c-1.3-1.2-2.4-1.9-4.2-1.1c-0.8,0.3-2.1-0.2-3-0.7c-0.5-0.3-0.7-1.5-0.5-2.1
	c0.1-0.5,1-1.1,1.6-1.3c2.5-0.5,5.1-0.5,7.5-1.2c1.7-0.5,2.4,0.1,2.8,1.4c0.6,1.8,1.1,3.6,1.6,5.4c-0.1,0-0.2,0.1-0.4,0.1
	C483.1,36.6,483.1,37,483.1,37.5z M489.7,33.5c-2.5,0.8-3.6,0.4-5-1.6c-1.6-2.2-1.7-3.3-0.3-5.6c0.4-0.7,0.8-1.4,1.2-2.1
	c0.6-1.1,0.2-1.8-1-2.1c-0.9-0.3-1.9-0.5-2.7-1c-0.5-0.4-1.2-1.4-1.1-1.7c0.6-0.9,1.3-2.1,2.6-1.2c1.2,0.8,2.3,1.8,3.4,2.7
	c3.4,3,6.7,5.9,10.5,9.3C494.7,31.5,492.3,32.7,489.7,33.5z M501.8,41.7c-2.7-1.3-3.6-3.6-4.7-5.7c-0.5-0.8-0.2-2.2,0.1-3.2
	c0.3-1,1.9-1.2,2.5-0.3c0.3,0.4,0.4,1,0.8,1.2C503.6,35.8,503.5,38.5,501.8,41.7z M511.9,32.7c-2.5,1.7-5,1.6-7.4,1.2
	c-2.8-0.5-3.5-2-2.5-4.7c0.5-1.3,0.2-1.7-1-2c-0.6-0.1-1.3-0.4-1.6-0.9c-0.8-0.9-0.5-1.9,0.5-2.5c2.1-1.2,5.4-0.4,6.9,1.6
	c0.9,1.2,1.6,2.4,2.4,3.6C510,30.2,510.9,31.4,511.9,32.7z M522.5,20.5c0.7,0.3,1.5,0.6,2.1,1.1c0.8,0.8,1.3,1.7,2,2.6
	c-1,0.3-1.9,0.7-2.9,0.9c-2.3,0.5-4.7,0.8-7.8,1.4c-2.2-0.7-4.9-1.6-7.5-2.5c-0.2-0.1-0.3-1.1-0.1-1.5c0.4-0.7,1.7-1.8,1.6-1.9
	c-1.9-2.3,0-2,1.4-2.1C515.2,18.3,518.9,19,522.5,20.5z M514.6,13.2c4.3-4.9,9.5-3.1,14.6-2C525.1,16.3,520.3,16.9,514.6,13.2z
	 M522.3,7.4c2.4-2.5,5.7-1.8,8.3-2.9c3.3-1.4,5.4,1.4,8.1,2C533.4,8.8,528.1,9.9,522.3,7.4z M548.6,12.3c-2,0.4-4.1,0.1-6.2-0.2
	c-1.7-0.3-3.3-1.1-5.3-1.7c2.4-1.7,4.8-3.1,6.7-5c1.2-1.2,2-1.3,3.3-0.5c0.7,0.4,1.5,0.7,2.2,1.1c1.8,1,3.9,1.6,4.5,4
	C552,10.8,550.3,12,548.6,12.3z M558,20.3c-3.2-0.5-4.7-3.1-6.1-5.7c-0.2-0.3,0.2-1.2,0.6-1.5c0.6-0.5,1.4-0.8,2.1-1.1
	c3.8-1.8,4-1.7,4.2,2.3c0.1,1.6,0.3,3.2,0.5,5.3C559.1,19.7,558.5,20.4,558,20.3z M132.5,37.5c0,0.1,0,0.2-0.1,0.3
	c-0.1,0.1-0.2,0.1-0.3,0.1C132.2,37.8,132.3,37.6,132.5,37.5z M409.8,3.8c-0.1,0.1-0.2,0.1-0.3,0.1c0.1-0.1,0.3-0.3,0.4-0.4
	C409.9,3.6,409.9,3.8,409.8,3.8z M382.4,24.3c0.1-0.1,0.3-0.3,0.4-0.4c0,0.1,0,0.2-0.1,0.3C382.6,24.2,382.5,24.3,382.4,24.3z
	 M292.5,38.5c0,0.1,0,0.2-0.1,0.3c-0.1,0.1-0.2,0.1-0.3,0.1C292.3,38.7,292.4,38.6,292.5,38.5z M266.9,36.9c0.1-0.1,0.2-0.3,0.4-0.4
	c0,0.1,0,0.2-0.1,0.3C267.1,36.9,267,36.9,266.9,36.9z M230.6,10c0.1-0.1,0.2-0.1,0.3-0.1c-0.1,0.1-0.3,0.3-0.4,0.4
	C230.5,10.2,230.5,10,230.6,10z M226.6,18.1c0,0.1,0,0.2-0.1,0.3c-0.1,0.1-0.2,0.1-0.3,0.1C226.3,18.4,226.4,18.2,226.6,18.1z
	 M318.6,134.8c-0.1,0.1-0.2,0.1-0.3,0.1l0.3-0.4C318.7,134.6,318.7,134.7,318.6,134.8z M643.2,0.1c-0.3,0.4-0.4,1-0.8,1.2
	c-2.8,1.3-5.7,2.5-8.5,3.8c-0.7,0.3-1.4,0.7-2.1,1.1c-2.5,1.7-2.5,1.7-4.8-0.5c-1.4,2.3-2.9,4.5-4.4,7c-0.5-0.7-0.8-1.1-1-1.5
	c-0.9-1.7-1.4-4.4-2.7-4.8c-1.5-0.4-3.6,0.9-5.5-0.1c-0.2-0.1-1,0.7-1.1,1.1c-0.4,1.5-0.6,3.2-1.1,4.7c-1.2,3.6-4.3,5.1-7.4,6.4
	c-1.1,0.5-2.3,0-2.3-1.6c0-0.3,0-0.6,0-1c-0.4-6-0.8-6.5-6.5-7c-1.4-0.1-2.3,0.4-2,1.9c0.6,2.1-0.5,2.1-2,1.9
	c-0.3-0.1-0.6-0.2-0.9-0.3c-1.5-0.4-3-0.8-4.4-1.2c-0.1,1.4-0.4,2.8-0.3,4.2c0.1,1.7,0.2,3.5,0.6,5.2c0.7,3,0.4,3.4-2.7,2.9
	c-4.4-0.7-8.1-2.3-9-7.3c-0.3-1.5-1-2.3-2.5-2.4c-2.5-0.1-5.4,0.3-5.7-3.5c-2.1-1.1-4.2-2.3-6.3-3.4c0,0,0,0,0,0c-0.7-1-1.3-2-2-2.9
	c-1.2-1.4-2.5-2.6-3.8-3.9c1,0,1.9,0,2.9,0c3,2.9,5,7.3,9.9,7.8c-0.4-2.9-0.8-5.3-1.2-7.8c1,0,1.9,0,2.9,0c2.6,2.8,5.8,1.9,8.9,1.7
	c-0.1-0.6-0.1-1.1-0.2-1.7c1,0,1.9,0,2.9,0c1.1,1.1,3.3,2.3,3.2,3.1c-0.6,4.1,3,4.5,5,6.1c1.3,1,2.4,0.2,2.4-1.5
	c0.1-2.6,0-5.1,0-7.7c5.2,0,10.3,0,15.5,0c0,0.3,0,0.6,0.1,0.9c0.6,2.3,2.8,4.9,3.6,4.2c1.8-1.5,0.9-3.4,0.2-5.2c1,0,1.9,0,2.9,0
	c0,0.8-0.2,1.7,0.1,2.3c0.4,0.9,1.1,1.9,2,2.2c1.4,0.6,1.9-0.8,2.3-1.8c0.3-0.9,0.4-1.8,0.5-2.8c0.6,0,1.3,0,1.9,0
	c-0.3,3.1,0.5,5.9,2.6,8.3c2.9-3.6,3-5.1,0.3-8.3c1.3,0,2.6,0,3.9,0c0.2,0.6,0.2,1.3,0.6,1.8c1.8,2.4,2.9,2.4,4.7,0
	c0.3-0.5,0.3-1.2,0.5-1.8c1,0,1.9,0,2.9,0c0.3,0.7,0.6,0.9,1,0C638.7,0.1,641,0.1,643.2,0.1z M583.1,21.1c0-3.2,0-5.9,0-8.7
	c0-0.5,0-1,0-1.4c-0.6-5.2-2.9-7.2-8.5-6.5c1.9,1.9,3.3,4.1,6.1,4.7c1.5,0.4,1.6,1.4,0.3,2.4c-0.6,0.5-1.3,0.9-2.1,1.2
	c-3.3,1.5-3.3,1.7-1.9,5.1C578.1,20.6,580.5,20.3,583.1,21.1z M601.6,7.8C601.6,7.8,601.6,7.8,601.6,7.8c0.2,0,0.3,0.1,0.5,0
	c1.6-0.4,3.9,1,4.7-1c0.3-0.7-1.8-2.3-2.6-3.6c-0.8-1.3-1.8-2.5-3.5-1.9c-2.1,0.8-4,0.8-6.1,0c-1.2-0.5-1.7,0.5-1.6,1.7
	c0.5,3.1,2.4,4.7,5.6,4.8C599.7,7.8,600.6,7.8,601.6,7.8z M578.1,11.2c-2.9-3.5-5.4-6.8-9.7-8c-0.1,0.4-0.3,0.5-0.2,0.6
	c0.5,2.3,3.1,4.3,1.1,7c0,0.1,0.5,0.8,0.7,0.8C572.5,11.6,575.2,12,578.1,11.2z M603.2,10.4c0.1,1.2,0.2,2.6,0.5,4
	c0.2,1.3,1.2,1.4,2.2,0.9c2.6-1.5,3.9-3.8,4-6.7C607.5,9.1,605.4,9.7,603.2,10.4z M0.1,19.5c1-0.3,2.5-0.3,3.1-0.9
	c4.6-5.3,9.1-10.7,8.6-18.5c0.6,0,1.3,0,1.9,0c0,8.8-4.3,15.4-10.9,20.8c-0.6,0.5-1.8,0.3-2.7,0.5C0.1,20.8,0.1,20.2,0.1,19.5z
	 M345.4,0.1c-1.4,2.4-3.3,4.2-5.8,5.4c-1.2,0.5-1.9,0.2-1.9-1.1c-0.1-1.4,0-2.9,0-4.3c0.6,0,1.3,0,1.9,0c0.1,1.1,0.2,2.2,0.3,4.1
	c1.5-1.8,2.5-2.9,3.5-4.1C344.1,0.1,344.8,0.1,345.4,0.1z M494.8,0.1c-1,1.2-1.9,2.4-3.4,4.2c-0.6-1.8-1-3-1.4-4.2
	C491.6,0.1,493.2,0.1,494.8,0.1z M8.8,0.1C6.6,1.1,4.3,2,2.1,3C2.7,2,3.4,1.1,4,0.1C5.6,0.1,7.2,0.1,8.8,0.1z M328,4.9
	c1-1.6,1.9-3.2,2.9-4.8c0.6,0,1.3,0,1.9,0C331.2,1.7,329.6,3.3,328,4.9z M0.1,3C0.7,3,1.4,3,2,3C1.4,3.7,0.7,4.3,0.1,5
	C0.1,4.3,0.1,3.7,0.1,3z M2,0.1C1.4,0.8,0.8,1.4,0.1,2C-0.3,0.4,0.4-0.3,2,0.1z M180.6,376.5c-0.2,0.6-0.3,1.3-0.6,1.8
	c-1.2,1.9-2.5,3.7-3.8,5.5c-2.8-1.2-0.8-4.2-2.2-5.9c-0.4-0.5-0.2-1.3-0.6-1.8c-3.7-4.8-4.9-10.5-5.9-16.2
	c-1.2-6.7-1.8-13.5,1.7-19.8c1.4-2.5,3.3-4.8,5.5-6.6c3.4-2.8,6.2-2.2,8.9,1.5c1.3,1.8,2.1,2.9,4.5,1.1c1.5-1.2,3.6-0.4,5.2,1.1
	c3.1,2.9,3.8,6.7,2.5,10.2c-2.5,6.9-5.6,13.6-8.5,20.3l0,0c-1.6-1.6-1.7-0.1-2,1l0,0c-1,1.3-2,2.6-2.9,3.9l0,0c-0.3,0.3-0.7,0.7-1,1
	l0,0c-1.3,0.5-1.9,1.5-1.9,2.9c-0.1,0.1-0.3,0.1-0.4,0.2c-0.1,0.1-0.1,0.2-0.1,0.3c0.1-0.2,0.3-0.3,0.4-0.5c0.3,0,0.6,0,0.9,0
	L180.6,376.5z M181.5,335.7c0.1,0.1,0.1,0.3,0.2,0.4c0.1,0.1,0.2,0.1,0.3,0.1C181.8,336,181.6,335.9,181.5,335.7
	c-0.4-0.3-0.7-0.6-1-0.9c0-0.1-0.1-0.3-0.1-0.4c-0.1-0.1-0.2-0.1-0.3-0.1c0.2,0.1,0.3,0.3,0.5,0.4
	C180.9,335.1,181.2,335.4,181.5,335.7z M176.1,377.5c0.7-1.1,1.4-1.9,1.7-2.7c1.4-3.2,4.4-5.3,5.5-8.8c0.6-1.9,3.1-3.2,4.2-5.1
	c3.4-5.6,5.4-11.7,4.6-18.4c-0.2-1.8-1.1-3.1-2.7-3.7c-1.7-0.7-2.1,1-2.8,2c-1.2,1.8-1.9,1.9-3.2,0.3c-1-1.2-1.8-2.7-2.9-3.8
	c-2.9-3.2-5.5-3.2-7.9,0.2c-2.1,3-4,6.2-3.8,10.2c0.1,1.8,0,3.6,0,5.3C168.8,361.8,171.7,369.7,176.1,377.5z M176.5,397.3
	c0.8-1.1,1.6-2.3,2.5-3.4c2.2-2.7,4.4-2.4,6.8,0.3c0.9,1,1.4,2.6,1.5,3.9c0.1,2.5-0.3,5.1-0.5,7.7c-0.1,1-0.3,1.9-0.4,2.9
	c-0.2,8.6-2.1,16.8-5.1,24.8c-0.3,0.8,0,1.8,0,2.7c0,1-0.4,1.6-1.4,1.1c-7.9-3.7-14.1-9.3-16.9-17.6c-1.9-5.8-4.5-11.9-2-18.2
	c0.9-2.4,2.1-4.7,3.5-6.8c2.1-3,4.4-3.5,7.4-1.6C173.7,394.1,175,395.8,176.5,397.3z M183.9,403.5c-0.8-2.4,0.1-4.9-2.1-6.9
	c-1.7-1.5-2.2-1.6-3.2,0.2c-0.7,1.2-1.3,2.4-2,3.7c-1.2-0.8-2.3-1.6-3.5-2.4c-0.3-0.2-0.6-0.3-0.8-0.5c-4.2-2.9-7.1-2.2-9.3,2.3
	c-0.5,1.1-0.8,2.4-0.9,3.7c-0.4,4.5,0.5,8.9,1.7,13.3c1.3,5,4.6,8.7,7.7,12.6c1.7,2.1,3.8,2.9,5.9,3.9c1.1,0.5,1.8-0.1,2-1.3
	c0.5-3.1,1.2-6.3,1.7-9.4C182.1,416.3,183,409.9,183.9,403.5z M182.2,393.9c0.9,2.2,1.6,4,2.4,5.8c0.1,0.3,0.6,0.5,1,0.8
	c0.2-0.4,0.6-0.8,0.6-1.1C185.7,397,184.7,395.1,182.2,393.9z M183.5,372.7c-0.7,1-1.3,1.9-2,2.9c0,0-0.1-0.1-0.1-0.1
	c0-0.6,0.1-1.3,0.1-1.9l0,0c0.3-0.3,0.7-0.7,1-1l0,0c0.3,0,0.6-0.1,0.9-0.1C183.4,372.5,183.5,372.7,183.5,372.7z M186.4,368.7
	c-0.3,0.7-0.6,1.3-0.9,2c0,0-0.1-0.1-0.1-0.1c0-0.6,0.1-1.3,0.1-1.9l0,0C185.7,368.7,186,368.7,186.4,368.7L186.4,368.7z
	 M187.3,367.7c-0.3,0.3-0.6,0.6-1,1l0,0C186.7,368.4,187,368.1,187.3,367.7C187.3,367.7,187.3,367.7,187.3,367.7z M185.4,370.7
	c-0.3,0.3-0.6,0.7-0.9,1c0,0-0.2-0.2-0.2-0.2c0.3-0.3,0.7-0.6,1-0.9C185.3,370.6,185.4,370.7,185.4,370.7z M184.5,371.7
	c-0.3,0.3-0.6,0.6-1,1c0,0-0.2-0.2-0.2-0.2c0.3-0.3,0.6-0.6,1-1C184.3,371.5,184.5,371.7,184.5,371.7z M181.6,375.6
	c-0.3,0.3-0.6,0.6-1,1c0,0-0.1-0.1-0.1-0.1c0.3-0.3,0.6-0.6,1-1C181.4,375.4,181.6,375.6,181.6,375.6z M184.8,351.4
	c-0.4-0.6-1.2-1.2-1.2-1.9c0.1-1.6,0.5-3.1,0.8-4.7c0.3-1.2,1.9-1.7,3.1-1c0.2,0.1,0.5,0.7,0.4,0.7c-0.6,0.5-1.3,1-1.9,1.5
	c0.6,0.4,1.3,0.8,1.9,1.1c-0.2,0.4-0.5,1-0.8,1c-1.6,0.3-1.1,0.6-0.4,1.6C187.7,351.4,186.1,351.1,184.8,351.4z M174.8,361
	c0.2,1.6-0.7,3.4,0.9,4.8c1.1,1-0.6,1.2-0.9,1.3c-0.6,0.1-1.7-0.1-1.8-0.4c-0.7-2.3-1.2-4.7-1.8-7.2c1.5-0.6,1.5,3.3,3.5,1.3
	L174.8,361z M175.6,343.4c0.4-0.5,0.8-1.1,1.2-1.6c0.8,0.7,1.5,1.6,2.8,1c0.1-0.1,0.9,0.5,0.9,0.8c0,1.9,0,3.8-0.1,5.7
	c0,0.3-0.7,0.5-1.1,0.7c-0.1,0-0.5-0.6-0.5-0.7c1.8-3.4-1.1-4.3-3-5.7L175.6,343.4z M179.9,352.3c0.4,0.7,1.1,1.3,1,1.7
	c-0.4,1.4-1,2.8-1.5,4.2c0,0.1-0.6,0.1-0.7,0c-0.5-0.9-1.6-2.1-1.4-2.8C177.6,354.3,178.9,353.5,179.9,352.3z M179.9,361.3
	c1.8,1.7-1.1,4.2,1.2,5.7c-0.5,0.4-1,1.1-1.6,1.3c-0.3,0.1-1.3-0.7-1.3-0.8C178.9,365.4,177.8,362.9,179.9,361.3z M175.8,343.6
	c-0.4,1.5-0.8,3-1.3,4.5c-0.1-0.1-0.3-0.1-0.4-0.2c-0.9-1.9,0.3-3.2,1.4-4.5L175.8,343.6z M174.6,360.9c0.1-0.4,0.3-0.8,0.4-1.3
	c0.2,0.1,0.5,0.4,0.5,0.4c-0.2,0.4-0.5,0.7-0.7,1L174.6,360.9z M169.2,407.2c-0.2,1.2-0.4,2.4-0.6,3.6c-0.2,0-0.4,0-0.6,0
	c-0.1-1.2-0.2-2.5-0.2-3.7c0-0.9-0.1-2.2,0.4-2.7c0.7-0.7,2-0.9,3.1-1.2c0.4-0.1,0.9,0.1,1.2,0.3c0.3,0.3,0.5,0.8,0.6,1.3
	c0.5,1.5,0.9,2.9,1.3,4.4c1.9-1.3,0.6-3.2,1-4.8c0.7-2.7,2.7-1.4,4.4-1.3c-0.3,0.2-0.5,0.4-0.8,0.6c-0.7,0.4-1.3,0.7-2,1.1
	c0.6,0.2,1.3,0.5,1.9,0.7c0.7,0.2,1.3,0.3,0.4,1.1c-0.5,0.5-0.9,1-1.4,1.5c0.8,0.1,1.6,0.3,2.3,0.5c0.1,0,0.2,0.2,0.6,0.5
	c-2.1,0.6-4.1,0.9-6,1.7c-1.7,0.7-2.4,0.5-2.5-1.4C172.6,406.7,169.6,409.1,169.2,407.2z M176.4,413c0.3,0.5,0.7,0.9,0.7,1.3
	c0,0.6-0.4,1.2-0.3,1.8c0,1.7-0.8,1.8-2,1.2c-0.8-0.4-1.6-0.8-2.4-1.2c0.7-0.7,1.3-1.5,2-2.1C174.9,413.6,175.5,413.4,176.4,413z
	 M176.6,426.5c-1.5-2.2-2.5-3.5-3.3-4.9c-0.2-0.3,0.2-1.2,0.5-1.4c1.3-0.8,2.7-1.7,4.4-0.7C176,421.4,176,421.4,176.6,426.5z
	 M177.9,424.5l0.3-0.1l0,0.3L177.9,424.5z"/>
</svg>
