<?xml version="1.0" encoding="utf-8"?>
<!-- Generator: Adobe Illustrator 18.0.0, SVG Export Plug-In . SVG Version: 6.00 Build 0)  -->
<!DOCTYPE svg PUBLIC "-//W3C//DTD SVG 1.1//EN" "http://www.w3.org/Graphics/SVG/1.1/DTD/svg11.dtd">
<svg version="1.1" id="Layer_1" xmlns="http://www.w3.org/2000/svg" xmlns:xlink="http://www.w3.org/1999/xlink" x="0px" y="0px"
	 viewBox="0 0 652.9 572.3" enable-background="new 0 0 652.9 572.3" xml:space="preserve">
<g>
	<g>
		<path d="M151.7,64c0.6,1.5,1.3,2.9,1.8,4.4c1,3.4,2.2,6.7,2.9,10.1c0.3,1.3-0.3,2.9-0.9,4.1c-0.8,1.7-0.4,2.4,1,3.6
			c3.4,2.9,6.6,6.1,9.9,9.3c0.2,0.2,0.5,0.5,0.6,0.8c0.1,0.6,0.4,1.4,0.1,1.8c-0.2,0.4-1.2,0.8-1.6,0.6c-1.9-1-3.4-0.2-5,0.7
			c-2,1.3-4.2,1.4-6.5,1.4c-1.4,0-3.1,0-4.1,0.7c-1.5,1.1-2.4,3-3.5,4.5c-0.2,0.3,0,0.9,0.1,1.3c0.2,0.4,0.6,0.8,0.9,1.1
			c4.7,4.3,4.9,9.9,4.3,15.7c-0.3,2.6-1.2,5-3.3,6.8c-0.9,0.7-1.6,1.6-2.5,2.3c-0.9,0.7-1.5,2.6-3,1.7c-1.6-0.9-0.3-2.3,0.2-3.4
			c1.4-3.8-0.6-10.1-4.1-11.8c-0.7-0.4-2.1,0.2-3,0.6c-1.3,0.5-2.2,2.5-3.8,1.5c-2-1.3-0.3-3.1,0.2-4.3c1.3-3.7-0.7-6.5-2.1-9.4
			c-1.4-3-3.8-5.6-3.8-9.2c0.1-0.1,0.3-0.1,0.4-0.2c0.1-0.1,0.1-0.2,0.1-0.3c-0.2,0.2-0.3,0.3-0.5,0.5c-2.6-0.1-2.9,2.1-3.8,3.8
			c-1.7,3.3-3.3,6.5-4.9,9.8c-0.1,0.1-0.3,0.1-0.4,0.2c-0.1,0.1-0.1,0.2-0.1,0.3c0.2-0.2,0.3-0.3,0.5-0.5c3.6,0.1,7.1-0.1,9.7-3.3
			c0.2-0.3,1.4-0.2,1.6,0c0.3,0.4,0.4,1.5,0.1,1.7c-1.3,1.2-2.6,2.6-4.2,3.1c-2.4,0.8-5,1.2-7.5,1.2c-1.1,0-2.3-1.4-3.2-2.5
			c-0.2-0.3,0.6-1.7,1.2-2.3c1.9-2,4-3.8,4.3-7c-1.5,0.1-2.9,0.3-4.2,0.3c-1.1,0-2.1-0.4-3.2-0.6c0.5-0.9,1-1.8,1.6-2.7
			c0.3-0.4,0.6-0.7,1-1c4.3-3.2,6.1-7.7,6.7-12.8c0.2-1.7,0.7-3.4,1-5.2c0.3-0.6,0.6-1.3,1-1.9c1.7-1.4,3.5-2.7,5.2-4.1
			c0.4-0.4,0.7-0.9,1.1-1.4c-0.6-0.4-1.2-1-1.9-1.1c-2.4-0.4-2.8,0-3.3,2.5c-0.3,1.4-0.7,2.8-1,4.1c-0.3,0.6-0.6,1.3-1,1.9
			c-2.1,1.4-4.2,2.9-6.4,4.2c-1.8,1.1-3.7,0.9-5.6,0c-2.9-1.4-3.3-2.5-1.2-5.1c2.2-2.7,3.2-5.8,4.5-9.7c-2,1.3-3.3,2.2-4.7,3.1
			c-2,1.3-4.3,1.4-6.4,0.4c-3.6-1.7-3.9-3.6-0.7-5.9c3.2-2.3,4.8-5.4,5.9-9c1.1-3.5,2.3-6.9,3.5-10.8c-0.7,0.5-1.2,0.9-1.8,1.2
			c-1,0.5-1.7-0.1-1.4-1c1.2-4,2.3-8,4-11.8c1-2.3,2.9-4.2,4.4-6.2c0.1-0.1,0.3-0.1,0.4-0.2c0.1-0.1,0.1-0.2,0.1-0.3
			c-0.2,0.2-0.3,0.3-0.5,0.5c-2.5,0.3-5.1,0.5-7.6,0.9c-2.6,0.4-4.7-0.3-7-2.3c4.9-3.1,9.4-6,14.5-9.2c-1.2,0-2.1-0.3-2.8,0
			c-5.2,2.4-11,3.2-15.4,7.2c-0.4,0.4-1,1.2-0.9,1.6c0.9,1.9-0.6,2.6-1.7,3.5c-1.6,1.5-1.8,2.5-0.4,4c1.2,1.3,2.5,2.5,4,3.5
			c3,2.1,3.8,4.8,2.8,8.3c-1.2,3.9-1.5,7.9-0.4,11.9c0.4,1.4-0.5,1.7-1.6,1.7c-1.8,0-3.6,0-5.3,0c-1.6,0-2.2,0.6-2.4,2.3
			c-0.3,3.3-1.3,6.3-3.6,8.7c-0.5,0.5-1.1,1.6-0.9,2c1.1,1.9-0.2,3.4-0.3,5.1c-0.2,5.2-7.4,9.8-12.5,9c-0.9-0.2-1.9-0.5-2.6-1
			c-1.1-0.7-1.4-1.7-0.2-2.7c1.8-1.6,3.1-3.5,3.8-6c0.4-1.7,0.2-2.3-1.4-2.8c-0.9-0.2-1.8-0.8-2.5-1.4c-1.5-1.3-1.3-3,0.5-3.3
			c5-0.8,5.6-4,5.2-8.2c-0.2-1.7,0-3.4,0-5.4c-4.1,2.5-6.3,5.5-6.8,9.8c-0.6,5-3.7,9-6.8,12.5c-1.6,1.9-4.6,2.8-7.2,3.5
			c-1.5,0.4-3.3-0.5-5.3-0.8c0.6-0.9,0.8-1.5,1.2-1.7c3.8-2,5-5.7,6.2-9.4c0.6-2,0.7-4.1,1.4-6.1c0.8-2.1,0.6-3.3-1.6-4
			c-1.1-0.3-1-1.1-0.3-1.8c0.5-0.5,0.9-0.9,1.5-1.2c3.7-1.9,6.4-4.8,9.3-7.6c1.6-1.5,3.4-2.8,5.7-4.7c-1.3-0.2-2-0.2-2.7-0.3
			c-2.6-0.4-2.6-0.4-2.4-3.3c0.1-0.8,0-1.6,0.1-2.4c0.4-2.9,0.9-3.2,4.1-4.3c2.1-0.8,5.1-0.2,6.4-3.7c-1.7-1.6-3.7-3.2-5.5-5.1
			c-1.4-1.5-1.4-2.4,0.3-3.5c2.9-2,6.3-2.8,9.6-1.7c2.3,0.8,4,0.3,6-0.6c3.4-1.5,6.8-2.8,10.3-4.2c0.4-0.2,0.8-0.5,1.1-1.3
			C99,17,95.4,17.1,92,17.9c-2.6,0.6-5.4-0.1-7.8,2.1c-1.2,1.1-3.6-1.2-3.1-2.9c0.5-1.8,1.2-3.6,1.9-5.6c-4,1.5-4,1.5-5.1,5.2
			c-0.8,2.4-2.2,4.3-4.4,5.6c-1.4,0.8-2.1,1.7-2.2,3.4c-0.6,8.9-2.6,12-10.5,16.7c-0.5-3.1-0.6-6.1,0.4-9c0.3-0.8,0.2-2.1-0.3-2.7
			c-0.4-0.4-1.7-0.1-2.6,0.1c-1.2,0.3-2.4,0.9-3.6,1.2c-0.5,0.1-1.3-0.3-1.6-0.7c-0.3-0.4-0.2-1.4,0.1-1.8c0.9-1.1,1.9-2.4,3.1-3
			c4.6-2.4,5-6.2,3.7-11.1c-2.3,1.7-4.4,3.1-6.2,4.8c-3.3,3.2-7.1,5.4-11.7,6.3c-0.9,0.2-1.8,0.6-2.8,0.9c-1.4,0.5-2.1,1.3-1.4,2.9
			c1,2.4,1.8,4.8,2.7,7.2c0.3,0.7,0.7,1.6,0.5,2.3c-1.3,4.6-2.8,9.2-4.3,13.8c-0.7,2-1.9,2.2-3.1,0.5c-1.1-1.5-1.8-3.2-2.7-4.9
			c-0.9,7.9-5.1,13.3-12.3,16.5c-0.5,0.2-1.2,0.1-1.8,0.1c0.1-0.6-0.1-1.2,0.2-1.7c1.4-3,2.2-6.1,1.9-9.3c-0.4-3.7,0.7-7,2.5-10.1
			c1-1.8,1.7-3.8,2.5-5.7c0.1-0.1,0.3-0.1,0.4-0.2c0.1-0.1,0.1-0.2,0.1-0.3c-0.2,0.2-0.3,0.3-0.5,0.5c-1.1,0.1-2.4-0.1-3.3,0.4
			C14,42,7.5,41,1,39.8c-0.4-0.1-0.6-0.5-1-0.7c0.3-0.3,0.6-0.8,0.9-1c1-0.4,2.1-1,3.2-1c4.7-0.1,8.1-2.8,11.6-5.4
			c1-0.7,2.2-1.4,3.2-2.2c2.7-2,5.7-2.9,9-2.4c2.8,0.4,4.2-0.9,5.2-3.2c0.5-1.3,1.5-2.5,1.9-3.9c1.2-4.6,4.8-6.7,8.8-7.1
			c3.7-0.4,6.7-1.8,9.8-3.3c1-0.5,2.1-0.7,3.2-0.8c0.5,0,1,0.5,1.6,0.8c-0.4,0.4-0.8,1-1.3,1.1c-5.8,0.9-10.1,3.8-13,8.8
			c-1,1.8-2.4,3.4-4.1,5.8c5.4-1.5,9.6-3.1,13-6.5c1.8-1.8,3.7-3.6,5.5-5.5c2.4-2.6,2.4-3.3,0.3-6.4C57,4.5,58,2.3,58.6,0
			c0.6,0,1.3,0,1.9,0c-0.1,1.2-0.2,2.4-0.3,3.6c1-0.7,2.1-1.3,3-2.1c0.5-0.4,0.8-1,1.1-1.5c0.6,0,1.3,0,1.9,0
			c-1.7,3-1.8,5.7,1.4,7.9c0.6,0.4,0.8,1.4,1.3,2c0.3,0.3,0.8,0.4,1.2,0.6c0.1-0.5,0.5-1.1,0.4-1.5c-1.1-3-2.2-5.9-3.4-8.8
			c1.3,0,2.6,0,3.9,0c-1.3,2.4-0.3,4.6,0.9,6.7c0.4,0.7,1.1,1.9,1.6,1.8c0.8-0.1,1.8-0.8,2.1-1.6C77,4.7,78,2.3,79,0
			c1.3,0,2.6,0,3.9,0c0,1.4,0,2.9,0,4.3c0.3,0.1,0.6,0.2,0.8,0.3c1-1.5,2-3.1,3.1-4.6c1,0,1.9,0,2.9,0c-1.5,2.1-3,4.2-4.9,6.9
			c3.4-0.8,6-1.8,8.6-2c3.4-0.2,5.3-1.7,6-4.9c1,0,1.9,0,2.9,0c0.3,2.7,2.5,3.9,4.3,5.4c1-1.5,2.1-3,3.1-4.5
			c0.2-0.3,0.3-0.6,0.4-0.9c1.6,0,3.2,0,4.8,0c0.4,2.2,0.7,4.4,1.1,6.6c0.2,1.1,0.4,2.3,1,3.2c0.8,1.1,1.9,2.3,3.2,2.7
			c1.8,0.5,2.2-1.4,2.9-2.7c0.4-0.7,0.8-1.4,1.1-2.2c0.9-2.4,0.6-3.4-1.9-4.5c-1.6-0.7-1.6-1.7-1.6-3c1.3,0,2.6,0,3.9,0
			c1,3.4,3.5,6.7,0.7,10.5c-0.1,0.2,0.2,1,0.4,1c0.4,0,1.2-0.1,1.3-0.3c1.1-3.8,4.2-6.9,4.4-11.1c1.3,0,2.6,0,3.9,0
			c-0.8,1.5-1.5,3.1-2.3,4.6c-0.7,1.4-1.5,2.8-2.1,4.2c-0.7,1.8,0.6,3.6,2.4,3.6c1.9,0,9-6.1,8.4-7.7c-0.8-2.3,0.7-3.2,1.4-4.7
			c0.6,0,1.3,0,1.9,0c0.3,0.8,0.6,0.8,1,0c1.3,0,2.6,0,3.9,0c-0.6,1.6-1.3,3.2-1.9,4.9c-0.3,0.3-0.6,0.6-1,1
			c-0.1,0.1-0.3,0.1-0.4,0.2c-0.1,0.1-0.1,0.2-0.1,0.3c0.2-0.1,0.3-0.3,0.5-0.4c0.3-0.3,0.6-0.6,1-1c3.2-1,6.4-2.1,8.7-4.8
			c1.3,0,2.6,0,3.9,0c0,2.6-2.4,2.7-3.8,3.8c-2.9,2.2-5,4.9-6.1,8.3c-0.6,1.7-1.6,3.7,0.1,4.9c1.8,1.3,3.8-0.1,5.2-1.3
			c4.2-3.6,8.9-7,8.9-13.4c0-0.8,0.4-1.5,0.6-2.3c2.6,0,5.2,0,7.8,0c2.1,2.5,2.8,2.5,3.9,0c1.6,0,3.2,0,4.9,0
			c-2.3,3.7-2.6,6.6-1.1,12.2c3.5-3.5,7.1-6.8,7-12.2c1.6,0,3.2,0,4.9,0c0,1.8-0.3,3.8,1.5,4.8c1.2,0.6,2.7,0.9,4,0.8
			c1.6-0.1,1.1-1.6,1.2-2.7c0-1,0-1.9,0-2.9c1,0,1.9,0,2.9,0c0,0.2,0,0.3,0,0.5c-0.1,1-0.2,2.1-0.2,3.1c0.9-0.6,1.9-1.1,2.6-1.8
			c0.4-0.4,0.4-1.2,0.6-1.8c1,0,1.9,0,2.9,0c0.8,4.1,4.3,7.6,2.4,12.5c2.7-1.7,5.2-3.3,7.3-5.4c1.9-1.9,2.6-4.4,0.9-7
			c1,0,1.9,0,2.9,0c0.1,1.4,0.6,2.4,1.9,2.9c0.1,0.4,0.2,0.8,0.3,1.2c0.2-0.1,0.3-0.2,0.5-0.3c-0.3-0.3-0.5-0.6-0.8-0.9
			c0-1,0-1.9,0-2.9c2.6,0,5.2,0,7.8,0c-1,0.7-2.1,1.3-3.1,2.2c-0.3,0.3-0.4,1.4-0.2,1.6c1.8,1.3,3.5,3.1,5.9,2.2
			c2.9-1.1,6-1.2,9-1.2c1.6,0,2-0.7,1.2-2.1c-0.5-0.8-0.8-1.7-1.3-2.6c1,0,1.9,0,2.9,0c0.6,1.1,1.3,1,1.9,0c2.6,0,5.2,0,7.8,0
			c-2.4,6.3-5.3,12.3-6.9,19c-1.3,5.6-3.5,11-5,16.5c-2,7.9-3.7,15.9-5.5,23.8c-0.6,2.5-1.2,5-1.9,7.4c-3.5,12-6.8,24.1-10.6,35.9
			c-3,9.5-6.8,18.7-10.1,28.1c-3.2,8.9-5.8,18-7.4,27.3c-2.1,12.7-6.1,24.9-10,37.1c-2.8,8.7-6.6,17.1-10.2,25.5
			c-5.1,12-9.8,24.1-13.6,36.6c-2.4,8-4.6,16-6.9,24c-1.6,5.8-3.4,11.6-4.8,17.5c-1.2,5.4-2.1,11-2.9,16.5
			c-1.6,11.4-3.6,22.8-7.1,33.8c-1.8,5.7-4.2,11.2-6.7,16.5c-5.2,11.1-10.8,22-16,33.1c-3.9,8.4-7.9,16.9-10.4,25.9
			c-2.1,7.4-5.4,14.4-8.5,21.5c-4.1,9.3-8.3,18.6-9.2,28.7c-0.7,7.2-3.6,13.6-4.8,20.5c-0.7,4.3-1,8.5-2.2,12.8
			c-2.3,8.5-5.6,16.4-10.2,23.9c-0.8,1.4-1.9,2.5,0,4.1c0.7,0.6-0.2,2.2-1.3,1.8c-2.5-0.8-3.5,0.5-4.5,2.4c-0.7,1.3-1.4,2.6-2.4,3.6
			c-0.6,0.6-1.9,1-2.5,0.7c-1.2-0.7-0.3-1.6,0.3-2.3c0.9-1.1,1.9-2.2,2.7-3.4c0.3-0.4,0.3-0.9,0.5-1.3c-1.7-1.4-3.4-1.5-5.5-1
			c-3.3,0.8-6.6,1-9.9,1.6c-1.4,0.2-2.8,0.7-4.1,1.2c-2.9,1.2-5.8,1.6-8.9,0.6c-2.4-0.8-2.9-2.4-1.2-4.4c2.1-2.6,4.9-4.2,8-5.2
			c1.8-0.6,4-0.7,3.1-3.6c3.8-4.5,6.3-10.2,11.8-13.2c4.7-2.6,9.4-5.1,14.1-7.5c3-1.6,5.8-3.5,7.7-6.4c0.6-0.9,1.3-1.9,1.6-3
			c1.6-5.9,3.1-11.8,4.6-17.7c0.6-2.6,1.3-5.3,1.4-8c0.1-4,1.5-7.6,2.9-11.1c4.8-11.9,10.1-23.6,14.2-35.7c2.9-8.4,6-16.6,10-24.5
			c2.6-5,5.2-9.9,7.5-15c4.9-10.8,10.1-21.6,14.3-32.7c3.3-9,5.9-18.3,6.6-28c0.3-3.3,1.3-6.6,1.8-9.9c1-5.5,1.9-11,2.9-16.5
			c0.6-3,1.3-6,2.1-8.9c4.7-15.4,9.2-30.8,14.3-46c2.7-8.2,6.4-16.1,9.6-24.2c2.8-7.2,5.6-14.4,8.4-21.6
			c4.7-12.2,7.7-24.8,10.8-37.4c1.2-4.7,1.5-9.5,2.9-14.1c2.7-8.7,6.1-17.3,9-25.9c3.4-10.2,6.7-20.4,9.9-30.7
			c2.5-7.9,4.2-16.1,7.1-23.9c2-5.3,2.6-11.1,3.9-17.1c-2.2,1.1-3.8,2-5.5,2.7c-0.8,0.3-2.3,0.4-2.5,0c-0.5-0.8-0.8-2.2-0.4-3
			c1.6-2.7,1.4-5.6,1.3-8.5c0-0.3-0.2-0.5-0.5-1.1c-2.9,2.9-5.8,5.7-8.6,8.5c-0.9,0.9-1.8,1.9-2.8,2.7c-0.5,0.4-1.3,0.4-2,0.6
			c0-0.7-0.2-1.5-0.1-2.2c0.4-2.3,1.5-4.7,1.4-7c-0.1-3.1-1.2-6.2-1.8-9.5c-2,1.3-3.6,2.4-5.2,3.4c-2.6,1.7-3.3,4.7-4.3,7.3
			c-0.6,1.9-0.5,4.1-3.5,3.1c-0.3-0.1-0.9,0.8-1.3,1.2c-1.4,1.3-2.6,2.8-4.2,3.8c-3.2,2.1-6.6,4-10,5.9c-1,0.5-2.1,1-3.2,1.1
			c-0.9,0.1-1.8-0.2-2.8-0.4c0.4-0.7,0.8-1.5,1.3-2.2c0.6-0.9,1.6-1.8,1.8-2.8c1.6-5.9,5.2-10.6,8.4-15.6c0.2-0.3,0.4-0.5,0.6-0.8
			c0.7-0.7,0.7-1.5-0.2-1.9c-0.4-0.2-1.3,0.1-1.5,0.5c-2.2,3.5-5.5,5.4-9.1,6.9c-0.9,0.4-1.8,0.9-2.7,0.8c-0.8-0.1-1.6-0.7-2.4-1.2
			c0.4-0.6,0.7-1.6,1.2-1.8c3.5-1.6,4.2-5.1,5.7-8.1c0.4-0.8,0.2-1.8,0.3-2.7c-3.1,0.5-5.9,1-8.7,1.4c-0.6,0.1-1.3,0.4-1.8,0.2
			c-0.7-0.3-1.3-0.8-1.7-1.4c-0.1-0.2,0.5-1.1,1-1.5c1.5-1,3.2-1.6,4.5-2.8c2-1.9,3.6-4.1,5.4-6.2c2.3-2.8,3.9-6.2,7.1-8.3
			c2.2-1.4,2-1.7,0.1-4c-0.5-0.6-0.9-1.2-1.5-2c-1.6,4.3-4.1,7.6-7.4,10.2c-2.5,2-5.2,3.8-7.8,5.5c-0.5,0.3-1.6,0.3-2.3,0
			c-1.9-0.9-3.7-1.9-5.6-2.9c-1.5,1.4-1.4,3.4-1.3,5.3c0.2,3.1-1.2,5.7-2.9,8c-0.9,1.3-3.4,2.3-3.3,3.2c0.3,4.1-2.7,7.6-1.6,11.7
			c0.3,1.1,0.2,2.3,0.5,3.3c1.7,5,1.5,10.2,1.4,15.3c0,2.8-0.6,3.4-3.5,2.9C154.5,65.7,153.2,64.7,151.7,64
			c-0.1-0.1-0.1-0.3-0.2-0.4c-0.1-0.1-0.2-0.1-0.3-0.1C151.4,63.7,151.6,63.9,151.7,64z M196.3,19.4c0.3-0.3,0.6-0.6,1-1
			c6.6-2.5,8.5-7.9,9-14.4c-3.3,2.3-7,8.3-9,14.4C197,18.8,196.7,19.1,196.3,19.4c-0.1,0.1-0.3,0.1-0.4,0.2
			c-0.1,0.1-0.1,0.2-0.1,0.3C196,19.7,196.2,19.6,196.3,19.4z M145.9,18.4c0.3-0.3,0.5-0.6,0.8-1c-0.2-0.1-0.3-0.2-0.5-0.3
			C146.1,17.6,146,18,145.9,18.4c-0.1,0-0.3,0.1-0.4,0.2c-0.1,0.1-0.1,0.2-0.1,0.3C145.6,18.8,145.8,18.6,145.9,18.4z M241.9,31
			c-0.8,0.5-1.9,0.7-1.2,2c0.1,0.1,0.2,0.2,0.4,0.3C241.4,32.6,241.7,31.8,241.9,31c0.1-0.1,0.3-0.1,0.4-0.2
			c0.1-0.1,0.1-0.2,0.1-0.3C242.3,30.7,242.1,30.9,241.9,31z M85.8,47.5c0.4-0.2,0.9-0.4,1.1-0.8c0.3-0.4,0.3-1,0.4-1.6
			c-0.4,0.3-1,0.6-1.2,1C85.8,46.5,85.8,47.1,85.8,47.5c-0.3,0.7-0.6,1.3-1,1.9c-0.6,0.3-1.1,0.6-1.7,0.9c-3,1.9-4.1,4.4-3,7.7
			c0.3,0.8,1.5,1.3,2.3,2c0.5-0.7,1.2-1.4,1.3-2.1c0.5-2.8,0.7-5.6,1-8.4C85.1,48.8,85.4,48.2,85.8,47.5z M135.2,55.3
			c-1.4,0-2.9-0.1-2.9,1.9c-0.1,0.1-0.3,0.1-0.4,0.2c-0.1,0.1-0.1,0.2-0.1,0.3c0.2-0.2,0.3-0.3,0.5-0.5
			C133.7,57.2,134.7,56.6,135.2,55.3c0.4-0.1,0.8-0.2,1.2-0.3c-0.1-0.2-0.2-0.3-0.3-0.5C135.9,54.8,135.6,55,135.2,55.3z M104.2,7.8
			c0.1,0.1,0.1,0.3,0.2,0.4c0.1,0.1,0.2,0.1,0.3,0.1C104.5,8.1,104.4,7.9,104.2,7.8c-0.2-2-1.3-3.2-3.1-3.7c-0.6-0.1-1.4,0.5-2,0.8
			c0.4,0.6,0.6,1.4,1.1,1.6C101.4,7.1,102.8,7.4,104.2,7.8z M114.9,11.6c0.1,0.1,0.1,0.3,0.2,0.4c0.1,0.1,0.2,0.1,0.3,0.1
			C115.2,12,115,11.8,114.9,11.6c-0.3-2-0.7-4-1.1-6c-0.2-0.8-0.4-1.5-0.8-2.2c-0.2-0.4-0.6-0.7-0.8-1.1c-0.4,0.4-1,0.7-1.3,1.1
			c-0.4,0.5-0.6,1.1-0.8,1.7c-1.6,4.3-1.4,4.5,3,5.7C113.7,11,114.3,11.4,114.9,11.6z M196.3,23.3c-1.9,0.3-3.7,0.6-5.6,1.1
			c-0.7,0.2-1.7,0.5-1.9,1c-1.3,3.9-2.5,7.9-3.7,11.9c3.7-1.4,5.9-4.4,7.9-7.6C194.3,27.6,195.3,25.4,196.3,23.3
			c2.7,0.4,2.7,0.4,3.1-3.4C198.1,21.3,197.2,22.3,196.3,23.3z M88.7,34c-0.9,0.2-1.9,0.2-2.8,0.5c-3.9,1.4-7.7,2.9-11.5,4.5
			c-1.7,0.7-2,2.3-2,4c0,1.2,0.7,1.7,1.8,1.5C79.5,43.7,85.9,39.1,88.7,34c0.1-0.1,0.3-0.1,0.4-0.2c0.1-0.1,0.1-0.2,0.1-0.3
			C89,33.6,88.8,33.8,88.7,34z M117.8,100.9c2-1.2,4-2.6,6.1-3.7c2.8-1.4,4-3.9,5.3-6.6c1.2-2.4,0.1-4.3-0.6-6.4
			c-0.5-1.3,0-3.4-1.9-3.3c-0.9,0-1.8,2-2.4,3.2c-0.5,1-0.4,2.2-0.7,3.2c-0.9,3-1.8,6.1-2.9,9.1C120,98.1,118.8,99.4,117.8,100.9
			c-0.1,0.1-0.3,0.1-0.4,0.2c-0.1,0.1-0.1,0.2-0.1,0.3C117.5,101.2,117.6,101,117.8,100.9z M123.6,43.7c0.4-3.4,3-6.5,1.4-10.6
			C122.7,36.6,121.3,39.9,123.6,43.7c0.1,1.1-0.1,2.3,0.3,3.3c1.8,4.7,2.2,9.3,0.6,14.1c-0.1,0.1-0.3,0.1-0.4,0.2
			c-0.1,0.1-0.1,0.2-0.1,0.3c0.2-0.2,0.3-0.3,0.5-0.5c0.5-0.1,1.1,0,1.4-0.3c5-4.1,6.7-11.6,4.7-17.4c-0.4-1.3-1.1-1.7-2.6-1
			C126.7,43,125.1,43.2,123.6,43.7z M28.5,37.8c-4.1,3.6-6.5,8.3-7.6,13.5c-0.7,3.4-0.1,7-0.1,10.7c4.9-3.2,7.3-7.6,7.6-13.2
			c0.1-1.8,0.8-4,0.2-5.5C27.7,41.3,28.2,39.7,28.5,37.8c0.1-0.1,0.3-0.1,0.4-0.2c0.1-0.1,0.1-0.2,0.1-0.3
			C28.8,37.5,28.7,37.7,28.5,37.8z M155.6,37.8c-3.3,0.6-4,3.2-4.9,5.9c-1.4,4.2-0.2,8.3,0.3,12.3c0.3,2.2,2.1,4.2,3.4,6.2
			c0.3,0.5,1.4,0.6,2.1,0.5c0.3,0,0.8-1,0.8-1.5c0.1-1.6,0.3-3.3-0.1-4.8C155.8,50.3,155.3,44.1,155.6,37.8c0.1-0.1,0.3-0.1,0.4-0.2
			c0.1-0.1,0.1-0.2,0.1-0.3C155.9,37.5,155.8,37.7,155.6,37.8z M139.1,101.9c-0.1-0.4-0.2-0.8-0.3-1.3c-0.2,0.1-0.3,0.2-0.5,0.3
			C138.6,101.2,138.9,101.5,139.1,101.9c0,0.3,0,0.6,0,1c0.7,4.2,1.8,8.5,0.2,12.8c-0.2,0.5,0.3,1.6,0.8,2.1
			c3.3,3.3,5.5,7.1,6.2,12.1c4.9-6.3,4.2-13.4,0.5-17.6c-1.4-1.7-3.7-2.7-5-4.4C140.6,106.1,140,103.8,139.1,101.9z M93.3,503.8
			c-2.5,1.7-4.6,3.3-6.9,4.6c-2.5,1.4-5.3,2.4-7.9,3.6c-7,3.2-12.8,7.5-15.8,15.2c4.7-2.4,9.1-4.8,14.4-4.5c2,0.1,4.2-0.4,6-1.2
			c2.1-0.9,4.9-2.1,5.8-3.9C91.2,513.4,93,508.9,93.3,503.8z M86.7,523.7c-0.5-0.1-0.8-0.3-1-0.3c-3.1,0.7-6.3,2.2-9.3,1.9
			c-3.9-0.4-6.8,1.4-9.9,2.8c-3.7,1.6-7.3,3.3-10.9,5.1c-1.7,0.8-3.3,1.9-4.9,3c-0.3,0.2-0.5,0.9-0.4,1.2c0.1,0.3,0.7,0.8,1,0.7
			c1.9-0.1,3.8-0.2,5.7-0.5c5.6-1,11.3-2.2,16.9-3.2c0.7-0.1,1.6,0.2,2.3,0.5c2.3,0.7,4.2-0.2,5.4-2.1C83.4,530,85,526.8,86.7,523.7
			z M153.6,23.3c0-0.6,0-1.1,0-1.6c-0.1-2.2-0.6-2.5-2.6-1.4c-1.3,0.7-2,1.5-2.1,2.9c-0.3,3.5-0.6,7-1,10.5
			c-0.1,1.1-0.1,2.8-0.8,3.1c-3,1.4-6.1,2.7-9.3,3.5c-1.4,0.4-3.5-0.9-4.6-0.2c-2,1.3,0.7,3.1,0.2,4.8c-0.1,0.4,0.1,1,0.1,1.4
			c0,1.7,0.1,3.4,0.1,5.1c1.8,0,3.6-0.1,5.4-0.1c0.5,0,0.9,0.3,1.4,0.5c1.1,0.4,1.6-0.2,1.5-1.1c-0.1-3.7,2.1-6.6,4.4-8.9
			C151.6,36.7,152.8,30.1,153.6,23.3z M221.1,44.2c4.6-3.4,7.9-7.7,9.6-13.1c0.9-3,1.1-6-0.4-8.9c-0.8-1.5-1.2-3.9-3.3-3.6
			c-1.2,0.2-2.2,2-3.3,3.1c-0.5,0.6-0.8,1.4-1.3,2c-2.4,2.6-3,5.7-2.6,9C220.1,36.5,220.6,40.3,221.1,44.2z M100,46.6
			c0.1,0,0.2,0,0.2,0c0-0.5,0.1-1,0-1.4c-0.3-1.8-5.2-6.7-7-6.8c-0.4,0-1,0.4-1.1,0.7c-2.2,5.5-4.3,11-1.6,17.1
			c1.4,3.2,5.4,4.7,8.1,2.7c0.3-0.2,0.6-0.8,0.6-1.2C99.5,54,99.7,50.3,100,46.6z M109,13c-0.4-0.5-0.5-0.7-0.8-0.8
			c-0.3-0.1-0.7,0.1-0.9,0c-4.5-2.3-8.7-5.8-14.3-3.5c-0.4,0.2-1.2-0.4-1.8-0.5C88.3,7.5,87,8,85.8,10.8C85,12.7,84.6,14.8,84,17
			c4.3-2.2,8.6-0.7,12.5-1.6C100.6,14.4,105.1,15.4,109,13z M144.1,104.9c1.2-1.8,2.3-3.2,3.1-4.8c1-1.9,1.2-4.1,0-6
			c-1.2-1.9-2.7-3.5-4.2-5.2c-0.2-0.3-1.3-0.2-1.5,0.1c-0.4,0.4-0.4,1.2-0.7,1.7c-0.3,0.5-0.9,0.8-1.4,1.2c-0.4-0.6-0.9-1.2-1.1-1.8
			c-1-2.5-1.9-5.1-3-7.5c-0.2-0.4-1-0.8-1.4-0.7c-1.6,0.4-2.5,2.4-1.7,3.8c1,1.6,2.3,3.1,3.3,4.7C138.2,95,140.9,99.7,144.1,104.9z
			 M80.6,4.3c-0.5,0.3-0.9,0.4-1,0.6c-0.5,0.8-0.9,1.7-1.4,2.5c-1.5,2.4-2.4,5.5-6.4,4.4c-0.6-0.2-1.8,1.1-2.4,1.9
			c-3.6,4.3-7.1,8.7-10.7,13c-0.5,0.6-1,1.2-1.5,1.9c5.3-2.1,9.9-4.9,14.7-7.4C74,20,75,18.4,75.4,16c0.3-1.8,0.7-4,2.7-4.9
			C81.7,9.7,81,7.1,80.6,4.3z M169.2,1.6c-0.8,0.7-1.8,1.1-2.1,1.9c-0.7,1.4-1.3,2.9-1.6,4.5c-0.6,2.9,3.3,8.1,6.2,8.5
			c0.6,0.1,1.3,0,1.8-0.3c2.2-1.3,3.5-3.3,3.9-5.8c0.6-3.8-4.6-3.5-4.9-6.9C172.5,2.8,170.5,2.3,169.2,1.6z M187.4,53.5
			c4.7-3.3,9.6-4.4,13-8.4c1.7-2.1,1.8-3.7,1.1-6.1c-0.6-2.1-2.2-2.1-3.6-2.7c-1.4-0.5-1.9,0.7-2.5,1.7c-0.5,0.8-1.2,1.5-1.8,2.3
			C190.6,43.9,188.8,48.1,187.4,53.5z M75.2,74.5c3.1,1.4,6.5,0.6,9.6-0.9c3-1.5,4.4-4.4,5.1-7.7c0.4-1.9,1.1-3.6,0.3-5.6
			c-1.1-2.4-2.1-4.8-3.3-7.6c-0.4,2.4-0.8,4.6-1,6.7c-0.2,2.9-0.9,5.7-2.9,7.8C80.6,69.7,77.9,72,75.2,74.5z M154.1,97.9
			c0,0.1,0.1,0.2,0.1,0.4c1.8-0.5,3.7-0.7,5.5-1.4c3-1.3,3-1.4,0.5-3.9c-0.5-0.6-0.9-1.4-1.5-1.9c-3.3-2.9-7.1-5-11.7-4.6
			c-0.6,0-1.2,0.4-1.7,0.6c0.2,0.6,0.3,1.2,0.6,1.7c1.3,2.9,5.5,4.3,4.5,8.4c0,0.2,0.5,0.8,0.8,0.8C152.2,98,153.1,97.9,154.1,97.9z
			 M34.3,50.9c0.3,0,0.6-0.1,0.9-0.1c0.7-2.4,0.8-5.1,2.1-7.2c2.2-3.5,1.5-6.6-0.2-9.9c-1.1-2-2.1-4.1-3.2-6.1
			c-1,3.8-2,7.3-2.9,10.8c-0.3,1.1-0.8,2.3-0.4,3.2C31.7,44.9,33.1,47.9,34.3,50.9z M147.1,44c-0.2,1-0.4,1.9-0.6,2.7
			c-0.2,0.7-0.1,1.7-0.6,2c-2,1.3-2.3,3.1-2.4,5.3c-0.1,3.3-0.7,6.6-1,10c-0.1,1.5,0.1,3,0.2,4.5c1.2-0.9,2.6-1.7,3.7-2.7
			c1-1,1.8-2.2,2.5-3.5c0.4-0.8,0.9-1.8,0.7-2.7C148.9,54.6,148,49.5,147.1,44z M154.7,32c3.6-2.1,6.7-3.4,7.6-7.1
			c0.9-3.9,2.1-7.7,0.7-11.6c-3.9,1.2-6.2,3.9-7.1,7.1C154.9,23.8,155.1,27.6,154.7,32z M133.3,61.9c-2.7,4.5-2.5,8.6-0.5,12.5
			c1.8,3.7,4.3,7,7,11.1c0.1-1.6,0.4-2.6,0.3-3.4c-0.4-3.3,1.5-7.2-2.4-9.6c-0.2-0.1-0.3-1-0.1-1.3c0.9-1.4,0.1-2.5-0.5-3.6
			C135.9,65.8,134.7,64.1,133.3,61.9z M179.5,26.7c0.1,0.2,0.2,0.3,0.3,0.5c1.8-0.9,3.6-1.7,5.4-2.7c5.2-2.9,9.9-6.4,12.3-12.2
			c0.4-1.1,1.2-2.2-0.1-2.9c-0.8-0.4-2.1-0.2-3,0.1c-0.8,0.3-1.5,1.2-2.1,1.9C187.9,16.5,183.7,21.6,179.5,26.7z M62.3,60.9
			c4.7,0.9,5.2,0.9,8.3-0.4c2.8-1.2,4.9-2.9,6.4-5.5c1.1-2.1,2.6-4,3.9-6c0.2-0.4,0.5-1,0.4-1.2c-0.4-0.4-1-0.9-1.5-0.9
			c-0.7,0-1.6,0.4-2.1,0.8c-2.9,2.5-5.7,5.1-8.6,7.6C66.8,57.1,64.6,58.9,62.3,60.9z M238.1,29.9c0.9-0.5,1.1-0.6,1.2-0.7
			c1.7-1.9,3.3-3.8,3.6-6.5c0.3-2.8-0.7-5-2.8-6.7c-0.4-0.3-0.3-1.1-0.5-1.7c-0.3-0.9-0.6-1.8-1.1-2.6c-0.3-0.4-1.1-0.8-1.6-0.7
			c-0.5,0.1-1.2,0.7-1.3,1.2c-0.4,2-1.2,4.1-0.8,6C235.5,22.1,236.9,25.9,238.1,29.9z M135.9,32.4c0.5,1.4,0.5,3.5,1.5,4.1
			c1.1,0.6,3.4,0.5,4.5-0.3c1.4-1.1,2.2-3,2.9-4.7c0.4-1,0-2.3,0.3-3.3c0.4-1.7,1.7-3.7-0.1-4.9c-1.6-1-2.9,1.2-4.4,1.9
			C137.6,26.4,135.6,28.6,135.9,32.4z M133.3,92.7c-1.1,2-1.6,3.4-2.6,4.4c-2.3,2.3-1.8,4.5-0.2,6.9c2.6,3.9,4.1,8.2,5.2,13.1
			C139.3,108.5,136.1,101,133.3,92.7z M58.6,80.9c6.6-2,11.5-10.2,10.1-17.1c-4.3-0.7-6.1,1.6-6.9,5.4
			C60.9,73.2,59.7,77.2,58.6,80.9z M114,57.5c2.9-2.1,4.8-3.9,7-5c1.6-0.8,1.8-1.6,1.5-3c-0.7-3.1-1.5-6.1-2.4-9.4
			c-1.7,1.7-3.5,3.4-5.1,5.1c-0.5,0.5-0.9,1.4-1,2.1C113.9,50.4,114,53.6,114,57.5z M111.4,83.2c5.2,0.3,8.3-1.5,10-5.3
			c1.9-4.1,1.4-5.3-3.8-10.4c-0.8,2.6-1.5,5.2-2.5,7.7C114.1,77.8,112.8,80.3,111.4,83.2z M9.5,38.2c8.3,1.5,15.5-1.8,19.4-8.8
			c-3-0.7-5.8-0.4-8.3,1.3C16.9,33.1,13.3,35.6,9.5,38.2z M235.2,25.9c-0.2,0-0.4,0-0.5,0c-0.6,1.9-1.2,3.9-1.7,5.8
			c-0.2,0.8-0.6,1.6-0.4,2.3c1.4,4.7,0.7,9.3,0.2,14.1c3.3-0.7,4.4-3.4,5.9-5.6c1.8-2.8,0.7-5.8,0.1-9.1c-0.6,0.4-1.1,0.9-1.6,1
			c-0.7,0.2-1.5,0.2-2.2,0.3c0-0.7,0-1.4,0-2.2C234.9,30.3,235,28.1,235.2,25.9z M211.3,31.4c5.7-2.5,8-6.2,7.3-11.9
			c-0.2-2.1-1.3-2.7-2.8-1.4c-1.5,1.2-2.7,2.8-4.2,4c-2.2,1.8-2.9,3.6-1.2,6.1C211,29.1,211,30.3,211.3,31.4z M118,15
			c-4.9-0.8-8.5-0.5-11.6,2.6c-1.3,1.3-3.3,2-5.1,2.7c-3.2,1.4-6.6,2.6-9.8,3.9c-0.1,0.1-0.4,0-0.5,0.1c-0.3,0.4-0.6,0.9-0.9,1.3
			c0.4,0.1,0.9,0.5,1.3,0.4c4-1.2,7.8-2.9,11.9-3.8c4.2-0.9,7.6-3.3,11.4-4.8C115.7,17,116.5,16.1,118,15z M205.6,40
			c0.9-2.3,1.8-4.5,2.6-6.7c0.3-1,0.9-2.4,0.5-3.2c-1.3-2.9-2.5-6.1-5.2-8.6c-0.4,2.6-1,4.8-1.1,7c-0.1,2.2,0.7,4.4,0.6,6.6
			C203,37.3,203.7,38.9,205.6,40z M107.2,28.9c0.1,0.2,0.2,0.5,0.3,0.7c1.3-0.2,2.7-0.5,4-0.5c6.1-0.1,9.7-4.3,13.6-8.1
			c0.3-0.3,0.5-1.5,0.2-1.7c-0.5-0.4-1.4-0.6-2.1-0.5c-0.8,0.1-1.7,0.5-2.1,1c-2.8,3.3-7,4.5-10.3,7
			C109.6,27.6,108.4,28.2,107.2,28.9z M245.7,19.2c1.4-3.9,2.7-7.3,4-10.7c0.6-1.5,1.4-2.9,1.8-4.5c0.2-0.8-0.2-1.8-0.4-2.7
			c-0.8,0.4-1.8,0.7-2.3,1.3c-0.5,0.7-0.7,1.7-0.7,2.6c0.1,2.6,0,2.8-2.2,2.4c-0.8-0.1-1.6-0.4-2.5-0.6
			C242.6,11.6,242.5,15.6,245.7,19.2z M226.8,12.2c-0.7-1.2-1.1-2.6-2-3.6c-0.9-1-2.3-2.4-3.2-2.3c-1,0.2-2,1.9-2.6,3.1
			c-0.3,0.5,0,1.5,0.2,2.2c0.3,1.2,0.9,2.4,1.3,3.6c0.5,1.3,1,2.5,1.4,3.8c1.2-1,2.6-1.9,3.5-3.1C226.1,15,226.3,13.6,226.8,12.2z
			 M111.4,56.7c-1.7,5-3,9.9-7.4,13.2c-0.9,0.7-0.4,2.4,0.8,2.6c0.9,0.1,1.9-0.1,2.7-0.4c2.7-1.1,4.4-3.2,5.3-5.9
			C113.7,62.9,113.8,59.7,111.4,56.7z M82,24.2c-1,0.1-1.6,0.1-2.2,0.3c-2.7,0.7-3,1.8-1.1,3.8c1.2,1.3,2.4,2.5,3.8,3.7
			c0.5,0.4,1.5,0.7,2.1,0.5c1.7-0.5,3.3-1.2,4.9-2c0.8-0.4,1.2-1.5,0.1-1.8c-2.2-0.7-3.9-1.9-5.2-3.9C83.9,24.3,82.6,24.4,82,24.2z
			 M85.7,79.4c0.2-2.2-0.5-2.9-2.7-2.7c-1.2,0.2-2.5,0.6-3.7,1c-0.3,0.1-0.7,0.6-0.7,0.9c0.3,2.8-1,4.9-2.8,6.7
			c-0.3,0.3-0.5,0.9-0.3,1.3c0.1,0.3,0.8,0.6,1.2,0.6C80.3,87.3,85.4,82.9,85.7,79.4z M144.3,71.7c4.3,1.9,6.4,5.8,9.1,10.2
			c0.9-6.5-0.6-11.3-3.9-15.7C147.8,68,146.2,69.6,144.3,71.7z M206.5,13.1c-0.3,0.5-0.6,0.9-0.8,1.3c-1.7,2.6-1.4,5,1,7
			c0.3,0.3,1.3,0.4,1.6,0.1c2.9-2.2,5.8-4.5,8.6-6.8c0.4-0.3,0.4-1.6,0-2c-0.3-0.4-1.5-0.7-2-0.4c-1.5,0.9-2.9,2-4.2,3.1
			c-1.2,1.1-2,0.6-2.8-0.4C207.4,14.4,207,13.8,206.5,13.1z M112.8,43.6c6-4,9.1-9.5,12.5-14.7c0.3-0.5,0-1.4-0.1-2.8
			c-2.8,2.8-5.2,5.3-7.7,7.5C114.8,36.1,113.6,39.3,112.8,43.6z M143.3,83.4c1.9,0.3,3.7,0.6,5.5,0.8c1.1,0.2,2.2-0.4,1.7-1.5
			c-1.4-3.4-2.8-6.8-6.5-8.4c-1.3-0.6-2.1,0-1.9,1.5C142.5,78.3,142.9,80.8,143.3,83.4z M133.5,27.3c8-4.2,12-10.1,12.4-18.3
			c-2.2,2.7-4.2,5.6-6.1,8.5C137.7,20.5,135.8,23.6,133.5,27.3z M121,66.3c1.4,2.5,3.3,3.8,5.7,4.4c1.3,0.3,2.5,0.1,2.7-1.8
			c0.2-2,0.6-4.1,0.8-6.1c0-0.4-0.2-1-0.5-1.2c-0.3-0.2-0.9,0-1.3,0.2c-0.9,0.6-2.2,1.1-2.6,2C124.8,65.8,123.1,66.1,121,66.3z
			 M69.2,25.7c-4.4,0.9-6.5,3.2-5.7,7.5c0.1,0.9-0.4,1.9-0.5,2.8c-0.1,0.4,0.1,0.9,0.1,1.3c0.4,0,1,0.1,1.3-0.2
			C67.2,34,69.4,30.4,69.2,25.7z M127.9,37.1c0,0.2-0.3,0.8-0.2,1.4c0.1,0.4,0.9,1,1.2,0.9c3.4-0.8,5.9-4.6,5.3-7.9
			c-0.2-1.3-1.3-1.7-2.1-1.1c-2,1.4-5.9,1.7-3.8,5.9C128.3,36.3,128.1,36.5,127.9,37.1z M127.9,29.7c0.3,0,0.5,0.1,0.8,0.1
			c1.3-1.8,2.6-3.6,3.8-5.5c1.2-1.8,1.1-3.7-0.2-5.3c-0.4-0.5-1.4-1.2-1.9-1c-0.8,0.3-1.8,1.1-1.9,1.8
			C128.2,23.2,128.1,26.5,127.9,29.7z M44.9,14.8c-4.5,0.7-6,1.4-6.9,3.4c-0.9,1.9-1.7,3.8-2.3,5.8c-0.2,0.5,0.2,1.2,0.4,1.8
			c0.6-0.2,1.4-0.2,1.7-0.6C40,21.9,42.3,18.5,44.9,14.8z M122.6,54.4c-0.6,0.1-0.7,0.1-0.9,0.1c-2.2,0.6-5.8,5.6-5.6,7.8
			c0.1,1.1,1.6,1.9,2.5,1.2c2.5-1.9,3.9-4.5,4.8-7.5C123.5,55.6,122.8,54.9,122.6,54.4z M62.8,18.6c1.3-1.2,2.1-2,2.8-2.8
			c2.2-2.4,2.3-3.3,0.7-6c-0.4-0.7-1.3-1.2-2-1.8c-0.5,0.8-1.4,1.5-1.5,2.3C62.6,12.9,62.8,15.4,62.8,18.6z M118.5,18
			c2.9-0.6,5.1-1,7.2-1.6c2.1-0.5,4.1-1.3,6.1-1.9C126.9,13,122.5,13.4,118.5,18z M139,14.8c-0.3-0.5-0.6-0.9-0.7-0.9
			c-1.6,0.7-3.2,1.3-4.6,2.3c-0.2,0.1,0.3,1.6,0.7,2.4c0.1,0.3,1,0.6,1.1,0.5C136.8,17.7,137.9,16.2,139,14.8z M139.2,63.5
			c0.2,0,0.4,0,0.6-0.1c0.3-1.2,0.7-2.3,0.9-3.5c0.1-0.8-0.3-1.6-0.4-2.4c-0.6,0.7-1.5,1.3-1.6,2C138.5,60.9,138.9,62.2,139.2,63.5z
			 M86.4,41.3c-0.3-0.2-0.5-0.4-0.8-0.5c-0.7,0.6-1.5,1.1-2.1,1.8c-0.6,0.7-2.2,1.3-0.9,2.5c0.2,0.2,1.8-0.8,2.5-1.4
			C85.7,43,85.9,42.1,86.4,41.3z M235.2,8.4c-3.6,0.7-3.6,0.7-3.5,3.9C233,10.8,234.2,9.5,235.2,8.4z M129.9,81.5
			c0.9-1.1,1.6-1.9,2.2-2.8c0.1-0.1-0.6-0.9-0.8-0.9c-0.8,0.3-1.8,0.5-2.3,1.1C128.8,79.3,129.4,80.3,129.9,81.5z M143.5,7.5
			c-0.3-0.3-0.6-0.5-1-0.8c-1.1,1.1-2.1,2.2-3.6,3.7C142.4,11,142.2,8.3,143.5,7.5z M232.9,19.5c-0.5-0.8-1-1.6-1.5-2.4
			c-0.2,0.2-0.6,0.6-0.5,0.7c0.4,0.8,0.8,1.5,1.3,2.3C232.3,19.9,232.5,19.8,232.9,19.5z M241,8.1c-0.5-0.4-1-0.9-1.5-1.2
			c-0.2-0.1-0.6,0.2-0.8,0.3c0.6,0.7,1.2,1.3,1.8,2C240.6,8.9,240.7,8.7,241,8.1z M200.1,29.4c-0.3-0.5-0.4-0.7-0.6-1
			c-0.5,0.5-1.1,0.9-1.5,1.5c-0.1,0.1,0.3,0.6,0.5,0.9C199,30.3,199.6,29.9,200.1,29.4z M228.8,7.7c-0.6-0.5-1.2-0.9-1.8-1.4
			c-0.1,0.3-0.4,0.7-0.3,0.8c0.5,0.5,1.1,1,1.7,1.5C228.5,8.3,228.6,8.1,228.8,7.7z M136.3,60c-0.3-0.4-0.6-0.8-0.9-1.2
			c-0.2,0.4-0.8,0.8-0.7,1.1c0.2,0.6,0.6,1.1,1,1.6C135.9,61.1,136.1,60.7,136.3,60z M81.3,62c-0.5,0.5-0.8,0.8-0.8,0.9
			c0.3,0.8,0.7,1.5,1,2.3c0.1-0.3,0.3-0.6,0.3-0.9C81.7,63.6,81.5,63,81.3,62z M31.2,32.3c-0.2-0.3-0.3-0.5-0.4-0.7
			c0,0-0.3,0.1-0.4,0.2c-0.3,0.7-0.5,1.4-0.8,2.1c0,0.1,0.2,0.4,0.2,0.4c0.2-0.1,0.5-0.1,0.6-0.3C30.7,33.4,31,32.8,31.2,32.3z
			 M229.1,16.4c0.5-0.9,0.8-1.4,0.9-1.9c0-0.1-0.6-0.4-0.9-0.6c-0.2,0.4-0.5,0.7-0.6,1.1C228.5,15.3,228.8,15.7,229.1,16.4z
			 M150.3,7.3c-0.3-0.1-0.6-0.3-0.8-0.2c-0.2,0.1-0.3,0.5-0.4,0.8c0.2,0.1,0.6,0.3,0.7,0.2C150,7.9,150.1,7.6,150.3,7.3z M94.9,27.7
			c-0.1-0.1-0.1-0.3-0.2-0.3c-0.1,0-0.3,0-0.4,0.1c0.1,0.2,0.2,0.3,0.3,0.5C94.6,27.8,94.8,27.8,94.9,27.7z M199.7,33.5
			c-0.1-0.1-0.1-0.3-0.2-0.3c-0.1,0-0.3,0-0.4,0c0.1,0.2,0.2,0.3,0.3,0.5C199.4,33.7,199.6,33.6,199.7,33.5z"/>
		<path d="M421.4,46.5c-0.2-0.5-0.8-1.1-0.7-1.4c0.4-0.9,1-1.6,1.6-2.4c1.1-1.6,0.4-3.9-0.6-4.3c-3.2-1.2-3.2-4.2-4.7-6.4
			c-1.1-1.7-1.9-3.6-3.1-5.8c-0.5,0.7-0.7,1.1-1.1,1.5c-1.8,1.9-1.9,3.7,0,5.7c2.7,3,2.9,6.2,2.1,10.3c-1,4.8-1.5,9.8-3,14.5
			c-0.9,2.8-0.1,5.7,1.5,8.3c0.6,1,0.6,2.3,0.9,3.5c-1.2-0.2-2.4-0.3-3.6-0.7c-3.7-1.3-6.4-3.5-7.2-7.7c-0.2-1.4-0.8-2.7-1.4-4.7
			c-1.5,1.3-2.7,2.4-4,3.5c-1.1,0.8-1.8,0.4-2-0.9c-0.1-0.8,0-1.6-0.2-2.4c-0.3-1.1-0.5-2.3-1.2-3.1c-0.4-0.4-1.7,0.2-2.6,0.2
			c-1.1,0-2.3,0-3.3-0.4c-1.1-0.5-2.6-1.2-3-2.2c-0.6-1.5,1.3-1.8,2.1-2.7c1.7-1.7,3.6-3.4,4.5-5.5c0.7-1.4-0.1-3.5-1-5.4
			c-0.7,1.2-1.4,2.5-2.2,3.6c-0.3,0.4-1.1,0.8-1.6,0.7c-0.5-0.1-1-0.8-1.1-1.3c-0.2-1.3-0.2-2.6-0.1-3.9c0.3-4.1-0.8-7.9-2.8-12.5
			c0.1,4.9-0.3,8.7-2.9,11.8c-2.9,3.5-6.8,4.6-11,5c-0.8,0.1-1.8-0.7-2.3-1.3c-0.3-0.3,0.1-1.5,0.6-2c3.4-3.6,2.8-8.2,3.9-12.6
			c-0.6,0.1-0.8,0-0.9,0.1c-4.7,2.9-4.7,2.9-5-2.5c0-0.5,0-1-0.1-1.4c-0.2-1.2-0.7-2.4-2-2.1c-0.7,0.1-1.6,1.3-1.6,2
			c-0.1,1.6-0.8,3.7,2,4c0.3,0,0.8,1,0.6,1.4c-0.4,1-0.9,2.1-1.5,3c-0.3,0.4-1.1,0.6-1.6,0.6c-0.2,0-0.5-0.7-0.6-1.2
			c-0.4-2.4-0.7-4.7-1.1-7.1c-0.1-0.4-0.5-0.7-0.8-1.1c-0.1-0.1-0.1-0.3-0.2-0.4c-0.1-0.1-0.2-0.1-0.3-0.1c0.2,0.2,0.3,0.3,0.5,0.5
			c-0.3,2.9-0.6,5.7-0.7,8.6c0,1.4,0.5,2.8,0.6,4.2c0,0.7-0.4,1.5-0.9,2c-0.3,0.3-1.3,0.1-1.7-0.2c-1.8-1.5-3.7-3.1-5.3-4.8
			c-1.5-1.6-2.7-3.6-4.3-5.8c-0.5,1-1,1.8-1.3,2.6c-1.7,4.2-5.4,5.7-9.3,7c-1.5,0.5-2.4-0.3-2.4-2c0-4.4,0-8.7,0-13.1
			c0-2.9-0.1-2.9-2.8-3.2c-3.2-0.4-3.6-1.4-2.1-4.3c2.1-4.1,6.1-6.1,9.3-9c1.1-1,1.5-1.9,1.5-3.2c0.6,0,1.3,0,1.9,0
			c0,4.5-0.2,9.1,2.5,13.3c3.3-2.8,4.1-6,2.7-9.7c-0.4-1.2-0.9-2.4-1.3-3.6c1,0,1.9,0,2.9,0c1.3,1.5,2.6,1.4,3.9,0c1,0,1.9,0,2.9,0
			c2.4,1.8,4.8,3.6,7.4,5.5c-0.2-2.1-0.4-3.8-0.6-5.5c2.6,0,5.2,0,7.8,0c0.6,0.9,1.2,1.8,1.9,2.7c1.4,2,2.5,2.2,3.8,0.3
			c0.6-0.9,0.8-2,1.1-3c1.9,0,3.9,0,5.8,0c-1.5,3.7-3.1,7.3-4.7,11.3c8.3-3.5,9.5-4.8,10.5-11.3c1,0,1.9,0,2.9,0
			c0.6,1.3,1.5,2.2,3,1.7c1.3-0.4,2.5-1.1,3.8-1.7c1.3,0,2.6,0,3.9,0c-0.6,1.6-1.8,3.3-1.6,4.8c0.3,1.5,2,2.8,3.1,4.2
			c0.6,0.7,1.1,1.6,1.6,2.4c5.2-4.1,5.5-4.9,3.8-10.3c-0.1-0.3-0.1-0.6-0.1-1c1,0,1.9,0,2.9,0c0.1,0.5,0.1,1,0.3,1.4
			c0.2,0.4,0.6,0.6,0.9,1c0.2-0.5,0.5-0.9,0.7-1.4c0.1-0.3,0-0.6,0-0.9c0.6,0,1.3,0,1.9,0c0.9,0.8,1.7,1.6,2.6,2.4
			c0.6-1.4,3.3-0.1,3.2-2.4c0.6,0,1.3,0,1.9,0c-0.2,0.8-0.4,1.5-0.6,2.3c-1.2,4-2.6,8,0.3,11.9c0.4,0.6,0.4,1.6,0.3,2.3
			c-0.4,2.4-0.8,4.8-1.3,7.3c4.5-4.3,6.5-9.2,4.5-15.4c-0.9-2.8-1.6-5.5-1.3-8.5c0.6,0,1.3,0,1.9,0c0.7,1.2,1.2,2.5,2.1,3.5
			c0.7,0.7,2.1,1.4,2.8,1.1c1.7-0.7,0.6-2,0.2-3.2c-0.2-0.4-0.1-0.9-0.2-1.4c1,0,1.9,0,2.9,0c0.4,1.5,0.6,3.3,1.5,4.5
			c0.6,0.8,2.2,1.2,3.3,1.2c1.3,0,1.7-1,1.3-2.4c-0.2-0.9,0.4-2.1,0.7-3.2c1,0,1.9,0,2.9,0c-0.4,2.1-0.8,4.3-1.2,6.7
			c2.2,0.6,4.6,1.3,7,2c3.8,2.2,7.9,3.9,11.8,5.5c3.9,1.5,8.5,1,12.8,1.3c0.7,0,1.4-0.3,2.9-0.6c-1.2-0.8-1.7-1.5-2.4-1.6
			c-2.4-0.5-3.9-2.1-5.5-3.6c-0.8-0.8-1.9-1.3-2.7-2c-1.6-1.5-3.1-1.6-5.2-1c-3.8,1.1-7.8,1.5-11.8,2.2c-1-2.6-1-2.5,1.4-2.3
			c1.1,0.1,2.2,0,3.3-0.2c0.3,0,0.5-0.7,0.6-1.1c0-0.2-0.3-0.6-0.6-0.7c-0.9-0.2-1.9-0.3-2.8-0.6c-2.2-0.6-4.2-1.4-4.8-3.9
			c1.3,0,2.6,0,3.9,0c0.6,1.1,1.3,1.1,1.9,0c1,0,1.9,0,2.9,0c2,4.5,2,4.5,5.9,1.4c0.6-0.5,1.2-1,1.9-1.4c1,0,1.9,0,2.9,0
			c-0.7,1.2-1.4,2.4-2.1,3.7c2.9,0.5,4.5-0.9,5-3.7c1.9,0,3.9,0,5.8,0c2.3,1.1,4.5,2.6,6.8,0c3.6,0,7.1,0,10.7,0
			c1.6,1.4,3.2,1.5,4.9,0c1,0,1.9,0,2.9,0c0.6,0.5,1.2,1,1.7,1.6c0.6,0.8-1.2,2.4,0.7,2.6c0.4,0.1,1.1-1.6,1.6-2.5
			c0.3-0.5,0.6-1.1,0.9-1.7c0.6,0,1.3,0,1.9,0c-0.2,0.8-0.3,1.5-0.7,2.3c-0.5,1.2-1.2,2.3-1.7,3.5c-1.3,3.1-0.6,4.3,2.7,4.9
			c0.9,0.2,1.9,0.4,2.8,0.7c4.3,1.6,5.3,0.8,4.4-3.8c-0.2-1.1-1-2.6-1.9-3.1c-2.1-1.1-1.9-2.7-1.8-4.5c0.6,0,1.3,0,1.9,0
			c0.8,1.2,1.5,2.4,2.4,3.6c1.3,1.8,3,3,5.2,3.1c2.5,0.1,5,0.3,8.5-0.3c-2.5-1.7-4.1-2.9-5.8-4.1c-1.2-0.8-2.3-1.5-3.5-2.3
			c1.9,0,3.9,0,5.8,0c2.3,2,2.4,2,3.9,0c1,0,1.9,0,2.9,0c-0.1,0.9,0,2.1-0.5,2.7c-0.9,1.2-1.4,2.4-0.2,3.2c0.8,0.6,2.3,0.5,3.4,0.3
			c1-0.2,2.1-0.8,3-1.4c1.8-1.2,2.4-2.8,1.1-4.8c1.3,0,2.6,0,3.9,0c0.1,1.7-2,3.8,1,4.9c1.5,4.8,5.4,6.4,9.6,7.4
			c0.6,0.1,1.7-0.3,2.1-0.9c0.3-0.4,0.1-1.5-0.3-2c-2.1-2.9-4.5-5.4-8.8-4c-0.7,0.2-1.7-0.4-2.6-0.6c1.7-0.6,3.4-1.8,5.1-1.8
			c3,0,1.5-1.8,1.7-3c1,0,1.9,0,2.9,0c0.2,0.5,0.5,1.1,0.7,1.6c0.4-0.5,0.8-1.1,1.2-1.6c1,0,1.9,0,2.9,0c0.2,1.5,0,3.9,0.8,4.4
			c2.1,1.2,4.7,1.7,7.1,2.3c1,0.2,1.8-0.4,1.3-1.7c-0.6-1.6-1-3.3-1.5-5c8.1,0,16.2,0,24.2,0c0.3,0.4,0.4,0.9,0.8,1.2
			c2.1,2,2.1,2,3.9-0.7c0.1-0.1,0.1-0.3,0.2-0.4c1.9,0,3.9,0,5.8,0c1.2,0.7,2.3,1.5,3.5,2.1c0.6,0.3,1.3,0.1,2,0.1
			c-0.2-0.7-0.5-1.4-0.7-2.2c1,0,1.9,0,2.9,0c0,1.8,0.4,3.1,2.7,2.9c3.5-0.3,6.9-1.7,10.6-1.4c0.7,0.1,1.5-1,2.3-1.5
			c1.6,0,3.2,0,4.8,0c1.2,0.6,2.4,1.7,3.7,1.8c3.7,0.4,7.5,0.3,10.9-1.8c1.3,0,2.6,0,3.9,0c0.3,1.8-0.4,3.2-1.8,4.2
			c-0.7,0.5-1.4,0.9-2,1.3c-1.8,1.1-3.8,2-5.2,3.4c-1.3,1.3-2,3.3-3,5.2c4.4,2.7,9,4.4,14.4,2.7c0.7-0.2,1.5,0.1,2.2,0.2
			c-0.1,0.9,0.1,2-0.4,2.6c-2.8,3.1-5.6,6.3-10.2,6.8c-1.1,0.1-2.1,0.1-3.2,0c-1.3,0-2.6-0.4-3.8-0.1c-1,0.2-2,1-2.6,1.9
			c-0.2,0.3,0.6,1.6,1.2,2.2c2.1,2.4,4.4,4.7,7.8,5.3c0.3,0.1,0.7,0,0.9,0.2c0.6,0.6,1.2,1.3,1.8,2c-0.7,0.6-1.3,1.4-2,1.8
			c-1.2,0.5-2.4,0.8-3.7,1c-3,0.5-6,0.9-9.2,1.4c0.6,1.3,1.1,2.7,1.8,3.9c0.8,1.5,2,2.5,3.9,2.4c0.6,0,1.4-0.2,1.9,0.1
			c1.2,0.4,2.2,1.1,3.4,1.7c-0.6,0.9-1.1,1.9-1.7,2.8c-0.7,1.1-1.5,2.2-2.3,3.3c1.5,0.9,2.9,2.2,4.5,2.6c1.4,0.3,3.1-0.4,4.7-0.6
			c0.5,0,1.2,0.3,1.6,0.7c0.1,0.1-0.1,1-0.4,1.2c-1.4,1-2.8,2.1-4.4,2.9c-5,2.4-10.1,2.9-15.4,0.4c-1.3-0.6-2.7-1.2-4.1-1.3
			c-6.3-0.4-9.1-4.8-11.4-9.7c-0.4-0.9-0.5-1.9-1-2.7c-0.3-0.5-0.8-1.1-1.3-1.2c-6-0.3-11-3.2-16.1-5.9c-0.6-0.3-1.4-0.1-2.1-0.2
			c0,0.6-0.1,1.2,0.1,1.8c0.5,1.2,1.1,2.3,1.6,3.5c0.1,0.4,0.1,1-0.1,1.2c-0.3,0.3-1,0.5-1.3,0.3c-1-0.8-1.8-1.7-2.9-0.2
			c-0.4-0.5-1-0.9-1-1.4c0-1.4,0.4-2.9,0.4-4.3c0-0.7-0.5-1.4-0.8-2.2c-0.5,0.5-1.2,0.8-1.4,1.4c-0.9,2.2-1.7,4.5-2.6,6.7
			c-0.3,0.6-1,1-1.5,1.6c-0.3-0.5-0.7-1-0.9-1.5c-1.3-2.7-2.7-5.5-4.2-8.2c0,3.8-1.1,7.2-3,10.3c-0.3,0.5-0.8,0.7-1.2,1.1
			c-0.4-0.5-1-1-1-1.5c-0.4-3.8-2.8-6.7-4.3-10.5c-1.1,2.1-1.8,3.7-2.7,5.3c-0.3,0.5-1,1.1-1.4,1c-0.5-0.1-1-0.8-1.2-1.3
			c-1.4-3.8-2.8-7.5-4-11.3c-0.7-2.1-2.2-3.1-4-3.8c-1.4-0.6-1.9,0.3-1.6,1.4c0.5,2.2,0.6,4.3,0.1,6.6c-0.2,1,0.9,2.3,1.5,3.4
			c5.1,8.1,3.3,15.8-3.2,21.5c-1.7,1.4-3,3.3-4.5,5c-0.2,0.2-1,0.3-1.3,0.1c-0.3-0.2-0.4-0.8-0.5-1.2c0-0.1,0-0.4,0.1-0.5
			c2.6-3.2,1.1-6.6-0.3-9.5c-2.6-5.1-1.6-10.4-1.6-15.7c0-0.3,0.3-0.6,0.3-0.9c0.3-1.6-1-3.9-2.1-3.5c-0.8,0.3-1.3,1.6-1.6,2.5
			c-0.2,0.6-0.1,1.6,0.3,2.2c2.4,3.7,0.6,6.8-1.6,9.6c-1.2,1.5-1.7,2.4-1,4.5c2.1,6.5,0.2,12.4-4.4,17.3c-0.5,0.6-1.8,1-2.4,0.8
			c-1.3-0.5-0.5-1.4-0.1-2.3c0.5-0.9,0.8-2.3,0.5-3.2c-1.1-3.5-2.5-6.9-4-10.8c-2.6,2.7-4.8,5-7.1,7.2c-0.4,0.4-1.1,0.3-1.7,0.5
			c-0.2-0.6-0.5-1.2-0.4-1.7c0.5-2.2,1.4-4.3,1.7-6.5c0.5-4.2-0.7-8.2-2-12.5c-0.7,0.9-1.1,1.6-1.6,2.1c-0.7,0.6-1.8,1.5-2.3,1.3
			c-0.7-0.3-1.3-1.5-1.5-2.3c-0.2-1.2,0-2.5,0.1-3.8c0-0.6,0.1-1.2,0.1-1.8c-0.7,0.2-1.4,0.4-2,0.8c-0.6,0.3-0.9,1-1.5,1.2
			c-0.5,0.2-1.3,0.1-1.7-0.1c-1.4-0.7-2.5-0.7-3.7,0.2c-0.6-3.6,0.4-7.7-4-10.1c0,1.5,0,2.8,0,4.1c0,0.8,0.2,1.9-0.2,2.4
			c-3.7,4.2-2.9,10-5.6,14.6c-0.9,1.5-1.1,3.3-1.8,4.9c-0.1,0.3-0.8,0.7-1.1,0.7c-0.3,0-1-0.5-1-0.8c-0.3-4-4.2-6-5.5-9.4
			c-0.1-0.2-1.4-0.3-1.9,0c-1.6,1.2-2.7,2.7-2.3,4.9c0.2,1.3,0.4,2.5,0.5,3.8c0.1,2.3-0.5,4.4-2.3,6c-0.9,0.8-1.9,0.4-2-0.8
			c-0.1-1.3,0-2.6-0.1-3.9c-0.2-3.2-0.9-3.6-3.8-2.5c-0.6,0.2-1.2,0.6-1.8,0.8c-2.7,0.6-4.8-0.1-6-2.8c5.4-4.4,4.1-2.2,0.1-9.8
			c0.2,1.6,0.8,3.1,0.8,4.6c0,1.7-0.6,3.4-0.9,5.2c-1.4,2.8-2.5,5.8-4.3,8.3c-1.2,1.7-3.4,2.8-5.2,4.1c-0.3,0.2-1,0.1-1.3-0.1
			c-0.2-0.1-0.2-0.9,0-1.2c2.4-3.1,1.2-5.2-1.5-7.6c-2-1.7-3.1-4.4-4.6-6.7c-0.4,0.6-0.7,1.8-1.3,1.9c-4.2,1.2-5.3,4.8-6.8,8.1
			c-0.6,1.2-1.4,2.3-2.2,3.4c-0.6-1.4-1.7-2.8-1.7-4.2c-0.2-5.6-0.1-11.3-0.1-16.9c0-0.8-0.1-1.5-0.5-2.3c0.4,5.9-2.6,10.1-6.6,13.9
			c-0.5,0.5-1.4,0.6-2,0.8c-0.1-0.7-0.3-1.5-0.2-2.2c0.1-1.1,0.5-2.2,0.6-3.3c0.2-1.6,0.1-2.9-2.2-2
			C421.8,48.8,421.4,47.7,421.4,46.5c4.5-0.9,8.4-2.5,10-7.3c0.2-0.6,0.9-0.9,1.2-1.5c1.1-2.4,2.8-4.9,3-7.4c0.2-1.4-2.1-3-3.2-4.5
			c-0.4-0.5-0.7-1-1.2-1.6c-2,2.2-2.3,4.8-2.9,7.2C426.8,36.8,425.2,42.2,421.4,46.5z M634.8,9.7c0.1-0.1,0.3-0.1,0.4-0.2
			c0.1-0.1,0.1-0.2,0.1-0.3C635.1,9.4,635,9.5,634.8,9.7c-0.1,0.1-0.3,0.1-0.4,0.2c-0.1,0.1-0.1,0.2-0.1,0.3
			C634.5,10,634.6,9.8,634.8,9.7z M615.4,8.7c0.3-0.3,0.6-0.7,1-1c1.9-0.1,3.7,1.9,5.9,0c2.1-1.9,3.7,2,6,0.9
			c0.9-0.4,1.8-0.6,2.7-0.8c1.5-0.4,3.1-0.9,4.7-1c2.7-0.2,4.9-1.1,6.9-2.9c0.1-0.1,0.3-0.1,0.4-0.2c0.1-0.1,0.1-0.2,0.1-0.3
			c-0.2,0.2-0.3,0.3-0.5,0.5c-4.7,0-9.5,0.8-14.2-0.8c-1.3-0.4-3.2,0.1-4.6,0.7c-1.1,0.4-2,1.6-3.1,2.2c-1.2,0.5-2.5,0.7-3.8,1.1
			c-0.2,0.1-0.3,0.5-0.5,0.8C616,8.1,615.7,8.4,615.4,8.7c-0.3,0.3-0.7,0.6-1,0.9c-1.7,0.1-2.4,1.1-1.5,2.6c0.9,1.4,2.1,1.9,3.4,0.4
			c1.9,0,3.8,0.1,5.5-1.8c-1.6,0-3-0.2-4.3,0.1c-0.5,0.1-0.8,1.1-1.2,1.7c-1.3-0.5-2.1-1.4-1.9-2.9C614.8,9.4,615.1,9.1,615.4,8.7z
			 M438.9,33.9c-0.2-0.4-0.4-0.8-0.8-1.1c-0.2-0.1-0.6,0-1,0c0.1,0.2,0.2,0.6,0.5,0.7C438,33.8,438.4,33.9,438.9,33.9
			c1.6,1.7,1.7,0.2,1.9-1c1.5-1,0.7-1.8-0.3-2.5c-0.2-0.2-0.6-0.1-0.9-0.2c0.2,0.6,0.5,1.2,0.8,1.8c0.1,0.3,0.3,0.6,0.4,0.8
			C440.1,33.3,439.5,33.6,438.9,33.9z M404.9,36.9c-1.5-0.5-3.1-0.9-4.9-1.5c0.6,2.3,2.3,2.5,3.7,3.1
			C403.9,38.5,404.5,37.4,404.9,36.9c2.6-1.3,1.2-2.4-0.3-4.3C404.7,34.5,404.8,35.7,404.9,36.9z M469.9,33c0.1,0.4,0.2,0.8,0.3,1.3
			c0.2-0.1,0.3-0.2,0.5-0.3C470.4,33.6,470.1,33.3,469.9,33c0.5-2.4,1-4.8,1.4-7.2C467.6,29.2,467.5,29.3,469.9,33z M523.2,15.5
			c-0.4-1-0.4-2.3-1.1-2.8c-1.1-0.8-2.6-1-4-1.4c-0.1,0-0.7,0.7-0.6,1c0.3,0.8,0.6,2,1.2,2.3C520.1,15.1,521.7,15.2,523.2,15.5
			c-0.1,0.8,0.2,1.8-0.2,2.3c-2.1,2.5-0.7,4.6,0.8,6.3c1.4,1.6,1.8,3,1.5,5c-0.4,2.5,0.4,3.5,2.9,4.3c1.3,0.4,2.7,0.4,4.6,0.6
			c-2.1-3.1-3.9-5.7-5.7-8.3c-1.6-2.2-2.5-4.4-1.5-7.2C526.5,16.3,525,15.7,523.2,15.5z M525.2,42.7c-0.8-1.8-1.6-3.6-2.5-5.5
			c-2.4,1.9-3.5,4.2-3.3,6.9c0.4,5.2,0.9,10.3,1.3,16.1c1.5-1.7,2.3-3.2,2.5-5c0.4-3.1,1.4-6.2,0.1-9.4
			C522.8,44.5,522.9,42.7,525.2,42.7c0.3,2.7,0.7,5.3,1,8c0.2,1.4-0.1,3,0.4,4.2c1.8,4.2,3.9,8.3,6,12.5c2.1-3.2,1.2-6.6,1.2-9.9
			c0-0.3-0.6-1-0.8-1c-3.6,0.7-2.7-1.9-3-3.8C529.2,49,528.4,45.3,525.2,42.7z M534.9,20.4c0.1,0.1,0.1,0.3,0.2,0.4
			c0.1,0.1,0.2,0.1,0.3,0.1C535.2,20.7,535,20.5,534.9,20.4c-0.1-1.7,1.3-2.3,2.3-3.3c2.5-2.6,2.5-5.6-0.1-7.3c-1.1-0.7-2.7-1-4-0.8
			c-2.8,0.4-5.6,1.4-8.4,0.1c-0.2-0.1-0.7,0.4-1.1,0.6c0.3,0.3,0.6,0.9,0.9,0.9c4.1-0.2,5.8,2.6,7.5,5.7
			C532.7,17.7,533.9,19,534.9,20.4z M403,20.4c2.3,0.4,2.9,1.4,1.8,3.7c-1.6,3.5-1.3,4.3,1.5,7c1,1,1.8,2.2,2.7,3.4
			c0.8,1,0.8,2.1-0.2,3c-3,2.6-3.1,5.7-1.5,9.1c1.3,2.6,0.6,5.2-1.3,7.2c-1.4,1.5-1.9,2.7-0.7,4.6c0.6,0.9,0.4,2.2,0.8,3.2
			c1,2.2,1.6,5,5.1,5.3c-0.7-1.9-1.2-3.7-1.9-5.4c-0.7-1.6-0.6-3.1,0.2-4.6c3.1-5.7,3.2-12,3-18.3c0-1.5-0.8-3.1-1.6-4.4
			c-0.9-1.5-2.2-2.8-3.1-4.3c-0.8-1.3-3.3-1.8-2.4-4.1c1.3,0.7,2.6,1.4,4.2,2.2c0.6-0.9,1.1-1.9,1.8-2.7c1.3-1.5,1.4-2.3-0.8-3
			c-1-0.3-0.7-1.4,0.2-1.7c3.5-1.3,4.5-3.7,3.4-7.1c-0.8,0.6-1.6,1.3-2.4,1.7C408.9,16.8,405.9,18.6,403,20.4
			c-1.9,0-3.9,0.3-5.7-0.1c-2.2-0.6-2.3,0.6-1.8,1.8c1.2,3.6,2.9,6.9,5.4,9.7c0.5-2.8,1-5.5,1.5-8.2C402.5,22.5,402.7,21.4,403,20.4
			z M485.4,28.9c0.1,0,0.2,0,0.2,0c-0.3-1.9-0.2-4-1-5.6c-1.6-3.2-7.6-5.5-11.3-4.8c-1.3,0.2-1.7,1-1.3,2.1c1.1,3,2.3,6,3.4,9
			c0.9,2.3,2.8,3.6,5,4.2c3.7,1,4.9,0,4.9-3.9C485.4,29.5,485.4,29.2,485.4,28.9z M455.1,29.4c-1.7-5.9-3.2-11-4.6-16.2
			c-0.1-0.3-0.1-0.7-0.3-0.9c-0.5-0.6-1.1-1.3-1.7-1.5c-2.3-0.7-4.6-1.4-6.9-1.8c-0.4-0.1-1.4,0.9-1.4,1.3c0.5,3.2,1.2,6.4,1.9,9.9
			c0.5-0.7,0.7-1.1,1-1.4c0.4-0.4,1-1,1.5-0.9c0.4,0,0.9,0.9,0.9,1.4c0.1,3.1,1.6,5.4,4.1,7.1C451.2,27.2,452.7,28,455.1,29.4z
			 M545.2,41.5c-2.5,5.1-1.7,9.4-0.1,13.7c0.6,1.6,1.1,3.3,1.6,5c0.5,1.9,0.9,2.1,2.5,0.7c5-4.5,6.1-9.1,3.5-15.6
			c-0.4-1.1-0.8-2.2-2.3-0.5c-1.9,2.2-2,2-3.5-0.5C546.4,43.6,546,42.9,545.2,41.5z M457.6,30.4c-2,2.2-0.1,3.2,1,4.5
			c2.1,2.4,5.1,2.5,7.8,2.9c2,0.3,2.5-0.6,1.5-2.6c-2.2-4.4-4.3-8.9-6.7-13.2c-0.7-1.3-2.1-2.3-3.4-3.1c-0.7-0.4-1.8-0.2-2.8-0.2
			c0,0.8-0.1,1.7,0.1,2.5c0.3,1.4,0.8,2.7,1.1,4.1C456.8,27,457.2,28.7,457.6,30.4z M493.2,43.6c-0.6-3.3-1.2-6.3-3.4-8.6
			c-0.3-0.3-1.4-0.2-1.4-0.1c-0.9,2.2-2.7,1.9-4.5,2c-2.4,0.1-2.7,0.9-1.7,3.1c0.6,1.4,2,2.9,1.9,4.2c-0.3,3.9,1.9,6.2,4.3,8.5
			c1,0.9,2,0.4,2.3-0.6C491.7,49.3,492.4,46.3,493.2,43.6z M441.4,27.4c-0.8-4.3-1.8-8.6-2.5-13c-1-5.7-3.9-8-9.4-7.4
			c-0.3,0-0.7,0.5-0.6,0.8c0.1,0.8,0.2,1.7,0.7,2.3c2.6,3.4,4,7.2,3.8,11.6c-0.1,1.3,1.4,2.7,2.1,4.1
			C437.7,25.2,439.1,27.9,441.4,27.4z M512.6,44.6c1-0.7,1.4-1,1.7-1.3c2.4-3,4.8-6,7.2-9.1c2.7-3.5,2.2-8.5-1.1-11.2
			c-1.3-1.1-2.7-0.8-4.1-0.1c-1.4,0.6-2.5,1.6-2.2,3.3C515.4,32.2,514.2,38,512.6,44.6z M442.7,21.2c0.1,1.9-0.2,3.3,0.3,3.7
			c2.4,2.1,1.1,4.3,0.6,6.5c-0.3,1.7-1.3,3.3-1.6,5c-0.8,3.6-1.4,7.2-1.8,10.8c-0.1,0.8,1.1,1.8,1.8,2.6c0.2,0.2,1.1,0.2,1.2,0
			c1.8-2.4,4.4-4.8,5-7.5c0.8-3.7,1.2-8-1.7-11.5c-0.3-0.4-0.4-1.4-0.2-1.5c1.7-1.1,0.8-2,0-3.1C445.2,24.9,444.2,23.5,442.7,21.2z
			 M635.3,51.9c-3.8-0.2-5.6-2.8-7.1-5.8c-0.4-0.9-1-1.7-1.1-2.6c-0.3-1.6-1.4-2.3-2.6-2.4c-2.4-0.3-4.7-0.8-6.8-2
			c-0.4-0.2-1.2,0.1-1.7,0.3c-0.2,0.1-0.2,0.9,0,1.3c1.4,2.6,2.8,5.4,4.4,7.9C623.4,53.2,629.4,54.6,635.3,51.9z M366.9,1.1
			c-1.2,2-1.6,4.1-1.7,6.3c-0.3,5.9,2.7,10.9,3.6,17.6c1.6-2.5,2.8-4,3.6-5.6c1.4-2.9,2.3-6,0.6-9.2C371.2,7.1,370.1,3.6,366.9,1.1z
			 M341.8,15.5c-0.2-1.2,0.4-2.8-1.4-2.6c-2.2,0.3-4.3,2.4-4.3,4.5c-0.1,4.3,0,8.7,0.1,13c0,0.9,0.5,1.4,1.6,1.1c4.4-1,6.9-4.1,7-9
			c0-1.6,1.1-4.1-2.4-3.5c-0.2,0-0.9-0.9-0.9-1.4C341.3,16.9,341.7,16.1,341.8,15.5z M393.4,34.2c0.2,0.9,0.3,1.3,0.4,1.7
			c1.6,5.3,3.8,10.5,3.5,16.2c0,0.9,0.3,1.9,0.7,2.7c0.2,0.4,1,0.8,1.3,0.6c2.3-1.2,4.8-2.3,5.3-5.1c0.7-4-0.7-7.5-3.7-10.2
			C398.7,38.2,396.3,36.5,393.4,34.2z M455.9,62.4c2.4-1.8,3.3-3.9,4.3-6.1c2.8-5.7,0.9-11.2-0.3-16.7c-0.1-0.6-1-1.4-1.6-1.5
			c-0.6,0-1.6,0.7-1.8,1.2c-0.6,1.6-1.2,3.3-1.2,5C455.5,50.2,455.7,56.1,455.9,62.4z M467.5,54.5c1.7-0.4,2.6-0.3,3.2-0.7
			c2.6-1.8,5.2-3.7,7.8-5.6c2.5-1.8,3.4-4,1.8-6.9c-0.4-0.8-0.7-1.8-0.7-2.8c0-2.7-2.2-3.2-3.9-4.3c-0.3-0.2-1.4,0.5-1.7,1
			c-0.3,0.7-0.2,1.6-0.2,2.4C474,43.6,472.7,49.2,467.5,54.5z M612,18.9c-2.5-0.4-5.1-0.3-7.4-1.1c-3.4-1.2-6.8-1.2-10.3-1.2
			c-0.9,0-1.8,0.5-2.6,1c-1.2,0.7-1.3,1.6-0.2,2.7C597.7,25.9,606,25.4,612,18.9z M524.4,34.5c0,0.6-0.2,1.2,0,1.5
			c2.5,4.9,6.1,9.1,7.7,14.4c0.1,0.3,0.8,0.7,1.1,0.7c2.2-0.3,4.7-4.8,3.8-6.9c-0.7-1.7-2.1-3-1.7-5.2c0.2-1-0.9-2.3-1.4-3.4
			c-0.8,0.4-1.5,1-2.3,1.2c-0.7,0.1-1.6-0.1-2.3-0.3C527.7,35.9,526.1,35.2,524.4,34.5z M603.4,27.5c-0.4,0.6-0.7,0.9-0.9,1.3
			c-0.5,0.9-0.9,1.7-1.3,2.6c-1.4,3.4-1.7,3.6-5.1,2.1c-0.7-0.3-1.6-0.6-2.1-1.2c-2.2-2.4-5.3-1.6-8-2.1c-0.4-0.1-1.6,1-1.5,1.3
			c0.5,1.4,0.8,3.5,1.9,4c5.4,2.8,11,3.1,16.6,0.5c0.5-0.2,1-0.8,1-1.3C603.9,32.5,603.7,30.1,603.4,27.5z M357.4,25.1
			c-0.1-0.9,0-1.2-0.1-1.5c-0.6-3-6.4-7.9-9.5-8c-1.5-0.1-2,0.6-1.8,2.1c0.5,4.4,3.7,7.4,5.9,10.8c1,1.5,2.7,2.7,4,4
			c0.2-1.5,0.4-3.1,0.7-4.6C356.8,26.8,357.2,25.7,357.4,25.1z M573.2,22.3c0.6,4.2,0.8,7.6,1.7,10.8c0.9,3,2.5,5.8,3.9,8.7
			c0.7,1.5,1.5,2.9,2.3,4.5c2.2-2.2,2.7-4.6,2.2-7c-1-4.4-2.4-8.6-5.8-11.8C576,26.2,575,24.6,573.2,22.3z M544,24.6
			c-2.6,2-2.1,5.3-3.1,7.9c-0.2,0.4,0.3,1.3,0.6,1.7c2.3,2.8,4.7,5.4,7.4,8.5c0.9-4.6,1.4-8.6,0.4-12.6c-0.2-1-0.8-2-1.5-2.7
			C546.7,26.3,545.3,25.5,544,24.6z M636.4,18.3c0.2,1.3,0.4,1.7,0.4,2.2c-0.2,3.1,0.1,3.5,3,3.8c3.4,0.4,5.8-1.3,7.7-3.1
			c-3.4-1.2-7-2.4-10.5-3.8c-2.4-1-4.7-1.1-6.9-0.1c-3,1.3-6,2.7-8.8,4c1.1,0.1,2.6-0.1,3.9,0.4C629.4,23.2,632.9,22.1,636.4,18.3z
			 M371.4,39.3c1.5-0.6,2.8-1,4.2-1.6c3.6-1.5,5-4.6,5.8-8.2c0.6-2.9-1.9-3.9-3.3-5.4c-2-2.1-2.3-1.9-3.3,1
			c-0.4,1.2-0.6,2.5-0.9,3.7C373.1,32.2,372.3,35.6,371.4,39.3z M506.3,12.5c-0.9,0.3-2,0.6-3,1c-1.4,0.5-1.5,1.5-1,2.7
			c0.7,1.7,1.5,3.2,3.7,3.2c1.1,0,2.2,0.4,3.2,0.9c3.1,1.7,5.9,0.4,8.7-0.8c0.5-0.2,0.8-0.9,1.1-1.3c-0.4-0.3-0.7-0.7-1.1-0.9
			c-2.4-1.2-4.8-2.5-7.3-3.6C509.4,13.2,507.9,12.9,506.3,12.5z M624.6,32.9c-5.4,0.7-8.8-0.9-11.8-3.9c-0.8-0.8-1.8-1.3-2.8-1.9
			c-0.5-0.3-1.1-0.7-1.7-0.8c-1.6-0.5-2.5,0.2-2.5,1.9c0,0.6,0.4,1.3,0.2,1.8c-0.9,2.5,0.5,3.5,2.4,4.4
			C613.7,36.9,618.7,36.6,624.6,32.9z M537.1,36.1c0.7-1.8,1.4-2.9,1.5-4.1c0.1-2-0.2-4.1-0.5-6.1c-0.3-2.1-2.3-0.1-3.1-1.1
			c-1.3-1.6-2.5-3.3-3.8-4.9c-0.5-0.5-1.5-1.3-1.8-1.1c-0.7,0.5-1.5,1.3-1.7,2.1c-0.2,0.9,0.1,2,0.6,2.7
			C531.1,27.6,533.9,31.6,537.1,36.1z M563,41.9c1.6-2.1,2.9-4.4,2.4-6.3c-0.8-3.1,0.5-6.7-2-9.2c-1.2-1.2-2.8-2-4.3-2.9
			c-0.3-0.2-1,0-1.3,0.2c-0.3,0.2-0.4,0.9-0.2,1.2c1.3,2.2,1.2,4.5,1.6,6.9C559.8,35.2,560.6,38.7,563,41.9z M631.6,24.3
			c-5.7,0.1-11,0.2-15.8-2.8c-0.1-0.1-0.3-0.1-0.5-0.1c-1.8-0.4-3.3,0.4-4,1.9c-0.2,0.5,0.9,1.7,1.5,2.6c0.3,0.4,0.7,0.7,1,1
			c1.9,1.7,3.8,2.5,6.5,1.3c2-0.9,4.3-1,6.6-1.1C628.8,27,630.4,26.9,631.6,24.3z M595.3,41.2c1.5,0.9,2.8,1.5,4,2.4
			c3.3,2.3,7,2.2,10.7,2c1.7-0.1,2.5-1.2,2.5-2.9c0-1.6-1.1-1.7-2.3-1.9c-1.1-0.2-2.2-0.5-3.2-0.9c-2.5-1.2-4.9-1.1-7.4,0
			C598.3,40.3,596.9,40.6,595.3,41.2z M499.9,15.9c-2.5-2.3-4.8-4.6-7.3-6.6c-0.6-0.5-2.2-0.4-3,0c-1.3,0.7-2.6,4.7-2,5.6
			c1.2,1.9,2.7,3.5,5.4,3.4C495.4,18.4,497.5,18,499.9,15.9z M504,35.2c2.1-5.1,0.5-9.1-0.6-13.2c-0.1-0.5-0.7-1.1-1.1-1.3
			c-3.1-1.2-5.2,0.1-5.1,3.4c0.1,1.3,0.5,2.8,1.3,3.9C500,30.4,501.9,32.5,504,35.2z M546,17.9c-0.4,0.2-1.4,0.5-1.9,1.1
			c-0.2,0.3,0.4,1.3,0.7,2c1.3,3.1,4.1,4.4,6.8,5.8c1.3,0.7,2.8,1.2,4.2,1.7c-0.1-1.5-0.1-3.1-0.5-4.6c-0.2-1-0.9-1.9-1.3-2.9
			C552.5,17.6,549.1,18.8,546,17.9z M436.2,59.7c1.4-2.2,2.8-4.3,4-6.4c0.2-0.4,0.1-1.5-0.2-1.6c-3.2-1.6-2.1-4.3-1.7-6.8
			c0.4-2.2,0.9-4.4,1.2-6.6c0.1-0.5-0.7-1.4-1.2-1.6c-0.8-0.3-1.8-0.2-2.6-0.3c-0.1,0.7-0.4,1.6-0.1,2.2c1.3,2.8,0.7,5.3,0.2,8.2
			c-0.7,3.9-0.3,7.9-0.3,11.9C435.3,59,435.9,59.3,436.2,59.7z M638.4,38.5c-3.1-2.8-6-5.4-8.5-7.7c-2.8,2.5-5.3,4.8-8.1,7.3
			c3,0.5,6,1.2,9.1,1.4C633.3,39.6,635.7,38.9,638.4,38.5z M389.3,35.2c3.3-5.5,3.6-11.3,2.8-17.5c-1.4,0.9-2.4,1.5-3.4,2
			c-1.9,1.1-2.7,2.8-2.2,4.9C387.4,28.2,388.4,31.7,389.3,35.2z M613.9,5.5c-1.9-0.2-3.6-0.2-5.2-0.5c-2.4-0.4-4.7-1-7-1.6
			c-2.2-0.6-4.3-0.7-6.7,1.5c2,0.3,3.5,0.7,5,0.7c1.9,0.1,2.1,0.3,1.2,2.1c-0.3,0.6-0.7,1-1.2,1.6C607.4,10.2,610.4,9.4,613.9,5.5z
			 M559.7,10c2.2,2.1,3.7,3.6,5.2,5c1.2,1,2.5,2,3.8,2.9c0.4,0.2,1.2,0.4,1.3,0.3c0.9-1.3,1.9-2.6,2.5-4c0.5-1.1-0.3-2-1.3-2.8
			C567.8,8.6,564.2,9.9,559.7,10z M387.5,14.5c0,0.5,0,1,0,1.4c0.1,1.3,1.1,1.7,1.9,0.7c2.6-3.2,6.1-5.8,6.7-10.2
			c0.1-0.7,0.2-1.5,0.2-2.2c-0.9,0-2.1-0.3-2.7,0.1C390.2,6.8,387.5,9.8,387.5,14.5z M491.6,29.9c0.3-0.2,1.7-0.4,2-1.1
			c0.4-0.7,0.1-2.3-0.4-2.9c-2.9-3.5-6.1-6.9-9.1-10.3c-1.2-1.4-2-0.2-2.6,0.7c-0.2,0.3,0.2,1.6,0.6,1.8c2.9,1.4,5.1,3.2,5.4,6.7
			c0.1,0.9,0.8,1.9,0.7,2.7C487.9,29.6,489.5,29.5,491.6,29.9z M574.8,14.1c-0.3,2.5-0.5,4.9,1.1,6.7c2.2,2.5,4.7,4.8,7.2,7.1
			c0.3,0.2,1.2-0.1,1.7-0.3c0.2-0.1,0.1-0.9,0-1.3C582.4,21.6,580.5,16.6,574.8,14.1z M622.5,60c-0.3-5.6-3.7-9.4-6.6-13.3
			c-0.2-0.3-0.8-0.6-1.1-0.6c-0.4,0.1-0.8,0.6-1,1c-0.7,2.4-0.5,4.9,1.1,6.9C616.8,56.5,618.9,59,622.5,60z M639.2,61.6
			c-1.7-1.1-3.4-1.7-4.2-2.9c-1.5-2.2-3.4-2.5-5.7-2.4c-1.2,0-2.5-0.5-3.7-0.7c-0.4,0-0.8,0.3-1.1,0.5c-0.1,0.1,0,0.6,0.2,0.9
			C627.5,60.9,632.2,64.8,639.2,61.6z M470.3,22.5c-0.6-1.6-0.9-3.1-1.7-4.2c-0.5-0.7-2-0.6-3-0.8c-3.4-0.7-6.9-1.5-9.4-4.2
			c-0.8-0.8-1.8-0.9-2.4,0.1c-0.6,1,0,1.8,1.1,2.2c0.6,0.2,1.2,0.6,1.8,0.7c2.6,0.2,4.6,1.3,6.2,3.2c1.5,1.8,2.5,1.3,3.7-0.2
			c0.2-0.3,0.8-0.3,1.2-0.4c0.1,0.4,0.4,1,0.2,1.3c-0.7,1.1-1.5,2-2.2,3.1c-0.7,1.1-0.6,2.1,0.3,3c0.3,0.3,1.1,0.5,1.2,0.4
			C468.3,25.4,469.3,23.9,470.3,22.5z M451.4,42.7c-1.4,1.6-2.3,2.5-3,3.6c-0.4,0.6-0.9,1.6-0.7,2.1c1.3,2.7,1.6,5.9,4.2,7.8
			c0.5,0.3,1.1,0.4,1.7,0.6c0.2-0.6,0.6-1.2,0.5-1.7c-0.2-3-0.5-6-1-9C453.1,45.1,452.2,44.1,451.4,42.7z M508.1,38.7
			c0.9-0.8,1.4-1.2,1.8-1.6c3.8-3.2,3.8-5.8,0.2-9.3c-0.8-0.8-1.2-2.2-1.5-3.3c-0.5-1.7-1.5-2.3-3.6-1.9
			C509,27.4,507.2,32.9,508.1,38.7z M567.5,20.5c-1.7-1.4-3.5-2.7-5.2-4.2c-3.2-2.9-3.9-2.9-6.4,0.5c-0.3,0.4-0.2,1.4,0,1.6
			c1.6,1,3.2,2.5,4.9,2.7C562.9,21.4,565.4,23.5,567.5,20.5z M595.5,8.2c-0.1-0.2-0.2-0.6-0.4-0.8c-4.4-4.7-5-4.8-10.3-1.3
			c-1.3,0.9-1.3,1.5,0.1,2.4C588.5,11,592.1,11.3,595.5,8.2z M572.1,3.2c0.8,1.7,3.7,1.9,2.1,4c-1,1.3-0.9,1.7,0.6,1.4
			c4.3-0.9,7.5-3.7,10.8-6.5C581.2,2.6,576.6,1,572.1,3.2z M496.6,3.9c-4.3-0.7-7.5-1.3-10.7-1.8c-0.2,0-0.3,0-0.5,0
			c-2.5,0.8-5,1.7-7.6,2.6C486.5,7.3,487.9,7.3,496.6,3.9z M362.1,8.1c-1.9-1.4-2.9-2.4-4-2.9c-1.8-0.9-3.7-1.7-5.7-2.1
			c-1.8-0.4-2.4,0.7-2,2.6c0.8,3.6,4.3,2.8,6.5,4.2C358.8,11.1,359.4,8.6,362.1,8.1z M572.3,46.9c2.5-3.7,0-7.6,0-11.4
			c0-0.5-0.6-1.2-1.1-1.5c-0.8-0.4-1.7-0.7-2.6-0.6c-0.3,0-0.7,1.4-0.7,2.1c0.2,1.5,0.5,3.1,1.1,4.6
			C569.9,42.4,571.2,44.6,572.3,46.9z M588.7,21.5c0.4,3.4,4.9,8.9,8.3,9.4c1.6,0.3,1.9-0.9,2.4-1.9c0.7-1.4-0.2-2.1-1.3-2.6
			C594.9,24.7,591.7,23,588.7,21.5z M541.4,9.5c-0.2,2.2-0.5,3.6-0.4,4.9c0.1,0.7,1.1,1.7,1.7,1.7c2.9-0.1,5.7-0.4,8.6-0.7
			c0.6-0.1,1.1-0.5,1.6-0.7c-0.4-0.3-0.8-0.8-1.3-1c-1.2-0.4-2.5-0.6-3.6-1.1C545.8,11.7,543.7,10.7,541.4,9.5z M362.7,10.2
			c-2.8,0.8-4.5,2.8-5.7,5.3c-0.6,1.2-0.2,1.8,1.1,1.9c6.6,0.2,6.6,0.2,5.1-6.2C363,10.9,362.8,10.6,362.7,10.2z M429.7,15.2
			c-1.2,2.2-2.5,4.3-3.5,6.5c-0.5,1-0.4,2.4-0.3,3.6c0,0.5,0.7,1,1,1.6c0.4-0.5,0.9-1,1.3-1.6c0.5-0.6,0.8-1.4,1.3-2
			C431.9,20.6,431.8,18,429.7,15.2z M502.6,10.5c-0.2-0.7-0.5-1.4-0.7-2.1c-1.5-5-1.5-4.9-5.4-1.9c-1.6,1.2-1.3,2-0.1,2.9
			c1.2,1,2.5,1.9,3.9,2.7C501.2,12.7,502.6,11.8,502.6,10.5z M465.3,41.1c0.6,2,1.1,3.9,1.8,5.6c0.9,2,1.8,1.8,3,0.2
			c1.6-2.3,1.2-4.6,0.7-7.2C469.2,40.2,467.6,40.6,465.3,41.1z M631.4,13c-0.2-0.3-0.3-0.6-0.6-0.7c-0.9-0.4-1.8-0.7-2.7-1
			c-3.7-1.2-3.7-1.2-4.1,2.8c-0.1,0.6-0.4,1.2-0.6,1.8c-0.2,1.1,0.7,1.8,1.7,1.3c2-1.1,3.9-2.3,5.8-3.4
			C631.2,13.7,631.3,13.3,631.4,13z M419.8,34.4c0.2,0,0.5-0.1,0.7-0.1c-0.1-2.9,0-5.9-0.3-8.8c-0.1-1.7-2-2.7-3.6-2
			c-1.5,0.6-0.9,1.8-0.5,2.8C417.3,29,418.6,31.7,419.8,34.4z M564.8,25c1.7,1.9,3,3.5,4.4,5c0.4,0.4,1.2,0.8,1.6,0.7
			c0.4-0.1,0.8-1,0.7-1.5c-0.3-2.1-0.7-4.2-1.1-6.4C568.6,23.4,567.1,24,564.8,25z M423.8,26.8c-2.1,4-1.3,7.7,0.3,12
			C426.3,34.4,427.7,30.6,423.8,26.8z M601.4,13.7c2.8,1.1,4.5,2,6.3,2.6c1.2,0.4,3.1,0.4,3.2-1.2c0-1.1-1.3-2.4-2.3-3.2
			c-0.5-0.4-1.6-0.3-2.3-0.1C604.9,12.2,603.6,12.8,601.4,13.7z M585.3,17.4c0.1,0,0.6,0,1-0.1c1.7-0.4,2.1-1.8,0.9-3.2
			c-0.3-0.4-0.7-0.7-1-1c-1.4-1.8-2.9-0.4-4.3,0c-0.5,0.2-1.3,1.6-1.2,1.7c1,1,2.1,1.8,3.2,2.6C584.2,17.5,584.6,17.4,585.3,17.4z
			 M405.9,15.7c3.8-1.1,5.6-3.5,7.7-5.5c1.2-1.2,0.6-2.3,0-3.4c-0.6-0.9-1.2-0.9-1.8,0C410,9.5,408.2,12.3,405.9,15.7z M331.3,12.6
			c0.3,0.4,0.6,0.8,0.9,1.2c2.1-1,4.3-1.9,6.3-3c1.3-0.7,2-3,1-4.1c-1.4-1.5-2.1,0.4-2.9,1.1C334.8,9.3,333,11,331.3,12.6z
			 M381.2,22.4c-0.3-1.9-0.3-3.7-0.9-5.3c-0.3-0.8-1.7-1.4-2.6-1.5c-0.7-0.1-1.8,0.8-2,1.5c-0.2,0.6,0.3,1.7,0.8,2.3
			c1,1.2,2.3,2.3,3.4,3.3c0.2,0.2,0.6,0.3,0.9,0.2C381,22.9,381.2,22.5,381.2,22.4z M415.7,20.8c2,0.4,4.1,1.4,5.4-0.4
			c1.3-1.9,1.5-4.3-0.6-6.5C418.8,16.2,417.3,18.4,415.7,20.8z M385.9,10.3c-1.7,0.7-2.9,1.1-4,1.7c-0.4,0.2-0.8,1.1-0.7,1.5
			c0.8,2.7,1.8,5.3,2.8,8.3C384.7,18,385.3,14.6,385.9,10.3z M399.4,18.8c1.5-0.9,3.1-1.5,4-2.7c1.1-1.4,0.4-3.1-0.6-4.5
			c-0.2-0.3-0.9-0.7-1.1-0.6c-0.5,0.3-1.2,0.8-1.3,1.3c-0.1,0.7,0.4,1.5,0.5,2.3c0.2,1.1,0,1.9-1.5,1.7c-0.6-0.1-1.2,0.4-1.8,0.7
			C398.1,17.5,398.6,18,399.4,18.8z M475.5,10.6c0-1.5,0.2-2.3,0-3c-0.7-1.9-3.5-3-2.3-5.7c-0.4-0.1-0.9-0.3-1.1-0.2
			c-2.7,2.5-2.6,4,0.4,6.3C473.3,8.7,474.1,9.5,475.5,10.6z M353.5,15.5c0.5-0.6,1-1.1,1.3-1.8c0.2-0.5,0.3-1.5,0.1-1.6
			c-1.3-0.8-2.7-1.6-4.2-2.1c-0.4-0.1-1.3,0.7-1.7,1.3c-0.3,0.4-0.2,1.5,0.1,1.7C350.4,13.9,351.8,14.6,353.5,15.5z M454.9,34.1
			c-0.6,0.1-1,0.1-1.2,0.3c-2.1,1.1-2.9,4.1-1.7,6.2c0.6,0.9,1.4,0.8,1.9,0c0.8-1.4,1.6-2.8,2-4.2C456.1,35.7,455.3,34.8,454.9,34.1
			z M600.6,12.4c-4.3-1.8-4.6-1.8-11.1,1.3c0.9,0.3,1.8,1,2.3,0.8C594.6,13.4,597.8,14.1,600.6,12.4z M485.3,10.8
			c0,0.2,0,0.4,0.1,0.6c0.3-0.1,0.6-0.2,0.7-0.5c0.1-0.2,0.1-0.7-0.1-0.9c-0.5-0.8-6.7-2.5-7.4-1.9c-0.5,0.4-0.7,1.3-0.7,2
			c0,0.4,0.7,1.1,1.1,1.1C481,11.2,483.1,11,485.3,10.8z M496.1,35.6C496,35.6,496,35.6,496.1,35.6c-0.1-0.6-0.1-1.3-0.1-1.9
			c-0.1-1.5-1.1-1.8-2.3-1.6c-1.6,0.3-1.6,1.4-1,2.5c0.5,1.2,1.1,2.3,1.7,3.4c0.1,0.2,0.6,0.5,0.7,0.4c0.3-0.2,0.7-0.6,0.8-0.9
			C496.1,36.9,496,36.2,496.1,35.6z M430.8,44c-3.7,1.7-3.7,4.9-3.8,9.2C428.9,49.7,431.7,47.9,430.8,44z M375.1,10.5
			c3.4-3.4,3.4-3.4,3.1-6.6c-1.1,0.7-2.5,1.2-3.5,2.2C373.2,7.6,375.2,8.8,375.1,10.5z M542.8,22.2c-0.9-1.2-1.7-2.3-2.6-3.4
			c-0.1-0.1-0.7-0.1-0.8,0.1c-1,1.4-0.5,2.7,0.2,4c0.1,0.1,0.1,0.4,0.2,0.4c0.5,0.2,1.1,0.6,1.5,0.5
			C541.8,23.6,542.1,22.9,542.8,22.2z M416.4,14.7c3.4-3.5,3.4-3.5,1.4-8.9C417.4,8.4,417,11,416.4,14.7z M575.7,11.1
			c2.5,1.4,4.8,1.1,6-0.5c0.1-0.2,0.1-0.7,0-0.8c-0.3-0.3-0.9-0.8-1.1-0.8C579.1,9.6,577.5,10.3,575.7,11.1z M395.1,14.7
			c0.2,0.1,0.4,0.2,0.6,0.3c1.2-1.8,2.5-3.5,3.7-5.3c0.3-0.4,0.2-1.2,0.1-1.7c0-0.2-1-0.4-1-0.4C397.3,9.9,396.2,12.3,395.1,14.7z
			 M393.5,46.8c-1,1.5-1.9,2.8-2.8,4.3C395.2,51.3,395.2,51.3,393.5,46.8z M397.2,33.7c0.3-0.2,0.7-0.5,1-0.7
			c-1.1-1.8-2.2-3.6-3.4-5.5C393.3,30.8,395.2,32.3,397.2,33.7z M449.5,29.4c0.1,1.4,0,2.5,0.2,3.6c0,0.3,0.9,0.7,1,0.6
			c0.8-0.5,1.5-1.1,2-1.9c0.1-0.2-0.7-1.2-1.2-1.6C451.1,29.8,450.5,29.7,449.5,29.4z M620.1,14.4c-0.9,0.3-1.7,0.5-2.3,0.9
			c-0.5,0.3-0.8,0.8-1.1,1.2c0.7,0.3,1.4,0.9,1.9,0.7c0.8-0.3,1.4-1.1,1.9-1.7C620.7,15.5,620.3,14.9,620.1,14.4z M559.3,8.7
			c0.6-0.2,0.9-0.3,1.1-0.4c-0.7-0.4-1.5-0.9-2.2-1.3c-0.1,0-0.3,0.3-0.5,0.5C558.3,8,558.9,8.4,559.3,8.7z M495.2,22.4
			c-0.2-0.5-0.4-1-0.6-1.5c-0.3,0.3-1,0.6-0.9,0.8c0.2,0.7,0.6,1.3,0.9,1.9C494.8,23.3,495,22.9,495.2,22.4z M585.7,22
			c-0.1,0.3-0.3,0.6-0.2,0.8c0.3,0.7,0.7,1.3,1.1,1.9c0.2-0.2,0.5-0.4,0.5-0.5c-0.3-0.7-0.6-1.4-0.9-2C586,22.1,585.8,22,585.7,22z
			 M543.3,7c-0.6-0.4-1-0.7-1.5-0.9c-0.1-0.1-0.4,0.3-0.6,0.4c0.4,0.4,0.8,0.7,1.3,1C542.6,7.6,542.9,7.3,543.3,7z M476.2,54.7
			c0.1-0.3,0.3-0.5,0.3-0.8c0-0.3-0.2-0.5-0.3-0.8c-0.2,0.3-0.4,0.6-0.5,0.9C475.8,54.2,476.1,54.5,476.2,54.7z M462.7,42.1
			c0.1-0.3,0.3-0.5,0.3-0.8c0-0.3-0.2-0.5-0.3-0.8c-0.2,0.3-0.4,0.6-0.5,0.9C462.3,41.6,462.5,41.9,462.7,42.1z M511.4,24.5
			c-0.1-0.2-0.2-0.5-0.3-0.7c-0.1,0.1-0.3,0.2-0.3,0.3c0,0.2,0.2,0.5,0.3,0.7C511.2,24.7,511.3,24.6,511.4,24.5z M527.5,14.2
			c0-0.1,0-0.3-0.1-0.3c-0.1-0.1-0.3-0.1-0.4-0.1c0,0.2,0.1,0.4,0.1,0.6C527.2,14.3,527.3,14.2,527.5,14.2z"/>
		<path d="M144.9,544.2c-2.5,2.3-4.9,4.6-7.4,6.9c-5.3,4.9-11.2,8.6-18.3,10.2c-3.4,0.8-6.9,1.7-10.3,2.1c-5.6,0.6-10.4,3.1-15,6.1
			c-1.4,0.9-2.8,1.7-4.3,2.3c-1,0.4-2.2,0.6-3.3,0.5c-2-0.1-2.6-1.3-1.8-3.3c3.4-9.3,8.2-17.5,16.4-23.3c0.8-0.6,1.6-1.5,0.4-2.3
			c-1.6-1.1-1.1-2.6-1.1-3.9c-0.2-4.8-0.2-9.5-0.7-14.3c-2.5,3.8-3.4,8-4,12.3c-0.3,2.5-0.4,5-0.6,7.5c0,0.2-0.4,0.7-0.6,0.6
			c-0.4,0-1.1-0.2-1.2-0.5c-0.2-1.9-0.7-3.8-0.5-5.7c0.8-6.1,2.5-11.9,4.8-17.6c0.7-1.6,1.8-3,2.8-4.5c0.6-0.9,1.3-1.6,1.6-2.7
			c-2.9,2-5.5,4.1-6.4,7.7c-0.7,2.8-1.6,5.6-2.5,8.3c-1.1,3.2-2.2,6.3-3.4,9.5c-0.1,0.3-0.8,0.7-1.1,0.6c-0.3-0.2-0.7-0.7-0.7-1.1
			c-0.1-0.6,0-1.3,0.2-1.9c2.1-6.2,4.2-12.5,6.3-18.7c0.4-1.2,0.9-2.8,1.8-3.2c4.2-2,3.5-5.4,2.6-8.7c-0.4-1.7-0.2-2.9,1.1-3.8
			c0.4-0.3,1.8-0.2,1.9,0.1c0.9,2,1.5,4.1,2.2,6.3c1.7-0.7,3.4-1.5,5.2-2.1c0.3-0.1,1,0.2,1.2,0.5c0.2,0.3,0.1,1-0.2,1.2
			c-1.2,1.3-2.4,2.6-3.7,3.8c-2.8,2.5-4.1,5.4-1.8,9c2.9-2.4,5.7-5.1,8.7-7.3c6.6-4.9,13.4-9.4,21.4-11.8c2.1-0.6,4.3-0.7,6.9-0.1
			c-1,1.1-2,2.4-3.2,3.3c-3.6,2.8-7,5.7-9.3,9.7c-0.2,0.3-1,0.3-1.5,0.4c-0.1-0.4-0.4-1-0.3-1.3c0.9-1.5,1.7-3.1,2.8-4.4
			c1.5-1.9,3.2-3.6,4.9-5.4c0.1-0.1,0.3-0.1,0.4-0.2c0.1-0.1,0.1-0.2,0.1-0.3c-0.2,0.2-0.3,0.3-0.5,0.5c-1.9,0.4-3.9,0.6-5.5,1.4
			c-8.8,4.5-16.9,10-23.5,17.5c-1,1.1-1.3,2-1.2,3.7c0.4,4.8,0,9.6,0,14.6c4.9-3.4,10.4-6.4,14.2-11.8c2.5-3.5,5.3-6.8,8.1-10.2
			c0.6-0.7,1.5-1.2,2.3-1.6c0.3-0.1,1,0.1,1.2,0.4c0.2,0.2,0.1,0.9-0.2,1.2c-3.6,4.5-7,9.3-11.1,13.3c-3.9,3.8-8.3,7.2-12.9,10.1
			c-7.7,4.9-13.6,11.2-17.1,19.7c-0.6,1.5-1.4,2.9-2.1,4.4c-0.1,0.3-0.1,0.6-0.2,1.4c1.8-0.6,3.7-0.7,5-1.6c7-5.1,15.2-6.8,23.5-8.1
			c7.6-1.2,14-4,19.7-9.3c2.5-2.3,5.1-4.3,7.1-7.2c0.7-1,1.7-2,2.8-2.6c2.6-1.5,4.5-3.5,6.5-5.7c1.6-1.8,3.8-3.2,2-6.1
			c-0.2-0.4-0.1-1,0-1.4c0.8-4.1,1.5-8.2,2.4-12.2c0.3-1.1,0.2-3.1,1.9-2.9c0.9,0.1,1.8,1.6,2.3,2.7c1.3,3,1.3,6.3,1,9.5
			c-0.1,0.6-0.9,1.2-1.3,1.8c-0.5-0.6-1.2-1.1-1.3-1.8c-0.1-0.9,0.3-1.9,0.3-2.8c0-0.7-0.4-1.4-0.9-2.1c-0.3,3.6-2.5,6.9-0.8,11
			c2.5-1.6,4.8-3.3,7.3-4.6c5-2.5,10.1-5,15.4-6.8c2.5-0.9,5.4-0.3,8.2-0.2c1.3,0.1,1.4,1,0.7,2.1c-2,3.1-4,6.2-5.9,9.3
			c-0.6,0.9-0.9,2.1-1,3.2c0,0.6,0.6,1.5,1.2,1.7c2.3,0.7,4.6,1.2,7,1.8c1.8,0.5,2.8-0.2,3.2-1.9c0.3-1.2,0.6-2.5,1.1-3.7
			c1.1-2.3,1.2-4.6,0.3-7c-1.2-3.1-2.5-6.2-3.7-9.3c-0.2-0.5-0.2-1.4,0.1-1.6c0.4-0.3,1.3-0.4,1.7-0.1c1.5,0.9,3,1.9,4.2,3.1
			c1.1,1.1,1.8,2.6,2.7,4c1.3-0.9,2.5-1.8,3.7-2.4c0.9-0.4,2.3-1,2.9-0.6c1.2,0.8,0.5,2-0.3,2.9c-4.4,4.4-4.1,9.9-3.9,15.4
			c0,2.1,0.8,3.1,3,3.6c5.9,1.5,11.7,3.4,17.6,4.9c3.1,0.8,6.3,1.3,9.4,1.8c2.3,0.4,3.7-0.8,4.4-2.8c0.1-0.2,0.2-0.3,0.2-0.4
			c0.7-1.8,2.2-3.8,1.8-5.3c-0.4-1.4-2.9-2.2-4.2-3.5c-1.4-1.5-2.9-3.1-3.8-4.9c-3-6-5.9-12.2-8.7-18.3c-1.2-2.6-2.8-4.9-3.9-7.5
			c-3-7-4-14.5-5.7-21.8c-1.4-6.1-1.6-12.4-2.3-18.6c-0.2-1.4-0.4-2.9-0.6-4.3c-0.1-1.3-0.4-2.6-0.3-3.8c0.8-5.9,2-11.7,2.6-17.6
			c0.4-4.3,0.2-8.7,0.2-13.1c-0.1-9,0.6-18,1.8-26.9c0.5-3.5,0.5-7,1-10.5c0.9-6,2-12,3.1-18c0.9-5,1.5-10.2,2.8-15.1
			c1.6-5.7,3.8-11.2,5.7-16.9c1-2.9,2.1-5.8,2.8-8.7c2.6-10.6,5.2-21.1,7.6-31.8c2.1-9.4,4.4-18.7,5.8-28.2
			c2.2-15.1,6.9-29.6,10.3-44.5c2.7-12.1,7.6-23.5,11.7-35.2c2.3-6.5,3.8-13.2,5.5-19.9c1.8-7.3,3.4-14.7,6.1-21.7
			c2.5-6.6,4.4-13.4,6.5-20.1c1.4-4.4,2.4-9,4.2-13.3c2.6-6.4,3.7-13.3,5.6-19.9c1.9-6.6,4.2-13.1,6.3-19.7c0.9-2.9,1.6-5.9,2.6-8.8
			c2.8-8.2,5.9-16.3,10-24.1c2.2-4.2,3.7-8.5,4.6-13.1c0.5-3,1.8-5.9,3-8.6c2-4.5,4.6-8.8,6.5-13.4c1.1-2.6,3.7-3.5,5-5.7
			c1.3,0,2.6,0,3.9,0c-0.9,0.9-1.5,2.2-2.6,2.7c-2.8,1.4-4.5,3.9-5.7,6.4c-2.7,6-5.7,12-7.3,18.3c-2.3,9-7.2,16.8-10.4,25.4
			c-2.2,6-4.2,12.1-6.3,18.2c-1.2,3.3-2.5,6.6-3.7,10c-2.2,6.5-3.9,13.2-5.5,19.9c-1.6,6.7-4,13.2-6.1,19.7
			c-2.5,7.8-4.7,15.7-7.6,23.4c-4.6,11.7-6.4,24.2-9.9,36.1c-1.9,6.5-4.3,12.8-6.7,19.1c-3.8,9.6-6.4,19.5-8.7,29.5
			c-0.9,4-2,8.1-3.1,12.1c-4,14.9-6.5,30-9.6,45.1c-2.4,11.3-5.4,22.4-7.8,33.7c-2,9.6-5.5,18.8-8.7,28c-2.1,6-3.5,12.2-3.9,18.6
			c-0.3,5.2-2,10.4-3,15.5c-0.6,2.8-1.2,5.6-1.5,8.5c-0.5,4.5-0.8,9-1.1,13.4c-0.3,3.8-0.6,7.7-0.9,11.5c-0.1,1.4-0.3,3,0,4.4
			c1.5,6.8-0.2,13.3-0.9,20c-0.5,4.6-1.5,9.2-1.8,13.8c-0.3,4.4,0.7,8.9,1.1,13.4c0.1,0.6,0.4,1.2,0.4,1.9
			c-0.3,8.6,2.8,16.7,4.1,25.1c0.4,2.6,1.7,5,3.4,7.4c0.1-1.4,0.2-2.7,0.3-4.1c0.2-3.1,1.1-6,3-8.5c0.4-0.6,1.3-0.8,2-1.2
			c0.3,0.7,0.9,1.3,0.9,2c0,3-0.2,6-0.3,8.5c2.8-1.8,5.8-4,8.9-5.8c2.7-1.5,6-1.2,5.6-0.3c-0.6,1.5-1.8,3.2-3.2,3.9
			c-5.2,2.8-8.4,7.3-11.7,12c-1.2,1.6-1.5,3.1-0.7,4.9c2.6,5.5,5.1,11.1,7.8,16.5c0.6,1.3,1.6,2.5,2.7,3.3c3.7,2.7,4.3,2.4,7.1-1.1
			c1.8-2.2,4.1-4,6.3-5.8c0.7-0.5,2-0.3,4.1-0.5c-2.6,2.6-4.4,4.4-6.1,6.2c-0.9,0.9-1.6,2-2.3,3c-0.8,1.2-0.1,1.8,0.9,2.2
			c1.2,0.4,2.5,0.7,3.7,0.9c1,0.2,1.9,0.1,2.2-1.1c1.3-5.5,6.2-8.5,9.1-12.9c0.4-0.6,1.8-1,2.4-0.7c1.3,0.5,1.1,1.6,0.4,2.8
			c-2.1,3.7-4.1,7.6-6.3,11.8c1.7,0.2,2.8,0.4,3.9,0.4c3.6,0,7.2,0.4,10.7-0.1c5.2-0.7,8.9,1.7,12.7,4.4c0.3,0.2,0.6,0.4,0.7,0.6
			c0.6,1.2,2,2.7,1.6,3.6c-0.7,2-2.5,0.3-3.7,0.2c-3.5-0.3-7-1-10.5-0.9c-7.6,0.1-15.1,0.4-22.6,1c-3.3,0.3-6.4,1.8-9.7,2.6
			c-1.8,0.5-3.4,0.9-5.6,0.4c-6.3-1.7-12.9-2.7-19.2-4.3c-4.6-1.2-9.1-3-13.5-4.4c-1.7,1.9,0.5,4.9-2.6,6.3
			c-0.1-2.3-0.2-4.4-0.3-6.4c0-0.2-0.5-0.7-0.6-0.7c-0.4,0.2-0.9,0.4-1,0.7c-0.2,1.3-0.3,2.5-0.4,3.8c0,0.2-0.5,0.5-0.7,0.5
			c-0.2,0-0.7-0.2-0.7-0.4c-0.2-0.9-0.2-1.9-0.4-2.8c-0.2-0.7-0.6-1.3-0.9-1.9c-0.5,0.6-1.2,1.2-1.4,1.8c-0.3,1.4-0.3,2.9-0.6,4.3
			c-0.1,0.5-1,1.2-1.2,1.1c-0.6-0.3-1.4-1-1.4-1.5c0-1.1,0.4-2.2,0.7-3.2c0.7-2.6,0.3-3.3-2.4-3.8c-1.1-0.2-2.3-0.1-3.4-0.2
			c-2.7-0.4-3.5,0.1-2.6,2.3c1.9,5-0.9,9.1-1.8,13.5c-0.4,1.9-1.3,3.6-2.2,5.3c-0.8,1.6-2.8,1.7-3.4,0.2c-1.7-5-5.8-8-9-11.8
			c-1.7-2-2.8-4.6-4.6-7.7c-0.6,2.2-1.1,3.7-1.5,5.3c-0.3,1.2-0.6,2.5-0.9,3.7c-0.2,1-0.7,1.9-1.9,1.7c-1.5-0.4-0.8-1.4-0.5-2.3
			c0.7-2.5,1.3-5,1.8-7.5c0.3-1.3,0.3-2.7-0.4-4.2c-0.7,3.3-1.3,6.5-2.1,9.8c-0.2,0.7-0.9,1.2-1.3,1.8c-0.5-0.7-1.4-1.5-1.4-2.2
			c0.1-1.8,0.6-3.7,0.2-5.8c-1.5,1.5-3,2.9-4.4,4.4C146.9,546.6,145.8,546.1,144.9,544.2c0.3-0.3,0.6-0.7,1-1c0.3-0.3,0.6-0.6,1-1
			c0.3-0.3,0.7-0.6,1-1c0.1-0.1,0.3-0.1,0.4-0.2c0.1-0.1,0.1-0.2,0.1-0.3c-0.2,0.2-0.3,0.3-0.5,0.5c-0.3,0.3-0.6,0.7-1,1
			c-0.3,0.3-0.6,0.6-1,1C145.6,543.5,145.3,543.8,144.9,544.2z M156.6,534.5c0.3-0.3,0.6-0.6,1-1c1-0.6,1.9-1.3,2.9-1.9
			c1.4,0,2.4-0.6,2.9-1.9c3.6-1.9,7.1-3.9,10.7-5.8c0.1-0.1,0.3-0.1,0.4-0.2c0.1-0.1,0.1-0.2,0.1-0.3c-0.2,0.2-0.3,0.3-0.5,0.5
			c-4.3,0.5-7.7,2.8-10.7,5.8c-1.4,0-2.4,0.6-2.9,1.9c-1,0.6-1.9,1.3-2.9,1.9C157.2,533.8,156.9,534.1,156.6,534.5
			c-0.1,0-0.3,0.1-0.4,0.2c-0.1,0.1-0.1,0.2-0.1,0.3C156.2,534.8,156.4,534.6,156.6,534.5z M227.4,500.5c-0.3,0.3-0.6,0.6-1,1
			c-1.3,1.2-2.6,2.3-3.8,3.5c-0.3,0.3-0.1,1-0.2,1.6c0.4-0.3,1-0.4,1.3-0.8c1-1.4,1.8-2.9,2.7-4.3
			C226.8,501.2,227.1,500.9,227.4,500.5c0.2-0.1,0.3-0.3,0.5-0.4C227.7,500.2,227.5,500.4,227.4,500.5z M255.5,533.5
			c-0.3,0.5-0.7,0.9-0.9,1.4c-0.1,0.2,0.2,0.5,0.2,0.8c0.2-0.3,0.5-0.6,0.5-0.9C255.5,534.4,255.5,533.9,255.5,533.5
			c0.3-0.3,0.5-0.6,0.8-0.9c-0.2-0.1-0.3-0.2-0.5-0.3C255.7,532.7,255.6,533.1,255.5,533.5z M195.4,535.4c2.9-3.5,4-7.8,5.3-12
			C197.9,527,196.2,531.1,195.4,535.4c-0.2,0.3-0.5,0.6-0.7,1c0.2,0.1,0.3,0.2,0.5,0.3C195.2,536.3,195.3,535.9,195.4,535.4z
			 M176.5,557c2.9-7.2,4.9-13.7,1.9-20.7c-0.3-0.8-0.3-2,0.1-2.7c1.7-3.3,3.7-6.4,5.5-9.6c0.2-0.4,0.1-1.1,0.2-1.7
			c-0.4,0-0.9,0-1.3,0.1c-6.5,2.4-12.4,6.1-18.3,9.6c-3.7,2.2-3.7,3.4-1.7,7.3C166.1,546,171.9,550.5,176.5,557z M281.4,542.6
			c-3.1-2.7-6.4-3.9-10.1-3.1c-8,1.6-15.9,0.9-23.8-0.7c-3-0.6-3.8-0.2-4.5,2.6c-0.2,0.8-0.3,1.6-0.4,2.4c-0.3,1.8,0.4,2.4,2,1.9
			c1.4-0.5,2.7-1.3,4-1.4c5.3-0.5,10.5-1,15.8-1c5.4,0,10.8-1.1,16.2-0.2C280.8,543.1,280.9,542.9,281.4,542.6z M238.4,546.2
			c0.7-1,1.3-1.4,1.4-1.9c0.1-0.5-0.2-1-0.3-1.5c-0.3,0.5-0.7,1-0.9,1.5C238.4,544.7,238.4,545.2,238.4,546.2z M199.2,522.5
			c-0.7-0.4-1.2-0.8-1.6-0.9c-0.3-0.1-0.6,0.2-0.9,0.4c0.3,0.5,0.6,1,1.1,1.3C197.8,523.4,198.4,522.9,199.2,522.5z M199,536.8
			c0.3-0.6,0.5-1.1,0.7-1.7c0,0-0.4-0.2-0.6-0.3c-0.2,0.5-0.5,1-0.6,1.5C198.4,536.4,198.7,536.6,199,536.8z M223.9,494.1
			c0.1-0.1,0.3-0.1,0.3-0.2c0-0.1,0-0.3,0-0.4c-0.2,0.1-0.3,0.2-0.5,0.3C223.7,493.8,223.9,494,223.9,494.1z"/>
		<path d="M327.3,0c-2,3.3-4.2,6.4-7.2,8.9c-1.2,0.9-2.8,2-1.6,4c-1.5,3.5-1.6,7.9-6,9.8c-1,0.4-1.9,1.8-2.3,2.9
			c-1.3,4.6-5.5,6-9,8.2c-0.6,0.4-1.8,0-2.6-0.4c-0.3-0.1-0.3-1.1-0.3-1.7c0.3-3.5,0.7-6.9,1.1-10.9c-3.2,1.8-5.9,3-8.3,4.7
			c-1.7,1.3-3.1,3.2-4.3,5.1c-1,1.7-2.3,2.6-4,3.2c-0.5,0.2-1.4,0-1.7-0.3c-0.3-0.4-0.5-1.3-0.3-1.7c1.9-2.7,1.8-5.8,1.7-8.8
			c0-0.3,0-0.7-0.1-1c-0.2-0.4-0.3-1-0.7-1.1c-0.3-0.1-1,0.1-1.2,0.4c-1.4,1.5-2.7,3.1-4.1,4.6c-1.5,1.6-2.4,1.6-3.4-0.1
			c-1.4-2.5-2.9-5.1-3.8-7.8c-1.4-4,0.6-7.2,3.6-9.7c0.4-0.3,0.7-0.8,1.1-0.9c4.2-0.9,4.3-3.9,3.7-7.2c1,0,1.9,0,2.9,0
			c0,1.4,0,2.9,0,4.7c1.5-0.7,2.5-1.3,3.5-1.7c2-0.8,0.7-2,0.4-3.1c1,0,1.9,0,2.9,0c0.6,1.1,1.3,1.1,1.9,0c2.3,0,4.5,0,6.8,0
			c0.7,1.3,1.6,2.6,0.3,3.9c-1.3,1.3-1.3,2.8-1.3,4.5c0,3.6-0.8,6.9-2.5,10.1c-0.4,0.8-0.8,1.7-1.1,2.6c-0.1,0.2,0.5,0.6,0.8,0.8
			c1.4-1.4,3.8-2.9,3.9-4.4c0.1-2.3,1.1-3.2,2.6-4c2.8-1.5,4.1-4,5.2-6.7c1.1-2.5,1-2.4-1.7-3.9c-1.3-0.7-2.3-2.1-3.5-3.1
			c2.6,0,5.2,0,7.8,0c0,0.3,0,0.6,0.1,0.9c0.2,0.5,0.4,0.9,0.7,1.4c0.3-0.3,0.7-0.6,0.9-1c0.2-0.4,0.2-0.9,0.3-1.3
			c2.3,0,4.5,0,6.8,0c0,1.4,0,2.9,0.1,4.3c0.1,0.5,0.9,1.3,1,1.2c2.5-1.4,5.8-2,6.6-5.5C324.7,0,326,0,327.3,0z M315.6,9.7
			c-1.8,0-3.3,0.1-2.6-2.6c0.4-1.8,0.4-3.7,0.5-5.6c-3.2,0.5-4.7,2.6-5.4,5.1c-0.7,2.6-2.1,4.6-4,6.4c-1.2,1.1-2.4,2.3-2.4,4.5
			C307.5,16.3,311.8,13.4,315.6,9.7c0.2-0.1,0.3-0.3,0.5-0.5C316,9.4,315.8,9.5,315.6,9.7z M291.4,2.9c-4.8,1.8-9.6,3.4-14.3,5.4
			c-1.4,0.6-2.8,1.7-3.8,2.8c-2,2.1-2.7,4.5-1.2,7.4c3.1,5.7,2.4,6.3,7,0.9C283.5,14.2,287.3,8.4,291.4,2.9c0.1,0,0.3-0.1,0.4-0.2
			c0.1-0.1,0.1-0.2,0.1-0.3C291.7,2.6,291.6,2.7,291.4,2.9z M288.6,11c-1.5,1.9-2.9,3.6-4.2,5.4c-0.3,0.5-0.6,1.2-0.5,1.8
			c0.4,3.5,0.8,6.9,1.3,10.8c0.7-1,1.7-1.8,1.6-2.5c-0.2-2.8,1.7-4.5,2.9-6.7C291.2,16.8,292.3,13.9,288.6,11z M309.4,18
			c-0.5,0.1-0.9,0.2-1.3,0.3c-6.9,2.2-5.9,1.2-6,7.7c0,1-0.1,1.9-0.3,2.9c-0.3,1.2,0.4,1,1,0.8C306.9,28.1,309.8,23,309.4,18z
			 M293.1,5.6c-1.1,1.2-2.1,1.8-2,2.3c0.1,1.1,0.7,2.2,1.2,3.3c0.3-0.9,0.7-1.8,1-2.8C293.4,7.9,293.2,7.2,293.1,5.6z M313.5,17.4
			c0.8-1.2,1.4-2.1,1.9-2.9c-0.2-0.1-0.6-0.4-0.7-0.3c-0.7,0.6-1.3,1.1-1.9,1.8C312.8,16.1,313.2,16.6,313.5,17.4z"/>
	</g>
</g>
</svg>
