<?xml version="1.0" encoding="utf-8"?>
<!-- Generator: Adobe Illustrator 18.0.0, SVG Export Plug-In . SVG Version: 6.00 Build 0)  -->
<!DOCTYPE svg PUBLIC "-//W3C//DTD SVG 1.1//EN" "http://www.w3.org/Graphics/SVG/1.1/DTD/svg11.dtd">
<svg version="1.1" id="Layer_1" xmlns="http://www.w3.org/2000/svg" xmlns:xlink="http://www.w3.org/1999/xlink" x="0px" y="0px"
	 viewBox="0 35 300 230.2" enable-background="new 0 35 300 230.2" xml:space="preserve">
<path d="M261.8,45.9c-0.4-2.4-0.8-4.9-1.2-7.3c-0.1-0.1-0.3-0.3-0.4-0.4l-0.1-0.1c-0.1-0.1-0.2-0.2-0.4-0.4l0,0c-0.5,0-1,0-0.7,0.8
	c0.1,0.3,0.3,0.6,0.4,0.9c-0.8-0.4-1.6-0.6-1.2-1.8c0.2-0.8-0.5-1.5-1.4-1.7c-0.7-0.1-1.2,0-1.2,0.9c0.1,0.1,0.2,0.1,0.3,0.2
	c-0.1-0.1-0.2-0.1-0.3-0.2c-0.9-0.2-1.8-0.3-2.6-0.5c-0.7-0.1-0.1-0.6-0.1-0.8H250c0.6,0.5,1.1,1,1.7,1.5c-0.8,0.6-1.5,0.1-2.2-0.2
	c-0.8-0.4-1.7-0.5-2.6-0.2c-1.1,0.3-2.2,0.5-3.3,0.7c-0.4,0-0.8-0.2-1.3-0.4c-1.2-0.4-0.5-0.9,0-1.4h-7.8c0.5,0.2,0.9,0.5,1.4,0.7
	s1,0.3,1.9,0.5c-1.2,0.1-2,0.1-2.7,0.2c-0.2,0-0.3,0.3-0.4,0.4c0.1,0.1,0.3,0.4,0.5,0.4c2.2,0.3,4.3,0.5,6.5,0.7
	c-1.2,2-2.9,2.4-4.9,1.2c-0.7-0.4-1.2-0.8-1.9-0.4c-0.4,0.2-0.5,0.7-0.8,1.2c-0.7-0.5-1.4-1.1-2-1.5c0.7-1.2,1.4-2.3,2-3.4h-1.4
	c-0.3,0.7-0.5,1.4-0.9,2c-0.6,0.8-1.3,1.6-2.4,0.8c-0.1,0-0.4,0.1-0.6,0.2c0.1,0.2,0.1,0.5,0.3,0.5c0.6,0.2,1.3,0.4,1.9,0.6
	c1.4,0.5,2.3,1.4,2.9,2.7c0.4,0.8,0.8,1.7,1.4,2.7c-1.1,0.1-2.3,0.4-3.3,0.4c-1.6,0-2.1-1.1-1.7-2.7c0.1-0.4,0-1-0.2-1.4
	c-1.1-1.6-2.4-2.9-4.3-3.3c0.1-0.9,0.2-1.7,0.3-2.5h-1.4c0.7,0.8,0.1,1.6-0.1,2.4c0,0.1-0.4,0.2-0.6,0.2c-0.1,0-0.3-0.1-0.4-0.1
	c-2.1-0.4-2.1-0.4-1.6-2.4h-1c0,1.2-0.9,2.3-0.3,3.5c0,0.1-0.2,0.5-0.4,0.6c-0.4,0.2-0.8,0.4-1.3,0.3c-1.4-0.1-2.5,0.2-3.1,1.6
	c0,0.2-0.2,0.4-0.4,0.5c-1,0.8-1.4,0.8-2-0.4c-1.2-2.3-0.8-3.8,1.2-5.3c0.4-0.3,0.6-0.6,0.9-0.9h-1.8c-0.2,0.2-0.4,0.4-0.7,0.6
	c-1.2,1.1-1.3,1.1-2.1-0.6h-0.9c0.5,0.8,1,1.5,1.5,2.3c0.4,0.5,0.5,1.1,0,1.6c-0.5,0.6-1.8,0.6-2.3,0.2c-0.2-0.2-0.4-0.4-0.6-0.7
	c-0.5-1.1-1.5-1.4-2.6-1.6c-0.8-0.1-1.6-0.4-2.4-0.4c-1,0-1-0.7-1-1.4H201c0,0.4,0,0.8,0,1.1c-0.1,0.6-0.5,0.8-1,0.6
	c-0.9-0.3-1.8-0.6-2.7-0.9c0,0,0-0.5,0.1-0.8H196c-0.3,0.5-0.5,1.1-0.8,1.5c-0.5,0.5-0.8,1.5-1.7,1c-0.5-0.2-1-0.7-1.2-1.2
	c-0.2-0.3,0.1-0.8,0.1-1.3H190c-0.5,1.6-2.1,1.7-3.1,2.6c-0.1,0.1-0.5,0-0.6-0.2c-0.8-0.6-1.5-1.3-1.3-2.4h-0.9
	c0.1,0.7,0.2,1.3,0.4,1.9c0,0.1,0.1,0.1,0.1,0.2c0.3,0.8-0.1,2.3-0.8,2.3c-0.9,0-0.8-0.9-1.1-1.4c-0.7-1.1,0.5-1.9,0.5-3h-1.8
	c0.7,1,0.4,2.2,0.4,3.5c-0.8-0.2-1.4-0.5-2-0.6c-0.1,0-0.5,0.1-0.5,0.2c0,0.1,0.1,0.6,0.2,0.6c2.3,0.4,3.1,2.7,4.7,3.9
	c0.1,0.1,0.2,0.2,0.3,0.3c1.2,1.2,1.2,1.4-0.3,2.3c-0.5,0.3-1.1,0.5-1.7,0.7c-0.3,0.1-0.8,0-1-0.1c-0.9-1.1-2-2.2-2-3.8
	c0-0.9-0.1-1.9-0.6-2.6c-1-1.3-1.2-2.7-1.1-4.3h-2.3c0,0.3,0,0.8-0.1,1.1c-0.9,2.4-1.2,2.5-3.5,1.4c-1.3-0.6-0.8-1.6-0.9-2.5h-1
	c-0.2,0.4-0.3,0.4-0.5,0h-1.4c1.5,2.2,1,2.1-0.7,3.4c-0.2-1.2-0.5-2.3-0.7-3.4h-0.9c0.1,1,0.3,2,0.4,3.1c0,0.5-0.4,0.6-0.8,0.3
	c-1.1-0.9-2.2-1.8-2.4-3.4h-1.4c0.2,0.5,0.3,0.9,0.5,1.3c-0.6-0.4-1-0.1-1.4,0.4c-0.7,0.8-1.5,1.6-2.2,2.4c-0.1,0.1-0.1,0.1-0.2,0.2
	v-0.1c0,0,0.1,0,0.2-0.1c0.1-0.3,0.2-0.6,0.2-0.9c0-0.1-0.3-0.4-0.3-0.4c-1.3,0.7-2.5,1.5-3.9,2.2c-0.4,0.2-1,0.7-1.4,0.6
	c-0.7-0.2-1.2-0.8-1.7-1.4c-0.1-0.1,0-0.5,0.1-0.8c0.5-1.5,1.6-2.5,2.8-3.4h-1.4c-0.7,0.8-1.4,1.6-2.3,2.7v-2.7h-0.9c0,1,0,2,0,2.9
	c0,0.2-0.4,0.5-0.5,0.4c-0.2-0.1-0.6-0.4-0.6-0.5c0.1-0.9,0.4-1.8,0.6-2.8h-1.4c0,0.9,0,1.7,0,2.8c-0.6-0.2-0.8-0.4-1.1-0.5
	c-0.4-0.1-0.9-0.3-1.1-0.2c-0.3,0.2-0.4,0.8-0.5,1.2c0,0.3,0.1,0.6,0.2,0.8c0.2,0.4,0.5,0.7,0.8,1.1c0-0.4,0-0.8,0.2-1.1
	c0.1-0.2,0.4-0.5,0.5-0.5c1.7,0.4,3.3,1,4.7,2.1c0.2,0.2,0.4,0.5,0.4,0.8c0,1.7,0,3.5,0,5.2c0,0.2-0.3,0.5-0.5,0.7
	c-0.1-0.2-0.3-0.3-0.4-0.5c-0.3-0.4-0.6-0.7-1-0.1c0,0-0.7-0.2-0.8-0.5c-1-1.5-2.3-2.8-2.7-4.7c-0.1-0.4-0.6-0.8-1.1-1.4
	c0.1,1.4,0.2,2.6,0.2,3.7c0,0.5-0.1,1.1-0.4,1.5c-0.3,0.6-0.9,1-1.5,0.7c-0.4-0.2-0.7-0.8-0.8-1.2c-0.1-1.5-0.3-3.1,1.4-4
	c0.2-0.1,0.2-0.5,0.2-0.8c-0.2,0-0.4,0-0.6,0.1c-0.4,0.1-0.7,0.3-1.3,0.5c0.3-0.8,0.6-1.5,0.7-2.2c0.1-0.8,0-1.5,0-2.3
	c0-0.5,0.3-1,0.4-1.5h-3.2c-0.2,0.4-0.3,0.9-0.6,1.1c-1.2,0.8-2.1,1.6-2.8,2.9c-0.6,1-1.6,1.1-2.6,1c-0.8-0.1-1.1-0.7-0.6-1.3
	c0.6-0.7,1.3-1.3,2-1.9c0.6-0.6,1.3-1.3,1.9-1.9H136c0,1.3-1.4,1.6-2,2.5c0,0.1-0.4,0-0.6,0c0-0.2,0-0.5,0.1-0.6
	c0.5-0.6,1-1.2,1.6-1.8h-1.4c-0.1,0.2-0.1,0.6-0.3,0.8c-1,0.8-1.3,0.7-1.5-0.8h-1.4c0.2,0.8,0.9,1.5,0,2.3c-0.2,0.7-0.3,1.5-0.5,2.2
	c-0.3,1.4-0.7,1.7-2,1.4c-0.5-0.1-0.9-0.6-1.4-0.9c0.3-0.4,0.5-0.9,0.9-1.2c0.9-0.6,2-1,3-1.5c0-0.4,0-1-0.7-0.8
	c-1,0.4-1.9,1-3.2,1.7c0.2-1.2,0.5-2.2,0.7-3.2h-1.4c0.5,0.8,0.6,1.6-0.2,2.4c-0.4-0.8-0.8-1.6-1.1-2.4h-1.4c0.5,1,1.2,2.1,1.6,3.2
	c0.2,0.6,0.1,1.3,0,1.9c-0.4,1.3-0.9,1.5-2.2,0.8c-0.9-0.5-2.1-0.3-2.8-1.3c-0.5-0.8-0.7-1,0.2-1.3c0.8-0.2,1.3-0.6,1.5-1.5
	c0.2-0.7,0.6-1.2,0.8-1.8h-1.4c-0.2,0.6-0.3,1.3-0.6,1.9c-0.1,0.2-0.8,0.2-1.2,0.3c0-0.3-0.1-0.7,0-1c0.1-0.4,0.3-0.8,0.5-1.3h-1.4
	c0,0.4,0,0.8-0.1,1.1c-0.8,0.8-0.7,1.5-0.2,2.4c0.3,0.7,0.3,1.5,0.3,2.2c0,1.2-0.1,1.2-1.5,1.2c-1.3,0-2.5,0-2.9-1.6
	c0-0.2,0.1-0.6,0.3-0.7c0.7-0.2,1.7,0.1,2-0.7c0.4-0.9,0.5-2,0.7-3.1c0-0.3,0-0.6,0-0.9h-1.4c0.9,1.1,0,2.2-0.1,3.2
	c0,0.2-0.8,0.4-1.1,0.4c-2-0.3-2.7-1.3-2.9-3.6h-1.4c0.1,0.3,0.3,0.7,0.4,1c0.1,0.7-0.1,1.1-0.9,1.2c-1.4,0.2-2.7,0.5-3.5,2.6
	c-0.1-1,0-1.5-0.1-1.8c-0.4-1.4,0-2.4,1.6-2.7c0.1,0,0.2-0.2,0.3-0.3h-3.2c0,0.9-0.6,1.2-1.3,1.6c-0.5,0.3-0.8,0.2-1-0.3
	c-0.1-0.4-0.3-0.8-0.4-1.2H101c-0.3,0.5-0.6,0.5-0.9,0h-1.8c1,0.6,2,1.2,3.1,1.8c0.6,0.3,0.6,0.6,0.2,1c-0.7,0.7-1.4,1.4-2.1,2.1
	c-0.7,0.7-1.3,0.6-2,0c-0.3-0.3-0.5-0.6-0.8-0.8c-1.1-0.9-1.9-1.9-1.2-3.4c0.1-0.2,0-0.4,0-0.7h-1.4c1,1.2,0,2.4-0.1,3.5
	c-0.1,1.6-0.8,3.1-1.2,4.6c-0.8,3-2.7,4.9-5.8,6.1c0.8-1.9,1.2-3.8,2.1-5.3c0.8-1.3,2.1-2.2,3.1-3.2c0.3-0.3,0.7-0.7,0.1-1.1
	c-1.6-1.2-1.9-2.8-1.9-4.6H89c0.6,0.9,0.5,1.6-0.3,2.4c-1.5,1.3-2.2,3-2,5c0.1,1.7-0.6,3.1-2,4c-0.2,0.1-0.4,0.4-0.7,0.6
	c-0.7,0.5-1.4,1.1-2.2,1.4c-0.7,0.2-1.5,0-2.2,0c0.3-0.6,0.4-1.2,0.8-1.7c1.5-2.2,3.3-4,6-5.6c-0.7-0.1-1-0.2-1.4-0.3
	c-1-0.4-1.2-0.7-0.8-1.7c0.5-1.4,1-2.8,1.6-4.2h-0.9c-0.2,0.3-0.3,0.4-0.5,0H83c0.3,0.9,1.3,1.6,0.5,2.7c-0.3,0.4-0.5,0.8-0.8,1.2
	c-0.6-0.5-1.6,0-2.1-0.9s-0.9-1.9-0.8-3h-1.4c0.7,1.5,1.5,3,1.9,4.6c0.2,0.6-0.2,1.4-0.6,2c-0.5,0.7-1.2,1.3-1.9,2.1
	c-0.4-1.1-0.5-2.1-1-3c-1-2.1-0.8-3.9,0.6-5.6H76c-0.9,2.2-1,4.6-2.5,6.5c-0.7-1.4-0.9-2.6,0.5-3.9c0.7-0.6,0.8-1.7,1.2-2.6h-1.4
	c-0.3,0.8-0.6,1.7-0.9,2.6h-0.4c-0.3-0.8-0.6-1.7-0.9-2.6h-0.9c0.3,1.3-0.4,2.3-1.4,2.9c-1.1,0.7-2.4,1.2-3.8,1.9
	c0-1.9,0.4-3.4,1-4.8h-0.9c-0.3,1.3-1.4,1.7-2.4,2.1c-0.8,0.3-1.1,0.1-1.2-0.8c0-0.5,0-0.9,0-1.4h-1.4c0,1.9,0.2,3.8-0.6,5.6
	c-0.2,0.4-0.4,0.8-0.7,1.2c-1.7-1.8-2.4-4.5-1.6-6.8h-0.9c-0.2,1.1-0.3,2.1-0.5,3.2c-0.2-0.2-0.4-0.5-0.7-0.7
	c-0.4-0.3-1.2-0.4-1.4-0.8c-0.1-0.5,0.2-1.1,0.3-1.7h-0.9c-0.4,2.3-2,3.4-3.9,4.4c-0.6,0.3-1.2,0.9-1.8,0.1
	c-0.6-0.7-1.3-1.3-0.9-2.4c0.3-0.8,0.7-1.5,1.1-2.2H47c-0.2,1.4-0.2,2.9-0.7,4.2c-0.3,1-1.2,2-2,2.6c-1.5,1.1-3.1,1.8-4.8,2.9
	c0.8-2.4,3-4.9,4.9-5.9c1.5-0.8,1.5-0.8,1-2.5c-0.1-0.4-0.1-0.9-0.2-1.3h-0.9c0.5,2,0.3,2.6-1,3.4c-0.2,0-0.4,0-0.6,0
	c-0.1,0-0.1-0.2-0.1-0.4c0.1-1,0.2-2,0.4-3h-1.4c0.6,1.8,0.3,2.7-1.2,3.6c-1.8,1.1-3.6,2.2-5.5,3.2c-0.7,0.4-1.5,0.6-2.4,1
	c0.7-2.7,2.1-4.5,3.9-6c0.3-0.3,0.8-0.4,1.3-0.4c1.2-0.1,2.2-0.6,3-1.4H38c-0.5,0.2-1,0.5-1.6,0.7c-0.7,0.3-0.7-0.3-0.8-0.7h-0.9
	c0.6,2.1-0.8,3.3-2.1,4.5c-0.5,0.4-1.2,0.8-1.6,1.3c-1.2,1.6-2.9,2-4.7,2.4c-0.5,0.1-1-0.1-1.6-0.2c-0.1,0-0.3-0.2-0.3-0.3
	c0-0.2,0.1-0.5,0.2-0.5c1.6-0.3,2.2-1.6,3.1-2.7c1.4-1.6,3-3,4.5-4.4H29c0.4,0.6,0.3,1.3-0.2,1.6c-1.3,0.8-2.5,1.6-4.1,1.3
	c-1-0.2-1.5-0.8-0.8-1.6c0.5-0.6,1.3-0.9,1.9-1.4h-2.3c-0.5,1.9-0.9,2-2.1,1c-0.2-0.2-0.4-0.5-0.5-0.7h-1.4c0.4,0.5,0.8,0.9,1.1,1.4
	c0.8,0.9,0.8,0.9-0.2,1.6c-0.1,0.1-0.3,0.2-0.8,0.6c-0.4-1.3-0.7-2.4-1-3.6h-1.4c0.7,1.5,1.5,2.9,1.3,4.6c0,0.2-0.3,0.5-0.5,0.7
	c0,0-0.4-0.1-0.5-0.3c-0.4-0.8-1.1-1.3-2-1.6c-1.4-0.6-1.7-2-1.6-3.4h-1.4c0,0.3,0,0.5,0.1,0.8c-0.2-0.3-0.4-0.5-0.6-0.8h-1.4
	c0.2,0.4,0.4,0.8,0.7,1.1c-0.3,0-0.5,0.2-0.8,0.2c-0.7,0-0.8-0.6-0.8-1.1v-0.2H8.6c0.6,1.6,1.5,2.6,3.4,2.4c0.5,0,1.2,0.3,1.6,0.7
	c2.3,3,3.1,7.5-0.8,10.5c-0.3-2-0.8-3.9-1-5.8c-0.1-1.3,0.2-2.5,0.9-3.6c0.1-0.2,0.1-0.5,0.1-0.8c-0.3,0-0.8,0-1,0.1
	c-0.5,0.3-1.1,0.8-1.5,1.2c-1,1.3-2.3,1-3.6,0.8C5.5,40.6,4.9,40,5,38.9c0-0.4,0.3-0.8,0.6-1.2c0.6-0.8,1.1-1.6,1.7-2.4H5.9
	c-0.8,1.3-1.9,2.4-1.7,4.2c0,1.2,0.6,2.5-0.8,3.4c-0.1,0.1,0,0.6,0.1,0.8c0.1,0.8-0.2,1.1-1,1.1c-0.3,0-0.7,0-1,0
	c0.2,0.3,0.4,0.8,0.8,0.9C2.5,45.9,3,45.9,3.5,46c-0.6,1.2-0.7,1.6-0.4,3.4c0,0.3-0.1,0.8-0.4,1c-0.7,0.8-1.4,1.5-2.1,2.1
	c-0.8,0.8-0.8,1.2,0.2,1.6c0.5,0.2,1.2,0.2,1.7,0.1c0.7-0.1,1.3-0.5,1.9-0.7c1.1-0.3,1.5,0.1,1.2,1.3C5.5,55.5,5.4,56,6,56.4
	c0.7,0.4,1.3,0.3,1.9-0.2C8.5,55.6,9,55,9.5,54.4c0.9-1.1,1.5-2.6,2.6-3.4c1.6-1.3,2.9-2.8,3.9-4.7c0.1,0.2,0.2,0.4,0.2,0.5
	c0,0.3-0.2,0.9-0.1,1c0.4,0.1,0.9,0.3,1.3,0.1c0.6-0.2,1.1-0.5,1.6-0.9c1.2-0.9,2.3-2,3.4-3c0.4-0.4,0.7-0.6,1.4-0.2
	c2.3,1.2,2.3,1.2,0.1,2.7c-0.1,0-0.3,0.1-0.4,0.2c-0.9,0.7-0.9,1.2,0,1.7c1.8,1,3.4,0.2,4.9-0.7c0.2-0.1,0.2-0.6,0.3-0.9
	c-0.3,0-0.6,0-0.8,0.1c-1,0.6-2,1.1-3.2,0.9c-0.2,0-0.4-0.2-0.5-0.4c0,0,0.2-0.3,0.3-0.4c0.4-0.4,1-0.8,1.3-1.2
	c0.8-1.2,2-1.7,3.5-2.1c0,1.7,0,3.3,0,5c0,1.6,0,1.8,1.3,1.6c1.2-0.3,1.3,0.3,1.5,1.1c0.2,1.1,0.3,2.2,0.5,3.3
	c0.2,1.3,0.5,1.4,1.6,0.7c1.8-1.2,2.3-3.1,2.5-5.1c0.1-0.9,0-1.8,0-2.7c0-0.8,0.1-1.2,1.1-1.4c2.4-0.3,4.4-1.4,6.3-2.9
	c0.5-0.4,1-0.6,1.8-1.1c-0.5,1.6-0.2,3.2-1.9,4.1c-0.3,0.1-0.5,0.7-0.7,1c0.3,0.1,0.7,0.3,1,0.4c1,0.3,1.3,0.5,1.1,1.5
	c-0.1,0.5-0.3,1-0.6,1.5c-0.3,0.7-0.7,1.3-1,2c-0.1,0.2-0.1,0.6,0,0.6c0.2,0.1,0.6,0.3,0.8,0.2c1.7-0.8,3.7-1.4,4.7-3.4
	c0.4-0.8,1-1,1.9-0.6c1.4,0.6,2.8,0.6,4.3,0.2c-0.5,2-1,3.8-1.5,5.5c-0.1,0.4-0.3,1.1-0.1,1.2c0.4,0.2,0.9,0.3,1.5,0.3
	c0.3,0,0.7-0.3,1-0.5c0.8-0.6,1.6-1.2,2.4-1.7C58.7,56.3,59,58,58,59.7c-0.4,0.7,0.1,1.2,0.8,1.1c0.4,0,0.8-0.2,1.1-0.3
	c3-1.2,4.1-3.7,4.3-6.6c0.1-1.1,0.4-2,1.3-2.7c0.5-0.4,1-0.9,1.5-1.3c0.1-0.1,0.1-0.1,0.2-0.2v0.1c0,0-0.1,0-0.2,0.1
	c0,2.8-0.3,5.5-1.9,8c-0.1,0.2-0.3,0.8-0.2,0.8c0.3,0.2,0.8,0.4,1,0.3c2-0.7,3.7-1.7,4.3-3.9c0.2-0.7,0.2-1.4,0.5-2
	c0.2-0.5,0.6-1,1-1.4c0.1-0.2,0.6-0.3,0.8-0.2c0.2,0.1,0.3,0.5,0.3,0.8c0,0.4,0,0.8-0.1,1.1c-0.3,0.8-0.7,1.7-1,2.5
	c-0.4,1,0,1.6,1,1.3c0.8-0.2,1.6-0.6,2.4-1.1c1.2-0.8,1.6-0.9,2.6-0.1c0.6,0.4,1.1,1,1.9,1.7c0.2-0.9,0.5-1.6,0.6-2.3s0.3-1.1,1-1.4
	c2-0.8,3-2.5,3.6-4.4c0.1-0.4,0.3-0.8,0.6-1.2c0-0.1,0.3-0.2,0.4-0.1c0.1,0.1,0.4,0.4,0.3,0.5c-0.2,0.6-0.8,1.3-0.7,1.8
	c0.1,0.6,0.8,1,1.3,1.5c0.1,0.1,0.1,0.3,0.2,0.4c0.5,1.5,1,3,1.5,4.5c0.2,0.7,0.7,0.8,1.1,0.3c0.3-0.4,0.6-0.9,0.8-1.4
	c0.3-1,0.6-2.2,0.9-3.2c0.1-0.2,0.3-0.4,0.4-0.6c0.9,0.9,1.3,0,1.7-0.5c0.1-0.1,0.3-0.2,0.4-0.4c0.8,1.2,1.2,0,1.8-0.2
	c0.2,0,0.5,0,0.6,0.2c0.8,0.7,1.5,1.3,1.3,2.5c-0.2,1.3,0.5,2.3,1.1,3.4c0.4,0.7,0.9,0.8,1.5,0.3c0.4-0.2,0.6-0.6,0.9-0.9
	c0.3-0.3,0.6-0.5,1.1,0c0.9,0.9,1,0.8,1.5-0.2c0.2-0.4,0.3-0.7,0.4-1.1c0-0.3,0-0.2,0.7-0.3c0.2,0,0.4-0.2,0.6-0.3
	c0.5-0.6,0.9-1.2,1.4-1.8c0.1-0.2,0.4-0.3,0.6-0.5c0.1,0.1,0.3,0.3,0.4,0.5c0.7,1.6,0.8,1.7,2.4,1.2c0.4-0.1,0.8-0.3,1.3-0.6
	c-0.1,1.5-0.2,2.7-0.4,3.9c-0.1,1.2,0.4,1.7,1.5,1.3c0.8-0.2,1.4-1,2.2-1.1c0.7-0.1,1.5,0.5,2.3,0.7c0.7,0.1,1.4,0,2.3,0.1
	c-0.4,0.7-0.6,1.1-0.8,1.5c-0.6,1-0.3,1.5,0.8,1.6c1,0.1,2.1,0,3.1-0.5c1.2-0.7,2.4-1.4,3.6-2c0.3-0.2,0.9,0,1.2,0.1
	c0.5,0.3,0.3,0.8,0.1,1.2c-0.1,0.3-0.2,0.7-0.4,1.1c2.1,0.1,3.7-0.9,5.4-1.3c-0.1,0.1-0.2,0.2-0.3,0.3c1.3-0.3,2.7-0.5,3.7-1.4
	c0.7-0.6,1.3-1.1,2-1.5c0-0.1,0.1-0.2,0.2-0.4c0.8-1,1-2.3,1-3.6c0-2.8,0.1-2.8,3-3.9c0.2,0.6,0.4,1.2,0.4,1.7
	c0,0.4-0.1,0.8-0.3,1.2c-0.8,1-1.6,2-2.4,3c0.8,0.9,1.7,0.9,2.7,0.8c0.5-0.1,1-0.3,1.6-0.4c1.4-0.1,1.5,0,1.4,1.3
	c-0.1,0.9,0.4,1.4,1.1,0.9c0.8-0.5,1.7-1.2,2.1-2c0.6-1.3,1.4-2.4,2.4-3.4c1.1-1,1-1.1,2.1,0c0.2,0.2,0.4,0.4,0.7,0.8
	c-3.3,2.2-6.3,4.8-9,7.6c-6.7,5.6-20.9,18.5-24.8,22.9c-0.9,1-1.9,2-2.6,3.1c-1.9,3-3.7,6.1-5.5,9.1c-0.6,0.9-0.9,1.9-1.6,2.7
	c-1.7,2.3-3.4,4.6-5.2,6.9c-1.6,2.1-3.2,4.4-5,6.4c-3.7,4-6.5,8.6-8.9,13.4c-2.6,5-5.1,10.1-7.6,15.2c-0.4,0.8-1,1.4-1.3,2.2
	c-1.2,3.2-2.4,6.5-3.5,9.8c-0.8,2.3-1.4,4.7-2.4,6.8c-2.1,4.4-4.2,8.7-5.9,13.3c-1.1,3-2.5,5.8-3.5,8.8c-1.4,4.2-2.5,8.6-3.6,12.8
	c-0.7,2.8-1.2,5.6-1.9,8.4c-0.8,2.9-1.1,5.9-2.7,8.6c-0.3,0.7-0.8,1.3-0.9,2c-0.8,2.5-1.6,5-2.1,7.6s-1.5,5.1-2.5,7.5
	s-1.9,4.7-2.2,7.3c0,0.4-0.1,0.8-0.3,1.1c-1.2,1.8-2.5,3.6-3.6,5.5c-1.2,2.1-3.1,3-5.1,3.9c-0.4,0.2-0.9,0.1-1-0.5
	c0-0.3,0-0.6,0-0.9c-0.1-0.4-0.2-1-0.5-1.1c-0.7-0.3-0.9,0.4-1.1,0.9c-0.3,0.8-0.5,1.6-0.8,2.4c-0.1,0.2-0.8,0.5-0.8,0.4
	c-1.2-1.5-3.5-2.4-3.2-4.9c0-0.3-0.3-0.7-0.5-1c-0.2,0.3-0.7,0.6-0.8,1c-0.1,0.5,0,1.1-0.1,1.6c-0.1,0.6-0.2,1.2-0.4,1.7
	c-0.1,0.2-0.6,0.3-0.8,0.3s-0.6-0.3-0.8-0.4c-0.6-0.2-1.2-1.1-1.7-0.4c-0.2,0.2,0.3,1.2,0.7,1.8c0.4,0.7,1.3,1.6,1.2,2
	c-0.2,0.8-1.3,1.2-1.9,1.8c-0.1,0.1-0.3,0.2-0.4,0.3c-0.8,0.6-0.7,1,0.1,1.5c0.4,0.2,0.9,0.5,1.3,0.4c0.8-0.3,1.1,0.1,1.5,0.8
	c0.3,0.6,1.8,0.7,1.8,0.3c0-1,0.6-1.3,1.4-1.4c0.1,0,0.1-0.4,0.2-0.6c0.1,0.1,0.2,0.3,0.2,0.5c0.1,0.7-0.1,1.4,0.8,1.7
	c0.5-2.8,0.5-2.8,2.8-0.8c-1.2,1.4-2.8,2.2-4.5,2.9c-1.2,0.5-2.6,0.8-3.7,1.6c-1.7,1.2-3.5,2.4-5.4,3.3c-0.5,0.2-1.1,0.5-1.6,0.8
	c-0.2,0.1-0.4,0.4-0.4,0.5c0.1,0.3,0.4,0.6,0.6,0.6c0.9,0,1.8,0,2.7-0.1c0.6,0,1.2-0.3,1.8-0.2c1.9,0.2,3.8-0.3,5.5-0.9
	c1.5-0.5,2.9-1,4.3-1.4c0.7-0.2,1.5-0.4,2.2-0.3c2.6,0.2,5.3-0.3,7.8-0.7c3-0.5,2.7,0,2.6,2.4c0,0.1-0.1,0.3-0.1,0.4
	c-0.4,0.8,0.1,1.1,0.7,1.4c1.6,0.8,3.1,1.2,4.8,0.9c3.4-0.7,5.9-3.1,5.3-6.3c0-0.4,0-0.8,0-1.1c1.7,0.2,1.7,0.2,2.8,1.2
	c0.8,0.7,0,1.2,0,1.7c0,0.2,0.1,0.6,0.2,0.6c0.3,0,0.7-0.1,0.8-0.2c0.3-0.9,0.6-1.9,0.8-2.8c0.1-0.6,0.3-0.8,0.9-0.8
	s0.8,0.2,0.9,0.8c0.1,0.5,0.3,1,0.5,1.5c0,0.1,0.6,0.1,0.7,0c0.1-0.2,0.2-0.6,0.2-0.8c-0.6-1-0.9-2.1-0.5-3.3
	c0.1,1.1,0.3,2.2,0.5,3.3c0.2-0.1,0.5-0.2,0.6-0.2c0-1.3,0.6-1.2,1.5-0.9c0.4,0.2,0.9,0.2,1.3,0.3c2.6,0.7,2.6,0.7,2.6,3.4
	c0,0.5,0,0.9,0.1,1.4c0.3,1,0.8,1.7,1.9,2.1c2.7,0.9,4.6,0.1,5.8-2.5c0.2-0.6,0.4-1.1,0.5-1.7s0.1-1.1,0.8-1.1
	c0.7,0,1.2,0.2,1.4,0.9c0.1,0.3,0,0.6,0.1,0.9c0.1,0.2,0.3,0.5,0.4,0.7c0.1-0.2,0.4-0.4,0.5-0.6c0.2-1.7,0.3-3.4,0.5-5.2
	c0.1-0.8,0.3-1.6,0.5-2.4c0.3,1.3,0.4,2.6,0.1,3.8c-0.4,1.8,0.2,3.4,0.4,5.1c0,0.2,0.4,0.3,0.6,0.5c0.1-0.3,0.3-0.6,0.3-0.9v-5.9
	c0.2,0.4,0.2,0.8,0.3,1.2c0.2,1.6,0.5,3.3,0.8,4.9c0,0.2,0.3,0.4,0.5,0.6c0.1-0.3,0.5-0.7,0.4-0.9c-0.5-1.1,0.1-1.2,0.9-1.1
	c0.6,0,1.1,0,1.6,0.1c4.2,1.3,8.5,1.3,12.8,1.3c0.5,0,1.1,0,1.6-0.2c0.4-0.1,0.7-0.6,0.4-1.1c-0.2-0.3-0.5-0.6-0.8-0.8
	c-0.4-0.4-0.4-0.8,0.1-1.1c0.4-0.2,0.7-0.6,0.9-1c1-1.4,0.9-2.5-0.1-3.9c-0.8-1-1.9-1-2.8-1.2c0.2-0.8,0.4-1.4,0.6-2
	c0.2-1,0.5-1.4,1.5-1.1c1.2,0.3,2.3-0.1,3.3-0.5c0.5-0.2,0.6-0.7,0.1-1c-0.8-0.6-1.6-1.1-2.5-1.5c-1.5-0.7-1.5-0.7-0.8-2.2
	c0.4-1,0.8-1.9,1.2-2.9c0.1-0.2,0-0.5,0-0.8c-0.3,0-0.6,0-0.8,0.1c-1.3,0.9-2.1,2.2-2.7,3.6c-0.3,0.7-0.8,0.8-1.5,0.6
	c-0.8-0.4-1.7-0.5-2.5-0.9c-0.5-0.2-1.1-0.6-1.4-1c-0.1-0.1,0.3-0.7,0.5-1.1c0-0.2,0.1-0.5,0-0.6s-0.4-0.2-0.6-0.2s-0.5,0.1-0.7,0.2
	c-1.6,0.6-1.6,0.6-2.7-0.8c-0.2-0.3-0.5-0.6-0.7-0.9c-0.8-1.1-1.7-2.1-2.5-3.2c-1-1.5-1.3-3.2-1.6-4.9c-0.8-4.5-1.8-8.8-1.6-13.4
	c0.1-2.6,0-5.2,0-7.8c0-0.8,0.1-1.5,0.3-2.3c0.4-1.9,0.8-3.8,1.1-5.7s0.7-3.9,1.2-5.7c1.2-4.2,2.6-8.3,3.9-12.5c0.7-2,1.1-4,1.7-6.1
	c0.6-1.8,1.1-3.6,1.8-5.4c1.8-4.3,3.6-8.6,5.5-12.9c2-4.7,4.1-9.2,7-13.4c1.7-2.4,3.3-4.9,4.9-7.4c2-3.3,3.9-6.6,5.9-10
	c1.4-2.4,3-4.7,4.2-7.2c2-3.9,4.9-7.1,7.4-10.5c0.5-0.7,11.8-10.7,12.7-11.7s2.9-4.6,4.9-6.4c2.2-1.9,4.5-3.9,6.8-5.6
	c2.5-2,5.2-3.9,7-6.4c2.8-3.9,6.2-7.1,9.8-10.1c3.5-2.9,6.6-6,9-9.8c0.5-0.7,1.2-1.3,1.9-2c0.2,2.1,0.2,2.1-0.5,3.8
	c-0.1,0.1,0,0.5,0,0.6c0.1,0.1,0.5,0.1,0.6,0c1.6-1.7,3.3-3.3,3.9-5.7c0.2-0.7,0.1-1.6,0.5-1.9c0.5-0.3,1.4,0,2.1,0h0.5
	c1-0.1,1.2-0.4,0.8-1.5c-0.8-2.2-0.6-2.9,1.1-4.4c0.8-0.7,0.9-0.7,1.2,0.2c0.4,0.8,0.8,1.6,1.6,2.1c0.5,0.3,0.8,1,1.1,1.6
	c0.2,0.6,0.3,1.2,0.6,1.7c0.3,0.6,0.7,0.5,1,0.1c0.4-0.6,0.8-1.3,1.2-1.9c0.1-0.3,0.3-0.8,0.3-0.8c0.7,0.2,1.5,0.4,2.1,0.8
	c0.2,0.1,0.3,0.8,0.2,1s-0.7,0.3-0.9,0.2c-0.6-0.3-1.1-0.8-1.6-1.2c0.3,2,1.5,2.8,3.2,2.2c0.7-0.2,1-0.7,0.8-1.4
	c-0.1-0.5-0.3-0.9-0.5-1.4c0.5-0.1,1-0.3,1.5-0.3c1-0.1,1.6-0.8,2.1-1.6c0.4-0.5,0-1.1-0.6-1c-1.5,0.2-2.2-1.3-3.4-1.5
	c-0.1,0-0.3-0.4-0.2-0.6c0-0.1,0.3-0.4,0.5-0.4c1.5-0.1,2.9-0.3,4.3-0.4c0.2,0,0.6,0.2,0.8,0.4c0.3,0.3,0.5,0.8,0.8,1.1
	c1,1,2,0.9,3-0.4c0.1-0.1,0.3-0.2,0.5-0.2c0.7,0.2,1.3,0.5,1.9,0.8c0.2,0.1,0.5,0.5,0.5,0.7c-0.2,2,1.3,2.2,2.6,2.4
	c1,0.1,1.7,0.4,2.4,1.1c0.7,0.6,1.4,1.1,2.1,1.7c0.7,0.6,1,0.5,1.2-0.3c0.1-0.8,0.2-1.5,0.3-2.2c0-0.2,0.2-0.5,0.4-0.6
	c1.2-0.3,2.4-0.5,3.4-0.8c1,1.7,2,3.3,3.1,5c0.2,0.2,0.5,0.5,0.8,0.6c0.2,0,0.5-0.4,0.6-0.6c0.4-1.1,0.7-2.2,0.9-3.2
	c0.1-0.8,0.5-0.9,1.2-1c1,0,1.9-0.2,2.9-0.5c0.7-0.1,0.7-0.8,0.3-1.3c-0.5-0.7-1-1.3-1.6-1.9c0-0.1-0.1-0.1-0.2-0.2h0.1
	c0,0,0,0.1,0.1,0.2c0.3,0.1,0.7,0.3,1.1,0.2c2.1-0.2,4.2-0.5,6.3-0.8c0.4,0,0.8-0.3,1.3-0.4c0.5-0.2,0.5-0.6,0.2-0.9
	c-1.2-1.1-2-2.8-4-3c1.7-0.4,3.2-1,4.3-2.4c0.7-0.9,1.5-0.8,2.4-0.5c1.8,0.7,3.6,1.5,5.7,1.3c0.3,0,0.8,0.3,0.9,0.7
	c1,2.2,3.1,2.9,4.9,3.8C261.5,46.9,261.9,46.6,261.8,45.9z M81.7,40.6c0.1-0.6,0.6-0.7,1-0.2c1.4,1.1,1.4,1.6,0.2,2.9
	c-0.5,0.5-0.8,1-1.2,1.6c-0.2-0.1-0.5-0.3-0.7-0.4C81.2,43.2,81.4,41.9,81.7,40.6z M7.4,41.8c-0.8,0.9-0.8,0.9-2.1,1.5
	C5.9,41.9,5.9,41.9,7.4,41.8z M4.2,46.7c1.7-2.5,3.8-4.5,6.7-6c-0.3,2.2-0.6,4.1-2.4,5.3c-1.1,0.7-2.2,1.3-3.4,1.8
	c-0.3,0.1-0.8,0-1.3,0C4,47.5,4,47.1,4.2,46.7z M3.2,53c-0.6,0-1.3,0.9-1.7,0.1c-0.1-0.2,0.6-0.9,1-1.4c0.3-0.4,0.8-0.7,0.9-1
	c0.5-1.9,2.2-2,3.9-2.5c-0.2,0.6-0.4,0.9-0.4,1.3C6.7,51.7,5.4,52.8,3.2,53z M11.1,46.4c-0.1,1.2-0.1,2.5-0.2,3.7
	c0,0.4-0.1,0.9-0.4,1.3c-0.8,1.2-1.7,2.3-2.6,3.4c-0.1,0.2-0.5,0.3-0.8,0.4c-0.1-0.3-0.4-0.7-0.3-1c0.1-0.8,0.3-1.6,0.6-2.4
	C7.6,51,8.1,50.2,8,49.4c-0.2-1.8,1-2.7,2.2-3.6c0.2-0.1,0.5-0.2,0.8-0.4c0.2,0.3,0.3,0.6,0.5,0.9C11.3,46.4,11.2,46.4,11.1,46.4z
	 M16.5,45.2c-0.1-1.8-0.2-3.4-0.3-5.2C18.1,41.6,17.3,43.3,16.5,45.2z M22.5,42.5c-1.4,1.4-2.9,2.6-4.4,3.9c-0.1,0.1-0.4,0-0.6,0
	c-0.1,0-0.1-0.3-0.1-0.4c0.8-2.4,1.1-5.1,3.4-6.7c0.4-0.3,0.7-0.6,1.1-0.8c0.7-0.4,1.1-0.2,1.2,0.6c0,0.3,0,0.6,0,0.9
	c0,0,0.1,0,0.2,0.1C23.1,40.9,23,41.9,22.5,42.5z M24.3,40.4c0.1-0.5,0.2-1.2,0.4-1.3c0.6-0.2,1.3,0,1.9,0c0,0,0.1,0.6,0,0.7
	c-0.7,0.6-1.3,1.2-2.3,2C24.2,41,24.1,40.7,24.3,40.4z M31.9,48.6c-0.2,0.2-0.8,0.3-1,0.2s-0.4-0.6-0.4-0.9c0-1.5,0-2.9,0-4.3
	c0-0.7,0.2-1.2,0.9-1.5c0.1,0,0.2-0.1,0.2-0.2V42c0,0-0.1,0-0.2,0.1c-0.2,1.6,0,2,1.4,1.9c0.5,0,1-0.2,1.7-0.4
	C34,45.6,33.4,47.3,31.9,48.6z M33.9,54.3c-0.4-1.5-0.8-2.9-1-4.4c-0.1-0.4,0.2-1,0.4-1.5c0.5-0.9,1.1-1.9,1.9-3.1
	C36.8,48.5,36.2,52.2,33.9,54.3z M37.3,44.7c-0.7,0.3-0.8,0.1-1-0.7c-0.3-0.9-0.4-1.3,0.4-1.7c0.9-0.6,1.7-1.2,2.6-1.7
	c0.6-0.3,1.2-0.5,1.8-0.8C40.2,41.9,39.3,43.7,37.3,44.7z M80,44.1c0.4,1.1,0.5,2.2-0.6,3.2c-1,0.9-1.3,2.4-2.6,3
	c-0.5,0.2-1,0.5-1.5,0.4c-0.4-0.1-0.9-0.5-1.2-0.9c-0.1-0.1,0.3-0.8,0.6-1C76.4,47.2,78.2,45.7,80,44.1z M72.3,40
	c0.9,2.8,0.7,3.8-1.6,5.5c-0.6,0.5-1.3,1-1.9,1.5c-0.8-0.9,0-1.8,0.2-2.5C69.7,41.8,69.4,41.7,72.3,40z M72.5,45.8
	c-0.7,0.8-1.3,1.7-2.2,2.9c-0.4-2,1.2-2.2,1.6-3.2C72.2,45.6,72.3,45.7,72.5,45.8z M60.3,44.3c0.9-0.8,2-1.3,3.3-1.3
	c0.8,0,1.2-0.5,0.7-1.3c-1,0.2-2,0.4-3.1,0.8c0.2-0.8,0.6-1.4,0.6-2c0.1-1.5,1-2,2.3-2.2c0.3,0,0.8,0,1,0.1c0.2,0.2,0.2,0.8,0.1,1
	c-0.2,0.5-0.7,0.8-0.9,1.3c-0.1,0.2,0,0.7,0.1,1c0.7-0.3,1.4-0.7,2.1-0.9c1.7-0.5,3.2-1.2,4.4-2.6c0.2-0.3,0.7-0.8,1-0.2
	c0.2,0.3,0,0.8-0.1,1.2c-0.1,0.2-0.4,0.4-0.7,0.5c-1,0.6-1.8,1.3-2.3,2.4c-0.2,0.5-1.8,1-2.3,0.8c-0.1-0.1-0.1-0.5-0.2-0.8
	c0-0.1-0.2-0.4-0.3-0.4c-0.2,0-0.5,0.1-0.6,0.2c-0.1,0.5,0,1.1-0.3,1.5c-0.9,1.7-2.1,3.3-3.9,4.3c-1.2,0.7-1.9,0.4-3.1-0.8
	C58.8,46,59.5,45.1,60.3,44.3z M62.4,48.5c-0.2,0.3-0.5,0.7-0.8,1c-0.3,0.2-0.5,0.9-0.9,0.3c0-0.1,0.3-0.7,0.6-1
	c0.2-0.2,0.6-0.4,0.8-0.6L62.4,48.5z M57,38.6c0.3,0.9,0.5,1.7,0.7,2.6c0,0.2-0.5,0.5-0.7,0.7c-0.1-0.2-0.4-0.5-0.4-0.8
	C56.6,40.3,56.8,39.5,57,38.6z M47.3,41.2c0-0.1,0.5-0.2,0.7-0.3c0,0.3,0.1,0.6,0,0.8c-0.2,0.4-0.5,0.7-0.8,1c-0.1,0-0.2,0-0.3-0.1
	C47,42.1,47.1,41.6,47.3,41.2z M48.2,49.6c-0.2,0.5-0.6,1-1,1.4c-0.4,0.3-0.9,0.4-1.4,0.6c0.1-0.5,0.1-0.9,0.2-1.4
	c0.1-0.5,0.3-1,0.4-1.5c0.3-1.3,1.1-1.8,2.6-2C48.7,47.8,48.6,48.7,48.2,49.6z M46,46.2c-0.1,0-0.1,0.1-0.2,0.2v-0.1
	C45.8,46.3,46,46.3,46,46.2c0.4-1.5,1.4-2.5,2.4-3.5c1.4-1.4,3-2.5,4.6-3.7c0.2-0.2,0.5-0.5,0.8-0.5c0.7,0,1.5-0.2,2,0.1
	c0.7,0.4,0.2,1.2,0,1.8c-0.4,1.6-1.6,2.7-2.9,3.3C50.7,44.9,48.5,46.1,46,46.2z M54.9,48.5c-1,0.6-2,0.4-3-0.1
	c-0.5-0.2-1.1-0.5-1.9-0.8c0.6-0.4,0.9-0.7,1.4-0.9c1.6-0.7,2.9-1.6,4-2.8c0.3-0.3,0.8-0.7,1.3-0.8c0.7-0.1,1.6-0.3,1.3,1
	c0,0,0.5,0.2,0.8,0.3c0.1-0.1,0.2-0.1,0.2-0.2c0,0.1-0.1,0.2-0.2,0.2c0,0.9-0.7,1.2-1.4,1.6c-0.3,0.2-0.8,0.5-0.8,0.7
	C57.1,48.2,55.7,48.1,54.9,48.5z M55,55.4c0.8-2.2,1.4-4,2-5.9c0.3-0.8,0.9-1.1,1.8-0.8c0.6,0.3,0.8,0.6,0.7,1.4
	C58.8,52.8,57.7,54.3,55,55.4z M59.5,53.1c0.1-0.1,0.1-0.1,0.2-0.2V53C59.7,53,59.6,53,59.5,53.1c-0.2,0.2-0.3,0.3-0.5,0.5
	C59.2,53.4,59.4,53.2,59.5,53.1z M60.3,59.1c-0.2,0.1-0.5,0.1-0.8,0.1c0-0.2,0-0.4,0-0.6c0.1-0.4,0.2-0.8,0.3-1.2
	c0-0.7-0.1-1.3,0-1.9c0.2-1.3,1.6-2.4,2.9-2.3c0.2,0,0.5,0.5,0.6,0.8C63.5,55.8,62,58.2,60.3,59.1z M64.8,50.5
	c-0.8,0.7-1.7,1.2-2.6,1.6c-0.2,0.1-0.6-0.2-0.9-0.3c0.1-0.2,0.2-0.6,0.4-0.8c1-0.9,1.6-2.1,2.3-3.3c0.6-1.2,1.6-2.2,2.4-3.2
	c0.2-0.3,0.9-0.5,1.2-0.4c0.3,0.1,0.4,0.7,0.6,1.2C66.8,47,66.4,49.1,64.8,50.5z M70.1,52c-0.6,2.1-0.8,4.5-3.2,5.3
	c0.4-2.2,0.7-4.5,1.1-6.7c0.1-0.5,0.2-1,0.5-1.5c0.1-0.2,0.5-0.4,0.6-0.4c0.2,0.1,0.5,0.5,0.4,0.7c-0.3,0.7-0.1,1.3,0.4,1.8
	C70,51.4,70.1,51.7,70.1,52z M70.1,50.5c0.8-1.1,1.2-1.9,1.8-2.5c1.4-1.4,2-3.1,2.7-4.8c0.1-0.3,0.1-0.6,0.3-0.8
	c0.3-0.4,0.7-0.8,1-1.3c0.3,0.5,0.8,1,0.9,1.5c0.3,1.6,0.3,3.2-1.2,4.5c-1,0.9-2.7,1.3-2.9,3C72,50.1,71.3,50.3,70.1,50.5z
	 M72.9,56.2c0.4-1.7,0.7-3.1,1-4.6c0.9,0.1,1.8,0.1,2.9,0.2C76.2,53.9,75.3,55,72.9,56.2z M77.9,54.8c-0.7-0.2-1-0.6-0.7-1.4
	c0.3-0.8,0.6-1.6,0.8-2.5c1.8,1.1,1,2.7,1.2,4.1C78.7,55,78.3,54.9,77.9,54.8z M79.8,50.9c-0.3-0.2-0.5-0.5-0.7-0.8
	c0-0.1,0.1-0.1,0.1-0.2c0.3,0.1,0.7,0.2,0.9,0.4c0.2,0.1,0.3,0.4,0.4,0.7C80.3,50.9,80,51,79.8,50.9z M81.4,53
	c-0.1-2.5,0-2.7,2.4-3.4C83.5,51.2,82.4,52,81.4,53z M88,41.6c0.5-1.2,0.6-2.5,2-3.4c0.2,0.4,0.4,0.7,0.6,1c0.3,0.5,0.8,1.3,0.7,1.5
	c-0.6,0.8-1.4,1.4-2.2,1.8C88.4,42.8,87.8,42.2,88,41.6z M88.2,44.2L88.2,44.2c0,0.1-0.1,0.2-0.2,0.2C88,44.3,88.1,44.3,88.2,44.2z
	 M86.6,46.7c0.2-0.3,0.5-0.6,0.8-0.9c-0.1,0.4-0.1,0.8-0.2,1.2c0,0.1-0.3,0.2-0.5,0.3C86.7,47.1,86.5,46.8,86.6,46.7z M89.2,55.8
	c-0.6-1.5-1-2.6-1.5-3.7c-0.4-1.1-0.3-1.4,0.7-2c0.7-0.4,1.3-0.8,2.2-1.2C90.4,51.4,90.4,53.5,89.2,55.8z M92.8,50.2
	c-0.1,0.1-0.4,0.3-0.5,0.3c-0.2,0-0.4-0.2-0.5-0.4c-0.3-1-0.8-2.1,0.5-3c0.4-0.2,0.7-0.7,1.1-1.2C93.5,47.5,93.7,48.9,92.8,50.2z
	 M146.4,48.2c-0.9,0.6-1.8,1.2-2.7,1.8c-0.4,0.2-0.6,1.1-1.2,0.4c-0.5-0.6-0.4-1.4,0.2-1.8C143.9,47.8,145.1,47,146.4,48.2z
	 M137.9,39.9c0.6-0.7,1.1-1.5,1.8-2c0.8-0.5,1.6-0.8,1.9-1.8c0-0.1,0.4-0.3,0.5-0.3c0.2,0.1,0.4,0.4,0.5,0.7c0,0.4,0,0.8,0,0.8
	c0,3-0.6,3.8-3.1,4.5c-0.5,0.2-1,0.4-1.4-0.2C137.9,41.1,137.4,40.5,137.9,39.9z M138.9,43.5c-0.3,0.1-0.6,0.2-0.8,0.3
	c0-0.1-0.1-0.3,0-0.4c0.1-0.1,0.4-0.2,0.6-0.3C138.6,43.1,138.7,43.3,138.9,43.5z M134.5,41.8c0,0.1,0.1,0.3,0.1,0.3
	c-0.1,0.1-0.2,0.1-0.4,0.2c0-0.1-0.1-0.3-0.1-0.4C134.2,41.9,134.4,41.8,134.5,41.8z M135.4,42.9c0.2-0.2,0.9-0.2,1-0.1
	c0.3,0.5,0.6,1.1,0.5,1.6c-0.2,0.7-1,1.3-1,2c-0.1,1.4-1.1,2.1-2,2.9c-0.4,0.3-0.9,0.4-1.4,0.7C131.6,46,132.8,45.3,135.4,42.9z
	 M131.8,37.9c0.2,0,0.3-0.1,0.5-0.1c0.3,0.6,0.8,1.1,0.8,1.6c0,1.5,0.5,3-0.5,4.4c-0.8-1.3-0.4-2.8-1.1-4
	C131.2,39.4,131.7,38.5,131.8,37.9z M131.2,45.9c0,0.4,0.1,0.8,0.1,1.1c0,0.4,0,0.8-0.1,1.4c-0.4-0.6-0.4-1.4-1.3-1.3
	c0.1,0.5,0.1,1,0.3,1.5c0.6,2.1-0.2,3.7-1.7,5c-0.1,0.1-0.4,0.1-0.6,0.1c-0.1,0-0.2-0.3-0.2-0.4c0.4-2.2-0.5-4.8,2.2-6.3
	c0.1-0.2,0.1-0.4,0.3-0.6C130.5,46.3,130.9,46.1,131.2,45.9z M129.1,42.8c0.1-0.2,0.7-0.1,1,0c0.1,0.1,0.3,0.6,0.2,0.8
	c-0.3,1.3-0.7,2.6-1.6,3.6c-1.5,1.6-3.1,3-5.5,4.1c1.2-2,2-3.7,3.1-5.3C127,44.9,128.1,43.8,129.1,42.8z M127.2,51.1
	c-0.2,0.2-0.3,0.4-0.4,0.6c-0.4,0.4-0.8,0.7-1.2,1c-0.3,0.2-0.3,1-0.9,0.5c-0.2-0.1-0.1-0.9,0.1-1.2c0.5-0.6,1-1,1.6-1.5
	C126.5,50.6,126.9,50.9,127.2,51.1z M122,54.8c0.3-0.4,0.8-0.6,1.1-0.9c0.3,0.1,0.4,0.1,0.5,0.2c0.1,0.1,0,0.3,0,0.4
	c-0.2,0.4-0.4,0.8-0.8,1.1s-1.1,0.6-1.3,0.4C121,55.5,121.7,55.2,122,54.8z M121.9,53.8c0.1-0.1,0.1-0.2,0.2-0.2
	c0-0.2,0-0.4,0.2-0.7c0-0.1,0.2-0.1,0.3-0.2c0,0.2,0.1,0.4,0,0.5c-0.1,0.2-0.3,0.2-0.5,0.4L121.9,53.8z M124.1,45.1
	c-0.1-0.7,1.1-1.7,1.8-1.5c0.2,0.1,0.3,0.6,0.2,0.8c-0.4,0.8-0.8,1.4-1.5,2.3C124.5,45.9,124.2,45.6,124.1,45.1z M123.4,42.8
	c0.9-0.3,1.9-0.4,2.6-1.3c0.3-0.4,1.7,0.2,1.8,0.8c0,0.1-0.1,0.4-0.3,0.5c-0.2,0.1-0.6,0.2-0.8,0.2c-1.3-0.8-2.1,0.2-3.1,0.6
	c-0.2,0-0.4,0-0.6,0C123.3,43.3,123.3,42.8,123.4,42.8z M123.2,45.7c0.9,1.5,0.8,2.9-0.3,4.3c-0.8,1-1.4,2.4-2.1,3.5
	c-0.1,0.2-0.6,0.3-0.9,0.5c-0.1,0.1-0.3,0.2-0.5,0.4c0-0.1-0.1-0.1-0.1-0.2c0.2,0,0.4-0.1,0.6-0.1c0-0.3-0.1-0.6-0.2-0.9
	c-0.6-1.9-0.3-3.5,1.2-4.9C121.7,47.4,122.4,46.5,123.2,45.7z M119.5,41.8c0.2-0.2,0.6-0.4,0.8-0.5c0,0.1,0.1,0.2,0.2,0.4
	c-0.3,0.2-0.6,0.4-0.8,0.7C119.6,42.2,119.4,41.9,119.5,41.8z M119.7,43.6c0.3-0.2,0.6-0.4,0.9-0.6c0.4-0.2,0.9-0.4,1.3-0.6
	c0.1,0.4,0.2,0.8,0.3,1.4c-0.1,0.6-0.2,1.3-0.5,1.8c-0.4,0.7-1,1.2-1.6,1.8c-0.2-0.3-0.6-0.6-0.7-1
	C119.1,45.4,118.6,44.4,119.7,43.6z M115.8,43.6c1.7,0.7,2.3,2,2.8,3.3c0.6,1.3,0.3,2.5-0.1,3.7c-0.3,0.8-0.9,0.6-1.5,0.6
	c-1.8,0-2.6-0.8-1.9-2.3C115.8,47.3,115.8,45.6,115.8,43.6z M98.8,46.5c0.6-0.7,1.7-0.8,2.6-1c0.1,0,0.6,0.7,0.7,1
	c0.3,1.8-0.2,3.4-2,4.5c-0.5-0.8-1.1-1.5-1.4-2.2C98.5,48.1,98.3,46.9,98.8,46.5z M95.7,49.6c-0.3,0.4-1,0.1-1.2-0.5
	c-0.1-0.4-0.1-0.8-0.1-1.1c0-1.7-0.1-3.5,0-5.2c0-1.1,0.3-2.2,0.6-3.6c1.5,1.2,2.6,2.1,2.6,3.8c0,0.7,0,1.5-0.1,2.2
	c0,0.4-0.4,0.9-0.2,1.3C97.7,48,96.4,48.7,95.7,49.6z M97.6,51c-0.3-0.2-0.7-0.5-0.8-0.8c-0.1-0.3,0.1-0.7,0.2-1
	c0.3,0.1,0.7,0.1,0.9,0.3c0.2,0.2,0.3,0.7,0.5,0.9c-0.1,0.2-0.1,0.4-0.3,0.5C98,51,97.7,51.1,97.6,51z M100.5,55.4
	c-0.5,0.8-0.9,0.9-1.5,0.1c-0.6-0.7-1.1-1.5-0.6-2.4c0.2-0.4,0.2-0.8,0.3-1.3c1.5,1.2,1.5,1.2,2.7-0.3c0.2-0.2,0.6-0.3,0.8-0.4
	c0,0.3,0.3,0.8,0.1,1C101.7,53.2,101.1,54.3,100.5,55.4z M102.9,54.8c0,0.1-0.5,0.4-0.6,0.3c-0.2-0.1-0.5-0.5-0.4-0.6
	c0.2-0.5,0.5-0.8,0.8-1.3c0.1,0,0.2,0,0.3,0.1C102.9,53.8,103,54.3,102.9,54.8z M103.7,51c-1.5-0.9-0.8-2.2-0.6-3.3
	c0-0.2,0.6-0.3,0.8-0.5c0.1,0.2,0.4,0.5,0.3,0.7C104.1,49,103.9,50,103.7,51z M103.9,43.9c0,0,0.1-0.1,0.2-0.2v0.1
	C104.1,43.8,104,43.9,103.9,43.9c-0.2,0.7-0.4,1.3-0.6,1.8C102.5,44.6,102.5,44.6,103.9,43.9z M102.4,43.5c-1.1,0.6-2.2,1.1-3.6,1.8
	c0.3-1.5,0.5-2.5,1.3-3.3l0.1-0.1c0.1-2.5,2.5-3.1,4-4.4c0.6-0.5,1-0.4,1,0.4C105.5,40.6,104.5,42.3,102.4,43.5z M106.1,51.3
	c0,0.1-0.4,0.4-0.5,0.3c-0.3,0-0.6-0.2-0.7-0.4c-0.1-0.6-0.2-1.3,0-1.8c0.5-1.2,1.2-2.3,1.9-3.4c0.1,0,0.2,0,0.3,0.1
	C106.8,47.8,106.5,49.6,106.1,51.3z M104.6,45.5c0.4-1,0.8-2,1.2-2.9c0.5-0.9,1.2-1.7,1.7-2.6c0.8-1.3,2.2-1.5,3.5-1.7
	c0.1,0,0.3,0.2,0.5,0.4c-1,2-0.9,4.6-3.5,5.6c-0.2,0.1-0.4,0.2-0.6,0.3C106.5,44.8,105.8,45.9,104.6,45.5z M109.1,50.4
	c-0.2,0.6-0.5,1.1-0.8,1.8c-0.3-0.5-0.6-0.8-0.7-1c-0.4-0.8-0.1-1.4,0.8-1.6C108.8,49.5,109.3,49.9,109.1,50.4z M113.3,56.9
	c-0.4,0.3-0.9,0.3-1.4,0.5c-0.1-0.4-0.2-0.8-0.3-1.3c0.2-1.3,0.4-2.5,0.7-3.7c0-0.3,0.7-0.4,1-0.5c0.1,0.3,0.2,0.7,0.2,0.9
	c0,0.4-0.3,0.7-0.4,1c0,0.2,0,0.6,0.2,0.8C114.2,55.8,114.2,56.3,113.3,56.9z M113.3,49.8c-0.9,1.5-2.1,2.5-3.9,3.2
	c0.1-0.7,0.2-1.1,0.4-1.6c0.3-1,0.8-2,0.9-3c0.3-1.9,1.4-3.2,3.2-4c0.2-0.1,0.3-0.6,0.5-0.9c-1.3-0.1-2.2,0.5-2.9,1.4
	c-0.8,0.9-1.4,1.9-2.2,2.8c-0.2,0.3-0.6,0.4-0.9,0.6c-0.1,0-0.4,0.1-0.4,0c-0.1-0.1-0.3-0.4-0.2-0.6c0.4-1.3,0.3-2.8,1.9-3.5
	c1.3-0.6,1.7-2,2-3.4c0.1-0.4,0.2-0.8,0.5-1.2c0-0.1,0.7,0,0.7,0c0.6,1.3,1,2.5,1.6,3.8c0.8,1.1,0.4,2.3,0.4,3.5c0,0.1,0,0.2,0,0.2
	C113.4,47.5,113.9,48.9,113.3,49.8z M114.6,53c0.4-0.3,0.8-0.5,1.2-0.7c0,0,0.1,0.2,0.3,0.4c-0.5,0.2-0.9,0.4-1.4,0.7
	C114.7,53.2,114.6,53,114.6,53z M115.5,54c0.3-0.5,0.8-1,1.2-1.5c0.3-0.2,0.8-0.2,1.2-0.3c0,0,0.3,0.6,0.2,0.6
	c-0.8,0.8-1.7,1.6-3,2.5C115.4,54.7,115.4,54.3,115.5,54z M116.6,57.1c-0.8,0-1-0.7-0.5-1.3c0.6-0.7,1.2-1.2,2.2-2.2
	c-0.1,0.8-0.2,1.3-0.2,1.6c0,0.7,0.2,1,0.9,0.8c0.2,0,0.4,0.3,0.7,0.4c-0.2,0.2-0.4,0.5-0.6,0.6C118.2,57.1,117.4,57.1,116.6,57.1z
	 M119.1,60.1c0.2-0.6,0.2-1.2,0.5-1.7c0.2-0.4,0.7-0.8,1.1-1.1c0.2,0.3,0.4,0.8,0.7,1c0.4,0.4,0.9,0.7,1.5,1
	C121.7,59.9,120.6,60.8,119.1,60.1z M122.5,58c0.6-0.9,1.1-1.8,1.7-2.5c0.7-0.8,1.5-1.5,2.3-2.2c0.5,2.2,0.5,2.2,1.9,2.3
	C127,57.8,124.9,58.2,122.5,58z M128.9,59.9c-0.2,0-0.4-0.1-0.6-0.2c0.2-0.1,0.4-0.2,0.5-0.2c0.2,0,0.5,0.1,0.7,0.2
	C129.4,59.8,129.2,59.8,128.9,59.9z M130.4,58.1c-0.7,0.4-1.7,0.2-2.6,0.2l-0.2-0.6c1.3-0.6,1.6-2,2.4-3.6c0.2,0.8,0.3,1.3,0.5,1.8
	C130.8,56.7,131.2,57.7,130.4,58.1z M132.7,51.2c0.5-0.4,1-0.8,1.7-1.3c0,0.9-0.3,1.4-0.8,1.8c0,0.1-0.1,0.1-0.2,0.2v-0.1
	c0,0,0.1,0,0.2-0.1C133.3,51.5,133,51.4,132.7,51.2c-0.5,0.8-0.9,1.5-1.6,2.4C131,51.5,131,51.5,132.7,51.2z M134.4,54
	c-0.1,0.2-0.2,0.4-0.4,0.5c-0.1,0-0.3,0-0.5,0c0.1-0.1,0.1-0.3,0.2-0.3C134,54,134.3,54,134.4,54z M131.4,57.2c-0.1-0.4,0-0.8,0-1.1
	c0-0.2,0-0.4,0-0.6c0-0.5,0-1,0.7-0.9c0.7,0,0.5,0.5,0.4,0.9c-0.1,0.6,0,1.1,0,1.7c0,0.3-0.4,0.5-0.7,0.8
	C131.6,57.7,131.4,57.5,131.4,57.2z M132.5,59c0.7-1.8,0.7-1.8,3.1-1.6C134.7,58.3,133.6,58.6,132.5,59z M135.1,55.9
	c-0.4,0-0.8,0.1-1.2,0.2c0-0.1,0-0.2-0.1-0.3c0.9-0.7,1.7-1.3,2.6-2c0.1,0,0.2,0.1,0.3,0.2C137.3,55.9,137.2,56,135.1,55.9z
	 M134.9,53.5c0.1-0.1,0.1-0.1,0.2-0.2C135.1,53.4,135,53.5,134.9,53.5z M138.6,49.6c-0.2,0.3-0.6,0.5-0.9,0.7
	c-1.1,0.8-2.1,1.6-3.2,2.3c-0.1-0.1-0.2-0.2-0.3-0.3c0.8-1.1,1.6-2.3,2.4-3.5c0.6-0.9,1.5-1.7,1.2-3c0-0.2,0.2-0.6,0.4-0.8
	c1.3-1.1,2.5-2.3,4.6-3.1c-0.9,1.7-1.6,3-2.3,4.3c-0.3,0.6-0.8,1.1-1.1,1.7C139.1,48.5,138.9,49.1,138.6,49.6z M140.5,48.5
	c0.5-1.1,0.9-2,1.5-3.2C142.7,47.5,142.7,47.5,140.5,48.5z M143.5,53.3c-0.5,1.3-1.3,2-3,1.4c1-2.1,2.8-3.3,4.5-4.6
	C144.5,51.1,143.9,52.2,143.5,53.3z M146.6,55.7c-0.3,0.3-0.6,0.6-0.9,0.8c-0.1-0.1-0.2-0.1-0.3-0.2c0.2-0.4,0.4-0.8,0.7-1.2
	c0.1-0.1,0.5,0,0.8-0.1C146.8,55.2,146.8,55.5,146.6,55.7z M148.2,52.5c-0.1-0.1-0.1-0.2-0.2-0.3c-0.2,0.2-0.6,0.5-0.5,0.7
	c0.3,0.7-0.2,0.8-0.6,0.9c-0.8,0.2-1.6,1-2.3,0.3s0.2-1.4,0.5-2c0.5-0.9,1-1.8,1.6-2.7c0.3-0.4,0.7-0.5,1,0.1s0.8,1.1,1.1,1.7
	c0.1,0.3,0.3,0.6,0.4,0.9C148.9,52.2,148.5,52.3,148.2,52.5z M149.5,50.2c-1-1.2-1.8-2.3-2.7-3.3c-0.6-0.8-0.2-1.2,0.2-1.9
	c0.9,1.1,1.8,2.2,2.6,3.3C150,48.8,149.9,48.9,149.5,50.2z M30.4,251.3c-0.4,0.2-0.8,0.3-1.3,0.5c0,0-0.1,0-0.2-0.1
	c0.1-0.1,0.2-0.2,0.2-0.3c0.4-0.2,0.8-0.3,1.2-0.5C30.4,251,30.5,251.3,30.4,251.3z M31.9,251.8c0,0.3,0,0.7,0,1.1h-0.4v-1.1
	c0-0.6-0.1-1.2,0.7-1.5C32,250.8,31.9,251.3,31.9,251.8z M30.5,247.3c0-0.1-0.1-0.2-0.2-0.2h0.1C30.5,247.2,30.5,247.3,30.5,247.3
	c1.7,0.7,3,2.1,3.8,4.1C32.8,249.9,31.7,248.6,30.5,247.3z M35.4,249c-0.9,0.2-1.5-0.1-1.6-1c0-0.2,0-0.4,0-0.7v-1.1
	c0.1,0,0.3-0.1,0.4-0.1c0.6,0.8,1.1,1.6,1.6,2.3C35.9,248.5,35.6,248.9,35.4,249z M36.4,250.4c-0.2-0.2-0.4-0.4-0.6-0.6
	c0.1,0,0.1-0.1,0.2-0.1c0.2,0.1,0.5,0.2,0.8,0.4C36.6,250.2,36.4,250.4,36.4,250.4z M206.9,38c0.2,0.2,0.5,0.4,0.7,0.6
	c0,0.1-0.2,0.2-0.2,0.2c-0.3-0.2-0.7-0.4-1-0.6C206.5,38.1,206.6,38.1,206.9,38z M202.1,36.5c0.1,0.2,0.2,0.4,0.3,0.6
	c-0.1,0.3-0.2,0.4-0.3,0.6c-0.1-0.2-0.2-0.4-0.2-0.6C202,37,202.1,36.7,202.1,36.5z M197.9,38.1c0-0.7,0.2-0.9,1-0.7
	c1.9,0.7,3.1,2.1,4.5,3.7c-0.9,0-1.6,0-2.3,0.2c-3.1,1-2.4,0-3.1-2.4C197.8,38.7,197.9,38.3,197.9,38.1z M200.8,46.4
	c-1.2-1.5-2.1-2.6-3.1-3.9C200.6,42.5,201.4,42.3,200.8,46.4z M194.3,39.2c0.1-0.7,1.1-1.3,1.7-1.9c0,0,0.4,0.2,0.5,0.4
	c0.2,1,0.4,2,0.6,3c-0.2,1.1-0.3,2.1-0.5,3.1c-0.1,0.7-0.6,0.6-1,0.3c-0.3-0.3-0.8-0.6-0.8-1C194.5,41.8,194.2,40.4,194.3,39.2z
	 M193.9,43.9c0,0.2-0.2,0.6-0.4,0.6c-0.5,0.1-1.1,0.3-1.5,0.1c-1.6-0.5-2.7-2.3-2.3-3.9c0.4-1.2,0.9-2.4,1.6-3.8
	C193.3,39.1,193.9,41.4,193.9,43.9z M189.9,44.6h-0.1c0,0,0-0.1-0.1-0.2c-0.1-0.1-0.4-0.2-0.5-0.3s0-0.3,0-0.5
	c0.1,0,0.3,0.1,0.3,0.2c0.1,0.1,0.1,0.4,0.1,0.6C189.7,44.5,189.8,44.5,189.9,44.6z M190.1,37.1c0.1-0.1,0.1-0.1,0.2-0.2V37
	L190.1,37.1c-0.3,0.8-0.7,1.5-0.9,2.4c-0.2,0.8-0.4,1.6-0.6,2.3C187.6,38.5,187.7,38.2,190.1,37.1z M184.9,39.8
	c0.2-0.4,0.6-0.8,1.1-1.4c0.7,1.7,1.3,3.1,1.7,4.6c0.2,0.8,0.4,1.5,1,2.2c0.5,0.6,0.3,1.1-0.5,1.2c-0.8,0.1-1.7,0-2.5-0.1
	c-0.1,0-0.2-0.4-0.2-0.6c0-0.1,0.2-0.2,0.3-0.3c0.5-0.5,1-0.9,1.5-1.4c-0.5-0.4-1.1-0.8-1.6-1.1C184.6,42,184.3,41,184.9,39.8z
	 M183.9,47c0.2-0.1,0.7-0.1,0.9,0c0.5,0.3,0.9,0.7,1.4,1c-0.1,0.1-0.1,0.3-0.2,0.4c-0.5,0-1,0-1.5,0c-0.3,0-0.6-0.3-0.8-0.6
	C183.7,47.6,183.8,47.1,183.9,47z M179.9,47.1c0.1-0.5,0.3-0.8,0.9-0.5c0.4,0.2,0.9,0.3,1.2,0.6c0.3,0.2,0.7,0.6,0.7,0.9
	c0.1,2.2-0.3,4.3-2,6.2c-0.4-2.2-0.8-4.2-1-6.2C179.7,47.9,179.8,47.5,179.9,47.1z M178.8,50.7c-0.5,1.1-1.7,1.6-3.1,1.3
	c1-2,1.9-3.8,3-5.9C179.3,47.8,179.5,49.4,178.8,50.7z M173.8,43c0.5-1.9,1.2-3.7,1.8-5.5c0.1-0.4,0.5-0.7,0.8-1.1
	c0.6,1.3,1,2.4,1.5,3.5c0.5,1.3,0.9,2.6,0.1,3.9c-0.8,1.4-1.9,2.6-2.9,3.9c-0.1,0.1-0.5,0.3-0.6,0.2c-0.2-0.2-0.4-0.5-0.4-0.7
	c-0.1-0.8-0.3-1.5-0.4-2.2C173.7,44.4,173.6,43.6,173.8,43z M170.4,38.3c0,0,0,0.1,0.1,0.2c0.6,0.1,1.2,0.2,1.7,0.4
	c1.4,0.7,1.6,1.1,1.1,2.7c-0.2,0.9-0.5,1.7-0.8,2.9c-0.5-0.7-0.9-1.1-1-1.6c-0.4-1.5-0.7-2.9-1-4.4
	C170.5,38.4,170.4,38.4,170.4,38.3C170.3,38.2,170.4,38.2,170.4,38.3z M166,42.2c0.9-1.4,1.8-2.8,3.4-3.5c2.3,4.1,0.8,7.5-3.7,10.9
	c-0.1-1.7-0.4-3.4-0.5-5.1C165.2,43.7,165.5,42.8,166,42.2z M163.6,38.4c0.7,0.7,1.6,1.1,1.9,1.9c0.2,0.6-0.5,1.5-0.7,2.2
	c-0.2,0.8-0.2,1.6-0.3,2.4c0,0.4-0.2,0.8-0.4,1.2c0,0-0.7,0-0.8-0.2c-0.1-0.4-0.2-0.8-0.1-1.2c0.1-0.8,0.5-1.5,0.5-2.2
	c0-1-0.3-1.9-0.5-2.9c-0.2-0.9-0.5-1.9-0.8-2.9C162.7,37.3,163.1,37.9,163.6,38.4z M157.3,44c0.1-1.1,0.5-2.2,1.4-3
	c0.7-0.7,1.2-1.6,1.9-2.3c0.6-0.7,0.9-0.7,1.3,0.2c0.3,0.8,0.7,1.5,0.8,2.3c0.4,1.8-0.6,3.3-1.7,4.6c-0.8,1-2.3,1.5-3.7,2.3
	C157.3,46.5,157.2,45.2,157.3,44z M159.3,49.8c-0.4,1.1-0.1,2.8-1.5,3.1c-1.3,0.3-1.6-1.4-2.2-2.3c-0.8-1.3-1.2-2.8,0.5-4
	c0,0.2,0.1,0.3,0.1,0.5c0.1,1.9,0.1,1.9,2,1.6c0.7-0.1,0.8,0.3,0.9,0.7C159.3,49.5,159.4,49.7,159.3,49.8z M155.2,40.9
	c0.6-0.3,1.2-0.6,1.8-0.8c0.1,0.1,0.2,0.2,0.2,0.2c-0.4,2.2-0.9,4.4-2.3,6.2c-0.6,0.8-1.1,0.7-1.5-0.2
	C152.8,44.6,153.6,41.9,155.2,40.9z M152.8,48.5c0.1-0.1,0.6,0,0.6,0.1c0.4,1.2,0.4,2.3-0.5,3.3C151.6,50.2,151.6,49.6,152.8,48.5z
	 M38.3,248c0.1-0.2,0.3-0.4,0.4-0.7c0-0.1,0.1-0.2,0.2-0.2v0.1c0,0-0.1,0-0.2,0.1v0.6c0,0.1-0.2,0.3-0.3,0.4
	C38.4,248.2,38.3,248.1,38.3,248z M39.7,252.9c-0.2,0-0.3,0.1-0.5,0.2c-0.4-0.9-0.8-1.9-1.2-2.8C39,250.9,39.5,251.8,39.7,252.9z
	 M59.2,260.9c-1,1.8-3.9,3.1-5.8,2.7c-1.6-0.3-2.5-1.9-2.4-3.8c0-0.5,0.2-1,0.2-1.5c0-1.3,0.7-1.8,1.8-1.3c0.3,0.1,0.6,0.6,0.9,0.6
	c0.5,0.1,1-0.1,1.5-0.1c-0.1-0.5-0.2-0.9-0.3-1.5c0.3,0,0.7,0,1.1,0C59,255.9,60.5,258.4,59.2,260.9z M65,249.9
	c0.4-0.3,0.5-0.4,0.6-0.5c0.1,0.3,0.3,0.5,0.4,0.8l-0.1,0.1C65.5,250.1,65.3,250,65,249.9z M65.9,255.8c0,0.1-0.2,0-0.4,0
	c0-0.3,0-0.6,0.2-0.8c0.1-0.2,0.4-0.4,0.6-0.6c0.1,0.1,0.2,0.2,0.3,0.4C66.4,255.1,66.1,255.5,65.9,255.8z M67.1,253.4
	c-0.1-0.2-0.3-0.4-0.5-0.6c0,0,0.1-0.2,0.2-0.4c0.2,0.3,0.3,0.5,0.4,0.7C67.3,253.2,67.2,253.3,67.1,253.4z M81,262.1
	c-0.4,0.7-0.9,1.1-1.8,1.1c-1.1,0-2.3,0.2-2.9-0.8c-0.7-1.1-0.6-2.4-0.5-3.7c0-0.4,0.3-0.7,0.4-1.1c0.7-2.2,0.7-2.2,2.8-1.6
	c0.5,0.1,1,0.3,1.5,0.3c0.1,0,0.5-0.4,0.5-0.6c0-0.2-0.2-0.4-0.4-0.7c0.3,0,0.8,0,1,0.2c0.9,0.5,0.9,1.3,0.6,1.9
	C82.5,259.2,81.8,260.7,81,262.1z M85.8,252c0-0.2-0.1-0.4-0.1-0.6c-0.1-0.1-0.1-0.1-0.2-0.2h0.1c0,0,0,0.1,0.1,0.2
	c0.1,0.1,0.2,0.3,0.4,0.5C86,251.9,85.9,252,85.8,252z M105.2,254.6c0.4-0.2,0.6-1.2,1.2-0.7c0.6,0.4,0.9,1.1,1.1,1.4
	c0,1.5-1,2.7-2.2,2.9c-0.2,0-0.6-0.1-0.8-0.3c-0.9-0.8-1.8-1.6-2.7-2.4c-0.1-0.2-0.3-0.7-0.2-0.8c0.4-0.3,0.9-0.6,1.3-0.8l0.1,0.1
	C104.4,255.1,104.3,255.1,105.2,254.6z M106.3,247.2c0.2,0,0.5,0,0.8,0c0.4,0.2,0.8,0.4,1.2,0.6c0,0.1,0,0.2,0,0.3
	c-0.4,0-0.9,0.1-1.2-0.1c-0.3,0-0.5-0.4-0.7-0.7L106.3,247.2z M104.3,250.2c0.3-1.5,0.7-3.1,1-4.6c0.1-0.3,0.3-0.6,0.5-0.9
	c0.1,0,0.1,0,0.2,0.1c-0.4,1.9-0.8,3.9-1.3,5.8c-0.2,0.7-0.7,1.4-1.3,1.7c-0.9,0.5-1.9,0.9-2.6,1.7c-0.1,0.1-0.5,0.1-0.8,0
	c-0.8-0.3-1.6-0.8-2.4-1.1c-0.4-0.2-0.8-0.4-1.1-0.7c-0.6-0.6-0.4-1.5,0.3-1.8c1.5-0.7,5.2-0.6,6.7,0.2
	C104.1,250.9,104.2,250.6,104.3,250.2z M97.8,245c0.3-0.4,1.4-0.5,2.1-0.4c0.9,0.1,1.8,0.6,2.7,1c0.7,0.3,1.5,0.5,1.4,1.5
	s-0.8,1.8-1.8,2c-0.5,0.1-1.1,0-1.6,0h-1.1c-0.8,0-1.5,0-2.2,0s-1.1-0.4-0.9-1C96.6,247,97.1,245.9,97.8,245z M96.9,244.3v0.1
	c0,0-0.1,0.1-0.2,0.1c-0.2,0.9-0.5,1.8-1.4,2.2c0.1-1,0.5-1.7,1.4-2.2C96.7,244.5,96.8,244.4,96.9,244.3z M94.2,239.8
	c0,0,0,0.1,0.1,0.2c0.7,0.8,1.5,1.5,2,2.3c0.6,0.9-0.6,1.2-0.8,2.3c-0.3-0.8-0.6-1.3-0.7-1.8c-0.2-0.9-0.3-1.9-0.5-2.8L94.2,239.8
	C94.2,239.8,94.2,239.8,94.2,239.8z M93.9,244.5c0.1,0,0.2,0,0.3,0c0.1,0.4,0.3,0.8,0.4,1.3c0,0.2-0.2,0.5-0.4,0.8
	c-0.1-0.2-0.3-0.4-0.3-0.7C93.9,245.4,93.9,244.9,93.9,244.5z M93.6,250c0.6-1,1.1-2,1.7-3c-0.4,1.1-0.7,2.2-1.1,3.3
	c0,0-0.3,0.1-0.4,0.1C93.7,250.2,93.5,250,93.6,250z M185.7,58.9c-1.7,2.1-3.4,4.2-5.1,6.3c-2.3,3-5.2,5.3-8.2,7.4
	c-0.8,0.6-1.6,1.4-2.3,2.2c-1.6,1.9-3.6,3.3-5.1,5.3c-1.2,1.6-2.7,2.9-4.2,4.2c-2.5,2.2-5.3,4-7.8,6.2c-1.4,1.2-2.4,2.8-3.6,4.1
	c-1.2,1.3-2.3,2.8-3.5,4.1c-1.8,1.9-3.9,3.8-5.8,5.6c-2.8,2.8-5.8,5.4-8.1,8.6c-0.9,1.3-2,2.5-2.9,3.8c-0.5,0.6-0.9,1.2-1.3,1.9
	c-2.7,4.8-5.3,9.6-8.2,14.4c-2.6,4.4-5.5,8.6-8.4,12.9c-2.5,3.8-4.4,7.9-6.3,12c-1.4,3-2.7,6.1-3.9,9.2c-1.2,3-2.6,6-3.4,9.1
	c-1.6,6.2-3.6,12.1-5.8,18.1c-0.7,1.8-1,3.8-1.5,5.7c-0.2,0.8-0.3,1.6-0.6,2.4c-1,2.7-0.9,5.5-0.6,8.3c0,0.7-0.1,1.3-0.1,2
	c0,3.5-0.2,7,0,10.5c0.2,2.9,1,5.8,1.5,8.6c0.4,2.2,0.9,4.3,2.3,6.1c0.2,0.2,0.1,0.7,0.2,1.1c0.7,2.7,0.2,5.5-0.1,8.2
	c0,0.2-0.2,0.4-0.2,0.7c0,0.4,0.1,1.1,0,1.2c-0.7,0.4-1.1-0.2-1.5-0.6c-0.5-0.5-0.9-1-1.1-1.8c-0.5-1.7-1.6-3.4-2.4-5.1
	c-0.1-0.3-0.4-0.7-0.7-0.8c-0.2-0.1-0.6,0-0.8,0c0,0.2,0,0.5,0.1,0.7c1.2,1.5,1.9,3.2,2.1,5.1c0,0.4,0.3,0.8,0.7,1.1
	c2.9,2.5,5.6,5.2,9.3,6.8c1.5,0.6,2.9,1.5,4,2.8c1,1.2,2.2,2.4,3.7,3c0.1,0,0.2,0.3,0.2,0.4c-0.1,0.1-0.3,0.4-0.5,0.3
	c-2.7-0.8-5.5-0.1-8.1-0.4c-2.1-0.2-4.1-0.8-6.2-1.2c-0.9-0.2-1.4-0.8-1.4-1.6c0-1.6-0.7-3.1-1.2-4.6c-0.3-0.7,0-1.6,0.1-2.4
	c0.1-0.5,0.3-1,0.5-1.5c0-0.1-0.1-0.3-0.2-0.4c-0.1-0.1-0.3-0.1-0.4,0c-0.4,0.4-0.7,0.8-1,1.2c-0.8,0.8-1.1,0.8-1.7-0.1
	c-0.8-1.3-1.6-2.7-2.4-4.1c-0.2-0.3-0.4-0.7-0.6-0.9c-0.1-0.1-0.5-0.3-0.6-0.2c-0.2,0.2-0.4,0.5-0.3,0.7c0.5,1.2,1,2.4,1.5,3.6
	c0.6,1.7,1.3,3.3,1.8,5.1c0.3,0.8,0.2,1.8,0.3,2.7c0,0.5,0,0.9-0.7,1c-0.7,0-1.4-0.1-1.5-0.8c-0.1-0.8-0.4-1.6-1-2.2
	c-0.4-0.4-1-0.9-1.5-0.9c-1.1,0.2-0.8-0.3-0.7-1c0.1-0.4,0-0.9-0.2-1.2c-0.3-0.6-0.8-0.7-1.3-0.1c0,0.1-0.1,0.1-0.1,0.2
	c-0.4,0.9-0.5,2-1.2,2.6c-0.6,0.5-1.7,0.4-2.1,1.4c-0.1,0.3-0.9,0.7-1.3,0.6c-1.6-0.2-3.3-0.6-4.9-0.9c-0.1,0-0.2,0-0.2-0.1
	c-0.5-1.2-1.1-2.5-1.5-3.8c-0.1-0.5,0.1-1.2,0.4-1.7c0.8-1.4,1.8-2.6,2.8-3.9c0.3-0.4,0.7-0.8,1-1.2c0-0.1,0-0.4,0-0.4
	c-0.2-0.1-0.5-0.2-0.6-0.1c-0.7,0.6-1.4,1.1-2.1,1.7c-0.4,0.4-0.8,0.9-1.2,1.4c-0.4,0.4-0.9,0.8-1.4,1.2c-0.4-0.5-0.7-1-1.1-1.4
	c-1.2-1.1-2.4-2.3-3.7-3.3c-0.1-0.1-0.5-0.1-0.6,0s-0.1,0.4,0,0.6c0.7,1.2,1.4,2.4,2.1,3.5c0.3,0.5,0.6,1,0.9,1.6
	c0.8,1.2,0.9,2.5,0,3.7c-0.1,0.1-0.1,0.3-0.2,0.4c-0.4,0.8-0.2,2.1-1.3,2.2c-1.2,0.1-2.6,0.5-3.8-0.4c-0.3-0.2-0.8-0.4-1.2-0.4
	c-0.8,0-1.2-0.3-1.3-1.2c0-0.7-0.7-0.8-1.2-0.4c-0.4,0.2-0.8,0.6-1,0.9c-0.5,1-0.9,1.9-2.3,1.2c-0.6,0.6-1.4,1.1-1.8,1.9
	c-0.3,0.5-0.6,0.8-1.2,0.8c-3.4,0.3-6.7,0.6-10.1,0.9c-0.8,0-1.6,0.4-2.4,0.6c-2.1,0.6-4.2,1.3-6.3,1.8c-0.9,0.2-1.9,0.2-2.9,0.3
	c-0.8,0.1-1.6,0.3-2.5,0.4c2.1-1.3,4-2.6,6-3.7c2.3-1.2,4.7-2.1,7.1-3.1c0.3-0.1,0.8-0.2,1-0.5c1.4-1.9,3.7-2.8,5.2-4.6
	c1.1-1.3,2.4-2.2,3.6-3.3c1-0.9,1.9-2,2.7-3.1c1.6-2.1,3.1-4.3,4.6-6.5c0.3-0.5,0.3-1.3,0.5-1.9c-0.9,0-0.9,0.8-1.2,1.4
	c-2.4,3.9-5,7.8-8.8,10.5c-0.8,0.6-1.6,1.5-2.3,2.2s-1.3,0.8-2,0.1c-0.2-0.2-0.5-0.4-0.8-0.4c-0.7-0.1-0.9-0.6-0.8-1.1
	c0.2-0.4,0.6-0.9,1-1.1c1-0.5,2.1-0.7,3.1-1.3c0.8-0.5,1.7-1.1,2.3-1.8c1.9-2.7,3.7-5.5,5.4-8.4c0.6-1,0.9-2.2,0.7-3.4
	c-0.1-0.5,0.1-1.2,0.4-1.7c1.2-3.1,2.7-6.1,3.3-9.4c0.4-2.3,1-4.6,1.6-6.8c0.2-0.8,0.4-1.6,0.8-2.4c2.1-3.7,2.7-7.8,3.7-11.8
	c0.9-3.5,1.8-7,2.7-10.5c0.5-2,0.9-3.9,1.6-5.9c1.4-3.7,2.9-7.3,4.3-11c1.1-2.7,2-5.5,3.3-7.9c2.7-4.9,4.3-10.3,5.9-15.6
	c0.8-2.6,1.7-5.3,3.3-7.7c0.8-1.3,1.4-2.7,2.1-4c1.6-3.1,3-6.3,4.6-9.4c2.8-5.6,5.8-11.1,10.2-15.7c1.9-2.1,3.5-4.5,5.3-6.8
	c1.8-2.4,3.7-4.7,5.5-7.1c0.4-0.5,0.8-0.9,1-1.5c1.3-3.4,3.2-6.4,5.2-9.5c2.2-3.3,5.3-5.9,8-8.7c0.2-0.2,17.9-15.8,18.3-16.3
	c3.5-3.7,7.4-6.9,11.4-10c0.2-0.1,0.7-0.1,0.9,0c0.5,0.3,0.8,0.8,1.4,1.2c0.8,0.6,1.6,0.4,2.1-0.5c0.7-1.5,1.4-3,1-4.7
	c-0.2-0.8,0.3-1.2,0.9-1.6c0.6-0.3,0.8-0.8,1.7-0.3c1.8,1.2,1.9,1,1.6,3.5c0,0.2,0,0.7,0.1,0.8c0.2,0.1,0.6,0.1,0.8,0
	c1.8-1.1,3.3-2.4,4.4-4.2c0.2-0.3,0.3-0.7,0.6-1c0.4-0.5,0.7-1.2,1.4-0.9c0.8,0.3,1.6,0.6,1.6,1.7c0,0.9,0,1.8,0,2.7
	c0,0.2,0.2,0.7,0.4,0.7s0.6-0.1,0.8-0.3c0.9-0.9,1.8-2,2.9-3.1c-0.5,2.1-1.1,3.7-2.9,4.7c-0.3,0.1-0.6,0.6-0.6,0.8
	c0,0.3,0.5,0.6,0.8,0.7c0.8,0.1,1.6,0.2,2.4,0.1c0.8-0.1,1.5-0.6,2.4-0.9c0.2,1.5,0.4,2.9-0.7,4.2c-0.1,0.1,0,0.4,0,0.6
	c0.2,0,0.5,0,0.6-0.1c1.1-1.1,2.3-2.2,3.3-3.4c0.6-0.8,1-0.5,1.4,0c0.8,1,1.4,2,0.6,3.3c-0.1,0.2-0.2,0.4-0.3,0.6
	c0,0.3,0,0.6,0.1,0.8c0,0.1,0.4,0.2,0.6,0.1c0.4-0.2,0.8-0.4,1.6-0.9C186.2,58.1,186,58.5,185.7,58.9z M40.2,250.9l0.2-0.3
	c0.3,0.1,0.6,0.3,0.9,0.5c-0.3,0.2-0.4,0.4-0.6,0.5C40.7,251.4,40.4,251.1,40.2,250.9z M186.1,56c-0.1-1.9-0.7-3.1-1.9-3.9
	c-0.9-0.6-0.5-1.5-0.4-2.3c0-0.1,0.3-0.3,0.5-0.4c1.3-0.2,2.7,0.8,3,2.2C187.6,53.1,187.2,54.4,186.1,56z M188.9,59.5
	c-0.4,0.5-0.8,0.4-0.9-0.2c-0.3-2.3-0.5-4.5,0.8-6.5c0.1-0.2,0.6-0.5,0.6-0.5c0.3,0.2,0.6,0.5,0.7,0.8c0,0.7,0,1.3-0.1,1.7
	C190.4,56.8,190,58.3,188.9,59.5z M191.1,49.3c-0.4,0.7-0.6,1.5-0.8,2.3c-0.7-0.5-1.4-1-2.1-1.6c-0.4-0.4-0.6-0.9-0.9-1.3
	c-0.5-0.6-0.3-0.8,0.4-1.1c1-0.3,1.9-0.8,3-1.2C191,47.3,191.7,48.1,191.1,49.3z M193.3,53.7c0,0.5,0,1.2-0.7,1.1
	c-0.4-0.1-1-0.6-1-0.9c-0.1-0.8,0-1.6,0.1-2.4c0-0.6,0.3-1.1,0.5-2c0.5,0.6,1,1,1,1.2C192.7,51.7,193.4,52.7,193.3,53.7z
	 M192.8,47.8c-0.5-0.1-0.8-1.1-1.3-1.9c1.1-0.1,1.9-0.2,2.6-0.3c0,0.2,0.1,0.4,0,0.5C193.9,46.8,193.7,48,192.8,47.8z M194.7,49.6
	c-0.1,0.1-0.5,0.2-0.6,0.2c-0.2-0.2-0.3-0.5-0.3-0.8s0.1-0.6,0.2-0.8c0.4-0.7,0.8-1.4,1.1-2.2c0.2-0.6,0.5-0.6,1-0.6
	c1.1,0.1,1.1,0.1,1.5-1.4c1.3,1.8,1.3,1.8,0,3.1C196.6,48,195.6,48.8,194.7,49.6z M200.9,54.4c-0.7-1.4-1.4-2.5-2.4-3.4
	c-1.2-1-0.8-2.6,0.3-3.5c0.4-0.3,0.8-0.2,1.1,0.2c0.7,1.1,1.5,2.3,2,3.5C202.3,52.3,201.8,53.3,200.9,54.4z M201.1,48.2
	c1.2-0.9,1.2-0.9,0.9-2.5c-0.1-0.4,0-0.9,0-1.3c0-0.1,0.2-0.2,0.3-0.2s0.3,0.1,0.3,0.2c0.5,1,1,2,1.4,3c0.1,0.4,0.1,1,0,1.3
	c-0.1,0.2-0.8,0.1-1.2,0.1C202.3,48.6,201.8,48.4,201.1,48.2z M208.1,51.8c-1.4,0.3-2.5,0.6-3.7,0.7c-0.3,0-0.8-0.4-1.1-0.7
	c-0.3-0.5-0.5-1.1-0.8-1.8C204.6,49.8,206.3,50.3,208.1,51.8z M206.4,47.1c-0.4,0-2.4-1.7-2.4-2.1c0-0.1,0.2-0.4,0.3-0.5
	c0.3-0.1,0.7-0.1,1.1-0.2c2.1-0.6,2.1-0.6,3.1,1.4c0.2,0.4,0.4,0.8,0.7,1.5C208.1,47.1,207.3,47.1,206.4,47.1z M209.4,45
	c0-0.2-0.1-0.4-0.1-0.6c-0.1-0.2-0.3-0.4-0.4-0.7c0-0.1,0.1-0.2,0.1-0.4c0,0.1,0.2,0.3,0.2,0.4c0,0.2,0,0.4,0,0.6
	c0.1,0.1,0.2,0.3,0.4,0.5C209.6,44.9,209.5,45,209.4,45z M204.8,43.3c-0.8,0.2-1.7-0.5-3.1-0.8c0.8-0.2,1.1-0.3,1.3-0.4
	c0.7-0.4,1.3-0.8,2-1.3c-0.5-0.4-1.1-0.8-1.6-1.1c-0.3-0.2-0.7-0.4-1-0.6c1.7-0.8,2.8-0.4,3.8,0.2c1.1,0.7,2.4,1.1,3.8,1.7
	C208.7,42.8,206.5,42.8,204.8,43.3z M212.8,47.8c0,0.3,0.2,0.6,0.3,0.9c-0.4-0.1-0.9-0.2-1.1-0.5c-1-1.3-1.6-2.7-1.8-4.3
	c-0.2-1.4,0.4-2.4,1.9-3.2c0.6,2.3,2,4.1,0.7,6.4C212.7,47.4,212.8,47.6,212.8,47.8z M256.5,37.1c0.2,0,0.4,0.1,0.6,0.1
	c0,0.1-0.1,0.1-0.1,0.2C256.7,37.3,256.6,37.3,256.5,37.1c-0.1-0.1-0.2-0.1-0.3-0.2C256.2,37,256.4,37.1,256.5,37.1z M234.2,40.2
	c1-0.3,1.8-0.3,2.6,0.4c0.7,0.7,1.5,1.3,2.5,2.1c-0.7,0-1,0.1-1.4,0.1C235.3,43,235.3,42.9,234.2,40.2z M228.8,43.1
	c0.8,1.2,1.6,2.4,2.3,3.5c0,0.1,0,0.4,0,0.4c-0.1,0.1-0.4,0.2-0.5,0.1c-1.1-0.9-2.2-1.8-3.1-2.9c-0.2-0.2,0.4-1.1,0.6-1.8
	C228.3,42.8,228.6,42.9,228.8,43.1z M225.1,38.9c1.4,0,2.4,0.6,3.1,1.5c0.2,0.2,0.4,0.6,0.3,0.7c-0.1,0.2-0.4,0.4-0.7,0.4
	c-1.6,0.2-3.1,0-4.3-1.4c-0.4-0.5-0.9-1-1.4-1.6C223.2,38.8,224.2,38.9,225.1,38.9z M226.3,42.8c-0.1,0-0.2,0.1-0.4,0.1
	c-0.1,0-0.2-0.1-0.4-0.1c0.2,0,0.3-0.2,0.5-0.2C226.1,42.7,226.2,42.8,226.3,42.8z M223.6,42.8L223.6,42.8c0,0.1-0.1,0.1-0.2,0.2
	c-0.2,0.3-0.5,0.6-0.8,0.8c-0.2,0.1-0.5-0.2-0.8-0.3c0.2-0.1,0.4-0.3,0.6-0.4c0.3,0,0.6,0,0.9,0C223.5,42.9,223.6,42.9,223.6,42.8z
	 M219.1,40.8c0.5,0,1.3,0.1,1.5-0.1c0.7-0.8,1.1-0.4,1.6,0.1c0.8,0.9,0.8,0.9-0.4,1.3c-0.1,0-0.3,0-0.4,0.1
	c-1.6,1.5-3.1,0.7-4.7-0.4C217.4,41.1,218.2,40.7,219.1,40.8z M217.4,48.4c-0.9-0.1-1.8-0.7-2.7-1.1c-0.5-0.3-0.7-3-0.3-3.4
	c0.4-0.3,0.9-0.6,1.4-0.7c0.4,0,0.9,0.2,1.4,0.3c0.4,0.1,0.8,0.4,1,0.4c2.1-0.4,3.5,0.9,5,2c0.4,0.3,0.8,0.6,1.3,0.9
	C222.4,48.3,219.9,48.7,217.4,48.4z M224.7,52.7c0,0.1-0.1,0.4-0.4,0.7c-0.1,0.1-0.5-0.2-0.8-0.3c-0.5-0.3-1-0.6-1.5-1
	c-0.6-0.6-1.2-0.9-2-0.5c-0.3,0.1-0.9,0-1.2-0.3c-0.2-0.2-0.4-0.8-0.4-1.1c0-0.2,0.5-0.5,0.8-0.6c0.7-0.1,1.4,0,2-0.2
	c2.4-0.5,3.1,0,3.4,2.4L224.7,52.7L224.7,52.7z M227.7,51c-0.8,0.4-1.6,0.1-2.2-0.7c-0.8-1-0.9-1.7-0.3-2.6c0.5-0.8,1-1.5,0.8-2.5
	c-0.6,0-1.2,0-1.8-0.1c-0.2,0-0.7-0.3-0.7-0.5c0.1-0.3,0.3-0.7,0.6-0.8c0.1-0.1,0.6,0,0.8,0.1c0.4,0.4,0.8,0.9,1.2,1.4
	c0.5,0.2,1,0.4,1.4,0.7c1.3,1.1,2.5,2.2,3.9,3.4C230.2,49.9,229,50.5,227.7,51z M234.1,52.6c-0.2,0.7-0.3,1.8-0.8,1.9
	c-0.8,0.2-1.1-0.7-1.4-1.4s-0.6-1.4-0.7-2.1c0-0.2,0.3-0.5,0.6-0.9c0.8,0.8,1.6,1.5,2.3,2.2C234.1,52.4,234.1,52.5,234.1,52.6z
	 M238.2,50.6c-2.4,1-3.6,0.9-4.7-0.4c-0.2-0.2-0.4-0.8-0.2-0.9c0.6-0.8,0.6-1.1-0.5-1.4c-0.3-0.1-0.5-0.7-0.7-1
	c0.4-0.2,0.7-0.6,1.1-0.7c1.1-0.2,2-0.1,2.6,1.1C236.4,48.5,237.4,49.5,238.2,50.6z M244.5,45.8c0.2,0.2,0.4,0.6,0.4,0.9
	c0,0.1-0.4,0.4-0.7,0.4c-0.9,0.2-1.9,0.3-2.9,0.5c-1.7,0.4-3.1-0.5-4.7-1.1c-0.1,0-0.1-0.5,0-0.6c0.2-0.2,0.7-0.4,0.7-0.4
	c-0.6-1.9,0.8-1.3,2-1.5C241.1,44,243,44.4,244.5,45.8z M239.8,41.8c-0.1-0.1-0.1-0.7,0-0.7c1.4-0.5,2.6-1.8,4.4-0.9
	c0.7,0.3,1.5,0.2,2.3,0.3C244.7,42.6,241.8,43.2,239.8,41.8z M242.8,38.5c3-1,5.5-2,8.3-0.1C248.4,39.2,245.9,40,242.8,38.5z
	 M250.5,40.1c1.1-0.9,2.1-1.8,3.1-2.6c0.1-0.1,0.5,0,0.8,0c1.6,0.2,2.5,1.3,3.4,2.4C255.3,41.7,252.9,41.3,250.5,40.1z M259.9,44.8
	c-0.7-0.3-1.4-0.7-1.9-1.2c-1.3-1.4-1.1-2.2,0.8-2.8c1.5-0.5,1.5-0.5,1.5,1V43c0,0.2,0.1,0.7,0.2,1.2
	C260.6,44.9,260.2,45,259.9,44.8z"/>
<path d="M95.1,251c0-0.1-0.1-0.2-0.1-0.3l-0.1,0.1c0,0.1,0.1,0.2,0.1,0.3C95.1,251.1,95.1,251.1,95.1,251z"/>
<path d="M300,35.3c0,0.1-0.1,0.3-0.2,0.4c-2,1-3.9,2.1-5.9,3.1c-0.1,0-0.4,0.1-0.4,0.1c-1.7-1.5-1.6,0.5-2.2,1.2
	c-0.2,0.2-0.3,0.6-0.5,0.8c-0.3,0.4-0.6,0.4-0.8,0c0,0,0-0.1-0.1-0.2c-0.4-0.8-0.6-2-1.2-2.3c-0.7-0.3-1.7,0.4-2.6,0
	c-0.1,0-0.5,0.3-0.6,0.5c-0.1,0.4-0.1,0.9-0.2,1.4c-0.3,1.5-1.2,2.6-2.4,3.4c-2.1,1.4-2.4,1.2-2.4-1.3c-0.1-1.8-0.2-2-2-2.3
	c-0.3,0-0.6-0.2-0.8-0.3c-1-0.2-1-0.1-1.1,1c0,1-0.1,1-0.9,0.7c-0.4-0.2-0.8-0.4-1.2-0.6c-0.3-0.1-0.7-0.3-1.1-0.4
	c-0.1,1-0.4,1.9-0.4,2.8c0,0.8,0.4,1.6,0.6,2.4c0,0.2-0.2,0.7-0.4,0.8c-1.2,0.3-2.4-0.2-3.5-0.7c-1.2-0.5-1.7-1.5-1.8-2.6
	c-0.1-0.8-0.6-1.2-1.4-1.2c-1.3,0.1-2.1-0.4-2.8-1.5c-0.6-0.8-1.7-1.2-2.6-1.7l0,0c-0.1-0.1-0.3-0.3-0.4-0.4l-0.1-0.1
	c-0.1-0.1-0.2-0.3-0.4-0.4l0,0c-0.6-0.8-1.2-1.5-1.8-2.3c0.5,0,0.9,0,1.4,0c1.6,1.2,2.4,3.3,4.6,3.7c-0.2-1.4-0.3-2.5-0.5-3.7
	c0.6,0,1.2,0,1.8,0c1,1.6,2.5,0.7,3.8,0.8c0-0.3-0.1-0.5-0.1-0.8c0.5,0,0.9,0,1.4,0c0.5,0.3,1.1,0.6,1.3,1c0.3,0.5,0,1.3,0.4,1.7
	c0.6,0.6,1.4,1.1,2.2,1.5c0.8,0.4,1.1,0.3,1.1-0.6c0-1.2,0-2.4,0-3.6c2.6,0,5.2,0,7.8,0c-0.4,1.3-0.4,1.3,1.2,2.4
	c0.3-0.8,0.8-1.6,0.2-2.4c0.5,0,0.9,0,1.4,0c0,0.4-0.1,0.8,0,1.1c0.2,0.4,0.5,0.8,0.9,0.8c0.3,0,0.7-0.4,0.9-0.7
	c0.2-0.4,0.3-0.8,0.4-1.3c0.3,0,0.6,0,0.9,0c0,1.4,0.4,2.7,1.2,3.9c1.5-2.1,1.5-2.1,0.2-3.9c0.6,0,1.2,0,1.8,0
	c0.1,0.3,0.2,0.8,0.4,1c0.8,0.9,1.2,0.9,1.9,0c0.2-0.3,0.3-0.7,0.4-1c0.5,0,0.9,0,1.4,0c0.1,0.3,0.3,0.4,0.5,0
	C297.9,35.3,298.9,35.3,300,35.3z M271.3,39.4c-0.9-2-0.9-2.7-3.5-2.1C268.7,38.4,269.5,39.7,271.3,39.4c0.2,1.2-0.7,1.5-1.5,1.9
	c-0.5,0.3-1.4,0.4-1.1,1.2c0.2,0.8,0.2,1.7,1.1,2.1c0.6,0.2,1.2,0.4,1.9,0.6c0-1.7,0-3.1,0-4.6C271.7,40.2,271.4,39.8,271.3,39.4z
	 M280,38.9c1-0.1,1.7,0,2.4-0.2c0.2,0,0.5-0.7,0.4-0.8c-0.8-0.9-1.6-2.1-3.1-1.8c-0.6,0.1-1.2,0-1.8-0.1c-0.9-0.3-1,0.1-1.1,0.8
	c0,0.9,0.3,1.5,1.2,1.7C278.7,38.8,279.5,38.9,280,38.9z M265,40.7c1.6-0.1,3,0.4,4.3-0.5c-0.8-0.8-1.5-1.4-2.2-2.1
	c-0.7-0.7-1.3-1.4-2.4-1.4C264.9,38.1,266.2,39.2,265,40.7z M284.4,39.1c-0.8,0.3-1.3,0.7-1.8,0.7c-1.2,0-1.5,0.5-1.3,1.6
	c0,0.4,0.1,0.7,0.2,1.1C283.6,41.7,283.6,41.7,284.4,39.1z"/>
<path d="M80.4,222.2c0.8-1,1.2-1.7,1.8-2.2c0.9-0.8,1.8-0.8,2.5,0.1c0.5,0.7,0.9,1.5,0.9,2.2c0,1.4-0.2,2.8-0.3,4.3
	c-0.1,1.6-0.4,3.1-0.5,4.7c-0.1,2.5-1.1,4.8-1.6,7.2c0,0.2-0.1,0.4-0.2,0.7c-0.4,1.9-0.3,1.8-1.9,0.9c-3-1.6-5.3-4-6.6-7.1
	c-0.3-0.6-0.5-1.3-0.6-1.9c-0.3-1.4-0.7-2.8-0.8-4.2c-0.4-2.6,0.7-4.9,2.4-6.9c0.6-0.8,1.5-0.8,2.3-0.5
	C78.8,220,80,220.5,80.4,222.2z M81.1,227.1c0.8,0,1.4,0.1,2,0.1c0.2,0,0.6-0.3,0.7-0.5c0.1-1.6,0.4-3.2-0.5-4.7
	c-0.5-0.8-1-0.8-1.6-0.1c-0.2,0.2-0.3,0.6-0.4,0.8c-0.7,1.1-0.9,1.1-1.9,0.3c-0.5-0.4-0.8-0.9-1.3-1.2c-0.4-0.2-1-0.5-1.5-0.4
	c-1,0.2-1.9,0.8-2.4,1.9c-0.6,1.9-0.3,3.7-0.1,5.5c0.5,3.7,2.3,6.5,4.9,8.9c0.6,0.5,1.2,0.9,1.9,1.2c0.5,0.2,0.8,0,0.9-0.6
	c0.5-3.2,1-6.5,1.6-9.8c0.1-0.8-0.2-1-0.8-0.9c-1,0.1-2.1,0.5-3.1,0.7c-0.2,0-0.8,0-0.8-0.1c-0.1-1.2-1.3-1-1.8-1.6
	c-0.2,0.6-0.3,1.2-0.5,1.7c-1.1-0.5,0.1-1.2-0.2-1.8c-0.2-0.4,0-0.9,0-1.4c0-0.6,0.4-0.5,0.7-0.2s0.5,0.2,0.7-0.1
	c0.3-0.4,0.7-0.3,0.8,0.1c0.2,0.5,0.3,1,0.5,1.5c0.1,0.4,0.4,0.7,0.6,1c0.1-0.3,0.2-0.7,0.3-1c0-0.2,0-0.5,0-0.7
	c-0.4-0.9,0.1-1.3,0.9-1.3c0.4,0,0.8,0,1.7,0.1c-0.8,0.5-1.3,0.8-1.8,1c0.5,0.1,0.9,0.2,1.4,0.3C82,226.4,81.7,226.6,81.1,227.1z
	 M83.2,220.4c0.6,1.1,1.1,2.1,1.7,3.5C84.8,222.2,84.8,221,83.2,220.4z"/>
<path d="M83,211.8c-0.7,1.2-1.4,2.4-2.2,3.6c-0.3,0.5-0.7,0.2-0.8-0.2c-0.1-0.3-0.1-0.8-0.2-1.1c-0.6-1.2-1.2-2.4-1.7-3.7
	c-1.6-4.1-2.5-8.5-1.8-12.9c0.3-2.3,1.4-4.5,3.6-5.7c1.8-1,2.7-0.9,4.2,0.6c0.2,0.2,0.5,0.4,0.6,0.7c0.2,0.4,0.4,0.6,1,0.3
	c1.8-0.9,3.2-0.3,4,1.5c0.6,1.3,0.6,2.5,0,3.9c-1.1,2.6-2,5.4-3.1,8c-0.5,1.2-0.9,2.4-2.1,3.1l-0.1-0.1c0-0.3,0-0.6,0.1-0.8
	c0.1-0.1,0.3-0.3,0.5-0.5c0,0,0.1,0,0.2-0.1v-0.1c-0.1,0.1-0.1,0.1-0.2,0.2c-0.1,0.1-0.3,0.3-0.5,0.5c-0.1,0.3-0.3,0.6-0.4,0.9l0,0
	c-0.1,0.1-0.3,0.3-0.4,0.4l0,0c-0.1,0.1-0.3,0.3-0.4,0.4l0,0c-0.2,0.1-0.4,0.2-0.5,0.4s-0.1,0.5-0.1,0.8
	C82.5,211.9,82.8,211.8,83,211.8C82.9,211.7,83,211.8,83,211.8z M82.9,193c0.1,0,0.1,0.1,0.2,0.2C83.1,193.2,83,193.1,82.9,193
	c-0.1-0.2-0.3-0.3-0.4-0.5c-0.1,0-0.1-0.1-0.2-0.2c0,0.1,0.1,0.1,0.2,0.2C82.6,192.8,82.8,192.9,82.9,193z M80.7,212.6
	c0.4-2.3,2.5-3.3,3.1-5.3c1.9-1,2.2-3.1,3.2-4.8c1.1-1.9,1.2-4,1-6.2c0-0.9-0.7-1.7-1.4-1.8c-0.8-0.1-0.9,0.6-1.2,1.1
	c-0.5,0.9-0.9,0.6-1.4,0c-0.6-0.6-1-1.4-1.6-1.9c-1.3-1.4-2.5-1.2-3.7,0.4c-2.2,3.1-2.2,6.6-1.6,10C77.7,207,78.6,209.9,80.7,212.6z
	"/>
<path d="M84.4,210c-0.5,0.6-0.9,1.2-1.4,1.8l-0.1-0.1c0-0.3,0-0.6,0-0.8l0,0c0.1-0.1,0.3-0.3,0.4-0.4l0,0c0.1-0.1,0.3-0.3,0.4-0.4
	l0,0c0.1,0,0.2,0,0.4,0C84.2,209.9,84.4,210,84.4,210z"/>
<path d="M80.3,235.8c-0.2-0.4-0.4-0.8-0.6-1.1s-0.4-0.8-0.7-1c-0.5-0.2-0.6-0.6-0.1-0.8c0.8-0.4,1.6-0.6,2.5-0.9
	c0,0,0.2,0.3,0.4,0.5C79.5,232.8,81.3,234.8,80.3,235.8z"/>
<path d="M80.2,229c0.8,0.2,1.4,0.3,0.8,1c-0.1,0.2-0.2,0.5-0.1,0.8c0,0.6-0.2,0.9-0.8,0.7c-0.5-0.2-1-0.5-1.6-0.8
	C79.2,230.1,79.8,229.5,80.2,229z"/>
<polygon points="81.3,234.9 81.3,234.7 81.4,234.7 "/>
<path d="M82.5,198.2c0,0.1,0,0.3,0,0.5c-0.1,0.5-0.4,0.9-0.5,1.4c-0.8-0.4-0.4-1-0.2-1.5c0.4-1-0.5-0.9-0.9-1.1
	c-0.8-0.3-0.5,0.4-0.7,0.8c-0.1,0.3-0.2,0.5-0.4,0.8c0,0-0.1,0.1-0.2,0.1s-0.3-0.1-0.3-0.2c-0.2-1.2,0.5-2,1-2.9
	c0.1-0.2,2.1,0.6,2.1,0.8C82.5,197.3,82.5,197.8,82.5,198.2L82.5,198.2z"/>
<path d="M84.8,200.3c-0.7,0-1-0.3-0.9-0.9c0.1-0.8,0.2-1.5,0.5-2.2c0.1-0.3,0.7-0.4,1.1-0.5c0.1,0,0.4,0.2,0.5,0.3
	c0,0.1-0.1,0.4-0.3,0.5c-0.4,0.2-1.2,0.2,0,0.6c0,0,0.2,0,0.2,0.1c0,0.2,0,0.4,0.1,0.6c0.1,0.5-1.4-0.2-0.5,0.8
	C85.9,200.2,85.3,200.3,84.8,200.3z"/>
<path d="M80.4,203.8c0,1.4-1.5,2.4,0,3.5c-0.1,0.1-0.1,0.2-0.2,0.3c-0.3,0.2-0.6,0.4-0.8,0.6c-0.1-0.2-0.4-0.5-0.5-0.8
	c-0.2-0.6-0.3-1.3-0.5-1.9c-0.1-0.4-0.5-1.1-0.4-1.2c0.6-0.5,0.6,0.3,0.9,0.5c0.1,0,0.3,0,0.4-0.1C79.6,204.6,80,204.3,80.4,203.8z"
	/>
<path d="M81.8,208.7c-0.3-0.4-0.7-0.7-0.7-0.9c0.1-0.9,0.3-1.7,0.6-2.6c0-0.1,0.2-0.2,0.3-0.2c0.1,0,0.3,0.1,0.3,0.2
	c0.1,0.9,0.3,1.7,0.3,2.6C82.7,208.2,82.2,208.4,81.8,208.7z"/>
<path d="M81.7,203.9c-0.2-0.4-0.5-0.7-0.6-1s-0.3-0.8-0.1-1c0.3-0.4,0.8-0.6,1.3-0.9c0.2,0.4,0.6,0.8,0.5,1.1
	C82.5,202.7,82.1,203.2,81.7,203.9z"/>
</svg>
