<?xml version="1.0" encoding="utf-8"?>
<!-- Generator: Adobe Illustrator 18.0.0, SVG Export Plug-In . SVG Version: 6.00 Build 0)  -->
<!DOCTYPE svg PUBLIC "-//W3C//DTD SVG 1.1//EN" "http://www.w3.org/Graphics/SVG/1.1/DTD/svg11.dtd">
<svg version="1.1" id="Layer_1" xmlns="http://www.w3.org/2000/svg" xmlns:xlink="http://www.w3.org/1999/xlink" x="0px" y="0px"
	 viewBox="0 0 310.4 571" enable-background="new 0 0 310.4 571" xml:space="preserve">
<path d="M0,515.1c4.7,0.5,8.5,2.6,11.6,6.2c2.4,2.8,5.4,1,8.3,1.7c-0.6-2.6-2.5-2.8-4.1-3.5c-0.5-0.2-1-1-0.9-1.5
	c0-0.4,0.9-0.9,1.3-1c1.6,0,3.1,0.1,4.9,0.2c-1-3.5-1.6-6.9,1.7-9.7c0.4-0.4-0.3-2-0.4-3.1c-0.2-1.5-0.4-3-0.6-4.5
	c2.3,0.1,2.2,2.3,3,3.7c3,5.1,3.5,10.9,4.8,16.5c0.1,0.5-0.1,1.3-0.5,1.6c-1.1,0.8-0.8,1.6-0.2,2.5c0.8,1.2,0.9,3.9,2.9,3.1
	c2.4-0.9,0.4-2.7-0.1-4c-0.4-1.2-0.7-2,0.2-3.1c0.7-0.8,1-2,1.3-3c0.7-2.3-0.3-3.8-1.9-5.4c-1.8-1.7-1.7-2.1,0.7-2.6
	c1.8-0.4,2-1.4,1.8-2.7c-0.1-0.8-0.5-1.5-0.6-2.3c0-0.4,0.4-1.1,0.7-1.1c0.5-0.1,1.4,0.2,1.5,0.5c1.2,2.8,2.3,5.6,3.3,8.5
	c0.3,0.7,0.1,1.6,0.4,2.4c0.1,0.4,0.9,1,0.9,1c3.3-3.1,2.2,1.1,3.2,1.9c1.8-4.7-1-7.6-4.3-10.4c2.2-1.6,3.6,1.1,5.8,0.5
	c-0.6-0.8-1.1-1.6-1.7-2.2c-1.2-1.3-2.6-2.5-3.7-3.8c-0.5-0.6-0.7-1.6-1-2.4c0.7,0.1,1.5,0.1,2.2,0.3c0.6,0.2,1.2,0.5,1.7,0.8
	c1.1,0.6,2.3,1.8,3.3,1.7c0.8-0.1,1.3-1.9,2.1-2.8c0.4-0.5,1.3-0.6,1.9-0.9c0.2,0.7,0.8,1.6,0.5,2.1c-2.3,3.8-0.5,6.3,2.5,8.5
	c0.4,0.3,0.7,0.6,1.1,0.9c2.8-6.3,4-13,5.3-19.7c0.2-0.9,0.2-1.9,0.2-2.9c0.1-9.3,0.1-18.6-1.8-27.9c-0.6-3-1-6-1.8-8.9
	c-0.6-2.3-0.7-4.9-0.6-7.5c0.3-7,1.2-14.2-0.6-21.2c-0.3-1.2-0.2-2.6-0.1-3.9c0.2-6.1-0.4-12.2-1.8-18.2c-0.3-1.4-0.3-2.9-0.1-4.3
	c0.5-4.6,1.1-9.2,1.7-13.8c0.1-1.1,0.2-2.3,0.2-3.4c0-5.3-0.3-10.7,0.1-16c0.5-7.3,1.6-14.6,2.5-21.9c0.4-3.8,0.7-7.7,1.3-11.5
	c1.4-9.1,0.3-18.4,1.2-27.5c0.5-5.6-0.2-10.8-1-16.1c-0.2-0.9-0.3-2-0.1-2.9c1.3-4.6,0-9.2,0-13.8c0-4.7,0.1-9.4-0.1-14.1
	c-0.4-13.8,1.6-27.2,5.1-40.4c2.2-8.3,4.3-16.7,6.2-25.2c1.5-6.7,3.3-13.4,4-20.2c0.9-8.7,4.3-16.7,6.4-25.1
	c1.2-4.7,3.2-9.1,4.8-13.6c2-5.8,4.9-11.2,7.7-16.7c2.9-5.6,6.4-10.8,9.1-16.5c3.4-7.1,8-13.1,12.6-19.3
	c10.3-13.9,22-26.6,34.6-38.3c6.5-6,13.5-11.4,20.3-17c4.1-3.4,8.1-6.8,12.4-10c4.4-3.3,9-6.2,13.4-9.3c1.1-0.8,2.1-1.9,3.1-2.9
	c1.6,0,3.2,0,4.9,0c-1.5,1.2-2.8,2.7-4.4,3.6c-8.2,4.8-15.9,10.3-23.1,16.5c-7.4,6.4-15,12.5-22.6,18.8c-1.4,1.1-2.5,2.5-3.8,3.7
	c-2.9,2.6-5.8,5.1-8.6,7.7c-1.5,1.4-2.9,3-4.3,4.6c-1.1,1.2-1.9,2.6-3.1,3.7c-6.8,6.4-12.3,14-18.1,21.3
	c-5.1,6.3-9.1,13.2-12.9,20.3c-4.3,7.9-8.7,15.8-12.5,24c-3.8,8.3-7.4,16.7-8.9,25.8c-0.7,4.2-2.1,8.4-3.1,12.6c-0.7,3-1,6-1.7,8.9
	c-0.7,3.1-1.5,6.2-2.3,9.3c-1.5,6.1-2.3,12.3-3.6,18.4c-1,4.9-2.6,9.6-3.9,14.4c-2.3,8.8-4.3,17.7-4.8,26.9c-0.1,2.5-0.7,5,0,7.5
	c0.2,0.9-0.1,1.9-0.2,2.9c-0.2,3.7-0.5,7.4-0.5,11c0,2.7,0.6,5.4,0.7,8.1c0.1,6.1-0.4,12.3,0.3,18.4c0.6,5.1,0.7,10.3,0.7,15.4
	c0,3.8-0.7,7.5-0.1,11.4c0.4,2.8-0.4,5.7-0.8,8.6c-0.9,6.5-1.9,13-2.7,19.5c-0.5,4-0.8,8-1.2,12c-0.3,2.5-0.5,5.1-0.8,7.6
	c-0.1,0.6-0.2,1.3,0,1.9c1.3,4.4,0.3,8.7-0.1,13.1c-0.7,8.2-1.6,16.4-1,24.6c0.3,4.6,1.3,9.1,1.7,13.7c0.5,6.4,0.8,12.8,1.1,19.2
	c0.1,1.9-0.7,3.8-0.6,5.7c0.2,3.7,0.7,7.3,1.1,10.9c0.8,7,1.7,14,2.5,21c0.3,2.4,0.6,4.8,0.7,7.2c0.1,1.9,0.4,3.9,0.1,5.8
	c-1.1,6-2.4,11.9-3.7,17.8c-0.6,2.8-1.5,5.6-2.4,8.3c-1,3-2.3,5.9-3.5,8.9c-0.2,0.2-0.3,0.3-0.5,0.5c0.2-0.1,0.3-0.3,0.5-0.4
	c0.8,0.2,1.6,0.3,2.3,0.6c1.9,1.2,2.4,2.7,0.8,4.3c-5.9,6.1-11.3,12.8-19.7,16c-4.3,1.7-8.2,4.1-11.2,8c-1.5,2-3.8,3.4-6,4.8
	c-2.9,1.9-5,4.4-6.7,7.9c5.4-1,10.4-1.8,15.3-2.9c4.4-1,8.9-0.8,13.2-2.7c4-1.7,4.1-1.6,3.3-5.9c-0.5-2.6,0.1-4.6,1.9-5.5
	c0.8-0.4,2.2-0.2,3,0.3c1.1,0.7,0.4,1.4-0.3,2.3c-0.7,0.9-1,2.3-1.2,3.5c-0.2,1,0.1,2.1,0.1,3.1c1-0.2,2.1-0.3,3.1-0.6
	c0.9-0.2,1.8-0.6,2.7-0.9c3.5-1.2,4-2.2,2.4-5.6c-1.3-2.8-2.9-5.4-4.4-8c-0.5-0.8-1.2-1.6-1.5-2.4c-0.2-0.5,0.2-1.2,0.5-1.7
	c0.1-0.1,1,0,1.3,0.3c1.3,1.4,2.7,2.8,3.9,4.3c1,1.2,1.8,2.5,3.3,4.6c1.4-4.9,3.7-8.4,2.8-13.4c-1-5.7-0.2-11.8-0.2-18.1
	c2.2,1.3,2.5,3,2.9,4.7c0.5,2.7,1,5.3,1.6,8c0.3,1.2,0.9,1.5,2,0.6c0.4-0.3,1.1-0.3,1.7-0.4c0.1,0.7,0.3,1.6,0.1,2.2
	c-0.5,1.5-1.2,2.9-1.1,4.7c2.5-2,5.1-4.1,7.6-6.1c0.8-0.6,1.6-1.1,2.5-1.5c0.5-0.2,1.1,0,1.7,0c-0.1,0.6,0,1.3-0.3,1.7
	c-0.9,1.3-1.8,2.6-2.9,3.8c-4.4,4.5-7,9.9-8.7,15.9c-0.1,0.5,0,1.4,0.3,1.7c0.3,0.3,1.2,0,1.7-0.2c2.7-1.1,5.3-2.5,8-3.4
	c2.2-0.8,4.6-1.3,7-1.6c1.7-0.2,2.4-1,2.1-2.5c-0.9-4.4-1.8-8.8-2.9-13.1c-0.5-1.9-1.4-3.6-2.1-5.4c-0.1-0.3,0-1.1,0.2-1.2
	c0.4-0.2,1-0.2,1.4,0.1c0.6,0.5,1.2,1.1,1.6,1.7c1.6,2.6,3,5.3,4.6,7.9c1.3-1.7,1.7-3.5,0.2-5.8c-1.3-2-2.1-4.3-3-6.6
	c-0.2-0.5,0-1.1,0.1-1.7c0.6,0.1,1.3,0,1.6,0.3c1,0.8,1.8,1.8,2.8,2.7c1.6,1.4,2.2,1.3,3.4-0.6c1.1-1.6,2.2-3.1,3.3-4.7
	c0.1-0.2,0.7-0.3,0.9-0.2c0.3,0.3,0.6,0.8,0.5,1.1c-0.3,1.2-0.7,2.5-1.3,3.6c-1.9,3.6-1.7,7,0.1,10.6c1.1,2.2,1.6,4.8,2.5,7.7
	c1.5-2.3,2.6-4.2,3.9-6c1.3-1.7,2.7-3.3,4.3-4.6c1-0.9,3.3-2,3.6-1.6c1.5,1.5-0.8,2.3-1.2,3.5c-0.4,1.3-1.2,2.5-1.9,3.8
	c-1.6,3.6-3.3,7.1-4.9,10.7c-0.3,0.3-0.6,0.7-0.9,1c-0.1,0.1-0.3,0.1-0.4,0.2c-0.1,0.1-0.1,0.2-0.1,0.3c0.2-0.2,0.3-0.3,0.5-0.5
	c0.3-0.3,0.7-0.6,1-0.9c1.6-0.1,2.6-0.9,2.9-2.5c0.6-2.7,1.3-5.5,1.9-8.2c1.1-1.1,2.2-2.3,3.3-3.4c0.4-0.3,1.3-0.5,1.7-0.3
	c0.3,0.1,0.4,1.1,0.3,1.6c-0.7,2.5-1.4,4.9-2.2,7.4c-0.5,1.7,0.2,2.4,1.9,2.4c2.3,0,4.5,0,6.8,0.1c0.5,0,1.3,0.6,1.4,1
	c0.1,0.5-0.4,1.3-0.9,1.5c-2,0.9-4.1,1.7-6.2,2.4c-1.2,0.4-2.4,0.6-4.7,1.2c2.3,0.9,3.5,1.3,4.8,1.8c1.9,0.9,4,4,5.8,2
	c2.3-2.6,4.5-5.9,3.1-10.1c-1.3-3.8-2-7.7-3-11.6c-0.1-0.3-0.3-0.6-0.2-0.9c0.1-0.4,0.4-1.1,0.7-1.2c0.5-0.1,1.3,0.1,1.6,0.4
	c1.8,2.7,3.5,5.4,5.1,8.1c0.8,1.4,1.4,1.3,2.6,0.5c2.2-1.5,4.6-2.8,7-4.2c0.3-0.1,1.1,0.1,1.1,0.3c0.1,0.4,0.1,1.1-0.2,1.3
	c-1.5,1.5-3.2,2.7-4.6,4.2c-2.9,3.1-5.1,6.6-4.5,12c1.7-1.7,3.1-2.9,4.3-4.3c2.8-3.4,6.7-4.9,10.5-6.6c0.5-0.2,1.5,0.1,2,0.5
	c0.2,0.2,0.1,1.3-0.3,1.7c-0.7,0.8-1.7,1.4-2.6,2.1c-3.9,3.2-6.9,7.1-9.4,11.5c-0.7,1.3-0.6,2.2,0.8,2.6c1.5,0.5,3.2,1.2,4.6,1
	c4.2-0.8,8.2-0.2,12.2,0.4c1.7,0.2,2.3-0.1,2.7-1.6c0.5-1.8,1.2-3.7,2-5.4c0.6-1.3,0.5-2.3,0.2-3.6c-0.6-3.5-1.3-6.9-3.1-9.9
	c-0.3-0.9-1-2-0.7-2.7c1.2-2.9-0.9-4.1-2.4-6.3c-1.2,2.9-0.6,5.1,0.1,7.4c0.5,1.7,1.7,1.5,3,1.6c-0.2,1,0.8,3.1-1.7,2.1
	c-1.8-0.7-3.9-1.3-5-2.6c-4.1-4.9-8.6-9.6-11.5-15.4c-0.4-0.9-0.9-1.7-1.1-2.7c-0.2-1.2-0.1-2.4-0.1-3.5c1.7,0.2,1.7,1.5,2.1,2.8
	c0.9,3.4,1.8,4,5.1,2.7c3.1-1.2,6.6-1.9,8.5-5.3c0.2-0.4,0.6-0.8,1-1c1.2-0.6,3-2,3.6-1.6c1.8,1.2-0.2,2.4-0.6,3.7
	c-0.6,1.7-1.6,3.2-2,4.9c-0.6,2.4,0.1,3.2,2.6,3.3c1.5,0.1,2.9,0,4.4,0c4.3,0,4.2-0.1,5.7-4.1c0.8-2.1,0.7-3.3-1.3-4.8
	c-3.1-2.3-6.2-4.6-9.7-6.2c-0.7-0.3-1.5-0.7-2-1.3c-4-4.8-7.9-9.7-11.8-14.6c-2.5-8.5-7.7-16.2-7.5-25.7c0.1-5.7-1.4-11.5-1.6-17.2
	c-0.2-8.5-1.1-17.1,0.8-25.5c0.9-3.9,1.3-7.9,1.9-11.8c0.6-3.8,1.1-7.6,1.6-11.4c0.2-1.3,0.3-2.6,0.3-3.8c0-7.2,1.2-14.3,2.5-21.4
	c0.8-4.4,2.4-9.1,0.6-13.8c-0.4-1.1-0.3-2.6,0-3.8c0.6-3.2,0.4-6.3,0-9.5c-0.5-4.1-0.2-8.4-1.3-12.4c-1.4-5.3,0-10.2,0.7-15.2
	c0.5-3.8,1.4-7.6,1.3-11.4c-0.2-6.2,0.8-12.2,2.4-18.1c0.9-3.4,1-6.6-0.5-9.9c-0.3-0.7-0.6-1.5-0.6-2.3c0.2-3.2,0.2-6.5,0.9-9.6
	c1.3-5.6,0.8-11.2,0.8-16.9c0-4.4,0.1-8.7,1.6-12.8c0.3-0.9,0.4-1.9,0.4-2.9c-0.6-8.9,1.4-17.5,3.5-26.1c1-4.2,1.6-8.5,2.4-12.7
	c0.2-0.9,0.4-1.9,0.9-2.7c2.1-3.9,2.1-8,1.9-12.2c-0.2-3.6,0.7-6.9,2.1-10.3c2-5.1,3.8-10.2,5.4-15.4c1.9-6.2,4.6-11.9,8-17.3
	c3.2-5.2,5.9-10.7,10.6-14.8c1.1-1,1.4-2.8,2.4-4.1c4.1-5.5,8.4-11,12.6-16.4c3.2-4.2,6.6-8.3,9.8-12.5c4.5-5.8,8.5-12.2,13.6-17.4
	c3.9-3.9,7-8.3,10.4-12.5c3.9-4.7,8.5-8.8,13.5-12.4c3.8-2.7,7.5-5.5,11-8.6c3.2-2.9,5.7-6.6,8.9-9.5c12-11,24.1-21.8,39.1-28.7
	c2.3-1,4.1-2.9,6.2-4.4c1.3,0,2.6,0,3.9,0c-2.2,3.7-6.4,4.7-9.7,6.8c-5.2,3.2-10.7,5.9-15.7,9.4c-5.2,3.7-10.1,8-15,12.1
	c-3,2.5-5.9,5-8.6,7.7c-2.2,2.1-3.9,4.7-6.1,6.8c-2.4,2.3-5.1,4.4-7.7,6.5c-4.6,3.8-9.5,7.2-13.7,11.3c-3.4,3.3-6.2,7.4-9.2,11.1
	c-0.7,0.9-1.1,2.1-2,2.7c-5.3,3.6-8.4,9.2-12.2,14.1c-6.3,8.1-12.3,16.4-19,24.2c-3.3,3.9-5.8,8.4-8.8,12.6c-1.6,2.2-3,4.6-4.9,6.5
	c-6.6,6.9-10.3,15.4-13.7,24.1c-2.5,6.4-4.9,12.9-7.3,19.4c-1.2,3.3-1.8,6.8-1.5,10.4c0.3,4.3-0.6,8.2-1.8,12.3
	c-1.4,4.7-2.1,9.7-3.1,14.5c-0.2,1.1-0.4,2.2-0.8,3.2c-2,4.7-1.9,9.7-2.9,14.6c-0.4,1.8-0.1,3.8,0,5.7c0.2,3.9-0.5,7.7-1.6,11.4
	c-0.4,1.3-0.4,2.9-0.3,4.3c0.3,5.9-0.1,11.8-0.1,17.7c0,2.2-0.6,4.4-0.7,6.7c-0.1,2.2-0.3,4.6,0.3,6.7c1.1,3.9,0.8,7.5-0.2,11.3
	c-1.5,5.8-2.4,11.6-2.3,17.6c0.1,3.8-0.6,7.7-1.2,11.4c-1,5.9-0.9,11.8,0,17.7c0.7,5.1,1.1,10.2,1.2,15.3c0.2,6.9,0.7,13.9-1,20.7
	c-2.3,8.7-1.3,17.6-3,26.2c-1.7,9-1.9,18.1-4.2,27c-1.2,4.6-0.1,9.9,0,14.9c0,0.8,0.4,1.6,0.4,2.4c0.4,6.9,0.7,13.8,1.1,20.7
	c0.3,6.3,2.4,12.2,5,18c1.1,2.5,2.6,4.8,3.9,7.2c0.5,0.9,1.3,2.8,1.9,0c0.4,0.1,1.1,0.1,1.2,0.3c0.6,1.3,1.1,2.6,1.5,4
	c0.2,0.9-0.1,2,0.3,2.9c0.2,0.6,1,1.2,1.7,1.5c0.2,0.1,0.9-0.7,1.2-1.2c1.1-2,1-3.8-0.3-5.9c-0.8-1.4-0.9-3.2-1.3-4.8
	c2.3-0.7,3.5,0.6,4.7,2.3c1.3,1.8,2.6,1.4,4.1,0.1c1.1-0.9,2.3-1.7,4.2-3c-0.4,1.9-0.7,3.1-0.9,4.2c-1.2,1-2.4,2.1-3.6,3.1
	c-1.7,1.4-0.9,2.8,0.1,4.1c2.9-0.9,3.8-2.9,3.4-5.8c-0.1-0.5,0-1,0-1.4c2.1,1.8,4.4,2.5,7,1.1c0.8-0.4,1.8-0.5,2.8-0.6
	c0.5,0,1.1,0.2,1.6,0.4c-0.3,0.5-0.4,1.2-0.9,1.6c-1.3,1-2.7,1.7-4,2.6c-0.8,0.6-1.6,1.2-2.1,1.9c-0.3,0.5-0.1,1.4-0.1,2.2
	c0.6-0.1,1.2,0,1.6-0.3c1.6-1.1,3-2.5,4.6-3.4c1.5-0.8,3.2-1.2,4.9-1.5c0.4-0.1,1.2,0.6,1.4,1.1c0.1,0.3-0.4,1.3-0.8,1.4
	c-2.6,0.5-3.9,2.7-5.8,4.1c-3.4,2.5-4.4,6.5-6.4,9.9c-0.3-0.3-0.6-0.6-1-1c-0.1-2.7-0.2-5.4-0.3-8.1c0-0.3-0.6-0.7-0.9-1
	c-0.2,0.3-0.6,0.6-0.6,1c-0.2,2.9,0.5,5.6,1.9,8.1c0.3,0.3,0.6,0.6,1,1c0.5,1,1.3,1,1.8,0.1c1-1.7,1.7-3.5,2.7-5.2
	c0.8-1.5,1.8-4,3.5-3.2c2,0.9,0.3,3.1-0.3,4.7c-0.8,2-1.7,4-2.7,6.5c6-3.2,7.3-6.1,6-11.8c-0.1-0.5-0.3-0.9-0.3-1.4
	c0-0.3,0.2-0.7,0.4-0.8c0.4-0.1,1.1-0.2,1.3,0c1,1.2,1.8,2.6,3.1,4.5c2.2-2.4,4.2-4.7,6.3-6.9c0.9-0.9,1.9-0.5,2.1,0.6
	c0.1,0.8-0.3,1.6,0,2.3c0.4,1.2,1.1,2.3,1.9,3.7c2.9-2.8,5.9-5.1,9.8-6c0.6-0.1,1.3-0.4,1.8-0.3c0.5,0.2,1,0.8,1.2,1.3
	c0.1,0.2-0.3,0.9-0.6,1.1c-3.4,2.4-6.9,4.7-10.3,6.9c0.2,0.6,0.2,0.9,0.4,1.1c0.7,1,3.1,0.1,2.7,2c-0.1,0.7-1.7,1.2-2.6,1.7
	c-0.7,0.4-1.8,0.5-2.1,1.1c-0.4,0.9-0.3,2-0.4,3c0.7,0.1,1.5,0.3,2.2,0.1c0.8-0.2,1.4-0.7,2.1-1.1c4-2.4,5.2-2.1,7.7,1.9
	c0.4,0.7,0.8,1.4,1,2.1c0.1,0.2-0.2,0.6-0.4,1c-1.3-0.9-2.5-1.9-3.9-2.6c-3.1-1.6-5.1-1-5.9,2.3c-0.7,2.8-0.8,5.8-1.3,8.9
	c-1.2,0.4-1-2.9-2.9-1.7c-0.1,0-1.1-1-1.3-1.6c-0.5-2.7-0.9-5.3-1.3-7.9c-3.4,5.3-3.3,8.3,0.4,13.2c0.8,1,1.6,2,2.2,3.2
	c0.4,0.8,0.6,2.1,0.2,2.5c-0.5,0.5-1.9,0.7-2.6,0.4c-2.7-1.3-5.2-2.8-7.6-4.2c-0.3,1.5-0.5,3.1-1,4.5c-0.3,0.7-1.3,1.4-2.1,1.6
	c-0.4,0.1-1.3-0.9-1.5-1.6c-0.8-2.4-1.5-4.9-2.2-7.4c-0.4-1.4-1.1-1.3-2.1-0.6c-2,1.5-1.8,3.6-1.6,5.7c0,0.2,0.6,0.6,1,0.6
	c1.9,0.2,1.8,1.1,0.7,2.2c-1.8,1.8-3.7,3.6-5.9,5.7c3.5,3,6.6,5.8,9.7,8.6c1.2,1.1,2.3,2.3,3.2,3.6c1,1.4,0.4,2.6-1.2,2.8
	c-1.7,0.1-3.5-0.1-5.3-0.2c-0.5,0-0.9-0.4-1.4-0.5c-2.1-0.5-4.2-1-6.3-1.5c-0.1,2.2-0.2,4.5-0.4,6.7c-0.2,1.7-0.5,3.3-0.8,5
	c-2.4-1.2-1-3.4-1.2-5.1c-0.2-3.5-0.1-7.1-0.4-10.6c-2.2,3-2.7,6.3-2.4,9.9c0.2,2.5,0.2,2.5-2.5,5c-1.1-1.8-0.4-3.8-0.5-5.7
	c1.5-1.2,0.9-2.7,0-4.2c0,1.4,0,2.8,0,4.2c-0.4,0.7-0.7,1.4-1.1,2c-0.2,0.3-0.8,0.4-1.1,0.6c-0.2-0.4-0.6-0.8-0.6-1.2
	c0.1-1.5,0.9-4,0.3-4.4c-1.6-1-3.8-1.5-5.8-1.7c-2.4-0.3-4.8-0.1-7.2-0.1c-0.3,0-0.6,0-1,0c-2.2-0.2-4.8-1.2-6.4-0.3
	c-1.4,0.7-1.7,3.5-2.5,5.4c-0.1,0.2-0.6,0.5-0.7,0.4c-0.4-0.2-0.9-0.6-0.9-0.9c-0.1-1.9,0-3.9-0.2-5.8c-0.2-2.9-0.6-5.7-0.9-8.5
	c0.1-0.1,0.3-0.1,0.4-0.2c0.1-0.1,0.1-0.2,0.1-0.3c-0.1,0.2-0.3,0.3-0.4,0.5c-1.6,0.7-1.9,1.8-1.6,3.5c0.4,2.5,0.5,5.1,0.6,7.6
	c0,0.4-0.5,0.8-0.7,1.1c-0.4-0.4-0.9-0.7-1.2-1.2c-0.3-0.5-0.2-1.2-0.3-2.1c-0.6,1.5-1.1,2.7-1.7,3.8c-0.2,0.3-0.9,0.6-1.2,0.4
	c-0.3-0.2-0.7-0.8-0.6-1.2c0.2-0.9,0.6-1.8,1-2.7c1.2-2.7,2-5.4,1.8-8.4c0.1-0.1,0.3-0.1,0.4-0.2c0.1-0.1,0.1-0.2,0.1-0.3
	c-0.2,0.2-0.3,0.3-0.5,0.5c-3.2,3.5-3.5,8.1-4.8,12.4c-0.2,0.6-0.7,1-1.1,1.5c-0.2-0.7-0.6-1.5-0.5-2.1c0.4-2.4,0.8-4.8,1.6-7
	c0.6-1.7,0.6-2.7-1.1-3.4c-1.7-0.8-3.4-1.7-5.2-2.5c-1.8-0.9-2.4,0.2-2.4,1.7c-0.1,3.2,0,6.4,0,10.2c-3.1-2.3-1.9-4.9-2-7.1
	c-0.1-2.3,0.4-4.7,0.6-7.4c-0.6,0.5-1.2,0.8-1.3,1.1c-0.4,4.7-2.3,9.4-0.9,14.3c0.1,0.4,0.3,1,0.1,1.4c-0.1,0.4-0.6,0.9-0.9,1
	c-0.3,0.1-1-0.3-1.1-0.6c-0.3-0.7-0.6-1.5-0.5-2.3c0.1-3.2,0.4-6.4,0.6-9.6c0-0.4-0.2-0.8-0.4-1.3c-0.5,0.3-1.5,0.5-1.6,0.8
	c-0.2,1.5-0.3,3.2,0,4.7c0.2,1.3,0.7,2.5-1.1,3.6c-0.3-3.2-1.6-5.8-0.8-9.1c0.6-2.6-0.2-5.7-0.9-8.5c-1.1-4.2-2.6-8.2-4.4-12.3
	c0.1,1.3,0,2.5,0.4,3.7c1.3,5.1,2.5,10.2,2.7,15.6c0.1,3.8,1.1,7.5,0.5,11.9c-3.2-2.8-0.8-6.5-2.5-9.7c-0.8,2.3-1.4,4.3-2.2,6.2
	c-0.1,0.4-0.5,0.6-0.7,1c-0.3-0.3-0.9-0.6-1-0.9c-0.2-1.1-0.2-2.2-0.2-3.3c1.6-1.2,0.9-2.9,0.9-4.4c-0.2-6.9-0.6-13.9-0.9-20.8
	c1.2-0.9,1.1-2.1,0.2-4.1c-0.1,1.9-0.2,3-0.2,4.1c-1.6,1.6-0.7,3.6-1,5.4c-1.3,6.2-1.7,12.4,1,18.3c0.2,0.4,0,1,0,1.4
	c-0.6-0.4-1.6-0.5-1.9-1.1c-0.8-1.3-1.2-2.8-1.9-4.4c-0.6,0.4-0.9,0.6-1,0.8c-0.4,1.1-0.4,2.5-1.1,3.4c-0.5,0.6-1.3-1.3-0.8-3.6
	c0.2-0.9,0.6-1.8,0.7-2.8c0.1-0.9,0-1.3-1.3-1.3c-5.6,0.1-10.6,1.9-15.4,4.8c-1.6,1-1.9,2.1-1.4,3.6c0.6,1.7,1.5,3.4,2,5.3
	c-2.2-0.9-3.9-2.1-4.2-4.6c-0.4-4-0.7-8-1.1-12c0-0.3-0.1-0.6-0.8-1.1c-0.3,1.4-0.9,2.8-0.8,4.2c0.1,2.9,0.5,5.7,0.8,8.6
	c0.1,1.1,0.3,2.3,0,3.4c-0.5,1.5,1.9,2.9,0.1,4.3c-0.7-1-1.3-2-2-3c-0.2-0.3-0.8-0.3-1.3-0.2c-0.1,0-0.4,0.5-0.4,0.8
	c0.1,0.8,0.5,1.5,0.5,2.3c0,0.3-0.5,0.7-0.8,1c-0.3-0.3-1-0.5-1-0.8c0-1.9-1.8-3.9,0.3-5.9c0.6-0.5,0.6-1.8,0.5-2.8
	c-0.4-5,0.9-9.5,2.7-14.1c0.9-2.3,1.5-4.8,1.9-7.4c-4.8,10.4-7.4,21.5-9.4,32.8c-0.3,0-0.6,0-1,0c-0.3-1-0.8-2-0.8-2.9
	c0-0.7,0.7-1.6,0.6-2.3c-0.2-1.5,1.7-4,0.1-4.2c-1.9-0.3-4.1,1.3-6,2.2c-0.2,0.1,0,1.4,0.3,2.1c0.3,0.8,1.6,1.6,0.2,2.3
	c-0.3,0.2-1.4-1-2.1-1.6c-0.1-0.1-0.1-0.3-0.2-0.4c-0.1-0.1-0.2-0.1-0.3-0.1c0.2,0.2,0.3,0.3,0.5,0.5c0,0.8,0.3,1.7-0.1,2.4
	c-0.5,1.1-1.6,2.9-2.1,2.8c-1.6-0.3-1.3-1.8-0.9-3.1c0.2-0.8,0.1-1.6,0.1-2.4c0-1.2-0.8-1.6-1.9-1.6c-0.3,0-0.7,0-1,0.1
	c-6.5,2.4-13.4,2.9-20.1,4.4c-3.8,0.8-7.6,1-11.1,2.8c-1,0.5-1.9-0.4-1.5-1.5c1.3-3.7,3.6-6.8,6.3-9.5c1.2-1.3,2.7-2.2,4.1-3.4
	c2.3-1.9,2.3-2.1,0.3-3.9c-0.8-0.7-1.9-1.3-2.7-2c-0.4-0.4-0.6-1-0.8-1.5c0.7-0.3,1.4-0.8,2-0.7c1.2,0.2,2.4,0.8,3.6,1.2
	c3.9,1.6,3.9,1.6,7.1-2.4c-4-1-7.8-2-11.7-3c-1.1-0.3-2.2-0.4-3.2-0.9c-2.8-1.3-2.8-1.9-0.1-3.7c1.5-0.9,1.9-1.6,0.6-2.9
	c-0.1-0.1-0.2-0.2-0.3-0.4c-1.2-1.3-2.2-3.1-3.7-3.6c-1.1-0.3-2.8,1.2-4.2,1.9c-0.3,0.1-0.6,0.4-0.9,0.4c-0.4,0-0.9-0.2-1.2-0.4
	c-0.1-0.1,0-0.7,0.1-0.9c0.5-0.6,1-1.3,1.6-1.8c2.6-2.2,2.6-2.2,0.1-4.6c-2-1.9-4-3.7-6-5.6C0,516.4,0,515.7,0,515.1z M72.7,532.5
	c-0.3,0.3-0.6,0.7-1,1c-0.3,0.3-0.6,0.7-1,1c-2.2,1.3-2.9,3.4-2.9,5.8c-0.1,0.1-0.3,0.1-0.4,0.2c-0.1,0.1-0.1,0.2-0.1,0.3
	c0.2-0.2,0.3-0.3,0.5-0.5c1-1.9,1.9-3.9,2.9-5.8c0.3-0.3,0.7-0.6,1-1C72.1,533.2,72.5,532.9,72.7,532.5c0.2-0.1,0.3-0.3,0.5-0.5
	C73.1,532.2,72.9,532.3,72.7,532.5z M192.1,509.3c0.3-0.3,0.6-0.6,1-1c0.3-0.3,0.6-0.6,1-1c1-0.7,1.9-1.3,2.9-2c0.3-0.3,0.6-0.6,1-1
	c0.4-0.1,0.8-0.2,1.2-0.3c-0.1-0.2-0.2-0.3-0.3-0.5c-0.3,0.3-0.6,0.5-1,0.8c-0.3,0.3-0.6,0.6-1,1c-1,0.6-2,1.3-2.9,1.9
	c-0.3,0.3-0.6,0.6-1,1C192.7,508.6,192.4,508.9,192.1,509.3c-0.2,0.1-0.3,0.3-0.5,0.5C191.8,509.6,191.9,509.4,192.1,509.3z
	 M49.4,508.3c0.3,0.3,0.6,0.6,1,1c0.7,1,1.3,1.9,2,2.9c0.1,0.4,0.2,0.8,0.3,1.3c0.2-0.1,0.3-0.2,0.5-0.3c-0.3-0.3-0.5-0.6-0.8-0.9
	c-0.6-1-1.3-2-1.9-2.9C50.1,508.9,49.8,508.6,49.4,508.3c-0.1-0.2-0.3-0.3-0.4-0.5C49.2,508,49.3,508.1,49.4,508.3z M182.4,521.9
	c0.3-0.3,0.7-0.6,1-0.9c0.1-0.2,0.3-0.4,0.4-0.5c-0.2,0.2-0.3,0.3-0.5,0.5C183,521.2,182.7,521.5,182.4,521.9
	c-0.1,0.1-0.3,0.1-0.4,0.2c-0.1,0.1-0.1,0.2-0.1,0.3C182,522.2,182.2,522,182.4,521.9z M166.9,497.6c0.1-0.2,0.3-0.3,0.4-0.5
	C167.1,497.3,167,497.4,166.9,497.6c-0.4,0.3-0.7,0.6-1,0.9c-0.6,0.3-1.3,0.7-1.9,1c-1.2,0.8-2.5,1.4-3.6,2.3
	c-1.3,1.1-1.6,2.4-0.5,4.5c1.5-2.6,2.8-4.7,4.1-6.8c0.7-0.3,1.3-0.6,2-1C166.2,498.3,166.5,498,166.9,497.6z M169.8,503.4
	c0.1-0.1,0.3-0.1,0.4-0.2c0.1-0.1,0.1-0.2,0.1-0.3C170.1,503.1,169.9,503.3,169.8,503.4c-0.3,0.3-0.7,0.6-1,1
	c-1.4,0.7-2.5,1.6-1.9,3.6c0.6-1.2,1.2-2.4,1.9-3.6C169.1,504.1,169.4,503.8,169.8,503.4z M129,541.2c-0.3,0.7-0.6,1.3-1,2
	c-0.3,0.6-0.6,1.3-1,1.9c-0.3,0.6-0.7,1.3-1,1.9c-0.3,0.3-0.5,0.6-0.8,0.9c0.2,0.1,0.3,0.2,0.5,0.3c0.1-0.4,0.2-0.8,0.3-1.2
	c0.3-0.6,0.6-1.3,1-1.9c0.3-0.6,0.6-1.3,1-1.9C128.4,542.6,128.7,541.9,129,541.2c0.2-0.1,0.3-0.3,0.5-0.5
	C129.3,540.9,129.2,541.1,129,541.2z M163,547.1c0.3-0.3,0.5-0.6,0.8-1c-0.2-0.1-0.3-0.2-0.5-0.3C163.2,546.2,163.1,546.7,163,547.1
	c-0.3,0.3-0.6,0.6-1,1c-3.6,3.6-4.4,5.3-4.2,9.8c1.6-3.7,2.9-6.7,4.2-9.8C162.3,547.7,162.6,547.4,163,547.1z M21.4,547.1
	c-0.2-0.2-0.3-0.3-0.5-0.5C21,546.8,21.2,546.9,21.4,547.1c0.3,0.3,0.6,0.5,0.9,0.8c0.1-0.2,0.2-0.3,0.3-0.5
	C22.2,547.3,21.8,547.2,21.4,547.1z M47.5,515.1c0.3,0.6,0.7,1.3,1,1.9c0,0.6,0,1.3,0.2,1.8c0.1,0.3,0.6,0.5,0.9,0.8
	c0.1-0.5,0.4-1.1,0.3-1.5c-0.2-0.5-0.9-0.8-1.4-1.2C48.2,516.4,47.9,515.7,47.5,515.1c-0.3-0.7-0.6-1.3-0.9-2
	c-0.2-0.2-0.3-0.3-0.5-0.5c0.2,0.2,0.3,0.3,0.5,0.5C46.9,513.8,47.2,514.4,47.5,515.1z M153.3,494.7c0.1,0.1,0.1,0.3,0.2,0.4
	c0.1,0.1,0.2,0.1,0.3,0.1C153.6,495,153.4,494.9,153.3,494.7c-0.1-0.4-0.2-0.8-0.3-1.3c-0.2,0.1-0.3,0.2-0.5,0.3
	C152.7,494.1,153,494.4,153.3,494.7z M139.7,543.2c0.3-0.1,0.7,0,0.9-0.2c0.3-0.2,0.5-0.7,0.7-1c-0.4,0.1-0.8,0.2-1.1,0.4
	C139.9,542.6,139.8,542.9,139.7,543.2c-0.3,0.3-0.6,0.6-1,1c-5.3,2.4-8.2,7.2-7.2,11.5c2.1-3.1,4.4-6.3,6.6-9.7
	c0.3-0.5,0.4-1.2,0.6-1.8C139,543.8,139.4,543.5,139.7,543.2z M104.8,547.1c-0.5-0.1-1.1-0.2-1.6-0.3c0.1,0.3,0.1,0.5,0.2,0.8
	C103.8,547.5,104.3,547.3,104.8,547.1c0.3-0.3,0.6-0.6,1-1c1.8-0.7,3.5-1.5,5.3-2.2c-0.1-0.3-0.3-0.6-0.4-0.9
	c-1.8,0.7-3.8,0.9-4.9,3.1C105.4,546.4,105.1,546.8,104.8,547.1z M27.2,517c0-0.4,0-0.9-0.1-1.3c-0.1-0.3-0.3-0.6-0.5-0.9
	c-0.1,0.3-0.3,0.6-0.2,0.8C26.5,516.1,26.9,516.5,27.2,517c0,1.1,0.1,2.2,0.1,3.3C28,519.1,28.6,517.9,27.2,517z M38.8,523.8
	c-0.3-0.3-0.6-0.6-1-1c-0.7-2.6-0.7-2.6-2.9-1.9c-0.1-0.1-0.1-0.3-0.2-0.4c-0.1-0.1-0.2-0.1-0.3-0.1c0.2,0.2,0.3,0.3,0.5,0.5
	c1,0.7,1.9,1.3,2.9,2C38.1,523.2,38.5,523.5,38.8,523.8c0.1,0.5,0.2,1,0.4,1.3c0.1,0.2,0.5,0.2,0.8,0.3c0-0.4,0.3-1,0.1-1.2
	C39.8,524,39.3,523.9,38.8,523.8z M156.1,496.6c-0.6,1-1.3,2-1.9,2.9c-0.3,0.5-0.6,1-0.8,1.6c-0.1,0.2,0.3,0.5,0.4,0.7
	c0.1-0.3,0.3-0.6,0.4-0.9c0.1-0.5,0.1-1,0.1-1.4C154.9,498.6,155.5,497.6,156.1,496.6c0.2-0.1,0.4-0.3,0.5-0.4
	C156.5,496.3,156.3,496.5,156.1,496.6z M157.1,506.3c0.1,0.4,0.2,0.8,0.3,1.3c0.2-0.1,0.3-0.2,0.5-0.3
	C157.6,507,157.4,506.7,157.1,506.3c-0.2-1.5,0.4-3.3-1.6-4.4C156.1,503.4,156.6,504.9,157.1,506.3z M88.3,533.5c0-0.5,0-1-0.1-1.4
	c0-0.3-0.2-0.6-0.3-0.9c-0.1,0.2-0.5,0.5-0.4,0.7C87.7,532.5,88,533,88.3,533.5c0,0.8,0,1.5,0.1,2.3c0.1,0.4,0.4,0.7,0.6,1
	c0.3-0.4,1-1.1,0.9-1.3C89.5,534.7,88.8,534.2,88.3,533.5z M184.3,522.8c-0.4,0.3-1,0.5-1.1,0.8c-0.3,1.1-0.3,2.3-0.5,3.4
	c0.1,0,0.4,0.1,0.4,0c0.4-0.9,0.8-1.9,1.1-2.8C184.4,523.8,184.3,523.3,184.3,522.8c0.1-0.1,0.3-0.1,0.4-0.2
	c0.1-0.1,0.1-0.2,0.1-0.3C184.6,522.5,184.5,522.7,184.3,522.8z M177.5,514.1c2.1-1.5,4.3-3,4.9-5.8c0.1-0.1,0.3-0.1,0.4-0.2
	c0.1-0.1,0.1-0.2,0.1-0.3c-0.2,0.2-0.3,0.3-0.5,0.5C180.3,509.9,178,511.2,177.5,514.1c-1.5,0.8-2.6,2-3.2,3.6
	C176.1,517.1,177.4,516.1,177.5,514.1z M27.1,526.7c0.1,0.1,0.1,0.3,0.2,0.4c0.1,0.1,0.2,0.1,0.3,0.1
	C27.5,527,27.3,526.9,27.1,526.7c-0.5-3-2.7-4.3-5.5-5.1C23.5,523.3,25.3,525,27.1,526.7z M36.9,515c-0.2-0.1-0.3-0.3-0.5-0.4
	C36.5,514.8,36.7,514.9,36.9,515c0.7,2.3,1.3,4.7,3.5,6.6C41.2,517.9,38.8,516.6,36.9,515z M4.8,519c-0.1-0.1-0.1-0.3-0.2-0.4
	c-0.1-0.1-0.2-0.1-0.3-0.1C4.5,518.6,4.7,518.8,4.8,519c1.5,1.6,3,3.3,4.5,4.9c0.3,0.3,1,0,1.6,0c-0.1-0.4,0-1-0.2-1.2
	C9.2,520.8,7.4,519.2,4.8,519z M176.5,534.5c0,0.5,0,1,0.1,1.4c0.1,0.3,0.2,0.6,0.4,0.9c0.1-0.3,0.5-0.6,0.4-0.7
	C177.2,535.5,176.9,535,176.5,534.5c0.2-0.8,0.4-1.6,0.7-2.3c0.6-2.2-0.5-3.7-2-5c-0.4-0.3-1.2-0.1-1.8-0.1c0,0.5-0.2,1.2,0,1.6
	C174.4,530.6,175.5,532.6,176.5,534.5z M186.2,536.4c0.2,0.1,0.3,0.3,0.5,0.4C186.6,536.7,186.4,536.5,186.2,536.4
	c-1.2-4-5.1-5.9-7.1-9.4c-0.4,3.8,1.4,6.3,4.5,8C184.5,535.5,185.4,536,186.2,536.4z M30.9,533.3c0.4-0.1,0.8-0.3,1.2-0.4
	c1.2,1.7,2.4,3.3,3.7,4.9c0.4,0.5,1.4,1.2,1.7,1c0.8-0.4,2-1.6,1.9-1.9c-1.2-2.4-2.6-4.8-4.2-6.9c-0.3-0.4-1.8-0.1-2.7,0.1
	c-0.9,0.3-1.7,1.3-2.5,1.3c-4.5-0.1-8.1,2.5-12.2,3.6c-0.7,0.2-1.3,1-2.3,1.8c2.4,0.6,4.2,1.1,6.1,1.5c2.6,0.6,5.3,1.4,7.9,1.9
	c2.1,0.4,2.7-0.3,2.3-2.3C31.4,536.3,31.1,534.8,30.9,533.3z M160.8,529.7c-0.6,0.1-1.3,0.1-1.9,0.2c-2.2,0.5-2.6,1.5-1.3,3.3
	c0.4,0.5,0.8,1,1.3,1.5c0.8,1,1.6,2,2.4,3c1.4,1.6,0.4,2.2-1,2.8c0.5,1.1,1,2.3,1.6,3.4c0.7-0.3,1.4-0.7,2-1.1
	c0.4-0.2,0.7-0.6,1.1-1c0.9-0.9,3.1-0.8,2.2-3c-0.5-1.3-0.2-2.7-1.8-3.7c-1.1-0.7-1.8-2.3-2.2-3.6
	C162.7,530.2,162.1,529.5,160.8,529.7z M175.3,558.9c-0.2-0.5-0.2-0.8-0.4-1c-3-2.7-5.9-5.4-8.9-8c-1-0.9-1.7-0.5-2.2,0.5
	c-0.7,1.3-0.2,5.7,0.9,6.1c3.1,1.2,6.3,2.1,9.6,3C174.6,559.6,175,559.1,175.3,558.9z M53.1,524.1c-1.8,0.3-3.1,0.6-4.5,0.7
	c-3.3,0.2-3.3,0.1-4.8-3.2c0,2.2,0.5,4.4,0.5,6.6c0,2-0.4,4.1-0.6,6.5C47.1,531.3,50.9,528.7,53.1,524.1z M187.6,503.6
	c-1.7,2.5-2.9,4-3.7,5.7c-0.7,1.7-3,2.7-2.3,5c1.7-0.7,3.4-1.4,5.1-2c1.9-0.7,2.4-1.7,1.5-3.7C187.9,507.5,188,506.1,187.6,503.6z
	 M143.9,529.8c0.7-1.4,1.1-2.1,1.3-2.9c0.2-0.6,0.2-1.2,0.2-1.9c0.2-1.7-0.7-2.3-2.3-2.1c-2.1,0.2-2.8,1.3-1.8,3.2
	C142,527.2,142.8,528.2,143.9,529.8z M176.5,523.2c-1.2-1.1-1.9-2-2.8-2.5c-0.7-0.4-2.2-0.5-2.5-0.1c-0.7,1-0.8,2.3-1.2,3.5
	c0.9,0.2,1.8,0.6,2.7,0.5C173.8,524.4,174.8,523.9,176.5,523.2z M193.4,513.3c-4-0.1-6.6,0.8-9.2,1.9c-0.6,0.2-1.1,0.7-1.5,1.1
	c-0.4,0.6-0.6,1.3-0.9,2c0.7-0.1,1.5-0.1,2-0.4c1.8-1.7,3.8-2.8,6.3-3C190.9,514.8,191.7,514.1,193.4,513.3z M40.1,533.8
	c-0.7-3.8-1.6-7.6-5.2-9.9c-0.3,0.3-0.5,0.5-0.4,0.6C36.3,527.6,38.2,530.7,40.1,533.8z M125.6,532.6c-0.3,0.1-0.7,0.3-1,0.4
	c0.5,1.8,0.9,3.6,1.5,5.3c0.2,0.6,0.9,1,1.3,1.5c0.2-0.7,0.7-1.6,0.5-2.2C127.3,536,126.4,534.3,125.6,532.6z M47.4,522.4
	c0.2-0.4,0.7-1,0.5-1.4c-0.7-1.8-1.7-3.6-2.5-5.4c-1.9,1.9,0.6,3.6,0.3,5.5c-0.1,0.4,0.3,0.9,0.5,1.2
	C46.3,522.6,46.8,522.4,47.4,522.4z M106.6,533.3c-0.3-0.1-0.6-0.3-0.9-0.4c-0.8,1.5-1.8,3-2.4,4.6c-0.5,1.2-0.7,2.6-1.1,4
	c2.1-0.1,1.3-2.1,2-3.1C105.2,536.8,105.8,535,106.6,533.3z M148.2,534.1c0.1-2,0.1-3.7,0.3-5.4c0.1-0.9,1-1.9-0.5-2.3
	c-0.2-0.1-1,1.1-1.2,1.8C146.3,530.2,146.3,532.3,148.2,534.1z M17.2,532c0.4,0,0.9,0,1.3-0.1c-0.3-1.5-0.5-3-0.9-4.4
	c-0.1-0.3-0.9-0.5-1.2-0.4c-0.3,0.1-0.8,0.8-0.7,1C16.1,529.5,16.7,530.7,17.2,532z M52.3,516.2c-0.5-0.8-1-1.6-1.5-2.3
	c-0.6-0.7-0.4-2.3-2-1.9c0.3,1,0.6,2,1.1,2.9c0.3,0.7,0.9,1.2,1.5,1.8C51.3,516.7,51.8,516.4,52.3,516.2z M23.7,530.7
	c0.6-1.3,1.1-2,1-2.4c-0.3-0.8-1.2-2.2-1.4-2.1c-1.5,0.5-0.3,1.5-0.1,2.3C23.2,528.9,23.4,529.4,23.7,530.7z M179.7,521.1
	c0.1,0,0.3,0,0.4,0c0-1.8,0-3.6,0-5.4c-0.1,0-0.3,0-0.4,0C179.7,517.5,179.7,519.3,179.7,521.1z M63.4,529.9c0.1,0,0.2,0,0.3,0
	c0-1.5,0-2.9,0-4.4c-0.1,0-0.2,0-0.3,0C63.4,527,63.4,528.4,63.4,529.9z M171.6,529.8c-0.4-0.5-0.7-0.9-0.7-0.9
	c-0.6,0.4-1.2,0.8-1.8,1.2c0.2,0.3,0.6,0.8,0.6,0.8C170.3,530.6,170.9,530.2,171.6,529.8z M157.4,528.5c-1.4-0.8-2-1.2-2.7-1.4
	c-0.3-0.1-0.8,0.2-1.2,0.4c0.2,0.3,0.4,0.9,0.7,1C155,528.5,155.8,528.5,157.4,528.5z M160.8,507.8c-0.1,0.8-0.3,1.5-0.2,2.2
	c0,0.2,0.7,0.4,1.1,0.6c0.1-0.8,0.2-1.5,0.2-2.3C161.8,508.1,161.3,508,160.8,507.8z M167.6,520.3c-0.6,1.8-0.9,2.6-1.1,3.3
	c-0.1,0.2,0.1,0.5,0.2,0.8c0.3-0.2,0.9-0.5,0.9-0.8C167.7,523,167.6,522.2,167.6,520.3z M113.1,542.5c0,0.1,0,0.2,0,0.3
	c1.1,0,2.2,0,3.4,0c0-0.2,0-0.4,0-0.6C115.4,542.4,114.3,542.4,113.1,542.5z M150.1,521.4c-0.1-0.4-0.2-0.7-0.3-1
	c-0.4,0.5-1,1-1.3,1.7c-0.1,0.2,0.2,0.7,0.4,1.1C149.3,522.6,149.8,521.9,150.1,521.4z M42.7,529.3c-0.3-0.4-0.6-0.9-1-1.3
	c0,0-0.7,0.4-0.7,0.4c0.2,0.5,0.6,1,0.8,1.5C42.1,529.8,42.3,529.7,42.7,529.3z M36.6,509.8c-0.4-0.6-0.8-1.2-1.2-1.8
	c-0.1,0.4-0.5,0.9-0.4,1.1c0.3,0.6,0.8,1.1,1.2,1.6C36.4,510.4,36.5,510.1,36.6,509.8z M189.8,516.8c-0.3,1.2-0.6,1.6-0.5,2
	c0,0.5,0.3,0.9,0.5,1.4c0.1-0.3,0.3-0.5,0.3-0.8C190,518.8,189.9,518.2,189.8,516.8z M191,527.1c-0.1-0.3-0.2-0.5-0.3-0.8
	c-0.1,0.2-0.4,0.5-0.4,0.7c0,0.3,0.3,0.6,0.5,0.9C190.8,527.7,190.9,527.4,191,527.1z M166.8,529.1c-0.2-0.3-0.3-0.6-0.5-0.8
	c-0.1,0.3-0.3,0.5-0.3,0.8c0,0.3,0.2,0.6,0.3,0.8C166.4,529.6,166.6,529.3,166.8,529.1z M159.4,544.6c-0.1,0.6-0.1,1-0.1,1.5
	c0,0.1,0.2,0.2,0.3,0.4c0.2-0.3,0.4-0.7,0.4-1C159.9,545.2,159.6,545,159.4,544.6z M154.5,504.7c-0.1,0.8-0.1,1.3-0.1,1.7
	c0,0,0.4,0,0.6,0.1c0-0.3,0.1-0.6,0.1-0.9C155,505.3,154.8,505.2,154.5,504.7z M96.9,544.8c-0.2-0.3-0.3-0.6-0.5-1
	c-0.1,0.3-0.3,0.5-0.3,0.8c0,0.3,0.2,0.5,0.3,0.8C96.6,545.3,96.7,545.1,96.9,544.8z M177.3,518.9c-0.1-0.1-0.1-0.3-0.2-0.4
	c-0.1,0-0.2,0.1-0.3,0.2c0.1,0.2,0.3,0.4,0.4,0.6C177.2,519.2,177.3,519.1,177.3,518.9z M46,509.6c0.1-0.1,0.3-0.1,0.3-0.2
	c0-0.1,0-0.3,0-0.4c-0.2,0.1-0.3,0.2-0.5,0.3C45.9,509.4,46,509.5,46,509.6z M23.6,509.9c0,0.1-0.1,0.3-0.1,0.4c0.2,0,0.4,0,0.5,0.1
	c0-0.1,0-0.3-0.1-0.4C23.9,509.9,23.7,509.9,23.6,509.9z M87.1,528.6c-0.1-0.1-0.2-0.3-0.2-0.4c-0.1,0.1-0.3,0.3-0.3,0.3
	c0.1,0.2,0.3,0.3,0.4,0.5C87,528.8,87.1,528.7,87.1,528.6z M46.2,547.7c-0.1,0-0.3,0-0.3,0.1c-0.1,0.1-0.1,0.3-0.1,0.4
	c0.2,0,0.4-0.1,0.6-0.1C46.3,548,46.2,547.8,46.2,547.7z M192.5,524.2c0.1-0.1,0.3-0.1,0.3-0.2c0-0.1,0-0.3,0-0.4
	c-0.2,0.1-0.3,0.2-0.5,0.3C192.3,523.9,192.4,524.1,192.5,524.2z M19.6,525.5c0.1-0.1,0.2-0.2,0.3-0.3c-0.2-0.1-0.4-0.3-0.7-0.3
	c-0.1,0-0.2,0.2-0.3,0.2C19.1,525.3,19.4,525.4,19.6,525.5z"/>
<path d="M123.2,488.9c0.4,2.6-0.4,3.7-2.4,2.6c-3.3-1.9-6.6-4-9.6-6.4c-6.8-5.4-9.9-13.3-13-21.1c0.2-4.4-1.8-8.8,0-13.2
	c1.3-3.3,3.6-5,7.2-5.7c4.1-0.8,7.6,0,10.5,2.9c1.2,1.2,2.2,1.2,3.1-0.3c0.2-0.3,0.3-0.6,0.5-0.8c1.3-1.8,3.2-3,5.4-2.6
	c2.3,0.5,3.7,2.3,4.3,4.7c1.7,7.2,1.3,14.4-0.2,21.5c-1.1,5.5-2.5,10.9-3.9,16.3C124.8,487.6,123.8,488.2,123.2,488.9
	c-0.1-0.1-0.1-0.3-0.2-0.4c-0.1-0.1-0.2-0.1-0.3-0.1C122.9,488.6,123,488.7,123.2,488.9z M125.1,447.1c-0.2-0.2-0.3-0.3-0.5-0.5
	C124.8,446.8,125,447,125.1,447.1c0.3,0.4,0.6,0.7,0.9,1c0.1,0.4,0.2,0.8,0.3,1.3c0.2-0.1,0.3-0.2,0.5-0.3c-0.3-0.3-0.5-0.6-0.8-1
	C125.8,447.8,125.5,447.5,125.1,447.1z M114.5,450.1c-0.3-0.3-0.7-0.6-1-1c-0.2-0.3-0.2-0.6-0.5-0.8c-0.5-0.4-1-0.6-1.5-0.9
	c0,0-0.4,0.5-0.4,0.5c0.5,0.4,0.9,0.7,1.4,1c0.2,0.1,0.6,0.1,0.9,0.1C113.8,449.4,114.1,449.8,114.5,450.1c0.1,0.2,0.3,0.3,0.5,0.5
	C114.8,450.4,114.6,450.2,114.5,450.1z M111.2,460.4c-2.3,1.7-2.8,4.1-2.7,6.7c0,0.3-0.5,0.7-0.8,1c-0.3-0.3-0.9-0.6-0.9-0.9
	c-0.1-3.4-0.1-6.8,0-10.2c0-0.3,0.5-0.7,0.9-0.9c0.1-0.1,0.7,0.2,0.7,0.4c0.5,2,1.1,2.2,2.1,0.3c0.7-1.2,1.4-1.1,2,0.2
	c0.2,0.6,0.3,1.3,0.6,1.8c0.9,1.7,0.4,4.1,2.5,5.3c0.2-1.8,0-3.9,0.8-5.5c1.6-3.2-0.5-4.6-2.2-6.5c-2.5-2.8-5.7-3.4-9.2-3.1
	c-3.3,0.3-3.9,0.8-5.2,3.9c-1.6,3.8,0,7.3,0.8,10.8c2.3,9.8,8.2,17.2,16.3,23.1c3.3,2.4,3.5,2.3,4.8-1.6c3-9.2,5.1-18.6,4.4-28.4
	c-0.2-2.4-0.6-4.8-1.2-7.1c-0.3-0.9-1.4-2.1-2.3-2.2c-0.7-0.1-1.8,1.1-2.3,1.9c-0.8,1.5-1.3,3.2-1.7,4.9c-0.4,1.3,0.2,2.1,1.7,2
	c0,0,0.4,1.2,0.2,1.3c-0.7,0.6-1.6,0.9-2.8,1.6c1.7,0.3,3,0.6,5,1c-1.8,1.1-2.9,1.7-4,2.3c1.8,0,3.4-0.6,4.3,1.7
	c-0.7,0.1-1.3,0.2-1.9,0.4c-2.2,0.7-4.4,1.4-6.6,2.1C113.3,464.7,112.2,462.5,111.2,460.4z M128,452.9c-0.1-0.4-0.2-0.8-0.4-1.2
	c-0.1,0.2-0.4,0.4-0.4,0.6c0,0.3,0.1,0.6,0.1,0.9C127.5,453.1,127.7,453,128,452.9z"/>
<path d="M94.1,395.7c-0.1-7.3,3.6-12.5,9.3-14.6c2.5-0.9,4.7-0.4,6.7,1.1c0.7,0.5,1.2,1.1,1.8,1.7c2.5,2.3,2.3,2.1,4.6-0.6
	c3.9-4.6,7.7-5.2,11.2-0.9c3.4,4.1,4.8,8.9,3.9,14.3c-0.9,5.8-3.6,10.9-5.8,16.2c-2.1,5.2-4.5,10.3-6.8,15.4
	c-0.2,0.4-0.4,0.9-0.6,1.3c-0.8,1.4-1.9,1.5-3,0.1c-3-3.7-6-7.5-8.9-11.3c-3-4.1-5.9-8.4-8.8-12.6C95.5,402.3,94.8,398.3,94.1,395.7
	z M128,388c-0.3-0.6-0.6-1.3-1-1.9c0-1.3-0.6-1.9-1.9-2c-0.3-0.3-0.7-0.6-1-1c-0.9-1.4-2-1.1-4-0.2c1.8,0.1,2.9,0.2,4,0.2
	c0.3,0.3,0.6,0.7,1,1c0.7,0.6,1.3,1.3,2,1.9C127.4,386.7,127.7,387.4,128,388c0,0.4,0,0.9,0.1,1.3c0.1,0.3,0.3,0.6,0.5,0.9
	c0.1-0.3,0.3-0.6,0.2-0.8C128.7,388.9,128.3,388.5,128,388z M115.4,392.9c-0.6-0.3-1.3-0.4-1.7-0.8c-1.4-1.6-2.6-3.2-4-4.8
	c-3.3-3.7-9.4-3-11.9,1.1c-1.5,2.5-2.1,5.2-1.5,7.9c0.6,2.6,1.4,5.3,2.8,7.6c2.7,4.4,5.7,8.5,8.7,12.7c1.9,2.7,4,5.4,6.1,8
	c1.2,1.5,2.1,1.3,2.8-0.4c1.4-3.2,2.6-6.4,4-9.6c-3.2,0.3-3.2,0.3-3.3-2.5c0-1.4,0-2.8,0-4.3c2.2,0.6,1.8,2.1,2.1,3.3
	c0.4,1.2,1.8,1.5,2.6,0.6c0.6-0.7,1.2-1.5,1.5-2.4c1.1-2.7,2.3-5.3,3-8.1c1.2-4.9,1.1-9.8-1.7-14.3c-1.2-1.9-3.2-2.9-5.4-2.5
	c-2.2,0.4-3.1,2-3.2,4.2c-0.1,1.4-0.6,2.8-0.9,4.2C115.5,392.8,115.4,392.9,115.4,392.9z M129.7,392.5c-0.1,0-0.3,0-0.4,0
	c0,1.2,0,2.3,0,3.5c0.1,0,0.3,0,0.4,0C129.7,394.8,129.7,393.6,129.7,392.5z"/>
<path d="M112.4,472.6c0.9-1,1.6-1.5,1.8-2.2c0.4-1.1,0.6-1.8,1.9-1c1,0.6,2.8,0.9,0.8,2.6c-0.2,0.2,0.2,1.6,0.7,1.9
	c0.9,0.5,2.1,0.6,3.5,0.9c-0.7,0.6-1.1,1.3-1.6,1.4c-2,0.3-2.4,1.4-2,3.1c0.2,0.8,0.6,1.5,0.8,2.3c0.1,0.3-0.1,0.8-0.2,0.8
	c-0.4,0-1,0-1.2-0.3c-0.7-1.1-1-2.8-2-3.2c-3.1-1.3-1.9-2,0.1-2.9c0.3-0.1,0.5-0.4,1.1-1C114.9,474.2,113.8,473.5,112.4,472.6z"/>
<path d="M119.8,479.6c0.1,0.2,0.2,0.5,0.3,0.7c0,0.1-0.2,0.2-0.3,0.3c-0.1-0.2-0.2-0.5-0.3-0.7C119.5,479.8,119.7,479.7,119.8,479.6
	z"/>
<polygon points="124.7,463 124.8,463.3 124.5,463.2 "/>
<path d="M104.3,401.5c-2.3-2.5-1.4-5.3-1.1-7.8c0-0.2,1.1-0.5,1.5-0.3c0.7,0.4,1.2,1.1,1.8,1.5c0.2,0.1,1-0.4,1.1-0.7
	c0.4-1.3,1.2-1,1.6-0.2c1.1,2.3,2,4.7,3.5,8.1c-1.5-1.1-2.6-1.4-2.7-2c-0.3-1.6-1.3-1.3-2.5-1.8c-2.2-0.8-3.1-1.4-2.7,1.5
	C104.8,400.3,104.5,400.7,104.3,401.5z"/>
<path d="M122.2,397.7c-1.6,0.8-3.2,1.5-4.8,2.3c-0.6-1.6-1.2-3.2-1.7-4.8c-0.2-0.7-0.2-1.6-0.3-2.3l0.2-0.2c1-0.5,2-1,3-1.3
	c0.3-0.1,0.8,0.3,1.2,0.5c-0.2,0.3-0.3,0.9-0.6,1c-2,1.1-1.6,1.6,0.3,2c-0.3,0.4-0.5,0.8-0.8,1.2c-0.3,0.4-0.6,0.7-0.8,1.1
	c0.4,0.1,0.8,0.4,1.2,0.4C120.1,397.7,121.2,397.7,122.2,397.7L122.2,397.7z"/>
<path d="M107.7,409.4c1.7-0.8,3.2,1.5,4.5-0.7c0,0,0.7,0.3,1.1,0.5c-1.5,2.6,0.7,5.1,0.6,8.4C110.7,415.2,111.7,410.5,107.7,409.4z"
	/>
<path d="M111.6,404.8c0.2-1.7,1.9-2.6,3.4-2.2c0.3,0.1,0.7,0.9,0.6,1.3c-0.3,1.1-0.2,2.9-2.2,2.4
	C112.8,406.1,112.2,405.2,111.6,404.8z"/>
<path d="M114,399.2c-0.2,0.1-0.5,0.2-0.8,0.3c-0.1,0-0.2-0.2-0.3-0.3c0.3-0.1,0.5-0.2,0.8-0.3C113.8,398.9,113.9,399.1,114,399.2z"
	/>
<path d="M122.2,397.7c0.3-0.3,0.7-0.5,1-0.8c0.1,0.2,0.2,0.3,0.3,0.5C123.1,397.5,122.7,397.6,122.2,397.7
	C122.2,397.7,122.2,397.7,122.2,397.7z"/>
<path d="M114.9,414.7c0.1-0.1,0.2-0.3,0.3-0.3c0.2,0.1,0.5,0.2,0.7,0.3c-0.1,0.1-0.2,0.3-0.3,0.3
	C115.4,414.9,115.2,414.8,114.9,414.7z"/>
</svg>
