<?xml version="1.0" encoding="utf-8"?>
<!-- Generator: Adobe Illustrator 18.0.0, SVG Export Plug-In . SVG Version: 6.00 Build 0)  -->
<!DOCTYPE svg PUBLIC "-//W3C//DTD SVG 1.1//EN" "http://www.w3.org/Graphics/SVG/1.1/DTD/svg11.dtd">
<svg version="1.1" id="Layer_1" xmlns="http://www.w3.org/2000/svg" xmlns:xlink="http://www.w3.org/1999/xlink" x="0px" y="0px"
	 viewBox="0 0 776 563.3" enable-background="new 0 0 776 563.3" xml:space="preserve">
<path d="M646,33c-1,0.1-2.1,0.5-3.1,0.3c-1.9-0.4-3.6-1.2-5.5-1.7c-0.5-0.1-1.1,0-1.7,0c0.1,0.4,0.1,1.1,0.3,1.3
	c3.4,2.9,2.4,6.6,1.9,11c-2.8-4.1-6.6-5-10.3-6.1c-4.7-1.4-5.7-2.1-8.2-5.1c-0.9,2.4-1.7,4.9-2.7,7.3c-0.3,0.6-1.2,0.9-1.8,1.4
	c-0.3-0.5-0.7-0.9-1-1.5c-0.3-0.6-0.5-1.2-0.8-1.8c-0.6-1.5-1.5-1.5-2.6-0.5c-0.7,0.7-1.4,1.3-2,2.1c-2.8,3.7-7,5-11.2,6.2
	c-0.5,0.1-1.1-0.2-1.7-0.3c0.1-0.6,0-1.5,0.4-1.7c4.1-2.3,5.3-6.8,7.8-10.3c1.5-2.1,1.4-4,0.2-6.3c-1.3-2.6-2.6-4.6-6-4.5
	c-1.2,0-2.5-0.5-3.7-0.9c-0.9-0.3-1.3-2.2-2.7-1c-1.2,0.9-2.1,2-1.9,3.7c0.1,0.8,0.4,1.6,0.4,2.4c0,0.6-0.4,1.3-0.5,1.9
	c-0.6-0.4-1.6-0.6-1.8-1.1c-1.6-3.2-3.1-6.4-4.4-9.7c-0.4-1.1-0.7-2.7-0.2-3.7c1.3-2.8,0.2-4.2-2.2-5.4c-0.6-0.3-1-0.8-1.4-1.3
	c-0.7-0.7-1.4-0.7-1.9,0.1c-1.8,3-3.9,5.9-5.2,9.1c-2.1,5.1-6,7.3-11,8c-1.2,0.2-1.9-0.7-1.6-1.8c0.4-1.2,1.3-2.2,1.7-3.4
	c0.7-1.9,1.5-3.9,1.9-5.9c0.5-2.8,0.7-5.7,1-8.6c0.1-0.8-0.1-1.6-0.4-2.3c-0.2-0.5-1-0.7-1.5-0.9c-0.2,0-0.6,0.6-0.7,1
	c-0.4,1.6-0.6,3.1-1,4.7c-0.7,2.7-1.8,3.2-4.1,1.5c-2.1-1.5-3.9-3.4-5.8-5.1c-2.8,4.2-2.4,6.1,1.9,7.9c0.6,0.2,1.3,0.3,1.8,0.6
	c0.5,0.3,1.1,1.1,1,1.4c-0.2,0.7-0.8,1.6-1.4,1.7c-2,0.3-4.1,0.3-6.7,0.5c0.4,0.6,0.5,1.1,0.9,1.5c1.2,1.5,0.4,2.6-1,2.9
	c-1.7,0.3-3.5,0.2-5.2-0.3c-6-1.6-12.1-1.4-18.2-1.3c-1.4,0-2.2,0.5-1.4,2.1c0.1,0.3,0.2,0.6,0.3,0.9c1.1,4,1.1,4.1-3,4.8
	c-1.9,0.3-3.1,0.8-2.2,3.2c0.2,0.6-0.3,1.9-0.9,2.4c-3.9,3.4-9.9,4.3-13.9,1.7c-0.5-0.4-1-0.9-1.6-1.1c-4.2-1.8-6.3-0.5-6.5,4
	c-0.1,2.9-0.6,5.7-1,8.6c-0.3,2.1-0.9,2.3-2.9,1.5c-4.6-1.9-8.2-5-10.7-9.3c-2,1.5-3.7,2.8-5.6,4.3c2,1.9,4,3.7,5.8,5.7
	c1.5,1.6,1.1,3-1,3.6c-2.9,0.8-6,1-9,1.6c-0.9,0.2-1.9,0.4-2.6,0.9c-2.2,1.7-2.9,2-4.6,0c-2.4-3-4.4-6.3-6.3-9.6
	c-1.6-2.8-1.5-2.9-5.4-3.7c1.6,4.4,3.6,8.3,6.9,12.7c-4.6-0.6-8.2-1-11.8-1.5c-1.3-0.2-2.5-0.5-3.7-0.9c-2.6-0.7-5-1.6-4.5-5.1
	c0.1-0.7-0.4-1.5-0.8-2.2c-1.4-2.8-2.9-5.6-4.4-8.4c-2,1.5-3.9,3-5.8,4.4c-0.6,0.5-1.4,0.8-2.2,1c-1.4,0.3-2-0.4-1.8-1.9
	c0.2-1.3,0.7-2.5,0.8-3.8c0.3-2.2-0.5-2.9-2.6-2c-2.8,1.3-5.7,2-8.9,1.8c-2.5-0.2-2.7-0.3-1.8-2.5c1.7-4.1,3.7-8.2,5.5-12.3
	c0.3-0.6,0.4-1.2,0.6-1.8c0.1-0.1,0.3-0.1,0.4-0.2c0.1-0.1,0.1-0.2,0.1-0.3c-0.2,0.1-0.3,0.3-0.5,0.4c-0.4,0.2-0.8,0.5-1.3,0.7
	c-2.7,1.1-5,2.1-4.8,6c0.1,2.5-1.6,5.1-2.8,7.6c-1.4,2.8-4,4-6.9,4.8c-2.2,0.6-2.9-0.1-2.7-2.4c0.4-3.3,0.6-6.7,0.9-10
	c0-0.3-0.2-0.6-0.3-1.1c-1.3,0.2-2.6,0.4-3.9,0.6c0,0.1,0,0.3,0,0.4c0.6,0.1,1.2,0.1,1.8,0.2c1.3,0.3,1.6,1,0.8,2
	c-0.6,0.7-1.4,1.4-2.2,1.8c-4.2,2-8.5,3.9-13.3,4c-1.3,0-2.5,0.3-3.8,0.6c-6.2,1.3-11.2-2.5-13-7.4c-0.4-1-0.8-1.9-1.3-2.8
	c-0.8,0.5-1.5,1.3-2.3,1.4c-3.5,0.3-5.4,3.2-8.4,4.5c-2,0.8-2,2.2-0.2,3.7c1.5,1.3,3.3,2,5.3,1.9c1.1,0,2.6-0.3,2.7,1.2
	c0,0.8-1.1,1.9-1.9,2.4c-2.1,1.2-4.2,2.3-6.5,3c-2,0.6-4.2,0.4-6.1-0.8c-4.3-2.8-8.6-5.6-12.8-8.6c-1.8-1.2-2.2-1.3-3.4,0.6
	c-1.6,2.7-1.6,2.7-4.3,1.6c-2.4-1-4.7-2-7.1-2.9c-0.2-0.1-1.1,0.9-1,1c0.8,1.4,1.7,2.7,2.6,4c1,1.5,0.9,2.4-0.6,3.1
	c-2.9,1.4-4.5,1.2-5.8-1.9c-1.4-3-4.4-2.9-6.5-4.5c-0.4-0.3-1.5,0.3-2.2,0.6c-1.1,0.4-2.1,1.1-3.2,1.1c-2.2,0-3.4,0.6-3.1,3.1
	c0.1,1.1-0.5,1.8-1.7,1.9c-3.3,0.3-6.7,0.7-10,1c-1.6,0.1-2.8,0.3-2.9,2.3c0,0.9-0.7,1.9-0.7,2.8c0.1,3-0.5,4.9-3.9,6.2
	c-3.5,1.2-4.3,5.4-2,8.5c1.9,2.6,1.4,5.6,2.6,8.2c0.2,0.4,0.2,1.1-0.1,1.4c-1.7,2.5-3.3,5.1-5.2,7.5c-1,1.3-2.3,0.9-2.2-0.6
	c0-2.6-1.1-4.6-2.7-6.5c-0.7-0.8-0.9-2-1.2-3c-0.2-0.8,0-1.6-0.1-2.4c-0.1-2.1,0.5-4.6-0.5-6.1c-1.2-2-3.4,0.9-5.3,0.3
	c-2-0.6-4.1-0.7-6.1-1.2c-0.6-0.2-1.5-1.3-1.4-1.7c0.2-0.8,1.1-1.8,1.8-1.9c3.9-0.6,5.8-3.1,6.9-6.5c0.3-0.9,1-1.7,1.2-2.6
	c0.9-4.1,3.7-6.6,6.6-9.3c1.4-1.2,2.5-2.9,3.1-4.6c0.4-1.2-0.4-2.7-0.4-4.2c-0.1-2.2-1.8-1.8-3.2-2.1c-5-1.4-5.5-2-5.8-7.3
	c0-0.2-0.1-0.3-0.1-0.3c-2.5,2.7-4.9,5.5-7.5,8.2c-1.8,1.9-2,1.9-3.7-0.1c-0.8-0.9-1.3-1.3-2.3-0.7c-2.4,1.5-5,2.9-7.3,4.6
	c-5.2,3.8-10.3,7.7-15.3,11.7c-2.5,2-5,4-7.4,6.2c-5.8,5.4-11.7,10.6-17.2,16.3c-5.3,5.6-10.1,11.7-15,17.6
	c-2.7,3.2-5.3,6.4-7.8,9.8c-1.4,1.9-2.3,4.2-3.4,6.3c-1.2,2.2-2.1,4.8-3.8,6.6c-4.5,4.9-8,10.4-10.6,16.6c-1.3,3.2-3.6,6.1-6,8.7
	c-2.2,2.5-3.7,5.2-5.2,8.1c-2.1,4.1-4.6,8.1-6.6,12.3c-2.4,5.1-4.5,10.3-6.8,15.4c-2,4.6-4.3,9-6.3,13.6c-0.7,1.6-1,3.3-1.4,5
	c-0.5,2.2-0.6,4.5-1.6,6.5c-3.5,6.7-4.7,13.9-6.1,21.2c-1.2,6-2.7,11.9-4,17.8c-0.9,4.1-1.7,8.1-2.6,12.2
	c-1.4,6.4-2.8,12.8-4.4,19.2c-3.6,14.3-7.7,28.5-11,42.8c-2.4,10.3-4.8,20.6-8,30.7c-2.4,7.8-4.1,15.8-5,23.9
	c-0.9,7.8-2.4,15.5-3.6,23.2c-0.5,3.6-0.9,7.3-1.1,11c-0.4,7.5-0.8,15.1-1,22.7c-0.1,4.4,0.4,8.8-0.2,13.1
	c-1.6,11.6-1,23.2-0.6,34.8c0.2,7.9,0.8,15.8,0.7,23.6c-0.2,10.8-3.3,20.5-11.4,28.1c-0.5,0.4-0.8,1-1.2,1.5
	c-1.3,1.2-2.7,2.3-3.9,3.6c-4.7,4.6-9.1,9.6-14.8,13.1c-0.5,0.3-1.1,0.8-1.3,1.4c-1.5,3.9-4.2,6.8-7.1,9.6c-1.7,1.7-2.8,3.7-3.7,6.7
	c3.8-1.5,6.8-2.8,10-4c4.7-1.7,9.3-3.5,14.1-4.9c2.9-0.9,4.7-2.1,5.1-5.4c0.3-2.7,1.2-5.3,2.4-7.8c1.6-3.4,2.3-6.6-0.1-9.9
	c-0.4-0.6-0.5-1.5-0.7-2.3c0.8,0.1,1.6,0,2.4,0.3c1,0.3,2.1,1.4,2.9,1.2c0.9-0.3,1.3-1.7,2.1-2.5c2.4-2.3,4.2-5.3,8.1-6.5
	c-0.2,2-1.2,3.1-2.1,4.4c-1.9,2.8-3.7,5.7-5.4,8.6c-0.4,0.7-0.7,1.9-0.4,2.6c1.4,4.2,3.1,8.4,4.6,12.6c1.5-6.2,1.3-12.8,5-18.3
	c1.9-2.8,3.7-5.6,5.8-8.3c0.6-0.8,1.8-1.1,3.7-2.2c-2.4,5-4.4,9.1-6.4,13.2c-2,4.2-3.5,8.6-3.7,13.9c4.8-1.8,9.3-3.3,13.6-5.2
	c2.1-0.9,4.2-1.3,6.5-1.4c6.2-0.3,12.2,0.5,18.1,2.2c3.2,1,6.5,1.6,9.5,3.2c2.1,1.2,2.7,0.7,3.8-1.8c0.3-0.6,0.5-1.2,0.8-1.7
	c3.3-4.3,2.8-8.9,1.3-13.7c-0.4-1.3-0.6-2.8-1-4.6c2.6,0.5,2.8,2.6,3.7,4.1c0.6,1.1,1.1,2.2,1.7,3.3c0.9-0.8,1.8-1.6,2.7-2.5
	c1.2-1.1,2.5-2,3.7-3.1c3-2.9,3-3-0.2-5.9c-2.8-2.6-5.8-5.1-8.6-7.7c-0.6-0.5-1.2-1.1-1.6-1.8c-0.2-0.4,0-1.1,0-1.7
	c0.6,0,1.4-0.2,1.7,0.1c1.8,1.5,3.5,3.2,5.3,4.8c5,4.6,9.9,9.1,13,15.4c0.2,0.4,1.1,0.5,1.6,0.8c0.1,0.8,0.1,1.5,0.3,3.2
	c1.5-2.6,2.6-4.4,3.7-6.2c0.3-0.3,0.6-0.6,1-1c0.3-0.3,0.7-0.6,1-1c0.3-0.3,0.6-0.6,1-1c0.3-0.3,0.7-0.6,1-1
	c0.2-0.2,0.3-0.3,0.5-0.5c-0.2,0.1-0.3,0.3-0.5,0.4c-0.3,0.3-0.6,0.7-1,1c-0.3,0.3-0.6,0.6-1,1c-0.3,0.3-0.6,0.7-1,1
	c-0.3,0.3-0.6,0.6-1,1c-1.3,0.9-2.5,1.9-3.8,2.8c0.8-1.8,2.1-3.5,2.4-5.4c0.3-1.8-0.3-3.8-0.5-5.7c0-0.5-0.1-1,0.1-1.4
	c0.4-1,1.3-1.1,1.8-0.3c1,1.4,1.7,3,2.5,4.6c2.6-1.2,5.3-2.5,8.1-3.8c0.4-0.2,1.1,0.1,1.7,0.2c-0.2,0.4-0.3,0.9-0.6,1.2
	c-2,1.6-4,3.2-6.1,4.7c-2.3,1.7-3.2,4-2.6,6.7c0.3,1.4,1.2,0.3,1.8,0.2l0,0c0.6,2-2.9,3-1.2,5.7c2.5-3,4.7-5.8,7-8.6
	c0.4-0.1,0.8-0.2,1.2-0.3c-0.1-0.2-0.2-0.3-0.3-0.5c-0.3,0.3-0.6,0.5-0.9,0.8c-0.6,0-1.2,0.1-1.8,0.1c0,0-0.2-0.3-0.2-0.3
	c1.9-1.2,3.7-2.4,5.7-3.5c0.1-0.1,1.1,0.9,1,1.1c-0.6,1.1-1.1,2.6-2,3.2c-3,2-4.8,5.2-7.2,7.7c-0.2,0.2-0.3,0.6-0.5,0.8
	c-0.7,0.9-2.8,0.4-2.4,2.4c0.4,1.9,2,1.7,3.4,2.1c4.9,1.6,9.7,3.3,14.6,5c0.5,0.2,1.4,0.4,1.7,0.2c0.3-0.3,0.5-1.2,0.3-1.7
	c-1.3-4.1-2.8-8.2-4.1-12.3c-0.2-0.8,0.1-1.7,0.1-2.6c0.7,0.5,1.8,0.9,2.2,1.6c2.5,4.7,4.9,9.5,5,15c0,0.4,0.3,0.9,0.5,1.3
	c0.5-0.3,1.2-0.5,1.4-0.9c1.4-2.6,2.7-5.1,3.9-7.8c1.1-2.3-0.4-6.7-2.3-8.5c-5.6-5.1-11.2-10.1-16.7-15.4c-3.1-3-5.9-6.2-8.6-9.5
	c-2.8-3.5-5.3-7.3-7.9-10.9c-0.3-0.4-0.4-0.9-0.5-1.3c-0.4-3-1.1-6.1-1-9.1c0.3-8.8-2-17.2-3.3-25.7c-1-6.6-2.6-13.1-2.9-20
	c-0.2-5.4-0.8-10.9-0.7-16.4c0.2-5.9,0.5-11.9,1-17.8c0.2-2.2,1.1-4.4,1.9-6.5c2.6-7,4.1-14.1,4.9-21.5c0.4-3.9,1.9-7.8,2.8-11.7
	c1.7-7.5,3.1-15,4.9-22.5c2.7-11.5,4.7-23.2,6.8-34.8c1.5-8.7,3.1-17.3,4.6-26c0.5-3,1.1-6.1,1-9.1c-0.2-7.7,1.7-15,3.1-22.4
	c1.2-6.3,2.3-12.6,4-18.8c3-10.6,5.6-21.5,10.5-31.5c2.8-5.6,5.1-11.5,7.9-17.1c1.5-3,3.2-6,5.2-8.7c3.1-4.1,6.1-8.3,9.6-12
	c6.5-6.9,12.5-14.3,18.8-21.4c3.2-3.6,6.5-7.2,9.7-10.8c1-1.1,1.8-2.2,2.6-3.5c4.1-6.4,9.5-11.8,14.4-17.5c3.8-4.4,7.3-9,11.2-13.3
	c3.5-3.9,7.4-7.6,11.2-11.3c2.1-2,4.3-3.9,6.3-6c3.1-3.3,6.6-6.1,10.5-8.5c9.3-6,18.6-12.1,27.9-18.2c1.2-0.8,2.3-2.5,4.1-0.9
	c-1,0.9-1.8,2-2.9,2.8c-9.7,6.3-19.5,12.5-29.2,18.8c-2.1,1.4-4.1,3.1-6,4.8c-4.9,4.4-9.9,8.8-14.5,13.5c-4.8,5-9.1,10.4-13.6,15.7
	c-3.1,3.7-6,7.6-9.4,10.9c-4.7,4.5-7.7,10.3-11.9,15.2c-1.2,1.5-2.5,3-3.7,4.4c-4.2,4.9-8.4,9.7-12.7,14.6c-3,3.4-5.9,6.9-9,10
	c-7.3,7.3-13.5,15.6-17.9,24.9c-5.1,11-10.8,21.9-13.7,33.8c-2.3,9.3-4.6,18.6-6.7,28c-1.3,5.9-2.1,12-3.4,17.9
	c-0.8,3.6-0.6,7.3-1.1,11c-0.6,4.4-1.3,8.9-2,13.3c-0.7,4.4-1.1,8.9-1.9,13.3c-1.4,7.6-3,15.1-4.5,22.6c-0.8,3.9-1.2,7.9-2.1,11.8
	c-1.7,7.8-3.7,15.6-5.4,23.4c-2,9.2-3.7,18.5-5.5,27.8c-0.2,1.3-0.4,2.6-0.9,3.7c-2.6,6.1-3,12.7-4.1,19.2
	c-1.1,6.6-1.1,13.2-0.6,19.8c0.6,7.8,1.1,15.6,3.1,23.3c1.3,4.9,1.8,10.1,2.5,15.1c0.5,3.6,0.6,7.3,1,11c0.3,3.5,0.3,7.1,1.2,10.5
	c0.6,2.4,2.7,4.3,3.9,6.6c3.1,6,8.5,10,12.6,15.2c2.4,3.1,6,5.4,9,8c0.8,0.7,1.7,1.4,2.4,2.2c1,1.1,1.5,3.6,3.8,1.3
	c0.1-0.1,1.7,0.7,2.2,1.4c1.2,1.9,2.2,3.9,3.6,6.3c2.1-1.7,4.1-3.3,6.1-4.8c1.7-1.3,3.3-2.5,5-3.7c0.3-0.2,1,0,1.2,0.2
	c0.2,0.3,0.1,1-0.1,1.3c-2.1,2.5-4.2,4.9-6.3,7.3c-0.7,0.8-0.6,1.4,0.2,2c3.5,2.3,7,4.6,10.5,6.7c3.7,2.2,7.5,4.3,11.3,6.5
	c1.5,0.9,2,0.7,2.1-1c0.1-3.2-0.2-6.4,1.7-9.4c1.9-3,3.7-3.2,5.8-0.2c0.9,1.3,1.4,3.5,2.6,3.8c1.1,0.3,2.7-1.3,4.1-1.9
	c1-0.5,2.1-1,3.2-1.1c1.6-0.2,2.8,0.6,3.1,2.3c0.1,1,0.2,2,0,2.9c-0.2,0.8-0.7,1.6-1.1,2.4c-0.8-0.4-2-0.6-2.3-1.3
	c-0.9-1.6-2-1.6-3.1-0.6c-3,2.9-6,5.8-8.9,8.8c-1,1-0.4,1.9,0.4,2.9c2.1,2.5,2.8,5.4,2.3,8.6c-0.2,1.2-0.7,1.8-2.4,1.2
	c-2.4-0.8-3.9-1.7-3.5-4.5c0-0.2-0.5-0.6-0.7-0.8c-0.3,0.4-0.8,0.7-0.8,1.1c0,0.6,0.4,1.2,0.5,1.8c0.3,1.7,0.3,1.7-1.8,1.3
	c-0.2,0-0.6-0.3-0.7-0.2c-0.7,0.4-1.3,1-2,1.4c0.2-0.9,0.3-1.8,0.5-2.7c0.1-0.5,0.2-1,0.3-1.4c0.3-0.3,0.7-0.6,1-0.9
	c0.3-0.7,0.6-1.3,0.9-2c0.3-0.6,0.7-1.3,1-1.9c0.3-0.3,0.6-0.6,1-1c0.3-0.7,0.6-1.3,1-2c0.6-1,1.3-1.9,1.9-2.9
	c2.6-2.6,5.2-5.2,7.8-7.7c0.1-0.1,0.3-0.1,0.4-0.2c0.1-0.1,0.1-0.2,0.1-0.3c-0.2,0.2-0.3,0.3-0.5,0.5c-3.6,1.6-6.2,4.3-7.7,7.8
	c-1.3,0.5-1.9,1.5-1.9,2.9c-0.3,0.6-0.7,1.3-1,1.9c-0.3,0.3-0.6,0.6-1,1c-0.3,0.7-0.6,1.3-1,2c-0.3,0.6-0.7,1.3-1,1.9
	c-0.3,0.3-0.6,0.7-0.9,1c-1.4-1.3-2.8-2.6-4.3-3.7c-1.1-0.8-2.5-1.7-3.8-1.9c-4.7-0.8-9.5-1.3-14.2-2.1c-1.6-0.3-3.7,1.2-4.7-0.3
	c-0.7-1.2-0.2-3.1-0.2-4.7c0-0.9,0-1.9-0.8-2.9c0,1.7,0,3.5,0,5.2c0,1.7,0,3.4-0.3,5.2c-1.7-2.7,0.4-6.2-2.2-8.7
	c-0.6,2.3-1.2,4.4-1.8,6.6c-0.2,0-0.4,0-0.6-0.1c0-2.1,0-4.1,0-6.2c1.9-3.9,3.9-7.8,5.8-11.6c0.3-0.3,0.6-0.6,1-1
	c0.3-0.3,0.6-0.6,1-1c0.3-0.2,0.6-0.2,0.8-0.5c0.4-0.5,0.7-1,0.9-1.5c0,0-0.5-0.4-0.5-0.3c-0.4,0.4-0.8,0.9-1.1,1.4
	c-0.1,0.2-0.1,0.6-0.1,0.9c-0.3,0.3-0.6,0.6-1,1c-0.3,0.3-0.6,0.6-1,1c-3.2,3.2-5,7.2-5.8,11.6c-1.4,0.4-0.5,3.7-3.2,2.4
	c0,0.7,0.1,1.4,0.1,2c-0.1,0.7-0.4,1.4-0.6,2c-0.4-0.4-1-0.8-1.1-1.3c-0.5-2.7-2.4-4-4.6-5.1c-5.5-2.6-11.2-4.7-17.7-5.5
	c0.1,7.1,2.5,13.2,6.3,18.8c2.2,3.2,4.4,6.3,6.5,9.5c0.4,0.7,0.7,2,0.3,2.5c-0.7,1-1.8,1.7-3.4,1.1c-1.9-0.7-4-1-6-1.7
	c-1.3-0.5-2.5-1.3-3.7-2.2c-0.9-0.7-1.5-1.9-2.4-2.3c-6.3-2.7-11-7.7-16.5-11.5c-1.3-0.9-2.6-1.8-3.9-2.7c-0.3,0.7-0.6,1.3-0.9,2
	c-0.2,0-0.4,0-0.6-0.1c0-3.8,0-7.6,0-11.5c-0.3,0-0.6,0-0.9,0c0,3.1,0,6.2,0,9.4c0,1.4,0.2,3.3-2.1,1.4c-0.3,0.4-0.6,0.8-0.8,1.2
	c-0.7,1.2-1.1,2.6-2.1,0c-0.8-1.9-1.2-1.7-0.7-2.9c1.7-4.5,3.3-9,4.9-13.5c1.3-2.3,2.6-4.5,3.9-6.8c0.7-1,1.3-1.9,2-2.9
	c0.2-0.2,0.3-0.3,0.5-0.5c-0.2,0.1-0.3,0.3-0.5,0.4c-0.6,1-1.3,2-1.9,2.9c-2.6,1.5-3.8,3.8-3.9,6.8c-1,1.8-2,3.6-2.9,5.4
	c-0.8,1.6-1.5,3.2-2.1,4.6c-1.3-0.8-2.4-1.6-3.6-2.2c-6.5-3.3-13.7-4.2-20.7-5.4c-4.2-0.7-9.1-0.8-13.4,1.5
	c-2.7,1.4-5.7,2.2-8.6,3.1c-3.6,1.2-4.7,2.5-5,6.6c0,0.5,0.1,1-0.1,1.4c-0.2,0.5-0.7,0.8-1.1,1.2c-0.2-0.4-0.7-0.7-0.7-1.1
	c0.1-2.5,0.3-5,0.4-7.5c0.1-2.3,0.3-4.6,0-6.9c-0.9,5.2-1.8,10.3-2.8,15.5c-0.1,0.6-0.6,1.1-1.1,2c-0.5-4.3-0.9-8.2-1.6-12
	c-0.3-1.8-1.2-3.5-1.8-5.3c-0.3-0.7-0.6-1.3-1-2c-0.1-0.4-0.2-0.8-0.3-1.2c-0.2,0.1-0.3,0.2-0.5,0.3c0.2,0.3,0.5,0.7,0.7,1
	c0.3,0.6,0.7,1.3,1,1.9c0.6,4.6,1.2,9.1,1.8,13.7c0.1,0.8,0.2,1.6,0.1,2.4c-0.1,0.7-0.6,1.3-0.9,2c-0.4-0.6-1-1.2-1-1.8
	c-0.1-1.9,0-3.8,0-5.6c-0.6-0.2-0.9-0.3-1.1-0.3c-3.5,0.8-3.5,0.8-3.7,4.6c-0.1,1.4,0.4,3-1.6,4.1c-0.7-3-0.6-6-0.1-8.8
	c1.1-6.4,2.6-12.8,4.6-19c0.3-0.6,0.6-1.3,1-1.9c0.3-0.3,0.7-0.6,1-1c0.3-0.6,0.6-1.3,1-1.9c0.3-0.3,0.7-0.6,1-1
	c0.1-0.2,0.3-0.3,0.4-0.5c-0.2,0.2-0.3,0.3-0.5,0.5c-0.3,0.3-0.6,0.7-1,1c-0.3,0.6-0.6,1.3-1,1.9c-0.3,0.3-0.6,0.7-1,1
	c-0.3,0.6-0.6,1.3-1,1.9c-0.6,0.9-1.5,1.6-1.9,2.6c-2.6,5.9-3.4,12.3-4.8,18.6c-0.5,2.2-0.9,4.4-1.9,6.6c-0.2-0.8-0.8-1.6-0.7-2.3
	c0.6-4,0.6-4.1-3.2-2.7c-5.9,2.2-11.7,4.5-17.5,6.7c-2.1,0.8-4.2,1.6-6.4,2.2c-0.8,0.2-2-0.1-2.5-0.6c-0.4-0.5-0.2-1.7-0.1-2.5
	c0.1-0.6,0.5-1.2,0.8-1.7c5.5-7.2,9.8-15.4,17.6-20.7c3-2,5.4-5.1,8-7.7c1.2-1.3,1.1-2.4-0.6-3c-1.9-0.7-4-1.1-6-1.1
	c-2.2,0-3.3-1-3.9-2.8c-0.6-1.8-1-3.6-2.1-5.4c0.2,2.4,0.3,4.7,0.6,7.1c0.2,2,0.2,2-2.5,1c0-2.4,0-4.8-0.1-7.3
	c-0.1-2.3-0.5-2.6-2.6-2c-4,1.1-8.1,2.1-12,3.4c-4,1.4-7.9,3.1-12,6.7c4.8-1,8.5-1.2,12.3-0.2c2.4,0.6,5.1,0.2,7.7,0.1
	c2.2-0.1,4.4-0.5,6.6-0.7c-1.5,3.1-4.7,2.5-7.2,2.8c-2.9,0.4-6-0.5-9-0.6c-2.4-0.1-4.8-0.1-7.2,0.3c-3.8,0.6-6.5,0.3-6.5-1.2
	c0.1-2.5,2.5-3,4.2-4.1c6.4-4.2,13.4-6.8,20.9-8.1c0.6-0.1,1.2-0.5,1.8-0.7c2.7-1,3.1-1.6,2.7-4.2c-0.6-4.1-1.2-8.2-1.7-12.3
	c-0.1-0.5,0.4-1.1,0.6-1.7c0.6,0.3,1.6,0.5,1.9,1.1c0.6,1.1,1,2.4,1.2,3.6c0.9,4,1.7,8.1,2.6,12.1c6.2-1.3,5.9-1.3,7.3-7.3
	c0.7-3.3-0.1-5.9-1.5-8.6c-0.4-0.9-0.9-1.7-1.3-2.6c-0.1-0.2,0.1-0.8,0.2-0.8c0.4-0.1,1-0.1,1.2,0.1c0.9,0.9,1.7,1.9,2.5,2.9
	c1.1,1.3,1.8,0.9,2.5-0.4c1.4-2.5,2.9-5,4.4-7.4c0.1-0.2,0.8-0.2,1.2-0.1c0.2,0,0.4,0.6,0.4,0.8c-0.3,1.2-0.7,2.5-1,3.7
	c-0.6,2.3-1.3,4.6-1.8,6.9c-0.3,1.2-0.9,1.6-2,1.6c0.3-1.9,0.6-3.9,0.9-5.8c0.1-0.1,0.3-0.1,0.4-0.2c0.1-0.1,0.1-0.2,0.1-0.3
	c-0.2,0.2-0.3,0.3-0.5,0.5c-1.4,1.8-3,3.5-1,5.8c0.3,0.6,0.6,1.1,0.9,1.7c0.8,1.3,1.6,3.8,2.3,3.8c2.1-0.1,4.4-0.8,6.2-2
	c4.5-2.8,6-7.4,5.9-12.4c0-4-0.5-8-0.8-12c-0.1-1-0.1-1.9-0.1-2.9c0-12.9-0.5-25.9,0.2-38.8c0.5-9.7,0.5-19.3,0.8-29
	c0.1-2.7,0.6-5.4,1-8.1c0.6-4.6,1.2-9.2,1.8-13.8c1.4-11.4,2.4-22.9,5.4-34.1c2.8-10.5,5.7-21,8.5-31.6c2.3-8.7,4.5-17.4,6.7-26
	c3.4-13.7,7.3-27.2,10.1-41c2-10.4,4.8-20.6,6.9-30.9c0.9-4.2,1.3-8.6,2.2-12.8c0.6-2.8,1.5-5.6,2.6-8.2c1.4-3.3,2.9-6.4,3.3-10
	c0.2-2.2,1.3-4.3,2.3-6.3c2.7-5.2,4.7-10.6,6.7-16c1.6-4.5,4.1-8.7,6.3-13c2.1-4,4.2-8,6.4-11.9c1.8-3.2,3.4-6.7,5.9-9.4
	c2.7-3,4.4-6.3,6.1-9.8c2.3-4.8,5-9.3,8.7-13.3c2.1-2.3,3.6-5.3,4.8-8.3c2.4-5.7,5.3-10.9,10.4-14.8c2.5-1.9,4.3-4.7,6.5-7.1
	c5.8-6.4,11.6-12.9,17.5-19.3c1.7-1.9,3.9-3.3,5.9-5c2.1-1.8,3.8-3.8,4-6.8c0.2-2.2,2.1-4,1.1-6.7c-1.1,1-1.9,1.9-2.9,2.7
	c-1.8,1.5-2.5,1.3-3.5-0.8c-0.4-0.9-0.8-1.7-1.1-2.4c-2.7,2.6-5.3,5.1-8,7.6c-0.2,0.1-1.3-0.4-1.3-0.6c-0.1-1.4,0.2-2.9,0.1-4.3
	c0-1.2-0.1-2.5-0.5-3.6c-0.5-1.5-1.5-1.6-2.5-0.4c-1.1,1.5-2.2,3.1-3.2,4.7c-2.3,3.7-4.2,7.7-8.2,9.9c-2.6,1.4-3.6,3.6-4.4,6.5
	c-1.1,4.2-2.6,8.3-6.4,11c-1.4,0.9-1.9,2.3-2.3,4c-1.1,4.9-4.9,7.6-9.3,8.9c-1.6,0.5-4.1-0.6-5.7-1.7c-2.5-1.7-3.6-4.5-4.3-7.4
	c-0.5-2.1,0.2-3.1,2.3-3.2c2.5-0.1,3.7-1.7,5.1-3.2c1.3-1.5,1.2-3.2,0.4-4.9c-0.2-0.6-0.2-1.2-0.3-2.2c-2.5,1.7-4.8,3.1-7.7,2.6
	c-0.8-0.1-1.6-0.1-2.3-0.4c-1.9-0.8-2-2-0.8-3.6c2.9-4.2,6-8.3,7.6-13.2c0.8-2.5,0.8-2.5-1.2-5.8c-0.9,1.6-1.7,3.2-2.7,4.6
	c-1,1.4-2.4,1.1-3.3-0.5c-1.5-2.6-3.1-5.2-4.8-8c-1.6,2.1-3,4-4.5,5.7c-0.5,0.6-1.1,1.2-1.9,1.5c-0.5,0.2-1.2,0.1-1.7-0.1
	c-0.2-0.1-0.3-0.8-0.2-1.2c0.2-2.7,0.5-5.4,0.5-8.1c0-2.3-0.7-2.3-2.9-1.3c-2.6,1.1-5.4,1.9-8.2,2.9c1,2.9,1.9,5.8,2.9,8.8
	c3-2,2.1-5.3,2.8-8.2c2.6,2.1,2,4.6,1.1,6.7c-0.8,1.8-2.4,3.4-3.8,4.9c-1.3,1.3-2.1,0.9-2.4-1.1c-0.1-0.5,0-1-0.1-1.4
	c0-0.3-0.2-0.6-0.3-0.8c-3.3,1.6-6.7,3-9.9,4.8c-0.8,0.5-0.9,2.2-1.3,3.3c-0.1,0.1-0.3,0.1-0.4,0.2c-0.1,0.1-0.1,0.2-0.1,0.3
	c0.2-0.2,0.3-0.3,0.5-0.5c1.7,0.1,1.5-3.6,3.4-2.2c1.5,1.1-0.9,2.4-1.1,3.7c-0.2,1.4,0,2.8,0.1,4.2c0.1,3.5,0.4,7,0.3,10.6
	c0,1-0.9,2-1.4,3c-2.6-2.4-5.1-4.6-7.9-7.2c-0.1,1.7-0.2,3.4-0.2,5c0,1.6,0,3.2,0,4.8c-0.1,1.9,0.6,4.2-1.7,5.1
	c-2.4,0.9-3.9-0.9-5.3-2.5c-0.8-0.9-1.4-2.1-1.7-3.3c-1.1-3.4-2-6.8-3-10.1c-0.3-0.9-0.3-2.2-1.7-1.7c-1.1,0.4-1.2,1.5-0.3,2.4
	c1.4,1.5,1,3.3,1.2,5c0.6,5.8-2.8,10.1-5.7,14.4c-0.2,0.3-0.9,0.5-1.2,0.4c-0.3-0.1-0.7-0.7-0.8-1c-0.1-1.3,0.1-2.6-0.1-3.9
	c-0.4-1.8-0.8-3.7-1.6-5.4c-1.4-3.2-3.5-4.9-7.5-3.9c-1.9,0.5-4.1-0.3-6.1-0.8c-1.6-0.4-1.4-1.6-0.3-2.5c1.8-1.6,4-2.7,5-5.1
	c0.2-0.5,0.2-1.1,0.3-1.7c-0.6,0.1-1.2,0-1.7,0.2c-4.2,1.5-8.5,2.9-13,1.2c-0.8-0.3-1.4-1-2.2-1.5c0.5-0.6,0.9-1.3,1.5-1.7
	c1.5-1,3-1.8,4.5-2.8c2.5-1.7,3.5-4.8,2.5-7.6c-0.1-0.3-1-0.7-1.5-0.6c-1.8,0.5-3.6,1.3-5.5,1.7c-1,0.2-2.2,0.2-3.2,0
	c-1-0.2-2-0.7-2.9-1.1c0.6-0.9,1.2-1.8,1.8-2.7c0.6-0.8,1.5-1.3,2-2.1c0.7-1.2,1.1-2.6,1.6-3.9c-1.2,0-2.4-0.1-3.5-0.1
	c-1.3,0-2.7-0.2-3.9,0.2c-2.4,0.7-4.4-0.3-6.4-1.3c-0.6-0.3-0.9-1.2-1.4-1.8c0.6-0.3,1.3-0.8,1.9-1c2.9-1,5.9-1.8,7.5-4.8
	c0.3-0.3,0.7-0.6,1-1c0.3-0.3,0.6-0.6,1-1c0.3-0.3,0.6-0.7,1-1c0.3-0.3,0.6-0.6,1-1c2-1.9,4.1-3.8,6.2-5.7c-0.9-1.1-1.9-2.3-3-3.5
	c-1.6,1.4-3.1,2.7-5,4.3c3,0.9,2.3,2.9,1.7,4.9c-0.3,0.3-0.6,0.6-1,1c-0.3,0.3-0.7,0.6-1,1c-0.3,0.3-0.6,0.7-1,1
	c-0.3,0.3-0.6,0.7-1,1c-3.9,0.9-7.8,2.3-11.6-0.2c-0.3-0.2-1.1,0.2-1.6,0.4c-0.5,0.3-0.9,1.2-1.5,1.2c-4.2,0.5-4.3,3.2-3.7,6.4
	c0.2,0.9,0.1,1.9,0,2.9c-0.1,5.5-3.5,10.4-8.5,12.3c-1.9,0.7-3.1,0-3.3-2c-0.1-1,0-1.9,0-2.9c-0.1-4,0.1-8-0.8-12
	c-0.7-3-0.1-6.3-0.1-9.9c-0.7,0.3-1.9,0.4-2.5,1c-1.7,1.7-3.2,3.6-4.7,5.5c-2.2,2.9-4.4,5.8-6.5,8.6c3.5,0.7,7,0.2,9.7-3
	c0.4-0.5,0.9-0.9,1.5-1.2c0.3-0.1,0.9,0.1,1.2,0.3c0.1,0.1,0.2,0.7,0,0.9c-1.9,2.5-3.9,4.8-7.2,5.3c-2.7,0.4-5.4,0.7-8.1,1
	c-0.6,0.1-1.3,0.2-1.9,0c-0.9-0.3-1.6-0.8-2.4-1.2c0.6-0.7,1-1.8,1.7-2.1c4-1.7,6.7-4.9,9.2-8.6c-0.7,0.2-1.5,0.4-2.2,0.6
	c-3.7,1.3-9,0-11.3-3.1c-0.7-0.9-1.3-1.9-1.5-3c-0.1-1.2-0.1-2.9,0.7-3.5c0.6-0.5,2.5-0.1,3.4,0.5c2,1.2,3.9,2.4,6.3,1.8
	c0.6-0.1,1.2-0.6,1.5-1.1c0.1-0.3-0.4-1.1-0.9-1.4c-2.8-1.6-5.6-3.2-8.4-4.7C9,13.9,8,14,7.8,14.3c-0.8,0.9-1.5,2-2,3.2
	c-0.7,1.8-1.2,3.7-1.8,5.5c-0.8,2.1-1.6,4.2-3.9,5.2c0-1,0-1.9,0-2.9c2.2-0.8,2-3.1,2.6-4.7c0.8-2,0.2-2.4-2.6-2.1
	c0-0.6,0-1.3,0-1.9c3.9-1.8,7.4-3.9,10.1-8.8c-4,1.6-7,2.8-10.1,4C0,10,0,8.4,0,6.8c1.1-1.4,2.5-2.7,3.4-4.3C3.7,2,3.1,0.9,2.9,0
	c0.6,0,1.3,0,1.9,0c0.3,0.7,0.6,0.8,1,0c1,0,1.9,0,2.9,0c0.5,1.2,0.7,2.5,1.4,3.5c0.4,0.6,1.5,1,2.3,1.1c0.3,0,0.9-1.1,1-1.8
	C13.7,1.9,13.6,1,13.6,0c0.6,0,1.3,0,1.9,0c0,0.5,0.1,1,0.1,1.4c-0.2,2.6,1.5,3.8,3.5,4.6c1.9,0.8,3-1.1,4-1.9
	c1.1-0.9,1.4-2.7,2.1-4.1c0.6,0,1.3,0,1.9,0c0.3,0.6,0.6,1.3,1,1.9c-0.3,0.3-0.6,0.6-1,1c-0.3,0.3-0.6,0.6-1,1
	C26,3.9,25.9,4,25.8,4.1C24.5,5.5,23.3,7,22,8.4c0.1,0.1,0.3,0.2,0.4,0.2c2.3-0.7,3.2-2.6,3.7-4.7c0.3-0.3,0.6-0.6,1-1
	c0.3-0.3,0.6-0.6,1-1c1-0.6,1.9-1.3,2.9-1.9c2.3,0,4.5,0,6.8,0c-0.7,0.3-1.3,0.8-2,1c-3.3,0.7-5.8,2.5-7.6,5.3
	c-0.3,0.5-0.5,1.1-0.7,1.7c0.7,0.3,1.4,0.8,2.1,0.7c1.4-0.1,2.8-0.4,4.1-0.9c3.8-1.4,6.3-4.2,8-7.8c0.6,0,1.3,0,1.9,0
	c0,3-2.5,4.6-3.9,6.8c-0.3,0.3-0.6,0.6-1,1c-0.3,0.3-0.6,0.7-1,1c-1.6,0.6-3.2,1.3-4.8,2c-0.2,0.1-0.4,0.8-0.3,1
	c0.3,0.3,1,0.7,1.1,0.6c1.5-1,3.7-1.2,3.9-3.6c0.3-0.3,0.7-0.6,1-1c0.3-0.3,0.6-0.6,1-1c6-1,6.7-1.7,6.8-6.8c1,0,1.9,0,2.9,0
	c0,0.5,0.2,1,0,1.4c-1,2.8-1,6-3.3,8.4c-0.9,0.9-0.9,2.3,0.2,2.9c0.6,0.3,1.7-0.1,2.6-0.4c1.3-0.5,2.6-1.2,3.8-1.9
	c3.2-1.8,3.9-5.1,1.8-7.9c-0.7-0.9-1.4-1.6-2.2-2.5c2.3,0,4.5,0,6.8,0c0.7,1,1.5,1.9,2.1,3c1.1,2.2,3,3.3,5.3,3.6
	c1.3,0.2,3.5,0,3.8-0.8c0.7-1.4,1-3.4-0.5-4.8c-0.3-0.3-0.6-0.7-1-1c1.3,0,2.6,0,3.9,0c0,2.8,0,5.6,0,8.7c2.4-2.3,3.8-5.1,5.2-7.9
	C78,0.7,77.7,0.3,77.6,0c5.2,0,10.3,0,15.5,0c-1.8,2.9-1.7,3.3,0.8,4.7c1.4,0.8,2.9,1.5,4.4,1.9c1.4,0.4,2.6,0,2.6-1.8
	c0-1.6,0-3.2,0.1-4.8c1,0,1.9,0,2.9,0c0.6,0.7,1,1.6,1.8,2.1c0.7,0.4,1.6,0.3,2.5,0.4c-0.1-0.8-0.3-1.7-0.4-2.5c1.9,0,3.9,0,5.8,0
	c-1.8,4.5-5.4,5.4-9.7,4.9c-0.1-0.1-0.1-0.3-0.2-0.4c-0.1-0.1-0.2-0.1-0.3-0.1c0.2,0.2,0.3,0.3,0.5,0.5c1.1,1.4,2.4,2.7-0.4,3.9
	c-0.9,0.4-1.4,1.5-2.4,2.5c2.8-0.3,2.9-0.3,4.4-1.9c2.5-2.6,5.1-4.4,9-4.9c3.5-0.5,7.1-1.6,9.7-4.5c1,0,1.9,0,2.9,0
	c-1.8,2.8-1.8,2.8,0.2,5.5c0.3,0.4,0.6,0.8,0.8,1.2c1.3,3.4,3.2,6.3,7.1,8.4C133.3,9.8,131.7,4.9,130,0c1.3,0,2.6,0,3.9,0
	c-0.9,1.6-1.3,3.3-0.4,5c1.3,2.4,2.4,4.8,3.9,7.7c2.4-4.4,5.6-8,2.3-12.7c1.3,0,2.6,0,3.9,0c0.1,1.1,0.2,2.3,0.4,4.2
	c1.5-1.8,2.5-3,3.5-4.2c1.3,0,2.6,0,3.9,0c1.1,3.4,4,4.9,7.1,5.5c1.5,0.3,3.6-1,5-2.1c0.5-0.3-0.2-2.3-0.4-3.4c1,0,1.9,0,2.9,0
	c0.8,2.9,2.1,6,0.3,8.9c-2.4,4-0.5,7,1.7,10.1c0.8,1,2,1.7,2.6,2.8c0.6,1,0.7,2.3,1.1,3.5c-1.2-0.5-2.4-1.3-3.4,0.1
	c-0.9,1.2-1.8,2.5-2.7,3.7c1.6,1.3,0.6,2.5,0,3.9c-0.2,0.4-0.1,1,0,1.4c1.9,4.4,3.8,8.8,5.8,13.2c0.1,0.2,1.3,0.4,1.5,0.1
	c1.3-1.7,2.2-3.5,1.3-5.8c-1.4-3.4-2.8-6.8-4.2-10.3c-1.5-3.7-1.4-3.7,1.7-6.3c2.3-2,4.1-4.5,3.6-7.4c-0.5-2.9-1.7-6.1-3.6-8.2
	c-2.7-2.9-3.1-6.1-2.9-9.6c1,0,1.9,0,2.9,0c-0.3,0.7-1,1.7-0.8,2.2c1.2,2.7,2.7,5.3,4.2,7.9c0.1,0.2,1.2,0.1,1.6-0.2
	c3.3-2.4,4.8-5.8,4.7-9.9c0.6,0,1.3,0,1.9,0c-0.3,2.6-0.6,5.2-1,7.8c-1.9,1.9-3.8,3.7-5.5,5.8c-0.4,0.4,0,1.5,0.1,2.3
	c0.7-0.1,1.5,0,2-0.3c1.6-1.1,3.9-1.7,2.7-4.6c-0.3-0.8,0.5-2.1,0.8-3.1c3.4-2.9,7.6-3,11.7-3.4c0.5,0,1.1,0.4,1.5,0.9
	c0.2,0.2,0,1.1-0.2,1.2c-3.1,1.9-3.7,5.2-4.7,8.2c-1.4,4.6-2.5,9.3-3.7,13.8c4.9-2.5,6-7.9,8.4-12.3c0.6-1.1,1.1-2.3,1.4-3.6
	c0.3-1.1,0.2-2.2,0.2-3.4c0-3.1,0-6.1,0-9.2c1,0,1.9,0,2.9,0c-0.5,1.3-1.5,2.7-0.2,4c1.2,1.3,2.2,2.8,4.3,2.8c1.8,0,3.5,0,5.3,0.4
	c1.3,0.3,1.8-0.3,2.2-1.3c0.7-1.9,1.4-3.9,2.1-5.9c2.3,0,4.5,0,6.8,0c-4,1.4-7.1,3.6-7,8.7c5.6-1.6,11.4-2.4,13.8-8.7
	c1,0,1.9,0,2.9,0c-0.8,1.4-1.7,2.9-2.7,4.5c2.9,0.8,5.2,1.7,7.7,2.1c2.3,0.4,3-0.5,2.2-2.7c-0.5-1.3-1-2.7-1.5-4c1.3,0,2.6,0,3.9,0
	c0.4,2,0.8,4,1.3,6c2.9,0.8,2.5,2.9,2.2,5.1c0,0.3,1.2,0.9,1.9,1.2c1.9,0.6,6.9,0.3,9-0.3c-1.2-1.6-2.6-3.3-3.8-5.1
	c-1.5-2.4-2.9-4.8-4.9-6.8c1.6,0,3.2,0,4.9,0c0.2,1.1,0.3,2.2,0.7,3.2c0.7,1.7,1.6,1.8,2.7,0.3c0.9-1.1,1.6-2.4,2.4-3.6
	c2.3,0,4.5,0,6.8,0c-0.7,1.2-0.6,2.5,0.5,3.3c0.6,0.5,1.9,0.6,2.6,0.3c2.9-1.1,5.7-2.4,8.5-3.6c1,0,1.9,0,2.9,0
	c-0.9,2-1.9,4-2.7,6.1c-0.2,0.6,0,1.8,0.5,2.2c0.4,0.4,1.6,0.3,2.2,0c3.7-1.9,7.3-3.9,10.9-6c0.8-0.5,1.2-1.4,1.8-2.2
	c1,0,1.9,0,2.9,0c0,0.3,0,0.6,0,1c-1.9,1.5-3.8,2.9-5.6,4.4c-1,0.8-1.5,1.7,0,2.5c0.9,0.5,1.8,1.2,3.1,2.1c0.9-3.2,1.6-6.1,2.4-8.9
	c0.3-0.3,0.6-0.6,1-1c1,0,1.9,0,2.9,0c-0.2,0.4-0.6,1.1-0.5,1.3c1.7,2.8,3.2,5.8,5.7,8.1c2.4-3,1.2-6.3,1.6-9.4c1,0,1.9,0,2.9,0
	c-0.3,3.5-0.6,7-1,11c1.8-1.8,3.3-3.2,4.8-4.6c1.8-1.8,3.7-3.6,3.9-6.4c1,0,1.9,0,2.9,0c0.1,1.7,1,3.2,2.6,3.2
	c0.6,0,1.4-1.8,2.1-2.8c0.1-0.1,0.1-0.3,0.2-0.4c1,0,1.9,0,2.9,0c-0.8,1.4-1.7,2.9-2.5,4.3c4.3-0.6,8.4-0.9,11.3-4.3
	c2.3,0,4.5,0,6.8,0c0.2,0.4,0.4,0.9,0.7,1.3c0.1-0.4,0.2-0.9,0.3-1.3c0.6,0,1.3,0,1.9,0c0.1,2.7,0.1,5.4,0.2,8.7
	c3.2-2.6,5.7-4.9,5.6-8.7c2.3,0,4.5,0,6.8,0c0.1,1.4,0.2,2.9,0.3,4.3c0.2,0,0.5,0,0.7,0c0.6-1.4,1.2-2.9,1.9-4.3c1,0,1.9,0,2.9,0
	c-0.9,2-1.9,3.9-2.7,6c-0.1,0.3,0.8,1.5,1.1,1.4c4-0.6,8.2-1,10.3-5.4c0.4-0.8,1.3-1.3,1.9-2c1.6,0,3.2,0,4.9,0
	c-1.6,1.2-3.3,2.3-4.9,3.5c-0.4,0.3-0.4,1.1-0.6,1.7c0.6,0.2,1.2,0.6,1.7,0.5c2.4-0.2,4.7-0.6,7-0.9c3.4-0.5,6.4-1.7,8.3-4.8
	c1,0,1.9,0,2.9,0c-0.2,0.4-0.5,0.8-0.7,1.2c-1.3,2.1-1.2,2.4,1.2,2.9c0.4,0.1,1.1-0.2,1.3-0.5c0.8-1.1,1.4-2.4,2.1-3.6
	c1,0,1.9,0,2.9,0c-1.1,1.5-2.3,2.9-3.8,4.8c1.5,0,2.4,0,3.3,0c1.4,0,2.9,0,4.3-0.2c0.9-0.1,2.1-0.8,2.4,0.5c0.2,0.7-0.4,1.7-0.8,2.4
	c-0.3,0.6-0.8,1.1-1.4,1.8c1.5,0.7,2.7,1.6,3.9,1.7c0.7,0.1,2.3-1.2,2.3-1.6c-0.3-1.7-0.9-3.5-1.9-4.9c-0.6-0.9-2.1-1-3.2-1.6
	C402.4,2,401.1,1,399.6,0c1.6,0,3.2,0,4.9,0c1,1.3,1.9,1.2,2.9,0c0.6,0,1.3,0,1.9,0c0,1.4,0,2.8,0,4.2c0.3,0,0.5,0.1,0.8,0.1
	c0.4-1.5,0.7-2.9,1.1-4.4c1,0,1.9,0,2.9,0c-1,2.3-2.7,4.4-1.5,7.3c4.4-1.1,7.6-3.7,10.2-7.3c0.6,0,1.3,0,1.9,0
	c0,0.1-0.1,0.3-0.1,0.4c-0.6,1-1.2,2.2,0.2,2.7c1.6,0.7,1.6-0.8,1.8-1.8c0.1-0.4,0.1-0.9,0.1-1.4c1,0,1.9,0,2.9,0
	c-0.6,1.7-1.2,3.5-2,5.6c5-0.7,9.3-1.1,11.7-5.6c1.9,0,3.9,0,5.8,0c0.5,1.3,0.9,2.7,1.5,3.9c1,2.2,2.2,4.2,3.2,6.4
	c1.1,2.6,3,3.1,4.9,1c1.9-2.1,2.4-5.9,1-8.5c-0.5-1-1.2-1.9-1.8-2.8c0.6,0,1.3,0,1.9,0c0.6,0.8,1.2,1.5,1.8,2.3
	c0.4-0.8,0.8-1.5,1.1-2.3c2.3,0,4.5,0,6.8,0c-0.2,2.6-0.5,5.3-0.7,7.9c0,0.3,0.5,0.7,0.8,1.1c0.4-0.4,1.1-0.7,1.2-1.1
	c0.3-2.6,0.5-5.3,0.7-8c0.3,0,0.6,0,1,0c0.3,0.7,0.6,0.8,1,0c0.6,0,1.3,0,1.9,0c0,0.5,0.1,1,0,1.4c-0.4,3,0.7,4.1,3.4,3.1
	c2.3-0.9,4.1-2.4,5.3-4.5c2.9,0,5.8,0,8.7,0c1,1.4,1.9,2.8,2.9,4.2c0.2,0.3,0.9,0.4,1.2,0.2c0.2-0.1,0.4-0.8,0.3-1.1
	c-0.4-1.1-1-2.2-1.5-3.3c1,0,1.9,0,2.9,0c0.1,1.6,0.7,3,2.6,2.4c2.1-0.6,4.1-1.6,6.1-2.4c4.2,0,8.4,0,12.6,0c0.3,0.7,0.6,0.9,1,0
	c1,0,1.9,0,2.9,0c-0.5,0.8-0.9,1.6-1.7,3c2.5-0.2,4.7-0.8,6.7-0.5c2.4,0.4,3-0.9,3.7-2.5c1.9,0,3.9,0,5.8,0c0.8,0.5,1.5,1.1,2.3,1.5
	c0.3,0.1,0.7-0.1,1.1-0.2c-0.2-0.4-0.3-0.9-0.5-1.3c1,0,1.9,0,2.9,0c0.6,1.1,1.8,2.2,1.6,3.2c-0.2,1.4,0.2,2,1.3,2.6
	c1.2,0.7,2.3,1.7,3.4,2.5c1.3-5.5,1.3-5.5-0.5-8.4c1,0,1.9,0,2.9,0c2.9,2.6,5.9,5.1,9.5,8.3c0.5-3.4,0.8-5.8,1.2-8.3
	c1.6,0,3.2,0,4.8,0c2.1,1.9,4.3,3.8,6.3,5.9c1.5,1.7,3.1-0.6,4.5,0.4c0.3-0.9,0.7-1.9,0.8-2.8c0.1-1.1,0-2.3,0-3.4
	c0.6,0,1.3,0,1.9,0c0.3,2.6,1.5,4.7,3.7,6.2c0.5,0.4,1.1,0.7,1.7,1c0.1-0.7,0.5-1.6,0.3-2.2c-0.3-0.8-1-1.5-1.8-2
	c-1.1-0.7-2-1.5-1.9-3c1,0,1.9,0,2.9,0c2,3.3,5.3,5.1,8.4,7.5c0.2-4.4,0.2-4.3-2.7-6.1C588,1,587.5,0.5,586.8,0c1.6,0,3.2,0,4.8,0
	c0.6,1,1.3,1.1,1.9,0c1.6,0,3.2,0,4.9,0c-1.2,1.1-2.3,2.2-3.3,3c4.6,1.6,9,3,13.9,4.7c-4.7-5.9-4.7-5.9-8.7-7.7c1.9,0,3.9,0,5.8,0
	c0.8,1.2,1.5,2.5,2.4,3.6c0.9,1.1,2,2.6,3.1,2.8c4.2,0.7,8.5,0.9,12.8,1.1c0.5,0,1.3-0.5,1.5-1c0.1-0.4-0.3-1.2-0.8-1.5
	c-2.4-1.7-4.9-3.4-7.4-5.1c1.6,0,3.2,0,4.9,0c2.4,2.4,4.7,4.8,9.1,5.3c-2.4-2.1-4.3-3.7-6.2-5.3c1.3,0,2.6,0,3.9,0
	c0.4,0.5,0.7,1.4,1.2,1.4c3.2,0.2,6.5,0.2,9.7,0.2c0.3,0,0.5-1,0.7-1.6c1,0,1.9,0,2.9,0c0.4,2.7,0.1,3.4-1.9,3.8
	c-0.9,0.2-1.9,0.1-2.9,0.2c-1.6,0-3.2,0.1-4.8,0c-1.3,0-1.2,0.5-1.4,1.6c-0.4,2.2,0.3,2.9,2.2,3.3c1.5,0.3,2.9,0.9,4.6,1.4
	c-0.8-4.2-0.9-4.3,2.6-5.4c2-0.6,4.1-1.1,6.1-1c2.9,0.1,5.7,0.9,8.7,1.3c-0.8-1.7-1.7-3.5-2.5-5.2c1,0,1.9,0,2.9,0
	c2,8.4,5.5,9,11.2,8.8c2.4-0.1,2.7-1.4,2.1-3.2c-0.6-1.9-1.7-3.7-2.6-5.6c4.2,0,8.4,0,12.6,0c1,1,2.1,1.8,2.9,2.9
	c0.3,0.4,0,1.3,0,1.9c-1.5,0.1-2.4-0.7-3-2c-0.7-1.6-2-1.8-3.5-1.9c-5.2-0.3-5.5,0-4.1,5.1c0.7,2.5,2.8,3.7,4.5,2.1
	c1.8-1.8,4.2-2,6.1-3.3c1,0,1.9-0.4,1.9-1.6c0-1.1,0-2.2,0-3.3c0.6,0,1.3,0,1.9,0c0.3,0.9,0.5,1.9,0.9,2.7c1,2.7,1.6,3,4.2,2.1
	c2.9-1,5.9-1.9,7.5-4.8c1.3,0,2.6,0,3.9,0c-2.1,1.8-4.2,3.7-6.3,5.5c2.3,1.1,2.3,1.1,4.7,0.3c3.9-1.3,4-1.6,2.6-5.8c1,0,1.9,0,2.9,0
	c0,1.1,0,2.2,0.1,3.4c0.2,3.4,2.2,4.4,5.1,2.5c2.2-1.4,4-3.2,4.5-5.9c1.3,0,2.6,0,3.9,0c-0.6,1-1.2,2-1.7,2.8c2.4,0.4,4.7,0.8,7,1
	c2.5,0.2,5,0,7.3,0c-1-1.3-1.9-2.5-2.9-3.8c1.3,0,2.6,0,3.9,0c2.2,2.6,4.8,4.1,8.3,3.6c0.6-0.1,1.2,0,1.8,0.2
	c3.7,1.3,3.7,1.3,3.4-2.8c0-0.3,0-0.6,0.1-1c0.6,0,1.3,0,1.9,0c0.4,3.7,3.3,6,5.4,8.7c0.1,0.1,0.3,0,0.5,0.1c0.6,1.7,1.6,1.5,3,0.9
	c4-1.8,8-3.5,12.5-2.8c0.3,0.3,0.6,0.5,0.9,0.8c0.1-0.2,0.2-0.3,0.3-0.5c-0.4-0.1-0.8-0.2-1.2-0.3c-0.8-0.7-1.5-1.5-2.4-2.1
	c-3.4-2.3-3.4-2.3-6.1,0.8c-1.9,2.1-4.1,3.3-7,3.3c0.1-1.6-0.5-3.7,2.5-3.2c0.7,0.1,1.8-0.6,2.3-1.2c1.1-1.3,2-2.8,2.9-4.3
	c1.9,0,3.9,0,5.8,0c0,0.8-0.2,2,0.2,2.5c1.4,1.8,3.3,3.1,5.6,3.3c0,4.8,0,9.7,0,14.5c-2-2-3.7-3.9-2.1-7.1c0.3-0.6,0.2-1.6,0-2.4
	c-0.4-1.5-2.8-2.5-3.8-1.5c-2.1,2.1-4.3,4.3-6,6.8c-1.4,2-0.9,3.4,0.8,5.1c3.2,3.3,7,3.5,11,1.9c0,1,0,1.9,0,2.9
	c-1.8,0-3.6,0.2-3.8,2.5c-0.3,4.2,0.4,8.1,3.8,11.1c0,1.3,0,2.6,0,3.9c-4.5-4.3-6.5-9.6-6.2-15.9c0-0.6-0.6-1.3-1.1-1.8
	c-1.2-1.1-2.5-0.4-3.5,0.4c-0.4,0.3-0.3,1.4-0.1,2.1c0.6,1.6,1.3,3.3,2.1,4.8c1.2,2.2,0.7,3.2-1.6,3.5c-6.5,1-11.7-1.9-14.8-8.1
	c-0.9-1.8-2.1-2.5-4.2-2c-2.9,0.8-5.9,1.4-8.9,0.5c-0.5-0.1-1.1,0.1-1.4-0.2c-4-3.6-8.7-1.1-13.6-1.8c1.5,2,3.3,2.4,4.9,3
	c0.8,0.3,1.8,1.3,1.8,1.9c-0.1,0.9-0.8,2.2-1.6,2.6c-4.2,2.1-8.5,1.7-12.5-0.3c-2-1-3.6-1.1-5.8-0.8c-2.7,0.4-5.6-0.5-8.7-0.9
	c1.2,5.3,2.4,10.6,9,12.4c0.5-2.9,0.7-5.8-0.3-8.7c-0.1-0.3,0.3-1,0.5-1.1c0.4-0.1,1.1,0.1,1.2,0.4c0.4,1.2,0.8,2.4,0.9,3.6
	c0.2,4.2-0.4,8.4,1.5,12.3c0.2,0.4,0.2,1,0,1.3c-0.3,0.5-0.9,0.9-1.4,1.1c-0.2,0.1-0.9-0.5-1-0.8c-0.8-3.4-3.1-5.4-5.9-7.3
	c-2.5-1.7-4.5-4.1-5.2-7.3c-0.4-1.9-1.2-3.7-1.7-5.5c-0.6-1.8-3.6-4.6-5.4-4.7c-0.4,0-0.9,0.2-1.3,0.4c-3,1.5-6,3.1-9.5,4.9
	c1.9,0.7,3.5,1.3,5.1,2c1.5,0.6,1.8,1.5,0.6,2.5c-1.2,1-2.6,2.3-4,2.4c-6.1,0.7-11.9,0.5-15.9-5.3c-1.1-1.6-2.6-3-4.7-2.8
	c-1,0.1,0,2.7,2.2,4.7c3,2.8,3.5,4.8,1.9,8.4c-1.4,3.2-3.1,6.3-4.6,9.5c-0.6,1.2-1.4,1.3-2.1,0.1c-2.1-4-5-7.1-8.9-9.3
	C647.2,41.5,645,38.1,646,33c1-0.6,1.9-1.3,2.9-1.9c-0.3,1.4-0.6,2.8-0.8,4.2c-0.3,1.9,0,3.6,1.7,4.7c3.9,2.4,7.3,5.2,10.4,8.5
	c0.3,0.3,1.4,0.3,1.5,0.2c1.6-3.1,4.1-5.9,3.7-9.7c-0.1-0.6-0.3-1.4-0.7-1.6c-0.4-0.2-1.2,0.2-1.6,0.6c-2.7,1.9-3.4,2-5.7,0.1
	c-1.7-1.5-3.1-3.2-4.8-4.7c-1-0.9-2.4-1.5-3.6-2.2C646.6,29.7,646.4,29.8,646,33z M138.7,15.5c0.3-0.3,0.6-0.7,1-1
	c0.3-0.3,0.6-0.7,1-1c0.7-0.4,1.5-0.6,1.9-1.1c1-1.2,1.6-2.8,2.7-3.9c3.2-3.4,4.9-3.3,7.6,0.4c0.5,0.6,0.8,1.4,1.3,2
	c0.3,0.3,1.1,0.6,1.2,0.4c0.6-0.5,1.1-1.2,1.4-1.9c0.1-0.4-0.2-1.2-0.5-1.5c-1.9-1.5-3.8-2.9-5.8-4.2c-0.5-0.3-1.7-0.4-2.1,0
	c-2.9,3.1-7.2,5.1-7.7,10c-0.3,0.3-0.7,0.6-1,1C139.3,14.9,139,15.2,138.7,15.5c-0.2,0.1-0.3,0.3-0.5,0.5
	C138.4,15.8,138.6,15.7,138.7,15.5z M661.5,27.2c-0.1-0.1-0.1-0.3-0.2-0.4c-0.1-0.1-0.2-0.1-0.3-0.1C661.2,26.8,661.4,27,661.5,27.2
	c0.3,0.2,0.6,0.5,1,0.8c0.1-0.2,0.2-0.3,0.3-0.5C662.4,27.4,662,27.3,661.5,27.2z M91.2,518c-0.3,0.7-0.6,1.3-0.9,2
	c-0.3,0.6-0.6,1.3-1,1.9c-0.3,1-0.7,1.9-1,2.9c-0.3,0.5-0.6,0.9-0.8,1.4c-0.1,0.2,0.2,0.5,0.2,0.8c0.2-0.3,0.4-0.6,0.5-0.9
	c0.1-0.4,0.1-0.9,0.1-1.3c0.3-1,0.6-1.9,1-2.9c0.3-0.6,0.6-1.3,1-1.9C90.5,519.3,90.9,518.6,91.2,518c0.2-0.1,0.3-0.3,0.5-0.4
	C91.5,517.7,91.3,517.8,91.2,518z M392.9,13.6c-0.4,0-0.9,0-1.3,0.1c-0.3,0.1-0.6,0.3-0.9,0.5c0.3,0.1,0.6,0.3,0.8,0.2
	C391.9,14.2,392.4,13.9,392.9,13.6c0.6-0.3,1.3-0.7,1.9-1c0.6,0,1.3,0,1.9,0c2.2-0.2,4.2-0.1,4.2,3c0,0.6,1.2,1.5,2,1.7
	c1.6,0.5,3.4,0.9,5.1,1c2,0.2,4.1,0.4,5.4-1.2c-2.8-1.4-5.5-3-8.4-4.2c-3.3-1.4-6.7-3.2-10.1-0.3C394.1,12.9,393.5,13.3,392.9,13.6z
	 M66.9,495.7c0.1,0.4,0.2,0.8,0.3,1.3c0.2-0.1,0.3-0.2,0.5-0.3C67.4,496.3,67.2,496,66.9,495.7c-0.7-1.3-1.3-2.6-1.9-3.9
	c-0.1-0.4-0.2-0.8-0.3-1.2c-0.2,0.1-0.3,0.2-0.5,0.3c0.3,0.3,0.5,0.6,0.8,0.9C65,493.4,65.1,495,66.9,495.7z M274.5,51.4
	c1.4-0.7,2.6-1.6,1.9-3.6C275.8,49,275.1,50.2,274.5,51.4c-0.1,0.1-0.3,0.1-0.4,0.2c-0.1,0.1-0.1,0.2-0.1,0.3
	C274.2,51.7,274.4,51.6,274.5,51.4z M309.4,17.5c-0.3-0.3-0.6-0.5-0.9-0.8c-0.1,0.2-0.2,0.3-0.3,0.5C308.6,17.3,309,17.4,309.4,17.5
	c0.1,1.2,0.5,2.1,2,1.7c0.2-0.1,0.4-0.4,0.6-0.6c-0.7-0.4-1.4-0.7-2.1-1.1C309.8,17.4,309.6,17.5,309.4,17.5z M236.7,31
	c-0.2,0-0.3,0-0.5,0c-1.7,0.3-2.5,1.2-2.2,3c0,0.2,0.7,0.5,0.7,0.5c0.6-0.8,1.3-1.7,1.8-2.6C236.7,31.7,236.6,31.4,236.7,31
	c0.1-0.1,0.3-0.1,0.4-0.2c0.1-0.1,0.1-0.2,0.1-0.3C237,30.7,236.8,30.9,236.7,31z M148.4,533.5c1.7-1.2,3.5-2.3,4.9-3.7
	c1.1-1.2-0.5-0.9-1-1.2c3.4-1.5,6.8-3.1,10.7-4.8c-1.8-3.2-3.6-6.4-5.7-10.2c-3.1,4.2-5.8,7.7-8.3,11.3c-0.8,1.1-1.2,2.6-1.4,4
	c-0.2,1.2,0.8,1.6,1.8,1.7C149,531.6,148.7,532.5,148.4,533.5c-0.1,0.1-0.3,0.1-0.4,0.2c-0.1,0.1-0.1,0.2-0.1,0.3
	C148.1,533.8,148.3,533.7,148.4,533.5z M703.3,10.7c-1.8,0.7-3.6,1.4-5.7,2.3c1.6,1,2.6,1.6,3.6,2.3c0.3-1,0.6-2.1,1-3
	C702.5,11.7,702.9,11.2,703.3,10.7c1.7,0,3.3,0,3.7-2.8C705.4,9,704.3,9.8,703.3,10.7z M166.8,22.3c-1.5,0.2-3.1,0.4-4.6,0.7
	c-0.3,0.1-0.6,0.3-1,0.5c0.6,1.1,1.2,2.1,2,3.1c0,0.1,1.4-0.5,1.8-1.1C165.7,24.5,166.2,23.4,166.8,22.3c0.1-0.1,0.3-0.1,0.4-0.2
	c0.1-0.1,0.1-0.2,0.1-0.3C167.2,22,167,22.2,166.8,22.3z M11.6,10.7c2-0.4,4-0.7,6-1.2c0.2,0,0.4-0.5,0.4-0.8c0-0.2-0.3-0.7-0.5-0.7
	c-1.6,0-3.2-0.1-4.7,0.3C12.3,8.5,12.1,9.9,11.6,10.7c-0.1,0.1-0.3,0.1-0.4,0.2c-0.1,0.1-0.1,0.2-0.1,0.3
	C11.3,11,11.5,10.8,11.6,10.7z M733.3,6.8c-4.5,1.9-9.1,3.9-13.6,5.8c-0.4,0-0.9,0-1.3,0.1c-0.3,0.1-0.6,0.3-0.9,0.5
	c0.3,0.1,0.6,0.3,0.8,0.2c0.5-0.2,1-0.6,1.4-0.9C725,12.3,729.8,11.1,733.3,6.8c0.1-0.1,0.3-0.1,0.4-0.2c0.1-0.1,0.1-0.2,0.1-0.3
	C733.6,6.5,733.5,6.6,733.3,6.8z M2.9,7.8C4.3,7.4,5.6,7,7,6.7c1.5-0.3,1.9-1.1,1.4-2.3C8.2,3.7,7.7,3,7.2,2.1
	C5.5,4,3.2,5.1,2.9,7.8c-0.1,0-0.3,0.1-0.4,0.2C2.5,8,2.5,8.1,2.4,8.2C2.6,8.1,2.8,7.9,2.9,7.8z M202.7,27.2
	c-5.2,0.2-5.7,0.9-4.3,5.9c0.1,0.4,0.4,0.8,0.7,1.4c1.1-1.3,2.1-2.6,3.3-4.1c-0.8,0-1.1,0-1.4,0c-0.7,0-1.4-0.1-2.1-0.1
	c0.4-0.6,0.7-1.4,1.2-1.8C201,27.9,201.9,27.6,202.7,27.2c1.1,0,2.2,0,3.2,0C204.8,26.3,203.6,25.8,202.7,27.2z M465,52.5
	c-0.1-0.1-0.3-0.1-0.4-0.2c0.1,0.1,0.1,0.3,0.2,0.4c0.1,0.1,0.2,0.1,0.3,0.1c0-0.1-0.1-0.2-0.3-0.3c-0.4-3.5-2.2-6.2-3.8-9
	c-0.2-0.4-0.7-0.6-1.2-0.8c-0.3-0.1-0.8-0.2-0.9,0c-0.2,0.3-0.5,0.9-0.3,1.1C460.7,46.7,461.4,50.4,465,52.5z M111.5,29.1
	c2.8-1.2,3.6-3.6,3.8-6.4c0.1-1.1,0.1-2.2,0.1-3.3c1.8-0.3,3.1,0.5,4.3,1.7c2.1,2.2,4.3,4.3,5.6,7.2c0.7,1.7,1.5,1.6,2.8,0.1
	c0.7-0.9,0.8-1.5,0.1-2.5c-0.9-1.1-1.5-2.4-2.3-3.6c-1.6-2.2-3-4.5-4.9-6.4c-2.6-2.7-3.3-2.4-4.6,1.3c-0.3,0.7-0.6,1.5-1,2.2
	c-3.2,2.1-5.6,4.5-3.9,8.8C111.7,28.4,111.6,28.8,111.5,29.1c-0.1,0.1-0.3,0.1-0.4,0.2c-0.1,0.1-0.1,0.2-0.1,0.3
	C111.2,29.4,111.4,29.2,111.5,29.1z M248.3,19.4c-0.9,3.8-4.4,6.1-6.1,9.5c1.8-1.1,3.4-2.4,5-3.6C249.7,23.3,249.8,23,248.3,19.4
	c0-0.3-0.1-0.7,0-0.9c0.2-0.6,0.4-1.1,0.7-1.7c0.4,0.4,0.9,0.7,1.3,1.1c0.1,0.1,0,0.3,0.1,0.5c0.8,1.4,1,4.3,3,3.3
	c1.6-0.8-1-2.5-1.6-3.8c-1-2.3-4.5-3.2-6.8-2c-0.7,0.4-1.1,1.5-1.2,2.3c0,0.2,1.1,0.9,1.7,1.1C246.4,19.5,247.4,19.4,248.3,19.4z
	 M327.9,23.3c-0.6-1.3-1.3-2.6-1.9-3.9c1.5,0.6,2.9,1.4,4.5,1.8c1,0.3,2.4,0.3,3.3-0.2c0.6-0.3,0.7-1.6,1-2.5c0.4-1.1,1-1.1,1.8-0.4
	c2.3,2,5.3,3.3,8.1,4.4c2.1,0.8,3.8,0.4,5.4-0.7c1-0.7,2-1.5,3.5-2.8c-5.4,0.9-9.5-0.4-13.2-3.1c-2.8-2.1-5.6-4.3-9.5-3.5
	c-0.2,0-0.7-0.3-0.7-0.4c0-0.4,0.2-1,0.4-1.2c1-0.5,2.1-0.8,3.1-1.2c3.2-1.4,4.7-4.2,4.3-8c-4,2.4-7.9,4.8-12,7.1
	c-1.1,0.6-2.3,1.5-3.3-0.2c-0.1-0.2-1-0.3-1.1-0.1c-0.3,0.3-0.4,0.9-0.3,1.3c0.6,2.6,2,3.6,5.3,4c1,0.1,2.6,0.2,3,0.8
	c0.8,1.6-0.7,2.6-1.7,3.5c-0.6,0.5-1.3,1-1.9,1.4c-0.8,0.4-1.6,0.9-2.8,1.5C324.9,21.8,326.4,22.6,327.9,23.3
	c0.6,1.1,1.1,2.3,1.8,3.4c0.4,0.6,1.2,1.4,1.7,1.3c2.4-0.2,4.8-0.6,6.4-2.7c0.3-0.4,0.4-1.3,0.2-1.7c-0.2-0.4-1-0.6-1.5-0.6
	C333.6,23,330.7,23.2,327.9,23.3z M43.7,8.7c-3.3,0.7-4.8,3.6-6.8,5.8c-1.1,1.1-2.3,2.2-3.4,3.4c-0.1,0.1,0.4,1.2,0.7,1.3
	c1.1,0.3,2.4,0.3,2.6-1.3c0.1-1.1,0.1-2.2,0.1-3.4c1.1,0,1.9,0.4,2,1.6c0.1,1,0.1,2.1,1.4,2.1c1.4,0,3,0,4.1-0.7
	c0.9-0.5,1.9-2.3,0.3-3.2C42,12.8,42.4,10.9,43.7,8.7c0.1-0.1,0.3-0.1,0.4-0.2c0.1-0.1,0.1-0.2,0.1-0.3C44,8.4,43.8,8.6,43.7,8.7z
	 M455.9,22.3c-0.1-0.1-0.1-0.3-0.2-0.4c-0.1-0.1-0.2-0.1-0.3-0.1C455.6,22,455.7,22.2,455.9,22.3c1.1,0.6,2.1,1.3,3.2,1.8
	c1.6,0.8,1.9,1.7,0.4,2.7c-1.3,0.9-2.9,1.5-4.5,2.2c0.4,0.4,0.5,0.7,0.8,0.9c2.9,2.1,2.8,2,4.8-0.7c0.8-1.1,2-2,3.2-2.7
	c1.2-0.7,3.1-0.5,3.4-2.3c0.2-1.6,0.1-3.2,0-4.8c0-0.2-1.1-0.6-1.4-0.5c-1,0.7-1.8,2-2.9,2.3C460.7,21.9,458.3,22,455.9,22.3z
	 M52.3,20.4c0.2,1-0.3,2.7,1.3,2.7c2.7,0,5.4-0.2,8-0.7c1.7-0.3,3.1-2,2.7-3.4c-0.5-1.4-2.4-1.7-4.2-1.1
	C57.6,18.9,55,19.5,52.3,20.4c1.6-2.7,3.2-5.4,4.9-8.3c-7.4,1.4-7.9,1.9-11.5,7.9c-0.9,1.5-2.1,2.8-3.4,4c-0.9,0.9-2.1,1.6-3.5,2.8
	c5.5-0.4,9.6-2.2,12.7-6C51.7,20.6,52.1,20.5,52.3,20.4z M680.9,10.7c-0.7,1.2-1.5,2.4-2.2,3.6c-0.2,0.3-0.1,1.3,0,1.3
	c2.8,0.5,3.6,2.7,4.4,4.9c0,0.1,0.3,0.2,0.4,0.2c4.3,1.6,8.7,2.1,13.6,1.2c-2-1.8-3.7-3.3-5.4-4.7c-0.7-0.6-1.6-1.6-2.3-1.5
	C685.2,16.3,683.5,12.9,680.9,10.7c2,0.4,4.1,0.7,6.1,1c0.9,0.2,1.9,1,2.7,0.8c3.5-0.8,6.8-1.9,10.8-3.1c-1-0.8-1.4-1.2-1.7-1.3
	c-4.6-0.3-9.2-0.7-13.9-0.7C683.1,7.4,680.9,7.9,680.9,10.7z M97,10.7c-7.3-0.4-14.3,0.5-20.9,4.4c3.9,2.4,8.2,2.7,12.4,3.2
	c1.4,0.2,3.4-0.4,4.4-1.4C94.5,15.1,95.6,12.8,97,10.7c0.4-0.2,0.8-0.4,1.1-0.7c0.1-0.2,0-0.6-0.1-1c-0.2,0.1-0.6,0.2-0.7,0.4
	C97.1,9.8,97.1,10.2,97,10.7z M102.8,51.4c4.4-0.3,7.4-2.8,10.1-5.9c0.5-0.6,1.2-1.9,1-2.1c-1.7-1.7-0.4-2.6,0.8-3.2
	c2.6-1.2,3-3,2-5.5c-0.4-1.2-0.4-2.5-0.6-3.8c-0.1-0.4-0.5-1.1-0.8-1.1c-0.5,0-1.3,0.2-1.6,0.6c-1.8,2.6-4,4.9-4.3,8.5
	c-0.2,2.1-1.4,4.2-2.5,6.1C105.8,47.2,104.2,49.3,102.8,51.4c-0.1,0.1-0.3,0.1-0.4,0.2c-0.1,0.1-0.1,0.2-0.1,0.3
	C102.5,51.7,102.7,51.6,102.8,51.4z M181.3,560.6c-0.8-1.5-1.4-2.4-1.9-3.3c-2.6-4.2-5.7-8.2-7.8-12.6c-2.4-5-4.1-10.4-6-15.6
	c-0.5-1.4-1.1-1.8-2.8-1.4c-5.6,1.2-9.8,4.6-14,8.1c-1.6,1.4-1.6,2.5-0.2,4.1c0.5,0.6,1.1,1.3,1.7,1.7c6.5,3.5,10.7,10.3,18,12.6
	c0.6,0.2,1.1,0.7,1.5,1.2C172.7,558.7,176.7,559.6,181.3,560.6z M80.9,493.7c-2.1,1.5-3.7,3-5.7,3.9c-3.5,1.6-7.2,2.7-10.8,4
	c-2.7,1-5.4,1.9-8.1,3c-0.7,0.3-1.5,0.9-1.7,1.5c-0.6,2.8,2.7,7,5.6,7c2.4,0,4.5,0.5,6.3,2.1c1.1,1,1.9,0.7,2.9-0.2
	C75.5,509.2,80.1,502.7,80.9,493.7z M204.3,532.3c0.2,0,0.3,0.1,0.5,0.1c0,1.5-0.2,3,0.1,4.3c0.2,0.9,1.1,2.2,1.9,2.4
	c3.8,0.7,7.3,2.3,11.3,2.2c3.6,0,7.4,0.3,10.2,3.3c0.6,0.7,1.7,1.6,3,0.6c1.4-1.1,1.9-2.5,0.9-4.2c-0.9-1.4-2.1-2.8-3.5-3.7
	c-2.2-1.5-4.8-2.6-7.1-4c-4.4-2.7-8.8-5.4-13-8.3c-1.6-1.1-2.4-0.7-2.8,0.8C205.1,528,204.8,530.2,204.3,532.3z M388.2,15.2
	c0-0.2,0-0.4,0-0.5c-2-0.3-4-0.9-6-0.9c-3.8-0.1-7.8-0.3-11.5,0.3c-4.1,0.6-8.1,1-11.8-0.6c-4.9-2.1-8,0.7-11.8,3.1
	c2.6,1.5,4.5,0.3,6.5-0.1c1.5-0.3,3-0.4,4.6-0.6c-0.5,1.4-1,2.8-1.7,4.5c2,0.3,4.1,1,6.1,0.7c3.8-0.5,7.5-1.5,11.2-2.3
	C378.6,17.6,383.4,16.4,388.2,15.2z M243.3,22.3c-0.4-0.3-0.7-0.7-1.1-0.9c-1.7-1.2-3.4-2.4-5.1-3.6c-2.6-1.7-5.1-3.3-7.8-4.8
	c-0.7-0.4-2.3-0.4-2.7,0.1c-1.2,1.6-2.1,3.4-3.1,5.2c0,0.1,0.1,0.3,0.2,0.4c2.7,3,5.3,6,8.1,8.9c0.6,0.7,2.2,1.2,3,0.8
	c2.8-1.1,5.7-2.3,7.7-4.8C242.9,23.2,243.1,22.8,243.3,22.3z M391.5,28.1c-3.3-1.8-6.4-3.5-9.4-5.2c-4.1-2.3-8.4-1.6-12.6-0.8
	c-1.5,0.3-2,1.5-1.7,3c0.9,4.1,6.1,7.5,10.3,6.7c1.2-0.2,2.6-0.3,3.8-0.6C384.9,30,388.5,30.5,391.5,28.1z M513.8,2
	c-1.7,0.2-3.1,0.5-4.4,0.4c-7.3-0.5-13.7,0.8-17.6,7.8c-0.4,0.7-1.2,1.1-1.6,1.8c-0.4,0.6-0.5,1.3-0.8,2c0.8,0.1,1.6,0.5,2.3,0.3
	c2.3-0.5,4.6-1.5,7-1.7C505.6,12.1,510.4,8.6,513.8,2z M359.2,10.9c1.6,1.8,3.6,1.7,5.5,1.7c6,0.1,12-1.6,18.1-0.1
	c0.9,0.2,1.9-0.2,2.9-0.2c4.5-0.1,8.4-2.4,12.5-4c-5.5-1.4-10.8-3.3-16.3-0.4c-0.3,0.1-0.6,0-1,0c-3.7,0.5-7.5,0.1-11.1,1.6
	c-0.8,0.3-1.9-0.3-2.8-0.1C364.4,10,361.6,8.9,359.2,10.9z M435.2,30.1c2.4,1.8,4.4,3.7,7.4,4.2c1.8,0.3,3.4,1.7,5,2.6
	c1,0.5,1.9,1.4,2.9,1.6c4.1,0.8,8.3,1.5,13.5,2.4c-3.3-3.4-5.7-6-8.4-8.3c-1.4-1.2-3.3-2.2-5.1-2.3
	C445.5,29.9,440.4,30.1,435.2,30.1z M750.5,25.1c2.6,1.3,5.4-0.3,8.2,0c1.6,0.2,1.7-0.6,0.9-2.1c-3.3-6.1-8.6-10.4-13.2-15.2
	c-1-1-2.1-1.1-2.8,0.2c-1.3,2.5-3.4,5.3-2,8c1.2,2.3,4.3,2.3,6.9,2.5c2.3,0.2,4.9-1,6.7,1.3C753.7,21.5,752.1,23.2,750.5,25.1z
	 M677.5,11c-1.7,0.1-3.4,0.4-5,0.2c-2.3-0.2-10.3-0.1-12.6,0.2c-3.7,0.5-6.5,2.4-9.1,4.3c4.2,3.3,9.2,3.2,14,2.5
	C669.7,17.5,674.6,15.9,677.5,11z M356.3,37.9c-2-1.9-4.9-3.2-5.5-5.3c-1.3-4.2-5-5.1-7.6-7.4c-0.4-0.4-1.7-0.3-2.1,0
	c-1.1,1.1-2,2.4-3,3.6c1.5,1.2,0.2,2.5,0.2,3.7c0,0.8,1.7,1.7,2.8,2.4c1.3,0.9,2.9,1.4,4.1,2.4C348.9,40.5,352.5,40.1,356.3,37.9z
	 M435,34.3c1.1,2.4,1.8,4.1,2.6,5.7c0.7,1.6,1.9,3,2.2,4.7c0.6,2.5,1.9,3.9,4.4,4.3c1.1,0.2,2.2,0.3,3.3,0.7
	c1.7,0.6,3.7,1.5,4.9,0.1c0.5-0.6-0.8-2.8-1.3-4.3c-1.2-4.2-4.5-6.5-7.9-8.4C441.1,35.8,438.4,35.4,435,34.3z M59,31.9
	c1.4,0,2.9,0.1,4.3,0c7.5-0.7,13.2-4.2,17.4-10.4c0.7-1.1,0.5-1.7-0.6-2.2c-3.5-1.8-7.1-1-9.8,1.9C66.8,25,63.6,29,59,31.9z
	 M488.5,17.9c1.3,3.1,1.3,3.1,4.9,6.2c1,0.9,1.8,1.8,0.7,2.7c-1.5,1.2-0.7,1.8,0.2,2.5c3.9,3,9.5,2.4,13.2-1.3c-2.4-2-5-3.9-7.1-6.2
	C497.2,17.9,493.4,16.6,488.5,17.9z M34.3,27.5c0.3,5.4,0.5,10.9,0.8,16.3c0,0.2,0,0.3,0,0.5c0.2,1.1,0.9,1.3,1.7,0.7
	c4.2-2.8,6.5-6.5,5.9-11.7c-0.3-3.2-0.2-3.1-3.3-4.3c-1.2-0.5-2.2-1.6-3.3-2.4c0.7-0.8,1.4-1.6,2.1-2.3c0.1-0.1,0.2-0.2,0.4-0.3
	c1-0.8,1-1.5,0.1-2.4c-0.9-0.8-1.4-0.9-2.4-0.1C34.1,23.1,33.7,25.2,34.3,27.5z M81.4,62.8c6,0.8,10.7-1.1,15.1-3.8
	c1.1-0.6,2.2-1.4,3-2.3c0.8-0.9,1.6-2.1-0.8-2.5c-1.9-0.3-2-1.2-0.6-2.5c1.3-1.2,2.8-2.1,4.1-3.3c0.7-0.7,0.5-1.4-0.6-1.7
	c-3.6-1-5.9,1.1-7.7,3.6C90.7,55,86.5,58.7,81.4,62.8z M481.5,30.6c2,1.5,1.7,3.1,0.8,5.1c-0.3,0.8,0.2,2.4,0.8,3.1
	c1.8,2,3.8,3.9,6,5.4c2,1.4,3.1,0.9,3.3-1.3c0.3-3.2,0.4-6.5,0.1-9.6c-0.3-2.9-2.8-4.5-5.6-4C485.2,29.6,483.3,30.2,481.5,30.6z
	 M113.4,48.8c-1.8,1.2-3.3,2.1-4.7,3.1c-2.8,1.8-3.7,4.1-2.8,7.2c0.7,2.4,1.3,4.9,2.2,7.3c0.6,1.6,1.5,3.1,2.4,4.6
	c0.4,0.6,1.3,0.8,1.9,1.1c0.3-0.7,1-1.3,1-2C113.4,63.1,113.4,56.1,113.4,48.8z M503.1,14.4c2.2,0,4.5,0.3,6.7-0.1
	c1.9-0.3,3.6-0.3,4.8,1.2c1.6,1.9,3.5,2,5.7,1.9c1.4,0,2.9,0.1,4.3-0.1c1.3-0.1,3.2,0.9,3.7-1c0.1-0.5-1.7-1.5-2.5-2.5
	c-2.8-3.1-6.4-4.8-10.2-6.2c-1.2-0.5-2.3-0.8-3.4,0.5C509.8,11.3,506.5,12.8,503.1,14.4z M72.5,54.3c1.5,0,3,0.2,4.4,0
	c3.1-0.6,6.4-1,9.2-2.5c3.2-1.6,4.9-5,6.5-8.1c1-2,0.3-3-2.1-2.8c-3,0.3-5.4,1.8-7.6,3.8C79.6,47.9,76.2,50.9,72.5,54.3z M80,28
	c2.1,1.4,3.6,2.9,5.3,3.3c2.1,0.5,4.7,0.9,6.5,0.1c2.6-1.2,4.3-3.7,5.2-6.7c0.8-2.7,1.6-5.3-0.5-7.9C92.9,23,87.3,26,80,28z
	 M253.4,16.1c1.4,2.3,2.8,4.6,4.2,6.8c0.5-0.3,0.8-0.5,1-0.7c2.6-1.6,4.3-4,5-6.8c0.7-2.7,0.2-5.3-1.7-7.7c-0.7-0.9-0.7-2.4-1.2-3.6
	c-0.4-1.1-1.1-2.1-1.7-3.3c-1.3,1.5-2.3,2.6-3.1,3.7c-2.4,3.2-1.9,4.8,1.8,5.8c0.6,0.2,1.3,0,1.9,0.2c0.7,0.2,1.3,0.6,2,1
	c-0.4,0.6-0.7,1.5-1.3,1.8C258.2,14.4,255.9,15.1,253.4,16.1z M101.8,25.2c10-3.8,14.7-10,15-18.6c-4.4-0.4-7.8,1.5-10.3,4.9
	c-0.4,0.6-0.7,1.6-0.5,2.2c0.2,0.4,1.3,0.6,2,0.6c0.6,0,1.2-0.5,1.8-0.6c0.4,0,0.9,0.3,1.3,0.4c-0.2,0.5-0.3,1.2-0.7,1.5
	c-1.5,1.1-3.5,1.8-4.7,3.2C104.3,20.4,103.4,22.5,101.8,25.2z M280.5,24.4c-1.4,0.2-2.2,1.2-2.1,2.7c0.3,3.5,0.8,7,3.9,9.4
	c2,1.6,3.2,1.7,5.7,0.4c2.1-1.1,2.1-2.6,1.2-4.4c-0.3-0.6-0.2-1.3-0.3-1.9C288,26.4,284.9,24.1,280.5,24.4z M260.4,56.4
	c3.8,1.4,6.3,0.5,8.3-1.6c1.9-2.1,3.3-4.7,5.2-6.9c2.2-2.4,2.6-5,1.5-7.9c-0.3-0.7-0.8-1.9-1-1.9c-0.9,0.1-2,0.5-2.4,1.1
	c-1.5,2.4-3.1,4.9-4.1,7.6C266.5,50.6,264.7,53.9,260.4,56.4z M413.1,33.2c3.3-1.1,5.7-1.9,8-2.8c2.6-1,3.6-3.1,3.7-5.7
	c0.1-2.3,0.1-4.5-0.1-6.8c-0.1-0.7-0.7-1.4-1.2-1.9c-0.1-0.1-1.1,0.5-1.5,0.9C417.5,21.1,415.4,26.6,413.1,33.2z M471.1,6.5
	c-0.6,3.9-1.2,6.9-1.6,9.9c-0.2,1.7-0.1,3.5,0,5.3c0.1,1.7,1.2,2.8,2.8,2.5c2.9-0.6,5.8-1.5,8.7-2.4c0.6-0.2,1-1.2,1.6-1.8
	c-0.7-0.6-1.3-1.4-2.1-1.7c-0.9-0.4-2.5,0-3-0.6C475.2,14.3,471.6,11.8,471.1,6.5z M735.7,20.8c-0.8-0.3-1.5-0.7-2.3-0.8
	c-2.4-0.3-4.6-1.2-6.8-2.3c-4.2-2.1-8.6-3.5-13.1-0.7C719.6,24.3,727,25.6,735.7,20.8z M641,22.5c-0.3,0.2-0.9,0.4-1.1,0.7
	c-0.2,0.3-0.1,0.9,0,1.3c0.8,1.8,2.4,2.4,4.3,2.5c4.2,0.3,7.7,2.1,10.5,5.3c1.2,1.3,2.4,2.6,3.8,3.7c0.5,0.4,1.6,0.7,2.1,0.4
	c0.5-0.3,0.9-1.5,0.7-2c-0.9-2.4-1.9-4.7-3.2-6.9c-0.4-0.7-1.5-1.2-2.4-1.3c-4.7-0.7-9.6-0.8-13.8-3.5
	C641.8,22.6,641.4,22.6,641,22.5z M143.4,17.8c0.7,2.2,1.1,3.9,1.7,5.5c0.6,1.6,1.7,1.9,2.8,0.6c1.5-1.9,2.3-4.2,3.7-6.1
	c2.2-2.8,0.9-5.1-0.5-7.4c-1.2-2-3-2.3-4.2-0.4C145.3,12.4,144.4,15.3,143.4,17.8z M329,31c-0.6-1.4-0.9-2.5-1.5-3.4
	c-2.7-4.4-7.7-5.5-11.8-7.8c-0.3-0.2-1.4,0.9-1.9,1.6c-0.4,0.5-0.9,1.7-0.6,1.9c1.7,1.9,3.3,4.1,5.4,5.3c2.6,1.5,5.6,2.3,8.5,3.2
	C327.5,32,328.2,31.4,329,31z M615.8,36.2c0.9-5.5,0.2-10.6-4.2-14.7c-0.5-0.5-1.4-0.9-2-0.8c-4.6,0.8-5.6,3.5-2.8,7.2
	c0.5,0.6,1.1,1.1,1.7,1.7C610.8,31.7,613.1,33.8,615.8,36.2z M658.1,9.4c-3.3-3.9-7.6-3.9-12-3.5c-2.9,0.2-3.3,1.3-1.7,3.6
	c0.5,0.8,1.2,1.5,1.8,2.2c1.1,1.4,0.7,2.4-1.2,2.2c-2-0.2-2.5,0.8-3.8,2.6c3-0.4,5.7,1,7.6-2.2c0.5-0.8,1.9-1.2,2.9-1.7
	C653.8,11.5,656,10.5,658.1,9.4z M13.5,13.7c5,3.1,9.3,6,14.8,3.7c0.3-0.1,0.6,0,1,0c1.3,0.1,3,0,3.2-1.4c0.1-0.9-1.1-2-2-2.9
	c-0.5-0.5-1.5-0.6-2.2-0.9C23.3,10,18.7,11.3,13.5,13.7z M315.8,34.1c0.1-6.8-4.9-9.3-8.4-12.9c-0.1-0.1-0.7,0.1-1,0.2
	c-0.7,0.3-1.4,0.7-2.1,0.8c-3.6,0.8-3.9,1.6-1.4,4.5c0.7,0.8,1.6,1.7,2.6,2.2C308.7,30.7,312,32.3,315.8,34.1z M400.6,20.1
	c-0.6-0.7-1.3-1.4-1.7-2.3c-1-2.3-2.5-2.4-4.7-1.6c-2.2,0.8-4.7,1-7,1.4c-2.2,0.5-4.5,1-6.7,1.5c3,1.1,4.9,5.4,8.8,2.8
	c0.2-0.1,0.9,0.2,1.2,0.5c1.3,1.2,2.6,0.7,4,0.1C396.5,21.5,398.6,20.8,400.6,20.1z M325.3,16c-4.1-0.9-5.7-3.4-6.6-6.8
	c-0.4-1.8-1.6-3.3-2.5-5c-1.3,1.4-2.6,2.7-3.8,4.1c-1.3,1.6-0.3,5.6,1.7,6c2,0.4,3.5,0.6,2.5,3.2c-0.1,0.1,0.6,0.8,0.9,0.8
	C320,18.4,322.7,19,325.3,16z M108.4,25.6c-1.6,0.9-2.8,1.6-4.1,2.3c-4.8,2.8-6.7,7.4-5.2,12.7c0.1,0.3,1.2,0.7,1.4,0.6
	C105.2,37.2,109.8,33.1,108.4,25.6z M182.4,50.7c2.8,0.3,3.3-2.8,5.2-3.1c2.4-0.3,4-2,5.9-3.1c0.1-0.1,0.2-0.3,0.3-0.4
	c2.2-2.7,2.1-3.6-0.7-5.7c-1.3-1-2.7-1.7-4-2.6c-1.2-0.8-1.8-0.3-2.1,0.9c-0.3,1.2-0.7,2.5-0.6,3.8c0.2,2.6-0.7,4.7-1.9,6.9
	C183.8,48.4,183.1,49.4,182.4,50.7z M284.6,19.6c-6.5-0.3-10.8-2.3-13.7-7c-1-1.6-2.5-2.5-4.5-1.6c1,2.7,2.5,5.3,2.8,8
	c0.4,3,2.2,3.8,4.4,4c1.7,0.2,3.5-0.1,5.2-0.6C280.5,21.9,282,20.9,284.6,19.6z M471.7,41.4c0.8-0.4,1.8-0.6,2.5-1.2
	c1.4-1.3,2.8-2.7,3.9-4.3c2.3-3.1,2.2-6.5-0.3-9.3c-0.4-0.4-1.3-0.6-2-0.6c-0.7,0.1-1.9,0.4-2.1,0.9c-0.7,2.2-1.9,4.8-1.3,6.8
	c0.5,1.6,0.4,2.2-0.5,3.1c-0.6,0.6-1.2,1.1-1.7,1.7c-0.3,0.4-0.5,1.2-0.3,1.6C470.3,40.7,471,40.9,471.7,41.4z M668.7,24.6
	c0.1,0.3,0.1,0.6,0.2,1c3.2,0.7,6.7,0.7,9.5,2.1c2.9,1.5,5.1,0.4,7.6-0.3c0.8-0.2,1.5-1.1,2.2-1.6c-0.7-0.5-1.3-1.2-2.1-1.5
	c-2-0.9-4.1-1.7-6.2-2.4c-2.2-0.8-4.4-0.7-6.5,0.4C671.9,23.1,670.3,23.8,668.7,24.6z M161.1,32.1c0.1-0.1,0.3-0.1,0.4-0.2
	c-0.7-2.2-1.1-4.6-2.1-6.7c-2-4.3-3.2-4.3-6.2-0.5c-1.9,2.4-1.7,3.9,0.3,6.1c1.7,1.9,3.3,3.9,5,5.8c0.3,0.3,0.8,0.7,1.1,0.6
	c0.4-0.1,0.9-0.6,0.9-0.9C160.9,34.9,161,33.5,161.1,32.1z M437.6,7.1c-5.2,2.1-9.8,3.3-13.6-1.4c-0.2-0.2-1.2,0-1.6,0.3
	c-1.1,0.8-1.6,1.9-1.1,3.4c1.1,3,3.2,4.8,6.4,5.1C432.2,15,435.6,12.6,437.6,7.1z M130.4,28.4c-2.9,5.1-6.7,7.5-10.3,10.2
	c-0.9,0.7-1.6,1.8-2.3,2.6c2.9,1.9,5.4,1.3,7.9-0.3c1.9-1.2,3.9-2.2,5.8-3.5c0.6-0.4,1.2-1.4,1-1.9
	C132.1,33.5,131.4,31.6,130.4,28.4z M162.6,68.6c0.4,1.1,0.8,2.4,1.4,3.7c1.1,2.7,2.3,3.4,5.2,3.3c3.4-0.1,7.6-3.7,8.2-7.1
	c0.1-0.7-0.3-1.5-0.5-2.2c-0.6,0.2-1.2,0.3-1.7,0.6c-1.8,1.1-3.5,2.3-5.3,3.3c-0.7,0.4-1.7,0.1-2.6,0.2c0.1-0.7,0.2-1.5,0.4-2.2
	c0.3-0.8,0.7-1.7,1.2-2.7C166.5,66.7,164.6,67.6,162.6,68.6z M704.6,18.8c1,0.6,2,0.8,2.3,1.4c1.8,3.5,4.7,4.9,8.5,5.1
	c2.7,0.2,2.9,0.8,1.6,3.3c-0.1,0.3-0.6,0.5-0.6,0.8c0,0.5,0.1,1.3,0.4,1.5c2.7,1.7,6.1,1.4,8.7-0.3c-3.5-2.8-7.4-5.4-10.5-8.8
	C712.1,18.6,708.9,18,704.6,18.8z M122.9,62.5c0.2-3.4,0.5-6.1-0.1-8.7c-0.3-1.2-0.8-2.7-2.5-1c-0.4,0.3-1.4,0.1-2-0.1
	c-0.2-0.1-0.2-1.1-0.1-1.7c0.3-1.2,0.9-2.4,1.1-3.7c0.2-1.3,0.1-2.8-1.4-3.2c-1.7-0.5-2.1,1.1-2.6,2.2c-0.3,0.5-0.4,1.2-0.4,1.8
	c0.2,2.2,0.4,4.4,0.7,6.6c0.1,0.9,0.2,2.1,0.8,2.6C118.2,59,120.3,60.5,122.9,62.5z M664.1,27c2.8,2.5,4.9,4,6.5,6
	c2.4,2.9,5.7,3.5,9,3.8c1.3,0.1,3.2,0.8,3.7-1c0.2-0.5-1.6-1.6-2.5-2.5c-0.4-0.3-0.7-0.6-1.1-1C675.8,28.3,670.5,27.8,664.1,27z
	 M478.6,9.7c2.3,0.8,4.3,1.1,6,2.1c1.5,0.9,2.3,0.5,3.3-0.5c0.5-0.6,1.1-1.2,1.7-1.7c1.1-1,1.4-2,0.5-3.3c-0.5-0.8-0.8-1.7-1.3-2.6
	c-0.7-1.3-1.5-1.4-3.1-1.2C481.2,3.1,479.1,5.7,478.6,9.7z M197.3,25.6c1.8-0.5,3.4-1.2,5.1-1.3c3.6-0.1,5.8-2.3,8.2-4.5
	c0.6-0.6,0.6-1.2-0.3-1.3c-2.8-0.4-5.7-1-8.5-0.9c-5.6,0.2-6.9,1.7-4.8,6.7C197,24.7,197.1,25.2,197.3,25.6z M284.7,22.8
	c1.3,0.4,2.7,0.9,4,1.2c1.1,0.2,2.2,0.2,3.3,0c1.5-0.3,1.9-1.6,0.7-2.7c-2.2-1.9-3.1-4.3-3.8-7c-0.3-1.2-0.6-2.8-1.4-3.4
	c-1.1-0.9-2.8-1.1-4.2-1.5c-0.3,1-0.7,2-0.9,3.1c-0.1,0.8-0.2,1.7,0.1,2.4c0.2,0.6,0.8,1.4,1.4,1.5c5,1.5,5,1.5,1.3,5.5
	C285,22.1,284.9,22.5,284.7,22.8z M275.4,54c-3.5,3.9-3.7,7.5-3.9,11.4c-0.2,3.9,3.1,5.2,4.5,8c2.6-4,2.9-5.2,1.6-8.8
	C276.6,61.5,274.7,58.5,275.4,54z M508.8,34c0.8-0.2,2.2-0.5,3.5-1.1c2.6-1.3,2.7-1.9,1.9-5c-0.5-1.8-0.7-3.7-1.1-5.6
	c-0.3-1.5-0.6-3-0.8-4.5c-1.4,0.8-2.7,1.6-4.1,2.3c-0.1,0.1-0.2,0.2-0.4,0.3c-2.2,2.1-1.8,3.8,1.2,4.8c1,0.3,1.8,1,2.8,1.5
	c-0.5,1-0.9,2.1-1.7,2.8c-1.2,1.1-2.7,1.8-4,2.7c-0.2,0.2-0.5,0.6-0.4,0.8c0.2,0.3,0.6,0.7,1,0.8C507.1,34,507.7,33.9,508.8,34z
	 M128.4,22.5c4.1,5.7,5.3,6,11,3.7c3.5-1.4,3.4-1.5,2.5-5.4c-0.3-1.2-0.4-2.5-0.6-4.3C137.5,20.1,133.7,22.9,128.4,22.5z M68.4,41.9
	c2.7-1.2,5-2.3,7.3-3.1c2.4-0.8,3.3-2.8,4.3-4.8c0.8-1.6,0.2-2.7-0.9-3.8C77.8,29,76.7,29,75.2,30c-2,1.3-3.4,2.7-4,5
	C70.6,37.1,69.5,39.1,68.4,41.9z M728.5,6.7c-4.1-2.3-7.7-2.2-11.1-0.5c-4.3,2.1-8.4,4.6-13.6,7.4C713.1,12.8,720.7,10.3,728.5,6.7z
	 M456.1,25.7c-3.9-2.8-7.3-5.2-11.6-5.2c-3.9,0-4.9,1.7-3.2,5.1c0.3,0.7,1.3,1.4,2,1.5c2.9,0.2,5.8,0.2,8.6,0
	C453.2,27,454.4,26.3,456.1,25.7z M567,5.4c-1.4,2.7-1.5,2.7-1.5,5.3c0.1,4-0.5,7.8-2.6,11.6C572.4,19.1,573.9,12,567,5.4z
	 M213.6,20.4c2.1,5.4,3.5,10.5,6.1,15.2c3-3.1,4.3-5.3,3.2-7.2c-1.6-2.8-2.8-6.1-6-7.6C216.1,20.4,215.1,20.6,213.6,20.4z
	 M401.7,34.6c4.1-2,8-8.1,7.5-11.7c-0.1-0.6-0.9-1.4-1.5-1.4c-1.1-0.1-2.2,0.2-3.3,0.4c-1.9,0.4-3,1.2-2.8,3.6
	C401.9,28.3,401.7,31.2,401.7,34.6z M623,22.5c-1.5-2.7-2.3-4.6-3.4-6.3c-2.5-3.7-3.1-3.8-7.4-2.6c-2.1,0.6-2.3,1-1.5,2.9
	C612.9,21.4,617.4,21.7,623,22.5z M470,51.1c2.3-0.3,4.5-0.5,6.7-1c0.8-0.2,1.6-0.8,0.4-1.6c-2.6-1.9-5.2-3.7-7.8-5.5
	c-0.6-0.4-1.7-1-2-0.8c-1,0.7-2.4,1.9-2.4,2.7c0.1,1.8,0.9,3.8,1.9,5.3C467.3,50.9,469,50.8,470,51.1z M354,4.8
	c0-0.6,0.1-1.4-0.2-1.9c-0.3-0.6-1-1.1-1.5-1.7c-0.4,0.4-1,0.8-1.1,1.3c-1.1,3.6-3.8,5.8-6.6,8.1c-0.9,0.7-1.9,1.3-2.6,2.1
	c-0.2,0.3,0.1,1.5,0.5,1.8c0.5,0.4,1.5,0.5,2.1,0.2c1.5-0.6,2.8-1.5,4.3-2.1C352.9,11.3,353.8,8.3,354,4.8z M482.1,12.7
	c-0.5,0.3-1.1,0.5-1.3,0.9c-0.2,0.5-0.4,1.4-0.2,1.7c0.6,0.7,1.5,1.2,2.3,1.7c2.6,1.7,2.8,3,0.7,5.3c-0.5,0.6-1.2,1.1-1.7,1.7
	c-0.7,0.7-1.5,1.4-2.2,2.1c1.1,0.7,2.1,1.9,3.2,1.9c2,0,4.1-0.5,5.9-1.4c1.3-0.6,1.2-2,0.4-3.3c-1.1-1.7-2-3.5-3.1-5.3
	c-0.8-1.4-1.6-2.8-2.5-4.1C483.3,13.3,482.7,13,482.1,12.7z M543.9,18.4c-0.4-1-0.6-1.5-0.8-1.9c-1-2-2-4.1-3-6.1
	c-2.5-4.8-3.4-5.2-9-3.9c1.3,2.1,3.4,2.7,5.6,3.4c0.7,0.2,1.5,1.4,1.5,2.1c0,0.8-0.8,1.8-1.5,2.2c-1.2,0.7-2.6,1-5,2
	C536.3,17.6,539.8,18.3,543.9,18.4z M427.5,36.4c4.4-1.3,2.8-7.1,6.1-8.6c-1.7-2.4-3.3-4.7-4.9-7c-0.3-0.4-0.6-0.7-0.8-1
	c-0.3,0.5-0.9,1-0.8,1.4c0.5,3,0.6,6-1.3,8.6c-0.2,0.3-0.3,0.9-0.2,1.3C426.1,32.8,426.8,34.5,427.5,36.4z M621.7,28.5
	c0,4.1,0,4.4,2.5,5.6c3.5,1.5,7.2,2.7,10.8,4c0.3,0.1,1-0.1,1.1-0.3c0.1-0.4,0.1-1-0.1-1.4c-0.8-1.4-2.5-2.6-2.5-4
	c0-2.8-1.6-3.8-3.8-4.9c-0.7,1.8-1.4,3.4-2,5c-0.6,1.5-1.6,1.5-2.6,0.4C624,31.6,622.9,30,621.7,28.5z M587.4,22
	c0.5-0.4,1-0.8,1.5-1.2c0.5-0.4,1-0.8,1.5-1.2c3.6-2.7,3.6-2.9,0.7-6.2c-0.7-0.8-1.2-1.9-1.8-2.8c-0.6-1-1-2-1.6-2.9
	c-0.2-0.2-0.8-0.3-1.2-0.2c-0.2,0-0.5,0.6-0.4,0.8c1.5,2.5,0,4.4-0.9,6.6C584.2,17.3,585.9,19.6,587.4,22z M304.4,31.5
	c-1.6-1.7-3-3-4.2-4.5c-2.1-2.7-2.1-2.7-5.2-1.4c-4.4,1.9-4.9,3.6-2.2,7.8c0.9-0.9,1.8-1.9,2.8-2.6c0.5-0.3,1.8-0.4,2-0.1
	C299.4,33.4,301.6,32.7,304.4,31.5z M194.2,24.2c-1.7,1.8-3.1,3.3-4.5,4.8c-1.7,1.9-1.8,3.1,0.3,4.7c1.9,1.5,3.9,2.6,6,4
	C197.1,33.6,196.7,30.8,194.2,24.2z M125.9,17c0.5-1.3,1-2.6,1.4-3.9c0.9-3.1-1.3-6.8-4.5-7.5c-0.4-0.1-1.2-0.3-1.3-0.2
	c-1,1.6-2.1,3.2-2.7,4.9c-0.2,0.5,1.1,1.6,1.9,2.3C122.3,14.2,124,15.5,125.9,17z M74.9,10.6c1.3-0.1,2.4,0.1,3.1-0.3
	c2.8-1.5,5.5-3.2,8.1-5c1.1-0.8,2.7-2,1.8-3.4c-0.6-0.8-2.5-0.7-3.9-0.8c-0.7,0-1.4,0.6-2.1,0.9C78.4,3.7,76.6,6.8,74.9,10.6z
	 M220.7,16.5c-4-1.6-6.7-5.7-11.3-5.1c-0.6,0.1-1.2-0.9-1.9-1.4c-0.6-0.4-1.3-1-2-1.2c-0.9-0.2-1.6,0.2-1.3,1.3
	c1.3,5,3.5,6.4,8.3,5.2c0.3-0.1,0.7-0.4,0.9-0.3c0.6,0.3,1.8,0.8,1.8,1c-0.6,2.8,1,2.5,2.7,2C218.8,17.7,219.7,17.1,220.7,16.5z
	 M713,28c-2.7-1.7-5.2-3.8-8-5.1c-3.1-1.4-6,1.9-9.2,1.5c-0.2,0-0.5,0.3-0.9,0.6c2.8,2.1,5.9,3.3,9.2,4c1.1,0.2,2.8,0.4,3.3-0.1
	C709.1,26.7,711.2,28.6,713,28z M623,9.9c1.8,1.2,3.4,2,4.6,3.2c3.1,2.9,6.9,2.3,10.6,2.2c0.9,0,1.8-1.3,2.9-2.2
	c-2.9-0.9-5.3-1.3-7.4-2.4c-2.7-1.4-5.2-2.3-8.1-1C624.9,10,624.1,9.8,623,9.9z M174.2,49.2c-1.6,2-2.7,3.1-3.5,4.5
	c-0.5,0.9-0.8,2.1-0.6,3.1c0.5,2.9,1.3,5.8,2,9.1C177.3,60.9,175.6,55.5,174.2,49.2z M209.4,37.8c6.7-5,6.9-7.3,1.2-15
	C207.5,27.5,208.7,32.5,209.4,37.8z M172.6,28.4c2.3-0.4,3.8-0.5,5.2-1.1c5.5-2.2,6-3.3,4.5-8.9c-0.2-0.6-0.5-1.1-0.8-1.6
	c-0.7,0.4-1.6,0.6-1.9,1.1C177.4,21.1,175.3,24.4,172.6,28.4z M535,12.3c-2.7-1.9-5.5-3.5-7.8-5.6c-1.7-1.6-3.5-2.1-5.7-1.8
	c-1.1,0.1-2.1,0.4-3.2,0.6c0.8,0.6,1.6,1.2,2.4,1.8c1.8,1.4,3.5,2.7,5.3,4.1c1.9,1.6,3.9,2.8,6.5,1.4C533.2,12.4,534,12.5,535,12.3z
	 M641.3,18.6c1.4,1.9,2.5,3.3,4.5,3.8c4.6,1.1,9.3,1.5,14.7,1.9c-2.9-1.8-5.1-3.4-7.5-4.6C649.5,17.9,645.6,18.5,641.3,18.6z
	 M218.2,12.1c2.3,0.7,3.2,0.3,4.2-0.8c2-2,4.6-2.1,7.1-0.8c1,0.5,2,1,3,1.5c3.5,1.7,3.7,1.7,6.5-1.9c-3.6-0.9-7.2-1.5-10.7-2.6
	c-2.3-0.7-4-0.5-5.7,1.1C221.3,9.7,219.9,10.7,218.2,12.1z M99.6,59.6c-1.7,0.9-3.1,1.7-4.5,2.5c-2.3,1.4-2.4,2-1.2,4.2
	c1.3,2.2,2.6,4.5,3.9,6.8C101.3,69.1,100.3,64.5,99.6,59.6z M166.3,41.9c-1.8,3.6-3.5,7-5,10.5c-0.3,0.7,0.1,1.9,0.6,2.6
	c0.2,0.3,1.5,0,2.2-0.3C168.7,52.5,169.7,47.5,166.3,41.9z M595.6,11.7c-0.2,2.1-0.3,4.1-0.7,6.1c-0.3,1.5,0.4,2.3,1.6,2.4
	c2.7,0.3,5.5,1.1,8.2-0.4C602.5,16.2,600.3,12.4,595.6,11.7z M758.3,27.2c-0.4,0.1-1.4,0.1-2.3,0.3c-2.5,0.7-2.9,2.4-1.1,4.2
	c2.3,2.3,5.5,2.3,8.4,2.9c0.2,0,0.8-0.6,0.9-0.9C764.7,30.6,761.9,27.3,758.3,27.2z M619.2,11.8c0.4,0.7,0.6,1.1,0.8,1.5
	c0.4,0.5,1,0.9,1.3,1.4c2.8,5.6,7.4,7.6,13.4,6.6c0.3-0.1,0.6-0.2,1.2-0.4c-3.8-1.4-7-3.3-9.7-6C624.5,13.1,622.2,11.8,619.2,11.8z
	 M225.6,41.8c1.2-0.8,2.2-1.4,3.1-2c3.5-2.4,4.2-7.3,1.6-10.7c-0.9-1.1-1.8-1-2.5,0.4c-0.3,0.6-0.6,1.2-0.7,1.8
	C226.6,34.7,226.2,38.1,225.6,41.8z M152.4,22.2c9-7.5,9.7-8.4,11.1-14.8C158.1,9.9,153.9,15.3,152.4,22.2z M467,27.3
	c-1.9,1.6-3.7,2.9-5.3,4.4c-0.5,0.5-1,2-0.6,2.5c1.1,1.5,2.6,2.7,3.9,4.1c0.9-1.2,1.8-2.4,2.6-3.7C468.9,32.3,468.7,30.1,467,27.3z
	 M117.2,22.3c0.5,3.7,0.8,6.7,1.2,9.6c0.2,1.1,0.6,2.2,1,3.2c0.1,0.3,0.8,0.6,1.2,0.5c2.1-0.5,3.8-3.7,2.9-5.6
	C122.3,27.1,120.7,24.6,117.2,22.3z M98.9,28.3c-0.2,0.1-0.4,0.1-0.5,0.2c-0.4,0.3-0.7,0.6-1,1c-2,3.1-4.5,5.3-8.4,5.5
	c-1.5,0.1-1.7,1-0.8,2.4c0.9,1.4,7.2,2.1,8.3,0.9c0.3-0.3,0.4-0.8,0.5-1.3C97.6,34.1,98.2,31.3,98.9,28.3z M276.6,34.2
	c-0.3,5.7,1.4,10.1,5,14.4c1.7-8.3,1.7-8.3-3.7-13.6C277.7,34.8,277.4,34.7,276.6,34.2z M750.5,20.8c-2.1-0.4-4-0.5-5.8-1.1
	c-2.3-0.7-4.1-1.1-5.3,1.6c-0.5,1.2-2.9,2.4-2.7,2.8c1,2,3.1,0.7,4.7,1c0.6,0.1,1.3,0.1,1.9,0c0.4-0.1,1.1-0.5,1.1-0.6
	c-0.6-2.6,0.6-2.2,2.3-1.5C748.5,23.7,749.4,22.3,750.5,20.8z M610.6,11.2c-3.5-1.5-6.7-3-9.9-4.3c-1.3-0.5-2.7-0.8-4.1-0.8
	c-0.5,0-1.2,0.9-1.6,1.5c-0.1,0.2,0.6,1.1,1.1,1.3c1.9,0.8,4.2,1,5.7,2.2C604.7,13.3,607.4,12.5,610.6,11.2z M459.4,19
	c-1.9-0.8-3.6-1.8-5.5-2.3c-1.8-0.5-3.7-0.6-5.6-1c-2.8-0.6-5.4,0.3-7.9,1.5c-0.4,0.2-0.5,1-0.7,1.6c0.4,0.2,0.9,0.5,1.3,0.4
	c0.6-0.1,1.3-0.3,1.8-0.6c2-1.3,3.8-0.7,5.9,0c2.8,0.9,5.9,1,8.9,1.4C458.1,20,458.7,19.3,459.4,19z M438,25.1
	c-0.8-2.8-1.4-5.3-2.1-7.7c-0.3-1.1-0.9-2.1-2.5-1.4c-0.8,0.4-1.9,0.4-2.8,0.7c-0.3,0.1-0.7,0.7-0.7,1.1
	C430.1,21.3,433.6,24.6,438,25.1z M293.9,7.4c-2.1,4.4-4.1,7.9-0.9,11.2c2.4,2.4,5.7,2.7,9,1.5C297.6,17.2,293.3,14.7,293.9,7.4z
	 M11.1,24.8c5.4,2.8,5.6,3,9.2,0.9c2.9-1.7,5.6-3.7,8.6-5.7c-2.5-1.1-4.6-0.1-6.1,0.9C19.5,23,15.9,24.2,11.1,24.8z M176.6,44.5
	C176.6,44.5,176.6,44.5,176.6,44.5c0,1.1-0.1,2.3,0.2,3.3c0.2,0.8,0.8,2,1.5,2.2c0.6,0.2,1.7-0.7,2.3-1.3c3.6-3.7,3.2-5.2-1.8-7.3
	c-1.4-0.6-2.1-0.4-2.2,1.2C176.6,43.3,176.6,43.9,176.6,44.5z M185.3,23.6c0.3,0,0.6,0.1,0.9,0.1c0.7-2.8,1-5.6,2.1-8.2
	c0.9-2.2,0-3.4-1.4-4.5c-0.6-0.5-1.4-0.6-2.1-0.9c-0.2,0.6-0.5,1.2-0.5,1.8C184.6,15.8,185,19.7,185.3,23.6z M78.9,45.2
	c1.9-1.5,3.5-2.7,5.2-3.9c2.3-1.7,2.4-4.9,0.2-6.8c-0.8-0.7-1.6-0.3-1.7,0.7c-0.1,1.8-0.9,3-2.1,4.1C78.7,40.8,78.2,42.7,78.9,45.2z
	 M631.1,23.4c0.2,3.3,2.6,3.9,4.7,5c2.1,1.1,4.3,2.2,6.9,2.1c-2.1-2-4.6-3.5-5.7-6.3c-0.2-0.4-1-0.7-1.6-0.7
	C634,23.3,632.6,23.4,631.1,23.4z M184.2,27.1c-2.9,0.7-4.3,2.2-3.9,5.1c0.2,1.1-0.5,2.5-0.9,3.6c-1,2.6-1,2.6,1.4,4
	c0.9,0.5,1.9,0.9,3.6,1.6c-0.7-1.9,1.1-4.1-2-4.3c-0.2,0-0.6-0.5-0.6-0.7c1.1-2.5-1.5-5.7,1.4-8C183.7,28.3,183.9,27.6,184.2,27.1z
	 M305.2,17.5c-1.6-1.3-3.1-2.6-4.7-4c-0.5-0.5-1.4-1.2-1.3-1.7c0.6-2.7-2-3.6-2.8-6.4C295.4,12.8,297.8,16.1,305.2,17.5z M272.7,9.9
	c-0.2-1.8,0.2-4.3-0.8-5.4c-1.4-1.6-3.1,0.8-4.7,1.1c-0.8,0.2-1.6,0.2-2.4,0.4c-0.3,0.1-0.6,0.4-0.6,0.6c0.1,0.4,0.2,1,0.5,1.2
	c0.7,0.4,1.5,0.5,2.2,0.7C268.7,9,270.5,9.4,272.7,9.9z M761.2,20.4c0-0.3,0.2-0.7,0-0.9c-2.8-3-2.6-8.2-7.6-9.6
	c-0.6-0.2-0.9-1.3-1.3-1.9c-0.5-0.6-1.1-1.2-1.7-1.7c-0.2-0.1-0.7-0.1-0.8,0c-0.3,0.3-0.6,0.9-0.5,1.2c0.3,0.7,0.8,1.4,1.3,1.9
	C754.2,13.2,757.7,16.8,761.2,20.4z M733.9,10.3c1.2,0.9,2.6,1.9,4,2.8c0.8-1.3,1.5-2.7,2.3-4c0.2-0.3,0.5-0.5,0.5-0.8
	c0.1-0.9,1.7-1.8-0.1-2.7c-1.1-0.6-2-0.8-2.9,0.3C736.5,7.4,735.2,8.8,733.9,10.3z M441.6,14.5c2.3-0.3,5.5-4.1,5.3-5.9
	c-0.1-1-1.6-1.9-2.5-1.6c-1.3,0.4-4.2,4.7-3.9,6C440.6,13.6,441.3,14.1,441.6,14.5z M601.9,41.6c4.2-1.4,6.2-4,8-6.6
	c0.3-0.4-0.3-1.8-0.9-2.4c-0.9-0.9-1.8-0.2-2.3,0.7C605.2,35.8,603.8,38.3,601.9,41.6z M500.1,17.8c1.2,1.4,2.5,2.8,3.3,3.8
	c1.8-1.6,3.6-3.1,5.7-5C505.7,16.6,502.7,15.9,500.1,17.8z M702.4,19c-3.3-2.6-5.4-6.3-10.7-4.9C694.7,17.1,697.1,20.3,702.4,19z
	 M517.6,25.5c1.3-0.4,2.2-0.7,3-1c-0.3-1-0.5-2.1-1-2.9c-0.5-0.8-1.3-1.4-2.1-1.8c-0.4-0.2-1.7-0.1-1.7,0.1
	c-0.3,1.3-0.7,2.8-0.4,4.1C515.5,24.6,516.9,25,517.6,25.5z M739.7,18.5c-2.3-2.3-3.8-3.9-5.4-5.4c-0.9-0.8-1.8-0.3-2.4,0.6
	c-1,1.7-0.3,3.6,1.6,4.1C735.1,18.3,736.8,18.3,739.7,18.5z M200.1,8.1c-0.3,0.1-0.7,0.2-1,0.3c-0.1,1.4-0.2,2.9-0.4,4.3
	c-0.4,2.8-0.5,2.8,2.4,2.7c0.8,0,1.5-0.2,2.8-0.5C202.5,12.5,201.3,10.3,200.1,8.1z M274.5,13.6c1.2,0.9,2.1,1.7,3,2.3
	c1.7,1,2.6,0.5,2.8-1.6c0-0.6,0.1-1.3,0-1.9c-0.1-0.8-0.3-1.5-0.5-2.3c-0.8,0.4-1.7,0.7-2.4,1.2C276.4,11.9,275.6,12.7,274.5,13.6z
	 M410.1,13.2c2.8,1.3,5.7,1.2,8.5-0.4c1-0.6,1.3-1.2,0.8-2.3c-0.5-1.1-1-1.4-2.2-0.8C414.9,10.9,412.4,12.1,410.1,13.2z M68.1,10.7
	c-5.1,0.1-8.2,1.7-11,6.2C61.2,15,64.9,14.4,68.1,10.7z M350.8,27.9c1.8-1.1,3.4-2,5-3.1c0.5-0.3,0.5-1.3,0.7-2
	c-0.8-0.1-1.6-0.6-2.2-0.4c-1.5,0.6-2.8,1.5-4.1,2.3c-0.5,0.3-1.2,1.2-1.1,1.5C349.4,26.9,350.1,27.3,350.8,27.9z M96,8.6
	c-2-1.2-3.3-2-4.6-2.9c-1.2-0.9-2.2-1.1-3.2,0.2c-0.7,0.9-1.5,1.6-2.7,2.7C89.2,8.6,92.2,8.6,96,8.6z M57.6,2.3
	c0.2,1.5,0.4,2.9,0.5,4.3c0,0.9-0.2,1.8-0.3,2.7c1.1,0.1,2.2,0.4,3.3,0.2c0.8-0.1,1.6-0.7,2.1-1C61.3,6.4,59.5,4.4,57.6,2.3z
	 M77.5,529.4c-0.2,0-0.4,0-0.7,0c-0.4,2.3-0.8,4.7-1.2,7c-0.2,0.9-1.1,2,0.3,2.3c0.6,0.1,1.7-0.8,2.1-1.5c0.4-0.7,0.6-1.8,0.5-2.7
	C78.3,532.8,77.8,531.1,77.5,529.4z M130.7,14.2c-0.9,1.7-1.3,2.4-1.6,3.1c-0.3,0.8-0.4,1.7-0.6,2.6c0.9,0.1,1.9,0.4,2.8,0.3
	c2.2-0.2,2.7-1.5,1.4-3.2C132.3,16.2,131.7,15.4,130.7,14.2z M81.9,25c3.3-0.6,5.8-1.9,8-4.2C85.9,19.9,83.1,20.6,81.9,25z
	 M101.1,43.9c3.4,1.8,3.5,1.9,4.8-0.9c0.6-1.2,0.9-2.6,1.3-3.9c-0.3-0.2-0.5-0.3-0.8-0.5C104.7,40.4,103,42.1,101.1,43.9z
	 M458.4,9.1c-1.1,1.7-2,3-2.7,4.4c-0.2,0.4-0.3,1.5-0.1,1.6c0.8,0.4,2.1,0.9,2.4,0.5c0.8-0.8,1.5-2,1.5-3.1
	C459.6,11.5,458.8,10.4,458.4,9.1z M671.4,19.3c-3.1,0.5-6.1,0.9-9.4,1.4C665.5,22.5,668.7,23.1,671.4,19.3z M468.1,11
	c-2.4,2-4.7,3.8-7.2,5.9C465.3,17.3,466.6,16.2,468.1,11z M150.4,26.3c-3.8,2.1-4.3,3.2-3.7,6.4c0.1,0.4,0.5,0.9,0.8,0.9
	c0.4,0,0.8-0.4,1-0.8C149,30.9,149.6,28.9,150.4,26.3z M625.9,29.7c0.8-1.4,1.6-2.5,2.1-3.7c0.2-0.4-0.2-1.5-0.3-1.5
	c-1,0.1-2.4-0.1-3,0.5c-0.6,0.5-0.6,1.9-0.4,2.9C624.4,28.6,625.3,29.1,625.9,29.7z M441.3,7.3c0.6-0.9,1.1-1.7,1.6-2.5
	c0.2-0.3,0.6-0.5,0.6-0.7c-0.1-0.9-0.4-1.7-0.6-2.6c-0.7,0.2-1.5,0.1-2,0.5C439.3,3.4,439.4,3.5,441.3,7.3z M460.6,7
	c-0.3,0.3-0.7,0.6-1,0.9c0.6,1.3,1.1,2.6,1.9,3.7c0.2,0.3,1.4,0.1,2-0.1c0.2-0.1,0.4-1.2,0.2-1.4C462.8,9,461.6,8,460.6,7z
	 M290.9,38.6c2.7,0.3,4.3-0.6,5.5-2.1c0.3-0.4,0.2-1.3,0-1.7c-0.1-0.2-1.2-0.3-1.5-0.1C293.6,35.7,292.5,37,290.9,38.6z M184,58.2
	c0.5-0.9,1-1.4,1.1-2c0.2-1.1,0.3-2.3,0.5-3.5c-1,0.3-2.1,0.5-3.1,0.8c-0.2,0.1-0.3,0.4-0.5,0.7C182.5,55.4,183.1,56.6,184,58.2z
	 M101.7,16.6c0.6-0.5,1.3-0.8,1.5-1.3c0.1-0.4-0.5-1-0.9-1.4c-0.3-0.3-0.8-0.6-1.3-0.6c-0.6-0.1-1.1,0-1.7,0
	c0.1,0.7-0.1,1.7,0.3,2.2C100,16,100.9,16.2,101.7,16.6z M240.9,12.7c-1,1-1.8,1.8-2.7,2.7c0.7,0.6,1.4,1.2,2.1,1.8
	c0.6-1,1.3-1.9,1.8-3C242.3,14,241.5,13.4,240.9,12.7z M226.7,26.5c0-1.6-1.4-3.5-2.9-3.8c-0.2,0-0.7,0.1-0.8,0.3
	c-0.2,0.3-0.3,0.9-0.2,1.2c0.7,1,1.5,2,2.3,2.9c0.2,0.2,0.7,0.2,1.1,0.1C226.5,27.2,226.6,26.8,226.7,26.5z M605.6,14.6
	c-0.2,0.1-0.6,0.4-1,0.6c0.9,1,1.7,2,2.6,3c0.2,0.2,0.8-0.1,1.3-0.2c0.1,0,0.1-0.2,0.1-0.4C608.7,15.8,607.5,14.5,605.6,14.6z
	 M766.2,10.9c-0.3-0.4-0.5-0.7-0.8-1.1c-1.4,0.6-2.9,1.1-4.2,1.9c-0.3,0.2,0,1.3,0,2.1c0.5,0,1.2,0.1,1.6-0.2
	C764,12.7,765.1,11.8,766.2,10.9z M475.7,11.7c0.6-1.7,1-2.9,1.3-4.1c0.1-0.4-0.1-1-0.4-1.2c-0.3-0.2-0.9-0.1-1.3,0.1
	C473.6,7.4,473.6,8.1,475.7,11.7z M724.9,14c0,0.3,0,0.6-0.1,0.9c1,0.4,1.9,0.9,3,1.1c0.4,0.1,1.2-0.3,1.4-0.7
	c0.2-0.5,0.2-1.2,0-1.8c0-0.2-0.8-0.3-1.1-0.2C727,13.5,726,13.8,724.9,14z M550.4,13.9c-1-0.5-1.4-0.8-1.8-1
	c-1.6-0.6-3.2-1.2-4.8-1.8c0,0-0.2,0.2-0.3,0.4c1.6,1,3.1,2,4.7,2.9C548.5,14.5,549.1,14.2,550.4,13.9z M341.4,4.1
	c-1.1,1.9-2,3.3-2.8,4.8c-0.4,0.7-0.6,1.4-0.7,2.2c0,0.3,0.6,0.7,0.9,0.9c0.1,0,0.5-0.2,0.6-0.5c0.6-1.4,1.2-2.8,1.7-4.3
	C341.3,6.4,341.2,5.4,341.4,4.1z M168.8,528c0.3,0,0.6,0,0.9,0c0-1.9,0.1-3.8,0-5.7c-0.1-1.3-0.4-2.7-0.7-4
	c-2.2,1.1,0.2,2.3-0.1,3.6C168.5,523.9,168.8,526,168.8,528z M237.8,535.3c3.2-3,3.2-3,0-4.9C237.8,531.9,237.8,533.2,237.8,535.3z
	 M175,37.1c0.2-0.1,0.3-0.1,0.5-0.2c-0.1-1.4,0-2.9-0.3-4.2c-0.1-0.6-1.1-1-1.6-1.4c-0.1,0.6-0.4,1.4-0.2,1.9
	C173.8,34.5,174.5,35.8,175,37.1z M177.8,59.6c1.2-1.7,2.9-3.3,1.4-5.5c-0.2-0.2-0.5-0.5-0.8-0.4c-0.2,0-0.6,0.3-0.7,0.5
	C177.8,56,177.8,57.8,177.8,59.6z M311.2,13.8c-0.8-1-1.5-1.8-2.2-2.7c-0.7,0.6-1.3,1.3-2,1.9c0.9,0.5,1.9,1,2.9,1.4
	C310.1,14.5,310.6,14.1,311.2,13.8z M241.8,529.9c-1-1.3-1.2-1.8-1.6-2.1c-0.8-0.8-1.6-1.7-2.4-2.5c0,0-0.3,0.2-0.3,0.3
	c-0.6,1.9,1.3,2.2,2.1,3.2C239.7,529.2,240.3,529.3,241.8,529.9z M620.2,25.9c-0.8-0.7-1.3-1.2-1.9-1.4c-0.2-0.1-1.1,0.8-1.1,1
	c0.2,0.7,0.7,1.4,1.1,2.1C618.9,27.1,619.4,26.6,620.2,25.9z M189.6,6.4c-0.8,0.9-1.3,1.5-1.9,2.1c0.5,0.3,1.1,1.1,1.4,0.9
	c0.6-0.2,1.2-0.9,1.6-1.5C190.9,7.8,190.2,7.1,189.6,6.4z M159,19.2c2.8-1,2.8-1,4.5-4.5C161.5,16.7,160.3,18,159,19.2z M99.9,22.6
	c0.3,0,0.5,0,0.8,0c0.5-1,1-2,1.4-3c0.1-0.2-0.3-0.9-0.5-1c-0.4-0.1-1.2,0.1-1.2,0.4C100.2,20.1,100.1,21.4,99.9,22.6z M96.6,40.7
	c-0.4,1.4-0.7,2-0.8,2.6c-0.1,0.6-1.3,1.5,0.2,1.7c0.5,0.1,1.5-0.8,1.6-1.4C97.7,42.9,97.1,42.1,96.6,40.7z M462.9,2.9
	c-0.3-0.6-0.5-1-0.7-1.4c-0.6,0.6-1.3,1.3-1.9,1.9c0.5,0.4,0.9,0.8,1.4,1.2C462,4,462.5,3.5,462.9,2.9z M673.8,17.7
	c0.1,0.2,0.2,0.5,0.3,0.7c0.8,0,1.6,0.1,2.4,0c0.3,0,0.6-0.4,0.9-0.7c-0.3-0.3-0.7-0.9-1-0.9C675.5,17,674.6,17.4,673.8,17.7z
	 M166.6,525.3c0.1-0.8,0.3-1.1,0.2-1.3c-0.1-0.8-0.3-1.7-0.5-2.5c-0.3,0.1-0.7,0.3-0.7,0.4c0,0.8,0.1,1.7,0.3,2.5
	C165.9,524.7,166.2,524.9,166.6,525.3z M237.5,546.7c-0.2,0-0.5,0.1-0.7,0.1c0.1,0.9,0.1,1.8,0.3,2.7c0.1,0.4,0.6,0.6,1,0.9
	c0.2-0.4,0.5-0.8,0.4-1.2C238.2,548.4,237.8,547.6,237.5,546.7z M530,2.4c0.7,0.4,1.4,0.8,2.2,1.1c0.1,0.1,0.5-0.4,0.8-0.6
	c-0.7-0.5-1.4-1-2.1-1.5C530.8,1.5,530.4,1.9,530,2.4z M496.7,16.6c1.8-0.7,3-1.1,4.8-1.7C499.3,14.6,498,14.4,496.7,16.6z
	 M235,538.6c0.2,0,0.3,0,0.5,0c0-1.2,0-2.3,0-3.5c-0.2,0-0.3,0-0.5,0C235,536.3,235,537.5,235,538.6z M470.4,26.5
	c-0.4,0.4-0.7,0.7-0.7,0.8c0.4,0.7,0.8,1.4,1.3,2.1c0.1-0.3,0.3-0.6,0.3-0.8C471.1,27.9,470.8,27.3,470.4,26.5z M63.3,498.6
	c0.2,0.1,0.4,0.1,0.6,0.2c-0.1-1.1-0.1-2.3-0.2-3.4c-0.2,0-0.3,0-0.5,0C63.3,496.5,63.3,497.5,63.3,498.6z M164.2,18.7
	c-0.3,0.5-0.5,0.9-0.7,1.3c0.3,0.1,0.6,0.3,0.8,0.3c0.3-0.1,0.6-0.4,1-0.6C165,19.3,164.7,19.1,164.2,18.7z M221.9,20
	c-0.5-0.2-0.9-0.4-1-0.3c-0.4,0.3-0.8,0.8-1.1,1.2c0.3,0.1,0.6,0.4,0.7,0.3C220.9,20.8,221.3,20.4,221.9,20z M706.4,15.4
	c-0.5,0.2-1,0.5-1.4,0.7c0.4,0.1,0.8,0.3,1.3,0.3c0.4,0,0.8-0.2,1.3-0.3C707.1,15.9,706.8,15.7,706.4,15.4z M181.9,61
	c-0.3-0.2-0.5-0.4-0.6-0.5c-0.3,0.5-0.5,0.9-0.7,1.4c0,0.1,0.3,0.4,0.4,0.5C181.3,61.9,181.6,61.4,181.9,61z M10.2,21.8
	c-0.2-0.3-0.3-0.6-0.5-0.7C9.5,21,9.2,21.2,9,21.2c0.1,0.3,0.2,0.7,0.4,0.8C9.6,22.1,9.9,21.9,10.2,21.8z M250.8,529.2
	c0.2,0.3,0.3,0.6,0.5,0.7c0.2,0.1,0.5-0.1,0.7-0.1c-0.1-0.3-0.2-0.6-0.4-0.8C251.4,528.9,251,529.1,250.8,529.2z M201.6,521.8
	c-0.1-0.1-0.2-0.3-0.2-0.4c-0.1,0.1-0.3,0.3-0.3,0.3c0.1,0.2,0.3,0.3,0.4,0.5C201.5,522.1,201.5,521.9,201.6,521.8z M75.3,519.5
	c-0.1,0-0.3,0-0.3,0.1c-0.1,0.1-0.1,0.3-0.1,0.4c0.2,0,0.4-0.1,0.6-0.1C75.4,519.8,75.3,519.7,75.3,519.5z M515.8,4.2
	c0-0.2,0-0.3,0.1-0.5c-0.2,0-0.4,0.1-0.6,0.1c0.1,0.1,0.1,0.3,0.2,0.4C515.5,4.3,515.7,4.2,515.8,4.2z M185.6,32.6
	c0,0.1-0.1,0.3-0.1,0.4c0.2,0,0.4,0,0.6,0c0-0.1,0-0.3-0.1-0.4C185.9,32.6,185.7,32.6,185.6,32.6z M144.1,536.9
	c-0.1,0.1-0.3,0.2-0.3,0.2c0,0.2,0.1,0.5,0.2,0.7c0.1-0.1,0.3-0.2,0.3-0.2C144.3,537.4,144.2,537.1,144.1,536.9z M168.6,511
	c-0.1-0.1-0.2-0.2-0.3-0.3c-0.1,0.2-0.3,0.4-0.3,0.7c0,0.1,0.2,0.2,0.2,0.3C168.4,511.5,168.5,511.2,168.6,511z"/>
<path d="M611.1,0c-1.5,2.1-1.5,2.1-2.9,0C609.2,0,610.1,0,611.1,0z"/>
<path d="M172.6,518.9c0.8-1.6,1.9-2.7,3.8-3l0.2,0.3C175.7,517.6,174.7,519,172.6,518.9L172.6,518.9z"/>
<path d="M152.3,528.7c-0.4,1.4-1.4,2-2.8,1.9C149.8,529.1,150.9,528.6,152.3,528.7z"/>
</svg>
