<?xml version="1.0" encoding="utf-8"?>
<!-- Generator: Adobe Illustrator 18.0.0, SVG Export Plug-In . SVG Version: 6.00 Build 0)  -->
<!DOCTYPE svg PUBLIC "-//W3C//DTD SVG 1.1//EN" "http://www.w3.org/Graphics/SVG/1.1/DTD/svg11.dtd">
<svg version="1.1" id="Layer_1" xmlns="http://www.w3.org/2000/svg" xmlns:xlink="http://www.w3.org/1999/xlink" x="0px" y="0px"
	 viewBox="168.4 0 687.2 767.5" enable-background="new 168.4 0 687.2 767.5" xml:space="preserve">
<g>
	<g>
		<path d="M624.6,52.3c0,0.1,0,0.3,0.1,0.4c0.1,0.1,0.4,0.1,0.5,0.3c0.1,0.9,0.1,1.7,2.8,1.3c0.4,3.7-0.1,4.3-3.5,2.9
			c-2.8-1.2-5.3-2.8-7.9-4.3c-0.9-0.5-1.7-1.2-2.9-2.1c0.8,6.7,1.6,12.7,2.3,18.6c0.3,2.4,0.3,4.8-0.3,7.1c-0.7,3.1-3.6,3.9-5.9,1.9
			c-0.8-0.7-1.3-1.7-2-2.5c-1.9-2.1-3.6-4.4-6.1-7.5c0,2.4,0,3.7,0,4.9c0.1,2.7-1.5,3.2-3.7,3.1c-0.9,0-1.9-0.1-2.5-0.5
			c-3.7-2.7-8.9-3.2-11.1-8.1c-0.4-1.1-1.7-1.7-2.8-2.7c-2.1,5.1-2.1,5.1-6.3,2.5c-1.5-0.8-2.8-1.6-4.9-2.8c0.8,5.5,1.7,10,2.1,14.7
			c0.4,4.1,0.5,8.3,0.4,12.3c-0.1,2.1-1.9,2.5-3.6,1.1c-2.1-1.7-4-3.7-6.7-6.3c-1.1,5.2-1.7,9.6-2.7,13.9c-0.8,3.6-1.9,7.1-0.1,10.7
			c0.4,0.7,0.4,1.9,0,2.5c-0.4,0.7-1.7,1.5-2.3,1.2c-4.9-1.9-8.5-5.3-11.9-9.5c-2.7-3.3-2.8-7.1-2.7-10.9c0.1-1.6-0.1-3.5,0.4-5.1
			c1.1-2.9-0.7-3.3-2.8-3.6c-3.2-0.3-3.7,0.3-2.8,3.5c1.9,6.4,4.4,12.6,4.4,19.4c0,1.5,1.1,3.2,2.1,4.5c1.3,1.6,3.2,2.9,4.5,4.5
			c0.9,0.9,1.9,2.3,2,3.6c0.7,4.7,0.8,9.3,1.5,14c0.5,4.1,0.5,8.7,5.2,10.9c0.5,0.3,0.9,1.7,0.7,2.1c-0.5,0.8-1.7,1.7-2.4,1.6
			c-2-0.5-4.1-1.3-5.9-2.4c-5.1-3.2-10.4-6.1-12.6-12.4c-0.1-0.4-1.7-0.8-1.9-0.7c-1.3,1.7-2.9,3.2-1.9,5.7c0.7,1.6,1.9,3.2,1.7,4.8
			c-0.3,4.4,2,7.9,3.9,11.5c0.7,1.3,1.9,2.4,2.7,3.6c1.1,1.5,0.4,3.1-1.3,3.2c-1.1,0-2.1,0-3.2-0.3c-4.9-0.9-9.5-2.7-12.7-6.9
			c-1.6,5.1-3.2,9.9-4.8,14.7c-0.1,0.5-1.1,0.8-1.7,1.2c-0.3-0.5-0.8-1.1-0.8-1.6c0.1-1.3,0.5-2.5,0.9-3.7c0.9-3.3,2-6.5,2.7-9.9
			c0.1-0.8-0.4-2-1.1-2.8c-0.3-0.3-1.6,0-2.3,0.4c-4.8,2.5-6.7,7.1-7.7,12c-0.1,0.8,0.1,1.7,0.7,2.4c3.2,4.1,6.5,8.4,9.9,12.6
			c2.1,2.7,2.1,2.9-1.2,4.3c-4.5,1.7-4.5,1.7-3.5,6.9c0.3,1.1,0.4,2.1,0.4,3.2c0,2.3-0.9,3.1-2.7,2c-3.7-2.4-7.9-4.4-10-8.8
			c-2.1-4.1-4.5-8.1-6.8-12.3c-0.8-1.3-1.9-1.9-3.1-0.8c-0.4,0.4,0.3,1.9,0.7,2.7c1.6,2.9,4.1,5.7,4.7,8.9c0.8,5.1,1.5,9.7,5.6,13.2
			c0.9,0.8,0.1,2.8-1.2,2.8c-1.2-0.1-2.5-0.4-3.6-0.9c-4.1-2.1-8.3-4.3-12.7-6.5c-2.4,6-2.8,12.2-3.2,18.3c-0.4,6.4-0.1,13-0.1,19.4
			c0,2.4-0.1,4.7,0.1,7.1c0.8,7.5,2.1,14.8,2.4,22.3c0.4,9.1,1.1,17.9,2.5,26.8c0.5,2.9,0.9,5.9,1.5,8.8c1.2,7.5,2.4,14.8,3.6,22.2
			c2.1,12.8,4.5,25.6,6.7,38.5c1.6,9.1,2.8,18.2,4.3,27.2c1.7,10.3,3.5,20.6,3.6,31.1c0,1.7,0.1,3.5,0.3,5.2
			c0.8,6.7,1.7,13.2,2.1,19.8c0.4,7.3,0,14.7,0.4,22c0.4,7.5,1.3,15,2.4,22.3c0.9,6.8,2.1,13.5,3.5,20.2c1.3,6.3,2.8,12.4,4.3,18.7
			c1.6,7.3,3.5,14.6,4.8,21.9c2,10.7,4.4,21.4,5.2,32.2c0.8,10.3,2.7,20.3,4.9,30.3c2.3,9.3,4.9,18.6,7.5,27.9
			c1.3,5.3,2.1,10.8,2.3,16.4c0.1,4.7,0.9,9.3,1.9,13.9c1.9,8.8,8,15.1,14.6,20.6c2.9,2.5,6.3,6,11.2,5.2c1.7-0.3,2.3-0.3,2-2.5
			c-0.5-4.7-0.3-9.5-0.1-14.2c0-0.7,0.9-1.2,1.5-1.9c0.4,0.7,0.9,1.2,1.2,1.9c1.3,3.3,2.7,6.5,4.4,10.8c1.2-2,1.9-3.1,2.4-4.1
			c0.7-1.3,1.2-2.7,2-4c1.5-2.4,3.1-4.9,6.1-5.2c1.1-0.1,2.4,0.4,3.6,0.7c-0.3,1.2-0.3,2.4-0.8,3.5c-1.3,2.4-3.1,4.7-4.1,7.2
			c-2.1,5.1-1.2,7.3,4,8.9c1.9,0.5,3.7,0.8,5.6,1.5c5.5,1.9,10.9,3.5,16.3,5.7c3.1,1.3,5.9,3.6,8.7,5.5c1.6,1.1,4.3,2.3,4.3,3.3
			c-0.1,3.1-3.6,2.4-5.6,3.3c-1.2,0.7-2.9,0.4-4.4,0.4c-7.3-0.1-14.6-0.3-21.4,3.5c4.3,3.5,8.5,7.1,12.8,10.5
			c6.4,5.3,12.4,11.2,15.6,19.2c0.7,1.7,2.1,3.2,3.2,4.8c0.9,1.5,2,2.9,2.5,4.5c0.8,2.1-0.8,3.9-3.1,3.1c-2.4-0.8-4.8-2-6.9-3.3
			c-4.8-2.9-9.7-5.1-15.2-6.5c-2.8-0.8-3.1,0.3-3.3,2.1c-0.1,0.8-0.4,1.6-0.3,2.4c0.4,2.5-1.2,2.7-2.7,2.1c-1.7-0.5-3.9-1.2-3.5-3.9
			c0.5-3.3-1.5-4.8-4.1-5.6c-2.3-0.8-4.5-1.7-6.8-1.7c-9.3-0.1-18.3-1.7-27.1-4.8c-2.5-0.8-3.1-0.3-2.7,2.3c0.1,1.2,0.5,2.5,0.5,3.7
			c0,0.7-0.7,1.5-1.1,2.1c-0.5-0.5-1.5-0.9-1.6-1.6c-1.1-4.4-2.3-8.7-5.2-12.3c-0.1-0.5-0.3-1.1-0.4-1.6c-0.3,0.1-0.4,0.3-0.7,0.4
			c0.3,0.5,0.7,0.9,0.9,1.3c0,0.8,0,1.7,0.3,2.5c0.5,2.3,1.2,4.5,1.7,6.8c0.1,0.4-0.5,1.5-0.8,1.5c-0.8-0.1-1.9-0.4-2-0.9
			c-0.5-1.7-0.8-3.5-1.2-5.7c-0.8,0.8-1.2,1.2-1.6,1.7c-0.7,0.9-1.3,1.9-2,2.8c-0.4-0.9-1.1-1.9-1.1-2.8c0-2.5-0.8-4-3.5-4.5
			c-1.3-0.3-2.4-0.9-3.6-1.5c-3.9-2-7.6-1.3-10.9,0.9c-2.3,1.6-4.4,3.2-7.5,3.3c-0.8,0.1-1.5,0.8-2.3,1.2
			c-7.2,3.9-14.3,7.7-21.5,11.5c-6.4,3.3-13.2,5.9-19,10.4c-3.5,2.8-6.9,4.3-11.6,4.4c-3.2,0.1-4.4-0.7-5.1-3.2
			c-0.4-1.6-0.5-3.3-0.5-5.1c-0.1-5.2,0-10.3-0.1-15.5c0-4.3-0.7-4.8-4.8-4.9c-6-0.1-12-0.1-18,0c-3.6,0.1-7.2,0.8-10.8,1.1
			c-6.7,0.5-13.2,0.9-19.9,1.5c-3.7,0.3-7.3-2.1-11.3-0.7c-1.5,0.5-2.7-1.7-1.6-3.1c1.2-1.7,2.7-3.2,4.9-5.7
			c-10.3,0.5-19.2,0.9-28.2,1.3c-0.7,0-2.1-0.5-2.1-0.8c-0.1-0.9,0.1-2.3,0.8-2.7c2.9-1.9,6-4,9.3-5.3c11.9-4.7,23.9-9.1,36.1-13.6
			c-2.1-4.7-6.1-7.6-9.9-10.8c-0.4-0.3-0.7-0.9-0.9-1.5c0.7-0.4,1.5-1.2,2-1.1c3.1,0.7,6.1,1.6,9.2,2.5c0.4,0.4,0.8,0.9,1.2,1.3
			c0.4,0.3,0.9,0.7,1.3,0.9c0.1-0.3,0.3-0.4,0.4-0.7c-0.5-0.1-1.1-0.3-1.6-0.4c-0.4-0.4-0.9-0.8-1.3-1.2c-0.4-0.8-0.5-1.9-1.1-2.3
			c-4.1-3.3-8.4-6.5-12.7-9.9c-1.2-0.9-2.1-2.3-3.2-3.3c10.1,2.4,19.4,6.3,25.9,15.4c1.6-2.9,2.9-5.6,4.3-8.3
			c5.1-10.3,6.4-20.8,2.8-31.8c-2.4-6.9-2.1-14.3-3.1-21.5c-0.8-6.7-0.5-13.8-1.6-20.4c-2-11.5-4.5-23-7.1-34.4
			c-1.9-8.3-4.5-16.6-6.4-24.8c-1.6-7.1-4.3-13.8-4.8-21.2c-0.5-7.1-2.5-14.2-4.3-21.2c-2.9-12.3-5.7-24.6-5.7-37.4
			c0-5.1-1.1-10.1-1.7-15.2c-0.1-1.2-0.7-2.5-0.7-3.7c0.3-7.9-2-15.2-3.5-22.8c-2.7-13.9-5.7-27.6-5.7-41.9c0-1.1,0-2.1-0.1-3.2
			c-0.8-7.5-1.7-14.8-2.3-22.3c-0.4-4.9,0.5-10-0.4-14.8c-1.9-9.2-1.2-18.4-0.7-27.6c0.3-5.2,0.1-10.4-0.8-15.2
			c-2.3-10.9-1.6-22.2-3.5-33.1c-0.8-4.8-1.2-9.7-1.9-14.6c-0.1-1.5-0.5-2.9-0.7-4.4c-0.5-6.7-0.9-13.2-1.3-19.9
			c0-0.8-0.1-1.7-0.4-2.5c-2.7-10.8-3.9-21.8-2.3-32.8c0.3-2,0-4.3,0.1-6.4c0-2.1-0.3-3.7-3.1-3.9c-0.8,0-2-1.6-2-2.5
			c0-3.1,0.9-6,0.9-8.9c0-2.1,1.5-5.3-1.3-6.3c-2.4-0.8-2.4,2.4-3.6,3.7c-1.1,1.1-1.9,1.1-2.5-0.3c-0.4-0.9-1.1-2-0.9-2.9
			c1.3-8.4,0.8-17.1,4-25.2c0.5-1.6,0.3-2.5-1.2-3.1c-2.9-1.1-5.1-4.5-9.2-2.4c-2,0.9-2.9-0.4-2.3-2.8c0.9-3.2,1.7-6.4,2.9-10.9
			c-4.4,3.6-8.1,3.2-12,1.6c0.1-0.9,0.3-2,0.5-2.9c2-6.8,1.5-13.6,0.5-20.4c0-0.7-0.5-1.7-0.9-1.7c-3.6-0.5-7.2-0.9-10.8-1.1
			c-2.3-0.1-3.2-0.8-2.9-2.9c0.1-1.5,0.7-3.1,1.1-4.9c-2.5,2.1-4.3,3.7-6.3,5.3c-1.2,0.9-2.8,0.5-3.2-0.8c-1.3-4.3-3.7-8.9-3.1-13
			c0.7-4.4-1.3-6.9-2.8-10.4c-2.5,2.7-3.1,5.2-1.9,8.1c0.8,1.7,1.2,3.7,1.5,5.6c0.3,2.1,0.4,4.4,0,6.4c-0.7,3.1-2.3,4.1-5.2,3.1
			c-3.6-1.3-7.3-2.7-10.4-4.8c-4.1-2.9-7.7-6.5-12.2-10.4c0,2.7,0.1,4.9-0.1,7.2c-0.4,4.4-0.8,8.9-1.6,13.4c-0.1,0.9-1.5,2-2.5,2.4
			c-0.7,0.3-1.9-0.7-2.5-1.3c-3.5-3.5-5.2-7.7-6.5-12.4c-1.5-5.6-1.2-11.1-1.2-16.7c0-2.7-0.3-5.1-3.3-6.3c-0.1,0.7-0.4,1.3-0.3,1.9
			c1.5,5.1,1.3,10,0.7,15.2c-0.4,2.5,0.3,5.2,1.6,7.9c3.5,6.7,7.6,13,11.9,19.1c2.1,2.9,4,5.9,7.2,8c7.3,4.9,12.6,11.6,15.1,20.2
			c1.3,4.3,2.3,8.7,3.2,13.1c0.1,0.4-0.3,1.2-0.5,1.6c-0.1,0.1-0.9,0.1-1.2-0.1c-4.7-3.2-9.3-6.1-13.8-9.6c-2-1.5-3.6-2.7-6.1-3.1
			c-4.7-0.8-8.1-3.5-10.5-7.6c-2.3-4-5.1-7.6-6.8-11.7c-1.3-3.1-2.7-6.1-1.3-9.9c0.8-2.1,0.4-4.7,0.5-7.1c0.1-2.4-0.4-4.9,1.5-7.3
			c1.2-1.5-0.1-3.1-1.9-3.9c-1.5-0.7-3.1-1.1-4.5-1.9c-1.6-0.8-2.4-3.9-4.4-2.5c-1.1,0.7-0.7,3.6-0.8,5.5c-0.1,2.1-0.1,4.3,0,6.4
			c0.1,1.3,0.4,2.5,0.8,3.7c0.9,2.3,2.4,4.4,3.1,6.8c1.5,5.1,2.7,10.3,3.9,15.5c0.7,2.8,0.8,5.9,1.2,8.8c0.3,2.5-0.8,4-3.1,5.1
			c-3.7,1.9-3.6,2-0.9,4.8c0.8,0.8,1.5,1.6,2.3,2.3c4.4,4,6.7,8.7,7.1,14.7c0.1,3.7,1.7,7.5,3.2,10.9c1.6,3.6,0.7,6.1-3.3,6.7
			c-4.3,0.7-11.5-2.5-13.1-6.5c-1.6-4.4-4.8-8.7-3.1-14c0.4-0.9-0.7-2.3-1.1-3.5c-0.8,2.5-1.1,4.8-0.8,7.1c0.7,4.8-1.3,8.9-2.9,13.1
			c-0.9,2.5-2.3,2.9-5.1,1.7c-0.7-0.3-1.2-0.8-1.7-1.1c-1.1,5.2-2.1,10-3.3,14.7c-0.4,1.7-1.5,3.5-2.5,5.1c-1.5,2-3.2,2-4.5,0
			c-1.3-2.1-2.5-4.5-3.3-6.9c-1.5-4.3-2.5-8.8-3.7-13.2c-1.7,0.8-3.3,1.5-4.7,2.4c-4.1,3.1-7.9,6.5-8.3,12.2
			c-0.5,7.1-0.9,14.2-1.3,21.2c-0.1,4.3-2.3,7.3-5.7,9.3c-1.7,0.9-4,3.5-5.6,1.6c-1.6-1.9-2.9-5.2-2.4-7.5c0.9-3.7,0.5-7.2-0.5-10.7
			c-0.8-2.4-1.5-4.9-2.1-7.3c-1.7-6.4-0.3-10.5,5.3-13.5c4.1-2.1,8.5-3.7,12.8-5.7c1.2-0.4,2.7-1.2,2.9-2.1c0.4-0.9-0.7-2.3-1.1-3.5
			c-2.7,1.9-4.9,3.9-7.5,5.3c-2.3,1.3-3.7,0.4-3.7-2.3c0-6.1-0.8-12.3,0.9-18.6c-2.5,0.7-4.7,1.2-6.7,1.6c-2.9,0.7-5.7-0.1-7.7-2.1
			c-2.3-2.3-0.4-4.8,0.7-7.1c0.7-1.3,1.5-2.7,2.4-3.9c1.9-2.4,4-4.5,5.7-6.9c2.9-4,5.7-8,8.7-12c0.3-0.4,1.1-0.5,1.6-0.8
			c0.1,0.7,0.5,1.6,0.3,2.1c-2.7,4.1-5.3,8.3-8.3,12.3c-2.5,3.5-5.5,6.7-7.9,10.1c-1.9,2.8-0.9,4.4,2.3,4.8
			c5.3,0.8,9.9-2.1,14.7-3.7c1.9-0.7,2.3-2.4,1.3-4.8c-1.3-3.2-2.1-6.8-2.8-10.4c-0.3-1.3,0-3.2,0.8-4.3c2.3-3.1,2.8-6.5,3.6-10
			c-4,1.6-7.7,4.5-11.3,4.4c-3.5,0-6.1,0.5-8.9,1.9c-2.7,1.2-3.3,0.8-4.3-1.7c-1.1-2.9-6.9-10-9.5-11.2c-2-0.8-2.3-2-1.5-4
			c2.1-5.1,3.9-10.3,4.1-16c0.1-4.4,1.5-8.7,6.4-10.9c3.1-1.3,6.5-3.5,8-6.1c1.5-2.7,0.7-6.7,0.9-10c0.1-0.3,0.1-0.4,0.1-0.7
			c0-1.6,0.1-3.2,0.3-4.8c-1.6,0.5-3.2,1.2-4.7,1.9c-0.7,0.1-1.1,0.8-1.6,1.1c-1.2,0.5-2.7,1.6-3.5,1.2c-2.1-0.9,0-2.5,0-3.9
			c-0.1-2.5,0.1-5.2,0-7.7c-0.1-2.8,0.9-4.8,2.8-6.8c2-2.1,4.1-4.7,4.8-7.3c0.8-3.5,2.4-5.5,5.3-6.7c2.4-0.9,4.7-2.3,7.2-2.8
			c4.7-0.9,9.5-1.3,13.9,0.9c0.4,0.1,0.5,0.9,0.8,1.5c-0.5,0.3-1.1,0.7-1.6,0.7c-3.3-0.3-6.8-1.2-10.1-0.8
			c-5.7,0.8-11.6,1.9-13.2,9.1c-0.5,2-1.6,4.3-3.2,5.5c-4.7,3.6-3.9,8.1-3.6,13c8.5-3.2,11.1-6.5,11.3-15.2c0.1-2.7,0.1-5.3,3.2-7.6
			c-0.1,2.1-0.4,3.5-0.3,4.9c0.1,2.3,1.2,2.7,3.2,1.5c3.2-2,6.4-5.2,9.9-5.7c4-0.5,5.3-2.7,6.7-5.6c0.7-1.6,1.2-3.3,2.4-4.5
			c2.4-2.4,5.7-4.1,7.5-6.9c2-2.9,2.3-6.9,3.7-10.1c0.5-1.2,2.3-2.5,3.7-2.8c2.1-0.4,4.9,0.9,6.7,0c2-1.1,3.1-4,4.9-5.7
			c2.4-2.1,5.1-4,7.6-5.9c3.1-2.3,6.1-4.4,9.3-6.5c1.3,0,2.5,0,3.9,0c0,2.4,1.2,3.6,3.5,3.9c1.5,0.1,2.9,0.1,4.4,0.4
			c0.3,0,0.5,1.7,0.3,1.9c-0.8,0.5-1.9,0.7-2.8,1.2c-0.4,0.3-0.5,0.9-0.9,1.5c-0.3,0.5-0.7,0.9-1.2,1.3c0,0.1-0.7-0.4-0.9-0.7
			c-4.7-4.9-9.6-4.7-14.6-0.4c-2.8,2.4-5.6,4.7-8.1,7.3c-2.1,2.3-1.7,9.6,0.5,11.5c0.4,0.4,1.7,0.3,2.3-0.1
			c3.5-2.7,7.5-4.5,10.3-8.4c3.1-4.3,7.5-6.8,13.1-6.7c0.4,0,1.1,0.3,1.2,0.1c1.9-2.5,3.7-5.1,5.5-7.7c0.1-0.1-0.4-1.1-0.8-1.5
			c-1.2-1.1-2.5-2.1-3.7-3.2c1.3,0,2.5,0,3.9,0c4.5,3.2,4.7,3.2,7.7,0c3.1,0,6,0,9.1,0c-4.3,1.9-8.5,3.6-12.6,6.3
			c-3.1,2.1-5.5,4.7-6.7,8.3c-0.9,2.7-2.3,5.1-3.5,7.6c-0.5,1.1-1.2,1.9-1.6,2.8c-2.7,6.3-0.9,7.6,6,7.9c5.5,0.3,9.5-2.3,13.5-4.7
			c4.5-2.7,6.8-7.6,8-12.7c0.9-4.4,2.4-8.1,5.9-11.1c1.2-1.1,1.7-2.9,2.5-4.4c0.8,0,1.7,0,2.5,0c-1.6,3.1-2.7,6.5-5.1,9.3
			c-1.7,2-1.6,4.8-0.7,7.3c0.7,1.9,1.9,2.9,3.9,2.5c6.9-1.5,13.6-3.2,19-8.4c3.2-3.1,5.7-6.3,6.3-10.8c0.8,0,1.7,0,2.5,0
			c0,1.1-0.1,2.3,0.1,3.2c0.7,2.3,1.2,3.7-1.9,5.3c-2.5,1.3-3.5,5.2-3.5,8.5c0,2.3-2.7,4.8,0,6.5c2.4,1.6,4.9-0.4,7.1-1.5
			c3.6-1.6,6.3-4.1,7.5-8.3c1.5-4.8,2.3-9.3-0.3-13.9c1.3,0,2.5,0,3.9,0c1.9,4.8,0.5,9.5,0,14.3c-0.3,0.3-0.4,0.4-0.7,0.7
			c0.1,0,0.3,0,0.4-0.1c0.1-0.1,0.1-0.4,0.3-0.5c2.3-1.3,3.5-3.2,4-5.9c0.5-2.9,2.4-5.6,3.7-8.4c2.1,0,4.3,0,6.4,0
			c-0.4,0.4-0.8,0.9-1.3,1.2c-5.5,2.5-7.7,9.2-4.4,14c2,2.9,3.3,6.5,7.2,7.9c-0.8-9.7,2.1-15.5,10.8-20.8c-2.1-0.9-4-1.6-5.9-2.4
			c7.7,0,15.5,0,23.2,0c-0.5,3.6,0.9,6.3,3.9,8.1c1.2,0.8,2.7,1.2,4,1.9c0.3-1.3,0.5-2.7,0.8-4c0.5-2.1,1.2-4.1,1.7-6.1
			c1.3,0,2.5,0,3.9,0c-3.6,5.7-3.3,13.9,0.7,19.2c0.8,1.1,1.9,1.9,3.1,0.3c1.9-2.7,4.7-4.9,4-8.9c-0.3-1.1,0.7-2.4,0.9-3.6
			c0.5-2.3,0.9-4.5,1.5-6.8c0.8,0,1.7,0,2.5,0c0.1,3.3,0.9,6.4-1.1,9.7c-0.9,1.7-0.5,4.5-0.1,6.8c1.1,6,4.4,10.9,8.3,15.6
			c1.9,2.3,4,2,4.8-0.8c1.6-5.9,1.6-11.7-0.1-17.6c-0.3-0.9-0.9-2-1.7-2.5c-4-2.7-5.9-6.8-7.5-11.1c0.8,0,1.7,0,2.5,0
			c1.3,4.5,5.5,6.4,8.7,9.1c3.2,2.8,3.3,2.7,4.1,6.4c2.8-2.5,4.3-5.3,4-9.1c-0.1-2.1,0-4.3,0-6.4c0.8,0,1.7,0,2.5,0
			c0.1,0.5,0.1,1.2,0.4,1.7c0.3,0.5,0.8,0.9,1.2,1.3c0.3-0.7,0.7-1.2,0.9-1.9c0.1-0.4,0-0.8,0-1.2c0.8,0,1.7,0,2.5,0
			c0.4,5.2,3.7,8.3,8.1,10.4c4.7,2.3,9.2,4.3,13.9,6.4c0.3,0.3,0.4,0.4,0.7,0.7c0-0.1,0-0.3-0.1-0.4c-0.1-0.1-0.4-0.1-0.5-0.3
			c-0.9-2.3-1.6-4.7-2.7-6.9c-1.5-3.2-4.4-5.9-3.9-9.9c0.8,0,1.7,0,2.5,0c0.5,1.2,0.9,2.4,1.6,3.5c0.8,1.5,2.5,2.8,2.8,4.3
			c1.1,6,5.6,8.7,10,11.9c3.6,2.7,7.2,5.5,10.4,8.5c2.9,2.9,6.1,5.2,10.8,6.8c-2.3-7.2-4.5-14-8.9-19.5c-2.3-2.8-6.4-4.1-9.7-6
			c-1.1-0.7-2.9-0.7-3.3-1.6c-2.1-4.1-6-5.7-9.7-7.7c3.5,0,6.9,0,10.4,0c1.3,4,3.9,6.9,7.6,8.9c5.9,3.2,12.3,3.9,18.8,4.9
			c-5.2-3.9-8.8-8.8-12.3-13.9c1.3,0,2.5,0,3.9,0c1.7,2.4,3.3,4.9,5.3,7.1c6.7,6.8,14,12.7,23.1,16.2c0.3,0.3,0.4,0.4,0.7,0.7
			c0-0.1,0-0.3-0.1-0.4c-0.1-0.1-0.4-0.1-0.5-0.3c0-2.7-2-3.5-3.9-4.5c-0.8-0.5-2.3-1.2-2.3-1.9c0.1-6.5-4.5-10-8.4-14
			c-0.9-0.8-1.5-2-2.3-2.9c1.3,0,2.5,0,3.9,0c3.5,4,7.1,7.9,9.2,13c0.7,1.6,2.1,3.6,3.7,4.1c2.1,0.7,2.8,0.9,1.6,3.1
			c-0.1,0.4,0.4,1.7,0.9,2.1c9.3,7.2,18.4,14.6,30.6,16.7c3.9,0.7,4.8-0.1,3.2-3.7c-3.2-6.9-7.5-13-14.7-16.2
			c-1.1-0.5-2.1-0.8-2.9-1.5c-4.4-3.2-8.9-4.7-15-2c0.5-2.3,1.3-3.6,1.1-4.9c-0.3-1.7-1.2-4.8-2-4.9c-3.9-0.4-4.5-4-6.8-5.9
			c1.7,0,3.5,0,5.2,0c0.5,0,0.9,0,1.3,0c0.8,0,1.7,0,2.5,0c-0.1,2.1,0.4,3.7,2.7,4.5c5.3,2,10.4,4.8,14.4,9.2
			c1.1-5.3,1.2-5.7-2.5-6.8c-3.9-1.1-5.6-3.6-6.8-6.9c0.8,0,1.7,0,2.5,0c1.9,3.9,5.3,6.1,8.7,4.9c2.4-0.8,3.1-2.7,1.7-4.9
			c1.3,0,2.5,0,3.9,0c-0.9,2.4-1.5,4.9-2.8,7.1c-3.2,5.2,2.1,16.6,6.8,19.2c0.4,0.3,1.9-0.5,1.9-0.9c0.1-1.9,0.7-4.1-0.1-5.6
			c-3.6-6.3-3.9-13-3.2-19.8c0.5,0,0.9,0,1.3,0c0.4,3.7,0.9,7.6,1.5,11.3c0.1,1.7,1.2,2.7,2.9,2.8c1.6,0,3.3-0.1,5.1,0
			c2.4,0.1,4.9,0.5,8,0.8c-4-4.4-7.3-9.1-8.5-15c2.1,0,4.3,0,6.4,0c-2.4,4.9-0.7,8.5,3.2,11.7c2.3,1.9,4.3,4.1,6.4,6.1
			c0.7,0.7,1.7,0.7,2.7,0.9c0-0.8,0-1.6-0.3-2.3c-1.1-2.4-2.1-4.7-3.3-6.9c-1.7-3.2-1.6-6.4,0.5-9.5c0.5,0,0.9,0,1.3,0
			c-1.1,8,2.7,14.2,7.5,19.8c2.5,3.1,4.3,2.5,6.3-0.5c3.9-6,6.5-12,5.6-19.2c2.1,0,4.3,0,6.4,0c-0.1,1.5-0.8,3.1-0.3,4.3
			c2.8,6.4,5.2,13,10,18.6c0.7-3.7,1.2-7.2,1.9-10.7c0.3-1.2,0.4-2.8,1.2-3.5c3.6-2.9,2.8-5.7,0.1-8.7c2.1,0,4.3,0,6.4,0
			c-0.1,2.9,0.5,5.3,2.8,7.5c1.7,1.7,2.9,4,4.4,6.1c2.5-4.1,3.3-8.7,3.1-13.5c1.3,0,2.5,0,3.9,0c-0.3,0.5-0.4,1.2-0.7,1.7
			c0.5,0.1,1.1,0.4,1.5,0.3c1.1-0.5,2-1.3,3.1-2c3.5,0,6.9,0,10.4,0c0.4,1.3,0.5,2.8,1.2,4.1c1.9,3.6,4,7.1,5.6,10.8
			c1.9,4.4,4.5,8,7.6,11.6c3.6,4.3,7.1,8.5,11.7,11.6c1.6,1.1,3.6,1.6,5.5,2.4c0-2,0.1-4.1-0.3-6.1c-1.5-8.4-6.9-14.6-12.2-20.7
			c-3.1-3.6-6.9-6.1-11.5-7.5c-3.3-0.9-5.5-3.1-6.5-6.4c1.3,0,2.5,0,3.9,0c0.8,3.9,4.3,3.6,6.9,4.7c5.9,2.4,6.1,2.1,7.3-4.7
			c0.8,0,1.7,0,2.5,0c0.3,2.4,0.1,4.5-1.6,6.5c-0.7,0.7-0.7,2.9,0,3.9c2.5,3.6,5.5,6.8,8.1,10.3c0.4,0.4,0.8,0.9,1.2,1.3
			c1.3,3.9,2.4,7.7,3.9,11.5c2.1,5.9,7.3,8.9,12.7,13.6c-0.1-5.2-1.3-8.7-3.9-11.6c-4-4.7-8.3-9.1-12.6-13.6
			c-0.4-0.4-0.9-0.8-1.3-1.2c-1.1-2.5-1.9-5.1-3.2-7.5c-1.9-3.6-2.9-6.9-0.9-10.8c0.4-0.7,0.1-1.7,0.3-2.5c0.8,0,1.7,0,2.5,0
			c0,0.3,0.1,0.5,0,0.7c-2.8,6.3-0.3,11.6,2.9,16.8s6.4,10.4,12,13.9c2.7,1.7,4.7,4.4,7.1,6.5c0.9,0.8,2.1,0.5,2.3-0.9
			c0.4-5.1,0.3-9.9-3.2-14c-1.6-2-2.8-4.4-4.1-6.5c-2.9-4.5-6.5-8.4-10.9-11.6c-1.9-1.3-3.2-3.3-4.8-5.1c1.3,0,2.5,0,3.9,0
			c3.5,3.5,6.9,7.1,10.5,10.5c0.3,0.4,1.2,0.5,1.5,0.4c0.4-0.3,0.5-1.1,0.5-1.6c-0.3-3.2-0.7-6.3-1.1-9.3c1.7,0,3.5,0,5.2,0
			c-1.2,2.8-3.3,5.2-1.6,8.9c1.1,2.4,2.5,3.3,4.3,2.5c4.5-2.3,8.8-4.8,13.1-7.5c1.7-1.1,0.1-2.7-0.3-4c1.3,0,2.7,0,4,0.4
			c0.1,0.5,0,1.2,0.1,1.9c0.4,3.1,0.4,3.1,3.3,2.1c2.3-0.8,5.2-0.7,5.6-4.1c0.8,0,1.7,0,2.5,0c0.5,0.8,0.9,1.2,1.3,0
			c7.7,0,15.5,0,23.2,0c-0.9,6.4-2.5,8.5-8.9,12c-0.4,0.3-0.9,0.7-1.2,1.2c-0.9,2.1-1.7,4.3-2.7,6.7c3.9,0.7,7.3,1.3,11.2,2.1
			c0.1-0.4,0.4-1.2,0.5-2c0.7-3.9,2.1-6.8,6.5-7.2c2-0.3,2.3-1.6,2.3-3.2s0.1-3.1,0.1-4.5c0.8,0.4,2.1,0.8,2.4,1.5
			c0.7,2.1,2.3,2.8,5.1,3.3c-2.3-3.3-4.4-6.4-3.6-10.1c0.8,0,1.7,0,2.5,0c0,3.2,0.4,6.3,3.2,8.5c1.6,1.3,2.9,3.5,5.5,0.7
			c1.1-1.2,3.3-1.5,5.2-2c5.6-1.7,5.6-1.7,2.9-7.2c0.8,0,1.7,0,2.5,0c0.9,2.1,2,3.9,5.1,4c2,0.1,4.1,1.3,6,2.1
			c2.1,1.3,2.5,3.2,1.3,5.6c-1.6,3.1-3.1,6.1-6.7,7.5c-1.5,0.5-2.7,2-3.9,2.9c2.3,0,4.1-1.1,6-1.7c5.2-1.7,10.7-2.7,15.6-0.1
			c6.7,3.3,12.8,7.9,19.1,11.9c2.1,1.3,1.7,4-0.7,4.9c-0.8,0.3-1.7,0.1-2.5,0.4c-2.7,0.7-5.2,1.5-7.9,2.1c0.8,3.3,4.4,3.7,6.4,5.7
			c4.1,4.1,8,8.4,11.9,12.7c1.1,1.3,0.4,2.5-1.3,2.7c-5.2,0.4-10.1,0.4-14.3-2.7c-3.9-2.7-8.1-4.7-13-7.5c1.1,3.2,2.9,5.6,2.4,7.5
			c-1.1,4.4-0.8,8.4,0.1,12.7c0.1,0.9-0.4,2.7-0.9,2.8c-1.1,0.3-2.5,0-3.5-0.7c-6.1-4.5-9.6-10.8-11.6-18c0-0.3-0.1-0.5-0.1-0.7
			c0.1-0.3,0.3-0.5,0.4-0.5c0.3,0,0.9-0.1,1.1,0c0.7,1.1,1.2,2.1,1.9,3.2c2.4,4,4.8,8,7.3,12c0.3,0.5,1.5,0.5,2.1,0.5
			c0.1,0,0.5-1.2,0.4-1.7c-1.1-2.9-1.5-5.7-0.1-8.8c0.4-0.9-0.1-2.5-0.7-3.6c-2.4-5.3-4.8-10.5-7.2-15.9c-1.5-3.2-3.9-5.5-7.7-8.5
			c0.9,3.7,1.2,6.3,2.1,8.5s0.7,4.1-0.4,6.1c-2.3,3.9-4.3,7.9-6.7,11.7c-1.7,2.7-3.7,5.2-5.9,7.6c-2.8,3.2-3.6,3.1-5.3-0.5
			c-1.3-2.7-2.1-5.6-3.2-8.4c-0.8-2-2.7-2.3-4.1-0.7c-2.1,2.3-4.4,4.7-6.7,6.9c-1.6,1.6-2.9,1.1-4.1-0.8c-2.3-3.7-2-7.9-1.1-11.9
			c0.4-2,1.2-4,1.6-6.1c0.1-0.5-0.1-1.3-0.5-1.6c-1.9-1.3-4.8,0.1-5.2,2.4c-0.7,3.6-1.6,7.1-2.1,10.7c-0.5,3.5-3.1,5.5-5.5,7.6
			c-1.6,1.3-3.1,1.2-4.7-0.1c-4.7-4.1-8.4-8.8-8.5-15.4c0-2.8-0.8-4.3-3.6-4.9c-1.5-0.4-2.9-1.2-4.4-1.9c0.8,3.6,1.6,6.7,2.1,9.7
			c0.4,2.3-0.4,3.1-2.8,2.4c-3.3-0.9-6.5-2.1-8.9-4.8c-2-2.3-4.3-4.3-6.4-6.4c-2.1-2.3-2.1-2.1-5.2-0.1c-0.8,0.5-2.1,0.4-4,0.8
			c1.6,0.4,2.4,0.8,3.2,0.9c4.4,1.1,7.5,3.5,9.3,7.9c1.6,3.7,3.7,7.1,4.8,11.1c1.1,3.9,3.2,7.5,6.8,9.9c0.5,0.3,0.9,1.2,0.8,1.5
			c-0.4,0.7-1.2,1.5-1.9,1.6c-0.8,0.1-1.7-0.1-2.5-0.4c-3.7-0.9-7.3-1.9-11.1-2.9c-0.8,5.6-0.8,5.6,0.9,9.5c0.8,1.5,1.6,3.1,2.1,4.7
			c0.7,2.5-0.3,3.6-2.9,3.7c-8.8,0.5-16.6-6.1-17.5-15.4c-0.1-0.4,0.1-1.1,0.4-1.1c0.5-0.1,1.5-0.1,1.6,0.1c1.1,1.9,1.9,3.7,2.7,5.7
			c2.3,5.7,5.6,7.7,12.3,7.1c-0.7-2-1.5-4-1.9-6.1c-0.7-3.1-0.9-6.3-1.3-9.5c-0.3-2.1-1.1-2.4-3.1-0.9c-3.1,2.1-5.9,1.9-9.1,0.3
			c-10-5.1-17.5-13.9-27.8-18.4c-0.3,0-0.4-0.3-0.5-0.4c-5.1-6.4-13.2-9.3-17.8-16.3c-0.1-0.1-0.7,0.1-1.6,0.1
			c0.4,2,0.1,4.3,1.2,5.5c4.4,5.1,6.7,11.1,7.5,17.5c0.8,6.5,2.7,12.3,8,16.8c2.7,2.1,2,3.9-1.3,5.7c-0.5,0.3-1.2,0.5-3.2,1.3
			c7.6,2.5,9.5,8.3,12.2,13.4c3.1,6,5.9,12.3,10.9,17.2c2.3,2.3,1.9,4.3-1.1,5.2c-1.1,0.4-2.5,0.5-3.7,0.4
			c-7.9-0.7-17.9-10.3-19-17.1c-0.4-2.7-1.7-5.2-2.7-7.9c-0.7,3.9-0.8,7.6-0.7,11.2c0.1,2.9-0.8,4.1-3.5,3.2
			c-9.5-3.2-19-6.4-19.1-19.1c0-0.1-0.1-0.3-0.7-1.2c-3.1,5.6-8.8,4.7-13.6,6.3c-0.8,0.3-2.9-1.1-2.9-1.6c-0.1-6.4-3.7-13,0-19.4
			c1.2-2.1,2.3-4.5,3.2-6.9c0.3-0.7,0.4-1.7,0-2.1c-2.9-3.3-6-6.5-9.1-9.9C625.2,52.9,624.9,52.6,624.6,52.3z M589,680.9
			c-0.5,0.8-0.9,1.7-1.3,2.5c-2.7,4.8-5.5,9.6-8.1,14.4c-0.3,0.7-0.4,1.7-0.1,2.4c0.9,2.1,0.5,4-0.3,6.1c-0.3,0.8,0.3,2.4,0.9,3.3
			c0.3,0.4,1.6,0.7,2.3,0.5c0.7-0.3,1.3-1.3,1.3-1.9c-0.8-8.8,3.3-16.7,4.1-25.1c0.5-0.8,0.9-1.7,1.3-2.5c0.5-0.4,0.9-0.9,1.3-1.3
			c0.1-0.1,0.4-0.4,0.7-0.5c-0.3,0.1-0.4,0.4-0.7,0.5C589.9,680,589.5,680.4,589,680.9z M414.4,697.8c0-1.7-0.8-2.5-2.5-2.5
			c-0.5-0.5-0.9-0.9-1.3-1.3c-0.8-0.4-1.7-0.9-2.5-1.3c-0.3-0.3-0.4-0.4-0.7-0.7c0.1,0.3,0.4,0.4,0.5,0.7c0.9,0.4,1.7,0.8,2.7,1.2
			c0.5,0.5,0.9,0.9,1.3,1.3c0.8,0.8,1.7,1.7,2.5,2.5c0.4,0.5,0.9,0.9,1.3,1.3c0.4,0.4,0.8,0.8,1.3,1.5c0.3,0.8,0.4,1.6,0.8,2.4
			c0.1,0.4,0.5,0.5,0.9,0.8c0-0.5,0.4-1.3,0.1-1.6c-0.5-0.7-1.2-1.2-1.9-1.7c-0.4-0.5-0.9-0.9-1.3-1.3
			C415.3,698.6,414.8,698,414.4,697.8z M483.6,37c0.3,0.1,0.4,0.4,0.7,0.5c0.1,0.3,0.4,0.5,0.5,0.7c-0.1-0.3-0.4-0.4-0.5-0.7
			C484,37.3,483.9,37.1,483.6,37z M554.1,49c-0.4-0.8-0.9-1.7-1.3-2.5s-0.9-1.7-1.3-2.5c-0.1-0.8-0.5-1.6-0.5-2.4
			c0.1-5.9-4.1-8.3-8.4-10.5c-0.3-0.1-0.4-0.4-0.7-0.5c0.3,0.3,0.4,0.4,0.7,0.7c3.1,4.4,6,8.7,9.1,13c0.5,0.8,0.9,1.7,1.3,2.5
			c0.4,0.9,0.8,1.7,1.2,2.7c0.4,0.4,0.8,0.8,1.3,1.2c0.4,0.9,0.8,1.7,1.2,2.7c-0.4,1.6-0.4,3.6-1.5,4.7c-1.6,1.6-1.6,2.9-1.1,5.1
			c1.5,6,4.4,11.5,5.7,17.6c0.8,3.6,4.5,6.5,7.2,10.1c3.2-12.4-1.3-28-10.4-37.5c-0.4-0.9-0.8-1.7-1.2-2.7
			C555.1,49.9,554.7,49.5,554.1,49z M715.3,61.6c0.3,0.1,0.4,0.4,0.7,0.5c0.1,0.7,0.3,1.2,0.4,1.7c0.3-0.1,0.4-0.3,0.7-0.4
			c-0.4-0.5-0.7-0.9-1.1-1.3C715.8,62,715.6,61.7,715.3,61.6z M531.4,79.6c0,0.1,0,0.3,0.1,0.4c0.1,0.1,0.4,0.1,0.5,0.3
			c1.3,4.1,1.9,4.4,4.8,2.5c1.3,0.4,2.8,0.9,4.3,1.2c3.2,0.5,5.5-0.3,6.7-3.6c0.9-2.4,2-4.8,3.2-7.1c3.3-6.1,0.1-11.9-5.9-15.5
			c-2.9-1.7-5.9-3.6-9.3-5.7c0,3.9,0.1,7.2,0,10.5c-0.1,3.5-0.3,3.5-3.9,2.1c-0.7-0.3-1.3-0.5-2.4-0.9c0.4,3.5,0.8,6.4,1.2,9.3
			c0.1,0.8,0.5,1.7,1.1,2.3c1.2,1.1,2.7,2,4,2.9c0.4-1.6,1.2-3.1,1.2-4.7c0.1-4.9,0-9.9,0.1-14.8c0-0.5,0.9-1.1,1.5-1.6
			c0.4,0.5,1.1,0.9,1.1,1.5c0.5,6.7,1.1,13.2,1.5,19.9c0.1,1.9,0,1.7-2.8,2.7c-0.5,0.1-0.8,0.9-1.2,1.5c-1.6-0.8-3.3-1.7-5.1-2.5
			C532,80,531.7,79.8,531.4,79.6z M408.5,20c0,0.1,0,0.3,0.1,0.4c0.1,0.1,0.4,0.1,0.5,0.3c0.4,2.3,0.8,4.5,1.2,7.3
			c2.7-3.9,2.7-3.9-1.2-7.3C409,20.4,408.7,20.3,408.5,20z M464,722.9c1.1-4.7-1.1-8-4.3-10.9c-2.3-5.3-6-8.9-11.6-10.5
			c-0.5-0.3-0.9-0.7-1.3-0.9c-0.1,0.3-0.3,0.4-0.4,0.7c0.7,0.1,1.2,0.3,1.7,0.4c3.9,3.5,7.7,6.9,11.6,10.4
			C460.8,715.7,461.9,719.5,464,722.9z M451.2,719c0,0.1,0,0.3,0.1,0.4c0.1,0.1,0.4,0.1,0.5,0.3c0.1,0.4,0,0.9,0.3,1.2
			c2.7,3.7,5.3,7.5,8.1,11.3c0.4-5.6-2.5-9.9-8.4-12.6C451.7,719.4,451.5,719.3,451.2,719z M527.6,704.7c0,0.1,0,0.3,0.1,0.4
			c0.1,0.1,0.4,0.1,0.5,0.3c4.8,6.9,9.5,13.9,14.2,20.7c0.1,0.5,0.1,1.3,0.4,1.7c0.4,0.5,1.1,0.9,1.6,1.3c-0.1-0.7-0.1-1.5-0.5-2
			c-0.4-0.5-0.9-0.7-1.5-1.1c-1.2-6.3-5.2-11.1-8.8-15.9c-1.3-1.9-2-4.9-5.3-4.8C528.1,705.2,527.8,705,527.6,704.7z M497.7,150.1
			c-0.7,3.7-1.2,6.5-1.6,9.5c-0.3,1.9,0.1,3.2,2.4,3.7c2,0.5,3.9,1.9,5.7,2.8c1.6-3.1,3.1-6.3,4.7-9.5c0.3-0.3,0.4-0.4,0.7-0.7
			c-0.1,0-0.3,0-0.4,0.1c-0.1,0.1-0.1,0.4-0.3,0.5C503.7,157.7,500.3,155.1,497.7,150.1z M328.4,80.8c-4.9-0.9-6.4-0.3-8.8,4.1
			c-0.4,0.7-0.7,1.6-1.1,2.3c-3.2,5.2-1.9,10,1.9,15.1c2.4-3.9,6.1-6.1,6.3-11.1c0.1-2,2.8-4,4.5-5.9c1.2-1.5,2.8-2.5,4.3-3.7
			c0.1-0.3,0.4-0.4,0.7-0.7c-0.1,0-0.3,0-0.4,0.1c-0.1,0.1-0.1,0.4-0.3,0.5C333.2,81.3,330.8,81.2,328.4,80.8z M297.5,58.9
			c-0.3-0.1-0.7-0.1-0.9-0.1c-1.1,2.9-2.3,5.9-3.2,8.8c-0.7,1.9-0.8,3.6-1.2,5.5c2.8,0.3,2-2.7,3.3-3.7c1.1-0.8,2.4-1.3,3.7-2
			c-2.9,4.7-3.2,10.4-5.9,15c-0.5,0.9-1.1,2.1-0.9,3.1c0.3,1.9,0.5,3.9,1.6,5.2c1.5,1.9,2.4-0.7,3.6-1.2c5.9-2.8,10-7.2,12.2-13.4
			c0.3-1.1,0.8-2,0.9-3.1c0.4-2.8,0.7-5.7,0.9-8.7c-3.7,1.7-0.9,5.3-2.4,7.9c-1.2,2-1.7,4.3-2.9,7.5c-2.7-4.7-4.9-8.5-7.1-12.3
			C298.6,64.5,297.9,61.7,297.5,58.9z M444.3,47c0.1,3.5,0.3,7.1,2.5,10c0,2.5,0.1,5.1,0.1,7.7c0,1.2-0.3,3.1-0.9,3.5
			c-4.3,2.3-3.5,6.4-3.3,9.6c0.1,3.3-0.7,7.3,3.1,10c1.6,1.2,2.5,3.2,4,5.2c1.3-4.8,2.3-9.2,3.9-13.2c1.9-4.8,0.5-9.3-1.2-13.6
			c-1.3-3.3-3.7-6.1-5.6-9.2C446.9,53.3,445.3,50.2,444.3,47z M529.3,135.1c0.5-0.5,1.3-1.1,2-1.9c3.1-3.6,2.8-4.1-2-5.2
			c-1.6-0.4-3.2-0.9-4.8-1.5c-1.1-0.3-2.5-0.9-3.3-0.5c-1.3,0.8-2.4,2.3-3.5,3.6c-1.6,1.9,0.1,3.3,0.9,4.5c1.9,3.2-0.8,4.7-2,6.8
			c-0.5,0-0.9,0.1-1.3,0c-1.6-0.3-4.7-0.4-4.7-0.9c-0.3-2.8,2.4-1.5,3.7-2.1c1.9-0.9,2.3-1.9,1.1-4c-1.9-3.2-3.2-6.5-4.5-9.9
			c-0.3-0.4,0.5-1.3,0.8-2c0.7,0.4,1.5,0.8,1.9,1.3c0.7,1.2,1.2,2.7,1.7,4.1c3.9-3.7,3.9-3.7-0.4-5.7c-0.8-0.4-1.5-0.9-2.3-1.2
			c-1.5-0.4-2.9-0.5-4.7-0.8c0,1.6-0.1,3.3,0,4.9c0.3,2.3,0.8,4.7,0.9,6.9c0.1,3.9,0.3,7.7,0,11.6c-0.4,4.4,4.5,6,4.1,10.4
			c2-1.5,4.3-2.3,1.9-4.7c-0.8-0.7-1.3-1.6-1.9-2.5c0-0.3,0.3-0.8,0.5-1.1c0.3-0.1,0.9-0.3,1.1-0.1c1.3,1.3,2.5,2.8,4.5,5.1
			c-1.1-3.7-1.7-6.5-2.5-9.3c1.7-0.1,3.3-0.4,4,2c0.5,2.3,1.7,4.4,2.3,6.7c1.5,6.4,5.5,9.9,13,10.7c-3.9-4.8-4.5-10.1-6.3-15.2
			c-1.7-5.2-4.1-10.1-6.7-15.1c-1.1-2.1,0-2.7,1.5-3.2C526,129.6,527.6,132.3,529.3,135.1z M805.3,50.2c5.5-9.1,5.5-9.1,1.9-18.8
			c-0.9-2.7-2-5.2-3.6-7.5c-1.7-2.7-3.7-2.4-5.2,0.4c-0.9,1.7-1.5,3.6-2.3,5.3c-1.1,2.3-0.8,4.3,0.1,6.7c2.4,5.9,4.4,12,6.5,18
			c-2.1,0.5-4.1,1.1-6,1.5c-2.8,0.4-2.9,0.7-2,2.9c1.5,3.9,3.9,4,5.5,0.5c0.7-1.7,1.7-3.3,2.5-4.9C803.6,53,804.5,51.5,805.3,50.2z
			 M221.3,107.9c-0.7,1.1-0.9,2.4-1.1,3.6c-0.4,4.8,0.4,9.3,2,13.9c1.3,3.9,2.1,3.7,5.2,1.3c4.8-3.7,6.5-9.3,8.9-14.6
			c0.5-1.1-0.1-2.9-0.8-4c-2.4-3.7-5.1-7.3-7.6-11.1c2.9-2.4,3.9,1.6,6.7,2c-0.7-4.1-1.3-8-2.1-13c-3.5,3.6-3.9,7.3-4.5,10.9
			C225.8,100.7,223.6,104.3,221.3,107.9z M198.3,196.7c-3.6,2.3-4.4,4.3-3.6,9.3c0.7,4.1,2,8.3,2.7,12.4c0.4,2.4-0.1,5.1,0.1,7.5
			c0.3,2.5,1.7,3.5,3.9,2.3c3.1-1.7,4.3-4.1,4.4-7.3c0.5-7.3,1.1-14.8,1.2-22.3c0-2.9,1.5-4.8,2.8-6.9c0.5-0.4,1.2-0.7,1.3-1.1
			c0.3-0.4,0-0.9,0-1.3c-0.4,0.3-0.8,0.4-0.9,0.7c-0.1,0.5-0.3,1.2-0.4,1.7C205.7,192.5,201.9,194.3,198.3,196.7z M221.3,150.2
			c-0.4-0.7-0.8-1.3-1.3-1.9c0-0.1-0.7,0.4-0.7,0.4c0.4,0.7,0.8,1.3,1.2,2c0.3,0.4,0.7,0.5,1.1,0.7c-1.1,1.7-2.5,3.5-3.2,5.3
			c-2.7,7.7-3.6,15.9-3.1,24c0.1,0.8,0.7,1.6,0.9,2.4c0.7,2,2,2.1,3.3,0.7c4.5-5.2,9.5-9.9,12.2-16.4c1.7-4.3,1.7-6-1.6-9.2
			c-2.7-2.5-5.7-4.5-8.5-6.8C221.5,151,221.5,150.6,221.3,150.2z M249.2,90.9c0.5-0.9,0.1-2.4-0.1-3.6c-0.7-2.5-1.6-4.8-2.3-7.3
			c-0.9-3.2-0.9-6.3,0.4-9.5c2.4-5.6,2.3-5.6-2.5-9.3c-1.1-0.8-2-1.7-3.2-2.8c-7.3,13.6-6.7,27.2-3.1,41.3c-0.4,0.3-0.8,0.5-0.9,0.8
			c-0.4,1.3-0.5,2.5-0.8,3.9c0.1,0,0.5,0,0.5,0c0.4-1.1,0.8-2.3,1.1-3.3c0.1-0.4,0.1-0.8,0.3-1.2C244.4,99.7,246.8,95.2,249.2,90.9z
			 M393.9,63.8c0.3-0.1,0.4-0.3,0.7-0.4c-0.3-0.5-0.5-0.9-0.9-1.3c0-1.7,0.1-3.5-0.5-5.2c-2.1-8.1-0.3-15.1,5.2-21.4
			c1.6-1.9,1.3-3.2-0.8-4.7c-2.7-1.9-5.9-1.6-8.7-0.7c-6.3,2-12.6,3.9-19.2,4.8c-1.2,0.1-2.5,1.5-3.3,2.5c-2.8,4-2.9,8.9-3.9,13.5
			c-0.3,1.2-0.4,2.5-0.5,3.7c10.4,1.5,13.9-0.5,18.6-10.3c0.3-0.4,0.4-1.1,0.5-1.1c7.7-0.4,9.3-7.9,14-11.7c0.1-0.1,0.4-0.1,1.2-0.3
			c-1.1,3.7-2.5,6.8-5.2,9.3c-1.2,1.2-2.5,2.4-3.6,3.7c-0.5,0.8-1.2,2.1-0.9,2.8c2.3,5.1,4.8,9.9,7.2,14.8
			C393.8,62.8,393.9,63.3,393.9,63.8z M653.3,44.7c0-0.1-0.5-0.3-0.9-0.4c-0.1,0.4-0.4,0.8-0.3,1.1c0.5,0.9,1.2,1.7,1.7,2.5
			c0,3.2,0.7,5.9,2.3,8.8c2.4,3.9,4.3,8.3,7.9,11.5c0.4,0.3,0.5,1.3,0.3,1.6c-0.5,0.5-1.5,1.3-2.1,1.2c-2.3-0.4-4.5-1.1-6.8-1.5
			c-0.9-0.1-1.9,0.1-2.8,0.1c0.1,0.8,0,2,0.4,2.4c2.1,2,1.6,3.6,0.1,6c-3.9,6.5-2.5,13.5,1.2,19.5c2.4,3.9,7.5,4.7,11.9,5.7
			c0.4,0,1.6-1.1,1.6-1.6c0.8-8-0.1-15.9-3.9-23.1c-0.5-1.1-1.7-1.9-2.5-2.8c-0.7-0.8-2.8-0.9-1.6-2.7c0.3-0.4,2.4,0,3.3,0.7
			c3.7,2.5,8.3,2.4,12.3,3.6c0.3,0.1,0.9-0.5,1.3-0.9c0.1-0.1,0-0.9-0.3-1.1c-7.3-3.5-6.8-10.9-8-17.1c-0.9-4.8-2.1-9.2-4.4-13.4
			c-1.9,2.7-1.7,2.7-2.3,5.9c-0.3,1.2-0.7,2.8-1.5,3.2c-1.9,1.1-2.4-1.1-3.3-2.1c-0.9-1.3-2-2.7-3.1-4
			C653.6,46.9,653.6,45.8,653.3,44.7z M426.1,706.6c-1.2,1.3-2.9,2.7-4.7,3.3c-7.3,3.1-14.7,5.7-22,8.5c-7.3,2.8-14.8,5.6-22.2,8.4
			c-0.9,0.4-1.7,1.1-3.9,2.3c2.5,0.3,3.9,0.5,5.2,0.5c5.5,0,10.9-0.9,16.4,0c8.1,1.3,14-3.2,19.6-7.9c2.9-2.4,5.6-5.3,8.3-8.1
			c2.7-2.7,5.5-4.7,8.9-6.1c3.6-1.5,5.9-4.8,6-8.9c0-1.7,0.5-2.4,2-2.4c5.3,0.1,7.3-3.9,9.6-7.5c3.7-6.3,6.1-13.1,7.2-20.4
			c0.4-2.1,0.9-4.1,1.3-6.3c0.4-2.1,1.5-3.5,4.1-4.5c-3.2,14.3-3.9,28.7-15.9,39.7c10.7,2.4,16,10.3,21.1,18.2
			c4-3.3,7.6-6.4,11.3-9.3c0.5-0.3,1.5,0,2.3,0c-0.3,0.8-0.3,1.6-0.7,2.3c-0.3,0.5-0.8,1.1-1.3,1.3c-6.1,3.3-9.2,8.8-11.2,15.1
			c-1.1,3.5-3.1,6.7-4.1,10.1c-2.7,8.8-1.3,18-1.3,27c0,2.4,1.7,3.5,4.1,2.7c2-0.7,4.3-1.5,5.7-2.8c5.6-5.2,13-7.5,19.5-11.1
			c6.5-3.6,13.4-6.7,20-10c2.1-1.1,4-2.4,6.1-3.5c3.5-1.9,6.7-4,6.4-8.7c0-0.9,0.4-2.1,1.1-2.9c0.4-0.7,1.5-0.9,2.3-1.5
			c0.3,0.9,0.8,1.7,0.9,2.7c0,1.1-0.4,2.1-0.4,3.2c-0.1,1.9,0.4,3.2,2.5,2.1c2.1-1.2,3.7,0,5.5,0.8c1.1,0.4,1.9,1.1,2.9,1.3
			c1.6,0.4,3.9,1.2,4.7,0.5c1.7-1.6-0.7-2.8-1.5-4.1c-5.3-8.8-10.4-17.9-17.9-25.1c-0.5-0.4-1.1-0.9-1.2-1.5c-0.3-0.8-0.5-2-0.1-2.4
			c0.7-0.7,2-1.5,2.7-1.2c2.1,0.8,4.5,1.6,6.1,3.2c3.1,3.2,5.9,6.8,8.7,10.3c1.1,1.3,2,2.7,3.6,4.8c0.7-3.1,1.2-5.3,1.7-7.5
			c0.1-1.1,0.3-2.3,0.8-3.1c0.3-0.5,1.2-0.9,2-1.1c0.3-0.1,0.9,0.8,1.1,1.3c0.1,1.3,0.1,2.5,0.1,3.9c0,4.3,0.1,8.7-0.1,13
			c-0.4,6,2.8,9.6,7.5,12.4c4.9,3.1,10.4,3.9,15.9,5.1c7.5,1.7,15.4,0.7,22.7,3.7c0.3,0,1.6-1.3,1.5-2c-0.1-1.2-0.8-2.4-1.5-3.5
			c-1.6-2.9-3.3-6-5.1-8.9c-1.7-2.8-2.7-5.9-2.1-9.2c0.8-4.9-1.5-7.6-5.9-9.2c-6.4-2.4-12.7-5.1-19-7.9c-6.5-2.9-12.4-6.8-16-13.4
			c-0.5-0.9-0.9-1.9-1.3-2.9c-0.1-0.3,0.3-0.9,0.5-1.1c0.5-0.1,1.3-0.3,1.6,0c0.7,0.5,1.1,1.3,1.5,2.1c4.9,8.7,13.4,12.6,22,15.8
			c1.1,0.4,2.1,0.4,3.2,0.4c0.4,0,1.2-0.7,1.2-1.1c0-1.9,0.5-4-0.3-5.5c-0.7-1.1-2.8-1.6-4.4-2c-4.7-1.1-9.6-1.9-14.4-2.7
			c-0.4,0-0.9,0.1-1.2-0.1c-0.8-0.8-1.5-1.9-2.1-2.8c1.2,0,2.3,0,3.5,0c0.3,0,0.4-0.1,0.8-0.3c-2.9-3.5-5.5-6.9-8.5-10.1
			c-4.4-4.5-6.3-9.9-6.7-16.2c-0.4-7.5-1.5-15-2.5-22.3c-0.7-3.9-2-7.5-2.9-11.2c-3.2-12.4-6.4-24.8-9.5-37.3
			c-0.3-1.1-0.3-2.1-0.4-3.2c-0.9-9.5-1.7-19.1-2.8-28.7c-0.3-3.2-1.6-6.3-2.3-9.3c-2.7-13-5.3-25.9-8-38.9
			c-1.3-6.7-3.1-13.4-4.3-20c-0.9-5.5-1.3-11.1-2.1-16.6c-1.7-12.4-1.1-25-1.5-37.4c-0.1-6-1.5-11.9-2.3-17.8
			c-0.1-0.5-0.1-1.2-0.1-1.9c-0.4-5.3-0.7-10.7-1.3-16c-1.6-13-3.2-25.9-6-38.6c-1.6-7.2-1.9-14.8-3.1-22.2
			c-1.2-7.1-2.8-14.2-4.1-21.4c-1.3-7.3-2.4-14.8-3.6-22.2c-0.1-1.1-0.1-2.3-0.5-3.2c-1.9-5.2-1.9-10.5-2.1-15.9
			c-0.4-7.5-1.6-14.8-2.3-22.3c-0.7-7.5-1.2-15-1.5-22.4c-0.3-7.1-0.4-14.3,0-21.4c0.4-5.7,1.5-11.3,2.3-17.1c0.9-6.9,1.9-14,2.8-21
			c0.5-4.3,0.1-8.8,1.6-12.7c5.5-13.8,7.1-28.6,12-42.5c3.2-8.9,4.7-18.6,7.3-27.8c1.6-6,3.9-11.7,6.1-17.5c1.1-2.5,0.7-4.7-0.4-7.2
			c-1.6-3.9-2.3-8.1-3.6-12.2c-0.3-0.7-1.3-1.2-2-1.9c-0.5,0.8-1.3,1.6-1.3,2.4c0.1,3.2,0.8,6.3,0.9,9.5c0,1.6-1.1,2.3-2.7,1.5
			c-1.7-0.9-3.3-1.9-5.5-3.2c0.1,2.3,0.4,4.1,0.4,6.1c0,2.4,0.5,4.8-0.1,7.1c-1.6,6-0.3,11.2,3.1,16.2c1.3,2,1.2,4,0,6.1
			c-2.4,4.3-4.7,8.7-6.9,13.1c-7.5-4.8-12-14.7-10.4-22.2c3.3-2.7,0.3-5.1-0.3-7.7c-0.8-3.5-1.7-7.5-0.8-10.7c1.2-4,0-6.1-2.7-8.3
			c-0.7-0.5-1.3-1.1-2-1.7c-1.9,7.9-3.7,15.8-5.7,23.5c-0.9,3.6-1.1,3.5-4,1.3c-0.7-0.5-1.2-1.1-2.8-2.4c0.3,4-0.1,7.2,0.8,10.1
			c1.1,3.5,0.5,6.3-1.2,9.2c-1.6,2.8-3.2,5.6-4.8,8.4c-1.2,2.3-3.2,2.7-5.5,2c-4.4-1.3-8.4-6.4-8.7-11.1c0-1.1,0-2.1,0-3.2
			c0-8.3,0-8.3-3.9-15.5c-2.5-4.7-1.1-9.6-1.2-14.6c0-1.3,0.1-2.8,0.3-4.1c-2.5,0.7-1.5,2.7-1.5,4.1c0,3.6-0.5,6.8-2.1,10
			c-1.3,2.7-1.5,5.9-2.7,8.5c-2,4.4-3.3,8.8-3.5,13.9c-0.1,3.7-2,7.3-3.1,11.1c-0.1,0.7-0.4,1.2-0.5,1.9c-0.8,2.8-1.6,5.7-2.4,8.5
			c-3.1-0.4-4.1-3.6-6.7-5.1c-2.3-1.3-3.9-1.2-5.7,0c-3.7,2.4-6.1,5.9-7.1,10.3c-0.5,2.8-1.1,5.5-1.9,8.1c-0.5,2.1-2.8,2.5-3.9,0.7
			c-2.3-3.9-5.1-7.6-4.8-12.4c0.3-4.7,0.8-9.3,1.2-14c0.3-4.3,2.4-7.5,6-9.3c3.1-1.7,3.5-4.1,2.9-7.1c-0.1-0.8-0.9-2.1-1.7-2.3
			c-6.5-1.7-10.8-6.7-15.6-12.4c-1.2,5.3-2.3,9.9-3.1,14.4c-1.1,5.7-1.9,11.5-2.9,17.1c-1.5,7.7-3.6,15.5-4.7,23.2
			c-1.1,7.7-2.1,15.6-1.7,23.5c0.3,4.7-0.8,9.3-1.3,14c-0.3,3.1-0.8,6.3-1.1,9.5c-0.7,9.3-1.7,18.8-1.7,28.2c0,7.3,1.2,14.8,2,22.2
			c0.7,6.7,1.5,13.5,2.3,20.3c0.4,4.1,0.8,8.1,1.3,12.2c0.4,3.6,0.9,7.2,1.3,10.8c0.8,7.6,1.6,15.4,2.4,23
			c0.8,7.5,1.9,14.8,2.7,22.3c0.1,1.5-0.5,2.9-0.5,4.4c-0.3,7.5-0.4,15.1-0.4,22.6c0,3.1,0.8,6.3,0.9,9.5c0.4,9.2,0.7,18.4,1.3,27.6
			c0.7,8.8,1.5,17.5,2.7,26.2c1.1,7.7,3.1,15.5,4.4,23.2c1.3,7.3,3.7,14.6,3.3,22.2c0,2,0.9,4.1,1.2,6.3c0.8,7.2,1.9,14.4,2.1,21.6
			c0.3,8.5,2.1,16.8,4.1,25.1c2,8.5,3.9,17.1,5.1,25.8s4,17,6,25.5c2.5,10.5,6,20.8,7.3,31.8c0.8,6.3,2.8,12.6,3.9,18.8
			c1.5,8.5,2.7,17.1,3.1,25.8c0.4,7.3,0.8,14.8,3.1,22.2c3.3,10.9,1.6,21.5-3.5,31.8c-1.6,3.5-4.3,6.5-4.1,10.7
			c-0.1,0.1-0.4,0.4-0.7,0.7c0.1,0,0.3,0,0.4-0.1c0.1-0.1,0.1-0.4,0.3-0.5C425.2,704.2,426.8,704.8,426.1,706.6z M455.5,712.7
			c-3.5-4-7.6-6.9-12.2-9.5c-2.4-1.3-4.1-0.7-5.1,1.6c-1.5,3.9-4.3,5.6-8,6.7c-1.9,0.5-3.3,2-4.8,3.2c-1.9,1.5-3.5,3.2-5.1,4.9
			c-5.7,6.7-13.2,11.2-21,15.5c-0.7,0.4-1.5,0.8-2.1,1.3c-0.1,0.1-0.1,0.4-0.4,1.1c6.4,0.8,12.7,0.4,19,0.1
			c3.9-0.1,7.6-0.8,11.5-1.1c4.9-0.4,9.7-1.1,14.7-1.1c4.1,0,8.3,0.5,12.4,0.9c2,0.1,3.1-0.9,2.4-2.7c-0.9-2.1-2-4.4-3.3-6.3
			c-2.3-3.1-4.9-5.9-7.3-8.9c-0.5-0.8-0.8-1.7-1.2-2.7c1.1-0.4,2.4-1.5,3.3-1.2c2.3,0.5,4.4,1.6,6.5,2.5c0.9,0.4,2,1.2,3.3,2
			C458.4,716.2,457.1,714.2,455.5,712.7z M308.5,57.7c0-5.6-0.3-11.2,0-16.8c0.4-7.5,3.5-13.6,10-17.6c0.5-0.3,1.5,0.1,2.3,0.1
			c-0.3,0.8-0.3,1.7-0.7,2.1c-1.6,1.7-3.6,3.1-5.1,4.8c-4.7,5.5-4.1,12-3.5,18.4c0.1,1.3,0.9,2.5,0.8,3.7c-0.7,5.5,1.2,10,4.8,14.6
			c0.7-0.7,1.3-1.3,1.7-2.1c3.2-7.3,5.1-15,6.3-22.8c0.1-1.5,0-3.2-0.7-4.4c-2.1-4.3-1.3-8.5-0.5-12.8c0.7-3.6,0.7-3.6,4.5-3.1
			c1.7,0.3,2.9,0.1,3.2-2c0.1-1.5,0.7-2.8,0.9-4.3c-0.4-0.1-0.9-0.4-1.1-0.3c-5.6,5.3-13.5,5.2-20,8c-1.7,0.7-2.9-0.1-3.6-1.7
			c-0.5-1.3-1.1-2.7-2-4.7c-1.1,2.8-1.7,5.1-2.7,7.1c-2.3,5.2-7.2,7.5-12,9.1c-5.5,1.9-8,5.1-8,10.7c0.5-0.1,1.1,0,1.3-0.3
			c3.6-3.1,8.8-2.9,12.2-5.3c3.3-2.5,4.8-7.5,9.2-9.5c1.3-0.5,2.5-1.2,4.4-0.8c-0.8,0.8-1.5,1.6-2.4,2.1c-6.3,4-9.3,10-9.7,17.2
			c-0.3,5.9,3.5,18.4,7.5,24.6C306.7,67,308.2,62.4,308.5,57.7z M203.7,59.9c-3.7,3.1-4.7,7.6-5.3,12c-0.7,4-0.8,8.1-1.1,12.2
			c-0.1,0.8,0.7,1.7,1.1,2.7c0.3,0.7,0.7,1.5,0.5,2.1c-0.3,2.7,0,3.2,2.3,2.8c3.7-0.5,6.4-2.7,8.1-5.7c1.9-3.2,3.3-6.3,3.5-10.5
			c0.1-6.5,2.5-13,3.9-19.4c0.4-1.6,0.7-3.2,1.2-6.1C212.3,53.8,207.9,56.7,203.7,59.9z M371.5,125.8c-3.1,0.5-4.9,2.1-6.1,4.9
			c-1.6,4-3.5,7.9-5.2,11.7c-0.5,1.1-1.6,2.4,0.1,3.2c0.9,0.5,2.7,0.5,3.5-0.1c2.5-2.1,4.5-4.8,7.1-6.7c4.1-3.1,5.2-7.7,5.6-12
			c0.8-8.7,3.1-16.8,5.1-25.1c0-0.4-0.1-0.8-0.3-1.6c-6.7,2.4-12.7,5.3-15.6,12.6c-0.9,2.5-2.9,4.7-4.5,6.9c-1.5,2-0.5,3.3,1.5,3.7
			c2,0.4,4.1,0.3,6.3,0.1c2.1-0.1,4.1-0.5,6.1-0.8c0,0.5,0.1,0.9,0.3,1.3C374,124.6,372.8,125.4,371.5,125.8z M516.4,42.2
			c3.3,5.2,7.1,10.1,10.7,15.1c0.7,0.9,1.5,1.6,2.4,2.1c1.2,0.8,2.5,1.2,3.9,1.9c0-1.3,0-2.8,0-4.1c0.3-6.1-0.7-12.3-2.7-18.2
			c-1.5-4.4-3.3-8.8-5.2-13.2c-0.5-1.3-1.7-2.5-2.8-3.5c-2.5-2.4-4.5-2.1-5.9,1.2c-1.3,3.5-2,7.2-3.2,11.5
			C514.5,37.4,515.2,40.1,516.4,42.2z M220.3,52.6c-0.5,1.6-0.7,3.3-1.3,4.9c-1.9,4-0.3,8,0.1,11.9c0.3,1.7,1.7,1.9,2.9,1.2
			c6.7-3.7,12.2-8.7,15.6-15.6c0.7-1.3,0.7-3.5,0.3-4.9c-1.6-5.3-3.6-10.5-5.5-16C226.1,39,222.9,45.7,220.3,52.6z M227.7,87.2
			c1.1-4.7-1.3-8.3-2.7-12.3c-0.3-0.5-1.7-1.1-2.1-0.8c-1.9,1.1-3.9,2-5.1,3.6c-2.9,4.1-5.9,8.4-8.1,13c-0.9,2-0.9,5.1-0.4,7.3
			c1.1,4.3,2.8,8.4,4.7,13.5C221,103.9,225.8,96.4,227.7,87.2z M787.7,50.2c2.5,2.4,5.6,2.9,8.9,2.7c1.7-0.1,2.4-1.2,1.9-2.7
			c-3.3-9.9-6.1-20-14-27.6c-1.7-1.9-3.1-4.1-4.8-6c-0.7-0.8-2.4-1.6-3.1-1.3c-1.3,0.7-3.1,2-3.3,3.3c-0.7,3.6-0.5,7.2,2.9,9.9
			c3.1,2.5,6.1,5.3,8.7,8.4c2.5,3.2,2,4-2,4.7c-0.8,0.1-1.7,0.1-4,0.3C782.5,45.3,785.1,47.8,787.7,50.2z M228.5,152.7
			c1.9,1.5,3.3,1.3,3.7-0.9c0.7-3.7,1.1-7.5,1.2-11.2c0.3-3.5-0.1-6.8-0.1-10.3c0-0.5,0.9-1.2,1.5-1.7c0.4,0.7,1.1,1.3,1.1,2
			c0.3,1.9,0.1,3.9,0.1,5.7c-0.1,4.4,2.4,7.1,5.7,9.3c0.5,0.4,1.6,0.1,2.3-0.1c0.3,0,0.4-1.1,0.3-1.6c-0.9-3.5-1.6-7.1-3.1-10.4
			c-2-4.3-2.7-9.2-3.9-13.9c-3.1,3.3-5.9,6.9-9.1,10.3c-3.9,4.1-4,4-9.1-0.8C218.6,139.3,220.7,147,228.5,152.7z M248.4,25.4
			c-0.3-2.9-2.1-4.4-5.2-4.5c-4.3-0.3-5.2,0-6.1,3.7c-0.8,3.2-1.6,6.8-0.9,10c1.2,5.6,3.2,11.1,5.2,16.4c0.8,2.1,2.4,4,4,5.7
			c1.7,1.9,2.8,1.6,3.2-0.9c0.8-4.5,1.2-9.2,1.7-13.6C249.7,36.3,249.2,30.8,248.4,25.4z M529,79.4c-0.7-5.3-1.5-10.5-2.5-15.8
			c-0.4-2.1-1.5-4.1-2.7-5.9c-2.5-3.9-5.5-7.6-8.1-11.5c-0.8-1.1-1.5-2.3-2.8-0.9c-0.5,0.7-1.1,2-0.8,2.5c2.1,3.2,1.2,5.5-2,7.3
			c-0.5,0.3-1.1,1.5-0.9,2.1c2.3,9.7,6.7,18,15.8,23c0.9,0.5,2,0.8,3.3,1.3C528.8,80.8,529.4,80.1,529,79.4z M428.4,55.3
			c-0.9-5.9-1.5-11.7-2.7-17.6c-0.9-4.1-2.5-8.1-4.1-12.2c-0.8-2.1-2.3-2.4-4-0.9c-2.5,2.3-4.5,5.1-4.5,8.8c0.1,2.1,0.1,4.3,0,6.4
			c-0.3,6,2.1,10.8,6.3,14.8c3.1,2.9,6.5,5.6,10.9,9.3C429.4,60.1,428.9,57.7,428.4,55.3z M267.7,19.4c-7.9,8-10.5,18.3-11.9,29
			c-0.3,1.5,1.2,2.3,2.7,1.7c3.2-1.1,6.5-1.9,8.9-4.7c1.1-1.3,2.4-2.5,3.6-3.7c2.5-2.7,4-5.3,1.7-9.1c-0.8-1.5-0.7-3.7-0.1-5.5
			c0.9-3.1,2.5-5.9,3.6-8.9c0.3-0.7-0.4-1.7-0.5-2.5C272,15.6,269.7,17.2,267.7,19.4z M342.1,78.9c1.1,0,2.3-0.9,3.3-1.6
			c1.7-1.1,3.3-2.5,5.1-3.7c0.7-0.4,2-0.7,2.3-0.3c1.3,1.2-0.5,1.5-0.9,2.3c-0.9,1.7-1.3,4.1-2.7,5.6c-1.3,1.5-4.1,1.7-5.3,3.3
			c-2.1,2.8-3.6,6.3-5.3,9.5c-0.1,0.3,0,0.9,0.3,1.1c0.5,0.3,1.3,0.7,1.7,0.4c2.9-1.7,5.7-3.6,8.5-5.6c0.4-0.3,0.5-1.1,0.5-1.7
			c0.1-4.3,2.1-7.7,4.9-10.8c1.2-1.3,1.3-2.3,0.8-4c-0.9-3.1-1.5-6.1-1.9-9.3c-0.4-2.9-1.3-3.7-3.6-2.3c-1.5,0.9-2.9,0.9-4.4,1.3
			c-2.7,0.8-5.1,2.9-7.2,4.9c-1.6,1.5-2.4,3.6-4,4.9c-1.3,1.1-3.3,1.3-4.9,2.1c-0.8,0.3-1.5,0.8-3.6,2.3
			C332.1,78,337,78.5,342.1,78.9z M737.6,6.7c-2.1,0.8-3.9,5.6-2.7,7.7c1.3,2.4,3.1,4.7,4.9,6.7c0.5,0.7,2.7,0.5,3.3-0.1
			c2-1.9,3.9-3.2,6.8-3.1c1.1,0,2.4-0.8,3.2-1.7c3.6-4,7.9-7.1,12.6-9.6c1.1-0.7,1.9-2,2.8-3.1c-1.2-0.9-2.5-1.7-3.2-2.3
			C755.5,3.1,746.4,3.7,737.6,6.7z M261.6,78.9c-1.3-5.7-1.1-11.9-3.3-17.5c-0.4-0.9,0.1-2.4,0.3-3.6c0.5-3.3,0.3-3.9-2.9-5.3
			c-2-0.9-3.1-0.3-2.8,1.7c0.4,2.5-2,5.3,0.9,7.6c0.4,0.3-0.3,2-0.7,2.9c-1.2,2.8-2.8,5.3-3.7,8.1c-0.5,1.6-0.8,3.7-0.1,5.1
			c2.8,6.3,4.8,13,9.9,18c0.9,0.9,2.1,1.1,2.4-0.4c0.5-3.3,0.9-6.7,1.5-10.8C262.5,83.3,262.1,81.3,261.6,78.9z M753.5,35.2
			c1.5,0.8,3.1,1.9,4.7,2c6.9,0.7,13.9,1.1,20.8,1.3c0.9,0.1,1.7-0.7,2.7-1.1c-0.4-0.7-0.7-1.6-1.2-2.1c-4.1-3.6-8.3-7.5-12.7-10.7
			c-2-1.5-4.4-3.3-7.6-1.6c-0.9,0.5-2.9-0.4-4.1-1.2c-2-1.3-3.7-0.9-5.3,0.3c-0.9,0.7-1.3,1.9-1.2,1.7
			C749.5,29.1,749.5,33.1,753.5,35.2z M483.2,31.1c3.2,5.1,6.9,9.9,11.1,14.2c2.7,2.9,6.5,4.8,10,6.8c1.2,0.7,2.8,0.9,4.3,0.8
			c1.7-0.1,2.8-1.2,1.6-3.1c-3.1-4.9-6.1-9.9-9.2-14.7c-0.3-0.5-0.8-0.9-1.3-1.3c-6.3-4.5-12.6-8.9-19-13.5
			C480.4,24,481.2,27.9,483.2,31.1z M639.6,9.9c-1.7-2.5-3.9-2.1-5.6,0.5c-3.6,5.5-2.7,15.5,2.1,20.3c3.9,3.9,7.3,8.7,13.6,10.1
			C650.9,28.6,645.9,19,639.6,9.9z M658.6,10.5c-0.7,2.7-1.1,5.9,0,8.1c2.1,4.8,5.1,9.3,8.1,13.8c1.5,2.3,4.4,3.2,5.1,6.3
			c0.1,0.4,1.1,0.8,1.6,0.8c0.4,0,1.1-0.8,1.1-1.2c0-2.1,0.1-4.3,0-6.4c-0.5-10.8-3.9-20.6-10.7-29c-0.4-0.4-1.1-0.7-1.7-1.2
			C660.8,4.8,659.1,7.7,658.6,10.5z M247.2,154.9c-0.5-2-1.6-3.9-3.9-4.8c-1.9-0.8-3.3-2.1-4.9-3.1c-1.2-0.7-2-0.3-2.3,1.1
			c-0.5,2.4-0.9,4.9-1.3,7.5c-0.1,0.5-0.1,0.9-0.1,1.3c0.4,2.8,2.8,4.8,1.6,8.3c-0.9,2.4,0.1,5.9,1.1,8.7c1.1,3.2,2.9,6.1,4.8,8.9
			c0.9,1.5,2.5,1.1,3.2-0.3c0.9-1.7,1.6-3.6,1.9-5.5c0.5-4.4,0.5-8.9,0.9-14.6C247.9,160.8,247.7,157.7,247.2,154.9z M609.4,703.5
			c-5.7-2.3-11.7-3.6-17.8-5.2c-3.7-1.1-4.8-0.3-5.1,3.3c-0.1,3.1-0.1,6,0,9.1c0.1,0.7,0.8,1.3,1.2,2c0.5-0.7,1.2-1.2,1.6-1.9
			c0.4-0.7,0.7-1.6,0.8-2.4c0.3-1.5,0.1-3.3,2.4-2.9c2,0.4,1.5,2.3,1.6,3.7c0.1,0.8,0,1.7,0.1,2.5c0.4,3.3,0.9,3.5,4.5,2.9
			c7.6-1.2,15.2-2.1,23.8-3.3C618.8,707.1,614,705.4,609.4,703.5z M594.5,57.4c0.7,2,2.3,3.6,3.5,5.3c3.3,4.5,6.7,8.9,10,13.4
			c0.4,0.5,1.3,0.9,2.1,1.1c0.3,0,0.9-0.9,0.9-1.5c0.5-9.3-0.1-18.4-4.5-26.8c-1.1-1.9-2.1-2.7-3.9-0.8c-1.3,1.5-2.7,0.8-4,0
			c-2.5-1.5-4.9-3.1-8-5.1C591.9,48.2,593,52.9,594.5,57.4z M390.1,17.8c2.8-4.3,5.6-8.3,4.9-13.6c-0.1-1.5-0.4-2.5-2-2.8
			c-6.9-1.1-18.3,6.8-19.9,13.8c-1.6,6.8-0.7,8,6.1,8.1C383.9,23.6,387.4,21.8,390.1,17.8z M582.6,30.8c4.1,3.7,7.6,8,12.2,11.3
			c1.2,0.9,2.5,1.7,3.9,2.4c1.3,0.7,2,0,1.7-1.5c-1.6-8.3-4.1-15.9-11.1-21.8c-3.3-2.8-6.4-4.8-10.8-4.5c-2.1,0.1-4.3,0-7.3,0
			C575,22.4,578.2,27,582.6,30.8z M468.7,39.8c2.9,9.7,6.7,19,15.4,26.4c0-4.4,0.1-7.7,0-11.2c0-1.2-0.5-2.5-1.1-3.6
			c-1.1-2.3-4.1-4.3-0.5-6.9c-0.7-2.8-0.3-6.1-2.9-8.1c-3.9-3.2-8-6.1-12.4-9.5C465.2,32,467.5,35.9,468.7,39.8z M639.5,50.7
			c-3.1-3.9-6.3-7.5-10.4-10.3c-2-1.3-3.5-3.1-6.1-3.2c-1.1,0-2-1.3-3.1-2c-1.3-0.8-2.7-1.6-4.4-2c3.1,4.3,4,9.7,8.8,13
			c2.5,1.7,4.3,4.8,6,7.5c4.3,6.5,10.9,10.7,16.7,15.8c0.4,0.4,1.2,0.3,2.4,0.4C647.9,62.1,643.7,56.5,639.5,50.7z M584.6,51.4
			c-3.5-2.1-5.7-6.1-8.7-9.2c-0.7-0.7-2-1.3-2.5-1.1c-1.1,0.7-2.4,1.6-1.5,3.6c1.6,3.5,2.9,7.1,4.1,10.7
			c2.9,9.1,10.7,13.5,17.8,18.6c0.5,0.4,1.9,0.7,2.3,0.3c0.5-0.4,0.5-1.5,0.8-2.1C594.2,64.2,592.5,56.3,584.6,51.4z M829.9,24
			c-2.8-2-6-2.3-9.2-1.9c-2.5,0.3-4.9,0.8-7.5,1.3c-2.3,0.5-2.9,2.5-1.3,4.3c4.4,4.8,9.3,8.4,16.6,8.5c4.3,0.1,8.4,0.8,12.6-0.3
			c1.3-0.4,2.5-1.1,4.4-1.9C839.9,30.6,834.9,27.4,829.9,24z M453.2,94.8c0.1,0.7-1.2,2.4-1.5,2.3c-4.4-1.2-3.3,2-3.6,4.3
			c-0.7,4.9,0.8,8.9,4.9,11.7c2,1.5,3.5,1.3,4.8-0.8c1.7-2.8,3.3-5.6,4.8-8.4c0.5-1.2,0.9-2.5,0.8-3.7c-0.7-5.9-1.5-11.7-2.3-17.6
			c-0.1-0.7-0.7-1.1-1.2-1.9C456.5,84.8,452.4,88.4,453.2,94.8z M529,27.1c2,6,3.9,12.2,5.9,18.2c0.4,1.2,0.7,2.7,1.5,3.3
			c4.4,3.3,8.7,6.9,14.4,7.9c2,0.3,3.3-0.9,2.5-2.4c-5.6-11.2-11.7-21.9-22.7-28.8c-0.5-0.3-1.3,0-2.1,0
			C528.8,26.3,528.9,26.7,529,27.1z M547.2,88c-1.3,2.4-2.4,5.1-3.1,7.7c-1.5,6.1,3.2,11.3,7.3,14.6c1.2,1.1,2.3,0.7,2.5-1.2
			c1.3-7.6,2-15.5,4.7-23c0.4-0.9-0.4-2.3-0.8-3.5c-1.1-2.9-2.3-5.7-3.2-8.3C552.4,78.5,549.6,83.3,547.2,88z M343.1,114.7
			c0.4,5.2-0.5,10.5-0.8,15.9c0,1.5,0.7,2.5,2.4,2c5.1-1.5,9.9-3.2,10.8-9.5c0.5-3.3,1.5-6.7,1.9-10c0.1-2-0.3-3.5-2.9-2.3
			c-2.5,1.2-3.5-0.3-3.5-2.7c0-2.1,0-4.3,0-6.9C345.7,104.8,342.5,108.3,343.1,114.7z M598.9,731c3.9,4.4,6.3,9.5,7.2,15.4
			c0.3,1.7,1.2,2.4,2.8,3.1c6.1,2.5,12.4,5.2,18.6,7.9c-1.3-2.3-2.8-5.1-4.7-7.5c-3.5-4.5-5.3-10.3-10.3-13.6
			c-5.1-3.3-9.3-7.3-12.8-12.3c-0.4-0.5-1.5-0.7-2.3-1.1C596.3,725.9,597,728.7,598.9,731z M265.7,123.2c-0.1,1.1,0.4,2.1,0.8,3.1
			c2.5,5.3,5.1,10.8,8.1,15.9c1.1,1.7,3.2,2.7,5.1,3.7c1.3,0.8,2.7-0.5,2.3-2c-0.3-1.2-0.9-2.4-1.3-3.6c-0.4-1.5-1.2-3.1-0.8-4.3
			c1.3-3.6,0.1-6.9-1.3-9.7c-3.1-6-6.9-11.6-10.9-17.9C266.9,114.2,266.3,118.7,265.7,123.2z M684.2,94.3c-2-4.3-4.5-7.6-8.7-9.9
			c-2.4-1.3-4.5-3.2-6.8-4.8c-1.1,3.1,0.1,5.5,1.9,7.2c3.6,3.7,5.1,8.5,6.4,13.1c2.3,8.1,7.5,12.6,15.4,14.2
			c0.8,0.1,1.5,0.3,2.7,0.5C691.1,107.3,687.4,100.8,684.2,94.3z M263.5,51.4c-2.4,1.1-2.9,2.7-2.9,5.1c-0.1,7.7,3.7,13.5,8.8,18.7
			c1.5,1.5,3.1,0.7,3.5-0.9c0.8-3.1,1.3-6.1,1.6-9.3c0.4-6.1-0.9-12.2-3.3-18.3C268,48.6,265.9,50.5,263.5,51.4z M184.3,98.4
			c-0.7,0.7-1.2,1.6-1.5,2.5c-1.6,5.9-3.1,11.9-4.5,17.9c-0.7,2.7-0.1,3.6,2.4,4c6.4,1.2,9.6-1.1,10.8-7.7
			c1.3-7.2,1.6-14.3-0.8-22.2C188.2,95.1,186.2,96.7,184.3,98.4z M604.1,39.8c3.9,6.7,9.6,11.5,16.3,15.1c0.5,0.3,1.5,0.3,1.7,0
			c0.3-0.3,0.3-1.1,0.1-1.6c-4-11.9-9.9-22.3-21.8-28c-1.3-0.7-2.8-0.9-4.8-1.5C598.7,29.8,601.1,35,604.1,39.8z M279.6,99.6
			c0.5-6,1.2-11.9,1.2-17.9c0-3.9-1.1-7.6-1.7-11.3c0-0.3-0.5-0.8-0.8-0.8c-0.5,0-1.2,0.4-1.3,0.8c-0.4,0.9-0.8,1.9-0.9,2.9
			c-0.4,3.2-1.7,5.7-4.1,7.7c-2.3,2-2.7,4.1-1.9,6.9c0.9,3.6,1.6,7.5,2,11.2c0.4,4,2.7,6.5,6.1,9.5
			C278.7,105.2,279.4,102.4,279.6,99.6z M708.1,50.7c-0.7-1.7-1.3-3.7-2.4-5.2c-1.2-1.6-2.1-3.7-5.5-1.7c-2.8,1.6-5.7-0.5-8.3-4.3
			c-0.4,6.4,1.5,10.9,3.7,15c4,6.9,11.5,9.9,19.2,14.2C712.2,62,710.2,56.3,708.1,50.7z M648.8,20.6c1.7,7.9,4.4,15.6,6.8,23.4
			c0.3,1.2,1.1,2.3,2.1,4.1c0.9-2,1.9-3.3,2-4.8c0.4-6.8,1.6-13.6-2.3-20.2c-2.9-5.1-4-10.4-0.4-15.9c0.8-1.2,0.8-2.8,1.2-4.3
			C649.3,4.8,647.5,14,648.8,20.6z M359.6,57.9c-2-0.4-2.5,0.7-2.7,1.7c-0.3,3.3-0.9,6.9,0,10c1.1,3.5,3.5,6.8,5.5,10
			c1.3,2,2.7,2,3.6-0.3c2.7-6,5.1-12.2,7.3-18.3c1.1-3.1,0.5-3.3-2.9-2.9c-0.8,0.1-1.6,0.1-3.3,0.3
			C365.1,58.3,362.1,58.6,359.6,57.9z M530.6,86.8c-1.2-2-4.1-2.8-6.4-4c-1.3-0.7-2.7-1.3-4-2c-1.5-0.7-2.3,0.3-2,1.5
			c2,7.9,2.8,16.3,9.9,21.8c2.7,2,5.5,3.9,9.3,6.7C536.7,101.2,534.9,93.6,530.6,86.8z M422.5,88.9c-0.1,0.7,0.1,1.7,0.5,2.3
			c1.7,2.1,1.7,2,0.1,3.6c-1.1,0.9-2.3,2.1-2.7,3.5c-0.9,2.4-1.9,4.4-4.1,6.1c-1.2,1.1-1.7,3.9-1.5,5.9c0.4,4.1,3.1,6.9,6.3,9.3
			c1.1,0.8,2.9,1.1,3.2-0.4c1.3-6.4,4.1-12.4,4.4-19.2c0.1-6.1-1.1-11.3-4.8-16.6C423.3,85.3,422.8,87.1,422.5,88.9z M255.5,175.8
			c0.9,6,5.2,9.7,10.7,10.4c2.5,0.3,3.7-1.1,2.5-3.5c-2.1-4.4-2.9-8.9-3.5-13.6c-0.3-3.2-1.5-6.3-4-8.5c-1.7-1.5-2.9-3.6-4.5-5.3
			c-0.4-0.4-1.1-0.8-1.6-0.7c-0.4,0-0.8,0.8-0.9,1.3c-0.3,1.2-0.3,2.5-0.3,3.1C254.4,165.2,254.7,170.5,255.5,175.8z M293.1,58.7
			c0.7-2,0.8-4.1,0.9-6.3c0.1-2.5-0.3-5.1,1.9-7.2c0.5-0.5,0.1-2,0.1-2.9c-1.1,0.1-2,0.1-2.9,0.3c-4.5,0.5-7.3,4.3-10.8,6.5
			c-0.8,0.5-0.9,2.3-1.1,3.5c-0.5,7.7,2.4,14.4,6.8,21.4C289.9,68.4,291.6,63.6,293.1,58.7z M406.1,53.4c1.1-5.2,0.9-10.7-1.1-15.9
			c-0.8-2.3-1.9-2.5-3.9-1.1c-0.8,0.7-1.6,1.3-2.1,2.3c-3.1,5.7-4.9,11.7-3.3,18.4c1.1,4.5,1.3,9.3,4.8,13.6
			C402.6,64.6,404.9,59.1,406.1,53.4z M647.3,79.6c0.3-1.3,0.8-2.5,0.8-3.7c0-0.9-0.4-2.1-1.1-2.7c-2.1-2-4.7-3.7-6.8-5.7
			c-1.7-1.6-3.3-1.3-4.3,0.4c-2.4,4.5-5.1,8.9-3.7,14.4c0.4,1.3,0.9,2.8,0.9,4.3c0.1,2.3,1.3,2.9,3.2,2.7
			C643.1,88.9,646.1,86.1,647.3,79.6z M203.8,109.2c-2.4,6.4-4.5,12.8-4.3,19.8c0,2.9,0.9,3.5,3.5,2.5c5.7-2.1,9.1-6.8,11.7-11.9
			c0.7-1.1,1.1-2.1,1.7-3.2c0.8-1.1,1.2-2.1-0.7-1.5c-2.7,0.9-3.3-0.9-4.1-2.7c-1.2-2.8-2.4-5.7-4.1-9.6
			C205.9,105.5,204.7,107.2,203.8,109.2z M729.7,58.5c-0.8-3.9-3.5-7.3-5.7-10.7c-0.8-1.2-2.8-1.9-4.4-2.4c-1.3-0.4-2.9-0.4-3.6,1.6
			c-0.3,0.9-1.2,1.9-2,2.1c-1.6,0.5-2,1.5-1.1,2.8c3.1,4.7,5.6,9.9,9.3,13.9c2.9,3.1,7.2,5.2,12.8,5.2
			C732.5,66.8,730.7,63,729.7,58.5z M758,59.4c1.3,1.7,3.5,1.3,5.1,0.1c0.7-0.5,1.3-1.2,1.6-2c1.5-4.7,2.9-9.3,4.1-14
			c0.5-2-0.5-3.1-2.8-3.2c-3.6-0.1-7.2-0.7-10.8-0.9c-0.5,0-1.3,0.8-1.6,1.5c-0.7,1.9-1.2,4-1.7,6C751.8,52.2,755.2,55.7,758,59.4z
			 M357.9,46.3c1.3,1.5,3.2,0.9,3.1-0.8c-0.3-7.9,3.5-15.6,0.4-23.5c-0.3-0.3-0.1-0.8-0.3-1.2c-1.1-1.9-0.9-4.8-3.6-4.8
			c-2.3,0-3.3,2.1-4,4.4c-0.9,3.2-2.1,6.4-3.2,9.6C350.5,36.7,353.5,41.8,357.9,46.3z M249.5,129.1c-1.5,2.7-2.5,2.7-4.4,0.1
			c-0.5-0.8-1.1-1.9-1.7-2.7c-0.5-0.7-1.1-1.2-2.3-2.7c1.5,8.8,5.9,14.8,10.5,20.6c0.8,0.9,2,1.6,3.2,2.1c3.2,1.6,5.1,0.5,5.3-2.8
			c0.1-1.7,0.3-3.6-0.1-5.2c-1.6-6.5-3.5-13.1-5.5-20.6C252.7,122.2,251.3,125.8,249.5,129.1z M574,56.7c-1.2-3.3-3.1-6.5-4.5-9.7
			c-1.3-2.9-3.6-4.7-6.7-5.5c-2-0.5-3.9-1.7-5.9-2.5c-1.1-0.4-2.3-0.4-3.5-0.7c0.3,1.1,0.5,2.4,0.9,3.5c3.6,8.9,9.7,16,16.8,22.3
			c1.2,1.1,2.8,1.9,5.3,3.5C575.5,63.2,575,59.8,574,56.7z M395.8,74.5c-2.9-8.4-7.1-16.4-11.5-24.2c-0.1-0.3-0.8-0.8-0.9-0.7
			c-0.4,0.3-1.1,0.8-1.1,1.2c0.4,4.3,0.8,8.4,1.3,12.7c1.3,10.9,6.7,19.6,16.7,25.9C398.9,84.5,397.5,79.4,395.8,74.5z M513.6,97.5
			c-0.7-1.3-1.5-2.5-2.4-3.7c-1.3-1.7-2.7-1.5-3.2,0.5c-1.2,4.9-2.7,9.7-3.5,14.8c-0.5,3.2,1.9,5.6,4.3,7.1
			c3.2,1.9,7.1,2.7,10.5,2.7C520,110.8,517.2,103.9,513.6,97.5z M331.7,65c0.1,0.7,0.9,1.2,1.3,1.9c0.7-0.5,1.6-0.8,1.9-1.5
			c3.1-8.1,8.1-15.6,9.5-24.4c0.4-2.1,0.5-4.4,0.8-6.7c-2.9-0.4-3.9,2.3-5.5,3.7c-2.3,2.1-5.5,3.2-6.9,6.5
			c-1.7,3.9-3.1,7.5-2.9,11.7C330.4,59.1,330.9,62.1,331.7,65z M546.3,124.7c-0.8-6-4.9-9.2-9.7-11.9c-0.9-0.5-2-0.7-3.5-1.2
			c0.3,2.4,0.4,4.5,0.7,6.9c0.9-1.2,1.6-2,2.3-2.9c0.5,0.7,1.3,1.2,1.3,1.9c0.1,3.2,0.5,6.4,0,9.6c-1.1,6.9,2.1,11.9,7.1,16
			c1.3,1.2,3.1,1.9,4.5,2.8C548.1,138.7,547.2,131.6,546.3,124.7z M359.9,100.1c2.5-3.5,4.4-7.3,7.3-10.4c2.7-2.7,3.9-4.9,1.3-8.1
			c-0.1,0-0.5,0.1-0.7,0.4c-0.9,1.6-1.9,3.1-2.8,4.7c-1.6-1.5-3.2-2.8-4.7-4.3c-1.1-1.2-2-2.8-2.9-4.1c-5.7,5.1-5.3,11.6-4.9,17.9
			c0.1,3.5,1.1,7.1,1.9,11.6C356.4,104.7,358.1,102.4,359.9,100.1z M621.2,15.5c-1.9-2.4-2.7-5.6-4-8.7c-3.5,5.7-6.5,11.2-9.9,16.7
			c-1.1,1.7-0.5,3.1,0.9,3.7c1.6,0.8,3.6,1.1,5.3,1.7c2.7,0.9,5.2,2,8.4,3.2C624.5,26.3,625.2,21,621.2,15.5z M473.8,58.2
			c-0.1-0.8-1.2-1.7-2-2.1c-0.5-0.1-1.7,0.5-2.1,1.1c-2.3,3.5-4.5,6.8-6.5,10.3c-3.3,5.6-0.1,14.3,4.4,18.4c0.9,0.9,2.3,0.8,2.3-0.7
			c0-3.3,1.5-6.1,2.5-9.1c1.2-3.5,1.3-7.5,2-11.2c-0.1-0.1-0.4-0.1-0.5-0.1C473.8,62.6,473.9,60.5,473.8,58.2z M469.1,51.4
			c-1.2-6.8-3.3-13.2-6.5-19.4c-0.9-1.7-1.9-3.5-3.1-4.9c-1.1-1.5-0.9-4.4-3.3-3.9c-1.1,0.3-1.7,2.7-2.3,4.3
			c-0.7,1.7-1.2,3.6-1.5,5.5c-0.3,1.2-0.1,2.5,0.4,3.6c3.2,6.4,8,11.5,13.6,15.9c0.5,0.4,1.2,0.4,2.4,0.8
			C469,52.3,469.1,51.7,469.1,51.4z M495.5,74.5c0.3-3.5-1.3-7.1-2.7-10.4c-0.8-2.1-2.9-2.3-3.9-0.4c-2.8,5.6-5.6,11.2-4.5,17.8
			c0.8,5.1,4,8.5,8.3,12.4C493.8,86.7,495.3,80.5,495.5,74.5z M498.9,127.4c-0.7,2.1-0.9,4.5-1.5,6.8c-0.5,2.5-2.3,5.9-1.3,7.7
			c2.3,4.1,5.9,7.6,8.9,11.2c0.1,0.1,0.9,0.3,1.1,0.1c0.5-0.4,0.8-0.9,1.1-1.5c0-0.1-0.3-0.3-0.3-0.5c-0.9-5.1-1.6-9.9-0.8-15.1
			c0.9-6.4-0.7-12.7-3.3-20.4C501,120.4,499.8,123.8,498.9,127.4z M251.5,113.5c-0.1-3.1-0.3-6.1,0-9.1c0.1-3.6,0.8-7.1,1.2-10.9
			c-0.5,0.3-1.3,0.7-2,1.3c-2.4,2.4-4.4,5.3-7.1,7.3c-3.5,2.7-4.7,5.9-3.5,9.6c1.6,5.1,2.5,10.4,7.1,14.6
			C250.3,122.3,251.6,118.2,251.5,113.5z M378,83.8c4.7-7.2,4.8-14.8,2.8-22.8c-0.4-1.5-0.1-3.1-0.4-4.5c-0.3-1.2-0.9-2.1-1.3-3.2
			c-0.9,0.8-2.3,1.3-2.8,2.4c-0.5,1.3-0.4,2.9-0.7,4.4c-0.7,3.2-0.7,6.5-2,9.3c-3.3,7.1-2.1,13.8,1.2,21.1
			C376.3,87.7,377.1,85.7,378,83.8z M842.5,48.1c-2.5-1.5-4.8-3.6-7.1-5.5c-3.7-3.1-8.3-3.5-12.6-4.5c-1.5-0.4-2.5,1.1-1.7,2.3
			c1.7,2.7,3.3,6.3,5.9,7.3c5.3,2.1,9.2,6.5,14.6,8.7c3.1,1.2,5.9,2.3,9.6,1.3C849,53.4,846.3,50.3,842.5,48.1z M434.9,39.4
			c-2.5-2.4-4.5-5.1-6.7-7.5c0.5,4.8,0.7,9.7,1.9,14.6c1.1,4.1,2.8,8.4,5.1,12.2c1.9,2.9,4.4,5.9,8.9,6.8
			C443.5,55.7,442.3,46.6,434.9,39.4z M402.7,130.8c1.2-2.9,2.3-6,4.1-8.5c1.6-2.1,2.8-3.9,2.4-6.4c-0.5-3.3-0.9-6.7-1.7-10
			c-0.1-0.4-2-0.9-2.7-0.5c-2.5,1.6-5.1,3.1-5.9,6.4c-1.9,7.7-2.3,15.2,0.7,22.7c0.1,0.3,0.5,0.5,1.3,1.1
			C401.5,133.8,402.1,132.3,402.7,130.8z M231,175c-1.9,2.8-3.6,5.7-5.3,8.5c1.7,6,1.9,12.7,5.6,18.2c0.9,1.2,2.1,1.1,2.5-0.1
			c1.2-4,2.3-8.1,3.1-12.3c1.2-6.1-0.9-12-3.3-18.2C232.5,172.6,231.7,173.8,231,175z M734,20.3c-1.2-0.9-2.3-2.3-3.6-2.5
			c-2.4-0.5-6-1.3-7.1-0.1c-1.5,1.9,1.1,4.1,2.7,5.7c4.3,4.3,8.4,8.5,13,12.4c3.1,2.7,6.7,4.5,11.9,4
			C745.2,32.6,740.8,25.5,734,20.3z M735.6,37.3c-2.8-3.5-5.9-6.7-8.8-10c-2-2.3-4.3-3.3-7.3-2.3c-0.1,8.9,6.5,13.8,11.7,19.4
			c3.9,4,4.3,4,9.7,4.7C741.1,43.9,738.5,40.6,735.6,37.3z M437,74.8c1.2-4.1,1.3-8.5-2.4-12.2c-1.2,2.8-2,6-6.1,4.3
			c-0.4-0.3-1.9,0.8-2.1,1.6c-3.1,8.1-1.2,15.4,5.2,21.6C433.6,84.7,435.7,79.7,437,74.8z M300.2,157.4c-1.1-12.3-7.2-21-17-28.2
			C282.3,142.9,287.9,151.9,300.2,157.4z M420.8,84.7c0.9-5.5-0.5-10.5-2.5-15.6c-0.8-1.9-1.7-1.7-2.8-0.5
			c-2.9,3.3-4.1,7.3-4.8,11.6c-0.8,4.7,0.5,8.9,3.1,12.8c0.9,1.6,1.9,3.1,3.5,5.6C418.5,93.2,419.8,89.1,420.8,84.7z M494.2,174.1
			c4.5-0.5,2.5,4.1,4.5,5.7c0.8,0.5,1.3,1.9,2.1,2.1c3.9,1.2,7.7,2.1,11.7,2.8c1.6,0.3,2.4-1.3,1.5-2.9c-1.1-1.9-1.9-3.9-3.2-5.5
			c-1.2-1.5-2.8-3.3-4.3-3.5c-2-0.3-2.4-1.1-2.9-2.5c-0.4-1.2-1.1-2.4-2-3.1c-3.3-2.5-5.2-2-6.7,2c-0.5,1.2-0.8,2.4-1.2,3.9
			C493.8,173.3,493.9,174.1,494.2,174.1z M333.7,86.5c-2.1,1.6-3.6,3.5-3.5,6.5c0,3.1-0.8,6-0.9,8.9c0,0.8,0.7,2.1,1.3,2.4
			c8.1,2.8,15.6-0.7,18.7-8.5c0.1-0.5,0-1.2,0-2.8c-2.5,1.9-4.4,3.5-6.5,4.7c-1.5,0.9-3.1,2.5-5.2,0.8c-2.1-1.6-2.5-3.1-1.2-6.1
			c1.2-2.8,2.7-5.7,4-8.5c-0.3-0.3-0.7-0.7-0.9-0.9C337.6,84.3,335.4,85.3,333.7,86.5z M372.8,156.5c-0.4-1.9-0.1-4.4-1.3-5.7
			c-1.2-1.5-7.9,1.7-8.4,4.1c-1.2,4.7-2.1,9.5-2.9,14.3c-0.4,2.3,0.9,2.9,3.1,2.9c3.1,0.1,5.1-1.7,6.3-3.9c1.9-3.3,4.7-6.7,3.3-10.5
			C372.8,156.9,372.8,156.6,372.8,156.5z M642.7,50.6c2.9,3.2,4.8,7.5,7.2,11.2c0.8,1.2,1.6,2.7,2.8,3.3c1.5,0.9,4.1,2.3,5.1,1.6
			c2-1.6-0.5-3.3-1.2-4.8c-0.9-2-2.5-3.7-3.9-5.6c-0.5-0.8-1.2-1.9-1.1-2.7c0.7-5.3-2.1-8.7-6.4-11.2c-1.6-0.9-3.3-2-5.2-3.1
			C639.2,43.9,639.7,47.3,642.7,50.6z M341.4,26.3c-2.1,0.9-0.9,2.4-0.9,3.7c-0.1,0.5-0.7,1.1-1.1,1.5c-0.3,0.1-1.1,0-1.1-0.1
			c-0.7-3.7-4.3-3.9-6.5-5.6c-1.2-0.9-3.1-1.3-4.5-2c0,1.6,0.1,3.2,0.3,4.8c0.4,4,0.9,8,1.5,12c0.1,0.5,0.5,1.1,0.8,1.7
			c5.6-4,9.9-9.5,16.3-12.2c1.6-0.7,1.5-0.9,3.3-7.9C346.4,23.9,344,25.2,341.4,26.3z M449.2,49.7c-0.3,0-0.9,1.9-0.8,2.7
			c1.3,5.9,4.9,10.7,8.7,15.4c0.8,0.9,2.1,0.8,2.3-0.7c0.7-4.5,1.2-9.2,1.3-13.9c0-1.3-0.9-2.8-1.9-3.9c-1.5-2-3.3-3.7-5.3-5.9
			C453.3,46.3,453.7,49.8,449.2,49.7z M323.6,59.3c-0.9,2.9-2.4,5.6-3.2,8.4s-1.9,4.4-4.9,2.7c-0.3-0.1-1.7,0.7-1.7,0.9
			c0,3.1,0,6,0.5,8.9c0.4,2.4,2.7,3.1,4.1,1.1c2.7-3.9,6.4-7.2,7.9-12.2c1.7-6,1.1-11.9,1.2-17.8c-0.4-0.1-0.9-0.1-1.3-0.3
			C325.3,53.9,324.6,56.7,323.6,59.3z M677.2,38.6c0.1,2.4,0.7,4.1,2.4,5.7c1.6,1.5,2.9,3.1,4.5,4.5c1.7,1.6,3.7,2.8,6.3,2.8
			c-2-12.6-2.9-14.3-13.9-25.8C676.8,30.7,677.2,34.7,677.2,38.6z M495.3,49.5c-2.9-2.3-5.5-5.2-8.1-7.9c-0.4-0.4-1.3-0.8-1.5-0.7
			c-0.4,0.5-1.1,1.3-1.1,2c0.3,8,4.9,13.6,10.9,18.3c1.9,1.5,3.9,2.7,6.7,4.5C502.3,58.7,500.6,53.5,495.3,49.5z M802.6,19.8
			c0.4,0.3,1.2,0.5,1.7,0.5c2.8-0.3,10-6.7,10.8-9.5c0.7-2.1-0.4-3.9-2.7-4.1c-1.6-0.1-3.3,0-5.1,0.1c-0.4,0-0.8,0.4-1.2,0.5
			c-4,1.5-7.9,3.1-12.8,4.9C797,15.2,799.8,17.5,802.6,19.8z M532,123.1c-0.3-2.9-0.9-5.9-1.5-8.8c-0.7-3.3-1.9-6.3-4.7-8.8
			c-2.3-1.9-3.6-4.7-5.5-7.1c-0.5-0.5-1.5-0.7-2.1-1.1c-0.1,0.7-0.7,1.5-0.4,1.9c3.1,6.3,3.9,13.1,5.3,19.8c0.4,1.5,0.3,3.5,1.2,4.1
			c1.6,1.2,3.9,1.7,6.3,2.7C531.2,124.8,532,123.9,532,123.1z M571.8,22.7c0,3.2-2.4,6-0.8,9.5c1.3,3.1,3.2,5.6,5.7,7.6
			c3.6,2.9,6.8,6.4,11.9,8.1C586.6,36.7,577.1,31.1,571.8,22.7z M218.1,146.3c0.4-0.8,0.1-2,0-2.9c-0.5-3.3-1.3-6.7-1.7-10
			c-0.4-2.4,0-4.5,1.6-6.7c0.9-1.2,0.7-3.5,0.5-5.5c-2.4,2.9-5.7,4.8-5.1,9.6c0.4,3.1-2.1,6.4-2.5,9.7c-0.5,4.1-2.7,8.3-0.3,12.4
			c0.5,0.7,0.9,1.3,1.7,2.5C214.6,151.9,216.5,149.1,218.1,146.3z M208.9,180c2.3-1.7,3.6-3.9,3.6-7.1c0-3.3,0.9-6.8,1.2-10.1
			c0.1-1.6-0.7-2.5-2.4-1.6c-4.7,2.7-8.5,6-7.9,12.2c0.1,1.2-0.1,2.5-0.7,3.7c-0.9,2.4-0.1,4.3,1.3,6.1
			C205.7,182.3,207.3,181.2,208.9,180z M405.4,69.8c0.4,2-0.8,5.2,1.7,5.6c2.3,0.4,2.8-2.8,3.2-4.8c0.4-2.3,1.3-3.6,3.2-5.1
			c1.9-1.5,3.2-4,4.1-6.3c1.1-2.7-1.9-3.5-3.1-5.1c-1.1-1.5-2.1-0.7-3.3,0.1c-4.3,2.7-4.4,7.5-5.7,11.6c-0.4,0.9-0.1,2.1-0.1,3.2
			l0,0C405.4,69.4,405.3,69.7,405.4,69.8z M397,18.2c-1.6,3.6,0.3,7.5,3.1,10.4c0.5,0.4,1.9,0.8,2.1,0.5c3.2-3.9,3.3,0.3,4.4,1.7
			c0.3,0.4,0.3,1.2,0.5,1.7c0,0.1,0.7,0,0.9,0c0.1,0,0.4-0.3,0.4-0.4c-0.1-0.8-0.3-1.6-0.4-2.4c-0.7-3.3-1.2-6.7-2-10
			c-0.9-4.5-3.1-8.3-8.4-10C398.3,12.7,397.9,15.2,397,18.2z M194.6,111.5c-0.3,4.8-1.3,9.3-4.8,13c-2.5,2.5-1.7,5.5-1.2,8.4
			c0,0.5,0.8,1.1,1.3,1.2c1.5,0.1,6.1-3.5,6.7-5.6c1.3-6,2.3-12.2,1.3-18.4c-0.1-1.2-0.9-2.1-2.3-4.7
			C195,108.3,194.6,109.9,194.6,111.5z M446.5,29.1c-0.4-1.1-1.5-2.5-2.3-2.7c-0.9-0.3-2.7,0.5-3.2,1.5c-1.9,3.1-2.4,6.7-1.9,10.4
			c0.4,2.7,2.5,3.7,4.7,4.8c1.9,1.1,3.9,2,7.1,3.6C449.3,39.9,448,34.4,446.5,29.1z M403.4,89.7c1.5,2.9,4.9,4.9,5.1,8.9
			c0,0,1.6,0.4,2,0.1c1.3-1.1,1.3-2.4,0.8-4c-1.3-4.3-3.9-8-3.7-12.8c0-1.2-2.9-2.4-2.9-3.6c-0.1-4.7-4-4.5-7.1-6.1
			C399.4,78.1,400.6,84.1,403.4,89.7z M347.2,55.9c0.5,1.2,1.7,3.2,2.4,3.1c1.9-0.4,4.3-0.3,5.5-2.5c1.7-3.2,1.2-6.1-0.5-9.1
			c-1.9-2.9-3.7-6-6-9.5C347.5,44.1,344.5,49.7,347.2,55.9z M464.3,15c0-0.4-0.4-0.8-0.7-1.1c-3.6-2.3-7.1-4.7-10.8-6.8
			c-2-1.2-3.2-0.3-3.2,2.1c0,1.5,0.1,3.2,1.1,4.1c3.9,4,8,7.9,12.3,12C463.4,22,463.8,18.4,464.3,15z M497.8,99.1
			c0.7-1.7-0.5-4.1-0.9-6.9c-1.2,2.4-2,4.1-2.9,6c-2.5-2.1-4.8-4-7.5-6.1c-2.5,7.3,1.2,12.3,5.2,17.6
			C495,106.7,496.3,102.8,497.8,99.1z M200.5,109.1c1.9-3.2,3.1-5.9,4.9-8c1.7-2,1.5-3.7,0.5-5.7c-0.3-0.5-1.1-1.2-1.6-1.2
			c-3.3,0.1-6.8,0.5-10.3,0.8C192.8,101.3,198.7,103.7,200.5,109.1z M304.1,100.8c3.1,0.5,4.1-0.3,4-3.2c0-1.9-0.5-3.9-1.1-5.6
			c-1.5-4.4-1.7-4.4-5.3-1.9c-2.5,1.9-5.2,3.5-8.1,5.5C296.6,98.1,300.1,100.3,304.1,100.8z M485.9,189.3c-0.1,1.5,0.5,3.5,1.6,4.5
			c2.1,2,4.8,3.5,7.6,5.5c-1.3-13.4-1.7-14.6-7.6-21.2C487,181.9,486.2,185.6,485.9,189.3z M277,37.5c-1.5,2.1-2.7,4.8-2.9,7.5
			c-0.3,2.1,0.9,4.5,1.3,6.8c0.8,4.4,1.6,8.8,2.7,14.2c0.7-1.9,1.7-3.2,1.5-4.1c-2.8-8.5-0.5-16.6,2-24.6c0-0.1,0-0.3-0.3-1.2
			C279.8,36.6,277.5,36.6,277,37.5z M474.8,20.2c-0.5-0.9-1.9-1.6-2.9-2.3c-1.7-1.1-3.6-2-5.2-0.1c-1.5,1.9-0.1,5.3,2,6.8
			c3.3,2.4,6.4,4.8,10.3,7.7C478.6,27.4,476.8,23.8,474.8,20.2z M290.8,80.9c0.8-2.1,1.3-3.7-2.5-3.6c-1.7,0-3.6-3.2-5.9-5.3
			c0.4,4,0.7,7.9,1.3,11.6c0.8,4,4.4,6.1,7.6,10.3C288.8,87.6,288.8,87.6,290.8,80.9z M355.5,130.4c-2.3,3.3-2.8,7.1-3.7,10.7
			c0,0.1,1.5,1.1,1.6,0.9c1.9-1.6,4-3.2,5.3-5.2c1.9-2.8,3.1-6,4.8-9.5C359.5,126.2,357.5,127.4,355.5,130.4z M507.3,20.3
			c-0.4,0.8-0.5,2-0.3,2.9c1.1,3.2,2.1,6.3,3.6,10.4c2-5.5,3.6-10.1,5.3-15.1C510.2,16.3,508.7,16.6,507.3,20.3z M371.8,92.3
			c-0.8-1.5-1.7-1.6-2.9-0.5c-0.8,0.7-1.7,1.5-2.3,2.3c-1.1,1.6-3.5,3.1-1.6,5.3c2.3,2.8,4.8,3.1,7.6,1.3c1.2-0.8,2.4-1.6,3.5-2.3
			C374.6,96.3,373.1,94.3,371.8,92.3z M374,25.4c1.3,2,2,2.7,2.4,3.5c0.7,1.6,1.6,2,3.5,1.3c4.3-1.3,8.7-2.1,13.1-3.2
			c1.3-0.3,1.7-0.9,1.3-2.3c-0.4-1.9-0.8-3.7-1.2-6C388.4,25.2,383,28.6,374,25.4z M777.1,58.1c0,1.3,2,1.9,2.9,0.8
			c1.9-2.1,3.6-4.3,5.3-6.5c-2.3-2-4.5-3.9-7.1-6C776.1,49.9,776.9,54.1,777.1,58.1z M785,12.6c-1.9-0.5-3.3,1.1-2.7,2.9
			c0.1,0.5,0.5,1.2,0.9,1.6c2,1.7,2.9,5.9,5.9,5.2c1.7-0.3,2.8-3.7,4.7-6.4C790.1,14.6,787.5,13.5,785,12.6z M452.7,22.8
			c0.4-1.1,1.3-2.7,0.9-3.3c-0.9-1.5-2.5-2.8-4.1-3.7c-1.5-0.8-3.5,0.5-3.7,2.4c-0.1,1.2,0.1,2.7,0.5,3.7c0.9,2.4,2.3,4.5,3.6,7.3
			C450.9,26.8,451.7,25,452.7,22.8z M510.9,87.1c-0.3,0.7,0.1,1.6,0.5,2.3c1.3,2,2.8,3.7,4.8,6.3c0.5-3.7,0.5-6.8,0-9.9
			c-0.5-3.1-0.9-6.3-1.5-10.3C513.3,79.7,512,83.4,510.9,87.1z M379.8,96.3c0,0.4,0.8,0.9,1.2,1.3c0.3-0.4,0.8-0.8,0.9-1.2
			c1.3-5.7,2.5-11.5,3.7-17.2c0-0.3-0.4-0.8-0.7-0.9c-0.3-0.1-0.9,0-1.1,0.3c-1.6,3.2-3.2,6.3-4.8,9.5c0.4,0,0.7,0.1,1.1,0.3
			C380,90.8,379.8,93.5,379.8,96.3z M590.9,725.7c1.2,3.2,2.7,6.3,4.1,9.3c1.7,3.2,3.6,6.3,5.3,9.5c0.4-2.8,0.8-5.5-1.5-8
			c-4.4-4.8-6.3-10.8-6.7-17.4C590.1,721.3,590.2,723.7,590.9,725.7z M232,81.7c2.1-5.1,0-10.3,2.9-15.4
			C226.6,71,226.2,72.9,232,81.7z M625.7,31.6c-0.7,2.4,0.8,4,2.7,5.2c0.5,0.3,1.7,0.3,2.3-0.1c2.3-1.7,2.4-4.7,0.4-6.9
			c-1.1-1.2-2-2.3-3.5-3.9C626.8,28.2,626,29.8,625.7,31.6z M364.4,34.7c0.9-0.7,1.7-1.5,2.7-1.7c1.7-0.7,4.9-0.7,5.1-1.5
			c0.7-3.1-3.1-2.8-4.4-4.7c-0.9-1.2-2.1-2-3.5-3.2C364.3,27.5,364.3,30.7,364.4,34.7z M489.9,169.3c0,0.4,0.7,0.8,1.2,1.1
			c0.1,0,0.7-0.5,0.8-0.8c0.5-1.9,1.2-3.7,1.3-5.6c0.1-3.7,0-7.6,0-11.5C490.7,158,489.1,163.4,489.9,169.3z M367.6,190.5
			c0.7-0.4,1.6-0.7,1.7-1.1c0.4-1.9,0.7-3.7,0.9-5.6c0.4-2.9,0.8-5.9,1.1-8.8c0.1-0.7-0.3-1.5-0.4-2.3c-0.8,0.5-2.1,1.1-2.3,1.7
			c-0.4,2.3-0.5,4.5-0.7,6.8c-0.3,2.5-0.5,5.1-0.8,8.4C367.1,189.5,367.4,190,367.6,190.5z M424.5,66.8c0.5-2.5-0.8-4.1-2.7-5.3
			c-0.5-0.3-1.7-0.3-2.3,0.1c-0.5,0.4-1.1,1.6-0.9,2.1c1.1,3.2,2.3,6.3,3.9,10.4C423.4,70.9,424.1,68.9,424.5,66.8z M367.2,103.7
			c-1.7-0.4-3.7-1.5-4.9-0.9c-1.1,0.5-1.9,2.7-2.1,4.3c-0.4,1.9-0.1,3.9-0.1,5.7c0.4,0.1,0.7,0.3,1.1,0.4
			C363.1,110.3,364.9,107.3,367.2,103.7z M730.1,15.1c0.7,0.1,2-0.4,2.1-0.8c0.3-1.3,0.3-2.8,0-4.3c-0.1-0.4-1.6-1.1-2.1-0.8
			c-2.4,1.1-4.8,2.4-8.3,4.1C725.7,14.3,727.9,14.8,730.1,15.1z M252.7,34.6c0.1,3.3,0,6.7,0.7,10c1.1-4.8,2.3-9.6,3.5-14.4
			C254.3,30.4,252.5,31.5,252.7,34.6z M717.8,21.1c0.8,0.3,1.6,0.3,2.4,0.4c0.1-0.9,0.4-2,0.1-2.9c-0.5-1.7-1.5-3.1-3.6-2.9
			c-0.9,0-1.9-0.4-3.2-0.7C714.4,17.9,715.3,20,717.8,21.1z M796.2,21.8c0.3-0.9,0.1-2.1,0.1-3.2c-0.8,0.5-1.7,1.1-2.4,1.7
			c-0.5,0.5-0.7,1.6-1.2,2.1c-2,2.1-2.7,4.3,0.5,6.7C794.3,26.4,795.4,24.2,796.2,21.8z M338.4,62.9c6.8-2.9,6.8-2.9,5.2-10.5
			C341.4,56.7,340,59.7,338.4,62.9z M540.5,8.7c0.8,2.4,2.7,3.7,5.1,4c0.9,0.1,2-0.3,2.9-0.5c-0.5-0.8-0.9-1.7-1.7-2.3
			c-1.7-1.2-3.6-2.1-5.9-3.6C540.8,7.5,540.4,8.1,540.5,8.7z M506.1,186.5c-0.7,0-1.7,0.3-1.7,0.5c-0.1,0.7,0,1.6,0.4,2.1
			c1.5,1.6,2.9,3.1,4.7,4.7C510.2,187.6,509.8,186.7,506.1,186.5z M634,41.4c0.4,0.4,2.4,0.4,2.4,0.4c0.4-1.9,0.9-3.6,0.9-5.5
			c0-0.9-0.8-1.9-1.5-3.2C633.5,36.5,632.3,38.7,634,41.4z M456,78c0,0.5,0.5,1.3,0.8,1.3c0.7,0.1,1.3-0.3,1.7-0.7
			c2.1-2.1,1.3-4.7-2.5-7.1C456,74,455.9,76.1,456,78z M369.4,145.1c-0.4,0.5-0.3,1.5-0.4,2.1c1.1-0.1,2.9,0.1,3.3-0.5
			c1.1-1.6,1.5-3.7,2.1-5.6c-0.4-0.3-0.8-0.5-1.2-0.8C371.9,141.8,370.4,143.4,369.4,145.1z M407.9,37.3c0.5,4.5,1.2,9.2,1.7,13.8
			C411.9,46.1,409.3,41.8,407.9,37.3z M508.6,41.9c0.4,0.7,1.5,1.1,2.1,1.5c0.4-1.1,1.3-2.5,0.9-3.2c-0.9-1.6-2.3-3.1-4.9-2
			C507.4,39.5,507.8,40.9,508.6,41.9z M411.4,108.8c0.9-3.2,1.6-5.7,2.7-9.5C409.4,102.8,409.4,102.8,411.4,108.8z M413.7,708.9
			c0.1,0.1,0.8,0.1,1.1-0.1c0.3-0.3,0.5-0.8,0.4-1.1c-1.2-1.9-2.7-3.7-5.5-4C411,705.4,412.3,707.1,413.7,708.9z M248.9,149.4
			c0.4,1.6,0.5,2.9,0.8,4.1c0.1,1.2,0.4,2.4,0.7,3.6C250.5,154.6,253.9,151.5,248.9,149.4z M746.5,25.6c-0.1-0.4-1.3-0.5-2.1-0.8
			c-0.3,0.7-0.8,1.6-0.5,2c0.7,1.2,1.6,2.3,3.1,4.1C746.8,28.6,746.9,27.1,746.5,25.6z M466.3,56.9c0.1-0.3-0.5-1.2-1.1-1.6
			c-0.9-0.7-1.6-0.3-1.6,0.9c0,1.3,0,2.5,0,4.4C465,59.1,465.9,58.2,466.3,56.9z M577.6,689.2c-0.4,0-0.8,0.1-1.2,0.3
			c0.5,1.6,0.9,3.2,1.5,4.8c0.3-0.1,0.7-0.1,0.9-0.3C578.4,692.3,578,690.7,577.6,689.2z M442.1,23.2c0.3,0.1,0.8-0.3,1.2-0.4
			c-0.7-0.9-1.5-1.7-2.1-2.7c-0.3,0.3-0.4,0.5-0.9,1.2C440.8,21.9,441.5,22.6,442.1,23.2z M504.7,17.4c0,0.1,0.5-0.5,0.8-0.8
			c-0.9-0.7-2-1.5-2.9-2c-0.1-0.1-0.5,0.4-1.1,0.8C502.6,16.2,503.7,16.8,504.7,17.4z M412.2,115.2c0,0.3,0.8,0.7,1.2,0.9
			c0-0.4,0.3-0.8,0.1-1.1c-0.3-1.1-0.7-2-1.5-4.3C412.1,113.1,411.9,114.2,412.2,115.2z M420.4,20.6c0.4,0,0.7-0.7,0.8-1.1
			c0-0.1-0.7-0.8-0.9-0.7c-0.4,0.1-0.9,0.7-1.6,1.2C419.4,20.3,420,20.7,420.4,20.6z M327.6,47c0.4-0.3,0.5-0.7,0.7-1.1
			c-0.4-0.1-0.8-0.4-1.1-0.3c-0.3,0.1-0.4,0.7-0.5,1.1C327,46.9,327.4,47.1,327.6,47z M487.7,59.9c0.1-0.4,0.4-0.7,0.4-1.1
			s-0.3-0.7-0.4-1.1c-0.1,0.3-0.4,0.5-0.7,0.9C487.1,59.1,487.4,59.5,487.7,59.9z M280.6,67.7c0.3,0.1,0.5,0.4,0.8,0.5
			c0.1-0.1,0.1-0.3,0.3-0.4c-0.3-0.1-0.4-0.1-0.5-0.3C281,67.7,280.7,67.7,280.6,67.7z"/>
		<path d="M776.9,0c0.8,0,1.7,0,2.5,0c0,1.7-0.1,3.3-0.1,5.1C778.5,3.3,777.7,1.7,776.9,0z"/>
		<path d="M309.5,0c-1.7,2-3.5,2.1-5.2,0C306.1,0,307.8,0,309.5,0z"/>
		<path d="M171.2,93.6c1.2-1.9,1.6-4.3,2.5-6.4c0.8-1.6,1.5-4.3,2.7-4.7c4.8-1.6,9.5-4,14.8-3.5c0.7,0,1.2,0.8,1.7,1.3
			c-0.7,0.4-1.3,1.1-2,1.2c-3.7,0.8-7.5,1.7-11.2,2.5c-2,0.4-3.2,1.5-3.2,3.5c0.1,4-1.9,6.9-4.7,9.5c-1.9,1.7-2.1,3.3-1.1,5.7
			c1.6,3.7,2.7,7.7,3.7,11.6c0.1,0.5-0.5,1.7-0.9,1.9c-0.7,0.1-2-0.4-2.1-0.8c-1.2-4.8-2.3-9.5-3.1-13
			C168.4,97.2,168.5,97.3,171.2,93.6z"/>
	</g>
</g>
</svg>
