<?xml version="1.0" encoding="utf-8"?>
<!-- Generator: Adobe Illustrator 18.0.0, SVG Export Plug-In . SVG Version: 6.00 Build 0)  -->
<!DOCTYPE svg PUBLIC "-//W3C//DTD SVG 1.1//EN" "http://www.w3.org/Graphics/SVG/1.1/DTD/svg11.dtd">
<svg version="1.1" id="Layer_1" xmlns="http://www.w3.org/2000/svg" xmlns:xlink="http://www.w3.org/1999/xlink" x="0px" y="0px"
	 viewBox="0 0 566 571.3" enable-background="new 0 0 566 571.3" xml:space="preserve">
<path d="M560.5,0c0.1,1.3-0.2,2.7,0.2,3.8c1.2,2.9,0.6,5.6-0.1,8.5c-1,3.7-0.8,3.7,2.7,4.1c0.3,0,0.7,0,1,0.1
	c0.6,0.2,1.4,0.3,1.6,0.7c0.2,0.4-0.2,1.1-0.5,1.6c-0.2,0.4-0.7,0.7-1,1c-1.2,1.3-3,2.5-3.4,4c-0.3,1,1.7,2.5,2.1,3.9
	c0.9,3.2,1.7,6.5,2.2,9.8c0.4,2.7,0.1,5.5,0.1,8.2c0,0.9-0.2,1.9-0.6,2.8c-1.4,3.6-2.6,3.9-6.1,1.3c0.1,3.9,0,7.6-2.3,10.7
	c-1.6,2.2-3.4,4.3-5.2,6.3c-0.4,0.4-1.9,0.7-2,0.5c-1.7-3.1-2.5-0.3-3.8,0.5c-3.2,2.1-6.5,4.2-9.8,6.1c-1.7,1-2.2,0.5-2.3-1.5
	c-0.3-4.7,0.2-9.3,2.6-13.6c1.6-3,3.3-5.9,4.9-8.9c0.4-0.7,1-1.5,1-2.2c0-4.1,1.7-7.8,3.2-11.5c0.2-0.4,0.1-1,0.1-1.4
	c2.5-1.1,2-3.1,1.6-6.1c-0.7,2.6-1.2,4.3-1.6,6.1c-2.5,3.1-5.1,6.1-7.7,9.1c-0.4,0.5-1.5,1.1-1.9,0.9c-0.6-0.3-1-1.3-1.1-1.9
	c0-2.2-0.8-4.2-0.3-6.5c0.6-3.4,0.3-7,0.2-10.6c0-0.7-0.5-1.4-1.2-2.1c-0.4,6.3-4.8,10.1-8.4,14.4c-0.5,0.7-1.6,1-2.3,1.4
	c-0.5-0.9-1.2-1.8-1.5-2.7c-0.2-0.6-0.1-1.3-0.1-1.9c0.3-0.5,0.6-0.9,0.9-1.4c0.1-0.2-0.2-0.5-0.3-0.8c-0.2,0.3-0.5,0.6-0.5,0.9
	c-0.1,0.4,0,0.9-0.1,1.3c-1.3,1.4-2.4,3-3.8,4.2c-1.4,1.3-2.7,0.6-3-1.2c-0.1-0.8,0-1.6-0.1-2.4c0-0.6-0.1-1.2-0.3-2.5
	c-1.9,1.4-3.3,2.5-4.8,3.5c-2.8,1.9-4.1,1.8-6.5-0.6c3.6-5.1,3.6-5.1,0-9.4c0,3.4,0,6.4,0,9.4c-0.9,0.7-1.7,1.4-2.6,2.1
	c-1.3,1-2.9,1.4-3.9,0.1c-1.2-1.6-2.2-0.7-3.3-0.2c-1.8,0.7-3.5,1.6-5.4,2.2c-2.2,0.7-3.7-0.4-3.2-2.4c0.5-1.8,1.6-3.5,2.7-5
	c1.5-2.1,3.3-4,4.9-5.9c1-1.1,1.3-2.2,0.4-3.5c-0.9-1.2-2-0.6-3-0.1c-3.3,1.7-6.2,0.4-9-1.3c-2.4-1.5-2.4-1.5-3.3,1.3
	c-0.4,1.2-0.5,2.5-0.9,3.7c-0.9,2.4-1.7,2.7-4,1.6c-2.8-1.3-4.3-3.7-5.7-6.9c-1.3,5.5-3.9,9.7-7.7,13.2c-1.6,1.5-2.9,1.1-3.5-1
	c-0.6-2-1.2-4-1.6-6c-0.3-1.2-0.3-2.5-0.2-3.8c0.1-0.9,0.6-1.9,0.6-2.8c0-1.1,0.1-2.9-0.5-3.1c-1.8-0.8-1.1,1.3-1.7,2
	c-1.4,1.5-3,1.8-4.7,0.5c-1.5-1.1-2.9-2.4-4.4-3.6c-1.1,1.3-2.1,2.8-3.4,4c-2,1.9-3.3,1.8-5.5,0c-1.3-1.1-2.7-2.2-4-3.3
	c-0.5,1.6-1,3.2-1.6,4.7c-0.4,1.1-0.7,2.2-1.1,3.2c-0.9,1.9-2.4,2-3.7,0.3c-1.2-1.7-2.3-3.5-3.3-5.3c-2-3.6-4.3-6.8-9-7.6
	c-1.5,2.6-3,5.5-4.9,8.8c3.5-0.5,4.9-3,6.9-4.7c0.7-0.6,1.2-1.8,2.3-0.8c1,0.9,1.1,2.2,0.2,3c-4.3,4.1-1.8,8.7-1.1,13.1
	c0.1,0.4,0.6,0.9,0.9,1c0.3,0.1,0.9-0.3,1.1-0.6c1.4-1.9,1.6-4.2,1.4-6.5c-0.1-0.9-0.9-1.9,0.8-2.1c1.3-0.1,2.3,0.4,2.2,1.8
	c-0.2,2.2,0,4.6-0.9,6.6c-2,4.4-4.5,8.6-6.8,12.8c-0.2,0.3-0.3,0.6-0.5,0.9c-2.6,3.7-4.3,3.6-6.3-0.4c-0.3-0.6-0.3-1.3-0.5-1.9
	c-0.7-1.8-1.5-2.7-3.4-1c-1.4,1.2-1.9,0.1-2.1-1.3c-0.5-5.1,0.3-10,2.6-14.5c0.6-1.1,1-1.8,0-2.9c-1.1-1.2-0.5-2.4,0.2-3.6
	c1.3-2.4,2.3-5,3.8-7.2c1-1.4,0.6-2-0.7-2.3c-1.1-0.2-2.7-1.9-3.3,0.6c-0.8,3.6-4,5.3-6.3,7.7c-0.3,0.3-1.5,0.2-2-0.2
	c-0.7-0.6-1.5-1.5-1.6-2.3c-0.4-2.8-2.3-2.6-4.3-2.6c-0.3-0.3-0.6-0.7-0.9-1c0-1,0-1.9,0-2.9c0.1-0.1,0.3-0.1,0.4-0.2
	c0.1-0.1,0.1-0.2,0.1-0.3c-0.2,0.2-0.3,0.3-0.5,0.5c-0.6,0.3-1.1,0.7-1.7,1c0.6,0.6,1.1,1.3,1.7,1.9c0.3,0.3,0.7,0.6,1,0.9
	c0.9,3.3,1.7,6.6,0.4,9.9c-0.6,1.6,0.8,2.3,1.6,3.2c0.7,0.8,1.3,1.7,0.3,2.4c-0.6,0.4-1.9,0.6-2.5,0.2c-1.1-0.6-2-1.5-2.8-2.5
	c-1.8-2.4-3.5-5-5.3-7.4c-0.3-0.3-1-0.8-1.2-0.7c-0.5,0.3-0.8,0.8-1.1,1.3c-0.1,0.3,0,0.6-0.1,1c-0.5,2.5-1.1,2.8-2.9,1.3
	c-1.7-1.4-3.4-2.9-5.4-4.6c-1.1,3,0,5.6,1.5,7.7c1.7,2.4,2.2,5,2,7.8c-0.1,0.9-0.4,2.1-1,2.4c-1.2,0.7-2.4-0.2-2.6-1.3
	c-0.6-3-3.2-4.4-4.9-6.4c-1-1.1-1.9-1.8-3.1-0.2c-0.5,0.6-1.2,1-1.9,1.5c-4.7,2.8-4.8,2.8-7.5-2.1c-0.9-1.7-2-3.3-3.1-4.9
	c-0.6-0.9-1.6-1.6-2.4-2.4c-1.3,1.8,0,3.2,0.2,4.7c0.2,1.2-0.3,1.9-1.6,1.4c-0.2-0.1-0.3-0.2-0.4-0.2c-1-0.3-2.7-1.1-3-0.8
	c-0.8,1.1-1.3,2.5-1.6,3.9c-0.5,2.8,0.2,5.1,3,6.4c0.4,0.2,0.7,1.1,0.6,1.6c-0.1,0.5-0.8,1-1.3,1.1c-4.2,0.1-8.5,0.5-11.2-3.8
	c-0.8-1.3-1.8-0.7-2.3,0.1c-2.2,4.1-4.4,8.2-6.2,12.5c-1.2,2.9-2.3,5.7-4.5,7.9c-0.2,0.2-0.3,0.5-0.5,0.8
	c-4.1,9.8-10.4,18.5-12.7,29c-2.8,4-3.9,8.7-5.1,13.4c-1.3,5.1-3.3,10.1-4,15.3c-1.2,7.7-4.3,14.8-5.6,22.4c-0.6,3.6-1,7.3-1.6,10.9
	c-0.9,4.9-1.9,9.7-2.9,14.6c-0.3,1.7-0.6,3.5-1.2,5.1c-2.7,8.2-4.4,16.6-5.8,25.2c-1.3,7.7-2.3,15.5-4.7,23
	c-2.2,7.2-3.2,14.7-3.9,22.2c-0.5,5.4-2.1,10.9-1.7,16.2c0.7,9.8,0.3,19.6,1,29.4c0.6,9,1.5,17.9,1.9,26.9
	c0.4,7.8,1.9,15.5,2.6,23.3c0.4,4.5-0.1,9.1,0.2,13.6c0.5,7.8,1.4,15.6,2.4,23.4c0.9,6.6,3.4,12.7,4.5,19.1
	c1.1,6.1,1.8,12.3,2.8,18.5c0.4,2.4,0.7,4.8,1.3,7.1c2.4,9.1,4.6,18.3,7.7,27.2c1.8,5.2,3.5,10.6,6.7,15.4c2.2,3.3,4.1,6.9,5.5,10.6
	c2,5.1,5.1,9.3,8.6,13.3c3.4,4,6.1,8.3,8.1,13c2,4.6,4.5,8.8,7.4,12.9c1.8,2.6,4.2,4.4,6.7,6.2c1,0.7,1.5,0.6,2.3-0.4
	c2.5-3.1,2.6-3,0.8-6.6c-0.6-1.3-1.4-2.6-1.9-3.9c-0.4-1.1-2.5-1.7-0.9-3.1c0.3-0.3,2,0.5,2.8,1.2c1.5,1.4,2.9,2.9,4.3,4.4
	c1.1,1.2,1.8,1.3,2.3-0.3c0.5-1.4,1.4-1.8,2.5-2.5c2.1-1.4,3.9-3.3,6-5.2c0.9,1.3,0.7,2.5,0,3.6c-0.9,1.3-1.9,2.6-2.8,3.9
	c-0.5,0.8-1.1,1.6-1.4,2.5c-0.2,0.5,0,1.4,0.4,1.8c0.3,0.3,1.2,0.2,1.7,0c2.6-1,4.9-2.4,6.2-5.1c0.1-0.3,0.8-0.3,1.2-0.5
	c0.2,0.5,0.7,1.2,0.5,1.6c-1.5,3.6-3.7,6.8-6.7,9.3c-1.3,1.1-1.6,1.9-0.9,3.2c0.1,0.3,0.3,0.6,0.4,0.9c1.9,6,2.4,6.4,8.7,6.8
	c1,0.1,1.9,0.1,2.9,0c2.4-0.2,4,0.8,5,3c-0.3,0.3-0.6,0.6-1,1c-1.4-0.3-2.7-0.7-4.1-1c-5.1-0.8-10.3-1.3-14.9-4.1
	c-3.8-2.3-8-3.8-12-5.7c-0.3-0.3-0.6-0.6-1-1c-0.1-0.1-0.1-0.3-0.2-0.4c-0.1-0.1-0.2-0.1-0.3-0.1c0.2,0.2,0.3,0.3,0.5,0.5
	c0.3,0.3,0.6,0.6,1,1c1.5,2.1,3.1,4.1,4.5,6.2c0.2,0.3,0,1.3-0.3,1.6c-0.3,0.3-1.1,0.1-1.6-0.1c-0.4-0.2-0.8-0.6-1-1
	c-2.1-2.8-4.1-5.7-6.3-8.4c-1.2-1.5-2.4-3-3.9-4c-1.8-1.3-4-2-5.9-3.1c-0.7-0.4-1.7-1.6-1.6-2c0.5-1.4,1.5-0.3,2.3,0
	c1.1,0.4,2.1,0.7,3.1,1.1c0.1,0.1,0.1,0.3,0.2,0.4c0.1,0.1,0.2,0.1,0.3,0.1c-0.2-0.2-0.3-0.3-0.5-0.5c-2.4-4.5-5.1-9-7.2-13.6
	c-1.7-3.9-4.2-7.1-6.7-10.5c-3-4.3-6.8-8.1-8.7-13.1c-1.6-4-3.2-8.2-5.7-11.6c-4-5.4-6.1-11.6-8.3-17.8c-2.1-5.9-3.2-12-4.8-18.1
	c-1.8-6.6-3.9-13.1-4.4-20.1c-0.4-5.2-1.6-10.4-2.7-15.6c-1.4-6.7-3.2-13.4-4.6-20.1c-0.6-2.7-0.8-5.4-1.2-8.1c-0.4-3-0.7-6-0.9-9.1
	c-0.1-1.7,0.2-3.5,0.4-5.3c0.1-1.7,0.4-3.5,0.3-5.2c-0.5-5.1-1.1-10.2-1.7-15.3c-0.1-1.4,0-2.9-0.1-4.4c-0.6-7.5-1.4-15-1.8-22.5
	c-0.2-4.5-1-8.9-1.6-13.3c-0.4-2.3,0-4.8,0.1-7.2c0.1-5.5,0.2-10.9,0.1-16.4c0-4.6-0.6-9.3-0.3-13.9c0.2-4.1,1.1-8.2,1.7-12.3
	c0.8-5.5,1.5-11.1,2.5-16.6c1-5.2,2.1-10.3,3.9-15.3c1.6-4.4,1.5-9.5,2.4-14.2c1.4-7.2,2.3-14.5,4.7-21.5c1.9-5.4,2.9-11.1,3.9-16.8
	c0.9-4.9,2.5-9.6,2.1-14.7c-0.1-0.7,0.4-1.5,0.6-2.3c1.3-4.6,2.8-9.2,4-13.9c1.9-7.3,3.4-14.7,5.3-21.9c1.1-4,2.5-8,4-11.8
	c1.2-3.1,3-6,3.9-9.1c2.4-7.7,7.1-14.3,10.3-21.7c2.7-6.1,6.3-11.9,9.6-17.8c2-3.7,4.1-7.3,6.2-10.9c1.4-2.5,2.9-5,4.3-7.5
	c-3-0.8-5.8-1.3-7.8-3.7c-0.9-1.1-2-1-3.5-0.8c-4.9,0.7-9.6,0.4-13.7-3.1c-0.8-0.7-2-1.2-3-1.4c-2.6-0.6-5,0.8-6.6,3.7
	c-1.5,2.7,1.2,3.2,2.2,4.6c0.7,0.8,1.9,1.2,2.7,1.9c0.7,0.6,1.4,1.4,1.7,2.3c0.4,1.2-0.2,2.7-1.5,2.3c-2-0.7-3.4,0.4-5,1
	c-4.4,1.7-7.3,0.7-9.8-3.4c-0.5-0.8-0.9-1.6-1.3-2.3c-0.1,3.9-1,7.4-2.5,10.8c-1,2.3-2.4,4.6-2,7.4c0.1,0.4-0.7,0.9-1,1.3
	c-0.3-0.3-0.7-0.6-0.8-1c-1.8-5.2-4.7-9.9-7.9-15.7c-1.1,3.9-1.9,6.8-2.8,9.7c-0.8,2.9-1.7,5.7-2.9,9.7c2.4-2.4,4.3-4.1,5.9-6
	c0.8-0.9,1.3-2.2,2-3.3c0.2-0.3,0.9-0.5,1.2-0.4c0.3,0.2,0.6,0.8,0.5,1.2c-0.1,0.6-0.3,1.3-0.7,1.8c-2.7,3-5.4,6-8.3,8.7
	c-1.1,1-2.8,0.9-3.9-0.4c-1.1-1.2,0-2,0.6-2.9c1.9-3,3.2-6.2,3.7-9.8c0.3-2,1.3-4,1.9-5.9c0.4-1.2,0.6-2.5,1-3.7
	c0.3-0.3,0.5-0.6,0.8-1c-0.2-0.1-0.3-0.2-0.5-0.3c-0.1,0.4-0.2,0.9-0.3,1.3c-1.3,2.4-2.6,4.8-4,7.1c-0.9,1.5-1.9,2.9-3.1,4.3
	c-0.4,0.5-1.3,0.6-2,0.9c-0.2-0.6-0.5-1.2-0.6-1.8c-0.1-1,0-1.9,0-2.9c-0.1-3-1.1-5.4-3.3-6.8c-2.5,1.5-4.8,2.6-6.8,4.1
	c-2.5,1.8-4.7,0.9-7-0.5c-2.3,4.3-4.5,8.6-5.5,13.4c-0.7,3.6-2,7.1-3.3,10.6c-4.6,12.5-9.4,24.9-12.6,37.9
	c-1.5,6.1-2.8,12.2-4.2,18.2c-1.5,6.2-2.8,12.5-4.6,18.6c-2.4,8.1-5.4,16-8,24c-1.2,3.8-1.9,7.7-3.1,11.5
	c-2.3,7.2-3.4,14.6-3.8,22.2c-0.1,2.2-0.6,4.4-0.7,6.7c-0.1,1.9-0.2,3.9,0.2,5.7c0.7,3.1,0.7,6-0.2,9c-0.6,2-0.8,4.1-1.1,6.1
	c-0.6,4-1.2,7.9-1.7,11.9c-0.5,3.8-0.8,7.6-1.3,11.5c-0.5,4.3-1.1,8.6-1.7,12.8c-0.6,4.1-2.4,8.3-0.9,12.4c1.6,4.4,1.5,8.8,1.6,13.3
	c0.2,6.4-0.5,12.9,0.9,19.3c0.6,2.8,1,5.7,0.9,8.6c-0.1,7.4-0.5,14.8-0.9,22.2c-0.1,2.4-0.6,4.8-0.7,7.1c-0.1,2.9-0.2,5.8,0,8.7
	c0.5,6.1,1.1,12.1,1.8,18.2c0.9,8-0.8,15.9-0.2,24c0.7,9.8,0.7,19.6,2.1,29.3c0.3,2.4,0.7,4.8,1,7.1c0.6,4.3,1.2,8.5,1.8,12.8
	c0.6,4.3,1.6,8.5,2,12.8c0.7,6.5,1.2,13.1,4.3,19.1c0.9,1.7,1.7,3.8,1.4,5.5c-0.4,2.8,0,5.2,0.8,7.9c1,3.3,1.4,6.9,2.2,10.3
	c1.2,5.3,2.5,10.6,3.7,15.9c0.1,0.6,0.3,1.3,0.5,1.8c0.4,0.8,0.9,1.3,1.9,0.5c2-1.6,1.8,0.3,1.6,1.2c-0.8,3.4-2,6.8-2.8,10.2
	c-0.9,3.8-3,6.8-5.9,9.2c-4.5,3.6-9.2,7-13.8,10.5c-0.6,0.5-1.3,1-1.8,1.6c-3,3.6-6.2,7-8.8,10.9c-1.7,2.7-4.1,3.4-6.7,4
	c-0.8,0.2-1.6,0.1-2.4,0.3c-6,2.2-12.4,3.2-18.6,4.7c-2.8,0.7-6.2,0.7-7.5,4.2c5.7,0.4,11.4,0.9,17.2,1.3c0.3,0,0.6-0.1,1-0.1
	c2.9-0.3,5.7-0.8,8.6-0.7c4.3,0.1,8.3-0.3,12-2.7c0.9-0.6,2.1-1.1,3.1-1.1c2.1-0.1,3.3-1.4,4.3-2.8c2-2.7,3.8-5.5,5.6-8.4
	c0.4-0.7,0.5-1.8,0.4-2.6c-0.5-2.3-1.3-4.6-1.9-6.9c-0.2-0.8,0.3-1.7,0.5-2.5c0.9,0.3,2,0.3,2.6,0.9c1.5,1.6,2.7,3.5,4.5,5.8
	c0.9-1.2,1.9-2.3,2.7-3.5c2.5-3.5,6.3-4.7,10.3-5.5c0.6-0.1,1.5,0.2,2,0.6c0.2,0.2,0.1,1.2-0.3,1.7c-0.7,0.9-1.5,1.7-2.4,2.4
	c-2.5,1.8-5.1,3.4-7.4,5.3c-1.9,1.6-3.7,3.5-5.2,5.5c-1.2,1.6,0,3.3,1.9,3.1c1.4-0.1,2.7-0.9,4.1-1.4c4.5-1.7,9-3.6,13.9-3.3
	c1.6,0.1,3.1,0.7,4.7,0.8c0.5,0,1.4-0.9,1.4-1.3c-0.4-3.5-1-6.9-1.4-10.4c-0.1-0.7,0.6-1.4,0.9-2.1c0.6,0.3,1.5,0.5,1.8,1.1
	c0.6,1.1,1.1,2.4,1.1,3.6c-0.1,3,0.6,5.7,1.4,8.5c0.3,1,0.4,1.4,1.5,1.9c4.7,2.1,9.5,4.1,13.5,7.5c4.4,3.8,8.9,7.4,13.5,10.9
	c2,1.5,4.4,2.6,6.7,3.6c1.4,0.6,2.2-0.3,1.8-1.7c-0.8-2.8-1.6-5.6-2.7-8.2c-2-4.9-4.3-9.6-3.7-15.1c0.1-0.7-0.4-1.5-0.5-2.3
	c-0.9-4.1-1.8-8.1-2.6-12.2c-0.1-0.5,0.7-1.2,1-1.8c0.4,0.4,1.1,0.7,1.2,1.1c1,3.5,1.8,7.1,2.7,10.7c0.4,1.9,0.9,3.7,1.2,5.6
	c0.6,2.9,0.5,2.8,3.4,2c1.6-0.4,2.4-1.1,2.6-2.9c0.4-3.5,1-7,1.8-10.4c0.6-2.6,1.7-5.1,2.7-7.6c0.1-0.3,0.8-0.6,1.2-0.5
	c0.3,0.1,0.8,0.6,0.8,1c-0.1,2.2-0.3,4.5-0.5,6.7c-0.1,1.3-0.2,2.6-0.4,4c2.4-2.9,4.8-5.2,8.3-5.9c0.6-0.1,1.5,0.2,2,0.7
	c0.2,0.2,0,1.3-0.4,1.7c-1.8,2-3.5,4.2-5.5,5.9c-2.5,2.1-1.8,5.4-3.4,7.9c-0.8,1.3,1,2.1,2.2,2.6c2.8,1.3,5.6,2.5,8.4,3.7
	c1.2,0.5,2.4,1.1,3.6,1.4c5,1.2,10,2.3,14.9,3.6c4,1.1,8,2.6,12,3.5c3.8,0.9,7.6,2.2,12.5,1.2c-3.2-2.6-5.8-4.7-8.4-6.8
	c-2.9-2.3-5.9-4.5-8.6-6.9c-3.4-2.9-6.6-6-9.7-9.2c-4.7-4.7-8.1-10.4-10.9-16.4c-1.1-2.3-0.8-4.7,0.6-6.9c0.1-0.2,0.6-0.5,0.8-0.4
	c0.4,0.2,0.9,0.5,0.9,0.9c0.1,1.1,0.1,2.3,0.1,3.4c0,1.1,0,2.3,0.3,3.4c0.2,0.6,1.1,1,1.6,1.5c0.3-0.5,0.8-0.9,0.9-1.5
	c0.5-1.8,0.8-3.8,1.4-5.6c0.2-0.6,1.2-1.2,1.8-1.3c0.5,0,1.4,0.7,1.6,1.3c0.6,1.5,1,3.1,1.6,5c1.9-3.6,5.1-5.1,8.2-6.8
	c1.2-0.6,2.7-1.1,3.4,0.1c0.5,0.8,0,2.4-0.5,3.5c-0.5,1-1.5,1.7-2.3,2.4c-2.8,2.5-5.1,5.4-6.5,8.9c-0.1,0.1-0.3,0.1-0.4,0.2
	c-0.1,0.1-0.1,0.2-0.1,0.3c0.2-0.2,0.3-0.3,0.5-0.5c1.8,0.2,3.4-2,5.3-0.5c-0.7,3.8-6.5,2.5-6.6,6.8c0.3,0.1,0.6,0.2,0.9,0.2
	c3-0.5,6-1.7,8.9-1.5c4.3,0.2,8.5,1.4,12.7,2.2c1.1,0.2,2.2,0.5,3.3,0.5c6,0.1,11.9-0.1,17.9,0.1c2.5,0.1,3.9-1.3,4.9-3.1
	c1.5-2.4,2.7-5.1,4.1-7.6c0.3-0.3,0.6-0.6,1-1c2.1-1.2,2.6-2.8,2-5.2c-1-4-0.7-7.9,1.5-11.5c1.8-3.1,3.7-4,7.1-3.1
	c0.8,0.2,1.7,0.2,2.3,0.6c0.7,0.5,1.4,1.3,1.5,2c0.2,1.1,0.2,2.3,0,3.4c-0.3,2-1.3,2.3-3.4,1.4c-0.6-0.3-1.3-0.2-2-0.3
	c0,0.8-0.2,1.6-0.1,2.3c0.1,0.2,1,0.4,1.6,0.4c0.6,0,1.2-0.4,1.9-0.4c1.3,0.1,2,1.3,1.3,2.3c-1.4,2-3,3.8-4.5,5.7
	c3.1,1,6.2,2.1,9.3,3.1c0.5,0.1,1.3-0.1,1.6-0.4c1.1-1.7,2.8-3.1,1.4-5.6c-0.9-1.5-1.1-3.3-1.6-5c-0.1-0.4,0-1.2,0.2-1.2
	c0.5-0.1,1.3-0.2,1.6,0.1c1,1.2,1.8,2.6,2.7,3.9c0.2,0.3,0.9,0.8,1.1,0.7c0.5-0.3,1.2-0.9,1.2-1.3c-0.2-2.1-0.6-4.1-0.9-6.2
	c0-0.2,0.1-0.7,0.3-0.8c0.4-0.1,0.9-0.1,1.4,0.1c0.3,0.1,0.4,0.4,0.6,0.7c1,1.2,1.8,3.2,2.9,3.4c1.2,0.2,2.7-1.3,4.2-2
	c0.3-0.2,1-0.1,1.2,0.2c0.2,0.3,0.2,1-0.1,1.2c-1.1,1-2.3,1.7-3.3,2.7c-0.4,0.4-0.7,1.5-0.4,2c0.4,1,1.4,1.2,2.4,0.5
	c1.4-1,2.9-2.1,4.4-3c0.7-0.4,1.4-0.8,2.2-1c0.5-0.1,1.2,0.2,1.8,0.4c-0.2,0.6-0.2,1.3-0.5,1.6c-1.7,1.5-3.5,2.8-5.1,4.4
	c-3.1,3.1-3.1,4.7-0.8,8.5c0.8,1.2,1.7,2.3,2.4,3.6c0.8,1.4,0.5,2.4-1.3,2.8c-0.6,0.1-1.3,0.7-1.8,0.6c-5.3-1.4-10.7,1.7-16.2-0.4
	c-1.5-0.6-3.8,0.3-5.6,0.9c-1.4,0.5-0.2,1.6-0.2,2.4c0,0.6-0.5,1.3-0.7,2c-0.5-0.3-1.2-0.5-1.6-0.9c-2-3-2.7-6.5-3.4-9.9
	c-0.3-1.7-0.8-3.3-2.1-4.9c-0.2,1-0.6,2-0.4,2.9c0.5,2.3,1.3,4.6,2,6.9c0.3,1.1,0.5,2.2,0.6,3.3c0,0.5-0.4,1.4-0.8,1.5
	c-0.4,0.1-1.3-0.3-1.6-0.7c-1.2-2.2-2.5-2.1-4.2-0.6c-1.3,1.1-2.2,0.4-2.1-1.1c0-1.7,0.3-3.5,0.6-5.2c0.3-1.6,0.9-3.1,1.3-4.6
	c0.1-0.1,0.3-0.1,0.4-0.2c0.1-0.1,0.1-0.2,0.1-0.3c-0.2,0.2-0.3,0.3-0.5,0.5c-3.7,3-5.6,6.9-5.8,11.6c0,1.1,0.1,2.3-0.1,3.4
	c-0.1,0.7-0.5,1.4-0.8,2.1c-0.4-0.7-1-1.4-1.2-2.2c-0.8-4.1-1.6-4.9-5.4-4.1c-2.3,0.5-4.3,0.6-6.6,0.1c-1.8-0.4-3.8-0.3-5.7-0.3
	c-5.5,0.2-10.8-0.7-16.2-1.7c-3.3-0.6-6.8-0.2-10.1-0.2c-1.3,0-1.8,1-0.9,1.9c2.2,2.3,4.4,4.8,6.9,6.8c4.6,3.7,9.5,7.2,14.2,10.7
	c1,0.8,1.9,1.7,2.9,2.6c2.4,2.3,1.3,3.2-1.2,3.8c-2,0.5-4.2,0.4-6.3,0.2c-3.5-0.5-6.9-1.2-10.3-2c-5.1-1.3-10.1-2.9-15.2-4.1
	c-5.5-1.3-11.3-2.2-16.2-5.5c-1.6-1.1-3.5-1.5-5.3-2.3c-0.8-0.3-1.4-0.5-1.9,0.6c-0.3,0.6-1,1-1.4,1.4c-0.2-0.6-0.6-1.2-0.6-1.8
	c-0.1-3.5,0-7.1,0-11.2c-2.4,3.2-1.8,6.3-1.9,9.3c-0.1,1.2-0.4,2.4-0.7,3.6c-2.3-0.5-1.1-2.3-1.2-3.6c-0.3-1.6-0.8-1.9-2.2-1.3
	c-1,0.4-2.1,0.5-3.6,0.9c0.8,2.1,1.6,4,2.3,5.9c1.5,4.2,3,8.4,4.4,12.7c0.7,2.4-0.4,3.4-2.7,3c-4.8-0.8-9-2.8-12.7-6.2
	c-4.7-4.3-9.6-8.7-15-12c-8.7-5.4-18.2-8-28.5-4.9c-2.9,0.9-5.6,2.3-8.3,3.7c-0.7,0.3-1.1,1.4-1.4,2.2c-0.4,1.1,0.7,2.9-1,3.3
	c-0.8,0.2-1.8-1-2.7-1.5c-0.3-0.2-0.7-0.2-0.9-0.4c-1.7-1.7-2.6-1.3-3.3,1c-0.1,0.5-1.1,0.8-1.7,1.3c-0.4-0.6-0.8-1.2-1.1-1.8
	c0.3-0.6,0.7-1.3,1-1.9c0.3-0.6,0.6-1.3,1-1.9c0.1-0.1,0.3-0.1,0.4-0.2c0.1-0.1,0.1-0.2,0.1-0.3c-0.2,0.2-0.3,0.3-0.5,0.5
	c-0.3,0.6-0.7,1.3-1,1.9c-0.3,0.6-0.6,1.3-1,1.9c-1.6,0.7-3.1,1.4-4.7,2.1c-1.6,0.7-3.5,1-4.9,1.9c-3.3,2.1-7.1,1.7-10.6,2.7
	c-0.8,0.2-1.9-0.2-2.8-0.4c-0.8-0.1-1.7-0.6-2.3-0.4c-4.3,1.5-8.6-0.1-12.8,0c-4.3,0.1-8.6,0.8-12.9,1.3c-0.6,0.1-1.6,0.1-1.7,0
	c-0.2-0.7-0.3-1.6,0-2.2c0.7-1.3,1.4-2.6,2.5-3.5c2.9-2.4,5.7-5.3,10.1-4.5c0.9,0.2,1.9-0.4,2.8-0.6c1.8-0.5,3.6-1.1,5.8-1.8
	c-1.1-0.2-2.1-0.2-2.9-0.5c-1.1-0.3-2.1-0.8-3.1-1.3c-1.6-0.9-2.7,0.5-4,0.8c-0.5,0.1-1.1-0.1-1.7-0.2c0.2-0.7,0.2-1.5,0.6-2.1
	c0.3-0.5,1.1-0.7,1.6-1c1.1-0.7,2.7-1.2,3-2.1c0.5-1.6,0.3-3.5,0.1-5.3c-0.1-0.6-0.8-1.3-1.4-1.7c-1.5-1.2-3.1-2.3-4.5-3.6
	c-0.3-0.2-0.5-1-0.3-1.3c0.2-0.3,0.9-0.7,1.2-0.6c1.5,0.5,3,1.1,4.7,1.7c0.5-2.1,1-4.1,1.5-6.1c0.1-0.5,0.7-1.3,1.1-1.3
	c0.5,0,1.3,0.6,1.4,1c0.5,1.5,1.6,3.4,1.1,4.5c-1.6,3.6,0.4,5.7,2.2,8.1c1.1,1.5,1.8,1.4,3.4,0.6c1.9-1,3.9-1.5,5.3-3.8
	c-2.8-1-5.5-1.9-8.2-2.9c-0.4-0.2-0.6-0.9-1-1.4c0.4-0.2,0.8-0.5,1.2-0.6c0.6-0.1,1.4,0.1,1.9-0.2c3-1.4,5.5-0.6,8.1,1.3
	c1.8,1.4,3.5,0.6,3.9-1.6c0.2-0.9,0.1-1.9,0.1-2.9c0.1-1.5-0.5-2.2-2.2-2.5c-2.2-0.4-4.2-1.4-6.3-2.3c-0.4-0.2-0.9-0.9-0.8-1.1
	c0.3-0.5,0.8-1.2,1.3-1.3c1.4-0.2,2.9-0.1,4.3-0.3c1.4-0.1,2-1.1,1.3-2.3c-0.8-1.5-1.8-2.9-2-5c0.8,0.6,1.7,1.1,2.4,1.7
	c2.3,2.1,3.8,5.1,7.2,5.9c0.3,0.1,0.6,0.3,0.8,0.5c2.1,3.9,5.4,2.1,8.3,1.6c3.6-0.6,6.4-2.8,9.2-5.1c1.8-1.6,3.7-3,5.5-4.7
	c2.1-1.9,3.4-4.1,2.5-7.3c-1.9-6.6-4.1-13.2-5-20c-0.9-7.1-4.2-13.9-3.4-21.3c0.1-0.9-0.3-1.9-0.7-2.7c-2.6-4.9-3.2-10.3-4.1-15.7
	c-0.9-4.9-0.9-9.8-2.5-14.7c-1.1-3.4-0.9-7.3-1.4-10.9c-0.8-5.4-1.9-10.7-2.6-16.1c-0.4-3.2-0.4-6.4-0.3-9.7
	c0.1-6.6-0.4-13.1-1.8-19.6c-0.1-0.5-0.2-1-0.1-1.4c0.6-4.1,1.2-8.2,1.7-12.3c0.1-1.1,0.3-2.3,0.1-3.4c-3.2-15-1.4-30.2-1.8-45.3
	c-0.1-2.2,1-4.5,0.8-6.6c-0.7-7.4-0.6-14.9-1.5-22.3c-0.6-5-0.6-10.2-0.3-15.2c0.2-3.6-0.3-7.1-1.3-10.5c-1-3.7-1.1-7.2,0.5-10.8
	c1-2.3,1.6-4.9,1.6-7.5c0.1-7.7,1.9-15.2,2.7-22.9c0.9-8.4,3.2-16.7,1.9-25.4c-0.5-3.2,0.6-6.6,0.9-10c0.2-1.9,0.4-3.9,0.3-5.8
	c-0.1-4.4,0.8-8.6,2-12.8c1.3-4.6,2.4-9.3,3.8-13.9c2-6.6,4.1-13.1,6.5-19.6c3.5-9.5,6-19.2,8.2-29.1c2.2-10.2,4.1-20.4,8.2-30.1
	c2.5-5.9,4.2-12.1,6.2-18.2c1.5-4.7,2.8-9.5,4.4-14.2c1.4-4.1,2.7-8.2,4.8-12c2.2-3.9,3.6-8.2,5.3-12.4c1-2.5,2-5.1,2.9-7.6
	c0.2-0.6,0.8-1.3,0.7-1.8c-0.3-1-1-1.9-1.5-2.9c-0.8,0.5-1.8,0.7-2.2,1.4c-0.5,1-0.7,2.3-0.8,3.5c-0.1,1.3,0.2,2.6,0.2,3.9
	c0,0.6-0.2,1.7-0.5,1.7c-2.7,0.5-2.8,3.4-4.3,4.8c-3.4,3.2-4.2,7.4-4.9,11.7c-0.4,2.7-1.4,5.2-2.3,7.8c-0.6,1.6-2.1,1.8-3,0.4
	c-2.2-3.5-5-6.8-4.6-11.4c0.1-1.1-0.6-2.4-1.6-3.5c-0.4,2.3-0.8,4.7-1.3,7c-0.2,0.7-0.8,1.5-1.4,1.8c-0.3,0.2-1.3-0.6-1.7-1.1
	c-1.1-1.8-2-3.6-2.8-5.2c-3.6,2.8-7.2,5.8-11.2,8.4c-1.3,0.9-2.6,1.6-3.7,2.8c-1.8,1.9-4.3,2.8-6.8,3.3c-0.6,0.1-1.4-0.5-2.1-0.7
	c0.2-0.6,0.3-1.3,0.7-1.7c3.2-2.8,4.1-6.4,3.7-10.5c-2.4,2.2-3.3,2.2-4.5-0.3c-0.4-0.9-0.6-1.8-1-2.7c-0.5-1.4-1.4-1.7-2.5-0.6
	c-0.8,0.8-1.6,1.6-2.5,2.3c-1.1,0.8-2.9,1.3-3.4,0.1c-1.4-3.5-1.3-0.7-1.8,0.3c-1.3,2.2,0.5,4,0.8,6c0.1,0.9,0.3,2.2-0.1,2.5
	c-0.6,0.5-1.9,0.5-2.7,0.2c-3.3-1.3-6.5-3-7.9-6.6c-0.1-0.4,0-0.9,0-1.3c0.6,0.1,1.3-0.1,1.6,0.2c0.7,0.6,1.2,1.5,1.8,2.2
	c1,0.9,2.1,1.8,3.5,3c0.1-1.3,0.3-1.9,0.3-2.5c0.1-5.3,0.1-5.2-4.9-4.5c-1.4,0.2-2.8-0.2-4.2-0.5c-1.7-0.4-2.6,0.3-2.4,1.9
	c0.8,5.3-2.5,10-2.2,15.2c0.1,1.2-1,2-2.4,1.2c-0.8-0.5-1.6-1.1-2.4-1.6c-3.9-2.2-7.9-4.2-11.8-6.4c-2-1.1-3.2,1.3-5,0.6
	c-0.2,0.9-0.4,1.8-0.5,2.7c-0.3,2.9-0.5,5.7-1,8.6c-0.1,0.9-0.7,1.8-1.2,2.5c-0.5,0.7-1.7,1.9-1.9,1.8c-1-0.7-2.6-1.7-2.6-2.5
	c0.1-3.8-2.7-6.1-4.2-9c-0.8-1.6-1.6-3.2-2.4-4.8c-1,1.1-2,2.3-3.1,3.4c-1.8,1.7-3.3,1.5-4-0.7c-1.3-4.7-3.1-9.5-1.4-14.6
	c0.2-0.5-0.3-1.3-0.4-1.9c-0.7,0.4-1.6,0.7-1.9,1.3c-0.6,1.3-0.9,2.7-1.1,4.2c-0.9,6.1-4.2,11-7.8,15.8c-0.9,1.1-1.9,2.2-2.8,3.3
	c-1.8,2.3-4.7,1.9-5.8-0.8c-0.5-1.1-0.9-2.3-1.3-3.4c-1.2,0.7-2.5,1.3-3.6,2.1c-2.1,1.6-2,2.1,0,3.8c1.3,1.1,2.5,2.4,3.8,3.6
	c2.1,2,2.7,4.1,2.3,7.2c-0.5,3.8-0.8,7.6-2.1,11.3c-0.5,1.4-0.9,2.8-1.6,4.2c-0.4,0.9-1.3,1.1-1.8,0.1c-0.7-1.3-0.9-2.7-1.5-4
	c-1.5-3.3-3.1-6.6-4.7-9.8c-0.3-0.5-0.9-0.8-1.8-1.6c-0.4,1.9-1,3.4-1.1,4.9c-0.3,4.8,0.1,9.6-0.8,14.4c-0.5,2.4,0.9,5.3,1.9,7.8
	c1,2.4,0.5,4.3-0.4,6.4c-1.1,2.7-2.8,3.8-5.6,3.3c-0.3-0.6-0.6-1.3-1-1.9c0-1.4-0.6-2.4-1.9-2.9c-0.1-0.1-0.1-0.3-0.2-0.4
	c-0.1-0.1-0.2-0.1-0.3-0.1c0.2,0.2,0.3,0.3,0.5,0.5c0,1.4,0.6,2.4,1.9,2.9c0.3,0.6,0.6,1.3,1,1.9c-2.4,2.5-0.7,5.4-0.7,8.1
	c0.1,2.7,1,5.5,0.5,8.1c-0.6,2.9,0.1,4.8,1.9,6.8c1.1,1.1,1.7,2.7,2.5,4.1c3.3,5.5,7.9,8.8,14.5,8.8c1.1,0,2.3,0.1,3.3,0.4
	c3.4,1.2,6,0.1,8.3-2.3c1.4-1.4,2.7-2.7,4.1-4.1c0.5-0.5,0.9-1.1,1.4-1.3c1.6-0.4,3.6-1.1,4.9-0.5c1.8,0.8-0.6,2.5-0.2,3.9
	c-0.1,0.1-0.3,0.1-0.4,0.2c-0.1,0.1-0.1,0.2-0.1,0.3c0.2-0.2,0.3-0.3,0.5-0.5c1.3-0.9,2.6-1.8,3.8-2.8c1.7-1.5,3.9-1.1,3.8,0.9
	c-0.3,3.6,0.5,7.2,0,10.8c-0.1,0.6-0.4,1.3-0.8,1.7c-0.5,0.4-1.3,0.6-2,0.8c-0.2-0.5-0.5-1.1-0.4-1.6c0.1-1.4,0.4-2.8,0-4.6
	c-1.7,1.6-3.3,3.1-5,4.6c-1.8,1.6-3.7,3-5.5,4.5c-1,0.8-1.7,1.9-2.7,2.8c-2,1.7-4.2,1.8-6.5,0.4c-3-1.8-4-1.5-5.2,1.6
	c-0.5,1.1-1.1,2.2-1.8,3.3c-1,1.7-0.8,2.8,0.8,3.5c1,0.5,2.2,1,3.2,0.8c0.5-0.1,0.8-1.5,1.4-2.1c0.9-0.9,1.8-1.8,2.9-2.5
	c2.2-1.4,4.4-2.6,6.7-3.8c2.3-1.2,4.4-2.6,5.7-5c0.7-1.3,1.7-1.9,3.2-1.7c1.8,0.2,2.4,1.8,2.5,3.2c0.1,2-0.2,4.1-0.7,6.1
	c-0.4,1.5-1.4,2.9-2.1,4.3c-0.1,0.1-0.3,0.1-0.4,0.2c-0.1,0.1-0.1,0.2-0.1,0.3c0.2-0.2,0.3-0.3,0.5-0.5c4-1.6,7.4-3.7,9-8
	c0.2-0.6,1.1-0.9,1.7-1.4c0.3,0.6,0.9,1.3,1,2c0.6,4.5-0.6,8.6-2.7,12.5c-0.4,0.7-1,1.4-1.1,2.1c-1,7.4-6.2,11.8-11.8,15.6
	c-2,1.4-3.4,2.8-3.8,5.2c-0.1,0.6-0.2,1.3-0.4,1.9c-0.9,2.1-1.5,2.9-3.4,1c-0.9-0.9-2-1.7-3.2-2.1c-4-1.6-6.1-0.6-7.5,3.5
	c-0.4,1.1-0.7,2.2-1.3,3.1c-0.4,0.6-1.2,0.9-1.8,1.4c-0.3-0.6-0.9-1.3-1-1.9c-0.7-6-4.7-9.2-9.8-11.5c-1.2-0.5-1.5-0.3-1.9,0.9
	c-0.3,0.9-1.4,1.7-2.3,2.3c-4.6,3.1-12.3,2.4-17.4-2c-2.3-2-4.7-3.9-7.1-5.8c-0.7-0.6-2-1.4-1.9-1.9c0.6-2.6-1.1-2.1-2.4-2.1
	c-0.8,0-1.7,0-2.4,0.3c-2.8,1.2-4.7-0.2-6.4-2.1c-2.9-3.3-4.9-7.2-5.5-11.5c-0.3-2-0.6-3.2-2.9-3.4c-4.2-0.4-5.8-4-6.7-7.2
	c-0.9-3-1.8-6-1.9-9.3c0-2.4-2.3-4.8-3.7-7.1c-0.1-0.2-1.3,0-1.6,0.3c-2.2,2.3-4.8,1.4-7.2,1c-2-0.3-2.6-1.7-1.9-3.6
	c0.2-0.5,0.3-0.9,0.6-1.3c3.7-4.2,4.1-9.2,3.9-14.5c-0.2-3.9,0.9-7,5.4-7.9c0.5-0.1,1.1-0.7,1.3-1.2c0.5-1.5,0.8-3,1.5-5.4
	c-3.3,2.2-6,3.7-8.4,5.7c-2.2,1.8-3.2-0.2-4.6-0.9c-1.6-0.9-0.4-1.9-0.1-2.9c0.6-1.6,1.3-3.3,2-4.9c0.1-0.1,0.3-0.1,0.4-0.2
	c0.1-0.1,0.1-0.2,0.1-0.3c-0.2,0.2-0.3,0.3-0.5,0.5c-1.7,0-2.5,0.9-2.9,2.5c-0.5,2.1-1.3,4.2-1.9,6.3C16.2,99,16.1,99,16,99.1
	c-0.1,0.1-0.1,0.2-0.1,0.3c0.2-0.2,0.3-0.3,0.5-0.5c0.6,0.1,1.4,0.1,1.8,0.5c0.3,0.3,0.5,1.4,0.4,1.5c-1.6,0.9-3.2,2.1-5.3,1.3
	c-1.6-0.6-1.8-1.2-0.9-2.8c0.9-1.5,1.8-3,2.8-4.9c-1.3-0.3-2.3-0.4-3.3-0.9c-1.3-0.6-1.9-1.9-1-3.2c2-3.1,2.6-6.2,1.7-9.9
	c-0.8-3.2,0.6-6,3.5-7.8c0.4-0.3,0.9-0.4,1.2-0.7c1.4-1.2,3.3-1.9,2.9-4.4c-0.4-2.5-2.8-1.1-3.7-2.3c-0.1-0.1-0.2-0.3-0.3-0.4
	c0.3-0.3,0.5-0.6,0.8-0.9c-0.2-0.1-0.3-0.2-0.5-0.3c-0.1,0.4-0.2,0.8-0.3,1.3c-0.9,1.3-1.6,2.7-2.6,4c-2.8,3.8-6.5,4.7-10.5,2.6
	C2.3,71,1.2,70,2.7,69c2.6-1.8,3.3-4.5,4-7.3c0.2-0.9,0.6-1.8,0.8-2.7c1.1-4.3,2.3-5.3,6.9-5.5c0,1.3,0.3,2.7-1.6,2.9
	c-1.3,0.1-2,0.5-2.4,1.9C9.4,61.6,8.1,65,7,68.5c-0.1,0.2,1.3,1.2,1.4,1.2c1.4-1,2.8-2,3.8-3.4c1.1-1.5,1.6-3.5,2.7-5.1
	c1.8-2.8,1.4-5.3-0.5-7.8c-0.3-1.1-0.6-2.2-1-3.2c-1.4-4-1.4-4-5.4-2.9C5.4,48,3,47.6,0.8,45.9c-0.9-0.7-1.2-1.9-0.1-2.4
	c4.1-1.9,3.9-6.4,5.9-9.6c0.6-0.9,1-2,1.6-2.9c0.6-0.7,1.9-1.2,2-1.9c0.1-1-0.6-2.1-1.2-3.1c-2.3-4-3-8.5-4.8-12.7
	c-0.9-2.1,0.2-3.4,2.2-2.6C11,12.5,15,11,18.8,8.9c1.2-0.7,2.3-1.7,3.4-2.6c1.2-1.1,1.8-1.5,2.5,0.6c0.5,1.4,1.6,2.3-0.5,3.6
	c-2.6,1.6-3,4.5-2.9,7.3c0.1,4,0.7,7.9,1.1,12.4c1.1-0.9,1.7-1.5,2.5-2.1c0.9-0.8,1.8-0.8,2.1,0.5c0.7,2.4,2.6,1.6,4,1.4
	c1.7-0.2,2.7-1.3,3.1-3.2c0.2-1.1-0.2-1.5-1-1.7c-0.3-0.1-0.8,0.5-1.2,0.8c-0.2,0.2-0.1,0.7-0.3,0.9c-0.6,0.5-1.2,0.8-1.9,1.2
	c-0.2-0.7-0.7-1.6-0.5-2.1c1-1.7,0.1-2.7-1-3.8c-1.3-1.2-2.6-2.5-3.6-3.9c-0.4-0.5-0.4-1.6-0.1-2.2c0.2-0.5,1.2-0.7,1.9-0.7
	c0.8-0.1,1.6,0.2,2.4,0.1c1.5-0.2,2.3-1.4,1.6-2.7c-1.4-2.8-1.7-6.2-4.9-8c-2-1.1-1.4-3-0.4-4.7c1,0,1.9,0,2.9,0
	c0,1.1-0.5,2.3-0.1,3.1c1.4,3,3.1,5.8,4.6,8.8c0.6,1.2,1.2,1.7,2.6,1.1c3-1.4,6.1-1.6,9.4-1.3c0,1.1-0.3,1.8-1.6,2
	c-1.7,0.2-3.5,0.4-5.1,1c-3.1,1.1-5.7,3.5-10.3,3.2c2.4,1.7,3.8,2.7,5.2,3.8c2.4,1.9,5.2,2.2,7.6,0.6c2.5-1.7,4.7-3.8,6.7-6.1
	c1.3-1.6,0.2-3.2-2.5-4.4c-0.7-0.3-1.3-0.8-2.1-0.9c-6.8-1.1-8.6-3.1-8.6-9.8c0-0.3,0-0.6,0-1c2.6,0,5.2,0,7.8,0
	c1.3,2.6,2.6,2.6,4.8,0c0.6,0,1.3,0,1.9,0c-0.1,1.3,0.8,2,1.9,2.4c1.6,0.6,3.3,1,4.9,1.5c0,0,0,0,0,0c0.3,0.3,0.7,0.7,1,1l0,0
	c0.3,0.3,0.6,0.6,1,1c0,0,0,0,0,0c1,1.6,1.7,3.5,3,4.7c2,1.9,3.5,1.2,4.8-1.8l0,0c0.1-0.1,0.3-0.2,0.4-0.3c1.1-1.6-0.4-4.7,2.9-5
	C68,3,68,2.4,67.8,2c-0.3-0.7-0.6-1.3-1-2c1.3,0,2.6,0,3.9,0c0.1,0.4,0.2,0.9,0.4,1.3c0.5-0.4,1-0.9,1.6-1.3c1,0,1.9,0,2.9,0
	c-1.2,1.6-2.5,3.2-3.7,4.8c-1.5,2-3.1,4-4.5,6c-0.3,0.5-0.3,1.8,0.1,2.1c0.9,0.8,2.1,1.4,3.3,1.8c0.3,0.1,0.9-1.4,1.5-1.7
	c4.6-2.3,4.7-6.4,4.3-10.7c-0.1-0.8,0-1.6,0-2.4c0.6,0,1.3,0,1.9,0c0.4,1.9,0.6,3.8,1.2,5.6c0.2,0.6,1.4,0.9,2.3,1
	c0.2,0,1-1.1,0.9-1.6c-0.3-1.7-0.9-3.4-1.4-5c1.9,0,3.9,0,5.8,0c0.5,0.4,1,0.9,1.6,1.3C88.9,0.9,89,0.4,89.1,0c1,0,1.9,0,2.9,0
	c0.1,1.1,0.4,1.8,1.6,1.9c2.6,0.1,5-0.2,7.1-1.9c1,0,1.9,0,2.9,0c-0.2,1.1-0.3,2.2-0.6,3.2c-1,2.8-2.2,5.6-3.2,8.4
	c-0.1,0.1-0.3,0.1-0.4,0.2c-0.1,0.1-0.1,0.2-0.1,0.3c0.2-0.2,0.3-0.3,0.5-0.5c1.5-0.4,3.1-0.8,4.5-1.4c5.4-2.2,7.1-4.7,7.1-10.3
	c1,0,1.9,0,2.9,0c0.7,3.7-0.7,6.7-3.5,9.5c4-1.1,6.1,2.1,9.7,4.2c-2.5-5.1-4.9-9-5.3-13.7c1,0,1.9,0,2.9,0c-0.8,5.5,3.6,9,5.5,13.5
	c0.4,1,1.6,0.6,1.8-0.2c0.7-3.7,1.9-7.5-1.3-10.8c-0.6-0.6-0.8-1.7-1.1-2.5c1,0,1.9,0,2.9,0c1,1.7,2.1,3.4,2.9,5.3
	c0.4,0.9,0.7,1.1,1.6,0.8c0.7-0.2,1.5-0.2,2.3-0.2c0.9,2.3,1.5,4.9,2.8,7c1.3,2,1.1,3.9,0.9,5.9c-0.2,2.2-0.5,4.4-0.8,6.5
	c-0.1,0.1-0.3,0.1-0.4,0.2c-0.1,0.1-0.1,0.2-0.1,0.3c0.2-0.2,0.3-0.3,0.5-0.5c0.6,0.4,1.6,0.6,1.8,1.1c0.4,1,0.2,2.2,0.5,3.3
	c0.1,0.5,0.9,0.8,1.4,1.2c0.3-0.4,1-0.9,1-1.3c-0.3-3.8-0.4-7.7-1.2-11.3c-0.4-1.6-1.7-2.9-0.8-4.7c-1.9-2.5-3.7-5-5.6-7.6
	c-1.6-1.9-3.2-3.9-4.8-5.8c1.6,0,3.2,0,4.9,0c2.1,3.4,4.2,6.7,6.6,10.5c0.4-2.6,0.7-4.7,1.1-6.9c0.2-1.2,0.6-2.4,1-3.7
	c1.3,0,2.6,0,3.9,0c0.1,3.4,2.9,5,4.9,7.1c0.1,0.2,1,0,1.2-0.2c0.2-0.5,0.3-1.5,0.2-1.6c-2.3-0.9-1.8-2.3-0.9-4
	c0.1-0.3-0.3-0.9-0.5-1.3c1,0,1.9,0,2.9,0c0.6,1.1,1.3,1.1,1.9,0c1,0,1.9,0,2.9,0c-1.1,1.9-0.2,3.4,1.3,4.4c1.5,0.9,2.2-0.8,3-1.6
	C163.2,2,164,1,164.8,0c1,0,1.9,0,2.9,0c1.6,2.3,4.3,1.4,6.4,2.3c2.9,1.2,4.8,0.4,6.2-2.3c1,0,1.9,0,2.9,0c-1.3,3.1-1.2,5.8,1.9,7.8
	c0.1,0.9,0,1.9,0.2,2.8c0.1,0.4,0.8,0.7,1.3,1c0.2,0.1,0.8-0.2,0.8-0.3c-0.1-0.5-0.1-1.1-0.4-1.5c-0.5-0.7-1.2-1.3-1.9-2
	c0-2.6,0-5.2,0-7.8c1,0,1.9,0,2.9,0c-0.3,0.9-0.6,1.8-0.8,2.7c-0.6,3.2,0,4.2,3,5.6c1.6,0.7,3,1.8,4.5,2.6c2.6,1.3,5,3.5,8.9,2
	c-1.5-1.8-2.7-3.5-4.2-4.8c-2.5-2.2-4.4-4.6-4.6-8.1c1,0,1.9,0,2.9,0c1.4,4.4,1.4,4.4,4.4,5.8C201.4,4,200.5,2,199.7,0
	c1,0,1.9,0,2.9,0c1.5,4.2,1.5,4.2,4.6,1.8c0.7-0.6,1.5-1.2,2.2-1.8c1,0,1.9,0,2.9,0c0.3,1.6-0.3,2.5-1.8,3.4c-2,1.2-3.9,2.8-5.4,4.6
	c-1.3,1.4-0.4,3.7,1.4,4.9c1.8,1.3,2.7-0.4,3.4-1.5c1-1.7,1.7-3.7,2.4-5.6c0.7-1.9,1.3-3.9,2-5.8c2.6,0,5.2,0,7.8,0
	c0.8,1.1,1.6,2.3,2.5,3.6c0.8-1.3,1.6-2.5,2.3-3.6c1.6,0,3.2,0,4.8,0c1.3,1.9,2.8,3.2,5,4.1c2.2,1,4.6,2.2,5.8,4.7
	c0.3,0.5,1.1,0.8,1.7,1.2c0.3-0.7,1-1.4,0.9-2.1c-0.2-2.7-0.5-5.3-0.8-8c1,0,1.9,0,2.9,0c0.1,0.4,0.2,0.9,0.3,1.3
	c0.2-0.4,0.4-0.9,0.7-1.3c2.3,0,4.5,0,6.8,0c1.2,6.7,4.5,12.9,3.9,20.3c3.2-2,3.5-4.7,3.8-7.4c0.6-4.6-1.2-8.8-2.9-12.9
	c1,0,1.9,0,2.9,0c0.9,3,1.7,6,2.5,8.6c1.1-1,2.4-2.4,3.9-3.5c0.9-0.6,0.9-1.1,0.5-1.9c-0.4-1-0.7-2.1-1.1-3.2c3.9,0,7.8,0,11.6,0
	c-1.1,0.8-2.3,1.6-3.6,2.7c1.2,1.9,2.4,3.9,3.5,5.7c2.1-3,4-5.7,5.9-8.3c1.9,0,3.9,0,5.8,0c1,3,1.2,3.1,3.1,1.2
	c0.3-0.3,0.5-0.8,0.8-1.2c0.6,0,1.3,0,1.9,0c-0.8,1.4-1.7,2.7-2.5,4.1c-0.2,0.3-0.1,1,0.1,1.2c0.2,0.2,0.9,0.1,1.2,0
	c2.5-1.1,4.9-2.2,7.3-3.4c0.9-0.5,1.7-1.3,2.5-1.9c1,0,1.9,0,2.9,0c0,0.3,0,0.6,0,0.9c0.3,3.2,0.3,3.1,3.4,3c1.7-0.1,3.5,0,5.1,0.4
	c1.6,0.4,2-0.1,2-1.5c0-0.9,0-1.9,0.1-2.8c0.6,0,1.3,0,1.9,0c0.4,2,0.8,4,1.3,6c0,0.2,0.5,0.4,0.8,0.3c0.3,0,0.6-0.4,0.6-0.6
	c0.1-1.9,0.1-3.9,0.2-5.8c1.9,0,3.9,0,5.8,0c-0.1,0.3-0.2,0.6-0.4,0.8c-1.5,1.3-1.1,2.3,0.3,3.3c1.5,1.1,2.2,0.1,2.9-1
	c0.6-1.1,1.4-2.1,2-3.1c2.3,0,4.5,0,6.8,0c0.3,0.8,0.6,0.8,1,0c1,0,1.9,0,2.9,0c0,0.6,0.1,1.3,0,1.9c-0.8,4.9-0.8,4.9,3.7,7.5
	c0.3,0.2,0.5,0.4,0.7,0.5c0.8-3.5,1.6-6.7,2.4-9.9c1.3,0,2.6,0,3.9,0c-0.3,2.1-2.8,4.4,1.1,6.3c0.6-2.2,1.2-4.2,1.8-6.3
	c1.3,0,2.6,0,3.9,0c-3.1,4.2-3.1,9.1-3.3,14.1c1.7-0.9,2.9-2.1,4.1-3.3c0.7-0.7,1.2-1.6,1.9-2c3.3-2.2,5.8-5,6.9-8.8
	c1.3,0,2.6,0,3.9,0c0.9,1.8,1.6,3.8,2.9,5.4c1.1,1.4,2.9,2.3,4.5,3.2c0.3,0.2,1.1-0.4,1.7-0.7c-0.3-0.4-0.5-0.9-0.8-1.3
	c-1.5-2.1-3.8-3.8-4.3-6.6c9.1,0,18.1,0,27.2,0c0.6,1.2,1.3,1,1.9,0c1,0,1.9,0,2.9,0c-0.5,0.8-1,1.6-1.3,2.2c1.3,0.7,2.7,2.2,3.9,2
	c3.9-0.6,8.1-0.9,11-4.2c4.2,0,8.4,0,12.6,0c1.1,2.1,2.9,3.1,5.1,3.7c0.3,0.1,0.8,0,0.8-0.1c0.1-0.4,0-0.8-0.1-1.1
	c-0.3-0.9-0.7-1.7-1-2.5c0.6,0,1.3,0,1.9,0c1.6,2.9,3.4,5.6,7.3,5.1c-0.5-1.7-1-3.4-1.5-5.1c0.6,0,1.3,0,1.9,0
	c0.4,0.8,0.8,1.6,1.1,2.3c0.5-0.6,1.1-1.3,1.6-1.9c0.1-0.1,0.1-0.3,0.2-0.4c1.3,0,2.6,0,3.9,0c-0.8,0.7-1.7,1.4-2.4,2.2
	c-0.2,0.2-0.1,1.1,0.1,1.2c1.8,0.5,3.4,2.1,5.4,0.8c1.9-1.3,3.8-2.8,5.7-4.2c1,0,1.9,0,2.9,0c-1.1,1.4-2.2,2.9-3.3,4.3
	c2.7,0.5,5.4,1,8.1,1.5c0,0.5,0,0.9,0.1,1.3c0.1,0.3,0.4,0.6,0.6,0.9c0.1-0.3,0.4-0.6,0.3-0.8c-0.2-0.5-0.6-0.9-0.9-1.4
	c-0.7-1-1.1-2.2-2-2.8c-1.1-0.8-1.9-1.5-1.9-3c1,0,1.9,0,2.9,0c1.6,1.9,3.2,3.9,4.9,5.8c-0.3,0.3-0.5,0.6-0.8,0.9
	c0.2,0.1,0.3,0.2,0.5,0.3c0.1-0.4,0.2-0.8,0.3-1.3c0.6-1.9,1.3-3.9,1.9-5.8c6.1,0,12.3,0,18.4,0c-0.4,2.5,1.3,3.5,3.3,3.7
	c2.2,0.3,4.5,0.3,6.7-0.1c0-0.3,0-0.6-0.1-1c-1.8,0-3.7,0-5.8,0c0.7-1.1,1.2-1.9,1.8-2.7c1,0,1.9,0,2.9,0c1.9,1.5,3.9,2.3,5.8,0
	c1,0,1.9,0,2.9,0c0,0.8,0,1.6,0,2.4c0.6-0.5,1.2-0.9,1.8-1.5c0.2-0.2,0.1-0.6,0.2-0.9c0.6,0,1.3,0,1.9,0c-0.8,2.9-0.7,5.5,1.9,7.7
	c0.5,0.4,0.7,1.1,0.9,1.7c0.7,1.6,1.7,2.6,3.3,3.7c2.3,1.5,4.9,3.3,5.5,6.6c0.5,3.2,2.8,5.3,5.7,7.5c0-1.4,0.2-2.4,0-3.3
	c-0.7-2.9-1-5.7-4.2-7.5c-2.6-1.5-4.5-4-6.9-6.2c2.6-1.1,4,0.4,5.3,1.9c2.2,2.7,5.2,3.8,8.3,4.4c1.3,0.3,2.7-0.3,4.1-0.6
	c-0.5-1-1-1.9-1.5-2.9c-0.3-0.6-0.5-1.2-0.9-1.7c-3.4-5.5-7.9-7.5-13.8-5.8c-1.1,0.3-2.2,0.5-3.3,0.5c-0.6,0-1.3-0.5-1.9-0.7
	c0.5-0.4,0.9-1,1.4-1.2c2.3-0.8,4.4-1.9,5.8-4c1,0,1.9,0,2.9,0c0,0.6-1.1,1.4,0.2,1.9c1.4,0.4,2.9,0.5,4,1.3
	c2.3,1.7,4.3,3.7,6.4,5.6c0.3,0.3,0.7,0.6,1,1c0.3,2.1,1.2,3.9,3.2,5.1c1.2,0.7,1,2-0.3,2.7c-1,0.5-2.1,1-3.3,1.5
	c5.7,1.8,11.3,1.8,15-0.2c-4.7-1-7.9-3.8-11-6.9c-0.9-1-2.3-1.5-3.5-2.2c-0.3-0.3-0.6-0.7-1-1c0-0.3,0-0.8,0.1-0.9
	c2-1.1,2.6-2.5,1.1-4.6C546.7,2.5,547,1.1,547,0c0.6,0,1.3,0,1.9,0c0.4,1.2,0.6,2.4,1.1,3.6c0.6,1.4,1.4,2.8,2.3,4.1
	c0.2,0.3,1.3,0.6,1.5,0.3c1.5-1.4,3.2-2.7,4.2-4.4c0.5-0.8-0.2-2.3-0.4-3.5C558.6,0,559.6,0,560.5,0z M344.2,509.2
	c-0.3,0.3-0.6,0.7-1,1c-0.3,0.2-0.6,0.3-0.8,0.5c-1.4,1.3-2.8,2.6-2.6,4.7c0,0.1,0.2,0.2,0.3,0.3c1-1.4,2-2.7,2.9-4.1
	c0.2-0.4,0.2-0.9,0.3-1.4C343.6,509.9,343.9,509.6,344.2,509.2c0.2,0,0.3-0.1,0.4-0.2c0.1-0.1,0.1-0.2,0.1-0.3
	C344.5,508.9,344.4,509.1,344.2,509.2z M78.4,138.7c0.3,0.3,0.6,0.6,1,1c0.3,0.3,0.7,0.6,1,1c0.1,0.4,0.2,0.8,0.3,1.3
	c0.2-0.1,0.3-0.2,0.5-0.3c-0.3-0.3-0.5-0.6-0.8-0.9c-0.3-0.3-0.6-0.7-1-1C79.1,139.4,78.8,139,78.4,138.7c0-0.1-0.1-0.3-0.2-0.4
	c-0.1-0.1-0.2-0.1-0.3-0.1C78.1,138.4,78.3,138.6,78.4,138.7z M48.4,138.7c0.1,0.1,0.1,0.3,0.2,0.4c0.1,0.1,0.2,0.1,0.3,0.1
	C48.7,139,48.5,138.9,48.4,138.7c-0.3-0.3-0.6-0.7-1-1c-0.1-0.4-0.2-0.8-0.3-1.3c-0.2,0.1-0.3,0.2-0.5,0.3c0.3,0.3,0.5,0.6,0.8,1
	C47.7,138.1,48,138.4,48.4,138.7z M320.9,520.9c-0.3,0.3-0.6,0.6-1,1c-0.9,0.5-2.2,0.8-2.6,1.6c-1,1.6-1.5,3.4-2.2,5.2
	c-1.9,0.8-2.8,2.5-3.4,4.3c-0.1,0.2,0.2,0.6,0.4,0.8c0.2,0.1,0.7,0.1,0.7,0c0.8-1.7,1.5-3.4,2.3-5.1c1.6-2.3,3.2-4.5,4.8-6.8
	C320.3,521.5,320.6,521.2,320.9,520.9c0.1-0.1,0.3-0.1,0.4-0.2c0.1-0.1,0.1-0.2,0.1-0.3C321.3,520.6,321.1,520.7,320.9,520.9z
	 M51.3,141.7c0.3,0.3,0.7,0.6,1,0.9c2.6,2.6,2.5,6.3,3.6,9.6c1.8-1.3,3.2-2.4,4.7-3.5c-2.4-2.8-4.3-5.9-8.3-6.2
	C51.9,142.2,51.6,141.9,51.3,141.7c-0.1-0.2-0.3-0.4-0.4-0.5C51,141.3,51.1,141.5,51.3,141.7z M192.9,12.6c0.3,0.3,0.7,0.6,1,0.9
	c0.6,0.3,1.3,0.6,1.9,1c0.3,0.3,0.6,0.7,1,1c-0.1,2.7,0.1,5.3,2.5,7.1c1.2-1.9,2.5-3.8,3.8-5.9c-2.3-0.4-4.3-0.8-6.3-1.2
	c-0.3-0.3-0.7-0.6-1-1c-0.6-0.3-1.3-0.6-1.9-1C193.6,13.3,193.2,12.9,192.9,12.6c-0.1-0.2-0.3-0.3-0.5-0.5
	C192.6,12.3,192.7,12.5,192.9,12.6z M104.6,168.8c-0.1-0.1-0.1-0.3-0.2-0.4c-0.1-0.1-0.2-0.1-0.3-0.1
	C104.3,168.5,104.5,168.6,104.6,168.8c0.3,0.3,0.6,0.7,1,1c0.9,5.1,3.8,7.9,9.1,7.7c0.9,0,1.9,0.3,2.8,0.6c1.1,0.3,1.5-0.2,1.6-1.1
	c0.2-1.4-0.3-2.4-1.5-3.2c-1.1-0.8-2.7-1.8-3-2.9c-0.5-2.5-2.7-1.9-3.9-2.9c-2.5-2.2-2.9,0.7-4.1,1.7c-0.2,0.2-0.6,0.1-0.9,0.2
	C105.3,169.4,105,169.1,104.6,168.8z M217.2,536.4c-0.3,0.3-0.7,0.6-1,1c-0.2,0.2-0.3,0.3-0.5,0.5c0.2-0.2,0.3-0.3,0.5-0.5
	C216.5,537.1,216.8,536.7,217.2,536.4c0.3-0.3,0.7-0.6,1-1c0.6-0.3,1.3-0.6,1.9-1c0.1-0.1,0.3-0.1,0.4-0.2c0.1-0.1,0.1-0.2,0.1-0.3
	c-0.2,0.2-0.3,0.3-0.5,0.5c-0.6,0.3-1.3,0.6-1.9,1C217.8,535.8,217.5,536.1,217.2,536.4z M63.9,35.9c-0.3,0.3-0.6,0.7-1,1
	c-0.3,0.3-0.6,0.6-1,1c-0.3,0.3-0.6,0.6-1,1c-2.1,0.8-4.2,1.5-6.3,2.3c2.4,4.1,4,8.4,4.5,13.1c0.2,1.7,1,3.4,1.6,5
	c0.1,0.2,0.8,0.3,1.2,0.2c0.2,0,0.5-0.4,0.6-0.7c0.1-0.4,0.1-0.9,0-1.4c-0.9-2.9-2-5.7-2.8-8.7c-0.4-1.5-0.5-3.1-0.5-4.7
	c0-0.3,1.4-1,1.6-0.8c0.8,0.7,2,1.8,1.9,2.5c-1.1,5.7,1.9,10.1,4.4,14.7c1,1.9,2.8,3,5.1,3.4c1.7-3.9,0.9-7.8,0.2-11.4
	c-0.5-3.1-1.8-6.7-6.2-7c-0.3,0-0.9-0.5-0.9-0.9c0-0.4,0.3-1.1,0.6-1.2c1-0.2,2.2-0.5,3-0.1c1.2,0.6,2.2,1.8,3.3,2.9
	c1-5.1,1.2-5.2,6.6-6c0.4-0.1,1-0.3,1.2-0.6c0.8-1.2,2-2.4,2-3.7c0.1-0.8-1.6-1.7-2.5-2.5c-0.5-0.6-1-1.2-1.2-1.5
	c-1.9,2.4-3.7,5.1-5.7,7.4c-2.5,2.9-6.1,2.7-9.5,2.3c-1.5-0.2-2.1-1.3-2.1-2.8c0.3-0.3,0.6-0.6,1-1c0.3-0.3,0.6-0.6,1-1
	C63.2,36.5,63.6,36.2,63.9,35.9c0.1-0.1,0.3-0.1,0.4-0.2c0.1-0.1,0.1-0.2,0.1-0.3C64.2,35.6,64,35.7,63.9,35.9z M205.5,549
	c-0.1,0.1-0.3,0.1-0.4,0.2c-0.1,0.1-0.1,0.2-0.1,0.3C205.2,549.4,205.4,549.2,205.5,549c0.2,0,0.3-0.1,0.4-0.2
	c0.1-0.1,0.1-0.2,0.1-0.3C205.8,548.7,205.7,548.8,205.5,549z M404.3,523.8c-0.3,0.3-0.6,0.7-0.9,1c-0.3,0.3-0.6,0.6-1,1
	c-1.8,1-3,2.4-2.5,4.9c0.8-1.6,1.7-3.2,2.5-4.9c0.3-0.3,0.6-0.6,1-1C403.7,524.5,404.1,524.1,404.3,523.8c0.4-0.3,0.7-0.6,1-0.9
	c0.2-0.2,0.3-0.3,0.5-0.5c-0.2,0.2-0.3,0.3-0.5,0.5C405,523.1,404.7,523.5,404.3,523.8z M42.5,24.2c-0.4,0.1-0.8,0.2-1.3,0.3
	c0.1,0.2,0.2,0.3,0.3,0.5C41.9,24.8,42.2,24.5,42.5,24.2c0.3-0.3,0.7-0.6,1-1c1.9-0.1,3-1.3,3.9-2.9c0.3,0,0.7,0,0.9-0.1
	c0.5-0.3,1-0.7,1.4-1c0,0-0.4-0.6-0.4-0.6c-0.5,0.3-1.1,0.6-1.5,0.9c-0.2,0.2-0.3,0.5-0.4,0.8c-2,0.1-3,1.4-3.9,2.9
	C43.2,23.6,42.9,23.9,42.5,24.2z M341.3,505.4c-0.1-0.1-0.1-0.3-0.2-0.4c-0.1-0.1-0.2-0.1-0.3-0.1C341,505,341.2,505.2,341.3,505.4
	c0.3,0.7,0.6,1.3,1,1.9c0.1,0.1,0.1,0.3,0.2,0.4c0.1,0.1,0.2,0.1,0.3,0.1c-0.2-0.2-0.3-0.3-0.5-0.5C342,506.7,341.6,506,341.3,505.4
	z M80.4,83.4c-0.3-0.3-0.7-0.6-1-1c-0.8-1.5-1.5-3-2.3-4.6c-3.6,3.6-4.6,6.8-2.8,10.5c1.4,3,3.2,5.7,5.3,9.2
	c0.5-1.4,0.8-1.9,0.8-2.5c0.2-3.8-0.6-7.3-2.3-10.6c-0.8-1.6,0.1-2,1.4-2C79.7,82.8,80.1,83.1,80.4,83.4c0.1,0.4,0.2,0.8,0.3,1.3
	c0.2-0.1,0.3-0.2,0.5-0.3C80.9,84,80.6,83.7,80.4,83.4z M86.2,161c0.1,0.1,0.1,0.3,0.2,0.4c0.1,0.1,0.2,0.1,0.3,0.1
	C86.5,161.3,86.4,161.2,86.2,161c-0.1-0.4-0.1-0.9-0.3-1.3c-0.1-0.2-0.5-0.3-0.7-0.4c0,0.3-0.2,0.8,0,1
	C85.4,160.6,85.8,160.8,86.2,161z M351,520.9c0.1,0.1,0.1,0.3,0.2,0.4c0.1,0.1,0.2,0.1,0.3,0.1C351.3,521.2,351.2,521.1,351,520.9
	c0-0.4,0-0.9-0.1-1.4c-0.1-0.3-0.4-0.6-0.6-0.9c-0.1,0.3-0.4,0.6-0.3,0.8C350.3,520,350.7,520.4,351,520.9z M348.1,514.1
	c1.4,0,2.4-0.6,2.9-1.9c1.4,0,2.4-0.6,2.9-1.9c0.1-0.1,0.3-0.1,0.4-0.2c0.1-0.1,0.1-0.2,0.1-0.3c-0.2,0.2-0.3,0.3-0.5,0.5
	c-1.4,0-2.4,0.6-2.9,1.9C349.6,512.1,348.6,512.8,348.1,514.1c-0.1,0.1-0.3,0.1-0.4,0.2c-0.1,0.1-0.1,0.2-0.1,0.3
	C347.8,514.4,347.9,514.3,348.1,514.1z M190,12.6c-1.5,1.3-1.4,2.6,0,3.9c0,1.4,0,2.8,0,4.6c1-0.4,1.8-0.5,2.1-0.9
	c0.6-0.7,1.3-1.7,1.1-2.4c-0.1-0.6-1.5-0.9-2.3-1.2c-0.3-0.1-0.6,0-1,0C190,15.2,190,13.9,190,12.6c0.1,0,0.3-0.1,0.4-0.2
	c0.1-0.1,0.1-0.2,0.1-0.3C190.3,12.3,190.2,12.4,190,12.6z M179.3,544.2c-0.3-0.3-0.6-0.5-1-0.8c-0.1,0.2-0.2,0.3-0.3,0.5
	C178.5,544,178.9,544.1,179.3,544.2c0.5,0.7,1.1,1.5,1.6,2.2c0.4,0.5,0.5,1.8,1.5,0.7c0.2-0.2,0-1.3-0.4-1.5
	C181.3,545,180.3,544.6,179.3,544.2z M37.7,81.5c-0.1-0.1-0.1-0.3-0.2-0.4C37.5,81,37.3,81,37.2,81C37.4,81.1,37.5,81.3,37.7,81.5
	c0.4,1.4,0.7,2.9,1.1,4.3C39.1,84.2,40.9,81.9,37.7,81.5z M391.8,10.7c0.6-0.2,1.3-0.2,1.7-0.5c0.4-0.3,0.7-1,0.8-1.5
	c0-0.1-0.7-0.7-1-0.7c-0.5,0.1-1.2,0.4-1.4,0.9C391.7,9.3,391.8,10.1,391.8,10.7c-0.1,0.1-0.3,0.1-0.4,0.2c-0.1,0.1-0.1,0.2-0.1,0.3
	C391.4,11,391.6,10.8,391.8,10.7z M514.9,13.6c-0.1-0.1-0.1-0.3-0.2-0.4c-0.1-0.1-0.2-0.1-0.3-0.1C514.6,13.3,514.8,13.4,514.9,13.6
	c0.4,1.7,0.8,3.4,1.2,5.2c0.6-1.4,0.8-2.7,0.5-3.9C516.5,14.3,515.5,14,514.9,13.6z M185.1,538.3c-0.1-0.1-0.1-0.3-0.2-0.4
	c-0.1-0.1-0.2-0.1-0.3-0.1C184.8,538,185,538.2,185.1,538.3c0.5,1.3,1,2.6,1.6,3.8c0.1,0.3,1.2,0.4,1.4,0.2c0.3-0.3,0.5-1.3,0.3-1.5
	C187.5,539.9,186.3,539.2,185.1,538.3z M69.7,84.4c0.1,0.1,0.1,0.3,0.2,0.4c0.1,0.1,0.2,0.1,0.3,0.1C70,84.7,69.9,84.6,69.7,84.4
	c-1.3-1.8-2.9-3.1-5.2-3.4c-0.1,0-0.3,0.3-0.3,0.3C65.4,83.4,67.6,83.9,69.7,84.4z M98.8,141.6c-0.3-0.3-0.6-0.6-1-1
	c-0.6-0.3-1.3-0.6-1.9-1c-0.1-0.1-0.1-0.3-0.2-0.4c-0.1-0.1-0.2-0.1-0.3-0.1c0.2,0.2,0.3,0.3,0.5,0.5c-0.6,1.1-1.3,2.6-2.8,1.1
	c-1.5-1.5-2.8-1.2-4.8-0.7c2.7,3.3,5.6,5.5,9.8,7.2c-0.9-1.8-1.3-2.8-1.8-3.8c-0.8-1.6,0.2-2.3,1.4-2.9
	C98.2,141,98.5,141.3,98.8,141.6c0.9,2,1.7,4,2.7,5.9c0.2,0.3,1,0.3,1.6,0.4c0.1-0.6,0.5-1.4,0.3-1.7
	C102,144.6,100.4,143.2,98.8,141.6z M272.4,2.9c-0.1-0.4-0.2-0.8-0.3-1.3c-0.2,0.1-0.3,0.2-0.5,0.3C271.9,2.3,272.2,2.6,272.4,2.9
	c1.5,3,3,6,4.6,9.4C277.8,7.7,275.7,5,272.4,2.9z M66.8,133.9c0.2,0.2,0.3,0.3,0.5,0.5C67.1,134.2,67,134,66.8,133.9
	c-0.3-5.4-0.3-5.4-5.5-5.2C63.2,130.5,65,132.2,66.8,133.9z M40.6,63.1c0.2,0.2,0.3,0.3,0.5,0.5C40.9,63.4,40.8,63.2,40.6,63.1
	c0-2.7-1.8-3.5-4.1-3.6c-0.5,0-1-0.3-1.5-0.4c0.1,0.6-0.1,1.3,0.2,1.8C36.5,62.8,38.1,64.1,40.6,63.1z M124,126.1
	c-1.8,1.6-3.6,3.1-5.2,4.8c-0.3,0.3,0,1.5,0.4,1.9c0.5,0.4,1.6,0.6,2.1,0.3c0.7-0.5,1.3-1.4,1.6-2.3
	C123.4,129.2,123.7,127.7,124,126.1c0.1,0,0.3-0.1,0.4-0.2c0.1-0.1,0.1-0.2,0.1-0.3C124.3,125.8,124.2,125.9,124,126.1z M125,133.9
	c3.4-1.5,7.1-5.1,8.2-8.2c-2.1,1.5-4,3.1-6.2,4.3C125.3,130.9,124.9,132.2,125,133.9c-0.1,0.1-0.3,0.1-0.4,0.2
	c-0.1,0.1-0.1,0.2-0.1,0.3C124.7,134.2,124.8,134,125,133.9z M251.1,19.4c1.1-1,2.4-1.8,3.2-2.9c0.8-1.1,1.5-2.6,1.6-3.9
	c0.1-1.4-0.6-2.8-0.9-4.3c-0.3,0-0.6,0-0.9,0C253,12,252.1,15.7,251.1,19.4c-0.1,0.1-0.3,0.1-0.4,0.2c-0.1,0.1-0.1,0.2-0.1,0.3
	C250.8,19.7,250.9,19.6,251.1,19.4z M93,136.8c0.1,0.1,0.1,0.3,0.2,0.4c0.1,0.1,0.2,0.1,0.3,0.1C93.3,137.1,93.2,136.9,93,136.8
	c-2.4-2.1-4.7-4.3-7.1-6.3c-0.4-0.3-1.7-0.2-2.1,0.2c-1.3,1.5-0.2,4.7,1.7,5C87.9,136.1,90.5,136.4,93,136.8z M121.1,147.4
	c2.4-0.2,2.8,1.9,3.4,3.6c3.5-2.8,5.1-5.8,3.9-10.1C125.9,143.2,123.5,145.3,121.1,147.4c-2.4,1.3-4.7,2.5-7,3.8
	c-0.3,0.2-0.3,0.8-0.4,1.3c0.6,0.1,1.2,0.4,1.6,0.2C117.7,151.5,120.1,150.2,121.1,147.4z M75.5,163.9c1.4,3.4,1.4,3.4,4.7,3.3
	C78.7,165.8,77.8,164,75.5,163.9c-2.6-1.7-4.4-5-8.4-4.6c1,1.5,1.9,2.7,2.5,3.9c0.4,0.9,0.5,2,0.7,3c-1,0.1-2.1,0.3-3.1,0.2
	c-0.9,0-1.7-0.4-3.2-0.7c3.4,3.2,6.1,3.7,8.6,0.1C73.3,164.8,74,163.8,75.5,163.9z M120.2,153.3c-3.7,2.1-7.5,3.5-11.8,4
	c-0.6,0.1-1.6,0.8-1.6,1.3c-0.3,2.1,1.8,4.1,3.6,3.2C114.4,159.9,118.7,158.1,120.2,153.3c0.1-0.1,0.3-0.1,0.4-0.2
	c0.1-0.1,0.1-0.2,0.1-0.3C120.5,152.9,120.3,153.1,120.2,153.3z M132.8,161c-1.8,0.8-3.5,1.7-5,3.3c-2.1,2.3-4.7,4.3-8.2,4.6
	c-0.7,0.1-1.3,0.6-2,0.9c1.8,1.1,3.5,1.4,5.3,1.7c0.6,0.1,1.4,0.1,1.8-0.3C128,168.3,131.9,165.9,132.8,161c0.1,0,0.3-0.1,0.4-0.2
	c0.1-0.1,0.1-0.2,0.1-0.3C133.1,160.7,132.9,160.9,132.8,161z M14.4,91.2c3.6-1.4,5.9-4.3,7.9-7.5c0.9-1.4,0.7-2-1-2.2
	c-0.5,0-1-0.1-1.4-0.2c-2.4-0.8-2.6-1.3-1.6-3.8c0.4-1.1,1.4-2.1,0.4-3.4c-2.1,1.4-3.5,3-3.3,5.6C15.7,83.6,15.4,87.4,14.4,91.2
	c-0.1,0.1-0.3,0.1-0.4,0.2c-0.1,0.1-0.1,0.2-0.1,0.3C14.1,91.5,14.3,91.3,14.4,91.2z M507.2,33.9c5.5-2.3,9.3-6.2,11.6-12.1
	c-2.7,1-3.7,0.8-4.5-0.8c-0.3-0.7-0.3-1.6-0.6-2.3c-0.1-0.3-0.6-0.6-0.9-0.9c-0.2,0.4-0.6,0.7-0.7,1.1c-0.4,2,0,4.7-1.2,6
	C508.5,27.6,508.1,30.8,507.2,33.9c-0.1,0.1-0.3,0.1-0.4,0.2c-0.1,0.1-0.1,0.2-0.1,0.3C506.9,34.3,507,34.1,507.2,33.9z M86.2,175.5
	c-1.1,0.1-1.6-0.5-2.1-1.5c-0.5-1-1.5-2.2-2.5-2.6c-2-0.8-4.3-1.4-6.4-1.6c-1.3-0.2-2.8,0.4-4.1,0.6c0.8,1.1,1.3,2.5,2.3,3.4
	C77.3,177.7,82,178.3,86.2,175.5c0.5,0,1.1,0,1.4-0.3c0.7-0.7,1.4-1.6,2-2.4c0,0-0.4-0.4-0.6-0.7c-0.7,0.7-1.4,1.4-2.1,2.1
	C86.6,174.7,86.4,175.1,86.2,175.5z M36.7,3.9c-0.1-0.1-0.1-0.3-0.2-0.4c-0.1-0.1-0.2-0.1-0.3-0.1C36.4,3.6,36.6,3.7,36.7,3.9
	c0.5,1,0.8,2.5,1.5,2.8c2.9,1.1,6,2.5,8.9,2.4c2-0.1,3.6,0.7,5.5,0.9c1,0.1,1.9,0.4,3.2,0.7c-1.1-3.6-3.3-5.3-6.4-5.6
	C45.2,4.5,41,4.2,36.7,3.9z M76.5,106.7c0.1,0.1,0.1,0.3,0.2,0.4c0.1,0.1,0.2,0.1,0.3,0.1C76.8,107,76.7,106.9,76.5,106.7
	c-0.4-1.2-0.6-2.4-1.2-3.5c-0.8-1.6-2-2.9-2.6-4.5c-1.3-3.8-4.6-5.1-7.9-6.4c-1.1-0.4-1.9,0.3-1.8,1.5c0,0.8,0.3,1.6,0.6,2.2
	c1.3,2.9,3.6,5.1,6.4,6.2c2.2,0.9,3.8,2.1,5.1,4C75.4,106.6,76,106.6,76.5,106.7z M64.9,102.8c-0.2-0.4-0.4-0.8-0.7-1.1
	c-0.2-0.2-0.6,0-1,0c0.1,0.2,0.2,0.6,0.4,0.7C64,102.7,64.4,102.7,64.9,102.8c0.7,1.4,1.6,2.8,2.1,4.2c1.3,3.4,2.5,6.9,3.9,10.3
	c0.3,0.8,1.5,1.8,2,1.7c0.9-0.2,2-1.2,2.2-2c0.8-2.7,1.2-5.9-0.9-7.8C71.4,106.7,69,103.4,64.9,102.8z M20.2,10.7
	c-3.9,2.7-8.2,3.4-12.8,3c-0.4,2.8,0.9,4.7,2.8,5.8c2,1.2,4.4,1.9,6.6,2.6c0.3,0.1,1.2-1,1.3-1.6C19,17.3,19.6,14,20.2,10.7
	c0.2-0.1,0.3-0.3,0.5-0.4C20.6,10.4,20.4,10.5,20.2,10.7z M356.8,19.4c-1.1,0-2-0.4-1.9-1.6c0.1-0.9,0.5-1.8,0.9-2.6
	c0.5-1,1.4-1.7,1.8-2.8c0.7-1.9-1.1-2.8-2.1-3.9c-0.2-0.2-0.8-0.1-1.2-0.1c0,1.1,0,2.1,0,3.2c0,0.3,0.3,0.6,0.4,0.9
	c0.3,1.7-0.5,2.4-2.2,1.9c-0.6-0.2-1.2-0.4-1.8-0.8c-1.2-0.8-1.6,0-2.1,0.9c-0.9,1.8-0.7,3.4,0.8,4.8c2.7,2.4,5.1,5.1,6.4,8.7
	C357.2,25.1,356.7,22.2,356.8,19.4c0.1-0.1,0.3-0.1,0.4-0.2c0.1-0.1,0.1-0.2,0.1-0.3C357.2,19.1,357,19.2,356.8,19.4z M555.7,41.7
	c0.1,0.4,0.2,0.9,0.3,1.3c0.2-0.1,0.3-0.2,0.5-0.3C556.2,42.4,555.9,42,555.7,41.7c-0.3-0.9-0.5-1.7-0.8-2.6c-0.7,0.4-1.4,0.7-2,1.1
	c-0.9,0.7-1.6,1.7-2.4,2.3c-0.6,0.4-1.4,0.5-2,0.7c-0.1-0.6-0.5-1.4-0.3-1.7c1.2-1.9-0.2-3.4-0.6-5.1c-2.2,4.6-3.6,9.2-4,14.2
	c-0.1,0.8,0.3,1.7,0.4,2.5c0.9-0.3,1.9-0.4,2.6-0.9c2.6-2.3,5.5-4.6,6.1-8.4C552.9,41.8,554.1,41.5,555.7,41.7z M88.1,163.9
	c-0.1-0.1-0.1-0.3-0.2-0.4c-0.1-0.1-0.2-0.1-0.3-0.1C87.8,163.6,88,163.8,88.1,163.9c-0.5,3.7,1.8,5.4,4.5,7.1
	c4.3,2.7,9.4,4.5,11.4,9.9c1.5-3,1.6-3.1,0.6-5.9c-1.5-3.9-3.4-6.9-8.3-7.6C93.5,167.2,90.9,165.2,88.1,163.9z M291.8,6.8
	c-0.7-1.8-1.4-3.5-2.2-5.3C289.2,3.9,289.8,5.7,291.8,6.8c-1.2,2.3-2.7,4.8-1.7,7.3c1.1,3,2.8,5.8,4.6,8.4c1.2,1.7,3.5,1.9,5.6,0.9
	c1.1-0.5,2.1-1.2,3-1.8c-1.4-1.6-2.7-2.8-3.7-4.2c-1.8-2.6-3.4-5.4-5.1-8.2C293.8,8.1,293.5,6.7,291.8,6.8z M162.8,19.4
	c0.2,1.8,0.5,3.3,2.9,1.6c0.8-0.6,2.1-0.5,3.2-0.5c2.9,0.2,5.7,0.6,8.5,0.7c3.4,0.1,5.8-1.4,6.6-5.3c-4.2,1.3-8.1,0.6-11.8-0.7
	c-3-1-5-0.6-6.4,2.2C165.2,18.7,164.4,19.5,162.8,19.4c1-4,3.1-6.9,7.4-7.9c3.1-0.7,5.6-2.7,7.7-5.1c-3.8-2.4-7.7-2.8-11.8-2.6
	c-1.8,0.1-3.9,1.1-3.6,2.4c0.5,2.2-0.9,2.9-1.7,4.1c-0.4,0.6-0.6,1.5-0.8,2.2C159.5,15.5,161,17.5,162.8,19.4z M215.2,516
	c-1.2,1.1-2.4,2.1-3.6,3.2c-3.5,2.9-6.9,6.3-11.6,6.4c-4.8,0.2-8.2,2.2-11.2,5.7c-1,1.2-2.2,2.3-3.3,3.5c0.8,0.8,1.4,1.6,2.1,2.2
	c2.8,2.4,2.9,2.4,5.3-0.2c3.2-3.4,6.3-6.8,10.5-9.1c1.1-0.6,2.3-1.2,3.2-2.1C209.8,522.6,213.7,520.4,215.2,516
	c0.1,0,0.3-0.1,0.4-0.2c0.1-0.1,0.1-0.2,0.1-0.3C215.5,515.7,215.4,515.9,215.2,516z M215.2,25.2c5-4.1,6.7-9.8,7.7-15.9
	c0.4-2.8-1.1-5-2.4-7.1c-0.9-1.5-2.4-1.6-3.7-0.3c-0.7,0.7-1.3,1.8-1.6,2.8c-0.6,1.8-1,3.7-1.3,5.6c-0.3,2.3-0.7,4.8-0.5,7.1
	C213.7,20,214.6,22.6,215.2,25.2c-0.1,0.1-0.3,0.1-0.4,0.2c-0.1,0.1-0.1,0.2-0.1,0.3C214.9,25.5,215.1,25.4,215.2,25.2z M55.7,37.6
	c2.3,0.5,3.1-1.5,4.5-2.3c1.5-0.9,2-4.3,4.9-2c0,0,1-0.7,1.1-1.1c0.9-4.4,1.8-8.7,2.5-13.1c0.1-0.9-0.4-2.4-1.1-2.9
	c-1.6-1.1-3.4-2.2-5.2-2.3c-4-0.4-8-0.1-11.8-1.8c-0.2-0.1-1,0.5-1,0.7c0,0.5,0.4,1.3,0.7,1.3c0.8,0,2-0.3,1.7,0.8
	c-0.7,2.5,1,3.1,2.6,3.8c1.9,0.9,3.9,1.6,5.7,2.5c0.6,0.3,0.9,1.1,1.3,1.6c-0.7,0.2-1.5,0.6-2.2,0.5c-0.9-0.1-1.9-0.6-2.7-1.1
	c-1.1-0.7-1.8-0.1-2.4,0.7c-0.3,0.5-0.5,1.1-0.7,1.7c0.7,0.2,1.4,0.7,2.1,0.7c4,0.2,7.8-0.1,9.3-4.9c0.1-0.3,0.9-0.7,1.1-0.6
	c0.3,0.2,0.6,0.7,0.7,1.2c0.3,2.1-1.2,3.2-2.5,4.4c-0.9,0.9-2.3,1.4-2.9,2.4C59.4,30.8,57.6,34.2,55.7,37.6z M27,110.1
	c0.5,4.6-1.4,8.5-3.6,12.3c-0.4,0.7-1.8,1.5-0.5,2.3c0.6,0.4,2,0.4,2.7,0c1.8-1.1,3.4-2.5,3.3-4.9c-0.2-2.7-0.2-5.5-0.5-8.2
	c-0.1-0.8-0.4-1.7,0.7-1.8c0.5,0,1.6,0.8,1.6,1.2c-0.1,3.5,2.8,6.6,1.2,10.2c-0.2,0.5,0.2,1.2,0.3,1.9c0.9,4.9,5.1,7.5,7.6,11.3
	c0.3,0.5,1.1,0.6,1.7,0.9c1.2,0.6,1.8,0.1,1.9-1.1c0.5-3.1-1.1-5.6-2.6-8.1c-1.9-3-3.9-5.9-5.8-8.8c-0.5-0.8-1-1.6-1.2-2.5
	c-1.1-3.8-2-7.7-3.1-11.5c-0.1-0.4-0.5-0.9-0.9-0.9c-0.4-0.1-0.9,0.2-1.2,0.6C26.8,104.9,26.9,107.5,27,110.1z M143.3,5
	c-0.4,2.9-0.3,5.5-1.1,7.9c-0.7,2.3,0,3.8,1.5,5.1c2.8,2.3,4.6,5.2,6.2,8.4c0.2,0.5,0.8,0.8,1.2,1.2c0.3-0.5,0.7-1,0.9-1.6
	c0.3-0.8,0.4-1.7,0.5-2.6c0.2-1.2,0.6-2.5,0.5-3.7c-0.1-2.2-0.5-4.4-0.9-6.6c-0.2-0.9-0.5-1.9-1.1-2.4C148.8,8.9,146.4,7.2,143.3,5z
	 M48,37.1c-2.3,4.8-1.4,9.4-0.2,13.7c1.3,4.7,4.6,8.3,9.6,10.2C57,51.8,54.9,43.6,48,37.1z M284.4,31.7c3.8-4.7,3.3-9.9,2.4-15.1
	c-0.2-1.3-1.1-2.7-2.1-3.7c-1.6-1.8-3.9-1.7-5.3,0.2c-0.8,1.1-1.6,2.6-1.6,3.9C278.1,22.7,280.1,27.7,284.4,31.7z M85.5,149.7
	c0.4,3.8,1.5,6.8,3.2,9.8c2,3.5,4.8,5.1,8.5,5.4c1.6,0.1,3.2,0.1,4.8,0c2.2-0.1,2.5-0.5,2.5-2.6c0-1.6-0.6-2.7-2.3-3.1
	c-5.9-1.3-11.2-3.8-15-8.7C87,150.1,86.4,150.1,85.5,149.7z M19.9,39.8c0.8-0.1,1.4-0.1,1.7-0.3c2.3-1.8,4.5-1,6.6,0.4
	c1.2,0.8,2.5,1.1,3.2-0.5c0.6-1.4,0.7-2.8-1-3.7c-1.7-0.9-3.4-1.8-5-2.9c-1.4-0.9-1.8-0.6-2.3,0.9c-0.6,2.3-0.8,2.2-2.8,1.2
	c-1.8-0.9-2.3-2-1.2-3.8c0.4-0.5,0.6-1.1,0.8-1.8c0.4-1.6-0.8-4.7-2-5c-2-0.4-4.1-0.8-6.1-1c-0.3,0-1.1,1-1,1.2
	c1.2,2.1,2.5,4.1,3.8,6c0.5,0.8,1.3,1.4,1.6,2.2c0.9,2,1.6,4.1,2.5,6.1C19,39.3,19.6,39.6,19.9,39.8z M35.1,99.8
	c-1.7,9.7,1.2,14.8,8.8,18.7c2.6,1.3,5,2.9,7.5,4.3c0.7,0.4,1.4,0.7,2.2,1.1c-0.3-1.4-1.1-2.1-1.8-2.9c-0.8-0.9-1.9-1.8-2.3-3
	c-1.4-4.6-4.8-7.1-8.8-8.9c-1-0.5-2.2-0.7-3-1.3c-0.3-0.2-0.2-1.8-0.1-1.9c2.2-0.3,1.9-1,0.6-2.3C36.9,102.5,36.1,101.1,35.1,99.8z
	 M33.6,79.7c0.6-2.4,0.2-4.5-1.5-6.6c-1-1.3-1.6-1.4-2.6-0.2c-0.9,1.1-1.9,2.2-2.5,3.5c-0.8,1.5-1.8,3.3-1.6,4.9
	c0.5,4.8-0.7,9.1-2.8,13.2c-0.3,0.7-0.5,1.5-0.9,3c2-1.5,3.2-2.5,4.5-3.3c4.1-2.6,5.4-5.5,4.4-10.4c-0.2-0.8-0.6-1.6-0.5-2.3
	c0.1-0.9,0.5-1.7,0.7-2.6C31.7,79.1,32.6,79.4,33.6,79.7z M82.2,32.1c0-2.5,0.3-4.3-0.1-6c-1.1-5.3-2-10.4,1.8-15.1
	c0.3-0.3,0.2-1.3-0.1-1.7c-0.2-0.3-1.1-0.1-1.7-0.1c-2.9-0.4-3.8,2.5-5.9,3.5c-1.4,0.6-1.5,1.8-1.7,3.2
	C73.7,22.7,77.6,27.2,82.2,32.1z M65.2,117.8c0.1,3.9,0.8,6.2,3.3,10.6c1.8,3.1,4.1,5.2,8.1,4.6c1.2-0.2,1.8,0.3,2,1.5
	c0,0.3,0.3,0.5,0.4,0.8c0.4-0.3,0.9-0.5,1-0.9c1-3.3,0.2-6.3-2-9c-0.8-1-1.5-1.3-2.8-0.5c-2.4,1.3-2.6,1.3-3.6-1.3
	C70.5,120.7,68.5,118.8,65.2,117.8z M66.7,163.9c-3.3-5.4-6.8-9.4-13.4-8.7c-0.6,0.1-1.4,0.1-1.9-0.2c-0.3-0.2-0.6-1-0.5-1.4
	c0.6-1.9-0.3-3.4-2.2-3.1c-0.3,0-0.7,0.7-0.6,0.9c0.9,2.9,1.5,5.9,2.9,8.5c1,1.8,2.5,3.9,5.1,3.9C59.5,163.9,62.8,163.9,66.7,163.9z
	 M267.4,29.2c1.4-2.7,2.8-4.8,3.6-7.1c1.1-3,2-6,2.6-9.2c0.2-1.1-0.6-3.5-1-3.5c-2.8,0-0.9-2.2-1.8-3.3c-2.8,2.4-4.9,5.1-5.1,8.8
	C265.5,19.5,265.3,24.2,267.4,29.2z M21.3,78.5c4.3-2.8,5.8-7,8.1-10.6c0.5-0.8,0.6-1.8,0.5-2.8c-0.1-2.9,0.3-5.7,1.2-8.5
	c0.4-1.1-0.1-2.5-0.2-3.8c-2.8,3.1-5.6,6-6.7,9.5C22.6,67.4,22.3,72.8,21.3,78.5z M493.6,17.6c0,0.4,0,1.3,0.2,2
	c0.9,4.4,1.8,8.7,2.9,13.1c0.2,1,1,1.8,1.6,2.7c0.7-0.9,1.7-1.6,1.9-2.6c0.4-1.4,0.1-2.9,0.2-4.3c0.1-2.7,0.2-5.5,0.6-8.1
	c0.5-3.3,0.3-4.2-2.7-5.8C495.2,12.9,493.7,13.8,493.6,17.6z M405.9,535.6c-1.3-0.8-1.7-1.4-2.3-1.4c-4.4-0.5-8.4-3.1-13.1-2.6
	c-1.8,0.2-3.5-0.2-4.9-1.5c-0.6-0.5-1.4-0.9-2.1-1.1c-0.9-0.2-2.1-0.4-2.7,0.1c-0.5,0.4-0.6,1.7-0.5,2.6c0.1,1.1,0.6,2.2,1,3.2
	c0.6,1.6,1.3,2.8,3.5,1.7c2-1,4.1-1.3,6.4-0.3c1.1,0.5,2.5,0.2,3.8,0.1C398.4,536.2,401.6,535.9,405.9,535.6z M63.8,60.7
	c-1.2,4.2-1.3,7.5-0.4,10.7c0.6,2.2,1.8,4.4,3.2,6.3c0.9,1.3,2.3,3.5,4.1,2.4c1.1-0.7,1.6-3,1.8-4.6c0.1-1.1-0.6-2.4-1.1-3.5
	c-0.7-1.4-1.7-2.7-2.6-4C67.3,65.8,65.8,63.7,63.8,60.7z M88.8,123.3c-1.3,3.3-0.2,5.8,2.1,7.8c4.7,4.1,9.4,8,14.3,12.1
	c1.1-3.5,0.1-5.9-2.4-8C98.1,131.4,93.6,127.4,88.8,123.3z M234.6,10.9c0.2-2.5-0.3-4.9-2.2-6.7c-0.9-0.8-2.2-2.1-3-1.8
	c-0.9,0.3-1.6,1.8-2.2,2.9c-0.3,0.7-0.3,1.6-0.2,2.3c0.8,3.6,1.6,7.2,2.7,10.7c0.4,1.4,1.6,2.7,2.5,3.9c0.2,0.2,0.5,0.3,0.8,0.4
	c0.2-0.4,0.6-0.9,0.5-1.2c-0.9-2.7-0.7-5.3,0.8-7.8C234.8,13,234.6,11.8,234.6,10.9z M85.2,3c1.3,3.1,1.9,5.7,3.3,7.7
	c1.1,1.6,3,3,4.8,3.6c2,0.6,2.9-1.5,3.7-3c1.2-2.3,2.3-4.6,3.6-7.3C95.4,3.7,90.5,5.3,85.2,3z M119.6,17.2c-2.5,4.1-5,7.5-6.7,11.2
	c-1.7,3.9-3.1,8.1-2.2,12.7C117,34.5,121.6,27.5,119.6,17.2z M20.3,63.3c0.8-2.4,1.7-4,1.7-5.6c0.2-4,0-8.1,0-12.1
	c0-1.1-0.3-1.8-1.7-1.6c-0.4,0.1-1-0.5-1.5-0.8C18,42.7,17,41.4,16,42.7c-0.7,0.9-1.3,2.2-1.4,3.3c-0.1,0.8,0.6,1.8,0.9,2.7
	C17,53.3,18.5,57.8,20.3,63.3z M535.4,70.2c8.9-3.1,11.3-6.4,11.9-16c-1.2,0.9-2.1,2.1-3.2,2.3c-0.8,0.2-1.8-0.9-2.8-1.4
	C538.7,59.8,536.3,64.6,535.4,70.2z M129.5,35.5c1.1-2,2-3.1,2.2-4.2c0.5-2.8,0.5-5.8,1.2-8.5c1.5-6.5,1.1-7.4-1.9-12.4
	C127.6,18.2,126.9,26.1,129.5,35.5z M30.4,32.4c2.8,1.5,2.8,1.5,6.2-0.7c1.1-0.7,2.2-0.4,2,0.7c-0.6,2.6,0.1,2.8,2.3,1.9
	c0.9-0.4,1.9-0.3,2.8-0.5c3.5-0.7,6.7-3.6,6.2-6.2c-0.3-1.5-0.2-2.3,0.7-3.4c0.4-0.5,0.3-1.4,0.4-2.2c-0.7,0.2-1.5,0.2-2.1,0.6
	c-0.7,0.4-1.3,1-1.9,1.5C42.3,28.4,36.6,30.9,30.4,32.4z M474.3,17.8c-3.5-3.1-7-5.5-9.5-8.7c-1.6-2-3.4-2-5.2-2.8
	c-1.7-0.8-3.1-0.1-4.5,1.1c2.3,2.6,4.3,5.2,8.2,5.2c0.6,0,1.2,0.4,1.8,0.6c-0.3,0.7-0.5,1.4-1,2c-0.6,0.7-2,0.9-1,2.1
	c0.9,1.1,2,2.1,3.7,1.3c0.5-0.2,1.3-0.4,1.5-0.2C470.4,20.4,472.1,18.9,474.3,17.8z M49.8,90c2.2-2.1,2.2-2.1,2.4-3.4
	c0.3-3.4-0.3-6.8-1.9-9.8c-1.1-2.1-2.8-3.9-4.2-5.9c-1.3-1.8-2.7-3.6-4-5.4C43.6,74.2,46.9,82,49.8,90z M102.1,66.9
	c2.2-4.2,2.9-8.2,2.4-12.3c-0.4-3.1-3.4-6-6-6c-2.2-0.1-3.1,0.8-2.4,2.9c1.5,4.7,3.3,9.3,4.9,14C101.2,65.9,101.6,66.2,102.1,66.9z
	 M50.1,71.6c0.4-2.1,1.3-3.9,1.1-5.5c-0.7-5-3.2-9.4-6-13.5c-0.7-1.1-1.5-0.8-2.4,0.1c-1.6,1.7-1.1,3.5-0.7,5.5
	C43.3,63.4,46.9,67.1,50.1,71.6z M424.6,23.9c0.4-0.1,0.7-0.2,1.1-0.3c0-1.9,0.1-3.8,0-5.7c-0.3-4.4-3.1-8.2-6.8-8.9
	c-2.5-0.5-5-0.8-7.5-1c-0.8-0.1-1.7,0.6-2.5,1c0.7,0.5,1.3,1.4,2,1.5c5.5,1.2,8.9,4.7,11.3,9.6C422.8,21.3,423.8,22.6,424.6,23.9z
	 M55.3,82.8c0,2.5-0.4,5,0.1,7.2c1.2,5.4,1.9,10.7-0.1,16.2c5.4-1.2,5.6-1.5,5.6-6.4c0-1.1-0.1-2.2-0.2-3.4
	c-0.2-1.7-0.8-3.5-0.7-5.2C60.4,87.5,59.1,84.8,55.3,82.8z M31.8,46c0.3,3.5,1.5,6.1,3.5,8.3c1.1,1.3,2.5,2.3,3.8,3.4
	c0.3-1.5,0.3-3.1,0.8-4.5c1.8-4.6-0.5-7.6-3.5-10.4c-1.3-1.2-2.3-0.9-3.2,0.3C32.4,44,32.1,45.3,31.8,46z M551.1,38.7
	c3.7-3.7,5.6-7.7,6.4-12.2c0.4-2.2,0-3.2-2.3-3.2c-1.7,0-3.3-0.3-5.4-0.6C550.2,28.1,549,33.2,551.1,38.7z M37,135
	c0.3,2,0.4,3.6,0.8,5.1c0.9,3.6,2.5,6.5,6.6,7.1c2,0.3,4.1,0.7,6.1,1c1.2,0.2,1.7-0.6,1.2-1.8c-0.3-0.7-0.6-1.6-1.2-2.1
	c-1.7-1.5-2.6-4.3-5.7-3.3C42.4,139.2,39.9,137.3,37,135z M166.6,38.4c0.8-2.9,1.5-5.8,2.3-8.7c0.8-3,0.5-3.7-2.3-4.4
	c-1.6-0.4-2.1,0.1-1.8,1.8c0.3,1.4,0.7,2.8,0.9,4.2c0.2,1.1-1.2,2.1-1.8,1.4c-2.5-2.8-6.6-1-9.2-3.3c-0.2-0.2-1.1,0.1-1.2,0.3
	c-0.1,0.6-0.2,1.4,0.2,1.7c1.1,0.9,2.3,1.8,3.5,2.4C160.2,35.5,163.2,36.8,166.6,38.4z M436.2,20.1c1.4-1.6,2.8-2.9,3.9-4.5
	c1.2-1.7,0.8-2.5-1.3-3c-4-0.8-7.8-1.8-10.9-4.7c-0.6-0.5-1.4-0.8-2.2-1c-0.5-0.1-1.4,0.2-1.6,0.6C423.9,8,424,9,424.4,9.3
	C428.2,12.9,432.1,16.4,436.2,20.1z M527.8,15.9c-0.1,1.4-0.1,2.6-0.3,3.9c-0.1,0.4-0.4,0.8-0.6,1.2c-0.5-0.3-1-0.6-1.4-0.9
	c-0.2-0.2-0.3-0.6-0.5-0.8c-0.3-0.4-0.5-0.8-0.8-1.2c-0.2,0.4-0.5,0.8-0.6,1.2c-0.2,0.9-0.7,1.9-0.5,2.7c1,4.1,2.2,8.2,0.5,13
	c4.8-3.4,6.8-7.3,6.8-12.3C530.4,20.2,531.2,17.4,527.8,15.9z M89.7,78.9c-1.1,1.3-1.5,1.9-2,2.4c-1.9,1.7-2.6,1.6-3.6-1
	c-1-2.5-1.8-5.1-2.7-7.7c-0.7-1.9-1.2-2-2.6-0.8c-1.1,1-1.5,2-0.6,3.3c3.1,4.6,6.2,9.3,9.3,14c0.5,0.7,1.1,1.2,1.7,1.9
	C92.7,87.1,89.7,83.5,89.7,78.9z M87,63.1c4.7-4.9,4.2-10.1,3.9-15.2c-0.1-1.9-2.5-4.4-3.5-4c-2,0.8-2.3,2.6-2.1,4.4
	C85.8,52.9,86.4,57.6,87,63.1z M474.8,8.1c-0.3,0-0.6-0.1-0.9-0.1c-0.4,0.5-0.7,1-1.1,1.6c-1.6,2.4-1.6,2.8,0.4,4.3
	c2.5,2,5.1,3.8,7.5,5.9c2.3,1.9,4.6,2,7.2,1c0.9-0.4,1.8-0.6,0.3-1.7c-2.6-1.9-5-4-7.4-6.2c-1.2-1.1-1.8-1.2-3.1,0.1
	c-1.2,1.2-2.2,0.6-2.5-1.3C475,10.5,474.9,9.3,474.8,8.1z M86.3,22c-1,0.1-2.1,0.7-2,2.3c0.2,2.2,0.4,4.5,1,6.6
	c0.7,2.7,1.3,5.2-1.6,7.2c-0.9,0.7-0.9,2.6-1.6,3.8c-0.8,1.6-0.5,2.8,0.8,4c1-3.3,2.4-6.1,5.9-7.3c0.4-0.1,1-0.6,1-0.8
	c-0.1-2.3,0-4.6-0.5-6.9C88.6,27.9,87.4,25,86.3,22z M561.3,48.9c0.4,0,0.7,0,1.1,0c2.4-7.1-0.1-13.7-2.5-20.3
	c-1.7,4.2-4.4,8-1.6,12.8C559.7,43.7,560.3,46.4,561.3,48.9z M71.2,20.1c-0.5,3.4-0.8,6.6-1.5,9.7c-0.7,2.9-1.6,5.9-4.1,8
	c-0.3,0.3-0.5,1.2-0.4,1.2c0.5,0.3,1.2,0.7,1.6,0.5c3.3-1.1,6.1-3.1,7.4-6.3c1.1-2.7,1.8-5.7-0.8-8.4C72.3,23.6,71.9,21.7,71.2,20.1
	z M407.8,6.1C407.1,6,406.5,6,406,5.6c-5.5-4.2-11.9-3.9-18.3-3.6c-0.5,0-1,0.6-1.5,0.9c0.3,0.5,0.5,1.2,1,1.5
	c1.9,1.4,4.1,1.6,6.4,1.2c1.1-0.2,2.2-0.8,3.2-0.7c0.8,0,2.2,1.1,2.2,1.3c-0.8,2.8,1.1,2.3,2.7,2.5C404.1,9,405.9,7.9,407.8,6.1z
	 M119.4,159.7c4.4,0.4,4.4,0.3,7.4-1c1.4-0.6,2.6-2,4.4-1c0.4,0.2,1.3,0,1.7-0.4c2.6-2.2,4.4-4.8,4.5-9c-1.5,1.4-2.4,2.6-3.7,3.3
	c-1.9,1-4.4,2.7-6.1,2.2c-3.4-1.1-4.7,0.1-5.9,2.8C121.4,157.6,120.4,158.4,119.4,159.7z M79,60.7c0.6-2.5,1-4.7,1.7-7
	c1.5-4.7-0.5-8.3-3.3-11.8c-2.3,2-3.3,4.3-2.7,6.9C75.7,52.9,76.4,57.1,79,60.7z M457.2,31.8c0.4,0,0.9,0,1.3,0c1.4-3,3-5.9,4.2-9
	c1-2.7-1.9-5.8-4.7-5.3c-1.5,0.3-2.2,1.3-2.2,2.7c0,2.7-0.1,5.5,0.1,8.2C456,29.6,456.8,30.7,457.2,31.8z M43.6,82.5
	c-0.4,0.4-0.9,0.7-0.9,1.1c-0.5,5.3,0.5,10.2,4.2,14.3c1.3,1.4,2.7,2.8,4,4.2c0.5,0.5,1.1,0.9,1.7,1.3c0.4-0.7,1.1-1.3,1.2-2
	c0.5-2.5-1.3-5-4-5.3c-1.9-0.2-2.2-1-2.5-2.7c-0.7-3.3-1.8-6.5-2.8-9.7C44.4,83.4,44,83,43.6,82.5z M507.9,8.7
	c3.2-0.7,5.9,0.9,8.6,2.2c2.5,1.2,4.9,2.9,8.1,3c-1.1-4.8-3.7-8-8-9.6c-1.2-0.5-2.4-0.7-3.6,0.4C511.5,6.1,509.8,7.3,507.9,8.7z
	 M102.6,15.2c3.5,1.8,6.3,3.5,9.4,4.8c1.9,0.8,4.6-1.4,5-4c0.3-2.3-1.5-2.4-3.2-2.5c-0.6,0-1.4,0-1.8-0.3
	C108.4,10.3,105.8,12.1,102.6,15.2z M101.2,26.8c0.9-0.6,1.5-1.3,2.3-1.4c2.5-0.5,5-0.8,7.5-1.3c0.4-0.1,0.7-0.5,1-0.8
	c-0.3-0.3-0.6-0.8-0.9-0.9c-3.7-0.4-6.3-2.9-9-5.1c-1.8-1.5-3,0-4.2,0.7c-1.3,0.7-0.7,1.8-0.2,2.9c0.8,1.5,1.5,3.2,2.4,4.7
	C100.3,26.2,100.9,26.5,101.2,26.8z M34.6,80.9c-0.7,1.6-1.3,2.2-1.2,2.8c0.7,4.1,1.3,8.3,2.4,12.4c1,3.9,4.5,5.8,8,9
	C41.9,96,36,89.9,34.6,80.9z M449,15.2c0-1.5,0-1.8,0-2.1c-0.2-6-0.8-6.6-6.8-7.3c-0.2,0-0.3-0.2-0.4-0.2c-0.7,0.2-1.7,0.2-1.9,0.6
	c-0.3,0.6-0.3,1.6,0,2.2c0.3,0.7,0.9,1.4,1.6,1.8c1.7,1.2,2.9,2.8,3.6,4.8c0.6,1.5,1.5,3.2,3.3,2.9C448.8,17.8,448.9,15.4,449,15.2z
	 M484.6,4.3c1.6,0.8,3.1,1.8,4.7,2.4c1.4,0.6,2.9,1.2,4.4,1.3c1.9,0.1,3.8-0.1,5.7-0.4c0.9-0.1,1.7-0.5,2.6-0.8
	c-0.5-0.8-0.8-1.7-1.5-2.3c-0.7-0.6-1.6-1.3-2.5-1.4C493.5,2.8,488.9,0.8,484.6,4.3z M43.1,79.2c-1.3-3.2-2.2-6.1-3.6-8.8
	c-1-1.9-2.3-3.8-3.9-5.3c-1.2-1.2-2.5-0.5-2.7,1c-0.5,2.9,1.4,6.9,4.1,8.5c0.6,0.3,1.2,0.9,1.3,1.5C39.2,79.1,39.1,79.1,43.1,79.2z
	 M105.1,133.3c0.5,0.8,1.3,1.6,1.4,2.4c0.8,3.5,3.7,4.1,6.5,4.7c2.2,0.5,5-1.2,5.5-3.7c0.4-2.4-2.2-2-3.4-2.3
	C111.9,133.5,108.7,132.1,105.1,133.3z M342.8,20.8c0.6-1.6,0.8-3.4,1.7-4.8c1.7-2.6,1.8-4.7-0.3-7.3c-1-1.3-1-3.3-1.5-5
	c-0.9,1.9-1.8,3.8-2.6,5.6C338,14.2,338.8,17.6,342.8,20.8z M309.1,6.8c2.7,1.9,4.6,3.4,6.6,4.6c3.3,2,8.9,1.6,11.7-0.7
	c0.5-0.4,0.5-1.2,0.8-1.8c-0.5-0.2-1.1-0.5-1.6-0.5c-1.7,0-3.8,0.6-5.1-0.1C317.8,6.4,314,6.9,309.1,6.8z M55.1,140.4
	c0-1.7-0.2-2.9,0-4c0.7-3.6-1.4-5.7-3.8-7.7c-0.6-0.5-1.4-0.9-2.1-1.2c-1.4-0.6-2.2-1.3-1.3-2.9c0.1-0.1-0.6-0.6-0.9-0.9
	c-0.2,0.4-0.6,0.8-0.5,1.1c0.6,2.6,0.9,5.4,1.9,7.8C49.7,135.7,51,139,55.1,140.4z M99,30c-1-2.7-1.6-4.7-2.6-6.4
	c-0.7-1.2-1.8-2.2-2.9-2.9c-2.9-1.7-3.3-1.4-3.4,2.1c0,1.1-0.1,2.2,0,3.4c0.3,3.1,1.1,3.8,4.2,3.9C95.6,30.1,96.9,30,99,30z
	 M555.7,52.1c0-0.7,0.1-1,0-1.3c-0.3-1.3-0.6-2.6-0.9-3.9c-0.7,1-1.5,2-2.1,3c-1,1.6-2.9,2.6-2.8,4.9c0.2,2.1,0,4.2,0.1,6.3
	c0,0.6,0.4,1.1,0.7,1.7c0.6-0.2,1.3-0.3,1.6-0.7C554.8,59.1,556.2,55.7,555.7,52.1z M203.2,34.4c6.2-5.2,7.9-11.5,4.6-17.4
	c-3,2.6-3,2.6-3.2,4.4C204.1,25.7,203.7,30.1,203.2,34.4z M436.8,10.4c0.5-2.4,1-4.5,1.4-6.7c0.1-0.3-0.5-1.1-0.9-1.1
	c-4.2-0.6-8.4-1.7-11.8,1.8C429.2,6.3,433,8.3,436.8,10.4z M70.9,134.9c2.1,5.4,4.6,10.1,1.9,15.5c-0.3,0.7,0,2.4,0.4,2.6
	c2.5,1,4.4,3.9,7.8,2.7c-0.4-0.9-0.7-1.7-1.2-2.3c-3.8-4.3-5.3-9.4-5.3-15C74.6,136.2,73.4,135.5,70.9,134.9z M55.2,70.9
	c-1.5-0.1-2.4,1.1-1.7,2.6c1.1,2.4,2.6,4.7,4.2,6.9c0.7,1,1.9,1.7,2.9,2.5c0.4-1.2,0.8-2.3,1.1-3.5C62.4,75.8,58.8,71,55.2,70.9z
	 M145.1,39.6c-0.3-2.1-0.4-3.8-0.7-5.6c-0.2-1.1-0.2-2.7-0.8-3.1c-1.7-0.9-0.7,1.6-1.8,1.9c-0.6,0.1-1.1,0.8-1.7,0.8
	c-2.3,0.1-2,1.5-1.5,2.9c0.4,1.2,1,2.3,1.5,3.4c0.7,1.4,1.6,2.8,2.3,4.2c0.3,0.6,0.6,1.2,0.9,1.8c0.4-0.7,0.8-1.3,1-2
	C144.7,42.4,144.9,40.8,145.1,39.6z M155.1,12.4c0,1.8-0.1,2.6,0,3.4c0.4,3.3,1.7,6.5,0.1,9.9c-0.2,0.4,0.8,2,1.4,2.1
	c1.5,0.2,3.4,0.4,4.6-0.4c0.6-0.4,0.3-2.6,0.1-4c-0.2-1.1-0.9-2.1-1.5-3C158.5,18,157.1,15.7,155.1,12.4z M368.2,27.3
	c-1.2-4-2.6-7.2-1-10.8c0.4-0.8-0.5-2.3-0.8-3.3c-2.5,1.7-4.7,3.2-6.8,4.6C361,21.9,363.6,25,368.2,27.3z M25.1,54.6
	c1.3-1.2,2.5-2.2,3.7-3.2c0.4-0.4,1.1-1,1-1.4c-0.3-2.3-0.5-4.8-1.4-6.9c-0.4-1-2.3-1.3-3.5-2c-0.2,1-0.7,2-0.7,3
	c-0.1,2.1-0.1,4.2,0,6.2C24.3,51.9,24.8,53.3,25.1,54.6z M83.4,96.9c-2.3,2.6-0.8,6.3-4.3,7.3c-0.1,0-0.1,0.6,0,0.8
	c0.9,2.9,1.9,5.8,2.8,8.6c0.1,0.4,0.5,0.8,0.7,1.2c0.3-0.3,0.7-0.6,0.8-1c0.7-2.9,2.3-5.6,1-8.8c-0.5-1.3-0.2-2.9-0.3-4.3
	C84.1,99.7,83.8,98.6,83.4,96.9z M13.4,34.4c-0.3-0.4-0.8-1.4-1.5-1.6c-0.7-0.2-1.9,0.2-2.3,0.8c-0.8,1.2-1.1,2.6-1.7,3.9
	C6.9,39.4,5.9,41.2,5,43c-0.3,0.5-0.4,1.1-0.6,1.6c0.7,0.2,1.5,0.7,2.1,0.5C10.1,44,13.4,38.9,13.4,34.4z M87.4,74.3
	c-0.2-2.1,0.1-3.8-0.6-4.9c-2-3.3-2.1-6.9-2.6-10.5c-0.1-0.5-0.6-0.9-0.9-1.4c-0.4,0.5-1,0.8-1.2,1.4c-0.2,0.5,0,1.2,0,1.8
	c0.1,4.5,1,8.8,2.2,13.1c0.5,1.6,0.3,3.4,2.1,4.4C86.8,76.7,87.1,75.2,87.4,74.3z M402.2,38.7c0.3,0.2,0.6,0.5,0.9,0.7
	c2.4-2.5,4.8-5,7.1-7.5c0.2-0.2,0.4-0.5,0.3-0.8c-0.2-1.9-0.3-3.8-0.6-5.7c0-0.3-0.5-0.7-0.9-0.9c-0.2-0.1-0.7,0.1-0.8,0.3
	c-0.5,0.6-1,1.3-1.3,2C405.4,30.8,403.8,34.8,402.2,38.7z M337.4,35.4c0.2-4.2-0.7-8.1,1.8-11.5c0.3-0.4-0.3-1.5-0.4-2.2
	c-0.7,0.3-1.6,0.4-2,0.9c-1.2,1.7-2.1,3.5-3.1,5.3C331.4,32.1,332.2,34,337.4,35.4z M60.6,124.2c-0.9-3-1.6-5.7-2.4-8.4
	c-0.9-2.8-2.9-4.1-5.8-4.8C54.2,120.3,54.4,120.6,60.6,124.2z M62.9,146.5c0-2.9,0-4.9,0-7c0-1.9-3.1-3.6-0.2-5.7
	c-0.3-0.3-0.6-0.7-0.9-1c-0.7-0.5-1.4-1-2.1-1.4c-1.3,2.7-2.7,5-1.5,7.8C59.2,141.6,59.8,144.3,62.9,146.5z M502.1,9.8
	c-0.6,0-1.2-0.1-1.8,0c-0.5,0.1-1.4,0.4-1.5,0.8c-0.1,0.5,0.3,1.2,0.8,1.6c0.7,0.6,1.6,1.1,2.3,1.7c1.8,1.3,3.4,2.8,5.3,4
	c0.8,0.5,0.5,2.7,2.1,1.5c0.4-0.3,0.2-1.7-0.1-2.5c-0.6-1.6-1.4-3.1-2.3-4.6C505.9,10.4,504.4,9.4,502.1,9.8z M386.9,20.3
	c-0.1-0.8,0-1.6-0.3-2.1c-1.3-2.3-2.6-4.7-4.1-6.9c-0.7-1-3.1-0.6-3.2,0.4c0,1.7,0,3.6,0.7,5c1,1.7,2.7,3,4.2,4.4
	c0.5,0.4,1.3,0.5,2,0.8C386.6,21.3,386.8,20.7,386.9,20.3z M376.2,14.8c0-0.6,0.1-1.3,0-1.9c-0.2-2.5-1.2-3.3-3.8-3.1
	c-2.2,0.1-2.9,1.1-3,3.5c-0.1,2.5,2,3.1,3.5,4.2c0.7,0.5,1.5,0.9,2.3,1.3c0.3-0.9,0.7-1.7,1-2.6C376.3,15.8,376.2,15.3,376.2,14.8z
	 M70.4,155.5c4.3,4.9,10.8,7.1,14.6,12.7c0-1.6-0.1-3.2-0.7-4.5c-0.8-1.5-1.8-3.3-3.3-4C77.7,158,74,156.9,70.4,155.5z M107.3,38.8
	c0.8-2.9,1.5-5.1,2.1-7.4c1.3-5.4,1.3-5.3-4-4.1c-1.1,0.3-1.8,0.8-1.7,1.9c0.2,1.2,0.4,2.5,0.9,3.7
	C105.3,34.6,106.2,36.3,107.3,38.8z M535.9,41.1c2.5-2.4,4.2-3.6,5.5-5.2c0.7-0.9,1.5-2.8,1.1-3.3c-1-1.3-2.7-2.1-4.1-3.1
	c-0.1-0.1-0.9,0.4-1,0.7C537,33.4,536.5,36.7,535.9,41.1z M493.1,11.3c-2.7-1.3-5.4-2.6-8.1-3.9c-0.5-0.2-1.5-0.3-1.6-0.1
	c-0.6,1.1-1.3,2.3-1.2,3.4c0.1,0.9,1.4,2.3,2.1,2.2C487.3,12.9,490.6,14.2,493.1,11.3z M48.5,34.8c1,1,2,2,3,2.9
	c3.4-3.2,4.6-5.1,5.9-9.4c-1.8-0.1-3.5-0.6-4.8,1.2C51.4,31.2,50.1,32.8,48.5,34.8z M331.5,10.7c-0.1,0-0.2,0-0.2,0
	c0,0.9-0.3,1.9,0.1,2.6c0.4,0.8,1.4,1.4,2.3,1.7c0.8,0.3,2,0.4,2.6,0c0.6-0.4,1.1-1.6,1-2.4c-0.1-1.9-0.8-3.8-2.8-4.7
	c-1-0.4-2.1-0.5-3.1-0.7c0.1,0.9,0.1,1.7,0.2,2.6C331.5,10,331.5,10.3,331.5,10.7z M240.1,10.3c-0.8,2-1.2,4.5-2.6,5.9
	c-2.8,2.7-1.6,4.9-0.3,7.8c1.6-2.9,3.1-5.4,4.5-8.1C242.9,13.3,242.7,12.9,240.1,10.3z M68.8,152.5c2.4-2.1,2.2-5,2.4-7.6
	c0.2-3-2.8-3.5-5.1-4.8c-0.1,0.9-0.1,1.5-0.2,2.1c-0.6,2.7-0.9,5,2.7,5.8c0.4,0.1,0.6,1.5,0.7,2.4C69.2,151,68.9,151.8,68.8,152.5z
	 M125.4,162.5c-2.2,0.2-4.4,0.8-6.5,0.4c-3-0.5-5.5,0.2-8.3,1.8c1.9,1.1,3.8,2.4,5.8,1.8C119.6,165.6,123.7,166.4,125.4,162.5z
	 M44.4,49.3c0.2-3.9,0.4-7.7,0.5-11.4c0-0.6-0.1-1.1-0.2-1.7c-0.6,0.2-1.4,0.3-1.6,0.7c-1.1,1.8-2.1,3.8-3.1,5.6
	C41.5,44.8,41.9,47.8,44.4,49.3z M459.4,14.2c-2.9-2.6-5.5-4.8-8.3-7.3c0,2-0.4,3.5,0.1,4.8c1.2,3.5,0.6,4.5,5.1,3.1
	C457.1,14.6,458.1,14.5,459.4,14.2z M99.5,40.3c0.4-0.3,0.9-0.7,1.3-1.1c0.6-0.5,1.1-1.2,1.7-1.7c1.2-1.1,1-2.1,0.3-3.4
	c-1.3-2.3-2-2.5-6.2-1.4C97.5,35.2,98.5,37.7,99.5,40.3z M73.2,93.2c-0.7-5-4.8-5.4-7.5-7.3c-0.5-0.4-2.2-0.1-2.4,0.4
	c-0.5,1.1-0.6,2.4,1.2,3C67.2,90.4,70,91.8,73.2,93.2z M84.6,139.3c-0.6,5.8-0.6,5.8,0.3,6.5c3.2,2.5,3.9,2.7,7.3,1.9
	C89.8,145.1,87.3,142.3,84.6,139.3z M224.6,25.6c1.3-4.8,3.1-9.4,0.7-14.4c-0.4,1.3-0.5,2.6-1.1,3.6
	C222.3,18.4,221.8,21.9,224.6,25.6z M96.3,39.6c-0.6-1.5-1.3-3.2-2.1-4.8c-0.2-0.4-1.1-0.5-1.6-0.4c-0.2,0-0.5,0.8-0.5,1.2
	c0.3,3,0.7,5.9,1.1,8.9c0,0.2,0.4,0.7,0.6,0.6c0.4-0.1,1-0.3,1.1-0.6C95.4,43.1,95.8,41.6,96.3,39.6z M104.5,155.4
	c-2.8-4.8-5.8-6.5-10.3-4.1c-0.5,0.3-1.1,0.2-2,0.3c2.1,1.6,3.7,3.4,6.3,2.3c0.5-0.2,1.4,0.4,2.1,0.6
	C101.7,154.8,102.8,155,104.5,155.4z M166.5,547.7c4.1-0.3,8.2,3.7,12.4,0.1C174.7,543.7,170.6,545.4,166.5,547.7z M298.5,12.1
	c2.3-1.9,4.3-3.4,6.1-5.1c0.3-0.3,0.2-1.7,0-1.8c-1.8-0.9-5.2,0.4-6.9,2.3C295.8,9.4,298,10.5,298.5,12.1z M492.8,28.6
	c-1.4,1.8-2.5,3-3.4,4.3c-1,1.5-3.2,2.1-3.1,4.4c1.6-0.5,3.3-0.8,4.8-1.5C494.7,34.4,494.9,33.6,492.8,28.6z M179.7,14.4
	c1.5,0.1,3.3-1.3,3.4-2.6c0.1-1.8-1.3-4.2-2.1-3.7c-1.6,0.9-3.2,2-4.4,3.4C176.1,12.1,178.3,14.4,179.7,14.4z M411.3,34.9
	c-1.1,1.7-2.3,2.9-2.6,4.4c-0.4,1.6-0.1,3.4,0.4,5c0.2,0.7,2.4-1.1,3.5-3.3C413.5,38.9,413,37.2,411.3,34.9z M235.2,34
	c0.8-2.2,1.5-3.8,2-5.4c0.2-0.5,0.1-1.7-0.1-1.7c-1.6-0.5-3.4-1.5-4.7-1.1c-1.4,0.5-0.2,2.2,0.2,3.3C233.3,30.6,234.1,32,235.2,34z
	 M45.5,101.2c0.2,4-1.2,7.9,3.6,10C49.3,107.5,50.4,103.7,45.5,101.2z M76.7,60.6c-2.6,3.1-2.1,5.7-2,8.2c0,0.5,0.6,1.3,1.1,1.4
	c0.4,0.1,1.2-0.4,1.5-0.8c0.5-0.8,1.1-1.7,1-2.5C78.1,65.1,77.4,63.3,76.7,60.6z M61.3,151.5c0,0-0.9,0.5-1.8,1.1
	c0.6,0.6,1.2,1.2,1.9,1.8c0.7,0.6,1.4,1.4,2.2,1.8c0.8,0.4,1.7,0.4,2.6,0.5c0-0.9,0.3-1.8,0-2.6C65.7,152.4,64.6,151.1,61.3,151.5z
	 M143,19.9c-0.3,1.6-0.4,2.1-0.4,2.7c-0.4,3.8,3.5,5.6,4.2,8.9c0.4-0.2,1-0.4,1.1-0.6c0.1-0.9,0.3-2-0.1-2.7
	C146.4,25.6,144.9,23.2,143,19.9z M287.9,12.7c-0.1-3.7,0.8-6.7-1.4-9.4c-2.2,2.1-3.6,3.9-3.1,4.5c0.8,1.1,2,1.9,3,2.8
	C286.8,11.1,287.1,11.6,287.9,12.7z M154.9,3.6c-0.6,2-1.2,3.3-1.4,4.7c-0.1,0.6,0.4,1.6,1,1.9c1,0.5,2.2,0.8,3.3,0.6
	c0.7-0.1,0.9-3.7,0.3-4.3C157.2,5.6,156.2,4.8,154.9,3.6z M516.7,36.2c2.4-3.4,1.8-7.3,4.6-9.7c0.2-0.1-0.3-1.1-0.5-1.6
	c-0.3,0.2-0.8,0.3-1,0.5c-0.8,1.2-1.3,2.7-2.4,3.6C514.7,31.1,515.7,33.2,516.7,36.2z M542.4,19.6c-0.3,2.7-0.6,5,0.6,7.2
	c0.3,0.7,0.7,1.3,1.1,1.9c0.3-0.6,0.7-1.2,0.9-1.9c0.4-1.2,0.3-2.5,1-3.5c0.5-0.8,0.3-0.9-0.3-1.3C544.6,21.4,543.6,20.6,542.4,19.6
	z M62.3,104.9c0.3,2.9,0.5,4.7,0.6,6.5c0.1,2.4,1.6,3,3.9,3.7C66.1,111.4,65.2,108.4,62.3,104.9z M78.9,113.6
	c-0.5,1.6-1.1,3.7-1.8,5.7c-0.4,1.1-0.3,1.9,0.6,2.5c1.1,0.7,2.2,1.3,3.5,2C80.3,119.9,79.6,116.6,78.9,113.6z M83.5,149.9
	c0.3-0.6,0.4-0.8,0.4-0.9c-1.3-1.4-2.6-2.8-4-4.1c-0.1-0.1-0.6,0-0.9,0.1c0.4,1.3,0.7,2.6,1.1,3.9c0.3,0.9,0.6,1.8,1.1,2.6
	c0.5,0.7,1.4,0.9,1.8-0.2C83.3,150.7,83.4,150.1,83.5,149.9z M256.6,17.2c-2.5,2.8-5.2,4.4-6.1,7.7
	C255.6,23.1,256.5,22.2,256.6,17.2z M84.4,117.4c-0.3,0.6-0.8,1-0.7,1.4c0.3,2.8,0.6,5.6,1,8.4c0,0.2,0.5,0.4,0.7,0.4
	c0.2,0,0.6-0.3,0.7-0.6C86.3,123.9,86.4,120.8,84.4,117.4z M401.2,9.8c-2.1,0.5-3.7,0.8-5.3,1.4c-0.5,0.2-1,1.3-0.9,1.9
	c0.2,0.8,0.9,1.5,1.6,2.1c0.1,0.1,1.1-0.5,1.4-0.9C399.1,12.9,400,11.5,401.2,9.8z M339.5,2.1c-1.9-0.2-4.3,1.4-3.8,2.4
	c0.4,1.1,1.5,1.9,2.3,2.8c0.8-1.3,1.6-2.6,2.2-4C340.3,3.1,339.7,2.4,339.5,2.1z M474.1,24.5c0-2.7-0.4-3.1-2.4-3.1
	c-1.1,0-2.4,0-2.2,1.6c0.2,2,2,2.3,3.4,2.8C473.2,25.9,473.9,24.7,474.1,24.5z M86.2,14.4c-0.8,0.7-1.7,1.1-2,1.7
	c-0.5,1-1.1,2.4-0.7,3.1c0.8,1.5,1.8-0.2,2.8-0.4c0.3-0.1,0.6-0.2,0.9-0.4c0.5-0.5,1.5-1.4,1.4-1.6C87.9,16,87.1,15.3,86.2,14.4z
	 M375.5,512.5c-0.3,0.1-0.7,0.2-0.8,0.4c-1.3,2.5-1.6,5.1-1.2,7.8c0.1,0.4,0.7,1,0.8,0.9c0.5-0.2,1.4-0.8,1.3-1
	c-0.6-2.5-0.6-4.9,0.3-7.4C376,513,375.6,512.7,375.5,512.5z M375.2,3c-0.8,1-1.6,1.7-2,2.7c-0.2,0.4,0.4,1.7,0.7,1.7
	c1.2,0.2,3,0.5,3.6-0.1c1.2-1.2-0.8-2-1.2-3.1C376.1,3.7,375.7,3.5,375.2,3z M53.9,66.6c-0.1,0.3-0.1,0.6-0.2,0.9
	c1.7,0.5,3.3,1,5,1.6c1.3,0.5,1.3-0.3,1.3-1.2c0-2.1-0.5-2.5-2.5-2.2C56.2,66,55.1,66.3,53.9,66.6z M558.8,7.7
	c-2.4,1.5-4,2.5-5.9,3.7c1.8,1.1,3.1,1.8,4.4,2.6C557.7,12.1,558.2,10.4,558.8,7.7z M400.8,524.7c-1-0.7-2-1.7-2.2-1.5
	c-1,0.8-2,1.8-2.7,2.9c-0.2,0.3,0.9,1.4,1.4,2.1C398.4,527,399.5,526,400.8,524.7z M505.3,19.7c-0.3,0.1-0.5,0.2-0.8,0.3
	c0,1.2-0.2,2.5,0.1,3.6c0.2,0.8,1,1.4,1.5,2.1c0.4-0.8,1.1-1.7,1-2.4C506.7,21.9,505.9,20.8,505.3,19.7z M38,40.5
	c0.3-0.5,0.8-1.1,1-1.8c0.1-0.2-0.7-0.8-1.1-1c-1.1-0.3-2.3-1.4-3.4,0c-0.2,0.2-0.4,0.8-0.3,0.8c1,0.6,2,1.2,3.1,1.8
	C37.3,40.5,37.5,40.5,38,40.5z M183.6,543.7c-0.6-3-0.8-3.8-2-4.1c-0.9-0.2-1.9,0.4-3.5,0.8C180.4,541.7,182,542.7,183.6,543.7z
	 M465.6,7c3.5,3.4,3.5,3.4,5.2,0C469.2,7,467.7,7,465.6,7z M39.1,119.6c1.6,2.2,2.7,3.7,3.9,5.4C44.1,121.8,42.8,120.4,39.1,119.6z
	 M59.7,112.3c0-3.7,0-3.7-3.7-3C57,110.2,58.1,111.1,59.7,112.3z M57.1,129.8c-0.4-1.8,0.9-3.4-1.1-4.4c-0.3-0.1-1.2,0.5-1.4,1
	C54,128.2,55.5,128.8,57.1,129.8z M518.5,16.6c0.5,1,0.8,1.7,1.2,2.5c0.6-0.8,1.3-1.6,1.7-2.5c0.1-0.3-0.9-1.1-1.5-1.4
	C519.7,15.2,519.1,16,518.5,16.6z M510.9,10.7c-0.7,0.3-1,0.4-1.3,0.5c0.6,1,1.3,1.9,1.9,2.9c0.2-0.4,0.8-0.9,0.7-1.1
	C511.9,12.1,511.3,11.4,510.9,10.7z M373.9,534.1c-0.2,0.1-0.5,0.2-0.5,0.3c-0.2,0.8-0.4,1.7-0.5,2.5c0,0,0.3,0.2,0.3,0.2
	c0.3-0.6,0.8-1.2,1-1.8C374.3,535,374,534.5,373.9,534.1z M39.1,25.5c-1.5,0-2.2,0.9-2.8,2c0,0,0.2,0.3,0.2,0.3
	c0.9-0.6,1.7-1.1,2.5-1.7C39.1,26,39.1,25.8,39.1,25.5z M310.4,528.7c0.2,0.1,0.4,0.1,0.6,0.2c0.1-0.6,0.2-1.2,0.2-1.8
	c0-0.6-0.2-1.1-0.3-1.6c-0.1,0-0.3,0.1-0.4,0.1C310.4,526.7,310.4,527.7,310.4,528.7z M187.8,525.3c-0.1,0-0.3,0-0.4,0
	c-0.1,0.6-0.2,1.2-0.2,1.7c0,0.3,0.2,0.5,0.3,0.8c0.2-0.3,0.5-0.6,0.5-0.9C188,526.5,187.8,525.9,187.8,525.3z M183.9,523.1
	c-0.9-0.1-1.5-0.1-2-0.1c-0.3,0-0.6,0.2-0.8,0.3c0.6,0.2,1.3,0.4,1.9,0.5C183.1,523.7,183.3,523.4,183.9,523.1z M345.2,516.1
	c-0.2-0.5-0.3-0.9-0.4-1.3c-0.2,0.5-0.4,1-0.5,1.5c0,0.3,0.3,0.7,0.4,1.1C344.9,516.9,345.1,516.5,345.2,516.1z M237.6,8.8
	c-0.1-0.5-0.3-0.9-0.4-1.3c-0.2,0.3-0.5,0.6-0.5,0.9c0,0.5,0.3,1.1,0.4,1.6C237.3,9.7,237.4,9.2,237.6,8.8z M489.4,15.5
	c-0.5,0.3-0.7,0.4-1,0.5c0.5,0.3,1,0.6,1.5,0.9c0.1,0,0.4-0.3,0.6-0.4C490.1,16.1,489.7,15.8,489.4,15.5z M82.9,92.6
	c-0.2,0.4-0.5,0.7-0.4,0.9c0.2,0.5,0.5,0.9,0.8,1.3c0.1-0.2,0.4-0.4,0.4-0.6C83.5,93.7,83.2,93.2,82.9,92.6z M89.4,65.5
	c-0.1,0.6-0.1,1-0.1,1.4c0,0.1,0.2,0.2,0.3,0.4c0.1-0.4,0.3-0.8,0.4-1.2C89.9,66,89.6,65.8,89.4,65.5z M327.6,4.4
	c-0.3,0.2-0.6,0.3-0.6,0.5c0,0.3,0.2,0.6,0.4,0.7c0.2,0.1,0.5-0.1,0.8-0.1C328,5,327.8,4.7,327.6,4.4z M380.9,511.3
	c-0.1-0.3-0.2-0.7-0.4-0.8c-0.2-0.1-0.5,0.1-0.8,0.2c0.2,0.3,0.3,0.6,0.5,0.8C380.3,511.6,380.6,511.4,380.9,511.3z M209.4,550.9
	c-0.1-0.4-0.3-0.8-0.4-1.3c-0.2,0.2-0.4,0.4-0.4,0.6c0,0.3,0.1,0.6,0.1,0.9C208.9,551.1,209.1,551,209.4,550.9z M212.2,20.8
	c-0.2-0.3-0.3-0.6-0.5-0.8c-0.1,0.3-0.3,0.5-0.3,0.8c0,0.3,0.2,0.5,0.2,0.8C211.9,21.3,212.1,21.1,212.2,20.8z M347,511.6
	c-0.1-0.3-0.2-0.5-0.4-0.8c-0.2,0.2-0.4,0.5-0.4,0.7c0,0.3,0.3,0.6,0.5,0.9C346.9,512.2,346.9,511.9,347,511.6z M348.9,509.1
	c-0.1-0.1-0.2-0.2-0.3-0.3c-0.1,0.2-0.2,0.4-0.3,0.7c0,0.1,0.2,0.2,0.2,0.3C348.7,509.5,348.8,509.3,348.9,509.1z M53.7,62.6
	c-0.1,0.1-0.3,0.2-0.3,0.2c0,0.2,0.2,0.5,0.2,0.7c0.1-0.1,0.3-0.2,0.3-0.2C53.9,63,53.8,62.8,53.7,62.6z M347.8,519.2
	c0-0.1,0-0.3,0.1-0.4c-0.2,0-0.4,0.1-0.5,0.1c0,0.1,0.1,0.3,0.2,0.4C347.5,519.3,347.7,519.3,347.8,519.2z M394.5,528.6
	c-0.1-0.1-0.2-0.3-0.3-0.4c-0.1,0.1-0.3,0.3-0.3,0.3c0.1,0.2,0.3,0.3,0.4,0.5C394.4,528.8,394.4,528.7,394.5,528.6z M402.8,530.2
	c0,0.1-0.1,0.3-0.1,0.4c0.2,0,0.4,0,0.6,0.1c0-0.1,0-0.3-0.1-0.4C403,530.2,402.9,530.2,402.8,530.2z M166.1,531.2
	c0,0.1-0.1,0.3-0.1,0.4c0.2,0,0.4,0,0.6,0.1c0-0.1,0-0.3-0.1-0.4C166.4,531.2,166.2,531.2,166.1,531.2z M207.8,539.9
	c0,0.1-0.1,0.3-0.1,0.4c0.2,0,0.4,0,0.6,0.1c0-0.1,0-0.3-0.1-0.4C208.1,539.9,207.9,540,207.8,539.9z M135.4,29.4
	c0-0.2,0-0.3,0.1-0.5c-0.2,0-0.4,0.1-0.5,0.1c0,0.1,0.1,0.3,0.2,0.4C135.1,29.5,135.3,29.4,135.4,29.4z M61.8,116.2
	c-0.1-0.1-0.2-0.2-0.3-0.3c-0.1,0.2-0.2,0.4-0.3,0.7c0,0.1,0.2,0.2,0.2,0.3C61.6,116.7,61.7,116.5,61.8,116.2z M212.1,25.1
	c-0.1-0.1-0.2-0.3-0.2-0.4c-0.1,0.1-0.3,0.3-0.3,0.3c0.1,0.2,0.3,0.3,0.4,0.5C212,25.4,212.1,25.3,212.1,25.1z M15.9,38.3
	c-0.1,0.1-0.3,0.2-0.3,0.2c0,0.2,0.1,0.5,0.2,0.7c0.1-0.1,0.3-0.2,0.3-0.2C16.1,38.8,16,38.5,15.9,38.3z M210.2,15.7
	c-0.1,0.1-0.2,0.2-0.3,0.3c0.2,0.1,0.4,0.2,0.7,0.3c0.1,0,0.2-0.2,0.3-0.3C210.6,15.9,210.4,15.8,210.2,15.7z"/>
</svg>
