<?xml version="1.0" encoding="utf-8"?>
<!-- Generator: Adobe Illustrator 18.0.0, SVG Export Plug-In . SVG Version: 6.00 Build 0)  -->
<!DOCTYPE svg PUBLIC "-//W3C//DTD SVG 1.1//EN" "http://www.w3.org/Graphics/SVG/1.1/DTD/svg11.dtd">
<svg version="1.1" id="Layer_1" xmlns="http://www.w3.org/2000/svg" xmlns:xlink="http://www.w3.org/1999/xlink" x="0px" y="0px"
	 viewBox="0 49.5 300 250.5" enable-background="new 0 49.5 300 250.5" xml:space="preserve">
<path d="M130.2,56.3c-3.6,2.4-7.2,4.7-10.8,7c-1.5,0.9-2.9,2-4.1,3.3c-0.8,0.8-1.6,1.5-2.4,2.3c-1.5,1.4-3,2.9-4.3,4.4
	c-1.5,1.7-2.9,3.4-4.3,5.1c-1.9,2.2-4,4.3-5.6,6.8c-0.3,0.5-0.6,0.9-1,1.4c-1.2,1.4-2.5,2.8-3.8,4.2c-2.4,2.7-4.8,5.6-7.3,8.3
	c-1.4,1.4-2.5,3.1-3.7,4.6c-0.8,1-1.4,2.2-2,3.4c-1.1,2.2-2,4.4-3.1,6.6c-1.9,3.9-2.9,8.1-4.1,12.2c-0.7,2.4-1.1,4.8-1.5,7.3
	c-0.5,2.9-1.3,5.7-1.2,8.7c0,1.2-0.2,2.4-0.4,3.5c-0.6,3.4-1.2,6.7-1.8,10.1c-0.8,4.5-1.6,9-2.6,13.5c-0.7,2.9-1.2,5.8-1.9,8.7
	c-0.3,1.5-0.9,3-1.1,4.5c-0.3,2.9-0.9,5.6-1.9,8.3c-0.3,0.8-0.7,1.7-0.7,2.5c-0.2,2.3-0.3,4.6-0.4,6.9c0,2.1,0.2,4.3,0.3,6.3
	c0.1,2.7,0.7,5.2,1.1,7.7c0.5,3.3,1.4,6.5,1.3,9.9c0,1.2,0.2,2.4,0.4,3.5c0,0.2,0.1,0.3,0.2,0.5c1,1.4,2,2.9,3.1,4.2
	c1,1.3,2.1,2.5,3.3,3.7c2.1,2,4.3,4,6.5,6c0.7,0.7,1.3,2.4,0.9,3.3c-0.5,1-1,2-1.5,3c-0.1,0.2-0.3,0.2-0.5,0.3
	c-0.1-0.2-0.2-0.3-0.2-0.5c0-2.1-1-4-1.9-5.8c-0.2-0.3-0.6-0.4-0.9-0.6c0,0.3-0.1,0.7,0,1c0.5,1.6,1.1,3.2,1.6,4.8
	c0.1,0.2,0,0.5-0.1,0.7c-0.1,0.1-0.5,0-0.7-0.1c-1.9-0.7-3.8-1.3-5.6-1.9c-0.5-0.2-1.2-0.1-1.3-0.8c-0.2-0.8,0.7-0.6,0.9-0.9
	c0.1-0.1,0.1-0.2,0.2-0.3c0.9-1,1.6-2.2,2.8-3c0.3-0.2,0.5-0.8,0.8-1.2c0-0.1-0.3-0.5-0.4-0.4c-0.8,0.4-1.5,0.9-2.2,1.4l0.1,0.1
	c0.2,0,0.5,0,0.7,0c0.1-0.1,0.2-0.2,0.3-0.3c0,0.1,0.1,0.1,0.1,0.2c-0.2,0-0.3,0.1-0.5,0.1c-0.9,1.1-1.7,2.2-2.7,3.3
	c-0.7-1,0.7-1.4,0.5-2.2c-0.2,0-0.6,0.5-0.7-0.1c-0.2-1,0.1-1.9,1-2.6c0.8-0.6,1.6-1.2,2.4-1.8c0.1-0.1,0.2-0.3,0.2-0.5
	c-0.2,0-0.5-0.2-0.7-0.1c-1.1,0.5-2.1,1-3.1,1.5c-0.3-0.6-0.6-1.2-1-1.8c-0.2-0.3-0.5-0.3-0.7,0.1c-0.1,0.2,0,0.3,0,0.5
	c0.1,0.7,0.3,1.5,0.2,2.2c-0.1,0.7-0.6,1.4-0.9,2.1c0.5-0.3,1-0.7,1.5-1.1c0.2-0.2,0.3-0.3,0.4-0.4c0.2-0.1,0.3-0.3,0.4-0.4
	c0.2-0.2,0.3-0.3,0.4-0.4c0.2-0.1,0.3-0.3,0.4-0.4c0.1,0,0.1-0.1,0.2-0.2l-0.2,0.2c-0.1,0.2-0.3,0.3-0.4,0.4l-0.4,0.4
	c-0.1,0.2-0.3,0.3-0.4,0.4l-0.4,0.4c-0.4,0.7-0.9,1.4-1.4,2.4c-0.1-0.7-0.1-0.9-0.1-1.2c-0.2-0.1-0.5-0.2-0.6-0.3
	c-1.2-2.4-3.1-4.2-5-6c-0.7-0.6-1.4-1.3-2-1.9c-0.1-0.1-0.4,0-0.7,0c0,0.2-0.1,0.5,0,0.7c0.2,0.3,0.4,0.5,0.6,0.7c1.1,1,2.2,2,3.3,3
	c1.2,1.1,1.2,1.2,0.1,2.3c-0.5,0.4-1,0.8-1.4,1.2c-0.3,0.3-0.7,0.7-1,1c-0.2-0.4-0.4-0.9-0.7-1.3c-0.3-0.6-0.4-1.4-1.4-1.6
	c0.2,0.7,0.2,1.3,0.4,1.8c0.6,1.9,0.8,3.6-0.5,5.3c-0.1,0.2-0.2,0.4-0.3,0.7c-0.4,1-0.7,1.2-1.5,0.7c-1.2-0.6-2.4-0.9-3.7-1.2
	c-2.3-0.7-4.6-1-7-0.9c-0.9,0-1.7,0.2-2.5,0.5c-1.7,0.7-3.4,1.3-5.3,2c0.1-2,0.7-3.8,1.4-5.4c0.8-1.6,1.5-3.2,2.5-5.1
	c-0.7,0.4-1.2,0.5-1.4,0.9c-0.8,1-1.5,2.1-2.2,3.2c-1.4,2.1-1.4,4.7-1.9,7.1c-0.6-1.6-1.2-3.2-1.8-4.9c-0.1-0.3,0-0.7,0.2-1
	c0.7-1.1,1.4-2.2,2.1-3.3c0.3-0.5,0.7-0.9,0.8-1.7c-1.5,0.5-2.2,1.6-3.1,2.5c-0.3,0.3-0.5,0.9-0.8,1c-0.3,0.1-0.7-0.3-1.1-0.5
	c-0.3-0.1-0.6-0.1-0.9-0.1c0.1,0.3,0.1,0.7,0.3,0.9c0.9,1.3,0.7,2.5,0,3.8c-0.5,1-0.8,2-0.9,3c-0.2,1.3-0.9,1.7-2,2.1
	c-1.9,0.5-3.6,1.2-5.5,1.9c-1.2,0.5-2.4,1-3.9,1.5c0.3-1.2,0.8-1.9,1.4-2.6c1.1-1.1,2.2-2.2,2.7-3.7c0.1-0.2,0.3-0.4,0.5-0.5
	c2.2-1.4,3.9-3.3,5.7-5.1c0.5-0.5,1-0.9,1.5-1.4c0.2-0.2,0.3-0.4,0.5-0.6c3.1-2.9,4.3-6.7,4.4-10.9c0-3-0.2-6.1-0.3-9.1
	c-0.2-4.5-0.4-9,0.2-13.5c0.2-1.7,0-3.4,0.1-5.1c0.1-2.9,0.2-5.9,0.4-8.8c0.1-1.4,0.2-2.9,0.4-4.3c0.5-3,1-6,1.4-9
	c0.3-3.1,1-6.2,1.9-9.2c1.2-3.9,2.2-7.9,3.1-11.9c1.3-5.5,2.9-11,4.3-16.5c0.6-2.5,1.2-4.9,1.7-7.4c0.3-1.6,0.7-3.1,1-4.7
	c0.5-2.3,1.1-4.6,1.5-6.9c0.5-2.8,1-5.6,2.4-8.2c0.4-0.8,0.4-1.7,0.6-2.5c0.2-0.7,0.3-1.3,0.5-1.9c0.8-1.8,1.7-3.5,2.4-5.3
	c0.9-2,1.7-4,2.6-6c0.8-1.6,1.7-3.2,2.6-4.8c0.6-1.1,1.2-2.2,2-3.1c0.9-1,1.8-2.1,2.3-3.4c1-2.4,2.4-4.5,4.1-6.4
	c0.7-0.7,1-1.7,1.5-2.6c0.4-0.8,0.8-1.7,1.3-2.4c1-1.3,2-2.6,3-3.8c1.9-2.3,3.8-4.6,5.8-6.8c2.1-2.2,4.4-4.2,6.6-6.3
	C87,58.5,88,57.7,89,57c1.9-1.5,3.9-3.1,5.9-4.5c0.9-0.7,1.9-1.2,2.8-1.8c0.2-0.1,0.4-0.1,0.5,0c-0.1-0.4-0.2-0.7-0.3-1.1
	c-0.2,0.1-0.3,0.1-0.4,0c-0.6,0.5-1.2,1-1.9,1.4c0,0,0,0,0,0c-0.6,0.5-1.2,1-1.9,1.4c0.1-0.3,0.3-0.5,0.5-0.8
	c-0.1,0-0.2,0.1-0.3,0.1c-0.7,0.9-1.6,1.8-2.7,2.4c-0.1,0.2-0.2,0.3-0.3,0.4c0,0-0.1,0-0.1-0.1c-0.4,0.4-0.9,0.8-1.4,1.2
	c-0.2,0.3-0.4,0.7-0.8,0.9c-0.3,0.2-0.7,0.5-1.2,0.8c0,0,0,0,0,0c-0.3,0.2-0.6,0.3-0.9,0.5c-0.8,1.1-1.8,2-3.1,2.7
	c-0.4,0.3-0.8,0.7-1.2,1.1c-2.3,2.5-4.5,5-6.8,7.5c-0.9,0.9-1.5,2-2.5,2.7c-2,1.5-3.1,3.5-4,5.7c-0.5,1.2-1,2.3-1.9,3.2
	c-1.4,1.5-2.5,3.3-3.4,5.1c-0.7,1.4-1.3,2.6-2.4,3.8c-1,1-1.6,2.4-2.3,3.6c-0.9,1.5-1.7,3.1-2.5,4.6c-0.9,1.7-1.8,3.3-2.4,5
	c-0.8,2.1-1.5,4.2-2.6,6.2c-0.4,0.8-0.8,1.6-0.9,2.4c-0.2,1.4-0.7,2.6-1.3,3.9c-0.4,1-0.8,2.1-1,3.2c-0.3,1.6-0.5,3.3-0.9,4.9
	c-0.8,4-1.9,7.9-2.7,11.9c-1.1,5.3-2.6,10.6-3.9,15.9c-0.9,3.3-1.7,6.7-2.6,10.1c-1.1,4.1-2.2,8.2-3.3,12.2
	c-1.2,4.3-1.5,8.8-2.1,13.2c-0.2,1.8-0.5,3.6-0.7,5.3c-0.2,1-0.3,2.1-0.4,3.1c-0.1,3.8-0.1,7.5-0.3,11.2c-0.3,5-0.1,10-0.1,15
	c0,0.4,0,0.7,0,1.1c0.1,1.5,0.3,3.1,0.3,4.6c0,1.9-0.5,3.7-2.3,4.8c-0.7,0.5-1.6,0.7-2.4,0.8c-0.3,0-0.6-1-0.9-1.5
	c-0.1-0.2-0.2-0.4-0.3-0.7c-0.8-0.9-0.2-1.5,0.4-2.2c0.1-0.1,0.1-0.1,0.2-0.2c0,0,0,0.1,0,0.1s-0.1,0-0.2,0.1
	c-0.1,0.7-0.2,1.5-0.3,2.2c0.4,0,0.7-0.2,0.8-0.6c0.2-0.9,0.5-1.8,0.7-2.7c0.1-0.5,0.3-1,0.4-1.4c0-0.1-0.1-0.3-0.2-0.3
	c-0.2,0-0.4,0-0.5,0c-0.6,0.9-1.2,1.9-1.7,2.9c-0.3,0.5-0.5,0.7-1,0.2c-0.3-0.4-0.6-0.8-1-1.1c-0.1-0.1-0.3-0.1-0.5,0
	c0,0-0.1,0.2-0.1,0.3c0.2,0.3,0.3,0.7,0.5,1c0.5,1,0.9,2,0.6,3.3c-0.5,2.3-0.4,2.3-2.8,2.8c-0.3-1.5-0.7-3.1-1-4.7
	c-0.1-0.5-0.2-1-0.5-1.4c-0.1-0.2-0.5-0.3-0.7-0.4c-0.1,0.2-0.3,0.5-0.2,0.7c0.2,1.6,0.4,3.2,0.7,4.8c0.2,1,0,1.2-1,1.6
	c-0.2,0.1-0.5,0.2-0.7,0.3c-2.9,0.5-5.6,1.5-8.1,3.1c-0.7,0.4-1.6,0.6-1.6,1.6c0,0.6,1,0.7,2.5,0.5c0.9-0.2,1.9-0.2,2.8-0.1
	c1.2,0,2.4,0.4,3.5,0.2c1-0.1,2.2,0.1,2.8-1.1c-0.9,0.1-1.7,0.2-2.6,0.3c-1,0-2,0.2-3,0c-1.5-0.4-2.9-0.3-4.8,0.1
	c1.6-1.4,3.1-2,4.6-2.6c1.5-0.5,3.1-0.9,4.6-1.3c0.8-0.2,1-0.1,1,0.8c0,1,0,1.9,0,2.8c1,0.4,1,0.4,1-0.4c-0.1-0.9-0.2-1.8-0.2-2.7
	c0.4,0.7,0.6,1.4,0.8,2.1c0.2,0.7,0.7,1.1,1.5,1.1c0.8,0,1.6,0.2,2.3,0.4c0.7,0.2,0.7,0.7,0.2,1.2c-1,1-1.9,2.2-3.1,3
	c-3,2-4.7,5.2-6.8,8c-0.1,0.2-0.3,0.4-0.3,0.7c0,0.3-0.1,0.8,0,1c0.2,0.2,0.7,0.3,1,0.2c0.9-0.2,1.7-0.5,2.5-0.9
	c2.2-0.9,4.5-1.7,6.8-2.6c1.5-0.5,1.5-0.5,1.2,1c0,0.3,0.2,0.6,0.3,0.9c0.4-0.9,0.5-1.7,0.7-2.6c0.5-2.4,0.9-4.9,1.9-7.2
	c0.2-0.4,0.5-0.7,0.7-1c0.2-0.2,0.3-0.5,0.4-0.7c0.2-0.1,0.3-0.3,0.4-0.4c0.2-0.2,0.3-0.5,0.4-0.7c0.2-0.1,0.3-0.3,0.4-0.4l0.2-0.2
	c0,0.1-0.1,0.1-0.2,0.2c-0.1,0.2-0.3,0.3-0.4,0.4c-0.2,0.2-0.3,0.5-0.4,0.7c-0.1,0.2-0.3,0.3-0.4,0.4c-0.2,0.2-0.3,0.5-0.4,0.7
	c-0.8,2.4-1.4,4.9-1.8,7.3c-0.2,1.1-0.2,2.2,0,3.4c0.8-0.4,0.6-1,0.6-1.6c0.1-1.5,0.1-1.5,1.4-1.8c0.1,0,0.2,0,0.4,0.1
	c0,0.7,0,1.4,0,2.2c0,0.2,0.2,0.5,0.4,0.7c0.1-0.3,0.3-0.5,0.3-0.8c0-0.3,0-0.6,0-0.9c-0.2-1.8-0.5-3.5-0.7-5.3
	c-0.1-0.2-0.3-0.5-0.4-0.7c-0.1-0.1-0.2-0.3-0.3-0.4c0.1,0,0.1-0.1,0.2-0.1c0,0.2,0.1,0.3,0.1,0.5c0.2,0.3,0.3,0.5,0.4,0.8
	c0.2,0.7,0.6,1.4,0.7,2c0.3,1.5,0.4,3,0.6,4.6c0.2-0.3,0.4-0.5,0.4-0.8c0.4-2,0.7-4,1.1-6c0.1,0.9,0,1.8,0,2.7c0,1-0.1,1.9-0.2,2.9
	c0,0.2,0.2,0.3,0.3,0.4c0.2-0.2,0.3-0.3,0.4-0.5c0.1-0.2,0-0.3,0-0.5c0.1-1.6,0.5-2.1,1.9-2.6c1.1-0.3,2.3-0.7,3.3-1.2
	c1.7-0.9,3.6-0.9,5.2-0.6c2.7,0.5,5.5,0.8,8,2.1c0.5,0.2,0.9,0.5,1.4,0.9c0.2-0.5,0.5-1.2,0.8-1.8c0.3-0.7,0.7-1.3,1.1-2
	c-0.6,1.7-1.2,3.4-1.9,5.1c-0.2,0.5,0,0.4,0.3,1.1c0.4,1,0.5,0.5,0.8,0c0.1-0.2,0.2-0.3,0.3-0.5c0.9,0.7,0.8,0,0.8-0.5v-3.6h0.3v4.4
	c0.1,0,0.2,0,0.2,0c0.1-0.3,0.2-0.5,0.3-0.8c0.5,0.3,1,0.7,1.5,1c2.1,1.5,3.9,3.4,6.4,4.4c0.3,0.2,0.6,0.6,0.9,0.9
	c0.5,0.3,0.9,0.7,1.4,0.9c0.8,0.3,1.6,0.4,2.3,0.7c0.6,0.2,1,0,1.3-0.4c0.2-0.2,0-0.7-0.1-1c-0.8-1.2-1.7-2.4-2.5-3.7
	c-1.5-2.2-2.4-4.5-2.4-7.3c2.5,0.3,4.7,1.1,6.8,2.1c0.9,0.4,1.6,0.9,1.8,2c0,0.2,0.3,0.3,0.4,0.5c0.1-0.2,0.2-0.5,0.2-0.8
	c0-0.2,0-0.5,0-0.8c1,0.5,0.7-0.8,1.2-0.9c0.3-1.7,1-3.2,2.2-4.5c-0.7,1.5-1.5,3-2.2,4.5v2.4c0.1,0,0.2,0,0.2,0
	c0.2-0.9,0.5-1.7,0.7-2.6c1,1,0.2,2.3,0.9,3.4c0.1-0.7,0.1-1.4,0.1-2v-2c0.3,0.4,0.3,0.8,0.3,1.1c0,0.6-0.2,1.4,0.1,1.8
	c0.4,0.6,1.2,0,1.8,0.1c1.8,0.3,3.7,0.5,5.5,0.8c0.5,0.1,1,0.4,1.5,0.7c0.6,0.4,1.1,0.9,1.6,1.4c0,0.2-0.1,0.3-0.1,0.5
	c-0.1,0.3-0.1,0.7-0.2,1c0.3-0.2,0.5-0.4,0.8-0.5c0,0,0.2,0.1,0.3,0.1c0.8,0.2,0.8,0.2,0.7-0.5c0-0.2-0.2-0.5-0.2-0.7
	c0-0.2,0.2-0.3,0.3-0.4c0.1,0.1,0.3,0.2,0.3,0.3c-0.2,1.1,0.4,1.4,1.4,1.7c0.7,0.2,0.9,0,0.9-0.5c0.2-1.2-0.1-2.4-0.9-3.3
	c-0.3-0.4-0.5-0.7-0.2-1.1c1.1-1.2,2.3-2.3,3.4-3.4c0.4-0.4,0.9-0.4,1.2,0.2c0.1,0.3,0.6,0.3,0.9,0.5c0.2-0.3,0.3-0.6,0.4-0.9
	c0.1-0.3,0-0.7,0-1.1c-0.1-0.7-0.6-1-1.2-0.9c-0.4,0-0.9,0.2-1.2,0.4c-0.5,0.2-1.2,0.9-1.6,0.7c-0.5-0.1-0.7-1-1-1.5
	c-0.8-1.2-1.5-1.1-2.2,0.1c-0.7,1.2-0.6,2.4-0.7,3.6c0,0.7-0.2,0.7-0.8,0.4c-1.5-0.9-2.9-1.7-4.4-2.5c-1.4-0.8-2.7-1.7-4.1-2.6
	c-0.3-0.2-0.3-0.5-0.1-0.8c0.8-0.9,1.6-1.9,2.4-2.8c0.1-0.1,0.1-0.4,0-0.5c-0.1-0.1-0.3-0.2-0.5-0.1c-0.7,0.5-1.3,0.9-1.9,1.4
	c-0.8,0.6-1.5,1.2-2.4,1.9c-0.5-0.9-0.9-1.7-1.4-2.4c-0.2-0.3-0.8-0.6-0.9-0.5c-0.9,0.9-1.1-0.1-1.5-0.5c-0.3-0.3-0.6-0.6-0.9-0.9
	c-1.2-1-2.6-1.9-3.5-3.1c-1.6-2-3.7-3.6-4.9-5.9c-0.5-0.9-1.3-1.6-1.5-2.6c-0.3-1.3-0.3-2.7-0.5-4.1c-0.2-1.4-0.2-2.9-0.4-4.3
	c-0.3-1.9-0.5-3.9-1-5.8c-0.8-3-1-6-1.2-9c-0.2-2.6-0.2-5.1,0.2-7.7c0.4-2.5,0.6-5.1,1.6-7.4c0.2-0.4,0.3-0.9,0.3-1.4
	c0.7-3.6,1.4-7.2,2.1-10.7c0.7-3,1.4-6,2.1-9c0.3-1.5,0.5-3.1,0.8-4.6c0.6-2.9,1.2-5.8,1.7-8.7c0.3-1.7,0.5-3.4,0.7-5.1
	c0.3-1.7,0.5-3.4,0.8-5.1c0.2-1.4,0.1-2.9,0.4-4.3c0.5-2.3,0.8-4.6,1.3-6.9c0.8-3.6,1.7-7.2,2.6-10.8c1.1-4.6,3.3-8.8,5.3-13.1
	c1.7-3.6,4.1-6.8,6.9-9.6c1.2-1.2,2.3-2.6,3.5-3.9c1.7-1.9,3.3-3.8,4.9-5.6c0.5-0.5,1-1.1,1.4-1.7c1.6-1.9,2.8-4.1,4.6-5.9
	c1.3-1.3,2.4-2.8,3.6-4.2c1.7-2,3.4-4.1,5.3-6.1c1.8-1.8,3.7-3.5,5.6-5.2c0.7-0.7,1.5-1.3,2.3-1.9c3.8-2.4,7.5-4.8,11.3-7.3
	c0.4-0.3,0.7-0.7,1.1-1.1C131.1,55.3,130.7,56,130.2,56.3z M25.9,232.8c0.1,0.1,0.2,0.2,0.3,0.4c-0.1,0-0.1,0.1-0.2,0.1
	C25.9,233.1,25.9,232.9,25.9,232.8c-0.7-0.3-0.7-0.9-0.7-1.5C25.4,231.7,25.6,232.2,25.9,232.8z M25,230.8c0,0.2,0.1,0.3,0.1,0.5
	c-0.1-0.1-0.2-0.2-0.3-0.3C24.9,230.9,24.9,230.8,25,230.8z M24.6,232.6c0,0.4,0,0.9,0.1,1.3c-0.1,0-0.2,0-0.2-0.1
	c0-0.4,0-0.8,0-1.2H24.6z M23.3,239.5c-1.1,0-2.4-1.6-2.2-2.7c0.1-0.2,0.4-0.5,0.7-0.6c1-0.4,2.1-0.8,3.1-1.2
	c1.4-0.5,2.8-0.9,4.2-1.5c0.8-0.3,1.4-0.9,2.2-1.5c-0.3,3.5-2.1,6-4.4,8.2c-0.4,0.3-0.7,0.5-1.1,0.1C25,239.7,24.2,239.5,23.3,239.5
	z M30.3,247.8c0,0.3,0,0.8-0.2,1c-0.2,0.3-0.6,0.6-0.8,0.6c-0.5-0.1-0.2-0.5-0.1-0.9c0.2-0.9,0.3-1.8,0.5-2.7H30
	C30.1,246.4,30.3,247.1,30.3,247.8z M33.9,244.9c0-0.1-0.1-0.2-0.1-0.3c0.1-0.2,0.2-0.3,0.3-0.5c0,0.2,0,0.3,0,0.5
	C34.1,244.6,34,244.7,33.9,244.9z M65.3,241.5c0.1,0.5,0.2,1,0.3,1.5c0,0.7,0,1.5,0,2.2h-0.3c0-0.8-0.1-1.6,0-2.4
	C65.4,242.4,64.5,241.9,65.3,241.5z M64.3,242.7c0.1,0.3,0.2,0.7,0.2,1c0,0.1,0,0.2-0.1,0.5c-0.2-0.2-0.3-0.2-0.3-0.3
	c-0.1-0.3-0.1-0.7-0.1-1C64,242.8,64.2,242.8,64.3,242.7z M57.6,244c1-1.4,2-2.7,3.2-4.4c0.8,1.5,1.5,2.7,2.2,3.9
	c-1.5,0.7-2.8,1.3-4.1,1.9c0.2,0.1,0.8,0,0.4,0.5c-0.5,0.5-1.2,1-1.9,1.4c0,0.1-0.1,0.1-0.2,0.2c0,0,0-0.1,0-0.1c0,0,0.1,0,0.2-0.1
	c0.1-0.4,0.2-0.7,0.4-1.1c-0.4,0-0.8-0.2-0.7-0.7C57.1,245,57.3,244.5,57.6,244z M56,245.1c0-1.1,0.5-2,1.5-2.6c0,0,0,0,0,0
	C57,243.4,56.5,244.2,56,245.1z M66.3,251.7c0.8,1.7,2,3.2,3,4.9c0.2,0.3,0.4,0.7,0.7,1.3c-1.8-0.4-3.3-0.7-4.4-2
	c-0.2-0.2-0.3-0.4-0.6-0.5c-2.8-0.9-4.4-3.5-7-4.9c-0.2-0.2-0.5-0.4-0.7-0.7c-0.5-0.6-0.5-1,0.1-1.6c1.6-1.4,3.2-2.7,5.4-3.1
	c0.7-0.2,0.9,0,1.1,0.5C64.8,247.7,65.4,249.8,66.3,251.7z M97.3,245.6c0.1,0.1,0.1,0.2,0.2,0.3c-0.1,0-0.2,0.1-0.3,0
	c-0.1,0-0.1-0.2-0.2-0.3C97,245.7,97.2,245.6,97.3,245.6z M92.2,253.4c0,0.2-0.1,0.3-0.2,0.5c-0.2-0.1-0.3-0.2-0.4-0.3
	c-0.1-0.3-0.1-0.7-0.1-1c0.1,0,0.2,0,0.3,0C91.9,252.8,92.1,253.1,92.2,253.4z M94.8,246.4l0.2-0.2c0,0,0,0.1,0,0.1
	C94.9,246.3,94.9,246.3,94.8,246.4c-1,0.9-1.9,1.9-2.9,2.8C92.5,247.9,93.5,247,94.8,246.4z M91.9,248.1v-1.9
	C93.2,246.9,93.2,246.9,91.9,248.1z M91.8,244.3c0,0,0.1-0.1,0.1-0.1c0.3,0.3,0.6,0.7,0.9,1c0.2,0.1,0.2,0.3,0.6,0.8
	c-0.6-0.2-0.8-0.3-0.9-0.4C92.3,245.2,91.6,245,91.8,244.3z M91.8,249.4c-0.2,0.3-0.4,0.6-0.6,0.9C91.2,249.9,91.4,249.6,91.8,249.4
	z M90.9,248H91v1.4h-0.2V248z M79.6,242.6c0.1-0.2,0.3-0.4,0.4-0.5c0,0,0.2,0.1,0.2,0.1c-0.1,0.2-0.2,0.4-0.3,0.6
	c-0.1,0.1-0.2,0.1-0.3,0.2C79.5,242.9,79.5,242.7,79.6,242.6z M79.6,244.4c0.2-0.6,0.5-0.7,1.1-0.3c1.6,1.1,3.3,2.2,5,3.2
	c0.9,0.5,1.9,1,2.7,1.5c0.5,0.3,1,0.9,1.4,1.4c0.4,0.7,0.2,1.2-0.3,1.6c-0.5,0.4-0.9,0-1.2-0.2c-1.1-1.2-2.6-1.3-3.9-1.3
	c-1.5,0-2.9-0.6-4.4-0.9c-0.3-0.1-0.7-0.6-0.7-0.9c-0.1-0.5,0-1.1,0-1.7c-0.1,0-0.1,0-0.2,0C79.2,246.1,79.3,245.2,79.6,244.4z"/>
<path d="M58.5,241.2l-0.2,0.2c-0.1,0.2-0.2,0.3-0.3,0.5c0.1-0.2,0.2-0.3,0.3-0.5C58.3,241.3,58.4,241.3,58.5,241.2z"/>
<path d="M35.5,241.2c-0.1,0-0.1,0.1-0.2,0.2C35.3,241.3,35.4,241.3,35.5,241.2z"/>
<path d="M179.7,61.5c0,0,0-0.1-0.1-0.2c0,0,0,0,0.1,0C179.7,61.4,179.7,61.4,179.7,61.5c0.1,0,0.1,0,0.1,0
	C179.8,61.5,179.7,61.5,179.7,61.5z"/>
<path d="M77.9,242.8c0,0-0.1-0.1-0.1-0.2c0,0-0.1,0.1-0.1,0.1c0,0.1,0.1,0.1,0.2,0.2C77.9,243,77.9,242.9,77.9,242.8z"/>
<path d="M29.1,242c0,0-0.1,0-0.1,0c0,0,0,0.1,0,0.2c0.1,0,0.2,0,0.2,0C29.1,242.1,29.1,242,29.1,242z"/>
<path d="M199.4,42.7c0-0.1,0-0.1,0-0.2c-0.1,0-0.2,0-0.2,0c0,0,0,0.1,0.1,0.2C199.3,42.8,199.4,42.7,199.4,42.7z"/>
<path d="M55.7,248.7c0,0-0.1,0.1-0.1,0.1c0,0.1,0,0.2,0.1,0.3c0,0,0.1-0.1,0.1-0.1C55.8,248.9,55.7,248.8,55.7,248.7z"/>
<path d="M65.2,238.7c0,0-0.1-0.1-0.1-0.1c0,0.1-0.1,0.2-0.1,0.3c0,0,0.1,0.1,0.1,0.1C65.1,238.9,65.1,238.7,65.2,238.7z"/>
<path d="M236.2,41.1c-0.6,0.8-0.6,0.8-1.1,0C235.5,41.1,235.9,41.1,236.2,41.1z"/>
<path d="M66.7,241.7c0.3-0.6,0.7-1,1.5-1.2l0.1,0.1C67.9,241.2,67.5,241.8,66.7,241.7L66.7,241.7z"/>
<path d="M58.9,245.5c-0.2,0.5-0.5,0.8-1.1,0.7C57.9,245.7,58.3,245.5,58.9,245.5z"/>
</svg>
