<?xml version="1.0" encoding="utf-8"?>
<!-- Generator: Adobe Illustrator 18.0.0, SVG Export Plug-In . SVG Version: 6.00 Build 0)  -->
<!DOCTYPE svg PUBLIC "-//W3C//DTD SVG 1.1//EN" "http://www.w3.org/Graphics/SVG/1.1/DTD/svg11.dtd">
<svg version="1.1" id="Layer_1" xmlns="http://www.w3.org/2000/svg" xmlns:xlink="http://www.w3.org/1999/xlink" x="0px" y="0px"
	 viewBox="1.9 2 299.9 30.5" enable-background="new 1.9 2 299.9 30.5" xml:space="preserve">
<g>
	<path d="M297.8,42.1c-0.2-0.2-0.1-0.7-0.1-1h-2.2c-0.3,0.6-0.7,1.2-1.1,1.7c-0.2,0.2-0.6,0.5-0.9,0.5c-1.1-0.2-0.9,0.6-1,1.2
		c0,0,0,0,0,0c-0.1,0-0.2,0-0.2,0c-0.8-1-1.9-1.9-2.1-3.4h-0.7c0,0.2,0,0.3,0,0.4c0.1,1.6,0.1,1.6-1.3,1.1c-0.2-0.1-0.5-0.1-0.7-0.1
		c-1.4,0.2-2.4-0.4-3.2-1.4h-1.5c0.4,0.5,0.7,1,1.1,1.5c-0.9,0-1.9,0.1-2.8,0c-0.9-0.1-1.8-0.2-2.7-0.4c0.2-0.3,0.4-0.7,0.7-1.1
		h-1.5c-0.2,1-0.9,1.7-1.7,2.3c-1.1,0.7-1.9,0.3-2-1c0-0.5,0-0.9,0-1.3h-1.1c0.5,1.6,0.5,1.7-1,2.2c-0.9,0.3-0.9,0.3-1.8-0.1
		c0.8-0.7,1.6-1.4,2.4-2.1h-1.5c-0.6,1.1-1.8,1.5-2.9,1.9c-1,0.3-1.2,0.2-1.6-0.8c-0.2-0.3-0.2-0.7-0.3-1h-0.7v1.3
		c0,0.5-0.3,0.6-0.7,0.6c-0.7,0.5-1.7,0.6-2.4,1.3c-0.7,0.6-1.5,0.2-1.7-0.8c-0.5-2-0.4-2.1,1.6-2c0.6,0,1.1,0.1,1.4,0.7
		c0.2,0.5,0.6,0.8,1.2,0.8c0-0.2,0.1-0.6,0-0.7c-0.3-0.4-0.7-0.7-1.1-1.1h-4.9c0.3,0.7,0.8,1.4,1,2.2c0.2,0.7,0.1,1.2-0.8,1.2
		c-2.2,0.1-3.6-0.2-4.3-3.4h-1.1c0.3,0.7,0.7,1.4,1,2c-1.2-0.2-2.2-0.5-3.4-0.5c-0.8,0-1.6,0.2-2.4,0.4c-1.4,0.4-1.3,0.5-1,2.1
		c-0.7-0.2-1.2-0.4-1.8-0.5c-0.7-0.2-1-0.4-0.9-1.3c0.1-0.4,0-0.6,0.5-0.6c0.6,0,1.2,0,1.9,0c0.4,0,0.8,0,1.1-0.1
		c0.8-0.2,0.9-0.4,0.7-1.5h-1.1c-0.1,0.2-0.2,0.6-0.3,0.6c-1.2,0-2.5,0-3.8-0.1c-0.2,0-0.3-0.3-0.5-0.5h-1.5c0.7,0.6,1.5,1.2,2.4,2
		c-1.7-0.2-2.6-1.1-3.5-2h-1.9c1,0.7,1.9,1.3,2.9,2c0.2,0.1,0.3,0.4,0.3,0.6c-0.1,0.2-0.4,0.4-0.6,0.4c-1.7-0.1-3.3-0.2-4.9-0.4
		c-0.4-0.1-0.9-0.7-1.2-1.1c-0.3-0.4-0.6-0.9-0.9-1.4h-2.2c1.5,0.7,1.5,0.7,3.4,3c-1.9-0.7-3.6-1.2-5.4-1.8c0.4-0.3,0.8-0.7,1.3-1.2
		h-1.9c-0.2,0.4-0.5,0.4-0.7,0h-1.9c0.3,0.2,0.5,0.4,0.6,0.4c1.1,0.7,1.1,0.7,1,2.4c-1.2-0.9-2.5-1.6-3.2-2.9h-1.1
		c0,0.6,0.3,0.9,0.7,1.2c0.3,0.2,0.6,0.5,0.7,0.8c0.1,0.2-0.1,0.6-0.1,0.9c-0.2-0.1-0.5-0.2-0.7-0.4c-0.9-0.6-1.3-1.4-1.4-2.4h-0.7
		c0,0.4,0,0.9,0,1.3c0,0.3-0.2,0.7-0.3,1.1c-0.5-0.4-1.2,0.5-1.7-0.2c-0.8-0.8-1.6-1.5-2.4-2.3h-1.9c-0.2,1-0.3,1.9-0.5,3.2
		c-1.4-1.2-2.6-2.2-3.7-3.2H211c0.7,1.1,0.7,1.1,0.2,3.2c-0.4-0.3-0.9-0.7-1.3-1c-0.4-0.2-0.6-0.5-0.5-1c0.1-0.4-0.4-0.8-0.6-1.2
		h-1.1c0.1,0.2,0.1,0.3,0.2,0.5c-0.2,0-0.3,0.1-0.4,0.1c-0.3-0.2-0.6-0.4-0.9-0.6h-2.2c-0.3,0.6-0.5,1.1-1.4,1
		c-0.8-0.1-1.6,0.1-2.6,0.2c0.3-0.5,0.5-0.9,0.7-1.2h-1.1c-0.2,0.3-0.3,0.3-0.4,0h-4.9c-0.8,0.3-1.5,0.7-2.4,0.9
		c-0.7,0.2-1-0.3-1-0.9h-1.1c0.2,0.4,0.4,0.9,0.6,1.3c0,0.1,0,0.4-0.1,0.4c-0.1,0.1-0.4,0-0.5-0.1c-0.4-0.5-0.7-1.1-1.1-1.6h-3.4
		c-0.5,0.8-1.2,1.4-2,1.7c-1,0.4-1.5,0-1.3-1.2c0-0.2,0-0.3,0-0.5h-0.7c-0.2,0.3-0.3,0.3-0.4,0h-0.4c-0.1,1-0.2,2.1-0.3,3.1
		c0,0.2-0.3,0.3-0.5,0.4c-0.1-0.2-0.3-0.3-0.3-0.4c0.1-1,0.2-2,0.3-3.1h-2.6c-0.1,0.3-0.3,0.6-0.4,0.9c-0.2-0.3-0.5-0.6-0.7-0.9
		h-0.7c0.2,0.3,0.5,0.7,0.7,1.1c0.5,1,0.3,2.5-0.4,3.3c-0.7,0.8-1.5,0.6-1.9-0.4c-0.4-0.9-0.9-1.6-1.2-2.5c-0.2-0.5-0.4-1-0.6-1.5
		h-2.2c-0.9,1.7-2.6,1.9-4.5,2.2c0.3-0.8,0.5-1.5,0.8-2.2H165c0,0.2,0,0.4,0,0.5c-0.1,0.4-0.1,1-0.7,0.7c-0.5-0.2-0.3-0.7-0.1-1
		c0,0,0-0.1,0-0.2h-0.7c-1,1.4-2.2,2.4-3.9,2.8c-0.5-1.1,0.2-1.9,0.6-2.8H159c-0.2,0.6-0.3,1.1-0.4,1.7c-0.1,0-0.2,0-0.3,0v-1.6
		h-0.7c-0.4,0.5-0.7,0.5-1.1,0h-1.9c0.6,0.4,1.1,0.8,1.5,1.2c0.4,0.2,1,0.3,1.2,0.6c0.4,0.5,0.6,1.2,0.7,1.9c0,0.2-0.6,0.7-0.9,0.6
		c-0.5,0-0.9-0.4-1.5-0.7c0.2-0.3,0.4-0.5,0.5-0.7c0.2-0.3,0.4-0.7,0.3-0.9c-0.1-0.5-0.6-0.2-0.9-0.2c-0.5,0.1-1.1,0.1-1.7,0.1h-1.3
		c0.6-0.7,1-1.3,1.5-1.9h-1.1c-0.3,0.5-0.5,1-0.8,1.4c-0.1,0.1-0.3,0.2-0.5,0.2c-0.9-0.2-1-0.3-0.5-1.1c0.1-0.2,0.2-0.3,0.3-0.5
		h-1.1c-0.7,1.2-1.9,1.7-3.2,1.9c-0.9,0.1-1.8,0.3-2.7,0.3c-0.2,0-0.4-0.1-0.7-0.2c0.1-0.2,0.1-0.5,0.2-0.7c0.6-0.5,1.3-0.9,1.9-1.4
		H144c-0.2,0.3-0.6,0.5-0.7,0.8c-0.8,1.7-2.4,1.9-4,2.1c-0.1,0-0.5-0.4-0.4-0.5c0.3-0.8,0.7-1.5,1-2.3h-1.1
		c-0.3,0.5-0.5,1.1-0.7,1.7h-0.3c0-0.5-0.1-1.1-0.1-1.7H135c0,1.5-0.9,2.4-2.2,3.4c0-1.3,0-2.3-0.1-3.4H132c0,0.2-0.1,0.3-0.1,0.5
		c-0.1-0.2-0.2-0.3-0.3-0.5H129c-1.1,1.3-2.7,1.4-4.4,1.7c0.3-0.5,0.7-1.1,1-1.7h-1.1c0,0,0,0.1-0.1,0.2c-0.3,0.4-0.6,1.1-0.8,1.1
		c-0.6,0-1-0.6-1-1.2h-1.1c-0.1,1.1-0.8,1.8-1.5,2.5c-0.6,0.5-1.2,1.1-1.9,1.8c0.2-1.5,0.3-2.9,0.4-4.3h-1.1
		c-0.2,1.2,0.3,2.5-0.6,3.6c-1-0.9-1.5-2-2.2-3.1c0-0.1,0.1-0.3,0.2-0.5h-1.1c-0.1,0.1-0.2,0.2-0.3,0.3v-0.4h-1.1
		c-0.2,0.3-0.4,0.7-0.7,0.9c-1.4,0.8-2.8,1.6-4.2,2.3c-0.2,0.1-0.7,0.2-0.9,0c-0.2-0.2-0.3-0.6-0.2-0.9c0.3-0.8,0.7-1.6,1-2.4h-1.1
		c-1.1,0.5-2.2,1-3.3,1.4c-0.3,0.1-0.8,0.1-1-0.1c-0.4-0.3-0.5-0.8-0.2-1.3H99c-0.3,0.5-0.6,1-0.9,1.4c-0.4,0.6-0.8,0.5-1-0.1
		c-0.2-0.4-0.2-0.8-0.3-1.2h-1.9c0.8,0.8,1.3,1.7,1.9,2.6c0.5,0.7,1,1.4,1.5,2c-0.8,0.2-2.7,0.3-3.5,0.1c-0.3-0.1-0.7-0.3-0.7-0.5
		c0.1-0.9,0.3-1.7-0.9-2c-0.2-0.8-0.3-1.5-0.5-2.3h-1.5c0.2,0.5,0.4,1,0.6,1.5c0.3,0.9,0,1.2-0.9,1c-1-0.2-1.9-0.5-3-0.8
		c0.4-0.6,0.7-1.2,1-1.7h-1.1c-0.9,2.4-3.2,2.7-5.3,3.4c0-2,1.2-2.8,2.7-3.4h-2.6c-0.3,0.8-0.5,1.5-0.8,2.3
		c-0.2,0.4-0.3,0.6-0.9,0.5c-0.7-0.2-1.4-0.2-2-0.2c-0.8,0-1.2-0.6-1.7-1.1c-0.5-0.5-0.1-1,0.1-1.5h-1.1v3.6c0,0.5,0,0.9-0.1,1.3
		c-0.1,0.5-0.3,1-0.5,1.4c-0.9,1.7-1.4,3.8-3.2,4.8c0.5-1.7,0.9-3.6,1.4-5.3c0.4-1.2,0.6-2.4,1.8-3.2c0.1,0,0.2-0.4,0.1-0.5
		c-0.2-0.2-0.4-0.3-0.6-0.3c-1.6,0.2-3.2,0.2-4.5,1.3c-0.1,0.4-0.4,0.9-0.3,1.2c0.5,1.1-0.4,1.4-1,1.8c-0.2,0.1-0.5,0.1-0.8,0.1
		c0-0.3-0.2-0.7,0-0.9c0.7-0.8,1.4-1.5,2.1-2.2c0.2-1,0.3-2,0.4-3h-0.7c0,1.6-0.5,2.9-1.8,3.8c-0.2,0.1-0.6,0.2-0.6,0.1
		c-0.6-1-1.2-2-1.6-3.1c-0.1-0.2,0.2-0.6,0.3-0.9h-1.1c-0.1,1.4,0.1,2.6,1.1,3.7c0.7,0.8,1.2,2,1.4,3.2s-0.5,2.1-1.4,2.9
		c-1.2,1-1.2,1-0.7,2.4c0.5,1.4,1.1,2.7,1.6,4c0.3,0.9,0,1.6-0.5,2.2c-0.1,0.1-0.5,0-0.6,0c-0.8-1.7-1.5-3.4-2.2-5.1
		c0-0.2-0.1-0.4,0-0.5c0.2-0.5,0.6-1,0-1.5c0.3-0.5,0.7-1,1-1.4c0.4-0.5,0.9-0.2,1.3,0c-0.2-0.5-0.2-1-0.4-1.4
		c-0.2-0.4-0.7-0.7-1-1.1c-0.9-1.2-1.6-2.4-0.7-3.9c0.7-1.1,0.2-2.3-0.1-3.4h-1.1c0.1,0.4,0.3,1.2,0.2,1.3c-0.5,0.4-1.4,0.9-1.9,0.8
		c-1.2-0.2-2.3-0.8-2.7-2.1H57c-0.4,0.5-0.8,0.9-1.4,1.6c-0.1-0.7-0.1-1.2-0.2-1.6H54c1.3,1.8,0,3.2-0.9,4.9c-0.6-1.1-1-2-1.5-3
		c-0.3-0.7-0.2-1.3,0.2-1.9h-1.5c0.7,1.9,1.3,3.8,2,5.8c-1.5-0.8-2.2-1.9-2.7-3.2c-0.1-0.2-0.2-0.3-0.3-0.5c-0.8-1-0.8-1-0.1-2.1H48
		c-1,1.1-2.4,1.5-3.8,1.7c-1.5,0.2-2.5,0.9-3.5,1.9c-0.6,0.6-0.6,0.6-1.7,0.7c0.4-0.4,0.6-0.8,0.9-1c1.1-0.5,0.6-1,0.2-1.5L40,42.8
		c0,0,0.1,0,0.1,0c0,0,0,0.1,0.1,0.2c1.7,0.2,3.1-0.2,3.8-1.9h-2.2c0,0.3,0.1,0.7,0.2,1c-0.3,0-0.7,0-1-0.2
		c-0.3-0.2-0.5-0.5-0.7-0.8H39c0,0.6,0,1.2,0,1.9c0,0.7-0.5,0.9-1,0.7c-0.6-0.2-1.2-0.4-1.7-0.7c-1-0.5-1-0.7-0.3-1.8h-6
		c0,0.1,0.2,0.3,0.1,0.3c-0.5,1.1-1.1,2.2-2,3.1v-3.4h-1.5c0.2,0.1,0.3,0.3,0.4,0.4c0.6,0.5,0.5,1.3,0.2,1.9c-0.1,0.3-1,0.4-1.5,0.3
		c-0.9-0.1-1.6-0.5-2-1.4c-0.2-0.4-0.5-0.8-0.8-1.2h-2.6c0.3,0.3,0.6,0.6,0.9,1c0.8,1.1,0.5,2.4-0.7,3.1c-0.5,0.3-1,0.5-1.5,0.7
		c-0.3,0.1-0.8,0.3-1,0.2c-0.4-0.2-0.4-0.8-0.1-1.1c0.9-0.9,0.9-2.2,1.3-3.2c0.1-0.2,0-0.3,0-0.5h-1.1c0,2-0.3,2.2-2.6,2.6
		c0.5-0.8,1.5-1.5,1.5-2.6h-0.7c-0.7,1.4-1.6,2.5-3.1,3c-0.5,0.2-1,0.3-1.6,0.3c-0.3,0-0.5-0.2-0.8-0.3c0.1-0.2,0.2-0.5,0.3-0.7
		c0.7-1.1,1.7-1.8,2.9-2c0.3-0.1,0.5-0.3,0.8-0.4H12c-0.4,0.2-0.7,0.5-1.1,0.7c-0.2-0.2-0.3-0.5-0.4-0.7H9.7
		c-0.3,0.5-0.4,1.2-0.8,1.6c-0.4,0.3-0.8,1-1.5,0.7C6.6,43.1,6,42.7,6,41.7c0-0.2,0-0.3,0-0.5H5.3c0,0.4,0,0.7-0.1,1.1
		c0,0.3-0.3,0.7-0.4,0.7c-0.3,0-0.7-0.2-0.9-0.4c-0.3-0.4-0.3-0.9-0.5-1.4H2.2c-0.2,0.3-0.3,0.3-0.4,0H1.1c0.1,0.3,0.3,0.8,0.2,1
		C1,42.7,0.4,43.2,0,43.7c0,0.6,0,1.2,0,1.9c1.2-0.5,2.4-0.9,3.9-1.5c-1,1.9-2.4,2.7-3.9,3.4v0.7c1.1-0.1,1.3,0,1,0.8
		c-0.2,0.6-0.2,1.5-1,1.8V52c0.9-0.4,1.2-1.2,1.5-2c0.2-0.7,0.4-1.4,0.7-2.1C2.4,47.4,2.7,47,3,46.6c0.1-0.1,0.5-0.2,0.6-0.4
		c1.1,0.6,2.2,1.2,3.2,1.8c0.2,0.1,0.4,0.4,0.3,0.5C7.1,48.8,6.9,49,6.6,49c-0.9,0.2-1.7-0.2-2.4-0.7c-0.3-0.2-1.1-0.4-1.3-0.2
		c-0.3,0.2-0.3,0.9-0.3,1.4c0.1,0.4,0.3,0.8,0.6,1.2c0.9,1.2,2.9,1.7,4.4,1.2c0.3-0.1,0.6-0.2,0.9-0.2c-1,1.4-2,2.7-3.6,3.3
		c-0.3,0.1-0.4,0.5-0.7,0.8c0.3,0.2,0.6,0.3,0.9,0.5c0.2,0.1,0.5,0,0.7,0C6.9,56.1,8,56,9,55.8c1.3-0.2,2-1.1,2.8-2
		c0.1-0.1,0-0.3,0-0.3c-0.1-0.1-0.3-0.2-0.5-0.1c-0.2,0.1-0.4,0.3-0.6,0.5C9.7,55,8.4,55.2,7,55c0.8-1.1,1.7-2.2,2.5-3.3
		c0.6-0.7,1.2-1.5,1.8-2.1c0.2-0.2,0.7-0.3,1-0.4c0,1.4-0.2,2.7,0,3.8c0.3,1.5,0.3,3.1,0.3,4.6c0,0.4,0,0.7,0,1.1
		c0.1,0.8,0.5,1,1.3,0.8c1.9-0.7,3.2-2.6,3.3-4.8c0-0.4,0.1-0.8,0-1.1c-0.2-1.2-0.2-2.3,1.4-2.5c0.2,0,0.4-0.3,0.6-0.5
		c0.2-0.1,0.5-0.2,0.6-0.2c1.5,1,3,0.4,4.5,0.1c0.2-0.1,0.3-0.3,0.4-0.4c0.2-0.1,0.3-0.3,0.4-0.4c0.1-0.2,0.3-0.3,0.4-0.4l0.4-0.4
		c0.2-0.8,0.5-1.5-0.7-1.9c0.7-0.6,1.3-1.1,1.9-1.7c0.4,0.5,0.8,0.9,1.2,1.4c-0.8,0.7-1.6,1.5-2.4,2.2c-0.2,0.2-0.3,0.3-0.4,0.4
		c-0.2,0.1-0.3,0.3-0.4,0.4c-0.2,0.2-0.3,0.3-0.4,0.4c-0.1,0.2-0.3,0.3-0.4,0.4c-0.6,1.2-1.8,1.5-2.9,1.9c-0.2,0.1-0.5,0.3-0.7,0.4
		c0.2,0.2,0.3,0.6,0.5,0.7c0.8,0.4,1.5,0.8,2.5,0.5c0.5-0.2,1-0.1,1.5-0.1c0.4,0,0.9,0,1.4,0c-0.2,0.5-0.3,1-0.6,1.5
		c-0.2,0.3-0.5,0.5-0.8,0.8c-0.2,0.3-0.5,0.7-0.7,1c0.3,0.2,0.7,0.3,1.1,0.4c0.4,0.1,0.9,0.1,1.2,0c0.7-0.2,1.4-0.5,2.1-0.7
		c0.2,0,0.5,0.1,0.6,0.2c0.4,1.1,0,2.3-1,2.9c-0.6,0.4-1.2,0.7-1.7,1.1c-0.2,0.2-0.4,0.4-0.6,0.7c0.3,0.2,0.5,0.5,0.9,0.6
		c1.7,0.7,3.4,0.1,5-0.5c0.2-0.1,0.4,0,0.7-0.1c0,0.2,0,0.5-0.1,0.7c-0.4,0.9-1.2,1.4-1.9,2c-0.4,0.3-0.5,0.8,0.1,1
		c0.8,0.2,1.6,0.5,2.4,0.3c1.5-0.4,2.4,0.3,2.9,1.5c0.3,0.7,0.5,1.4,0.6,2.1c0.1,0.5,0,1,0,1.5c0,0.1,0.2,0.3,0.3,0.4
		c0.1,0,0.4,0,0.5-0.2c1.1-1.7,2.4-3.3,2.2-5.6c-0.1-0.7,0.1-1.4-0.5-1.9C39,63.5,39,63,39.4,62.9c0.5-0.2,0.5,0.3,0.7,0.7
		c0.4,1.3,0.7,2.6,1.2,3.9c0.1,0.5,0.3,0.9,0.7,1.3c0.5,0.6,1.1,1.3,2,1c0.9-0.3,0.6-1.2,0.7-2v-1.9c0-0.6,0-1.3,0.1-1.9
		c1.1,1,2,1.9,3.1,2.8c0.2-0.4,0.5-0.8,0.5-1.2c0-1.4-0.1-2.7-0.1-4.1c0-0.5-0.1-1.1,0-1.6c0.1-0.5,1-1,0.4-1.4
		c-0.7-0.5-0.7,0.9-1.3,0.9L47,59.4c0,0,0-0.1,0-0.1c0,0,0.1,0,0.2-0.1c0.2-0.4,0.2-1.1,0.5-1.3c1.2-0.7,2.6-1.2,3.8-1.9
		c0,0.1,0.1,0.2,0.1,0.3c0,0.2,0,0.3,0,0.5c0.1,0.8,0.4,0.9,0.9,0.4c0.5-0.6,1.2-1.2,1.5-1.9c0.3-0.8,0.6-1.8-0.4-2.6
		c-0.3,1.1,0.1,2.4-1.1,3.2c-0.4-1.2-0.7-2.3-1.1-3.4c1.1-0.4,2.2-0.7,3.2-1.1c0.9-0.4,1.1-0.4,1.1,0.5c0,1-0.1,2.1-0.2,3.1
		c0,0.2,0,0.4,0.1,0.5c0.2,0.1,0.5,0.1,0.7,0c0.3-0.1,0.5-0.3,0.7-0.6c0.6-0.7,1.1-1.4,1.7-2.2c0.7,1.1,1.3,2.1,1.9,3.1
		c0.3,0.6,0.9,0.7,1.3,0.2s0.7-1.2,1-1.8c0.8,1.3,0.8,1.3,0.5,2.2c-0.6,1.9-1.8,3.5-2.9,5.1c-0.5,0.6-0.4,1.1,0.3,1.4
		c0.3,0.1,0.6,0.1,0.9,0.2c1.1,0.2,2-0.3,3-1c0,0.4,0,0.6,0.1,0.9c0.3,0.7,0.3,1.3-0.2,1.9c-0.5,0.6-1,1.2-2,1.2
		c-0.8,0-1.1,0.4-0.9,1.2c0.3,1.1,0.7,2.2,1.7,2.9c0.6,0.4,1.6,0.9,2.2,0.7c1.7-0.5,3.2-1.5,3.6-3.4c0.2-0.7,0.3-1.2,0.9-1.5
		c1.5-1,2-2.6,2.5-4.3c0.3-1.1,0.7-2,1.7-2.5c1.5-0.9,2.3-2.4,3.2-3.8c0.4-0.6,0.8-1.2,1.2-1.8c0.4-0.5,0.8-0.4,1,0.2
		c0.2,0.4,0.2,0.9,0.2,1.4c0,0.5-0.1,1.1,0,1.7c0,0.1,0.4,0.3,0.5,0.2c1-1,2-1.9,3.1-2.9c0.1,0.3,0.3,0.6,0.4,0.9
		c0.4,0.8,0.7,0.9,1.4,0.3c0.4-0.3,0.7-0.7,1.1-1c0.4,1-0.3,1.7-0.4,2.6c-0.1,1.2-0.7,1.9-1.5,2.6c-0.8,0.7-1.6,1.2-2.3,1.9
		c-2.3,2.5-4.5,5-6.8,7.5c-0.9,0.9-1.5,2-2.5,2.7c-2,1.5-3.1,3.5-4,5.7c-0.5,1.2-1,2.3-1.9,3.2c-1.4,1.5-2.5,3.3-3.4,5.1
		c-0.7,1.4-1.3,2.6-2.4,3.8c-1,1-1.6,2.4-2.3,3.6c-0.9,1.5-1.7,3.1-2.5,4.6c-0.9,1.7-1.8,3.3-2.4,5c-0.8,2.1-1.5,4.2-2.6,6.2
		c-0.4,0.8-0.8,1.6-0.9,2.4c-0.2,1.4-0.7,2.6-1.3,3.9c-0.4,1-0.8,2.1-1,3.2c-0.3,1.6-0.5,3.3-0.9,4.9c-0.8,4-1.9,7.9-2.7,11.9
		c-1.1,5.3-2.6,10.6-3.9,15.9c-0.9,3.3-1.7,6.7-2.6,10.1c-1.1,4.1-2.2,8.2-3.3,12.2c-1.2,4.3-1.5,8.8-2.1,13.2
		c-0.2,1.8-0.5,3.6-0.7,5.3c-0.2,1-0.3,2.1-0.4,3.1c-0.1,3.8-0.1,7.5-0.3,11.2c-0.3,5-0.1,10-0.1,15c0,0.4,0,0.7,0,1.1
		c0.1,1.5,0.3,3.1,0.3,4.6c0,1.9-0.5,3.7-2.3,4.8c-0.7,0.5-1.6,0.7-2.4,0.8c-0.3,0-0.6-1-0.9-1.5c-0.1-0.2-0.2-0.4-0.3-0.7
		c-0.8-0.9-0.2-1.5,0.4-2.2c0.1-0.1,0.1-0.1,0.2-0.2c0,0,0,0.1,0,0.1s-0.1,0-0.2,0.1c-0.1,0.7-0.2,1.5-0.3,2.2
		c0.4,0,0.7-0.2,0.8-0.6c0.2-0.9,0.5-1.8,0.7-2.7c0.1-0.5,0.3-1,0.4-1.4c0-0.1-0.1-0.3-0.2-0.3c-0.2,0-0.4,0-0.5,0
		c-0.6,0.9-1.2,1.9-1.7,2.9c-0.3,0.5-0.5,0.7-1,0.2c-0.3-0.4-0.6-0.8-1-1.1c-0.1-0.1-0.3-0.1-0.5,0c0,0-0.1,0.2-0.1,0.3
		c0.2,0.3,0.3,0.7,0.5,1c0.5,1,0.9,2,0.6,3.3c-0.5,2.3-0.4,2.3-2.8,2.8c-0.3-1.5-0.7-3.1-1-4.7c-0.1-0.5-0.2-1-0.5-1.4
		c-0.1-0.2-0.5-0.3-0.7-0.4c-0.1,0.2-0.3,0.5-0.2,0.7c0.2,1.6,0.4,3.2,0.7,4.8c0.2,1,0,1.2-1,1.6c-0.2,0.1-0.5,0.2-0.7,0.3
		c-2.9,0.5-5.6,1.5-8.1,3.1c-0.7,0.4-1.6,0.6-1.6,1.6c0,0.6,1,0.7,2.5,0.5c0.9-0.2,1.9-0.2,2.8-0.1c1.2,0,2.4,0.4,3.5,0.2
		c1-0.1,2.2,0.1,2.8-1.1c-0.9,0.1-1.7,0.2-2.6,0.3c-1,0-2,0.2-3,0c-1.5-0.4-2.9-0.3-4.8,0.1c1.6-1.4,3.1-2,4.6-2.6
		c1.5-0.5,3.1-0.9,4.6-1.3c0.8-0.2,1-0.1,1,0.8c0,1,0,1.9,0,2.8c1,0.4,1,0.4,1-0.4c-0.1-0.9-0.2-1.8-0.2-2.7
		c0.4,0.7,0.6,1.4,0.8,2.1c0.2,0.7,0.7,1.1,1.5,1.1c0.8,0,1.6,0.2,2.3,0.4c0.7,0.2,0.7,0.7,0.2,1.2c-1,1-1.9,2.2-3.1,3
		c-3,2-4.7,5.2-6.8,8c-0.1,0.2-0.3,0.4-0.3,0.7c0,0.3-0.1,0.8,0,1c0.2,0.2,0.7,0.3,1,0.2c0.9-0.2,1.7-0.5,2.5-0.9
		c2.2-0.9,4.5-1.7,6.8-2.6c1.5-0.5,1.5-0.5,1.2,1c0,0.3,0.2,0.6,0.3,0.9c0.4-0.9,0.5-1.7,0.7-2.6c0.5-2.4,0.9-4.9,1.9-7.2
		c0.2-0.4,0.5-0.7,0.7-1c0.2-0.2,0.3-0.5,0.4-0.7c0.2-0.1,0.3-0.3,0.4-0.4c0.2-0.2,0.3-0.5,0.4-0.7c0.2-0.1,0.3-0.3,0.4-0.4l0.2-0.2
		c0,0.1-0.1,0.1-0.2,0.2c-0.1,0.2-0.3,0.3-0.4,0.4c-0.2,0.2-0.3,0.5-0.4,0.7c-0.1,0.2-0.3,0.3-0.4,0.4c-0.2,0.2-0.3,0.5-0.4,0.7
		c-0.8,2.4-1.4,4.9-1.8,7.3c-0.2,1.1-0.2,2.2,0,3.4c0.8-0.4,0.6-1,0.6-1.6c0.1-1.5,0.1-1.5,1.4-1.8c0.1,0,0.2,0,0.4,0.1
		c0,0.7,0,1.4,0,2.2c0,0.2,0.2,0.5,0.4,0.7c0.1-0.3,0.3-0.5,0.3-0.8c0-0.3,0-0.6,0-0.9c-0.2-1.8-0.5-3.5-0.7-5.3
		c-0.1-0.2-0.3-0.5-0.4-0.7c-0.1-0.1-0.2-0.3-0.3-0.4c0.1,0,0.1-0.1,0.2-0.1c0,0.2,0.1,0.3,0.1,0.5c0.2,0.3,0.3,0.5,0.4,0.8
		c0.2,0.7,0.6,1.4,0.7,2c0.3,1.5,0.4,3,0.6,4.6c0.2-0.3,0.4-0.5,0.4-0.8c0.4-2,0.7-4,1.1-6c0.1,0.9,0,1.8,0,2.7c0,1-0.1,1.9-0.2,2.9
		c0,0.2,0.2,0.3,0.3,0.4c0.2-0.2,0.3-0.3,0.4-0.5c0.1-0.2,0-0.3,0-0.5c0.1-1.6,0.5-2.1,1.9-2.6c1.1-0.3,2.3-0.7,3.3-1.2
		c1.7-0.9,3.6-0.9,5.2-0.6c2.7,0.5,5.5,0.8,8,2.1c0.5,0.2,0.9,0.5,1.4,0.9c0.2-0.5,0.5-1.2,0.8-1.8c0.3-0.7,0.7-1.3,1.1-2
		c-0.6,1.7-1.2,3.4-1.9,5.1c-0.2,0.5,0,0.4,0.3,1.1c0.4,1,0.5,0.5,0.8,0c0.1-0.2,0.2-0.3,0.3-0.5c0.9,0.7,0.8,0,0.8-0.5v-3.6h0.3
		v4.4c0.1,0,0.2,0,0.2,0c0.1-0.3,0.2-0.5,0.3-0.8c0.5,0.3,1,0.7,1.5,1c2.1,1.5,3.9,3.4,6.4,4.4c0.3,0.2,0.6,0.6,0.9,0.9
		c0.5,0.3,0.9,0.7,1.4,0.9c0.8,0.3,1.6,0.4,2.3,0.7c0.6,0.2,1,0,1.3-0.4c0.2-0.2,0-0.7-0.1-1c-0.8-1.2-1.7-2.4-2.5-3.7
		c-1.5-2.2-2.4-4.5-2.4-7.3c2.5,0.3,4.7,1.1,6.8,2.1c0.9,0.4,1.6,0.9,1.8,2c0,0.2,0.3,0.3,0.4,0.5c0.1-0.2,0.2-0.5,0.2-0.8
		c0-0.2,0-0.5,0-0.8c1,0.5,0.7-0.8,1.2-0.9c0.3-1.7,1-3.2,2.2-4.5c-0.7,1.5-1.5,3-2.2,4.5v2.4c0.1,0,0.2,0,0.2,0
		c0.2-0.9,0.5-1.7,0.7-2.6c1,1,0.2,2.3,0.9,3.4c0.1-0.7,0.1-1.4,0.1-2v-2c0.3,0.4,0.3,0.8,0.3,1.1c0,0.6-0.2,1.4,0.1,1.8
		c0.4,0.6,1.2,0,1.8,0.1c1.8,0.3,3.7,0.5,5.5,0.8c0.5,0.1,1,0.4,1.5,0.7c0.6,0.4,1.1,0.9,1.6,1.4c0,0.2-0.1,0.3-0.1,0.5
		c-0.1,0.3-0.1,0.7-0.2,1c0.3-0.2,0.5-0.4,0.8-0.5c0,0,0.2,0.1,0.3,0.1c0.8,0.2,0.8,0.2,0.7-0.5c0-0.2-0.2-0.5-0.2-0.7
		c0-0.2,0.2-0.3,0.3-0.4c0.1,0.1,0.3,0.2,0.3,0.3c-0.2,1.1,0.4,1.4,1.4,1.7c0.7,0.2,0.9,0,0.9-0.5c0.2-1.2-0.1-2.4-0.9-3.3
		c-0.3-0.4-0.5-0.7-0.2-1.1c1.1-1.2,2.3-2.3,3.4-3.4c0.4-0.4,0.9-0.4,1.2,0.2c0.1,0.3,0.6,0.3,0.9,0.5c0.2-0.3,0.3-0.6,0.4-0.9
		c0.1-0.3,0-0.7,0-1.1c-0.1-0.7-0.6-1-1.2-0.9c-0.4,0-0.9,0.2-1.2,0.4c-0.5,0.2-1.2,0.9-1.6,0.7c-0.5-0.1-0.7-1-1-1.5
		c-0.8-1.2-1.5-1.1-2.2,0.1c-0.7,1.2-0.6,2.4-0.7,3.6c0,0.7-0.2,0.7-0.8,0.4c-1.5-0.9-2.9-1.7-4.4-2.5c-1.4-0.8-2.7-1.7-4.1-2.6
		c-0.3-0.2-0.3-0.5-0.1-0.8c0.8-0.9,1.6-1.9,2.4-2.8c0.1-0.1,0.1-0.4,0-0.5c-0.1-0.1-0.3-0.2-0.5-0.1c-0.7,0.5-1.3,0.9-1.9,1.4
		c-0.8,0.6-1.5,1.2-2.4,1.9c-0.5-0.9-0.9-1.7-1.4-2.4c-0.2-0.3-0.8-0.6-0.9-0.5c-0.9,0.9-1.1-0.1-1.5-0.5c-0.3-0.3-0.6-0.6-0.9-0.9
		c-1.2-1-2.6-1.9-3.5-3.1c-1.6-2-3.7-3.6-4.9-5.9c-0.5-0.9-1.3-1.6-1.5-2.6c-0.3-1.3-0.3-2.7-0.5-4.1c-0.2-1.4-0.2-2.9-0.4-4.3
		c-0.3-1.9-0.5-3.9-1-5.8c-0.8-3-1-6-1.2-9c-0.2-2.6-0.2-5.1,0.2-7.7c0.4-2.5,0.6-5.1,1.6-7.4c0.2-0.4,0.3-0.9,0.3-1.4
		c0.7-3.6,1.4-7.2,2.1-10.7c0.7-3,1.4-6,2.1-9c0.3-1.5,0.5-3.1,0.8-4.6c0.6-2.9,1.2-5.8,1.7-8.7c0.3-1.7,0.5-3.4,0.7-5.1
		c0.3-1.7,0.5-3.4,0.8-5.1c0.2-1.4,0.1-2.9,0.4-4.3c0.5-2.3,0.8-4.6,1.3-6.9c0.8-3.6,1.7-7.2,2.6-10.8c1.1-4.6,3.3-8.8,5.3-13.1
		c1.7-3.6,4.1-6.8,6.9-9.6c1.2-1.2,2.3-2.6,3.5-3.9c1.7-1.9,3.3-3.8,4.9-5.6c0.5-0.5,1-1.1,1.4-1.7c1.6-1.9,2.8-4.1,4.6-5.9
		c1.3-1.3,2.4-2.8,3.6-4.2c1.7-2,3.4-4.1,5.3-6.1c1.8-1.8,3.7-3.5,5.6-5.2c0.7-0.7,1.5-1.3,2.3-1.9c3.8-2.4,7.5-4.8,11.3-7.3
		c0.4-0.3,0.7-0.7,1.1-1.1c-0.7-0.6-1.1,0-1.6,0.3c-3.6,2.4-7.2,4.7-10.8,7c-1.5,0.9-2.9,2-4.1,3.3c-0.8,0.8-1.6,1.5-2.4,2.3
		c-1.5,1.4-3,2.9-4.3,4.4c-1.5,1.7-2.9,3.4-4.3,5.1c-1.9,2.2-4,4.3-5.6,6.8c-0.3,0.5-0.6,0.9-1,1.4c-1.2,1.4-2.5,2.8-3.8,4.2
		c-2.4,2.7-4.8,5.6-7.3,8.3c-1.4,1.4-2.5,3.1-3.7,4.6c-0.8,1-1.4,2.2-2,3.4c-1.1,2.2-2,4.4-3.1,6.6c-1.9,3.9-2.9,8.1-4.1,12.2
		c-0.7,2.4-1.1,4.8-1.5,7.3c-0.5,2.9-1.3,5.7-1.2,8.7c0,1.2-0.2,2.4-0.4,3.5c-0.6,3.4-1.2,6.7-1.8,10.1c-0.8,4.5-1.6,9-2.6,13.5
		c-0.7,2.9-1.2,5.8-1.9,8.7c-0.3,1.5-0.9,3-1.1,4.5c-0.3,2.9-0.9,5.6-1.9,8.3c-0.3,0.8-0.7,1.7-0.7,2.5c-0.2,2.3-0.3,4.6-0.4,6.9
		c0,2.1,0.2,4.3,0.3,6.3c0.1,2.7,0.7,5.2,1.1,7.7c0.5,3.3,1.4,6.5,1.3,9.9c0,1.2,0.2,2.4,0.4,3.5c0,0.2,0.1,0.3,0.2,0.5
		c1,1.4,2,2.9,3.1,4.2c1,1.3,2.1,2.5,3.3,3.7c2.1,2,4.3,4,6.5,6c0.7,0.7,1.3,2.4,0.9,3.3c-0.5,1-1,2-1.5,3c-0.1,0.2-0.3,0.2-0.5,0.3
		c-0.1-0.2-0.2-0.3-0.2-0.5c0-2.1-1-4-1.9-5.8c-0.2-0.3-0.6-0.4-0.9-0.6c0,0.3-0.1,0.7,0,1c0.5,1.6,1.1,3.2,1.6,4.8
		c0.1,0.2,0,0.5-0.1,0.7c-0.1,0.1-0.5,0-0.7-0.1c-1.9-0.7-3.8-1.3-5.6-1.9c-0.5-0.2-1.2-0.1-1.3-0.8c-0.2-0.8,0.7-0.6,0.9-0.9
		c0.1-0.1,0.1-0.2,0.2-0.3c0.9-1,1.6-2.2,2.8-3c0.3-0.2,0.5-0.8,0.8-1.2c0-0.1-0.3-0.5-0.4-0.4c-0.8,0.4-1.5,0.9-2.2,1.4l0.1,0.1
		c0.2,0,0.5,0,0.7,0c0.1-0.1,0.2-0.2,0.3-0.3c0,0.1,0.1,0.1,0.1,0.2c-0.2,0-0.3,0.1-0.5,0.1c-0.9,1.1-1.7,2.2-2.7,3.3
		c-0.7-1,0.7-1.4,0.5-2.2c-0.2,0-0.6,0.5-0.7-0.1c-0.2-1,0.1-1.9,1-2.6c0.8-0.6,1.6-1.2,2.4-1.8c0.1-0.1,0.2-0.3,0.2-0.5
		c-0.2,0-0.5-0.2-0.7-0.1c-1.1,0.5-2.1,1-3.1,1.5c-0.3-0.6-0.6-1.2-1-1.8c-0.2-0.3-0.5-0.3-0.7,0.1c-0.1,0.2,0,0.3,0,0.5
		c0.1,0.7,0.3,1.5,0.2,2.2c-0.1,0.7-0.6,1.4-0.9,2.1c0.5-0.3,1-0.7,1.5-1.1c0.2-0.2,0.3-0.3,0.4-0.4c0.2-0.1,0.3-0.3,0.4-0.4
		c0.2-0.2,0.3-0.3,0.4-0.4c0.2-0.1,0.3-0.3,0.4-0.4c0.1,0,0.1-0.1,0.2-0.2l-0.2,0.2c-0.1,0.2-0.3,0.3-0.4,0.4l-0.4,0.4
		c-0.1,0.2-0.3,0.3-0.4,0.4l-0.4,0.4c-0.4,0.7-0.9,1.4-1.4,2.4c-0.1-0.7-0.1-0.9-0.1-1.2c-0.2-0.1-0.5-0.2-0.6-0.3
		c-1.2-2.4-3.1-4.2-5-6c-0.7-0.6-1.4-1.3-2-1.9c-0.1-0.1-0.4,0-0.7,0c0,0.2-0.1,0.5,0,0.7c0.2,0.3,0.4,0.5,0.6,0.7
		c1.1,1,2.2,2,3.3,3c1.2,1.1,1.2,1.2,0.1,2.3c-0.5,0.4-1,0.8-1.4,1.2c-0.3,0.3-0.7,0.7-1,1c-0.2-0.4-0.4-0.9-0.7-1.3
		c-0.3-0.6-0.4-1.4-1.4-1.6c0.2,0.7,0.2,1.3,0.4,1.8c0.6,1.9,0.8,3.6-0.5,5.3c-0.1,0.2-0.2,0.4-0.3,0.7c-0.4,1-0.7,1.2-1.5,0.7
		c-1.2-0.6-2.4-0.9-3.7-1.2c-2.3-0.7-4.6-1-7-0.9c-0.9,0-1.7,0.2-2.5,0.5c-1.7,0.7-3.4,1.3-5.3,2c0.1-2,0.7-3.8,1.4-5.4
		c0.8-1.6,1.5-3.2,2.5-5.1c-0.7,0.4-1.2,0.5-1.4,0.9c-0.8,1-1.5,2.1-2.2,3.2c-1.4,2.1-1.4,4.7-1.9,7.1c-0.6-1.6-1.2-3.2-1.8-4.9
		c-0.1-0.3,0-0.7,0.2-1c0.7-1.1,1.4-2.2,2.1-3.3c0.3-0.5,0.7-0.9,0.8-1.7c-1.5,0.5-2.2,1.6-3.1,2.5c-0.3,0.3-0.5,0.9-0.8,1
		c-0.3,0.1-0.7-0.3-1.1-0.5c-0.3-0.1-0.6-0.1-0.9-0.1c0.1,0.3,0.1,0.7,0.3,0.9c0.9,1.3,0.7,2.5,0,3.8c-0.5,1-0.8,2-0.9,3
		c-0.2,1.3-0.9,1.7-2,2.1c-1.9,0.5-3.6,1.2-5.5,1.9c-1.2,0.5-2.4,1-3.9,1.5c0.3-1.2,0.8-1.9,1.4-2.6c1.1-1.1,2.2-2.2,2.7-3.7
		c0.1-0.2,0.3-0.4,0.5-0.5c2.2-1.4,3.9-3.3,5.7-5.1c0.5-0.5,1-0.9,1.5-1.4c0.2-0.2,0.3-0.4,0.5-0.6c3.1-2.9,4.3-6.7,4.4-10.9
		c0-3-0.2-6.1-0.3-9.1c-0.2-4.5-0.4-9,0.2-13.5c0.2-1.7,0-3.4,0.1-5.1c0.1-2.9,0.2-5.9,0.4-8.8c0.1-1.4,0.2-2.9,0.4-4.3
		c0.5-3,1-6,1.4-9c0.3-3.1,1-6.2,1.9-9.2c1.2-3.9,2.2-7.9,3.1-11.9c1.3-5.5,2.9-11,4.3-16.5c0.6-2.5,1.2-4.9,1.7-7.4
		c0.3-1.6,0.7-3.1,1-4.7c0.5-2.3,1.1-4.6,1.5-6.9c0.5-2.8,1-5.6,2.4-8.2c0.4-0.8,0.4-1.7,0.6-2.5c0.2-0.7,0.3-1.3,0.5-1.9
		c0.8-1.8,1.7-3.5,2.4-5.3c0.9-2,1.7-4,2.6-6c0.8-1.6,1.7-3.2,2.6-4.8c0.6-1.1,1.2-2.2,2-3.1c0.9-1,1.8-2.1,2.3-3.4
		c1-2.4,2.4-4.5,4.1-6.4c0.7-0.7,1-1.7,1.5-2.6c0.4-0.8,0.8-1.7,1.3-2.4c1-1.3,2-2.6,3-3.8c1.9-2.3,3.8-4.6,5.8-6.8
		c2.1-2.2,4.4-4.2,6.6-6.3C87,58.5,88,57.7,89,57c1.9-1.5,3.9-3.1,5.9-4.5c0.9-0.7,1.9-1.2,2.8-1.8c0.4-0.2,0.6-0.1,0.9,0.3
		c0.7,0.8,0.7,0.8,1.4,0c1-1,1.9-2.1,2.9-3.2c0,0,0,0,0,0.1c0.1,2,0.3,2.3,2.2,2.8c0.5,0.1,1.2,0,1.2,0.8c0,0.6,0.3,1.2,0.2,1.6
		c-0.2,0.7-0.7,1.3-1.2,1.8c-1.1,1-2.2,2-2.6,3.6c-0.1,0.3-0.3,0.7-0.5,1c-0.4,1.3-1.2,2.3-2.7,2.5c-0.3,0-0.6,0.4-0.7,0.7
		c0,0.2,0.3,0.6,0.5,0.7c0.8,0.2,1.6,0.2,2.4,0.5c0.7,0.2,1.6-0.9,2-0.1c0.4,0.6,0.2,1.5,0.2,2.4c0,0.3,0,0.6,0,0.9
		c0.1,0.4,0.2,0.9,0.5,1.2c0.6,0.7,1,1.5,1,2.5c0,0.6,0.5,0.7,0.9,0.2c0.7-0.9,1.4-1.9,2-2.9c0.1-0.1,0.1-0.4,0-0.5
		c-0.5-1-0.3-2.2-1-3.2c-0.9-1.2-0.6-2.8,0.8-3.3c1.3-0.5,1.5-1.2,1.5-2.4c0-0.3,0.3-0.7,0.3-1.1c0-0.8,0.5-0.9,1.1-0.9
		c1.3-0.1,2.6-0.3,3.9-0.4c0.5,0,0.7-0.3,0.7-0.7c-0.1-1,0.3-1.2,1.2-1.2c0.4,0,0.8-0.3,1.2-0.4c0.3-0.1,0.7-0.3,0.9-0.2
		c0.8,0.6,2,0.6,2.5,1.7c0.5,1.2,1.1,1.3,2.2,0.7c0.6-0.3,0.6-0.6,0.2-1.2c-0.3-0.5-0.7-1-1-1.5c0,0,0.3-0.4,0.4-0.4
		c0.9,0.3,1.8,0.7,2.7,1.1c1,0.4,1,0.4,1.7-0.6c0.5-0.7,0.6-0.7,1.3-0.2c1.6,1.2,3.3,2.2,4.9,3.3c0.7,0.5,1.6,0.5,2.4,0.3
		c0.9-0.3,1.7-0.7,2.5-1.2c0.3-0.2,0.7-0.6,0.7-0.9c0-0.6-0.6-0.5-1-0.5c-0.8,0-1.5-0.2-2-0.7c-0.7-0.6-0.7-1.1,0.1-1.4
		c1.2-0.5,1.9-1.6,3.2-1.7c0.3,0,0.6-0.3,0.9-0.5c0.2,0.3,0.3,0.7,0.5,1.1c0.7,1.9,2.6,3.4,5,2.9c0.5-0.1,1-0.2,1.5-0.2
		c1.9,0,3.5-0.8,5.1-1.5c0.3-0.2,0.6-0.4,0.9-0.7c0.3-0.4,0.2-0.7-0.3-0.8c-0.2,0-0.5,0-0.7-0.1v-0.2c0.5-0.1,1-0.2,1.5-0.2
		c0,0.2,0.1,0.3,0.1,0.4c-0.1,1.3-0.2,2.6-0.3,3.9c-0.1,0.9,0.2,1.2,1,0.9c1.1-0.3,2.1-0.8,2.7-1.9c0.5-1,1.1-2,1.1-2.9
		c-0.1-1.5,0.8-1.9,1.9-2.3c0.2-0.1,0.3-0.2,0.5-0.3c0.1,0,0.1-0.1,0.2-0.2c0,0,0,0.1,0,0.1c0,0-0.1,0-0.2,0.1
		c-0.1,0.2-0.1,0.5-0.2,0.7c-0.7,1.6-1.5,3.2-2.1,4.8c-0.3,0.9-0.3,0.9,0.7,1c1.2,0.1,2.4-0.2,3.4-0.7c0.8-0.3,1.1-0.1,1,0.8
		c0,0.5-0.2,1-0.3,1.5c-0.1,0.6,0.2,0.9,0.7,0.7c0.3-0.1,0.6-0.2,0.9-0.4c0.7-0.5,1.5-1.1,2.2-1.7c0.6,1.1,1.2,2.2,1.7,3.2
		c0.2,0.3,0.3,0.6,0.3,0.9c-0.2,1.4,0.7,1.7,1.7,2c0.5,0.2,0.9,0.3,1.4,0.3c1.4,0.2,2.8,0.3,4.6,0.6c-1.3-1.7-2-3.2-2.7-4.9
		c1.5,0.3,1.5,0.3,2.1,1.4c0.7,1.3,1.5,2.6,2.4,3.7c0.7,0.8,0.9,0.7,1.8,0c0.3-0.2,0.7-0.3,1-0.3c1.2-0.2,2.4-0.3,3.5-0.6
		c0.8-0.2,1-0.8,0.4-1.4c-0.7-0.8-1.5-1.5-2.2-2.2c0.7-0.6,1.4-1.1,2.2-1.7c1,1.7,2.4,2.9,4.1,3.6c0.8,0.3,1,0.2,1.1-0.6
		c0.2-1.1,0.3-2.2,0.4-3.3c0.1-1.7,0.9-2.2,2.5-1.5c0.2,0.1,0.4,0.3,0.6,0.4c1.5,1,3.9,0.7,5.4-0.7c0.2-0.2,0.4-0.7,0.3-0.9
		c-0.3-0.9,0.1-1.1,0.9-1.2c1.6-0.3,1.6-0.3,1.2-1.9c0-0.1-0.1-0.2-0.1-0.3c-0.3-0.6,0-0.8,0.5-0.8c2.4,0,4.7-0.1,7,0.5
		c0.7,0.2,1.4,0.2,2,0.1c0.5-0.1,0.9-0.5,0.4-1.1c-0.2-0.2-0.2-0.3-0.3-0.6c1-0.1,1.8-0.1,2.6-0.2c0.2,0,0.5-0.4,0.5-0.7
		c0-0.1-0.2-0.4-0.4-0.5s-0.5-0.2-0.7-0.2c-1.7-0.7-1.8-1.4-0.7-3.1c0.7,0.7,1.4,1.4,2.2,2c0.9,0.7,1.3,0.5,1.6-0.6
		c0.2-0.6,0.2-1.2,0.4-1.8c0-0.2,0.2-0.4,0.3-0.4c0.2,0.1,0.5,0.2,0.6,0.3c0.1,0.3,0.2,0.6,0.2,0.9c-0.1,1.1-0.2,2.2-0.4,3.3
		c-0.2,0.8-0.5,1.5-0.7,2.3c-0.2,0.5-0.5,0.9-0.7,1.3c-0.1,0.4,0.2,0.8,0.6,0.7c1.9-0.3,3.4-1.1,4.3-3.1c0.5-1.2,1.3-2.4,2-3.5
		c0.2-0.3,0.5-0.3,0.7,0c0.2,0.2,0.3,0.4,0.5,0.5c0.9,0.5,1.4,1,0.9,2.1c-0.2,0.4-0.1,1,0.1,1.4c0.5,1.3,1.1,2.5,1.7,3.8
		c0.1,0.2,0.5,0.3,0.7,0.4c0-0.2,0.2-0.5,0.2-0.7c0-0.3-0.1-0.6-0.2-0.9c-0.1-0.7,0.3-1.1,0.7-1.4c0.5-0.5,0.7,0.3,1,0.4
		c0.5,0.2,1,0.3,1.4,0.3c1.3,0,1.8,0.7,2.3,1.7c0.5,0.9,0.5,1.6-0.1,2.4c-1,1.4-1.4,3.1-3,4c-0.2,0.1-0.1,0.4-0.2,0.7
		c0.2,0,0.5,0.2,0.7,0.1c1.6-0.5,3.2-1,4.3-2.4c0.2-0.3,0.5-0.5,0.8-0.8c0.4-0.4,0.8-0.4,1,0.2c0.1,0.2,0.2,0.5,0.3,0.7
		c0.1,0.2,0.3,0.4,0.4,0.6c0.2-0.2,0.6-0.3,0.7-0.5c0.4-0.9,0.7-1.9,1-2.8c1,1.2,1.4,1.4,3.2,2c1.4,0.4,2.9,0.8,4,2.4
		c0.2-1.7,0.6-3.1-0.7-4.3c-0.1-0.1-0.1-0.3-0.1-0.5c0.2,0,0.5,0,0.7,0c0.7,0.2,1.4,0.5,2.1,0.7c0.4,0.1,0.8-0.1,1.2-0.1
		c0.2-1.2,0.2-1.3,1.1-0.7c-0.4,0.2-0.7,0.5-1.1,0.7c-0.4,2,0.5,3.3,2.1,4.1c1.5,0.9,2.6,2,3.4,3.6c0.3,0.5,0.6,0.4,0.8,0
		c0.6-1.2,1.2-2.4,1.8-3.7c0.6-1.4,0.4-2.2-0.7-3.2c-0.9-0.8-1.2-1.8-0.9-1.8c0.8-0.1,1.4,0.5,1.8,1.1c1.5,2.2,3.8,2.3,6.1,2
		c0.5,0,1.1-0.5,1.5-0.9s0.3-0.7-0.2-1c-0.6-0.3-1.2-0.5-2-0.8c1.4-0.7,2.5-1.3,3.7-1.9c0.2-0.1,0.3-0.2,0.5-0.2
		c0.7,0,1.9,1.1,2.1,1.8c0.2,0.7,0.5,1.4,0.7,2.1c0.3,1.2,1,2.2,2,2.8c1.1,0.7,2,1.5,2.3,2.8c0,0.1,0.3,0.3,0.4,0.3
		c0.2-0.1,0.4-0.2,0.5-0.4c0.1-0.1,0.1-0.3,0-0.5c-0.7-1.5-0.5-3.1-0.6-4.8c0-0.5-0.2-0.9-0.3-1.4c0-0.1-0.3-0.2-0.5-0.2
		c-0.1,0-0.2,0.3-0.2,0.4c0.4,1.1,0.3,2.2,0.1,3.4c-2.6-0.7-3-2.7-3.5-4.8c1.2,0.2,2.3,0.5,3.4,0.3c0.9-0.1,1.5-0.1,2.2,0.3
		c1.5,0.8,3.2,0.9,4.8,0.1c0.3-0.2,0.6-0.7,0.6-1c0-0.2-0.4-0.6-0.7-0.7c-0.6-0.2-1.3-0.4-1.9-1.2c1.9,0.3,3.7-0.7,5.3,0.7
		c0.1,0.1,0.3,0,0.5,0.1c1.2,0.3,2.3,0.1,3.4-0.2c0.8-0.2,1.3,0.1,1.6,0.8c1.2,2.4,3.2,3.5,5.7,3.1c0.9-0.1,1.1-0.5,0.6-1.4
		c-0.3-0.6-0.6-1.2-0.8-1.9c-0.1-0.3-0.1-0.7,0-0.8c0.4-0.3,0.9-0.6,1.4-0.2c0.2,0.2,0.4,0.5,0.4,0.7c-0.1,2.4,0.7,4.5,2.4,6.1v-1.5
		c-1.3-1.2-1.6-2.7-1.5-4.3c0.1-0.9,0.8-1,1.5-1V50c-1.5,0.6-3,0.5-4.3-0.7c-0.7-0.7-0.9-1.2-0.3-2c0.7-1,1.5-1.8,2.3-2.6
		c0.4-0.4,1.3,0,1.5,0.6c0.1,0.3,0.1,0.7,0,0.9c-0.6,1.2,0,2,0.8,2.7v-5.6C299,43.3,298.3,42.8,297.8,42.1z M2.7,43.7
		c-0.5,0.1-1,0.3-1.6,0.4c0,0-0.1,0.1-0.2,0.2c0,0,0-0.1,0-0.1c0,0,0.1-0.1,0.2-0.1c0.1-1,1-1.5,1.7-2.2c0.2,0.3,0.4,0.6,0.5,0.9
		C3.4,43.3,3.3,43.6,2.7,43.7z M24.4,44.4c-0.2,0.1-0.5,0.3-0.8,0.4c-0.4,0.1-0.9,0-1.3-0.1c0-0.3,0.1-0.7,0.1-1
		c0-0.5-0.1-1.1-0.2-1.7C23,42.8,23.7,43.6,24.4,44.4z M10,42.7c0,0,0.1-0.1,0.1-0.1c-0.2,0.8-0.5,1.5-1.4,1.8c0,0-0.1,0-0.2-0.1
		C9,43.8,9.5,43.2,10,42.7z M4.3,45.4c0,0,0-0.1,0-0.1s0.1,0,0.2-0.1c0.2-0.3,0.3-0.9,0.5-0.9c0.6-0.2,1.2-0.1,1.8-0.1
		c0.1,0,0.2,0.2,0.2,0.3c0,0.1-0.1,0.3-0.2,0.3C6,45,5.3,45.1,4.5,45.3C4.4,45.3,4.4,45.4,4.3,45.4z M7.8,51.1
		c-1.4,0.8-1.5,0.7-3.6-0.3c1.9-0.2,3.2-0.7,4.5-1.5c0.6-0.4,1.4-0.8,2.4-0.3C10,49.6,9,50.4,7.8,51.1z M11.3,47.8
		c-0.2,0-0.3,0-0.4,0c-2.1,0.9-3.8-0.2-5.7-1.4c2-0.9,3.8-1.4,5.7-0.6c0.3,0.1,0.7,0.2,0.9,0.3c0.3,0.3,0.8,0.8,0.8,1.1
		C12.5,47.8,11.8,47.9,11.3,47.8z M12.6,45.7c0-0.1,0-0.3,0.1-0.4c0.6-0.3,1.2-0.5,1.8-0.8c-0.1,0.9-0.9,1-1.5,1.4
		C13,45.9,12.7,45.8,12.6,45.7z M13,48c0.4-0.5,0.9-0.9,1.3-1.3c0.8-0.9,1.4-2,2.6-2.2l0.2-0.2c0,0,0,0.1,0,0.1c0,0-0.1,0-0.2,0.1
		c-0.5,0.9-0.7,1.6,0.4,2.2c0.6,0.3,0.2,1-0.1,1.2c-0.4,0.3-1,0.3-1.6,0.3c-0.5,0-0.5-0.4-0.5-0.8c0-0.5-0.3-0.6-0.8-0.6
		c0,0.5,0,0.9,0,1.3c-0.1,0.6-0.6,0.6-1,0.5C13.1,48.5,12.9,48.1,13,48z M14.2,58.5c-0.3,0.2-0.6,0.2-0.7-0.3V58
		c-0.1-2.1-0.2-4.2-0.3-6.3C13,50.9,13.2,50,14,49.4c0.4-0.3,0.6-0.3,0.9,0c0.3,0.3,0.3,0.6,0,0.9c-0.1,0-0.1,0.1-0.2,0.1
		c-0.3,0.3-0.5,0.6-0.8,0.9c0.4,0.3,0.8,0.7,1.3,0.9c1.2,0.5,1.2,0.4,1.3,1.7C16.7,56,15.9,57.4,14.2,58.5z M23.8,49.8
		c-1,0.2-2,0.3-3.1,0.3c-0.6,0-0.4-0.7-0.5-1c-0.1,0-0.2,0.1-0.3,0.2c-1.2,1.5-2.8,2.2-4.9,2.3c0.5-0.5,1-0.7,1.4-1.1
		c0.5-0.5,1-1,1.3-1.5c1.4-2.3,1.6-2.5,4.4-3.1c-0.7,1.1-1.3,2.2-1.9,3.2c1-0.3,2-0.6,3-1c0.7-0.2,1.4-0.1,1.6,0.4
		C25,49,24.5,49.7,23.8,49.8z M22.1,47.6c1.1-1.7,2.3-2.4,4.3-2.4C25.1,46.7,23.7,46.9,22.1,47.6z M30.3,247.8c0,0.3,0,0.8-0.2,1
		c-0.2,0.3-0.6,0.6-0.8,0.6c-0.5-0.1-0.2-0.5-0.1-0.9c0.2-0.9,0.3-1.8,0.5-2.7H30C30.1,246.4,30.3,247.1,30.3,247.8z M94.8,246.4
		l0.2-0.2c0,0,0,0.1,0,0.1C94.9,246.3,94.9,246.3,94.8,246.4c-1,0.9-1.9,1.9-2.9,2.8C92.5,247.9,93.5,247,94.8,246.4z M91.9,248.1
		v-1.9C93.2,246.9,93.2,246.9,91.9,248.1z M91.8,244.3c0,0,0.1-0.1,0.1-0.1c0.3,0.3,0.6,0.7,0.9,1c0.2,0.1,0.2,0.3,0.6,0.8
		c-0.6-0.2-0.8-0.3-0.9-0.4C92.3,245.2,91.6,245,91.8,244.3z M91.8,252.5c0.1,0.3,0.3,0.7,0.4,1c0,0.2-0.1,0.3-0.2,0.5
		c-0.2-0.1-0.3-0.2-0.4-0.3c-0.1-0.3-0.1-0.7-0.1-1C91.6,252.5,91.7,252.5,91.8,252.5z M90.9,248H91v1.4h-0.2V248z M79.6,242.6
		c0.1-0.2,0.3-0.4,0.4-0.5c0,0,0.2,0.1,0.2,0.1c-0.1,0.2-0.2,0.4-0.3,0.6c-0.1,0.1-0.2,0.1-0.3,0.2
		C79.5,242.9,79.5,242.7,79.6,242.6z M79.6,244.4c0.2-0.6,0.5-0.7,1.1-0.3c1.6,1.1,3.3,2.2,5,3.2c0.9,0.5,1.9,1,2.7,1.5
		c0.5,0.3,1,0.9,1.4,1.4c0.4,0.7,0.2,1.2-0.3,1.6c-0.5,0.4-0.9,0-1.2-0.2c-1.1-1.2-2.6-1.3-3.9-1.3c-1.5,0-2.9-0.6-4.4-0.9
		c-0.3-0.1-0.7-0.6-0.7-0.9c-0.1-0.5,0-1.1,0-1.7c-0.1,0-0.1,0-0.2,0C79.2,246.1,79.3,245.2,79.6,244.4z M65.3,241.5
		c0.1,0.5,0.2,1,0.3,1.5c0,0.7,0,1.5,0,2.2h-0.3c0-0.8-0.1-1.6,0-2.4C65.4,242.4,64.5,241.9,65.3,241.5z M64.3,242.7
		c0.1,0.3,0.2,0.7,0.2,1c0,0.1,0,0.2-0.1,0.5c-0.2-0.2-0.3-0.2-0.3-0.3c-0.1-0.3-0.1-0.7-0.1-1C64,242.8,64.2,242.8,64.3,242.7z
		 M64,245.7c0.7,2,1.4,4.1,2.3,6c0.8,1.7,2,3.2,3,4.9c0.2,0.3,0.4,0.7,0.7,1.3c-1.8-0.4-3.3-0.7-4.4-2c-0.2-0.2-0.3-0.4-0.6-0.5
		c-2.8-0.9-4.4-3.5-7-4.9c-0.2-0.2-0.5-0.4-0.7-0.7c-0.5-0.6-0.5-1,0.1-1.6c1.6-1.4,3.2-2.7,5.4-3.1C63.6,245,63.8,245.1,64,245.7z
		 M57.6,244c1-1.4,2-2.7,3.2-4.4c0.8,1.5,1.5,2.7,2.2,3.9c-1.5,0.7-2.8,1.3-4.1,1.9c0.2,0.1,0.8,0,0.4,0.5c-0.5,0.5-1.2,1-1.9,1.4
		c0,0.1-0.1,0.1-0.2,0.2c0,0,0-0.1,0-0.1c0,0,0.1,0,0.2-0.1c0.1-0.4,0.2-0.7,0.4-1.1c-0.4,0-0.8-0.2-0.7-0.7
		C57.1,245,57.3,244.5,57.6,244z M57.5,242.5C57.5,242.5,57.5,242.5,57.5,242.5c-0.5,0.9-1,1.7-1.5,2.6
		C56.1,244,56.5,243.1,57.5,242.5z M25.9,232.8c0.1,0.1,0.2,0.2,0.3,0.4c-0.1,0-0.1,0.1-0.2,0.1C25.9,233.1,25.9,232.9,25.9,232.8
		c-0.7-0.3-0.7-0.9-0.7-1.5C25.4,231.7,25.6,232.2,25.9,232.8z M24.6,232.6c0,0.4,0,0.9,0.1,1.3c-0.1,0-0.2,0-0.2-0.1
		c0-0.4,0-0.8,0-1.2H24.6z M26.8,240.2c-0.4,0.3-0.7,0.5-1.1,0.1c-0.7-0.6-1.5-0.8-2.4-0.8c-1.1,0-2.4-1.6-2.2-2.7
		c0.1-0.2,0.4-0.5,0.7-0.6c1-0.4,2.1-0.8,3.1-1.2c1.4-0.5,2.8-0.9,4.2-1.5c0.8-0.3,1.4-0.9,2.2-1.5C31,235.5,29.2,238,26.8,240.2z
		 M205.2,41.7c0.3,0.2,0.5,0.4,0.8,0.6c-0.1,0.1-0.3,0.3-0.3,0.2c-0.3-0.1-0.6-0.3-0.9-0.4C205.1,41.8,205.2,41.7,205.2,41.7z
		 M190.1,45.1c1.5-2.7,4-3.2,6.8-3c0.5,0,1-0.1,1.7-0.2c-1.3,2.6-3.2,3.9-5.8,4.1c-0.9,0.1-1.8,0.5-2.7,0.7
		c-0.3,0.1-0.6-0.1-0.9-0.1c0.1-0.3,0.2-0.5,0.3-0.8C189.7,45.5,190,45.3,190.1,45.1z M192,47.5c0.5-0.9,1-0.8,1.9-0.7
		C193.2,47.1,192.7,47.3,192,47.5z M196.8,47.5c-0.8,0.7-1.5,1.3-2.2,1.9c-0.3-0.4-0.8-0.9-1.3-1.5
		C194.3,47.3,195.5,47.5,196.8,47.5z M187.8,42.1c0.6-0.1,0.9,0,1.2,0.5c0.2,0.3,0.3,0.7,0.5,1c0.3,0.5,0.2,0.9-0.2,1.3
		c-0.2,0.2-0.5,0.4-0.7,0.7c-0.4,0.4-0.7,0.5-1.3,0.2c-0.7-0.4-1.4-0.5-2.3-0.8C185.2,43.3,186,42.3,187.8,42.1z M183.8,43.6
		c0.2-0.1,0.4-0.1,0.5,0s0.2,0.3,0.2,0.5c-0.1,0.5-0.3,0.9-0.5,1.6C183.1,44.2,183.1,44,183.8,43.6z M181.5,47.5
		c0.2-1.2,0.4-2.3,0.6-3.8c0.2,2,1.6,3,2.5,4.3c0.2,0.2,0.8,0.1,1.2,0.2c0.3,0.1,0.5,0.4,0.8,0.7c-0.2,0.2-0.4,0.6-0.6,0.7
		c-1.1,0.3-2.2,0.7-3.4,0.9c-0.6,0.1-1-0.3-1.1-1C181.5,48.8,181.4,48.1,181.5,47.5z M182.2,52.2c0,0.1-0.1,0.2-0.1,0.3
		c-0.2-0.3-0.3-0.5-0.5-0.8c0,0,0.1-0.2,0.3-0.3C182,51.7,182.1,51.9,182.2,52.2z M177.6,51.5c0.6-0.4,0.5-0.7-0.2-1
		c-0.4-0.2-0.8-0.5-1.2-0.7c-0.1,0-0.1-0.1-0.2-0.2c0,0,0.1,0,0.1,0c0,0,0,0.1,0.1,0.2c0.9-0.1,1.9-0.2,2.7-0.4
		c0.4-0.1,0.7-0.6,1.1-0.9c0.1,0,0.5,0.1,0.5,0.2c0,0.6,0.1,1.2,0,1.9c-0.1,0.7-0.9,0.6-1.3,0.9c-0.5,0.3-0.9,0.6-1.2,1
		c-0.8,1-0.7,1.1-1.9,0.3c-0.1-0.1-0.2-0.2-0.3-0.3C176.5,52.1,177.1,51.8,177.6,51.5z M174.7,51.6c-1.1,0.1-2.2,0.1-3.3,0
		c-0.3,0-0.7-0.3-0.8-0.6c-0.7-1.3-0.3-2,1.2-2c1.7,0,3,0.9,4.5,2C175.7,51.3,175.2,51.6,174.7,51.6z M178.5,53.4
		c0.6-0.6,1.3-1.1,2-1.7c0.7,1.1,0.7,1.9,0.2,2.8c-0.3,0.5-0.7,1-1,1.4c-0.5-0.5-1.1-1-1.5-1.6C178.1,54.1,178.3,53.6,178.5,53.4z
		 M181,45.4c-0.6,2-1.1,2.4-2.8,2.3C179.1,46.8,180,46.1,181,45.4z M178.7,41.7c0.1,0.2,0.2,0.3,0.3,0.5c-0.2,0.2-0.3,0.4-0.5,0.7
		c-0.2-0.2-0.3-0.3-0.5-0.5C178.2,42.2,178.5,41.9,178.7,41.7z M178.1,43.8c0.4,0.4,0.9,0.8,1.2,1.2c0.1,0.1,0,0.5-0.1,0.5
		c-0.2,0.1-0.7,0.2-0.8,0c-0.3-0.4-0.5-0.9-0.7-1.4C177.8,44.1,178,43.9,178.1,43.8z M176.2,46.3c0.3-0.5,0.6-1,1-1.7
		c0.2,0.5,0.5,0.9,0.4,1.3c0,0.4-0.3,0.9-0.6,1.2c-0.1,0.2-0.6,0-0.9-0.2C176.1,46.9,176.1,46.5,176.2,46.3z M172.8,44.4
		c0.1,0.7-1.2,2.2-2,2.3c-0.1-0.2-0.4-0.3-0.4-0.6c-0.1-0.5,1-2.2,1.5-2.3C172.2,43.7,172.7,44.1,172.8,44.4z M170.5,41.9
		c0.2-0.2,0.5-0.1,0.8-0.2c0.1,0.3,0.2,0.7,0.2,1c0,0.1-0.2,0.2-0.2,0.3c-0.2,0.3-0.4,0.6-0.6,1C169.9,42.5,169.8,42.4,170.5,41.9z
		 M170.3,47.8c1-0.5,2-0.8,3.1-0.6c0.7,0.2,1.5,0.2,2.2,0.4c0.7,0.2,1.4,0.6,2.1,0.9c-0.3,0.1-0.5,0.4-0.7,0.4
		c-1.2-0.2-2.4-0.2-3.4-0.5c-0.8-0.3-1.5-0.5-2.3,0c-0.2,0.1-0.5,0.2-0.7,0.2c-0.2,0-0.3-0.1-0.5-0.2
		C170.1,48.2,170.1,47.8,170.3,47.8z M141.9,44.7c0.3-0.1,0.8,0.2,1.1,0c1.4-0.6,2.9-0.4,4.3-0.6c0.2,0,0.3,0,0.4,0
		c2.1-1.1,4.2-0.4,6.3,0.2c-1.6,0.6-3.1,1.5-4.8,1.5c-0.4,0-0.8,0.2-1.1,0.1c-2.4-0.6-4.7,0.1-7,0c-0.7,0-1.5,0-2.1-0.7
		C139.8,44.6,140.9,45,141.9,44.7z M132.2,46c0.3-0.3,0.7-0.5,1-0.8c1.1-0.9,2.1-1.7,2.6-3.1c0-0.2,0.3-0.3,0.4-0.5
		c0.2,0.2,0.5,0.4,0.6,0.7c0.1,0.2,0.1,0.5,0.1,0.7c-0.1,1.4-0.4,2.5-2,3c-0.6,0.2-1.1,0.6-1.7,0.8c-0.2,0.1-0.6,0.1-0.8-0.1
		C132.3,46.6,132.1,46.1,132.2,46z M132,42.7c-0.1,0.5,0,0.9-0.1,1.2c-0.2,0.6-0.4,1.1-0.7,1.7c0,0.1-0.2,0.2-0.2,0.2
		c-0.1-0.1-0.3-0.2-0.3-0.3c0-0.3,0.1-0.6,0.3-0.9C131.2,44,131.6,43.4,132,42.7z M120.8,44.3c0.5-0.5,1-1,1.5-1.6
		c0.3,0.7,0.8,1.2,1,1.9c0.3,1.3,1,2.3,2.6,2.6c-1,1.2-2,0.9-3,0.9c-0.1,0-0.4-0.3-0.3-0.3c0.4-1-0.2-1.1-1-1.2
		C120.7,46.5,120.3,44.9,120.8,44.3z M120.6,48.3c-0.1,0.1-0.2,0.2-0.2,0.2c-0.6,0.2-0.7-0.2-0.8-0.7c-0.2,0-0.3-0.1-0.5-0.1
		c0-0.1,0.1-0.1,0.1-0.2c0.1,0.1,0.2,0.2,0.3,0.3c0.1,0,0.2,0,0.2,0C120.1,48,120.3,48.2,120.6,48.3z M119.5,45.4
		c0.3,0.3,0.5,0.7,0.9,1c-0.2,0.1-0.4,0.3-0.5,0.2c-0.4-0.2-0.8-0.3-1.1-0.5C119,45.9,119.2,45.6,119.5,45.4z M114.6,43.2
		c0.3,1.1,1.3,1.4,1.1,2.5c0,0.2,0.3,0.5,0.5,0.7c0.6,0.5,1.2,1,1.8,1.5C115.1,47.3,114.2,46.1,114.6,43.2z M113.6,44
		c-0.2,2.8,1.4,3.8,3.1,4.9c-1.3,0.5-2.6,0.3-3.5-0.6C112,47,112.8,45.7,113.6,44z M111.1,43.3c0.7-0.6,1.4-1.1,2.2-1.7c0,0,0,0,0,0
		c-0.3,1.1-0.6,2.2-0.9,3.4c-0.5-0.3-0.9-0.6-1.2-0.8C110.5,43.9,110.7,43.6,111.1,43.3z M107.2,45.5c0.3-0.2,0.6-0.3,0.9-0.5
		c0.1,0.3,0.2,0.6,0.2,0.9c0,0.2,0,0.5,0,0.7c-0.1,0.8-0.4,1-1.1,0.6c-0.3-0.2-0.7-0.5-1.2-0.9C106.5,46,106.9,45.7,107.2,45.5z
		 M94.1,49.7c-0.1,0.2-0.2,0.3-0.3,0.5c-0.8,1-1.9,1.4-3,1.9c-0.3,0.2-0.9,0-1.2-0.3c-1.1-1.1-2.1-2.3-3.1-3.4c0,0-0.1-0.1-0.1-0.2
		c0.4-0.7,0.7-1.4,1.2-2c0.2-0.2,0.8-0.2,1,0c1,0.6,2,1.2,3,1.9c0.7,0.5,1.3,0.9,2,1.4C93.8,49.5,93.9,49.6,94.1,49.7z M93.1,46
		c0.2,0.3,0.5,0.5,0.5,0.6c-0.2,0.4-0.5,0.8-0.7,1.2c-0.3-0.2-0.5-0.5-0.8-0.7C92.4,46.7,92.7,46.4,93.1,46z M86.1,44.4
		c0.7-0.6,1.3-0.7,2.2-0.4c1.4,0.4,2.7,0.7,4.1,1c-1.1,1.4-1.2,1.4-2.5,0.7l-1.2-0.6c-1-0.5-2-0.5-2.7,0.3c-0.4,0.4-0.7,0.6-1.6,0.3
		C85,45.3,85.6,44.9,86.1,44.4z M79.4,44.5c0.3,0.1,0.5,0.3,0.8,0.5c0.3,0.2,0.5,0.6,0.7,0.5c1.8-0.2,2.8,1.4,4.4,2
		c-0.4,0.2-0.7,0.5-1.1,0.6c-0.7,0.2-1.3,0.3-1-0.8c0-0.1-0.5-0.3-0.7-0.4c-0.1,0-0.2,0.1-0.3,0.1c-1.9,0.5-2.7-0.1-3.2-2
		C78.8,44.6,79.1,44.4,79.4,44.5z M76.8,46c0.1-0.5,0.1-1.1,0.2-1.7c0.1,0,0.3-0.1,0.4-0.1c0.5,0.9,0.9,1.7,1.5,2.6
		c-0.5,0.1-0.8,0.2-1.1,0.2C76.6,47.1,76.7,47.1,76.8,46z M73.3,43.6c0.2,0.3,0.5,0.5,0.4,0.6c-0.2,0.2-0.4,0.5-0.6,0.6
		c-0.1,0.1-0.3-0.2-0.5-0.3C72.8,44.2,73,43.9,73.3,43.6z M71.4,45c0.3,0.1,0.6,0.2,0.8,0.3c0.5,0.4,0.9,0.9,0.5,1.7
		c-0.4,1-0.5,2.1-0.8,3.2c-0.1,0-0.2,0-0.3,0c-0.1-1.5-0.3-3-0.4-4.5C71.2,45.5,71.4,45.3,71.4,45z M70.3,55.2
		c0,0.1,0.2,0.3,0.2,0.3c1.2,0.1,0.5,0.9,0.8,1.7c-0.7-0.3-1-0.4-1.4-0.6C69,56,69,56,69.4,55c0.2-0.4,0.4-1,0.3-1.4
		c-0.2-1.1,0.4-1.7,1.5-2c-0.1,0.2-0.2,0.5-0.4,0.5C69.7,53,70.7,54.2,70.3,55.2z M69.4,48c0.1-0.2,0.5-0.3,0.7-0.4
		c0.1,0.2,0.2,0.4,0.3,0.6c0.6,2.2,0.4,2.6-1.7,3.4c-0.5,0.2-1.1,0.3-2,0.4C67.8,50.5,68.6,49.3,69.4,48z M67,53.9
		c-0.1-0.2,0-0.5,0.1-0.7c0.2,0.2,0.6,0.3,0.6,0.5c0.1,0.5,0.1,1.1,0.1,1.6c-0.1,0-0.1,0-0.2,0.1C67.5,55,67.2,54.5,67,53.9z
		 M66,61.9c0.3-0.5,0.7-1,1.4-1.7c0.5,2.4,1.2,4.5-0.8,6.5c-0.3-1.3-0.6-2.4-0.8-3.5C65.7,62.7,65.8,62.2,66,61.9z M63.2,44
		c-0.5,2.5-0.8,2.8-4.3,5.7C59.5,47,61.1,44.9,63.2,44z M63.2,46.8c-0.7,1.4-0.7,1.4-1.7,1.7C62,48.1,62.4,47.6,63.2,46.8z
		 M49.9,47.8c0.1-0.3,0.3-0.5,0.6-1.2c0.4,0.5,0.6,0.8,0.8,1.1c0.5,0.7,0.3,1.2-0.5,1.2c-0.3,0-0.7-0.1-1.1-0.1
		C49.8,48.5,49.8,48.1,49.9,47.8z M47,43.2c0,0,0.3,0,0.5,0.1c1.2,0.3,2.1,1.7,1.7,2.9c-0.2,0.5-0.3,1-0.5,1.5
		c-0.7-0.6-1.4-1.1-2-1.7c-0.3-0.3-0.8-0.7-0.7-0.9C46.2,44.4,46.6,43.8,47,43.2z M46.8,47.3c0.7,0.7,1.3,1.6,1.9,2.5
		c0.3,0.5,0.5,1,0.9,1.4c0.3,0.4,0.2,0.6,0,1c-0.5,0.6-0.8,0.6-1.1,0c-0.5-1.1-1.4-1.9-2.2-2.8c-0.5-0.5-1-0.8-1.7-0.7
		c0,0.4,0,0.9,0,1.3c-0.1,1.1-0.4,2-1.5,2.5c0,0-0.1,0.1-0.2,0.2c0,0,0-0.1,0-0.1c0,0,0.1,0,0.2-0.1c0-0.1,0.1-0.3,0-0.3
		c-0.7-1.7,0.3-2.6,1.5-3.4c0.2-0.3,0.3-0.6,0.4-0.9C45.5,46.3,45.8,46.2,46.8,47.3z M46.6,54.9c-0.2,0-0.4-0.1-0.5-0.2
		c-0.2-0.4-0.3-0.8-0.4-1.2c-0.2-1.1-0.3-2.3-0.5-3.7c1.4,0.9,2,1.9,2.4,3C48.1,53.4,47.4,54.7,46.6,54.9z M40.9,48.4
		c0.5-0.5,1.2-0.8,1.8-1.2c0.2-0.1,0.2-0.4,0.3-0.6c-0.2,0-0.3-0.2-0.5-0.2c-0.2,0-0.5,0.2-0.7,0.2c-0.3,0-0.7-0.1-0.8-0.2
		c-0.1-0.2,0-0.6,0.2-0.9c1-1.3,2.3-2,4-1.9c-0.1,3.3-1.9,5.7-5.8,7.2C40,49.8,40.3,49,40.9,48.4z M38.9,49.9h-0.3
		c0.1-0.5,0.1-1,0.2-1.4c0-0.1,0.3-0.2,0.5-0.2c0.1,0,0.2,0.3,0.2,0.4C39.3,49.1,39.1,49.5,38.9,49.9z M39,46.3
		c0.2,0,0.4,0.1,0.5,0.2c0.2,0.2,0.4,0.4,0.3,0.5c-0.1,0.2-0.3,0.3-0.6,0.5c-0.3-0.2-0.7-0.2-0.8-0.4c-0.2-0.2-0.1-0.6-0.1-0.9
		C38.6,46.3,38.8,46.2,39,46.3z M40.3,51.9c0.5-0.3,1-0.5,1.6-0.9c0.5,2.9-1.2,4.5-3.1,6c-0.1,0-0.5-0.1-0.5-0.2
		C37.7,54.8,38.5,53,40.3,51.9z M41.4,56.2c-0.2,0.5-0.3,1-0.5,1.5c-0.5,1.1-0.5,1-1.9,0.3c0.7-0.7,1.4-1.4,2-2
		C41.2,56.1,41.3,56.2,41.4,56.2z M38,52.1c0,0,0.1,0,0.2-0.1c-0.3,1.2-0.5,2.2-0.7,3.4c0,0.2-0.1,0.4-0.2,0.5
		c-0.4,0.5-2.9,0.2-3.2-0.3c-0.3-0.5-0.3-0.9,0.3-0.9c1.5-0.1,2.5-0.9,3.2-2.1C37.8,52.4,37.9,52.2,38,52.1z M37.7,58
		c0,0.2-0.4,0.6-0.6,0.5c-0.6-0.1-0.1-0.4-0.1-0.7c0-0.2,0.2-0.5,0.3-1C37.5,57.4,37.8,57.7,37.7,58z M33,53.2
		c-0.7-0.2-1.2-0.7-2-1.3c2.8-0.8,5-1.9,6.4-4.3c0.8,1,0.5,2,0.2,3.1c-0.3,1.2-1,2.1-2,2.6C34.8,53.6,33.8,53.4,33,53.2z M32.5,57.1
		c-0.7,0.5-1.3,0.9-2,1.5c-0.3-1-0.1-1.7,0.6-2.3c0.5-0.4,0.8-0.9,0.8-1.6c0-0.4,0.3-0.5,0.7-0.3C33.4,55.2,33.4,56.4,32.5,57.1z
		 M31.7,50.8c0.5-1.7,1.5-2,3.1-1.6C33.9,50,32.9,50.5,31.7,50.8z M37.6,44.7c0-0.1,0.2-0.1,0.3-0.2c0,0.2,0.1,0.3,0,0.4
		c-0.1,0.1-0.3,0.2-0.4,0.3c-0.5,0.8-1,1.7-1.6,2.4c-0.4,0.4-1.2,0.6-1.7,0.5c-1.6-0.2-3.3-0.3-4.8-1.2c2.6-1.5,5.3-1.9,8.1-1.7
		C37.5,45.1,37.5,44.9,37.6,44.7z M35.3,43.3c0.5,0.3,1,0.7,1.8,1.1h-4.1c0.5-0.4,0.8-0.7,1-1C34.5,42.9,34.9,43,35.3,43.3z
		 M31.7,41.9c0.3-0.1,0.5-0.3,0.8-0.3c0.5,0,1.3,0,1.5,0.3c0.3,0.5-0.3,1-0.7,1.3c-1,0.7-2,1.4-3.1,1.9c-0.3,0.2-0.7,0.1-1.2,0.1
		C29.6,43.7,30.3,42.5,31.7,41.9z M24.5,53.4c-0.5,0-1.1,0-1.7,0c1.8-1.1,3-2.7,4.4-4.1c1-1.1,2.4-1.4,3.8-0.7
		c0.4,0.2,0.5,0.4,0.2,0.9C29.6,51.8,27.4,53.2,24.5,53.4z M29.3,56.1c-0.9,0.3-1.8,0.7-2.8,1.2c0.4-1.1,0.9-1.9,1.1-2.7
		c0.2-0.9,0.8-1.4,1.5-1.9c0.6-0.4,1-0.4,1.5,0.1c0.4,0.4,0.7,0.9,0.3,1.5C30.5,55,30.2,55.8,29.3,56.1z M29.7,62.1
		c-0.5,0.1-1.1,0-1.7,0c1.4-1.3,2.7-2.5,4-3.7c0.9-0.8,1.8-1.4,2.9-1.5c0.9-0.1,1.2,0.3,0.8,1.1c-0.6,1.2-1.3,2.5-2.5,3.1
		C32.2,61.7,30.9,61.9,29.7,62.1z M37.8,69.4c-0.5-0.9-1-1.8-1.5-2.6c-0.5-0.9-0.4-1.1,0.5-1.6c0.5-0.3,1.1-0.6,1.7-1
		C38.8,66.1,39.2,67.8,37.8,69.4z M37.9,61.1c-0.5,0.5-0.5,0.9,0.2,1c0.9,0.2,0.6,0.6,0.3,1s-0.7,0.7-1.2,0.9
		c-1.7,1-3.5,1.8-5.8,1.5c2-1.6,3.6-3,4.8-4.8c0.7-1,1.6-1.8,3-1.4c0.4,0.1,0.5,0.4,0.2,0.7C39,60.3,38.4,60.6,37.9,61.1z
		 M43.8,68.2c0,0.3-0.3,0.5-0.4,0.8c-0.2-0.1-0.6-0.2-0.7-0.4c-0.3-0.6-0.7-1.2-0.9-1.8c-0.3-0.9-0.6-1.9-0.9-2.8
		c-0.3-1.2,0-2.1,1.1-2.8c0.5-0.4,1.1-0.7,1.8-1.2V68.2z M44,57.9c0.1,0.1-0.2,0.6-0.4,0.8c-1,1.2-2.2,2.2-3.9,2.3
		c0,0.1-0.1,0.1-0.2,0.2c0,0,0-0.1,0-0.1c0,0,0.1,0,0.2-0.1c0.5-0.8,1.2-1.6,1.6-2.5c0.4-0.7,0.9-1.5,1-2.4c0.1-1.4,1-2.3,1.7-3.3
		c0.1-0.2,0.4-0.2,0.6-0.2c0.1,0,0.3,0.3,0.3,0.4c0.1,0.5,0.1,1,0.2,1.5c0.4,1,0.2,1.7-0.8,2.1C43.9,56.9,43.4,57.2,44,57.9z
		 M47.5,61.9c0.2,1,0.1,2,0,3.4c-1-0.8-1.8-1.4-2.5-2c-0.2-0.2-0.3-0.7-0.3-1c-0.1-0.9-0.2-1.7-0.3-2.6c0-0.2,0-0.5,0.2-0.7
		c0.2-0.4,0.3-1,1-0.9c0.6,0.2,0.6,0.7,0.5,1.2c-0.1,0.5-0.3,1-0.4,1.4c0,0.2,0,0.6,0,0.7c0.2,0.1,0.6,0.2,0.8,0
		C47.2,60.9,47.4,61.4,47.5,61.9z M50.8,55.6c-0.7,0.5-1.5,0.9-2.2,1.4c-1,0.6-1.9,0.9-3.1,0.1c0.3-0.3,0.5-0.7,0.9-1
		c1.4-1,2.9-2,4-3.9c0.4,1.2,0.7,2,0.8,2.7C51.3,55,51.1,55.4,50.8,55.6z M53.9,51.2c-2.2,0.9-2.7,0.8-4.3-1.4c2,0.2,3.5-0.9,5-2.3
		c0.1,0.7,0.1,1.2,0.2,1.7C55.2,50.7,55.2,50.7,53.9,51.2z M55.1,45.9c-0.2,0.2-0.5,0.3-0.7,0.4c0.2-1.8,1.9-2.6,3-3.8
		c0.2-0.2,0.6-0.1,0.8,0c0.8,0.5,1.5,1,2.2,1.6c0.1,0.1,0.2,0.4,0.2,0.6c-0.1,0.3-0.3,0.5-0.5,0.7c0,0.1-0.3,0-0.5-0.2
		c-0.2-0.2-0.3-0.5-0.5-0.8c-1-1.4-1.7-1.5-2.9-0.2C55.7,44.8,55.5,45.4,55.1,45.9z M57.4,53.8c-0.1,0.2-0.2,0.3-0.4,0.3
		c-0.1,0-0.3-0.2-0.3-0.3c-0.2-1.2,0-1.7,1.4-2.5C57.8,52.3,57.6,53.1,57.4,53.8z M57.2,50.4c-0.4,0.5-0.9,0.4-1.1-0.2
		c-0.2-0.6-0.4-1.3-0.7-2.1c0.4-1,0.7-2.1,1.4-3c0.5-0.7,1.2-0.6,1.6,0.2c0.5,0.9,1,1.8,0.2,2.9C58.1,48.7,57.8,49.6,57.2,50.4z
		 M62.3,53.5c0,0.5-0.1,1.1-0.2,1.6c0,0.1-0.2,0.3-0.3,0.3c-0.1,0-0.3-0.1-0.4-0.2c-0.7-0.7-1.3-1.5-1.9-2.2
		c-0.8-0.9-0.9-1.4-0.1-2.4c1.2-1.5,1.6-1.5,2.4,0.2c0.4,0.8,0.5,1.7,0.8,2.6C62.4,53.5,62.3,53.5,62.3,53.5z M63.1,51.4
		c-0.3-0.4-0.5-0.8-0.8-1.2c0.2-0.1,0.3-0.2,0.4-0.2c0.6-0.1,1.2-0.2,1.8-0.3c0.1,0,0.2-0.1,0.2-0.2c0,0,0,0.1,0,0.1
		c0,0-0.1,0-0.2,0.1c-0.2,0.4-0.4,0.9-0.7,1.2C63.6,51.2,63.1,51.4,63.1,51.4z M63.4,62.3c-0.3,0.1-0.8,0.2-0.9,0.1
		c-0.2-0.3-0.3-0.7-0.2-1c0.6-1.4,1.2-2.7,1.9-4.1C65.6,59.5,65.2,61.4,63.4,62.3z M65.4,70.3c-1.1,0-1.6-0.2-2-1.3
		c-0.2-0.5-0.4-1-0.5-1.4c0.8-0.4,1.5-0.7,2.4-1.2c-0.2,0.4-0.3,0.7-0.5,1c-0.1,0.3-0.1,0.6-0.2,0.9c0.3,0,0.7,0.1,1-0.1
		c0.7-0.4,1.4-0.9,2-1.3c0.2-0.1,0.4-0.2,0.7-0.2c0.1,0.3,0.2,0.6,0.2,0.9C68.4,68.9,66.7,70.3,65.4,70.3z M68.7,64.2
		c0-0.7,0-1.4,0-2.1c0-0.1,0.2-0.2,0.3-0.2c0.1,0,0.2,0.1,0.3,0.2C69.9,62.9,69.2,63.5,68.7,64.2z M69.8,59.9
		c-0.2,0.2-0.7,0.6-0.9,0.5c-0.3-0.1-0.5-0.5-0.6-0.9c-0.1-0.4-0.1-0.9-0.1-1.3v-0.7c0-0.6,0.3-0.7,0.9-0.5
		C71.1,57.9,71.2,58.5,69.8,59.9z M71.6,62.8c0,0.2-0.2,0.4-0.4,0.8c-0.3-0.6-0.6-1.1-0.8-1.5c0.1-0.1,0.1-0.2,0.2-0.3
		c0.4-0.1,0.8-0.2,1.2-0.3C71.7,62,71.6,62.4,71.6,62.8z M74.9,58.2c0,0-0.1,0.1-0.1,0.2c-0.7,0.4-1.4,1.1-2.3,1.2
		c-0.7,0.1-0.9,1.3-2,1.2c0.3-0.5,0.5-0.9,0.8-1.3c0.5-0.9,0.8-1.7,0.7-2.7c0-0.5,0.1-1,0.2-1.5s0.3-0.7,0.8-0.3
		c0.5,0.3,1,0.6,1.5,1C75.7,56.8,75.8,57.1,74.9,58.2z M75.8,55.7c-0.8-0.5-1.6-1-2.3-1.5c-0.8-0.6-0.8-1.1-0.1-1.8
		c0.5-0.6,1.1-1.2,1.7-1.9C76,53,76.2,54.1,75.8,55.7z M78.4,51.6c-0.3,0.2-0.7,0.3-1,0.5c-0.2,0.2-0.3,0.5-0.5,0.7
		c0.3,0,0.5,0,0.8,0h0.5c-0.5,0.6-0.9,1.1-1.3,1.6c-0.1-0.2-0.2-0.4-0.3-0.5C76.2,52,76.4,51.7,78.4,51.6c0.3-0.5,0.8-0.3,1.2,0
		H78.4z M78.2,50.5c-0.7,0-1.3,0.3-2,0.5c-0.1-0.2-0.1-0.3-0.1-0.5c-0.8-1.9-0.3-2.5,1.9-2.6c1.1,0,2.2,0.2,3.3,0.3
		c0.3,0,0.3,0.3,0.1,0.5C80.5,49.6,79.6,50.5,78.2,50.5z M81,55.7c-0.3-2-0.7-4,0.5-5.8C83.6,52.9,83.5,53.8,81,55.7z M84.9,54.9
		c-1-1.8-1.5-3.8-2.4-5.9c0.6,0.1,1,0,1.3,0.2c1.2,0.6,1.7,1.9,2.3,2.9C86.6,52.8,86.1,53.7,84.9,54.9z M87,51.6
		c-0.3-0.3-0.6-0.7-0.9-1.1c0-0.1,0-0.3,0.1-0.5c0-0.1,0.2-0.1,0.3-0.1c0.6,0.1,1.1,0.9,1.1,1.5c0,0.1-0.1,0.3-0.2,0.3
		C87.3,51.7,87.1,51.7,87,51.6z M88.4,56.5c-0.3,0.2-0.7,0.5-1.2,0.8c0.2-1.4,0.4-2.7,0.6-4.1c0-0.2,0.2-0.5,0.3-0.7
		c0.3-0.5,0.6-0.6,1-0.2C90,53.7,89.8,55.6,88.4,56.5z M91.7,53c0,0-0.1,0-0.2,0.1c0,0.2,0,0.3-0.1,0.3c-0.2,0.3-0.5,0.7-0.7,1
		c0,0-0.3-0.1-0.3-0.2c-0.1-0.7,0.2-1,0.9-1.2h0.2c0,0,0.1-0.1,0.2-0.2C91.7,52.9,91.7,53,91.7,53z M98,49.5
		c-0.8,0.4-0.9-0.7-1.2-1.3c0-0.1,0-0.2,0-0.2c-0.2-0.2-0.3-0.3-0.5-0.4c-0.1,0.2-0.2,0.4-0.3,0.7c0,0.1,0,0.2,0,0.3
		c0.6,1.4,0.5,1.5-0.4,2.3c-0.6,0.5-1.2,1-1.9,1.4c0.7-1.3,2-2.2,2.4-3.7c-0.3,0-0.7,0-1.1,0c-0.2-0.1-0.7-0.3-0.7-0.4
		c0-0.3,0.2-0.7,0.5-0.9c0.9-0.5,2.2-0.1,2.6,0.8C97.6,48.5,98.6,49.2,98,49.5z M101.9,47.1c-0.3,1.1-0.9,2-1.9,2.6
		c-0.1,0.1-0.2,0.2-0.4,0.3c-0.5-0.9-1.1-1.7-1.6-2.6c1-0.4,1.9-0.7,2.7-1.1c0.2-0.1,0.3-0.5,0.5-0.7c-0.3-0.2-0.5-0.3-0.8-0.4
		c-0.2-0.1-0.5,0-0.7-0.1c-1.4-0.4-1.6-1-0.7-2.2c0.3-0.4,0.7-0.9,1.2-1.4c0.2,0.5,0.5,0.9,0.7,1.3c0.2,0.5,0.2,1,0.5,1.4
		C102,45,102.2,46,101.9,47.1z M102.3,44.1c-0.1-0.1-0.2-0.3-0.2-0.5c0-0.1,0.1-0.2,0.2-0.2c0.3-0.1,0.6-0.1,0.9-0.2
		c0.6-0.1,1.3-1,1.8-0.4c0.4,0.4,0.2,1.4,0.3,2.1c-0.9-0.2-1.5-0.3-2.2-0.5C102.9,44.3,102.6,44.3,102.3,44.1z M105.8,50
		c-0.9-0.1-1.5-0.4-1.7-1.5c-0.1-1-0.7-2-1.1-3.1c0.8-0.3,1.4,0,1.7,0.6c1.1,1.8,2.8,2.6,5.3,2.7c-1,0.5-1.6,0.9-2.2,1.1
		S106.4,50.1,105.8,50z M103.9,62.3c-0.8,0.8-1.7,1.2-3.2,0.6c1.7-1,2.4-2.2,2.9-3.7c0.4-1,1-2,1.6-2.9c0.2-0.2,0.6-0.4,0.9-0.4
		c0.1,0,0.3,0.5,0.4,0.7c0.4,1.1,0.3,2.1-0.6,3.1C105.2,60.5,104.6,61.5,103.9,62.3z M106.9,59.6c0.3,0.8-0.2,1.1-0.7,1.4
		c0,0.1-0.1,0.1-0.2,0.2c0,0,0-0.1,0-0.1c0,0,0.1,0,0.2-0.1C106.4,60.5,106.6,60.1,106.9,59.6z M107.3,66.1c0.5,1.4,0.4,1.9-0.6,3.4
		c-0.5-1.1-1.8-1.6-1.7-3.1c0.1-1.5,0.2-2.9,1.5-4.4C106.2,63.7,106.9,64.9,107.3,66.1z M108.9,59.9c-1.4-1.7-2-3.4-1.9-5.6
		c0.3,0.2,0.4,0.2,0.5,0.3C109.5,56.7,109.5,56.7,108.9,59.9z M111.3,55.4c-1,0.5-1.4,0.5-2.2-0.2c-1.2-0.9-1.4-2.3-1.5-3.6
		c0-0.6,0.3-1,0.8-1c1.7-0.1,2.9,0.8,3.2,2.4c0,0.2,0,0.5,0.1,0.7C112.2,54.4,112.2,55,111.3,55.4z M111.6,50.4
		c-0.5-0.1-1-0.3-1.5-0.5c0.1-0.1,0.1-0.3,0.2-0.3c1.4-1.5,1.4-1.5-0.5-2.1c-0.2,0-0.5-0.3-0.5-0.6c-0.1-0.3-0.1-0.6,0-0.9
		c0.1-0.4,0.2-0.8,0.3-1.2c0.5,0.2,1.2,0.2,1.6,0.6c0.3,0.2,0.4,0.9,0.5,1.3c0.3,1,0.6,2,1.5,2.7c0.5,0.4,0.3,0.9-0.3,1
		C112.5,50.5,112,50.5,111.6,50.4z M114.6,55.2c-0.5,0.6-1.1,0.9-2.1,0.8c0.6-0.6,1-1.1,1.5-1.5c0.1-0.1,0.5,0,0.6,0
		C114.7,54.7,114.7,55.1,114.6,55.2z M115.1,53c-0.1-0.1-0.6-0.1-0.8,0c-0.4,0.3-0.7,0.7-1.1,1c-1-1.6-0.9-2.3,0.9-3
		c1.2-0.5,1.2-0.5,2,0.5c0.5,0.6,1,1.1,1.6,1.7C116.6,53.8,115.7,54,115.1,53z M118.1,52.3c-0.4-0.2-0.7-0.5-1-0.9
		c-1-1.1-0.9-1.4,0.5-1.7c0.3,0,0.5-0.2,0.8-0.3c0.1,0,0.3-0.1,0.4-0.1c1.4,1.4,3.3,2.4,3.2,5C120.6,53.6,119.3,53,118.1,52.3z
		 M126.5,53.4c-1.1-0.3-2.3-0.7-3.3-1.2c-0.8-0.5-1.4-1.3-2.1-2c-0.1-0.1,0.1-0.5,0.2-0.7c0.2-0.3,0.6-0.7,0.7-0.6
		c1.6,0.9,3.5,1.3,4.6,3c0.2,0.3,0.3,0.8,0.6,1.3C126.9,53.3,126.6,53.5,126.5,53.4z M130.6,50.9c-0.6,0.8-1.5,1-2.5,1
		c-0.2,0-0.5-0.3-0.7-0.5c-0.3-0.4-0.5-0.9-0.7-1.3c-0.6-0.3-1.2-0.6-1.8-0.9c0.5-0.2,0.8-0.4,1.1-0.6c0.2-0.2,0.5-0.3,0.7-0.5
		c0.4-0.3,1-0.7,0.7-1.4c-0.2-0.2-0.8-0.3-1.2-0.3c-1.3-0.2-1.8-0.5-2-1.5c0-0.2,0-0.4,0.1-0.5c0-0.1,0.4,0,0.4,0
		c0.4,0.7,0.9,0.3,1.3,0.1c1.6-0.9,3.1-1.8,4.6-2.7c0.2,1.5-0.4,2.6-1.7,3.1c-0.4,0.2-0.8,0.3-1.2,0.5c-0.1,0.1-0.2,0.3-0.2,0.5
		c0,0,0.2,0.2,0.3,0.2c1.5-0.3,2.6,0.5,3.7,1.4c1.4,1,3,1.5,5.1,1.2c-0.6,0.5-1,0.8-1.4,1.1c-0.6,0.4-1.3,0.6-2.1,0.3
		c-1.1-0.4-2.2-0.9-3.1-1.7c-0.3-0.3-0.5-0.3-0.7,0.2c-0.1,0.3-0.2,0.9-0.4,1c-0.3,0.2-0.9,0.2-1.3,0.1c-0.6-0.2-1.2-0.5-1.7-0.7
		c0.2,0.5,0.5,1,0.7,1.5c1.1,0,2.2-0.1,3.3-0.1c0.2,0,0.5,0.1,0.6,0.2S130.7,50.7,130.6,50.9z M137.7,55.8c-1.5,0.9-2.9,1-4.3-0.2
		c-0.5-0.4-1.1-0.6-1.6-0.9c-0.4-0.3-1.1-0.6-1.1-0.9c0-0.5,0.5-1-0.1-1.4c0.4-0.5,0.7-1,1.2-1.4c0.2-0.1,0.7-0.2,0.8,0
		c1,0.9,2.4,1.2,2.9,2.9C135.9,54.5,137,55,137.7,55.8z M137.6,50.7c-0.6,0.4-1.2,0.8-1.9,1.2c-0.3-0.2-0.5-0.4-0.7-0.7
		c0-0.1,0.2-0.5,0.4-0.6c0.5-0.3,1-0.7,1.6-0.9c0.2-0.1,0.5,0.1,0.9,0.2C137.7,50.2,137.7,50.6,137.6,50.7z M140.2,49.3
		c-0.8,0.1-1.6-0.2-2.4-0.3c0.3-0.7,0.5-1.2,0.7-1.7c-0.6,0.1-1.2,0.1-1.8,0.2c-0.8,0.2-1.5,0.6-2.5,0c1.5-0.9,2.7-2,4.6-1.2
		c1.4,0.6,3,0.5,4.6,0.2c1.4-0.2,3-0.2,4.4-0.1c0.8,0,1.5,0.2,2.3,0.3V47c-1.9,0.5-3.7,0.9-5.6,1.4
		C143.1,48.7,141.6,49.1,140.2,49.3z M147.6,53.2c-0.5,0.1-1,0.2-1.5,0.2c-1.6,0.3-3.6-1-4-2.6c-0.1-0.6,0.1-1,0.7-1.2
		c1.6-0.3,3.3-0.6,4.9,0.3c1.2,0.7,2.4,1.3,3.6,2C150.2,52.9,148.8,52.7,147.6,53.2z M152.5,49.8c-0.5,0.2-1,0.4-1.5,0
		c-0.1-0.1-0.4-0.2-0.5-0.2c-1.5,1-2.2-0.7-3.4-1.1c0.9-0.2,1.7-0.4,2.6-0.6c0.9-0.2,1.9-0.2,2.7-0.5s1.4-0.3,1.8,0.6
		c0.2,0.3,0.4,0.6,0.7,0.9C154.1,49.2,153.3,49.4,152.5,49.8z M155.3,54.5c0-1.3,0.1-2.4,0-3.5c-0.1-0.9,0.3-1.2,1.1-1.4
		c0.4-0.1,0.9-0.2,1.3-0.2c0.2,0,0.5,0.3,0.6,0.5C158.4,51.4,156.9,53.7,155.3,54.5z M157.7,48.2c-0.7,0-1.4-0.2-2-0.4
		c-0.3-0.1-0.8-0.4-0.8-0.7c0-1.2-0.8-1.2-1.6-1.2h-0.7c1.3-1.1,2.6-0.4,3.9,0.1c1.1,0.5,2.2,1.1,3.2,1.6
		C159.3,48.3,158.5,48.3,157.7,48.2z M158.5,46.2c0.9-0.4,1.9-0.9,2.7-1.4c0.5-0.2,0.7-0.1,0.9,0.3c0.2,0.4,0.1,0.7-0.3,0.9
		C160.7,46.7,159.6,46.7,158.5,46.2z M164.2,50.7c0,1-0.4,1.8-1.4,2.2c-0.9,0.3-1.8,0.7-3.1,1.1c0.9-2.6,1.7-4.7,3.4-6.3
		c0.2-0.2,0.5-0.4,0.6-0.3c0.2,0.2,0.4,0.5,0.5,0.7C164.3,48.9,164.3,49.8,164.2,50.7z M162.9,44.7c-0.2-0.6,0-1,0.4-1.3
		c0.2-0.1,0.5-0.2,0.6-0.1c1.5,1.8,3.2,1.4,5.3,0.5c-0.8,2.1-2.1,3.1-3.8,2.9C164.1,46.6,163.3,45.9,162.9,44.7z M169.3,50.8
		c-1.7-0.2-3.1-1.5-3.1-2.8c0-0.2,0.2-0.4,0.3-0.4c0.3-0.1,0.8-0.1,1.1-0.3c0.6-0.3,0.9,0.1,1,0.5C168.8,48.8,169,49.7,169.3,50.8z
		 M165.3,55.2c-0.3-0.7-0.5-1.4-0.7-2c0-0.2,0-0.4,0.1-0.5c0.7-1,0.7-2.2,0.5-3.3c0-0.2,0.2-0.3,0.3-0.5c0.1,0.1,0.2,0.2,0.3,0.4
		c0.6,0.9,1.2,1.8,1.9,2.7C166.4,52.4,167,54.7,165.3,55.2z M174.9,60.4c-0.5,0.5-1.2,0.2-1.9,0c-0.4-0.2-0.9-0.2-1.3-0.3
		c-1-0.2-1.5-0.7-1.7-1.7c-0.1-0.7-0.6-1.2-0.9-1.8c-0.3-0.6-0.6-1.3-1-2.2c1.3,0.4,2.4,0.6,3.2,1.1c1.3,0.7,2.6,1.6,3.1,3.2
		C174.6,59.3,175.1,60.1,174.9,60.4z M174.2,56c-0.4-0.1-0.7-0.4-1.1-0.6c-0.6-0.3-1.2-0.9-1.9-1c-1.2-0.2-1.9-0.9-2.9-1.6
		c2,0,4-0.1,5.9,0.1c0.7,0,1.4,0.4,2,0.9c1,0.9,2,1.9,3.2,3.2C177.4,56.6,175.7,56.3,174.2,56z M177.3,58c-0.1-0.1,0-0.3,0.1-0.4
		c0-0.1,0.2,0,0.3,0c0.2,0.1,0.4,0.2,0.5,0.3c0.6,1.1,1.3,2.1,1.5,3.4C178.4,60.5,178.1,59.1,177.3,58z M184.4,59.9
		c0.5,0.3,0.2,0.5-0.2,0.6c-0.9,0.2-1.7,0.3-2.6,0.4c-0.4-0.1-1-0.1-1.2-0.3c-0.4-0.6-0.7-1.4-0.7-2c0-0.3,0.5-0.8,0.9-1
		c0.1-0.1,0.5,0.2,0.8,0.3C182.4,58.4,183.4,59.1,184.4,59.9z M184.8,55c-0.4,0.6-1,1.2-1.5,1.7c-0.3,0.2-0.7,0.3-1,0.5
		c-0.3-0.2-0.5-0.3-0.7-0.5c-0.1-0.2,0-0.5,0.1-0.6c0.2-0.2,0.4-0.4,0.7-0.7c0.3-0.3,0.4-0.6,0.2-1.2c-0.2-0.8,0.2-1.8,0.5-2.6
		c0.1-0.2,0.5-0.3,0.8-0.3c0.3,0,0.6,0.1,0.8,0.2C185.7,52.5,185.7,53.8,184.8,55z M185.5,51.2c0.3-0.3,0.6-0.5,0.9-0.8
		c0.2-0.2,0.5-0.4,0.7-0.7c0.8-0.9,0.7-1.4-0.3-2c-0.3-0.2-0.7-0.4-0.9-0.7c-0.1-0.1,0-0.5,0.1-0.7c0.1-0.2,0.3-0.2,0.5-0.3
		c0.2,0.1,0.5,0.2,0.6,0.5c0.3,0.5,0.7,1,1,1.6c0.4,0.7,0.8,1.4,1.2,2c0.3,0.5,0.3,1-0.2,1.3c-0.7,0.3-1.5,0.5-2.3,0.5
		C186.3,51.9,185.9,51.5,185.5,51.2z M190.4,57.7c-0.1,0.9-0.5,1-1.3,0.5c-0.9-0.6-1.6-1.3-2.3-2.1c-0.2-0.3-0.4-0.9-0.3-1.2
		c0.3-0.8,0.5-1.4-0.3-2c0.7-0.2,1.4-0.4,2.1-0.5c1.1-0.2,2,0.4,2.2,1.5C190.5,55.2,190.5,56.5,190.4,57.7z M191.1,52.4
		c-0.3-0.3-0.7-0.5-0.1-1c0.4-0.3,0.1-0.7-0.3-1c-1.4-1.2-1.4-1.2-1.9-2.4c1.9-0.5,3.4,0,4.6,1.5c0.8,0.9,1.8,1.6,2.7,2.4
		C194.8,53.4,192.6,53.6,191.1,52.4z M198.1,53.8c-0.5,0.2-1,0.3-1.4,0.4c-0.4,0-0.7,0-0.8-0.1c-0.2,0-0.3-0.2-0.4-0.3
		c0-0.1,0.1-0.2,0.2-0.3c0.5-0.3,1.1-0.6,1.5-1c0.3-0.3,0.5-0.7,0.7-1.1c-0.4-0.2-0.7-0.5-1.1-0.6c-1.2-0.4-1.3-1-0.5-1.9
		c0.1,0,0.1-0.1,0.2-0.1c0.5-0.3,1-0.6,1.6-0.9c0.1,0.6,0.2,1.2,0.3,1.7c0.2,0.7,0.2,1.5,0.4,2.2C199.1,53.1,199.1,53.3,198.1,53.8z
		 M200.1,51c-0.3-0.2-0.8-0.3-0.9-0.6c-0.1-0.5,0-1.1,0.2-1.6c0-0.1,0.5-0.1,0.7,0c0.3,0.2,0.6,0.4,0.8,0.7s0.3,0.7,0.4,1.1
		C201,50.7,200.6,50.8,200.1,51z M202.8,47.8c-0.5,0.1-1.1,0-1.7,0c-0.9,0-1.6,0-2.2-0.7c-0.5-0.6-1.1-0.6-1.9-0.5
		c-0.9,0.2-1.7,0-2.6,0c1.3-0.6,2.6-1.2,3.5-2.4c0.4-0.5,0.9-0.4,1.3-0.2c1.5,0.5,2.9,1.2,3.9,2.4c0.3,0.4,1,0.8,1,1
		C204,48.2,203.3,47.8,202.8,47.8z M203.4,45.5c-0.7-0.5-1.4-1-2-1.6c-0.3-0.2-0.6-0.5-0.9-0.7c0.4-0.1,0.8-0.2,1.2-0.2
		c0.9-0.1,1.5,0.1,2.2,0.7c0.9,0.8,2,1.4,3,2.2c-0.4,0.1-0.7,0-1,0.2C204.9,46.6,204.1,46.1,203.4,45.5z M205.6,47.4
		c0.9-0.4,1.5-0.5,1.9-0.8c0.3-0.2,0.6-0.5,0.6-0.9c0-0.3-0.3-0.7-0.6-0.8c-0.9-0.3-1.7-0.5-2.2-1.3c2.2-0.5,2.5-0.3,3.5,1.5
		c0.4,0.8,0.8,1.6,1.2,2.4c0.1,0.2,0.2,0.3,0.3,0.7C208.7,48.2,207.3,47.9,205.6,47.4z M212.8,46.5c-0.5,0.1-0.7,0.2-0.9,0.2
		c-0.6-0.3-1.2-0.7-1.8-1.1c0-0.1,0.1-0.2,0.1-0.2c0.6,0.2,1.2,0.5,1.9,0.7C212.2,46.2,212.4,46.3,212.8,46.5z M217.6,49.7
		c0.8-1.5,1-2.9,1-4.5c0-1,0-1,0.6-2C221.9,45.8,221.3,48.5,217.6,49.7z M228.2,48.7c-0.2,0.2-0.4,0.3-0.6,0.5
		c-0.2,0.2-0.4,0.3-0.6,0.5c-0.6-0.9-1.2-1.8-0.9-2.7c0.3-0.9,0.9-1.6,0.3-2.6c0-0.1,0.1-0.3,0.2-0.3c0.2,0,0.4,0,0.5,0.1
		c0.2,0.3,0.4,0.7,0.6,1.1c0.2,0.3,0.4,0.8,0.7,1.1C229.6,47.6,229.6,47.6,228.2,48.7z M289.9,43.6c0,0,0.2,0,0.3,0
		c0.2,0.2,0.5,0.4,0.7,0.7c0.2,0.2,0.3,0.7,0.5,0.7c1.9,0.5,1.9,2.6,2.9,3.7c0.1,0.1,0,0.2,0,0.3c-1.4-1.4-2.7-2.8-4.1-4.3
		c-0.2-0.2-0.4-0.5-0.5-0.7C289.6,43.9,289.8,43.7,289.9,43.6z M285.2,43.4c0.3-0.4,0.7-0.3,1.1-0.1c0.7,0.3,0.1,0.7,0,1
		c0,0.1-0.1,0.2-0.2,0.3c-0.3,0.5-0.6,1-0.9,1.5c-0.5-0.3-1.1-0.7-1.5-1.1C284.2,44.5,284.7,44,285.2,43.4z M283.5,43.7
		c0.1-0.1,0.1-0.1,0.2-0.2c0,0,0,0.1,0,0.1C283.6,43.7,283.5,43.7,283.5,43.7c-1.3,1.6-3.1,2.1-5.2,2.2
		C280,45.2,281.8,44.5,283.5,43.7z M281.9,47c-0.1,0.2-0.4,0.3-0.5,0.3c-0.4-0.1-0.8-0.3-1.2-0.4c0-0.1,0-0.2,0-0.3
		c0.4-0.1,0.8-0.2,1.2-0.3c0.1,0,0.4,0,0.4,0.1C282,46.6,282,46.8,281.9,47z M277.3,43.5c1.3-0.7,2.7-0.7,4.3,0.2
		c-3,1.4-6,2.4-9.5,2.7C274.1,45.3,275.7,44.3,277.3,43.5z M271.9,45.3c0.4-0.3,0.8-0.7,1.4-1.1C273.2,45.3,272.6,45.3,271.9,45.3
		c-0.2,0.2-0.3,0.4-0.4,0.6c-0.2,0.3-0.3,0.8-0.4,1.2c-0.4-0.3-0.8-0.5-1.4-0.9C270.5,45.8,271.2,45.5,271.9,45.3z M271.5,48.5
		c-2,0.5-3-0.7-4.1-1.9C269.5,46,270.3,47.5,271.5,48.5z M260,45.4c0.6,0.1,1.3,0,1.9-0.1c-1.1,1.9-3,2.5-4.9,2.8
		c-1.9,0.3-3.8,0.3-5.4-1c1-0.7,2.1-1.5,3.5-1.7C256,45.4,259.1,45.4,260,45.4z M261.9,48c-0.1,0.1-0.2,0.3-0.3,0.3
		c-0.3,0-0.6,0-0.9,0c0-0.1-0.1-0.2-0.1-0.3c0.3-0.1,0.7-0.3,1-0.3C261.6,47.6,261.8,47.8,261.9,48z M255.3,50.5
		c-2.1-0.2-3.9-0.3-5.7-0.7c-0.8-0.2-1.2-0.7-1.7-1.5c1.7,0,3.2-0.3,4.5,0.4C253.4,49.2,254.2,49.8,255.3,50.5z M249.4,46.5
		c0.7,0.1,0.9-0.3,0.5-0.9c-0.2-0.3-0.5-0.5-0.7-0.9c-0.6-0.9-0.5-1.3,0.7-1.4c1.7-0.2,3.4-0.2,4.6,1.4c-0.8,0.4-1.7,0.8-2.5,1.2
		c-0.4,0.2-0.9,0.3-1.1,0.7c-0.7,1.2-1.8,0.7-2.9,0.9C248.4,46.8,248.6,46.4,249.4,46.5z M241.9,44.9c1.1-0.5,2.1-0.2,3.1,0.4
		c0.8,0.4,1.7,0.6,2.9,0.9c-0.4,0.3-0.8,0.9-1.1,0.9c-1.4,0-2.9,0.3-4.1-0.9c-0.5-0.5-1.1-0.8-1.8-1.2
		C241.3,44.9,241.6,45,241.9,44.9z M242.1,46.9c1,1,2.3,1.8,3.8,2.3c-0.2,0.1-0.3,0.1-0.5,0.2c-2.3,0.4-4.1-0.4-5.2-2.6
		c-0.1-0.2-0.3-0.3-0.5-0.5c-0.1-0.2-0.2-0.3-0.3-0.6C240.5,45.7,241.4,46.2,242.1,46.9z M242.8,51.2c-0.2,0.5-0.5,0.9-0.8,1.4
		c-0.2-0.2-0.6-0.4-0.6-0.7c-0.1-0.4-0.1-0.9,0.2-1.1c0.2-0.2,0.8-0.2,1.2-0.2C242.7,50.6,242.9,51,242.8,51.2z M230.6,43.5
		c0.5,0,1.1,0.1,1.6,0.3c1.2,0.5,2.5,1.1,3.8,1.7c-1.2,0.5-2.3,0.8-3.4,0c-0.6-0.5-1.5-0.5-2.2-0.9c-0.2-0.1-0.5-0.4-0.4-0.5
		C230.2,43.8,230.5,43.5,230.6,43.5z M230.6,48.9c-0.5,0-0.7-0.3-0.6-0.9c0.2-0.8,0.2-1.5,0.3-2.4c1.8,0.3,2.7,1.7,3.5,3.1
		C232.7,49.3,231.6,49,230.6,48.9z M233.7,47c0.2-0.1,0.3-0.2,0.4-0.2c0.7,0,1.2,0.5,1.2,1.2c0,0.1,0,0.2,0,0.2
		c-0.2,0-0.4,0.2-0.5,0.1C234.4,47.8,234.1,47.4,233.7,47z M235.8,54.6c-0.7,1-1.5,2-3.1,2.6c0.7-1.3,1.3-2.2,1.9-3.2
		c0.2-0.3,0.5-0.6,0.9-0.3C235.7,53.9,235.9,54.5,235.8,54.6z M238.1,55.1c-1-0.9-1.9-1.7-2.8-2.6c-0.2-0.2-0.5-0.4-0.7-0.7
		c-1.1-1.4-0.7-2.5,1.1-2.8c0.2,0,0.6,0.1,0.8,0.3C238.1,51,238.4,53,238.1,55.1z M239,51.8c-0.2-0.3-0.3-0.5-0.4-0.8
		c0-0.1,0.3-0.4,0.4-0.4c0.2,0.1,0.4,0.3,0.7,0.5C239.5,51.4,239.3,51.6,239,51.8z M236.1,47.5c-0.3-0.7-0.2-0.9,0.6-1.1
		c1.7-0.5,1.9-0.4,2.9,1c0.4,0.7,0.7,1.4,1.3,2.4C238.7,49.5,236.9,49.4,236.1,47.5z M245.9,55.2c0.1,0.2,0.1,0.4,0,0.5
		c0,0.1-0.3,0.2-0.4,0.1c-1.4-0.5-2.8-1-4.2-1.5c-1-0.5-1-0.6-1-2.2c0.5,0.6,0.9,1.2,1.3,1.7c0.4,0.4,0.8,0.4,1-0.2
		c0.2-0.6,0.5-1.2,0.8-1.9c0.9,0.4,1.5,0.8,1.5,1.9C244.9,54.2,245.6,54.6,245.9,55.2z M245.8,52.1c-0.8-0.4-1.7-0.7-1.8-1.9
		c0.6,0,1.1,0,1.7,0c0.2,0,0.5,0.1,0.6,0.3c0.4,1.1,1.4,1.7,2.2,2.4C247.5,52.9,246.6,52.5,245.8,52.1z M249,51.6
		c-0.7,0-1.4-0.3-1.7-1c0-0.2-0.1-0.4,0-0.5c0.1-0.1,0.3-0.2,0.4-0.3c0.2,0,0.3,0,0.3,0.1c1.6,1,3.5,1.1,5.3,1.4
		c0.3,0,0.8,0.2,0.9,0.5c0.5,0.9,0.9,1.7,1.2,2.7c0.1,0.2-0.1,0.7-0.3,0.8c-0.2,0.1-0.6,0-0.8-0.2c-0.5-0.4-1-0.9-1.5-1.4
		C252,52.4,250.7,51.7,249,51.6z M256.4,55.8c0.2-0.2,0.5-0.3,0.6-0.2c0.2,0.1,0.2,0.4,0.3,0.6c0.2,1.5-0.8,2.6-1.4,3.8
		c0,0-0.5,0-0.6-0.1c-1.2-1.3-2.5-2.4-4-3.3c-0.7-0.4-0.8-1.1-0.7-1.8c0.1-0.5,0.2-1.1,0.3-1.6c0,0,0,0,0,0c0.5,0.3,1,0.5,1.4,0.9
		c0.7,0.6,1.2,1.2,1.9,1.8C255,56.6,255.3,56.5,256.4,55.8z M255.9,49.1c1.3-0.2,2.4-0.3,3.6-0.5C258.5,50,257.3,49.8,255.9,49.1z
		 M264.2,55c-0.2,0.7-0.9,0.4-1.4,0.4c-1.3-0.1-2.6-0.3-3.5-1.5c-0.6-0.8-1.4-1.4-2.5-2.3c2.5,0.3,4.5,0.5,6,2
		c0.2,0.2,0.3,0.3,0.4,0.4C263.5,54.3,264.2,54.8,264.2,55z M265.2,51.7c-1,0.3-1.8,0.7-2.9,0.1c-1.1-0.5-2.4-0.5-3.7-0.8
		c0-0.2,0-0.3-0.1-0.4c0.6-0.3,1.2-0.6,1.8-0.9c0.8-0.4,1.7-0.5,2.5-0.2c0.8,0.3,1.6,0.6,2.4,0.9c0.3,0.1,0.5,0.4,0.8,0.6
		C265.8,51.3,265.5,51.6,265.2,51.7z M264.2,49.1c0,0-0.2,0-0.2-0.1c-0.3-0.9-0.6-1.7-1.7-1.9c0,0-0.1-0.4,0-0.5
		c0.3-0.5,0.6-0.9,0.9-1.4c0-1.1,0.9-1.3,1.5-1.3c1.8,0,3.6,0.2,5.4,0.3c0.1,0,0.3,0.2,0.7,0.5c-1.5,0.5-2.8,0.9-4.2,1.2
		c-0.3,0.1-0.7-0.2-1-0.3c-0.8-0.1-1.6-0.2-2.4-0.4c1,0.9,1.7,2.2,3.3,1.9c0.3,0,0.6,0.3,0.9,0.6c0.7,0.5,1.3,1.1,2.1,1.8
		C267.6,49.9,265.9,49.7,264.2,49.1z M273.5,52.3c-0.2,0.2-0.9,0.1-1.3,0c-1.3-0.3-2.5-0.7-3.6-1.5c0.2-0.1,0.3-0.2,0.3-0.2
		c1.2,0.2,2.4-1.1,3.6-0.6c1.1,0.5,2,1.3,3.1,2C274.9,52.2,274.1,51.4,273.5,52.3z M280.5,52.9c-1,0.7-2.3,0.8-3.4,0.1
		c-0.1-0.1-0.2-0.4-0.2-0.6c0-0.1,0.2-0.2,0.2-0.3c0.5-1,0.4-1.2-0.6-1.3c-1.5-0.1-2.6-0.6-3.3-2c-0.1-0.2-0.5-0.3-0.9-0.5
		c1.7-0.3,2.9-0.1,4,1.2C277.6,50.9,279.1,51.9,280.5,52.9z M275.8,47.7c1.7-1.1,3.4-0.5,5.1,0.3c0.9,0.4,1.7,0.8,2.6,0.9
		c0.3,0,0.6,0.2,0.9,0.3C281.1,51,278.2,50.5,275.8,47.7z M283.6,48c-0.7-0.2-1-0.9-0.6-1.6c0.2-0.3,0.6-0.5,0.9-0.2
		c0.6,0.6,1.2,1.2,2.1,2.1C284.8,48.2,284.2,48.2,283.6,48z M288.7,50c-0.7-0.3-1.1-0.4-0.9,0.6c0,0-0.3,0.2-0.4,0.2
		c-0.2,0-0.5,0-0.7,0c-0.6-0.1-1.4,0.4-1.8-0.4c-0.1-0.2,0.9-0.6,1-1.1c0.5-1,1.2-0.9,2-0.6c0.7,0.2,1.4,0.3,2.2,0.4
		C289.7,49.7,289.4,50.3,288.7,50z M290.1,50.8c0.6-0.7,1.2-1.4,1.8-2c-0.7-0.9-1.7-0.4-2.6-0.5c-1-0.1-2.2-0.1-2.7-1
		c-0.5-1,0.3-2.1,0.8-3.1c0.3-0.5,0.7-0.5,1.1-0.1c1.8,1.9,3.8,3.5,5.1,5.9c0.3,0.6,0.3,0.9-0.3,0.8
		C292.2,50.7,291.1,51.3,290.1,50.8z M295.4,54.1c0,0.1-0.3,0.3-0.3,0.3c-1.1-0.2-2.4-0.2-3.2-1.1c-0.7-0.7-0.5-1.4,0.4-1.6
		c0.3-0.1,0.7-0.1,0.9-0.1C294.5,51.7,295.6,52.9,295.4,54.1z M294.9,46.4c-0.2,0.1-0.4,0.1-0.6,0.1c0-0.3-0.1-0.7,0-0.8
		c0.5-0.3,1.1-0.5,1.6-0.7c0.1,0.2,0.2,0.3,0.3,0.4C295.8,45.7,295.4,46,294.9,46.4z M298.9,43.8c0,0.1-0.1,0.1-0.1,0.2
		c-0.1-0.1-0.2-0.2-0.3-0.3c-1.7-0.3-3.3,0.4-4.8,1.1c-0.5,0.2-0.9,0.3-1.1-0.3c1.1,0,2-0.5,2.7-1.3c1-1.2,1-1.2,2.4-0.3
		c0.3,0.2,0.6,0.5,0.9,0.8C298.6,43.7,298.8,43.8,298.9,43.8z"/>
	<path d="M68.3,240.7l-0.1-0.1c-0.7,0.1-1.2,0.5-1.5,1.2C67.5,241.8,67.9,241.2,68.3,240.7z"/>
	<path d="M58.9,245.5c-0.5,0-1,0.2-1.1,0.7C58.3,246.3,58.7,246.1,58.9,245.5z"/>
	<path d="M236.2,41.1h-1.1C235.7,41.9,235.7,41.9,236.2,41.1z"/>
	<path fill="#FFFFFF" d="M301.8,2.1h-164V2H1.9v10.4V13c0.9-0.4,1.2-1.2,1.5-2c0.2-0.7,0.4-1.4,0.7-2.1C4.3,8.4,4.6,8,4.9,7.6
		C5,7.5,5.3,7.5,5.5,7.3c1.1,0.6,2.2,1.2,3.2,1.8c0.2,0.1,0.4,0.4,0.3,0.5C9,9.8,8.7,10,8.5,10c-0.9,0.2-1.7-0.2-2.4-0.7
		C5.7,9.1,5,9,4.8,9.2C4.5,9.4,4.5,10,4.5,10.5c0.1,0.4,0.3,0.8,0.6,1.2C6,12.9,8,13.4,9.4,12.9c0.3-0.1,0.6-0.2,0.9-0.2
		c-1,1.4-2,2.7-3.6,3.3c-0.3,0.1-0.4,0.5-0.7,0.8c0.3,0.2,0.6,0.3,0.9,0.5c0.2,0.1,0.5,0,0.7,0c1-0.1,2.1-0.2,3.1-0.4
		c1.2-0.2,1.9-1,2.6-1.8c0.1,0,0.2-0.1,0.2-0.2c0.1-0.2,0.2-0.3,0.3-0.5c0,0,0-0.1,0.1-0.1c0.1-0.1,0.1-0.1,0.2-0.2
		c0.3,1.5,0.3,3,0.3,4.5c0,0.4,0,0.7,0,1.1c0.1,0.8,0.5,1,1.3,0.8c1.9-0.7,3.2-2.6,3.3-4.8c0-0.4,0.1-0.8,0-1.1
		c-0.2-1.2-0.2-2.3,1.4-2.5c0.2,0,0.4-0.3,0.6-0.5c0.2-0.1,0.5-0.2,0.6-0.2c1.5,1,3,0.4,4.5,0.1c0,0,0,0,0.1-0.1c0,0,0,0,0,0
		c0,0,0,0,0,0c-0.6,1.2-1.8,1.5-2.9,1.9c-0.2,0.1-0.5,0.3-0.7,0.4c0.2,0.2,0.3,0.6,0.5,0.7c0.8,0.4,1.5,0.8,2.5,0.5
		c0.5-0.2,1-0.1,1.5-0.1c0.4,0,0.9,0,1.4,0c-0.2,0.5-0.3,1-0.6,1.5c-0.2,0.3-0.5,0.5-0.8,0.8c-0.2,0.3-0.5,0.7-0.7,1
		c0.3,0.2,0.7,0.3,1.1,0.4s0.9,0.1,1.2,0c0.7-0.2,1.4-0.5,2.1-0.7c0.2,0,0.5,0.1,0.6,0.2c0.4,1.1,0,2.3-1,2.9
		c-0.6,0.4-1.2,0.7-1.7,1.1c-0.2,0.2-0.4,0.4-0.6,0.7c0.3,0.2,0.5,0.5,0.9,0.6c1.7,0.7,3.4,0.1,5-0.5c0.2-0.1,0.4,0,0.7-0.1
		c0,0.2,0,0.5-0.1,0.7c-0.4,0.9-1.2,1.4-1.9,2c-0.4,0.3-0.5,0.8,0.1,1c0.8,0.2,1.6,0.5,2.4,0.3c1.5-0.4,2.4,0.3,2.9,1.5
		c0.3,0.7,0.5,1.4,0.6,2.1c0.1,0.5,0,1,0,1.5c0,0.1,0.2,0.3,0.3,0.4c0.1,0,0.4,0,0.5-0.2c1.1-1.7,2.4-3.3,2.2-5.6
		c-0.1-0.7,0.1-1.4-0.5-1.9c-0.3-0.3-0.3-0.8,0.1-0.9c0.5-0.2,0.5,0.3,0.7,0.7c0.4,1.3,0.7,2.6,1.2,3.9c0.1,0.5,0.3,0.9,0.7,1.3
		c0.5,0.6,1.1,1.3,2,1c0.9-0.3,0.6-1.2,0.7-2v-1.9c0-0.6,0-1.3,0.1-1.9c1.1,1,2,1.9,3.1,2.8c0.2-0.4,0.5-0.8,0.5-1.2
		c0-1.4-0.1-2.7-0.1-4.1c0-0.5-0.1-1.1,0-1.6c0.1-0.5,1-1,0.4-1.4c-0.7-0.5-0.7,0.9-1.3,0.9c-0.1,0.1-0.1,0.1-0.2,0.2
		c0,0,0-0.1,0-0.1c0,0,0.1,0,0.2-0.1c0.2-0.4,0.2-1.1,0.5-1.3c1.2-0.7,2.6-1.2,3.8-1.9c0,0.1,0.1,0.2,0.1,0.3c0,0.2,0,0.3,0,0.5
		c0.1,0.8,0.4,0.9,0.9,0.4c0.5-0.6,1.2-1.2,1.5-1.9c0.2-0.4,0.3-0.8,0.3-1.2c0,0,0,0,0,0c0-0.9,0-1.7-0.2-2.6
		c0.1-0.1,0.3-0.1,0.4-0.2c0.9-0.4,1.1-0.4,1.1,0.5c0,1-0.1,2.1-0.2,3.1c0,0.2,0,0.4,0.1,0.5c0.2,0.1,0.5,0.1,0.7,0
		c0.3-0.1,0.5-0.3,0.7-0.6c0.6-0.7,1.1-1.4,1.7-2.2c0.7,1.1,1.3,2.1,1.9,3.1c0.3,0.6,0.9,0.7,1.3,0.2c0.4-0.5,0.7-1.2,1-1.8
		c0.8,1.3,0.8,1.3,0.5,2.2c-0.6,1.9-1.8,3.5-2.9,5.1c-0.5,0.6-0.4,1.1,0.3,1.4c0.3,0.1,0.6,0.1,0.9,0.2c1.1,0.2,2-0.3,3-1
		c0,0.4,0,0.6,0.1,0.9c0.3,0.7,0.3,1.3-0.2,1.9c-0.5,0.6-1,1.2-2,1.2c-0.8,0-1.1,0.4-0.9,1.2c0.3,1.1,0.7,2.2,1.7,2.9
		c0.6,0.4,1.6,0.9,2.2,0.7c1.7-0.5,3.2-1.5,3.6-3.4c0.2-0.7,0.3-1.2,0.9-1.5c1.5-1,2-2.6,2.5-4.3c0.3-1.1,0.7-2,1.7-2.5
		c1.5-0.9,2.3-2.4,3.2-3.8c0.4-0.6,0.8-1.2,1.2-1.8c0.4-0.5,0.8-0.4,1,0.2c0.2,0.4,0.2,0.9,0.2,1.4c0,0.5-0.1,1.1,0,1.7
		c0,0.1,0.4,0.3,0.5,0.2c1-1,2-1.9,3.1-2.9c0.1,0.3,0.3,0.6,0.4,0.9c0.4,0.8,0.7,0.9,1.4,0.3c0.4-0.3,0.7-0.7,1.1-1
		c0.4,1-0.3,1.7-0.4,2.6c-0.1,1.2-0.7,1.9-1.5,2.6l10.5-7.1c0.9-0.7,1.9-1.2,2.8-1.8c0.4-0.2,0.6-0.1,0.9,0.3c0.7,0.8,0.7,0.8,1.4,0
		c1-1,1.9-2.1,2.9-3.2c0,0,0,0,0,0.1c0.1,2,0.3,2.3,2.2,2.8c0.5,0.1,1.2,0,1.2,0.8c0,0.6,0.3,1.2,0.2,1.6c-0.2,0.7-0.7,1.3-1.2,1.8
		c-1.1,1-2.2,2-2.6,3.6c-0.1,0.3-0.3,0.7-0.5,1c-0.4,1.3-1.2,2.3-2.7,2.5c-0.3,0-0.6,0.4-0.7,0.7c0,0.2,0.3,0.6,0.5,0.7
		c0.8,0.2,1.6,0.2,2.4,0.5c0.7,0.2,1.6-0.9,2-0.1c0.4,0.6,0.2,1.5,0.2,2.4c0,0.3,0,0.6,0,0.9c0.1,0.4,0.2,0.9,0.5,1.2
		c0.6,0.7,1,1.5,1,2.5c0,0.6,0.5,0.7,0.9,0.2c0.7-0.9,1.4-1.9,2-2.9c0.1-0.1,0.1-0.4,0-0.5c-0.5-1-0.3-2.2-1-3.2
		c-0.9-1.2-0.6-2.8,0.8-3.3c1.3-0.5,1.5-1.2,1.5-2.4c0-0.3,0.3-0.7,0.3-1.1c0-0.8,0.5-0.9,1.1-0.9c1.3-0.1,2.6-0.3,3.9-0.4
		c0.5,0,0.7-0.3,0.7-0.7c-0.1-1,0.3-1.2,1.2-1.2c0.4,0,0.8-0.3,1.2-0.4c0.3-0.1,0.7-0.3,0.9-0.2c0.8,0.6,2,0.6,2.5,1.7
		c0.5,1.2,1.1,1.3,2.2,0.7c0.6-0.3,0.6-0.6,0.2-1.2c-0.3-0.5-0.7-1-1-1.5c0,0,0.3-0.4,0.4-0.4c0.9,0.3,1.8,0.7,2.7,1.1
		c1,0.4,1,0.4,1.7-0.6c0.5-0.7,0.6-0.7,1.3-0.2c1.6,1.2,3.3,2.2,4.9,3.3c0.7,0.5,1.6,0.5,2.4,0.3c0.9-0.3,1.7-0.7,2.5-1.2
		c0.3-0.2,0.7-0.6,0.7-0.9c0-0.6-0.6-0.5-1-0.5c-0.8,0-1.5-0.2-2-0.7c-0.7-0.6-0.7-1.1,0.1-1.4c1.2-0.5,1.9-1.6,3.2-1.7
		c0.3,0,0.6-0.3,0.9-0.5c0.2,0.3,0.3,0.7,0.5,1.1c0.7,1.9,2.6,3.4,5,2.9c0.5-0.1,1-0.2,1.5-0.2c1.9,0,3.5-0.8,5.1-1.5
		c0.3-0.2,0.6-0.4,0.9-0.7c0.3-0.4,0.2-0.7-0.3-0.8c-0.2,0-0.5,0-0.7-0.1v-0.2c0.5-0.1,1-0.2,1.5-0.2c0,0.2,0.1,0.3,0.1,0.4
		c-0.1,1.3-0.2,2.6-0.3,3.9c-0.1,0.9,0.2,1.2,1,0.9c1.1-0.3,2.1-0.8,2.7-1.9c0.5-1,1.1-2,1.1-2.9c-0.1-1.5,0.8-1.9,1.9-2.3
		c0.2-0.1,0.3-0.2,0.5-0.3c0.1,0,0.1-0.1,0.2-0.2c0,0,0,0.1,0,0.1c0,0-0.1,0-0.2,0.1c-0.1,0.2-0.1,0.5-0.2,0.7
		c-0.7,1.6-1.5,3.2-2.1,4.8c-0.3,0.9-0.3,0.9,0.7,1c1.2,0.1,2.4-0.2,3.4-0.7c0.8-0.3,1.1-0.1,1,0.8c0,0.5-0.2,1-0.3,1.5
		c-0.1,0.6,0.2,0.9,0.7,0.7c0.3-0.1,0.6-0.2,0.9-0.4c0.7-0.5,1.5-1.1,2.2-1.7c0.6,1.1,1.2,2.2,1.7,3.2c0.2,0.3,0.3,0.6,0.3,0.9
		c-0.2,1.4,0.7,1.7,1.7,2c0.5,0.2,0.9,0.3,1.4,0.3c1.4,0.2,2.8,0.3,4.6,0.6c-1.3-1.7-2-3.2-2.7-4.9c1.5,0.3,1.5,0.3,2.1,1.4
		c0.7,1.3,1.5,2.6,2.4,3.7c0.7,0.8,0.9,0.7,1.8,0c0.3-0.2,0.7-0.3,1-0.3c1.2-0.2,2.4-0.3,3.5-0.6c0.8-0.2,1-0.8,0.4-1.4
		c-0.7-0.8-1.5-1.5-2.2-2.2c0.7-0.6,1.4-1.1,2.2-1.7c1,1.7,2.4,2.9,4.1,3.6c0.8,0.3,1,0.2,1.1-0.6c0.2-1.1,0.3-2.2,0.4-3.3
		c0.1-1.7,0.9-2.2,2.5-1.5c0.2,0.1,0.4,0.3,0.6,0.4c1.5,1,3.9,0.7,5.4-0.7c0.2-0.2,0.4-0.7,0.3-0.9c-0.3-0.9,0.1-1.1,0.9-1.2
		c1.6-0.3,1.6-0.3,1.2-1.9c0-0.1-0.1-0.2-0.1-0.3c-0.3-0.6,0-0.8,0.5-0.8c2.4,0,4.7-0.1,7,0.5c0.7,0.2,1.4,0.2,2,0.1
		c0.5-0.1,0.9-0.5,0.4-1.1c-0.2-0.2-0.2-0.3-0.3-0.6c1-0.1,1.8-0.1,2.6-0.2c0.2,0,0.5-0.4,0.5-0.7c0-0.1-0.2-0.4-0.4-0.5
		c-0.2-0.1-0.5-0.2-0.7-0.2c-1.7-0.7-1.8-1.4-0.7-3.1c0.7,0.7,1.4,1.4,2.2,2c0.9,0.7,1.3,0.5,1.6-0.6c0.2-0.6,0.2-1.2,0.4-1.8
		c0-0.2,0.2-0.4,0.3-0.4c0.2,0.1,0.5,0.2,0.6,0.3c0.1,0.3,0.2,0.6,0.2,0.9c-0.1,1.1-0.2,2.2-0.4,3.3c-0.2,0.8-0.5,1.5-0.7,2.3
		c-0.2,0.5-0.5,0.9-0.7,1.3c-0.1,0.4,0.2,0.8,0.6,0.7c1.9-0.3,3.4-1.1,4.3-3.1c0.5-1.2,1.3-2.4,2-3.5c0.2-0.3,0.5-0.3,0.7,0
		c0.2,0.2,0.3,0.4,0.5,0.5c0.9,0.5,1.4,1,0.9,2.1c-0.2,0.4-0.1,1,0.1,1.4c0.5,1.3,1.1,2.5,1.7,3.8c0.1,0.2,0.5,0.3,0.7,0.4
		c0-0.2,0.2-0.5,0.2-0.7c0-0.3-0.1-0.6-0.2-0.9c-0.1-0.7,0.3-1.1,0.7-1.4c0.5-0.5,0.7,0.3,1,0.4c0.5,0.2,1,0.3,1.4,0.3
		c1.3,0,1.8,0.7,2.3,1.7c0.5,0.9,0.5,1.6-0.1,2.4c-1,1.4-1.4,3.1-3,4c-0.2,0.1-0.1,0.4-0.2,0.7c0.2,0,0.5,0.2,0.7,0.1
		c1.6-0.5,3.2-1,4.3-2.4c0.2-0.3,0.5-0.5,0.8-0.8c0.4-0.4,0.8-0.4,1,0.2c0.1,0.2,0.2,0.5,0.3,0.7c0.1,0.2,0.3,0.4,0.4,0.6
		c0.2-0.2,0.6-0.3,0.7-0.5c0.4-0.9,0.7-1.9,1-2.8c1,1.2,1.4,1.4,3.2,2c1.4,0.4,2.9,0.8,4,2.4c0.2-1.7,0.6-3.1-0.7-4.3
		c-0.1-0.1-0.1-0.3-0.1-0.5c0.2,0,0.5,0,0.7,0c0.7,0.2,1.4,0.5,2.1,0.7c0.4,0.1,0.7,0,1.1-0.1c0,0.1,0,0.2,0,0.4c0,0,0,0,0,0
		c-0.2,1.7,0.6,2.9,2.2,3.7c1.5,0.9,2.6,2,3.4,3.6c0.3,0.5,0.6,0.4,0.8,0c0.6-1.2,1.2-2.4,1.8-3.7c0.6-1.4,0.4-2.2-0.7-3.2
		c-0.9-0.8-1.2-1.8-0.9-1.8c0.8-0.1,1.4,0.5,1.8,1.1c1.5,2.2,3.8,2.3,6.1,2c0.5,0,1.1-0.5,1.5-0.9s0.3-0.7-0.2-1
		c-0.6-0.3-1.2-0.5-2-0.8c1.4-0.7,2.5-1.3,3.7-1.9c0.2-0.1,0.3-0.2,0.5-0.2c0.7,0,1.9,1.1,2.1,1.8c0.2,0.7,0.5,1.4,0.7,2.1
		c0.3,1.2,1,2.2,2,2.8c1.1,0.7,2,1.5,2.3,2.8c0,0.1,0.3,0.3,0.4,0.3c0.2-0.1,0.4-0.2,0.5-0.4c0.1-0.1,0.1-0.3,0-0.5
		c-0.7-1.5-0.5-3.1-0.6-4.8c0-0.5-0.2-0.9-0.3-1.4c0,0,0,0-0.1-0.1c-0.1-0.3-0.3-0.5-0.5-0.8c0.8-0.1,1.4,0,2.1,0.3
		c1.5,0.8,3.2,0.9,4.8,0.1c0.3-0.2,0.6-0.7,0.6-1c0-0.2-0.4-0.6-0.7-0.7c-0.6-0.2-1.3-0.4-1.9-1.2c1.9,0.3,3.7-0.7,5.3,0.7
		c0.1,0.1,0.3,0,0.5,0.1c1.2,0.3,2.3,0.1,3.4-0.2c0.8-0.2,1.3,0.1,1.6,0.8c1.2,2.4,3.2,3.5,5.7,3.1c0.9-0.1,1.1-0.5,0.6-1.4
		c-0.3-0.6-0.6-1.2-0.8-1.9c-0.1-0.3-0.1-0.7,0-0.8c0.4-0.3,0.9-0.6,1.4-0.2c0.2,0.2,0.4,0.5,0.4,0.7c-0.1,2.4,0.7,4.5,2.4,6.1v-1.1
		c0,0,0,0,0.1,0V2.1z"/>
</g>
</svg>
