<?xml version="1.0" encoding="utf-8"?>
<!-- Generator: Adobe Illustrator 18.0.0, SVG Export Plug-In . SVG Version: 6.00 Build 0)  -->
<!DOCTYPE svg PUBLIC "-//W3C//DTD SVG 1.1//EN" "http://www.w3.org/Graphics/SVG/1.1/DTD/svg11.dtd">
<svg version="1.1" id="Layer_1" xmlns="http://www.w3.org/2000/svg" xmlns:xlink="http://www.w3.org/1999/xlink" x="0px" y="0px"
	 viewBox="0 0 123 291.7" enable-background="new 0 0 123 291.7" xml:space="preserve">
<path d="M38.5,12.4c0.7,4.1,3,6.5,7.1,7.5c2.7,0.6,4.7-0.8,6.9-1.4c1.8-0.5,3.7-1.1,5.6-1.2c2.1-0.1,2.8,1.1,2.1,3.1
	c-0.7,1.9-1.6,3.8-2.7,5.6c-1.4,2.3-2,4.7-1.2,7.4c0.3,0.9,0.7,1.9,0.6,2.8c-0.2,2.5-0.1,4.4,3.2,3.6c1.7,1.9,3.5,3.7,5,5.8
	c0.3,0.5-0.1,1.9-0.6,2.5c-2.4,2.9-5.4,5.1-9,6.2c-1.2,0.4-2.5,0.7-3.7,1.1c-2.6,0.9-4.4,2.7-5.3,5.3c-1,2.7-2,5.4-3.1,8.1
	c-0.9,2.4-0.8,4.1,1.3,5.4c3.8,2.4,5.2,5.8,5.6,10.1c0.4,3.8,1.1,7.6,2.2,11.3c1.3,4.2,1.7,8.5,1.6,12.9c-0.1,4.6,1.4,8.9,2.2,13.4
	c0.4,2.2,0.8,4.4,1.3,6.6c1.2,5.4,2.7,10.8,3.7,16.3c0.7,3.6,0.9,7-0.7,10.8c-1.2,2.8-0.8,6.7-0.3,9.9c0.7,4.8,1.6,9.5,1.6,14.3
	c0,3.7,0.7,7.3,0.9,11c0.3,6.6-1,13.1-2.4,19.5c-1.3,5.8-2.6,11.5-3.3,17.4c-0.3,2.2,0.5,4.4,0.6,6.6c0.1,6.8,0.2,13.7-6.5,17.9
	c-1.9,1.2-2.6,2.8-2.8,4.8c-0.2,1.9-0.2,3.9,0,5.8c0.3,3.1,2.8,4.7,5.9,4.3c3.4-0.4,6.9-0.9,10.2,0.8c1.3,0.6,2.7,1,4.1,1.1
	c3.7,0.4,4.7-0.7,4.8-4.4c0-2.1,0-4.2,0.1-6.3c0-0.3,0.6-0.6,0.9-1c0.3,0.3,0.8,0.5,0.9,0.9c0.8,2.9,1.5,5.9,2.2,8.9
	c3.2-3,2.8-6.2,1-9.6c-0.3-0.6-0.4-1.4-0.6-2.2c0.9,0,2.4-0.4,2.7,0c2.5,3.9,4.1,1.1,6.2-0.5c1.5-1.2,3.4-1.8,5.1-2.6
	c0.3-0.1,1.2,0.1,1.3,0.3c0.1,0.5,0.1,1.3-0.1,1.6c-0.7,0.9-1.6,1.6-2.3,2.5c-0.5,0.7-1.3,2.1-1.1,2.2c0.9,0.8,2,1.4,3.2,1.7
	c0.7,0.2,1.5-0.6,2.3-0.7c1.3-0.1,1.6,0.8,1.6,1.9c-1.1,0.7-2.1,1.4-3.2,2.1c-1.6,1-2,2.4-1.3,4.1c2.9-1.1,5.1-2.6,4.5-6.2
	c1.2-1.7,2.4-3.4,3.6-4.9c0.3-0.4,1.1-0.3,1.6-0.5c0.1,0.4,0.3,0.9,0.2,1.3c-0.4,1.5-0.9,3-1.4,4.6c2.8-0.2,5.4-0.4,8-0.5
	c0.1,0.2,0.2,0.5,0.2,0.7c-1.2,0.9-2.4,1.8-3.5,2.8c-1.3,1.3-0.1,1.9,0.9,2.4c0.1,2.7,0.1,5.4,0.2,8.1c2.6-3,1.4-5.6-0.2-8.1
	c0.6-1.1,1.5-1.2,2.4-0.7c1.3,0.7,2.5,1.5,4,2.4c2.1-1.8,4.8-5.1,10.2-4.3c-1.5,1.4-2.5,2.4-3.5,3.3c-1.3,1.2-2.7,2.2-4.1,3.3
	c-1.9,1.6-3.3,3.3-2.2,6.1c0.3,0.8,0,1.8-0.7,2.8c-0.2-1.2-0.4-2.4-0.7-3.5c0-0.2-0.5-0.4-0.7-0.4c-0.2,0-0.5,0.5-0.5,0.7
	c0.2,0.9,0.5,1.9,0.6,2.8c0,0.6-0.4,1.1-0.6,1.7c-0.4-0.4-0.9-0.7-1.3-1.1c-0.2-0.2-0.5-0.5-0.7-0.7c-0.4,0.5-0.8,1-1.3,1.4
	c-0.3-0.7-0.7-1.4-1-2.1c-1-2.3-2-4.6-3.1-6.8c-0.2-0.4-0.7-0.8-1-0.8c-0.4,0-0.9,0.4-1.1,0.8c-0.7,1.4-1.5,2.7-2,4.2
	c-0.7,2.4-2.4,2.4-3.8,1.2c-1.4-1.2-2-1.1-2.7,0.4c-0.2,0.3-0.8,0.6-1.1,0.5c-0.3-0.1-0.7-0.7-0.7-1.1c-0.1-2.2,0-4.4-0.6-6.6
	c-0.5,3.2-1.1,6.4-1.6,9.6c-0.2,0-0.4,0-0.7,0c-0.1-1.2-0.2-2.5-0.4-4c-0.4,0.6-0.8,0.9-1,1.3c-0.6,1.5-1.1,3-1.7,4.4
	c-0.2,0.4-0.7,0.7-1,1.1c-0.2-0.6-0.5-1.1-0.7-1.7c-0.1-0.2,0.3-0.6,0.4-0.9c1.7-3.9,0.3-7.6-0.6-11.4c-0.1-0.4-0.2-0.8-0.3-1.3
	c-0.2,0.1-0.3,0.2-0.5,0.3c0.3,0.3,0.5,0.6,0.8,1c0,2.4,0,4.8-0.1,7.2c0,0.4-0.4,0.8-0.7,1.2c-0.4-0.4-1.1-0.7-1.1-1.1
	c-0.2-2.9-0.7-1.9-1.3-0.1c-0.1,0.2-0.8,0.4-1.2,0.3c-0.4-0.1-0.9-0.6-0.9-1c0-0.8,0.3-1.5,0.4-2.3c0.3-1.4,0.6-2.8,1-4.2
	c0.3-0.6,0.6-1.3,1-1.9c0.3-0.6,0.7-1.3,1-1.9c0.6-1,1.3-1.9,1.9-2.9c0.6-1,1.3-1.9,1.9-2.9c0.3-0.3,0.6-0.6,1-1c1-1,2-1.9,2.9-2.9
	c0.1-0.2,0.3-0.3,0.4-0.5c-0.2,0.2-0.3,0.3-0.5,0.5c-1.8,0.1-2.8,1.1-2.9,2.9c-0.3,0.3-0.6,0.6-1,1c-1.3,0.5-1.9,1.5-1.9,2.9
	c-0.6,1-1.3,1.9-1.9,2.9c-0.3,0.6-0.6,1.3-1,1.9c-0.3,0.6-0.6,1.3-1,1.9c-0.6,0.9-1.2,1.8-1.8,2.7c-0.4,0.7-0.1,2.1-1.5,1.6
	c-0.2-0.1,0.1-1.6,0.2-2.4c0-0.3,0.1-0.6,0.1-0.9c0.2-0.2,0.3-0.3,0.5-0.5c-0.2,0.2-0.3,0.3-0.5,0.5c-1.1,0.1-1.7,0.5-2,1.7
	c-0.6,2.7-2.5,3.7-5.1,4.3c-2.9,0.6-5.5,1-8.5,0.1c-2-0.6-4.3-0.7-6.8,0.5c1.5,1.3,2.6,2.4,3.9,3.3c2.2,1.6,4.5,2.2,7.2,1.2
	c3.1-1.2,6.4-2,9.7-2.9c0.9-0.2,2-0.4,2.8-0.2c1.1,0.3,2,1.1,1.4,2.6c-1.7,3.8-2.7,8.2-8.5,7.2c-4.5,3-9.1,1.5-13.9,1
	c-2.5-0.3-5.3,1-7.9,1.6c-1.9,0.4-3.7,1.1-5.6,1.1c-4.2,0.1-6.2-1.9-6.4-6c-0.1-1.5,0-2.9-0.1-4.4c-0.1-2-0.8-2.5-2.8-2.1
	c-1.4,0.3-2.9,1.6-4,0c-1-1.4-1.7-3.2-1.8-4.8c-0.1-2,0.5-4.1,1-6.1c1.4-4.7,3.1-9.4,4.4-14.2c0.4-1.4,0.1-3.4-0.7-4.5
	c-2.7-4-3.2-8.3-2.8-12.8c0.4-4.1,1-8.2,1.8-12.3c0.6-3.3,1.4-6.6,2.6-9.7c2-5.5,2.9-11.2,4-16.8c0.4-1.9-0.6-4.1-0.7-6.2
	c-0.1-1.4,0.6-2.9,0.3-4.1c-0.7-2.9-1.7-5.9-3-8.6c-0.8-1.6-2.4-2.9-3.8-4.2c-1.6-1.5-3.6-2.7-5.1-4.4c-3.5-4-4.7-9-5-14.2
	c-0.2-3-0.8-6.1-0.7-9.1c0.1-2,1.3-4,0.7-6.2c-0.2-0.8,0-1.7-0.4-2.4c-2-3.1-1.5-6.5-1.6-9.9c-0.2-5.3-1.3-10.7-0.7-15.8
	c0.9-7.6-0.2-15.5,2.4-22.9c0.5-1.5,0.3-3.2,0.3-4.8c-0.2-5.7,1.5-11.1,3.2-16.4c0.3-0.9,0.9-1.7,1.4-2.6c0.6-1.1,2.1-2.3,1.8-3.1
	c-0.7-2.2-1.8-4.5-3.2-6.4c-0.6-0.8-2.3-0.9-3.5-0.9c-2.4,0-5,1-7,0.3c-2.1-0.7-3.7-2.9-5.6-4.4c-1-0.8-2-1.6-3-2.4
	C5,50,4.8,50.3,4.8,50.6c0.2,0.8,0.9,2.3,0.8,2.3c-1.5,0.7-2.1-0.4-2.4-1.5C2,47.2-0.1,43.1,0,38.9c0.1-5.2,1-10.6,4.3-15
	c2.2-2.9,4.7-5.7,7.3-8.3c1.4-1.4,3.3-3,5.2-3.3c3.5-0.6,4.6-2.8,5.7-5.6c1.1-2.8,3.1-4.9,5.9-6.2C29.1,0.2,30.1,0,31,0
	c0.3,0,0.8,0.5,1,0.9c0.1,0.1-0.4,0.8-0.7,0.8c-2.3,0.5-4.1,1.8-5.6,3.6c-0.5,0.6-0.6,1.5-0.8,2.2c-0.3,0.3-0.5,0.6-0.8,1
	c0.2,0.1,0.3,0.2,0.5,0.3c0.1-0.4,0.2-0.8,0.3-1.3c1.1-0.9,2.2-1.9,3.3-2.8c3.9-3.1,8.5-3.4,13.2-2.9c0.7,0.1,1.3,0.8,1.9,1.3
	c0.9,0.7,1.7,1.4,2.5,2.2c0.7,0.7,1.4,1.5,2.1,2.3c-1.2,0.6-2.5,1.7-3.7,1.7c-2-0.1-4-1-6.7-1.8c1.4,2.1,2.7,3.2,4.3,4.1
	c0.8,0.4,1.6,1,2.2,1.7c0.2,0.2,0,0.9-0.1,1.3c0,0.1-0.6,0.1-0.8,0C41.7,13.9,40.1,13.1,38.5,12.4c-0.3-0.3-0.7-0.6-1-1
	c-0.3-0.3-0.6-0.6-1-1c-0.1-0.1-0.1-0.3-0.2-0.4C36.3,10,36.2,10,36.1,10c0.2,0.2,0.3,0.3,0.5,0.5c0.3,0.3,0.6,0.6,1,1
	C37.9,11.7,38.2,12.1,38.5,12.4z M16.2,53.1c0.1,0.1,0.1,0.3,0.2,0.4c0.1,0.1,0.2,0.1,0.3,0.1C16.5,53.4,16.4,53.3,16.2,53.1
	c0-0.1-0.1-0.3-0.2-0.4c-0.1-0.1-0.2-0.1-0.3-0.1C15.9,52.8,16,53,16.2,53.1z M81.2,258.8c0.1,0.1,0.1,0.3,0.2,0.4
	c0.1,0.1,0.2,0.1,0.3,0.1C81.5,259.1,81.4,258.9,81.2,258.8c-0.1-0.4-0.2-0.8-0.3-1.3c-0.2,0.1-0.3,0.2-0.5,0.3
	C80.7,258.1,80.9,258.4,81.2,258.8z M20.1,21.1c-0.3,0.6-0.7,1.3-1,1.9c-1.4,2.6-1.2,5.5-1.6,8.2c-0.4,2.5,0,5,1.2,7.3
	c0.2,0.5,0.7,0.8,1.1,1.2c0.2-0.7,0.8-1.8,0.6-2.1c-1.4-1.7-1.3-3.6-1.3-5.5c0-3.1,0-6.1,0-9.2C19.4,22.4,19.8,21.8,20.1,21.1
	c0.3-0.7,0.6-1.3,1-1.9c0.3-0.6,0.7-1.3,1-1.9c0.1-0.1,0.3-0.1,0.4-0.2c0.1-0.1,0.1-0.2,0.1-0.3c-0.2,0.2-0.3,0.3-0.5,0.5
	c-0.3,0.6-0.6,1.3-1,1.9C20.7,19.8,20.4,20.5,20.1,21.1z M6.5,25c-0.3,0.3-0.5,0.6-0.8,1C5.9,26,6,26.2,6.2,26.3
	C6.3,25.8,6.4,25.4,6.5,25c0.1,0,0.3-0.1,0.4-0.2C7,24.7,7,24.6,7,24.5C6.8,24.7,6.7,24.8,6.5,25z M18.1,18.2c-0.3,0.7-0.6,1.3-1,2
	c-0.3,0.5-0.7,0.9-0.9,1.4c-0.1,0.2,0.2,0.5,0.3,0.8c0.2-0.3,0.5-0.6,0.6-0.9c0.1-0.4,0-0.9,0.1-1.3C17.5,19.5,17.8,18.9,18.1,18.2
	c0.1,0,0.3-0.1,0.4-0.2c0.1-0.1,0.1-0.2,0.1-0.3C18.5,17.9,18.3,18,18.1,18.2z M52.1,202.5c0.3-0.3,0.5-0.6,0.8-1
	c-0.2-0.1-0.3-0.2-0.5-0.3C52.3,201.7,52.2,202.1,52.1,202.5c-0.4,0.1-0.8,0.2-1.2,0.3c0.1,0.2,0.2,0.3,0.3,0.5
	C51.5,203,51.8,202.8,52.1,202.5z M102.5,264.6c-1.3,0-1.9,0.6-1.9,1.9c-0.3,0.3-0.5,0.6-0.8,0.9c0.2,0.1,0.3,0.2,0.5,0.3
	c0.1-0.4,0.2-0.8,0.3-1.2C101.2,265.9,101.9,265.2,102.5,264.6c0.1-0.1,0.3-0.1,0.4-0.2c0.1-0.1,0.1-0.2,0.1-0.3
	C102.9,264.3,102.7,264.4,102.5,264.6z M17.2,40.5c0-0.5,0-1-0.1-1.4c0-0.3-0.2-0.6-0.3-0.9c-0.1,0.2-0.4,0.6-0.4,0.7
	C16.6,39.5,16.9,40,17.2,40.5c0.2,0.9,0.5,1.7,0.7,2.6c0.3-0.1,0.5-0.2,0.8-0.3C18.2,42,17.7,41.3,17.2,40.5z M43.4,6.6
	c0.1,0.1,0.1,0.3,0.2,0.4C43.6,7,43.7,7,43.8,7C43.7,6.9,43.5,6.7,43.4,6.6c-1.2-1.6-2.7-0.9-4.2,0C40.6,6.6,42,6.6,43.4,6.6z
	 M86,268.5c1.3-0.8,2.5-1.6,1.9-3.6C87.3,266.1,86.7,267.3,86,268.5c-0.1,0.1-0.3,0.1-0.4,0.2c-0.1,0.1-0.1,0.2-0.1,0.3
	C85.7,268.8,85.9,268.6,86,268.5z M92.8,271.4c1.4-0.7,2.5-1.6,1.9-3.6C94.1,269,93.5,270.2,92.8,271.4c-0.1,0.1-0.3,0.1-0.4,0.2
	c-0.1,0.1-0.1,0.2-0.1,0.3C92.5,271.7,92.7,271.5,92.8,271.4z M17.2,47.3c-0.3-0.3-0.7-0.6-1-0.9c-0.4-0.9-0.5-2-1.2-2.5
	c-3.1-2.7-3.9-6.2-3.7-10c0-1.4,0-2.8,0-4.3c-1.1,2.5-1.6,5.1-1.4,7.7c0.2,4.2,3.1,6.9,6.3,9.1C16.5,46.7,16.8,47,17.2,47.3
	c0.8,0.6,1.7,1.2,2.6,1.7c0.2,0.1,0.7-0.1,0.7-0.3c0.1-0.2-0.2-0.6-0.3-0.8C19.6,45.8,18.2,47.8,17.2,47.3z M8.5,41.5
	c0.1,0.4,0.2,0.8,0.3,1.2c0.2-0.1,0.3-0.2,0.5-0.3C9,42.1,8.7,41.8,8.5,41.5c-0.2-1.8,0.3-3.8-1.7-5.1C6.3,38.5,6.9,40.2,8.5,41.5z
	 M16.2,50.2c0.5,0.9,0.9,2,2.3,1.5c0.1,0,0.2-0.2,0.3-0.3C17.9,50.9,17.1,50.6,16.2,50.2c-1.1-1.9-2.7-3.1-4.5-4.1
	C12.7,48.1,13.7,49.9,16.2,50.2z M42.4,198.6c1.4-0.4,2.8-0.7,4.1-1.2c1.9-0.8,3.2-3.7,2.2-5.2c-2.1-2.9-2-6.4-3-9.5
	c-0.5-1.6-0.2-3.5,0.1-5.2c0.9-4.8,1-9.6-0.7-14.2c-0.8-2.3-1.1-5.5-5-3.8c-0.3,0.1-0.9-0.2-1.3-0.5c-4.9-2.8-11-3.1-15.6-8
	c0,3.5-0.4,6.1,0.1,8.6c0.9,4.4,2.2,8.6,6.3,11.4c1.9,1.3,3.6,3.1,5.3,4.7c2.7,2.7,4.4,6,5,9.9C40.5,189.9,41.5,194.3,42.4,198.6
	c-0.1,0.1-0.3,0.1-0.4,0.2c-0.1,0.1-0.1,0.2-0.1,0.3C42.1,198.9,42.3,198.8,42.4,198.6z M30.8,14.3c-0.1-0.1-0.1-0.3-0.2-0.4
	c-0.1-0.1-0.2-0.1-0.3-0.1C30.5,14,30.6,14.2,30.8,14.3c0.6,2.8,1.3,5.6,1.7,8.5c0.4,2.6,1,5.3-1.5,8.4c-0.5-5.7,0-10.8-2.6-16.1
	c0.2,3.6,0.3,6.4,0.5,9.2c0.2,2.9,0.6,5.7,0.9,8.6c0.2,3.1-0.7,3.8-4.5,4.1c-0.6,0-1.3,0.3-1.6,0.7c-2.2,2.8-1.7,6.4,1,8.5
	c2.3,1.8,4.7,2.6,7.6,1.8c1.2-0.3,2.6,0.1,3.9,0.2c-1.6,1.4-3.7,1.5-4.7,2.6c-0.9,1.1-0.5,3.2-0.7,5c0,0-0.3,0.2-0.6,0.2
	c-0.3,0.1-0.6,0-1,0.1c-2.3,0.3-2.4,0.4-1.2,2.5c1.9,3.5,2.6,6.9,0.2,10.4c-0.4,0.7-0.8,1.4-1,2.2c-0.5,1.5,0.5,2.7,2,2.2
	c1.3-0.5,2.5-1.4,3.5-2.4c1.2-1.1,2.2-1.8,3.8-1c0.6,0.3,1.2,0.4,1.9,0.5c1.5,0.2,2.6,0,3.1-2c1.1-4.5,2.5-8.9,3.9-13.3
	c0.3-1,1.4-1.8,2.1-2.7c-5.2-1.1-6.1-2-5.4-5.8c0.8,0.7,1.4,1.5,2.2,2c3.7,2.4,7.4,4.6,12,2.2c1.3-0.7,2.5-1.5,3.6-2.4
	c1.4-1,2.4-2.4,1.6-4.2c-0.7-1.6-2.1-1.6-3.7-1.1c-2,0.7-3.2-0.6-3.5-2.3c-0.6-3.6-1.1-7.3-1.2-10.9c-0.1-1.3,0.8-2.7,1.4-4
	c0.8-1.6,1.8-3,2.6-4.6c0.3-0.5,0.4-1.4,0.2-1.7c-0.3-0.3-1.2-0.4-1.7-0.3c-0.8,0.2-1.5,0.6-2.2,1c-4.6,2.4-9.2,2.7-13.7-0.4
	c-0.6-0.4-1.4-0.8-2.2-0.8c-2.1-0.1-1.4-0.7-0.7-2c0.9-1.8-0.8-3.8-2.8-3.5C32.9,13.9,31.8,14.1,30.8,14.3z M25.4,74.6
	c-0.6,2.3-1.1,4-1.4,5.7c-0.5,3.3-0.3,6.8-1.3,10c-2.3,7.5-1.8,15.3-2.4,22.9c-0.6,7,0.4,14.1,0.8,21.2c0,0.8,0.4,1.5,0.6,2.3
	c0.5,1.8,0.9,3.7,1.3,5.6c0.7,3.1,1,6.4,3.7,8.7c3.9,3.3,9,4,13.6,5.9c1.2,0.5,1.9-0.5,1.4-2c-0.6-2-1.3-4-2-5.9
	c-2.4-6.8-5.9-13.3-3.3-20.9c0.2-0.6,0-1.3-0.1-1.9c-0.6-3.3-1.2-6.6-1.7-9.9c-0.3-1.9,0.3-4.1-2.8-4.1c-0.4,0-1.1-1.8-1.1-2.8
	c-0.1-6.1-0.3-12.3,0-18.4c0.2-3.2,1.2-6.3,2-9.4c0.1-0.4,0.9-0.5,1.3-0.8c0.2,0.4,0.5,0.9,0.4,1.3c-0.5,2.8-1.6,5.6-1.7,8.4
	c-0.3,5.2-0.1,10.3-0.1,15.5c0,3.4,0.4,3.6,3.6,3.3c0.8-0.1,1.6-0.4,2.3-0.5c4.3-0.8,8.6-2.3,13.3-0.9c0-1.6,0.2-3,0-4.2
	c-1.3-7.2-2.4-14.5-4.1-21.6c-0.7-3-1.8-6.2-5.9-6.6c-0.9-0.1-1.7-0.8-2.5-1.3c-2.4-1.7-4.7-1.9-7,0.1
	C30.4,76.1,28.2,76.8,25.4,74.6z M57.7,157.1c-0.5,0.7-0.6,0.8-0.7,1c-0.6,3.8-1.6,7.5-1.8,11.3c-0.3,5.1-0.3,10.3,0.2,15.4
	c0.6,6,1,11.8-0.5,17.7c-0.2,0.9-0.6,1.9-1.3,2.4c-1.8,1.7-3.6,1.8-5.5-0.1c-1.9-1.9-4.3-0.9-6.3-1.9c-0.2,1.4-0.5,2.8-0.6,4.2
	c-0.2,1.7-0.2,3.4-0.3,5.1c-0.4,3.6-0.5,7.3-1.3,10.9c-0.6,2.8-1.3,5.6-1.2,8.5c0,1.7-0.4,3.5-0.6,5.2c-0.8,5.2,0.4,10.2,1.6,15.2
	c0.4,1.8,1.6,2,2.9,1.6c2.1-0.8,4-2.1,6.1-2.8c5.3-1.8,8-9.5,5.9-14.8c-0.3-0.8-0.3-1.9-0.2-2.8c0.2-1.6,0.5-3.1,0.7-4.7
	c0.6-4.1,1.2-8.2,2-12.3c1.2-7.1,2.8-14.1,3.7-21.3c0.4-3.1-0.8-6.4-0.7-9.5C60.4,176.1,58,167,57.7,157.1z M45.9,200
	c3.2,1.2,4.7-0.1,5.9-2.7c1.8-4,3.2-8,1.4-12.4c-0.4-1-0.2-2.2-0.2-3.4c0-5.9,0-11.9,0.9-17.8c1-7,0-14,0.1-21.1
	c0-0.8-0.1-1.6-0.1-2.4c-0.6-5.2-1.3-10.5-1.7-15.7c-0.3-3.4,0-6.8-0.1-10.2c-0.1-3.8-1.6-5.3-5.4-4.9c-2.2,0.2-4.4,0.7-6.6,1.2
	c-3.2,0.8-3.8,1.5-3.3,4.6c0.8,5.7,1.8,11.4,2.6,17c0.1,0.5,0.2,1.2,0,1.4c-2.6,2.4-0.9,5.2-0.2,7.4c1.9,6,4.4,11.7,6.6,17.5
	c2.3,6.2,4.1,12.3,2.3,19.1c-1.2,4.5-0.5,9.1,3.2,12.7c0.9,0.9,1.1,1.9,0.5,3c-0.5,0.8-1.3,1.7-1.3,2.5
	C50.3,199.1,48.4,199.9,45.9,200z M46.3,255.4c-3.6,0.3-4.9,1.8-4.9,5c0,2.8-1,5.6-1.5,8.4c-0.8,5.2-1.7,10.5-1.3,15.8
	c0.4,4.3,2.8,6,6.9,4.9c0.6-0.2,1.2-0.5,1.8-0.8c3.9-1.9,7.9-2.3,12.2-1.7c5.9,0.9,5.9,0.8,10.5-1.2c0.5-0.2,0.9-0.7,1.3-1.1
	c-0.5-0.2-1.2-0.8-1.6-0.6c-5.6,1.7-10.3,0.2-14.7-3.5c-0.9-0.7-2.4-1.3-3.4-1.2c-1.6,0.2-2-0.6-2.4-1.7c-1.5-3.7-2.8-7.5-2.8-11.6
	C46.3,262.8,46.3,259.2,46.3,255.4z M35.9,251.1c-0.3,6.3-2.2,11.5-4.2,16.8c-0.8,2.2-1.5,4.6-1.7,6.9c-0.2,1.8,0.9,2.3,2.9,1.9
	c3.5-0.8,4-1.3,4.6-4.9c0.6-3.6,1.2-7.2,1.8-10.8c0.1-0.9,0.3-2,0-2.9C38.4,255.9,37.3,253.9,35.9,251.1z M37.7,210.7
	c-1,3-2.3,5.9-2.9,9c-1.2,6.1-2.2,12.3-2.8,18.4c-0.3,2.8,0.7,5.7,1.1,8.5c0.1,0.4,0.5,0.9,0.9,1c0.5,0.2,1.2,0.2,1.8,0.2
	c0-0.4,0.1-0.9,0-1.3c-0.7-7.4-0.5-14.8,1.5-22C38.5,220,38.5,215.5,37.7,210.7z M66.6,274.8c0.9-0.3,2.7-0.9,4.5-1.6
	c0.4-0.2,0.6-1,0.9-1.5c-0.5-0.2-1.1-0.6-1.6-0.6c-3.2,0.4-6.7-0.8-9.7,1.2c-0.4,0.2-1.2-0.2-1.8-0.4c-1.7-0.6-3.3-1.4-4.9-1.9
	c-1.4-0.4-3-0.5-4.4-0.7c0.2,1.5,0.5,3.1,0.7,4.6c0.2,1.3,1.1,1.3,2.2,1.2c2.5-0.3,5.1-0.7,7.6-0.8
	C61.9,274.2,63.8,274.5,66.6,274.8z M57.3,154.5c2-0.8,2.7-2.4,2.4-4.3c-0.4-3.3-0.8-6.7-1.5-9.9c-1.2-5.6-2.6-11.1-4.1-17
	c0,2-0.1,3.7,0,5.4c0.5,5.7,1,11.4,1.9,17.1C56.5,148.7,55.3,151.8,57.3,154.5z M25.8,23c-0.7,1.1-1.1,1.4-1.1,1.8
	c-0.1,1.9,1.3,4.1-1.1,5.6c-0.1,0,0.1,0.6,0.2,0.9c0.3,0.6,0.7,1.2,1,1.8c0.3-0.5,1-1,1-1.5C25.8,29,25.8,26.3,25.8,23z M4.9,30.5
	c-0.2-0.1-0.4-0.2-0.6-0.3C3.8,33.1,3.3,36,3,38.9c0,0.3,0.6,0.7,0.9,1c0.2-0.3,0.6-0.6,0.6-1C4.6,36.1,4.7,33.3,4.9,30.5z
	 M20.4,26.3c0.4,0.2,0.7,0.3,1.1,0.5c0.6-3.1,3.2-5.4,2.6-9C22.9,20.6,21.6,23.5,20.4,26.3z M87.5,259.9c-1,1.4-2,2.6-2.8,3.8
	c-0.2,0.3-0.2,1,0,1.2c0.2,0.2,0.9,0.2,1.2,0C87.5,263.9,88.6,262.5,87.5,259.9z M10.2,24.7c-2,2.5-3.3,5.2-3.4,9.2
	c0.7-1.4,1.1-1.9,1.3-2.5C8.8,29.2,9.5,27,10.2,24.7z M10.5,48.5c-1.5-2.1-2.4-3.4-3.6-5.3C6.4,46.3,7.7,47.3,10.5,48.5z M21.1,29.5
	c0,2.1-0.1,3.2,0,4.3c0,0.4,0.6,0.8,0.9,1.1c0.2-0.6,0.7-1.2,0.6-1.7C22.5,32.3,21.9,31.4,21.1,29.5z M88.2,270.3
	c-0.3-0.1-0.7-0.2-1-0.3c-0.4,1.2-0.7,2.5-1.1,3.7c-0.1,0.3,0.2,0.6,0.3,0.9c0.2-0.1,0.6-0.2,0.6-0.4
	C87.4,272.8,87.8,271.6,88.2,270.3z M70.9,281.2c2.3,1.2,2.3,1.2,4.6,0C74,281.2,72.6,281.2,70.9,281.2z M13.9,36.3
	c-0.2,0.1-0.4,0.1-0.7,0.2c0.3,1.2,0.6,2.5,0.9,3.7c0.3-0.1,0.6-0.2,0.9-0.2C14.6,38.7,14.2,37.5,13.9,36.3z M97.5,270.4
	c-0.1-0.1-0.3-0.1-0.4-0.2c0,1.5,0,2.9,0,4.4c0.1,0,0.3,0,0.4,0C97.5,273.2,97.5,271.8,97.5,270.4z M25.5,53.3
	c0.3,0.3,0.5,0.6,0.6,0.6c0.7-0.2,1.4-0.4,2.1-0.7c0.1,0,0-0.5,0-0.7C27.2,52.7,26.4,53,25.5,53.3z M25.6,49.3
	c-0.7-0.3-1.2-0.6-1.8-0.8c-0.1,0.3-0.3,0.6-0.2,0.7c0.3,0.3,0.7,0.6,1.2,0.7C24.9,50,25.2,49.7,25.6,49.3z M100,270.7
	c-0.2-0.1-0.4-0.3-0.6-0.4c-0.2,0.4-0.5,0.7-0.5,1.1c-0.1,0.4,0.1,0.8,0.2,1.3c0.3-0.3,0.6-0.6,0.8-0.9
	C100,271.5,99.9,271,100,270.7z M26.6,12.3c-0.2-0.1-0.6-0.3-0.7-0.2c-0.2,0.1-0.4,0.5-0.5,0.7c0.3,0.1,0.6,0.3,0.8,0.2
	C26.4,12.9,26.5,12.5,26.6,12.3z M60.9,270.2c0.1-0.1,0.3-0.2,0.4-0.3c-0.1-0.1-0.3-0.3-0.3-0.3c-0.2,0.1-0.3,0.3-0.5,0.4
	C60.6,270.1,60.8,270.1,60.9,270.2z M104.3,268.5c-0.1-0.1-0.1-0.3-0.2-0.4c-0.1,0-0.2,0.1-0.3,0.2c0.1,0.2,0.3,0.4,0.4,0.6
	C104.2,268.7,104.2,268.6,104.3,268.5z M89.6,268.1c-0.1,0-0.3,0-0.3,0.1c-0.1,0.1-0.1,0.3-0.1,0.5c0.2,0,0.4-0.1,0.6-0.1
	C89.7,268.4,89.6,268.2,89.6,268.1z M32.1,10c-0.1-0.1-0.1-0.3-0.2-0.3c-0.1,0-0.3,0-0.4,0c0.1,0.2,0.2,0.3,0.3,0.5
	C31.9,10.2,32,10.1,32.1,10z M27.5,8.9c0,0.1,0,0.3,0.1,0.3c0.1,0.1,0.3,0.1,0.4,0.1c0-0.2-0.1-0.4-0.1-0.6
	C27.8,8.7,27.6,8.8,27.5,8.9z M98.4,263.8c-0.1-0.2-0.2-0.5-0.3-0.7c-0.1,0.1-0.3,0.2-0.3,0.3c0,0.2,0.2,0.5,0.2,0.7
	C98.2,264,98.3,263.9,98.4,263.8z M80.6,271c0,0.1-0.1,0.3-0.1,0.4c0.2,0,0.4,0,0.6,0.1c0-0.1,0-0.3-0.1-0.4
	C80.9,271,80.7,271,80.6,271z"/>
<path d="M10.4,279.1c-0.6,2.4-1.3,4.8-2,7.2c-0.1,0.5-0.7,0.9-1.1,1.3c-0.2-0.5-0.8-1.1-0.7-1.5c0.7-2.6,1.5-5.2,2.2-7.8
	c0.2-0.7,0.4-1.5,0.8-3.3c-1.8,1.6-2.7,2.5-3.7,3.3c-0.3,0.2-1,0.5-1.2,0.3c-0.4-0.4-1-1.1-0.9-1.5c0.4-1.9,1.4-3.6,3.2-4.6
	c1.3-0.7,2.6-1.1,3.9-1.6c0-0.4,0.1-0.7,0-1c-0.5-1.2-2.3-2.1-1.1-3.8c0.7-0.9,2.1,0,3.5,2.3c0.3,0.6,0.6,1.1,0.9,1.7
	c1.6,2.9,1.6,2.9,4.9,2.2c0.7,1.4,1.7,2.2,3.3,1.5c0.2-0.1,0.2-0.5,0.3-0.8c-1-0.2-2-0.5-3-0.7c-0.1,0-0.3,0-0.5,0
	c0.2-0.2,0.3-0.7,0.6-0.7c1.4-0.3,2.6-0.7,0.8-2.2c-0.4-0.4-0.6-1-0.8-1.5c0.6,0.1,1.2,0,1.7,0.2c1.1,0.3,1.4-0.4,1.5-1.3
	c0.2-1.4-0.2-3.7,1.4-3.6c2.1,0.1,1.5,2.4,1.6,3.9c0.1,3.2-0.4,6.4,0.9,9.5c0.3,0.8,0.3,2,0,2.9c-0.2,0.8-0.8,2-1.5,2.2
	c-1.4,0.4-1.2-1-1.4-1.9c-0.4-1.9-1-0.9-1.7-0.1c-0.8,0.8-0.8,0.8-1.7-0.9c-1.2,1.3,0.6,4-2,4.6c0.2-1.7,0.4-3.3,0.6-5
	c0-0.3,0.3-0.6,0.3-0.9c0-0.7-0.1-1.4-0.2-2.1c-0.8,0.3-1.9,0.4-2.5,1c-0.5,0.5-0.4,1.5-0.5,2.3c-0.1,1.6,0,3.1-0.8,4.7
	c-0.2-1.5-0.4-3-0.5-4.5c-0.2,0-0.3,0-0.5,0c-0.1,1.3-0.1,2.5-0.2,3.8c-0.1,1.3-0.2,2.7-1.2,3.9c0-1.9,0-3.9,0-7
	c-0.8,2.9-1.3,4.8-1.9,7.4C9.8,284,10.6,281.5,10.4,279.1c0.3-0.5,0.6-0.9,0.9-1.4c0.1-0.2-0.2-0.5-0.3-0.8
	c-0.2,0.3-0.4,0.6-0.5,0.9C10.4,278.2,10.4,278.7,10.4,279.1z M14.1,274.2c-0.1-0.1-0.2-0.3-0.2-0.4c-0.1,0.1-0.3,0.3-0.3,0.3
	c0.1,0.2,0.3,0.3,0.4,0.5C14,274.5,14,274.3,14.1,274.2z M11.2,274.2c-0.1-0.1-0.2-0.3-0.3-0.4c-0.1,0.1-0.3,0.3-0.3,0.3
	c0.1,0.2,0.3,0.3,0.4,0.5C11.1,274.5,11.1,274.3,11.2,274.2z"/>
<path d="M41.5,25.9c0.6,0.2,1.2,0.1,1.5,0.4c0.5,0.5,0.9,1.2,1.2,1.8c0,0.1-0.4,0.6-0.6,0.6c-0.6-0.1-1.1-0.4-1.6-0.7
	c-0.4-0.2-0.7-0.6-0.9-1C41,26.6,41.3,26.3,41.5,25.9z"/>
</svg>
