<?xml version="1.0" encoding="utf-8"?>
<!-- Generator: Adobe Illustrator 18.0.0, SVG Export Plug-In . SVG Version: 6.00 Build 0)  -->
<!DOCTYPE svg PUBLIC "-//W3C//DTD SVG 1.1//EN" "http://www.w3.org/Graphics/SVG/1.1/DTD/svg11.dtd">
<svg version="1.1" id="Layer_1" xmlns="http://www.w3.org/2000/svg" xmlns:xlink="http://www.w3.org/1999/xlink" x="0px" y="0px"
	 viewBox="0 0 34.6 21.8" enable-background="new 0 0 34.6 21.8" xml:space="preserve">
<path d="M22.1,21.7c-5.4-0.9-11.2-0.5-16-4.1C5.7,17.2,5,17,4.4,16.8C2,16,0,15.1,0,11.9C0,8.5,0.3,5.7,4,4c5-2.2,10.1-4,15.7-3.8
	c1.4,0.1,2.9,0.1,4.3-0.1c6.5-0.7,9.8,2.5,8.6,8.7c-0.3,1.6,0.4,1.9,1.3,2.6c0.3,0.2,0.7,1,0.6,1.1c-0.4,0.4-1,0.9-1.4,0.8
	c-1.2-0.3-1.7,0.1-2,1.2c-0.4,1.2-0.9,2.5-1.7,3.4C27.6,20.3,25.6,22.4,22.1,21.7z M24.7,2.1c-3.8,0.5-6.7,1.1-9.5,1
	C11.1,3.1,7.6,4.7,4.2,6.4c-1.4,0.7-2.4,3-2.7,4.7c-0.3,1.6,1.3,2.8,3,3.3c1.2,0.4,2.5,0.7,3.6,1.4c5.1,3.1,10.3,4.6,16.3,2.9
	c1.7-0.5,3-1.1,3.7-2.7c0.5-1.1,1.1-2.8,0.6-3.5c-1-1.4-1.7,0.6-2.7,0.8c-0.4,0.1-0.9,0-1.2-0.2c-0.2-0.1-0.2-0.6-0.1-0.9
	c0.2-0.6,0.5-1.2,0.9-1.7c0.8-1.3,1.1-4,3.4-1.2C29,9.6,29.8,9.4,30,9.1c1.7-2,1.4-4.2-0.9-5.6C27.5,2.7,25.6,2.4,24.7,2.1z"/>
</svg>
