<?xml version="1.0" encoding="utf-8"?>
<!-- Generator: Adobe Illustrator 18.0.0, SVG Export Plug-In . SVG Version: 6.00 Build 0)  -->
<!DOCTYPE svg PUBLIC "-//W3C//DTD SVG 1.1//EN" "http://www.w3.org/Graphics/SVG/1.1/DTD/svg11.dtd">
<svg version="1.1" id="Layer_1" xmlns="http://www.w3.org/2000/svg" xmlns:xlink="http://www.w3.org/1999/xlink" x="0px" y="0px"
	 viewBox="25 64.7 219.1 377.7" enable-background="new 25 64.7 219.1 377.7" xml:space="preserve">
<path d="M141.5,70.7c-5.9,7.9-9.9,15.8-25.7,12.8c-35.7-6.9-61.3,1.3-75.1,22.1c-3.7,1.5-5.9,5.1-6.4,9.3c-0.1,0.9-0.1,1.7-0.2,2.5
	c-4.5,0.5-8.5,3.7-8.2,9.6c1.2,18.9,3.2,36.9,15.7,51.1c20.7,23.3,27.5,66.8,29.6,76.1c2.1,9.6,4.8,19.2,5.5,29.1
	c0.6,8.7-1.7,17-3.5,25.5c-0.6,2.8-11.1,17.4-11.5,20.2c0,0,0,0,0,0c0,0,0,0,0,0c-27,0-43,20.6-34.5,45.4
	c22.1,64.1,69.1,67.9,121.4,67.9c49.2,0,77.1-57.8,73.8-76.3c-2-11.1-7.7-16.4-14-17.2c-2.2-0.8-4.2-1.4-5.4-1.9
	c-7.9-6-6.8-5.8-9.6-15.3c-5.9-23.8-21-49.9-15.8-73.8c3.5-16,13.3-33.7,31.9-46c10.1-6.7,26.7-31,27.7-31.8c4.5-2.3,5.8-7,4.9-11.2
	c0.6-0.5,1.3-1,1.9-1.6c-2.9-22.8-19.7-38.1-38.4-52.1c-8.9-7.9-21.7-12.8-33.6-16.8c-10.9-3-14.8-7.9-11.8-19.7
	c1-3.9-3.9-9.9-7.9-13.8C151.3,63.8,143.4,67.8,141.5,70.7z M140.7,420.1c-26.8,2.8-67.9-9-82-31c-10.1-15.8-12-27.1-7.6-39.9
	c6.5,10.6,19,18.4,30,24.1c12.6,6.5,26.8,8.1,40.7,9.1c20.9,1.5,42-0.1,62.8-3.5C177.7,405,159.1,418.2,140.7,420.1z M159.2,249.2
	c-8.3,34.1,8,70.4,20.1,103.3c-16.4,2.5-33,3.8-49.7,3.3c-11.6-0.3-23-1.2-33.9-5.3c-5.2-2-10.6-6.5-14.6-11.5
	c-0.2-6.1,11.3-24,12.6-30c2-9.1,3.6-18.2,2.9-27.5c-0.7-9.7-3.1-19.3-5.2-28.8c-2-9.3-4.1-18.6-6.4-27.9
	c-4.4-18.4-29.5-54.2-31.3-59.9c1,1.1,2.1,2.2,3.2,3.3c13.6,13.4,31.4,21.9,49.7,26.6c30.2,7.7,60.9,3.9,90.8-3.4
	c-1,1.9-1.2,4.4-2.9,5.6C173,212.8,163.6,231,159.2,249.2z M116.8,107.3c3,3,4.9,10.9,3.9,11.8c-27.6,22.7-1,25.7,11.8,33.6
	c4.9,3.9,10.9,6.9,16.8,8.9c3,1,7.9,1,8.9-1c2-3,3-7.9,2-11.8c-2-9.9-21.7-16.8-7.9-26.7c6.9-4.9,23.7,1,34.6,5.9
	c15.8,6.9,21.7,19.7,26.7,36.5c0.2,0.6,0.3,1.2,0.5,1.8c-31.2,9.1-63.8,16.8-96.1,10.6c-13.2-2.5-28.2-8.4-40.4-17.2
	c-5.4-7.9-10.8-15.9-16.1-23.8c-2-2.9-1.6-4.6-1.6-8.1c0-2,0-4,0-5.9c0.6-1.9,1.2-3.8,1.8-5.7C75.3,93.5,97.1,90.5,116.8,107.3z"/>
</svg>
