<?xml version="1.0" encoding="utf-8"?>
<!-- Generator: Adobe Illustrator 18.0.0, SVG Export Plug-In . SVG Version: 6.00 Build 0)  -->
<!DOCTYPE svg PUBLIC "-//W3C//DTD SVG 1.1//EN" "http://www.w3.org/Graphics/SVG/1.1/DTD/svg11.dtd">
<svg version="1.1" id="Layer_1" xmlns="http://www.w3.org/2000/svg" xmlns:xlink="http://www.w3.org/1999/xlink" x="0px" y="0px"
	 viewBox="0 0 84 85.8" enable-background="new 0 0 84 85.8" xml:space="preserve">
<path d="M30.7,21.4c1.6-1.6,2.3-2.7,3.3-3.3c1.5-0.9,3.2-1.5,4.9-2c4-1.3,7.8,0.8,8.1,5.1c0.2,3.1-0.4,6.4-1.1,9.5
	c-0.3,1.6-1.9,2.4-3.6,2.8c-2.2,0.5-3.7,1.8-4.5,3.9c-0.3,0.9-0.9,1.8-1.6,2.3c-3.3,2.6-12.7,2.3-15.9-0.5c-0.5-0.4-1.1-0.9-1.2-1.4
	c-0.2-5-1.2-10.2,3.7-13.7c1.8-1.3,3.5-2.7,4.1-5.1c0.1-0.6,1.5-0.9,2.3-1.2c0.1,0,0.7,1,0.7,1.1c-1.4,1.6-1,2.9,0.9,3.1
	c5.2,0.6,6.8,4.2,7.7,8.5c0.4,1.7,1,1.7,2.3,1c3.2-1.6,4.6-4.4,4-7.9c-0.2-0.9-0.5-1.9-0.5-2.8c0-1.9-1.4-2.4-2.7-2.9
	c-0.3-0.1-0.8-0.2-0.9-0.1c-1,0.9-0.7,3.4-3,2.6c-1.7-0.6-3.1-0.5-4.5,0.4C32.7,21.1,32.2,21.1,30.7,21.4z M28.2,39
	C28.2,39,28.2,39,28.2,39c0.8,0,1.6,0,2.4,0c4.2-0.2,5.5-1.7,5.8-6c0.2-2.8-1-5-2.4-7.2c-0.3-0.6-1.6-0.9-2.4-0.8
	c-2.3,0.4-4.3,2.2-6.8,0.7c-0.3-0.2-1.2,0.4-1.6,0.8c-2.1,1.9-3.3,7.2-2.1,9.9c1.3,3,4.1,2.6,6.6,2.6C27.9,39,28.1,39,28.2,39z"/>
<path d="M53.9,85.8c-4.7-0.2-8.5-2-12.1-4.1c-2.9-1.7-3.9-5.6-2.9-8.9c0.5-1.7,1.2-3.3,2-4.9c0.3-0.7,1-1.3,1.6-1.6
	c2.8-1.1,5.7-2.1,8.6-3c4.3-1.3,7.8,0,10.5,3.5c0.9,1.1,1.6,2.4,2.6,3.5c2.3,2.4,2.2,2.3,0.4,5.2c-0.9,1.3-1.3,2.9-2,4.3
	C60.9,83.6,57.6,85.3,53.9,85.8z M55.6,75.6c0.3-1.2,0.6-2.6,1.1-3.9c0.2-0.5,0.7-0.9,1.1-1.4c0.5,0.5,1.3,1,1.4,1.5
	c0.2,1.7,1.3,1.2,2,0.7c0.4-0.3,0.8-1.5,0.6-1.9c-1.2-1.7-2.6-3.2-4-4.8c-0.3-0.3-0.9-0.5-1.3-0.4c-3.7,1.1-7.6,0.7-11.2,2.4
	c-3.1,1.4-4.7,3.5-4.7,6.9c0,2.7,1.7,4.9,4.7,6c1.5,0.6,3,1.1,4.5,1.7c4.6,1.9,9,0.2,11.2-4.4c0.2-0.5,0.4-1.6,0.2-1.7
	c-0.7-0.3-1.5-0.3-2.2-0.5c-0.1,0.5-0.2,1-0.3,1.5c-0.1,0.6-0.3,1.2-0.4,1.7c-0.7-0.4-1.6-0.6-2-1.1C55.8,77.6,55.9,76.7,55.6,75.6z
	"/>
<path d="M84,50.9c-0.6,1.6-1.3,4.3-2.6,6.5c-1.5,2.5-4.2,3.5-7.1,3c-5.1-0.9-9.7-2.8-11.4-8.2c-0.5-1.6-1.6-2.2-2.5-3.3
	c-1.2-1.4-0.5-3.9,1.1-3.6c2.6,0.4,3.5-1.2,4.5-2.6c1.6-2,3.4-2.5,5.8-2c1,0.2,2.3,0.3,3.2-0.2c2.6-1.2,4.4-0.1,5.8,1.8
	C82.6,44.5,84,46.9,84,50.9z M77.1,42.3c1,3.3-1.7,6.1-0.2,9.2c0.1,0.2-0.4,0.9-0.7,1c-1,0.4-2.1,0.8-3.2,1c-0.3,0.1-0.8-0.6-1.1-1
	c-0.3-0.5-0.2-1.5-0.5-1.6c-2.3-0.6-1.8-1.3-0.2-2.2c0.8-0.5,1.9-0.7,2.6-1.3c0.6-0.6,1.2-1.5,1.2-2.4c0.1-1.3-1-1.8-2.3-2
	c-4.6-0.8-8.9,3.6-8,8.4c0.7,3.7,3.9,4.9,7,5.7c2.8,0.8,5.9,1.1,8.1-1.4C83.5,51.5,82.4,46.1,77.1,42.3z"/>
<path d="M68.5,38.1c-1.9-0.5-4.7-1.2-7.6-1.7c-3.7-0.7-5.7-2.8-6-6.4c-0.3-3.6,0.8-6.9,3.9-8.8c4.9-2.8,10.4-3.2,15.9-2.1
	c2.2,0.4,4.2,1.9,3.7,4.8c-0.2,1.1,0.2,1.7,1.2,1.2c1.2-0.5,2.4-0.8,2.7,0.7c0.2,0.9-0.6,2.1-1.3,2.9c-0.4,0.5-1.5,0.8-2.2,0.7
	c-2.2-0.1-2.6,1-2.7,3C75.9,36.2,73.4,38.2,68.5,38.1z M67.7,35.6c0-0.1,0.1-0.3,0.1-0.4c0.5,0,1,0,1.4,0c3.7,0,4.3-0.5,4.9-4.3
	c0.1-0.8,0-1.6,0.1-2.4c0.1-1.6,0.2-3.2,0.5-4.8c0.4-2.2-0.1-2.6-2.3-3.1c-4.5-1-8.1,2.3-12.3,2.4c-0.7,0-1.6,1.5-2.1,2.4
	c-0.5,1-0.6,2.1-0.8,3.2c-0.4,2.4,0.3,4.2,2.6,5C62.3,34.6,65,35,67.7,35.6z"/>
<path d="M9.3,19.2c-2.1-0.5-4.5-0.6-6.3-1.6C-0.3,15.9-0.8,10.9,1,7.3c2.7-5.5,8-10.3,16.7-5c0.8,0.5,2,0.4,3.1,0.4
	c0.9,0.1,1.8,0,2.6,0c-0.3,0.8-0.7,1.6-1,2.5c-0.2,0.7-0.6,1.7-0.3,2.2c1.8,3.2-0.1,5.8-1.7,8c-1.6,2.1-4.3,3.3-7.2,3.3
	c-1.3,0-2.6,0-3.9,0C9.4,18.9,9.3,19.1,9.3,19.2z M10.8,5.1c-0.1,0.4-0.2,0.7-0.4,1.1C9,6.1,7.6,6,6.2,6.2c-2.2,0.2-4.3,2.7-4.5,5
	c-0.2,2.3,2.1,5.3,4.5,5.5c2.7,0.2,5.5,0.3,8.2,0c3.2-0.3,5.2-2.3,6.3-5.3c1-2.7-1-4.2-2.6-5.7c-1-1-2.1-2.1-3.4-2.6
	C12,1.9,9.3,1.4,6.7,3.6C8.3,4.2,9.5,4.6,10.8,5.1z"/>
</svg>
