<?xml version="1.0" encoding="utf-8"?>
<!-- Generator: Adobe Illustrator 18.0.0, SVG Export Plug-In . SVG Version: 6.00 Build 0)  -->
<!DOCTYPE svg PUBLIC "-//W3C//DTD SVG 1.1//EN" "http://www.w3.org/Graphics/SVG/1.1/DTD/svg11.dtd">
<svg version="1.1" id="Layer_1" xmlns="http://www.w3.org/2000/svg" xmlns:xlink="http://www.w3.org/1999/xlink" x="0px" y="0px"
	 viewBox="0 0 149.8 41.7" enable-background="new 0 0 149.8 41.7" xml:space="preserve">
<path d="M73.2,21.5c-5.9,0.2-10.3-3-11-9.6c-0.2-1.7-1.1-3.6-0.7-5.1c1-4,5.2-7.7,10.3-6.5c2.8,0.6,5.7,1.4,7.6,3.9
	c1.1,1.4,2.2,1.6,3.7,0.7c0.3-0.2,1-0.2,1.2,0c0.2,0.3,0.3,1.1,0.1,1.3c-2.1,2.2-1.6,4.4-1,7.1c0.8,3.2-3.7,7.7-7.4,8.2
	C75.1,21.6,74.1,21.5,73.2,21.5z M70,3.1c-2.3-0.7-3.5,1.3-5.1,2.6c-1.8,1.4-0.8,2.9-0.6,4.4c0.2,1.6,0.5,3.2,1.1,4.7
	c2.2,5.1,10.2,6.6,13.9,2.6c0.9-0.9,1.2-2.5,1.4-3.9c0.3-2-1.7-0.7-2.4-1.4c-0.2-0.2-0.6-0.2-0.9-0.4c-2.1-1.4-1.9-2.9,0.5-4.3
	C78.2,7.2,78.3,6,78.1,6C75.6,4.9,73.4,2.6,70,3.1z"/>
<path d="M100.7,26.3c-0.3,0-0.6,0-1,0c-4.1-0.1-7.6-1.1-9.3-5.3c-1.9-4.7-1-8.8,2.5-12.3c1.6-1.6,4.4-2.3,4.8-5.1
	c0-0.2,1.4-0.6,1.6-0.3c2.4,2.3,5.4,2.5,8.4,2.6c2.1,0.1,3.2,1.3,4.1,2.9C116.4,17,110.6,26.2,100.7,26.3z M110.8,14.9
	c-0.3-7.4-2.8-8-7.7-6c-0.1,0.1-0.3,0.1-0.5,0.2c-1.6,0.7-3.4,2.5-4.7-0.5c-0.1-0.1-0.9-0.1-1.2,0c-2.6,1.1-5.3,5.7-5.1,8.7
	c0.2,3.5,2.1,6.1,5.9,6.5c3,0.3,6.2-0.6,9.3-1c0.3,0,0.5-0.4,0.7-0.6C109.3,19.9,111.4,17.8,110.8,14.9z"/>
<path d="M0,19.5c0.2-1.3,0.1-2.8,0.8-3.7c0.9-1.3,0.8-2,0-3.3c-1.1-1.7-0.3-2.6,1.7-2.7c0.3,0,0.7-0.1,1,0c4.2,1,8.1,0.8,11.9-1.6
	c1.6-1,3.4,0.3,4.4,1.9c2.3,3.9,3.1,8.1,2.8,12.5c0,0.3-0.1,0.6-0.2,0.9c-1.1,3-9,8.4-12.3,8.5c-3,0.1-5.6-1.2-7-3.6
	C1.5,25.8-0.1,22.9,0,19.5z M2.2,20.1c0,0.4-0.1,1.3,0.1,2c0.4,1.4,1.1,2.6,1.7,4c1.4,3.4,4.3,5.1,7.5,3.6c3-1.4,5.8-3.4,8.4-5.5
	c1.1-0.9,1.9-2.6,1.3-4.4c-0.7-2.1-1.3-4.3-2.2-6.3c-1.2-2.9-2.5-3.4-5.3-2.2c-1.3,0.5-2.5,1.4-3.8,2c-1.1,0.5-2.2,1.1-3.4,1.4
	C3,15.4,2.2,16.2,2.2,20.1z"/>
<path d="M53.6,31.2c-0.2,1.9-1,3.8-2.8,5.1c-3.5,2.6-7.3,4.6-11.6,5.4c-2.7,0.5-7.2-1.9-8.9-4.7c-3.1-5.3-0.9-10.9,5-12.7
	c1-0.3,2-1,2.9-1.6c4.9-3.5,9.6-2.6,13.1,2.5C52.4,26.9,53.6,28.6,53.6,31.2z M38.5,26c1.3,0.2,2.6,0.3,3.8,0.6c0.4,0.1,1.1,1,1,1.3
	c-0.2,0.5-0.9,1.1-1.4,1.1c-0.7,0.1-1.5-0.3-2.3-0.5c-1.4-0.4-2.7-1-4.2-1.2c-1-0.1-2.4,0.2-3,0.8c-2.9,3.1-2.3,7.2,1.3,9.5
	c1.7,1.1,3.5,1.8,5.8,1.4c3-0.5,5.4-1.8,7.9-3.3c5.2-3.3,4.8-6,1.7-10.2c-1.3-1.8-3-2.3-5.1-2.2C42,23.5,39.6,23,38.5,26z"/>
<path d="M135.7,23.4c-5.9,0-9.4-4-8.3-9.4c0.9-4.4,2.5-8.4,7.8-9.3c0.9-0.2,1.7-0.9,2.7-1.1c0.6-0.1,1.8,0,1.9,0.4
	c1,2,2.3,1.7,4,1.1c1.7-0.6,3.2,0.1,3.9,1.9c0.4,0.9,1,1.7,1.3,2.6c1.7,6.2,0.7,8.9-4.1,11.3C141.9,22.4,138.8,23.7,135.7,23.4z
	 M147.6,13.1c0-4.5-1.5-5.8-5.9-5.2c-0.8,0.1-1.5,0.6-2.3,0.6c-1.1,0-3.6,3.5-3.1-1.1c0-0.1-1.2-0.5-1.6-0.3
	c-4.5,1.5-6.9,8.7-3.9,12.4c0.7,0.9,2.1,1.7,3.2,1.7c2,0.1,4.1-0.4,6.2-0.8C144.9,19.7,147.7,17,147.6,13.1z"/>
</svg>
