<?xml version="1.0" encoding="utf-8"?>
<!-- Generator: Adobe Illustrator 18.0.0, SVG Export Plug-In . SVG Version: 6.00 Build 0)  -->
<!DOCTYPE svg PUBLIC "-//W3C//DTD SVG 1.1//EN" "http://www.w3.org/Graphics/SVG/1.1/DTD/svg11.dtd">
<svg version="1.1" id="Layer_1" xmlns="http://www.w3.org/2000/svg" xmlns:xlink="http://www.w3.org/1999/xlink" x="0px" y="0px"
	 viewBox="0 0 84.8 117.7" enable-background="new 0 0 84.8 117.7" xml:space="preserve">
<path d="M24.1,76c0.6-2.3,1.2-4.6,1.8-6.9c0.5-1.8,1.8-3,3.6-3.6c1.5-0.5,3-0.8,3.9-2.5c0.8-1.3,1.5-0.4,1.8,0.8
	c0.1,0.6,0.3,1.2,0.5,1.8c0,0.1,0.3,0.2,0.4,0.1c0.3-0.1,0.6-0.3,0.7-0.5c0.1-0.3,0.1-0.6,0.1-0.9c-0.4-1.5-1.5-3,0.1-4.5
	c1.6-1.5,2.8-3.8,5.5-3.5c2.4,0.3,2.5-2.2,4-3c0.5-0.3,1.1-0.3,1.7-0.5c0,0.6,0.2,1.3-0.1,1.6c-0.8,1-1.4,2,0.3,2.6
	c4,1.5,4.6,5,5.2,8.4c0.3,1.9,0.2,3.9,0.1,5.8c-0.2,3.7-1.9,6.2-5.4,6.3c-3.6,0-4.6,2.4-6,4.7c-2.2,3.7-8.4,6.3-12.4,4.9
	c-1-0.4-2-1.1-2.6-2C25.7,82.3,23.9,79.6,24.1,76z M33.3,84.5c4.2,0.4,8.2-2.2,8.7-7.1c0.1-0.9,0.6-1.8,0.8-2.8
	c0.9-5.1-1.1-7.2-6.2-6.6c-1.2,0.1-2.1,1.1-3.6,0.2c-2.5-1.4-3.8-0.9-4.9,1.5c-1.5,3.3-2.3,6.6-1,10.2C28.5,84,29,84.5,33.3,84.5z
	 M51.5,68c0.3-2.6,0.1-5.2-1.9-7.2c-0.6-0.6-1.9-1.4-2.3-1.2c-1.5,0.8-2.3,0-3.5-0.7c-1.7-1-4.4,0.1-5,2.1c-0.3,1.1,0,2.5,0.4,3.7
	c0.2,0.5,1.1,1,1.8,1.2c3.3,1.3,3.7,1.7,3.9,5.2c0,0.6,0,1.3,0,1.9c0.1,2.5,1.7,3.4,3.8,2.1C51.3,73.5,52.1,71,51.5,68z"/>
<path d="M61.4,14.6c0.3,0.1,1.9-0.1,2.8,0.6c2.5,2,4.9,0.3,7.4,0.2c0.7,0,1.5-1.1,1.9-1.9c0.8-1.8,2-2.9,3.8-3.4
	c0.3-0.1,1.1,0.1,1.2,0.4c0.2,0.3,0,0.9-0.2,1.3c-0.7,1.3-3.5,1.1-2.6,3.2c0.2,0.4,2.6-0.2,3.9-0.1c0.7,0.1,1.5,0.5,2.1,1
	c5.4,4.5,3.3,12.3-0.9,15.6c-3.8,3-8.1,4.3-13,2.5c-1.5-0.6-2.9-0.7-4.6-0.2c-1.5,0.5-3.2,0.3-4.8,0.1c-3.6-0.4-5.5-2.4-5.7-5.9
	c-0.2-3-0.2-3-3.3-3.8c-0.4-0.1-0.6-0.5-1-0.7c0.3-0.3,0.6-1,0.9-1c2.9,0,4.1-1.6,4.9-4.2C55.4,14.9,56.5,14.5,61.4,14.6z
	 M71.5,32.1c0.8,0,1.4,0,2.1,0c5-0.2,8.8-3.8,9.1-8.8c0.2-2.8-1.3-5.4-3.4-5.6c-5-0.4-9.5,0.4-12.4,5.1c-1.6,2.5-1.6,5.1-0.3,7.7
	C67.5,32.8,69.8,31.9,71.5,32.1z M54.3,27.2c0.4,1,0.6,2.8,1.6,3.4c2.2,1.4,4.8,1.9,7.3,0.4c0.4-0.3,1-1.2,0.9-1.4
	c-1.5-3,0.3-5.6,1.1-8.3c0.8-2.7,0.6-3.4-2.1-4.2c-1.4-0.4-2.9-0.3-4.3-0.4c-1.6-0.2-2.4,0.9-2.8,2.2C55.3,21.4,54.9,24.1,54.3,27.2
	z"/>
<path d="M19,25.4c-0.6,0-1.3,0-1.9,0c-4.8-0.1-6.8-1.8-7.1-6.6c-0.1-2.2-0.6-3.4-3-3.2c-1.4,0.1-2.4-0.8-3-2
	C3.2,12,2.8,9.8,0.2,10.2C0.2,9.6-0.1,8.8,0.1,8.6c1.2-0.9,1.8-1.9,2.2-3.4c1-4,4.1-5.5,9.1-5.2c3,0.2,5.7,2.8,6.4,6.1
	c0.5,2.7,0.8,2.9,3.4,2.3C21.5,8.4,22,8.1,22.4,8c6.3-1.3,9.8,2.4,8.3,8.8C29.2,23.4,26.5,25.3,19,25.4z M18.7,23.3c1,0,1.6,0,2.3,0
	c5.7-0.4,9.5-6.9,7-12.1c-0.6-1.3-2.8-1.7-2.9-0.7c-0.3,2.9-1.8,1.8-3.4,1.5c-6.4-1.2-8-0.1-9.4,5.8c-0.1,0.3-0.2,0.6-0.2,0.9
	c0.1,0.4,0.2,1.2,0.4,1.3C14.9,20.7,15.5,24.9,18.7,23.3z M10.2,2.1C5.7,2.1,2.7,4.3,4.7,9c0.2,0.4,0.4,0.9,0.4,1.4
	c-0.1,2.1,1.4,2.7,3,3.1c2.8,0.7,8.1-4.4,7.6-7.2c-0.1-0.3-0.1-0.7-0.3-0.9C14.1,3.5,12.7,1.7,10.2,2.1z"/>
<path d="M25.3,46.1c-2.5-0.4-5-1-7.6-1.2c-3.9-0.3-5.5-2.8-6.4-6.2c-1.1-4.1,0.5-9.1,3.7-11.1c1.2-0.7,2.3-1.5,4-0.8
	c1.1,0.4,2.5-0.1,3.7-0.2c2.1-0.1,4.2-0.4,6.2-0.4c2.4,0,4.3,1.2,5.7,3.1c0.9,1.3,1.4,3.1,3.6,2.2c0.2,0.7,0.9,1.6,0.7,1.9
	c-1.6,1.9-1.9,4.3-2.8,6.5c-1.7,3.9-4.2,6.4-8.9,5.8c-0.6-0.1-1.3,0-1.9,0C25.3,45.9,25.3,46,25.3,46.1z M25.4,43.9
	c0-0.1,0-0.1,0-0.2c0.8,0,1.6,0,2.4,0c3.8-0.1,5.8-1.8,6.6-5.6c0.1-0.5-0.3-1.1-0.5-1.6c-0.3,0.3-0.6,0.5-1,0.8
	c-0.5,0.4-0.9,0.8-1.4,1.2c-0.4-0.6-1.1-1.2-1.3-1.9c-0.2-0.9-0.1-1.9,0.2-2.8c0.3-1,1-1.7,2.1-0.8c0.3,0.2,0.8,0.2,1.2,0.4
	c-0.1-0.4,0-0.9-0.2-1.3c-1.7-3-4.6-4.2-8.1-3.7c-3,0.5-5.9,1.1-8.9,1.1c-1.7,0-2.3,0.6-2.7,1.9c-0.3,1.2-0.7,2.5-0.9,3.7
	c-0.4,3.2,1.4,6.9,3.9,7.4C19.8,43.2,22.6,43.5,25.4,43.9z"/>
<path d="M79.2,57.9c0.7-0.3,1.3-0.5,1.9-0.7c0.8-0.3,1.8-1.3,2.4,0.1c0.2,0.6-0.1,1.8-0.5,2.1c-2.6,1.6-3.1,4-3.4,6.9
	c-0.3,2.9-4,5.5-7,5.6c-2.6,0.1-5.2,0.2-7.8,0c-3.9-0.2-5.5-2.2-6.4-6c-1.3-5.4,0-9.7,4.2-13.3c2.3-1.9,4.8-2.5,7.7-1.9
	c0.5,0.1,0.9,0.5,1.3,0.5C76.2,50.9,78.2,53.8,79.2,57.9z M68.4,69.9C68.4,69.9,68.4,69.9,68.4,69.9c1.1,0,2.3,0.1,3.4-0.1
	c2.8-0.3,4.8-1.8,5.7-4.4c0.3-1,1.3-3.1-1.6-2.5c-0.4,0.1-1.2-1-1.4-1.7c-0.5-1.3-1.4-3.1,1.5-2.6c0.2,0,0.8-1,0.7-1.2
	c-0.9-1.9-2.1-3.7-4.5-3.9c-2.1-0.1-4.2-0.1-6.3,0c-0.7,0-1.5,0.5-2.1,1c-3.4,2.6-4.6,5.8-3.4,10.1c1.3,4.6,1.9,5.2,6.5,5.3
	C67.4,69.9,67.9,69.9,68.4,69.9z"/>
<path d="M13.8,106.8c0-1.3-0.1-2.6,0-3.9c0.3-2.4,1.3-4.2,3.6-5.3c2.2-1.1,4.9-1.7,5.6-4.8c0.1-0.6,1.8-0.8,2.8-1.2
	c0.3,1,0.9,2,0.8,3c-0.1,1.6-0.3,2.6,1.9,2c1.9-0.6,3.4,0.6,4.5,2.1c2.8,4.1,1.9,13.8-1.6,17.1c-0.2,0.2-0.5,0.4-0.8,0.6
	c-3.2,2.2-11.8,1.5-14.7-1.1c-1.4-1.2-2.4-2.6-2.2-4.6C13.8,109.4,13.8,108.1,13.8,106.8C13.8,106.8,13.8,106.8,13.8,106.8z
	 M15.8,106.6c0,1.3-0.3,2.7,0.1,3.8c0.4,1.3,1.1,2.7,2.1,3.6c2.4,2,8.9,2.1,11.5,0.4c0.5-0.3,1.3-0.7,1.4-1.2
	c0.8-2.7,2.2-5.5,2.1-8.2c-0.4-5.8-2.9-7.2-8.4-4.9c-1.5,0.6-2.6,1.1-3.5-0.8c-0.1-0.3-1.1-0.6-1.6-0.5c-2.1,0.5-3.5,2.3-3.7,4.5
	C15.7,104.4,15.8,105.5,15.8,106.6z"/>
</svg>
