<?xml version="1.0" encoding="utf-8"?>
<!-- Generator: Adobe Illustrator 18.0.0, SVG Export Plug-In . SVG Version: 6.00 Build 0)  -->
<!DOCTYPE svg PUBLIC "-//W3C//DTD SVG 1.1//EN" "http://www.w3.org/Graphics/SVG/1.1/DTD/svg11.dtd">
<svg version="1.1" id="Layer_1" xmlns="http://www.w3.org/2000/svg" xmlns:xlink="http://www.w3.org/1999/xlink" x="0px" y="0px"
	 viewBox="0 0 49.3 44.3" enable-background="new 0 0 49.3 44.3" xml:space="preserve">
<path d="M25.1,1.5c-0.7,1.3-1.3,2.5-2,3.8l-0.1,0.1c-1.6,1.5-2.3,3.1-1.3,6.2c1-1.9,1.5-3.1,2.1-4.2l0.3-0.3c1.8-1,3.6-2,5.4-2.9
	c1.1-0.6,2.2-1.2,3.4-1.7c0.2-0.1,1.1,0.5,1.1,0.9c0.8,3.9-0.6,7.8-0.6,11.7c0,0.6-0.9,1.3-1.5,1.7c-1.6,1.2-2.8,0.8-3.1-1.1
	c-0.2-1.2-0.1-2.5-0.2-4.7c-1.2,1.3-2.1,2-2.7,3c-0.8,1.4-1.4,2.9-2.2,4.3c-0.2,0.4-0.9,0.6-1.4,0.9c-0.1-0.4-0.3-0.9-0.4-1.3
	c-0.1-0.4-0.2-0.9-0.9-1.3c0,1.7,0,3.5,0,5.2l0,0c-1.7-0.6-3.1-3.6-5.2-0.6c0,0-1-0.5-1.3-0.9c-0.4-0.5-0.5-1.1-0.7-1.7
	c-0.2,0.7-0.4,1.4-0.6,2c-0.1,0.3-0.3,0.5-0.5,0.8c-0.1,0.1-0.3,0.1-0.4,0.1c-0.2-0.1-0.7-0.4-0.6-0.6c0.2-1.1,0.6-2.2,0.6-3.3
	c0.1-3.4,0.5-6.8-1.5-9.8c-0.2-0.2,0.1-1.1,0.4-1.2c0.3-0.1,1,0,1.3,0.3c1,1.2,1.9,2.5,2.9,3.8c1.9-2.9,1.9-2.9,0.3-10.7
	C15.8,0.1,16,0,16.1,0c1.3,1.3,2.5,3.5,4,3.8C21.6,4,23.3,2.2,25,1.3L25.1,1.5z M25,11.1c0.1-0.1,0.3-0.1,0.4-0.2
	c0.1-0.1,0.1-0.2,0.1-0.3C25.3,10.8,25.2,11,25,11.1c-0.3,0.3-0.7,0.6-1,0.9c-0.3,0.3-0.5,0.7-0.8,1c0.2,0.1,0.3,0.2,0.5,0.3
	c0.1-0.4,0.2-0.8,0.3-1.3C24.4,11.8,24.7,11.5,25,11.1z M19.2,8.2c-0.3,0.6-0.6,1.3-1,1.9c-0.3,0.6-0.6,1.3-1,1.9
	c-1.3,0.9-1.1,2.1-0.2,4.1c0.1-1.9,0.1-3,0.2-4.1c0.3-0.6,0.6-1.3,1-1.9C18.6,9.5,18.9,8.9,19.2,8.2c0.3-0.3,0.5-0.6,0.8-0.9
	c-0.2-0.1-0.3-0.2-0.5-0.3C19.4,7.4,19.3,7.8,19.2,8.2z M20.4,11.9c-1.9,3-1.9,3-1.5,5.6C19.4,15.8,19.8,14.3,20.4,11.9z M32.1,12.8
	c-0.6,0.7-1,1-1.1,1.3c-0.1,0.4,0.1,0.8,0.2,1.3c0.3-0.3,0.6-0.6,0.8-1C32.2,14.1,32.1,13.7,32.1,12.8z"/>
<path d="M42.2,35.1c-3.2-0.3-4.3,2.6-6,4.4c-0.5,0.5-0.4,1.5-0.8,2.2c-1.1,2-3.2,3.1-5.3,2.2c-1.8-0.8-3.4-1.3-5.3-1
	c-0.3,0-0.9-0.5-1-0.9c-0.1-0.2,0.3-0.9,0.6-1c2-0.8,3.1-2.1,3.6-4.2c0.2-0.6,0.9-1.4,1.5-1.5c4.5-0.5,6.1-4.2,8-7.3
	c2-3.3,4-4.1,7.4-2.3c1.1,0.6,1.7,1.9,3.3,1.4c1.3-0.4,1.2,1.1,0.8,1.5c-1.1,1.1-1.5,2.2-1.9,3.7C46.5,34.7,44.9,35.4,42.2,35.1z
	 M40.5,31.5c-3.1,0.6-5.4,2.1-6.6,6.3C37,35.7,38.9,33.8,40.5,31.5c0.1-0.1,0.3-0.1,0.4-0.2C41,31.3,41,31.1,41,31
	C40.9,31.2,40.7,31.3,40.5,31.5z M29.3,41.2c0.8,0.4,1.3,0.8,1.6,0.7c0.6-0.2,1.2-0.6,1.8-1c-0.3-0.5-0.6-0.9-0.9-1.4
	C31.2,39.9,30.6,40.3,29.3,41.2z M44.2,31.3c0.2-0.1,0.5-0.2,0.7-0.4c-0.4-1-0.7-2-1.1-2.9c-0.1-0.3-0.8-0.2-1.3-0.4
	c-0.1,0.3-0.4,0.8-0.2,1C42.9,29.6,43.6,30.5,44.2,31.3z"/>
<path d="M21.2,21.8c0.8,0,1.6,0,2.4,0c2.1-0.1,3.6,1,4.1,2.7c0.6,2,0.8,4.1-1,5.9c-1.7,1.7-3.4,2.2-5.5,1.2
	c-2.6-1.3-5.3-1.3-7.9-0.3c-2,0.7-4,0.7-6.1,0.5c-1.8-0.2-3.3-0.6-3.5-2.6c-0.2-2-2.3-2.1-3.2-3.3c-0.4-0.6-0.4-1.5-0.5-2.2
	c0.7,0,1.6-0.3,2,0.1c1.2,1,2.1,1.1,3.3,0c1.9-1.6,3.7-2.3,5.8,0c1.7,1.9,4.3,0.9,6.5,0.9C19.3,24.6,20.4,23.3,21.2,21.8L21.2,21.8z
	 M11,29.1c1.8-0.5,3.6-0.8,5.2-1.4c1.8-0.7,4.2,1.3,5.4-1.3c-1.8,0.1-3.7,0.2-5.5,0.3c-1.8,0.1-3.5,0.1-5.3,0.3
	c-0.4,0-0.7,0.9-0.8,1.4C10.1,28.6,10.8,28.9,11,29.1z M23.9,26.8c-0.2,0.6-0.4,1.2-0.4,1.8c0,0.2,0.8,0.6,1,0.5
	c1.3-0.9,1.8-2.9,1-4.3c-0.2-0.3-0.7-0.5-1.2-0.5c-0.2,0-0.6,0.4-0.6,0.6C23.6,25.5,23.8,26.1,23.9,26.8z M7.8,25.7
	c-0.4-0.1-0.7-0.2-1.1-0.4c-0.1,1.2-0.2,2.3-0.2,3.5c0,0.1,0.3,0.1,0.4,0.2C7.2,27.9,7.5,26.8,7.8,25.7z"/>
<path d="M23.1,5.3c0.4,0.6,0.7,1.2,1.1,1.8l-0.3,0.3C23.6,6.7,23.3,6,23.1,5.3L23.1,5.3z"/>
<path d="M25,1.3c0.2-0.1,0.4-0.3,0.6-0.4c-0.1,0.2-0.3,0.4-0.4,0.6L25,1.3z"/>
</svg>
