<?xml version="1.0" encoding="utf-8"?>
<!-- Generator: Adobe Illustrator 18.0.0, SVG Export Plug-In . SVG Version: 6.00 Build 0)  -->
<!DOCTYPE svg PUBLIC "-//W3C//DTD SVG 1.1//EN" "http://www.w3.org/Graphics/SVG/1.1/DTD/svg11.dtd">
<svg version="1.1" id="Layer_1" xmlns="http://www.w3.org/2000/svg" xmlns:xlink="http://www.w3.org/1999/xlink" x="0px" y="0px"
	 viewBox="0 0 141.2 38.7" enable-background="new 0 0 141.2 38.7" xml:space="preserve">
<path d="M512-83.3c-3.4,0-6.8,0.1-10.2,0.1c-2.1,0-4.1,0-5.8-1.8c-0.7-0.8-2.3-1.1-3.5-1c-5.3,0.5-10.5,1-15.7,1.8
	c-3.4,0.5-7.1,0.4-10,2.9c-1.5,1.3-3.5,1.3-5.1,0.7c-3-1.2-6.1-0.9-9.1-0.7c-4.8,0.4-9.6,1.1-14.3,1.8c-0.5,0.1-1.4,0.4-1.4,0.8
	c-0.2,1.6-1.2,1.2-2.1,0.9c-4.5-1.4-9.1-1.8-13.8-1.7c-4.3,0.1-8.6-0.1-12.9-0.1c-7.7,0.1-15.4-0.6-23.1-1c-0.3,0-0.6-0.2-0.9-0.3
	c-1.6-0.5-3.8,1.7-4.8-0.5c-0.5-1.1,0.3-2.9,0.6-4.6c-2,1.3-3.6,2.6-5.4,3.6c-4.1,2.3-8.4,0.8-12.7,0.5c-1.3-0.1-2.6-0.7-3.8-0.4
	c-6.1,1.6-12.2,0.7-18.1-0.5c-2.1-0.4-4-0.7-6.1,0c-1.3,0.4-2.9,0.4-4.3,0.3c-7.5-0.3-15.1-0.9-22.4-3.1c-0.8-0.2-1.5-0.7-2.3-0.7
	c-7.1-0.1-14.2,0-21.9,0c0.8,1.4,1.2,2.2,1.8,2.8c4.2,4.2,6,9.5,7,15.1c0.7,4.1,1.8,8.3,1.5,12.4c-0.3,3.6,0.5,7,0.6,10.4
	c0.1,2.9,0.6,5.7,1,8.6c0.2,1.7,0.3,3.4,0.2,5.1c-0.2,4.3,0.4,8.6,0.8,12.9c0,0.3,1.4,0.9,1.7,0.7c2.8-1.8,5.9-1.3,9-1.5
	c4.1-0.3,8.2-0.8,12.3-1.3c0.6-0.1,1.3-0.6,1.8-0.4c2.4,0.7,4.1,0.6,5-2.2c0.4-1.1,2-1.2,2.9-0.4c1.1,0.9,1.9,2.1,3.3,3.6
	c0.2-1.3,0.3-2.3,0.6-3.3c0.5-1.3,1.1-2.6,1.7-3.8c0.2-0.3,1-0.7,1.2-0.5c0.9,0.6,1.6,1.7,2.5,2c0.6,0.2,1.5-1.2,2.3-1.2
	c0.9,0,2,1.1,2.7,0.9c0.6-0.1,0.7-1.7,1.3-2.4c1.5-2,3-1.7,3.9,0.6c0.5,1.2,0.7,2.5,1.1,3.7c1.1,3.4,2.2,4.4,5.8,3.7
	c9.6-1.8,18.8,0.5,28.1,1.8c5.4,0.8,11,0.2,16.4,0.1c2.7-0.1,5.4-0.5,8.1-0.8c3.3-0.3,6.7-0.6,10.1-0.9c2.6-0.2,5.1-0.2,7.5,1.1
	c3.5,1.8,7.2,2.3,11.2,1c1.9-0.6,3.8-1,6.1-0.5c2.4,0.5,5.1-0.1,7.7-0.3c0.8,0,1.6-0.3,2.4-0.3c3.4,0.2,6.7,0.8,10,0.8
	c5.8,0,11.5,0.8,17.2,1.7c4.3,0.7,8.7,0.1,13.1,0.3c2.9,0.1,5.7,0.8,8.6,0.8c3.5,0,7-0.5,10.5-0.7c0,1,0,1.9,0,2.9
	c-6.9-0.3-13.8-0.6-20.7-1c-3-0.2-5.4,0.4-7.9,2.6c-2.8,2.5-6.7,3.8-10.1,5.6c-0.6,0.3-1.7,0.2-2.1-0.2c-0.4-0.4-0.6-1.5-0.4-2.1
	c0.7-1.6,1.7-3.1,2.5-4.7c1.2-2.2,0.9-3-1.5-3c-4.5-0.1-9.1,0-13.6-0.1c-1.9,0-3.8-0.4-5.7-0.5c-0.2,0-0.3-0.2-0.5-0.2
	c-5.4,0.3-10.9,0.5-16.3,1.1c-4.1,0.4-8.1,0.9-12-1.4c-1.6-0.9-4-0.8-6.1-0.7c-2.4,0.1-4.7,0.8-7.5,1.3c2.2,3.4,3.9,6.9,6.4,9.7
	c1.2,1.4,2.1,2.6,2.9,4.2c0.9,1.8,2.4,3.3,3.6,5c0.3,0.4,0.6,0.8,0.8,1.2c1.9,4,3.8,8.1,5.8,12.1c0.9,1.7,2,3.3,3.1,4.8
	c1.9,2.6,3.3,5.4,2.3,8.5c-0.6,1.9,0,3.1,0.9,4.4c4.2,5.6,9.6,8.9,16.8,8.8c5.3,0,10.6,0.5,15.6-1.6c1.8-0.8,3.1,0.5,4.2,1.6
	c1.1,1.1,0.5,2.5-0.3,3.5c-1,1.2-2.1,2.6-3.4,3.1c-5,2-10.1,4.1-15.6,4.7c-0.8,0.1-1.8,0.1-2.3-0.3c-2.7-2.2-5.3-1.5-8.2-0.3
	c-3,1.2-6.2,2-9.3,0.4c-0.9-0.4-1.9-1.4-2.1-2.3c-1-3.9-3.4-7.3-3.1-11.6c0.1-1-0.8-2.1-1.3-3.1c-0.5-1.2-1.1-1.4-2.6-1.2
	c-3.2,0.5-3.2,0.3-3.9-3c-0.9-4.2-1.5-8.6-5.3-11.5c-0.9-0.7-1.1-2.3-1.7-3.4c-2.9-5-6.3-9.6-8.6-15c-1.3-3.1-4.3-5.5-6.6-8.2
	c-2.1-2.5-4.2-4.8-6.3-7.3c-0.6-0.7-1.1-2.1-1.8-2.2c-3-0.5-6.2-0.1-9.2-1.3c-0.2-0.1-1.2,1-1.5,1.7c-2.2,5-4.3,10-6.4,15.1
	c-1.1,2.7-1.9,5.5-3.4,7.9c-1.2,1.8-3.1,3.3-5,4.4c-2.9,1.6-5.3,3.5-7.8,5.7c-3,2.7-6.2,5-9.4,7.4c-2.4,1.8-5,3.4-7.4,5.2
	c-0.4,0.3-0.8,1.2-0.7,1.6c0.7,3.3,1.3,6.6,2.5,9.8c0.6,1.5,2.2,2.7,3.4,4c0.6,0.7,1.2,1.4,1.8,2.2c0.1,0.2,0,0.7-0.2,0.9
	c-0.1,0.2-0.6,0.2-0.8,0.1c-2.8-2.6-6.1-4.9-6.9-9c-0.4-2.1-0.4-4.5-2.2-6.2c-0.3-0.3,0-1.5,0.2-2.1c0.7-1.6,1.5-3.2,2.4-4.7
	c0.3-0.5,1.3-1.1,1.4-1c2,2,3.1,0,4.3-1.1c4.9-3.9,9.7-7.9,14.6-11.8c1.4-1.1,2.8-2.4,4.4-2.9c2.8-0.8,3.7-2.7,4.7-5
	c2-4.9,4.4-9.6,6.6-14.5c0.9-2,1.8-4.1,2.4-6.3c0.4-1.4-0.1-2.5-1.9-2.5c-1.8,0-3.6-0.1-5.3-0.1c-3.7,0-4.9,1.1-6.2,4.5
	c-2.7,7.3-5.8,14.3-12.9,18.6c-1.3,0.8-2.8,1.9-3.5,3.2c-2.1,4-5.5,6.1-9.3,8c-3,1.5-2.9,1.7-1.5,5c0.3,0.6,0.7,1.2,0.6,1.8
	c0,0.3-1.1,0.9-1.2,0.8c-2.1-2.2-4-0.2-5.4,0.7c-2.4,1.6-4.5,3.6-6.5,5.6c-0.4,0.4-0.6,1.6-0.4,2.1c0.9,1.7,1.5,3.9,4.5,3.5
	c1.1-0.2,3,0.9,3.6,1.9c1.9,3.1,4.4,5.9,5.1,9.7c0.7,3.7,1.5,4.1,5.2,4.2c2.1,0,4.2-0.1,6.3,0.1c1.9,0.1,2.7-0.4,1.9-2.4
	c-0.1-0.2,0.4-0.6,0.7-1c0.7,1.4,1.5,2.7,2.1,4.1c0.1,0.1-1.4,1.2-2.2,1.2c-3.7,0.1-7.4,0.1-11.1,0c-2.2,0-3.3-1.5-4.1-3.5
	c-1.2-3.1-2.7-6.2-3.7-9.3c-0.7-2.1-1.9-2.7-3.9-2.8c-1.2-0.1-2.7-0.4-3.4-1.1c-1.4-1.5-2.3-3.4-3.2-5.3c-0.2-0.4,0.5-1.5,1-2
	c3.3-2.8,5.5-6.9,10-8.2c0.6-0.2,1.2-1.5,1.2-2.2c0-2.3,1.3-3.5,3.2-4.4c3.8-1.9,7.1-4.2,9.5-8c1-1.6,2.7-2.7,4.3-3.8
	c5.9-3.8,8.4-9.9,11.1-15.9c0.4-0.9,0.5-1.8,0.9-2.7c0.5-1,1.2-1.8,1.8-2.8c-1.2-0.3-2.4-0.8-3.5-0.7c-2.9,0.1-5.8,0.5-8.6,0.9
	c-0.8,0.1-1.5,0.9-2.4,1.3c-1.3,0.6-2.7,1.6-3.9,1.4c-1.8-0.3-3.3-0.3-5.1,0.1c-2.2,0.5-4.4-0.4-6.8,0.9c-1.6,0.8-4.2-0.6-6.4,0.2
	c-1.3,0.5-2.5-0.2-3.1-1.6c-1.3-2.8-3.7-3.6-6.4-2.7c-4.6,1.5-9.4,1-14.2,1.4c-2.6,0.2-5.2,0.2-7.2,2.1c-1,0.9-1.7,0.5-2.5-0.1
	c-3.2-2.5-6.6-4.5-10.4-6c-2.2-0.9-3.8-2.9-5.8-4.3c-2.9-2.2-5.6-5.1-8.9-6.5c-4.5-1.9-9.3-3.6-14.4-3.5c-0.8,0-1.7,0.1-2.4-0.1
	c-0.4-0.1-1.1-0.9-1-1.3c0.7-4.4,1.4-8.9,2.5-13.2c2.9-11.7,8.5-22.1,15.8-31.6c1.3-1.6,2.8-3.2,4.5-4.4c1.2-0.9,2.9-1.8,4.4-1.7
	c6.1,0.5,12.1-0.4,18.2-0.3c5,0.1,9.9,0.8,14.7,2.2c0.6,0.2,1.2,0.6,1.8,0.6c7.2,0,14.3,2.2,21.6,0.6c2.2-0.5,4.7,0.3,7.1,0.6
	c2.9,0.3,5.7,0.7,8.6,0.8c6.1,0.3,12.2,0.7,18.3,0.6c1.9,0,4.1-1.1,5.6-2.4c2.5-2.2,4.5-4.9,6.7-7.5c0.4-0.5,0.6-1.2,0.7-1.8
	c0.1-1.2,0.3-2-1.7-1.7c-3.8,0.6-5.6-0.7-6.6-4c-0.3-0.9-0.5-2-0.1-2.8c0.5-1.3,1.3-2.7,2.4-3.4c0.4-0.3,2,1.1,3,1.9
	c1,0.8,1.8,2,2.9,2.5c2.3,0.9,3.5,2.5,3.7,4.9c7.7-2.4,9.3-4.3,10.5-9.2c0.5,0.5,1,0.9,1.4,1.3c1.4,1.6,0.7,3.6,0.9,5.5
	c0.2,1.8,2.8,2.8,1.6,5.2c-0.2,0.4,0.2,1.2,0.6,1.7c0.8,1,1.2,1.9-0.2,2.7c-1.3,0.8-2.7,1.4-3.9,0c-1.6-1.8-1.9-3.6-0.1-5.6
	c-7.7-0.8-12.5,3.1-15.7,12.8c1-0.1,2-0.5,2.8-0.3c8,1.8,16.2,1.5,24.3,1.6c4.8,0.1,9.7-0.1,14.5,0c2.1,0,4.1,0.5,6.2,0.7
	c1,0.1,1.9,0.3,2.9,0.1c5.9-0.7,11.8-1.4,17.6-2.3c3.8-0.6,7.6-1,11.4,0.2c2.2,0.7,4.3,0.5,6.4-1.1c1.3-1,3.2-1.3,4.9-1.5
	c7.1-1,14.3-1.8,21.4-2.6c0.8-0.1,2.1,0.1,2.4,0.7c1.1,1.9,2.8,2,4.6,1.9c3.7-0.2,7.4,0.6,11-0.9C512-85.2,512-84.2,512-83.3z
	 M265.6-62.9c0.3,0,0.7,0,1,0c-0.5,2.1-1.1,4.1-1.7,6.7c2.5-1.8,4-3.5,3.4-6.4c0-0.2-1.2-0.2-1.8-0.2c0-0.7,0-1.3,0-2
	c0.1-0.1,0.3-0.1,0.4-0.2c0.1-0.1,0.1-0.2,0.1-0.3c-0.1,0.2-0.3,0.4-0.4,0.5c-0.3,0-0.7,0-1,0c0.5-1.1,1.1-2.2,1.5-3.4
	c0.7-1.6,0.1-4.1-0.6-3.8c-0.8,0.4-1.4,1.5-1.8,2.4c-0.5,1-0.8,2.1-0.9,3.1c-0.1,1.2,0.8,1.6,1.9,1.6
	C265.6-64.2,265.6-63.5,265.6-62.9c-0.2,0.4-0.5,0.7-0.8,1c0.2,0.1,0.3,0.2,0.5,0.3C265.4-62,265.5-62.5,265.6-62.9z M274.4-36.7
	c0.1,0.4,0.2,0.8,0.2,1.2c0.2-0.1,0.3-0.2,0.5-0.3C274.8-36.1,274.6-36.4,274.4-36.7c-0.1-0.4-0.2-0.8-0.3-1.2
	c-0.2,0.1-0.3,0.2-0.5,0.3C273.8-37.3,274.1-37,274.4-36.7z M258.8-43.5c0.3-1,0.6-1.9,1-2.9c1.3-1,1.1-1.9,0-2.9
	c-0.1-1.6-0.1-3.3-1.9-4.4c-1.9,3.2-1.9,6.4-1.5,10.2c1.1-1.3,1.8-2.1,2.5-2.9C258.8-45.4,258.8-44.5,258.8-43.5
	c-0.1,0.1-0.3,0.1-0.4,0.2c-0.1,0.1-0.1,0.2-0.1,0.3C258.5-43.2,258.7-43.3,258.8-43.5z M256.9-40.6c0.3,0.3,0.6,0.5,0.9,0.8
	c0.1-0.2,0.2-0.3,0.3-0.5C257.7-40.4,257.3-40.5,256.9-40.6c-0.4-0.5-0.7-1.1-1.1-1.6c-0.2,0.2-0.4,0.4-0.6,0.6
	C255.8-41.3,256.4-41,256.9-40.6z M396.6-100.7c-0.5,0.4-1.1,0.7-1.5,1.2c-0.3,0.4-0.5,0.9-0.7,1.4c0.5,0.1,1,0.3,1.4,0.1
	c0.4-0.1,1-0.5,1.1-0.9C397-99.5,396.7-100.1,396.6-100.7c0.1-0.1,0.2-0.1,0.4-0.2c0.1-0.1,0.1-0.2,0.1-0.3
	C396.9-101,396.7-100.9,396.6-100.7z M275.3-44.5c0.6-1.4,1.2-2.8,1.6-4.2c0.1-0.2-0.6-0.6-0.9-1c-0.2,0.3-0.7,0.6-0.7,0.9
	C275.3-47.3,275.4-45.9,275.3-44.5c-0.3,0.5-0.6,0.9-0.9,1.5c-0.1,0.2,0.2,0.5,0.3,0.8c0.2-0.3,0.5-0.6,0.6-0.9
	C275.4-43.6,275.3-44,275.3-44.5z M285-29.9c-0.5,0.4-1,0.8-1.3,1.3c-0.2,0.3,0,0.8,0,1.2c1-0.1,2.6,0.1,2.9-0.4
	C287.3-29.1,286.4-29.9,285-29.9c0.3-0.3,0.5-0.7,0.9-1c1.5-0.9,0.5-1.9,0-2.8c-0.2-0.3-0.7-0.5-1-0.7c-0.3,0.8-0.7,1.7-0.8,2.5
	C284.2-31.3,284.7-30.6,285-29.9z M288.9-43.5c0.4,1.4,0.8,2.8,1.4,4.2c0.1,0.3,0.8,0.5,1.2,0.5c0.3,0,0.7-0.5,0.7-0.8
	c-0.1-1.9-0.2-3.8-0.6-5.6c-0.1-0.5-1.1-0.8-1.7-1.2c0.6-0.9,1.6-1.9,1.7-2.8c0.3-4.7,0.5-9.3-1-13.9c0-0.1-1.1,0.1-1.6,0.2
	c2-4.3,0.1-8.3-1.1-12.4c-0.4-1.4-1.2-0.2-1.8-0.2c0.5-3.9-2.6-6-4.4-8.7c-0.3-0.4-1.2-0.8-1.6-0.6c-0.4,0.2-0.7,1-0.7,1.6
	c0.1,4.5,2.7,7.7,5.7,10.5c0.1,4.1,0,8.2,2.9,11.6c0.4,4.6,0.8,9.3,1.3,13.9c0,0.2,0.4,0.4,0.7,0.6
	C289.6-45.4,289.2-44.5,288.9-43.5c-0.6,0-1.3,0-1.9,0c2.3-4.4,0.2-8.6-0.5-12.9c-0.2,4.1-0.2,8.2-0.2,12.3c0,0.2,0.4,0.4,0.6,0.6
	c0,1.7,0,3.5,0.1,5.2c0,0.3,0.4,0.6,0.6,0.9c0.3-0.3,0.9-0.6,0.9-1C288.8-40,288.8-41.8,288.9-43.5z M282.1-38.7
	c-0.6,1.1-1.3,2.1-1.8,3.3c-0.1,0.3,0.2,1,0.5,1.2c0.3,0.2,1,0,1.2-0.3C283.2-35.8,283.6-37.3,282.1-38.7c0.3-0.9,0.9-1.8,0.8-2.7
	c-0.1-1.6,1-3.5-1-4.7c-0.6,1.6-1.3,3.2-1.7,4.8C279.9-39.9,280.2-38.6,282.1-38.7z M283.1-67.8c0.7,3.1,1.3,6.1,2,9.2
	C286-62,284.7-64.9,283.1-67.8c0.1-3.2-0.3-6.3-3.5-8.5c-0.6,2.5-0.5,4.6,0.6,6.6c-0.6,0.4-1.5,0.6-1.8,1.2c-0.5,1-0.6,2.1-0.9,3.2
	c-0.6,2.8-0.4,3.3,2.6,5.3l0,0c0.5,1.3,0.9,2.7,1.5,4c0.4,0.9,1.1,1.6,1.7,2.4c0.2-1.1,0.5-2.1,0.6-3.2c0-0.9-0.4-1.9-0.6-2.8
	c-0.9-3.4-2.9-6.6-3.2-10.2C281.1-69,282.1-68.4,283.1-67.8z M262.7-59c0.1,0.4,0.2,0.9,0.2,1.3c0.2-0.1,0.3-0.2,0.5-0.3
	C263.2-58.4,263-58.7,262.7-59c0-2,0-4.1,0-6.7c-4.1,6.6-4.4,8.1-2.5,11C261-56.1,261.9-57.6,262.7-59z M270.5-72.6
	c-0.2,1.1-0.5,2.3-0.7,3.4c1.6-1,2.6-2.4,3.5-3.7c0.1-0.2-0.1-0.8-0.2-0.8c-0.4,0-0.8,0-1.1,0.2C271.4-73.3,271-72.9,270.5-72.6
	c0.1-0.5,0.1-1.4,0.4-1.7c2.9-2.1,2.5-5.1,2.4-8c0.1,0,0.3-0.1,0.4-0.1c0.1,0,0.1-0.2,0.1-0.3c-0.2,0.1-0.3,0.3-0.5,0.4
	c-1.1,1.3-2.1,2.7-3.4,3.8c-1.8,1.6-1.6,3.7-1.3,5.7C268.7-72.6,269.9-72.7,270.5-72.6z M473.2-8.6c4-1.1,7.5-3,10.7-5.9
	c-6.9-1.8-7.7-1.5-10.2,4.1C473.4-9.8,473.4-9.2,473.2-8.6c-0.1,0.1-0.3,0.1-0.4,0.2c-0.1,0.1-0.1,0.2-0.1,0.3
	C472.9-8.3,473-8.4,473.2-8.6z M279.2-55.1L279.2-55.1c-0.3-1.4-0.7-2.9-1.1-4.3c-1.1,2.3-2.3,5-1.4,6.5c1.6,2.6,1.5,5.5,2.9,8
	c0.7-1.5,1.4-2.8,2-4.3C282.4-51.5,281.4-53.7,279.2-55.1z M419.8,2.1c-0.1-0.4-0.2-0.8-0.3-1.3c-0.1,0.1-0.3,0.2-0.4,0.3
	C419.4,1.5,419.6,1.8,419.8,2.1c0.2,2.1,2.1,4,0.3,6.6c-0.5-0.8-1-1.4-1.2-2.1c-2.1-7.9-5-15.4-10.2-22c-1-1.3-1.8-2-3.5-1.9
	c-3.7,0.4-7.3,0.6-11,1c-1.4,0.1-1.6,1-0.8,2c1.3,1.6,2.8,3.1,4.1,4.7c4.2,5.2,9.7,9.3,11.5,16.2c0.1,0.5,0.4,0.9,0.6,1.3
	c1.9,3.2,3.8,6.3,5.7,9.5c0.7,1.1,1.2,2.4,2.1,3.2c2.8,2.3,4,5.3,4.5,8.8c0.2,1.5,0.8,2.9,1.3,4.5c2.7-1.3,5.1-2.6,7.7-3.5
	c2.3-0.7,2.6-2.3,2.3-4.1c-0.2-1.2-0.8-2.4-1.3-3.6c-3.2-6.1-6.4-12.2-9.7-18.3C421.8,3.4,420.7,2.8,419.8,2.1z M453.9,51.8
	c4.5-1.5,9.4-2.9,14.3-4.6c1-0.3,1.7-1.4,2.4-2.3c0.9-1.1,0.1-2.7-1.4-2.7c-0.5,0-1,0-1.4,0.2c-5.4,2.1-11.1,2-16.7,1.6
	c-5.5-0.4-10.8-1.8-14.1-7.1c-0.9-1.5-2.3-2.7-3.6-3.9c-1.4-1.3-2.7-0.3-4,0.4c-1.4,0.8-0.9,1.9-0.3,2.9c1.1,1.9,1.3,3.9,1.5,6
	c0.4,4,2.2,7.2,6.5,7.8c2,0.3,4.1,0.2,6.1-0.1c2.6-0.4,5-0.9,7.4,0.9C451.5,51.3,452.5,51.3,453.9,51.8z M381.2-97.9
	c0.2-0.1,0.8-0.3,1.4-0.5c-0.3-0.7-0.5-1.4-0.9-2c-0.7-0.9-1.5-1.7-2.4-2.3c-0.7-0.5-1.5-0.8-2.3-1.1c-0.2,0.9-0.7,1.8-0.6,2.7
	C376.6-99,378.1-97.9,381.2-97.9z M345.6-27.9c-0.3,2.1-0.7,3.3-0.7,4.6c0,1.7,0.2,3.4,0.6,5.1c0.1,0.4,1.3,0.8,2.1,0.8
	c1.4,0,0.6-1,0.6-1.7C348-22.1,347.3-24.8,345.6-27.9z M334.9-26.1c-0.5,3.1-1,5.6-1.3,8.1c0,0.4,1.1,1.4,1.3,1.3
	c0.7-0.4,1.8-1.1,1.8-1.7c0.1-1.9-0.2-3.8-0.5-5.7C336.2-24.6,335.6-25.1,334.9-26.1z M339.4-22.2c0,1.7-0.1,2.5,0,3.3
	c0.2,1.6,1.4,1.6,2.5,1.4c1.1-0.2,1-1,0.7-1.8c-0.2-0.8-0.2-1.6-0.5-2.3c-0.5-1.1-1.2-2.1-1.9-3.1C339.9-23.6,339.5-22.5,339.4-22.2
	z M271.5-48.3c0,1.2,0,1.4,0,1.5c0.3,1.3-0.8,2.9,0.9,3.8c0.6-1.2,1.4-2.4,1.7-3.6c0.3-1.2,0.1-2.5,0-3.8c0-0.3-0.7-0.7-1.1-0.7
	c-0.4,0-1.1,0.3-1.2,0.6C271.6-49.5,271.5-48.4,271.5-48.3z M274.4-66.4c-0.2,0.5-0.2,1-0.4,1.4c-0.5,1-0.5,2,0.6,2.3
	c0.4,0.1,1.4-1,1.6-1.7c0.5-1.3,0.6-2.8,0.9-4.2c0.2-1,0.1-2-1.2-2.1c-1.3-0.1-2.2,0.7-2.2,2C273.6-67.8,274.1-67.1,274.4-66.4z
	 M278.2-82c-0.3-1.3,0.5-3-1.5-3c-1.5,0-1.3,1.5-1.5,2.5c-0.2,0.6-0.6,1.2-0.6,1.8c0,0.7,0.1,1.8,0.5,2c1.1,0.6,2.2,0.1,2.7-1.1
	C278.2-80.5,278.2-81.4,278.2-82z M268.5-56.7c-2.7,1-3,2.9-2.7,5c0.1,1,0.8,1.9,1.2,2.8c0.5-0.8,1.3-1.6,1.5-2.5
	C268.6-53,268.5-54.8,268.5-56.7z M272.5-65.8c-0.1-0.4-0.2-1.6-0.8-2.3c-0.6-0.6-2,1.4-2.1,3.1c0,0.6-0.1,1.3,0,1.9
	c0.2,0.7,0.6,1.3,1,1.9c0.6-0.5,1.3-0.9,1.6-1.5C272.5-63.5,272.4-64.4,272.5-65.8z M275.4-58.2c-0.2-0.4-0.7-1.4-1.1-2.4
	c-0.3,1-0.6,2-0.9,3c-0.3,0.9-0.7,1.8-0.8,2.7c0,0.5,0.5,1,0.8,1.5c0.6-0.4,1.5-0.6,1.7-1.1C275.4-55.4,275.3-56.4,275.4-58.2z
	 M275.7-72.6c2.1-0.4,2.7-1.6,2.5-3.2c-0.1-0.6-0.8-1.4-1.3-1.5c-1.5-0.2-2.7,1.5-2.3,3.3C274.6-73.4,275.3-73,275.7-72.6z
	 M292.8-27.7c-0.1-0.7,0-1.5-0.3-2.3c-0.1-0.3-0.7-0.7-1.1-0.7c-0.4,0-1.1,0.2-1.2,0.5c-0.6,1.6-0.8,3.1,0.5,4.5
	c0.2,0.2,0.6,0.5,0.8,0.4c0.4-0.1,0.8-0.4,1-0.8C292.8-26.6,292.8-27.1,292.8-27.7z M269.6-51.9c0.3,0,0.5,0.1,0.8,0.1
	c0.6-2.4,1.2-4.8,1.7-7.2c0-0.2-0.3-0.6-0.5-0.7c-0.2-0.1-0.7,0-0.9,0.2c-0.5,0.6-1.1,1.3-1.1,2C269.5-55.6,269.6-53.8,269.6-51.9z
	 M292.8-34.2c-0.1-1.2,0-1.7-0.2-2.1c-0.1-0.4-0.5-1.1-0.7-1c-0.6,0.1-1.2,0.4-1.6,0.8c-0.3,0.3-0.4,0.9-0.4,1.3
	c-0.1,1.3,0.1,2.8,1.6,2.9C292-32.2,292.6-33.8,292.8-34.2z M326.8-19.7c0,0.4-0.1,1.1,0.2,1.6c0.3,0.6,1,1,1.5,1.5
	c0.3-0.6,1-1.2,0.9-1.7c-0.1-1-0.6-2-1.1-3c-0.1-0.2-0.6-0.5-0.7-0.4c-0.3,0.2-0.6,0.6-0.8,0.9C326.8-20.6,326.9-20.2,326.8-19.7z
	 M294.2-22c-1.1-0.8-1.9-1.3-2.7-1.9c-0.4,0.7-1.3,1.7-1.1,1.9c0.5,0.7,1.4,1.1,2.2,1.4C292.9-20.4,293.4-21.2,294.2-22z
	 M287.6-23.4c-1.1-1-1.7-1.8-2.5-2.3c-0.2-0.1-0.9,0.6-1.4,0.9c0.8,0.7,1.5,1.4,2.3,2C286.1-22.7,286.6-23.1,287.6-23.4z
	 M277.3-39.1c0.3-1.9,0.7-3.7,1.2-6.5C276.2-43.2,275.8-41.3,277.3-39.1z M284.3-40.3c0,1.4,0,2.5,0,3.7c0,0.2,0.5,0.6,0.6,0.6
	c0.4-0.2,0.8-0.4,0.9-0.8C286-38.1,286.1-39.3,284.3-40.3z M264.3-48.9c-0.2,0-0.4,0.1-0.6,0.1c0,0.9-0.1,1.8,0,2.7
	c0.1,0.5,0.7,0.9,1,1.3c0.2-0.5,0.6-1.1,0.5-1.6C265.2-47.2,264.7-48.1,264.3-48.9z M282.3-31.2c-0.4-0.6-0.7-1-0.9-1.4
	c-0.4,0.4-0.9,0.7-1.1,1.2c-0.1,0.3,0.4,0.7,0.6,1.1C281.3-30.5,281.8-30.8,282.3-31.2z M270.7-37.4c-0.5-0.4-0.9-0.7-1.2-0.9
	c-0.3,0.5-0.7,0.9-0.8,1.4c0,0.2,0.5,0.6,0.8,0.8C269.9-36.5,270.2-36.9,270.7-37.4z M267.8-42.3c0.2,0,0.3-0.1,0.5-0.1
	c0-1.4,0-2.9,0-4.3c-0.2,0-0.3,0-0.5,0C267.8-45.2,267.8-43.7,267.8-42.3z M266.7-38.8c-0.3-0.1-0.9-0.5-1.1-0.4
	c-0.4,0.3-0.8,0.9-0.8,1.4c-0.1,0.5,0.3,1,0.4,1.5C265.6-37,266-37.7,266.7-38.8z M261.7-44.6c-0.2-0.1-0.4-0.2-0.5-0.3
	c-0.2,0.7-0.6,1.4-0.7,2.1c-0.1,0.5,0.2,1,0.4,1.6c0.3-0.4,0.8-0.7,0.9-1.1C261.8-43.1,261.7-43.8,261.7-44.6z M284.8-45.6
	c-0.2,0-0.4,0.1-0.6,0.1c0.1,1.1,0.1,2.1,0.2,3.2c0.1,0,0.3,0,0.4,0C284.8-43.5,284.8-44.6,284.8-45.6z M273-40
	c-0.4-0.4-0.6-0.6-0.8-0.9c-0.2,0.6-0.5,1.2-0.7,1.9c-0.1,0.2,0.2,0.5,0.3,0.8C272.3-38.9,272.7-39.5,273-40z M264.3-41.3
	c-0.4-0.6-0.7-1-1.1-1.5c-0.2,0.5-0.5,1-0.5,1.4c0,0.4,0.5,0.8,0.8,1.2C263.8-40.6,264.1-40.9,264.3-41.3z M262.9-51
	c0.2-0.1,0.3-0.1,0.5-0.2c0-1.1,0-2.2,0-3.3c-0.2,0-0.3,0-0.5,0C262.9-53.3,262.9-52.1,262.9-51z M288.4-32.4
	c0.1-0.1,0.3-0.2,0.3-0.3c0-0.8-0.1-1.5-0.1-2.3c0,0-0.2,0-0.3-0.1c-0.1,0.7-0.1,1.5-0.2,2.2C288.1-32.7,288.3-32.6,288.4-32.4z
	 M399.4-92.2c-0.4-0.4-0.8-0.9-1.2-1.3c-0.1,0.3-0.4,0.6-0.3,0.8c0.2,0.4,0.5,0.7,0.8,1.1C398.9-91.7,399-91.9,399.4-92.2z
	 M288.9-28.6c-0.2-0.3-0.4-0.5-0.5-0.7c-0.1,0.3-0.3,0.6-0.3,0.9c0,0.3,0.2,0.6,0.3,0.9C288.5-27.9,288.7-28.3,288.9-28.6z
	 M270.2-46.8c0.1-0.6,0.2-1.1,0.2-1.5c0-0.1-0.2-0.2-0.3-0.4c-0.2,0.4-0.4,0.7-0.4,1.1C269.6-47.4,269.9-47.2,270.2-46.8z
	 M266.9-36.1c0,0.1-0.1,0.3-0.1,0.4c0.2,0,0.4,0,0.6,0.1c0-0.1,0-0.3-0.1-0.4C267.2-36.1,267-36.1,266.9-36.1z M277.7-36.3
	c0.1-0.1,0.3-0.1,0.3-0.2c0-0.1,0-0.3,0-0.5c-0.2,0.1-0.4,0.2-0.5,0.3C277.5-36.6,277.7-36.4,277.7-36.3z M261.6-52.3
	c-0.1-0.1-0.2-0.3-0.2-0.4c-0.1,0.1-0.3,0.3-0.3,0.3c0.1,0.2,0.3,0.3,0.4,0.5C261.5-52,261.5-52.2,261.6-52.3z M260.6-38.8
	c-0.1-0.1-0.2-0.2-0.3-0.3c-0.1,0.2-0.3,0.5-0.3,0.7c0,0.1,0.2,0.2,0.3,0.3C260.4-38.3,260.5-38.6,260.6-38.8z M280.6-28.5
	c0.2,0.1,0.5,0.3,0.7,0.3c0.1,0,0.3-0.2,0.3-0.3c0-0.1-0.2-0.3-0.2-0.3C281.1-28.7,280.9-28.6,280.6-28.5z M436,51.9
	c0,0.1,0,0.2,0.1,0.3c0.1,0.1,0.3,0.1,0.4,0.1c0-0.2-0.1-0.3-0.1-0.5C436.3,51.8,436.1,51.9,436,51.9z M270.9-34.3
	c0.2,0.1,0.5,0.3,0.7,0.3c0.1,0,0.2-0.2,0.3-0.3c-0.2-0.1-0.5-0.3-0.7-0.3C271.2-34.6,271-34.4,270.9-34.3z M279-34
	c-0.1-0.1-0.2-0.2-0.3-0.3c-0.1,0.2-0.2,0.5-0.3,0.7c0,0.1,0.2,0.2,0.3,0.3C278.8-33.5,278.9-33.8,279-34z"/>
<path d="M-175,15.4c0.6-0.9,1.2-1.8,2.3-3.3c-2.1,0.6-3.6,0.9-5.1,1.4c-0.8,0.3-1.4,1.7-2.3,0.5c-0.3-0.4,0.3-1.5,0.4-2.3
	c0.3-0.3,0.6-0.7,1-1c0.6-0.3,1.3-0.6,1.9-1c0.4-0.1,0.8-0.2,1.3-0.3c-0.1-0.2-0.2-0.3-0.3-0.5c-0.3,0.3-0.6,0.5-0.9,0.8
	c-0.6,0.3-1.3,0.6-1.9,1c-0.3,0.3-0.7,0.6-1,1c-0.9-0.1-2.1-0.2-1.6-1.6c1.1-3,3.2-4.6,6.4-4.7c0.7,0,1.3-0.3,2-0.5
	c1.1,2.1,2.1,4.2,3.5,6.9c-1.1-6.7-1.4-7.3-4.5-11.3c0.4,1.8,0.8,3.2,1.1,4.5c-3-1.8-2.3-5.3-4.3-8.3c3.8,0.5,5.1,2.9,6.1,5.3
	c1.1,2.7,2.9,4.2,5.9,3.9c0.1,0.1,0.1,0.3,0.2,0.4c0.1,0.1,0.2,0.1,0.3,0.1c-0.2-0.2-0.3-0.3-0.5-0.5c-1.3-1.3-2.7-2.6-4-3.9
	c-0.3-0.3-0.4-0.8-0.6-1.2c0.5-0.2,1.1-0.7,1.6-0.6c1.4,0.3,2.7,0.9,4.1,1.2c0.2,0,0.5-0.9,0.8-1.3l0.1-0.1c1.9,0.9,2.3,2.5,2.8,4.5
	c-1.9-0.6-3.3-1.1-4.8-1.5c0-0.1-0.1-0.3-0.2-0.4c-0.1-0.1-0.2-0.1-0.3-0.1c0.2,0.2,0.3,0.3,0.5,0.5c0.4,0.5,0.6,1.1,1.1,1.6
	c1.6,1.5,3.5,1.9,4.1,0.8c0.9-1.4,0.9-3-0.2-4.4c-0.5-0.6-1.1-1.1-1.6-1.8c-0.8-1-1.6-1.9-2.4-2.9c0,0,0,0,0,0
	c1.1,0.5,2.3,0.9,3.9,1.6c-0.2-2-0.5-3.8-0.7-5.5c1.7,0.8,1.7,0.8,4.5,4.9c0,0,0,0,0,0c-0.1,1.2-0.6,2.5-0.4,3.7
	c0.2,0.9,0.5,3,2.3,1.2c0,0,0,0,0,0c0.5-0.4,1.4-0.9,1.3-1.1c-0.6-2.5,0.9-4,2.9-6.1c-0.2,1.9-0.3,3.1-0.4,4.3
	c-0.1,0.1-0.3,0.1-0.4,0.2c-0.1,0.1-0.1,0.2-0.1,0.3c0.2-0.2,0.3-0.3,0.5-0.5c2.6-1,2.7-2.8,1.8-5c-1-2.4-1.6-4.8,0.6-7.7
	c0.8,2,1.4,3.6,2.1,5.2c0.2,0.5,0.8,0.8,1.2,1.2c0.3-0.4,0.8-0.7,0.8-1.1c-0.2-6.5,2.7-12.9,0.5-19.5c-1.2-3.6,0-5.7,3.4-7.7
	c4.9-2.9,10.1-4.9,15.8-5.1c1.1,0,2.2-0.3,3.3-0.6c6.3-1.4,12.6-2.5,19-2.2c5.3,0.2,10.5,1.1,15.8,1.5c4.7,0.3,9.3,0.2,14,0.5
	c2.9,0.2,5.8,0.4,8.5,1.2c3.6,1.1,4.3,3.2,2.8,6.8c-0.1,0.1-0.1,0.3-0.2,0.4c-4.7,6.2-2.9,13.1-2.4,19.9c0.2,3.2,0.4,6.4,0.7,9.9
	c2.2-1.2,4.4-2.4,6.5-3.5c2.6-1.4,0-4.8,2.9-6.5c0.7,1.6,1.3,3.2,1.9,4.8c0.7,2.1,1,2.1,3.1,1.2c1.7-0.8,3.4-1.3,5.1-1.9
	c1.4,2.1-0.3,4.7,2.1,6.1c0.1,0-0.2,1-0.5,1.5C-42.3-1.2-43-1-43.3-0.5c-0.3,0.5-0.2,1.2-0.2,1.8c0.6,0,1.1-0.1,1.7-0.1
	c0.3,0,0.6-0.1,1-0.1c0,0.3,0,0.7,0,1c-0.3,0.3-0.6,0.6-1,1c-0.3,0.3-0.6,0.6-1,1c-0.3,0.3-0.6,0.6-1,1c-0.1,0.1-0.3,0.1-0.4,0.2
	c-0.1,0.1-0.1,0.2-0.1,0.3c0.2-0.2,0.3-0.3,0.5-0.5c0.3-0.3,0.6-0.6,1-1c0.3-0.3,0.6-0.6,1-1c0.3-0.3,0.6-0.6,1-1
	c0.8-0.3,0.7-0.6,0-0.9c0.3-0.9,0.6-1.8,0.7-2.7c0.4-2.2,1.1-2.5,2.6-0.7c0.4,0.5,1.4,0.6,2.3,1c-0.8,0.9-1.7,1.7-2.3,2.6
	c-0.5,0.7-0.6,1.5-0.9,2.3c0.8-0.2,1.5-0.3,2.3-0.5l0,0c0.3,0.6,0.7,1.3,1,1.9l0,0c0.1,1.7,1.1,2.1,2.6,1.9c1.8-0.2,2.5,0.3,1.1,2
	c-0.2,0.2-0.1,1.1,0,1.2c0.5,0.3,1.3,0.6,1.6,0.4c1.2-0.7,2.2-1.6,3.3-2.5c0.1-0.1,0.3-0.1,0.4-0.2c0.1-0.1,0.1-0.2,0.1-0.3
	c-0.2,0.2-0.3,0.3-0.5,0.5c-1.3,0-2.6-0.5-1.3-1.9c1-1,2.7-1.6,4.2-2c1.6-0.3,2.6,0.8,3.5,2.7C-24.9,6-25,11-27.7,13
	c-0.1,0.1,0.2,1,0.5,1.1c0.3,0.1,1-0.2,1.2-0.5c2.4-4.6,7-5.4,11.3-6.6c0.4-0.1,1.2,0,1.3,0.2c0.5,1.9,1,3.8,1.4,5.8
	c0,0.1-0.6,0.5-0.7,0.4c-0.4-0.2-0.7-0.6-1.1-0.8c-1.1-0.8-2.5-2.3-3.4-2c-2.4,0.7-3.8,2.8-4.9,5c-0.2,0.3,0.5,1.1,0.7,1.6
	c0.1,0.4,0.3,1,0.2,1.2c-1,1.1-5,1.2-7,0.2c1.5-0.3,3.3,0.5,4.4-1.3c-2.2-2.3-5.4-1.3-7.9-2.4c-0.1-0.1-0.8,1-1.2,1.6
	c0.5,0.3,1,0.8,1.4,0.8c0.9-0.1,1.8-0.6,2.8-0.6c1.9,0,0.7,1.2,0.6,1.9c-1.3,0.6-2.6,1.3-3.9,1.9c0-0.3,0-0.6,0-1
	c0.1-0.1,0.3-0.1,0.4-0.2c0.1-0.1,0.1-0.2,0.1-0.3c-0.1,0.2-0.3,0.3-0.4,0.5c-0.6,0.3-1.3,0.6-1.9,1c-0.3,0.3-0.7,0.6-1,1
	c-2,0.3-3.1,1.2-2.5,4.1c1-1.8,1.8-2.9,2.5-4.1c0.3-0.3,0.6-0.7,1-1c0.6,0,1.3,0,1.9,0c0,0.5,0,1,0.1,1.4c0.1,1.6,0,3.3,0.6,4.7
	c0.2,0.4,2.4-0.1,4,0.6c-1.3,0.8-2.5,2.3-3.9,2.4c-2.3,0.2-3.6,1.9-5.5,2.6c-0.4,0.1-0.5,1-0.7,1.5c0.6,0.2,1.5,0.8,1.9,0.6
	c1.6-0.8,3-1.8,4.5-2.8c0.7-0.4,1.3-0.9,2.2-1.1c-0.3,2-1.8,2.9-3.4,3.8c-3.2,1.8-3.2,1.8-1.9,5.2c0.2,0.4,0.2,0.9,0.2,1.4
	c-0.7-0.3-1.3-0.6-2-1c-0.3-0.6-0.6-1.3-1-1.9c-0.1-0.4-0.2-0.8-0.3-1.3c-0.2,0.1-0.3,0.2-0.5,0.3c0.3,0.3,0.5,0.6,0.8,0.9
	c0.3,0.6,0.6,1.3,1,1.9c0,1.4-0.3,3,1.9,2.9c0,0.1,0.1,0.3,0.2,0.4c0.1,0.1,0.2,0.1,0.3,0.1c-0.2-0.2-0.3-0.3-0.5-0.5
	c0-0.7,0-1.3,0-2c0.7,0.8,1.5,1.6,1.9,2.5c0.5,1.4-0.2,2.1-1.6,1.5c-3-1.1-5.9-2.1-8.8-3.5c-2.2-1-3.1-0.2-4.1,1.7
	c0-1.1,0-2.2,0-3.2c0.1-0.1,0.3-0.1,0.4-0.2c0.1-0.1,0.1-0.2,0.1-0.3c-0.2,0.2-0.3,0.3-0.5,0.5c-0.3,0-0.7,0-1,0l0,0
	c0-0.6,0-1.3,0-1.9l0,0c0-0.3,0-0.6,0-0.9l-0.1-0.1c0.3-1.3,0.7-2.6,1-3.9c0.3,0,0.7,0,1,0c0.3,0.3,0.6,0.5,0.9,0.8
	c0.1-0.2,0.2-0.3,0.3-0.5c-0.4-0.1-0.9-0.2-1.3-0.3c0-0.3,0-0.7,0-1c0.1-0.1,0.3-0.1,0.4-0.2c0.1-0.1,0.1-0.2,0.1-0.3
	c-0.2,0.2-0.3,0.3-0.5,0.5c-0.3,0.3-0.7,0.6-1,1c-3.4,1.9-3.4,2-2,4.8l0,0c-0.1,0.3-0.2,0.6-0.4,0.8c-0.6,1.2-1.1,2.2-2.3,0.4
	c-0.2-0.3-0.8-0.2-1.3-0.3l0,0c0.3-0.7,0.6-1.3,1-2c0.1,0.1,0.1,0.3,0.2,0.4c0.1,0.1,0.2,0.1,0.3,0.1c-0.2-0.2-0.3-0.3-0.5-0.5
	c0.3-2.3,0.6-4.5,1-6.8c0.1,0,0.3-0.1,0.4-0.2c0.1-0.1,0.1-0.2,0.1-0.3c-0.2,0.2-0.3,0.3-0.5,0.5c-0.6,1.4-1.6,2.8-1.8,4.3
	c-0.4,3.5-3.6,3.1-5.5,4.5c-0.3-0.4-0.9-0.9-0.8-1.2c0.7-1.6,1.5-3.1,2.3-4.6c0.3-0.3,0.6-0.7,1-1c0.3-0.3,0.6-0.6,1-1
	c0.3-0.3,0.6-0.6,1-1c0.3-0.3,0.6-0.7,1-1c0.1-0.1,0.3-0.1,0.4-0.2c0.1-0.1,0.1-0.2,0.1-0.3c-0.2,0.2-0.3,0.3-0.5,0.5
	c-0.3,0.3-0.6,0.6-1,1c-0.3,0.3-0.6,0.6-1,1c-0.3,0.3-0.6,0.6-1,1c-0.3,0.3-0.7,0.6-1,1c-1,0.5-1.9,1.1-2.9,1.5
	c-0.4,0.1-1.3-0.3-1.3-0.3c0.7-3.7-2.8-1.4-3.9-3.9c-0.5,2.8-0.7,4.5-1,6.2c-2-0.8-1.5-2.5-1.6-3.9c-0.1-1.8-0.4-3.1-2.5-3.5
	c-1.1-0.2-1.1-0.5,0.6-2l0.1,0.1c2.7,1.7,2.8,1.7,3.9-0.3c1-1.8,1.9-3.7,2.9-5.6c0.2-0.3,0.8-0.6,1.1-0.6c0.3,0.1,0.7,0.7,0.7,1.1
	c-0.1,0.9-0.3,1.9-0.6,2.8c-0.5,1.3-1.4,2.6-1.8,3.9c-0.6,1.7,1.1,1.7,2,2.1c1.1,0.5,1.4-0.4,1.4-1.3c0.1-1.8,0-3.6,0.1-5.3
	c0-0.5,0.6-1.3,1-1.4c0.5,0,1.3,0.5,1.5,0.9c0.7,1.6,1.2,3.3,1.8,5.1c1-0.6,2-1.1,2.8-1.8c2-1.9,1.7-2.9-0.8-4.2
	c-2.7-1.4-5.6-2.6-7.8-4.6c-1.6-1.5-2.2-1.2-3.4,0c-0.6,0.5-1.3,0.9-1.9,1.4l0,0c-0.3-0.8-0.7-0.8-1,0l0,0c-2.7,0.2-4.1,2-4.5,4.3
	c-0.4,2.1,1.1,0.3,1.6,0.5l0,0c-1.1,2.4-2.3,4.7-3.4,7.1c-0.1,0-0.3,0-0.4,0c0.6-4.1,1.1-8.2,1.7-12.3c-3,4.3-1.8,9.7-4.6,14.1
	c0.3-3,0.6-6,0.8-8.9c0.1,0,0.3-0.1,0.4-0.1c0.1-0.1,0.1-0.2,0.1-0.3c-0.2,0.2-0.3,0.3-0.5,0.5c-0.7,1.4-1.3,2.8-2,4.2
	c-0.4,0.8-0.8,1.5-2,2.1c0-4,0-8.1,0-12.1c2.1,1.7,0.3,4.2,1.6,6.7c1.2-2.5,2.3-4.6,3.3-6.7c0.3-0.3,0.7-0.6,1-1
	c0.3-0.3,0.6-0.6,1-1c0.1-0.1,0.3-0.1,0.4-0.2c0.1-0.1,0.1-0.2,0.1-0.3c-0.2,0.2-0.3,0.3-0.5,0.5c-0.3,0.3-0.6,0.6-1,1
	c-0.3,0.3-0.6,0.7-1,1c-0.3,0-0.6,0-1,0l-0.1-0.1c-0.4-1.2-0.8-2.3-1.6-4.5c-1.1,2.2-1.6,3.4-2.2,4.5c-2.2,1.8-2.1,4.2-1.8,6.6
	c0.1,0.8,0.6,1.6,0.6,2.3c-0.3,5.3-0.3,5.3,1.7,9.4c1.6,3.3,3.2,6.6,4.9,9.9c0.9,1.8,0,3.6-1.9,3.2c-2.3-0.4-4.9,0-6.8-2
	c-0.7-0.7-2.3-2-2.6,0.6c0,0.1-0.6,0.4-0.7,0.3c-0.4-0.3-0.9-0.8-0.9-1c0.3-1.7,0.7-3.4,1.2-5.1c0.3-1.2,1.2-2.4,1.1-3.6
	c0-1.6-1.1,0-1.7-0.2l0,0c0.8-1.3,1.6-2.6,2.3-4c0.9-1.6-0.4-2.3-1.3-3.1c-0.9-0.9-1.7-0.3-2.4,0.4c-1.5,1.6-3,3.2-4.5,4.7
	c-0.3-0.8-0.6-0.9-0.9,0c-0.3,0-0.7,0-1,0c0.3-2.9,2.6-4.4,4.7-5.7c2.1-1.3,2.4-2.7,1.3-4.7c-0.3-0.5-0.3-1.2-0.5-1.8
	c-0.5-1.2-1.6-1.3-2.1-0.2c-1.8,3.9-3.7,7.7-5.1,11.8c-0.6,1.9,1.1,0.5,1.7,0.6c0.3,0.8,0.6,0.9,0.9,0c0.3,0,0.7,0,1,0
	c-0.3,1.5-0.6,2.8,1,3.9c0.9,0.7,1.3,1.9,2,2.9c-0.1,0.1-0.3,0.1-0.4,0.2c-0.1,0.1-0.1,0.2-0.1,0.3c0.1-0.2,0.3-0.3,0.4-0.5
	c0.3,0,0.7,0,1,0c0,0,0,0,0,0c0,0.8,0.2,1.6,0,2.3c-0.3,1.9-0.8,2.3-2.7,1.3c-1.3-0.7-1.9-0.3-2.9,0.4c-1,0.7-2.1,1.2-3.1,1.8l0,0
	c1.1-1.8,2.4-3.4,4.6-4c0.2-0.1,0.4-0.6,0.5-0.9c-0.4-0.1-1-0.5-1.2-0.3c-1.9,1.4-3.8,2.9-5.7,4.3c0,0-0.2-0.2-0.2-0.2
	c0.4-1.3,0.7-2.5,1.1-3.8l0,0c0.3-0.7,0.6-1.3,1-2c0.3-0.3,0.6-0.7,1-1c0.3,0,0.7,0,1,0c0.1,0.4,0.2,0.9,0.3,1.3
	c0.2-0.1,0.3-0.2,0.5-0.3c-0.3-0.3-0.5-0.6-0.8-0.9c0-0.7,0-1.3,0-2c0.1-0.1,0.3-0.1,0.4-0.2c0.1-0.1,0.1-0.2,0.1-0.3
	c-0.2,0.2-0.3,0.3-0.5,0.5c-0.3,0.6-0.6,1.3-1,1.9c-0.3,0.3-0.7,0.6-1,1c-0.3,0-0.7,0-1,0c0,0,0,0,0,0c0-1.6-0.1-3.2,0-4.8
	c0.3-3.4-1-5.5-4.4-6.4c-0.1,0.5-0.2,1-0.4,1.3c-0.3,0.6-0.8,1.1-1.2,1.7c-0.2-0.7-0.8-1.5-0.5-2c1-2.2,0.7-5.2,3.6-6.4
	c0,0.3,0,0.7,0,1c-0.2,0.8-0.8,1.9-0.5,2.2c0.8,0.9,1.9,2,3,2.2c2,0.5,1.1-1.9,1.9-2.6c0.6-0.5,1-1.2,1.4-1.8c0.3,0.8,0.6,0.8,0.9,0
	c0.1-0.1,0.3-0.1,0.4-0.2c0.1-0.1,0.1-0.2,0.1-0.3c-0.1,0.2-0.3,0.3-0.4,0.5c-0.3,0-0.7,0-1,0c0.2-2.4,1.7-4,3.2-5.7
	c2.2-2.5,2.2-3.1-0.3-6.6c-1.7,2.3-3.2,4.5-4.8,6.6c-1.2,1.6-2.6,3.1-3.8,4.7c0.3-1.3,0.6-2.6,0.9-3.9c0.3-0.3,0.6-0.6,1-1
	c0.1-0.1,0.3-0.1,0.4-0.2c0.1-0.1,0.1-0.2,0.1-0.3c-0.2,0.2-0.3,0.4-0.5,0.5c-0.3,0.3-0.6,0.6-1,1c-2.8,1.6-4,4.5-5.5,7.2
	c-0.7,1.2-1.1,2-2.4,0.5c-1-1.2-1.6-0.4-1.8,0.8c-0.2,1.2,0.4,3.1-1.4,3c-2.2,0-1.4-2.1-1.5-3.4c-0.1-1.1,0-2.2-0.6-3.4
	c-0.2,1.9-0.4,3.8-0.7,5.8c-3.5-2.3-3.5-2.3-2.6-4.6c0,0.1,0.1,0.3,0.2,0.4c0.1,0.1,0.2,0.1,0.3,0.1c-0.2-0.2-0.3-0.3-0.5-0.5
	c-0.6-1.4-1.2-2.2-2.7-0.8c-0.5,0.5-1.4,0.5-2.1,0.8l0,0c0.3-0.6,0.6-1.1,0.9-1.7c1-2,1-2-0.9-3.8c-0.2-0.2-0.5-0.2-0.8-0.3
	c0.3,1.3-2,2.5-0.1,3.9l0,0c0,0.7,0,1.3,0,2c0,0,0,0,0,0c-0.3,0.7-0.7,1.3-1,2l0,0c-0.6-0.2-2.1,1.1-1.6-0.2
	c1.6-4.5-1.5-8.5-0.2-13.2c-2,1.7,0.1,4.5-2.6,5c0.2-1.7,0.2-3.4,0.5-5.1c0.6-3.3,1.3-6.6,1.9-9.9c0.3-0.3,0.5-0.6,0.8-0.9
	c-0.2-0.1-0.3-0.2-0.5-0.3c-0.1,0.4-0.2,0.9-0.3,1.3c-1.3,3.9-2.6,7.8-3.9,11.6c-0.4,1.1-0.5,2.2-1.1,3.1c-0.5,0.8-0.3,2.5-2.1,2
	c-1.2-0.4-1.8-1.2-1.8-2.5c0-0.6-0.1-1.3-0.2-3.1c-0.5,2-0.7,2.9-1.1,4.5c-0.8-1.9-1.4-3.2-1.9-4.5c-0.4,0.7-0.7,1.3-1.2,2.2
	c-1.1-4.3,1.8-7.7,1.7-11.5l0,0c0.3-0.7,0.6-1.3,1-2c0.1-0.1,0.3-0.1,0.4-0.2c0.1-0.1,0.1-0.2,0.1-0.3c-0.2,0.2-0.3,0.3-0.5,0.5
	c-0.3,0-0.7,0-1,0l0,0c0-1,0-1.9,0-2.9c0.3-0.3,0.5-0.6,0.8-0.9c-0.2-0.1-0.3-0.2-0.5-0.3c-0.1,0.4-0.2,0.8-0.2,1.3
	c-0.8,0-1.1-2.9-2.5-0.1c-2.5,5.2-2.8,5.5-1.8,9.7c1-1.5,2.1-3.1,3.2-4.8c0,0,0,0,0,0c-1.4,3.9-2.7,7.8-4.1,11.7
	c-0.2,0.5-1.9-1.1-1.7,0.9c0.1,1.1-0.1,2.1-0.8,3.2c-0.1-2.5-0.2-5-0.3-7.6c-0.2-0.1-0.5-0.1-0.7-0.2c-0.5,1.3-1.1,2.5-1.9,4.6
	c-0.7-4.2-1.2-7.8-1.8-11.3c-0.3,0-0.5,0.1-0.8,0.1c0.4,3.5,0.8,6.9,1.1,10.4c0,0.5-0.5,1-0.7,1.4c-0.6-0.4-1.6-0.8-1.6-1.2
	c-0.1-1,0.3-2,0.6-3.4c-2.2,1.3-1.6,3.1-1.8,4.6c-0.1,0.6-0.8,1.1-1.2,1.7c-0.3-0.7-0.5-1.4-0.8-2.1c0-0.1,0-0.3,0-0.5
	c0.3-0.3,0.5-0.6,0.8-1c-0.2-0.1-0.3-0.2-0.5-0.3c-0.1,0.4-0.2,0.9-0.3,1.3c-0.5,0.5-1.1,1-2.3,2.1c0.9-3.1,1.6-5.5,2.2-7.8
	c0.4-1.3,0.7-2.7,1.1-4l0,0c0.3-0.3,0.7-0.7,1-1l0,0c0.3-0.7,0.6-1.3,1-2c0.3-0.3,0.6-0.6,1-1c0.1-0.1,0.3-0.1,0.4-0.2
	c0.1-0.1,0.1-0.2,0.1-0.3c-0.1,0.2-0.3,0.3-0.4,0.5c-0.3,0-0.7,0-1,0c0.3-1.9,0.6-3.9,1-5.8c1.9,3,4.3,0.1,6.7,0.3
	c-1.5,1.9-2.8,3.5-4,5.1c-1.1,1.6-0.4,2.6,1.2,3.3c0,0.7,0,1.3,0,2c-0.3,0.3-0.5,0.6-0.8,1c0.2,0.1,0.3,0.2,0.5,0.3
	c0.1-0.4,0.2-0.9,0.3-1.3c1-0.6,1.9-1.3,2.9-1.9c0,0.7,0,1.3,0,2c-0.9,0.5-2,0.9-1.5,2.3c0,0.1,0.3,0.3,0.4,0.2
	c1.6-0.4,1-1.6,1.1-2.6c1.1-0.6,1-1.3,0-1.9c0-0.6,0-1.3,0-1.9c0.3-0.6,0.6-1.3,1-1.9c0.9-0.3,0.8-0.6,0-0.9
	c0.5-3.5,4.1-4.6,5.6-7.8c1.1,1.9,1.9,3.2,2.7,4.6c1.6-1.5,3-2.9,4.5-4.3c0.2,2.2,2.2,3.3,3.5,4.8c0.2,0.2,0.5,0.2,0.8,0.3
	c3-4.4,3-4.4,5.1-5.5c-1.7,5.2-4.6,10.1-3.4,15.9c1-2.2,2-4.4,3-6.5c0.1-0.2,0.6-0.3,0.8-0.3c0.2,0.1,0.5,0.4,0.5,0.7
	c0,0.3,0,0.7-0.2,0.9c-1.1,1.5,0.5,4.2-2.3,4.9c0.4,2,0.6,4.1,1.1,6.1c0.1,0.3,1.1,0.5,1.6,0.7c0.1,0.4,0.2,0.8,0.3,1.2
	c0.2-0.1,0.3-0.2,0.5-0.3c-0.3-0.3-0.5-0.6-0.8-0.9c0.6-3.7,0.6-3.7,3.3-5.5c-0.5,1.8-1,3.2-1.1,4.5c-0.1,1.1,0.3,2.2,0.5,3.3
	c0.4-1,1-1.9,1.1-2.9c0.2-2.4,0.1-4.8,0.1-7.2c1.2-0.6,1.2-1.3,0-1.9c-0.2-0.4-0.4-0.9-0.6-1.3c-0.1,0.4-0.2,0.9-0.3,1.3
	c-0.5-1-1-1.9-1.3-2.9c-0.1-0.2,0.7-1,1-0.9c0.6,0.1,1.4,0.4,1.6,0.9c1.1,2.3,2,1.1,3-0.1c0.5-0.6,1.1-1.2,1.7-1.8
	c-0.7,2.8-1.6,5.3-0.7,8c1.5-0.8,3-1.6,4.5-2.3c0,0.3,0,0.7,0,1c-0.3,0.3-0.6,0.6-1,1c-0.3,0.3-0.6,0.6-1,1
	c-2.1,1.4-4.1,2.9-3.9,5.8c-0.3,0.5-0.6,1-0.8,1.6c-0.1,0.2,0.2,0.5,0.4,0.7c0.1-0.3,0.3-0.6,0.3-0.9c0.1-0.5,0.1-1,0.1-1.4
	c0.7-0.3,1.3-0.6,2-1c0.3,1,0.7,1.9,1,2.9c-0.3,0.7-0.5,1.4-0.8,2.1c0.7-0.3,1.5-0.5,2-0.9c0.7-0.6,1.1-1.4,1.7-2.1
	c0.3-0.3,0.6-0.7,1-1c0.8-0.3,0.8-0.6,0-0.9c2-1.9,4.8-3.2,5.3-6.4c0.1-0.5,0.8-1.1,1.3-1.1c0.4,0,0.9,0.7,1.2,1.1
	c0.5,1,0.8,2,1.1,2.9c2.9-1.6,5.7-3,8.4-4.7c1.7-1,3.4-2.3,5-3.5c0.1-0.1,0.3-0.1,0.4-0.2c0.1-0.1,0.1-0.2,0.1-0.3
	c-0.2,0.2-0.3,0.4-0.5,0.5c-1.6-1-1-2.5-0.9-3.9c0-0.2,0.4-0.5,0.7-0.6c0.2,0,0.8,0.1,0.8,0.3c0.7,2.7,2.2,3.8,5,2.9
	c0.3-0.1,0.8,0.2,1,0.5c0.1,0.1-0.1,0.6-0.3,0.8c-0.3,0.4-0.7,0.7-1,1c-0.9,1-2.9,1.1-2,3.2c1.2-0.6,2.5-1.2,3.6-1.9
	c0.6-0.4,1.1-1.2,1.6-1.8c0.5-0.7,1-1.4,1.4-2.1c0.5,0.8,1.2,1.5,1.6,2.3c0.6,1.3,1.1,2.6,1.6,3.9c0.3,0,0.5,0.1,0.6,0.1
	c1.1-0.4,2.2-0.8,3.3-1.2c-0.1,1.2-0.2,2.4-0.2,3.6c0,0.4,0.1,0.8,0.1,1.3c1.5-0.6,2.9-1,4.2-1.6c0.4-0.2,0.9-1.1,0.8-1.4
	c-0.8-1.5-0.3-3.7-2.5-4.4c-0.3-0.8-0.6-0.8-0.9,0c-0.4-0.6-1.1-1.1-1.3-1.8c-0.1-0.4,0.1-1.3,0.5-1.5c0.4-0.2,1.3-0.1,1.6,0.2
	c1.8,2,3.4,4,5.1,6c-0.2,0.3-0.8,0.8-0.7,1c0.5,1.5,1.1,3,1.7,4.5c2.2-1.6-0.8-3-0.1-4.5c0.3-0.9,0.6-1.9,0.8-2.9
	c0.1-0.6-1-1.6,0.3-1.8c0.5-0.1,1.3,0.8,1.5,1.4c0.3,0.7,0.2,1.5,0.2,2.3c-0.8,1.9-0.8,1.9,0,4.1c0-1.4,0-2.7,0-4.1
	c0.7,0.6,1.3,1.3,2,1.9c0,0.3,0,0.7,0,1c-0.1,0.1-0.3,0.1-0.4,0.2c-0.1,0.1-0.1,0.2-0.1,0.3c0.1-0.2,0.3-0.3,0.4-0.5
	c0.3,0,0.7,0,1,0c0.3,0.6,0.6,1.3,1,1.9c-0.5,0.6-0.9,1.3-1.6,1.7c-2.3,1.4-1,1.8,0.6,2.2c0.9,2,2.3,2,3.9,1c0.3,0.3,0.7,0.6,1,1
	c0.1,0.7,0,1.9,1.1,1.2c1.4-0.8,2.5-2.1,3.7-3.1c0.3-0.3,0.6-0.6,1-1c0.8-0.3,0.9-0.6,0-0.9c0-0.3,0-0.7,0-1c0.3-0.3,0.6-0.6,1-1
	c0.1,0,0.3-0.1,0.4-0.1c0.1,0,0.1-0.2,0.1-0.3c-0.2,0.2-0.3,0.3-0.5,0.5c-0.3,0.3-0.6,0.6-1,1c-0.8,0.3-0.8,0.6,0,0.9
	c0,0.3,0,0.7,0,1c-0.3,0.3-0.6,0.6-1,1c-1.6,0.6-3.3,1.3-4.9,1.9c-0.3-0.3-0.6-0.7-1-1c-0.1-0.9-0.2-1.9-1.6-1.1
	c-0.6,0.3-1.5,0.1-2.3,0.2c0.6-0.8,1.3-1.7,1.9-2.5c1.2-1.6-0.3-1.2-1-1.4c0.2-0.8,0.4-1.6,0.6-2.4c-0.5,0.1-1.1,0.3-1.6,0.4
	c-0.3-0.3-0.6-0.6-1-1c0.4-0.9,0.6-1.8,1.2-2.6c1.1-1.3,0.5-2-0.8-2.5c-2.4-1-4.7-2.1-7.1-3.1c-3.6-1.4-4.6-4.2-4.3-7.7
	c0.1-1.9,0.4-3.9,0.1-5.8c-0.9-6.4-1.6-12.7-1.7-19.2c0-1.4,0.3-2.3,1.4-3.3c1.1-1.1,1.9-2.6,2.4-4.1c0.4-1.2-0.1-2.3-1.7-2.1
	c-3.6,0.5-7.5,0.5-10.8,1.9c-5.3,2.2-10.8,2-16.1,2.3c-8.4,0.3-16.8-0.1-25.2-0.3c-3.7-0.1-7.4,0.3-11,1.5c-0.8,0.2-1.8,0.8-2.3,0.5
	c-3.9-2.2-7.5,0.8-11.2,0.6c-0.3,0-0.9,0.7-1,1.1c-0.1,0.9-0.2,2,0.1,2.9c1.2,2.9,0.5,5.6,0.1,8.5c-0.3,2.5-2.2,5-0.6,7.9
	c0.9-0.8,1.6-1.5,2.3-2c0.3-0.2,1-0.3,1.3-0.1c0.2,0.1,0.4,0.9,0.2,1.2c-1.2,1.7-2.5,3.4-3.9,4.9c-2.7,2.8-5.5,5.4-8.2,8.1
	c-6.5,3.8-13,7.5-19.5,11.3c-1.5,0.9-3.1,1.7-4.6,2.5C-174.7,15.7-174.8,15.6-175,15.4z M-78.7,13.7c0.1-0.1,0.3-0.1,0.4-0.2
	c0.1-0.1,0.1-0.2,0.1-0.3C-78.4,13.4-78.6,13.6-78.7,13.7c-0.3,0.4-0.6,0.7-0.9,1c-0.3,0.3-0.6,0.6-1,1c-1.4,0.5-1.9,1.5-1.9,2.9
	c-0.3,0.6-0.6,1.3-1,1.9c-0.3,0.6-0.6,1.3-1,1.9c-0.3,0.3-0.5,0.6-0.8,0.9c0.2,0.1,0.3,0.2,0.5,0.3c0.1-0.4,0.2-0.8,0.3-1.3
	c0.3,0,0.7,0,1,0c0,0.5,0,0.9,0.1,1.4c0.1,0.3,0.4,0.6,0.5,0.9c0.1-0.3,0.4-0.6,0.3-0.8c-0.2-0.5-0.6-1-0.9-1.4c0-0.7,0-1.3,0-2
	c0.3-0.6,0.7-1.3,1-1.9c1.4-0.5,2-1.5,1.9-2.9c0.3-0.3,0.6-0.6,1-1C-79.4,14.4-79.1,14-78.7,13.7z M-22.5,12.7
	c0.1,0,0.3-0.1,0.4-0.1c0.1-0.1,0.1-0.2,0.1-0.3C-22.1,12.5-22.3,12.6-22.5,12.7c-0.3,0.4-0.6,0.7-0.9,1c-0.3,0.3-0.5,0.6-0.8,1
	c0.2,0.1,0.3,0.2,0.5,0.3c0.1-0.4,0.2-0.9,0.2-1.3C-23.1,13.4-22.8,13.1-22.5,12.7z M-35.1,11.8c0.1-0.1,0.3-0.1,0.4-0.2
	c0.1-0.1,0.1-0.2,0.1-0.3C-34.8,11.5-34.9,11.6-35.1,11.8c-0.1,0.1-0.2,0.1-0.4,0.2c-0.1,0.1-0.1,0.2-0.1,0.3
	C-35.4,12.1-35.2,11.9-35.1,11.8z M-45.8,18.6c0.3-0.3,0.6-0.6,1-1c0.1-0.1,0.3-0.1,0.4-0.2c0.1-0.1,0.1-0.2,0.1-0.3
	c-0.2,0.2-0.3,0.3-0.5,0.5C-45.1,18-45.4,18.3-45.8,18.6c-0.1,0.1-0.2,0.1-0.3,0.2c-0.1,0.1-0.1,0.2-0.1,0.3
	C-46,18.9-45.9,18.7-45.8,18.6z M-52.6-5.6c-0.1-0.1-0.1-0.3-0.2-0.4c-0.1-0.1-0.2-0.1-0.3-0.1C-52.8-6-52.7-5.8-52.6-5.6
	c0.4,0.3,0.7,0.6,1,0.9c0.1,0.1,0.1,0.3,0.2,0.3c0.1,0.1,0.2,0.1,0.3,0.1c-0.2-0.1-0.3-0.3-0.5-0.4C-51.9-5-52.2-5.3-52.6-5.6z
	 M-45.7-4.7c-0.3,0.3-0.6,0.6-1,1c-0.1,0.1-0.3,0.1-0.4,0.2c-0.1,0.1-0.1,0.2-0.1,0.3c0.2-0.2,0.3-0.4,0.5-0.5
	C-46.4-4.1-46.1-4.4-45.7-4.7c0.1-0.1,0.2-0.1,0.3-0.2c0.1-0.1,0.1-0.2,0.1-0.3C-45.5-5-45.6-4.8-45.7-4.7z M-48.7,9.8
	c0.1-0.1,0.3-0.1,0.4-0.2c0.1-0.1,0.1-0.2,0.1-0.3C-48.3,9.5-48.5,9.7-48.7,9.8c-0.1,0.1-0.3,0.1-0.4,0.2c-0.1,0.1-0.1,0.2-0.1,0.3
	C-49,10.2-48.8,10-48.7,9.8z M-82.6,9.9c0.1-0.1,0.3-0.1,0.4-0.2c0.1-0.1,0.1-0.2,0.1-0.3C-82.3,9.5-82.5,9.7-82.6,9.9
	c-0.3,0.3-0.6,0.7-1,1c-4.8,1.9-5.4,2.7-5.2,6.3c1.8-2.2,3.5-4.3,5.2-6.4C-83.3,10.5-82.9,10.2-82.6,9.9z M-46.7,6
	c0.3-0.3,0.5-0.6,0.8-0.9c-0.2-0.1-0.3-0.2-0.5-0.3C-46.5,5.1-46.6,5.6-46.7,6C-46.8,6-47,6.1-47.1,6.2c-0.1,0.1-0.1,0.2-0.1,0.3
	C-47,6.3-46.9,6.1-46.7,6z M-177.7,7.9c0.4-0.1,0.9-0.2,1.3-0.3c-0.1-0.2-0.2-0.3-0.3-0.5C-177,7.4-177.3,7.7-177.7,7.9
	c-0.1,0.1-0.3,0.1-0.4,0.2c-0.1,0.1-0.1,0.2-0.1,0.3C-178,8.2-177.8,8.1-177.7,7.9z M-44.8,11.8c-0.6,0.3-1.3,0.6-1.9,1
	c-0.1,0.1-0.3,0.1-0.4,0.2c-0.1,0.1-0.1,0.2-0.1,0.3c0.1-0.2,0.3-0.3,0.4-0.5C-46.1,12.4-45.4,12.1-44.8,11.8c0.8-0.3,0.8-0.7,0-1
	c0.8-0.4,1.6-0.9,2.4-1.3c1.4-0.7,1.6-1.9,1.4-3.2c0-0.2-0.6-0.5-0.7-0.4c-1.5,0.9-3.1,1.7-4.3,3c-1.3,1.4,0,1.8,1.3,1.9
	C-44.8,11.1-44.8,11.5-44.8,11.8z M-47.7-5.6c-0.3,0-0.7,0-0.9,0.1c-0.3,0.2-0.4,0.7-0.7,1c0.4-0.1,0.8-0.2,1.1-0.4
	C-47.9-5-47.9-5.4-47.7-5.6c0.1-0.1,0.3-0.1,0.4-0.2c0.1-0.1,0.1-0.2,0.1-0.3C-47.4-6-47.5-5.8-47.7-5.6z M-51.5,1.1
	c-0.3,0.4-0.7,0.7-0.7,1.1C-52.4,2.6-52.1,3-52,3.4c0.1-0.3,0.3-0.6,0.3-0.9C-51.6,2.1-51.6,1.6-51.5,1.1c0.2-0.4,0.5-0.7,0.7-1
	C-51,0-51.2-0.1-51.3-0.1C-51.4,0.3-51.5,0.7-51.5,1.1z M-147.6-7.6c-0.1-0.4-0.2-0.9-0.3-1.3c-0.2,0.1-0.3,0.2-0.5,0.3
	C-148.1-8.3-147.9-7.9-147.6-7.6c0,0.4,0,0.9,0.1,1.4c0.1,0.3,0.4,0.6,0.6,0.9c0.1-0.3,0.4-0.6,0.3-0.8
	C-146.9-6.7-147.3-7.1-147.6-7.6z M-82.6,14.7c0.3-0.5,0.7-0.9,0.9-1.4c0.1-0.2-0.2-0.5-0.3-0.8c-0.2,0.3-0.5,0.6-0.6,0.9
	C-82.7,13.8-82.6,14.3-82.6,14.7c-0.1,0.1-0.3,0.1-0.4,0.2c-0.1,0.1-0.1,0.2-0.1,0.3C-82.9,15-82.8,14.8-82.6,14.7z M-99.1-36.7
	c0,0.3,0,0.7,0,1c-2,0-4.1,0-6.1,0c2.1,0.6,4.2,1.6,6.1,0c0.5,0,0.9,0,1.4,0c0.3,0,0.6-0.2,0.8-0.3c-0.3-0.2-0.5-0.5-0.8-0.6
	C-98.2-36.7-98.7-36.7-99.1-36.7c-1.3-1.5-2.8-0.9-4.2,0C-101.9-36.7-100.5-36.7-99.1-36.7z M-128.2,4.1c-0.3-0.7-0.6-0.9-0.9,0
	c-0.5-0.8-1.1-1.6-1.6-2.5c-2.9,3.4-4.2,6.9-3.2,11.2c0.1,0.6,0.5,1.1,0.7,1.6c0.5-0.3,1.3-0.4,1.6-0.8c1.5-2.7,1.4,0.4,2.5,0.6
	c0-3.4,0-6.8,0-10.2C-128.8,4-128.5,4-128.2,4.1c0,1.4,0,2.8,0,4.2C-127.3,6.8-126.6,5.2-128.2,4.1z M-58.3-3.7
	c-2.5,0.3-3.8,1.6-3.8,4.8C-60.7-0.8-59.5-2.3-58.3-3.7c0.1-0.1,0.3-0.1,0.4-0.2c0.1-0.1,0.1-0.2,0.1-0.3C-58-4.1-58.2-3.9-58.3-3.7
	z M-45.8,28.3c-0.5-0.7-0.8-2-2-1.2c-0.9,0.6-1.2,1.5,0.1,2.2c-0.6,1.1-1.2,2.1-2.3,4c2.8-2,4.7-3.3,6.8-4.7
	C-44.2,28.4-45,28.4-45.8,28.3z M-47.7,16.6c2.2-1,4.3-2,6.5-3C-45.1,13.4-46.1,14-47.7,16.6c-0.1,0.1-0.3,0.1-0.4,0.2
	c-0.1,0.1-0.1,0.2-0.1,0.3C-48,17-47.9,16.8-47.7,16.6z M-42.8,24.4c-1.1,0.2-2.6,0.2-2.2,1.7c0.1,0.6,1.8,1.1,2.8,1.1
	c2-0.1,2.6-1.4,2.9-5.4c-0.9,1.4-1.3,2.9-2.4,3.8C-42.9,26.5-42.6,25-42.8,24.4c0.1-0.1,0.3-0.1,0.4-0.2c0.1-0.1,0.1-0.2,0.1-0.3
	C-42.5,24.1-42.7,24.3-42.8,24.4z M-57.4,2.1c-0.4,0.2-0.9,0.3-1.3,0.5c0-0.5-0.3-1.2,0-1.4c1-1,2.1-1.8,3.1-2.9
	c0.2-0.2,0-0.9-0.1-1.3c0-0.1-0.6-0.1-0.7,0c-1.8,1.5-4.4,3.2-4.1,5.5c0.3,1.9,3,2.5,5.2,2.5c1.2,1.2,2.5,2,4.3,1.1
	c-1.4-0.3-2.9-0.7-4.3-1c0.3-1.4,0.6-2.7,1-4.1c-0.9,0.7-1.2,1.9-1.8,2.3C-57.6,4.1-57.2,2.6-57.4,2.1C-57.3,2-57.1,2-57,1.9
	c0.1-0.1,0.1-0.2,0.1-0.3C-57.1,1.8-57.2,2-57.4,2.1z M-82.2,35.5c-1.1,3.2-1.8,5.4-2.5,7.7c-0.2,0.5-0.2,1.5,0,1.7
	c2.2,1.3,4.3,2.6,6.7,3.5c1.1,0.5,2-0.9,1.5-2.1C-78.2,43.1-79.9,39.8-82.2,35.5z M-33.1,23.1c-0.3,0-0.5,0-0.8,0
	c0,0.9,0,1.8-0.2,2.7c0,0.3-0.5,0.5-0.7,0.8c-1.6-1.9-2.1,0.2-2.7,0.9c-0.7,1-1.2,1.8-2.6,1.7c-0.4,0-0.8,0.6-1.1,0.9
	c0.5,0.3,1.2,0.9,1.6,0.8c2-0.9,4.3-1.6,5.8-3.1C-32.9,27-33.3,24.8-33.1,23.1z M-103.2,19.6c-1.9,2.5-3.5,4.5-5,6.7
	c-0.2,0.2,0.3,1.1,0.6,1.5c0.2,0.2,1.1,0.2,1.2,0C-104.8,25.5-102.6,23.4-103.2,19.6z M-87.3,23.6c1.8-3,3.4-5.3,2.1-8.4
	C-85.7,17.8-89.5,19.4-87.3,23.6z M-38.3,5.6c-0.1,3.6-0.1,3.6-2.2,5.8c1.5,0.6,3,0.7,3.8-0.8C-35.3,8.4-37.3,7.1-38.3,5.6z
	 M-38.5,41.5c0.1-0.2,0.3-0.4,0.4-0.6c-1.4-1.2-2.7-2.4-4.1-3.4c-0.3-0.2-1.3,0-1.7,0.3c-1,1.1,0.3,1.2,0.9,1.5
	C-41.6,40.1-40,40.8-38.5,41.5z M-130.7-35.6c0-0.4-0.1-0.8-0.1-1.2c-1.5,0.3-2.9,0.5-4.3,0.9c-0.3,0.1-0.6,0.8-0.5,1.2
	c0,0.2,0.8,0.6,1.1,0.5C-133.3-34.6-132-35.1-130.7-35.6z M-117.3-37.4c-2.4,0.7-4.9,1.4-7.8,2.2C-121.8-34.5-119.4-35.4-117.3-37.4
	z M-68.7,15.2c-1.6,0.4-2.5,1.3-2.2,2.8c0.1,0.3,0.4,0.6,0.7,0.9c0.7-1,1.5-1.9,2.1-2.9C-68.1,15.9-68.5,15.4-68.7,15.2z
	 M-86.2-38.6c0-0.2,0.1-0.5,0.1-0.7c-2.4-0.4-4.9-0.8-7.3-1.2c0,0.3-0.1,0.6-0.1,0.8C-91.1-39.3-88.7-38.9-86.2-38.6z M-73,9.7
	c-0.4,0-0.7,0-1.1,0c0.3,1.6,0.6,3.1,1,4.7c0,0,0.4,0.1,0.4,0C-71.1,12.6-73.2,11.3-73,9.7z M-136.5-33.3c-0.8-0.7-1.3-1.2-1.5-1.2
	c-0.9,0.3-1.7,0.8-2.5,1.3c0.2,0.4,0.5,1,0.6,1C-138.9-32.4-137.9-32.8-136.5-33.3z M-99.8,15.2c-0.4,1.6-0.8,3.1-1.4,5.3
	C-98.5,18.8-99.2,17-99.8,15.2z M-153.5,16.6c0.4,0.2,0.8,0.5,1.2,0.7c0.5-1.3,1-2.7,1.4-4c0-0.1-0.2-0.2-0.3-0.3
	C-152,14.2-152.8,15.4-153.5,16.6z M-135.3,11.5c-0.1,0-0.3,0-0.4,0c0,1.8,0,3.6,0,5.4c0.1,0,0.3,0,0.4,0
	C-135.3,15.1-135.3,13.3-135.3,11.5z M-113.7-35.6c-0.1,0.2-0.1,0.3-0.2,0.5c1.8,0,3.5,0,5.3,0c0-0.2,0-0.3,0-0.5
	C-110.3-35.6-112-35.6-113.7-35.6z M-42.5,35.4c0.5,0.4,0.8,0.8,1.2,0.9c0.7,0.3,1.5,0.6,2.2,0.8c-0.6-0.6-1.1-1.4-1.8-1.9
	C-41.2,35-41.8,35.3-42.5,35.4z M-82.4,28.4c-0.3-0.5-0.5-1-0.8-1.5c-0.4,0.5-1,0.9-1,1.4c0,0.4,0.7,0.9,1.1,1.3
	C-83,29.3-82.7,28.9-82.4,28.4z M-131.8,20.8c0.2-0.1,0.5-0.1,0.7-0.2c-0.2-1.3-0.4-2.5-0.5-3.8c-0.2,0-0.5,0.1-0.7,0.1
	C-132.2,18.2-132,19.5-131.8,20.8z M-85.4-35.9c0.1-0.1,0.1-0.3,0.2-0.4c-1.5,0-2.9,0-4.4,0c0,0.1,0,0.3,0,0.4
	C-88.2-35.9-86.8-35.9-85.4-35.9z M-36.2,14.3c-0.6-0.1-1.2-0.2-1.8-0.3c-0.1,0-0.3,0.6-0.3,0.7c0.5,0.3,1,0.5,1.6,0.6
	C-36.7,15.3-36.5,14.8-36.2,14.3z M-168.6,7.6c1,0.4,1.8,0.7,2.7,1.1c0.1-0.2,0.3-0.7,0.2-0.7c-0.6-0.4-1.3-0.7-2-1
	C-167.8,7-168.1,7.3-168.6,7.6z M-122.8,15.8c-0.5,0.7-0.9,1.2-1.2,1.7c-0.1,0.2,0.2,0.5,0.3,0.8c0.4-0.3,0.9-0.5,1.2-0.9
	C-122.4,17.1-122.7,16.6-122.8,15.8z M-91.6-34.7c-0.8-0.3-1.5-0.6-2.2-0.8c-0.2-0.1-0.6,0.1-0.9,0.2c0.7,0.4,1.5,0.9,2.2,1.2
	C-92.3-34-92-34.4-91.6-34.7z M-49.3,2.4c0.3,0.4,0.6,0.7,0.8,1c0.3-0.2,0.7-0.4,0.8-0.6c0-0.4-0.2-0.8-0.4-1.2
	C-48.5,1.9-48.9,2.1-49.3,2.4z M-76.9-36.2c0.5-0.3,1-0.6,1.5-1c-0.2-0.1-0.5-0.4-0.7-0.3c-0.5,0.2-0.9,0.5-1.4,0.8
	C-77.3-36.6-77.1-36.4-76.9-36.2z M-56.7,27.9c-0.1,0-0.3,0-0.4,0c-0.1,0.6-0.2,1.2-0.2,1.8c0,0.3,0.2,0.6,0.3,0.8
	c0.2-0.3,0.5-0.6,0.5-0.9C-56.5,29-56.6,28.4-56.7,27.9z M-80.3-35c0-0.1,0-0.2,0-0.4c-0.9,0-1.8,0-2.7,0c0,0.1,0,0.2,0,0.4
	C-82.1-35-81.2-35-80.3-35z M-75,13.1c-0.2-0.4-0.3-0.6-0.4-0.9c-0.2,0.2-0.5,0.3-0.7,0.5c-0.1,0.2,0,0.5,0,0.7
	C-75.7,13.3-75.4,13.2-75,13.1z M-36.1,18.9c-0.2-0.3-0.4-0.5-0.6-0.7c-0.1,0.3-0.3,0.6-0.3,0.8c0,0.3,0.2,0.6,0.3,0.8
	C-36.4,19.6-36.2,19.2-36.1,18.9z M-126.8-36.3c-0.3-0.1-0.5-0.3-0.8-0.3c-0.3,0-0.6,0.2-0.8,0.3c0.3,0.1,0.6,0.4,0.9,0.4
	C-127.3-35.9-127.1-36.1-126.8-36.3z M-107.3-37.3c0,0.1,0,0.3,0.1,0.3c0.1,0.1,0.3,0,0.5,0.1c0-0.2-0.1-0.4-0.1-0.5
	C-107-37.4-107.1-37.4-107.3-37.3z M-42.4,31.7c-0.3-0.1-0.5-0.2-0.7-0.3c-0.1,0-0.2,0.2-0.3,0.3c0.2,0.1,0.5,0.2,0.7,0.3
	C-42.6,32-42.5,31.8-42.4,31.7z M-32.3,12c-0.1-0.2-0.2-0.5-0.3-0.7c-0.1,0.1-0.3,0.2-0.3,0.3c0,0.2,0.2,0.5,0.3,0.7
	C-32.6,12.2-32.4,12.1-32.3,12z M-123.6,20.8c0-0.2,0-0.3,0.1-0.5c-0.2,0-0.4,0.1-0.5,0.1c0,0.1,0.1,0.3,0.2,0.4
	C-123.9,20.9-123.7,20.8-123.6,20.8z M-113.9,16.9c0-0.2,0.1-0.3,0.1-0.5c-0.2,0-0.4,0.1-0.6,0.1c0.1,0.1,0.1,0.3,0.2,0.4
	C-114.2,17-114.1,16.9-113.9,16.9z M-82.6-39.4c-0.1,0.1-0.3,0.1-0.4,0.2c0.1,0.1,0.2,0.3,0.2,0.3c0.2-0.1,0.4-0.2,0.6-0.3
	C-82.4-39.3-82.5-39.4-82.6-39.4z M-71.6-39.3c-0.1,0-0.3-0.1-0.4-0.1c0,0.2,0,0.3-0.1,0.5c0.1,0,0.3,0,0.4-0.1
	C-71.6-39.1-71.6-39.2-71.6-39.3z M-48.8,6.8c-0.1-0.1-0.2-0.2-0.3-0.3c-0.1,0.2-0.3,0.5-0.3,0.7c0,0.1,0.2,0.2,0.3,0.3
	C-49.1,7.2-49,7-48.8,6.8z M-157.5,3.3c-0.1-0.2-0.2-0.5-0.3-0.7c-0.1,0.1-0.3,0.2-0.3,0.3c0.1,0.3,0.2,0.5,0.3,0.7
	C-157.7,3.5-157.6,3.4-157.5,3.3z M-45,1.1c-0.1-0.1-0.1-0.3-0.2-0.4c-0.1,0.1-0.3,0.2-0.3,0.2c0.1,0.2,0.2,0.4,0.3,0.6
	C-45.1,1.4-45,1.3-45,1.1z M-53.7-2.8c-0.1-0.1-0.1-0.3-0.2-0.4C-54-3.1-54.2-3-54.3-2.9c0.1,0.2,0.3,0.4,0.4,0.6
	C-53.8-2.5-53.8-2.6-53.7-2.8z"/>
<path d="M116.6,12.8c-8.9,1.1-18,0.3-26.5,3.8c-5.8,2.3-11.6,4.6-17.5,6.9c-0.6,0.2-1.2,0.8-1.8,0.7c-4.6-0.1-8.7,2-13.1,3
	c-2.8,0.6-5.8,0.8-8.1-1.8c-1.5-1.7-1.4-3.1,0.5-3.7c2.9-0.9,5.8-1.8,8.8-2.2c8.9-1.1,17.6-3.3,26.1-6.4c1.3-0.5,2.5-1.4,3.7-2.3
	c0.5-0.4,0.7-1.2,0.8-1.8c0.5-2.6,1.3-3.5,3.9-4c6.6-1.3,13.2-2.5,19.8-3.7c1.1-0.2,2.2-0.1,3.4,0c4.9,0.5,9.9,1.1,14.8,1.5
	c1.4,0.1,3-0.2,4.3,0.3c1.8,0.6,4.2-0.2,5.5,2c-1.6,0.6-3.2,1.2-4.8,1.7c-3.1,0.9-6.2,1.6-9.3,2.5c-1.3,0.4-2.8,0.5-3.3,2.4
	c-0.1,0.5-1.5,0.9-2.4,1C119.8,12.9,118.2,12.8,116.6,12.8z M98.4,6.3c6.9,2.7,13.8,3.8,20.9,3.7c0.6,0,1.3,0.3,1.8,0.1
	c4-1.5,7.9-3.2,12.9-5.2c-3.1,0.3-5.2,0.3-7.3,0.7c-2.5,0.5-4.9,0.7-6.9-0.9c-2.9-2.3-6-1.9-9.1-1.3C106.6,4.3,102.6,5.3,98.4,6.3z
	 M54.6,21.6c2.9,3.8,2.9,3.8,6.6,2.6c1.7-0.6,3.3-1.5,5-1.6c5.1-0.3,9.6-2.5,14.2-4.1c5.7-2,10.8-5.7,17.2-5.9
	c0.2,0,0.4-0.4,0.6-0.5c-0.3-0.3-0.7-1-1-0.9c-2.5,0.5-5.1,0.8-7.3,1.8c-4.7,2.2-9.3,4.2-14.4,5.2c-3,0.6-6.4,0.6-9,2.9
	c-0.3,0.3-1,0.4-1.4,0.3C61.6,20.3,58.3,22.1,54.6,21.6z M99.1,8.8c2.8,4.4,6.4,2.6,10.7,2.8C105.8,10.5,102.7,9.8,99.1,8.8z
	 M98.3,8.4c-4.3-0.2-4.3-0.2-7.4,1.7C93.7,9.5,95.5,9.1,98.3,8.4z M55.2,25.2c-1.1-0.7-1.6-1.1-2.2-1.3c-0.4-0.1-0.8,0-1.2-0.1
	c0.3,0.4,0.6,1,1,1.2C53.3,25.3,54,25.2,55.2,25.2z"/>
<path d="M66.8,5c-2,0.4-4.1,0.8-7.1,1.5c1.6,0.2,2.1,0.2,2.6,0.3C63,7,63.8,7.3,64.5,7.6c-0.4,0.6-0.9,1.1-1.3,1.7
	c-0.4,0.5-0.9,0.9-1.1,1.5c-1.8,3.3-2,3.3-5.4,2.8c-3.3-0.5-6.7-0.5-10.1-0.6c-0.4,0-0.7,0.5-1.1,0.8l0,0c-0.3,0-0.6,0-1,0
	c-1.2-0.2-2.4-0.4-3.6-0.6c0.9-1.2,1.6-2.7,2.7-3.6c0.7-0.6,2.1-0.6,3.2-0.6c3.5-0.1,7,0,10.6,0c-1.7-2.2-3.5-3.1-6.1-2.7
	c-1.9,0.3-3.8,0.1-5-1.8C46.1,6,45.6,7.2,43.7,8c-2.7,1.1-5.3,1-8,0.9l0,0c-0.6-1.3-1.7-2.7,1-3c1.9-0.2,3.8-0.6,5.6-1
	c0.6-0.1,1.6-0.2,1.7-0.6c1.4-2.9,4-2.3,6.3-2.3c3.7,0.1,7.4,0,10.8-1.6c0.4-0.2,1.2-0.4,1.3-0.3c2.4,2.5,4.7,0.1,7-0.1
	c2-0.2,4.2-0.6,5.9,1.2C76,1.9,77,2.2,77.2,2.8c0.3,1,0.5,2.4,0,3.1c-0.6,0.9-1.9,1.6-3,1.9c-1.7,0.3-3.5,0.2-5.3,0.2
	C66.7,8,66.6,6.5,66.8,5c3.3,1.1,6,1.3,6,0.4c-1.2-0.2-2.4-0.4-4.4-0.8c1.5-0.5,2.3-0.7,3-1c0.6-0.3,1-0.7,1.9-1.3
	C67.7,2.1,67.7,2.1,66.8,5z M63.6,3.8c-2.7-2-2.7-2-7.6,1.6C59.1,4.7,61.2,4.3,63.6,3.8z M44.1,11.1c0,0.1,0,0.2,0,0.3
	c1.1,0,2.3,0,3.4,0c0-0.2,0-0.3,0-0.5C46.4,10.9,45.3,11,44.1,11.1z M59.5,11.1c-0.8-0.1-1.3-0.2-1.9-0.2c-0.3,0-0.5,0.2-0.8,0.3
	c0.6,0.2,1.3,0.3,1.9,0.4C58.8,11.6,59.1,11.4,59.5,11.1z M50.4,10.6c0.1-0.1,0.3-0.2,0.4-0.2c-0.1-0.1-0.3-0.3-0.3-0.3
	c-0.2,0.1-0.3,0.2-0.5,0.4C50.1,10.6,50.2,10.6,50.4,10.6z M41.5,6.2c-0.1,0.1-0.3,0.1-0.4,0.2c0.1,0.1,0.2,0.3,0.2,0.3
	c0.2-0.1,0.4-0.2,0.6-0.3C41.8,6.3,41.7,6.3,41.5,6.2z"/>
<path d="M10.5,34c5-1.3,9.5-2.6,14.1-3.8c1.1-0.3,2.1-0.7,3.1-1.1c3.4-1.5,7.8,0.4,8.9,4c0.6,1.9-0.7,4.5-2.9,4.8
	c-2.5,0.3-4.8,1.4-7.5,0.5c-2.2-0.7-4.8-0.4-7.2-0.3C15.4,38.2,12.9,36.4,10.5,34z M30.1,35.1c0.6,0.2,1.3,0.8,2.1,0.8
	c1.2,0,2.4-0.5,2.2-1.9c-0.1-0.7-1.2-1.5-1.9-1.7C31.1,32.1,30,33.4,30.1,35.1z M24.2,35.7c0-0.2,0.1-0.3,0.1-0.5
	c-2.8,0-5.5,0-8.3,0c0,0.2,0,0.3,0,0.5C18.8,35.7,21.5,35.7,24.2,35.7z M27,35.2c0.2,0.1,0.4,0.2,0.6,0.3c0.4-1,0.7-2.1,1-3.1
	c0.1-0.2-0.2-0.7-0.4-0.7c-0.2-0.1-0.7,0.2-0.8,0.4C27.3,33,27.2,34.1,27,35.2z M24,32.4c-0.1,0.1-0.3,0.1-0.4,0.2
	c0.1,0.1,0.2,0.3,0.2,0.3c0.2-0.1,0.4-0.2,0.6-0.3C24.3,32.5,24.2,32.4,24,32.4z"/>
<path d="M22.2,22.5c-0.1,1.8,1,2.5,2.6,3c0.4,0.1,0.9,0.8,1,1.3c0.1,0.3-0.5,1-0.9,1c-4.4,0.5-8.8,2.4-13-0.3
	c-0.5-0.3-0.7-0.9-1-1.4c0.4-0.3,0.7-0.6,1.2-0.8C15.4,24.3,18.8,23.4,22.2,22.5L22.2,22.5z M13.9,27.1c2.8,0,4.5,0,6.3,0
	c0.2,0,0.6-0.4,0.6-0.6c0-0.2-0.2-0.7-0.4-0.7C18.5,25.2,16.7,25,13.9,27.1z"/>
<path d="M22.1,22.5c0.5-0.7,0.8-1.9,1.5-2.1c3.1-0.9,6.2-1.6,9.3-2.2c1.4-0.3,2.5,0.4,2.8,2c0.3,1.6-0.5,3-2.1,3.2
	C29.8,23.7,25.9,23.8,22.1,22.5L22.1,22.5z M33.2,21.3c0-0.1,0-0.3,0-0.4c-1.8,0-3.6,0-5.4,0c0,0.1,0,0.3,0,0.4
	C29.5,21.3,31.4,21.3,33.2,21.3z"/>
<path d="M45.4,13.8c2.1-0.1,4.2-0.4,6,1c1,0.8,1.1,2.1-0.1,2.7c-0.8,0.5-1.7,1-2.6,1c-3.2,0.1-6.3,0-9.7-0.6
	C41.1,16.5,43.3,15.1,45.4,13.8L45.4,13.8z M46,16c0,0.1,0,0.3,0,0.4c1.2,0,2.4,0,3.6,0c0-0.1,0-0.3,0-0.4C48.4,16,47.2,16,46,16z"
	/>
<path d="M-153.4,11.8c-1,2.1-2.1,4.1-3.1,6.2c-0.7,1.6-1.3,3.3-2.7,4.8c0-0.8,0-1.5,0-2.3l0,0c0.2-0.8,0.8-1.7,0.6-2.4
	c-0.4-1.4-1.3-2.6-1.8-3.9c-0.5-1.4-2.3-2.4-1.1-4.2c1.3,0.8,2.7,1.5,4,2.3c0.3,0.2,0.6,0.6,0.7,0.8c1.5-1.5,2.9-2.9,4.4-4.3
	c0,0.7,0,1.3,0,2l0,0C-152.8,11.1-153.1,11.5-153.4,11.8C-153.4,11.8-153.4,11.8-153.4,11.8z M-159.3,12.8c-0.1-0.1-0.1-0.3-0.2-0.4
	c-0.1-0.1-0.2-0.1-0.3-0.1C-159.6,12.4-159.4,12.6-159.3,12.8c0.4,0.6,0.7,1.3,1,1.9c0.1,0.4,0.2,0.8,0.3,1.3
	c0.2-0.1,0.3-0.2,0.5-0.3c-0.3-0.3-0.5-0.6-0.8-0.9C-158.6,14.1-158.9,13.4-159.3,12.8z"/>
<path d="M13.4,10.8c-0.8-0.9-1.6-1.7-2.4-2.6c1.1-0.5,2.2-1.2,3.3-1.4c2-0.4,4-0.6,6-0.6c0.6,0,1.6,1.2,1.7,1.9
	c0.1,0.5-0.9,1.6-1.6,1.8C18.2,10.4,15.8,10.6,13.4,10.8L13.4,10.8z M18.6,8.6c-0.1-0.2-0.1-0.4-0.2-0.7c-1.1,0.1-2.2,0.2-3.3,0.2
	c0,0.1,0,0.3,0,0.4C16.2,8.6,17.4,8.6,18.6,8.6z"/>
<path d="M-159.2,20.5c-5-1.4-10.1-1.5-15.1,0c-1.3,0.4-2.8,2-3.9,0.4c-1.3-1.7,0.8-2.8,1.5-4.1c0.3-0.6,1.2-0.9,1.8-1.4
	c0.1,0.1,0.2,0.3,0.4,0.4c-0.6,1.1-1.2,2.1-2.2,4c2-0.7,3.1-1.1,4.3-1.4c1.7-0.4,3.4-1,5.1-0.9c2.4,0.1,4.7,0.6,7,1.1
	C-159.9,18.8-159.6,19.9-159.2,20.5C-159.3,20.5-159.2,20.5-159.2,20.5z"/>
<path d="M15.3,18.9c-1.7-0.2-3.5-0.3-5.2-0.6c-0.4-0.1-0.8-0.6-0.9-1c-0.1-0.2,0.5-0.8,0.9-0.9c2.5-0.6,4.9-1.3,7.5-1.7
	c0.9-0.2,2,0.1,2.7,0.6c0.7,0.4,1,1.4,1.5,2.2c-0.7,0.4-1.3,1-2,1.1c-1.4,0.2-2.9,0.1-4.3,0.1C15.3,18.7,15.3,18.8,15.3,18.9z
	 M16.7,17.2c-0.1-0.1-0.2-0.3-0.3-0.3c-0.7,0-1.4,0-2.2,0.1c0,0,0,0.2-0.1,0.2c0.7,0.1,1.4,0.1,2.2,0.2
	C16.4,17.4,16.6,17.2,16.7,17.2z"/>
<path d="M35.7,8.9c0.2,0.4,0.5,0.8,0.7,1.2c0.4,1,0.7,1.9,1.1,2.9c-0.9,0.3-1.7,0.7-2.6,0.8c-1.9,0.1-3.8,0.2-5.7-0.1
	c-0.7-0.1-1.3-1.1-1.9-1.8c0.5-0.5,1-1.3,1.6-1.5C31.1,9.8,33.4,9.4,35.7,8.9L35.7,8.9z M31.4,11.3c0.1,0.1,0.2,0.3,0.3,0.3
	c0.7,0,1.5-0.1,2.2-0.1c0,0,0-0.2,0.1-0.3c-0.7-0.1-1.5-0.1-2.2-0.2C31.7,11,31.6,11.2,31.4,11.3z"/>
<path d="M73.5,30.3c-3.5,0-6.1-1.1-5.6-2.2c1-2.3,3.5-1.9,5.3-2.7c0.5-0.2,1.3-0.2,1.9-0.1c1.4,0.2,3.1,2.1,2.9,3.4
	c-0.3,1.7-1.7,1.5-3,1.6C74.5,30.3,74,30.3,73.5,30.3z M74.9,28c0-0.1,0-0.3,0-0.4c-1.2,0-2.3,0-3.5,0c0,0.1,0,0.3,0,0.4
	C72.5,28,73.7,28,74.9,28z"/>
<path d="M-156.3-2.7c-0.1-4.4,1.8-7.7,6.1-11c-1.8,5.8-4.5,10.5-4.2,15.8c0,0,0,0,0,0c-0.3-0.8-0.7-1.6-1-2.4
	C-155.7-1.1-156-2-156.3-2.7C-156.3-2.8-156.3-2.7-156.3-2.7z"/>
<path d="M78,13.3c-2.3,1.7-4.7,2.8-7.6,2.5c-1.2-0.1-2.5-0.6-3.6-1.1c-0.4-0.2-0.4-1-0.6-1.5c0.4-0.1,0.9-0.4,1.3-0.4
	c1.6,0.2,3.1,0.7,4.7,0.9c0.6,0.1,1.3-0.5,2-0.8c-0.6-0.3-1.3-0.6-1.9-1c-0.3-0.1-0.6-0.3-0.8-0.4C75.2,10.3,75.2,10.3,78,13.3z"/>
<path d="M13.5,10.9c0.8,2.7,0.6,3.4-1.5,3.8c-0.8,0.2-1.6,0.1-2.4,0.1c-1.6,0-3.3-0.7-3.3-2.1c0-1.6,1.9-1.7,3.2-1.9
	C10.8,10.7,12.1,10.8,13.5,10.9L13.5,10.9z"/>
<path d="M-36,3.1c1.2-1.4,2.5-2.8,3.8-4.1c0.2-0.2,0.9-0.2,1.2,0c0.2,0.2,0.4,0.9,0.2,1.2c-1.4,1.7-2.8,3.3-4.2,4.9l0,0
	C-35.4,4.4-35.7,3.7-36,3.1L-36,3.1z"/>
<path d="M-164.2-0.7c-0.6-0.2-1.4-0.2-1.7-0.6c-1.3-1.5-2.5-3-3.7-4.6c2.5-0.9,3.9,0.9,5.6,2.2l0,0c-0.8,0.1-2.1-0.1-0.9,1.4
	c0.4,0.5,0.7,1,1,1.4L-164.2-0.7z"/>
<path d="M-98.1,50.6c-1.1,1.3-2.3,2.6-3.5,3.9c-0.2,0.2-0.8,0.2-1.2,0.3c-0.1-0.4-0.3-1-0.1-1.3c1.2-1.7,2.4-3.2,3.7-4.9l0.2,0.2
	C-98.7,49.4-98.4,50-98.1,50.6L-98.1,50.6z"/>
<path d="M2.3,16.3C1.5,15.6,0.7,15,0,14.4c0.7-0.5,1.6-1.6,2.2-1.4c0.9,0.2,1.5,1.2,2.3,1.9C3.9,15.2,3.3,15.6,2.3,16.3z"/>
<path d="M-69,24.4c-0.3,0-0.7,0-1,0c0,0,0,0,0,0c1-1.6,1.9-3.2,2.9-4.9c0,0,0,0,0,0c0.3,0,0.7,0,1,0c0,0,0,0,0,0
	C-67.1,21.2-68.1,22.8-69,24.4L-69,24.4z"/>
<path d="M-69.1,27.3c0-1,0-1.9,0.1-2.9c0,0,0,0,0,0C-67.1,25-67.1,25.1-69.1,27.3C-69,27.3-69.1,27.3-69.1,27.3z"/>
<path d="M-124.3,34.1c0,0.5,0.1,0.9,0,1.4c-0.1,0.3-0.4,0.6-0.6,0.9c-0.1-0.3-0.4-0.6-0.3-0.8C-125,35-124.6,34.6-124.3,34.1
	L-124.3,34.1z"/>
<path d="M-86.5,38.9c-0.3,1-0.6,1.9-1,2.9c0,0,0,0,0,0C-87.1,40.9-86.8,39.9-86.5,38.9C-86.5,39-86.5,38.9-86.5,38.9z"/>
<path d="M-121.4,28.3c-0.3,0.6-0.6,1.3-1,1.9c0,0,0,0,0,0c0-0.7,0-1.3,0-2l0,0C-122.1,28.3-121.7,28.3-121.4,28.3L-121.4,28.3z"/>
<path d="M-52.6,38.9c-0.1,0.4-0.2,0.9-0.3,1.3c-0.2-0.1-0.4-0.2-0.5-0.3C-53.1,39.6-52.8,39.3-52.6,38.9L-52.6,38.9z"/>
<path d="M-48.7,41.9c0.3-0.6,0.7-1.3,1-1.9c0,0,0,0,0,0C-48,40.6-48.3,41.2-48.7,41.9C-48.7,41.9-48.7,41.9-48.7,41.9z"/>
<path d="M-87.5,41.9c-0.3,0.6-0.6,1.3-1,1.9c0,0,0,0,0,0C-88.1,43.2-87.8,42.5-87.5,41.9C-87.4,41.9-87.5,41.9-87.5,41.9z"/>
<path d="M-48.7,41.9c-0.1,0.4-0.2,0.9-0.3,1.3c-0.2-0.1-0.3-0.2-0.5-0.3C-49.2,42.5-48.9,42.2-48.7,41.9
	C-48.7,41.9-48.7,41.9-48.7,41.9z"/>
<path d="M-98.1,44.8c-1.2-0.6-1.2-1.3,0-1.9l0,0C-98.1,43.5-98.1,44.1-98.1,44.8L-98.1,44.8z"/>
<path d="M-124.3,34.1c0.1-0.4,0.2-0.9,0.3-1.3c0.2,0.1,0.3,0.2,0.5,0.3C-123.8,33.4-124.1,33.8-124.3,34.1L-124.3,34.1z"/>
<path d="M-136.9,8.9c-0.3,0-0.7,0-1,0c0,0,0,0,0,0c0.3-0.6,0.7-1.3,1-1.9l0,0C-136.9,7.6-136.9,8.3-136.9,8.9L-136.9,8.9z"/>
<path d="M-97.1,49.6c-0.3,0.3-0.7,0.6-1,1l0,0C-97.8,50.3-97.5,49.9-97.1,49.6L-97.1,49.6z"/>
<path d="M-47.7,38l-0.5,0l-0.5,0l0,0c0.3-0.3,0.6-0.7,0.9-1l0.1,0.1C-47.6,37.4-47.6,37.7-47.7,38L-47.7,38z"/>
<path d="M-122.4,30.2c-0.3,0.8-0.6,0.8-0.9,0l0,0C-123,30.2-122.7,30.2-122.4,30.2L-122.4,30.2z"/>
<path d="M-163.2,0.2c-0.3-0.3-0.7-0.6-1-0.9c0,0,0.1-0.2,0.1-0.2C-163.7-0.5-163.4-0.2-163.2,0.2L-163.2,0.2z"/>
<path d="M333.9-53.8c3.8,1.9,6.9,3.8,6.6,8.6c-0.2,2.6-1.5,4.5-3.7,5.2c-2.8,1-5.7,1.7-8.9,1.1c-5.9-1.1-10.7-4.1-15.3-7.6
	c-4-3-7.8-6.2-12-9.6c2.4-2,4.5-4.5,7.1-5.9c5.9-3.2,12.1-5.9,18.9-6.8c2.4-0.3,4.8,0,6.9,1.5c4.4,3,5.1,7.3,1.9,11.6
	C335-55,334.4-54.4,333.9-53.8z M337.4-43.5c-0.3,0.3-0.7,0.6-1,1c-0.4,0.1-0.9,0.2-1.3,0.2c0.1,0.2,0.2,0.3,0.3,0.5
	c0.3-0.3,0.7-0.5,1-0.8C336.7-42.9,337.1-43.2,337.4-43.5c0.8-0.3,0.7-0.7,0-1c0.3-3.7-1.1-6.2-5.1-6.9c-0.9-0.2-1.8-0.6-2.7-0.9
	l0,0c0-1.1-0.6-2.4,1-2.9c0.3,0,0.6,0,0.9,0c0.3-0.3,0.6-0.6,1-1c0.3-0.3,0.6-0.6,1-1c0.4-0.2,0.8-0.4,1.1-0.8
	c0.3-0.4,0.3-1,0.5-1.5c-0.5,0.1-1,0.3-1.6,0.4c0.1-0.6,0.2-1.2,0.4-1.9c0.9-3.4,0.7-4.3-2.8-5.1c-2.3-0.5-4.8-0.8-7-0.2
	c-4,1-7.8,2.9-11.7,4.1c-3.2,1-5.6,2.9-7.6,5.6c2,1.2,3.8,2.2,5.5,3.3c0.3,0.3,0.7,0.6,1,1c3,2.1,5.8,4.5,9,6.3
	c4.9,2.7,10.1,5.1,15.8,1.7c0.4-0.2,0.9-0.1,1.4-0.2C337.4-44.1,337.4-43.8,337.4-43.5z M318-45.5c0.1,0.1,0.1,0.3,0.2,0.4
	c0.1,0.1,0.2,0.1,0.3,0.1C318.3-45.1,318.2-45.3,318-45.5c-0.1-0.1-0.1-0.2-0.2-0.4c-0.1-0.1-0.2-0.1-0.3-0.1
	C317.7-45.8,317.8-45.6,318-45.5z M312.2-49.3c-0.1-0.2-0.3-0.3-0.4-0.5C311.9-49.6,312-49.5,312.2-49.3c0.2,0.2,0.3,0.3,0.5,0.4
	C312.5-49,312.4-49.2,312.2-49.3z M320.9-43.5c0-0.1-0.1-0.3-0.2-0.4c-0.1-0.1-0.2-0.1-0.3-0.1C320.6-43.8,320.8-43.7,320.9-43.5
	c1,0.3,2,0.6,2.9,0.9c0.3,0.2,0.6,0.5,1,0.7c0.1-0.1,0.2-0.3,0.3-0.4c-0.4-0.1-0.8-0.2-1.2-0.2C322.8-42.8,321.9-43.2,320.9-43.5z"
	/>
<path d="M280.2-60c0.1-0.4,0.2-0.9,0.3-1.3c0.2,0.1,0.3,0.2,0.5,0.3C280.7-60.6,280.4-60.3,280.2-60L280.2-60z"/>
<path d="M287.9-60.9c0.3-0.7,0.7-1.3,1-2C288.6-62.3,288.2-61.6,287.9-60.9z"/>
<path d="M285-72.6c0.3-1,0.7-2,1-3C285.7-74.5,285.3-73.6,285-72.6z"/>
<path d="M279.2-55.1c0,0.5,0.1,0.9,0,1.4c-0.1,0.3-0.4,0.6-0.6,0.9c-0.1-0.3-0.4-0.6-0.3-0.8C278.5-54.2,278.9-54.7,279.2-55.1
	L279.2-55.1z"/>
<path d="M259.8-46.4c-0.3,0-0.7,0-1,0c0.3-1,0.7-2,1-2.9C259.8-48.3,259.8-47.4,259.8-46.4z"/>
<path d="M-86.1-29.5c1.9,0.7,3.9,1.3,5.7,2.3c1.3,0.7,1.8,1.2,3-0.3c2.7-3.5,6-3.3,8.7,0.2c2.3,2.9,2.3,6.3,1.3,9.6
	c-0.3,1.1-0.9,2.1-1.4,3.1c-2.3,4-5.1,7.8-6.6,12.2c-0.6,1.7-1.7,1.6-3,0.8c-3.1-1.9-6.4-3.3-8.9-6.3c-1.7-2.1-4.2-3.5-6.2-5.3
	c-4-3.7-4.4-8-1.3-12.4C-92.8-28.7-89.6-29-86.1-29.5z M-92.3-25.1c-0.3,0.3-0.6,0.6-1,1c-0.8,0.3-0.8,0.6,0,0.9
	c-2.6,4.3-2.7,4.9,0.9,8.2c4.1,3.7,8.4,7,12.6,10.5c1.6,1.3,2.8,0.9,3.7-1.2c0.2-0.6,0.2-1.3,0.2-1.9l0,0c2.9-4.5,5.3-9.1,4.8-14.7
	c-0.1-1.1-0.3-2.3-0.9-3.1c-0.6-0.8-1.9-1.5-2.8-1.4c-0.8,0.1-1.4,1.4-2,2.2c-0.2,0.3-0.1,0.9-0.1,1.4c-0.6,0.3-1.3,0.6-1.9,1
	c-3.6-3.4-7.7-5.1-12.6-2.9C-91.7-25.9-92-25.9-92.3-25.1z M-70-26c-0.1-0.1-0.1-0.3-0.2-0.4c-0.1-0.1-0.2-0.1-0.3-0.1
	C-70.3-26.3-70.2-26.2-70-26c0.1,0.4,0.2,0.8,0.3,1.3c0.2-0.1,0.3-0.2,0.5-0.3C-69.5-25.4-69.8-25.7-70-26z M-68.3-21.3
	c-0.1-0.1-0.1-0.3-0.2-0.4c-0.1,0.1-0.3,0.3-0.3,0.3c0.1,0.2,0.2,0.3,0.4,0.5C-68.4-21-68.4-21.1-68.3-21.3z"/>
<path d="M-108.8,14.7c0.3-0.3,0.6-0.6,1-1c0.3-0.3,0.6-0.6,1-1c0.8-0.3,0.8-0.6,0-0.9c1.1-2.1,2.9-3.2,6.2-4.2c-2.4,3-4.2,5.1-6,7.3
	c-1.6,2.1-1.6,2.3,0.7,4.6c0,0.3,0,0.7,0,1c-0.3,0.3-0.7,0.6-1,1c-0.7,0-1.3,0-2,0c0-0.8,0-1.5,0.1-2.3c-0.7,0.1-1.3,0.3-2,0.4
	C-110.1,17.9-109.5,16.3-108.8,14.7z"/>
<path d="M-65.2,8.9c0.3,0,0.7,0,1,0c0.2,1.4,0.4,2.9,0.7,4.6C-65.7,12.3-65,10.4-65.2,8.9z"/>
<path d="M-143.7,6.9c0,0.7,0,1.3,0,2c-1,0.7-2,1.3-2.9,2C-146.6,8.8-145.3,7.7-143.7,6.9z"/>
<path d="M-116.6,10.8c0.3,0,0.7,0,1,0c0,0.7,0,1.3,0,2C-115.9,12.1-116.2,11.5-116.6,10.8z"/>
<path d="M-142.7,6c0,0.3,0,0.7,0,1c-0.3,0-0.7,0-1,0C-143.4,6.6-143.1,6.3-142.7,6z"/>
<path d="M-58.3,12.8c-0.3-0.3-0.7-0.7-1-1C-59,12.1-58.7,12.4-58.3,12.8z"/>
<path d="M-151.5,7.9c0,0.3,0,0.7,0,1c-0.3,0-0.7,0-1,0C-152.1,8.6-151.8,8.2-151.5,7.9z"/>
<path d="M-76.8,19.5c-0.1,0.4-0.2,0.9-0.3,1.3c-0.2-0.1-0.3-0.2-0.5-0.3C-77.3,20.2-77,19.9-76.8,19.5L-76.8,19.5z"/>
<path d="M-76.8,19.6c0.3-0.3,0.6-0.7,0.9-1l0.1,0.1C-76.1,18.9-76.5,19.2-76.8,19.6L-76.8,19.6z"/>
<path d="M-122.4,26.3c0.2-0.2,0.3-0.3,0.5-0.5c0,0.1,0,0.3-0.1,0.3C-122.1,26.3-122.2,26.3-122.4,26.3L-122.4,26.3z"/>
<path d="M-47.7,29.3c0.7-0.3,1.3-0.7,2-1C-46.4,28.6-47.1,28.9-47.7,29.3z"/>
<path d="M-108.8,21.5c-0.3,0.3-0.7,0.7-1,1C-109.5,22.1-109.1,21.8-108.8,21.5z"/>
<path d="M325.5-60.7c-1.4-0.1-2.5-0.2-3.5-0.4c-0.3-0.1-0.8-0.7-0.7-1c0.1-0.3,0.7-0.8,1-0.8c2.2,0.4,4.4,0.8,6.4,1.5
	c1.1,0.4,0.5,1.4-0.3,1.8c-1.3,0.7-1.3,1,0,1.7c0.7,0.4,1.1,0.9,0.2,1.8c-1.6,1.5-4.7-0.6-5.5,2.4c-0.4-0.2-0.9-0.4-1.1-0.7
	c-0.2-0.5-0.5-1.4-0.3-1.6c0.7-0.6,1.8-0.7,2.4-1.4c0.7-0.7-1.8-1.1-0.4-2.1C324.2-59.7,324.7-60.1,325.5-60.7z"/>
<path d="M311.2-52.2c-0.3-0.3-0.6-0.7-1-1c0-0.3-0.1-0.7,0.1-0.9c0.4-0.6-1.5-3.8,1.7-1.4c1.4,1,3.7,0.8,5-1.4
	c0.2-0.4,1.2-0.5,1.9-0.5c0.3,0,0.9,0.8,0.8,1.1c-0.2,0.7-0.6,1.6-1.2,1.8C316.1-53.7,313.6-53,311.2-52.2z"/>
<path d="M329.6-52.2c0.3,0.5,0.7,1.1,0.8,1.6c0.1,0.5,0,1.1-0.1,1.7c-0.6-0.1-1.1-0.3-1.7-0.4c-0.1-0.1-0.1-0.3-0.2-0.4
	c-0.1-0.1-0.2-0.1-0.3-0.1c0.2,0.2,0.3,0.3,0.5,0.5c-0.4,1.1-1.1,1.1-1.8,0.3c-0.9-1.1-1-1.7-1.9,0.2c-0.5,1.1-1.3-0.8-1.7-1.4
	c-0.2-0.4,0.3-1.8,0.5-1.8C325.8-52.2,327.7-52.2,329.6-52.2L329.6-52.2z"/>
<path d="M309.7-58.1c1.8-1.3,3.1-2.4,4.5-3.3c0.3-0.2,0.8-0.1,1.3-0.1c-0.1,0.4-0.4,0.8-0.4,1.2c0,1,0.2,2,0.3,3
	c-1.2-0.2-2.5-0.4-3.7-0.6C311.1-58.1,310.5-58.1,309.7-58.1z"/>
<path d="M325.6-46.6c-0.2,0.4-0.4,0.6-0.5,0.9c-0.3-0.2-0.7-0.4-0.9-0.7c-0.1-0.1,0.3-0.7,0.4-0.7C324.9-47,325.2-46.8,325.6-46.6z"
	/>
<path d="M333.5-57.1c-0.3,0-0.7,0-1,0c0.3-0.7,0.7-1.3,1-2C333.5-58.4,333.5-57.7,333.5-57.1z"/>
<path d="M331.6-56.1c0,0.3,0,0.7,0,1c-0.3,0-0.7,0-1,0C330.9-55.5,331.3-55.8,331.6-56.1z"/>
<path d="M332.6-56.1c-0.3,0-0.7,0-1,0c0.3-0.3,0.7-0.7,1-1C332.6-56.8,332.6-56.4,332.6-56.1z"/>
<path d="M-80.3-16.5c-0.2,0.2-0.4,0.6-0.6,0.7c-0.4,0.1-1.1,0.2-1.3,0c-0.5-0.6-0.8-1.4-1.2-2c-0.3-0.5-0.8-1.3-1-1.3
	c-0.7,0.3-1.5,0.7-2,1.3c-0.6,0.6-0.8,1.5-1.3,2.2c-0.2-1-0.7-2.1-0.5-3c0.2-1.1,0.9-2.5,1.7-2.9c2.7-1.4,2.8-1.2,4,1.6
	C-81.8-18.8-81-17.6-80.3-16.5z"/>
<path d="M-75.8-7.6c-0.5,0.1-1.1,0-1.4,0.3c-1.7,1.4-2.7,1.5-2.6-1.1c-1.5-0.6-2.5-1.2-0.5-2.5c-0.2-0.1-0.4-0.4-0.7-0.4
	c-1.6-0.3-1.3-1.1-0.4-1.9c0.8-0.7,1.7-1.9,2.6-0.1c0.2,0.4,0.2,1,0.5,1.3c0.6,0.5,2.1-1,2.1,0.7c0,0.5-1.2,1-1.6,1.6
	c-1,1.3,0.3,1.1,0.9,1.3C-76.5-8.3-76.2-7.9-75.8-7.6L-75.8-7.6z"/>
<path d="M-78.7-22.2c0.6-0.3,1.3-0.6,1.9-1c1.2,0.1,2.5,0.2,1,1.8c-0.3,0.3-0.8,0.4-1.3,0.5c0.5,0.2,1,0.3,1.4,0.5
	c0.4,0.2,0.8,0.4,1.2,0.6c-0.4,0.2-0.9,0.3-1.2,0.6c-0.3,0.3-0.4,0.8-0.6,1.3c0.6,0.1,1.2,0.2,1.8,0.3c-0.9,0.6-1.8,1.3-2.8,1.6
	c-0.3,0.1-1.3-0.9-1.4-1.5C-78.8-19-78.7-20.6-78.7-22.2z"/>
<path d="M-93.3-24.1c0.3,0,0.7,0,1,0c-0.3,0.3-0.7,0.7-1,1C-93.3-23.4-93.3-23.8-93.3-24.1z"/>
<path d="M-92.3-25.1c0.3,0,0.7,0,1,0c-0.3,0.3-0.7,0.7-1,1C-92.3-24.4-92.3-24.7-92.3-25.1z"/>
</svg>
