<?xml version="1.0" encoding="utf-8"?>
<!-- Generator: Adobe Illustrator 18.0.0, SVG Export Plug-In . SVG Version: 6.00 Build 0)  -->
<!DOCTYPE svg PUBLIC "-//W3C//DTD SVG 1.1//EN" "http://www.w3.org/Graphics/SVG/1.1/DTD/svg11.dtd">
<svg version="1.1" id="Layer_1" xmlns="http://www.w3.org/2000/svg" xmlns:xlink="http://www.w3.org/1999/xlink" x="0px" y="0px"
	 viewBox="0 0 194.4 118.6" enable-background="new 0 0 194.4 118.6" xml:space="preserve">
<path d="M192.1,89.2c-1.1,0-1.8-0.3-1.5-1.7c0.1-0.6-0.3-1.9-0.4-1.9c-0.9,0-2,0-2.7,0.5c-1.1,1-1.1,2.9-2.2,3.5
	c-2.8-2.3-5.2-4.4-7.7-6.4c-0.3-0.2-0.9-0.2-1.2,0.1c-0.3,0.2-0.7,0.8-0.6,1.2c0.1,0.6,0.6,1.1,0.9,1.7c3.5,5.8,3.4,6.4-0.4,11.5
	c-1.1,1.4-1.7,1-2.6,0c-1.3-1.4-1.9-2.9-1-4.8c0.3-0.6,0.5-1.2,0.6-1.8c0.1-1.1,0.3-2.8-0.2-3.1c-1.4-0.7-2.2,0.8-2.9,1.7
	c-0.6,0.7-1,1.5-1.5,2.3c-0.5-0.9-0.4-1.7-0.3-2.4c0.1-2.7,0.9-5.6,0.2-8.1c-1.1-3.7-0.8-6.2,2.9-8c0.5-0.2,0.6-1.3,0.9-1.9
	c-0.6-0.2-1.3-0.7-1.7-0.5c-2.6,1.2-3.8-0.6-5.2-2.2c-0.6-0.7-1-1.7-1.7-2.3c-0.4-0.3-1.3-0.4-1.8-0.2c-0.4,0.2-0.9,1.2-0.7,1.5
	c2.4,4,0.7,6.5-2.9,8.4c-0.6,0.3-0.9,1.3-1.4,1.9c-1.3,1.7-1.7,1.7-3.4,0.1c-0.5-0.4-0.8-1-1.1-1.5c1.8,0,2.2-1.1,1.9-2.6
	c-0.8-3.4-1.8-6.8-2.8-10.2c-0.2-0.6-0.9-1.1-1.4-1.6c-0.5,0.6-1.4,1.2-1.4,1.8c-0.1,2.6,0.1,5.1,0.3,7.7c0.1,1.6-0.4,2.3-1.6,1.8
	c-3.3-1.4-6.5-3-8-6.5c-0.8-1.8-1.7-3.5-2.4-5.3c-1.5-4-3.7-7.4-6.5-10.6c-1.6-1.8-3.3-3.9-3.7-6c-0.6-2.8-2.2-4.6-4-6.4
	c-1.4-1.4-2.8-2.7-4.1-4.1c-3.6-3.8-7.6-6.8-12.9-7.9c-1.7-0.4-2.6-1.3-3.2-3c-1-2.7-2.2-5.3-3.7-7.8c-1.7-2.7-1.9-3.3,0.8-4.8
	c5-2.9,10.2-5.5,15.3-8c1.3-0.7,2.6-1.1,3.1-2.8c-0.7-0.1-1.4-0.3-2-0.2c-7,0.5-13,3.3-18.3,7.7c-2.1,1.7-2.1,1.8-4.1,0
	c-1.1-0.9-2.1-2.5-3.6-1.5c-1.5,1,0,2.3,0.2,3.5c0.1,0.4,0,1.2-0.2,1.3c-0.5,0.2-1.2,0.3-1.7,0.1c-3.2-1.5-6.6-2.8-9.5-4.9
	C74.2,3,69,2.5,64,0.9c-3.3-1-6.4,0.4-9.4,1.1c-5.6,1.3-11.4,2.5-16,6.3c-3.2,2.6-6.3,5.5-9.3,8.5c-4.1,4.1-7.2,9-9.8,14.2
	c-2.6,5.3-5.2,10.6-9.5,14.9c-3.5,3.4-5.7,7.6-5.3,12.9c0.3,3.6,0.1,7.3,0.1,11c1.1,2.3,2.3,4.5,2.5,7.1c0,0,0,0,0,0
	c0.4,1.9-0.4,3.7-1.7,5.5c0.1,0.1,0.1,0.3,0.1,0.4c-0.8,2.8-2.1,5.5-3.3,8.2c-0.3,2.1-0.6,4.1-1,6.1c-0.4,2.5-0.8,5-1.3,7.5
	c-0.7,3.9,0.8,5.6,5.5,5.4c-0.5-0.6-0.8-1.2-1.3-1.5c-2-1.3-1.8-3.1-1.3-5c0.4-1.7,0.9-3.4,0.9-5.2c0.2-6.1,1.7-11.7,5.2-16.8
	c0.9-1.3,1.3-2.9,1.7-4.4c1.3-5.2,3.7-10,6.7-14.3c3.1-4.6,6.7-9,10.4-13.2c2.9-3.2,6-6.3,9.5-8.9c3.3-2.4,6.8-4.8,11.5-3.1
	c1.2,0.4,3.9-0.3,4.2-1.1c1.9-4.4,7.8-5.4,8.5-10.6c0-0.2,0.4-0.5,0.7-0.6c2.4-1,4.7-2.6,7.1-2.8c7.1-0.6,14.1,0,21,1.8
	c5.7,1.4,11.4,3.2,17,5c4.2,1.3,7.6,4.3,10.6,7.3c3.5,3.4,5.4,7.9,7.1,12.4c0.8,2.1,1.3,4.3,4.2,4.7c0.7,0.1,1.4,1.2,1.8,2.1
	c2.1,4,4.2,8,6,12.1c1.1,2.6,1.9,5.4,2.5,8.2c0.6,2.8,0.6,5.7,1.2,8.6c1.1,4.8,0.1,9.2-2.1,13.3c-0.8,1.5-2.5,2.6-3.3,4.1
	c-1.9,4-5.8,4.9-9.3,6.5c-2,0.9-3.2-0.4-2.5-2.4c1-2.5,2.2-5,3.4-7.4c0.8-1.7,1.8-3.3,2.9-5.3c-3.3-0.4-5.6,0.4-6.9,3.1
	c-1.5,3.2-3,6.4-4.4,9.7c-0.8,1.9-2,2.8-4.1,2.7c-1.8-0.1-3.6-0.1-5.3,0c-0.4,0-0.7,0.4-1,0.7c0.3,0.3,0.6,0.9,0.9,1
	c0.9,0.2,1.9,0.2,2.9,0.3c2,0.3,4,0.7,5.8,1c1-1.8,2.2-3.8,3.4-5.8c0,1-0.1,1.9,0,2.9c0.1,3,0.2,3.1,3,2.4c4.1-1,7.9-2.5,11.1-5.3
	c1.1-1,1.2-0.1,1.4,0.7c0.5,1.5,1.3,1.2,1.9,0.1c0.6-1,1-2.2,1.5-3.2c3.2,1.7,6.1,3.4,9.7,1.7c0.4-0.2,1-0.3,1.4-0.1
	c2.9,1.4,5.2,0,7.6-1.4c1.7-1,3-1.4,4.2,1.1c1,2.2,3.2,2.5,4.1,0.9c1.2-2.2,2.8-2.9,5.1-2.7c2.1,0.2,4.4-1.2,6.4,0.8
	c1.4,1.4,2.5,1.5,2.7-0.9c0-0.4,0.3-0.7,0.5-1.1c0.2,0.4,0.4,0.9,0.5,1.3c0.4,1.3,1.1,1.5,2.6,1.2c2.1-0.4,3-1.3,3.2-3.5
	c0.4-4.3,0.9-8.7,6-10.3c0.1,0,0-0.5,0.1-1.1C193.6,89.2,192.8,89.2,192.1,89.2z M105.2,5.2c-1.5,1.9-2.7,2.5-4.3,2.6
	C101.6,6.2,102.9,5.8,105.2,5.2z M100.5,8c0.1-0.1,0.3-0.1,0.4-0.2c-0.2,0.2-0.3,0.3-0.5,0.5C100.5,8.2,100.5,8,100.5,8z M9.8,73.6
	C4.8,65.7,6,53.1,12,47.6C11.5,56.4,11,64.8,9.8,73.6z M51.8,34c-0.5,0.5-1.4,0.6-2.1,0.8c-0.2,0.1-0.6-0.2-0.7-0.5
	c-0.1-0.2,0-0.7,0.2-0.8c2.4-1.5,4.8-2.9,7.2-4.3C54.8,30.8,53.4,32.5,51.8,34z M56.7,29c-0.1,0.1-0.2,0.1-0.4,0.2
	c0.2-0.1,0.3-0.3,0.5-0.4C56.8,28.8,56.8,28.9,56.7,29z M89.2,17.6c-0.4,0.7-0.7,1.5-1.1,2.2c-0.6,1.1-1.3,1.4-2.7,1.2
	c-4.1-0.6-8.3-1.5-12.4-1.3c-3.4,0.2-6.9,1.4-10.1,2.8c-4.1,1.8-7.9,4.1-11.6,6.8c-4.3,3.2-8.6,6.7-13.8,8.8
	c-4.9,1.9-8.1,6.3-11.4,10.2c-4.4,5.2-8.5,10.8-12.7,16.3c-0.2,0-0.5-0.1-0.7-0.1c0.6-6.3,1.1-12.7,2-19c0.3-2,1.4-3.9,2.4-5.7
	c3-5.5,5.6-11.3,9.2-16.3c4.5-6.2,9.3-12.3,16.9-15.4C50,5.3,57,3.4,64.3,4c2.8,0.2,5.7,1.1,8.3,2.3c5.4,2.5,10.5,5.5,15.8,8.2
	C89.8,15.3,90.1,16.2,89.2,17.6z M90.8,21.7c-0.2-0.3-0.4-0.6-0.5-0.9c0-0.2,0.3-0.5,0.4-0.7c0.1,0.3,0.2,0.5,0.3,0.8
	C91,21.1,90.9,21.4,90.8,21.7z M92.4,10.8c0-0.1,0.1-0.3,0.1-0.4c0.1,0,0.3,0,0.3,0c0.1,0.1,0.1,0.3,0.1,0.4
	C92.8,10.8,92.6,10.8,92.4,10.8z M94.2,22.9c-0.1,0.1-0.4,0-0.4-0.1c-1.1-1.7-0.7-3.2,0.6-5.2c0.4,0.6,0.5,0.7,0.5,0.9
	C94.8,20,95.8,21.7,94.2,22.9z M98.4,24.5c-1.7-0.3-2.7-0.9-1.6-2.8c0.3-0.5,0.2-1.2,0.3-1.9c0.1-0.3,0.3-0.5,0.4-0.7
	c0.2,0.2,0.4,0.5,0.6,0.7c0.8,1.5,1.6,3.1,2.8,5.6C99.6,24.9,99,24.6,98.4,24.5z M121.3,105.8c0.1-0.4,0.2-0.8,0.3-1.2
	c0.2,0.1,0.3,0.2,0.5,0.3C121.8,105.1,121.6,105.4,121.3,105.8z M122.8,101.4c0-0.1,0-0.2,0.1-0.3c0.1-0.1,0.2-0.1,0.4-0.2
	c0.1-0.4,0.2-0.8,0.3-1.3l0.5,0.3c-0.3,0.3-0.5,0.6-0.8,1C123.1,101.1,122.9,101.3,122.8,101.4z M152.1,75.4
	c0.1,0.4,0.2,0.8,0.3,1.3c-0.3-0.3-0.5-0.6-0.8-1C151.7,75.6,151.9,75.5,152.1,75.4z M148.8,81.3c-1.8,2.1-2.9,3.4-4,4.6
	c-0.3,0.3-0.9,0.5-1.3,0.7c-0.1-0.7-0.5-1.6-0.2-2.1C144.3,82.9,146,82.2,148.8,81.3z M142.5,74.3c0.7-0.4,2.6,0.7,3.8,1.4
	c0.9,0.5,1.8,1.4,2,2.3c0.3,1.6-1.4,1.4-2.3,1.8c-0.9,0.4-1.7,0.8-3.1,1.4c-0.2-1.2-0.2-2-0.4-2.8C142.1,77.1,140.8,75.3,142.5,74.3
	z M159.1,101c-4.1,1.7-8.4,2.1-12.7,1.8c-1.1-0.1-2.3-0.3-3.1-0.9c-2.1-1.4-2.1-3.2,0-4.6c2-1.3,4.2-2.4,6.2-3.7
	c1-0.7,2.1-1.5,2.8-2.4c0.4-0.5,0.5-1.7,0.2-2.1c-0.4-0.5-1.5-0.8-2.1-0.6c-1.6,0.5-3.2,1.2-4.8,1.9c-0.3-0.3-0.6-0.6-0.9-1
	c1.7-1.9,3.2-3.9,5-5.7c2.6-2.7,3.7-2.6,5.4,0.5c1.8,3.4,3.4,6.9,5,10.3c0.5,1.1,0.7,2.4,0.9,3.7C161.1,99.6,160.7,100.3,159.1,101z
	 M162.8,91.6c-0.4,0.1-1.2-0.3-1.5-0.7c-1-1.6-2.1-3.2-2.8-5c-0.3-0.7,0-1.8,0.3-2.7c0.8-2.3,2.9-3.6,5-5.8c0,4.8,0,8.8,0,12.8
	C163.8,90.6,163.3,91.4,162.8,91.6z M166.6,103.2c-0.3,0.4-0.8,0.7-1.2,1c0.1-0.5,0.2-1.1,0.4-1.5c0.2-0.3,0.7-0.5,1.1-0.8
	C166.8,102.4,166.9,102.9,166.6,103.2z M164.8,99.4c-0.6-1-1.2-1.9-1.6-3c-0.1-0.2,1-1,1.6-1.2c0.6-0.1,1.3,0.3,2.3,0.7
	C166.2,97.4,165.5,98.4,164.8,99.4z M167.9,99.9c0.1-0.4,0.2-0.8,0.3-1.2c0.2,0.1,0.3,0.2,0.5,0.3C168.4,99.3,168.1,99.6,167.9,99.9
	z M181.9,90.7c-0.1,0-0.2,0-0.3-0.1c-0.1-0.1-0.1-0.2-0.2-0.4C181.6,90.4,181.8,90.6,181.9,90.7z M180.3,87.9
	c0.1,0.1,0.1,0.2,0.2,0.4c0.1,0.2,0.2,0.4,0.3,0.6c-0.1-0.2-0.2-0.4-0.3-0.6c-0.2-0.2-0.3-0.3-0.5-0.5
	C180.1,87.9,180.2,87.9,180.3,87.9z M180.5,96.1c-0.3,0.3-0.7,0.6-1,1c-0.2,0.2-0.3,0.3-0.5,0.5c0-0.1,0-0.2,0.1-0.3
	c0.1-0.1,0.2-0.1,0.4-0.2C179.8,96.7,180.1,96.4,180.5,96.1l0.8-0.9C181,95.5,180.8,95.8,180.5,96.1z M182.3,95
	c-0.2,0.1-0.6,0.1-0.9,0.1c0.1-0.3,0.2-0.6,0.5-0.8c0.5-0.4,1-0.6,1.5-0.9c0,0,0.4,0.5,0.4,0.5C183.3,94.3,182.8,94.7,182.3,95z"/>
<path d="M44.7,96.1c-4.6,0.7-6.8,4.7-9.8,7.5c-1.2,1.1-1.9,2.6-3,3.8c-1.3,1.3,0,2.4,0,3.6c0,0.4-0.3,0.8-0.5,1.3
	c-0.4-0.3-1.1-0.5-1.3-0.9c-0.5-1.4-0.7-2.8-1.1-4.2c-0.4-1.5-0.8-3.1-1.9-4.5c0.2,1.5,0.4,3,0.7,4.4c0.2,1.4,0.6,2.8,0.8,4.2
	c0,0.2-0.3,0.7-0.5,0.7c-0.4,0-1.1-0.1-1.2-0.3c-0.4-1-0.7-2.1-1.1-3.4c-0.2,0.4-0.3,0.8-0.6,1c-0.6,0.6-1.4,1.7-1.8,1.6
	c-1.1-0.3-1-1.3-0.6-2.4c1.2-3.2,2.3-6.5,2.7-10.1c-1,1.7-2.5,3.4-3,5.2c-0.9,3.6-3,5.5-6.5,6.2c-1.1,0.2-2.1,0.7-3.2,1
	c-0.3,0.1-0.7-0.2-1-0.4c-0.1-0.1,0.1-0.7,0.3-0.8c0.7-0.4,1.4-0.8,2.1-1.1c1.2-0.5,2.4-0.9,3.6-1.4c0.2-0.1,0-0.9,0.2-1.3
	c1.9-3,4.7-5.6,4.2-9.6c-0.2-1.4-0.5-2.9-0.5-4.3c0-0.8,0.3-1.8,0.8-2.5c0.6-1,1.4-0.8,2.4-0.1c1.3,0.9,0.9,3.6,3.1,3.1
	c1.3-0.3,2.4-1.5,3.7-2.2c1.9-1.1,2.5-0.8,3.1,1.2c0.4,1.2,0.9,2.3,1.3,3.5c0.2,0.4,0.4,0.9,0.3,1.3c-0.1,0.7-2.1,1-0.5,2
	c0.3,0.2,1.3-0.6,1.9-1.1c2.7-2.1,5.5-4,8.8-4.8c0.6-0.1,1.3-0.3,1.9-0.2c1,0.1,1.6,1.4,0.9,2.1c-1.7,1.7-3.3,3.7-5.2,5
	c-2.4,1.6-2.9,3.8-2.6,6.3c0.1,0.9,0.7,1.8,0.7,2.8c0,1.2-0.2,3.5-0.4,3.5c-2.1,0.1-1-1.8-1.4-2.8c-0.4-1-0.8-2-1.9-2.8
	c0.2,1.5,0.5,3,0.7,4.6c0.1,0.4,0,1.1-0.3,1.2c-0.3,0.2-0.9,0-1.3-0.2c-3.8-1.9-3.9-2.3-1.8-5.7C38.5,102.5,41.3,99.1,44.7,96.1
	c0.1-0.1,0.3-0.1,0.4-0.2c0.1-0.1,0.1-0.2,0.1-0.3C45,95.8,44.8,95.9,44.7,96.1z M24.3,93.2c-0.1-0.4-0.2-0.8-0.3-1.3
	c-0.2,0.1-0.3,0.2-0.5,0.3C23.8,92.5,24.1,92.9,24.3,93.2c0,0.4,0,0.9,0.1,1.3c0.1,0.3,0.4,0.6,0.6,0.9c0.1-0.3,0.4-0.6,0.3-0.8
	C25,94.1,24.6,93.6,24.3,93.2z M30.7,104.4c3.9-3.2,4-3.4,1.7-8.8C29.1,98.5,29.1,98.5,30.7,104.4z"/>
<path d="M65.9,105.5c2.7,0.3,5.4,0.6,8.1,0.8c0.7,0,1.6-0.2,2.1-0.6c1.2-1,2.5-2.1,3.4-3.4c3.8-5,13.1-4.9,16.7,2
	c1.4,2.8,3.9,3,6.4,3.5c0.4,0.1,0.6,0.6,1,0.9c-0.5,0.3-0.9,0.9-1.4,0.9c-1.2,0-2.4-0.2-3.6-0.3c0.2,1.2,0.4,2.4,0.7,3.6
	c0.9,3.6-0.5,5.7-4.2,5.5c-4.3-0.2-8.7-0.3-12.9-1.3c-3.8-1-7.8-2.3-8.8-7.1c-0.3-1.6-1.5-2.2-3.3-2.2c-3.4,0.1-6.8,0-10.2-0.1
	c-0.5,0-0.9-0.7-1.3-1c0.5-0.3,1-0.8,1.5-0.9c1.9-0.1,3.9,0,5.8,0C65.9,105.7,65.9,105.6,65.9,105.5z M92.4,116.7
	c0-0.1,0-0.2,0.1-0.3c0.5,0,1,0,1.5,0c2.9-0.1,3.7-0.8,3-3.4c-0.6-2.6-1.5-5.2-2.6-7.7c-1.1-2.6-7.4-5.3-9.5-3.9
	c-3.3,2.2-6.7,4.5-8.5,8.3c-0.3,0.6-0.1,1.7,0.3,2.1c1.2,1,2.6,2.1,4,2.5C84.5,115.3,88.5,115.9,92.4,116.7z"/>
<path d="M66.8,118c-1.4,0-2.8,0.2-4.1,0c-1.5-0.2-2.8-2.3-2.4-3.7c0.6-1.8,4.4-4.7,6.2-4.7c1.9,0,5.7,2.8,6.1,4.7
	c0.2,0.8-0.3,2.1-0.9,2.5c-1.5,0.8-3.2,1.2-4.9,1.8C66.8,118.4,66.8,118.2,66.8,118z M61.6,114.8c5.8,1.9,6.1,2,7.9,0.8
	c0.3-0.2,0.7-1.1,0.5-1.4c-1-2.4-3.4-3-5.4-1.5C63.8,113.2,63,113.7,61.6,114.8z"/>
<path d="M51.3,108.2c-1.5,1.7-3.1,2.4-5.1,2.3c-0.4,0-0.9-0.4-1.1-0.7c-0.1-0.2,0.3-1,0.6-1C47.4,108.5,49,107,51.3,108.2z"/>
</svg>
