<?xml version="1.0" encoding="utf-8"?>
<!-- Generator: Adobe Illustrator 18.0.0, SVG Export Plug-In . SVG Version: 6.00 Build 0)  -->
<!DOCTYPE svg PUBLIC "-//W3C//DTD SVG 1.1//EN" "http://www.w3.org/Graphics/SVG/1.1/DTD/svg11.dtd">
<svg version="1.1" id="Layer_1" xmlns="http://www.w3.org/2000/svg" xmlns:xlink="http://www.w3.org/1999/xlink" x="0px" y="0px"
	 viewBox="0 0 162.2 141.8" enable-background="new 0 0 162.2 141.8" xml:space="preserve">
<g>
	<defs>
		<rect id="SVGID_1_" x="-16.4" y="-8.8" width="181.1" height="164.9"/>
	</defs>
	<clipPath id="SVGID_2_">
		<use xlink:href="#SVGID_1_"  overflow="visible"/>
	</clipPath>
	<g clip-path="url(#SVGID_2_)">
		<g>
			<path d="M45.6,20.7c-4.5-1.4-8.9-2.7-13.7-1.2c3-2.1,6.2-3.3,9.8-3.6c1.7-0.2,3.5,0.2,4.6-1.7c5.6-1.4,10.7-4.9,16.9-4.2
				c2.5,0.3,5.1,0.1,7.6,0.1c7.7,0,12.6,4.6,14.9,11.4c0.3,0.9,0.8,1.7,1,2.6c0.3,1.3,1,2.9,0.6,4c-0.6,1.8-0.5,3.3,0,5
				c0.2,0.8-0.2,2.2,0.2,2.4c0.7,0.4,1.9,0.4,2.8,0.2c3.3-1,6.6-2,9.8-3.4c2.1-0.9,4.2-1.2,6.4-1.3c2.8-0.1,5.7-0.4,8.4-0.8
				c2.9-0.5,4.6,1.3,5.7,3.4c2.5,5.1,4.8,10.3,7,15.6c1.3,3.2,2.3,6.4,5.1,8.9c2.3,2,3.7,5.1,5.3,7.8c2.7,4.4,0.6,10-4.2,12
				c-0.9,0.4-2,0.8-2.6,1.5c-1.2,1.5-2.3,1.5-3.5,0.1c-1.1-1.3-2.1-2.7-3.4-4.2c-0.8,0.7-1.6,1.5-2.5,2.1c-0.8,0.6-2.6,1.1-2.5,1.6
				c0.1,1.3,0.6,2.8,1.4,3.9c1.3,1.6,2.8,3.1,4.4,4.3c2.7,2,5.7,3.6,5.5,7.7c0,0.3,1.2,1.1,1.7,1c0.5-0.1,1.4-1.2,1.3-1.5
				c-1.1-3.1,0.5-5.1,2.3-7.3c0.7-0.8,0.9-2,1.4-2.9c1.8-3.3,5.5-4.5,8.4-2.6c6.9,4.5,12.1,10.7,15.8,18c1.7,3.4-0.1,6.1-4,6
				c-1.8,0-3.6-0.8-5.3-1.6c-1.5-0.7-2.8-1.8-4.7-3c0.5,5.6-1.1,10.1-3,14.7c-1.3,3.1-3.3,4.6-7,4.4c-4.5-0.2-8.2-2-11.8-4.4
				c-2.6-1.8-5.1-3.7-7.7-5.5c-0.7-0.4-1.9-0.7-2.6-0.4c-2.4,1.1-4.4,0.3-6.2-1.1c-2.3-1.8-4.5-2.7-7.4-1.4c-0.8,0.4-2.3,0-3-0.6
				c-1.5-1.3-2.4-0.4-3,0.7c-5.2,8.1-10.6,16.2-13.8,25.3c-1.3,3.7-3.9,6.1-6.7,8.3c-1,0.8-3.1,1.1-4.5,0.7
				c-5.7-1.7-11.5-3.4-16.7-6.6c-1.2-0.7-2.2-1.9-2.9-3c-2-3.4-1.3-5.5,2.1-7.5c2.9-1.7,5.8-2.3,9.1-1.5c4,0.9,5.1,0.5,7.4-3.1
				c2.8-4.4,6.5-8.1,8.3-13.2c0.7-1.9,3-3.1,4.6-4.6c1-1,1.2-1.9-0.6-2.3c-2.1-0.4-2.1-1.6-1.2-3.1c0.3-0.6,0.6-1.1,0.9-1.7
				c1.9-3.9,1.3-6.8-2.4-9.2c-2.1-1.3-3-2.8-3.5-5.2c-0.9-4.1-2.4-8.2-3.6-12.3c-1.1-3.8-3.9-5-7.2-3c-2.3,1.3-4.4,2.9-6.7,4.2
				c-2,1.2-4.1,2.3-6.3,3.1c-4.5,1.5-8.9,1-13.2-1.1c-2-1-4.1-1.8-5.8-3.1c-2.2-1.7-2.1-2.2-0.2-4.1c0.6-0.7,1.6-1,2.4-1.6
				c-0.2-0.3-0.4-0.6-0.6-0.8c-0.6-0.1-1.1-0.2-1.7-0.3c-5-1.4-5.6-2-5.4-7.1c0.2-3.7-2.3-5.4-4.7-7.1c-1.3-0.9-2.9-1.4-4.2-2.2
				c-1.7-1-2-2.1-0.6-3.5c1-1,2.5-1.8,4-2.1c5.7-1.1,10.4-5.1,12.2-10.5c0.1-0.1,0.3-0.1,0.4-0.2c0.1-0.1,0.1-0.2,0.1-0.3
				c-0.1,0.2-0.3,0.3-0.4,0.5c-1.7,0-2.5,1-2.9,2.6C31,32.4,30,33.1,29.5,33c-1.5-0.3-0.8-1.3-0.5-2.2c0.1-0.2-0.1-0.6-0.1-1.2
				c-1.1,0.7-2.4,1.1-3.1,2c-1.5,1.8-3,1.4-4.6,0.3c-2.1-1.6-4.2-3.4-6.2-5.1c-0.4-0.4-0.7-1.1-0.8-1.6c-0.4-2.5-0.8-5-1.1-7.5
				c-0.4-3.7-0.4-7.5-2.5-10.9C9.9,5.7,9.8,4.3,9.1,3.1C7.8,7,8.9,10.6,9.9,14.2c0.3,0.9,0.8,1.8,0.8,2.7c0,0.8-0.1,2-0.7,2.4
				c-0.6,0.4-1.9,0.4-2.6,0c-1.4-0.9-2.6-2.1-4.3-3.6c0.1,2.9,1.9,4.1,3.2,5.5c0.8,0.9,1.2,1.7,1.4,3.2c0.4,3.9,2,7.3,6.2,8.8
				c1.3,0.5,2.4,1.4,3.5,2.3c0.2,0.2-0.1,1.1-0.4,1.6c-0.1,0.2-1,0.4-1.2,0.2c-2.6-2.7-7-3.3-8.5-7.3c-0.3-0.9-0.9-1.7-1.1-2.6
				c-0.6-3.1-1.4-6-3.9-8.4c-1.3-1.2-2.6-3-0.6-4.9c0.3-0.3,0.2-1.4,0-2c-0.5-1.5-1.5-2.8-1.8-4.3c-0.2-1.1,0.1-2.4,0.4-3.6
				c0.4-1.4,1.4-1.6,2.6-0.9C4,3.8,5,4.4,5.8,4.8C6.6,3.2,7.4,1.6,8.2,0c2.5,0.4,3,2.6,4,4.3c2,3.7,3.2,7.5,3,11.8
				c-0.1,2.3,0.6,4.7,1,7c0.1,0.5,0.6,1,1.1,1.4c0.9,0.9,1.9,1.7,2.8,2.6c4.1,4.2,3.9,3.9,8.4,0.3c0.4-0.1,0.8-0.2,1.2-0.3
				c-0.1-0.2-0.2-0.3-0.3-0.5c-0.3,0.2-0.6,0.5-0.9,0.7c-1.5,0.1-3,0.2-4.5,0.3c0.2-2.4,2.7-1.6,4.1-2.9c-1.4-0.1-2.6-0.2-4.7-0.4
				c1.5-0.9,2.1-1.7,2.8-1.8c4-0.7,8.1-1.4,12.1-1.9c1.2-0.1,2.5,0.5,3.7,0.5C43.1,21.2,44.3,20.9,45.6,20.7
				c0.5,0.9,0.9,2.1,2.3,1.5c0.1,0,0.2-0.2,0.3-0.3C47.3,21.4,46.4,21.1,45.6,20.7z M70.3,51.2c-0.3,0.2-0.6,0.3-0.8,0.5
				c-0.2,0.3-0.3,0.7-0.4,1.1c0.3-0.2,0.8-0.4,1-0.6C70.3,51.9,70.3,51.5,70.3,51.2c0.1,0,0.3-0.1,0.4-0.2c0.1-0.1,0.1-0.2,0.1-0.3
				C70.6,50.9,70.5,51.1,70.3,51.2z M68.4,18.8c-0.1-0.1-0.1-0.3-0.2-0.4c-0.1-0.1-0.2-0.1-0.3-0.1C68.1,18.5,68.3,18.7,68.4,18.8
				c-0.4,1-1.2,2.2,0.7,2.4c0.9,0.1,1.9-0.3,3.9-0.6C70.9,19.8,69.7,19.3,68.4,18.8z M74.2,23.6c-0.1-0.1-0.1-0.3-0.2-0.4
				c-0.1-0.1-0.2-0.1-0.3-0.1C73.8,23.3,74,23.4,74.2,23.6c0.8,3.9,1.5,7.8,2.3,11.8C76.8,31.2,78.1,26.8,74.2,23.6z M78,67.4
				c0-0.4,0-0.9-0.1-1.3c-0.1-0.3-0.4-0.6-0.5-0.9c-0.1,0.3-0.3,0.6-0.3,0.8C77.3,66.5,77.7,66.9,78,67.4c1,2.6,1.9,5.1,3,7.6
				c0.2,0.6,1.1,1.3,1.5,1.2c1.1-0.1,2.2-2.2,1.6-2.9C82.3,71.2,81.5,67.9,78,67.4z M91.3,69.3L91.3,69.3c-0.5-1-0.9-2-1.5-2.9
				c-3.6-4.5-6.9-9-8.9-14.4c-0.1-0.3-0.1-0.8-0.3-0.9c-0.6-0.4-1.4-0.9-2-0.8c-0.6,0.1-1.4,0.9-1.4,1.4c-0.3,3-0.1,6,1.5,8.7
				c0.6,1,1.4,2.1,1.8,3.2C82,68,85.3,71,88.2,74.2c0.8,0.9,1.7,0.7,2.5-0.1C92.3,72.7,93,71.2,91.3,69.3z M68.9,45
				c-0.5,0.4-0.9,0.5-1,0.8c-1.1,4.3-4.5,6.4-8.2,7.8c-0.8,0.3-2.1,0-3-0.4c-0.8-0.4-0.7-1.4,0.3-1.8c0.6-0.2,1.3-0.1,1.9-0.2
				c5-1,7.9-4.8,7.6-9.9c-0.1-1.3-0.2-2.8-1.6-3.1c-0.9-0.2-2,0.5-2.9,0.9c-0.8,0.4-1.9,1.6-2.3,1.4c-2.4-1.4-3.4,0.6-4.8,1.8
				c-2.1,1.7-4.1,1.4-5.7-0.8c-0.8-1-1.7-1.9-2.5-2.9c-2.2-3.2-5-6.2-3.5-10.7c0.3-0.8-0.7-1.9-1.1-2.9c-0.8,0.4-1.8,0.7-2.4,1.4
				c-0.4,0.4-0.5,1.5-0.3,2.1c2,5.4,3.8,11.1,8.9,14.7c0.3,0.2,0.3,0.7,0.4,1.1c-0.4,0.1-1.1,0.4-1.3,0.2c-1.2-1-2.7-1.9-3.4-3.2
				c-2.1-3.7-4-7.5-6-11.5c-1.7,1.8-3.8,3.7-5.7,5.8c-3.3,3.6-6.8,6.6-12.2,7.2c2.3,1.7,4.2,3.2,6.4,4.5c3.2,2,4.7,4.6,3.5,8.4
				c-0.2,0.6-0.2,1.7,0.2,2c2.6,2.5,6.2,2.7,9.2,0.6c0.4-0.3,0.6-0.9,1-0.9c0.4,0,1.2,0.4,1.3,0.7c0.5,2.2-1,3.6-2.5,4.7
				c-1.3,0.9-2.8,1.5-4.1,2.4c-1.1,0.8-0.9,2.1,0.3,2.6c2.3,1,4.6,1.8,7,2.6c2.8,0.9,5.5,0.8,8.4,0.1c4.3-1.1,8-3.2,11.1-6
				c2.1-1.8,4.1-2.1,6.5-2c0.8,0,1.6,0.2,2.3,0.3c2.7,0.3,3.2-0.1,3.4-3c0.1-1.3,0.1-2.5,0-3.8c-0.1-1.2-0.4-2.4-0.7-3.5
				c-0.9,0.6-1.7,1.3-2.7,1.6c-1.5,0.6-3.2,1-4.7,1.4c0.5-1.4,0.8-2.9,1.4-4.2C68.4,49.4,70.1,47.7,68.9,45z M86.4,75.6
				c-3.8,2.1-3.1,5.7-3.6,8.8c-0.1,0.7,0.2,1.5,0.5,2.2c0.8,1.9,1.7,2.1,3.1,0.4c1.5-1.8,3-3.7,4.6-5.4c0.3-0.4,1.1-0.4,1.6-0.6
				c0,0.6,0.3,1.2,0.1,1.7c-0.5,1-1.2,1.8-1.8,2.8c-2.2,3.5-4.4,6.9-6.6,10.4c-0.6,1-0.5,2,0.9,1.9c5.8-0.2,10.3,2.6,14.5,6.1
				c1.2,1,1.9,0.3,2.8-0.6c2.3-2.3,4.6-4.7,7-6.9c1.9-1.7,3.9-3.3,5.8-4.9c1.3-1.1,1.9-2.5,1.8-4.2c-0.3-7.7-1.8-14.9-7.7-20.5
				c-1.6-1.5-3-3.1-4.4-4.7c-0.2,0.1-0.4,0.2-0.5,0.3c-2.4,3.1-4.2,7-9.2,6.1c-0.1,0-0.7,1.1-0.6,1.4c0.9,1.7,0.4,3.2-0.7,4.4
				c-1.2,1.3-2.6,2.3-4.1,3.2c-0.3,0.2-1.2-0.1-1.7-0.5C87.5,76.7,87,76.1,86.4,75.6z M120,74.6c0.4,0.1,0.9,0.2,1.3,0.2
				c0.5-1.6,1-3.2,1.6-4.8c0.2-0.5,0.8-1.2,1.3-1.2c0.4,0,1.1,0.7,1.3,1.2c0.8,2.6,1.9,5,3.7,7.1c0.1-1.3,0-2.6-0.2-3.8
				c-0.1-0.6-0.6-1.3-0.4-1.8c0.2-0.7,0.8-1.2,1.2-1.8c0.5,0.4,1.1,0.7,1.3,1.2c0.6,1.2,0.9,2.4,1.4,3.6c0.6-0.9,0.6-1.7,0.5-2.5
				c-0.2-1.4-2.4-2.6-0.5-4c0.2-0.2,1.9,1.7,2.9,2.5c0.2,0.2,0.5,0.2,1.3,0.5c-1-2-2.3-3.5-2.5-5.1c-0.4-2.6-2.1-4.1-3.4-6.1
				c-1.3-2.1-3-4.1-4.1-6.3c-2.6-5.4-4.9-10.9-7.3-16.4c-1.5-3.4-2.8-4.4-6.1-4.1c-3.6,0.3-7.1,0.6-10.7,1c-3.2,0.3-4.2,1.2-5.2,4.5
				c-0.8,2.8-0.8,5.6,0.2,8.4c0.9,2.3,1.4,2.7,3.8,1.8c2.5-0.9,5-1.9,7.6-2.7c0.7-0.2,2.2-0.2,2.5,0.3c2.6,4.2,7.1,7,8.2,12.5
				c0.7,3.6,1.4,7,0.6,10.6C120,71.2,120.1,72.9,120,74.6z M144.7,106.2c0.4-4.3-2.6-6.6-5.2-9.1c-1.2-1.2-2.1-0.9-3.2,0.2
				c-1.1,1.1-1.3,2.1,0,3.2c0.6,0.5,1.2,1.1,1.7,1.7c0.3,0.3,0.3,0.8,0.4,1.2c-0.6,0.1-1.4,0.4-1.7,0.1c-1.6-1.3-3-2.8-4.5-4.2
				c-2-1.8-3.4-1.8-5.4,0c-2.2,2-4.2,4.3-6.4,6.3c-1.3,1.2-1.1,2.1,0.2,3c5.4,3.7,10.1,8.5,17.3,8.9c1.5,0.1,2.6-0.1,3.2-1.2
				C142.8,113.1,144.3,109.8,144.7,106.2z M94.6,65.9c1.9,0,3.3,0.4,4.2-0.1c1.1-0.7,2-2,2.5-3.3c1.3-3.4-0.2-6.5-1.6-9.5
				c-0.1-0.2-0.5-0.4-0.7-0.5c-1.4-0.3-5,1.9-5.7,3.3c-0.4,0.7-1,1.4-1.5,2.1c-0.7-0.8-1.6-1.5-2-2.4c-0.2-0.4,0.3-1.5,0.7-1.9
				c1.3-0.9,2.6-1.8,4.1-2.3c1.4-0.5,1.7-1.5,1.3-2.6c-1.2-3.7-1.2-7.4-0.1-11.2c0.3-0.8-0.4-1.5-1.4-1.1c-3.1,1.2-6.2,2.3-9.2,3.6
				c-3.7,1.7-3.7,1.8-2.8,5.8c0.2,0.8,0.4,1.6,0.3,2.3c-0.2,3.6,1.4,6.4,3.5,9c1.6,2,3,4,4.4,6.1C91.7,65,92.3,67.5,94.6,65.9z
				 M94.7,103.7c-1.2-0.8-2.1-1.8-3.3-2.1c-1.4-0.4-3.5-1-4.4-0.3c-2.2,1.7-4.4,3.8-5.5,6.2c-1.1,2.3-2,4.2-4,6
				c-3.3,3.1-3,3.9,0.9,6.2c0.8,0.5,1.6,1.1,2.4,1.5c1.6,0.8,3,1,4-0.9c0.5-1,1.3-1.8,1.8-2.8C89.3,113,91.9,108.5,94.7,103.7z
				 M105.5,103.7c2.3,1.1,3.7,1.8,5,2.6c2.8,1.6,3.5,1.6,5.8-0.5c2.4-2.3,4.7-4.7,7-7c6-6,6-6.1-1.2-10.4c-1.3-0.8-2-0.8-2.5,0.6
				c-1.6,4.8-5.7,7.3-9.5,10.1C108.5,100.3,107.2,102,105.5,103.7z M117.6,72.5c0.5-3.4,1.6-6.2,1-8.6c-0.9-3.6-2.5-7.2-4.6-10.2
				c-3.6-5.2-4.4-5.1-10.5-3.3c-1.9,0.6-2.2,1.2-0.9,3c2.1,3,4.1,6.2,6.4,9.1C111.6,65.7,114.4,68.8,117.6,72.5z M157.3,102.7
				c2.5,0,2.7-0.4,1.7-2.8c-2.9-6.4-8.2-10.7-13.1-15.3c-0.9-0.8-2.9-0.6-4.4-0.7c-0.4,0-1.1,0.7-1.2,1.3c-0.1,0.3,0.5,0.9,1,1.2
				c0.7,0.4,1.5,0.5,2.2,0.9c3.2,2,5.8,4.3,6.1,8.4C149.9,100,153,102.7,157.3,102.7z M56,127.2c-1.1,0.5-2.1,1-3.2,1.4
				c0.5,1.1,0.9,2.3,1.6,3.2c0.4,0.6,1.2,1,1.9,1.4c4.1,2.7,8.9,3.8,13.4,5.5c1.1,0.4,2.5,0.2,3.7-0.1c0.6-0.1,1.2-0.9,1.5-1.6
				c0.1-0.4-0.4-1.1-0.9-1.5c-0.4-0.4-1.1-0.7-1.7-0.9c-4.4-1.7-8.7-3.4-12.6-6.2C58.8,127.8,57.4,127.6,56,127.2z M147.5,96.2
				c-1.3-2.7-2.1-5.6-5.4-6.8c-2.2-0.7-3.7-0.7-5.1,0.7c-1.1,1-0.9,2.1,0.4,3c2.2,1.5,4.4,3,6.6,4.5c0.6,0.4,1.6,1.1,1.9,0.9
				C146.5,98,146.9,97,147.5,96.2z M78.9,129.3c0.6-0.2,1.1-0.3,1.4-0.5c1.6-1.3,1.8-3.7,0.1-4.9c-1.9-1.3-4-2.4-6.1-3.4
				c-0.4-0.2-1.3,0-1.6,0.4c-0.8,1-1.4,2.1-2,3.2c-0.1,0.3,0.1,1.1,0.3,1.2C73.6,126.7,76.3,128,78.9,129.3z M68.3,25.3
				c0.4,1.1,0.7,2.2,1.1,3.3c0.2,0.7,0.9,1.6,0.7,2.1c-1.9,4.6,1,8.8,0.4,13.9C73.3,40,72.3,29.5,68.3,25.3z M62.8,126.2
				c0.2,0.6,0.2,1.2,0.5,1.3c2.9,1.6,5.7,3.1,8.7,4.5c1.3,0.6,2.7,0.9,4.1,1.1c0.5,0.1,1-0.5,1.5-0.7c-0.2-0.4-0.4-0.9-0.7-1.1
				C72.5,129,68.2,126.4,62.8,126.2z M80.7,80.5c-0.7-3-3.6-8.1-5.3-9.5C76.2,75.9,76.4,76.2,80.7,80.5z M57.4,25.2
				c-0.3,0-0.6,0-0.9,0c-0.8,5.9-0.7,6.9,0.9,10.6C57.4,32.6,57.4,28.9,57.4,25.2z M51.1,28.7c0-1.4,0.1-2.8-0.1-4.1
				c0-0.3-0.9-0.9-1.4-0.8c-1.3,0.2-2.5,2.5-2,3.7c0,0.1,0.5,0.1,0.6,0C50.1,25.9,49.9,28.6,51.1,28.7z M52.3,20.5
				c1.5,0.7,2.7,1.4,4,1.9c0.3,0.1,0.8-0.3,1.3-0.4c-0.1-0.4-0.2-1-0.5-1.1C55.8,20.1,54.4,19.3,52.3,20.5z M6.5,9.5
				C5.4,7.7,4.6,6,2.3,5.9C2.2,5.8,2,6.1,2,6.2c0,2.2,2.4,2.1,3.4,3.3C5.5,9.6,5.9,9.5,6.5,9.5z M60.7,28.2
				c-0.2-0.1-0.5-0.1-0.7-0.2c0,1.5-0.1,3.1,0,4.6c0.1,0.7,0.7,1.9,0.8,1.9c1.6-0.5,0.3-1.4,0.3-2.2C60.9,31,60.8,29.6,60.7,28.2z
				 M62.8,34.4c1,0.5,1.8,1,2.6,1.3c0.2,0.1,0.9-0.6,0.8-0.7c-0.4-0.8-0.8-1.5-1.3-2.3C64.3,33.2,63.7,33.6,62.8,34.4z M62.7,24.3
				c-0.6-0.5-1.1-1-1.7-1.4c-0.1-0.1-0.5,0.2-0.8,0.3c0.5,0.6,1.1,1.2,1.6,1.7C61.9,24.9,62.2,24.6,62.7,24.3z M78.5,23.4
				c0.5-0.2,0.8-0.4,1-0.5c-0.3-0.4-0.6-0.8-1.1-1.1c-0.1-0.1-0.6,0.2-0.8,0.2C77.9,22.5,78.2,23,78.5,23.4z M66.4,28
				c-0.4-0.4-0.9-0.7-1.3-1.1c-0.1,0.3-0.4,0.6-0.3,0.8c0.3,0.5,0.7,0.9,1,1.3C65.9,28.8,66.1,28.5,66.4,28z M69.9,13.5
				c-0.2-0.3-0.3-0.6-0.5-0.7c-0.2-0.1-0.5,0.1-0.7,0.1c0.1,0.3,0.2,0.6,0.4,0.8C69.3,13.8,69.6,13.6,69.9,13.5z M7.7,15.1
				c-0.4,0.2-0.6,0.3-0.8,0.4c0.1,0.2,0.2,0.5,0.5,0.7c0.1,0.1,0.4,0,0.7,0C7.9,15.8,7.8,15.5,7.7,15.1z M45.3,24.5
				c-0.1-0.1-0.2-0.3-0.3-0.4c-0.1,0.1-0.3,0.3-0.3,0.3c0.1,0.2,0.3,0.3,0.4,0.5C45.3,24.7,45.3,24.6,45.3,24.5z M82.5,20.7
				c-0.1-0.1-0.1-0.3-0.2-0.3c-0.1,0-0.2,0.1-0.3,0.2c0.1,0.2,0.3,0.4,0.4,0.5C82.4,20.9,82.5,20.8,82.5,20.7z"/>
			<path d="M37.7,37.9c-0.1,0.3-0.1,0.6-0.2,0.9c-0.9,2.3-2.6,4-3.7,3.6c-0.2-0.1-0.5-0.4-0.5-0.7c-0.2-1.1,1.3-3.9,2.7-4.6
				c0.3-0.2,0.9-0.1,1.3,0.1C37.4,37.2,37.6,37.6,37.7,37.9z"/>
			<path d="M91.3,69.3c-0.3,0.8-0.5,2.1-1.1,2.3c-0.8,0.4-2.1,0.2-2.8-0.2c-1.2-0.7-0.7-1.8,0.1-2.7c0.8-1,1.7-1.3,2.7-0.2
				C90.5,68.8,90.9,69.1,91.3,69.3L91.3,69.3z"/>
		</g>
	</g>
</g>
</svg>
