<?xml version="1.0" encoding="utf-8"?>
<!-- Generator: Adobe Illustrator 18.0.0, SVG Export Plug-In . SVG Version: 6.00 Build 0)  -->
<!DOCTYPE svg PUBLIC "-//W3C//DTD SVG 1.1//EN" "http://www.w3.org/Graphics/SVG/1.1/DTD/svg11.dtd">
<svg version="1.1" id="Layer_1" xmlns="http://www.w3.org/2000/svg" xmlns:xlink="http://www.w3.org/1999/xlink" x="0px" y="0px"
	 viewBox="0 0 73 90.1" enable-background="new 0 0 73 90.1" xml:space="preserve">
<path d="M68,66.6c0-0.1,0-0.2,0-0.2c1.4-3,2.9-5.9,3.8-9c0.1-0.2,0.9-4.6,1.2-6.8c-0.4-2-1.4-3.7-2.2-5.6c0-0.1,0-0.1,0-0.2
	c-0.7-0.4-1.3-0.9-2-1.3c-0.5-0.4-1.3-1.1-1.2-1.3c1.5-3.6-0.8-6.9-0.5-10.4c0.5-5.4-1.6-9.9-5.6-13.6c-1.2-1.1-2.1-2.4-3.2-3.6
	c-0.2-0.3-0.5-0.5-0.7-0.8c0.3,0.2,0.5,0.5,0.8,0.7c1.4,0,2.5-0.5,1.3-2c-2.4-2.8-5.2-5.2-9.4-4.9c-2.8,0.2-4.9-0.6-7.2-2.7
	c-3-2.7-6.8-5-11.2-4.9c-2.7,0-5.4,0.6-8.1,1c-0.4,0.1-0.9,1.2-0.9,1.2c2.1,1.8,0.2,2.2-1,2.8c-2.8,1.5-5.7,3-8.4,4.8
	c-0.8,0.5-1.5,1.7-1.5,2.7c0,1.5,1.3,2.1,2.7,2c-1.3,1.2-2.8,2.2-3.7,3.6c-2.3,3.5-4.4,7.1-6.4,10.7c-2.1,3.7-3,7.7-1.9,11.9
	c0.6,2.4,0.6,4.4-1.4,6.1c-0.5,0.5-1,1.4-1,2.1c-0.3,5.2-0.3,10.3,3.1,14.8c2.3,3.1,4.4,6.3,6.6,9.5c1.2,1.7,3.5,3.5,3.3,5.1
	c-0.2,2.2-3.3,2.5-5.4,3.2c-2.2,0.8-2,2.7-1.9,4.5c0,1.6,0.7,2.7,2.3,3.2c5.9,1.8,11.4,0.9,16.8-1.8c0.8-0.4,1.7-1,2.4-1.7
	c2.6-2.4,2.9-4,1.4-7.2c-0.8-1.7-1.5-3.5-2-5.3c-0.1-0.3,0.8-1.1,1.3-1.3c0.5-0.1,1.2,0.4,1.8,0.6c3.1,1.2,6.2,2.6,9.7,1.2
	c0.6-0.2,1.3-0.2,1.9-0.1c0.7,0.1,1.4,0.5,2.1,0.8c-0.3,0.6-0.4,1.2-0.8,1.6c-2.1,2.6-4.2,5.3-5,8.7c-0.7,2.9,0.1,4.2,3.1,4.4
	c4.7,0.3,9.3-0.1,13.9-1.2c5-1.2,5.9-2.8,5.5-7.9c-0.1-1,0-2.3,0.5-3.1C63,73.5,65.4,70.1,68,66.6z M60.3,29.8
	c0.4-1.2,0.8-2.3,1.2-3.5c0.4-1.1,0.8-2.3,1.2-3.6c3.1,4.7,2.4,9.7,2.2,14.7c0,0.3-1.1,0.9-1.6,0.8c-1.1-0.2-2.2-0.6-3.2-1.1
	c-1.9-0.9-2-1.4-1.1-3.4C59.5,32.5,59.8,31.1,60.3,29.8z M50.4,73.7c1.8,1,3.5,2.2,5.7,2.1c0.6,0,1.3,0.8,1.7,1.4
	c0.1,0.2-0.6,1.2-1.1,1.4c-1.3,0.5-2.7,0.8-4.2,1.2c-1.6-0.4-3.1-0.7-4.6-1.2C46.4,78,45.3,77,46,75.3
	C46.6,73.7,48.8,72.8,50.4,73.7z M48,67.1c0.4-1.4,0.9-2.9,1.4-4.3c0-0.1,0.3-0.2,0.7-0.4c0.1,0.6,0.2,0.9,0.1,1.2
	c-0.6,1.3-1.2,2.5-1.9,3.7C48.3,67.3,48,67.2,48,67.1z M50.4,58.8c-0.7-0.9-1.6-2.6-1.2-3.2c1.4-2,1.7-4,1-6.3
	c-0.2-0.7,0.5-1.8,0.9-2.6c0.7-1.4,1.8-2.7,2.4-4.1c0.9-2.2,2.3-3.4,4.6-2.8c1,0,1.8-0.1,2.6,0c4.3,0.7,5.4,3.1,3.4,6.8
	c-1.8,3.4-5,5.7-7.5,8.5c-1.1,1.2-2.4,2.2-3.7,3C52.1,58.6,50.6,59,50.4,58.8z M57.9,21.8c0.3,0.2,0.6,0.3,0.7,0.5
	c0.1,0.2-0.1,0.5-0.2,0.7c-0.3-0.1-0.7-0.2-0.8-0.5C57.6,22.4,57.8,22,57.9,21.8z M58.1,30.6c-0.3,1.1-1.2,2.1-1.9,3.2
	c-2.1-2.2-0.1-5.1-2.2-6.9c0.5-0.2,1-0.7,1.4-0.7C57.3,26.5,58.6,28.5,58.1,30.6z M57.3,13.5c-1.2-0.7-2.3-1.4-3.5-2
	C55.7,11.1,57.1,11.4,57.3,13.5z M54.9,18.7c-2.8,0-3.4-3.1-5.6-3.8C52.4,14.6,53.1,17.3,54.9,18.7z M52,21.8c-0.1,0-0.2,0-0.3-0.1
	c-0.1-0.1-0.1-0.2-0.2-0.4C51.7,21.5,51.9,21.6,52,21.8z M51.5,21.3c-0.3-0.3-0.5-0.6-0.8-0.9c0.2-0.1,0.3-0.2,0.5-0.3
	C51.3,20.4,51.4,20.9,51.5,21.3z M48.2,19.9c0.1,0.3,0.2,0.5,0.4,0.8c-0.1,0.3-0.2,0.5-0.3,0.8c-0.2-0.3-0.5-0.6-0.5-0.9
	C47.7,20.4,48,20.2,48.2,19.9z M45.2,14c-0.1,0-0.2,0-0.3-0.1c-0.1-0.1-0.1-0.2-0.2-0.4C44.9,13.7,45,13.8,45.2,14z M52.4,32.3
	c0.9,1.6,1.2,3,0.8,4.6c-1.1,3.9-2.8,7.5-5.9,10.3c-0.7,0.6-1.3,1.3-1.7,2.1c-0.5,1-1.1,1-1.9,0.6c-2.2-1.2-4.2-0.1-5.8,1.2
	c-1.8,1.4-3.4,1.5-5.3,0.6c-2-0.9-4.2-1.5-6.3-2.4c-0.6-0.2-1.4-0.6-1.5-1.1c-1.5-4.2-6-6.6-6.4-11.5c-0.3-3.2,1.1-6.9,3.9-8.5
	c5.7-3.2,11.4-6.5,17.1-9.8c2-1.1,2.4-1,2.5,1.4c0.1,2.1-0.1,4.2,0.1,6.3c0.4,4.1,2.1,5.2,6.8,4.2c-1.1-1.9-4-2.5-3.9-5.2
	C47.4,27.4,50.6,29,52.4,32.3z M19.5,48.4c-2.1,1.4-4.4,2.7-6.4,4.3c-1.5,1.2-2.5,1.3-3.5-0.2c-1.4-2.3-3-4.5-4-7
	c-1.2-3-0.5-3.7,2.6-3.8c0.5,0,1-0.1,1.4,0c3.2,0.9,6.5,1.6,9.6,2.8C21.9,45.6,21.9,46.8,19.5,48.4z M32.1,19.3
	c0.3-0.3,0.6-0.5,1-0.8c0.1,0.2,0.2,0.3,0.3,0.5C33,19.2,32.5,19.2,32.1,19.3z M44.7,25.1c-0.1-0.2-0.3-0.3-0.4-0.5
	c0.1,0,0.2,0,0.3,0.1C44.6,24.9,44.7,25,44.7,25.1z M42.8,12.5c0.6,0.3,1.1,0.6,1.7,0.9C43.9,13.1,43.3,12.8,42.8,12.5
	c-2.1-0.7-4.2-1.5-6.6-2.4C39.5,9,41.4,10,42.8,12.5z M34.6,12.4c-0.3-0.1-0.5-0.2-0.8-0.3c0.3-0.2,0.6-0.4,1-0.4
	c0.2,0,0.5,0.3,0.7,0.4C35.1,12.2,34.9,12.3,34.6,12.4z M32.7,2.9c0.9,0,1.8,0,2.6,0c0,0.2,0,0.4,0,0.7c-0.8,0.1-1.7,0.2-2.5,0.2
	c-0.3,0-0.6-0.3-1-0.5C32.2,3.1,32.4,2.9,32.7,2.9z M30.9,5.8c0.5,0,1,0.3,1.5,0.5c-0.4,0.1-0.8,0.3-1.3,0.4
	c-0.4-0.2-0.8-0.3-1.2-0.5C30.2,6.1,30.6,5.8,30.9,5.8z M32.1,19.3c-0.9,1.3-2.1,1.1-4.1,0.2C29.9,19.4,31,19.4,32.1,19.3z M23,10.8
	c0.1-0.1,0.2-0.1,0.4-0.2c0.2-0.4,0.4-0.8,0.8-1.1c0.2-0.2,0.6,0,1,0c-0.1,0.2-0.2,0.6-0.5,0.7c-0.4,0.2-0.8,0.2-1.3,0.3
	c-0.2,0.2-0.3,0.3-0.5,0.5C22.9,11,22.9,10.8,23,10.8z M17.6,10.6c0.3-0.3,0.6-0.6,1-1c1.4-0.9,2.8-1.7,4.2-2.6
	c-0.7,2.3-2.3,2.6-4.2,2.6L17.6,10.6c-0.3,0.8-0.6,1.7-1.1,2.4c-0.4,0.6-1.2,1-1.9,1.5C14,12,14.4,11.6,17.6,10.6z M16.4,31.2
	c0,0.1-0.2,0.2-0.3,0.2c-0.1-0.1-0.2-0.3-0.2-0.4c0.2-0.1,0.4-0.2,0.5-0.3C16.4,30.9,16.4,31,16.4,31.2z M15.1,22.7
	c0,0.1,0,0.2-0.1,0.3c-0.1,0.1-0.2,0.1-0.4,0.2C14.8,23.1,15,22.9,15.1,22.7z M12.9,19c0.1-0.1,0.4,0.2,0.6,0.3
	c-0.3,0.5-0.6,1-0.9,1.7c-0.3-0.5-0.6-0.8-0.5-0.9C12.2,19.7,12.5,19.3,12.9,19z M9.8,23.5c0.2,0.1,0.4,0.2,0.6,0.3
	c-0.2,1.5-0.5,3-0.6,4.5c0,0.5,0.5,1,0.8,1.5c0.1-0.5,0.3-0.9,0.4-1.4c0.3-1.8,0.9-3.4,2.7-4.2c-0.2,0.8-0.5,1.5-0.6,2.3
	c-0.3,1.4-0.2,3.5-1,3.9c-1.6,0.7-3.6,0.5-6.1,0.7C7.4,28.1,8.6,25.8,9.8,23.5z M4.6,35.8C5.1,34.9,6,34,6.9,33.5
	c2.6-1.5,4.9,0.3,7.3,0.8c1.9,0.4,2.4,2.3,2.4,4.2c0,0.6,0.3,1.1,0.4,1.9c-1.7,0-3.1,0.1-4.5,0c-1.9-0.2-3.7-0.6-5.6-0.8
	C4.1,39.5,3.3,38.3,4.6,35.8z M10.9,69.5c-1.1-2.1-3-3.7-4.4-5.7c-2.3-3.2-3.9-6.6-3.6-10.7c0.2-1.4,0.3-3.9,0.8-4
	c2.1-0.4,1.8,2.1,2.8,3.1c3.3,3.5,6.6,6.9,11.1,9c1.1,0.5,2.2,1.5,2.7,2.5c1.1,1.9,1.9,4.1,2.7,6.1c0.9,2.2,0.2,3.6-2.1,3.7
	C16.9,73.8,13.1,73.7,10.9,69.5z M24.7,67.7c-0.7-1.1-1.2-2-1.7-3c0-0.1,0.3-0.4,0.5-0.6c0.1-0.1,0.3,0,0.4,0.1
	C25,65,25.7,66,24.7,67.7z M25.5,77.9c0.7,2.5-1.5,1.8-2.5,2.4c-0.4,0.2-0.9,0.1-2.2,0.2c-0.5-0.2-1.7-0.5-2.7-1.1
	c-0.6-0.4-0.8-1.3-1.1-1.9c0.7-0.3,1.3-0.7,2-0.8c1.1-0.2,2.2-0.2,3.3-0.4C24.9,75.6,24.9,75.7,25.5,77.9z M27.2,82.3
	c-2.1,3.5-5.2,4.2-8.1,4.7c-2.8,0.5-5.8,0.2-8.6,0.1c-0.8,0-1.9-0.8-2.2-1.5c-0.2-0.5,0.7-1.8,1.3-2.1c2.7-1.1,5.1-3.1,8.4-0.7
	c1.3,1,4,0.2,6,0.2C24.9,83,25.8,82.7,27.2,82.3z M26.3,61.9c-2.6-0.8-5.2-1.7-7.7-2.7c-1.2-0.5-2.3-1.1-3.2-1.9
	c-2.1-1.8-2-2.3,0.4-4c0.9-0.6,1.8-1.3,2.8-1.9c2.2-1.2,4-2.1,6.9-0.3c6.1,3.8,13,4.3,19.9,1.9c0.5-0.2,1.1-0.4,2-0.8
	c-0.8,2.5-2.6,2.6-4.1,3.3c-1.4,0.6-1.3,1.5,0.1,2.6c0.6,0.4,1,1,1.5,1.6c0.5,0.6,0.9,1.2,1.4,1.9c-0.7,0.4-1.4,1-2.2,1
	C38,62.8,32.1,63.8,26.3,61.9z M29.3,69.8c-0.8-0.4-1.6-1.5-1.9-2.5c-0.4-1.1,0-2.3,1.6-2.3c1.3,0,2.6,0,3.8,0c0,0,0,0,0,0
	c3.3,0,6.6-0.1,9.9,0.1c0.9,0,2.2-1.6,2.8,0.3c0.8,2.7,0,4.9-1.9,5.5C38.8,72.5,33.9,72.1,29.3,69.8z M44.1,78.8
	c0.1-0.1,0.7,0.5,1.4,1.1c-1,0.5-1.7,1-2.5,1.3c-0.1,0.1-0.5-0.3-0.7-0.4C42.9,80.1,43.4,79.4,44.1,78.8z M56,85.2
	c-4,0.8-8.1,1.5-12.3,2.3c-1.1-0.3-2.3-0.7-3.4-1c0.9-1,1.6-2.5,2.7-2.9c3.4-1.2,7-2.4,10.7-2c0.8,0.1,1.7,0,2.3,0.4
	c0.8,0.5,1.3,1.3,1.9,2C57.2,84.4,56.7,85.1,56,85.2z M56.6,73.6c-0.3-0.1-1.4-0.2-2.5-0.7c-2.7-1.1-2.8-1.7-1.3-4.5
	c0.3-0.5,0.5-1.2,0.4-1.8c-0.1-0.8-1.9-0.9-1-2.3c1.5-2.3,2.6-4.9,4.4-6.8c2.4-2.5,5.5-4.4,8.1-6.8c1-0.9,1.3-2.5,2-3.7
	c0.3-0.5,1-1.3,1.2-1.3c0.7,0.3,1.6,0.8,1.7,1.4c0.4,1.5,0.7,2.9,0.7,4.6c-0.3,6.4-3.1,11.7-6.3,16.9C62.1,72.2,60,73.6,56.6,73.6z"
	/>
<path d="M33.5,45.6c-3.7-0.4-7-2-10.2-3.7c-0.4-0.2-0.4-1.1-0.5-1.6c0.6-0.1,1.3-0.6,1.7-0.4c2,0.7,3.9,1.5,5.8,2.3
	c3.2,1.4,6.1,1.4,8.8-1.2c0.2-0.2,0.5-0.6,0.7-0.6c0.9-0.1,1.7-0.2,2.6-0.2c-0.3,0.8-0.4,1.9-1,2.3C39.1,44.2,36.6,45.8,33.5,45.6z"
	/>
<path d="M32.2,41.1c-2.3-0.8-4.2-1.1-5.8-2c-2.2-1.1-2.6-2.9-1-5.1c0.7-1,0.5-1.6,0.3-2.5c-0.1-0.9,0.3-2.1,0.8-2.9
	c0.5-0.8,2.5,0.1,2.2,0.7c-0.8,1.6-0.4,2.7,0.5,4c0.1,0.2,0,0.6-0.1,0.9c-0.7,3.1-0.6,3.2,2,3.5c0.3,0,0.6,0,1,0
	c1,0.1,2.7-0.4,2.6,1.2C34.6,39.7,33.1,40.4,32.2,41.1z"/>
<path d="M36.3,33.4c-0.6-1.7-1.1-2.6-1.2-3.6c-0.1-1.1,0.5-2,1.6-1.5c0.6,0.2,1.1,1.4,1.1,2.1C37.8,31.2,37.1,31.9,36.3,33.4z"/>
</svg>
