<?xml version="1.0" encoding="utf-8"?>
<!-- Generator: Adobe Illustrator 18.0.0, SVG Export Plug-In . SVG Version: 6.00 Build 0)  -->
<!DOCTYPE svg PUBLIC "-//W3C//DTD SVG 1.1//EN" "http://www.w3.org/Graphics/SVG/1.1/DTD/svg11.dtd">
<svg version="1.1" id="Layer_1" xmlns="http://www.w3.org/2000/svg" xmlns:xlink="http://www.w3.org/1999/xlink" x="0px" y="0px"
	 viewBox="0 0 104.7 111.2" enable-background="new 0 0 104.7 111.2" xml:space="preserve">
<g>
	<path d="M85.3,82.7c2.4,0.5,4.1,0.9,5.8,1.3c1.3,0.3,2.6,0.6,3.7,1.2c3.6,2,7.7,3.5,9.7,7.3c0.5,0.8-0.7,2.9-1.6,4
		c-3.2,3.9-6.7,7.6-9.9,11.5c-2.2,2.7-4.7,3.9-7.1,2.8c-2.3-1-4-4.8-3.5-7.5c0.9-4.5,2-9.1,2.8-13.6C85.6,87.7,85.3,85.6,85.3,82.7z
		 M82.7,104.4c1.4,1.9,2.5,4.2,4.3,5.3c2.3,1.4,3.8-0.8,5.2-2.6c1.7-2.2,3.7-4.3,5.4-6.4c2.7-3.3,2.6-5.1-0.4-8.1
		c-3.4-3.4-7.6-3.5-10,0.5C85.3,96.3,84.3,100.2,82.7,104.4z M87.7,88.2c0.5,0.3,1.1,0.6,1.6,0.9c0.7-1,1.3-2,2-3
		c-0.7-0.4-1.3-0.8-2-1.3C88.7,85.9,88.2,87,87.7,88.2z"/>
	<path d="M11.7,67.4c-2.8,11.7,2,23,2.4,34.5c0.1,1.6,0.4,3.2,0.4,4.9c0,0.6-0.4,1.6-0.8,1.8c-0.5,0.2-1.5-0.2-2-0.6
		c-3.7-3.8-7.5-7.7-11.1-11.7c-0.6-0.7-0.7-2.1-0.6-3c0.7-4.4,2.1-8.6,4.5-12.5c0.8-1.2,1.1-3,0.9-4.4c-0.6-4-0.1-7.8,1.9-11.3
		c0.7-1.1,2.2-1.8,3.3-2.7c0.4,1.2,0.8,2.5,1.1,3.7C11.9,66.5,11.7,67,11.7,67.4z M12.3,105.9c0.3-0.1,0.6-0.2,0.8-0.4
		c-0.2-3.1-0.3-6.2-0.6-9.2c-0.3-2.7-0.8-5.4-1.4-8c-0.2-0.7-1.6-1.6-2.3-1.5C5.7,87.5,2.1,96,4.2,98.3
		C6.6,101.1,9.6,103.4,12.3,105.9z M10.7,64.9c-0.4-0.1-0.8-0.2-1.1-0.3c-2.5,2.2-3.4,5.3-3.2,8.5c0.2,2.7-0.3,6,2.4,7.9
		c0.4,0,0.8-0.1,1.2-0.1C10.2,75.5,10.4,70.2,10.7,64.9z M6.3,80.5c-0.8,1.4-1.6,2.3-1.5,2.9c0.3,1.2,1.3,2.2,1.9,3.2
		c0.8-0.7,2.5-1.7,2.4-2.1C8.7,83.2,7.6,82.2,6.3,80.5z"/>
	<path d="M6.4,5c2.3,0.3,4.7-0.1,5.3,0.8c1.5,2.1-0.4,3.7-2,5.1c-0.5,0.5-1,1.1-1.6,1.8c1,0.7,1.8,1.2,2.6,1.7
		c0.4,0.3,1.2,0.7,1.2,1c0.1,2.8,0.3,5.7-0.1,8.5c-0.2,1.3-1.3,2.8-2.3,3.6c-0.9,0.8-2.8,1.4-3.6,1c-1.4-0.7-3.2-2.3-3.5-3.7
		C1.8,21.3,2.1,17.6,1.9,14c-0.1-2.1,0.1-4,2-5.5c0.4-0.3,0.1-2-0.2-2.9C3.3,4.7,2.3,4,1.9,3C1.7,2.2,1.7,0.6,2.1,0.4
		c1-0.4,2.3-0.5,3.4-0.2c0.6,0.2,1,1.4,1.1,2.3C6.7,3.4,6.4,4.5,6.4,5z M12,7.3c-1.4-0.5-2.4-1.2-2.7-1c-2.1,1.4-4.1,3-6,4.7
		c-0.1,0.1,1,1.5,1.5,2.4C7,11.6,9.2,9.7,12,7.3z M8.7,19c0.5-0.6,1.4-1.5,2.3-2.4c-1.7-0.7-3.3-1.8-5-2.1c-0.9-0.2-2.1,1-3.1,1.6
		c1.2,0.8,2.4,1.7,3.6,2.5C6.9,18.8,7.4,18.8,8.7,19z M9.1,24c0.8-0.5,1.5-0.9,2.3-1.4c-0.5-0.8-0.8-1.9-1.5-2.3
		c-1.4-0.7-3.1-1-4.6-1.2c-0.5-0.1-1.4,0.5-1.7,1c-0.2,0.3,0.2,1.3,0.6,1.6C5.6,22.6,7.2,23.2,9.1,24z M9.5,25.8
		C7.6,25,6.4,24.4,5,24c-0.3-0.1-0.9,0.8-1.4,1.3c1.3,0.7,2.6,1.5,4,2.1C7.9,27.5,8.4,26.7,9.5,25.8z"/>
	<path d="M78.7,30.6c1-1,1.6-2.1,2.5-2.6c1.4-0.7,3.1-1.7,4.4-1.4c1.9,0.5,4.5,1.2,4.2,4.1c-0.4,3.6-1.1,7.1-1.7,10.7
		c-0.1,0.4-0.2,0.9-0.4,1.2c-1.1,1.4-9.1,0.2-9.3-1.6c-0.3-2.5,0.1-5,0.2-7.5C78.8,32.5,78.7,31.5,78.7,30.6z M86,31.1
		c0.8,0,1.7,0,2.8,0c-1.8-3.9-3.5-4.6-6.4-2.6c1.3,1,2.5,1.9,3.8,2.8c-1.8-0.2-3.5-0.5-5.3-0.7c-0.1,0.5-0.2,1.1-0.3,1.6
		c2,0.5,4,1.1,6.9,1.9C86.6,32.4,86.3,31.8,86,31.1z M79.2,35c1.2,2.6,3.3,3.2,8.3,2.4C86,34.1,82.7,33.2,79.2,35z M86.5,42.1
		c0.3-0.3,0.6-0.5,0.9-0.8c-0.9-0.9-1.6-2.2-2.6-2.6c-1.8-0.7-3.5-0.2-4.5,2.1C82.5,41.2,84.5,41.7,86.5,42.1z"/>
</g>
</svg>
