<?xml version="1.0" encoding="utf-8"?>
<!-- Generator: Adobe Illustrator 18.0.0, SVG Export Plug-In . SVG Version: 6.00 Build 0)  -->
<!DOCTYPE svg PUBLIC "-//W3C//DTD SVG 1.1//EN" "http://www.w3.org/Graphics/SVG/1.1/DTD/svg11.dtd">
<svg version="1.1" id="Layer_1" xmlns="http://www.w3.org/2000/svg" xmlns:xlink="http://www.w3.org/1999/xlink" x="0px" y="0px"
	 viewBox="0 0 42.5 42" enable-background="new 0 0 42.5 42" xml:space="preserve">
<path d="M0,28.1c-0.1-4.8,2.6-6.9,6.6-6.3c1.8,0.3,3.3,0.9,4.8,2c1.6,1.2,3.4,1.7,5.2-0.1c1.5-1.6,3.2-3,4.9-4.5
	c1.9-1.7,3.9-3.3,5.6-5.2c2.4-2.5,4.8-4.9,6.7-8c1.5-2.6,5.2-4,8-5.9c0.1-0.1,0.6,0.2,0.7,0.4c0.1,0.2,0.2,0.7,0,0.9
	c-1.3,1.1-2.7,2.2-4,3.3c-1.5,1.2-1.4,1.8,0.3,2.8c1,0.6,2.1,1,3,1.6c0.4,0.3,0.6,1.1,0.8,1.6c-0.5,0.1-1.3,0.5-1.6,0.3
	c-4.1-2.6-7.2-1.5-10,2.1c-1.2,1.5-2.7,2.8-4.1,4.1c-3.7,3.7-3.7,3.7-0.2,7.7c1.9,2.1,1.8,2.1,3.8,0.3c3.3-3,6.7-6,10.1-9
	c0.4-0.4,1.3-0.1,2-0.2c-0.2,0.7-0.1,1.7-0.6,2.1c-4.1,3.8-8.5,7.4-12.5,11.2c-1.7,1.6-2.8,3.8-4.2,5.8c-1,1.4-1.9,3-3.1,4.3
	c-3.4,3.5-3.7,3.2-8.3,1.4c-4.9-1.9-7.9-5.9-11.9-8.9C0.6,30.9,0.3,28.8,0,28.1z M20.6,37.2c-0.4-0.2-0.9-0.3-1.3-0.5
	c-1.2-0.7-2.5-1.4-3.6-2.3c-3.7-2.7-7.4-5.5-11.1-8.2c-0.6-0.4-1.3-0.5-2-0.7c-0.1,0.9-0.3,1.8-0.2,2.7c0.1,0.6,0.7,1.1,1.1,1.5
	c3.5,4,7.7,7.1,12.5,9.3c1,0.4,2.4,0,3.6-0.2C19.8,38.8,20,38.1,20.6,37.2z M21,23.1c-1,1.1-2.2,2.2-3,3.5c-0.1,0.2,1,1.3,1.6,1.9
	c0.8,0.8,1.6,1.5,2.4,2.3c0.8,0.7,1.6,1.1,2.5,0.3c0.9-0.9,2.2-1.7,1.3-3.2c-0.9-1.4-2.1-2.8-3.2-4.1C22.2,23.5,21.7,23.4,21,23.1z
	 M7.5,24.5c4.8,3.4,8.5,8.6,14.6,10.4C18.5,29.8,12.7,27.7,7.5,24.5z"/>
</svg>
