<?xml version="1.0" encoding="utf-8"?>
<!-- Generator: Adobe Illustrator 18.0.0, SVG Export Plug-In . SVG Version: 6.00 Build 0)  -->
<!DOCTYPE svg PUBLIC "-//W3C//DTD SVG 1.1//EN" "http://www.w3.org/Graphics/SVG/1.1/DTD/svg11.dtd">
<svg version="1.1" id="Layer_1" xmlns="http://www.w3.org/2000/svg" xmlns:xlink="http://www.w3.org/1999/xlink" x="0px" y="0px"
	 viewBox="0 0 300.2 127.7" enable-background="new 0 0 300.2 127.7" xml:space="preserve">
<path d="M258.1,76.7c0.4,0.5,0.7,1.1,1.1,1.5c1.8,1.6,2.1,1.6,3.4-0.1c0.5-0.6,0.8-1.6,1.4-1.9c3.6-1.9,5.4-4.4,2.9-8.4
	c-0.2-0.3,0.3-1.3,0.7-1.5c0.5-0.2,1.4-0.1,1.8,0.2c0.7,0.6,1.1,1.5,1.7,2.3c1.3,1.6,2.6,3.3,5.2,2.2c0.4-0.2,1.2,0.3,1.7,0.5
	c-0.3,0.7-0.4,1.7-0.9,1.9c-3.7,1.8-4,4.3-2.9,8c0.7,2.5-0.1,5.4-0.2,8.1c0,0.7-0.2,1.5,0.3,2.4c0.5-0.8,1-1.6,1.5-2.3
	c0.8-1,1.5-2.5,2.9-1.7c0.5,0.3,0.3,2,0.2,3.1c0,0.6-0.3,1.3-0.6,1.8c-0.9,1.9-0.3,3.4,1,4.8c0.9,1,1.5,1.4,2.6,0
	c3.8-5.1,3.8-5.6,0.4-11.5c-0.3-0.5-0.8-1.1-0.9-1.7c-0.1-0.4,0.3-0.9,0.6-1.2c0.3-0.2,1-0.3,1.2-0.1c2.5,2,4.9,4.1,7.7,6.4
	c1.1-0.5,1.1-2.5,2.2-3.5c0.6-0.5,1.7-0.5,2.7-0.5c0.1,0,0.5,1.3,0.4,1.9c-0.3,1.4,0.3,1.7,1.5,1.7c0.8,0,1.6,0,2.4,0
	c0,0.6,0,1.1-0.1,1.1c-5.1,1.6-5.6,6-6,10.3c-0.2,2.1-1.1,3-3.2,3.5c-1.4,0.3-2.1,0.1-2.6-1.2c-0.2-0.4-0.3-0.9-0.5-1.3
	c-0.2,0.4-0.5,0.7-0.5,1.1c-0.2,2.4-1.3,2.3-2.7,0.9c-2-2-4.2-0.6-6.4-0.8c-2.3-0.2-3.9,0.5-5.1,2.7c-0.9,1.6-3.1,1.4-4.1-0.9
	c-1.2-2.5-2.5-2.1-4.2-1.1c-2.4,1.4-4.7,2.8-7.6,1.4c-0.4-0.2-1-0.1-1.4,0.1c-3.6,1.7-6.5,0-9.7-1.7c-0.5,1-0.9,2.2-1.5,3.2
	c-0.6,1.1-1.4,1.4-1.9-0.1c-0.3-0.8-0.3-1.7-1.4-0.7c-3.2,2.8-7.1,4.3-11.1,5.3c-2.8,0.7-2.9,0.6-3-2.4c0-1,0-1.9,0-2.9
	c0.3-0.3,0.5-0.6,0.8-1c-0.2-0.1-0.3-0.2-0.5-0.3c-0.1,0.4-0.2,0.8-0.3,1.3c-1.2,2-2.4,4.1-3.4,5.9c-1.9-0.3-3.9-0.7-5.8-1
	c-0.9-0.1-1.9-0.1-2.9-0.3c-0.4-0.1-0.6-0.6-0.9-1c0.3-0.2,0.7-0.6,1-0.7c1.8-0.1,3.6-0.1,5.3,0c2.1,0.2,3.3-0.8,4.1-2.7
	c1.4-3.3,2.9-6.5,4.4-9.7c1.3-2.7,3.5-3.4,6.9-3.1c-1.1,2-2.1,3.7-2.9,5.3c-1.2,2.4-2.4,4.9-3.4,7.4c-0.8,2,0.5,3.3,2.5,2.4
	c3.4-1.6,7.4-2.5,9.3-6.5c0.7-1.5,2.5-2.6,3.3-4.1c2.3-4.2,3.2-8.6,2.1-13.3c-0.6-2.8-0.6-5.7-1.2-8.6c-0.6-2.8-1.4-5.6-2.5-8.2
	c-1.8-4.1-3.9-8.1-6-12.1c-0.4-0.8-1.1-2-1.8-2.1c-2.9-0.4-3.4-2.6-4.2-4.7c-1.7-4.5-3.6-9-7.1-12.4c-3.1-3-6.4-5.9-10.6-7.3
	c-5.6-1.8-11.3-3.5-17-5c-6.9-1.7-14-2.3-21-1.8c-2.4,0.2-4.7,1.8-7.1,2.8c-0.3,0.1-0.7,0.4-0.7,0.6c-0.6,5.2-6.6,6.2-8.5,10.6
	c-0.4,0.9-3.1,1.6-4.2,1.1c-4.7-1.8-8.2,0.7-11.5,3.1c-3.5,2.5-6.6,5.6-9.5,8.9c-3.7,4.2-7.2,8.6-10.4,13.2c-3,4.4-5.4,9.1-6.7,14.3
	c-0.4,1.5-0.8,3.2-1.7,4.4c-3.5,5.1-4.9,10.7-5.2,16.8c-0.1,1.7-0.5,3.5-0.9,5.2c-0.5,2-0.7,3.7,1.3,5c0.5,0.3,0.8,0.9,1.3,1.5
	c-4.6,0.1-6.2-1.5-5.5-5.4c0.5-2.5,0.9-5,1.3-7.5c0.4-2.5,0.8-4.9,1.2-7.6c-3.1,4.4-6.1,8.5-9,12.7c-0.5,0.8-0.6,2.1-0.5,3.1
	c0.4,5.1-0.5,6.7-5.5,7.9c-4.5,1.1-9.2,1.5-13.9,1.2c-3-0.2-3.8-1.5-3.1-4.4c0.8-3.4,2.9-6,5-8.7c0.4-0.5,0.5-1.1,0.8-1.6
	c-0.7-0.3-1.3-0.6-2.1-0.8c-0.6-0.1-1.4-0.2-1.9,0.1c-3.5,1.4-6.6,0-9.7-1.2c-0.6-0.2-1.3-0.7-1.8-0.6c-0.5,0.1-1.4,1-1.3,1.3
	c0.5,1.8,1.2,3.6,2,5.3c1.5,3.2,1.3,4.8-1.4,7.2c-0.7,0.6-1.5,1.2-2.4,1.7c-5.4,2.7-10.9,3.6-16.8,1.8c-1.7-0.5-2.3-1.6-2.3-3.2
	c0-1.8-0.3-3.7,1.9-4.5c2.1-0.7,5.1-1,5.4-3.2c0.2-1.5-2.1-3.4-3.3-5.1c-2.2-3.2-4.3-6.4-6.6-9.5c-3.4-4.5-3.4-9.6-3.1-14.8
	c0-0.7,0.5-1.6,1-2.1c2-1.8,2-3.8,1.4-6.1c-1.1-4.2-0.2-8.2,1.9-11.9c2-3.6,4.1-7.3,6.4-10.7c0.9-1.4,2.5-2.4,3.7-3.6
	c0.6-0.5,1.4-0.9,1.9-1.5c0.5-0.7,0.7-1.6,1.1-2.4c0.3-0.3,0.6-0.6,1-1c1.8,0,3.5-0.3,4.2-2.6c-1.4,0.9-2.8,1.7-4.2,2.6
	c-0.3,0.3-0.6,0.6-1,1c-3.2,0.9-3.5,1.4-2.9,3.9c-1.5,0-2.7-0.5-2.7-2c0-0.9,0.8-2.1,1.5-2.7c2.7-1.7,5.6-3.2,8.4-4.8
	c1.2-0.7,3-1,1-2.8c0,0,0.5-1.2,0.9-1.2c2.7-0.4,5.4-1,8.1-1c4.4-0.1,8.3,2.2,11.2,4.9c2.3,2.1,4.4,3,7.2,2.7c4.2-0.4,7,2,9.4,4.9
	c1.2,1.4,0.1,1.9-1.3,2c-0.3-0.3-0.7-0.6-1-1c-0.2-2.1-1.7-2.4-3.5-2c1.2,0.7,2.4,1.4,3.5,2c0.3,0.3,0.6,0.7,1,1
	c1.1,1.2,2,2.5,3.2,3.6c4,3.7,6.1,8.2,5.6,13.6c-0.3,3.5,2,6.9,0.5,10.4c-0.1,0.2,0.7,1,1.2,1.3c1,0.8,2.1,1.4,3.2,2.1
	c0.1,0.4,0.2,0.9,0.3,1.3c0.2-0.1,0.3-0.2,0.5-0.3c-0.3-0.3-0.5-0.6-0.8-1c0-4,0.2-8-0.1-12c-0.4-5.3,1.8-9.5,5.3-12.9
	c4.4-4.3,6.9-9.6,9.5-14.9c2.6-5.2,5.7-10.1,9.8-14.2c2.9-3,6-5.8,9.3-8.5c4.6-3.8,10.4-5,16-6.3c3-0.7,6-2.2,9.4-1.1
	c5,1.6,10.3,2.1,14.8,5.3c2.9,2,6.3,3.3,9.5,4.9c0.5,0.2,1.2,0.1,1.7-0.1c0.2-0.1,0.3-0.9,0.2-1.3c-0.2-1.2-1.6-2.5-0.2-3.5
	c1.6-1,2.6,0.5,3.6,1.5c2,1.8,2,1.7,4.1,0c5.3-4.4,11.3-7.2,18.3-7.7c0.6,0,1.2,0.1,2,0.2c-0.5,1.7-1.7,2.2-3.1,2.8
	c-5.2,2.5-10.3,5.1-15.3,8c-2.7,1.6-2.5,2.1-0.8,4.8c1.5,2.4,2.8,5.1,3.7,7.8c0.6,1.7,1.5,2.7,3.2,3c5.2,1.1,9.3,4.1,12.9,7.9
	c1.3,1.4,2.7,2.7,4.1,4.1c1.8,1.8,3.4,3.6,4,6.4c0.4,2.2,2.2,4.3,3.7,6c2.8,3.2,5.1,6.6,6.5,10.6c0.7,1.8,1.6,3.5,2.4,5.3
	c1.5,3.6,4.7,5.2,8,6.5c1.3,0.5,1.8-0.2,1.6-1.8c-0.2-2.6-0.4-5.1-0.3-7.7c0-0.6,0.9-1.2,1.4-1.8c0.5,0.5,1.2,1,1.4,1.6
	c1,3.4,1.9,6.8,2.8,10.2C260.3,75.5,260,76.7,258.1,76.7c-0.1-0.4-0.2-0.8-0.3-1.3c-0.2,0.1-0.3,0.2-0.5,0.3
	C257.6,76,257.8,76.4,258.1,76.7z M53.4,48.6c-0.3,0.3-0.6,0.6-1,1c-1.8,0.8-2.3,2.4-2.7,4.2c-0.1,0.5-0.3,0.9-0.4,1.4
	c-0.3-0.5-0.8-1-0.8-1.5c0.1-1.5,0.4-3,0.6-4.5c-0.2-0.1-0.4-0.2-0.6-0.3c-1.2,2.3-2.3,4.7-3.8,7.6c2.4-0.2,4.5,0.1,6.1-0.7
	c0.8-0.4,0.7-2.6,1-3.9c0.2-0.8,0.4-1.5,0.6-2.3C52.8,49.2,53.1,48.9,53.4,48.6c0.1-0.1,0.3-0.1,0.4-0.2c0.1-0.1,0.1-0.2,0.1-0.3
	C53.7,48.2,53.6,48.4,53.4,48.6z M286.2,96.1c-0.3,0.3-0.6,0.7-1,1c-0.1,0.1-0.3,0.1-0.4,0.2c-0.1,0.1-0.1,0.2-0.1,0.3
	c0.2-0.2,0.3-0.3,0.5-0.5C285.6,96.7,285.9,96.4,286.2,96.1c0.3-0.3,0.7-0.6,1-1c0.3,0,0.7,0,0.9-0.1c0.5-0.3,1-0.7,1.4-1
	c0,0-0.3-0.6-0.4-0.5c-0.5,0.3-1,0.6-1.5,0.9c-0.2,0.2-0.3,0.5-0.5,0.8C286.9,95.4,286.5,95.7,286.2,96.1z M286.2,88.3
	c-0.1-0.1-0.1-0.3-0.2-0.4c-0.1-0.1-0.2-0.1-0.3-0.1C285.9,88,286.1,88.2,286.2,88.3c0.3,0.6,0.6,1.3,1,1.9c0.1,0.1,0.1,0.3,0.2,0.4
	c0.1,0.1,0.2,0.1,0.3,0.1c-0.2-0.2-0.3-0.3-0.5-0.5C286.9,89.6,286.6,89,286.2,88.3z M83.5,38.8c0.1,0.1,0.1,0.3,0.2,0.4
	c0.1,0.1,0.2,0.1,0.3,0.1C83.8,39.2,83.7,39,83.5,38.8c-0.6-0.3-1.3-0.7-1.9-1c-1.4-2.5-3.4-3.5-6.6-2.4c2.4,0.9,4.5,1.7,6.5,2.4
	C82.2,38.2,82.9,38.5,83.5,38.8z M90.3,46.6c0.1,0.1,0.1,0.3,0.2,0.4c0.1,0.1,0.2,0.1,0.3,0.1C90.6,46.9,90.5,46.8,90.3,46.6
	c-0.1-0.4-0.2-0.8-0.3-1.3c-0.2,0.1-0.3,0.2-0.5,0.3C89.8,46,90,46.3,90.3,46.6z M229,100.9c0.3-0.3,0.5-0.6,0.8-1
	c-0.2-0.1-0.3-0.2-0.5-0.3C229.2,100.1,229.1,100.5,229,100.9c-0.1,0.1-0.3,0.1-0.4,0.2c-0.1,0.1-0.1,0.2-0.1,0.3
	C228.7,101.3,228.8,101.1,229,100.9z M273.6,100c0.3-0.3,0.5-0.6,0.8-1c-0.2-0.1-0.3-0.2-0.5-0.3C273.8,99.1,273.7,99.5,273.6,100
	c-0.3,0.7-0.6,1.3-1,1.9c-0.4,0.2-0.9,0.4-1.1,0.8c-0.3,0.4-0.3,1-0.4,1.5c0.4-0.3,1-0.6,1.2-1c0.2-0.3,0.2-0.9,0.3-1.3
	C273,101.2,273.3,100.6,273.6,100z M62.2,35.9c0.4-0.1,0.9-0.1,1.3-0.3c0.2-0.1,0.3-0.5,0.5-0.7c-0.3,0-0.8-0.2-1,0
	C62.6,35.1,62.4,35.6,62.2,35.9c-0.1,0-0.3,0.1-0.4,0.2c-0.1,0.1-0.1,0.2-0.1,0.3C61.8,36.2,62,36.1,62.2,35.9z M70.9,44.7
	c-1.1,0-2.2,0.1-4.1,0.2C68.8,45.8,70,46,70.9,44.7c0.4-0.1,0.8-0.2,1.3-0.3c-0.1-0.2-0.2-0.3-0.3-0.5
	C71.5,44.1,71.2,44.4,70.9,44.7z M206.7,7.8c1.6-0.1,2.8-0.7,4.3-2.6C208.7,5.8,207.3,6.2,206.7,7.8c-0.1,0.1-0.3,0.1-0.4,0.2
	c-0.1,0.1-0.1,0.2-0.1,0.3C206.4,8.1,206.5,8,206.7,7.8z M162.1,29.2c-2.4,1.4-4.8,2.9-7.2,4.4c-0.2,0.1-0.3,0.6-0.2,0.8
	c0.1,0.2,0.5,0.5,0.7,0.5c0.7-0.2,1.6-0.3,2.1-0.8C159.1,32.5,160.6,30.8,162.1,29.2c0.1-0.1,0.3-0.1,0.4-0.2
	c0.1-0.1,0.1-0.2,0.1-0.3C162.4,28.8,162.2,29,162.1,29.2z M83.5,50.5c-0.1-0.1-0.1-0.3-0.2-0.4C83.3,50,83.1,50,83,50
	C83.2,50.2,83.4,50.3,83.5,50.5c-0.1,2.7,2.7,3.2,3.9,5.2c-4.7,1-6.4-0.1-6.8-4.2c-0.2-2.1,0-4.2-0.1-6.3c-0.1-2.3-0.5-2.5-2.5-1.4
	c-5.7,3.3-11.4,6.6-17.1,9.8c-2.8,1.6-4.2,5.2-3.9,8.5c0.4,4.9,4.9,7.3,6.4,11.5c0.2,0.5,1,0.8,1.5,1.1c2.1,0.8,4.3,1.5,6.3,2.4
	c2,0.9,3.6,0.8,5.3-0.6c1.6-1.3,3.6-2.3,5.8-1.2c0.8,0.4,1.4,0.4,1.9-0.6c0.4-0.8,1-1.5,1.7-2.1c3.2-2.8,4.8-6.4,5.9-10.3
	c0.4-1.5,0-3-0.8-4.6C89.4,54.3,86.2,52.7,83.5,50.5z M118.5,64.4c0.2,0,0.5,0.1,0.7,0.1c4.2-5.4,8.2-11,12.7-16.3
	c3.3-3.9,6.5-8.2,11.4-10.2c5.2-2.1,9.5-5.5,13.8-8.8c3.7-2.7,7.5-5,11.6-6.8c3.2-1.4,6.7-2.6,10.1-2.8c4.1-0.2,8.3,0.6,12.4,1.3
	c1.4,0.2,2.1-0.1,2.7-1.2c0.4-0.7,0.7-1.5,1.1-2.2c0.9-1.4,0.5-2.3-0.9-3c-5.3-2.7-10.4-5.7-15.8-8.2c-2.6-1.2-5.4-2.1-8.3-2.3
	c-7.3-0.6-14.3,1.3-21,4c-7.5,3-12.4,9.2-16.9,15.4c-3.6,5-6.3,10.8-9.2,16.3c-1,1.8-2.1,3.7-2.4,5.7
	C119.6,51.7,119.2,58,118.5,64.4z M95.4,99c3.4,0,5.5-1.5,7.5-4.8c3.1-5.3,6-10.5,6.3-16.9c0.1-1.7-0.3-3.1-0.7-4.6
	c-0.1-0.6-1-1.1-1.7-1.4c-0.2-0.1-0.9,0.7-1.2,1.3c-0.7,1.2-1,2.8-2,3.7c-2.6,2.4-5.7,4.3-8.1,6.8c-1.8,1.9-3,4.5-4.4,6.8
	c-0.9,1.4,0.8,1.5,1,2.3c0.1,0.6-0.1,1.2-0.4,1.8c-1.5,2.8-1.4,3.4,1.3,4.5C94,98.7,95.1,98.9,95.4,99z M86,77.6
	c-0.9,0.4-1.5,0.6-2,0.8c-6.9,2.4-13.8,2-19.9-1.9c-2.9-1.8-4.7-1-6.9,0.3c-1,0.5-1.9,1.2-2.8,1.9c-2.3,1.6-2.4,2.1-0.4,4
	c0.9,0.8,2.1,1.4,3.2,1.9c2.5,1,5.1,1.9,7.7,2.7c5.8,1.9,11.8,1,17.7,0.9c0.7,0,1.4-0.7,2.2-1c-0.5-0.7-0.9-1.3-1.4-1.9
	C83,84.6,82.6,84,82,83.5c-1.4-1.1-1.5-2-0.1-2.6C83.5,80.2,85.3,80.1,86,77.6z M250.4,89.4c0.3,0.3,0.6,0.6,0.9,1
	c1.6-0.6,3.2-1.4,4.8-1.9c0.6-0.2,1.7,0.2,2.1,0.6c0.3,0.4,0.2,1.6-0.2,2.1c-0.8,0.9-1.8,1.8-2.8,2.4c-2,1.3-4.2,2.3-6.2,3.7
	c-2,1.4-2,3.2,0,4.6c0.9,0.6,2.1,0.8,3.1,0.9c4.3,0.3,8.6-0.1,12.7-1.8c1.6-0.7,2-1.4,1.8-2.7c-0.2-1.3-0.4-2.6-0.9-3.7
	c-1.6-3.5-3.2-7-5-10.3c-1.7-3.1-2.7-3.2-5.4-0.5C253.7,85.5,252.1,87.5,250.4,89.4z M41.6,78.4c-0.3,4.1,1.3,7.6,3.6,10.7
	c1.4,1.9,3.3,3.6,4.4,5.7c2.3,4.2,6,4.3,9.9,4.1c2.3-0.1,3-1.5,2.1-3.7C60.8,93.1,60.1,91,59,89c-0.6-1-1.7-2-2.7-2.5
	c-4.5-2.1-7.8-5.5-11.1-9c-1-1.1-0.6-3.6-2.8-3.1C41.9,74.5,41.9,77,41.6,78.4z M96.9,65.1c-2.4-0.7-3.7,0.5-4.6,2.8
	c-0.6,1.5-1.7,2.7-2.4,4.1c-0.4,0.8-1.1,1.9-0.9,2.6c0.7,2.4,0.4,4.3-1,6.3c-0.4,0.6,0.5,2.3,1.2,3.2c0.2,0.3,1.8-0.2,2.5-0.7
	c1.3-0.9,2.6-1.9,3.7-3c2.5-2.8,5.7-5,7.5-8.5c2-3.7,0.9-6.1-3.4-6.8C98.7,65,97.8,65.1,96.9,65.1z M46.9,67.1
	c-3.1,0-3.8,0.8-2.6,3.8c1,2.5,2.6,4.7,4,7c1,1.6,2.1,1.4,3.5,0.2c2-1.6,4.3-2.8,6.4-4.3c2.5-1.7,2.5-2.9-0.3-3.9
	c-3.1-1.2-6.4-1.9-9.6-2.8C47.9,66.9,47.4,67.1,46.9,67.1z M71.7,90.3C71.7,90.3,71.7,90.3,71.7,90.3c-1.3,0-2.6,0-3.8,0
	c-1.6,0-2,1.2-1.6,2.3c0.3,0.9,1,2,1.9,2.5c4.6,2.3,9.4,2.8,14.4,1.1c1.9-0.6,2.7-2.8,1.9-5.5c-0.6-1.9-1.9-0.2-2.8-0.3
	C78.3,90.2,75,90.3,71.7,90.3z M117.7,47.6c-6,5.5-7.1,18.2-2.2,26C116.8,64.8,117.2,56.4,117.7,47.6z M55.9,65.8
	c-0.2-0.8-0.4-1.4-0.4-1.9c0-1.9-0.6-3.9-2.4-4.2c-2.4-0.5-4.8-2.3-7.3-0.8c-0.9,0.5-1.8,1.4-2.3,2.3c-1.3,2.5-0.5,3.7,2.4,3.9
	c1.9,0.2,3.7,0.6,5.6,0.8C52.8,65.9,54.2,65.8,55.9,65.8z M82.4,112.8c4.2-0.8,8.3-1.4,12.3-2.3c0.7-0.1,1.2-0.8,1.9-1.3
	c-0.6-0.7-1.1-1.6-1.9-2c-0.6-0.4-1.5-0.3-2.3-0.4c-3.8-0.3-7.3,0.8-10.7,2c-1.1,0.4-1.8,1.9-2.7,2.9
	C80.1,112.1,81.3,112.5,82.4,112.8z M66,107.7c-1.4,0.3-2.3,0.6-3.2,0.7c-2,0.1-4.7,0.8-6-0.2c-3.3-2.4-5.7-0.4-8.4,0.7
	c-0.7,0.3-1.5,1.6-1.3,2.1c0.3,0.7,1.4,1.4,2.2,1.5c2.9,0.2,5.8,0.4,8.6-0.1C60.8,111.8,63.9,111.2,66,107.7z M101.5,48
	c-0.4,1.3-0.8,2.5-1.2,3.6c-0.4,1.2-0.8,2.3-1.2,3.5c-0.4,1.3-0.8,2.7-1.3,4c-0.8,2-0.8,2.5,1.1,3.4c1,0.5,2.1,0.9,3.2,1.1
	c0.5,0.1,1.6-0.5,1.6-0.8C103.9,57.8,104.6,52.7,101.5,48z M269.6,77.4c-2.1,2.2-4.2,3.5-5,5.8c-0.3,0.8-0.6,2-0.3,2.7
	c0.7,1.7,1.7,3.4,2.8,5c0.3,0.4,1.1,0.8,1.5,0.7c0.5-0.2,1-0.9,1-1.4C269.7,86.2,269.6,82.2,269.6,77.4z M91.3,105.1
	c1.5-0.4,2.9-0.7,4.2-1.2c0.5-0.2,1.2-1.2,1.1-1.4c-0.4-0.6-1.1-1.4-1.7-1.4c-2.3,0.1-3.9-1.1-5.7-2.1c-1.5-0.9-3.8,0-4.4,1.6
	c-0.6,1.8,0.4,2.8,1.9,3.3C88.2,104.4,89.7,104.7,91.3,105.1z M59.6,105.8c1.3-0.1,1.8,0.1,2.2-0.2c1-0.6,3.2,0,2.5-2.4
	c-0.6-2.2-0.6-2.3-3.3-1.7c-1.1,0.2-2.2,0.2-3.3,0.4c-0.7,0.1-1.3,0.5-2,0.8c0.4,0.7,0.6,1.6,1.1,1.9
	C57.8,105.3,59.1,105.6,59.6,105.8z M248.7,81.3c1.3-0.6,2.2-1,3.1-1.4c0.9-0.5,2.6-0.3,2.3-1.8c-0.2-0.9-1.2-1.8-2-2.3
	c-1.2-0.7-3.1-1.9-3.8-1.4c-1.6,1-0.4,2.8,0,4.3C248.5,79.3,248.5,80.1,248.7,81.3z M95,59.1c0.7-1.1,1.6-2.1,1.9-3.2
	c0.5-2-0.8-4.1-2.6-4.3c-0.4-0.1-1,0.4-1.4,0.7C94.9,54,92.9,56.9,95,59.1z M206.7,25.4c-1.3-2.5-2-4-2.8-5.6
	c-0.1-0.3-0.4-0.5-0.6-0.7c-0.1,0.2-0.4,0.5-0.4,0.7c-0.1,0.6,0,1.4-0.3,1.9c-1.1,1.9-0.1,2.5,1.6,2.8
	C204.8,24.6,205.3,24.9,206.7,25.4z M111.9,74.2c-0.4,3.2-0.7,6-1.1,9C113.3,80.3,114.2,77.5,111.9,74.2z M254.5,81.3
	c-2.8,0.9-4.5,1.6-5.5,3.2c-0.3,0.5,0.1,1.4,0.2,2.1c0.4-0.2,1-0.4,1.3-0.7C251.7,84.7,252.7,83.4,254.5,81.3z M272.9,95.9
	c-1-0.3-1.7-0.8-2.3-0.7c-0.6,0.1-1.7,1-1.6,1.2c0.4,1,1,2,1.6,3C271.2,98.4,271.9,97.4,272.9,95.9z M88,40.3
	c2.2,0.7,2.8,3.8,5.6,3.8C91.9,42.6,91.2,39.9,88,40.3z M200.2,17.7c-1.4,1.9-1.7,3.5-0.6,5.2c0.1,0.1,0.3,0.1,0.4,0.1
	c1.6-1.2,0.6-2.9,0.7-4.4C200.7,18.4,200.5,18.3,200.2,17.7z M88.9,87.7c-0.5,0.3-0.7,0.3-0.7,0.4c-0.5,1.4-0.9,2.9-1.4,4.3
	c0,0,0.3,0.1,0.3,0.1c0.7-1.2,1.3-2.5,1.9-3.7C89.1,88.7,89,88.3,88.9,87.7z M84.3,105.2c-0.7-0.6-1.4-1.1-1.4-1.1
	c-0.7,0.6-1.2,1.3-1.8,1.9c0.2,0.1,0.5,0.5,0.7,0.4C82.5,106.1,83.3,105.7,84.3,105.2z M63.5,93.1c1-1.8,0.3-2.7-0.8-3.5
	c-0.1-0.1-0.4-0.1-0.4-0.1c-0.2,0.2-0.5,0.5-0.5,0.6C62.2,91,62.8,91.9,63.5,93.1z M74.1,28.9c0-0.2,0-0.4,0-0.7c-0.9,0-1.8,0-2.6,0
	c-0.3,0-0.6,0.2-0.8,0.3c0.3,0.2,0.6,0.5,1,0.5C72.5,29.1,73.3,28.9,74.1,28.9z M51.3,46.3c0.4-0.6,0.6-1.1,0.9-1.7
	c-0.2-0.1-0.6-0.4-0.6-0.3c-0.3,0.3-0.6,0.7-0.8,1.1C50.8,45.6,51.1,45.9,51.3,46.3z M69.9,32.1c0.5-0.2,0.9-0.3,1.3-0.4
	c-0.5-0.2-1-0.5-1.5-0.5c-0.3,0-0.7,0.3-1.1,0.5C69,31.8,69.5,31.9,69.9,32.1z M97.2,48.4c0.1-0.3,0.3-0.6,0.2-0.7
	c-0.1-0.2-0.5-0.4-0.7-0.5c-0.1,0.3-0.3,0.6-0.2,0.8C96.6,48.1,97,48.2,97.2,48.4z M87.3,46c-0.1-0.3-0.2-0.5-0.4-0.8
	c-0.1,0.2-0.4,0.5-0.4,0.7c0,0.3,0.3,0.6,0.5,0.9C87.1,46.6,87.2,46.3,87.3,46z M196.9,20.8c-0.1-0.3-0.2-0.5-0.3-0.8
	c-0.1,0.2-0.4,0.5-0.4,0.7c0,0.3,0.3,0.6,0.5,0.9C196.7,21.4,196.8,21.1,196.9,20.8z M73.4,37.8c0.3-0.1,0.5-0.2,0.8-0.3
	C74,37.3,73.7,37,73.5,37c-0.3,0-0.6,0.3-1,0.4C72.8,37.6,73.1,37.7,73.4,37.8z M198.3,10.4c0,0.1-0.1,0.3-0.1,0.4
	c0.2,0,0.4,0,0.6,0.1c0-0.1,0-0.3-0.1-0.4C198.6,10.4,198.4,10.4,198.3,10.4z M54.8,56.7c0.1-0.1,0.3-0.1,0.3-0.2c0-0.1,0-0.3,0-0.5
	c-0.2,0.1-0.4,0.2-0.5,0.3C54.7,56.5,54.8,56.6,54.8,56.7z"/>
<path d="M0.1,109.6c-0.2-2-0.1-3.9,1.6-5c4.4-3,5.6-7.6,6.1-12.4c0.7-7.4,4.4-13.3,8.9-18.8c2.3-2.8,5.4-4.5,9.3-4.5
	c3.3,0,4.4,0.6,5.3,3.8c0.9,3.2,1.4,6.6,1.9,9.9c0.5,3,0.7,6,1,9.1c0.1,1.1,0.4,2.2,0.8,3.2c1.7,3.6,3.6,7.2,5.2,10.9
	c0.9,2,1.2,4.3,1.6,6.5c0.1,0.4-0.6,1.2-1.1,1.3c-3.6,1.3-7.2,2.6-10.9,3.6c-1.1,0.3-2.5-0.1-3.7-0.3c-3.5-0.4-6.8-0.9-10.2,1.4
	c-2,1.4-4.8,1.7-7.3,2.2c-1.8,0.4-3-0.5-3.7-2.4c-0.4-1.3-1.2-2.9-2.2-3.4C0.3,113.3-0.3,111.7,0.1,109.6z M27,114.5
	C27,114.5,27,114.5,27,114.5c1.1-0.1,2.3,0,3.4-0.1c2.4-0.3,2.9-1.3,1.6-3.5c-1.9-3.3-3.8-6.7-5.7-10c-1.8-3-3.6-6.1-5.6-8.9
	c-0.9-1.3-1.1-2.2-0.2-3.4c1.3-2,2.4-4.2,4-6c2.9-3.1,2.2-6.5,0.8-9.8c-0.9-2.2-2.4-2.5-4.2-0.9c-3.6,3.2-6.7,7-8.7,11.5
	c-1.6,3.6-1.3,7.9-3.5,11.3c1.3,5-2.9,9.5-1.2,14.6c0.2,0.7-0.6,1.8-0.9,2.7c-0.3,0.9-0.8,1.9-0.7,2.7c0.3,3.6,2.1,4.5,4.7,3.2
	c1.4-0.7,2.8-1.6,4.2-2.3c2.6-1.2,5.1-2.6,8.1-1.3C24.3,114.7,25.7,114.5,27,114.5z M27.2,71c0.4,3.6,1,7,0.9,10.4
	c-0.1,4-1,7.9-1.4,11.9c-0.1,1.1-0.5,2.4,0,3.2c2.4,4.3,4.9,8.6,7.6,12.7c0.7,1,1.7,2.8,3.4,1.7c1.7-1,1.2-2.8,0.6-4.3
	c-0.1-0.1-0.2-0.3-0.2-0.4c-1.6-3.2-3.2-6.3-4.6-9.5c-0.7-1.4-1.1-3-1.3-4.6c-0.8-5.4-1.2-10.8-2.2-16.1
	C29.6,74.3,29.7,71.8,27.2,71z M26.3,85.2c-0.3-0.1-0.7-0.2-1-0.3c-0.7,1.2-1.3,2.5-2,3.7c-1.4,2.2,0,3.1,1.7,4.3
	C25.4,90.1,25.8,87.7,26.3,85.2z M4.7,105.1c-2.8,1.3-2.9,3.3-2.5,5.4c0.1,0.3,0.7,0.8,1,0.8c0.5-0.1,1.4-0.4,1.5-0.7
	C4.8,108.9,4.7,107.2,4.7,105.1z"/>
<path d="M150.4,96.1c-4.6,0.7-6.8,4.7-9.8,7.5c-1.2,1.1-1.9,2.6-3,3.8c-1.3,1.3,0,2.4,0,3.6c0,0.4-0.3,0.8-0.5,1.3
	c-0.4-0.3-1.1-0.5-1.3-0.9c-0.5-1.4-0.7-2.8-1.1-4.2c-0.4-1.5-0.8-3.1-1.9-4.5c0.2,1.5,0.4,3,0.7,4.4c0.2,1.4,0.6,2.8,0.8,4.2
	c0,0.2-0.3,0.7-0.5,0.7c-0.4,0-1.1-0.1-1.2-0.3c-0.4-1-0.7-2.1-1.1-3.4c-0.2,0.4-0.3,0.8-0.6,1c-0.6,0.6-1.4,1.7-1.8,1.6
	c-1.1-0.3-1-1.3-0.6-2.4c1.2-3.2,2.3-6.5,2.7-10.1c-1,1.7-2.5,3.4-3,5.2c-0.9,3.6-3,5.5-6.5,6.2c-1.1,0.2-2.1,0.7-3.2,1
	c-0.3,0.1-0.7-0.2-1-0.4c-0.1-0.1,0.1-0.7,0.3-0.8c0.7-0.4,1.4-0.8,2.1-1.1c1.2-0.5,2.4-0.9,3.6-1.4c0.2-0.1,0-0.9,0.2-1.3
	c1.9-3,4.7-5.6,4.2-9.6c-0.2-1.4-0.5-2.9-0.5-4.3c0-0.8,0.3-1.8,0.8-2.5c0.6-1,1.4-0.8,2.4-0.1c1.3,0.9,0.9,3.6,3.1,3.1
	c1.3-0.3,2.4-1.5,3.7-2.2c1.9-1.1,2.5-0.8,3.1,1.2c0.4,1.2,0.9,2.3,1.3,3.5c0.2,0.4,0.4,0.9,0.3,1.3c-0.1,0.7-2.1,1-0.5,2
	c0.3,0.2,1.3-0.6,1.9-1.1c2.7-2.1,5.5-4,8.8-4.8c0.6-0.1,1.3-0.3,1.9-0.2c1,0.1,1.6,1.4,0.9,2.1c-1.7,1.7-3.3,3.7-5.2,5
	c-2.4,1.6-2.9,3.8-2.6,6.3c0.1,0.9,0.7,1.8,0.7,2.8c0,1.2-0.2,3.5-0.4,3.5c-2.1,0.1-1-1.8-1.4-2.8c-0.4-1-0.8-2-1.9-2.8
	c0.2,1.5,0.5,3,0.7,4.6c0.1,0.4,0,1.1-0.3,1.2c-0.3,0.2-0.9,0-1.3-0.2c-3.8-1.9-3.9-2.3-1.8-5.7C144.3,102.5,147.1,99.1,150.4,96.1
	c0.1-0.1,0.3-0.1,0.4-0.2c0.1-0.1,0.1-0.2,0.1-0.3C150.8,95.8,150.6,95.9,150.4,96.1z M130.1,93.2c-0.1-0.4-0.2-0.8-0.3-1.3
	c-0.2,0.1-0.3,0.2-0.5,0.3C129.6,92.5,129.8,92.9,130.1,93.2c0,0.4,0,0.9,0.1,1.3c0.1,0.3,0.4,0.6,0.6,0.9c0.1-0.3,0.4-0.6,0.3-0.8
	C130.7,94.1,130.4,93.6,130.1,93.2z M136.5,104.4c3.9-3.2,4-3.4,1.7-8.8C134.9,98.5,134.9,98.5,136.5,104.4z"/>
<path d="M171.7,105.5c2.7,0.3,5.4,0.6,8.1,0.8c0.7,0,1.6-0.2,2.1-0.6c1.2-1,2.5-2.1,3.4-3.4c3.8-5,13.1-4.9,16.7,2
	c1.4,2.8,3.9,3,6.4,3.5c0.4,0.1,0.6,0.6,1,0.9c-0.5,0.3-0.9,0.9-1.4,0.9c-1.2,0-2.4-0.2-3.6-0.3c0.2,1.2,0.4,2.4,0.7,3.6
	c0.9,3.6-0.5,5.7-4.2,5.5c-4.3-0.2-8.7-0.3-12.9-1.3c-3.8-1-7.8-2.3-8.8-7.1c-0.3-1.6-1.5-2.2-3.3-2.2c-3.4,0.1-6.8,0-10.2-0.1
	c-0.5,0-0.9-0.7-1.3-1c0.5-0.3,1-0.8,1.5-0.9c1.9-0.1,3.9,0,5.8,0C171.7,105.7,171.7,105.6,171.7,105.5z M198.1,116.7
	c0-0.1,0-0.2,0.1-0.3c0.5,0,1,0,1.5,0c2.9-0.1,3.7-0.8,3-3.4c-0.6-2.6-1.5-5.2-2.6-7.7c-1.1-2.6-7.4-5.3-9.5-3.9
	c-3.3,2.2-6.7,4.5-8.5,8.3c-0.3,0.6-0.1,1.7,0.3,2.1c1.2,1,2.6,2.1,4,2.5C190.3,115.3,194.2,115.9,198.1,116.7z"/>
<path d="M172.6,118c-1.4,0-2.8,0.2-4.1,0c-1.5-0.2-2.8-2.3-2.4-3.7c0.6-1.8,4.4-4.7,6.2-4.7c1.9,0,5.7,2.8,6.1,4.7
	c0.2,0.8-0.3,2.1-0.9,2.5c-1.5,0.8-3.2,1.2-4.9,1.8C172.6,118.4,172.6,118.2,172.6,118z M167.4,114.8c5.8,1.9,6.1,2,7.9,0.8
	c0.3-0.2,0.7-1.1,0.5-1.4c-1-2.4-3.4-3-5.4-1.5C169.6,113.2,168.8,113.7,167.4,114.8z"/>
<path d="M24.9,120.3c1.4-0.2,2.2,0.6,2.8,1.9c0.7,1.3,0.5,2.4-0.5,3.5c-1.8,2-4.2,2.6-6.8,1.6c-2.1-0.8-2.6-2.2-1.4-4
	C20.1,121.6,22.7,120.3,24.9,120.3z M24.2,124.5c-0.3-0.5-0.5-1-0.5-1c-0.5,0.2-1.1,0.4-1.6,0.6c0.2,0.3,0.4,0.8,0.5,0.8
	C23.1,125,23.6,124.7,24.2,124.5z"/>
<path d="M157,108.2c-1.5,1.7-3.1,2.4-5.1,2.3c-0.4,0-0.9-0.4-1.1-0.7c-0.1-0.2,0.3-1,0.6-1C153.1,108.5,154.8,107,157,108.2z"/>
<path d="M72.3,70.9c-3.7-0.4-7-2-10.2-3.7c-0.4-0.2-0.4-1.1-0.5-1.6c0.6-0.1,1.3-0.6,1.7-0.4c2,0.7,3.9,1.5,5.8,2.3
	c3.2,1.4,6.1,1.4,8.8-1.2c0.2-0.2,0.5-0.6,0.7-0.6c0.9-0.1,1.7-0.2,2.6-0.2c-0.3,0.8-0.4,1.9-1,2.3C77.8,69.5,75.4,71.1,72.3,70.9z"
	/>
<path d="M71,66.5c-2.3-0.8-4.2-1.1-5.8-2c-2.2-1.1-2.6-2.9-1-5.1c0.7-1,0.5-1.6,0.3-2.5c-0.1-0.9,0.3-2.1,0.8-2.9
	c0.5-0.8,2.5,0.1,2.2,0.7c-0.8,1.6-0.4,2.7,0.5,4c0.1,0.2,0,0.6-0.1,0.9c-0.7,3.1-0.6,3.2,2,3.5c0.3,0,0.6,0,1,0
	c1,0.1,2.7-0.4,2.6,1.2C73.4,65,71.8,65.7,71,66.5z"/>
<path d="M75.1,58.7c-0.6-1.7-1.1-2.6-1.2-3.6c-0.1-1.1,0.5-2,1.6-1.5c0.6,0.2,1.1,1.4,1.1,2.1C76.6,56.5,75.9,57.2,75.1,58.7z"/>
</svg>
