<?xml version="1.0" encoding="utf-8"?>
<!-- Generator: Adobe Illustrator 18.0.0, SVG Export Plug-In . SVG Version: 6.00 Build 0)  -->
<!DOCTYPE svg PUBLIC "-//W3C//DTD SVG 1.1//EN" "http://www.w3.org/Graphics/SVG/1.1/DTD/svg11.dtd">
<svg version="1.1" id="Layer_1" xmlns="http://www.w3.org/2000/svg" xmlns:xlink="http://www.w3.org/1999/xlink" x="0px" y="0px"
	 viewBox="0 0 140.8 331.6" enable-background="new 0 0 140.8 331.6" xml:space="preserve">
<path d="M137.6,142.2c0.8,0.5,1.2-2.9,2.1-0.3c0.6,1.6,0.8,3.4,0.9,5.2c0.4,6.3,0.1,12.5-2.1,18.6c-0.5,1.5-0.7,3.1-0.7,4.7
	c-0.1,7.1-0.2,14.2-0.1,21.3c0,2.6,0.5,5.1,0.8,7.6c0.4,4.2-0.4,8.4-2,12.2c-4,9.7-8.3,19.2-12.5,28.8c-0.5,1.1-0.7,3.3-2.8,1.5
	c-0.1-0.1-0.8,0.4-0.8,0.7c0.1,1.6,0.1,3.3,0.6,4.8c1.6,4.9,2.4,10,3.6,15c1.3,5.5,2.1,11.4,5.9,16.1c0.9,1.1,1,2.7,1.5,4.1
	c0.5,1.5,0.6,3.2,1.3,4.6c1.9,3.4,2.3,7.2,2.9,10.9c0.7,4.4-0.8,6.5-5.1,7.5c-1.4,0.3-2.9,0.4-4.2,0.9c-2.9,1.1-5.3,0.6-7.4-1.6
	c-0.9-1-1.9-1-3.1-0.6c-0.6,0.2-1.3,0.2-1.9,0.2c-1.1,0-2.5,0.2-2.7-1.3c-0.2-1.7,1.2-1.5,2.3-1.7c3-0.6,6-1.1,8.2,2.1
	c0.4,0.6,1.8,0.8,2.6,0.7c2.4-0.2,4.8-0.6,7.1-1.1c1.5-0.3,2-1.6,1.8-3c-0.1-0.5-0.9-1.3-1-1.2c-3.6,1.5-6.3-0.8-8.9-2.3
	c-3.9-2.3-7.4-2.8-11.2,0c-1.3,0.9-2.9,1.4-4.4,2c-2.6,1.1-2.9,1.4-2.1,3.8c2.4,7.1,2.7,14.5,2.5,21.9c-0.1,4.4-1.9,6.1-6.2,6.3
	c-5.5,0.2-10.9-0.5-16.2-1.6c-2.8-0.6-5.3-0.6-8,0.6c-1.7,0.8-3.7,1.1-5.6,1.4c-6.9,0.9-13.8,1-20.6-0.5c-1.5-0.3-3.1-1-4.4-1.9
	c-1.4-1-2.4-2.4-3.5-3.7c1.6-1,3-2.6,4.7-3c4.5-1,9.2-1.4,13.7-2.3c5.2-0.9,10.3-2,15.5-3.2c0.9-0.2,1.6-1,2.3-1.6
	c0.5-0.4,0.8-1.3,1.3-1.3c3.1-0.5,5.5-1.7,5.9-5.2c0-0.3,0.8-0.8,1.1-0.7c1.8,0.3,1.4-0.9,1.3-1.7c-0.6-4.3-1.4-8.5-2.1-12.8
	c-0.1-0.3-0.4-0.6-0.3-0.9c1.4-4.8-0.7-9.6-0.4-14.3c0.4-6.5-1.5-12.7-3-19c-0.3-1.2-0.9-2.5-0.8-3.7c0.2-3.1-1.6-4.7-4-6.1
	c-4.6-2.7-5.7-5.2-4.9-10.6c0.1-0.8,0.2-1.7,0-2.4c-1.5-5.6-0.5-11.2-0.7-16.9c0-1,0-2,0.3-2.8c0.4-1,1.2-1.8,1.8-2.7
	c0.3,1,0.7,1.9,0.7,2.9c0.1,4.7,0.2,9.4,0,14.1c-0.2,4,1.6,7.9,0.3,11.9c-0.2,0.8,0.9,2.4,1.9,3.1c2.9,2,6,3.8,9,5.6
	c0.7,0.4,1.5,0.7,2.3,0.6c3.5-0.4,7-0.9,10.5-1.3c4.6-0.6,7-3.6,8.2-7.6c1.2-4,3.5-7.2,6.6-9.9c1-0.8,2.1-1.5,3.2-2
	c0.6-0.3,1.5,0.1,2.2,0.1c-0.3,0.6-0.6,1.2-1,1.7c-0.4,0.5-1,0.8-1.5,1.3c-1,1-2.6,2.1-1.5,3.6c1,1.3,2.6,0.3,4,0
	c1.6-0.4,2.5-1.3,3-2.8c1-2.7,2-5.4,3-8.1c0.4-1,0.9-2.1,1.5-3c3.1-4.6,4.6-9.9,6.4-15c1.8-4.8,1-9.9,0.6-14.8
	c-0.1-1.1-0.5-2.2-0.5-3.3c0.4-7.7,0.8-15.4,1.3-24c-2.2,3.4-2.1,3.4-1.7,7.1c0.1,0.6-0.5,1.3-0.8,2c-0.6-0.4-1.8-0.6-1.9-1.1
	c-0.3-1.7-0.6-3.5-0.3-5.1c0.8-3.9,1.9-7.8,2.8-11.7c0.3-1.2,0.4-2.6,0.4-3.8c0-9.4,0.2-18.7,0-28.1c-0.1-5.3-0.5-10.6-2.3-15.7
	c-0.6-1.6-0.6-3.5-1.1-5.2c-1.1-3.4-2.4-6.6-3.6-10c-1.2-3.5-2.6-6.9-3.5-10.4c-1-3.9-3.7-6.7-6-9.8c-2.2-3-4.5-5.8-6.9-8.7
	c-3.7-4.4-8.3-7.6-13.1-10.6c-1.5-0.9-2-0.1-2.1,1.4l0,0C92.1,54,87.6,53,83,52c-3.1-0.7-6.2-1.6-9.3-2.3c-5.7-1.4-11.6,3-11.7,8.8
	c-0.1,2.4,0,4.8,1.2,7c0.7,1.3,0.8,3,1.2,4.7c0.5-0.5,0.8-0.8,1.1-1.2c0.6-1,0-2.7,2-2.8c0,1.1,0.2,2.2-0.1,3.2
	c-2.5,6.8-2.7,13.7-1.6,20.9c1,6.3,1.3,12.8,3.1,19c1.1,3.7,2.5,7.2,4,10.8c3.3,7.8,7.3,15.3,8.9,23.9c1.1,5.9,3.8,11.5,5.8,17.3
	c0.8,2.2,0.9,2.3-1.5,1.9c-1.1-0.2-1.5,0.1-1.6,1c-0.4,3.2-0.9,6.4-0.9,9.5c0,1,1,2.6,1.9,3c3.1,1.4,6.1,2.7,8.8,4.9
	c1.9,1.5,3.3,0.4,3.6-2.3c0.4-4,1-8,1.5-11.9c0.1-0.8,0.3-1.7,0.1-2.3c-1.4-3.6,0.1-7,0.5-10.5c0.2-1.9,0.4-3.8,0.2-5.6
	c-0.4-5-0.9-9.9-1.5-14.8c-0.5-4.3-1.1-8.6-1.9-12.8c-1.1-5.8-2.6-11.6-3.6-17.4c-0.4-2.7-1.6-4.9-2.8-7.1c-1.7-3.1-3.7-6.1-5-9.3
	c-1.1-2.6-1.9-5.5-2-8.3c-0.2-6.3-2-12-4.8-17.5c-0.1-0.3-0.5-0.5-0.5-0.8c0-0.4,0.1-1,0.4-1.2c0.3-0.2,1-0.1,1.2,0.2
	c0.7,0.7,1.4,1.4,1.8,2.3c2.4,5.8,5.1,11.5,4.8,18c-0.2,4.4,1.7,8.3,4,11.7c4.7,6.9,6.8,14.4,7.8,22.5c0.6,4.4,1.9,8.8,2.8,13.2
	c0.4,2,0.7,4.1,0.8,6.2c0.4,5,1.1,9.9,1.1,14.9c0,6.2-0.3,12.4-0.7,18.5c-0.3,5.5-0.8,10.9-1.2,16.4c0,0.3,0.1,0.8-0.1,1
	c-0.9,1.1-2.3,2-2.9,3.3c-0.7,1.4-0.2,3.8-1.1,4.4c-2.3,1.6-1.9,3.6-1.7,5.6c0.3,3.8,1.1,7.5,2.9,11c0.3,0.6,0.7,1.2,0.7,1.8
	c-0.3,6.3,4.1,9.4,8.3,12.6c0.5,0.4,1,0.8,1.5,1.2c1.1,1,1.3,2.2,0.4,3.4c-0.9,1.3-2,2.3-3.6,1.3c-1.1-0.7-2.1-1.5-3.1-2.3
	c-1.7-1.2-3.4-2.5-6.1-1.5c2.4,2.4,4.6,4.7,6.8,7c0.7,0.8,1.5,1.7,1.8,2.8c0.6,2.1-0.8,3.4-2.9,2.8c-1.7-0.5-3.3-1.2-4.9-1.9
	c-1.6-0.7-2.5-0.2-3,1.2c-0.3,0.9-0.5,1.8-0.7,2.8c-0.1,0.6,0,1.3-0.1,1.9c-0.4,2-2.1,3.6-3.6,3.3c-1.8-0.3-2.2-1.7-2.2-3.3
	c0-1.8-0.4-2.8-2.6-2.1c-0.8,0.2-1.9-0.3-2.7-0.8c-0.5-0.3-1-1.3-0.9-1.8c0.4-1.8,1-3.6,1.5-5.5c0.3-1.1,0.6-2.2,0.5-3.2
	c-0.1-2.2-0.4-4.5-0.8-6.7c-0.4-2.5-1.7-5.1-1.3-7.4c0.5-2.7-0.5-4.8-1.1-7c-0.7-2.4-0.8-4.3,1-6.2c1-1.1,1.7-2.4,0.2-3.8
	c-0.3-0.3-0.2-1.2-0.1-1.8c0.5-5.4,0.9-10.7,1.5-16.1c0.1-1.3-0.4-2.1-1.5-2.7c-1.2-0.7-1.4-1.7-0.8-2.9c1.7-3.8,1.4-7.9,1.4-11.9
	c0-5.3,0.8-10.7-1.7-15.7c0-7.1-3.9-12.8-6.3-19.1c-0.7-2-0.4-4.7-3.4-6c0,1.6-0.1,2.9,0,4.2c0.2,3.2,0.7,6.4,0.8,9.6
	c0.2,5.6,0.7,11.1,2.7,16.5c1.3,3.6,1.7,7.5,2,11.3c0.5,6.7,0.9,13.5,0.9,20.2c0,4.3-0.5,8.6-1.2,12.9c-0.5,3.1-1,6,0.1,9
	c0.3,0.7,0.2,1.6,0,2.4c-0.1,0.5-0.8,0.9-1.3,1.3c-0.4-0.4-1.2-0.9-1.2-1.3c-0.2-2.9-0.3-5.8-0.3-8.7c0-2.5,1.3-4.9,0.3-7.6
	c-0.4-1,0.6-2.6,1-3.9c1.2-4.4-0.1-8.8-0.2-13.2c0-2.9-0.2-5.8-0.2-8.7c0.1-5.4-0.9-10.6-3-15.5c-1.4-3.3-1.9-6.8-1.8-10.4
	c0.1-1.6-0.3-2.7-2.2-3.2c-2.2-0.6-4.2-1.6-6.2-2.6c-2.5-1.1-2.6-1.6-1.1-3.9c3-4.7,4.8-9.8,4.5-15.5c-0.1-1,0.1-2-0.3-2.8
	c-2.4-4.9-1.7-10-0.9-15.1c0.2-1,0-2.5-0.6-3.1c-2.3-2.2-4.9-4.2-7.4-6.1c-0.9-0.7-2-1.1-3-1.6c-3.9-1.7-6.1-4.9-6.7-8.9
	c-0.5-3.5-2-5.7-5.3-6.6c-1.6-0.5-2.7-3.1-4.5-1.9c-1.1,0.7-1.5,2.7-2.1,4.2c-0.9,1.9-1.6,4.4-3.8,4.6c-2.2,0.1-3.5-2.2-4.3-4.1
	c-1.1-2.7-2.1-5.4-2.5-8.2c-0.6-4.6-1.3-8.9-5-12.2c-1.2-1-2.1-2.5-2.9-3.9c-0.5-0.9-0.6-2-0.6-3.1c0-1.3,0.4-2.5,0.6-3.8
	c0.4-3.7,1.1-4.5,4.5-5.1c0.6-0.1,1.3-0.3,1.9-0.1c3.9,1.1,5.6-2.5,8.4-3.9c0.1-0.1-0.1-1.5-0.5-1.8c-4.2-3-8.4-5.9-12.6-8.9
	c-1.9-1.3-3.7-2.6-3-5.5c0.3-1.4,0.6-2.4,2.4-2.4c5,0,10-0.3,14.8,1.7c3,1.2,3.2,1,4.4-2.2c1-2.7,1.8-5.5,3-8.1
	c2.2-4.9,4.6-6.1,10-5.2c7.5,1.2,14.9,2.8,21.8,6c2.9,1.3,5.6,3.1,8.1,5.1c4.3,3.6,8.2,7.6,11.5,12.3c1.6,2.3,1.9,4.5,0.3,7.1
	c-2.5,4-3.6,8.5-4.4,13.2c-0.3,1.4-0.3,2.1,1.3,2.3c5.9,0.6,11.8,1.1,17.7,2c2.8,0.4,5.6,1.3,8.3,2.4c2.2,0.9,2.2,3.2,0.1,4.4
	c-1.1,0.6-2.4,0.8-3.7,1.1c-1.2,0.2-2.5,0.3-4.4,0.4c1.1,1.3,1.8,2.2,2.6,2.8c7.2,5.9,12.1,13.7,17.7,20.9c0.8,1,1.1,2.3,1.5,3.5
	c1.5,4.2,2.6,8.6,4.4,12.7c3.5,7.9,5.2,16.1,6.5,24.6C138,128.1,137.3,135.2,137.6,142.2c-1.5,1.7,0.1,3.3,0.1,4.9
	c-0.2,5.4,0.5,10.8-1.4,16C139.5,156.3,139.1,149.3,137.6,142.2z M39.6,67.6c-0.3-0.3-0.6-0.6-1-1c-0.2-0.4-0.4-0.8-0.7-1.1
	c-0.2-0.2-0.6,0-1,0c0.1,0.2,0.2,0.6,0.5,0.7c0.4,0.2,0.8,0.2,1.3,0.3C39,66.9,39.4,67.2,39.6,67.6c0.1,0.1,0.1,0.3,0.2,0.4
	c0.1,0.1,0.2,0,0.3,0.1C40,67.9,39.8,67.7,39.6,67.6z M81.4,48.2c-0.3-0.2-0.6-0.5-1-0.7c-0.1,0.2-0.2,0.3-0.2,0.5
	C80.6,48,81,48.1,81.4,48.2c0.5,0.2,1,0.6,1.5,0.8c0.2,0.1,0.5-0.2,0.8-0.2c-0.3-0.2-0.6-0.4-0.9-0.5C82.3,48.2,81.8,48.2,81.4,48.2
	z M18.3,50.1c0.2,0.4,0.5,0.8,0.7,1.2C18.8,50.9,18.5,50.5,18.3,50.1c-0.2-1.8-1.3-3-2.9-4.5C15.6,48.1,16.8,49.3,18.3,50.1z
	 M105.6,225.6c0.3,0.2,0.6,0.5,0.9,0.7c0.1-0.1,0.2-0.3,0.3-0.4C106.4,225.8,106,225.8,105.6,225.6c-2-1.9-3.9-3.7-5.8-5.7
	c-0.8-0.9-1.8-1.9-2.1-3c-2-6.9-3.9-13.9-5.8-20.8c-0.5-1.7-0.8-3.5-2.6-4.4c-2.4-1.1-1.6-1.7,0.2-2.5c0.3-0.1,0.4-1.7,0.1-2
	c-1.3-1.1-2.8-2-4.2-3c-0.6,1.5-1.6,3-1.8,4.6c-0.3,1.9-0.1,3.9,0.1,5.8c0,0.4,1.4,0.7,1.4,1.1c0.1,0.7-0.3,1.6-0.7,2.3
	c-3,4.2-3.2,8.5-1,13.1c0.1,0.3,0.1,0.6,0.1,1c0.1,1.7-0.2,3.7,2.7,3.4c0.3,0,0.8,1.2,1.1,1.9c0.7,2.1,1.4,4.3,2,6.4
	c1.7,5.5,6.1,8.4,10.7,11.2c0.6,0.3,1.5,0,3,0c-2.7-2.5-4.2-5.5-7.5-6.5c-1.7-0.5-2.1-1.8-2.4-3.3c-0.6-2.8-1.3-5.6-2-8.4
	c-0.2-0.8-0.6-1.6-0.5-2.3c0.1-0.5,0.7-1,1.2-1.3c0.3-0.1,0.9,0.2,1.2,0.5c0.4,0.5,0.8,1.1,1,1.7
	C95.8,221.2,100.5,223.7,105.6,225.6z M58.1,55c-1.2,0.4-2.5,0.5-3.5,1.2c-1.7,1.1-2.4,0.2-2.8-1.2c-0.3-1.2-0.4-2.5-0.5-3.8
	c-0.2-2.7-0.3-5.5-2.2-7.7c-0.3-0.4-0.5-1.2-0.3-1.7c1-4,3.9-5,6.8-2.3c0.7,0.7,1.5,1.2,2.1,2c0.8,1,1.4,2.1,2,3.3
	c0.1,0.3-0.1,0.9-0.3,1.2c-0.1,0.1-0.6,0.1-0.9,0c-0.4-0.2-0.8-0.5-1.2-0.8c-2.5-1.5-4.7-0.8-4,2.5c0.2,0.8,0,1.6,0.1,2.4
	c0.2,1.2,0.4,2.4,0.7,3.6c1.1-0.5,2.4-0.9,3.4-1.5c0.9-0.6,1.7-1.5,2.4-2.4c3.4-4.1,2.9-11.4-1.1-14.9c-4.1-3.7-10.7-1.9-12.6,3.2
	c-0.8,2.3-1.2,4.6-0.8,7c0.1,0.6-0.5,1.3-0.8,2c-0.6-0.6-1.6-1.1-1.8-1.8c-0.4-1.3-0.3-2.8-0.4-4.3c-0.7,0.9-1.2,2.2-1.8,2.3
	c-2,0.2-0.8,1.6-1.2,2.4c-0.1,0.1-0.7,0.2-0.8,0.1c-1.9-2.2-5.6-3-5.3-6.9c0.1-1.3-0.7-1.2-1.5-1.2c-4.3-0.3-7.4,1.9-8.3,6.2
	c-0.1,0.6,0.4,1.5,0.8,2c0.1,0.2,1.1,0,1.5-0.3c1.5-1.1,3-0.1,2.7,0.9c-1,3.1,0.9,2.7,2.7,2.8c5.9,0.3,6.1,0.6,4.4,6.7
	c0,0.1-0.1,0.4-0.2,0.4c-0.4,0.1-1.1,0.4-1.1,0.2c-1.8-2.6-4.1-0.5-5.6,0c-1.7,0.6-2.9,2.7-4.4,4.2c0.8,3.2,0.3,6.8,2.3,9.7
	c1.6,2.4,2.7,2.4,4-0.2c0.7-1.3,1.3-2.6,1.8-3.9c1.3-3.6,3.3-6.2,7.9-5.7c-0.5-0.8-0.9-1.2-1-1.6c-0.2-0.5-0.1-1.1-0.2-1.7
	c0.6,0.1,1.2,0.1,1.7,0.3c2.8,1.2,1,3.8,1,5.5c0,2-1.9,4,2,2.7c0.4-0.1,1.1,0.4,1.5,0.7c0.7,0.6,1.3,1.2,2.6,2.6
	c-1.1-2.9-1.9-4.8-2.6-6.7c1,0,1.6,0.2,1.9,0.6c2.3,3.7,4.7,7.3,6.8,11.1c1.3,2.4,2.1,5,0.8,7.8c-0.2,0.4,0,1.3,0.4,1.6
	c2.4,1.7,4.8,3.2,7.6,5c-0.3-6.3,0.5-12.3-0.9-18.1c-1.1-4.6-2.4-9.2-4.3-13.6C57.5,56.3,57.9,55.5,58.1,55c0.4-0.1,0.9-0.2,1.3-0.3
	c-0.1-0.2-0.2-0.4-0.3-0.6C58.8,54.4,58.4,54.7,58.1,55z M77.5,18c-0.3,0.3-0.6,0.6-0.9,0.9c0.5,0.9,1.1,1.8,1.6,2.8
	c0.1,0.2-0.1,0.7-0.3,0.8c-0.4,0.2-1,0.5-1.3,0.3c-0.5-0.3-0.9-0.8-1.4-1.3c-4-4.4-8-8.9-12-13.2c-1-1-2.1-2-3.4-2.6
	c-2.1-0.9-4.3-1.4-6.5-1.9c-2-0.4-4.1-0.8-6.1,0.5c-6,3.8-11.5,7.8-12,15.7c-0.1,1-0.2,2-0.6,2.8c-0.6,1.4-0.2,2.5,0.5,3.6
	c0.7,1.1,1.3,2.2,2,3.3c1.5,2.5,3.1,3.1,6.1,2.4c2.8-0.6,5.6-1.3,8.5-1.8c5.6-1.1,8.1,0.2,10.8,5.2c0.4,0.7,0.8,1.4,1,2.2
	c0.8,3.3,3.5,4,6.1,4.5c5.2,0.9,9.3-2,13.4-4.4c0.7-0.4,1.1-1.5,1.5-2.4c0.5-1,0.7-2.1,1.2-3.1c2.5-5.5,2.5-6.3-2-10.2
	C82,20.4,79.6,19.3,77.5,18z M85.5,254.7c0.6,2.1,1.3,4.4,1.8,6.8c0.7,3.4,1.8,6.9,1.9,10.4c0.2,8.5,1,16.9,2,25.4
	c0.2,1.7,0.8,3.5,0.8,5.2c0,3.4,0.5,6.3,3.8,8c0.9,0.5,1.6,1.5,2.4,2.4c2.2,2.5,4.5,5,6.9,7.7c0.8-2.1,2-3.8,0-5.8
	c-0.6-0.6-0.4-2.1-0.5-3.2c-0.1-1.7,0.2-3.5-0.1-5.2c-0.9-4.5-2.1-9-3.2-13.5c-0.3-1.4-0.6-2.8-0.7-4.2c-0.1-3.9-0.1-7.7,0-11.6
	c0-2.1,0-4.2,0.5-6.2c0.6-2.3,0.5-4.4-0.4-6.6c-1.4-3.4-1.8-6.7,0.9-10.4C96,254,91,254.3,85.5,254.7z M130.2,286.1
	c-0.7-2.2-0.9-4.4-2-6.1c-2.5-3.7-3.8-7.7-4.8-11.9c-1.6-6.8-2.7-13.8-5-20.5c-1.4-4.1-1-4.1-5.4-3.8c-1.1,0.1-1.7,0.1-2.3,1
	c-1.6,2.2-3.2,4.4-4.9,6.5c-0.8,1-1.2,1.7-0.3,2.9c2.4,3,3.3,6.5,4.3,10.1c1.5,4.9,3.6,9.6,5.3,14.4c1.1,3.1,2.2,6.3,3.2,9.5
	c0.6,2.1,1.6,2.7,3.5,2c2.2-0.9,4.5-1.6,6.6-2.6C129.1,287.3,129.5,286.7,130.2,286.1z M47.4,325.2c2.8,1.9,5.2,3.3,8.2,3.2
	c1.8,0,3.5,0,5.3,0c6.5,0.2,12.9,0.4,18.9-2.6c1.1-0.5,2.5-0.7,3.7-0.6c4.1,0.6,8,1.5,12.1,2c2.9,0.3,5.8,0.1,8.7,0
	c0.6,0,1.2-0.9,1.5-1.6c0.2-0.4-0.3-1.1-0.7-1.5c-1-1.2-2.2-2.2-3.3-3.4c-2.2-2.5-4.4-5.1-6.6-7.7c-1.3-1.5-2.3-2-4.4-0.6
	c-3.8,2.5-7.9,4.9-12.2,6.5c-5.1,1.8-10.5,2.7-15.8,3.8C57.9,323.6,52.9,324.3,47.4,325.2z M102.4,280.4c0.1,0,0.3,0,0.4,0.1
	c0,2.4,0.1,4.9,0,7.3c-0.1,2.2,0.6,4.1,1.5,6c0.8,1.7,2.1,2.1,3.5,1.5c2.2-1,4.2-2.4,6.3-3.5c1.8-0.9,2.3-2.3,1.9-4
	c-0.3-1.4-0.8-2.8-1.4-4.1c-1.6-3.9-3.3-7.6-4.8-11.6c-1.3-3.5-2.2-7-3.3-10.6c-0.7-2.1-1-4.6-3.6-5.2c-1.3-0.3-1.4,2.8-0.3,6.6
	c0.6,2,1,4.1,0.9,6.1C103.5,272.8,102.8,276.6,102.4,280.4z M19.5,15.7c0,0.2-0.1,0.3-0.1,0.5c-0.8,0-1.6-0.1-2.4,0
	c-0.7,0.1-1.4,0.4-2.1,0.7c0.4,0.6,0.7,1.4,1.3,1.8c3.1,2.3,6.2,4.5,9.3,6.8c4,2.9,4.7,3.1,6.5-2.2c0.1-0.3,0.1-0.6,0.1-1
	c0.5-2.8,0.3-3.4-2.3-4.2C26.3,17.2,22.9,16.6,19.5,15.7z M84.8,219.8c-0.7,5.4,3.7,15.8,5.3,23.3c1.9-1.8,2.2-3.9,1.6-6.2
	c-0.8-2.9-1-5.9-3.4-8.2c-1.2-1.1-1.4-3.2-2.1-4.8C85.7,222.7,85.3,221.5,84.8,219.8z M65.6,121.8c-1.7,3.3-3,5.8-4.3,8.3
	c-0.5,1-0.4,1.8,0.8,2.2c1.5,0.6,2.9,1.3,4.3,1.8c0.5,0.2,1.2,0,1.7-0.3c0.2-0.1,0.1-0.9,0-1.3c-1.1-2-1.5-4.2-1.5-6.5
	C66.7,125,66.2,123.8,65.6,121.8z M53.1,81.4c-0.3-2.6-0.6-5.1-1-7.6c-0.1-0.4-0.7-1-1.2-1.1c-1.2-0.4-3.1-1.2-3.7-0.7
	c-1.6,1.4,0.3,2.8,0.7,4.3c0.2,0.6,0.4,1.2,0.6,1.8C49.1,80.4,50.6,81.4,53.1,81.4z M95.4,50.5c2.5,2.2,2.5,2.5,4.4,2.4
	c3.3-0.2,6.8,1.9,10.3-0.3C105.1,51,100.5,49.4,95.4,50.5z M123,293.2c2.5,1.1,4.5,2.2,6.6,2.9c0.6,0.2,1.7-0.1,2.1-0.6
	c0.9-1.2,0-3.2-1.4-3.9C127.7,290.2,125.6,290.9,123,293.2z M93.6,188.4c0.3-1.5,2-3,0-4.3c-2.4-1.6-4.9-3-7.4-4.4
	c-0.3-0.1-1,0.1-1.2,0.3c-0.2,0.3-0.1,1,0.2,1.2C87.9,183.7,90.7,186,93.6,188.4z M22.9,38.9c-1.1,0.2-1.9,0.3-2.7,0.5
	c-2.9,0.7-3.3,1.5-2,4.4c0.7,1.7,1.6,3.2,2.5,5.1C21.5,45.3,22.1,42.3,22.9,38.9z M64.4,100.2c-0.4,1.5-0.5,1.8-0.5,2.1
	c-0.5,4.1,0.8,7.9,1.9,11.8c0.5,1.8,0.6,3.6,0.9,5.5c2.2-1.9-0.2-3.8,0.1-5.6c0-0.2,0-0.3,0-0.5C66.1,109.4,65.4,105.3,64.4,100.2z
	 M38.3,36c-1.2,0.8-2.6,1.2-3,2.1c-0.5,1,3,4.5,3.4,4c0.9-1.2,1.4-2.7,1.7-4.2C40.5,37.4,39.2,36.8,38.3,36z M66.7,8.1
	c2.5,4.1,6.1,5,9.4,6.3C74.2,11.1,71,9.5,66.7,8.1z M74.1,45c0,0.2,0.1,0.4,0.1,0.5c2.2-0.1,4.3-0.2,6.4-0.4
	c0.6-0.1,1.3-0.8,1.6-1.4c0.2-0.4,0-1.5-0.3-1.7c-0.6-0.3-1.5-0.4-2.1-0.1C77.9,42.8,76,43.9,74.1,45z M25.7,49.5c-0.3,0-0.7,0-1,0
	c-0.4,1.7-1.2,3.5,1,5.3C25.7,52.7,25.7,51.1,25.7,49.5z M86.4,236.7c-0.7-0.9-1.2-1.4-1.7-1.9c-0.6,0.6-1.3,1.2-1.8,2
	c-0.1,0.1,0.7,1.2,1,1.2C84.6,237.7,85.3,237.2,86.4,236.7z M44.1,3.2c-3.1,0.5-3.4,0.7-3.4,1.9c0,0.1,0.1,0.3,0.1,0.4
	c1-0.5,2-1,3-1.6C44.1,3.9,44.1,3.5,44.1,3.2z M34.1,30.4c0.6-0.3,0.9-0.5,1.1-0.7c-0.6-0.8-1.2-1.6-1.8-2.4
	c-0.1,0.3-0.5,0.6-0.4,0.8C33.2,28.9,33.7,29.6,34.1,30.4z M62.1,50.2c0.2,0.2,0.4,0.3,0.6,0.5c0.7-0.7,1.4-1.5,2.1-2.2
	c0.1-0.1,0.1-0.4,0-0.4c-0.2-0.1-0.7-0.3-0.7-0.2C63.3,48.6,62.7,49.4,62.1,50.2z M93.8,191.5c-0.6-0.5-1.1-1-1.7-1.4
	c0,0-0.6,0.5-0.5,0.5c0.4,0.6,0.9,1.2,1.4,1.8C93.2,192.1,93.4,191.9,93.8,191.5z M52.9,41.8c-0.2-0.4-0.3-0.7-0.4-1
	c-0.6,0.3-1.2,0.5-1.8,0.9c-0.1,0.1,0.1,0.7,0.2,1.1C51.7,42.5,52.3,42.1,52.9,41.8z M29.7,51.5c-0.8,0.9-1,1.1-1.2,1.3
	c0.5,0.3,0.9,0.7,1.4,1c0,0,0.5-0.4,0.4-0.5C30.2,52.7,29.9,52.1,29.7,51.5z M44,37c-0.2-0.3-0.3-0.6-0.5-0.8
	c-0.1-0.1-0.5,0.1-0.7,0.2c0.1,0.3,0.2,0.6,0.4,0.8C43.4,37.3,43.8,37,44,37z M34.3,33.9l-0.2,0.2l0.2,0L34.3,33.9z"/>
<path d="M7.1,168.6c-1.7-0.4-3.2-0.7-4.8-1.2c-2.7-0.8-3.1-2.5-1.2-4.7c0.3-0.4,0.6-0.8,1.1-1c3.8-2.1,6-5.7,8.4-9.1
	c1.4-2,3.2-2.9,5.8-2.2c4.1,1.2,8.4,1.8,12.4,3.4c4.2,1.6,9.1,2.3,12,6.4c0.7,1,1.7,1.4,2.9,0.7c2.1-1,4.8-1.1,5.8-3.8
	c0.2-0.4,0.6-0.8,1-1c3.5-2.6,7-5.1,10.4-7.7c1.8-1.3,2.6-3.2,2.8-5.4c0.1-1.4,1-2.1,2.3-1.6c1.1,0.4,1.9,1.2,1.3,2.6
	c-1.3,3.4-1.9,7.1-6,8.8c-1.5,0.7-2.4,2.9-3.6,4.4c3.3,3.7,7,7.9,8.3,13.6c0.1,0.3,0.3,0.6,0.3,0.9c-0.1,0.4-0.2,1.2-0.5,1.2
	c-0.6,0.1-1.5,0.1-1.7-0.2c-0.8-1-1.2-2.2-1.9-3.4c-1.3-2.3-2.7-4.6-4.5-6.5c0.7,2.9,1.2,5.8,2.2,8.6c0.4,1.2,2,1.8,2.9,2.9
	c0.4,0.5,0.6,1.4,0.5,2.1c0,0.2-1.1,0.6-1.6,0.5c-0.8-0.1-1.5-0.6-2.2-0.9c-0.6-0.2-1.3-0.7-1.8-0.6c-3.2,1.1-6.9,1.2-9.6,3.8
	c-2.3,2.2-3.7,2.7-6.3,0.9c-2.6-1.8-5.3-2.1-8.2-2c-1.4,0-2.9-0.1-4.3-0.4c-1-0.2-2.5-1.5-2.8-1.1c-1.6,1.3-3,2.9-4.2,4.5
	c-0.6,0.9-0.5,2.2-1,3.2c-0.8,1.7-2.6,2.6-4.3,2.4c-1.9-0.3-2.7-1.4-2.8-3.8c0-0.6,0.1-1.3,0-1.9c-0.2-0.9-0.5-1.7-0.8-2.6
	c-0.6,0.4-1.3,0.8-1.9,1.2c-2.7,2-5.2,1.8-6.4-0.9c-0.4-0.9-0.4-2.2-0.2-3.2C5.6,173.4,6.3,171.3,7.1,168.6z M16.4,169.4
	c-1.5,1.5-1,3.3-0.7,4.9c0.6,2.7,1.5,5.3,2.3,8.1c2.4-2.6,2.6-5.1,0.9-8C17.9,172.9,17.2,171.1,16.4,169.4c0.2-0.4,0.5-0.7,0.7-1
	c-0.2-0.1-0.3-0.2-0.5-0.3C16.6,168.6,16.5,169,16.4,169.4z M19.3,162.2c0,3.6,1.4,5.1,4.7,5.2c1.1,0,2.3-0.3,3.4,0
	c2,0.5,4.9,0.7,5.7,2c1.9,3,4.9,4.1,7.4,6.1c2.3,1.8,2.4,1.8,4.3-0.1c1-1,1.9-2.2,2.8-3.3c1.4-1.8,2.9-3.3,5.2-4.1
	c2.9-1,3-2,1.3-4.7c-1.3-2.1-1.8-2.2-4.3-1.4c-2.1,0.7-4.4,1.2-6.4,2.1c-2,0.9-3.1,0.8-4.4-1.2c-0.9-1.4-2.5-2.6-4-3.3
	c-3.5-1.7-7.9-1.3-11-4.3c-0.2-0.2-1,0.1-1.2,0.3c-0.2,0.2-0.1,0.9,0.1,1.3c1.3,2.3,3.9,2.2,6,2.6c4,0.7,7.2,2.6,9.9,5.6
	c2.5,2.9,3.4,5.1,2.3,5.1c-2.2,0-3.6-1.8-5-3.3c-0.1-0.1-0.1-0.3-0.2-0.4c-1.5-2.9-4.2-4.1-7.1-4.5c-2.6-0.3-5.1-0.5-7.2-2.2
	c-0.3-0.2-1.5,0.2-1.7,0.7C19.3,160.9,19.3,161.8,19.3,162.2z M19.2,154.6c-4.6-1.8-4.7-1.8-7.1,1.3c-2,2.6-4.1,5.3-6.5,8.4
	c2.3,0.1,4.2,1.1,5.3-1.4c0.9-1.8,1.4-4,2.7-5.4C14.9,156,17.8,157.2,19.2,154.6z M12.4,169.1c-0.1-0.4-0.1-0.7-0.3-0.9
	c-0.1-0.1-0.6,0-0.8,0.1c-1.5,1.1-3.8,6.6-3.3,8.1c0.1,0.2,0.6,0.5,0.7,0.5c2.7-1.3,2.5-4.2,3.6-6.4
	C12.5,170.1,12.4,169.5,12.4,169.1z M51.8,173.9c1.5-0.6,2.9-1.1,4.4-1.7c0.3-0.1,0.6-0.9,0.5-1.2c-0.2-0.3-0.8-0.6-1.2-0.6
	C53.4,170.3,52.3,171.5,51.8,173.9z M33.2,174.8c-2.2-0.8-2.6-4.4-5.9-4C30.6,174.8,30.6,174.8,33.2,174.8z"/>
<path d="M83.7,300.6c0.6,1.6,3.7,1,3,3.2c-0.9,2.8-3,0.4-4.6,0.4c-1.4,0-2.8-0.6-4.2-1.1c-1.6-0.6-1.8-2-0.4-2.8
	c1.9-1.1,4-1.9,6.1-2.7c0.9-0.4,2.8-0.7,2.9-0.6c0.6,1.7-0.9,2-1.9,2.7C84.3,299.9,84,300.3,83.7,300.6z"/>
<path d="M104.6,70.5c-0.6-0.7-1.5-1.3-1.8-2c-1.3-3.9-3.3-7.4-5.9-10.6l0,0c1,0.5,2.3,0.7,2.8,1.5C101.9,62.8,104.2,66.2,104.6,70.5
	L104.6,70.5z"/>
<path d="M104.7,70.4c1.4,2.6,2.7,5.2,4.4,8.4C105.7,77.1,105.7,77.1,104.7,70.4L104.7,70.4z"/>
<path d="M95.9,56.9c0.3,0.3,0.6,0.6,1,1l0,0C96.6,57.5,96.2,57.2,95.9,56.9L95.9,56.9z"/>
</svg>
