<?xml version="1.0" encoding="utf-8"?>
<!-- Generator: Adobe Illustrator 18.0.0, SVG Export Plug-In . SVG Version: 6.00 Build 0)  -->
<!DOCTYPE svg PUBLIC "-//W3C//DTD SVG 1.1//EN" "http://www.w3.org/Graphics/SVG/1.1/DTD/svg11.dtd">
<svg version="1.1" id="Layer_1" xmlns="http://www.w3.org/2000/svg" xmlns:xlink="http://www.w3.org/1999/xlink" x="0px" y="0px"
	 viewBox="0 0 41.6 9.5" enable-background="new 0 0 41.6 9.5" xml:space="preserve">
<path d="M20.6,1.5c5.5,0.3,11.8-0.1,18.2-1.5c1.8-0.4,2.7,0.5,2.8,2.2c0.1,2.4-1.6,5.1-4,6c-3.4,1.3-6.8,1.5-10.4,0.6
	c-2.9-0.7-5.6-1.2-8.8-0.7C13.4,9,8.1,8.4,3,8.4c-1.4,0-2.6-0.5-2.9-2c-0.3-1.8,1-2.3,2.4-3c3.4-1.7,6.7-2.5,10.5-1.9
	C15.1,1.8,17.4,1.5,20.6,1.5z M31.6,7.4c1.6-0.6,3.8-1.4,5.9-2.3c0.4-0.2,0.6-1,0.9-1.6c-0.7-0.3-1.5-0.9-2-0.8
	C32.5,4,28.5,3.4,24.6,3.6c-0.8,0-1.6,0.1-2.4,0.2c-0.2,0-0.5,0.4-0.5,0.7c0,0.2,0.2,0.6,0.5,0.7C25,5.9,28,6.6,31.6,7.4z M3.3,5.2
	c0,0.4,0.1,0.8,0.1,1.2c1.6,0,3.2,0.3,4.7-0.1c2.4-0.6,4.6-1.2,7-0.1c0.2,0.1,0.6,0,0.9-0.2c0.3-0.1,0.5-0.4,0.6-0.7
	c0-0.2-0.2-0.6-0.4-0.6c-2.2-0.3-4.4-0.9-6.6-0.8C7.5,4,5.4,4.7,3.3,5.2z"/>
</svg>
