<?xml version="1.0" encoding="utf-8"?>
<!-- Generator: Adobe Illustrator 18.0.0, SVG Export Plug-In . SVG Version: 6.00 Build 0)  -->
<!DOCTYPE svg PUBLIC "-//W3C//DTD SVG 1.1//EN" "http://www.w3.org/Graphics/SVG/1.1/DTD/svg11.dtd">
<svg version="1.1" id="Layer_1" xmlns="http://www.w3.org/2000/svg" xmlns:xlink="http://www.w3.org/1999/xlink" x="0px" y="0px"
	 viewBox="0 217.6 1023.7 333.2" enable-background="new 0 217.6 1023.7 333.2" xml:space="preserve">
<path d="M836.1,275.4c0,0.3,0,0.7,0.3,1s1,0.3,1.3,0.7c5.4,11.1,9.7,22.5,17.5,34c3.4,5.7,4.7,9.4,0.3,14.5
	c-3.4,3.7-0.7,5.7,2.7,7.1c3.7,1.7,9.1,1.3,11.8,4c10.1,10.1,18.2,21.5,21.5,35.6c1,4.4,0.7,9.1,3,12.4c5,7.7,1.7,14.5-0.7,21.5
	c-1.3,3.7-4.4,5.7-9.1,4c-7.1-2.4-14.5-3.7-21.9-5s-11.8,2-15.5,8.7c-4,7.4-10.1,13.8-16.1,19.8c-4.7,4.7-8.4,4-11.4-2
	c-2-4.4-2.7-9.1-4-13.8c-2-6.1-6.7-7.4-10.8-2.7c-5.7,6.4-13.1,9.4-20.5,12.4c-7.1,2.7-13.8,5.7-20.8,8.1c-2,0.7-5.4,0.3-7.1-1
	c-7.1-5.4-13.4-11.1-20.2-16.5c-2.4-2-5.4-5-7.7-4.7c-4,0.7-7.7,3.4-11.4,5.7c-0.7,0.3-1,2.7-1,4c0.3,9.7,0,9.4-8.7,11.4
	c-5.7,1.3-11.1,1.7-17.1,0.3c-6.1-1.3-12.8-0.3-20.8-0.3c10.1,14.8,12.4,30.3,17.1,45c5.7,17.8,7.7,37,17.5,53.5
	c1.7,2.7,2.4,6.1,3,9.1c1.7,6.1-1,9.1-7.4,8.4c-5.4-0.7-10.8-1-16.1-2c-4-1-8.7-2-12.1-4c-4.7-2.7-8.1-9.4-12.4-9.7
	c-5-0.3-10.1,4.4-15.5,6.7c-1,0.3-2.4,0.3-3.4,0.3c-7.4,0.7-9.7-1.3-10.1-8.7c-0.3-9.7,0-19.2,0-28.6c-1,0-2-0.3-3-0.3
	c-3,8.7-6.1,17.8-9.1,27.2c-2-1.3-3.4-2-4.4-3c-12.1-10.8-25.2-15.8-41.7-10.4c-9.1,3-16.8-1.3-23.9-7.1
	c-6.7-5.7-14.1-9.7-21.5-14.5c-4.7-3-9.4-4-10.8,3.4c-1,4.7-3.7,6.7-8.1,4.7c-4.4-2.4-12.8-3.7-10.4-10.1c3.4-9.1-2.7-11.8-7.1-15.8
	c-4-4-9.4-7.1-13.8-11.1c-7.1-6.7-7.1-6.1-17.1-7.1c-5.4-0.7-6.7,0.7-8.7,5.7c-3,8.4-7.7,16.5-12.8,23.9c-4.7,7.1-9.4,6.1-12.8-1.7
	c-3.4-7.4-6.4-14.8-10.1-22.9c-8.4,7.4-15.1,13.8-22.2,19.5c-1.7,1.7-5,1.3-7.4,1.7c0-2.4-1-5,0-7.1c5.4-13.1,3.7-25.9,1.7-37.7
	c-6.4,5.7-12.4,11.4-18.8,16.1c-1.7,1.3-5.4,1.3-7.4,0.3c-1.7-0.7-2.7-4.4-2.4-6.4c1.3-8.4,1.3-16.5-3.7-23.5
	c-5.7-8.4-8.4-17.1-8.7-27.2c-0.7-9.7-12.8-15.1-21.5-9.7c-6.7,4.4-13.4,9.1-20.2,13.4c-2.7,1.7-6.1,2.7-9.1,4
	c-4.7-11.4,11.8-18.8,3.4-29.2c-4.4,3-8.7,6.7-13.4,8.7c-4,1.7-9.7,2.7-13.8,1.3c-2.7-1-3.7-6.7-5.4-10.8c-2.7,2.7-5,4.7-7.7,6.7
	c-4.7,3.4-9.4,5.7-13.8-0.7c-3.7-5.4-8.1-1.3-11.8-0.3c-7.7,2.4-15.1,5.7-22.2-2.4c-1.3-1.7-5.4-1.7-7.7-1
	c-12.1,2.7-23.9,5.4-33.3,14.8c-6.4,6.4-13.4,12.1-20.8,17.5c-6.7,5-11.1,3.7-14.1-3.4c-1.3-3-1.3-7.7-3.4-8.4c-2.4-1-6.1,1.3-9.1,2
	c-4.7,1.3-9.4,2-14.1,3.4c-2.7,0.7-6.7,1.7-8.1,4c-2.7,4.4-5,9.7-5.7,14.8c-0.3,2.7,3,6.1,4.7,9.1c1.3,2.4,2.4,4.7,2.7,7.4
	c1.3,7.4,3.4,14.8,3,22.2c-0.3,12.4,1,22.2,16.8,20.5c0.3,0,1,0.3,1.3,0.7c5,2.4,6.1,7.7,1.3,10.1c-4.7,2.7-10.1,5-15.1,5.4
	c-15.5,1.3-32.3-6.4-39.3-27.6c-0.7-2.4,0.7-5,1-7.4c2,1.3,5,2,6.4,3.7c2.4,3,3.4,7.1,5.4,10.1c4.7,7.4,11.1,11.1,21.2,11.4
	c-7.7-7.7-9.1-16.1-9.1-24.9c0-8.4-0.3-16.5-0.7-24.5c0-1.3-1.3-3-2.7-3.7c-0.7,0-2.4,1.3-3.4,2.4c-6.1,5-12.1,10.1-18.2,15.5
	c-2,1.7-4,4-4,6.1c0.7,9.4-6.4,14.8-10.1,21.9c-1.7,3-7.1,6.7-10.1,6.1c-5.7-1-4-7.4-2.7-10.8c4-9.1,2-18.2-3.7-24.2
	c-10.1-10.8-12.4-26.2-24.2-35.6c-1-0.7-2-3-1.7-4.4c3.4-14.5-5.4-24.2-13.4-34.3c0-14.1,0-28.2,0-42.4c2-2.7,6.1-6.1,5.7-8.4
	C5,324.8,2,318.8,0,313.1c0-22.9,0-45.7,0-68.6c16.5-5.4,16.5-5.4,16.5-26.2c3.4,0,6.4,0,9.7,0c0.7,12.1,6.4,21.5,15.1,29.2
	c1.3,1.3,5,1.7,6.7,1c8.4-4,16.5-8.7,24.9-13.1c-7.4-5.4-15.8-11.1-23.9-16.8c4.4,0,8.7,0,13.1,0c6.4,5.7,12.8,11.8,19.2,17.1
	c3.4,2.7,8.1,1.3,9.1-2.7c1-4.7,1-9.7,1.3-14.5c2,0,4.4,0,6.4,0c1.3,10.8,0,21.2-4,31.3c-0.7,1.7-0.3,3.7-0.7,5.7
	c2.4-0.7,4.7-0.3,7.1-1.3c14.1-5.4,24.9-14.1,27.6-30.3c0.3-2,1.7-3.7,2.7-5.7c2,0,4.4,0,6.4,0c3,11.1,5.7,22.5,8.7,34
	c11.1-8.4,19.5-18.8,20.5-34c6.4,0,13.1,0,19.5,0c-1,6.4-2.4,12.4-3,18.8c-0.7,5.4,2.7,8.4,7.7,6.1c11.8-5.4,22.9-11.8,27.9-24.9
	c7.7,0,15.1,0,22.9,0c4.4,3.7,8.7,7.7,13.1,11.1c2.4,1.7,5,2.7,7.7,4c0.7-2.7,1.7-5.7,2-8.7c0-2,0-4.4,0-6.4c3.4,0,6.4,0,9.7,0
	c2,6.7,4,13.4,6.7,19.8c1.7,4,3.4,7.7-0.3,11.8c-1,1.3-0.7,5,0.3,7.1c6.4,13.1,19.2,17.8,31.6,22.9c4,1.7,7.4-1,7.4-6.1
	c0-6.1,1-12.1-0.3-17.8c-1.7-6.1-1.3-11.1,0-17.1c1.7-8.1,0-9.4-8.7-12.1c-3-1-6.4-1-9.4-2c-5-2-9.4-4.4-14.1-6.7
	c16.1,0,32.6,0,48.7,0c4.7,9.7,10.8,18.2,22.9,19.5c0.7,0.7,1,1,1.7,1.7c0-0.3,0-0.7-0.3-1c-0.3-0.3-1-0.3-1.3-0.7
	c-3.4-6.4-6.4-13.1-9.7-19.5c2,0,4.4,0,6.4,0c2.4,11.8,13.1,16.5,20.2,24.2c1.3,1.3,5.7,1.7,7.4,0.7c6.1-4.4,12.1-8.7,17.1-14.5
	c1.7-1.7-1.3-7.1-2-10.4c8.7,0,17.5,0,26.2,0c-5.4,8.1-12.1,15.1-21.5,18.8c-11.1,4.4-18.5,12.4-26.2,21.2
	c30.6,11.8,59.8-8.1,60.8-40.3c3.4,0,6.4,0,9.7,0c0.7,9.1,8.1,13.8,14.5,17.8c3.4,2,10.1,0.7,14.8-1c6.1-2.4,6.1-6.7,0.3-10.1
	c-3.7-2-7.1-4.4-10.4-6.7c4.4,0,8.7,0,13.1,0c3,2.4,6.1,5.4,9.7,7.4c1.7,1,5.7,0.7,6.7-0.7c1-1,0-4.4-0.3-6.7c4.4,0,8.7,0,13.1,0
	c17.8,11.8,18.8,11.8,36,0c5.7,0,11.1,0,16.5,0c-2.4,1.7-4,3.7-6.4,4.7c-5.4,2.7-10.4,5.4-10.1,12.8c0.3,2.4-2,4.7-3,7.1
	c-2,4.4-6.4,9.7-5,12.8c3,7.4,8.7,13.4,13.4,19.8c1.3-1,4-2,4-3c0.3-4.7,0.7-9.7,0.3-14.5c-1.3-12.8,6.1-21.2,14.5-28.9
	c4-3.7,7.7-7.1,11.8-10.8c2,0,4.4,0,6.4,0c0,3.4,0,6.4,0,9.7c-8.7,1-15.1,6.1-20.2,12.4c-2.4,2.7-5.7,7.4-4.7,9.7
	c5,12.8-4,24.5-1.3,36.6c-4.7,3.7-3.7,9.4-2.4,13.4c4.4,13.1,6.7,25.9,6.1,39.7c0,1.3,2.4,2.4,3.4,3.7c1.7-1.7,4.4-3.4,5-5.4
	c0.3-1.7-1.3-4-2-6.1c-0.7-2-1.3-4-2-6.1c-2.4-6.7,4.7-13.1-0.3-20.2c-3.7-5.7-5.4-12.8-7.7-19.2c3-1,6.4-3.7,8.4,0.7
	c1.7,3,2,6.7,4,13.8c1-11.4,0.7-19.2,5.7-26.6c3-4.4,1.3-11.4,2-17.5c0-0.7,1.3-2,2-2c1.3,0.3,3.4,1.3,3.7,2.4
	c0.3,2.7,0.7,5.4,0.3,8.1c-2,19.5,6.4,35.6,16.5,51.4c4,6.4,9.4,10.1,17.5,11.8c-0.3-2-0.3-3.4-1-4.7c-5.7-13.1-8.7-26.6-7.1-41
	c0-1.7,0.7-3.7-0.3-4.7c-10.4-10.4-13.4-26.6-27.9-33.6c-7.4-3.7-7.7-4-2.7-10.1c1.7-2.4,3.4-4.4,5-6.4c3.4-3,6.4-6.4,9.7-9.7
	c3.4,0,6.4,0,9.7,0c-5,6.1-10.4,11.8-17.1,19.5c14.5,0,25.9,1.3,37.7-2.7c8.4-3,12.4-7.7,12.1-16.5c3.4,0,6.4,0,9.7,0
	c-4,21.5,2.4,26.6,18.5,34.6c-0.3-14.8,9.7-24.2,17.5-34.6c4.4,0,8.7,0,13.1,0c-2.7,5-5.7,9.7-6.7,16.1c-3,18.2-11.1,34.3-24.9,46.4
	c-14.1,12.4-11.4,30.6-4.4,40.3c4.7,6.4,9.1,13.4,14.1,19.5c9.1,10.4,20.8,17.1,34,20.8c4.4,1.3,6.7-1.3,7.4-6.1
	c2-21.5-5.7-39-20.2-54.5c-4.7-5-8.1-4-12.1,0.3c-3.7,4-6.7,8.4-10.8,12.1c-2,2-5.4,2.4-8.1,3.7c0.3-2.7,0-6.4,1.7-8.4
	c5-6.1,11.1-11.4,16.8-17.5c4-4.4,9.1-7.7,10.1-14.5c0.3-2.4,3.7-5,6.4-6.4c3.7-2,8.1-3,12.1-4.7c10.4-4.4,10.8-5.7,4.4-15.8
	c-2-3.7-3.4-8.1-3.7-11.8c-0.3-6.4,0-13.1,0-19.5c2,0,4.4,0,6.4,0c0.3,4.7,0.3,9.7,0.3,14.5c0,9.4,3.7,16.1,8.4,17.1
	c6.1,1,19.2-8.7,20.2-15.8c1-5.4,0.7-10.8,0.7-16.1c2,0,4.4,0,6.4,0c-1,8.4-1.7,16.8-2,24.9c-0.3,3.7-0.3,6.7,4,7.1
	c4.4,0.3,5-3,5-6.4c0.3-8.4,0.3-17.1,0.3-25.5c2,0,4.4,0,6.4,0c0,9.1-0.3,18.2,0,27.2c0.3,10.4,4.4,13.1,14.5,10.8
	c13.4-3,22.2-13.1,24.2-28.2c0.7-3.4,0.3-6.4,0.3-9.7c2,0,4.4,0,6.4,0c1.3,2,2.7,3.7,4,5.7c0.7-2,1.7-3.7,2.4-5.7c2,0,4.4,0,6.4,0
	c0.3,12.4,0,24.5,0.3,37c0,7.4,2.4,9.1,9.7,8.4c15.5-1.3,20.2-15.8,18.5-29.9c-0.7-5-1.7-10.4-2.7-15.5c3.4,0,6.4,0,9.7,0
	c0,3.4,0,6.4,0,9.7c-0.3,5.4,1,9.1,6.4,11.8c8.1,3.7,15.5,8.7,22.9,12.4c2,1,6.4,0.7,7.1-0.3c1.3-2.4,2-6.4,1-8.7
	c-1.7-3.7-5.4-6.4-8.1-9.7c-4.4-5-9.1-10.4-13.4-15.5c5.7,0,11.1,0,16.5,0c0.3,3.4-1,7.7,0.7,10.1c2.7,4.4,6.7,8.1,10.8,11.4
	c0.7,0.3,4.4-1.3,4.4-2.4c0.7-6.1,0.7-12.4,0.7-18.8c4.4,0,8.7,0,13.1,0c8.1,14.8,19.5,25.5,37.7,28.6c0.7-11.4-6.1-19.8-11.4-28.6
	c3.4,0,6.4,0,9.7,0c1.3,9.1,5.7,15.8,14.1,20.2c5,2.4,7.4,0,7.7-4c1-5.4,0.7-10.8,0.7-16.1c4.4,0,8.7,0,13.1,0c1,1.3,1.7,2.7,2.4,4
	c2.7,5,4.4,11.1,11.8,11.1c1-5,1.7-10.1,2.4-15.1c3.4,0,6.4,0,9.7,0c-2,7.1-3.4,14.8-6.1,21.5c-3.7,9.1-8.1,9.4-14.1,2.4
	c-3.7-4-4-11.4-11.8-12.1c-1.3,5-3,9.7-3.7,14.1c-0.7,5.7-4,7.1-9.1,6.4c-3.7-0.7-7.4-3-8.1,3.4c0,0.7-3.4,1.7-4.7,1.3
	c-5.7-1.7-10.8-4-16.1-5.4c-10.1-2.4-17.1-8.4-23.2-16.5c-1.7-2.4-3.7-4.7-6.7-9.1c-0.7,7.4-1.3,12.8-1.7,18.2
	c-1.3,16.1-14.5,24.9-28.9,18.2c-9.1-4-17.5-9.7-27.9-15.5c-0.7,6.1-1.3,11.4-2,17.1c0,1.3-0.3,3.7-1,4c-3.7,1-8.7,0.3-11.4,2.7
	c-2.4,2,1,8.7-6.1,8.1c-1.3,0-2.4,0-3.4,0C837.1,276.4,836.7,275.8,836.1,275.4z M643.8,480.8c0,0.3,0,0.7,0.3,1
	c0.3,0.3,1,0.3,1.3,0.7c0.7,1,1.3,2.7,2.4,3.4c0.7,0.7,2.4,0,3.4,0c-0.3-0.7-0.7-2-1.3-2.4c-1.3-0.7-3-0.7-4.4-1
	C644.8,481.8,644.5,481.2,643.8,480.8z M32.9,333.9c0,0.7,0.7,1.7,1,2.7c0.3-1,1.3-2,1.7-3c0.3-1.3,0-3,0-4.4c0.3-0.7,1-1.3,1.7-1.7
	c-0.3,0-0.7,0-1,0.3s-0.3,1-0.7,1.3C34.6,330.9,33.3,332.2,32.9,333.9z M166.4,385c-1.7,1-3.4,2.4-4.7,3.7l1.3,1.7
	c1.7-0.7,3.4-1.7,5-3c0.7-0.7,1-1.7,1.3-2.7c1.3-0.3,2.7-0.7,4-1c-0.3-0.7-0.7-1-1-1.7c-1,1-2,1.7-3,2.7
	C168.4,384.7,167.1,384.3,166.4,385z M641.4,260.6c5-2.7,5.7-12.8,1-16.8c-0.7-0.7-4.7,0-5,1c-3,6.4-5.7,12.8-8.4,19.2
	c-0.3,0.3-1,1-1.7,1.7c0.3,0,0.7,0,1-0.3s0.3-1,0.7-1.3C633.4,263,637.7,262.6,641.4,260.6z M612.5,420.3c-3-5.4-6.4-10.4-9.7-16.1
	c-4.4,5-6.7,9.7-10.8,12.1c-8.4,5.4-6.7,12.8-4.7,19.8c4.4,15.1,13.1,26.9,27.6,34c2.4,1.3,5.7,0.7,8.7,1c0-2.4,1-5,0.3-7.4
	c-2-8.7-4-17.5-10.4-24.9c-3-3.7-4.7-8.4-6.4-13.1C605.5,420.6,609.2,420.3,612.5,420.3c1.3,1.3,2.4,2.4,3.4,3.4
	c3,14.1,13.8,23.5,21.9,35.3c5.4-6.4,6.1-12.4,0.3-17.5c-7.1-6.4-14.8-12.1-22.2-17.8C614.9,422.7,613.9,421.7,612.5,420.3z
	 M656.9,405.9c0-0.3,0-0.7-0.3-1s-1-0.3-1.3-0.7c-2.7-7.7-6.4-15.1-8.1-22.9c-2-9.7-9.1-12.1-17.8-13.4c2,2.4,3.4,5,5.4,7.1
	c2.4,2.4,4.4,5,1,8.1c-4.7,4.4-2,8.1,1.7,10.8c5.7,4,11.8,7.1,17.8,10.4C655.5,404.5,656.2,405.2,656.9,405.9z M728.5,340.6
	c0,0.3,0,0.7,0.3,1s1,0.7,1.3,0.7c0.7,3,0.7,7.1,2.7,9.1c7.7,6.7,15.8,12.8,24.2,18.8c3,2,5-0.3,5.4-3.4c0.3-3.7,0-7.7,0-11.4
	s-1.7-5.7-5.7-6.4c-8.7-2-17.8-4.4-26.6-6.7C729.5,341.6,729.2,341.3,728.5,340.6z M523.1,458c0,0.3,0,0.7,0.3,1s1,0.3,1.3,0.7
	c-1,6.1-2,12.1-3,18.2c-1,6.7,3.4,10.1,8.7,12.1c5,2,10.4,9.1,15.5,3c1.7-2-1.7-10.1-4.4-14.1c-4.7-7.1-11.1-12.8-16.8-19.2
	C524.1,459,523.8,458.6,523.1,458z M647.1,412.2c0,0.3,0,0.7,0.3,1s1,0.3,1.3,0.7c3.7,10.8,14.8,11.8,22.5,11.8
	c9.1-0.3,17.8,1,26.6,1.3c8.7,0,9.4-1.3,6.4-9.1c-3.4-8.7-8.7-14.8-17.8-17.1c-7.4-2.4-14.8-4.4-25.9-7.4c4.7,7.1,7.1,10.8,9.4,14.8
	c3.4,5.4,1,9.4-5.7,9.1c-5-0.3-10.4-2.4-15.5-3.4C648.2,413.2,647.5,412.9,647.1,412.2z M488.8,302.6c4.7-0.3,7.1-2,4.4-7.1
	c-1.7-3-4-6.4-4.7-10.1c-2.4-11.1-10.1-14.1-19.8-15.1c-6.4-0.7-12.4-2.4-18.8-3.4c-2-2.4-4-4.7-5.4-7.7c-6.1-7.7-5.7-9.1,4.4-12.4
	c2.4-0.7,4.4-2.7,6.4-4c-3-3.4-6.1-6.7-9.4-10.1c-0.3-0.3-2.7,1.3-3.7,2.4c-18.2,23.9-25.2,50.1-20.8,79.7c0,2,1.3,4,2.7,5.7
	c0.3,0.7,1.7,1,2.7,1.3c0.3-1,1.7-2.4,1.3-3.4c-3-10.4,0-20.5,2.4-30.3c2.7-10.4,7.7-18.8,19.5-21.2
	C453.5,288.5,470.6,304.3,488.8,302.6z M620.9,373.2c0-0.3,0-0.7-0.3-1s-1-0.3-1.3-0.7c-0.7-2-0.7-4.4-1.7-5.7
	c-6.7-10.4-11.8-21.5-15.5-33.6c-3.4-10.8-10.8-20.2-16.5-30.3c-10.8,11.4-10.4,22.9-2.7,36c8.7,15.1,16.8,30.3,36.3,33.6
	C619.9,371.9,620.2,372.6,620.9,373.2z M728.8,264.3c-8.4,5-17.8,9.4-28.2,14.8c5,3,9.1,7.1,12.4,6.7c15.8-1.7,32.6,0.7,47.1-7.7
	c3.7-2.4,6.1-7.1,9.1-10.8c0.7-0.7,1.3-1.3,1.7-1.7c-0.3,0-0.7,0-1,0.3c-0.3,0.3-0.3,1-0.7,1.3C750,252.2,750,252.2,728.8,264.3z
	 M119,279.8c-15.5,7.1-20.2,22.9-27.6,36.3c-2.7,5-4.4,10.8-6.4,16.5c-0.3,1.3,0,3.4,1,4.4c1,0.7,3,1,4.4,0.3
	c15.8-6.7,29.6-16.5,39.7-29.9c13.1-17.1,25.9-34.6,29.6-56.5c8.7,1.3,12.8-4,14.8-11.4c1.3-4.7,1-10.4,0.3-15.8
	c-1.3,11.4-8.7,19.2-15.1,27.2C147.2,262.3,134.8,273.1,119,279.8z M536.2,415.6c0-0.3,0-0.7-0.3-1s-1-0.3-1.3-0.7
	c-2.4-6.1-5-11.8-7.1-17.8c-4.4-11.4,0-19.5,8.7-26.9c0.7,1.7,2,2.7,1.7,3.4c-5,15.5-5,29.6,8.1,41.7c2.4,2.4,3.4,6.7,5,10.1
	c1.7,3.4,3,7.7,5.7,9.4c9.7,5.4,11.8,15.5,13.4,24.5c1.7,8.4,5.7,13.4,12.1,18.2c5.4,4,9.4,10.1,14.1,15.1c2.7,3,5,6.4,8.7,11.1
	c2.4-15.1,1.3-25.5-9.1-36c-7.7-7.7-11.4-19.5-16.1-29.6c-3-6.4-5-13.1-14.8-10.8c-5.4,1.3-8.1-3.7-7.4-8.1
	c2-11.8-3.7-20.5-8.7-29.9c-0.7-1.3-2.7-2.7-2.7-4c0.3-6.1,1.7-11.4-3.4-16.5c-3.7-3.7-5.4-9.4-9.1-16.1c-3.4,8.1-6.1,14.8-9.1,21.2
	c-3.7,7.7-7.7,15.5-12.4,22.5c-3,4.4-5,6.7,2,9.1c7.1,2.4,13.4,6.1,20.2,9.4C535.2,414.6,535.5,414.9,536.2,415.6z M495.5,269.4
	c-3.4,3.7-4.4,7.7,0,10.8c2.7,7.1,5.7,13.8,9.1,20.8c1.7,4,1.7,8.4-3.7,8.4c-13.8,0-28.2,4.7-39.7-9.1c-0.3,15.8,3.7,24.9,22.9,50.8
	c1.7-3.4,3.7-6.4,5-9.4c5.7-11.8,17.5-18.5,24.9-28.9c3-4.4,7.1-8.1,10.8-12.1c3.7-4,8.1-4,9.1,1.3c2,9.4,3.4,18.8,4,28.6
	c1,14.5,4.4,22.9,14.5,32.9c6.4-9.7,5.4-20.5,5-30.9c-0.7-24.5-18.2-40.7-29.9-59.5c-0.7-1.3-3.7-1.7-5.4-1
	c-6.1,2.4-11.8,5.4-17.8,7.7c-2.7,1-5.7,0.3-8.7,0.3C495.5,276.8,495.5,273.1,495.5,269.4z M477.7,376.6c0-1.3,2-3,3.4-3
	c1.3,0,3.4,1.3,3.7,2.7c0.7,2.4,1.3,5,1.3,7.7c0,4.4,0,8.7,0,13.1c0.3,12.1,2,23.2,16.5,27.2c2.7,0.7,5.4,3.7,7.4,6.1
	c7.4,7.7,14.8,15.8,21.5,24.2c8.7,10.4,16.8,21.5,25.5,32.9c5-4.4,7.4-10.8,7.1-18.2c-0.7-13.4-4.4-25.5-16.1-33.6
	c-9.4-6.4-18.5-12.8-27.9-19.2c-4-2.7-7.1-4.7-13.1-3.7c-9.4,1.7-14.1-4.7-11.8-14.5c2.7-12.8-5.7-22.9-7.7-34.3c0-1-3-2-4-1.7
	c-7.1,2.4-12.8-0.7-18.8-2.7c-6.4-2-9.4,1-7.7,7.4c3,11.1,5.7,22.5,18.2,29.2C475.7,388.7,476,382.3,477.7,376.6z M273.3,372.9
	c3.4,9.4,6.4,9.7,13.8,3.4c7.7-6.4,12.1-15.1,15.8-24.2c2-4.4,2.7-10.4,6.1-13.1c8.4-7.1,9.1-16.5,6.7-25.2
	c-2.4-8.7-7.7-16.1-12.1-24.2c-0.3-0.7-4.7,0.3-5,1c-3.7,14.1-13.1,24.9-21.9,35.6c-6.7,8.1-6.4,16.8-7.1,26.2
	C270.6,359.1,271,366.2,273.3,372.9z M722.4,324.2c5.4,6.7,13.4,12.1,22.9,14.1c11.8,2.4,22.9,5.4,34.6,7.1
	c6.7,1,13.1-9.1,10.1-15.5c-0.7-1.7-3-3-5-3.4c-4-0.7-8.7,0.3-12.8-1c-6.7-2.4-13.1-5.4-15.8-12.8c-5.7-15.5-10.1-18.5-26.6-19.2
	c-9.1-0.3-18.2-1-27.9-1.3C708.7,303,714.4,314.4,722.4,324.2z M359.7,380.6c-7.1,15.5-7.4,30.9,0.3,46.4c2.7,5.4,4.4,11.1,6.7,17.5
	c15.1-9.4,17.5-26.6,22.5-41.7c5.7-16.8-2-32.6-6.4-49.8C372.5,360.8,365.1,369.9,359.7,380.6z M259.5,250.2
	c-5.7-11.8-17.5-13.1-28.2-15.5c-3.7-0.7-6.1-8.1-10.8-3.7c-5.7,5-12.4,10.4-14.5,16.8c-1.3,4.7,4,11.4,6.7,17.1
	c0.3,0.7,4.7,0.7,5.4-0.3c3.4-5.4,6.4-11.1,9.7-16.5c1-1.3,2.4-2.7,3.4-2.7c1.3,0,2.7,1.7,3,3c1,2.7,2.4,5.7,1.7,7.7
	c-5,13.8,5.4,20.8,12.4,29.2c2.7,3,9.1,6.4,12.1,5c5.4-2,11.8-6.1,9.7-14.5c-0.3-1.7,0-3.4,0-6.1C270,262.6,271.6,253.2,259.5,250.2
	z M717.1,371.2c-5.4,0.7-5.4,2.4-4.4,7.4c4,18.5,20.2,25.9,31.9,37c0.7,1,1.7,1,2.7,1.7c3.7,2.7,8.7,8.1,11.4,7.1
	c6.4-1.7,3.7-9.1,4-14.1c2-24.5-7.7-37-36-51.1C726.5,369.5,726.5,369.9,717.1,371.2z M329.5,272.1c0,2,1,4,2,5.7
	c9.7,17.1,19.8,34.3,29.9,51.4c1,1.3,1.7,2.7,2.7,4c8.1,10.1,13.8,9.4,19.5-2.4c2-4.4,4-8.7,5-13.4c1-5.4,0-10.8-5-14.1
	c-15.1-10.8-30.6-21.5-46.1-32.3c-1.7-1.3-3.7-2.4-5.7-3.7C330.8,269,329.5,270.4,329.5,272.1z M473.3,446.5
	c-0.7,7.7,4,15.1,11.1,20.5c8.4,6.4,16.5,13.1,25.5,20.5c6.1-11.8,7.1-23.9,0.7-37c-5.7-11.4-12.4-21.2-24.5-26.9
	c-5-2.7-7.7-9.4-13.1-16.5C472,422,474,434.1,473.3,446.5z M421.2,395.8c-2,0-4.7,0.3-5.7,1.7c-1,1-1,4.4,0,5.7
	c6.4,8.4,10.1,18.8,19.2,25.5c7.4,5.4,13.4,12.1,20.5,18.2c1.3,1.3,4,2.7,5.4,2c1.3-0.7,2-3.4,2.4-5.4c1-6.1,2.4-11.8,3-17.5
	c0.7-4.4,0.7-8.7,0-13.1c-1.7-13.4-3.7-15.1-17.5-15.1c-1.7,0-3.4,0-5,0c-0.3,0.3-0.3,0.7-0.3,1
	C435.7,397.4,428.3,396.1,421.2,395.8z M239.4,309.7c4.7-2.4,11.1-4,13.1-8.1c3-5.7-5.7-6.1-8.4-9.7c-4.4-6.1-9.1-13.1-15.1-15.8
	c-5.7-2.4-13.4,1-20.5,1.3c-8.1,0.3-16.1-0.3-24.2,0c-4.7,0.3-9.7,1-14.1,3c-18.8,8.4-15.8,10.4-2.7,22.5c1.7,1.7,6.1,2.7,8.4,1.7
	c16.1-7.1,34.6-8.1,48.1-21.5c3.7-3.7,9.1-2,9.7,3c1,7.7,0.3,15.8,0.3,24.9C235.3,310.7,237.3,310.4,239.4,309.7z M136.8,331.6
	c0.3,2.7,0.7,5.7,0,8.1c-4.7,15.1,5.7,24.2,13.8,33.6c4,5,9.4,5,13.4,0c2.4-3,4.7-7.7,4.7-11.4c-0.3-8.1-2-16.1-3.4-23.9
	c-0.3-1-1-1.7-1.7-2.7c-5.7-10.1-11.8-20.5-18.2-31.9C138.5,313.1,135.8,321.8,136.8,331.6z M24.9,270.4c-1,2.7-0.7,6.4,0.7,8.7
	c1.3,2.4,5,4.4,7.4,4c6.4-1,12.1-3.7,18.5-5.4c1.7-0.7,3.7,1,5.7,1.7c-1,1.3-2,3.4-3.7,4c-4.7,1.7-9.4,2.4-14.1,3.7
	c-10.4,3-17.8,9.7-21.9,19.8c-1,3-0.7,7.7,0.7,10.4c0.7,1.7,6.1,2,8.7,1c9.1-3.4,17.8-7.4,26.6-11.8c2-1,3.7-3.4,4.7-5.7
	c3.7-7.4,6.7-14.8,10.4-21.9c2.4-5,0.3-7.4-4-8.1c-5.4-1-10.8-0.3-16.1-0.7c-6.1-0.7-13.4,2.7-17.8-5.7
	C28.6,266.7,25.5,268.4,24.9,270.4z M815.6,308.4c0.3,2.7,0.7,5.4,1.7,7.7c4.7,13.1,9.7,26.2,14.8,39.3c2,6.1,5,6.4,9.1,1.3
	c6.4-8.1,6.4-10.8,0-19.8c-1-1.3-1.3-3.7-0.7-5.4c7.7-20.8,4-34-13.8-49.8C820.3,289.5,812.2,296.6,815.6,308.4z M684.1,356.8
	c-9.4-4.4-15.1-12.1-19.2-21.2c-1.3-2.7-3-6.7-6.7-3.7c-2.4,2-5,6.7-4.4,9.1c2,7.4,5.7,14.8,9.1,22.2c2.4,5.7,4,9.7-4,12.4
	c-5,1.7-4.4,6.1-0.3,8.4c3.7,2,8.1,2.7,12.1,3.7c4,1,8.4,1.3,12.4,2.7c9.7,3.4,15.1-1.3,14.1-10.8
	C694.9,370.2,693.5,361.1,684.1,356.8z M882.1,398.8c1.7-0.3,4.7-4.4,4-5.7c-4.4-11.4-3.4-24.2-10.4-35c-3.4-4.7-5.7-10.1-8.7-15.1
	c-2.7-4.4-10.4-5.4-11.8-1.3c-2.7,8.7-4.7,17.5-7.4,28.6C847.2,384,866.7,401.8,882.1,398.8z M218.2,296.6
	c-9.1,3.4-18.2,6.7-27.2,10.4c-3,1.3-5.7,2.7-8.7,4.4c-16.5,8.4-18.2,17.8-5.7,31.3c0.7,0.7,2.7,1.7,4,1.3c11.8-2,44-32.6,46.7-44.4
	c0.3-1,0.3-2.4,0-3c-0.7-1-2-1.7-3-2.7C221.9,295.2,219.9,295.9,218.2,296.6z M816.2,351.4c-0.3,3-0.3,6.1-0.7,9.1
	c-1,7.7-4.7,15.5-1,23.5c1,2,1,5.7-0.3,7.7c-3.7,5.7-0.7,10.1,2,14.8c1.7,2.7,4,5,5,8.1c3.7,10.4,5,9.1,11.4,2.7
	c5.7-5.4,8.7-12.1,8.4-20.2c-0.3-6.4,0-13.1-0.3-19.5c0-1.7-2-4.7-2.7-4.7c-10.4,2.4-9.1-5.4-10.8-11.4c-1.7-6.7-4.4-13.1-6.7-19.8
	c-1,0-1.7-0.3-2.4-0.7C817.6,344.3,816.9,347.7,816.2,351.4z M564.8,409.9c-0.7,5,1.3,7.4,6.4,6.4c14.8-2.7,16.1-3.7,21.9-17.1
	c1-2.4,1.3-6.1,0-8.4c-4.7-8.1-7.4-16.5-6.4-26.2c0-1.3,0.3-3.7-0.3-4.7c-2.4-3.4-4.7-7.4-8.1-9.4c-3-1.7-10.4,5.4-10.8,10.1
	c-0.3,7.1,0,14.1,0,21.2c0.3,0,0.7,0,1,0C567.1,391.1,565.8,400.8,564.8,409.9z M365.4,350.4c1-2,0.7-5.4-0.3-7.1
	c-7.1-11.4-14.1-22.9-21.2-34.3c-1.7-2.7-3-5.7-5-8.1c-2.4-2.4-5-4.4-7.7-6.7c-2,3-5,5.7-6.4,9.1c-4,10.8-0.3,20.2,6.1,28.6
	c8.1,10.8,17.1,20.8,27.2,32.9C360.7,359.5,363.4,355.1,365.4,350.4z M526.1,314.7c-6.4-2.4-8.7,4.4-11.4,8.7c-1,1.7-2.4,3.7-4,5
	c-17.1,15.8-15.8,34.3-7.7,53.8c0.7,1.3,2.4,3.4,3,3.4c1.7,0,4-1.3,4.7-2.7c8.7-17.5,16.8-35,17.8-56.5
	C527.8,323.5,528.1,315.8,526.1,314.7z M45,392.7c11.1,8.4,17.1,20.5,24.9,31.6c1.7,2.4,1.3,6.1,2.4,9.1c0.7,2.4,2.4,4,3.7,6.1
	c1.7-2,3.7-3.7,5-5.7c1-1.7,1.3-4,2-6.1c6.4-19.2,6.4-19.2-6.1-34.6c-1.7-2-4.4-3.7-5-6.1c-1.3-5.4-4-4.4-8.4-3.4
	c-9.4,2-9.4,1.7-15.5-8.7c-1-1.3-3.7-2.4-5.4-2.4c-1,0-2.7,1.7-3,3c-0.7,2-0.7,4-1,9.1C40,386.4,41.7,390.1,45,392.7z M61.2,437.8
	c1.3-7.1,0-13.8-4.4-19.8c-3.7-5-7.7-10.1-11.8-15.1c-1.3-1.3-3.7-3.4-5-3c-1.3,0.3-3.4,3-3.7,4.7c-1.3,5.7-2.7,11.4-3.4,17.1
	c-1,7.1-0.3,13.4,4.7,19.5c6.1,7.7,11.1,16.5,17.1,25.9C56.8,457.3,59.5,447.5,61.2,437.8z M468.3,344.3
	c-8.4-10.8-12.1-23.9-16.5-36.6c-1-3.4-3-8.1-1.7-10.8c2.7-5.4-0.3-8.4-3-11.4c-1.3-1.7-3.7-3.7-5.7-3.7c-1.3-0.3-3.4,2.4-4,4.4
	c-9.1,25.5,1.3,56.5,26.6,64.5c2.4,1,4.7,2,9.4,4C471,349.7,470.3,346.7,468.3,344.3z M217.2,334.9c-8.7,13.4-19.5,25.2-30.3,38.7
	c13.4,2.4,24.2-1,31.9-11.1c10.8-13.8,22.2-27.2,27.2-45.7C233,318.8,224.2,324.2,217.2,334.9z M415.2,436.4c1.3-8.4-2-17.5-4-26.2
	c-1.3-4.7-3.7-8.7-6.4-14.8c-8.1,13.1-14.5,25.2-11.1,41.3c2,9.7,0.3,20.2,0.3,32.9C408.1,460,413.2,448.2,415.2,436.4z M626,314.4
	c0.7,1.7,3.7,2.7,5.7,3.7c1.7,1,3.7,1,5.7,1.3c4.7,1,3.4,10.4,9.7,7.4c1.3-0.7-1-8.4-1.3-13.1c0-2.4,0-4.7,1-6.4
	c5.4-11.4-1.3-21.9-2-32.9c0-1.3-3-3.7-4.4-3.4c-3.7,0.7-8.1,1.7-9.7,4c-4.7,7.1-9.4,14.8-9.1,24.2
	C622.9,304.3,623.6,309.7,626,314.4z M228.3,377.3c8.7-4.7,17.5-8.7,25.5-14.1c4.7-3,7.7-7.1,4.4-13.8c-3-6.1-0.3-12.8,3-18.5
	c2.4-4.4,5.4-8.4,7.1-12.8c0.7-1.7-1.7-4.7-3-6.7c-0.3-0.3-4,0.7-4.7,2c-3.4,5.7-10.4,9.4-10.1,17.8c0,2.7-3.4,5.4-5,8.1
	c-7.4,10.8-14.8,21.5-21.9,32.3c-0.7,1.7,0,4,0,6.1C226.2,377.6,227.6,377.9,228.3,377.3z M673,461.7c-1.3-10.8-9.1-16.8-13.8-24.9
	c-0.7-1-2.7-2-4-1.7s-2.4,2-2.7,3.4c-0.7,3,0,6.7-1.3,9.4c-2.7,6.7-6.1,12.8-1.3,20.8c5.4,9.4,11.8,16.5,22.2,19.8
	c2.4,0.7,5,1,8.7,2C677.7,479.8,673.7,470.7,673,461.7z M801.4,403.2c5.4-9.4,3-18.8,3-28.2c0-0.7-2-2.4-3.4-2.4
	c-14.5-0.7-23.9,7.7-24.9,22.9c-0.7,4.4-0.3,8.7-0.3,13.1c0,3.4,0,6.4,0,11.4C786.7,414.6,796.1,413.2,801.4,403.2z M312,389
	c7.7-7.4,15.8-14.5,22.5-22.9c6.4-8.1,5.4-11.1-2.4-19.2c-3.7-3.4-7.1-10.4-12.8-7.1c-4.4,2.7-8.4,9.1-9.1,14.1
	c-1.7,11.1-1.3,22.2-1.7,35C308.6,389,311,390.1,312,389z M486.1,263c7.1-2.4,13.4-5,12.8-14.5c-0.3-5,1-10.4,1.7-15.5
	c-5.4,2-11.1,3.4-16.1,5.4c-9.7,4-19.5,8.4-29.2,13.1c-1.7,1-3,3-3.7,4.7c-0.3,0.7,1.7,3,3,3.4c6.7,2,13.4,3.7,16.8,4.7
	C478.7,263.6,482.8,264.3,486.1,263z M665,520.8c1,14.5,15.1,23.9,28.9,19.5c1-0.7,2.4-3.7,1.7-5c-3.4-8.7-7.4-17.5-11.4-25.9
	c-1.3-2.7-3-6.1-5.4-7.7c-3-2.4-7.1-3.7-10.8-5.4c-0.7,3.4-2,6.7-2.7,10.1c-0.3,1.3-0.3,3-0.3,4.7l0,0
	C665,514.4,665,517.5,665,520.8z M414.5,354.1c7.4,7.4,17.8,7.7,26.9,10.1c4,1,5-3,5-6.4c0.3-10.4-6.4-17.1-13.1-22.9
	c-6.7-5.4-15.5-3.4-22.9,1c-3,2-5.7,4.7-8.4,7.1C406.4,347,410.8,350.4,414.5,354.1z M24.2,405.2c10.1-19.5,11.1-36.3,3.4-51.1
	c-7.7,4.7-15.5,9.1-24.2,14.1C10.1,380.6,17.1,393.1,24.2,405.2z M330.5,230.4c-7.4,6.4-1.7,14.1-1,21.9c0.3,7.1,6.1,8.7,10.8,10.8
	c5.7,2.7,12.1,4.7,18.2,6.4c1,0.3,3-2.7,4.4-4.4c-8.7-7.1,1-9.1,3.7-12.1C354,245.2,342.2,237.8,330.5,230.4z M594.4,370.6
	c6.1,25.5,23.2,40.7,42,57.5C637.4,396.8,617.2,384,594.4,370.6z M799.1,291.2c-6.7,6.7-13.8,11.8-23.9,12.1c-3,0.3-6.7,3.4-8.1,6.1
	c-0.7,1.3,2.7,5.7,5,7.4c7.4,5.4,24.9,3,31.3-4c1-1,2.7-2.7,2.7-3.7c-0.7-5.7-2-11.1,3.4-16.1c3.7-3.7,5.7-8.7,8.4-13.1
	c-0.3-0.7-1-1-1.7-1.7C810.5,282.5,804.5,286.5,799.1,291.2z M798.4,282.1c1-1.3,1.7-4,1-5.4c-4.4-8.1-19.5-9.7-24.9-2
	c-4,5.7-8.7,9.4-14.5,12.4c-2,1-3.7,3.4-5.4,5c2.4,2.4,5,5,6.7,6.7C776.2,296.6,790,294.6,798.4,282.1z M97.8,343.7
	c-11.1,6.4-18.2,20.2-16.1,32.3c0.7,4.4,3,5.7,6.7,4.7c10.4-2.7,17.1-11.4,18.8-25.2c0.7-5.7,1.3-11.4,2-18.5
	C104.9,339.6,101.2,341.6,97.8,343.7z M110.3,397.4c17.5-2.7,17.8-2.7,20.2-20.2c0-1,0-2,0.3-3c1-4,5.4-8.7,0-11.1
	c-2.7-1.3-8.1,2-11.1,4.7c-9.7,8.4-18.8,17.1-21.2,32.3C102.9,399.1,106.2,398.1,110.3,397.4z M632,495.3c5.4,9.1,9.4,18.2,4,28.9
	c-0.7,1.7,0.3,4.7,1.7,5.7c1.3,1,4.7,1,5.7,0c4.7-4.4,9.4-9.1,12.4-14.5c4.4-8.4,2-13.8-5.7-19.2c-5-3.7-10.1-7.4-15.1-11.1
	c-0.7-0.3-2-1-2.4-0.7c-1,1-2,2.4-3.4,3.7C630.3,490.9,631.3,493.3,632,495.3z M422.9,441.2c-8.4,13.8,0.3,25.2,5.4,37
	c0.3,1.3,3,3,3.4,2.7c1.7-1,3.7-2.7,4-4.4c0.7-2.4-0.7-5-1-7.7c-0.7-5-6.4-12.4,6.1-11.4c3.7,0.3,4.7-10.1,1.3-13.1
	c-5.4-4.4-11.1-8.4-17.1-12.8C424.3,435.1,424.3,438.5,422.9,441.2z M54.1,334.2c8.1-5.4,16.1-10.8,23.5-16.8c2.4-2,3.7-5.7,5.7-8.7
	c-3-0.7-6.1-1.7-9.1-2c-8.7-0.7-15.5,4-21.2,10.1c-5.4,5.4-8.7,11.8-7.1,21.2C49.4,336.6,51.8,335.9,54.1,334.2z M125.4,262.6
	c9.7-4.4,8.4-13.8,7.1-23.5c-13.1,18.5-32.6,24.2-52.8,29.6C96.5,276.1,111.3,269.4,125.4,262.6z M70.3,329.2
	c-8.4,8.1-17.5,16.1-21.2,27.9c-0.7,1.7-1.3,4.7-0.3,5.4c1.3,1.3,4,1.7,5.7,1.3c8.4-2.7,13.1-9.1,16.8-16.5
	c2.4-5.4,4.7-10.8,6.4-16.5c0.3-1.3-1.7-3-2.7-5C72.6,327.5,70.9,328.2,70.3,329.2z M202.4,266c0-0.7,0.3-2.4-0.3-3.4
	c-6.4-13.8-6.4-13.8-20.5-8.1c-2.4,1-4.7,2.4-7.4,3c-7.7,2.4-7.7,2.4-11.4,14.1C176.8,269.7,189.6,267.7,202.4,266z M802.8,324.2
	c-2.4,6.4-4.7,13.1-6.4,19.8c-1.3,5-2.4,10.4-3,15.8c0,1.3,0.7,4,1.3,4c1.7,0,4.7,0,5.7-1c3-3.7,6.4-7.7,7.4-12.1
	c1.3-5.7,1.7-11.4,5.7-16.5c3.7-4.7-0.3-9.1-3-13.1c-0.7-0.7-2-0.7-4.7-1.7C805.1,320.5,803.5,322.5,802.8,324.2z M439,371.6
	c-5.7-1-11.4-3-16.8-4.4c-0.3,19.2,4.7,22.2,31.6,19.5C450.8,372.9,450.8,373.2,439,371.6z M518.7,257.3c0-6.7,2-13.8,2.4-20.5
	c0.3-3.7-2.7-5.7-6.4-5c-2,0.7-5.4,2.4-5.7,4c-2,10.1-3.4,20.8-5,32.9C513.3,267.7,518.7,266.3,518.7,257.3z M90.8,279.8
	c-8.4-3.4-13.1,1-17.1,7.1c-2,3.4-2.4,7.7-3.4,11.4c4.4,0.3,9.4,2,12.4,0.3c7.1-4,13.8-9.4,20.5-14.5c-0.3-1.3-1-2.4-1.3-3.7
	C98.2,280.5,93.8,281.5,90.8,279.8z M36.6,256.3c-8.4-12.8-8.7-13.1-17.8-10.1c-5.4,1.7-13.4,2.7-13.8,9.1c0,4.7,5.4,9.7,8.4,15.1
	C23.9,257.9,23.9,257.9,36.6,256.3z M820.9,242.5c-0.3-2.4-1.7-4.7-2.4-7.1c-2.4,2-4.7,3.4-7.1,5.4c-0.7,0.7-0.7,1.7-1.3,2.7
	c-9.1,17.1-7.7,20.5,12.4,25.5C822.3,259.6,822,251.2,820.9,242.5z M619.9,343.3c7.1,8.7,13.4,16.1,23.9,18.2c6.1,1,9.7-3,6.7-8.4
	c-4-7.1-9.1-13.8-14.8-21.9C634,345,634,345,619.9,343.3z M272.3,302.3c-0.3,1.3,0.7,4.4,2,5c1.3,1,4.4,0.7,5.7-0.3
	c8.7-6.1,10.4-16.1,11.1-25.5c0-3-5.7-6.7-9.4-11.1C278.4,282.5,275.3,292.6,272.3,302.3z M603.4,245.2c-1,0-2.4,3.4-2,4.7
	c0.7,3,2.4,5.7,4.4,8.4c7.4,9.7,10.4,9.7,16.8-1.3c2-3.7,3.7-7.7,5.4-11.8c0.3-0.7-1.3-2.4-1.3-2.4
	C618.2,243.5,610.8,244.1,603.4,245.2z M397,371.6c5.7,4.4,11.4,15.5,17.5,11.1c7.4-5-3-12.8-5-19.5c-0.7-2.4-3.4-4.4-5.4-6.1
	c-2.4-1.7-5.4-2.4-8.1-3.7c-0.7,2.7-1.3,5-2.4,8.4C394.7,364.8,394.7,369.9,397,371.6z M395.7,270.7c-4.7,1.3-4.4,4.4-1.7,7.1
	c5.4,5,11.1,9.4,18.5,15.5c1-10.4,2-18.8,3-27.6C408.8,267.3,402.4,269,395.7,270.7z M69.3,262c1.7,1,6.1-0.7,8.1-2.4
	c2.7-2,5-5.4,7.1-8.4c3-4.7,2-6.7-3.4-6.7c-5.4,0-10.8,0-16.1,0.7c-2.4,0.3-4,2.7-7.4,5.4C61.5,254.9,64.9,259.3,69.3,262z
	 M385.6,281.5c1-5-0.7-10.1-4.4-10.4c-4.7-0.3-10.1,2.7-14.8,4.4c-0.3,0.3,0,4.4,1.3,5.4c5.7,5,11.8,9.4,18.8,14.8
	C385.9,289.9,384.6,285.5,385.6,281.5z M116.7,357.4c1,0.3,2.4,0,3-0.7c1.7-1.3,3-3,3.7-5c2.4-7.1,4.4-14.5,6.1-21.5
	c0.3-2-0.7-4-1-6.1c-2.4,0.7-4.7,1-6.7,2.4c-1.7,1-3.4,3.4-3.7,5c-1,8.1-1.7,15.8-2.4,24.5C115.3,356.1,116,357.1,116.7,357.4z
	 M576.5,483.2c-0.7-0.7-2-0.3-3-0.3c0.3,1,0,2,0.3,3c1,3.4,2,7.1,3,10.4c2.4,9.4,5.4,11.4,18.5,10.8C590,498,587,488.2,576.5,483.2z
	 M784,363.8c0.7-1-0.3-4.4-1.3-5c-3.7-2-7.4-3.7-11.8-5.7c-1.3,10.4-2.7,19.8-4,30.9C773.2,376.6,778.6,370.6,784,363.8z
	 M12.8,297.6c5.7-4,4.7-9.1,2.4-13.8c-1-2.4-4-4-6.1-6.1c-1.7,3-5,6.1-5,9.1c0,5.7,2,11.4,3.4,18.2C10.1,302,11.1,299.3,12.8,297.6z
	 M340.2,383.3c2.7,1.3,7.4,3,8.4,2c2.7-3,5-7.1,5.4-11.1c0-2.4-3.4-5.7-5.7-7.1c-1-0.7-4.4,1.3-6.1,3c-2.4,2.4-3.7,5.4-5.7,8.7
	C337.9,380.6,338.9,382.7,340.2,383.3z M411.5,302.6c-3.4-4.4-8.4-8.1-12.8-11.8c-0.3,0-3.7,2.7-3.7,3.7c0.3,2.7,1.3,5.4,3,7.1
	c4.4,4.7,9.1,9.1,13.4,13.4c0.7-0.3,1.7-0.7,2.4-1C413.2,310.4,413.2,305.7,411.5,302.6z M562.8,510.7c6.7,2.4,9.7-0.7,8.4-7.7
	c-0.7-2.7-0.7-5.4-1.7-7.7c-0.3-1-3.4-2-3.7-1.7c-4,3.4-7.4,7.4-11.8,12.1C557,507.7,559.4,509.7,562.8,510.7z M24.5,336.9
	c1.7-3,1.3-6.4-3-7.4c-3.7-0.7-8.1-0.7-8.4,4.7c-0.3,5,0,10.4,0,15.8c0.7,0.3,1.7,0.7,2.4,1C18.8,346.3,22.2,342,24.5,336.9z
	 M178.8,355.8c-1.7,1.3-2.4,4.7-2.7,7.1c-0.3,1.3,0.7,3.4,1.7,4c1,0.3,3.4,0,4.4-1c5.7-4.7,11.1-9.7,12.4-20.2
	C188.6,349.7,183.6,352.4,178.8,355.8z M145.9,403.2c2.7-2.4,5.7-5,8.7-7.7c-3.4-3.4-6.4-6.7-9.4-10.1c-2,3-4.4,5.7-7.1,9.4
	C141.2,398.1,143.5,400.8,145.9,403.2z M653.5,268.4c1.3,2.7,5.7,3.7,9.1,4.4c1.3,0.3,3.7-2.4,4.4-4c0.3-1.3-0.3-4.4-1.7-5.4
	c-3.7-2.7-7.7-5-13.1-8.4C652.5,260.6,651.5,265.3,653.5,268.4z M408.8,324.5c0-2.4-4.4-5-7.1-7.4c-2.4,3.4-4.7,6.4-6.1,10.1
	c-0.3,1,3,3.4,5.4,6.1C404.1,329.5,408.5,327.2,408.8,324.5z M610.8,509.7c-0.3,1,0.7,2.7,1,4c1.3-0.7,3.4-1,3.7-2
	c3-9.1,7.1-18.5,3.4-29.9C615.9,492.6,613.2,501,610.8,509.7z M711,409.2c2,1.3,5,0.3,7.4,0.3c-1-2-1.7-4.4-3-5.7
	c-3-3-6.4-5.4-10.4-8.7C703.3,403.2,707.3,406.2,711,409.2z M683.5,231.7c-7.1,6.1-8.7,12.1-7.4,19.8
	C679.4,245.8,685.1,241.1,683.5,231.7z M58.5,373.2c13.8,1,13.8,1,15.1-10.4C68.6,366.2,63.9,369.2,58.5,373.2z M562.4,376.6
	c0.3-1.3-0.7-2.7-1.3-4c-1.3,0.7-3.4,1.7-3.4,2.7c-0.3,4.4,0,8.4,0,12.8c0.3,0,1,0.3,1.3,0.3C560.4,384.3,561.8,380.6,562.4,376.6z
	 M40.3,356.4c1.3-2.7,3-5,4-7.7c0-0.3-2.4-2.4-3.4-2.4c-1.7,0-3.4,1-5.7,2C37.3,351.7,38.7,354.1,40.3,356.4z M317,295.2
	c2.7-2.4,5.4-4.7,7.7-7.4c0.3-0.3-0.7-1.7-1-2.7c-3.4,2.4-6.4,4.7-10.1,7.1C315.7,293.6,317,294.9,317,295.2z M529.1,240.5
	c-0.3,0.3-0.3,1.3,0,1.3c0.7,0.3,2,1,2.4,0.7c2-2.7,4-5.4,6.1-8.1c-0.7-0.7-1.3-1-2-1.7C533.2,235.1,531.2,237.8,529.1,240.5z
	 M90.1,389c-0.7,0.7-1,1.7-1.3,2.7c0.7,0,1.7,0.7,2.4,0.3c0.7-0.3,1-1.3,1.7-2.4C91.8,389.4,90.4,388.7,90.1,389z M159,307
	c0,0.7-0.3,1.3-0.3,2c0.7,0,1.3,0,1.7-0.3c0.3,0,0.3-0.7,0.3-1C160.4,307.4,159.7,307,159,307z"/>
</svg>
