<?xml version="1.0" encoding="utf-8"?>
<!-- Generator: Adobe Illustrator 18.0.0, SVG Export Plug-In . SVG Version: 6.00 Build 0)  -->
<!DOCTYPE svg PUBLIC "-//W3C//DTD SVG 1.1//EN" "http://www.w3.org/Graphics/SVG/1.1/DTD/svg11.dtd">
<svg version="1.1" id="Layer_1" xmlns="http://www.w3.org/2000/svg" xmlns:xlink="http://www.w3.org/1999/xlink" x="0px" y="0px"
	 viewBox="0 0 304.6 98.6" enable-background="new 0 0 304.6 98.6" xml:space="preserve">
<path d="M55.3,17.5c-0.3,0-0.6,0-1,0c-2.1,0.2-1.1-1.8-1.8-2.4c-0.8-0.7-2.3-0.5-3.4-0.8c-0.2-0.1-0.3-0.8-0.3-1.2
	c-0.2-1.7-0.4-3.3-0.6-5.1c-3.1,1.7-5.6,3.4-8.3,4.6c-4.3,2-8.2-0.6-8.6-5.4C31.2,5.6,31,4,30.8,1.8c-0.9,1.3-1.5,2-2,2.7
	c-1.8,2.4-3.9,4.2-6.9,4.9c-1.6,0.4-3.1,1.1-4.8,1.6c-0.4,0.1-1.4-0.2-1.4-0.4c-0.2-1.9-1.3-1.2-2.4-1c-1.5,0.2-2.5-0.2-2.7-1.9
	C10.4,6.4,9.9,5,9.5,3.5C7.2,3.7,7.1,5.9,6,7.1c-1.8,2.1-3.1,2-4.2-0.7C1,4.4,0.6,2.1,0,0c1,0,1.9,0,2.9,0c0.2,1.5,0.4,3,0.7,4.5
	c2.2,0,2.7-1.8,3.5-3.3C7.3,0.8,7.5,0.4,7.8,0c1.3,0,2.6,0,3.9,0c0,1.6-0.1,3.2,0.2,4.8C12,6,12.7,6.7,14.2,6c2.5-1.3,3.8-3.3,4.2-6
	c1,0,1.9,0,2.9,0c-1.6,2.6-3.6,5.1-3.4,8.5c5.4-0.9,8.8-4.1,11.2-8.5c1.3,0,2.6,0,3.9,0c0,1.9,0,3.8,0.2,5.6c0,0.3,1.1,0.8,1.3,0.7
	c1.2-1,2.4-2.1,3.2-3.4c0.5-0.7,0.1-2,0.2-3c1.6,0,3.2,0,4.9,0c-1.3,1.5-2.7,3.1-4,4.6c-0.8,1-1.9,1.8-2.4,2.9
	c-0.3,0.7-0.1,1.9,0.3,2.6c0.2,0.3,1.5,0.4,2.1,0.1C41,9,43.2,7.5,45.6,6.4c1.6-0.8,2-1.9,1.9-3.5c0-1,0-1.9,0-2.9c1,0,1.9,0,2.9,0
	c-0.3,1.5-0.6,3.1-0.8,4.6c-0.5,4.2,0.9,8.5,5.5,8.9c2.2,0.2,2.9-0.3,2.9-2.5c0.1-3.7,0-7.3,0.1-11c0.6,0,1.3,0,1.9,0
	c0.2,0.6,0.5,1.1,0.7,1.7c0.4-0.6,0.8-1.1,1.2-1.7c0.6,0,1.3,0,1.9,0c0,1-0.1,1.9,0.1,2.9c0.6,4.5,3.2,7.5,7.2,8.4
	c3,0.7,4.2-0.1,4.3-3.2c0.1-2.7,0-5.4,0-8.1c0.6,0,1.3,0,1.9,0c0,2.5,0,5.1,0.1,7.6c0,1,0.2,2,1.5,1.9c1.3-0.1,1.3-1,1.2-2.1
	C80,5,79.8,2.5,79.5,0c0.6,0,1.3,0,1.9,0c0,1.6-0.1,3.2,0.2,4.8c0.3,2.1,4.2,5,6,4.7c1.4-0.3,2.5-2.3,2.5-5.1c0-1.4,0-2.9,0.1-4.3
	c0.6,0,1.3,0,1.9,0c0,1.9,0.1,3.9,0,5.8C92,7,91.6,8.3,91,9.4c-1.9,3-1.8,3.4,1.3,4.7c1.2,0.5,2.5,0.8,3.6,1.4
	c0.8,0.4,1.8,1.2,1.9,1.9c0.3,2,1.8,3,3,4.3c1.7,1.8,3.5,3.4,5,5.2c0.5,0.6,0.4,1.7,0.5,2.5c-0.8-0.4-1.8-0.5-2.4-1.1
	c-1.2-1.1-2.1-2.4-3.2-3.6c-1.2-1.3-2.2-1.6-3.6-0.1c-4.3,4.6-6.6,9.8-6,16.2c0.2,1.4,0.9,2.2,2.2,1.8c3.9-1.1,7.4-3.1,10.1-6.2
	c1.5-1.8,2.8-3.9,4.2-5.8c2.1-2.9,2.9-8.3-1.3-12c-4.1-3.6-6.5-8.4-7.4-13.8c-0.3-1.9-1.2-3.3-2-4.8c1.3,0,2.6,0,3.9,0
	c2.3,3.1,5.3,5.9,5.2,10.3c4.8-2.4,6.7-3.9,5.5-10.3c1,0,1.9,0,2.9,0c-0.1,2.6,1.1,4,3.6,4.9c3.5,1.2,6.9,0.8,11.2,0.8
	c-2-2.3-3.6-4-5.1-5.8c1,0,1.9,0,2.9,0c1,1,1.9,2,2.9,2.9c0.5,0.6,1,1.2,1.5,1.9c1.5,1.8,1.4,1.9-0.8,3c-4.3,2.1-5.2,6.9-8.3,10
	c-0.3,0.3-0.1,0.9-0.1,1.4c0.5,4.3-0.4,8.3-2.1,12.2c-0.2,0.4-0.2,0.8-0.3,1.4c2.4-0.5,4-1.6,5.2-3.5c3-4.7,5.5-9.5,4.9-15.3
	c-0.1-0.8,0-1.6,0.1-2.4c0.1-0.3,0.7-0.6,1.1-0.7c0.2,0,0.6,0.4,0.6,0.6c0.2,1.8-0.3,3.9,0.6,5.2c1.5,2.2,1.4,4.5,1.7,7.9
	c0.6-2.1,0.7-3.2,1.2-4.1c0.6-1.3,1.6-0.5,2.5-0.2c-0.7,1.9-1.2,4-2.3,5.7c-1.5,2.1,0.6,4-0.1,6c-0.2,0.6-0.4,1.2-0.6,1.8
	c-0.2,0.6-0.7,1.3-0.6,1.8c0.2,0.6,1,1.1,1.5,1.6c0.3-0.4,1-0.7,1-1.1c-0.2-4.1,0.5-7.9,1.8-11.8c0.4-1.2,0.7-2.9-0.7-4
	c0.8-3.6-1.9-7.1-0.4-10.9c0.3-0.7-0.7-2.1-1.4-2.9c-1.5-1.9-3.4-3.4-6-3.7c0-1,0-1.9,0-2.9c0.6,0,1.3,0,1.9,0
	c1.2,1.1,2.3,2.1,3.5,3.2c2.5,2.3,4.7,4.8,4.3,8.6c-0.1,1.4,0,2.9,0.1,4.3c0,0.3,0.8,0.6,1.2,0.9c1.4-1.9,3.1-3.7,4-5.9
	c0.4-0.9-0.9-2.5-1.5-3.8c-0.3-0.7-1-1.4-0.9-2.1c0.1-2.2-1.4-3-3-3.8c-0.7-0.3-1.2-0.9-1.9-1.4c1.6,0,3.2,0,4.9,0
	c5.1,3.5,5.4,3.5,10.7,0c1.3,0,2.6,0,3.9,0c-0.1,0.7-0.4,1.7-0.1,2c0.3,0.4,1.5,0.5,2,0.2c1.1-0.6,2-1.5,2.9-2.2c1.3,0,2.6,0,3.9,0
	c-1,0.7-2,1.4-3.1,2c-1.7,1-1.7,2.3,0.1,3c1.4,0.5,3.4,0.9,4.4,0.3c1.9-1.2,4.1-2.6,4.3-5.3c1,0,1.9,0,2.9,0c0.3,9.6,9,15.5,18.1,12
	c-2.3-2.6-4.5-5-7.8-6.3c-2.8-1.1-4.8-3.2-6.4-5.6c2.6,0,5.2,0,7.8,0c-0.2,1-1.1,2.6-0.6,3.1c1.5,1.7,3.3,3,5.1,4.3
	c0.5,0.3,1.8,0.2,2.2-0.2c2.1-2.3,5.3-3.7,6-7.2c0.6,0,1.3,0,1.9,0c-1,1.9-1.9,3.9-2.9,5.8c-0.1,0.1-0.3,0.1-0.4,0.2
	c-0.1,0.1-0.1,0.2-0.1,0.3c0.2-0.2,0.3-0.3,0.5-0.5c3.6-0.4,5.4-2.9,6.8-5.8c4.8,0,9.7,0,14.5,0c-1.4,0.7-2.7,1.4-4.2,2
	c-0.9,0.3-1.9,0.3-2.8,0.6c-2.6,0.8-3.1,1.2-2.6,3.6c0.4,1.8,0.5,3.3,0,5.1c-0.4,1.7-0.1,3.5-0.1,5.3c0,1.5,1,2.3,2.2,1.8
	c3.7-1.5,7.5-2.9,9.4-6.8c0.3-0.6,0.4-1.7,0.1-2.1c-1.1-1.2-0.6-2.3-0.1-3.5c0.8-1.9,1.4-3.9,2-5.9c1,0,1.9,0,2.9,0
	c0,0.6,0,1.3,0,1.9c0.1,0.9,0.4,1.8,0.6,2.6c0.8-0.4,1.6-0.7,2.3-1.2c1.3-1,2.6-2.2,3.9-3.3c2.3,0,4.5,0,6.8,0
	c1.5,3.9,4.8,5.8,8.3,7.4c1.5,0.7,2.5-0.2,2.3-1.8c-0.2-1.9-0.6-3.7-0.9-5.6c1.9,0,3.9,0,5.8,0c0.3,4.5,2.8,7.6,6.1,10.1
	c0.9-3.4,1.7-6.8,2.6-10.1c0.6,0,1.3,0,1.9,0c0.3,0.6,0.7,1.1,0.8,1.7c0.8,4.8,4,7.4,8.2,9c0.7,0.3,1.4,0.2,2.1,0.4
	c-0.1-0.6,0-1.2-0.2-1.7c-1.2-3-1.6-6.1-1.2-9.3c0.6,0,1.3,0,1.9,0c0.1,1.4,0.1,2.9,0.4,4.3c0.3,1.2,1.7,1.6,2.7,0.8
	c1.9-1.6,3.8-3.4,5.7-5.1c1.3,0,2.6,0,3.9,0c-2.4,1.7-4.9,3.4-7.1,5c2.5,1.3,4.9,2.7,7.4,3.9c0.5,0.2,1.6,0.1,2-0.3
	c2.6-2.3,4.3-5.1,4.5-8.7c1,0,1.9,0,2.9,0c0,6.2,0,6.2,4.9,7.8c0,6.8,0,13.6,0,20.4c-0.6,1.7-1.5,3.5-1.7,5.2
	c-0.1,0.7,1.1,1.7,1.7,2.5c0,4.2,0,8.4,0,12.6c-2.4,3-5,5.9-4,10.2c0.1,0.4-0.2,1.1-0.5,1.3c-3.5,2.8-4.2,7.4-7.2,10.6
	c-1.7,1.8-2.3,4.5-1.1,7.2c0.4,1,0.9,2.9-0.8,3.2c-0.9,0.2-2.5-0.9-3-1.8c-1.1-2.1-3.2-3.7-3-6.5c0-0.6-0.6-1.3-1.2-1.8
	c-1.8-1.6-3.6-3.1-5.4-4.6c-0.3-0.3-0.8-0.7-1-0.7c-0.4,0.2-0.8,0.7-0.8,1.1c-0.1,2.4-0.2,4.8-0.2,7.3c0,2.6-0.4,5.1-2.7,7.4
	c3-0.1,4.9-1.2,6.3-3.4c0.6-0.9,0.9-2.1,1.6-3c0.4-0.5,1.3-0.7,1.9-1.1c0.1,0.7,0.5,1.5,0.3,2.2c-2.1,6.3-7.1,8.6-11.7,8.2
	c-1.5-0.1-3.1-0.8-4.5-1.6c-1.4-0.7-1.1-2.3,0.4-3c0.1-0.1,0.3-0.2,0.4-0.2c4.7,0.5,5.1-2.4,5-6.1c-0.1-2.2,0.5-4.4,0.9-6.6
	c0.1-0.8,0.4-1.5,0.8-2.2c0.5-0.9,1.5-1.9,1.4-2.7c-0.2-1.5-0.9-3.1-1.7-4.4c-0.4-0.7-1.6-1-2.4-1.2c-1.4-0.4-2.8-0.6-4.2-1
	c-0.9-0.2-2-0.9-2.7-0.6c-0.6,0.2-0.6,1.6-1,2.5c-0.9,2.1-2.2,2.5-4.2,1c-2.2-1.6-4.3-3.3-6.2-5.2c-2.8-2.8-6.3-3.6-9.9-4.4
	c-0.7-0.2-1.9-0.2-2.3,0.3c-2.1,2.4-4.3,1.4-6.6,0.7c-1.1-0.3-2.4-1.5-3.5,0.1c-1.3,1.9-2.7,1.2-4.1,0.2c-0.8-0.6-1.5-1.2-2.3-2
	c-0.5,1.2-0.8,2.9-1.6,3.2c-1.2,0.4-2.9,0.1-4.1-0.4c-1.4-0.6-2.7-1.7-4-2.6c-2.5,3.1,2.4,5.3,1,8.7c-0.9-0.4-1.9-0.7-2.7-1.2
	c-2-1.3-4-2.7-6-4c-2.6-1.6-6.2,0-6.4,2.9c-0.1,3-0.9,5.6-2.6,8.1c-1.5,2.1-1.5,4.5-1.1,7c0.1,0.6-0.2,1.7-0.7,1.9
	c-0.6,0.3-1.7,0.3-2.2-0.1c-1.9-1.4-3.7-3.1-5.6-4.8c-0.6,3.5-1.1,7.3,0.5,11.2c0.3,0.6,0,1.4,0,2.1c-0.7-0.1-1.7,0-2.2-0.5
	c-2.1-1.7-4.1-3.6-6.6-5.8c-1.1,2.4-2,4.6-3,6.8c-1,2.3-2.4,2.6-3.8,0.5c-1.5-2.2-2.9-4.6-3.8-7.1c-0.6-1.5-1-1.9-2.6-1.7
	c-3,0.3-3,0.1-5.1,2.1c-1.3,1.2-2.9,2.1-4.1,3.3c-1.3,1.2-3.1,2-2.1,4.7c0.7,1.9-1.8,2.3-3.1,3c-1.3,0.6-2.1,0-2.4-1.4
	c-0.4-2.2-1.8-1.9-3.2-1c-2.2,1.4-4.4,2.6-6.4,4.3c-2.1,1.7-4.4,3-7.1,2.1c-4.9-1.6-8.8-0.1-12.4,3.1c-0.3,0.3-0.7,0.5-1.3,0.9
	c-0.9-2.8-1.8-5.5-2.7-8.1c-0.3,0-0.6,0.1-0.9,0.1c0,2.8,0.1,5.6,0,8.5c-0.1,2.2-0.8,2.8-3,2.6c-0.3,0-0.7,0-1-0.1
	c-1.6-0.7-3.1-2.1-4.6-2c-1.3,0.1-2.3,2.1-3.7,2.9c-1,0.6-2.4,0.9-3.6,1.2c-1.6,0.3-3.2,0.4-4.8,0.6c-1.9,0.2-2.7-0.7-2.2-2.5
	c0.2-0.9,0.4-1.9,0.9-2.7c2.9-4.9,3.5-10.6,5.2-15.9c1.4-4.4,2.1-9,5.1-13.4c-2.4,0-4.4-0.3-6.2,0.1c-1.8,0.4-3.4,0.3-5.1-0.1
	c-2.6-0.6-2.7-0.5-2.6-3.4c0-0.4-0.1-1.1-0.3-1.2c-1.1-0.7-2.2-1.5-3.4-1.7c-0.7-0.1-1.6,0.8-2.3,1.4c-2,1.6-3.9,3.3-6,4.9
	c-0.5,0.4-1.5,0.5-2.1,0.3c-2.1-0.7-4.1-1.6-6.2-2.4c-2.2-0.9-4.4-1.8-6.1-3.7c-1.2-1.4-2.6-1-3.2,0.8c-0.4,1.4-0.6,2.8-1.2,4.1
	c-0.9,1.8-2,2-3.4,0.6c-1.8-1.8-3.6-3.7-4.8-5.9c-1.1-2-2.4-3-4.6-2.6c-2.2,0.4-4.4,0.8-6.5,1.5c-1.4,0.5-2.3-0.1-2.7-1.2
	c-0.7-2.1-1.7-4.1-0.2-6.4c0.7-1,0.6-2.4,0.9-3.7c1-4.2,3.4-7.6,6.4-10.6c0.8-0.8,2.4-0.7,3.5-1.2c1-0.4,1.8-1,0.8-2.1
	c-1.3-1.5-0.9-2.6,0.1-4.3C52.4,24.2,53.7,20.8,55.3,17.5c0.1-0.1,0.3-0.1,0.4-0.2c0.1-0.1,0.1-0.2,0.1-0.3
	C55.6,17.1,55.5,17.3,55.3,17.5z M112.5,78.6c-0.4,0.1-0.9,0.1-1.3,0.3c-0.2,0.1-0.3,0.5-0.4,0.7c0.3,0,0.8,0.2,1,0
	C112.1,79.4,112.3,78.9,112.5,78.6c0.1-0.1,0.3-0.1,0.4-0.2c0.1-0.1,0.1-0.2,0.1-0.3C112.8,78.2,112.7,78.4,112.5,78.6z M293.9,33
	c-0.1-0.1-0.1-0.3-0.2-0.4c-0.1-0.1-0.2-0.1-0.3-0.1C293.6,32.6,293.8,32.8,293.9,33c0,0.4-0.1,0.9,0,1.3c0.1,0.3,0.4,0.6,0.5,0.9
	c0.1-0.3,0.3-0.6,0.3-0.8C294.6,33.9,294.2,33.5,293.9,33z M254.1,49.5c-0.3-0.3-0.6-0.5-0.9-0.8c-0.1,0.2-0.2,0.3-0.3,0.5
	C253.3,49.3,253.7,49.4,254.1,49.5c0.1,0.3,0.2,0.6,0.4,0.8c0.5,0.4,1,0.7,1.5,0.9c0,0,0.4-0.5,0.4-0.5c-0.4-0.4-0.9-0.8-1.4-1.1
	C254.8,49.4,254.4,49.5,254.1,49.5z M117.4,13.6c0.1,0.1,0.1,0.3,0.2,0.4c0.1,0.1,0.2,0.1,0.3,0.1C117.7,13.9,117.5,13.7,117.4,13.6
	c-0.8-1.9-1.6-3.8-2.5-5.7c-0.1-0.3-1.3-0.5-1.5-0.3c-1.4,1.2-1.2,4.2,0.3,5C114.8,13.2,116.1,13.3,117.4,13.6z M121.3,61.1
	c-2.2,1.7-4.5,3.4-6.6,5.3c-1.7,1.5-1.5,3.3,0.1,5.2C117.2,68.1,120.4,65.3,121.3,61.1c0.3-0.3,0.6-0.6,1-1c1,0,2.1,0.1,1.6,1.6
	c-0.5,1.4-1,2.8-1.9,3.9c-1.9,2.2-2.5,4.8-3.1,7.4c-0.2,0.7,0.1,1.5,0.1,2.2c0.9-0.1,1.9,0.1,2.6-0.3c4.3-2.1,6.9-5.6,8.2-10.1
	c0.6-2.1,1.1-4.3-1.4-5.9c-1.2-0.7-1.9-2.1-3.2-3.6c-1,1.7-2,3.2-2.9,4.8C121.9,60.5,121.6,60.8,121.3,61.1z M109.6,55.3
	c1.8-1,3.6-1.9,5.3-3.1c1.1-0.8,1.9-1.9,0.5-3.2c-1-0.9-0.4-1.7,0.3-2.4c0.6-0.6,1-1.4,1.6-2.1c-2.6,0.4-4.7,1.1-5.3,4
	C111.5,50.8,110.4,53,109.6,55.3c-0.1,0.1-0.3,0.1-0.4,0.2c-0.1,0.1-0.1,0.2-0.1,0.3C109.3,55.6,109.5,55.4,109.6,55.3z M87.3,36.9
	c-2.6,0.7-5.3,1.4-7.9,2c-1.2,0.2-1.7,0.8-1.7,1.9c0,1.1-0.1,2.3,0,3.4c0.1,0.9,0.7,1.6,1.6,1c2.5-1.8,4.9-3.6,7.2-5.6
	C87.1,39,87.1,37.8,87.3,36.9c0.1,0,0.3-0.1,0.4-0.2c0.1-0.1,0.1-0.2,0.1-0.3C87.6,36.6,87.5,36.7,87.3,36.9z M148.4,71.8
	c-1.7,1.9-3.6,3.6-5,5.7c-0.8,1.2-1.8,3.6-1.3,4.2c1.5,1.8,3.1-0.3,4.6-0.9c1.6-0.6,2.9-1.6,2.6-3.6C149,75.4,148.7,73.6,148.4,71.8
	c0.1-0.1,0.3-0.1,0.4-0.2c0.1-0.1,0.1-0.2,0.1-0.3C148.7,71.5,148.6,71.6,148.4,71.8z M111.5,58.2c-1.5,0.3-3.1,0.9-4.6,1
	c-2,0.1-2.7-1.1-1.7-2.7c0.7-1.2,1.4-2.3,2.8-4.4c-3.3,0.9-5.5,1.5-7.7,2.2C97.6,55,96,56.8,95,59.4c-0.9,2.3-0.7,2.7,1.9,2.7
	c2.6-0.1,5.2-0.5,7.9-0.4C107.1,61.7,110.4,61.4,111.5,58.2c0.1-0.1,0.3-0.1,0.4-0.2c0.1-0.1,0.1-0.2,0.1-0.3
	C111.9,57.9,111.7,58,111.5,58.2z M170.7,14.5c3.5,0.7,5,3.2,5.8,6.3c0.7,2.9,1.6,5.9,0.7,9c-0.1,0.3,0.3,0.7,0.4,1
	c0.3-0.1,0.7-0.2,0.8-0.4c0.4-0.5,0.8-1.1,0.8-1.7c1.3-8.8-0.8-16.6-6.2-23.7c-0.3-0.3-1-0.8-1.1-0.7c-1,1-1.9,2-2.8,3
	c0.6,0.4,1.2,1,1.9,1.2c3,1,3.1,1.4,1.3,3.7C171.9,13.1,171.3,13.8,170.7,14.5c-1.9,0.3-3.7,0.8-5.6,1c-2.9,0.3-5.2,1.2-5.9,4.5
	c-0.2,1.1-0.9,2.1-1.4,3c-0.8,1.5-0.1,2,1.3,2.1C164.5,25.6,169.6,20.9,170.7,14.5z M120.3,45.6c5.8-1,8.2-5.5,10.8-10
	c2.3-3.9,2.4-7.3-0.8-10.7c-1.7,3-3.9,5.8-4.9,9c-1.1,3.6-2.6,6.9-4.6,10C120.5,44.3,120.5,45,120.3,45.6c-0.1,0.1-0.3,0.1-0.4,0.2
	c-0.1,0.1-0.1,0.2-0.1,0.3C120,45.9,120.1,45.7,120.3,45.6z M75.7,14.6c-0.1-0.1-0.1-0.3-0.2-0.4c-0.1-0.1-0.2-0.1-0.3-0.1
	C75.3,14.2,75.5,14.4,75.7,14.6c0.9,1.1,1.6,2.5,2.7,3.2c4.3,2.5,9.3,1.8,14,2.3c1,0.1,2.2-1.1,3.7-2c-3.1-1.6-5.9-2.9-8.4-4.4
	C81.4,10.1,81.4,10.1,75.7,14.6z M257,9.7c-1.9-2.4-4.1-4.7-4.5-8.1c-0.2,1.6-0.3,3.3,0.1,4.7C253.2,8.5,254.4,10.1,257,9.7
	c1.1,6.5,4.9,11.7,8.8,16.8c3,4,7.1,6.9,11.8,8.9c0.4,0.2,1,0.1,1.3-0.1c0.3-0.3,0.4-0.9,0.3-1.3c-0.6-1.7-1.1-3.4-1.9-4.9
	c-2.2-4-3.6-8.7-8.2-10.8C264.4,16.3,260.7,13.1,257,9.7z M145.5,58.2c2-1,3.9-2.1,6-2.8c2.1-0.7,1.5-1.4,0.6-2.7
	c-1.4-2.1-2.6-4.4-3.7-6.7c-0.9-1.9-1.7-3.9-2.7-6.3c-1.1,2-1.6,3.7-2.7,4.8c-1.5,1.5-1.1,3.1-1,4.9c0,0.4-0.6,0.8-0.8,1.2
	c-1.5,2.8-3.2,5.4-2.6,8.9c0.2,1.3-0.6,2.8-2.2,2.4c-2.9-0.7-3.5,1.3-4.4,3.2c-1.4,3-2.5,6.5-4.8,8.8c-3.1,3.1-3.4,6.2-2.7,10.7
	c1.1-1.4,1.8-2.4,2.6-3.3c1.4-1.5,2.6-3.3,4.2-4.5c1.9-1.4,3.1-2.9,3.6-5.4c0.5-2.7,1.1-5.7,4-7.3c0.8-0.5,1.2-1.8,1.7-2.8
	c0.5-1,0.8-2.3,1.5-3c3.9-3.6,3.9-7.8,2.4-12.4c-0.1-0.2,0.3-0.5,0.5-1c2.6,2.2,3.9,4.6,2.6,8C147,54.7,146.2,56.4,145.5,58.2
	c-0.1,0.1-0.3,0.1-0.4,0.2c-0.1,0.1-0.1,0.2-0.1,0.3C145.2,58.5,145.3,58.4,145.5,58.2z M157.1,18.4c-0.9,0-1.8,0.2-2.6-0.1
	c-1.8-0.7-3.5-1.6-5.3-2.3c-0.5-0.2-1.4-0.1-1.6,0.3c-3.5,5.6-8.7,10.4-8.9,17.7c-0.1,3.1-0.4,6.3,1.5,9.2c3-3,4-5.5,4.3-9.8
	c0.2-2.9,0.6-5.7,1.2-8.5c0.3-1.6,1.6-1.6,2.7-0.4c1.1,1.2,2.3,2.3,3.2,3.6c2.2,3.1,5.7,5.1,7.4,8.6c0.4,0.9,1,1.8,1.5,2.8
	c5.7-7.7,6.9-10.4,6.8-15.1c-3.4,4.1-7.7,2.7-11.8,2.7c-1.6,0-1.6-1.3-1.1-2.5C155.4,22.5,156.3,20.5,157.1,18.4
	c1.3-0.9,1-2.1,0-3.2C157.1,16.3,157.1,17.4,157.1,18.4z M163.2,53c3.7-2,4.5-5.4,5.4-8.7c0.5-1.9-0.4-2.8-2.3-2.2
	c-1.8,0.6-3.5,1.5-5.6,0.8c-0.3-0.1-1.2,0.2-1.2,0.5c-0.6,3.4-3.1,6.4-2.3,10.2c0.7,2.9-0.7,4.8-3.5,4.3c-1.8-0.3-2.7,0.3-3.9,1.1
	c-2.8,1.9-5.5,3.8-8.3,5.7c-3.5,2.4-4.6,6-4.8,10c-0.1,2.2,0.6,4.1,2.1,5.4c2.6-3.4,5-6.7,7.6-9.8c2-2.5,4.2-4.9,6.4-7.2
	c0.6-0.7,1.4-1.6,2.2-1.8c4.3-1.2,4.8-4.5,4.9-8.1c0-1.3,0-2.6,0-3.9c0-0.8,0.2-1.6,0.4-2.3c0.1-0.4,0.7-0.8,1.1-0.8
	c0.4,0,1,0.5,1,0.9C162.9,48.8,163,50.7,163.2,53z M224.3,39.9c-0.2-2.8-0.1-5.4-2.1-7.8c-2.6-3.2-5.4-6.4-6.5-10.6
	c-0.1-0.2-1.4-0.5-1.5-0.3c-1.3,2.4-2.9,4.6-3.6,7.2c-0.7,2.6-0.5,5.4,2,7.5c1,0.8,1.2,2.6,1.8,3.9c1.1,2.7,2.4,5.3,4.7,7.2
	c2.2,1.9,3.1,1.8,4.1-1C223.9,44,224,41.9,224.3,39.9z M95.7,22c-2.9,0.1-5.6,0.3-8.3,0.4c-4.9,0.2-6.2,1.1-7.9,5.7
	c-0.8,2.2-2.7,3.1-4.7,3.8c-1.2,0.4-2.6,0.1-3.8,0.3c-0.6,0.1-1.3,0.5-1.5,1c-0.9,1.9,1,4.9,3,4.6c3.5-0.5,6.8-1.4,10.3-2.1
	c2.8-0.6,5.2-2.2,6.8-4.2C92,28.6,93.7,25.2,95.7,22z M190.6,40.1c-1.3,5.1-3.6,9.8-1.9,14.8c1.5,4.5,2.2,9.6,6.7,12.4
	c0.7-1.9,1.2-3.6,2-5.2c2.3-4.6,2.2-9.2,0.1-13.8C195.9,45.1,193.7,42.4,190.6,40.1z M224.1,15.4c0,0.8,0.1,1.3,0,1.8
	c-0.6,2.5,1.3,3.7,2.9,4.3c0.9,0.4,2.8-0.6,3.6-1.5c2.1-2.5,5.2-4.6,3.7-8.7c-0.2-0.6,0.2-1.5,0.5-2.3c0.1-0.4,0.5-0.9,0.9-0.9
	c0.3,0,0.7,0.4,1,0.8c1,1.6,1.9,3.3,2.9,4.9c0.2,0.3,1.5,0.3,1.6,0.1c0.8-1.7,2.4-3.7,2-5.1c-0.6-1.9-2.6-3.5-4.3-5
	c-1.4-1.3-2.1,0.9-3.2,1.1c-3.2,0.7-6.7,1.1-8.4,4.6C223.7,10.4,224.2,13.2,224.1,15.4z M88.3,41.9c-8.4,4.2-11.3,7.9-10.7,15.2
	c0.1,1.5-0.7,3.7,1.2,4.2c0.8,0.3,2.3-1.3,3.4-2.1c0.3-0.2,0.6-0.2,0.8-0.5c3.5-3.3,8.3-5.5,9.5-11c0.3-1.5,0.3-2-1.3-2.2
	C88.4,45.1,88.4,45,88.3,41.9z M205.8,14.6c-0.6,0.4-1.2,0.7-1.7,1.1c-4.6,3.2-9.2,6.4-13.7,9.6c-1.5,1-1.8,2.6-1.5,4.2
	c0.3,1.4,0.9,2.7,1.5,4c1.7,3.5,3.4,3.7,5.8,0.7c0.3-0.4,0.5-0.8,0.8-1.2c3-5.1,6-10.2,8.9-15.3c0.3-0.5,0.6-1.1,0.6-1.7
	C206.5,15.5,206.1,15.1,205.8,14.6z M163.8,56.2c-1.6,2.1-2.4,4.1-3.9,4.9c-3.6,1.7-5.6,4.6-7.3,8c-1.9,3.9-1.6,7.5,0.2,11
	c2.7-2.2,5.1-4.2,7.6-6.1c2.1-1.6,3.5-3.8,3.3-6.1C163.5,64.2,164.1,60.6,163.8,56.2z M172.7,53.7c0-0.1,0-0.2-0.1-0.3
	c-0.5,0-1,0-1.5,0c-4.1,0-4.7,0.5-5.2,4.5c-0.2,1.3-0.2,2.6,0,3.9c0.2,1.7,0.6,3.4,0.9,5.2c0.1,0.6,0.3,1.4,0.7,1.6
	c0.4,0.2,1.2-0.2,1.6-0.6c2.1-1.8,3.9-3.8,6.1-5.4c2.7-2,3.8-5.1,5.7-7.6c0.3-0.4,0.3-1.4,0-1.7c-0.3-0.4-1.1-0.5-1.7-0.5
	C177.1,52.9,174.9,53.3,172.7,53.7z M234.9,27.6c0-2.7-0.2-5.1,0.1-7.4c0.2-1.5,1.8-2,2.9-0.9c4,4,9.5,4.3,14.3,6.4
	c0.7,0.3,2,0,2.5-0.5c3.9-3.6,4.8-4.2-0.8-6.7c-1.3-0.6-2.8-0.8-4.2-0.9c-2.4-0.1-4.8,0.1-7.2,0c-2.1-0.1-4.4-1.1-6.1-0.4
	c-1.8,0.8-3.2,2.9-4.5,4.7c-0.8,1.1-3.4,1.2-2.5,2.9c0.6,1.2,2.5,1.7,3.9,2.4C233.9,27.4,234.5,27.5,234.9,27.6z M261.2,25.3
	c-1.9,3.4-3.7,6.5-5.4,9.5c-0.2,0.3-0.4,0.5-0.5,0.8c-0.4,2.3-0.9,4.7-1,7.1c0,1.1,0.7,2.5,1.4,3.4c1.2,1.5,2.8,1.5,4,0
	c2.4-2.8,5.5-5.5,4.1-10c-0.2-0.7-0.1-1.6,0-2.4C264.1,30.8,263.3,28.2,261.2,25.3z M295.4,13.8c-1.3,2.5-3.5,1.5-5.3,1.7
	c-1.6,0.1-3.2-0.1-4.8,0.2c-1.3,0.2-1.9,0.9-1.2,2.4c1.1,2.1,2,4.3,3.1,6.5c0.3,0.7,0.8,1.4,1.4,1.7c2.6,1.3,5.2,2.5,7.9,3.5
	c0.8,0.3,2.4,0.2,2.6-0.3c0.4-0.8,0.5-2.2,0.2-3.1c-1.2-3-3.4-5-6.5-5.9c-1.4-0.4-2.8-0.6-4.2-1.1c-0.5-0.2-0.8-0.8-1.1-1.2
	c0.6-0.2,1.2-0.7,1.7-0.5c1.9,0.5,3.6,1.3,5.5,1.6c0.7,0.1,1.8-0.5,2.2-1.2c0.4-0.7,0.5-1.8,0.2-2.6C296.9,14.9,296,14.4,295.4,13.8
	z M58.6,18.9c-5.3,4.7-6.4,8.6-4.1,14.8c0.2,0.5,0.1,1.2-0.2,1.6c-1.9,2.7-1.9,3.5,0,5.9c1.2,1.5,2.1,1.4,2.7-0.4
	c1.5-3.9,3-7.8,4.4-11.7c0.3-0.7,0.4-1.5,0.5-2.3C62.9,23.3,60.5,21.2,58.6,18.9z M97.1,48c-0.3,2.8,1.3,4.2,4.2,3.2
	c1.2-0.4,2.5-0.5,3.7-0.8c1.2-0.3,2.5-0.5,3.6-1.1c1.2-0.7,1.4-2-0.1-2.5c-2.4-0.8-1.9-2-1.2-3.7c1-2.2,2.1-4.4,2.7-6.6
	c0.2-0.7-0.6-2.1-1.3-2.7c-1.1-0.9-1.6,0.3-2,1.1c-1.2,2.7-2.9,5-5.7,6.3C98.2,42.5,97.8,45.2,97.1,48z M52.3,45.2
	c-0.8-3.3-1.4-5.9-2.2-8.5c-0.4-1.2-2.7-0.9-3.5,0.4c-0.9,1.5-1.6,3.1-2.6,4.5c-2.1,3.2-1.8,7-3.1,10.4c-0.2,0.4,0.7,1.6,1.2,1.7
	C46.7,54.6,52.5,49.3,52.3,45.2z M237.8,22.5c-0.3,0.3-0.7,0.5-0.9,0.8c-0.1,0.2-0.1,0.6,0,0.9c0.8,3.5,10.4,12.6,13.9,13.2
	c0.4,0.1,1-0.2,1.2-0.4c3.7-4,3.2-6.8-1.7-9.3c-0.9-0.5-1.7-0.9-2.6-1.3c-2.7-1.1-5.4-2.1-8.1-3.1C239.1,23.1,238.5,22.9,237.8,22.5
	z M61.1,36.5c-0.2,0.1-0.4,0.2-0.7,0.2c-0.7,2-1.5,3.9-2,5.9c-0.5,1.8-0.1,4.1-3.2,3.4c-0.2,0-0.8,0.9-0.8,1.4
	c-0.1,1.9,0,3.9-0.1,5.8c-0.1,2.4,0.8,4.4,2.5,6c1.9,1.9,2.3,2.3,3.4-0.8c0.3-0.9,1-1.6,1.5-2.4c0.8-1.4,1.7-2.7,0.6-4.4
	c-0.4-0.6-0.4-1.7-0.1-2.3c1.1-2.4,0-4.7-0.3-7c-0.1-0.9-0.1-1.8-0.2-2.7C61.5,38.5,61.3,37.5,61.1,36.5z M135.4,48.6
	c0.1,0,0.2,0,0.3,0c0-2.1,0.1-4.2,0-6.3c-0.1-1.4-2.3-3.5-3.2-3c-1,0.6-1.7,1.8-2.4,2.8c-0.2,0.3-0.1,1-0.1,1.4
	c0.3,2.9-0.5,5.4-1.9,7.8c-0.4,0.7-0.3,1.8,0,2.5c1.7,4,2.1,4.3,6.5,5.1c1.5,0.3,2.1-0.4,1.9-1.9C136.2,54.3,135.8,51.4,135.4,48.6z
	 M198,43.6c3-3.6,5.7-6.6,8.1-9.8c1.9-2.5,3-5.3,1.8-8.5c-0.4-1-1.3-1.8-1.9-2.7c-0.8,0.7-1.6,1.3-2.3,2c-0.6,0.7-1,1.6-1.5,2.4
	c-2.1,3.4-4.2,6.8-6.3,10.2c-0.3,0.5-0.4,1.5-0.1,2.1C196.4,40.7,197.2,42,198,43.6z M147.3,32.2c0.3,6.4,2.7,11.6,5.3,16.8
	c0.2,0.4,0.9,0.8,1.4,0.8c0.2,0,0.7-0.6,0.9-1c2.4-5.8,2.8-11.3-2.3-16c-0.5-0.4-0.9-1-1.2-1.5c-0.8-1.3-1.5-3.3-3.4-2.6
	C147.4,29,147.5,31.3,147.3,32.2z M293,49.5c-0.1-1.5-0.1-2.1-0.3-2.7c-0.1-0.4-0.6-0.9-0.9-0.9c-0.5,0-1.3,0.3-1.6,0.7
	c-1.8,3.1-1.8,3.2-4.6,2.6c-1.3-0.3-2.1-0.6-2.5,1c-0.2,0.7-1,1.2-1.5,1.8c-3.7,4.6-3.7,4.6-1.8,10.3c0.2,0.6,0.3,1.3,0.6,1.8
	c0.4,0.6,1,1.1,1.5,1.7c0.4-0.6,0.9-1.1,1.1-1.8c0.3-0.9,0.2-2,0.7-2.7c2.3-3.3,4.1-6.9,7.4-9.4C292.1,51.1,292.6,50,293,49.5z
	 M288.2,74c1.8-2.8,3.3-5.4,5.1-7.7c1.5-1.8,1.7-3.7,1.4-5.8c-0.2-1.7-0.6-3.4-1-5.1c-0.1-0.5-0.7-1.3-1.1-1.4
	c-0.4-0.1-1.1,0.5-1.5,0.9c-1.2,1.5-2.4,3-3.5,4.5c-1.3,1.8-1.7,3.8-1.3,5.9C286.8,68.2,287.6,71.1,288.2,74z M163.7,40.6
	c1.4-0.6,2.1-0.9,2.8-1.2c7.5-2.4,10.6-11.6,7.9-19.2c-0.2-0.6-0.8-1.4-1.2-1.3c-0.6,0-1.3,0.6-1.7,1.1c-0.8,0.9-1.7,1.8-0.9,3.4
	c0.4,0.8-0.2,2.2-0.5,3.2c-1.3,3.8-2.4,7.7-4.9,10.9C164.6,38.2,164.4,39.1,163.7,40.6z M231.3,29.3c1.5,5.5,4.9,9.5,8.1,13.6
	c2.3,3,5.5,4,9.5,3.3c-3.2-4-6.4-7.5-9-11.5C237.8,31.5,235.2,29.9,231.3,29.3z M187.3,74.8c0-3.8-0.5-6.9,0.1-9.8
	c1-4.8-0.9-8.4-3.3-12.3c-0.8,1.8-1.5,3-1.9,4.4c-0.6,2.6-1.6,5.3-1.2,7.8C181.6,68.4,183.1,71.9,187.3,74.8z M119.6,24.1
	c0.1-2.8-1.3-5.1-2.7-7.2c-0.5-0.7-1.8-1-2.9-1.2c-0.4-0.1-1.3,0.6-1.3,1c-0.2,3.3-2.2,6.4-0.6,9.8c0.3,0.5,0.3,1.2,0.3,1.9
	c-0.1,1.4-0.8,3.7-0.4,3.9c1.9,0.9,1.5-1.9,2.9-2.2c0.6-0.1,1.2-0.1,1.7-0.4c0.6-0.3,1.5-0.6,1.7-1.1
	C119,27.2,119.2,25.6,119.6,24.1z M238,47.4c0-0.6,0.2-1.3,0-1.8c-2.1-3.2-4.3-6.4-6.5-9.6c-0.5-0.8-1.5-1.6-1.5-2.4
	c0.1-2.5-2-3.6-3-5.3c-0.2-0.4-1.3-0.7-1.4-0.6c-0.4,0.6-1.1,1.5-0.9,2c0.5,1.3,1.4,2.5,2.1,3.8c1,1.7,1.8,3.7,0.9,5.5
	c-1,2-0.1,3.2,1.3,4.1c2.4,1.6,5,2.8,7.6,4.2C236.8,47.5,237.2,47.4,238,47.4z M102,81c1.1-0.3,1.9-0.4,2.6-0.6c3.1-1,5-3.1,6.6-5.9
	c1.4-2.4,0.4-4.2-0.4-6.2c-0.4-0.8-0.2-1.9-0.4-2.8c-0.1-0.4-0.4-0.9-0.8-1c-0.4-0.1-1,0.2-1.2,0.5c-1.4,2.4-3.7,4.2-4.1,7.4
	C104.1,75.1,102.9,77.8,102,81z M73.7,60c0-1.5,0-2.4,0-3.4c0-1.3,0.1-2.6-0.1-3.9c-0.3-4.5-3.1-7-7.4-6.8c-0.4,0-1,0.5-1,0.7
	c0,2.8-0.7,5.6,0.9,8.4C67.7,58,70.5,58.4,73.7,60z M212.7,50.8c-0.1-3.8,0-7.1-0.5-10.4c-0.2-1.5-1.4-3.4-2.7-4.2
	c-1.7-1-2.7,1.1-3.8,2.1c-2.3,2.4-2.6,3.3-0.7,5.7c2,2.5,4.4,4.6,6.7,6.8C212,51.1,212.7,50.8,212.7,50.8z M164.3,13.7
	c1-0.3,3-0.8,5-1.4c0.4-0.1,1-0.8,0.9-1c-0.2-0.5-0.6-1.1-1.1-1.4c-2.9-1.4-5.8-2.7-8.7-3.9c-1.5-0.6-3.2-1-4.8-1.6
	c0.2,1.5,0.6,3.1,0.5,4.6c-0.2,2.8,1.7,3.6,3.8,4.3C160.9,13.7,162.1,13.5,164.3,13.7z M106.7,87.1
	C106.7,87.1,106.7,87.1,106.7,87.1c0-0.5,0-1-0.1-1.4c-0.2-1-0.6-2-0.8-3c-1.1,0.5-2.3,0.9-3.2,1.6c-0.7,0.5-1.2,1.5-1.6,2.3
	c-1.2,2.5-2.4,5.1-3.4,7.7c-0.2,0.4,0.2,1.3,0.5,1.5c4.1,1.3,8.3-1.5,8.6-5.8C106.7,89,106.7,88.1,106.7,87.1z M184.9,37.1
	c-0.8-0.7-1.6-1.5-2.5-2.1c-2.2-1.3-4.8-1.9-6.8-0.3c-2,1.7-4,3.7-3.9,6.8c0,1,0.3,2.2,1.5,1.9c2.7-0.7,5.8-0.8,8-3
	C182.3,39.3,183.6,38.3,184.9,37.1z M303.5,44.6c-2.6-1.5-4.9-2.8-7.2-4.2c-2.3,4.4-2,9.4,1,15.2C299.4,52,301.5,48.3,303.5,44.6z
	 M195.5,10.3c0.8,0.9,3.7,1.5,1.1,3.6c0.4,0.5,1,1.4,1.3,1.3c1.8-0.5,3.7-1.1,5.4-1.9c1.4-0.6,3.1-1.1,3.2-3.2
	c0.2-2.3,1.9-4.6-0.3-6.5C202.7,5.8,199.2,8,195.5,10.3z M115.2,62.4c5.6-5,10.7-9.5,12.5-17.1C120.9,49.3,114.9,53.1,115.2,62.4z
	 M61.7,17.8c-0.2,0.2-0.4,0.3-0.5,0.5c0.8,1.3,1.4,2.8,2.5,3.9c1.6,1.5,1.2,3.1,1,4.8c0,0.3,0.5,0.8,0.8,1.1
	c1.9,2.1,7.1,2.8,9.3,1.2c0.7-0.5,1.7-1.8,1.5-2.2c-0.4-0.8-1.5-1.7-2.4-1.8c-3-0.1-5.1-1.6-7.1-3.6C65.2,20.3,63.4,19.1,61.7,17.8z
	 M78,24c0.5-0.5,1.3-1.3,2-2c-0.5-0.5-1-1.2-1.6-1.5c-1.7-0.9-3.1-2-4.3-3.7c-1.6-2.3-6.1-1.8-7.4,0.6c-0.2,0.4,0,1.2,0.3,1.6
	C69.5,22.7,73.6,23.3,78,24z M272,35.3c0.2,2.1,0.4,3.8,0.6,5.5c0.5,4.1,2.5,6.7,5.6,7.5c1.1,0.3,1.8-0.1,2-1.4
	c0.6-3.6-1.5-7.7-4.8-9.6C274.4,36.7,273.3,36.1,272,35.3z M275.2,54.1c-0.7-4.5-3.4-7.1-6.3-9.6c-0.9-0.8-2.5-1.8-3.3-1.4
	c-1.6,0.7-0.3,2.1,0,3.3c0.1,0.3,0.1,0.6,0.1,0.9c0.7,5.2,0.8,5.2,6,6C272.9,53.5,273.9,53.8,275.2,54.1z M117.3,80.3
	c-0.4-0.4-0.7-0.8-1-1.1c-0.1-0.1-0.5,0.1-0.7,0.2c-1.5,1.1-3,2.2-4.5,3.3c-2.3,1.6-3,3.2-1.7,5.7c0.9,1.6,2.3,3,3.7,4.3
	c0.3,0.3,1.3,0.3,1.7,0c0.4-0.3,0.7-1.2,0.5-1.7c-1.6-3.2-0.4-5.9,1.2-8.6C116.7,81.8,117,81.1,117.3,80.3z M178.1,63.4
	c-1.8,1.3-3.5,2.5-5.1,3.8c-1,0.9-0.7,4,0.4,3.9c3.7-0.3,2,1.9,1.8,3.4c-0.1,0.8-0.5,1.6-0.3,2.3c0.1,0.5,0.7,1,1.2,1.3
	c0.1,0.1,0.9-0.4,1-0.8c1.5-3.5,4.1-6.9,1.6-11C178.3,65.5,178.3,64.5,178.1,63.4z M290.8,35.6c0.5-2.8-0.5-4.7-2.1-6.3
	c-1.7-1.8-3.7-3.2-6.3-3c-0.9,0.1-1.8,0.4-2.7,0.6c0.6,0.9,1,2,1.7,2.6c2.2,1.8,4.6,3.4,7,5C289.1,35,289.8,35.2,290.8,35.6z
	 M280.8,15c-6-1.6-11.8-3.3-15.7-8.8c-0.4,2.9-0.8,5.7,2.1,7C271.4,15.2,275.8,17.2,280.8,15z M282.2,32c-0.3,0.6-0.9,1.1-0.8,1.5
	c0.5,1.7,1.2,3.3,1.9,4.9c1.1,2.2,2.5,4.1,5,4.9c0.5,0.1,1.3,0,1.7-0.4c0.3-0.2,0.1-1.1-0.1-1.6c-1.1-3.5-3.8-5.9-6.3-8.3
	C283.4,32.7,282.9,32.5,282.2,32z M256.1,15.9c-1.1-3.5-1.1-3.5-3.4-4.2c-0.8-0.2-1.5-0.6-2.2-0.9c-4.2-1.7-4.2-1.7-6.1,2.4
	c-0.2,0.3-0.1,0.8-0.1,1C248.1,14.7,251.9,15.3,256.1,15.9z M64.8,30.1c-0.8,0.3-1.2,0.3-1.4,0.5c-0.8,1.2-2,2.5-0.9,3.9
	c1.2,1.5,1.3,3.2,1.7,4.9c0.3,1.3,1.3,2.5,2.2,3.6c0.3,0.3,1.2,0.3,1.7,0.3c0.2,0,0.4-0.8,0.4-1.2c-0.2-1.6-0.5-3.2-0.9-4.7
	c-0.5-2-1.2-4-1.9-5.9C65.5,31,65,30.4,64.8,30.1z M169.5,50.1c8,0.8,9.5-0.1,9.4-5.8c-1.6,0.4-3.3,1-5,1.3
	C170.4,46.1,170.4,46,169.5,50.1z M154.6,15c-0.5-3.6-0.9-6.8-1.5-9.8c-0.1-0.5-1.1-1-1.7-1.2c-1.1-0.2-2,0.4-1.9,1.5
	c0.1,2,0.7,4.1,0.7,6.1C150.2,14.3,151.8,14.7,154.6,15z M274.2,18.5c-0.1,0.4-0.3,0.7-0.4,1.1c2,1.5,4,3.1,6.1,4.3
	c0.9,0.5,2.4,0,3.7-0.1c-0.3-1.1-0.4-2.4-1-3.4c-1.2-1.8-2.6-3.1-5.1-2.1C276.6,18.8,275.3,18.5,274.2,18.5z M300.5,15.5
	c0.9-1.6,2.5-3.1,2.5-4.5c-0.1-1.9-2.5-2.2-4.1-2.7c-2.7-0.9-2.8-0.8-5.3,3C297.4,11.8,297.4,11.8,300.5,15.5z M59.8,15.1
	c6-1.5,6.4-2.5,3.7-7.6c-0.2-0.3-0.2-0.6-0.4-0.8c-0.7-0.6-1.4-1-2.1-1.6c-0.2,0.7-0.6,1.4-0.7,2.1C60,9.8,59.9,12.3,59.8,15.1z
	 M115.4,33.6c-1.7,2.4-3.2,4.4-4.4,6.5c-0.9,1.6,0.2,2.8,2,2.5c3.1-0.6,5-2.8,7.1-5.4C115.9,37.7,115.9,37.7,115.4,33.6z
	 M220.7,15.5c-1.1,1.3-2.8,2.4-2.8,3.3c0.2,2.8,0.7,5.8,3.3,7.6c0.4,0.3,1.3,0.4,1.7,0.1c0.4-0.2,0.7-1.1,0.6-1.5
	C222.6,22.1,221.7,19.1,220.7,15.5z M118.1,7.3c0,0-0.5,0.5-0.4,0.7c0.5,1.2,1,2.4,1.6,3.5c1.9,3.3,2.8,3.3,5,0.4
	c0.6-0.8,1.1-1.6,1.3-2.5C125.7,9,125.3,8,125,8C122.8,7.7,120.6,7.5,118.1,7.3z M187.4,42.7c-0.3-1-0.5-1.7-0.7-2.5
	c-0.8,0.4-1.7,0.6-2.4,1.1c-0.6,0.5-1.4,1.1-1.6,1.8c-0.6,2-3.7,4.3-1.5,5.8c1.8,1.3,3.5-2,5.2-3.3
	C187.1,45.1,187.1,43.6,187.4,42.7z M180.9,14.1c0.3,2.6,0.6,5.1,0.9,8.2c2.2-1.8,3.9-3.1,5.5-4.6c0.8-0.8,0.9-1.7-0.5-2.1
	C184.8,15.1,182.9,14.6,180.9,14.1z M287.4,9.6c-1-0.8-1.5-1.5-2.2-1.6c-1.6-0.2-3.2-0.2-4.8-0.2c-1.6,0-1.9,0.6-1,2
	c0.6,0.9,1.3,1.9,2.1,2.5c0.6,0.5,1.9,1,2.4,0.7C285.2,12.2,286.2,10.9,287.4,9.6z M189.5,23c2.1-1.6,3.9-2.9,5.6-4.4
	c0.4-0.3,0.5-1.5,0.4-1.6c-1.4-0.5-3-1.4-4.4-1.3c-1.1,0.1-1.6,1.6-1.3,3.1C190.1,20,189.7,21.3,189.5,23z M270.1,41
	c-0.2-2.6-0.4-4.9-0.7-7.3c-0.1-0.5-0.6-1.2-1.1-1.5c-0.6-0.4-1.3-0.5-2-0.7c-0.1,0.6-0.4,1.2-0.3,1.8c0.5,2.1,1.1,4.3,1.8,6.4
	c0.2,0.6,0.6,1.1,1.1,1.5c0.2,0.2,0.6,0.3,0.9,0.2C270,41.3,270.2,41,270.1,41z M127.4,85.9c3.9,0.2,4.8-0.4,5.5-3.2
	c0.3-1,0.6-2.1,0.9-3.1c0.1-0.3,0-0.6,0.1-0.9c-0.3,0-0.7-0.1-0.9,0.1C129.9,80.3,129,83.2,127.4,85.9z M76.4,49.3
	c-0.4-3.3-0.8-6.1-1.2-9.2c-1.3,0.6-2.4,1.1-3.5,1.7c-0.3,0.2-0.6,1.2-0.4,1.5C72.9,45.3,74.5,47.1,76.4,49.3z M302.3,25.8
	c0.4-2,1-3.7,1-5.4c0-0.9-1-1.8-1.5-2.7c-0.6,0.6-1.5,1.1-1.8,1.8c-0.7,1.4-1,2.9,0.7,4.1C301.2,24.1,301.5,24.9,302.3,25.8z
	 M204.4,47.8c-0.6-1-1-1.9-1.7-2.6c-0.5-0.5-1.5-1.1-1.8-0.9c-0.7,0.4-1.7,1.4-1.7,2.1c0.1,1.2,0.8,2.4,1.6,3.3
	c0.3,0.3,1.7-0.2,2.5-0.6C203.7,48.9,204,48.3,204.4,47.8z M181.4,28.5c0.2,0.1,0.5,0.2,0.7,0.3c1.3-1.3,2.7-2.6,4-4
	c0.5-0.5,0.8-1.3,0.9-2.1c0-0.3-1-1.1-1.1-1.1c-1.3,1.1-2.8,2.2-3.8,3.5C181.6,26,181.6,27.4,181.4,28.5z M139.7,85.5
	c-1.3-1.4-2.3-2.6-3.5-3.6c-0.1-0.1-1,0.2-1.1,0.5c-0.3,0.7-0.3,1.5-0.5,2.3c-0.4,2.1,0.5,3,2.5,2.3
	C138.1,86.7,138.8,86.1,139.7,85.5z M299.9,39.5c0.2-0.1,0.5-0.2,0.7-0.3c0-1.6,0.1-3.2,0-4.7c-0.1-1.6-1.4-1.6-2.5-1.4
	c-1.3,0.3-1.4,1.3-0.9,2.2C297.9,36.8,298.9,38.1,299.9,39.5z M246.6,37.9c0.4,3.1,2,4.6,3.7,6c0.3,0.3,1,0.4,1.3,0.3
	c0.3-0.2,0.6-0.8,0.5-1.2c-0.1-0.7-0.3-1.7-0.8-2.1C249.9,39.9,248.4,39.1,246.6,37.9z M263.4,52.5c-0.8-1.1-1.5-1.9-2.1-2.8
	c-0.9,1-1.8,2-2.8,3c0.9,0.8,1.8,1.6,2.6,2.3C261.8,54.3,262.5,53.5,263.4,52.5z M110.5,10.9c-1.6,1-2.8,1.7-3.9,2.5
	c-0.4,0.3-0.6,1.2-0.5,1.6c0.2,0.5,0.9,1.3,1.3,1.2c1-0.2,2.3-0.5,2.7-1.3C110.7,14,110.4,12.6,110.5,10.9z M185.2,34.2
	c0.7-0.8,1.7-1.5,1.6-1.8c-0.4-1.1-1.1-2-1.8-3c-0.8,0.7-2.1,1.5-2.1,2.2C183,32.4,184.3,33.1,185.2,34.2z M120.4,78.4
	c-1.1,3.4,0.1,6.2,1,8.9c0.1,0.3,0.7,0.4,1.1,0.6c0.1-0.4,0.4-0.9,0.3-1.2C122.1,84.1,121.3,81.6,120.4,78.4z M94.8,52.6
	c-1.2,1-2.2,1.7-3.1,2.6c-0.4,0.4-0.6,1.1-0.9,1.7c0.7,0,1.6,0.3,2.2-0.1C94.1,55.9,95.3,55,94.8,52.6z M103.4,9.9
	c0.4-2.3-0.1-4.1-2.2-5.9C100.7,6.8,102.4,8.2,103.4,9.9z M282.6,43c0.4,3.4,0.4,3.4,4.5,3.1C285.5,44.9,284.1,44,282.6,43z
	 M138.2,50.6c0.1,0,0.3-0.1,0.4-0.1c0-1.3,0.1-2.5,0-3.8c0-0.3-0.6-0.6-1-0.8c-0.2,0.4-0.5,0.8-0.4,1.2
	C137.4,48.3,137.8,49.4,138.2,50.6z M294,38.7c-0.7-0.3-1.2-0.6-1.7-0.6c-0.3,0-1,0.6-1,0.7c0.3,0.8,0.8,1.5,1.2,2.3
	C293,40.4,293.4,39.7,294,38.7z M211.2,22c-1.1-0.7-2-1.4-3-2.1c-0.1,0.3-0.4,0.7-0.3,0.8c0.7,0.8,1.5,1.5,2.3,2.2
	C210.2,22.8,210.6,22.4,211.2,22z M145.2,4.3c-0.2,0.2-0.4,0.3-0.6,0.5c0.6,0.8,1.2,1.6,1.8,2.4c0.1,0.1,0.5-0.1,0.7-0.2
	c0.1,0,0.1-0.3,0-0.4C146.5,5.8,145.9,5,145.2,4.3z M276.9,51c0.2,0.3,0.3,0.6,0.5,0.7c0.2,0.1,0.5-0.1,0.7-0.1
	c-0.1-0.3-0.2-0.6-0.4-0.8C277.6,50.7,277.2,50.9,276.9,51z M256.7,26.6c0,0.1,0,0.3,0.1,0.3c0.1,0.1,0.3,0.1,0.5,0.1
	c0-0.2-0.1-0.4-0.1-0.6C257,26.4,256.8,26.5,256.7,26.6z"/>
</svg>
