<?xml version="1.0" encoding="utf-8"?>
<!-- Generator: Adobe Illustrator 18.0.0, SVG Export Plug-In . SVG Version: 6.00 Build 0)  -->
<!DOCTYPE svg PUBLIC "-//W3C//DTD SVG 1.1//EN" "http://www.w3.org/Graphics/SVG/1.1/DTD/svg11.dtd">
<svg version="1.1" id="Layer_1" xmlns="http://www.w3.org/2000/svg" xmlns:xlink="http://www.w3.org/1999/xlink" x="0px" y="0px"
	 viewBox="0 0 110.2 331.6" enable-background="new 0 0 110.2 331.6" xml:space="preserve">
<g>
	<path d="M11,318c1.1,3.9,1.1,3.9,0.4,8.2c-0.6-1.6-1.2-2.6-1.3-3.5c-0.6-4.5-0.7-4.5-4.8-3.2c-2.5,0.8-3.8,0.1-3.9-2.4
		c-0.1-0.9,0.4-1.8,0.6-2.7c0.7,0.4,1.6,0.8,2.2,1.3c1.7,1.6,3.2,1.4,3.8-0.7c0.3-0.9,0.1-1.9,0.2-2.9c0.3-0.5,0.6-0.9,0.8-1.4
		c0.1-0.2-0.2-0.5-0.2-0.8c-0.2,0.3-0.4,0.6-0.5,0.9c-0.1,0.4-0.1,0.9-0.1,1.3c-0.3,0.3-0.6,0.7-1,1c-0.3,0.3-0.7,0.5-1.1,0.7
		c-0.2-0.4-0.6-0.8-0.5-1.1c0.1-0.8,0.5-1.5,0.7-2.3c1.4-4.4,1.3-5.1-2.5-7.6c-3.6-2.4-3.9-5.8-3.7-9.7c1,1.3,1.9,2.7,3,4
		c0.7,0.8,1.7,1.3,2.5,2c0.5-0.8,1-1.6,1.4-2.5c0.7-1.8,1.2-3.6,2.1-5.3c0.5-0.9,1.5-1.4,2.9-2.5c0,1.8,0,2.9,0,4
		c-0.1,0.1-0.3,0.1-0.4,0.2c-0.1,0.1-0.1,0.2-0.1,0.3c0.2-0.2,0.3-0.3,0.5-0.5c0.6,0,1.3,0,1.9,0c0.3,0.3,0.7,0.6,1,0.9
		c0,0.3,0,0.6,0,1c0,2.7,2.5,1.9,3.9,2.6c0.1,0,0.4-0.3,0.6-0.5c-0.9-0.7-1.9-1.5-2.9-2.2c-0.5-0.4-1.1-0.6-1.7-0.9
		c-0.3-0.3-0.6-0.7-0.9-1c0.5-1.4,1.6-2.4,3-1.7c2.3,1.1,3.1,0,4.2-1.7c0.7-1.1,2.1-1.9,3.3-2.7c0.4-0.3,1.1-0.1,1.7-0.2
		c-0.1,0.6,0,1.2-0.2,1.7c-0.2,0.7-0.6,1.4-0.9,2.2c0.6,0.3,1,0.6,1.4,0.8c1.2,0.7,2.7,2.1,3.7,1.8c1-0.3,1.6-2.2,2.4-3.4
		c0.4-0.5,0.8-1.1,1.3-1.4c0.6-0.4,1.4-0.5,2.2-0.7c0,0.7,0.1,1.5-0.1,2.2c-0.3,1.1-0.8,2.1-1.1,3.2c-0.7,2.6-1.5,5.2,0.9,7.6
		c0.7,0.7,0.8,2.1,1.3,3.1c1.3,2.8,4.8,3.7,7.1,1.5c0.6-0.5,0.8-1.7,0.9-2.6c0.1-2.6,0-5.2,0-7.8c0-3.2-0.2-6.4,0-9.6
		c0.5-6.7-1.6-13-2.4-19.5c-0.1-1.1-0.5-2.2-0.5-3.3c-0.4-5.6-0.5-11.2-1.1-16.8c-0.5-4.6-1.3-9.2-2.3-13.7c-0.7-3.4-0.7-6.6-0.1-10
		c0.3-1.8,0.4-3.9,0-5.7c-0.9-3.6-1.6-7.2-1.4-10.9c0.1-1.1,0-2.3-0.3-3.3c-1.8-6.5-3.6-12.9-5.5-19.3c-1-3.4-2-6.8-2.8-10.2
		c-1.4-6-3.2-12-3.8-18.2c-0.2-2.3,0.4-4.8,0.9-7.1c1.2-5.5,1.7-11.1,4.1-16.3c1-2.2,1.1-5,1.4-7.5c0.8-5.9,2.7-11.6,2.2-17.6
		c-0.1-1.2,0.3-2.5,0.8-3.7c2-4.9,4.1-9.7,6.2-14.6c0.6-1.4,1.3-2.7-1-3.3c-1.4-0.3-1.2-1.3-0.4-2.2c2.6-2.8,4.2-6,4.2-10
		c0-1.6,0.9-3.1,2.6-3.7c2.1-0.7,1.8-2,1.2-3.7c-2.3-6.4-5.3-12.1-12-15c-1.3-0.6-2.4-1.6-3.5-2.6c-1.8-1.6-3.5-3.3-3.1-6.1
		c0.5-3.3,1.9-6.2,4.1-8.5c1.5-1.5,3.3-0.5,4.8,0.7c0.3,0.2,0.9,0.1,1.3,0.2c0.1-0.4,0.2-0.9,0.2-1.3c0-0.3-0.2-0.6-0.4-0.9
		c-1.8-2.8-2.5-5.5,0.2-8.2c0.5-0.5,0.3-2.2-0.3-3c-1.1-1.5-2.6-2.9-4.1-4.1c-1.8-1.6-2.5-3.5-1.6-5.6c0.8-2,2.8-2.5,4.8-2.6
		c1.4-0.1,2.9-0.2,4.4,0c4,0.5,7.8-0.8,11-2.8c3.9-2.4,7.8-3.6,12.3-3.2c1.1,0.1,2.4,0,3.3-0.5C71.2-0.8,74,0,76.4,1.6
		c3.8,2.5,8,4.6,10.5,8.7c0.7,1.1,1.4,2.3,1.6,3.5c0.5,4.3,1.1,8.6,1.1,12.9c0,4.8-0.6,9.6-1.1,14.4c-0.1,0.7-1,1.3-1.6,1.9
		c-0.4-0.8-0.8-1.6-1.2-2.4c0.3-0.3,0.5-0.6,0.8-0.9c-0.2-0.1-0.3-0.2-0.5-0.3c-0.1,0.4-0.2,0.8-0.3,1.3c-0.3,0.9-0.7,1.7-0.9,2.6
		c-0.2,1.3-0.1,2.6-0.5,3.8c-0.2,0.8-1.2,2-1.6,2c-1.3-0.2-0.8-1.4-0.6-2.3c0.2-1.1,0.4-2.3-0.4-3.7c-1,2.3-2.1,4.6-2.8,7
		c-0.3,0.9,0,2.4,0.7,3.1c1.9,2.1,2.3,4.6,2.1,7.2c-0.3,3.9,1.3,7,3.1,10.4c4.2,7.8,7.5,16,9.4,24.7c0.6,2.8,0.6,5.7,1.1,8.6
		c1.3,6.9,0.9,13.8,1,20.7c0,0.6,0,1.4,0.3,1.9c2.3,4.3,1.3,8.7,0.2,13.1c-0.4,1.5-0.4,3.2-0.5,4.8c-0.2,4.1,0.3,8.2,0.1,12.4
		c-0.2,5.7-1.9,10.4-6.5,13.9c-1.6,1.2-2.1,2-1.7,4.2c0.5,2.2-0.3,4.7-0.7,7.1c-0.9,4.7-2.1,9.4-2.7,14.1c-0.7,5.6-4.3,8.8-8.7,11.3
		c-1.9,1.1-4.2,1.4-5.5,3.5c-0.1,0.1-1.3-0.2-1.4-0.5c-0.4-1.5-0.1-2.9,1.5-3.7c0.9-0.4,1.8-0.6,2.8-0.9c3-0.7,4.6-2.7,6.1-5.4
		c4.2-7.5,5.1-15.8,6.9-24c0.1-0.4-0.2-0.9-0.2-1.1c-2.3,1-4.6,2.1-7,3c-0.6,0.2-1.6-0.2-2.1-0.6c-0.3-0.2-0.3-1.4,0.1-1.7
		c0.4-0.5,1.3-0.9,1.9-0.8c2.1,0.6,3.1,0.2,4-2c0.7-1.8,1.9-3.3,4.4-3.8c2.8-0.6,4.1-3.3,4.9-6.1c1.5-5.3,2.3-10.7,1.9-16.2
		c-0.3-3.6,0.1-7.1,1.1-10.5c1-3.2,1.6-6.3-1.4-8.8c-0.3-0.3-0.2-1.1-0.2-1.7c0.7-7.4,1.2-14.8-0.9-22c-0.2-0.6-0.5-1.2-0.5-1.8
		c0-5.9-1.7-14-4.3-19.3c-2.6-5.3-4.5-10.9-7.6-16c-1.2-2-1.8-2.2-3.6-0.4c-2.4,2.4-4.6,4.9-6.9,7.4c-0.2,0.2-0.3,0.7-0.5,0.8
		c-3.5,0.5-4.3,4.1-6.8,5.7c-2.4,1.5-4.5,3.1-5.4,5.9c-0.1,0.4-1,1-1.4,0.9c-0.5-0.1-1.1-0.7-1.2-1.2c-0.3-1.2-0.2-2.5-0.4-4.4
		c-2.8,2.8-4,5.7-3.6,9.2c0.6,4.6,1.2,9.2,1.9,13.8c0.6,3.6,1.3,7.2,2.1,10.8c1.2,5.4,0.6,10.8,0.2,16.2c-0.6,7-0.9,14.1,0.3,21.2
		c0.5,2.7,0.6,5.3,2.1,7.8c1.1,1.9,2.5,2.5,4.4,2.1c4.8-0.9,9.5-2.6,13.2-5.6c2.7-2.2,5-5.1,5-9.4c-0.1-4.3,1.3-8.5,1.5-12.8
		c0.2-5.3,0.2-10.6-0.4-15.9c-0.6-5.2-2.2-10.3-3.2-15.5c-0.4-2.3-1-0.3-1.6-0.3c-0.4,0-1.1-0.8-1.1-0.9c0.8-1.5,1.8-2.9,2.7-4.4
		c2.6,2.4,1.6,5.2,2.3,7.6c1.1,4.2,1.3,8.6,2.8,12.6c1.9,5.3,0.3,10.5,0.6,15.7c0.1,2.2-0.6,4.4-0.9,6.6c0,0.4,0.6,1.3,0.8,1.3
		c3.8-0.4,3.9,2.7,3.9,4.8c0,3.3-0.4,6.8-1.7,9.8c-1.4,3.3-2.4,6.7-2.8,10.1c-0.4,3.1-1.6,4.9-4.5,5.3c-4.7,0.6-5.9,3.4-6.7,7.8
		c-0.8,4.3-1.1,8.9-3.8,12.7c1,5-2.2,8.8-3.9,13c-1.2,2.9,0,6.8,2.6,8.5c0.8,0.5,1.7,0.9,2.6,1.3c1.5,0.7,2.1,1.9,1.9,3.5
		c-0.3,1.7-1.5,2.4-3.1,2.4c-0.6,0-1.3,0.1-1.9,0c-1.4-0.1-2.3,0.2-2.8,1.9c-0.7,2.5-3,2-4.9,1.9c-2.1-0.1-2.6-1.9-2.7-3.4
		c-0.3-2.5,0.2-5.2-0.4-7.6c-1-4.4-0.1-8.5,0.3-12.8c0.3-3.2-0.1-6.5,0.1-9.7c0.1-2.7,0.6-5.4,0.8-8.1c0.1-1.4,0.2-2.9,0.1-4.4
		c-0.2-2.7-0.7-5.4-0.9-8.1c-0.1-1.2-0.3-1.8-1.7-1.4c-0.2,0.1-1.1-1.1-1.1-1.7c0.1-3.4,0.3-6.7,0.6-10.1c0.1-0.8,0.3-1.6,0.2-2.4
		c-1.7-7.2-0.6-14.5-0.7-21.7c-0.1-3.6,0.8-7.2,0.8-10.8c0-3.5-0.1-7.2-1.1-10.5c-1.8-5.9-2.6-11.9-2.7-18c0-1.7-0.8-3.4-0.9-5.2
		c-0.1-1.7,0.3-3.4,0.5-5.1c-2.2-0.1-3.5,0.9-3.9,3.2c-0.8,4.4-2.2,8.6-4.1,12.7c-1.7,3.7-1.1,8.1-1.2,12.1
		c-0.1,3.3-0.3,6.4-1.7,9.4c-1.2,2.7-1.4,5.6-1.4,8.5c0,2.7-0.2,2.9-2.8,1.9c-1.1-0.4-1,0.2-1,0.7c0.2,2.1-0.5,3.4-2.9,3.4
		c-0.3,0-0.8,0.6-0.9,1c-0.7,5.2-2,10.5-2,15.7c0.1,4.5,2,8.9,6.3,12c0-2.7-3.3-3.3-2.3-6.2c2,0.9,3.5,2.5,4.4,4
		c1.8,3.2,4.7,4.8,7.8,6.2c0.6,0.3,1.2,0.5,1.7,0.9c0.4,0.4,0.7,0.9,1.1,1.4c-0.6,0.1-1.2,0.4-1.7,0.2c-4.2-1.7-8.4-3.3-12.4-5.3
		c-1.6-0.8-2.7-2.6-4.1-3.9c-0.2-0.1-0.3-0.3-0.5-0.4c0.1,0.2,0.3,0.3,0.4,0.5c1.1,6,2.1,11.9,4.4,17.7c1.2,3.1,1.5,6.5,2.5,9.8
		c1.1,3.7,2.5,7.3,3.5,10.9c0.4,1.4,0.4,2.9,0.3,4.3c-0.3,4.4,0.6,8.6,1.5,12.9c0.3,1.2,0.5,2.6,0.2,3.8c-1.2,4.2-0.8,8.2,0.2,12.4
		c0.9,4,1.4,8.2,2,12.3c0.4,3.2,1,6.4,0.9,9.6c-0.1,7,1.6,13.7,2.3,20.5c0.2,1.7,0.6,3.5,0.6,5.2c0.1,5.8,0,11.5,0.1,17.3
		c0.1,2.8,0.4,5.6,0.6,8.4c0,0.7-0.2,1.5-0.4,2.2c-0.7-0.2-1.7-0.1-2.1-0.6c-0.9-1.1-1.8-1.2-3-0.7c-4.1,1.8-8.4,2-12.7,1.1
		c-0.4-0.1-0.8,0.2-1.3,0.3c0.2,0.5,0.2,1.4,0.5,1.6c3.3,1.7,6.5,3.6,10,4.7c1.6,0.5,3.7-0.8,5-2.4c1.3-1.6,2.5-2.5,4,0
		c0.5,0.8,2.2,1.3,3.3,1.4c2.4,0.1,4.8-0.2,7.2-0.3c4.1-0.2,4.9-1,5.3-5.3c0.2-2.7,0.7-5.4,0.9-8.1c0.2-3.4,0-6.8-2.1-9.7
		c-0.3-0.4-0.5-0.9-0.5-1.3c0.1-4.4,0.6-8.8,0.4-13.2c-0.2-5.3-1-10.5-1.5-15.8c-0.2-1.9-0.3-3.9,0.1-5.8c1.2-5.4,1.2-10.8,0-16.2
		c-0.8-3.8,0.5-7.3,1-11c0.1-0.6,1.4-1.1,2.2-1.7c-0.5,3.5-0.9,6.8-1.4,10c-0.1,0.6-0.1,1.3,0.1,1.9c0.1,0.4,0.5,0.7,0.7,1
		c0.3-0.3,0.8-0.6,0.8-0.9c0.1-2.1,0.1-4.2,0.1-6.3c0-0.5-0.1-1,0.1-1.4c0.1-0.4,0.4-0.7,0.6-1.1c0.4,0.3,1,0.6,1,0.9
		c0.3,2,1.3,4.5,0.6,6.1c-1.2,2.5,0.1,4.7-0.1,7c-0.2,2.3,0.3,4.8,0.5,7.2c0.1,0.6,0.4,1.3,0.3,1.9c-0.6,8.5,2.9,16.4,3.6,24.6
		c0.7,7.8,3.9,15.4,1.9,23.4c-0.1,0.3-0.2,0.7-0.1,0.9c2.5,3.3,1.2,7.2,1.3,10.8c0.1,1.6-0.5,3.2-1,4.7c-0.2,0.7-0.8,1.8-1.3,1.8
		c-3.9,0.1-3.5,2.8-3.6,5.4c0,0.9-0.7,1.9-0.7,2.8c0.2,3.3-2.1,4.4-4.6,4.5c-2.6,0.1-5.6,1.3-8-1.5c-0.6-0.8-2.3-0.9-3.6-0.9
		c-5.2-0.1-10.3,0-15.5,0c-5.4,0-10.5-1.4-15.3-3.6c-1.4-0.6-2.8-1.7-3.7-2.9c-0.7-0.9-1.1-2.6-0.7-3.4c0.4-0.8,2.1-1.4,3.2-1.4
		c4.8-0.3,9.5-0.4,15.1-0.6c-2.3-1.2-3.8-2.1-5.4-2.7c-2.2-0.9-3.2-2.6-4-4.6c-0.2-0.6-0.5-1.5-0.2-1.8c3.1-2.9,0.2-4.9-0.9-7.1
		c-0.1-0.2-0.5-0.4-1.4-1c0.4,1.6,0.8,2.7,0.9,3.9c0.2,1.6,0.5,3.2-1.4,4.2c-0.5,0.3-0.9,0.6-1.4,0.9c-0.1-0.6-0.4-1.1-0.3-1.7
		c0-1.6,0.2-3.2,0.4-5.8c-1.5,2.4-0.2,4.9-2.8,5.8c-0.1-0.8-0.1-1.6-0.2-2.4c-0.1-0.7,1.2-2-0.6-2c-0.4,0-1.1,1-1.2,1.7
		c-0.4,1.8,0.7,3.9-1.4,5.3c-0.1,0.1,0.3,0.8,0.4,1.2c0.1,0.7,0.4,1.6,0.1,2c-0.6,0.7-2.4,0-2.8-1c-0.1-0.4-0.1-0.9,0-1.4
		c0.2-1.8-0.7-3-2.6-4.5c0.4,4.3,2,7.5,3.1,10.8c0.7,2,1.5,3.9,2,5.9c0.1,0.5-0.6,1.2-0.9,1.8c-0.3-0.5-0.8-0.9-0.9-1.4
		C12.8,321.1,13.4,319,11,318c-0.1-0.1-0.1-0.3-0.2-0.4c-0.1-0.1-0.2-0.1-0.3-0.1C10.7,317.7,10.9,317.8,11,318z M45,77.4
		c-0.1,0.2-0.3,0.3-0.4,0.5C44.7,77.8,44.9,77.6,45,77.4c0.2-0.1,0.4-0.3,0.5-0.5C45.3,77.1,45.1,77.3,45,77.4z M5.2,301.5
		c-0.2-0.1-0.3-0.3-0.5-0.4C4.9,301.2,5,301.4,5.2,301.5c0.1,0.2,0.3,0.4,0.4,0.5C5.5,301.8,5.4,301.7,5.2,301.5z M73.1,43.5
		c-0.3,0.3-0.5,0.6-0.8,1c0.2,0.1,0.3,0.2,0.5,0.3C72.9,44.3,73,43.9,73.1,43.5c0.1-0.1,0.3-0.1,0.4-0.2c0.1-0.1,0.1-0.2,0.1-0.3
		C73.4,43.2,73.3,43.3,73.1,43.5z M30.5,296.6c-0.2-0.1-0.3-0.3-0.5-0.4C30.1,296.4,30.3,296.5,30.5,296.6c0.3,0.7,0.6,1.3,1,2
		c0.8,2.6,1.6,5.2,2.6,7.7c0.1,0.4,1.1,0.5,1.6,0.7c0.2-0.6,0.6-1.4,0.4-1.7c-1.5-2.3-3-4.5-4.6-6.7C31.1,298,30.8,297.3,30.5,296.6
		z M81.9,31.9c-0.3,0.3-0.5,0.6-0.8,1c0.2,0.1,0.3,0.2,0.5,0.3C81.7,32.7,81.7,32.3,81.9,31.9c0.2-0.3,0.5-0.6,0.8-1
		c-0.2-0.1-0.3-0.2-0.5-0.3C82,31,81.9,31.4,81.9,31.9z M74.1,35.7c-0.3,0.6-0.6,1.3-1,1.9c-4.1,2.4-4.9,6.4-4.9,10.7
		c-0.3,0.3-0.7,0.6-1,1c-2.8-0.2-2.9-3.1-3.2-4.6c-0.4-1.6-0.6-1.8-2-2.2c-3-0.8-5.2-0.6-6.5,2.6c-0.1,0.3-0.4,0.5-0.7,0.7
		c-1.1,0.8-2.3,1.5-3.4,2.3c-1.3-1.9,0.9-2.4,1.5-3.4c1.3-2,2.7-4,4.1-5.9c0.7-0.9,1.5-1.8,2.4-2.4c0.6-0.4,1.4-0.3,2.2-0.4
		c-0.1,0.6-0.2,1.2-0.2,1.7c-0.1,0.7-0.1,1.4-0.1,2.1c0.9-0.2,2.1-0.1,2.6-0.6c2.7-3.1,5.4-6.3,7.8-9.7c1-1.5,0.8-3.4-0.6-4.9
		c-1.2-1.4-2.7-1.7-4.4-1.1c-0.7,0.2-1.6,0.6-2.3,0.5c-0.6-0.1-1.6-1.3-1.5-1.4c1.7-2.6,3.6-5.1,5.4-7.6c2.3,0.6,4.9,0.2,6.7,2.4
		c-0.3,0.6-0.6,1.3-1,1.9c-0.3,0.5-0.6,1-0.8,1.6c-0.1,0.2,0.2,0.5,0.4,0.7c0.1-0.3,0.3-0.6,0.3-0.9c0.1-0.5,0.1-1,0.1-1.4
		c0.3-0.6,0.6-1.3,1-1.9c0.3,0,0.6,0,1-0.1c3.5-0.5,4.7-2.4,2.7-5c-2.1-2.6-4.5-5-7.1-7.2c-2.3-1.9-5.2-1.2-7.9-1.2
		c-0.4,1.6-0.7,3.2-1.1,4.7c-0.1,0.5-0.3,1-0.6,1.8c-0.6-0.7-1.1-1-1.2-1.4c-0.3-1.9-1-2.6-2.9-1.5c-0.5,0.3-1.3,0.3-1.9,0.1
		c-2.2-0.8-4,0-5.8,1.2c-0.6,0.4-1.4,0.7-2.2,0.8c-3.3,0.4-6.7,0.7-10,1c-2.5,0.2-3.5,1.8-1.9,3.8c1,1.2,2.4,2.1,3.6,3.1
		c2.4,2,3.7,5.9,1.8,7.1c-2.7,1.8-1.2,3.5-0.7,5.3c0.2,0.6,0.5,1.2,0.8,1.8c0.8,1.6,1.1,3.2-0.4,4.4c-1.3,1-2.7,0.8-4-0.1
		c-0.5-0.4-1-0.8-1.6-1c-0.4-0.1-1-0.1-1.4,0.1c-2,1.2-3.4,6.5-2,8.3c1.4,1.7,3,3.6,4.9,4.6c5.7,2.8,9,7.5,11.2,13.2
		c0.6,1.7,1.4,3.5,2.3,5.6c1-1.3,1.7-2.2,2.4-3c2-2.4,4.5-4.7,7.5-4.7c4.4,0.1,7.7-2,11.2-3.9c0.7-0.4,1.6-1,2.1-0.8
		c3,1.1,2.4-0.9,2.3-2.5c-0.1-1.4-0.1-2.7-0.1-4.1c0-0.3-0.3-0.7-0.5-0.7c-0.3,0-0.9,0.1-1.1,0.3c-0.4,0.5-0.7,1.1-0.8,1.7
		c-0.3,1.6-0.8,2.3-2.6,1.5c-0.5-0.3-1.6,0.5-2.2,0.3c-0.5-0.2-0.8-1.1-1.2-1.7c0.3-0.3,0.6-0.6,1-1c0.3-0.5,0.7-1,0.9-1.5
		c0.8-3,1.6-5.9,3.8-8.3c0.2-0.2,0.1-0.6,0.2-0.9C73.4,37,73.8,36.4,74.1,35.7c0.3-0.3,0.5-0.6,0.8-1c-0.2-0.1-0.3-0.2-0.5-0.3
		C74.3,34.9,74.2,35.3,74.1,35.7z M32.4,293.7c-0.2,0.3-0.5,0.6-0.7,1c0.2,0.1,0.3,0.2,0.5,0.3C32.2,294.6,32.3,294.2,32.4,293.7
		c0.1,0,0.3-0.1,0.4-0.2c0.1-0.1,0.1-0.2,0.1-0.3C32.7,293.4,32.5,293.6,32.4,293.7z M20.7,294.7c-0.1-0.1-0.1-0.3-0.2-0.4
		c-0.1-0.1-0.2-0.1-0.3-0.1C20.4,294.4,20.6,294.6,20.7,294.7c0.6,0.4,1.3,0.7,1.9,1c0.3,0.3,0.6,0.6,1,1c1.1,1.8,2.2,3.5,3.2,5.3
		c0.5-2.9-1.5-4-3.2-5.4c-0.3-0.3-0.6-0.6-1-1C22.1,295.4,21.4,295,20.7,294.7z M22.7,290.8c-0.3,0.3-0.5,0.6-0.8,1
		c0.2,0.1,0.3,0.2,0.5,0.3C22.5,291.7,22.6,291.3,22.7,290.8c0.1-0.1,0.3-0.1,0.4-0.2c0.1-0.1,0.1-0.2,0.1-0.3
		C23,290.5,22.8,290.7,22.7,290.8z M79.9,27c0.3-0.5,0.6-1,0.8-1.6c0.1-0.2-0.2-0.5-0.4-0.7c-0.1,0.3-0.3,0.6-0.3,0.9
		C79.9,26,79.9,26.5,79.9,27c-0.3,0.5-0.6,0.9-0.8,1.4c-0.1,0.2,0.2,0.5,0.3,0.8c0.2-0.3,0.4-0.6,0.5-0.9
		C79.9,27.9,79.9,27.5,79.9,27z M78,33.8c-0.3,1-0.6,1.9-1,2.9c-0.3,0.3-0.5,0.6-0.8,0.9c0.2,0.1,0.3,0.2,0.5,0.3
		c0.1-0.4,0.2-0.8,0.3-1.2C77.3,35.7,77.6,34.8,78,33.8c0.1,0,0.3-0.1,0.4-0.2c0.1-0.1,0.1-0.2,0.1-0.3C78.3,33.5,78.1,33.6,78,33.8
		z M83.3,10c0,0.1,0.1,0.2,0.1,0.3c0.1-0.1,0.1-0.2,0.2-0.2c-0.1,0-0.2-0.1,0.5,0.2c0.1,1.6-0.1,3.3,2.5,3.8
		C85.6,12.6,84.9,11.4,83.3,10z M9.1,296.7c-1.9,1.9-0.6,4.1-0.5,6.3c0.6-0.5,1.2-1.1,1.2-1.7C9.7,299.7,9.3,298.2,9.1,296.7
		c0.3-0.5,0.6-0.9,0.9-1.4c0.1-0.2-0.2-0.5-0.3-0.8c-0.2,0.3-0.5,0.6-0.5,0.9C9.1,295.8,9.1,296.2,9.1,296.7z M13,301.5
		c1.8-0.5,3.5-0.9,5.4-1.4c-2.3-1.5-2.4-1.6-3.2-1C14.3,299.8,13.7,300.7,13,301.5c-0.1,0.1-0.3,0.1-0.4,0.2
		c-0.1,0.1-0.1,0.2-0.1,0.3C12.7,301.8,12.8,301.7,13,301.5z M48.9,72.6c0-0.2,0-0.3,0-0.5c-0.2-0.7-0.4-1.4-0.7-2.1
		c-0.3,0.1-0.5,0.2-0.8,0.3c0.4,0.7,0.7,1.4,1.1,2C48.5,72.5,48.7,72.5,48.9,72.6c0.2,2.6,0.2,2.6,2.4,1.1c0.1-0.1,0.3-0.1,0.4-0.1
		c0.6,1.2,1.3,2.4,2.2,4.1c0.5-3,0.9-5.2,1.4-7.8c-1.3,1.4-2.4,2.5-3.5,3.6c0.2-1.4,0.3-2.8,0.6-4.6C51,70.4,49.9,71.5,48.9,72.6z
		 M39.2,97.8c-2,1.9-2.2,4.5-2.9,6.9c-1.1,4-1,8.1-2.4,12.2c-1.1,3.1-1.5,7.1,0.9,10.3C38.5,117.7,37.6,107.6,39.2,97.8
		c2.9-2.4,2.8-5.9,2.9-9.3C41.1,91.6,40.2,94.7,39.2,97.8z M58.6,165.7c-0.8-1.5-1.9-2.6-3.6-3.5c0,1.8,0,3.3,0,4.2
		C56.3,166.2,57.4,166,58.6,165.7c-0.2,2,0.6,3.3,2.7,2.8c4.3-0.9,9-0.4,12.6-3.7c1.5-1.4,3.3-2.5,5.2-3.5c6.1-3.1,6.3-8.8,6.5-14.4
		c0-0.7-0.9-2-1.4-2c-1.1,0-2.2,0.6-2.2,2.1c0,0.5-0.1,1,0,1.4c0.4,5.4-3,8.8-6.8,11.3C70.2,163.1,64.5,164.9,58.6,165.7z
		 M59.5,172.5c-0.1-0.1-0.1-0.3-0.2-0.4c-0.1-0.1-0.2-0.1-0.3-0.1C59.2,172.2,59.4,172.4,59.5,172.5c-0.3,0.8-0.8,1.5-0.9,2.3
		c-0.4,5.9-0.9,11.8-1,17.8c0,3.2,0.6,6.4,1,9.5c0.5,4,0.9,7.9,1.7,11.8c1.1,5,2,5.5,6.9,5.1c0.5-0.1,1-0.5,1.6-0.8
		c-0.4-0.4-0.8-0.9-1.3-1.1c-3.4-1.3-5.4-3.7-5.9-7.4c-0.3-2.1-0.4-4.1,0.7-6.1c1-1.8,1.8-3.8,2.9-5.6c1.2-2.2,1.4-4.2,0-6.4
		c-0.5-0.8-1.4-1.7-1.3-2.4c0.2-1.4,1.5-0.4,2.3-0.6c0.4-0.1,0.8-0.9,1-1.4c1.6-4.3,3.2-8.7,3.1-13.2
		C66.8,173.5,63.2,173,59.5,172.5z M18.1,320.4c2.7,3.6,6.6,4.4,10.2,5.2c4.7,1,9.5,0.9,14.3,1.1c3.1,0.2,6.1,0,9.2,0
		c2.1,0,3.9,0.1,6,1.3c1.6,0.9,4,0.5,6.1,0.5c0.4,0,1.2-0.7,1.3-1.2c0.7-3.9,1.1-7.9-0.2-11.8c-0.3-0.8-0.8-1-1.9-0.7
		c-2.5,0.9-5.1,1.8-7.8,2.1c-3,0.3-6.2,0.6-8.7-1.7c-0.9-0.8-1.5-0.6-2.4,0.1c-3.1,2.4-6.6,3.6-10.6,3.7
		C28.5,319.3,23.5,319.9,18.1,320.4z M52.7,67.9c1.9-0.7,2.9-1.1,3.9-1.5c0.4,1.2,0.8,2.3,1,3.5c0.1,0.4-0.2,0.9-0.3,1.4
		c-0.4,2.8-0.9,5.7-1.1,8.5c-0.1,0.7,0.5,1.6,1.1,2c0.3,0.2,1.4-0.4,1.9-0.9c2.3-2.2,4.2-4.8,6.8-6.5c2.2-1.5,4-3,5.2-5.4
		c0.8-1.5,1.9-3.2,3.4-4c2.1-1.1,2.2-3.9,4.7-4.5c0.4-0.1,0.3-2.3,0.4-3.5c-0.7,0-1.5,0.2-2.2,0.1c-4.3-0.5-7.8,1.5-11.2,3.7
		c-1.3,0.8-2.6,1.6-4,1c-2.8-1.2-4.6,0.6-6.4,2C54.8,64.7,54.1,66,52.7,67.9z M64.5,248.9c-0.2,0-0.4,0.1-0.6,0.1
		c-0.4,1.9-0.9,3.7-1.1,5.6c-0.2,2.4-0.2,4.8-0.1,7.2c0.1,2.4,0.6,4.7,0.8,7.1c0.2,3.8,1.2,7.6,0.1,11.4c-0.1,0.4,0,1,0,1.4
		c0.6,6.7,2.9,13.1,2.9,19.9c0,1.5,1,1.9,2.2,1c0.7-0.5,1.3-1.4,1.6-2.2c1.4-3.4,1-6.9,0.4-10.4c-0.5-3.2-1-6.3-1.6-9.4
		c-1-5.3-2-10.7-3-16c-0.3-1.9-0.6-3.8-0.8-5.7C65,255.6,64.7,252.2,64.5,248.9z M72.5,308.9c-0.1,0-0.3-0.1-0.4-0.1
		c0-1,0.1-1.9,0-2.9c0-0.4-0.5-1.2-0.6-1.2c-1.4,0.2-2.8,0.4-4.1,0.9c-0.3,0.1-0.2,1.3-0.3,1.9c-0.1,1.2,0.2,2.6-0.3,3.7
		c-0.8,2.1,0.4,3.4,1.3,4.9c0.7,1.1,2.3,0.9,2.7-0.3C71.5,313.5,71.9,311.2,72.5,308.9z M64,170.4c0.1,0.5,0.2,0.9,0.2,1.4
		c3.3-0.4,6.6-0.9,9.9-1.2c6.2-0.5,6.6-1,7.1-8.1C75.9,166.5,70.7,170.3,64,170.4z M45.1,82.5c3-1.3,5.1-2.2,7.4-3.2
		C48.4,76.7,48,76.9,45.1,82.5z M58,215.9c-0.5,5.9-0.5,5.9,3.3,6C60.1,219.9,59,217.9,58,215.9z M30,300.5
		c-0.6,1.7-1.1,2.9-1.3,4.1c-0.1,0.4,0.4,1.2,0.8,1.4c0.5,0.3,1.3,0.2,1.8,0c0.2-0.1,0.2-1.1,0.1-1.6
		C31.1,303.4,30.6,302.2,30,300.5z M27.9,298.3c0.3-0.2,0.5-0.5,0.8-0.7c-1.1-1.4-2.1-2.9-3.3-4.3c-0.2-0.2-1-0.2-1.2,0.1
		c-0.2,0.3-0.2,1,0,1.2C25.4,295.8,26.6,297,27.9,298.3z M82.8,28.2c2.2-4.5,2.2-4.5,1.2-8.4C83.6,22.8,83.2,25.5,82.8,28.2z
		 M85.8,35.6c0.3-0.4,0.6-0.7,0.7-1c0.1-0.4-0.2-0.8-0.3-1.2c-0.3,0.5-0.7,1-0.9,1.5C85.3,35,85.6,35.3,85.8,35.6z M13.8,307.9
		c0.1-0.8,0.1-1.4,0.1-2c0-0.3-0.2-0.5-0.3-0.8c-0.2,0.6-0.4,1.3-0.4,1.9C13.1,307.2,13.4,307.4,13.8,307.9z M21.7,299
		c-0.2-0.3-0.3-0.6-0.5-0.8c-0.1,0.3-0.3,0.5-0.3,0.8c0,0.3,0.2,0.5,0.3,0.8C21.3,299.6,21.5,299.3,21.7,299z M71.9,18.6
		c0-0.2,0-0.3,0.1-0.5c-0.2,0-0.4,0.1-0.5,0.1c0,0.1,0.1,0.3,0.2,0.4C71.6,18.7,71.8,18.6,71.9,18.6z M66.9,41.2
		c-0.1,0-0.3,0-0.3,0.1c-0.1,0.1-0.1,0.3-0.1,0.4c0.2,0,0.4-0.1,0.5-0.1C67,41.5,67,41.3,66.9,41.2z M70.9,36c0-0.1,0.1-0.3,0.1-0.4
		c-0.2,0-0.4,0.1-0.6,0.1c0,0.1,0.1,0.3,0.2,0.4C70.6,36.1,70.8,36,70.9,36z M76.8,43.4c-0.1-0.1-0.2-0.3-0.3-0.4
		c-0.1,0.1-0.3,0.3-0.3,0.3c0.1,0.2,0.3,0.3,0.4,0.5C76.7,43.7,76.7,43.5,76.8,43.4z M75.8,31.7c-0.1-0.1-0.2-0.2-0.3-0.3
		c-0.1,0.2-0.2,0.4-0.3,0.7c0,0.1,0.2,0.2,0.2,0.3C75.6,32.1,75.7,31.9,75.8,31.7z M77.7,25.3c0-0.2,0-0.3,0.1-0.5
		c-0.2,0-0.4,0.1-0.6,0.1c0,0.1,0.1,0.3,0.2,0.4C77.4,25.5,77.6,25.4,77.7,25.3z M78.3,21.8c0,0.1-0.1,0.3-0.1,0.4
		c0.2,0,0.4,0,0.5,0.1c0-0.1,0-0.3-0.1-0.4C78.6,21.8,78.4,21.8,78.3,21.8z M13.7,296.6c-0.1-0.1-0.2-0.3-0.2-0.4
		c-0.1,0.1-0.3,0.3-0.3,0.3c0.1,0.2,0.3,0.3,0.4,0.5C13.6,296.9,13.7,296.7,13.7,296.6z"/>
	<path d="M81.9,317c-0.2,0.1-0.3,0.1-0.5,0.2c-0.6,0.2-1.2,0.4-1.7,0.6c0.1-0.4,0-0.8,0.2-1.2c0.4-0.7,0.8-1.4,1.3-2
		c2.7-4.2,2.7-4.2,2.3-10.3c-1.4,3-2.4,5.2-3.5,7.4c-0.5,1-1,2.2-1.8,2.7c-1.2,0.8-1-0.5-1.1-1.2c0.2-0.3,0.5-0.6,0.7-1
		c-0.2-0.1-0.3-0.2-0.5-0.3c-0.1,0.4-0.2,0.8-0.3,1.2c-0.5-0.3-0.9-0.5-1.4-0.8c2.9-4.9,3.8-10.9,9.1-14.5c2.4-1.6,3.9-4.5,6.7-6.5
		c-0.3,0.9-0.5,1.8-0.9,2.7c-1.3,3.2-1.2,3.4,1.5,5.6c1.2,1,2.7,2-0.1,2.9c-0.3,0.1-0.6,0.7-0.6,0.9c0.6,2.1,1.3,4.2,2.1,6.9
		c1.4-1.8,2.7-3.3,4-4.9c0.5-0.6,0.8-1.4,1.4-1.9c1.4-1.2,2.9-2.3,4.3-3.5c1.6,2.3-0.8,3.3-1.5,4.9c-0.5,1.3-0.1,2,1.4,2.4
		c3.5,1,5.7,3.4,7.3,7.3c-2.1-0.4-2.8-1.9-4-2.7c-1.3-0.8-2.8-2.4-4.3-1.3c-1.4,1.1-0.8,2.9-0.1,4.5c0.9,2.2,1.9,4.4,2.8,6.7
		c0.2,0.6,0.4,1.2,0.4,1.8c0,0.2-0.3,0.7-0.5,0.7c-0.4,0-1.1-0.2-1.1-0.4c-0.6-1.8-1-3.6-2.2-5.3c0.2,1.5,0.5,3.1,0.7,4.6
		c0,0.4-0.3,0.8-0.4,1.2c-0.4-0.4-1.1-0.7-1.2-1.2c-0.5-3.8-0.9-7.6-1.3-11.8c-2.2,1.5-1.7,3.4-1.2,5.1c0.4,1.5,1.7,3.2-1.5,2.8
		c-0.3,0-0.8,1.8-1.5,3.4c-0.2-2.5-0.4-4.4-0.6-6.3c-0.2,0-0.5-0.1-0.7-0.1c-0.3,1-0.5,2-1,2.9c-0.4,0.7-1,1.2-1.6,1.9
		c-0.1-0.8-0.2-1.5-0.3-2.3c0.5-1.1,1-2.3,1.6-3.4c-2.1,0.7-1.3,2.2-1.6,3.4c-0.5,0.8-1,1.5-1.5,2.3c-0.3-0.2-0.6-0.4-0.9-0.6
		c0.5-2,0.9-4,1.4-5.9c-0.3-0.1-0.6-0.2-0.9-0.2c-0.4,1.3-0.9,2.5-1.3,3.8c-0.1-0.1-0.5-0.1-0.6-0.3c-0.3-0.8-0.6-1.7-0.9-2.6
		c-0.6,0.7-1.4,1.2-1.8,2c-1.8,3.3-1.7,3.2,1.3,5.8c2.3,2,4.7,4.3,3.9,8.4c-1.6-1.5-2.8-2.8-4.1-3.9c-3.4-3.2-5.4-3.4-9.4-1.2
		c-0.7,0.4-1.3,1.3-2,0.3c-0.8-1.2,0.4-1.5,1.2-2.1c0.4-0.3,0.7-0.6,1-1c0.6-0.3,1.3-0.6,1.9-1c1.6,0.3,3.2,0.7,4.8,1
		c0.6,0.3,1.3,0.6,1.9,1c0.3,0.3,0.6,0.6,1,1c0.1,0.1,0.1,0.3,0.2,0.4c0.1,0.1,0.2,0.1,0.3,0.1c-0.2-0.2-0.3-0.3-0.5-0.5
		c-0.3-0.3-0.6-0.6-1-1c-0.6-0.3-1.3-0.6-1.9-1c-1.5-1-2.8-3-4.9-1c-0.6,0.3-1.3,0.6-1.9,1c-0.2-0.6-0.6-1.7-0.4-1.8
		c1.2-0.8,2.4-1.6,3.7-2C81,319.6,81.8,318.7,81.9,317c0.3-0.7,0.6-1.3,1-1.9c0.3-0.3,0.6-0.7,1-1c0.3-0.3,0.6-0.6,1-1
		c0.4-0.1,0.8-0.2,1.3-0.3c-0.1-0.2-0.2-0.3-0.3-0.5c-0.3,0.3-0.6,0.5-1,0.8c-0.3,0.3-0.6,0.6-1,1c-0.3,0.3-0.7,0.6-1,1
		C82.5,315.7,82.2,316.4,81.9,317z M98.3,307.3c-0.1,0.2-0.3,0.4-0.4,0.5C98,307.7,98.2,307.5,98.3,307.3c0.2-0.1,0.4-0.3,0.5-0.5
		C98.6,307,98.5,307.1,98.3,307.3z M81.9,303.5c0.3-0.3,0.6-0.7,1-1c0.6-0.7,1.3-1.3,1.9-2c0.4-0.1,0.8-0.2,1.3-0.3
		c-0.1-0.2-0.2-0.3-0.3-0.5c-0.3,0.3-0.6,0.5-1,0.8c-1.3,0-1.9,0.6-2,1.9C82.5,302.8,82.1,303.1,81.9,303.5
		c-0.2,0.1-0.4,0.3-0.5,0.4C81.5,303.8,81.7,303.6,81.9,303.5z M86.5,303.1c-0.1,0-0.3,0-0.4,0c-0.4,2-0.8,4-1.1,6.1
		c0,0.2,0.3,0.5,0.4,0.8c0.4-0.3,1-0.5,1-0.8C86.6,307.1,86.5,305.1,86.5,303.1z M93.7,313.9c0.1-0.3,0.2-0.5,0.3-0.8
		c-1.3-0.6-2.5-1.2-3.8-1.7c-0.3-0.1-0.8,0.3-1.3,0.5c0.2,0.4,0.4,1,0.7,1.1C91,313.3,92.4,313.6,93.7,313.9z M95.5,313.5
		c0.8-1.3,1.1-1.8,1.3-2.4c0.1-0.4,0.1-0.8,0.1-1.2c-0.4,0.3-1,0.6-1.2,1C95.5,311.4,95.6,312,95.5,313.5z M91,308.7
		c0.1-0.1,0.3-0.1,0.3-0.2c0-0.1,0-0.3,0-0.5c-0.2,0.1-0.3,0.2-0.5,0.3C90.9,308.5,90.9,308.6,91,308.7z M89.4,302.5
		c-0.1-0.1-0.1-0.3-0.2-0.4c-0.1,0-0.2,0.1-0.3,0.2c0.1,0.2,0.3,0.4,0.4,0.6C89.3,302.7,89.4,302.6,89.4,302.5z"/>
	<path d="M54.8,12.5c-0.3,0.8-0.3,1.4-0.6,1.7c-0.8,0.7-1.7,1.3-2.6,1.9c0,0-0.8-0.8-0.7-1c0.6-1.2,1.3-2.4,2.1-3.5
		C53.1,11.5,54.2,12.2,54.8,12.5z"/>
</g>
</svg>
