<?xml version="1.0" encoding="utf-8"?>
<!-- Generator: Adobe Illustrator 18.0.0, SVG Export Plug-In . SVG Version: 6.00 Build 0)  -->
<!DOCTYPE svg PUBLIC "-//W3C//DTD SVG 1.1//EN" "http://www.w3.org/Graphics/SVG/1.1/DTD/svg11.dtd">
<svg version="1.1" id="Layer_1" xmlns="http://www.w3.org/2000/svg" xmlns:xlink="http://www.w3.org/1999/xlink" x="0px" y="0px"
	 viewBox="0 0 214.5 171.1" enable-background="new 0 0 214.5 171.1" xml:space="preserve">
<g>
	<g>
		<path d="M56.7,147.4c-1.3,1.2-2.4,2.6-3.9,3.4c-2.9,1.7-4.4,3.9-4.8,7.2c-0.2,1.2-0.8,2.4-1.4,4.3c-1.5-4.9,1.8-8.4,1.2-12.6
			c-3,1.1-2.8,3.8-3.5,5.9c-0.6,1.8-0.9,3.7-1.4,5.6c-0.1,0.2-0.6,0.5-0.7,0.4c-0.3-0.3-0.5-0.6-0.8-1c-0.1-0.1,0.1-0.3,0.1-0.4
			c0.3-1.5,0.7-3,1-4.5c-2.2-0.5-2.6,1.9-4.1,2.7c-0.3,0.1-0.5,0.4-0.8,0.5c-0.3,0-0.7-0.1-0.8-0.3c-0.2-0.2-0.2-0.7-0.1-0.8
			c5.7-5.3,10.1-12.1,17.6-15.4c0.7-0.3,1.4-0.9,2-1.3c0.1-0.1,0.1-0.4,0.1-0.4c-0.2-0.2-0.5-0.6-0.6-0.5c-2.5,1-5.2,1.6-7.2,3.6
			c-3.9,3.8-8,7.4-11.9,11.1c-0.6,0.6-0.8,1.6-1.1,2.5c-0.7,2.1-1.4,4.2-2.1,6.3c-0.3-0.1-0.6-0.2-0.9-0.2c0.9-3.8,1.7-7.6,2.7-12.1
			c-2.8,3.7-5.3,6.7-5.6,10.9c-0.1,0.8-0.3,1.6-0.7,2.3c-0.4,0.6-1.1,0.9-1.6,1.3c-0.4-0.5-1-1-1-1.4c0.1-2.4-1.2-2-2.4-1.2
			c-2.3,1.7-4.5,3.6-6.7,5.4c-0.8,0.7-1.6,1.3-3.3,2.7c0.4-9.9,3.3-18.7,1.8-28.1c-1.8,2.2-2.6,4.3-2.6,6.9c0,2.3,0.1,4.5-0.1,6.8
			c-0.1,1.1-0.5,2.2-0.8,3.2c-0.1,0.4-0.7,0.8-1,0.8c-0.3,0-0.9-0.6-0.9-0.9c0.3-3.5-1.5-7.1,0.3-10.6c0.7-1.3-0.4-1.8-1.4-1.7
			c-2.4,0.3-4.7,0.8-7.1,1.1c-0.7,0.1-1.4-0.2-2.1-0.3c0.3-0.7,0.5-1.4,1-2c1.7-2,3.8-3.2,6.5-4c2.8-0.8,6.1-1.1,7.9-4
			c0.2-0.2,1.5-0.1,1.9,0.3c0.7,0.6,1.1,1.6,1.9,2.8c0.7-1.3,1.4-2.3,1.9-3.4c2.4-5.9,4.7-11.8,7.1-17.7c0.3-0.7,1.2-1.3,1.8-1.9
			c0.5,0.8,1.4,1.5,1.5,2.3c0.1,1.4-0.2,2.9-0.3,4.3c-0.1,1.1-0.2,2.1-0.5,4c2.8-1.8,5.5-3,7.2-4.9c1.4-1.6,1.8-4.1,2.3-6.3
			c1.3-6.5-0.5-13.1,0-19.6c0.1-1.2-1.4-2.5,0-3.6c1.8-1.3,3.6-2.6,5.6-3.5c0.9-0.4,2.2,0,3.4-0.2c3.6-0.4,4.6-1.7,4.7-5.3
			c0.1-2.6-0.1-5.1-1.6-7.4c-1.3-2.1-1.2-4.5-0.2-6.9c2.5-6.1,4-12.4,4.9-19c0.7-5,3-9.8,4.7-14.6c0.8-2.2,2.1-4.3,2.8-6.6
			c2-5.9,6.4-9.3,12.3-11.3c-0.5,0.6-0.9,1.5-1.6,1.9c-5,3.1-8.3,7.3-9.9,13.1c-1,3.9-3,7.4-4.4,11.2c-1.2,3.5-2.5,6.9-2.3,10.8
			c0.1,1.7-0.6,3.4-0.9,5.2c-0.1,0.1-0.3,0.1-0.4,0.2c-0.1,0.1-0.1,0.2-0.1,0.3c0.1-0.2,0.3-0.3,0.4-0.5c2.4-2.1,2.4-5.2,2.7-8
			c0.2-2.7,1.1-4.9,2.4-7.1c3.8-6.5,7.7-13,11.2-19.6c1.5-2.9,3.7-4.8,6.4-6.2c1.6-0.8,3.1-1.6,3.8-3.4c0.2-0.6,0.8-1.1,1.3-1.4
			c4.8-2.5,9-6.1,14.3-7.6c2.2-0.6,4.3-1.4,4.7-4.2c0.1-0.6,1.4-1,2.1-1.6c0.4-0.3,0.8-0.9,0.7-1.3c-0.1-1.5,0.8-1.9,1.7-1.1
			c1.6,1.6,3.5,1.4,5.4,1.4c3-0.1,5.5,0.5,7.6,3.2c1.8,2.3,4.3,4.3,6.9,5.9c1.3,0.8,3.4,0.6,5.1,0.7c1.3,0.1,2.6,0.4,2.3,1.8
			c-0.8,4.4,1.8,7.6,3.5,11.2c0.6,1.2,1.2,3.6,0.9,3.8c-1.4,0.8-3.3,1.5-4.9,1.4c-5.7-0.6-5.7-0.8-6.3,4.7c-0.1,0.6,0,1.5-0.4,1.8
			c-2.3,2-4.6,3.9-7,5.6c-0.5,0.4-1.5,0.3-2.2,0.3c-2.6,0-3.5,0.7-2.9,2.9c1,3.3,1.3,6.2-0.9,9.2c-0.4,0.6,0,2.3,0.6,3.1
			c2.8,3.9,5.3,8,8.5,11.7c4.1,4.7,8.8,9,11.4,14.8c0.6,1.3,2.1,2.2,3.2,3.4c0.4,0.5,1,1.3,0.9,1.7c-0.3,1.1-0.2,1.5,1,2.2
			c5.6,3,6.3,4.7,5.2,10.8c-0.2,0.9-0.8,1.7-1.1,2.6c-0.6,1.5-1.1,2.9-1.7,4.4c-0.5,1.2-0.8,2.4-1.4,3.5c-1.8,2.8-2.6,5.9-3.3,9
			c-1.1,4.6-2.2,9.3-3.3,14.2c2.9,0.3,6.1,0.5,9.2,1.1c2.3,0.5,4.5,1.4,6.8,2.3c0.3,0.1,0.4,1.1,0.2,1.6c-0.2,0.6-0.8,1-1.3,1.4
			c-3.9,2.7-8,5.2-13,5.4c-1.4,0.1-3-0.1-4.2-0.8c-2.3-1.2-4.7-1.1-7.1-1.1c-0.6,0-1.6,0-1.8,0.4c-2.1,3.3-5.1,1-7.7,1.3
			c-0.7,0.1-1.9-0.9-2.1-1.6c-0.7-2.5-2.1-5,0-7.8c1.8-2.3,0.4-5.3,0.4-7.9c0-1.6-0.1-3.1,0.4-4.6c1.4-4.4,2.9-8.8,4.5-13.1
			c0.5-1.5,1.7-2.8,0-4.3c-1.5-1.4-3.6-1.9-4.9-0.8c-2.8,2.4-7.4,3.8-6.4,9.1c0.2,1-0.3,2.2-0.8,3.2c-2.8,5.3-2.7,10.8-1,16.3
			c0.3,0.9,1.2,2.3,1.6,2.2c3.9-0.6,2.8,2.2,3.1,4.2c0.4,2.1,1.2,4.2,1.9,6.3l0,0.1c-1.6-0.4-2.5-2.8-4.7-1.6c-0.1,0-0.5-0.7-0.8-1
			c-0.3-0.3-0.7-0.9-0.9-0.9c-2.9,1.1-5.8,2.3-8.7,3.6c-2.6,1.2-2.8,2.7-0.5,4.6c2,1.7,2,1.7,2.8,4.8c-1.3-0.2-2.5-0.5-3.7-0.6
			c-1.2-0.1-1.1-0.5-1.4-1.7c-0.7-2.9-2.2-5.6-3.4-8.4c-1.1-2.7-2.3-5.3-2.9-8.1c-0.4-1.6-0.4-3.1-2.1-3.9c-0.3-0.2-0.8-0.9-0.7-1.2
			c1.4-3-1.1-4.7-2.2-6.9c-0.7-1.4-1.4-2.9-1.8-4.4c-0.2-0.8-0.1-2.1,0.4-2.7c0.9-1.1,1.5,0.5,2.3,0.7c1.5,0.4,3.1,0.5,4.7,0.6
			c1.9,0.2,3.9,0,5.7,0.5c1.3,0.3,2.6,2.4,3.5,2.1c2-0.6,4.1-1.8,5.6-3.4c1.1-1.1,1.3-3.2,1.8-4.8c0.1-0.2-0.8-0.8-0.9-0.8
			c-1.8,1.5-4.5,1.8-5.7,4.1c-0.2,0.5-0.9,1.1-1.2,1.1c-0.5-0.1-1.2-0.7-1.4-1.2c-0.6-2.6-1-5.3-1.5-8c-0.1-0.8,0-1.6-0.1-2.4
			c-0.5-4.6-1.5-6-5.9-7c-3.6-0.9-7-3.3-11.1-2.2c-2,0.5-4.1,0.8-6.2,1c-6,0.6-12.1,1.1-18.1,1.8c-3.9,0.5-7.2-1.2-10.7-2.3
			c-1.6-0.5-2.1,0-1.8,1.5c0.6,4,1.3,7.9,1.7,11.9c0.2,1.8-0.3,3.8-0.5,6c3-1.7,6.1-2.9,6.6-6.8c0.1-0.9,0.7-1.8,1.3-2.6
			c0.3-0.4,1.1-0.6,1.7-0.6c0.2,0,0.7,0.7,0.7,1.1c0.2,2.3,0.1,4.5-2.2,6c-0.8,0.5-1.7,1-2.3,1.7c-1.7,1.9-4.7,2.8-4.7,6.1
			c0,0.4-0.8,1-1.4,1.2c-1.4,0.5-1.7,1.7-2.2,2.9c-1.8,3.9-3.2,8.1-6.5,11.2c-0.3,0.3-0.7,0.7-0.8,1.2c-0.7,3.4-1.4,6.8-2.1,10.2
			c0.3,0.2,0.6,0.5,0.8,0.7c0.6-0.9,1.2-1.7,1.7-2.6c2-3.4,4.8-6,7.8-8.4c0.4-0.3,1.4-0.4,1.6-0.2c0.4,0.3,0.6,1.3,0.5,1.7
			c-0.5,1.1-1.3,2.2-2,3.2c-0.9,1.4-1.9,2.9-2.9,4.3c-0.1,0-0.3,0.1-0.4,0.1c-0.1,0-0.1,0.2-0.1,0.3c0.1-0.1,0.3-0.3,0.4-0.4
			c1-0.5,2.1-0.8,2.9-1.5c1.7-1.5,3.2-3.2,4.8-4.8c1.1-1,1.6-1.9,1.2-3.7c-0.5-2.5-0.1-5.1,0.1-7.7c0-0.6,0.9-1.2,1.6-1.5
			c0.2-0.1,1,0.7,1.2,1.2c0.7,1.8,1.2,3.6,2,5.4c0.3,0.7,1.1,1.6,1.5,1.6c2.5-0.2,5.1-0.4,7.5-1.1c0.8-0.2,1.4-1.6,1.9-2.6
			c0.8-1.7,1.5-3.6,2.3-5.3c0.2-0.5,0.9-0.8,1.3-1.1c0.4,0.5,1,0.9,1.1,1.5c0.1,1.2,0.2,2.5-0.1,3.6c-0.4,1.7-1.2,3.2-2.1,5.6
			c2.5-1.4,4.6-2.1,6.2-3.5c1.1-0.9,1.5-2.7,2.2-4.1c0.5-0.9,0.7-2.6,2.2-1.7c1.2,0.7,1.4,2.1-0.1,3.2c-0.3,0.2-0.5,0.7-1.1,1.4
			c1.5-0.2,2.5-0.5,3.5-0.5c0.8,0,1.9-1.2,2.4,0.4c0.4,1.4-0.1,2.6-1.8,2.8l-0.3-0.3c-0.3-0.5-0.7-1.5-0.8-1.5
			c-2.2,0.6-4.3,1.3-6.4,2c-0.3,0.1-0.7,0.4-0.7,0.6c-0.4,3-3,4.4-4.7,6.5c-0.2,0.3-0.2,0.9-0.2,1.3c-0.2,4.3-0.4,8.5-0.9,12.8
			c-2-3.8-0.4-7.7-0.5-12.1c-6.8,3.6-10.4,10.4-17.2,15.1c1.2-3.3,3.3-4.5,4.9-6.2c1.5-1.7,3.1-3.2,4.7-4.8c1.7-1.7,3.4-3.3,4.7-5.6
			C60.8,145.5,58.8,146.4,56.7,147.4c1.1-2.7,3.8-3.3,5.8-4.8c1.3-1,2.2-1.7,1.6-3.5c-1.3,0.9-2.4,1.8-3.6,2.4
			c-2.7,1.2-5.6,2.2-8.3,3.5c-1.5,0.7-2.5,2.1-2.2,3.9c0.1,0.9,0.5,1.5,1.6,1C53.3,149,55,148.2,56.7,147.4z M17.9,163.8
			c2.6-1.8,5.3-3.6,7.8-5.5c1.8-1.4,3.6-3,3.5-5.4c-0.1-1.8-0.8-3.5-1.5-6.3c-1.1,2.8-3.8,3-3.9,5.7c-0.1,3.4-1.9,6-4.1,8.4
			C18.9,161.5,18.5,162.8,17.9,163.8c-0.1,0.1-0.2,0.1-0.3,0.2c-0.1,0-0.1,0.2-0.1,0.3C17.6,164.1,17.8,164,17.9,163.8z M107.2,16.4
			c-1.7-3.8-3-4.6-6.7-4.5C102.5,13.3,104.8,14.9,107.2,16.4c-0.2,1.2-0.4,2.5-2,1.3c-0.7-0.5-1.3-1.3-2-2c-1.6,2.5-2.9-0.2-4.3-0.2
			c-3.7,0-7.4-0.6-10.4,2.5c-1.4,1.5-3.3,2.7-5.2,3.4c-4.5,1.7-6.8,5.1-8.9,9.1c-2.8,5.2-5.9,10.4-8.7,15.6
			c-1.2,2.1-2.7,4.3-2.9,6.6c-0.7,7.5-4.6,14-6.3,21.2c-0.1,0.5-0.8,1.3-1.2,1.3c-2.3-0.1-1.4,1.2-1,2.2c1.4,4.3,3.2,8.4,4.1,12.8
			c0.3,1.5,0.6,2.2,1.8,2.6c1.7,0.6,3.1,0.1,4.4-1.2c2-2,2.2-2.1,4,0c1,1.1,2,1.5,3.4,1.4c1.5,0,2.9,0.1,4.4,0
			c2.3-0.2,4.3,0.2,6.3,1.7c2,1.5,4.5,2.4,6.8,3.5c1.8,0.9,3.1,0.9,3.5-1.5c0.1-0.5,0.8-1.3,1.2-1.3c0.5,0,1.2,0.7,1.4,1.2
			c1.3,3.7,3.7,7.2,3,11.5c-0.1,0.9-0.1,1.9,0,2.9c0.3,3.4,2,4.2,4.8,2.4c0.5-0.3,1-0.8,1.5-1.2c1.8-1.3,3.6-2.5,5.4-3.8
			c0.8-0.6,1.8-1.1,2.2-1.8c1.2-2.4,3.5-3.2,5.3-4.8c1.9-1.7,4.9-1.6,6.3-4.2c0-0.1,1.1,0.1,1.1,0.3c0.1,0.5,0.2,1.3-0.1,1.7
			c-1.2,1.3-3.4,2.4-3.5,3.7c-0.2,1.6,1.4,3.3,2.3,5c0.3,0.7,0.8,1.5,0.9,2.2c0.1,0.7,0.1,2-0.3,2.3c-3.6,2.2-3.7,6.3-4.9,9.6
			c-1.4,3.7-2.3,7.6-1.5,11.7c0.4,1.8-0.3,3.8-0.5,5.7c-0.1,1-0.5,2-0.3,2.8c0.3,1,1,2.2,1.8,2.5c0.8,0.3,2.4-0.1,2.9-0.8
			c1.5-2.4,3.3-2.1,5.4-1.2c0.7,0.3,1.5,0.6,2.3,0.7c3.7,0.6,7.4,2.2,12.4,1c-3.8-1.6-6.6-3-9.5-4.1c-2.2-0.8-4.1-1.8-5.7-3.5
			c-1.1-1.2-1.3-2.5-0.7-4c2.3-5.8,4.5-11.7,6.8-17.5c1.3-3.4,2.8-6.8,4.1-10.3c0.1-0.4,0-1.1-0.2-1.3c-0.2-0.2-0.9-0.1-1.3,0.1
			c-1.8,1.3-3.5,2.7-5.2,4c-1.7-1.9-1.5-3.6-0.8-5.6c1-3,0.8-5.9-1.6-8.5c-0.7-0.8-1.4-1.5-2.4-1c-1.3,0.7-1.5-0.1-2.1-1
			c-1.9-3.2-5.4-4.3-8.4-6.1c-0.3-0.2-0.7-0.4-0.9-0.3c-0.3,0.1-0.7,0.4-0.8,0.8c-0.9,2.5-1.5,1.2-2.2-0.2
			c-2.1-4.5-3.4-9.5-6.9-13.1c-1.8-1.9-3.6-3.7-4.5-6.1c-1.1-2.9-3.1-4.8-5.6-6.3c-1.9-1.2-3.5-2.8-5.2-4.3
			c-0.3-0.3-0.1-1.1-0.1-1.6c0.6,0.1,1.3,0,1.6,0.3c1.1,0.9,2,2.1,3.2,3c0.6,0.4,1.6,0.8,2.2,0.5c0.5-0.2,0.8-1.3,0.9-2
			c0.2-3.4,0-6.8-1.2-10c-0.2-0.5,0.2-1.1,0.3-1.7c0.6,0.4,1.5,0.6,1.7,1.1c1.1,3.7,1.4,7.6,1.4,11.4c0,1.7,0.4,3.6,1.2,5
			c2.2,3.5,3.6,7.5,6.9,10.3c2.6,2.3,5.2,5,7,7.9c3,4.8,8.4,6.1,12.5,9.2c1.9,1.4,3.9,0.7,5.9-0.4c3.6-2,3.8-2.5,1.5-5.7
			c-0.5-0.6-1-1.3-1.3-2c-1.5-3.9-4.2-7.1-7.5-9.3c-3.3-2.1-4.7-5.1-6.1-8.3c-1-2.2-2.2-3.9-4.6-4.4c-1.3-0.3-2-0.9-1.6-2.4
			c0.9-3.6,0.2-6.9-1.6-10.2c-1.4-2.5-1.5-5.5-3.7-7.7c-0.6-0.6-0.8-1.8-0.9-2.7c-0.1-1.2,0.7-1.4,1.4-0.7c1.1,1.2,1.3,0.4,1.1-0.5
			c-0.5-2.2-1.4-4.3-1.8-6.5c-0.9-4.5-3.2-5.6-7.1-3.2c-0.9,0.6-1.8,1.4-2.6,2.2c-2.6,2.8-5.1,5.7-7.6,8.6c-0.1-0.4-0.3-0.9-0.2-1.3
			c2-5.4,5.8-9.2,10.6-12.1c1.3-0.8,3-1.3,4.5-1.5c3.2-0.4,4,0.4,4.3,3.6c0.2,2.1,0,4.3,0.7,6.2c1.4,3.8,2.3,7.6,2.2,11.7
			c0,1.1,0.4,2.2,0.8,3.2c0.2,0.5,0.9,0.7,1.4,1c0.2-0.6,0.6-1.2,0.5-1.7c-0.2-3-1-6.1-0.8-9.1c0.5-6.7-1.5-12.7-4-18.7
			C109.4,17.2,108.6,16.4,107.2,16.4z M118.8,15.6c-0.1-0.3-0.2-0.5-0.2-0.8c-0.5,0.4-1.1,0.6-1.3,1.1c-0.6,1.3-1.2,2.7-1.3,4.1
			c-0.1,1.9,0.8,3.7-0.4,5.9c-0.8,1.5,0.2,4,0.3,6.1c0.1,0.8,0.1,1.6,0,2.4c-0.3,3.4,0.4,4.8,3.2,5.9c0.6,0.3,1.8,0.3,2.2,0
			c1.9-1.9,3.8-3.9,5.5-5.9c0.9-1.2,0.8-1.8-1.1-2c-1.8-0.2-2.6-3-1.2-3.4c3-0.8,5.5-3.5,8.9-2.7c0.8,0.2,1.5,0.6,2.3,0.7
			c1,0.2,1.9-1,1.3-1.9c-0.5-0.7-1.3-1.6-2.1-1.7c-2-0.2-3.1-1.1-4-2.9c-0.7-1.6-2-2.9-3.2-4.2c-0.6-0.6-1.6-1.1-2.4-1.1
			C123.2,15.1,121,15.4,118.8,15.6z M145,99.8c0-3.9-1.8-6.4-4.7-6.7c-0.6-0.1-1.2,0.2-1.7,0.6c-0.1,0.1,0,1,0.3,1.3
			c2.9,3.3,1.9,6.8,0.5,10.3c-2.3,5.5-4.4,11-7,16.4c-1.6,3.4-3.1,6.6-3.1,10.4c0,1.1-0.7,2.3-0.3,3.2c0.5,1.1,1.5,2.3,2.6,2.7
			c4.1,1.8,8.2,3.7,12.7,4.3c1.2,0.1,2.5-0.4,3.7-0.9c1-0.4,1-1.3,0.1-1.7c-1-0.5-2.1-0.8-3.2-0.9c-1.3-0.2-2.6,0-3.9-0.1
			c-6.3-0.4-8.2-3.4-5.8-9.2c0.2-0.6,0.6-1.1,0.8-1.7c0.5-1.5,1.2-3.1,1.2-4.6c-0.1-4.2,1.8-7.6,3.6-11.2c1.7-3.4,2.3-7.2,4.1-10.6
			C145.2,100.7,145,100,145,99.8z M44,96.2c1,0.5,1.7,1.1,2.5,1.3c6.4,1.7,13,1.8,19.5,0.9c1.9-0.3,3.7-0.2,5.6,0
			c2.7,0.2,5.6-0.7,8.3-1.1c0.1,0,0.2-1,0.1-1.1c-1-0.3-2.2-1-3.1-0.8c-7.4,1.3-14.5,1.2-21.6-1.8C51.7,92.1,47.4,92.2,44,96.2z
			 M115.8,4c-2.3,0.4-3.9,0.5-5.4,0.9c-0.5,0.1-1,0.8-1,1.3c0,0.4,0.6,1,1.1,1.3c0.8,0.4,1.8,0.5,2.6,1c0.4,0.2,0.7,1.2,0.5,1.6
			c-0.6,1.1-3.1,0.9-4,0c-0.3-0.3-1.1-0.4-1.3-0.2c-0.4,0.5-1.1,1.5-0.8,1.9c0.9,1.3,2.1,2.5,3.1,3.7c2.6,3.3,2.6,3.3,4.6-0.4
			c2.4-4.4,2.8-4.5,7.3-2.8c0.5,0.2,1.2-0.1,1.8-0.1c-0.1-0.6,0.1-1.3-0.2-1.7c-1.6-1.8-3.3-3.5-5.2-5.1
			C117.8,4.6,116.4,4.3,115.8,4z M107.8,142.1c-0.2-0.5-0.3-0.8-0.5-1.1c-0.8-2.2-1.6-4.5-2.4-6.7c-0.2-0.4-0.8-1-0.9-1
			c-0.5,0.2-1.1,0.6-1.3,1.1c-0.5,1.3-0.9,2.7-1.3,4.1c-0.9,3.2-1.3,3.4-4.2,2c-1.2-0.6-2.1-2.5-3.7-1.1c-1.6,1.3,0.3,2.6,0.2,4
			c0,0.3,0,0.7,0.1,0.9c1.1,3,3.3,3.8,6,2.1c2.1-1.3,4-3.2,6.8-3.3C107,143.1,107.4,142.4,107.8,142.1z M92.1,129.7
			c0.1-0.6,0.1-0.7,0.1-0.9c0.4-1,0.7-2.2,1.3-3c0.1-0.2,1.5,0.5,2.3,0.8c0.2,0.1,0.7-0.1,0.8-0.3c0.1-0.4,0.2-0.9,0.1-1.3
			c-0.9-2.1-6.4-2.9-8.8-1.3c-0.3,0.2-0.6,0.8-0.6,1.2c-0.3,4.4,2.8,9.3,7,11.3c1.5,0.7,2.1,0.4,2.1-1.2c0-0.6-0.3-1.3-0.3-1.9
			c0-2.8,0-2.8-2.3-3C93.3,129.9,92.8,129.8,92.1,129.7z M138.2,100.2c0-0.5,0-0.8-0.1-1.1c-0.3-1.4-0.7-2.8-1.1-4.1
			c-0.5-1.7-1.8-2.2-3.9-1.7c-1.8,0.5-2.2,1.2-2,3.3c0.3,2.2,0.3,4.4,0.5,6.6c0,0.4,0.2,0.8,0.4,1.2c0.4-0.1,0.9-0.2,1.3-0.4
			c1.3-1.1,1.5-3.9,4.3-2.7C137.7,101.2,138.1,100.5,138.2,100.2z M25,145.9c6.6-4.8,11.9-11.9,11.5-16c-3.8,4.2-7.2,8.1-10.7,12.1
			C24.8,143.1,24.4,144.4,25,145.9z M28.2,135.3c-0.3-0.2-0.5-0.5-0.8-0.7c-1.4,1-3,1.9-4.1,3.2c-1.8,2.2-3.3,4.6-5,7
			c-0.1,0.1-0.2,0.3-0.2,0.4c0.1,0.6,0.2,1.2,0.3,1.8c0.5-0.2,1.3-0.2,1.6-0.6c1.6-2.1,3.2-4.4,4.8-6.5
			C26,138.3,27.1,136.8,28.2,135.3z M5.8,144.8c1.7,2.2,3.5,0.9,5.2,0.4c0.3-0.1,0.5-0.7,0.7-1c-0.4-0.2-0.8-0.7-1.1-0.6
			C9.1,143.9,7.6,144.4,5.8,144.8z M25.6,132.6c3.2-1.9,3.2-1.9,2.4-5.8C27.3,128.5,26.6,130.2,25.6,132.6z M134.9,16
			c-1.2-0.7-1.8-1.3-2.6-1.4c-0.4-0.1-1.3,0.3-1.5,0.7c-0.4,0.8,0.9,2.1,2.1,1.9C133.4,17.1,133.8,16.6,134.9,16z M50.4,135.3
			c-0.2,0-0.5,0.1-0.7,0.1c-0.2,0.9-0.6,1.7-0.5,2.6c0.1,0.5,0.8,1,1.3,1.5c0.3-0.5,0.9-1.1,0.9-1.6C51.2,137,50.8,136.1,50.4,135.3
			z M100.7,133.5c-2,1.4-3,2.6-2.9,4.5c0,0.1,0.2,0.4,0.3,0.3c2-0.4,1.8-2.4,2.6-3.6C100.8,134.6,100.7,134.4,100.7,133.5z
			 M20.2,151.5c-1.2,1.4-2.5,2.7-2.5,4.7c0,0.1,0.2,0.2,0.4,0.3c0.8-1.4,1.7-2.9,2.5-4.3C20.6,152.1,20.4,151.9,20.2,151.5z
			 M103.4,125.1c-0.3-0.8-0.4-1.1-0.5-1.3c-0.7,0.7-1.5,1.4-2.1,2.2c-0.1,0.1,0.3,0.5,0.4,0.7C101.9,126.1,102.7,125.5,103.4,125.1z
			 M100.9,131.3c-0.1-0.1-0.2-0.3-0.3-0.3c-0.2,0.1-0.5,0.2-0.7,0.3c0.1,0.1,0.2,0.3,0.3,0.3C100.4,131.6,100.6,131.4,100.9,131.3z"
			/>
		<path d="M214.5,146.7c-4,0.6-7.8,1.3-11.6,1.7c-3.8,0.4-7.7,0.9-11.5,0.8c-4.1-0.1-8.2,1-12.3-0.6c-1.5-0.6-3.4-0.1-5.2-0.3
			c-0.8-0.1-1.6-0.8-2.4-1.2c0.7-0.6,1.2-1.4,2-1.8c1.3-0.7,2.6-1.3,4-1.5c2.3-0.3,3.3-1.8,4-3.7c0.7-2,1.3-4,2.1-5.9
			c0.8-2.1,2.4-3.4,4.8-3.3c3.3,0.1,6.7-0.4,10,0.9c4.4,1.7,5.4,2.8,5.5,7.3c0,1.7-1.4,3.7,0.4,4.8c1.2,0.8,3.1,0.4,4.6,0.7
			C210.9,144.9,213,145.1,214.5,146.7z M184,137.5c4.9,0.6,9.2,1.1,13.4,1.7c1.6,0.2,3.5,1.3,4.3-0.5c0.8-1.7-0.5-3.4-1.8-4.7
			c-1.6-1.6-3.6-1.4-5.5-1c-1.6,0.3-3,1.1-4.5,1.6c-0.5,0.2-1.3,0-1.8-0.3c-1.8-1.3-1.8-1.4-2.5-0.4
			C185.1,134.9,184.7,136,184,137.5z M193.6,144.4C193.6,144.4,193.6,144.4,193.6,144.4c1.9,0,3.9,0.1,5.8,0
			c0.6-0.1,1.2-0.8,1.7-1.2c-0.5-0.5-0.9-1.3-1.5-1.5c-4.5-1.8-9.2-2-14-2c-1.1,0-2.6-0.3-2.6,1.3c0,0.8,0.9,2,1.7,2.5
			c1,0.6,2.4,0.9,3.6,1C190.1,144.5,191.9,144.4,193.6,144.4z M186.7,147.5c0-0.1,0-0.1,0-0.2c1.9,0,3.9,0.1,5.8,0
			c0.5,0,1-0.5,1.5-0.8c-0.5-0.3-0.9-0.8-1.4-0.9c-3.7-0.4-7.3-0.6-11-0.9c-0.6,0-1.3-0.1-1.9,0.1c-0.7,0.2-1.4,0.7-2.1,1.1
			c0.6,0.4,1.2,1.1,1.9,1.2C181.9,147.3,184.3,147.3,186.7,147.5z"/>
		<path d="M77.2,138.7c-0.6,1.2-1.4,2.4-1.9,3.6c-0.1,0.3,0.6,1,1,1.5c0.3-0.2,0.6-0.5,1-0.7c0.9-0.6,1.8-1.1,2.7-1.7l0.2,0.2
			c-1.3,1.8-2.6,3.6-3.8,5.5c-0.3,0.5,0,1.3-0.1,1.9c0.6-0.3,1.1-0.6,1.7-0.9l0.4,0.3c0.1,2.3,0.1,2.3,3.8,0.5
			c-1.1,1.7-1.7,3.4-2.5,3.6c-2.1,0.5-1.1,0.8-0.3,1.6c0.9,1,0.8,1.4-0.8,1.6c-2,0.2-4.5,0.2-4.4,3.3c0,0.2-0.5,0.6-0.7,0.5
			c-0.4-0.2-1-0.5-1-0.8c0.4-2.8,0.8-5.7,1.2-8.5c0.2-1.5,0.3-3,0.1-4.5c-2.6,2.9-2.1,6.9-4.6,11c0-1.6,0-2.2,0-2.8
			c0-1.7,1.1-3.4,0.1-5.1c2-3.9,2.9-8.6,7.7-10.4L77.2,138.7z"/>
		<path d="M92.5,151.9c-0.3,1.4-0.7,2.5-0.8,3.6c-0.2,2-0.5,3.5-2.7,1.4c-0.2-0.2-0.9-0.2-1.3-0.1c-0.6,0.2-1.1,1.5-1.8,0.3
			c-0.2-0.4,0-1.3,0.4-1.8c1.2-1.5,2.4-2.9,3.8-4.2C91.1,150.2,92.5,151.1,92.5,151.9z"/>
		<path d="M79.9,141.4c1-2,2.9-1.9,5.1-2.5c-1,2.6-2,4.4-4,5.6c0,0-0.2-0.2-0.2-0.2c0.1-0.4,0.1-0.9,0.3-1.3c0.7-1.3,0-1.5-1.1-1.4
			L79.9,141.4z"/>
		<path d="M80.1,136.8c-1,0.6-2,1.3-2.9,1.9l-0.2-0.2c1-0.7,1.9-1.3,2.9-2L80.1,136.8z"/>
		<path d="M80.1,145.5c-0.6,1-1.3,2-1.9,3l-0.4-0.3c0.7-0.9,1.4-1.9,2-2.8L80.1,145.5z"/>
		<path d="M81.1,144.6c-0.3,0.3-0.6,0.6-1,1l-0.2-0.2c0.3-0.3,0.6-0.7,0.9-1L81.1,144.6z"/>
		<path d="M114,148.3c0.2,0.2,0.3,0.3,0.5,0.5C114.3,148.7,114.1,148.5,114,148.3L114,148.3z"/>
		<path d="M120.8,33.4c-1.1-1.3-1.7-1.8-1.8-2.3c-0.5-3.2-0.9-6.3-1.1-9.5c-0.1-0.9,0.8-2,1.3-2.9c0.1-0.2,0.6-0.2,0.9-0.1
			c0.2,0.1,0.6,0.6,0.5,0.7c-1.4,2.3,0.2,4.4,0.3,6.5C120.8,28,120.8,30.2,120.8,33.4z"/>
		<path d="M124.6,23.2c0.5,0,1-0.1,1.4,0c0.3,0.1,0.6,0.4,0.9,0.7c-0.3,0.1-0.6,0.4-0.8,0.3C125.6,23.9,125.1,23.5,124.6,23.2
			L124.6,23.2z"/>
		<path d="M124.6,23.2c-0.2-0.1-0.5-0.3-0.7-0.4C124.1,22.9,124.4,23.1,124.6,23.2L124.6,23.2z"/>
		<path d="M112.2,13.4c0.4-0.2,0.7-0.5,1.1-0.6c0.1,0,0.5,0.6,0.4,0.7c-0.3,0.3-0.6,0.5-0.9,0.8C112.6,14,112.4,13.8,112.2,13.4z"/>
	</g>
</g>
</svg>
