<?xml version="1.0" encoding="utf-8"?>
<!-- Generator: Adobe Illustrator 18.0.0, SVG Export Plug-In . SVG Version: 6.00 Build 0)  -->
<!DOCTYPE svg PUBLIC "-//W3C//DTD SVG 1.1//EN" "http://www.w3.org/Graphics/SVG/1.1/DTD/svg11.dtd">
<svg version="1.1" id="Layer_1" xmlns="http://www.w3.org/2000/svg" xmlns:xlink="http://www.w3.org/1999/xlink" x="0px" y="0px"
	 viewBox="0 0 288.4 298.3" enable-background="new 0 0 288.4 298.3" xml:space="preserve">
<g>
	<g>
		<path d="M66.5,210.7c0.6,1.8,1.2,3.7,2,5.4c0.3,0.7,1,1.8,1.3,1.7c0.8-0.2,1.8-0.7,2.3-1.4c3.3-4.2,4.1-9.2,5-14.2
			c0.8-4.2,0.5-8.2-0.9-12.2c-0.9-2.6-0.7-5.7-2.2-7.8c-2.8-4.1-2-8.9-3.6-13.2c-0.6-1.8,1.1-3.1,2.5-3.7c2.5-1,5.2-1.8,7.8-2.2
			c4.7-0.6,9.4-0.1,14.2,0.7c5.8,0.9,11.9,0.4,17.8,0.1c4.5-0.2,8.9,0.1,13.3,0.8c0.6,0.1,1.2-0.1,1.8-0.1c-0.1-0.6-0.1-1.1-0.3-1.7
			c-0.5-1.7-0.7-3.7-1.7-5.1c-1-1.3-3-1.8-4.3-3c-1.1-1.1-2.3-2.5-2.7-3.9c-1.4-5.8-5.3-10.5-7.2-16.1c-0.7-2-2.5-3.7-3.9-5.4
			c-4.6-5.7-5.3-12.3-4.4-19.2c1-7.3,2.4-14.5,3.7-21.8c0.1-0.6,0.3-1.2,0.5-1.8c2.3-6,4.6-12,7-18c0.9-2.2,2.3-4.2,3.4-6.3
			c1.7-3.1,3.7-6,3.7-9.8c0-1.6,1.2-3.4,2.3-4.6c1.7-1.9,3.7-3.6,5.8-5c4.6-3.1,8.9-6.8,14.5-8.5c3.1-1,6-2.9,9.3-4.6
			c0.4,0.5,0.8,1.3,1.5,1.9c1,0.9,2.1,1.5,3.3,0.1c0.5-0.6,1.1-1.1,1.8-1.7c0.9-0.7,1.8-1.3,2.7-2c-0.7-0.8-1.4-1.5-2-2.4
			c-0.9-1.5-0.2-2.8,1.8-3.4c1.8-0.5,3.5-1.1,5.6-1.7c-0.7-0.6-0.9-0.9-1.1-0.9c-0.9-0.1-2.4,0.2-2.6-0.1c-0.7-1.5,1-1.5,1.6-2.2
			c2.1-2.5,4.7-3.7,7.8-4.1c0.5-0.1,1-0.6,1.9-1.1c-1-0.1-1.4-0.2-1.9-0.2c-1,0-2.2,0.3-3.1-0.2c-0.7-0.4,1-1.7,3.2-1.8
			c0.9,0,1.8,0.2,2.5,0.3c0.8-0.9-3-2.1,0.5-2.4c0.6-0.1,1.3-0.3,1.6-0.7c1.6-2.3,3.1-3.2,6.3-3.5c0.3,0,0.7,0,0.9-0.2
			c3.3-2.4,7.3-2.3,11.1-2.9c5.9-1.1,11.6-0.7,16.1,4.1c1.5,1.6,3.2,3.1,4.9,4.5c0.6,0.5,1.4,0.7,2.1,0.9c1.9,0.4,3.8,0.7,5.7,0.9
			c3.3,0.4,3.3,0.4,2.9,3.8c-0.2,1.4,0,2.9-0.2,4.3c-0.3,2-0.4,4.4-1.5,6c-1.5,2.3-1.6,4.4-1.1,6.9c0.9,4.1-0.3,7.9-2.1,11.6
			c-0.7,1.4-1.6,1.4-2.7,0.7c-1.6-1.1-3.1-2.3-4.8-3.2c-2.2-1.3-3-1.2-4.5,0.8c-1.6,2.1-3.3,4.1-2.3,7.4c1.2,3.7-0.8,6.8-4.5,8.4
			c-2.8,1.2-5.5,1.9-8.8,1.1c-2.7-0.7-5.7-0.1-8.5,0.1c-0.4,0-0.7,0.5-1,0.9c-1.7,1.9-3.6,3.7-5.2,5.7c-1.1,1.4-0.2,1.4,1,1.1
			c0.1,0,0.7,0.7,0.6,0.9c-0.3,0.7-0.6,1.6-1.2,2.1c-3.1,2.2-3.3,5.3-3.1,8.6c0.3,4.3-0.7,8.3-3.4,11.8c-0.7,0.9-0.9,2-1.4,3.1
			c-0.9,2-1.1,2-3.1-0.4c3.1-4.8,5.8-9.7,5.5-15.6c-1.1,1.7-2,3.8-3.4,5.3c-1.6,1.7-2.1,3.4-2,5.6c0.1,1.6,0,3.2,0,4.8
			c-0.3,0.7-0.9,1.5-0.7,2c1.3,3.3,0.9,6.7,0.6,10c-0.4,4.6,0.5,8.5,4,11.7c1.2,1.1,2,2.5,3,3.8c2.3,2.9,4.2,6.2,8,7.5
			c0.7,0.3,1.6,1.4,1.6,2.2c0.1,5.9,4.1,9.1,8.2,12.3c3.5,2.8,6.7,6,9.1,9.8c0.3,0.5,0.7,1.1,1.1,1.5c2.9,2.7,5.8,5.4,8.6,8.2
			c0.5,0.5,1,1.3,1.2,2c0.9,3.3,3,5.6,6,7.5c0.1,0-0.1,0-0.2-0.1c0,0.1,0.1,0.3,0.2,0.4c0.1,0.1,0.2,0.1,0.3,0.1
			c0-0.1,0-0.2-0.3-0.4c-0.2-1-0.3-2.1,0-2.9c0.1-0.3,1.4-0.6,1.8-0.3c0.6,0.4,0.9,1.3,1.3,2c0.6,1.2,1.3,2.2,2.8,2.3
			c1,0.1,2.1,0.2,3.1,0.3c-0.4-0.9-0.8-1.9-1.2-2.8c-0.1-0.3-0.3-0.6-0.4-0.9c-1.8-3.9-4.5-5.8-9-4.3c-0.6,0.2-1.4-0.3-2-0.5
			c0.2-0.5,0.3-1.1,0.5-1.6c0.3-1,0.7-2,1.1-3c0.9-2.2,1.8-4.4,2.8-6.5c0.8-1.6,2-1.5,3.2-0.4c2.8,2.4,5.7,4.7,8.2,7.4
			c1.3,1.5,2.6,1.6,4.2,1.4c1.9-0.3,3.8-0.7,5.7-0.9c3.6-0.4,7,0,9.8,2.8c1.3,1.4,3.1,1.9,5.2,2.2c3.1,0.3,5.4,2,5.9,5.4
			c0.3,2.2,0.6,4.4,0.8,6.7c0.1,1.3-0.4,2.7,0,3.8c1.1,3.8-0.6,6.3-3.4,8.2c-2.5,1.8-3.5,5-6.5,6.2c-0.1,0-0.2,0.8,0,1.2
			c0.7,1.6,1.7,3.1,2.2,4.8c0.5,1.5,0.7,3.1,0.5,4.7c-0.2,1.6-1.9,2.2-3.4,1.3c-5.7-3.5-11.8-6.5-16.8-11.2c0-0.1-0.1-0.3-0.1-0.4
			c0-0.1-0.2-0.1-0.3-0.1c0.2,0.2,0.3,0.3,0.5,0.5c0.8,2.2,0.5,4.1-1.3,5.7c-1.5,1.3-1.6,2.6-0.6,4.2c0.3,0.5,0.8,1.2,0.7,1.8
			c-0.5,4.5,2.3,7.8,3.9,11.6c1.8,4.1,2.8,8.5,4,12.8c0.9,3.1,1.4,6.2,2.4,9.3c1,3.1,3.6,4.9,6,6.7c3.7,2.8,7.5,5.4,12.2,6.4
			c2.9,0.6,5.6,2.9,8.5,3.3c2.9,0.4,5.5,1.5,8.3,2.1c2.3,0.5,3.7,1.8,5.1,3.4c1.3,1.5,1.2,2.5-0.3,3.6c-0.8,0.5-1.7,0.9-2.6,1.1
			c-4.6,0.7-9.2,1.3-13.8,2c-1,0.1-2-0.2-2.9,0.1c-5,2-9.2-0.1-13.1-2.7c-1.4-0.9-2-0.8-3.2,0.2c-2.1,1.9-4.8,2.2-7.5,1.8
			c-0.6-0.1-1.3-0.5-1.9-0.4c-5,1-7.2-2.8-9.9-5.7c-0.7-0.7-0.8-2.1-0.9-3.1c-0.1-1.6,0-3.2,0-4.8c0-1.9-0.2-3.5-2.7-3.8
			c-1.8-0.2-2.1-1.7-2.3-3.2c-0.5-4-0.9-8-1.9-11.8c-1-3.8-2.8-7.4-4.5-11.8c-1,1.6-1.6,2.4-2.1,3.3c-1.3,2.1-2,4.7-3.8,6
			c-3.8,2.7-5.2,7.3-8.7,10.2c-0.5,0.4-0.9,1-1.1,1.6c-0.2,0.5,0,1.1,0,1.6c0.6-0.1,1.3,0,1.8-0.4c0.5-0.3,0.8-1,1.1-1.5
			c0.7-1.4,1.5-2,2.9-0.7c0.4,0.3,1.5,0.3,2.1-0.1c1.4-0.8,2.5-2,3.9-2.8c0.7-0.4,1.6-0.5,2.4-0.7c-0.2,0.9-0.3,1.9-0.8,2.6
			c-0.9,1.5-2.2,2.8-3,4.3c-1.1,2-0.8,2.8,1.4,3.7c2.1,0.8,4.3,1.5,6.4,2.2c0.9,0.3,1.9,0.5,2.7,1c0.8,0.6,1.4,1.7,2.1,2.5
			c-0.9,0.6-1.7,1.3-2.6,1.7c-2.1,0.8-4.3,1.3-6.4,1.9c-2.6,0.8-5.3,1.4-7.1,3.7c-0.3-0.3-0.6-0.6-1-1c0-0.1-0.1-0.3-0.1-0.4
			c0-0.1-0.2-0.1-0.3-0.1c0.2,0.2,0.3,0.3,0.5,0.5c0.3,0.3,0.6,0.6,1,1c1,1.9,2.3,2.8,4.6,3c3.4,0.2,6.6,1.4,9.2,3.6
			c1.8,1.6,2.3,3,1.4,4.6c-0.9,1.8-2.2,2.4-4.4,1.8c-1.6-0.4-3.5,0-5.2,0.2c-3.2,0.3-6.4,1.1-9.5,0.7c-3.5-0.4-6.6-2.3-8.8-5.3
			c-3.1-4.1-6.8-7.2-11.9-8.5c-1.9-0.5-3.9-0.5-6-0.2c1,0.3,1.9,0.6,2.9,0.9c1.9,0.7,3.9,1.3,5.8,2.1c0.4,0.2,0.5,1.1,0.5,1.7
			c0,0.2-0.9,0.5-1.4,0.5c-1.7,0.1-3.5,0.2-5.3,0.2c-3.5-0.1-4.3,2.7-5.4,5c-0.3,0.7,0.3,2.1,0.8,3c2.1,4.3,4.4,8.6,6.6,12.8
			c0.2,0.4,0.6,0.9,0.6,1.3c0,1.4,0.4,3.1-0.3,4c-1,1.3-2.5,0.1-3.9-0.4c-2.5-0.9-5.2-1.3-7.9-1.8c-0.1,0-0.3,0.9-0.5,1.4
			c-0.2,0.9-0.4,1.8-0.6,2.6c-1-0.3-2.3-0.2-3-0.9c-1.1-1.1-2.4-2.4-2.7-3.9c-0.5-2.1-2-3.2-3.5-3.6c-1.6-0.4-2.7-0.5-2.3-2.6
			c0-0.2-1.4-0.9-2.1-0.9c-2.5,0-2.3,0.1-2.3-2.2c0-3.7,1.3-6.9,2.9-10.1c0.8-1.7,1.5-3.5,2.2-5.3c1.4-0.5,1.9-1.5,1.9-2.9
			c0.3-0.3,0.6-0.6,1-1c0.1-0.1,0.3-0.1,0.4-0.2c0.1-0.1,0.1-0.2,0.1-0.3c-0.1,0.2-0.3,0.3-0.4,0.5c-0.3,0.3-0.6,0.6-1,1
			c-0.6,1-1.3,1.9-1.9,2.9c-0.3,0.1-0.7,0.2-0.8,0.5c-2.2,3.2-4.5,6.4-5.4,10.3c-0.3,1.4-0.4,2.8-0.8,4.2c-0.3,1.1-1.2,3.2-1.5,3.1
			c-2.1-0.4-0.7-2.3-1.1-3.5c0.3-0.3,0.7-0.6,0.8-1c0.1-0.4-0.1-0.8-0.2-1.2c-0.2,0.3-0.4,0.6-0.5,0.9c-0.1,0.4-0.1,0.9-0.1,1.3
			c-2.3,1-2.3,3.2-3.1,5.1c-0.1,0.2-0.8,0.3-1.2,0.3c-0.2,0-0.5-0.5-0.4-0.7c0.2-1.1,0.3-2.2,0.8-3.2c0.8-1.9,0.3-3-1.6-3.7
			c-1.9-0.7-2.5-0.5-3.1,1.5c-0.4,1.5-0.8,3.1-1.2,4.6c0,0.2-0.5,0.4-0.7,0.3c-0.3-0.1-0.6-0.4-0.6-0.6c0.1-2.1,0.3-4.1,0.5-6.2
			c0.3-3,0.6-6,0.9-9.1c0.7-2,1.4-4,2.1-6c-2.3,1.6-2,3.9-2,6c-0.9,2.7-1.9,5.3-2.8,8c-0.2,0.6,0,1.4-0.3,1.9
			c-0.4,0.6-1.1,0.9-1.7,1.3c-0.2-0.5-0.6-1.1-0.5-1.6c0.2-1.4,0.8-2.8,1-4.2c0.1-0.6-0.5-1.3-0.8-2c-0.5,0.3-1.1,0.6-1.4,1
			c-0.6,0.9-0.9,2.1-1.6,3c-0.7,0.9-0.5,2.9-2.3,2.5c-0.3-0.1-0.3-2-0.4-3.1c0.3-0.3,0.6-0.6,1-1c0.1-0.1,0.3-0.1,0.4-0.2
			c0.1-0.1,0.1-0.2,0.1-0.3c-0.1,0.2-0.3,0.3-0.4,0.5c-0.3,0.3-0.6,0.7-1,1c-0.2-0.6-0.6-1.3-0.5-1.8c0.2-0.9,1-1.8,0.9-2.6
			c0-0.6-1-1.2-1.5-1.7c-0.4,0.4-1,0.7-1.2,1.2c-0.6,2.5-1.1,5-1.7,7.5c-0.1,0.4-0.4,0.9-0.7,1.1c-0.2,0.1-0.8-0.3-1-0.6
			c-1.1-1.7-2.3-3.4-3.2-5.2c-0.9-1.9-1.5-3.8-2.2-5.8c-1,1.1-1.8,2.3-2.9,3.2c-2.5,1.8-4.7,3.7-3.4,7.3c0.1,0.3-0.4,0.8-0.6,1.2
			c-0.4-0.4-1.2-0.7-1.3-1.1c-0.6-4.9-1,0.1-1.5,0.1c-1.6,0-2.4,1.3-3.3,2.5c-0.3,0.3-1.1,0.2-1.6,0.3c0-0.6-0.1-1.3,0.1-1.7
			c1-1.9,2.2-3.8,3-5.9c-1.5,0.8-3.2,1.2-3.7,3.1c-0.1,0.4-1.2,0.6-1.9,0.9c-0.1-0.7-0.5-1.5-0.2-2c0.4-1,1.2-1.9,1.9-2.8
			c1.9-2.2,1.8-2.2,3-7.1c0.3-1.5,1.5-2.7,1.9-4.1c0.5-1.6-0.2-2.2-2-2c-0.5,0.1-0.9,0.4-1.3,0.5c-0.2,0-0.7-0.2-0.8-0.4
			c-0.1-0.4,0-1,0.2-1.3c0.4-0.4,1-0.8,1.6-1c2.7-1.1,2.7-1.1,1.1-4.6c-0.2,0.9-0.2,1.5-0.4,1.9c-0.2,0.5-0.6,1-1,1.4
			c-0.3-0.5-0.8-0.9-1-1.4c-0.2-0.4-0.2-0.9-0.3-2.2c-0.5,2.1-0.7,3.6-1.1,4.9c-0.5,1.4-0.5,4.2-3.1,1.4c-0.3-0.3-1.5,0.3-2.3,0.4
			c0-1,0-2,0-2.9c0.1,0,0.3-0.1,0.4-0.2c0.1-0.1,0.1-0.2,0.1-0.3c-0.2,0.2-0.3,0.3-0.5,0.5c-1.2,1-1.1,1.9,0,2.9
			c-1.3,2.5-1.6,2.5-2.9,0.7c-0.4-0.6-1-1.5-1.5-1.5c-1.3,0-1.1,1.2-1.3,2.1c-1.2,3.8-2.6,7.6-4,11.3c-0.1,0.3-1,0.4-1.5,0.6
			c-0.2-0.4-0.5-0.9-0.4-1.3c0.2-1.4,0.6-2.8,0.9-4.2c0.1,0,0.3-0.1,0.4-0.1c0.1-0.1,0.1-0.2,0.1-0.3c-0.1,0.2-0.3,0.3-0.4,0.5
			c-2.1,3.3-4.2,6.7-6.5,10.2c-0.9-1.9-0.5-3.5,0.7-5.1c1-1.3,1.1-2.6,1-4.4c-0.1-2.4,0.9-5,1.7-7.3c0.8-2.4,2-4.7,3.1-7
			c0.3-0.7,0.9-1.3,1.5-1.8c3.1-2.8,5.2-6.3,7.2-9.9c0.1-0.1,0.3-0.1,0.4-0.2c0.1-0.1,0.1-0.2,0.1-0.3c-0.2,0.2-0.3,0.3-0.5,0.5
			c-3.1,3.3-6.4,6.3-9.1,9.9c-3.1,4.1-5.6,8.6-8.1,13.1c-0.9,1.5-1.1,3.3-1.7,5c-0.1,0.3-0.7,0.5-1.1,0.8c-0.3-0.5-0.8-1-0.8-1.5
			c0-0.8,0.2-1.6,0.6-2.3c2.7-4.7,1.5-9.7,1-14.9c-0.6,1-1.7,2.2-1.6,3c1.1,6.1-1.4,11.6-2.5,17.4c-0.1,0.5-0.8,0.8-1.2,1.2
			c-0.3-0.5-0.9-1.1-0.8-1.6c0.3-1.9,0.8-3.7,1.3-5.6c0.6-2.4,1.1-4.8,1.3-7.4c-1.9,1.6-2.8,3.6-3.5,5.8c-0.3,0.9-0.4,1.9-0.7,2.8
			c-0.3,0.8-1.1,2.2-1.3,2.1c-1.6-0.6-0.6-1.7-0.5-2.7c0.2-0.9,0.3-2.2-0.2-2.7c-1.8-1.8-1.3-3.9-1.4-5.9c-0.1-2.7-0.1-5.5,0-8.2
			c0.1-2.2-0.4-4.1-2.3-6.2c0.1,4.6-0.4,8.7-1.2,12.7c-0.4,2.2,0.3,4.7,0.3,7c0,0.6-0.6,1.3-0.9,2c-0.3-0.5-0.8-0.9-0.9-1.4
			c-0.4-1.7-0.5-3.5-0.9-5.2c-0.1-0.5-0.8-1.4-1-1.4c-0.6,0.2-1.6,0.6-1.7,1.1c-0.5,2.2-0.7,4.4-1.1,6.6c-0.1,0.4-0.7,0.7-1,1.1
			c-0.3-0.4-0.8-0.8-0.8-1.1c0.3-2.7,0.8-5.4,1.2-8c0.2-0.9,0.3-1.9,0.5-2.8c0.2-0.3,0.5-0.6,0.7-0.9c-0.1-0.1-0.3-0.2-0.4-0.3
			c-0.1,0.4-0.2,0.8-0.2,1.2c-2.6,1.2-1.9,4.3-3.5,6.1c-0.4,0.4-0.8,0.7-1.3,1.1c-0.2-0.5-0.4-1.1-0.5-1.6c-0.1-0.7-0.1-1.5-0.2-2.2
			c-0.6,0.2-1.3,0.2-1.8,0.5c-1,0.7-1.9,1.5-2.7,2.5c-0.8,0.9-1.3,2-2.1,3.3c-0.3-0.7-0.6-1.1-0.5-1.2c3.5-6.3,5.4-13.4,10-19.1
			c0.7-0.8,1-1.9,1.5-2.9c0.1,0,0.3-0.1,0.4-0.1c0.1,0,0.1-0.2,0.1-0.3c-0.2,0.1-0.3,0.3-0.5,0.4c-3.2,3.4-6.3,6.8-9.5,10.2
			c-3.3,3.6-5.7,7.7-6.2,12.8c0,0.3-0.6,0.6-0.9,0.9c-0.3-0.3-0.7-0.6-0.9-1c-0.6-0.9-1.2-1.9-1.7-2.9c-0.7-1.3-1.4-2.8-3.2-2.3
			c-1.9,0.5-4.3,0.5-4.1,3.7c0.1,1-0.9,2.4-1.9,0.3c-0.7-1.4-0.6-0.2-0.8,0.2c-0.4,0.6-0.9,1.2-1.4,1.8c-0.2-0.8-0.4-1.7-0.5-2.5
			c0-0.1,0.1-0.3,0.2-0.4c0.4-2.1-0.1-2.5-2.1-2.1c-3.3,0.6-6.5,1.2-9.8,1.8c-0.8,0.1-1.5-0.1-2.7-0.1c1-1.7,2.1-2.6,0-4.5
			c-2.9-2.5-5.8-4.3-9.5-5.2c-0.7-0.2-1.2-1.1-1.8-1.7c0.8-0.4,1.7-1.2,2.5-1.1c2.1,0.2,4.2,0.5,6.1,1.1c3.9,1.2,7.8,2.6,11.7,4
			c-1.6-2.3-1.7-5.6-4.9-7.5c-2.1-1.3-1.6-2.7,1-3.6c0.6-0.2,1.3-0.2,2.5-0.3c-2.6-1.4-4.4-2.7-7-2.6c-1.2,0-2.5-0.5-3.7-0.9
			c-1.1-0.4-1.1-1.5-0.4-1.9c3.1-1.8,6.3-3.8,10.2-2.5c3,1,6,2.1,8.8,3c1.2-4.3,2.2-8.5,3.7-12.5c1-2.6,0.5-4.5-1-6.7
			c-0.8-1.2-3.4-2.2-2.1-3.8c1.3-1.6,2.7,0.6,4,1.4c0.8,0.5,1.4,0.5,2-0.4c0.9-1.5,1.8-3.1,3-4.4c0.5-0.5,1.6-0.8,2.4-0.6
			c1.5,0.2,0.9,1.4,0.6,2.3c-0.3,0.8-0.6,1.5-0.8,2.3c-0.5,1.6,0.1,2.6,1.8,2.4c2.5-0.3,4.3,0.9,5.9,2.6c0.7,0.8,1.8,1.3,3.4,2.4
			c-0.4-1.5-0.6-2.3-0.9-3c-0.6-2-1.4-4-1.8-6c-0.2-1,0-2.9,0.5-3.1c1.9-0.8,1,1.4,1.7,2.1c1.2,1.1,2.4,2.1,3.5,3.2
			c0.5,1,1.3,2.5,2.3,1.3c0.8-1.1,0.6-3,0.6-4.6c0-1.9-0.1-1.9-2.7-3.5c0.6,1.5,1.3,2.9,1.7,4.5c0.4,1.4-0.1,2.6-1.9,2.4
			c0-0.9,0.3-1.9,0-2.7c-0.9-2-2.1-4-3.2-5.9c-0.7-1.3-2-2.5-1.5-5c1.9,1.4,3.5,2.6,5.1,3.8c0.6,0.5,1.4,1.6,1.8,1.4
			c3-0.9,3.1,1.5,3.8,3.1c1.7,3.7,2.4,7.8,1.5,11.8c-0.6,2.8-0.6,5.4,0.2,8c-0.4,0.1-0.8,0.2-1.2,0.2c0.1,0.2,0.2,0.3,0.3,0.5
			c0.3-0.2,0.6-0.5,1-0.7c3.4-2.9,3.9-4.5,2.6-8.2c-0.4-1.1-1-2-1.4-3.1c-0.1-0.2,0.3-0.9,0.6-1c1.9-0.6,1.9-0.6,1.9-2.1
			c0.1-2.4-0.1-4.8-1.3-7c-0.8-1.5-0.6-3.3-0.7-5c-0.2-4.3-1.2-8.5-2.5-12.7c0.3,3.1,0.8,6.3,0.9,9.4c0,2.9,0.6,5.9-0.7,8.8
			c-0.3-2.5-0.5-4.9-0.9-7.4c-0.3-2.4-1.5-3.3-4.1-3.8c-3-0.6-5.6,0-8.4,0.8c-0.3,0.1-1.1-0.1-1.2-0.4c-0.2-0.3,0-1,0.3-1.3
			c3.3-2.8,7-4.4,11.6-3.5c0.5-2.5,1-5.1,1.5-7.8c0.6,0.3,1.1,0.3,1.2,0.5c1.8,3.5,3.7,6.8,6.7,9.7c3.1,3,2,7.5,1.2,11.4
			C67.8,210.6,66.9,210.7,66.5,210.7c-0.1-0.1-0.1-0.2-0.2-0.4c0-0.1-0.2-0.1-0.3-0.1C66.2,210.4,66.3,210.6,66.5,210.7z
			 M168.3,250.5c-0.1,0.1-0.3,0.1-0.4,0.2c-0.1,0.1,0,0.2-0.1,0.3C168,250.9,168.2,250.7,168.3,250.5c0.3-0.4,0.6-0.7,0.9-1
			c0.3-0.3,0.6-0.6,1-1c0.3-0.3,0.7-0.6,1-1c0.3-0.6,0.6-1.3,1-1.9c0.1,0,0.3-0.1,0.4-0.1c0.1-0.1,0.1-0.2,0.1-0.3
			c-0.2,0.2-0.3,0.3-0.5,0.5c-0.3,0.6-0.6,1.3-1,1.9c-0.3,0.3-0.6,0.7-1,1c-0.3,0.3-0.6,0.6-1,1C169,249.9,168.7,250.2,168.3,250.5z
			 M50,233c0.3,0.3,0.7,0.6,1,1c0.1,0.4,0.2,0.8,0.3,1.3c0.2-0.1,0.3-0.2,0.5-0.3c-0.3-0.3-0.5-0.6-0.8-0.9
			C50.6,233.7,50.3,233.4,50,233c-0.4-0.3-0.7-0.6-1-0.9c-1.6-3.8-4.6-6.1-8.2-7.6c-0.7-0.3-1.8-1.4-2.4,0.1
			c-0.3,0.8-0.6,1.8-0.4,2.6c0.3,1.5,1.1,3,1.5,4.5c1.1,3.7,1.6,3.8,5.3,1.5c-0.8-0.6-1.5-1.2-2.2-1.9c-0.7-0.7-2-2.2-1.9-2.3
			c1.2-1.4,2.3,0.1,3.3,0.5c1.8,0.7,3.4,1.7,5.1,2.6C49.4,232.4,49.7,232.7,50,233z M57.7,239.8c0.3-0.3,0.6-0.6,1-1
			c1-0.5,2-0.9,3-1.4c2.2-1.2,4.3-2.8,6,0.6c0.1,0.3,0.8,0.3,1.2,0.5c2.6,0.8,3,1.4,1.3,2.7c-3.5,2.7-3.5,5.5-1.5,9.1
			c0.7,1.3,0.7,3,1.2,4.9c1.6-2,3-3.8,4.5-5.3c1.2-1.2,1.8-2.6,1.7-4.3c-0.1-2.4,0-4.8,0.1-7.3c0-0.4,0.4-0.9,0.7-1
			c0.3-0.1,0.9,0.3,1,0.7c0.5,1.2,0.8,2.4,1.3,3.6c0.9,2.1,1.6,2.6,3.7,1.6c2.8-1.3,6.7-2.1,5.2-6.8c-0.1-0.3,0.3-1,0.6-1.1
			c0.4-0.1,1,0.2,1.2,0.5c1.3,2.2,2.4,4.5,3.7,6.7c0.2,0.4,0.9,0.8,1.4,0.8c0.3,0,0.9-0.5,1-0.9c0.2-1.1,0.3-2.2,0.4-3.3
			c0.4-4.2,0.6-8.3,1.1-12.5c0.1-0.7,0.8-1.3,1.2-1.9c0.6,0.5,1.5,0.8,1.7,1.4c1,3.5,1.8,7.1,2.6,10.7c0,0.2-0.3,0.8-0.4,0.7
			c-0.4-0.1-1.1-0.3-1.2-0.5c-0.6-1.7-1.1-3.5-1.6-5.5c-1.5,2.1-1.2,4.4-1.3,6.6c-0.1,1.7,0.1,3,2.4,1.9c0.6-0.3,1.4,0.1,2.2,0.2
			c-0.2,0.6-0.2,1.3-0.5,1.7c-3.1,3.8-1.9,8.5-2.9,12.7c2.8-2.9,2.8-2.9,2.7-6.5c0-0.6,0-1.3,0.2-1.9c1.3-4.8,2.4-9.6,3.9-14.4
			c0.9-2.8,1.8-5.5,1.7-8.4c0-0.9,0.2-1.9,0.6-2.8c0.2-0.5,1-1,1.4-0.9c0.4,0.1,1,0.8,1,1.3c0.1,2.2,0,4.4,0,7.4
			c3.7-3.3,6.7-5.9,9.7-8.6c0.8-0.7,1.6-1.9,2.5-2.2c1.2-0.3,1.9-2.9,3.5-1.1c0.2,0.3-1.1,2-1.8,2.9c-3.4,4.4-6.9,8.8-10.4,13.2
			c-1.4,1.8-1,3.5,0.3,5.1c-0.1,0-0.3,0.1-0.4,0.1c-0.1,0-0.1,0.2-0.1,0.3c0.1-0.1,0.3-0.3,0.4-0.4c0.9-1.1,1.8-2.2,2.8-3.2
			c0.8-0.8,1.9-0.4,2,0.8c0.3,2.4-0.7,4.4-2.1,6.2c-2.3,2.9-4.6,5.7-6.7,8.7c-0.4,0.5-0.1,1.9,0.4,2.4c0.9,1,1.8,0.2,2.3-0.7
			c0.6-1.3,1-2.7,1.7-3.9c0.5-0.8,1.7-2,2.3-1.9c1.7,0.4,0.5,1.8,0.3,2.8c-0.1,0.8-0.6,1.5-0.8,2.3c-0.4,1.7-0.8,3.4-1,5.1
			c-0.2,1.7,1.3,2.2,2.5,2.4c0.5,0.1,1.6-1.1,1.7-1.8c0.7-4.6,2.9-8.5,5.2-12.3c1.3-2,3-3.9,3.7-6.1c0.7-2.2,0.2-4.8,0.3-7.2
			c0-0.4,0.4-1,0.7-1c0.3-0.1,1,0.3,1.1,0.6c0.8,2.3,1.4,4.6,2.1,6.9c0.2,0.5,0.7,1.2,0.9,1.2c3-0.6,2.1,1.1,1.5,2.5
			c-0.9,2.4-0.7,4.5,1,6.5c0.7-0.3,1.1-0.6,1.6-0.7c1.1-0.4,1.7-2.3,3.1-1.1c0.2,0.1-1.1,1.9-1.7,2.9c-0.2,0.4-0.5,0.8-0.7,1.2
			c-0.2,0.1-0.3,0.1-0.4,0.2c-4.9,4.7-5.2,11.5-7.8,17.2c-0.2,0.5,1.3,1.9,2.2,2.7c0.2,0.1,1.3-0.6,1.8-1.1c0.5-0.6,0.8-1.5,1.3-2
			c2.4-2.1,3.7-4.4,2-7.5c-0.3-0.5,0-1.3,0-1.9c0.3-2.5,0.5-5.1,0.8-7.6c1.3-0.1,2.5-0.2,3,1.6c0.5,1.8,1.3,3.6,2,5.4
			c0.4,1,0.9,1.7,2.1,1c0.7-0.4,1.4-0.9,2.2-1c2.4-0.3,3.1-1.6,3.4-3.9c0.2-1.7,1.1-3.3,1.8-5c0.1-0.3,0.8-0.7,1.1-0.6
			c0.3,0.1,0.7,0.6,0.8,1c0.4,2.4,0.6,4.8,1.1,7.1c0.4,1.9,0.2,4.1,2.7,5.1c1.2,0.5,0.2,1.3-0.3,1.8c-1,1-2.8,1.7-3.1,2.9
			c-0.5,2-0.1,4.2-0.1,7.2c1.6-2.5,2.7-4.5,4.1-6.2c2.4-2.9,3-5.9,1.4-9.4c-0.6-1.3-1-2.7-1.4-4.1c-0.2-0.6-0.4-1.2-0.4-1.8
			c0-0.2,0.3-0.6,0.5-0.8c0.2-0.1,0.7,0,0.8,0.1c1.5,2.4,5,4.1,2.7,7.9c-0.1,0.2,0,0.7,0.1,0.9c0.3,0.3,0.7,0.6,1,0.8
			c0.5-1,1.6-2.2,1.4-3.1c-0.9-3.9-1.7-11.4-1.1-16.1c1.1,2.3,1.9,4,2.7,5.7c1.1-0.8,2.6-1.3,1.1-3.3c-0.7-0.9-0.7-2.4-0.9-3.7
			c-0.4-3.6-2.3-6.2-5.7-7.6c-1.3-0.6-2.7-1.2-3.9-1.9c-1.1-0.6-2.1-1.4-3.1-2.2c-0.2-0.2-0.3-0.9-0.1-1.2c0.2-0.3,0.9-0.5,1.2-0.4
			c3.2,1.7,6.4,3.5,9.7,5.1c1.4,0.7,3.1,0.7,4.6,1c0.3,0,0.9-0.5,0.9-0.8c0.1-0.4-0.3-1.2-0.5-1.2c-3.3,0.1-3.4-3.8-6-4.7
			c-0.1,0-0.2-0.9,0-1.1c1.4-1.2,2.8-2.3,4.9-2.2c1.3,0.1,1.2,0.8,0.9,1.6c-0.4,0.9-1.7,2.4-1.5,2.6c1.2,1.2,2.1-0.3,3.2-0.6
			c0.5-0.1,0.9-0.2,1.4-0.2c0,2.1,0.1,4.2,0,6.2c0,0.9-0.3,1.9-0.8,2.6c-1.7,2.5-1.8,2.5,0.1,5.2c0.6-0.7,1.1-1.5,1.8-2.1
			c0.6-0.5,1.3-0.7,2-1c0.3,0.7,0.7,1.4,0.7,2.1c0,0.9-0.4,1.8-0.6,2.8c-0.1,0.4,0.1,1.2,0.2,1.2c3.5,0.5,1.2,2.8,1.3,4.3
			c-0.3,0.6-0.6,1.3-1,1.9c-0.3,0.3-0.6,0.6-1,1c-0.3,0-0.7,0-0.9,0.1c-0.3,0.2-0.6,0.6-0.7,0.9c0,0.1,0.5,0.6,0.5,0.6
			c0.3-0.2,0.7-0.5,0.9-0.8c0.2-0.2,0.1-0.6,0.1-0.9c0.3-0.3,0.6-0.6,1-1c0.3-0.6,0.6-1.3,1-1.9c1.6-1.2,3.3-2.3,4.9-3.5
			c1.9-1.4,2.4-3.2,0.9-5.2c4.1-3.9,7.4-8.5,10-13.4c2.4-4.5,4.2-9.4,8.1-13c0.6-0.5,0.9-1.3,1.2-2c1.7-4.2,3.4-8.3,5-12.5
			c0.2-0.5,0.2-1.4,0-1.6c-3-2.4-6.1-4.7-9.1-7c-2-1.6-4.1-1.6-6.3-0.3c-1.9,1.1-3.7,1.4-5.9,0.7c-3.4-0.9-7,1.3-7.5,4.4
			c-0.9,5-1.4,10.1-2.3,15.2c-0.7,3.7,0.1,7.8-3.2,10.7c-0.2,0.2-0.2,1,0,1.3c1,1.4,2.2,2.7,3.3,4c0.6,1.2,1.2,2.4,1.8,3.5
			c0.2-0.1,0.5-0.2,0.7-0.3c0-3.4,0-6.9,0-10.3c-0.6,1.6-0.5,3.3-0.6,5c0,1.4-0.7,2.1-2,2.1c0.3-3.2,0.6-6.4,1-9.5
			c0.1-1,0.7-1.9,1-2.9c0.7,0.8,1.7,1.4,2.1,2.3c0.5,1.1,0.6,2.5,0.8,3.7c0.1,1,0.2,2,0.3,4.2c1.6-2.7,2.6-4.3,3.6-5.9
			c1.2-1.9,2.3-3.8,3.6-5.7c0.2-0.3,1.1-0.3,1.6-0.2c0.2,0,0.5,0.9,0.4,1.2c-0.5,1.6-1,3.1-1.7,5c2.4-0.8,4-1.4,5.7-1.9
			c0.4-0.1,1,0.1,1.3,0.4c0.2,0.1,0,0.9-0.3,1.2c-1.9,1.8-3.8,3.5-5.7,5.3c-2,1.8-4.3,3.5-6,5.6c-1.5,1.8-2.8,4.1-3.2,6.4
			c-0.2,1.4,1.4,3.1,2.2,4.6c-1.3,0.9-2.6,1.4-3.7-0.2c-0.8-1.2-1.4-2.5-2.1-3.7c-1.6-2.9-3.3-5.8-4.9-8.6c-1.4-3.2-2.7-6.4-4.1-9.5
			c-0.2-0.5-0.9-1.1-1.3-1c-3,0.5-3.3-1.6-3.7-3.7c-0.2-1.1-0.6-2.1-1.1-3.2c-0.5-1.2,0-1.8,1-2.2c1.3-0.6,2.6-1.4,4.2-0.1
			c-0.5,0.4-1,0.9-1.5,1.2c-0.6,0.3-1.3,0.5-2.7,1.1c4.4,0.3,4.4,0.3,6.9,3.6c0.1,0.1,0.3,0.2,0.4,0.2c0.3,1.8,0.6,3.5,0.9,5.3
			c0.9-1.5,1-2.8,0.8-4.2c-0.1-0.5-1.1-0.7-1.7-1.1c0.7-1.2,1.7-1.9,1.9-3.6c0.4-2.4-2.3-2.9-2.2-5c0-0.6-0.7-1.4-1.2-2
			c-1.8-1.7-3.6-1.4-5.3,0.7c-1.1,1.3-2.3,2.7-3.6,3.8c-0.4,0.3-1.6,0.1-2.1-0.3c-0.5-0.4-0.8-1.4-0.7-2c0.2-0.9,0.9-2.3,1.4-2.4
			c2.8-0.2,3.8-2.5,5.4-4.2c1.3-1.4,2.2-1.2,3.6,0.7c0.9,1.2,1.3,1.3,2.5,0.2c0.8-0.7,2.3,0.4,2.2,1.5c-0.1,1.3-0.4,2.5-0.6,3.7
			c0,0.2,0.3,0.6,0.5,0.7c0.2,0.1,0.7-0.2,0.7-0.3c0.2-2.8,3.2-5.6,0-8.5c-1.3-1.2-0.8-2.9,0.5-3.8c2.7-1.9,3.9-4.6,5.3-7.3
			c1.2-2.4,1.9-2.6,3.1-0.4c1.1,1.9,2.5,2.1,4.4,2.3c2.4,0.2,4.5-0.3,6.6-1.1c7-2.8,13.9-5.7,20.9-8.6c1.4-0.6,2.8-1.3,4.4-2.1
			c-1.5-1.6-2.7-2.7-3.6-4c-2.4-3.8-4.5-7.8-8.1-10.8c-1.3-1.1-2.7-2.2-3.9-3.4c-0.7-0.6-1.5-1.3-1.9-2.1c-1.8-4-4.8-6.9-8.1-9.8
			c-3.9-3.3-8.1-6.5-8.9-12.2c-0.1-1-1-2-1.7-2.9c-3.7-4.1-7.3-8.2-11.2-12.1c-2.6-2.6-3.8-5.6-4.1-9c-0.4-4.6-0.7-9.3-0.5-14
			c0.3-5.8,1.3-11.5,2-17.2c0.5-3.7,0.3-7-2.7-9.8c-1-1-1.8-2.3-2.5-3.5c-1.9-3-3.8-5.9-5.8-9.1c-2.3,4.7-4.6,8.9-6.5,13.4
			c-1.2,2.8-2.2,5.8-2.2,8.8c0,3.8-0.2,7.2-2.6,10.4c-0.8,1-1.5,2.3-1.5,3.5c0,5.2-1.1,10.5,1.5,15.7c1.2,2.3,1.6,5.4,1.2,8
			c-0.8,7.1,3.3,12.6,5.1,18.9c1.1,3.6,3.3,6.9,5,10.3c0.9,1.8,0.9,2.9-1.4,4.1c-4.1,2.1-4.1,4.5-1.1,8c3,3.5,7.2,4.7,11.3,6.2
			c3.6,1.3,7.3,1.1,11,1.1c3.7,0,5.1,1.3,4.9,5c-0.2,5.7-2.2,11-4.7,16.1c-0.8,1.7-2.5,1.8-3.7,0.9c-1.3-1.1-2.3-2.6-3.1-4.2
			c-0.6-1.1-0.6-2.5-1-3.7c-1-3.1-1-3-4.3-3.3c-5.6-0.6-11.2-1.3-16.7-1.8c-1.4-0.1-2.9-0.1-4.4,0c-3.2,0.2-6.4,0.5-9.5,0.9
			c-0.9,0.1-1.8,0.5-2.8,0.7c-6.3,1.7-12.7,1.6-19.1,0.6c-7.8-1.2-15.6-2.3-23.5-0.6c-0.6,0.1-1.3,0-1.9-0.1
			c-4.6-0.5-9.2-1-13.8-1.5c-0.2,0-0.4,0.3-0.6,0.5c2.5,3,5,5.9,7.4,8.9c0.3,0.4,0.2,1.1,0.2,1.6c-0.6-0.1-1.3,0-1.7-0.3
			c-1.3-1.2-2.4-2.6-3.7-3.8c-0.4-0.4-0.9-0.5-1.4-0.7c0,0.4-0.2,0.9,0,1.3c0.4,1.4,1.1,2.7,1.4,4.1c2,7.6,4.1,15.2,3,23.2
			c-0.2,0.3-0.5,0.6-0.8,0.9c0.1,0.1,0.3,0.2,0.4,0.3c0.1-0.4,0.2-0.8,0.3-1.2c2.1-1,3.1-2.7,2.9-5c-0.1-0.8-0.2-1.7,0.2-2.4
			c0.3-0.6,1.1-1.2,1.7-1.2c0.6,0,1.9,0.6,1.9,0.9c0,3.2,1.9,6.7-1.8,9.2c-1,0.7-1.9,1.7-2.9,2.5c-3.7,3.1-7.3,6.2-9.4,10.8
			c-0.6,1.4-2.1,2.5-2.8,3.8c-2.8,5.3-6.6,9.6-11.1,13.5C58.4,239.2,58.1,239.5,57.7,239.8c-0.1,0.1-0.3,0.1-0.4,0.2
			c-0.1,0.1-0.1,0.2-0.1,0.3C57.4,240.2,57.6,240,57.7,239.8z M150.9,267c0.1,0,0.3-0.1,0.4-0.2c0.1,0,0.1-0.2,0.1-0.3
			C151.2,266.7,151,266.9,150.9,267c-0.3,0.4-0.6,0.7-1,1c-3.5,1.6-5,3.6-5.3,6.9c1.2-1.3,2.5-2.6,3.7-4.1c0.7-0.8,1.1-1.9,1.6-2.8
			C150.2,267.7,150.5,267.3,150.9,267z M207.1,30.3c0.3-0.3,0.6-0.7,1-1c1.4-0.3,2.8-0.7,4.2-0.9c0.4,0,0.9,0.6,1.3,1
			c-0.3,0.3-0.6,0.8-1,0.9c-3,0.2-4.5,2.3-5.9,4.7c3.3-1.4,5.7,0.3,8.1,1.7c2.3,1.4,4.6,2.8,7.2,4.4c3-9.8-0.2-17.4-6.8-24.1
			c-1.7,1.5-1.1,3.2-0.8,4.9c0.1,0.4-0.4,1-0.7,1.5c-0.6-0.4-1.6-0.7-1.7-1.1c-0.1-1.4-0.1-2.9,0.2-4.3c0.5-2.2,0.9-4.5-1.2-5.7
			c-2-1.1-4.1-0.1-5.7,1.4c-0.2,0.2-0.5,0.4-0.7,0.7c3.1,1.4,4.3,3.5,3.1,6.3c-0.4,0.8-1.5,1.7-2.5,1.8c-0.6,0.1-1.7-0.9-2-1.7
			c-0.5-1.1-0.4-2.4-0.6-4.2c-1.1,1.6-2,2.5-2.4,3.6c-0.4,1.2-0.6,2.7-0.4,4c0,0.4,2,0.5,2.2,1c0.6,1.6,3.6,0.7,3,3.1
			c-4.7,0.1-6.7-0.9-8.2-5c-1-2.8-2.9-5.5-2.1-8.7c0,0-0.6-0.2-0.9-0.3c-0.5,2.9-3.8,2.7-5.1,4.6c-0.9,1.3-1.6,2.4-0.3,3.8
			c1.1,1.3,1.9,2.6-1,2.3c-0.1,0-0.6,1-0.5,1.4c0.4,1.7,0.9,3.4,1.3,5.1c0.1,0.4-0.2,0.8-0.3,1.3c-0.4-0.2-1-0.2-1.2-0.5
			c-0.5-1-0.8-2.1-1.1-3.2c-0.5-1.7-0.9-3.5-1.7-6.3c-0.7,2.4-1.1,3.7-1.8,6.1c-0.8-3-1.2-4.9-1.7-6.8c-0.8,2-1.7,3.9-2.4,5.8
			c-0.5,1.2-1.3,1.5-2.1,0.6c-0.9-1-3.2-1.2-2.6-3c0.3-0.9,1.9-1.4,3-2c0.1-0.1,0.4,0,0.5-0.1c0.9-1.2,2.2-2.3,2.5-3.7
			c0.3-1.1-2.6-2.4-4.4-2c-0.9,0.2-1.9,0.6-2.5,1.3c-1,1-1.8,2.2-2.6,3.4c-1.9,2.8-0.9,5.7,2.2,6.9c1.6,0.6,2.4,1.3,1.7,3.2
			c-0.4,1.1,1,2,2,1.5c0.6-0.3,0.9-1.1,1.4-1.7c0.3-0.3,0.7-0.8,1-0.7c0.3,0,0.9,0.6,0.8,0.9c-0.5,3.8,1.1,7.2,2.1,10.8
			c0.5,1.9,1.4,3.6,1.8,5.5c0.5,2.3-0.9,1.3-1.9,0.9c-1.4-4.4-2.8-8.8-4.3-13.5c-2.2,4.6-0.6,9.2,4.3,13.4c0,2.9,2.9,3.2,4.4,4.7
			c1.6,1.6,3.3,0.7,4.4-1.8c0.5-1.2,1.1-0.8,1.7-0.1c3.8,4.1,6.3,4.5,11.3,2.2c2.7-1.2,3.9-3.4,2.9-6.1c-0.4-1.1-0.9-3.8-3.1-1.2
			c-0.1,0.1-0.7,0.1-0.8,0c-1.8-2.3-2.4-1.1-2.9,0.9c-0.2,0.8-0.6,1.5-1.1,2.2c-0.4,0.4-1,0.6-1.6,0.9c-0.3-0.6-1-1.3-1-1.9
			c0.1-2.5,0.3-5,0.6-7.6c0-0.3,0.4-0.9,0.7-0.9c4.8-1,7.1-4.4,8.4-8.8c0.3-0.3,0.6-0.6,1-1C206.5,31,206.8,30.6,207.1,30.3z
			 M116.9,226.3c-0.3,0.3-0.6,0.6-1,1c-0.3,0.3-0.6,0.6-1,1c-0.3,0.3-0.6,0.6-1,1c-3,1.4-3,1.4-2.3,5.8c0.9-2.3,1.6-4,2.3-5.8
			c0.3-0.3,0.6-0.6,1-1c0.3-0.3,0.6-0.6,1-1C116.3,226.9,116.6,226.6,116.9,226.3c0.1-0.1,0.3-0.1,0.4-0.2c0.1-0.1,0.1-0.2,0.1-0.3
			C117.2,226,117.1,226.1,116.9,226.3z M165.4,24.5c-0.7,0-1.3,0-2,0c-0.3-0.3-0.6-0.5-0.9-0.8c-0.1,0.2-0.2,0.3-0.3,0.5
			c0.4,0.1,0.9,0.2,1.3,0.3C164.1,25.5,164.8,25.5,165.4,24.5c0.1-0.1,0.3-0.1,0.4-0.2c0.1-0.1,0.1-0.2,0.1-0.3
			C165.7,24.2,165.6,24.4,165.4,24.5z M184.8,224.4c-0.3,0.6-0.6,1.3-1,1.9c-0.3,0.3-0.5,0.6-0.8,0.9c0.2,0.1,0.3,0.2,0.5,0.3
			c0.1-0.4,0.2-0.8,0.3-1.3C184.2,225.6,184.5,225,184.8,224.4c0.1-0.1,0.2-0.1,0.4-0.2c0.1-0.1,0.1-0.2,0.1-0.3
			C185.1,224,185,224.2,184.8,224.4z M182.9,60.4c0.3-0.3,0.5-0.6,0.8-0.9c-0.2-0.1-0.3-0.2-0.5-0.3C183.1,59.6,183,60,182.9,60.4
			c-0.3,0.3-0.6,0.7-1,1c-0.3,0.6-0.6,1.3-1,1.9c-0.1,0-0.3,0.1-0.4,0.1c-0.1,0.1-0.1,0.2-0.1,0.3c0.2-0.2,0.3-0.3,0.5-0.5
			c0.3-0.6,0.6-1.3,1-1.9C182.2,61,182.5,60.7,182.9,60.4z M47.1,226.3c0-0.1-0.1-0.3-0.1-0.4c0-0.1-0.2-0.1-0.3-0.1
			C46.8,225.9,46.9,226.1,47.1,226.3c0.7,0.3,1.3,0.6,2,0.9c0,2,1.3,3,2.9,3.9c0,0.1,0.1,0.3,0.1,0.4c0,0.1,0.2,0.1,0.3,0.1
			c-0.1-0.1-0.3-0.3-0.4-0.4c0.4-2.3-1.1-3.2-2.9-3.9C48.4,226.9,47.7,226.6,47.1,226.3z M241.1,185.5c0.3,0.3,0.7,0.6,1,1
			c0.2,1.9,1.1,3.2,2.6,4.3c1.5,1.2,3.1,3.1,1.9,4.9c-1.7,2.4-0.5,3.3,1.3,4.2c2.4,1.2,4.7,2.4,7.1,3.6c-2.9-7-7.2-12.5-13-17.1
			C241.7,186.2,241.4,185.9,241.1,185.5c-0.3-0.6-0.7-1.3-1-1.9c-1.6-4.2-3.2-8.4-4.9-12.6c-0.2-2.2-0.5-4.2-1.5-6.4
			c-2.2-4.5-6.7-6.2-9.8-10.4c-0.8,1.8-1.6,3.1-2,4.4c-0.5,1.9,0.3,2.7,2.3,2.3c3.1-0.5,3-0.4,4.8,2.2c1.9,2.7,4.2,5.2,6.3,7.8
			c-0.3,1.7-1.3,3.9-0.6,5c1.7,2.6,2.2,6.1,5.5,7.6C240.4,184.2,240.8,184.9,241.1,185.5z M121.8,260.2c-0.3,0.4-0.7,0.7-0.8,1.1
			c-0.1,0.3,0.2,0.8,0.4,1.2c0.1-0.3,0.3-0.6,0.3-0.9C121.8,261.2,121.7,260.7,121.8,260.2c0.3-1,0.6-2,0.9-2.9
			c0.7-1.7,1.4-3.3,2.1-5c-0.4-0.1-0.7-0.2-1.1-0.3c-0.3,1.8-0.6,3.5-0.9,5.3C122.4,258.3,122.1,259.3,121.8,260.2z M173.2,252.4
			c0.1,0.4,0.2,0.8,0.2,1.3c0.1-0.1,0.3-0.2,0.4-0.3C173.6,253.1,173.4,252.8,173.2,252.4c-0.1-0.4,0-0.9-0.1-1.4
			c0-0.3-0.2-0.6-0.3-0.9c-0.1,0.2-0.4,0.5-0.4,0.7C172.6,251.4,172.9,251.9,173.2,252.4z M190.6,220.5c-0.8,0.4-1.7,0.8-2.4,1.3
			c-0.2,0.1-0.1,0.6-0.2,0.8c0.2,0,0.6,0.1,0.7,0C189.4,221.9,190,221.2,190.6,220.5c0.4-0.1,0.8-0.2,1.2-0.3
			c-0.1-0.2-0.2-0.3-0.3-0.5C191.3,219.9,191,220.2,190.6,220.5z M204.2,40c-0.9,0.5-2,0.9-1.5,2.3c0,0.1,0.2,0.2,0.3,0.3
			C203.4,41.7,203.8,40.9,204.2,40c0.4-0.1,1-0.1,1.3-0.3c0.4-0.3,0.7-0.8,1-1.2c-0.5,0.1-1.1,0.2-1.5,0.4
			C204.6,39.2,204.5,39.7,204.2,40z M165.4,60.4c0-0.1-0.1-0.3-0.1-0.4c0-0.1-0.2-0.1-0.3-0.1C165.1,60.1,165.3,60.2,165.4,60.4
			c0.2,1.7,0.9,3.2,2.5,4.2C167.4,63,167.4,61.1,165.4,60.4z M159.6,45.8c0,0.1,0.1,0.3,0.1,0.4c0,0.1,0.2,0.1,0.2,0.1
			C159.9,46.2,159.7,46,159.6,45.8c-0.1-1.1-0.4-2.3,1-2.9c1.8,3.4,3.6,6.8,5.7,10.8c-0.3-4.3-1.8-7.4-3.9-10.2
			c-0.3-0.4-1.2-0.4-1.8-0.6c-0.5-1.1-1-2.2-1.9-4.2C159,41.8,157.6,44,159.6,45.8z M117.9,269c-1.8,1.1-3.1,2.7-4.2,4.5
			C115.7,272.5,117.6,271.5,117.9,269c0.1-0.1,0.3-0.1,0.4-0.2c0.1-0.1,0.1-0.2,0.1-0.3C118.2,268.7,118.1,268.8,117.9,269z
			 M112,244.7c1.9-1,3.1-2.6,4-4.5C114.3,241.4,112.2,242.3,112,244.7c-0.1,0.1-0.2,0.1-0.3,0.2c-0.1,0.1-0.1,0.2-0.1,0.3
			C111.8,245,111.9,244.8,112,244.7z M75.2,169.1c-0.1-0.1-0.1-0.3-0.2-0.4c-0.1-0.1-0.2-0.1-0.3-0.1
			C74.9,168.7,75.1,168.9,75.2,169.1c2.8,1.7,5.8,0.6,8.8,0.9c0,0.1,0.1,0.3,0.2,0.4c0.1,0.1,0.2,0.1,0.3,0.1
			c-0.2-0.1-0.3-0.3-0.5-0.4c-0.7-0.5-1.4-1.3-2.1-1.3C79.6,168.7,77.4,168.9,75.2,169.1z M122.7,171.9c1.6,1.4,3.4,0.9,5.2,0
			C126.2,172,124.5,172,122.7,171.9c-3-1.6-6.1-0.6-9.1-0.6c2.1,0.5,4.3,1.1,6.4,1.3C120.9,172.7,121.8,172.2,122.7,171.9z
			 M92.7,256.4c-3.4,2.5-1.4,5.9-1.3,8.9C91.8,262.3,92.2,259.3,92.7,256.4c0.1-0.1,0.2-0.1,0.3-0.2c0.1-0.1,0.1-0.2,0.1-0.3
			C92.9,256,92.8,256.2,92.7,256.4z M48,235c0-0.1-0.1-0.2-0.2-0.3c0-0.1-0.2-0.1-0.2-0.1C47.8,234.7,47.9,234.9,48,235
			c0.2,0.7,0.3,1.5,0.7,2.2c0.7,1.5,0.3,3.6,2.5,4.2c0.1,0,0.3-0.2,0.3-0.3c0.7-2.2-0.8-3.5-2-5C49.2,235.7,48.5,235.4,48,235z
			 M11.2,256.4c0-0.1-0.1-0.3-0.1-0.4c-0.1-0.1-0.2-0.1-0.3-0.1C10.9,256.1,11,256.2,11.2,256.4c1.4,1.2,2.8,2.5,4.4,3.5
			c0.3,0.2,1.1-0.3,1.7-0.4c-0.2-0.7-0.2-1.5-0.6-1.9C15.1,255.9,13,256.6,11.2,256.4z M200.3,3.2c-2.6,0.2-3.8,2.3-5.2,4
			c-0.7,0.8-1,2-1.4,3c-0.1,0.3,0.3,0.8,0.5,1.1c0,0.1,0.6-0.1,0.8-0.3c0.5-0.4,0.9-0.8,1.2-1.3C197.7,7.5,199,5.3,200.3,3.2
			c0.4-0.1,0.9-0.1,1.4-0.1c0.3,0,0.6-0.2,0.9-0.3c-0.4-0.1-0.8-0.4-1.2-0.3C201,2.5,200.7,2.9,200.3,3.2z M31.6,232.1
			c-2.6,4.3-2.4,8.6,0,13C31.5,240.7,31.5,236.4,31.6,232.1c0.3-0.5,0.6-0.9,0.9-1.5c0.1-0.2-0.2-0.5-0.3-0.8
			c-0.2,0.3-0.5,0.6-0.5,0.9C31.5,231.2,31.6,231.6,31.6,232.1z M106.2,244.7c2.5-3.6,3.3-7.6,2.5-13
			C106.8,236.5,106,240.5,106.2,244.7c-1.3,0-2,0.6-1.8,2c0,0.1,0.2,0.2,0.3,0.4c0.5-0.6,1-1.3,1.5-1.9
			C106.3,245,106.2,244.8,106.2,244.7z M23.8,259.2c3.4-0.6,6.8,1.3,10.3-0.3c-3.6-3.6-3.6-3.6-7.5-1.5
			C25.6,258,24.7,258.7,23.8,259.2c-0.4,0.1-0.8,0.2-1.2,0.3c0.1,0.2,0.2,0.3,0.3,0.5C23.1,259.7,23.5,259.5,23.8,259.2z
			 M50.9,221.4c0-0.1-0.1-0.3-0.1-0.4c0-0.1-0.2-0.1-0.3-0.1C50.7,221.1,50.8,221.2,50.9,221.4c1.1,2.9,2.3,5.9,3.1,8.9
			c0.4,1.6,0,3.4,0.3,5c0.1,0.5,1.1,0.9,1.7,1.3c0.3-0.6,0.9-1.2,1-1.8c0.1-0.5-0.8-1.2-0.7-1.6C57.5,227.9,54.1,224.7,50.9,221.4z
			 M49,247.6c-3.9,3.7-8.6,6.1-13.9,7.2c1.5,0.5,3,0.6,4.3,1.1c1.8,0.7,3.5,0,4.4-1C45.8,252.7,47.3,250.1,49,247.6
			c0.1-0.1,0.2-0.1,0.4-0.2c0.1,0,0.1-0.2,0.1-0.3C49.4,247.3,49.2,247.5,49,247.6z M139.2,164.2c-0.3-0.3-0.6-0.7-0.9-1
			c-0.1-2.9,0.4-5.9-1.5-8.4c-3.9-5.3-7.1-11.1-10.8-16.5c-3.5-5.1-4.8-10.7-6.5-16.3c-0.4-1.4-0.5-2.8-0.7-4.3
			c-0.4-2.7-0.6-5.4-1.2-8c-1-4.4-1.1-8.9-0.8-13.3c0.4-4.3,1.7-8.4,4-12.2c0.8-1.3,1.3-3,1.7-4.5c1-3.9,1.4-8,2.8-11.7
			c1.6-4.2,1.4-8.4,1.2-12.7c-0.1-1.7-0.4-3.4-0.6-5.1c-1.1,1.1-2.1,2.4-2,3.7c0.1,3.6-1.5,6.5-3.4,9.4c-1.5,2.4-2.9,5-4,7.7
			c-1.7,4-2.8,8.3-4.7,12.1c-2.8,5.6-3.5,11.7-4.5,17.6c-0.7,4.3-0.6,8.7-1.2,12.9c-0.7,5,0.3,9.5,3.3,13.5
			c3.1,4.2,7.8,7.1,9.5,12.4c0,0.1,0.2,0.3,0.3,0.4c3.6,1.7,4.7,5.6,7.2,8.2c0.9,0.9,1.8,2.2,0.3,3.2c-0.2,0.2-1.6-1.1-2.4-1.8
			c-1.8-1.6-2.5-4.3-4.9-5.6c-0.1,0.5-0.2,0.7-0.2,0.8c1.6,4.3,3.2,8.3,7.7,11c3.8,2.3,6.9,5.7,11.1,7.6
			C138.6,163.6,138.9,163.9,139.2,164.2c-0.6,1.2-1.8,1.3-2.9,0.9c-1.7-0.5-3.3-1.2-4.9-1.9c-0.1-0.1-0.1-0.2-0.2-0.3
			c0-0.1-0.2-0.1-0.3-0.1c0.1,0.1,0.3,0.3,0.4,0.4c0.4,3.4,3.7,4.1,5.8,5.8c2.1,1.6,4.1-0.3,7-0.4
			C142.3,166.9,140.8,165.5,139.2,164.2z M81,246.7c-2.7,2.5-5.4,5-8,7.6c-3.4,3.6-4,5.8-3,11.4c2.4-6.6,5.3-12.6,10.4-17.2
			C80.8,248,80.8,247.2,81,246.7c0.1-0.1,0.2-0.1,0.3-0.2c0.1,0,0.1-0.2,0.1-0.3C81.3,246.4,81.2,246.5,81,246.7z M131.5,259.3
			c-1.5,2.1-3.3,4-4.4,6.2c-1.9,4-3.7,8.1-0.9,12.5c0.8-3.1,1.7-6.1,2.5-9.2C129.6,265.6,130.5,262.4,131.5,259.3
			c0.1-0.1,0.2-0.1,0.3-0.2c0.1-0.1,0.1-0.2,0.1-0.3C131.8,258.9,131.6,259.1,131.5,259.3z M218.8,13.8c-0.7-0.3-1.3-0.6-2-0.9
			c-2-6.3-3.1-6.8-8.5-3.7c2.9,1.3,5.8,2.5,8.6,3.7c0,1.8,0.1,3.7,2.6,3.8c2,0.1,2.3,1.3,2.4,2.9c0.1,2,0.7,3.8,2.7,4.7
			c0.6-1.6,1.3-3.1,1.9-4.7c0.2-0.4,0.1-1,0.1-1.4c-0.1-1.6,0.3-4-0.5-4.5c-1.6-1.1-3.9-1.2-5.9-1.4
			C219.7,12.1,219.2,13.3,218.8,13.8L218.8,13.8z M150.9,38.2c0-0.1,0-0.2,0-0.3c-1.7,0.3-3.8,0.1-5.1,0.9c-4.4,2.9-8.7,6-10.5,11.5
			c-0.9,2.7-2.5,5.2-3.6,7.8c-2,5.1-4.6,10.1-5.5,15.4c-0.9,5.2-2.6,9.9-4.6,14.5c-2,4.4-3.8,8.9-2,13.9c0.3,0.9,0,1.9,0.1,2.9
			c0.1,1.9-0.1,3.9,0.5,5.6c1.2,3.3,1.3,6.6,1.6,9.9c0.3,4.4,1.4,8.8,3.8,12.6c1.7,2.7,3.8,5.2,4.7,8.3c0.2,0.9,1.1,1.6,1.6,2.4
			c1.2,1.9,2.3,3.8,3.5,5.7c0.5,0.8,1.1,1.8,1.8,2c2.9,0.6,6.4,0.6,8.3-1.4c2.7-2.9,6.5-3.8,9.2-6.6c0.7-0.7,0.9-1.1,0.7-1.8
			c-0.3-0.7-0.6-1.7-1.2-2.1c-3-1.7-2.7-4.9-3.5-7.6c-0.3-0.9-0.2-2-0.7-2.7c-2.8-3.9-3.1-8.3-3.3-12.9c-0.1-2.9-0.2-5.9-1.2-8.5
			c-1-2.8-1.5-5.5-2.1-8.3c-1.2-5.2-0.2-9.8,2.4-14.3c0.9-1.6,1.7-3.6,1.7-5.4c-0.1-7.5,3.2-13.8,6.2-20.4c2.1-4.5,4.6-9.2,2-14.5
			c-0.4-0.9-0.2-2.2-0.1-3.3c0.4-3.2,0.3-3.4-2.6-3.5C152.5,38.2,151.7,38.2,150.9,38.2z M215.5,196.4c-3.3,2.9-5.5,6.8-7,11.2
			c-1.1,3.3-2.9,6.4-5.6,9c-1.6,1.6-2.6,4-3.8,6.1c-1.9,3.4-3.4,7-5.6,10.1c-1.8,2.7-3.3,5.4-3.9,8.6c-0.2,0.9-0.6,1.8-1.2,2.4
			c-1.8,1.8-3.9,3.3-5.6,5.3c-1.7,2.1-3.5,4.3-4.5,6.8c-1.6,3.8,0.6,5.9,4.1,5.6c4.4-0.3,7.4,1.5,10.5,3.7c3,2.2,5.7,4.7,8.3,7.4
			c2.1,2.1,4.6,3.2,7.3,3.2c4.5-0.1,9-0.7,13.5-1.1c0-0.4,0.1-0.7,0.1-1.1c-1.8-0.5-3.5-1.2-5.3-1.6c-3.1-0.7-6.3-0.9-8.4-3.9
			c-2.9-4.2-6.3-8.1-9-12.5c-1.8-3-2.2-6.3,0.7-9.3c4.3-4.5,7.1-10.3,11.7-14.6c0.9-0.8,1.3-2.2,2-3.3c2.6-4.8,5.1-9.7,7.8-14.5
			c0.8-1.4,1.8-2.8,3.1-3.6c3.7-2.2,6.1-5.6,8.7-8.8c1.4-1.7,2.1-3.1,0.9-5.2c-1.1-1.8-1.7-3.9-3.1-5.3c-3.4-3.7-7-7.1-10.6-10.7
			c-1-1-1.8-1.4-3.4-0.8c-4.9,2-9.9,3.7-14.9,5.6c-0.6,0.2-1.2,0.7-2.1,1.3C205.7,189.8,210.5,193.1,215.5,196.4z M283.7,264.6
			c-2.3-1.2-4.3-3.1-6.2-3.1c-4.6,0.1-8.4-2.2-12.4-3.6c-4.5-1.5-9.1-3-12.7-6.6c-1.6-1.6-3.6-2.7-5.2-4.2c-0.8-0.7-1.5-1.8-1.8-2.8
			c-1.2-4.1-2.2-8.3-3.3-12.5c-1.4-5.1-2.2-10.3-5.4-14.8c-1.1-1.6-1.5-3.8-2-5.8c-0.3-1.3-0.4-2.6-0.6-3.9c-2.8,2-5.3,3.8-7.7,5.6
			c-4.4,3.2-5.3,7.6-3,12.6c2.6,5.5,5.2,11,5.4,17.3c0.1,2.5,0.2,5.6,3.7,6.4c0.4,0.1,0.6,0.7,0.9,1.1c2,2.2,2.3,4.9,2,7.7
			c-0.2,2.4,0.3,4.3,2.2,6c2.9,2.6,9.1,2.8,12.2,0.2c0.8-0.6,2-1.1,3-1c1.4,0.1,2.9,0.6,4,1.4c2.9,2.2,6.1,2.6,9.6,2.3
			c2.1-0.2,4.2,0,6.3-0.2C276.2,266.5,279.9,266.3,283.7,264.6z M256.1,190.2c1.7-1.3,3.2-2.2,4.5-3.4c0.8-0.7,1.7-1.8,1.7-2.8
			c-0.2-4.6,0.9-9.3-0.8-13.9c-0.5-1.2-1-1.6-2.2-2.1c-4.5-1.7-8.9-0.6-13.3,0.3c-1.1,0.2-0.7,1.1-0.3,1.9c1.9,3.2,3.8,6.3,5.5,9.6
			C253,183,254.4,186.4,256.1,190.2z M167.9,30.8c-0.2-0.2-0.4-0.4-0.5-0.6c-1.7,1-3.5,1.9-5.2,3.1c-1.6,1.1-1.8,2.5-0.7,4.2
			c1.4,2.2,2.3,4.8,4.2,6.5c3.8,3.5,4.2,7.7,3.7,12.3c-0.1,1.1-0.2,2.3,0,3.4c0.4,1.8,1.1,3.5,1.8,5.7c1.1-1.4,1.7-2.3,2.6-3
			c0.5-0.4,1.8-0.6,2-0.4c0.9,1.2,1.5,0.9,2.2,0c0.9-1.3,1.9-2.6,2.8-3.9c0.9-1.4,1.2-2.4-0.4-4c-2.6-2.7-4.5-6.2-6.7-9.3
			c-0.5-0.8-1-1.6-1.5-2.3c-0.6,1.6-0.3,2.9,0,4.2c0,0.2-0.2,0.8-0.3,0.8c-0.4,0-1.1-0.1-1.2-0.3c-0.5-1-0.9-2-1.2-3.1
			c-0.4-1.7-0.8-3.4-0.8-5.2c-0.1-1.8,0.6-3.7-1.9-4.4c-0.1,0,0-1.2,0.2-1.8C167,31.9,167.5,31.4,167.9,30.8z M141.3,161.7
			c4.2,4.4,8.1,5.6,13.3,4.6c1.4-0.3,2.9-0.3,4.3-0.2c2.5,0.2,5.1,0.6,7.6,1c1.4,0.2,2.8,0.6,4.2,0.9c1.6,0.4,2.3,1.4,2.5,3.1
			c0.2,1.7,1,3.3,1.7,4.9c0.1,0.3,0.8,0.6,1.2,0.5c0.2,0,0.6-0.7,0.5-1.1c-0.1-0.9-0.5-1.9-0.6-2.8c-0.1-3.9-2.1-6.2-5.8-7.2
			c-1.4-0.4-2.8-0.7-4.2-1.1c-0.9-0.2-2-0.3-2.7-0.8c-3.4-2.2-6.9-4-11.1-4.2c-1.4-0.1-1.9-1.1-1.1-2.4c0.2-0.4,0.8-0.6,1-1
			c0.1-0.3-0.1-0.8-0.2-1.2c0-0.1-0.6,0-0.8,0.2c-0.4,0.3-0.8,0.6-1,1c-1.1,3.1-2.9,4.9-6.4,4.6
			C143.1,160.6,142.4,161.2,141.3,161.7z M237.9,164.5c0.7,6.8,1.9,13.1,5.9,18.5c1.9,2.6,3.8,5.2,5.9,7.6c0.8,1,2.2,1.6,3.3,2.3
			c-0.3-1.2-0.5-2.4-0.8-3.5c-2.6-7.8-5.9-15.2-11.3-21.5C240,166.7,238.9,165.6,237.9,164.5z M167.8,262.7
			c-0.9,2.6-2.1,4.3-1.8,5.9c0.7,4.7-0.9,8.8-2,13.2c-0.4,1.4-0.6,2.9-0.3,4.3c0.2,0.8,1.4,1.5,2.4,2c0.2,0.1,1.2-0.8,1.6-1.4
			c1.8-3,3.5-6.1,5.3-9.1c0.3-0.5,0.7-1.2,0.6-1.6C171.8,271.8,170,267.7,167.8,262.7z M195.3,3.9c-0.7-0.2-1.4-0.8-1.9-0.6
			c-2.7,0.8-5.4,2-8.1,2.8c-3.5,1-5.5,3.1-5.7,6.7c0,0.5,0.1,1.1,0.2,1.7c0.5-0.3,1.2-0.4,1.6-0.8c0.3-0.3,0.2-0.9,0.5-1.3
			c0.2-0.3,0.5-0.6,0.9-0.8c0.1-0.1,0.6,0.3,0.7,0.6c0.3,0.7,0.4,1.6,0.8,2.3c2.1,4.4,2.5,3.6,5.8,1c0.8-0.6,1.1-1.9,1.5-2.9
			c1-2.6,0.9-5.7,3.4-7.7C195.1,4.7,195.1,4.5,195.3,3.9z M34,225.6c1.5,7,2.9,13.5,4.3,20.1c0.3,1.5,0,3.9,0.8,4.4
			c2,1.2,3.2-1.5,5-2.1c0.4-0.1,0.7-0.6,1.1-1c1.2-1.1,3.2-2.1,3.3-3.2c0.2-1.9-0.9-4-1.5-5.9c-0.1-0.3-0.2-0.7-0.5-0.8
			c-0.5-0.2-1.4-0.4-1.5-0.2c-0.9,1.3-1.8,2.7-2.2,4.2c-0.2,0.8,0.8,1.9,1,2.9c0.2,0.8,0,1.8-0.2,2.6c-0.1,0.2-1,0.5-1.1,0.4
			c-0.5-0.6-1-1.2-1.2-2c-1.1-4.3-1.9-8.7-3.1-13C37.4,229.7,36.3,227.3,34,225.6z M201.2,248.7c0.3,2,0.1,3.6,0.8,4.8
			c1.5,2.5,3.3,4.7,5.1,7c0.1,0.2,1.2-0.1,1.5-0.4c0.6-0.7,1-1.7,1.6-2.4c1.4-1.7,2.1-1.6,2.7,0.5c0.3,1.1,0.3,1.7,1.7,1.2
			c2.7-0.9,5.5-1.7,8.6-2.6C215.8,254,208.8,251.5,201.2,248.7z M182.3,294.6c-0.2-6.1-4-9.6-5.9-14c-0.1-0.3-0.8-0.7-1.2-0.7
			c-0.3,0-0.8,0.5-0.9,0.9c-0.2,0.6-0.3,1.3-0.4,1.9c-0.4,3-0.8,5.9-1.3,8.9C175.8,292.6,178.8,293.5,182.3,294.6z M34,234.8
			c-0.2,0.1-0.5,0.2-0.7,0.2c0.3,3.2,0.7,6.3,1,9.5c0.1,1.6,0,3.2-0.2,4.8c0,0.3-1.2,0.9-1.4,0.7c-1.6-1.2-3.9-2.3-4.6-4
			c-1.9-4.8-6.3-4.9-10.1-6.1c-0.7-0.2-1.6,0.2-2.3,0.3c1,1.1,2,1.5,3.1,1.8c4.3,1.3,8.2,3,9.8,7.6c0.2,0.4,0.6,0.7,0.8,1.2
			c1.1,2.1,2.9,1.6,4.6,1.2c1.9-0.4,2.5-1.7,2.3-3.6c-0.2-1.1-0.1-2.3-0.3-3.4C35.4,241.7,34.7,238.2,34,234.8z M87.7,243.8
			c-1.2,0.9-2,1.2-2.5,1.8c-2.2,2.7-4.8,5.3-3.9,9.3c0.1,0.6,0.9,1.4,1.5,1.6c0.6,0.2,1.6-0.2,2-0.6c1.4-1.5,2.7-3.2,3.9-4.9
			c0.3-0.4,0.5-1.2,0.4-1.7C88.7,247.6,88.2,246,87.7,243.8z M224.2,174.4c-0.4,0.6-1,1.2-1.3,1.9c-0.2,0.6-0.5,1.6-0.2,1.9
			c2.8,2.8,5.7,5.5,8.7,8.2c0.3,0.3,1.1,0.2,1.6,0.3c0.1-0.5,0.3-1,0.1-1.4C230.9,181.1,229.9,175.8,224.2,174.4z M63.8,239.5
			c-1.6,1.5-2.6,2.1-3.2,2.9c-2.9,4.2-5.7,8.5-8.5,12.7c-0.5,0.7-0.5,1.7-0.7,2.6c1.3-0.2,2.6-0.4,3.9-0.7c0.2,0,0.3-0.5,0.5-0.8
			c2.3-4.2,4.6-8.4,6.8-12.6C63.1,242.7,63.2,241.6,63.8,239.5z M211.3,5.4c-5.1-2.7-5.1-2.7-9.1-0.2c-0.3,0.2-0.7,0.2-0.8,0.5
			c-0.9,1.3-1.8,2.6-2.6,3.9c-0.1,0.1,0.8,1.1,1.4,1.2c0.5,0.1,1.2-0.4,1.6-0.8C204.2,7.4,207.3,6.4,211.3,5.4z M129.5,56.6
			c1.7-2,2.4-4.2,3.2-6.5c0.8-2.3,2-4.5,3.2-7C129.2,47,127.7,50.1,129.5,56.6z M179.3,264c-1.8-0.8-2.6-2.6-4.2-0.9
			c-1.4,1.5-1.7,0.4-2-1c-0.3-1.8,1.6-3.8-0.9-5.7c-0.6,1.5-1.7,3-1.6,4.4c0.1,1.8,0.6,4.3,1.9,5.3
			C174.9,268.1,176.7,265.3,179.3,264z M152.1,269.9c-1.7,1.8-2.8,2.9-3.8,4.1c-0.7,0.8-1.3,1.8-1.8,2.8c-0.6,1.4,0.4,2.8,2.4,3.3
			c1.3,0.3,1.6-0.6,1.8-1.6C151.2,275.8,151.6,273.2,152.1,269.9z M244.1,197.7c-0.5-1.9-0.5-2.9-0.9-3.6c-1.7-2.7-3.5-5.4-5.3-8
			c-0.5-0.8-1.3-1.3-2.4-2.4C236.5,189.7,239.9,193.2,244.1,197.7z M151.9,259.5c-1.7,0.9-2.9,1.7-4.2,2.3c-1.9,0.9-1.7,2.5-1.5,4.1
			c0,0.3,0.8,0.8,1,0.7c1.4-1,3.1-1.9,4.1-3.2C151.9,262.7,151.7,261.2,151.9,259.5z M113.5,270.2c1.5-1.4,2.8-2.2,3.4-3.4
			c0.7-1.3,1.1-2.9,1.2-4.4c0-0.5-1-1.1-1.6-1.7c-0.5,0.5-1.2,1-1.4,1.6C114.5,264.7,114.1,267.2,113.5,270.2z M127,253.6
			c1.1-2.2,1.9-3.6,2.6-5c1.4-2.6,1.4-2.6,0-6.1C126.9,246.8,126.6,247.9,127,253.6z M132,251.3c-2.5,4.4-5.7,8.3-6.8,13.2
			C127.9,260.4,132.1,256.9,132,251.3z M250.9,165c-3.4-2.3-6.1-1.7-8.9-1.6c-0.2,0-0.7,0.4-0.6,0.6c0,0.4,0.1,1.1,0.5,1.2
			c0.7,0.4,1.5,0.8,2.2,0.8C246.1,165.8,248.2,165.4,250.9,165z M144.8,154.6c0,0,0-0.1,0-0.1c-1.1,0.1-2.2,0-3.3,0.2
			c-0.5,0.1-1.2,0.8-1.2,1.1c0.1,0.7,0.4,1.6,0.9,2c1,0.8,5.1-0.6,5.8-1.8c0.2-0.3-0.1-1.2-0.4-1.3
			C146.2,154.4,145.5,154.6,144.8,154.6z M179.2,175.9c2.1-3.1,1.8-5.8,1.6-8.5c0-0.4-0.8-1.1-1.2-1.1c-1.4-0.2-0.8,0.8-0.7,1.5
			C179,170.3,179,172.8,179.2,175.9z M98,248.1c-2.6,2.6-1.7,6.3-3.1,9.2c-0.1,0.2,0.2,0.6,0.4,0.7c0.2,0.1,0.8,0,0.9-0.2
			c0.6-1.2,1.5-2.5,1.7-3.8C98.2,252.2,98,250.4,98,248.1z M182.1,268.2c-2.5-2.3-5-0.9-7.4,0.5c-0.4,0.2-0.5,0.9-0.7,1.3
			c0.6,0.1,1.2,0.5,1.7,0.4C177.8,269.8,179.9,269,182.1,268.2z M198,19.3c0.7-1.5,1.5-2.8,2-4.3c0.2-0.5-0.4-1.3-0.7-1.9
			c-0.6,0.3-1.5,0.4-1.9,0.9C196.1,15.8,196.5,17.5,198,19.3z M27.8,252.5c-1.2-1.8-2.3-3.6-3.6-5.3c-0.2-0.3-1.1-0.1-1.7,0
			c-0.1,0-0.3,0.9-0.1,1.2C23.8,250.1,25.2,251.8,27.8,252.5z M65.6,206.5c0.9-2.4,1.2-4.5-0.3-6.5c-0.2-0.3-0.8-0.4-1.2-0.4
			c-0.1,0-0.5,0.6-0.4,0.8C64.3,202.4,64.9,204.4,65.6,206.5z M141.9,255.2c-2,1.9-1.7,3.6-1.4,5.3c0.1,0.5,0.8,0.8,1.2,1.2
			c0.4-0.5,1.2-1,1.1-1.4C142.7,258.8,142.3,257.3,141.9,255.2z M39.3,262.8c0.3-0.1,0.7-0.2,1-0.2c0.2-1.2,0.9-2.7,0.4-3.5
			c-0.8-1.3-2.5-1-4.1-0.2C37.6,260.2,38.4,261.5,39.3,262.8z M58.4,217.2c-1.4,2.5-2.7,5,0,8.1C58.4,222.2,58.4,219.7,58.4,217.2z
			 M76.7,166.4c0,0.3,0,0.5,0.1,0.8c2.5-0.1,5.1-0.2,7.6-0.4c0.3,0,0.7-0.6,1-0.9c-0.4-0.2-0.8-0.5-1.2-0.4
			C81.7,165.6,79.2,166,76.7,166.4z M171,291.4c0.1-1.8,0.1-2.8,0.2-3.7c0.1-0.9,0.5-1.8,0.7-2.8c0.1-0.3-0.1-0.6-0.2-0.9
			c-0.3,0.1-0.6,0.2-0.8,0.4C169.2,286.6,169.1,288.1,171,291.4z M133.5,170.9c-2.4-2.6-5.4-1.6-8.2-1.3
			C128,170.1,130.8,170.5,133.5,170.9z M174.9,65c-1.1,1.5-2,2.2-2.4,3.2c-0.2,0.4,0.6,1.2,0.9,1.8c0.5-0.3,1.3-0.6,1.4-1
			C175,68,174.9,66.9,174.9,65z M91.5,243.1c-0.4,0.1-0.6,0.2-0.6,0.2c-0.1,0.7-0.3,1.4-0.1,2.1c0.1,0.7,0.6,1.2,1,1.9
			c0,0,0.4-0.1,0.4-0.1c0.1-0.9,0.4-1.8,0.3-2.6C92.3,244,91.8,243.5,91.5,243.1z M163.3,54.4c-0.4-1-0.9-2.2-1.4-3.3
			c0-0.1-0.8,0-0.8,0c0,0.9-0.2,1.8,0.1,2.6c0.2,0.6,1,1,1.5,1.5C162.9,55,163,54.8,163.3,54.4z M155.9,259.9
			c-0.5-0.7-1-1.3-1.4-1.9c-0.2,0.8-0.6,1.6-0.6,2.4c0,0.5,0.5,0.9,0.8,1.4C155.1,261.2,155.5,260.6,155.9,259.9z M160.7,277.5
			c-0.3-0.1-0.5-0.1-0.8-0.2c-0.5,1.8-0.9,3.7-1.4,5.5c0.4,0.1,0.7,0.2,1.1,0.2C160,281.2,160.3,279.3,160.7,277.5z M66.8,217.9
			c0,2.1,0,3.9,0,6C69,221.7,67.7,219.9,66.8,217.9z M169.2,291.8c-0.3,1.1-0.6,1.6-0.5,1.8c0.4,0.8,1,1.4,1.6,2.1
			c0.2-0.3,0.7-0.7,0.7-0.9C170.5,294,169.9,293.2,169.2,291.8z M173.3,77.5c0.1-1.6,0.2-2.7,0.3-3.9c0,0-0.5-0.1-0.8-0.2
			c-0.1,1.1-0.3,2.1-0.4,3.2C172.4,76.8,172.7,77,173.3,77.5z M36.1,218.2c0.1,1.5-2.8,3,0,5C36.1,221.3,36.1,219.8,36.1,218.2z
			 M172.5,36c-0.3,0.2-0.5,0.3-0.8,0.5c-0.1,0.7-0.3,1.4-0.1,2.1c0.1,0.4,0.8,0.6,1.2,0.9c0.1-0.7,0.2-1.5,0.1-2.2
			C172.9,36.8,172.7,36.4,172.5,36z M103,259.4c0.3-1.5,0.7-2.9,1.2-5.1C102,256.1,102.5,257.9,103,259.4z M178.5,181.1
			c-0.2-0.6-0.3-0.9-0.4-1.1c-0.8,0.4-1.7,0.8-2.5,1.3c0.3,0.4,0.7,1.1,0.8,1C177.2,181.9,177.9,181.4,178.5,181.1z M112.2,265.8
			c-0.3-0.1-0.7-0.2-1-0.3c-0.2,1.2-0.4,2.5-0.6,3.7c0.1,0,0.3,0.1,0.4,0C111.3,268.1,111.8,267,112.2,265.8z M62.2,254
			c-0.2,0.2-0.4,0.2-0.5,0.4c-0.2,0.8-0.4,1.7-0.6,2.5c0,0,0.2,0.1,0.4,0.2c0.3-0.6,0.7-1.2,0.9-1.8C62.6,254.9,62.3,254.4,62.2,254
			z M171.1,253.4c-0.2-0.2-0.4-0.3-0.5-0.5c-0.7,0.7-1.3,1.4-2,2.1c-0.1,0.1-0.1,0.4,0,0.4c0.2,0.1,0.6,0.2,0.7,0.2
			C169.9,254.9,170.5,254.1,171.1,253.4z M133.9,250.4c0.6-0.3,1.1-0.5,1-0.6c-0.3-0.8-0.6-1.7-1-2.5c-0.2,0.2-0.5,0.3-0.5,0.5
			C133.6,248.6,133.8,249.4,133.9,250.4z M179.6,68c-0.3-0.3-0.7-0.6-0.7-0.5c-0.6,0.5-1.1,1-1.6,1.6c0,0,0.3,0.4,0.4,0.6
			C178.4,69.1,179,68.6,179.6,68z M132.2,238.6c-0.1,0-0.3,0-0.4,0c0,1.2,0,2.4,0,3.6c0.1,0,0.3,0,0.4,0
			C132.2,241,132.2,239.8,132.2,238.6z M211.2,250.1c0.4-0.3,0.6-0.4,0.6-0.5c0.3-0.7,0.6-1.4,0.8-2.2c0,0-0.2-0.2-0.3-0.3
			c-0.4,0.7-0.8,1.3-1.2,2C211.1,249.2,211.1,249.4,211.2,250.1z M184.3,18.6c-0.3-0.4-0.7-0.8-1.1-1.2c-0.1,0.3-0.3,0.6-0.2,0.8
			c0.2,0.5,0.6,0.8,1,1.2C184.1,19.2,184.2,18.9,184.3,18.6z M87.9,266c0.3-0.4,0.6-0.7,0.7-1.1c0.1-0.4-0.1-0.8-0.2-1.2
			c-0.3,0.5-0.7,1-0.9,1.5C87.3,265.3,87.6,265.6,87.9,266z M138.9,271c-0.5,0.9-0.8,1.4-1,1.9c-0.1,0.2,0.2,0.5,0.3,0.7
			c0.3-0.3,0.7-0.5,0.8-0.9C139.1,272.4,139,271.9,138.9,271z M206.2,18.8c-0.1-0.5-0.3-0.9-0.4-1.3c-0.2,0.4-0.5,0.9-0.5,1.3
			c0,0.4,0.3,0.8,0.4,1.2C205.9,19.6,206,19.2,206.2,18.8z M153.1,276.1c-0.1,0.9-0.2,1.4-0.2,2c0,0.3,0.2,0.5,0.3,0.8
			c0.2-0.6,0.3-1.3,0.4-1.9C153.6,276.8,153.4,276.6,153.1,276.1z M176.8,272.7c-0.3-0.1-0.6-0.3-0.7-0.2c-0.2,0.2-0.4,0.5-0.5,0.8
			c0.3,0.1,0.6,0.3,0.8,0.2C176.6,273.4,176.7,273,176.8,272.7z M154.4,268.3c-0.1-0.3-0.1-0.5-0.2-0.8c-0.2,0.1-0.6,0.2-0.7,0.4
			c-0.1,0.3,0.1,0.6,0.2,0.9C154,268.6,154.2,268.5,154.4,268.3z M151.3,35.8c0.6,0.1,1.1,0.1,1.5,0.1c0.1,0,0.3-0.2,0.4-0.2
			c-0.4-0.1-0.7-0.4-1.1-0.4C151.9,35.3,151.7,35.5,151.3,35.8z M167.6,211.2c-0.1,0.6-0.1,1-0.1,1.5c0,0.1,0.2,0.2,0.3,0.4
			c0.2-0.4,0.4-0.8,0.4-1.2C168.2,211.8,167.9,211.6,167.6,211.2z M55.4,199c0.3-0.1,0.6-0.2,0.8-0.3c-0.3-0.1-0.5-0.4-0.8-0.4
			c-0.3,0-0.6,0.3-0.9,0.4C54.8,198.9,55.1,198.9,55.4,199z M154.4,254c-0.1,0-0.3,0-0.3,0.1c-0.1,0.1-0.1,0.3-0.1,0.4
			c0.2,0,0.4-0.1,0.5-0.1C154.5,254.3,154.5,254.2,154.4,254z M170.6,32.8c-0.1-0.1-0.1-0.3-0.2-0.3c-0.1,0-0.3,0-0.4,0
			c0.1,0.2,0.2,0.3,0.3,0.5C170.3,33,170.5,32.9,170.6,32.8z M58.3,198.7c-0.1,0-0.3,0-0.3,0.1c-0.1,0.1-0.1,0.3-0.1,0.4
			c0.2,0,0.4-0.1,0.5-0.1C58.4,199,58.4,198.9,58.3,198.7z M113.8,259.2c-0.1-0.1-0.2-0.3-0.2-0.4c-0.1,0.1-0.3,0.3-0.3,0.3
			c0.1,0.2,0.2,0.3,0.4,0.5C113.7,259.5,113.8,259.3,113.8,259.2z M163.2,277.9c0-0.1,0-0.3,0.1-0.4c-0.2,0-0.3,0.1-0.5,0.1
			c0,0.1,0.1,0.3,0.1,0.4C163,278,163.1,278,163.2,277.9z M152.3,169.6c-0.1-0.1-0.2-0.3-0.3-0.3c-0.2,0-0.5,0.2-0.7,0.3
			c0.1,0.1,0.2,0.3,0.3,0.3C151.8,169.8,152.1,169.7,152.3,169.6z M92.1,170.7c0-0.1,0-0.3-0.1-0.3c-0.1-0.1-0.3-0.1-0.4-0.1
			c0,0.2,0.1,0.4,0.1,0.5C91.8,170.8,91.9,170.7,92.1,170.7z M171.1,241.6c-0.1-0.1-0.2-0.2-0.3-0.3c-0.1,0.2-0.2,0.5-0.3,0.7
			c0,0.1,0.2,0.2,0.2,0.3C170.9,242.1,171,241.9,171.1,241.6z"/>
		<path d="M158.1,200.7c-0.5,1.7-0.3,3.5-2.5,3.3c-3.4-0.4-5.8,1.3-8,3.6c-0.8,0.8-1.6,1.6-2.8,0.5c-1.1-1-0.6-2.2,0.1-3
			c1.3-1.4,2.6-2.9,4.2-3.6c2.3-0.9,4.9-1.2,7.4-1.5C157.1,200,157.7,200.5,158.1,200.7z"/>
		<path d="M154.6,214.2c-0.3-0.3-0.6-0.7-0.9-1.1c-0.4-0.7-0.8-1.4-1.1-2.1c-0.1-0.5,0.1-1.1,0.1-1.6c0.4,0.1,0.9,0,1.3,0.2
			c0.4,0.2,0.7,0.6,1.1,1c0.7,0.6,1.1,0.9,1.5-0.4c0.8-2.8,2.1-3.1,3.7-1c1.5,2,2.8,4.2,4,6.4c0.3,0.5-0.2,1.7-0.6,2.1
			c-1,0.9-1.3-0.3-1.6-0.9c-0.7-1.6-1.4-3.3-2.1-4.8c-0.1-0.2-1.2,0-1.2,0C158.5,214.4,156.2,213.4,154.6,214.2z"/>
		<path d="M153.2,225.4c-0.3,0.1-1,0.5-1.1,0.4c-1.9-2.1-3.7-4.2-5.5-6.4c-0.1-0.1,0.1-0.6,0.3-0.7c0.2-0.1,0.7-0.2,0.9-0.1
			c1.9,2.1,3.8,4.1,5.7,6.2C153.4,224.8,153.3,225.1,153.2,225.4z"/>
		<path d="M143.9,211.1c0.3,0.1,0.7,0.1,0.8,0.3c0.2,0.6,0.4,1.2,0.5,1.8c0.1,1,0.1,2.1,0.2,3.1c-0.3,0-0.7,0-0.8-0.1
			c-1.3-1.3-1.8-3.6-1-4.8C143.6,211.2,143.8,211.2,143.9,211.1z"/>
		<path d="M155.6,216.6c0.7,1.1,1.3,2.1,1.8,3.1c0,0-0.4,0.3-0.7,0.5c-0.6-1-1.2-1.9-1.8-2.9C154.9,217.3,155.2,217.1,155.6,216.6z"
			/>
		<path d="M163.3,227.1c-0.1,0.2-0.2,0.4-0.3,0.7c-0.1-0.1-0.3-0.2-0.3-0.3c0.1-0.2,0.2-0.5,0.3-0.7
			C163.1,226.8,163.2,227,163.3,227.1z"/>
		<path d="M208.1,29.4c-0.3,0.3-0.7,0.6-1,1c-0.3,0.3-0.6,0.7-1,1c-0.3,0.3-0.6,0.6-1,1c-1.6,0.8-3.1,1.6-4.7,2.2
			c-0.5,0.2-1.1,0.1-1.7,0.1c0.3-0.6,0.3-1.5,0.8-1.9c2-1.3,4.5-1.8,5.6-4.3c1.2-0.9,3.4-1.3,1.4-3.6c-0.1-0.1,1.6-1.9,2.5-2.9
			c1.7,3.2,1.7,3.2-0.4,5.8C208.3,28.1,208.3,28.8,208.1,29.4z"/>
		<path d="M204.8,25c-0.1,0.1-0.2,0.3-0.3,0.3c-0.3-0.1-0.5-0.2-0.7-0.3c0.3-0.1,0.5-0.2,0.8-0.3C204.6,24.7,204.7,24.9,204.8,25z"
			/>
		<path d="M218.7,13.9c0.3-0.1,0.6-0.4,0.9-0.4c0.5,0.1,1.1,0.3,1.6,0.5c-0.1,0.4-0.3,1.1-0.4,1.1c-0.5,0-1.1-0.2-1.6-0.5
			C219,14.5,218.9,14.1,218.7,13.9L218.7,13.9z"/>
	</g>
</g>
</svg>
