<?xml version="1.0" encoding="utf-8"?>
<!-- Generator: Adobe Illustrator 18.0.0, SVG Export Plug-In . SVG Version: 6.00 Build 0)  -->
<!DOCTYPE svg PUBLIC "-//W3C//DTD SVG 1.1//EN" "http://www.w3.org/Graphics/SVG/1.1/DTD/svg11.dtd">
<svg version="1.1" id="Layer_1" xmlns="http://www.w3.org/2000/svg" xmlns:xlink="http://www.w3.org/1999/xlink" x="0px" y="0px"
	 viewBox="0 0 259.7 160.3" enable-background="new 0 0 259.7 160.3" xml:space="preserve">
<path d="M259.7,23.1c-3.4,0-6.8,0.1-10.2,0.1c-2.1,0-4.1,0-5.8-1.8c-0.7-0.8-2.3-1.1-3.5-1c-5.3,0.5-10.5,1-15.7,1.8
	c-3.4,0.5-7.1,0.4-10,2.9c-1.5,1.3-3.5,1.3-5.1,0.7c-3-1.2-6.1-0.9-9.1-0.7c-4.8,0.4-9.6,1.1-14.3,1.8c-0.5,0.1-1.4,0.4-1.4,0.8
	c-0.2,1.6-1.2,1.2-2.1,0.9c-4.5-1.4-9.1-1.8-13.8-1.7c-4.3,0.1-8.6-0.1-12.9-0.1c-7.7,0.1-15.4-0.6-23.1-1c-0.3,0-0.6-0.2-0.9-0.3
	c-1.6-0.5-3.8,1.7-4.8-0.5c-0.5-1.1,0.3-2.9,0.6-4.6c-2,1.3-3.6,2.6-5.4,3.6c-4.1,2.3-8.4,0.8-12.7,0.5c-1.3-0.1-2.6-0.7-3.8-0.4
	c-6.1,1.6-12.2,0.7-18.1-0.5c-2.1-0.4-4-0.7-6.1,0c-1.3,0.4-2.9,0.4-4.3,0.3c-7.5-0.3-15.1-0.9-22.4-3.1c-0.8-0.2-1.5-0.7-2.3-0.7
	c-7.1-0.1-14.2,0-21.9,0c0.8,1.4,1.2,2.2,1.8,2.8c4.2,4.2,6,9.5,7,15.1c0.7,4.1,1.8,8.3,1.5,12.4c-0.3,3.6,0.5,7,0.6,10.4
	c0.1,2.9,0.6,5.7,1,8.6c0.2,1.7,0.3,3.4,0.2,5.1c-0.2,4.3,0.4,8.6,0.8,12.9c0,0.3,1.4,0.9,1.7,0.7c2.8-1.8,5.9-1.3,9-1.5
	c4.1-0.3,8.2-0.8,12.3-1.3c0.6-0.1,1.3-0.6,1.8-0.4c2.4,0.7,4.1,0.6,5-2.2c0.4-1.1,2-1.2,2.9-0.4c1.1,0.9,1.9,2.1,3.3,3.6
	c0.2-1.3,0.3-2.3,0.6-3.3c0.5-1.3,1.1-2.6,1.7-3.8c0.2-0.3,1-0.7,1.2-0.5c0.9,0.6,1.6,1.7,2.5,2c0.6,0.2,1.5-1.2,2.3-1.2
	c0.9,0,2,1.1,2.7,0.9c0.6-0.1,0.7-1.7,1.3-2.4c1.5-2,3-1.7,3.9,0.6c0.5,1.2,0.7,2.5,1.1,3.7c1.1,3.4,2.2,4.4,5.8,3.7
	c9.6-1.8,18.8,0.5,28.1,1.8c5.4,0.8,11,0.2,16.4,0.1c2.7-0.1,5.4-0.5,8.1-0.8c3.3-0.3,6.7-0.6,10.1-0.9c2.6-0.2,5.1-0.2,7.5,1.1
	c3.5,1.8,7.2,2.3,11.2,1c1.9-0.6,3.8-1,6.1-0.5c2.4,0.5,5.1-0.1,7.7-0.3c0.8,0,1.6-0.3,2.4-0.3c3.4,0.2,6.7,0.8,10,0.8
	c5.8,0,11.5,0.8,17.2,1.7c4.3,0.7,8.7,0.1,13.1,0.3c2.9,0.1,5.7,0.8,8.6,0.8c3.5,0,7-0.5,10.5-0.7c0,1,0,1.9,0,2.9
	c-6.9-0.3-13.8-0.6-20.7-1c-3-0.2-5.4,0.4-7.9,2.6c-2.8,2.5-6.7,3.8-10.1,5.6c-0.6,0.3-1.7,0.2-2.1-0.2c-0.4-0.4-0.6-1.5-0.4-2.1
	c0.7-1.6,1.7-3.1,2.5-4.7c1.2-2.2,0.9-3-1.5-3c-4.5-0.1-9.1,0-13.6-0.1c-1.9,0-3.8-0.4-5.7-0.5c-0.2,0-0.3-0.2-0.5-0.2
	c-5.4,0.3-10.9,0.5-16.3,1.1c-4.1,0.4-8.1,0.9-12-1.4c-1.6-0.9-4-0.8-6.1-0.7c-2.4,0.1-4.7,0.8-7.5,1.3c2.2,3.4,3.9,6.9,6.4,9.7
	c1.2,1.4,2.1,2.6,2.9,4.2c0.9,1.8,2.4,3.3,3.6,5c0.3,0.4,0.6,0.8,0.8,1.2c1.9,4,3.8,8.1,5.8,12.1c0.9,1.7,2,3.3,3.1,4.8
	c1.9,2.6,3.3,5.4,2.3,8.5c-0.6,1.9,0,3.1,0.9,4.4c4.2,5.6,9.6,8.9,16.8,8.8c5.3,0,10.6,0.5,15.6-1.6c1.8-0.8,3.1,0.5,4.2,1.6
	c1.1,1.1,0.5,2.5-0.3,3.5c-1,1.2-2.1,2.6-3.4,3.1c-5,2-10.1,4.1-15.6,4.7c-0.8,0.1-1.8,0.1-2.3-0.3c-2.7-2.2-5.3-1.5-8.2-0.3
	c-3,1.2-6.2,2-9.3,0.4c-0.9-0.4-1.9-1.4-2.1-2.3c-1-3.9-3.4-7.3-3.1-11.6c0.1-1-0.8-2.1-1.3-3.1c-0.5-1.2-1.1-1.4-2.6-1.2
	c-3.2,0.5-3.2,0.3-3.9-3c-0.9-4.2-1.5-8.6-5.3-11.5c-0.9-0.7-1.1-2.3-1.7-3.4c-2.9-5-6.3-9.6-8.6-15c-1.3-3.1-4.3-5.5-6.6-8.2
	c-2.1-2.5-4.2-4.8-6.3-7.3c-0.6-0.7-1.1-2.1-1.8-2.2c-3-0.5-6.2-0.1-9.2-1.3c-0.2-0.1-1.2,1-1.5,1.7c-2.2,5-4.3,10-6.4,15.1
	c-1.1,2.7-1.9,5.5-3.4,7.9c-1.2,1.8-3.1,3.3-5,4.4c-2.9,1.6-5.3,3.5-7.8,5.7c-3,2.7-6.2,5-9.4,7.4c-2.4,1.8-5,3.4-7.4,5.2
	c-0.4,0.3-0.8,1.2-0.7,1.6c0.7,3.3,1.3,6.6,2.5,9.8c0.6,1.5,2.2,2.7,3.4,4c0.6,0.7,1.2,1.4,1.8,2.2c0.1,0.2,0,0.7-0.2,0.9
	c-0.1,0.2-0.6,0.2-0.8,0.1c-2.8-2.6-6.1-4.9-6.9-9c-0.4-2.1-0.4-4.5-2.2-6.2c-0.3-0.3,0-1.5,0.2-2.1c0.7-1.6,1.5-3.2,2.4-4.7
	c0.3-0.5,1.3-1.1,1.4-1c2,2,3.1,0,4.3-1.1c4.9-3.9,9.7-7.9,14.6-11.8c1.4-1.1,2.8-2.4,4.4-2.9c2.8-0.8,3.7-2.7,4.7-5
	c2-4.9,4.4-9.6,6.6-14.5c0.9-2,1.8-4.1,2.4-6.3c0.4-1.4-0.1-2.5-1.9-2.5c-1.8,0-3.6-0.1-5.3-0.1c-3.7,0-4.9,1.1-6.2,4.5
	c-2.7,7.3-5.8,14.3-12.9,18.6c-1.3,0.8-2.8,1.9-3.5,3.2c-2.1,4-5.5,6.1-9.3,8c-3,1.5-2.9,1.7-1.5,5c0.3,0.6,0.7,1.2,0.6,1.8
	c0,0.3-1.1,0.9-1.2,0.8c-2.1-2.2-4-0.2-5.4,0.7c-2.4,1.6-4.5,3.6-6.5,5.6c-0.4,0.4-0.6,1.6-0.4,2.1c0.9,1.7,1.5,3.9,4.5,3.5
	c1.1-0.2,3,0.9,3.6,1.9c1.9,3.1,4.4,5.9,5.1,9.7c0.7,3.7,1.5,4.1,5.2,4.2c2.1,0,4.2-0.1,6.3,0.1c1.9,0.1,2.7-0.4,1.9-2.4
	c-0.1-0.2,0.4-0.6,0.7-1c0.7,1.4,1.5,2.7,2.1,4.1c0.1,0.1-1.4,1.2-2.2,1.2c-3.7,0.1-7.4,0.1-11.1,0c-2.2,0-3.3-1.5-4.1-3.5
	c-1.2-3.1-2.7-6.2-3.7-9.3c-0.7-2.1-1.9-2.7-3.9-2.8c-1.2-0.1-2.7-0.4-3.4-1.1c-1.4-1.5-2.3-3.4-3.2-5.3c-0.2-0.4,0.5-1.5,1-2
	c3.3-2.8,5.5-6.9,10-8.2c0.6-0.2,1.2-1.5,1.2-2.2c0-2.3,1.3-3.5,3.2-4.4c3.8-1.9,7.1-4.2,9.5-8c1-1.6,2.7-2.7,4.3-3.8
	c5.9-3.8,8.4-9.9,11.1-15.9c0.4-0.9,0.5-1.8,0.9-2.7c0.5-1,1.2-1.8,1.8-2.8c-1.2-0.3-2.4-0.8-3.5-0.7c-2.9,0.1-5.8,0.5-8.6,0.9
	c-0.8,0.1-1.5,0.9-2.4,1.3c-1.3,0.6-2.7,1.6-3.9,1.4c-1.8-0.3-3.3-0.3-5.1,0.1c-2.2,0.5-4.4-0.4-6.8,0.9c-1.6,0.8-4.2-0.6-6.4,0.2
	c-1.3,0.5-2.5-0.2-3.1-1.6c-1.3-2.8-3.7-3.6-6.4-2.7c-4.6,1.5-9.4,1-14.2,1.4c-2.6,0.2-5.2,0.2-7.2,2.1c-1,0.9-1.7,0.5-2.5-0.1
	c-3.2-2.5-6.6-4.5-10.4-6c-2.2-0.9-3.8-2.9-5.8-4.3c-2.9-2.2-5.6-5.1-8.9-6.5c-4.5-1.9-9.3-3.6-14.4-3.5c-0.8,0-1.7,0.1-2.4-0.1
	c-0.4-0.1-1.1-0.9-1-1.3c0.7-4.4,1.4-8.9,2.5-13.2C5.4,44.3,11,33.9,18.3,24.4c1.3-1.6,2.8-3.2,4.5-4.4c1.2-0.9,2.9-1.8,4.4-1.7
	c6.1,0.5,12.1-0.4,18.2-0.3c5,0.1,9.9,0.8,14.7,2.2c0.6,0.2,1.2,0.6,1.8,0.6c7.2,0,14.3,2.2,21.6,0.6c2.2-0.5,4.7,0.3,7.1,0.6
	c2.9,0.3,5.7,0.7,8.6,0.8c6.1,0.3,12.2,0.7,18.3,0.6c1.9,0,4.1-1.1,5.6-2.4c2.5-2.2,4.5-4.9,6.7-7.5c0.4-0.5,0.6-1.2,0.7-1.8
	c0.1-1.2,0.3-2-1.7-1.7c-3.8,0.6-5.6-0.7-6.6-4c-0.3-0.9-0.5-2-0.1-2.8c0.5-1.3,1.3-2.7,2.4-3.4c0.4-0.3,2,1.1,3,1.9
	c1,0.8,1.8,2,2.9,2.5c2.3,0.9,3.5,2.5,3.7,4.9c7.7-2.4,9.3-4.3,10.5-9.2c0.5,0.5,1,0.9,1.4,1.3c1.4,1.6,0.7,3.6,0.9,5.5
	c0.2,1.8,2.8,2.8,1.6,5.2c-0.2,0.4,0.2,1.2,0.6,1.7c0.8,1,1.2,1.9-0.2,2.7c-1.3,0.8-2.7,1.4-3.9,0c-1.6-1.8-1.9-3.6-0.1-5.6
	c-7.7-0.8-12.5,3.1-15.7,12.8c1-0.1,2-0.5,2.8-0.3c8,1.8,16.2,1.5,24.3,1.6c4.8,0.1,9.7-0.1,14.5,0c2.1,0,4.1,0.5,6.2,0.7
	c1,0.1,1.9,0.3,2.9,0.1c5.9-0.7,11.8-1.4,17.6-2.3c3.8-0.6,7.6-1,11.4,0.2c2.2,0.7,4.3,0.5,6.4-1.1c1.3-1,3.2-1.3,4.9-1.5
	c7.1-1,14.3-1.8,21.4-2.6c0.8-0.1,2.1,0.1,2.4,0.7c1.1,1.9,2.8,2,4.6,1.9c3.7-0.2,7.4,0.6,11-0.9C259.7,21.1,259.7,22.1,259.7,23.1z
	 M13.3,43.4c0.3,0,0.7,0,1,0c-0.5,2.1-1.1,4.1-1.7,6.7c2.5-1.8,4-3.5,3.4-6.4c0-0.2-1.2-0.2-1.8-0.2c0-0.7,0-1.3,0-2
	c0.1-0.1,0.3-0.1,0.4-0.2c0.1-0.1,0.1-0.2,0.1-0.3c-0.1,0.2-0.3,0.4-0.4,0.5c-0.3,0-0.7,0-1,0c0.5-1.1,1.1-2.2,1.5-3.4
	c0.7-1.6,0.1-4.1-0.6-3.8c-0.8,0.4-1.4,1.5-1.8,2.4c-0.5,1-0.8,2.1-0.9,3.1c-0.1,1.2,0.8,1.6,1.9,1.6C13.3,42.1,13.3,42.8,13.3,43.4
	c-0.2,0.4-0.5,0.7-0.8,1c0.2,0.1,0.3,0.2,0.5,0.3C13.1,44.3,13.2,43.9,13.3,43.4z M22,69.6c0.1,0.4,0.2,0.8,0.2,1.2
	c0.2-0.1,0.3-0.2,0.5-0.3C22.5,70.3,22.2,70,22,69.6c-0.1-0.4-0.2-0.8-0.3-1.2c-0.2,0.1-0.3,0.2-0.5,0.3C21.5,69,21.8,69.3,22,69.6z
	 M6.5,62.8c0.3-1,0.6-1.9,1-2.9c1.3-1,1.1-1.9,0-2.9c-0.1-1.6-0.1-3.3-1.9-4.4C3.6,55.8,3.7,59,4,62.8c1.1-1.3,1.8-2.1,2.5-2.9
	C6.5,60.9,6.5,61.9,6.5,62.8c-0.1,0.1-0.3,0.1-0.4,0.2C6,63.1,6,63.2,6,63.3C6.2,63.2,6.3,63,6.5,62.8z M4.6,65.7
	c0.3,0.3,0.6,0.5,0.9,0.8c0.1-0.2,0.2-0.3,0.3-0.5C5.4,66,5,65.9,4.6,65.7c-0.4-0.5-0.7-1.1-1.1-1.6c-0.2,0.2-0.4,0.4-0.6,0.6
	C3.5,65.1,4,65.4,4.6,65.7z M144.3,5.6c-0.5,0.4-1.1,0.7-1.5,1.2c-0.3,0.4-0.5,0.9-0.7,1.4c0.5,0.1,1,0.3,1.4,0.1
	c0.4-0.1,1-0.5,1.1-0.9C144.6,6.9,144.3,6.2,144.3,5.6c0.1-0.1,0.2-0.1,0.4-0.2c0.1-0.1,0.1-0.2,0.1-0.3
	C144.6,5.3,144.4,5.5,144.3,5.6z M23,61.9c0.6-1.4,1.2-2.8,1.6-4.2c0.1-0.2-0.6-0.6-0.9-1c-0.2,0.3-0.7,0.6-0.7,0.9
	C23,59,23,60.5,23,61.9c-0.3,0.5-0.6,0.9-0.9,1.5c-0.1,0.2,0.2,0.5,0.3,0.8c0.2-0.3,0.5-0.6,0.6-0.9C23.1,62.8,23,62.3,23,61.9z
	 M32.7,76.4c-0.5,0.4-1,0.8-1.3,1.3c-0.2,0.3,0,0.8,0,1.2c1-0.1,2.6,0.1,2.9-0.4C35,77.2,34.1,76.5,32.7,76.4c0.3-0.3,0.5-0.7,0.9-1
	c1.5-0.9,0.5-1.9,0-2.8c-0.2-0.3-0.7-0.5-1-0.7c-0.3,0.8-0.7,1.7-0.8,2.5C31.8,75.1,32.4,75.8,32.7,76.4z M36.6,62.8
	c0.4,1.4,0.8,2.8,1.4,4.2c0.1,0.3,0.8,0.5,1.2,0.5c0.3,0,0.7-0.5,0.7-0.8c-0.1-1.9-0.2-3.8-0.6-5.6c-0.1-0.5-1.1-0.8-1.7-1.2
	c0.6-0.9,1.6-1.9,1.7-2.8c0.3-4.7,0.5-9.3-1-13.9c0-0.1-1.1,0.1-1.6,0.2c2-4.3,0.1-8.3-1.1-12.4c-0.4-1.4-1.2-0.2-1.8-0.2
	c0.5-3.9-2.6-6-4.4-8.7c-0.3-0.4-1.2-0.8-1.6-0.6c-0.4,0.2-0.7,1-0.7,1.6c0.1,4.5,2.7,7.7,5.7,10.5c0.1,4.1,0,8.2,2.9,11.6
	c0.4,4.6,0.8,9.3,1.3,13.9c0,0.2,0.4,0.4,0.7,0.6C37.2,60.9,36.9,61.9,36.6,62.8c-0.6,0-1.3,0-1.9,0c2.3-4.4,0.2-8.6-0.5-12.9
	C34,54,34,58.1,34,62.2c0,0.2,0.4,0.4,0.6,0.6c0,1.7,0,3.5,0.1,5.2c0,0.3,0.4,0.6,0.6,0.9c0.3-0.3,0.9-0.6,0.9-1
	C36.4,66.3,36.5,64.6,36.6,62.8z M29.8,67.7c-0.6,1.1-1.3,2.1-1.8,3.3c-0.1,0.3,0.2,1,0.5,1.2c0.3,0.2,1,0,1.2-0.3
	C30.8,70.5,31.3,69.1,29.8,67.7c0.3-0.9,0.9-1.8,0.8-2.7c-0.1-1.6,1-3.5-1-4.7c-0.6,1.6-1.3,3.2-1.7,4.8
	C27.6,66.4,27.9,67.7,29.8,67.7z M30.8,38.6c0.7,3.1,1.3,6.1,2,9.2C33.6,44.3,32.4,41.4,30.8,38.6c0.1-3.2-0.3-6.3-3.5-8.5
	c-0.6,2.5-0.5,4.6,0.6,6.6c-0.6,0.4-1.5,0.6-1.8,1.2c-0.5,1-0.6,2.1-0.9,3.2c-0.6,2.8-0.4,3.3,2.6,5.3l0,0c0.5,1.3,0.9,2.7,1.5,4
	c0.4,0.9,1.1,1.6,1.7,2.4c0.2-1.1,0.5-2.1,0.6-3.2c0-0.9-0.4-1.9-0.6-2.8c-0.9-3.4-2.9-6.6-3.2-10.2C28.8,37.3,29.8,37.9,30.8,38.6z
	 M10.4,47.3c0.1,0.4,0.2,0.9,0.2,1.3c0.2-0.1,0.3-0.2,0.5-0.3C10.9,48,10.6,47.7,10.4,47.3c0-2,0-4.1,0-6.7c-4.1,6.6-4.4,8.1-2.5,11
	C8.7,50.2,9.5,48.8,10.4,47.3z M18.2,33.7c-0.2,1.1-0.5,2.3-0.7,3.4c1.6-1,2.6-2.4,3.5-3.7c0.1-0.2-0.1-0.8-0.2-0.8
	c-0.4,0-0.8,0-1.1,0.2C19.1,33,18.6,33.4,18.2,33.7c0.1-0.5,0.1-1.4,0.4-1.7c2.9-2.1,2.5-5.1,2.4-8c0.1,0,0.3-0.1,0.4-0.1
	c0.1,0,0.1-0.2,0.1-0.3c-0.2,0.1-0.3,0.3-0.5,0.4c-1.1,1.3-2.1,2.7-3.4,3.8c-1.8,1.6-1.6,3.7-1.3,5.7C16.4,33.7,17.5,33.7,18.2,33.7
	z M220.9,97.8c4-1.1,7.5-3,10.7-5.9c-6.9-1.8-7.7-1.5-10.2,4.1C221.1,96.5,221,97.2,220.9,97.8c-0.1,0.1-0.3,0.1-0.4,0.2
	c-0.1,0.1-0.1,0.2-0.1,0.3C220.6,98.1,220.7,97.9,220.9,97.8z M26.9,51.2L26.9,51.2c-0.3-1.4-0.7-2.9-1.1-4.3
	c-1.1,2.3-2.3,5-1.4,6.5c1.6,2.6,1.5,5.5,2.9,8c0.7-1.5,1.4-2.8,2-4.3C30.1,54.8,29.1,52.7,26.9,51.2z M167.5,108.5
	c-0.1-0.4-0.2-0.8-0.3-1.3c-0.1,0.1-0.3,0.2-0.4,0.3C167,107.8,167.3,108.1,167.5,108.5c0.2,2.1,2.1,4,0.3,6.6
	c-0.5-0.8-1-1.4-1.2-2.1c-2.1-7.9-5-15.4-10.2-22c-1-1.3-1.8-2-3.5-1.9c-3.7,0.4-7.3,0.6-11,1c-1.4,0.1-1.6,1-0.8,2
	c1.3,1.6,2.8,3.1,4.1,4.7c4.2,5.2,9.7,9.3,11.5,16.2c0.1,0.5,0.4,0.9,0.6,1.3c1.9,3.2,3.8,6.3,5.7,9.5c0.7,1.1,1.2,2.4,2.1,3.2
	c2.8,2.3,4,5.3,4.5,8.8c0.2,1.5,0.8,2.9,1.3,4.5c2.7-1.3,5.1-2.6,7.7-3.5c2.3-0.7,2.6-2.3,2.3-4.1c-0.2-1.2-0.8-2.4-1.3-3.6
	c-3.2-6.1-6.4-12.2-9.7-18.3C169.5,109.8,168.3,109.2,167.5,108.5z M201.6,158.1c4.5-1.5,9.4-2.9,14.3-4.6c1-0.3,1.7-1.4,2.4-2.3
	c0.9-1.1,0.1-2.7-1.4-2.7c-0.5,0-1,0-1.4,0.2c-5.4,2.1-11.1,2-16.7,1.6c-5.5-0.4-10.8-1.8-14.1-7.1c-0.9-1.5-2.3-2.7-3.6-3.9
	c-1.4-1.3-2.7-0.3-4,0.4c-1.4,0.8-0.9,1.9-0.3,2.9c1.1,1.9,1.3,3.9,1.5,6c0.4,4,2.2,7.2,6.5,7.8c2,0.3,4.1,0.2,6.1-0.1
	c2.6-0.4,5-0.9,7.4,0.9C199.1,157.6,200.2,157.7,201.6,158.1z M128.9,8.4c0.2-0.1,0.8-0.3,1.4-0.5c-0.3-0.7-0.5-1.4-0.9-2
	c-0.7-0.9-1.5-1.7-2.4-2.3c-0.7-0.5-1.5-0.8-2.3-1.1c-0.2,0.9-0.7,1.8-0.6,2.7C124.2,7.4,125.8,8.5,128.9,8.4z M93.2,78.4
	c-0.3,2.1-0.7,3.3-0.7,4.6c0,1.7,0.2,3.4,0.6,5.1c0.1,0.4,1.3,0.8,2.1,0.8c1.4,0,0.6-1,0.6-1.7C95.7,84.3,95,81.5,93.2,78.4z
	 M82.6,80.2c-0.5,3.1-1,5.6-1.3,8.1c0,0.4,1.1,1.4,1.3,1.3c0.7-0.4,1.8-1.1,1.8-1.7c0.1-1.9-0.2-3.8-0.5-5.7
	C83.8,81.7,83.3,81.2,82.6,80.2z M87.1,84.2c0,1.7-0.1,2.5,0,3.3c0.2,1.6,1.4,1.6,2.5,1.4c1.1-0.2,1-1,0.7-1.8
	c-0.2-0.8-0.2-1.6-0.5-2.3c-0.5-1.1-1.2-2.1-1.9-3.1C87.6,82.8,87.2,83.9,87.1,84.2z M19.1,58.1c0,1.2,0,1.4,0,1.5
	c0.3,1.3-0.8,2.9,0.9,3.8c0.6-1.2,1.4-2.4,1.7-3.6c0.3-1.2,0.1-2.5,0-3.8c0-0.3-0.7-0.7-1.1-0.7c-0.4,0-1.1,0.3-1.2,0.6
	C19.3,56.9,19.2,58,19.1,58.1z M22,40c-0.2,0.5-0.2,1-0.4,1.4c-0.5,1-0.5,2,0.6,2.3c0.4,0.1,1.4-1,1.6-1.7c0.5-1.3,0.6-2.8,0.9-4.2
	c0.2-1,0.1-2-1.2-2.1c-1.3-0.1-2.2,0.7-2.2,2C21.3,38.5,21.8,39.3,22,40z M25.9,24.4c-0.3-1.3,0.5-3-1.5-3c-1.5,0-1.3,1.5-1.5,2.5
	c-0.2,0.6-0.6,1.2-0.6,1.8c0,0.7,0.1,1.8,0.5,2c1.1,0.6,2.2,0.1,2.7-1.1C25.8,25.8,25.8,25,25.9,24.4z M16.1,49.7
	c-2.7,1-3,2.9-2.7,5c0.1,1,0.8,1.9,1.2,2.8c0.5-0.8,1.3-1.6,1.5-2.5C16.3,53.3,16.1,51.6,16.1,49.7z M20.2,40.5
	c-0.1-0.4-0.2-1.6-0.8-2.3c-0.6-0.6-2,1.4-2.1,3.1c0,0.6-0.1,1.3,0,1.9c0.2,0.7,0.6,1.3,1,1.9c0.6-0.5,1.3-0.9,1.6-1.5
	C20.2,42.9,20.1,42,20.2,40.5z M23.1,48.2c-0.2-0.4-0.7-1.4-1.1-2.4c-0.3,1-0.6,2-0.9,3c-0.3,0.9-0.7,1.8-0.8,2.7
	c0,0.5,0.5,1,0.8,1.5c0.6-0.4,1.5-0.6,1.7-1.1C23.1,51,23,49.9,23.1,48.2z M23.3,33.7c2.1-0.4,2.7-1.6,2.5-3.2
	c-0.1-0.6-0.8-1.4-1.3-1.5c-1.5-0.2-2.7,1.5-2.3,3.3C22.3,32.9,23,33.4,23.3,33.7z M40.5,78.6c-0.1-0.7,0-1.5-0.3-2.3
	c-0.1-0.3-0.7-0.7-1.1-0.7c-0.4,0-1.1,0.2-1.2,0.5c-0.6,1.6-0.8,3.1,0.5,4.5c0.2,0.2,0.6,0.5,0.8,0.4c0.4-0.1,0.8-0.4,1-0.8
	C40.5,79.8,40.4,79.2,40.5,78.6z M17.3,54.5c0.3,0,0.5,0.1,0.8,0.1c0.6-2.4,1.2-4.8,1.7-7.2c0-0.2-0.3-0.6-0.5-0.7
	c-0.2-0.1-0.7,0-0.9,0.2c-0.5,0.6-1.1,1.3-1.1,2C17.2,50.7,17.3,52.6,17.3,54.5z M40.5,72.2c-0.1-1.2,0-1.7-0.2-2.1
	c-0.1-0.4-0.5-1.1-0.7-1c-0.6,0.1-1.2,0.4-1.6,0.8c-0.3,0.3-0.4,0.9-0.4,1.3c-0.1,1.3,0.1,2.8,1.6,2.9
	C39.7,74.1,40.3,72.5,40.5,72.2z M74.5,86.7c0,0.4-0.1,1.1,0.2,1.6c0.3,0.6,1,1,1.5,1.5c0.3-0.6,1-1.2,0.9-1.7c-0.1-1-0.6-2-1.1-3
	c-0.1-0.2-0.6-0.5-0.7-0.4c-0.3,0.2-0.6,0.6-0.8,0.9C74.5,85.8,74.5,86.1,74.5,86.7z M41.9,84.4c-1.1-0.8-1.9-1.3-2.7-1.9
	c-0.4,0.7-1.3,1.7-1.1,1.9c0.5,0.7,1.4,1.1,2.2,1.4C40.5,85.9,41.1,85.2,41.9,84.4z M35.2,82.9c-1.1-1-1.7-1.8-2.5-2.3
	c-0.2-0.1-0.9,0.6-1.4,0.9c0.8,0.7,1.5,1.4,2.3,2C33.8,83.6,34.3,83.3,35.2,82.9z M25,67.2c0.3-1.9,0.7-3.7,1.2-6.5
	C23.9,63.2,23.5,65,25,67.2z M31.9,66c0,1.4,0,2.5,0,3.7c0,0.2,0.5,0.6,0.6,0.6c0.4-0.2,0.8-0.4,0.9-0.8C33.7,68.3,33.8,67,31.9,66z
	 M12,57.5c-0.2,0-0.4,0.1-0.6,0.1c0,0.9-0.1,1.8,0,2.7c0.1,0.5,0.7,0.9,1,1.3c0.2-0.5,0.6-1.1,0.5-1.6C12.9,59.1,12.3,58.3,12,57.5z
	 M30,75.2c-0.4-0.6-0.7-1-0.9-1.4c-0.4,0.4-0.9,0.7-1.1,1.2c-0.1,0.3,0.4,0.7,0.6,1.1C29,75.8,29.5,75.5,30,75.2z M18.3,68.9
	c-0.5-0.4-0.9-0.7-1.2-0.9c-0.3,0.5-0.7,0.9-0.8,1.4c0,0.2,0.5,0.6,0.8,0.8C17.5,69.9,17.9,69.5,18.3,68.9z M15.4,64.1
	c0.2,0,0.3-0.1,0.5-0.1c0-1.4,0-2.9,0-4.3c-0.2,0-0.3,0-0.5,0C15.4,61.1,15.4,62.6,15.4,64.1z M14.3,67.5c-0.3-0.1-0.9-0.5-1.1-0.4
	c-0.4,0.3-0.8,0.9-0.8,1.4c-0.1,0.5,0.3,1,0.4,1.5C13.2,69.3,13.6,68.7,14.3,67.5z M9.4,61.8c-0.2-0.1-0.4-0.2-0.5-0.3
	c-0.2,0.7-0.6,1.4-0.7,2.1c-0.1,0.5,0.2,1,0.4,1.6c0.3-0.4,0.8-0.7,0.9-1.1C9.5,63.3,9.4,62.5,9.4,61.8z M32.5,60.7
	c-0.2,0-0.4,0.1-0.6,0.1c0.1,1.1,0.1,2.1,0.2,3.2c0.1,0,0.3,0,0.4,0C32.5,62.9,32.5,61.8,32.5,60.7z M20.7,66.3
	c-0.4-0.4-0.6-0.6-0.8-0.9c-0.2,0.6-0.5,1.2-0.7,1.9c-0.1,0.2,0.2,0.5,0.3,0.8C19.9,67.5,20.3,66.9,20.7,66.3z M12,65
	c-0.4-0.6-0.7-1-1.1-1.5c-0.2,0.5-0.5,1-0.5,1.4c0,0.4,0.5,0.8,0.8,1.2C11.5,65.8,11.7,65.4,12,65z M10.6,55.4
	c0.2-0.1,0.3-0.1,0.5-0.2c0-1.1,0-2.2,0-3.3c-0.2,0-0.3,0-0.5,0C10.6,53.1,10.6,54.2,10.6,55.4z M36.1,73.9c0.1-0.1,0.3-0.2,0.3-0.3
	c0-0.8-0.1-1.5-0.1-2.3c0,0-0.2,0-0.3-0.1c-0.1,0.7-0.1,1.5-0.2,2.2C35.8,73.7,36,73.8,36.1,73.9z M147.1,14.2
	c-0.4-0.4-0.8-0.9-1.2-1.3c-0.1,0.3-0.4,0.6-0.3,0.8c0.2,0.4,0.5,0.7,0.8,1.1C146.5,14.6,146.7,14.5,147.1,14.2z M36.6,77.8
	c-0.2-0.3-0.4-0.5-0.5-0.7c-0.1,0.3-0.3,0.6-0.3,0.9c0,0.3,0.2,0.6,0.3,0.9C36.2,78.4,36.4,78.1,36.6,77.8z M17.8,59.5
	c0.1-0.6,0.2-1.1,0.2-1.5c0-0.1-0.2-0.2-0.3-0.4c-0.2,0.4-0.4,0.7-0.4,1.1C17.3,58.9,17.6,59.1,17.8,59.5z M14.6,70.3
	c0,0.1-0.1,0.3-0.1,0.4c0.2,0,0.4,0,0.6,0.1c0-0.1,0-0.3-0.1-0.4C14.9,70.3,14.7,70.3,14.6,70.3z M25.4,70c0.1-0.1,0.3-0.1,0.3-0.2
	c0-0.1,0-0.3,0-0.5c-0.2,0.1-0.4,0.2-0.5,0.3C25.2,69.7,25.3,69.9,25.4,70z M9.2,54c-0.1-0.1-0.2-0.3-0.2-0.4
	c-0.1,0.1-0.3,0.3-0.3,0.3c0.1,0.2,0.3,0.3,0.4,0.5C9.1,54.3,9.2,54.2,9.2,54z M8.3,67.5c-0.1-0.1-0.2-0.2-0.3-0.3
	c-0.1,0.2-0.3,0.5-0.3,0.7c0,0.1,0.2,0.2,0.3,0.3C8,68,8.2,67.8,8.3,67.5z M28.3,77.9c0.2,0.1,0.5,0.3,0.7,0.3
	c0.1,0,0.3-0.2,0.3-0.3c0-0.1-0.2-0.3-0.2-0.3C28.8,77.7,28.5,77.8,28.3,77.9z M183.7,158.3c0,0.1,0,0.2,0.1,0.3
	c0.1,0.1,0.3,0.1,0.4,0.1c0-0.2-0.1-0.3-0.1-0.5C183.9,158.2,183.8,158.2,183.7,158.3z M18.6,72c0.2,0.1,0.5,0.3,0.7,0.3
	c0.1,0,0.2-0.2,0.3-0.3c-0.2-0.1-0.5-0.3-0.7-0.3C18.8,71.7,18.7,71.9,18.6,72z M26.6,72.4c-0.1-0.1-0.2-0.2-0.3-0.3
	c-0.1,0.2-0.2,0.5-0.3,0.7c0,0.1,0.2,0.2,0.3,0.3C26.4,72.8,26.5,72.6,26.6,72.4z"/>
<path d="M-427.3,121.8c0.6-0.9,1.2-1.8,2.3-3.3c-2.1,0.6-3.6,0.9-5.1,1.4c-0.8,0.3-1.4,1.7-2.3,0.5c-0.3-0.4,0.3-1.5,0.4-2.3
	c0.3-0.3,0.6-0.7,1-1c0.6-0.3,1.3-0.6,1.9-1c0.4-0.1,0.8-0.2,1.3-0.3c-0.1-0.2-0.2-0.3-0.3-0.5c-0.3,0.3-0.6,0.5-0.9,0.8
	c-0.6,0.3-1.3,0.6-1.9,1c-0.3,0.3-0.7,0.6-1,1c-0.9-0.1-2.1-0.2-1.6-1.6c1.1-3,3.2-4.6,6.4-4.7c0.7,0,1.3-0.3,2-0.5
	c1.1,2.1,2.1,4.2,3.5,6.9c-1.1-6.7-1.4-7.3-4.5-11.3c0.4,1.8,0.8,3.2,1.1,4.5c-3-1.8-2.3-5.3-4.3-8.3c3.8,0.5,5.1,2.9,6.1,5.3
	c1.1,2.7,2.9,4.2,5.9,3.9c0.1,0.1,0.1,0.3,0.2,0.4c0.1,0.1,0.2,0.1,0.3,0.1c-0.2-0.2-0.3-0.3-0.5-0.5c-1.3-1.3-2.7-2.6-4-3.9
	c-0.3-0.3-0.4-0.8-0.6-1.2c0.5-0.2,1.1-0.7,1.6-0.6c1.4,0.3,2.7,0.9,4.1,1.2c0.2,0,0.5-0.9,0.8-1.3l0.1-0.1c1.9,0.9,2.3,2.5,2.8,4.5
	c-1.9-0.6-3.3-1.1-4.8-1.5c0-0.1-0.1-0.3-0.2-0.4c-0.1-0.1-0.2-0.1-0.3-0.1c0.2,0.2,0.3,0.3,0.5,0.5c0.4,0.5,0.6,1.1,1.1,1.6
	c1.6,1.5,3.5,1.9,4.1,0.8c0.9-1.4,0.9-3-0.2-4.4c-0.5-0.6-1.1-1.1-1.6-1.8c-0.8-1-1.6-1.9-2.4-2.9c0,0,0,0,0,0
	c1.1,0.5,2.3,0.9,3.9,1.6c-0.2-2-0.5-3.8-0.7-5.5c1.7,0.8,1.7,0.8,4.5,4.9c0,0,0,0,0,0c-0.1,1.2-0.6,2.5-0.4,3.7
	c0.2,0.9,0.5,3,2.3,1.2c0,0,0,0,0,0c0.5-0.4,1.4-0.9,1.3-1.1c-0.6-2.5,0.9-4,2.9-6.1c-0.2,1.9-0.3,3.1-0.4,4.3
	c-0.1,0.1-0.3,0.1-0.4,0.2c-0.1,0.1-0.1,0.2-0.1,0.3c0.2-0.2,0.3-0.3,0.5-0.5c2.6-1,2.7-2.8,1.8-5c-1-2.4-1.6-4.8,0.6-7.7
	c0.8,2,1.4,3.6,2.1,5.2c0.2,0.5,0.8,0.8,1.2,1.2c0.3-0.4,0.8-0.7,0.8-1.1c-0.2-6.5,2.7-12.9,0.5-19.5c-1.2-3.6,0-5.7,3.4-7.7
	c4.9-2.9,10.1-4.9,15.8-5.1c1.1,0,2.2-0.3,3.3-0.6c6.3-1.4,12.6-2.5,19-2.2c5.3,0.2,10.5,1.1,15.8,1.5c4.7,0.3,9.3,0.2,14,0.5
	c2.9,0.2,5.8,0.4,8.5,1.2c3.6,1.1,4.3,3.2,2.8,6.8c-0.1,0.1-0.1,0.3-0.2,0.4c-4.7,6.2-2.9,13.1-2.4,19.9c0.2,3.2,0.4,6.4,0.7,9.9
	c2.2-1.2,4.4-2.4,6.5-3.5c2.6-1.4,0-4.8,2.9-6.5c0.7,1.6,1.3,3.2,1.9,4.8c0.7,2.1,1,2.1,3.1,1.2c1.7-0.8,3.4-1.3,5.1-1.9
	c1.4,2.1-0.3,4.7,2.1,6.1c0.1,0-0.2,1-0.5,1.5c-0.4,0.5-1.1,0.7-1.4,1.3c-0.3,0.5-0.2,1.2-0.2,1.8c0.6,0,1.1-0.1,1.7-0.1
	c0.3,0,0.6-0.1,1-0.1c0,0.3,0,0.7,0,1c-0.3,0.3-0.6,0.6-1,1c-0.3,0.3-0.6,0.6-1,1c-0.3,0.3-0.6,0.6-1,1c-0.1,0.1-0.3,0.1-0.4,0.2
	c-0.1,0.1-0.1,0.2-0.1,0.3c0.2-0.2,0.3-0.3,0.5-0.5c0.3-0.3,0.6-0.6,1-1c0.3-0.3,0.6-0.6,1-1c0.3-0.3,0.6-0.6,1-1
	c0.8-0.3,0.7-0.6,0-0.9c0.3-0.9,0.6-1.8,0.7-2.7c0.4-2.2,1.1-2.5,2.6-0.7c0.4,0.5,1.4,0.6,2.3,1c-0.8,0.9-1.7,1.7-2.3,2.6
	c-0.5,0.7-0.6,1.5-0.9,2.3c0.8-0.2,1.5-0.3,2.3-0.5l0,0c0.3,0.6,0.7,1.3,1,1.9l0,0c0.1,1.7,1.1,2.1,2.6,1.9c1.8-0.2,2.5,0.3,1.1,2
	c-0.2,0.2-0.1,1.1,0,1.2c0.5,0.3,1.3,0.6,1.6,0.4c1.2-0.7,2.2-1.6,3.3-2.5c0.1-0.1,0.3-0.1,0.4-0.2c0.1-0.1,0.1-0.2,0.1-0.3
	c-0.2,0.2-0.3,0.3-0.5,0.5c-1.3,0-2.6-0.5-1.3-1.9c1-1,2.7-1.6,4.2-2c1.6-0.3,2.6,0.8,3.5,2.7c-5.1-0.8-5.2,4.2-7.9,6.3
	c-0.1,0.1,0.2,1,0.5,1.1c0.3,0.1,1-0.2,1.2-0.5c2.4-4.6,7-5.4,11.3-6.6c0.4-0.1,1.2,0,1.3,0.2c0.5,1.9,1,3.8,1.4,5.8
	c0,0.1-0.6,0.5-0.7,0.4c-0.4-0.2-0.7-0.6-1.1-0.8c-1.1-0.8-2.5-2.3-3.4-2c-2.4,0.7-3.8,2.8-4.9,5c-0.2,0.3,0.5,1.1,0.7,1.6
	c0.1,0.4,0.3,1,0.2,1.2c-1,1.1-5,1.2-7,0.2c1.5-0.3,3.3,0.5,4.4-1.3c-2.2-2.3-5.4-1.3-7.9-2.4c-0.1-0.1-0.8,1-1.2,1.6
	c0.5,0.3,1,0.8,1.4,0.8c0.9-0.1,1.8-0.6,2.8-0.6c1.9,0,0.7,1.2,0.6,1.9c-1.3,0.6-2.6,1.3-3.9,1.9c0-0.3,0-0.6,0-1
	c0.1-0.1,0.3-0.1,0.4-0.2c0.1-0.1,0.1-0.2,0.1-0.3c-0.1,0.2-0.3,0.3-0.4,0.5c-0.6,0.3-1.3,0.6-1.9,1c-0.3,0.3-0.7,0.6-1,1
	c-2,0.3-3.1,1.2-2.5,4.1c1-1.8,1.8-2.9,2.5-4.1c0.3-0.3,0.6-0.7,1-1c0.6,0,1.3,0,1.9,0c0,0.5,0,1,0.1,1.4c0.1,1.6,0,3.3,0.6,4.7
	c0.2,0.4,2.4-0.1,4,0.6c-1.3,0.8-2.5,2.3-3.9,2.4c-2.3,0.2-3.6,1.9-5.5,2.6c-0.4,0.1-0.5,1-0.7,1.5c0.6,0.2,1.5,0.8,1.9,0.6
	c1.6-0.8,3-1.8,4.5-2.8c0.7-0.4,1.3-0.9,2.2-1.1c-0.3,2-1.8,2.9-3.4,3.8c-3.2,1.8-3.2,1.8-1.9,5.2c0.2,0.4,0.2,0.9,0.2,1.4
	c-0.7-0.3-1.3-0.6-2-1c-0.3-0.6-0.6-1.3-1-1.9c-0.1-0.4-0.2-0.8-0.3-1.3c-0.2,0.1-0.3,0.2-0.5,0.3c0.3,0.3,0.5,0.6,0.8,0.9
	c0.3,0.6,0.6,1.3,1,1.9c0,1.4-0.3,3,1.9,2.9c0,0.1,0.1,0.3,0.2,0.4c0.1,0.1,0.2,0.1,0.3,0.1c-0.2-0.2-0.3-0.3-0.5-0.5
	c0-0.7,0-1.3,0-2c0.7,0.8,1.5,1.6,1.9,2.5c0.5,1.4-0.2,2.1-1.6,1.5c-3-1.1-5.9-2.1-8.8-3.5c-2.2-1-3.1-0.2-4.1,1.7
	c0-1.1,0-2.2,0-3.2c0.1-0.1,0.3-0.1,0.4-0.2c0.1-0.1,0.1-0.2,0.1-0.3c-0.2,0.2-0.3,0.3-0.5,0.5c-0.3,0-0.7,0-1,0l0,0
	c0-0.6,0-1.3,0-1.9l0,0c0-0.3,0-0.6,0-0.9l-0.1-0.1c0.3-1.3,0.7-2.6,1-3.9c0.3,0,0.7,0,1,0c0.3,0.3,0.6,0.5,0.9,0.8
	c0.1-0.2,0.2-0.3,0.3-0.5c-0.4-0.1-0.9-0.2-1.3-0.3c0-0.3,0-0.7,0-1c0.1-0.1,0.3-0.1,0.4-0.2c0.1-0.1,0.1-0.2,0.1-0.3
	c-0.2,0.2-0.3,0.3-0.5,0.5c-0.3,0.3-0.7,0.6-1,1c-3.4,1.9-3.4,2-2,4.8l0,0c-0.1,0.3-0.2,0.6-0.4,0.8c-0.6,1.2-1.1,2.2-2.3,0.4
	c-0.2-0.3-0.8-0.2-1.3-0.3l0,0c0.3-0.7,0.6-1.3,1-2c0.1,0.1,0.1,0.3,0.2,0.4c0.1,0.1,0.2,0.1,0.3,0.1c-0.2-0.2-0.3-0.3-0.5-0.5
	c0.3-2.3,0.6-4.5,1-6.8c0.1,0,0.3-0.1,0.4-0.2c0.1-0.1,0.1-0.2,0.1-0.3c-0.2,0.2-0.3,0.3-0.5,0.5c-0.6,1.4-1.6,2.8-1.8,4.3
	c-0.4,3.5-3.6,3.1-5.5,4.5c-0.3-0.4-0.9-0.9-0.8-1.2c0.7-1.6,1.5-3.1,2.3-4.6c0.3-0.3,0.6-0.7,1-1c0.3-0.3,0.6-0.6,1-1
	c0.3-0.3,0.6-0.6,1-1c0.3-0.3,0.6-0.7,1-1c0.1-0.1,0.3-0.1,0.4-0.2c0.1-0.1,0.1-0.2,0.1-0.3c-0.2,0.2-0.3,0.3-0.5,0.5
	c-0.3,0.3-0.6,0.6-1,1c-0.3,0.3-0.6,0.6-1,1c-0.3,0.3-0.6,0.6-1,1c-0.3,0.3-0.7,0.6-1,1c-1,0.5-1.9,1.1-2.9,1.5
	c-0.4,0.1-1.3-0.3-1.3-0.3c0.7-3.7-2.8-1.4-3.9-3.9c-0.5,2.8-0.7,4.5-1,6.2c-2-0.8-1.5-2.5-1.6-3.9c-0.1-1.8-0.4-3.1-2.5-3.5
	c-1.1-0.2-1.1-0.5,0.6-2l0.1,0.1c2.7,1.7,2.8,1.7,3.9-0.3c1-1.8,1.9-3.7,2.9-5.6c0.2-0.3,0.8-0.6,1.1-0.6c0.3,0.1,0.7,0.7,0.7,1.1
	c-0.1,0.9-0.3,1.9-0.6,2.8c-0.5,1.3-1.4,2.6-1.8,3.9c-0.6,1.7,1.1,1.7,2,2.1c1.1,0.5,1.4-0.4,1.4-1.3c0.1-1.8,0-3.6,0.1-5.3
	c0-0.5,0.6-1.3,1-1.4c0.5,0,1.3,0.5,1.5,0.9c0.7,1.6,1.2,3.3,1.8,5.1c1-0.6,2-1.1,2.8-1.8c2-1.9,1.7-2.9-0.8-4.2
	c-2.7-1.4-5.6-2.6-7.8-4.6c-1.6-1.5-2.2-1.2-3.4,0c-0.6,0.5-1.3,0.9-1.9,1.4l0,0c-0.3-0.8-0.7-0.8-1,0l0,0c-2.7,0.2-4.1,2-4.5,4.3
	c-0.4,2.1,1.1,0.3,1.6,0.5l0,0c-1.1,2.4-2.3,4.7-3.4,7.1c-0.1,0-0.3,0-0.4,0c0.6-4.1,1.1-8.2,1.7-12.3c-3,4.3-1.8,9.7-4.6,14.1
	c0.3-3,0.6-6,0.8-8.9c0.1,0,0.3-0.1,0.4-0.1c0.1-0.1,0.1-0.2,0.1-0.3c-0.2,0.2-0.3,0.3-0.5,0.5c-0.7,1.4-1.3,2.8-2,4.2
	c-0.4,0.8-0.8,1.5-2,2.1c0-4,0-8.1,0-12.1c2.1,1.7,0.3,4.2,1.6,6.7c1.2-2.5,2.3-4.6,3.3-6.7c0.3-0.3,0.7-0.6,1-1
	c0.3-0.3,0.6-0.6,1-1c0.1-0.1,0.3-0.1,0.4-0.2c0.1-0.1,0.1-0.2,0.1-0.3c-0.2,0.2-0.3,0.3-0.5,0.5c-0.3,0.3-0.6,0.6-1,1
	c-0.3,0.3-0.6,0.7-1,1c-0.3,0-0.6,0-1,0l-0.1-0.1c-0.4-1.2-0.8-2.3-1.6-4.5c-1.1,2.2-1.6,3.4-2.2,4.5c-2.2,1.8-2.1,4.2-1.8,6.6
	c0.1,0.8,0.6,1.6,0.6,2.3c-0.3,5.3-0.3,5.3,1.7,9.4c1.6,3.3,3.2,6.6,4.9,9.9c0.9,1.8,0,3.6-1.9,3.2c-2.3-0.4-4.9,0-6.8-2
	c-0.7-0.7-2.3-2-2.6,0.6c0,0.1-0.6,0.4-0.7,0.3c-0.4-0.3-0.9-0.8-0.9-1c0.3-1.7,0.7-3.4,1.2-5.1c0.3-1.2,1.2-2.4,1.1-3.6
	c0-1.6-1.1,0-1.7-0.2l0,0c0.8-1.3,1.6-2.6,2.3-4c0.9-1.6-0.4-2.3-1.3-3.1c-0.9-0.9-1.7-0.3-2.4,0.4c-1.5,1.6-3,3.2-4.5,4.7
	c-0.3-0.8-0.6-0.9-0.9,0c-0.3,0-0.7,0-1,0c0.3-2.9,2.6-4.4,4.7-5.7c2.1-1.3,2.4-2.7,1.3-4.7c-0.3-0.5-0.3-1.2-0.5-1.8
	c-0.5-1.2-1.6-1.3-2.1-0.2c-1.8,3.9-3.7,7.7-5.1,11.8c-0.6,1.9,1.1,0.5,1.7,0.6c0.3,0.8,0.6,0.9,0.9,0c0.3,0,0.7,0,1,0
	c-0.3,1.5-0.6,2.8,1,3.9c0.9,0.7,1.3,1.9,2,2.9c-0.1,0.1-0.3,0.1-0.4,0.2c-0.1,0.1-0.1,0.2-0.1,0.3c0.1-0.2,0.3-0.3,0.4-0.5
	c0.3,0,0.7,0,1,0c0,0,0,0,0,0c0,0.8,0.2,1.6,0,2.3c-0.3,1.9-0.8,2.3-2.7,1.3c-1.3-0.7-1.9-0.3-2.9,0.4c-1,0.7-2.1,1.2-3.1,1.8l0,0
	c1.1-1.8,2.4-3.4,4.6-4c0.2-0.1,0.4-0.6,0.5-0.9c-0.4-0.1-1-0.5-1.2-0.3c-1.9,1.4-3.8,2.9-5.7,4.3c0,0-0.2-0.2-0.2-0.2
	c0.4-1.3,0.7-2.5,1.1-3.8l0,0c0.3-0.7,0.6-1.3,1-2c0.3-0.3,0.6-0.7,1-1c0.3,0,0.7,0,1,0c0.1,0.4,0.2,0.9,0.3,1.3
	c0.2-0.1,0.3-0.2,0.5-0.3c-0.3-0.3-0.5-0.6-0.8-0.9c0-0.7,0-1.3,0-2c0.1-0.1,0.3-0.1,0.4-0.2c0.1-0.1,0.1-0.2,0.1-0.3
	c-0.2,0.2-0.3,0.3-0.5,0.5c-0.3,0.6-0.6,1.3-1,1.9c-0.3,0.3-0.7,0.6-1,1c-0.3,0-0.7,0-1,0c0,0,0,0,0,0c0-1.6-0.1-3.2,0-4.8
	c0.3-3.4-1-5.5-4.4-6.4c-0.1,0.5-0.2,1-0.4,1.3c-0.3,0.6-0.8,1.1-1.2,1.7c-0.2-0.7-0.8-1.5-0.5-2c1-2.2,0.7-5.2,3.6-6.4
	c0,0.3,0,0.7,0,1c-0.2,0.8-0.8,1.9-0.5,2.2c0.8,0.9,1.9,2,3,2.2c2,0.5,1.1-1.9,1.9-2.6c0.6-0.5,1-1.2,1.4-1.8c0.3,0.8,0.6,0.8,0.9,0
	c0.1-0.1,0.3-0.1,0.4-0.2c0.1-0.1,0.1-0.2,0.1-0.3c-0.1,0.2-0.3,0.3-0.4,0.5c-0.3,0-0.7,0-1,0c0.2-2.4,1.7-4,3.2-5.7
	c2.2-2.5,2.2-3.1-0.3-6.6c-1.7,2.3-3.2,4.5-4.8,6.6c-1.2,1.6-2.6,3.1-3.8,4.7c0.3-1.3,0.6-2.6,0.9-3.9c0.3-0.3,0.6-0.6,1-1
	c0.1-0.1,0.3-0.1,0.4-0.2c0.1-0.1,0.1-0.2,0.1-0.3c-0.2,0.2-0.3,0.4-0.5,0.5c-0.3,0.3-0.6,0.6-1,1c-2.8,1.6-4,4.5-5.5,7.2
	c-0.7,1.2-1.1,2-2.4,0.5c-1-1.2-1.6-0.4-1.8,0.8c-0.2,1.2,0.4,3.1-1.4,3c-2.2,0-1.4-2.1-1.5-3.4c-0.1-1.1,0-2.2-0.6-3.4
	c-0.2,1.9-0.4,3.8-0.7,5.8c-3.5-2.3-3.5-2.3-2.6-4.6c0,0.1,0.1,0.3,0.2,0.4c0.1,0.1,0.2,0.1,0.3,0.1c-0.2-0.2-0.3-0.3-0.5-0.5
	c-0.6-1.4-1.2-2.2-2.7-0.8c-0.5,0.5-1.4,0.5-2.1,0.8l0,0c0.3-0.6,0.6-1.1,0.9-1.7c1-2,1-2-0.9-3.8c-0.2-0.2-0.5-0.2-0.8-0.3
	c0.3,1.3-2,2.5-0.1,3.9l0,0c0,0.7,0,1.3,0,2c0,0,0,0,0,0c-0.3,0.7-0.7,1.3-1,2l0,0c-0.6-0.2-2.1,1.1-1.6-0.2
	c1.6-4.5-1.5-8.5-0.2-13.2c-2,1.7,0.1,4.5-2.6,5c0.2-1.7,0.2-3.4,0.5-5.1c0.6-3.3,1.3-6.6,1.9-9.9c0.3-0.3,0.5-0.6,0.8-0.9
	c-0.2-0.1-0.3-0.2-0.5-0.3c-0.1,0.4-0.2,0.9-0.3,1.3c-1.3,3.9-2.6,7.8-3.9,11.6c-0.4,1.1-0.5,2.2-1.1,3.1c-0.5,0.8-0.3,2.5-2.1,2
	c-1.2-0.4-1.8-1.2-1.8-2.5c0-0.6-0.1-1.3-0.2-3.1c-0.5,2-0.7,2.9-1.1,4.5c-0.8-1.9-1.4-3.2-1.9-4.5c-0.4,0.7-0.7,1.3-1.2,2.2
	c-1.1-4.3,1.8-7.7,1.7-11.5l0,0c0.3-0.7,0.6-1.3,1-2c0.1-0.1,0.3-0.1,0.4-0.2c0.1-0.1,0.1-0.2,0.1-0.3c-0.2,0.2-0.3,0.3-0.5,0.5
	c-0.3,0-0.7,0-1,0l0,0c0-1,0-1.9,0-2.9c0.3-0.3,0.5-0.6,0.8-0.9c-0.2-0.1-0.3-0.2-0.5-0.3c-0.1,0.4-0.2,0.8-0.2,1.3
	c-0.8,0-1.1-2.9-2.5-0.1c-2.5,5.2-2.8,5.5-1.8,9.7c1-1.5,2.1-3.1,3.2-4.8c0,0,0,0,0,0c-1.4,3.9-2.7,7.8-4.1,11.7
	c-0.2,0.5-1.9-1.1-1.7,0.9c0.1,1.1-0.1,2.1-0.8,3.2c-0.1-2.5-0.2-5-0.3-7.6c-0.2-0.1-0.5-0.1-0.7-0.2c-0.5,1.3-1.1,2.5-1.9,4.6
	c-0.7-4.2-1.2-7.8-1.8-11.3c-0.3,0-0.5,0.1-0.8,0.1c0.4,3.5,0.8,6.9,1.1,10.4c0,0.5-0.5,1-0.7,1.4c-0.6-0.4-1.6-0.8-1.6-1.2
	c-0.1-1,0.3-2,0.6-3.4c-2.2,1.3-1.6,3.1-1.8,4.6c-0.1,0.6-0.8,1.1-1.2,1.7c-0.3-0.7-0.5-1.4-0.8-2.1c0-0.1,0-0.3,0-0.5
	c0.3-0.3,0.5-0.6,0.8-1c-0.2-0.1-0.3-0.2-0.5-0.3c-0.1,0.4-0.2,0.9-0.3,1.3c-0.5,0.5-1.1,1-2.3,2.1c0.9-3.1,1.6-5.5,2.2-7.8
	c0.4-1.3,0.7-2.7,1.1-4l0,0c0.3-0.3,0.7-0.7,1-1l0,0c0.3-0.7,0.6-1.3,1-2c0.3-0.3,0.6-0.6,1-1c0.1-0.1,0.3-0.1,0.4-0.2
	c0.1-0.1,0.1-0.2,0.1-0.3c-0.1,0.2-0.3,0.3-0.4,0.5c-0.3,0-0.7,0-1,0c0.3-1.9,0.6-3.9,1-5.8c1.9,3,4.3,0.1,6.7,0.3
	c-1.5,1.9-2.8,3.5-4,5.1c-1.1,1.6-0.4,2.6,1.2,3.3c0,0.7,0,1.3,0,2c-0.3,0.3-0.5,0.6-0.8,1c0.2,0.1,0.3,0.2,0.5,0.3
	c0.1-0.4,0.2-0.9,0.3-1.3c1-0.6,1.9-1.3,2.9-1.9c0,0.7,0,1.3,0,2c-0.9,0.5-2,0.9-1.5,2.3c0,0.1,0.3,0.3,0.4,0.2
	c1.6-0.4,1-1.6,1.1-2.6c1.1-0.6,1-1.3,0-1.9c0-0.6,0-1.3,0-1.9c0.3-0.6,0.6-1.3,1-1.9c0.9-0.3,0.8-0.6,0-0.9
	c0.5-3.5,4.1-4.6,5.6-7.8c1.1,1.9,1.9,3.2,2.7,4.6c1.6-1.5,3-2.9,4.5-4.3c0.2,2.2,2.2,3.3,3.5,4.8c0.2,0.2,0.5,0.2,0.8,0.3
	c3-4.4,3-4.4,5.1-5.5c-1.7,5.2-4.6,10.1-3.4,15.9c1-2.2,2-4.4,3-6.5c0.1-0.2,0.6-0.3,0.8-0.3c0.2,0.1,0.5,0.4,0.5,0.7
	c0,0.3,0,0.7-0.2,0.9c-1.1,1.5,0.5,4.2-2.3,4.9c0.4,2,0.6,4.1,1.1,6.1c0.1,0.3,1.1,0.5,1.6,0.7c0.1,0.4,0.2,0.8,0.3,1.2
	c0.2-0.1,0.3-0.2,0.5-0.3c-0.3-0.3-0.5-0.6-0.8-0.9c0.6-3.7,0.6-3.7,3.3-5.5c-0.5,1.8-1,3.2-1.1,4.5c-0.1,1.1,0.3,2.2,0.5,3.3
	c0.4-1,1-1.9,1.1-2.9c0.2-2.4,0.1-4.8,0.1-7.2c1.2-0.6,1.2-1.3,0-1.9c-0.2-0.4-0.4-0.9-0.6-1.3c-0.1,0.4-0.2,0.9-0.3,1.3
	c-0.5-1-1-1.9-1.3-2.9c-0.1-0.2,0.7-1,1-0.9c0.6,0.1,1.4,0.4,1.6,0.9c1.1,2.3,2,1.1,3-0.1c0.5-0.6,1.1-1.2,1.7-1.8
	c-0.7,2.8-1.6,5.3-0.7,8c1.5-0.8,3-1.6,4.5-2.3c0,0.3,0,0.7,0,1c-0.3,0.3-0.6,0.6-1,1c-0.3,0.3-0.6,0.6-1,1
	c-2.1,1.4-4.1,2.9-3.9,5.8c-0.3,0.5-0.6,1-0.8,1.6c-0.1,0.2,0.2,0.5,0.4,0.7c0.1-0.3,0.3-0.6,0.3-0.9c0.1-0.5,0.1-1,0.1-1.4
	c0.7-0.3,1.3-0.6,2-1c0.3,1,0.7,1.9,1,2.9c-0.3,0.7-0.5,1.4-0.8,2.1c0.7-0.3,1.5-0.5,2-0.9c0.7-0.6,1.1-1.4,1.7-2.1
	c0.3-0.3,0.6-0.7,1-1c0.8-0.3,0.8-0.6,0-0.9c2-1.9,4.8-3.2,5.3-6.4c0.1-0.5,0.8-1.1,1.3-1.1c0.4,0,0.9,0.7,1.2,1.1
	c0.5,1,0.8,2,1.1,2.9c2.9-1.6,5.7-3,8.4-4.7c1.7-1,3.4-2.3,5-3.5c0.1-0.1,0.3-0.1,0.4-0.2c0.1-0.1,0.1-0.2,0.1-0.3
	c-0.2,0.2-0.3,0.4-0.5,0.5c-1.6-1-1-2.5-0.9-3.9c0-0.2,0.4-0.5,0.7-0.6c0.2,0,0.8,0.1,0.8,0.3c0.7,2.7,2.2,3.8,5,2.9
	c0.3-0.1,0.8,0.2,1,0.5c0.1,0.1-0.1,0.6-0.3,0.8c-0.3,0.4-0.7,0.7-1,1c-0.9,1-2.9,1.1-2,3.2c1.2-0.6,2.5-1.2,3.6-1.9
	c0.6-0.4,1.1-1.2,1.6-1.8c0.5-0.7,1-1.4,1.4-2.1c0.5,0.8,1.2,1.5,1.6,2.3c0.6,1.3,1.1,2.6,1.6,3.9c0.3,0,0.5,0.1,0.6,0.1
	c1.1-0.4,2.2-0.8,3.3-1.2c-0.1,1.2-0.2,2.4-0.2,3.6c0,0.4,0.1,0.8,0.1,1.3c1.5-0.6,2.9-1,4.2-1.6c0.4-0.2,0.9-1.1,0.8-1.4
	c-0.8-1.5-0.3-3.7-2.5-4.4c-0.3-0.8-0.6-0.8-0.9,0c-0.4-0.6-1.1-1.1-1.3-1.8c-0.1-0.4,0.1-1.3,0.5-1.5c0.4-0.2,1.3-0.1,1.6,0.2
	c1.8,2,3.4,4,5.1,6c-0.2,0.3-0.8,0.8-0.7,1c0.5,1.5,1.1,3,1.7,4.5c2.2-1.6-0.8-3-0.1-4.5c0.3-0.9,0.6-1.9,0.8-2.9
	c0.1-0.6-1-1.6,0.3-1.8c0.5-0.1,1.3,0.8,1.5,1.4c0.3,0.7,0.2,1.5,0.2,2.3c-0.8,1.9-0.8,1.9,0,4.1c0-1.4,0-2.7,0-4.1
	c0.7,0.6,1.3,1.3,2,1.9c0,0.3,0,0.7,0,1c-0.1,0.1-0.3,0.1-0.4,0.2c-0.1,0.1-0.1,0.2-0.1,0.3c0.1-0.2,0.3-0.3,0.4-0.5
	c0.3,0,0.7,0,1,0c0.3,0.6,0.6,1.3,1,1.9c-0.5,0.6-0.9,1.3-1.6,1.7c-2.3,1.4-1,1.8,0.6,2.2c0.9,2,2.3,2,3.9,1c0.3,0.3,0.7,0.6,1,1
	c0.1,0.7,0,1.9,1.1,1.2c1.4-0.8,2.5-2.1,3.7-3.1c0.3-0.3,0.6-0.6,1-1c0.8-0.3,0.9-0.6,0-0.9c0-0.3,0-0.7,0-1c0.3-0.3,0.6-0.6,1-1
	c0.1,0,0.3-0.1,0.4-0.1c0.1,0,0.1-0.2,0.1-0.3c-0.2,0.2-0.3,0.3-0.5,0.5c-0.3,0.3-0.6,0.6-1,1c-0.8,0.3-0.8,0.6,0,0.9
	c0,0.3,0,0.7,0,1c-0.3,0.3-0.6,0.6-1,1c-1.6,0.6-3.3,1.3-4.9,1.9c-0.3-0.3-0.6-0.7-1-1c-0.1-0.9-0.2-1.9-1.6-1.1
	c-0.6,0.3-1.5,0.1-2.3,0.2c0.6-0.8,1.3-1.7,1.9-2.5c1.2-1.6-0.3-1.2-1-1.4c0.2-0.8,0.4-1.6,0.6-2.4c-0.5,0.1-1.1,0.3-1.6,0.4
	c-0.3-0.3-0.6-0.6-1-1c0.4-0.9,0.6-1.8,1.2-2.6c1.1-1.3,0.5-2-0.8-2.5c-2.4-1-4.7-2.1-7.1-3.1c-3.6-1.4-4.6-4.2-4.3-7.7
	c0.1-1.9,0.4-3.9,0.1-5.8c-0.9-6.4-1.6-12.7-1.7-19.2c0-1.4,0.3-2.3,1.4-3.3c1.1-1.1,1.9-2.6,2.4-4.1c0.4-1.2-0.1-2.3-1.7-2.1
	c-3.6,0.5-7.5,0.5-10.8,1.9c-5.3,2.2-10.8,2-16.1,2.3c-8.4,0.3-16.8-0.1-25.2-0.3c-3.7-0.1-7.4,0.3-11,1.5c-0.8,0.2-1.8,0.8-2.3,0.5
	c-3.9-2.2-7.5,0.8-11.2,0.6c-0.3,0-0.9,0.7-1,1.1c-0.1,0.9-0.2,2,0.1,2.9c1.2,2.9,0.5,5.6,0.1,8.5c-0.3,2.5-2.2,5-0.6,7.9
	c0.9-0.8,1.6-1.5,2.3-2c0.3-0.2,1-0.3,1.3-0.1c0.2,0.1,0.4,0.9,0.2,1.2c-1.2,1.7-2.5,3.4-3.9,4.9c-2.7,2.8-5.5,5.4-8.2,8.1
	c-6.5,3.8-13,7.5-19.5,11.3c-1.5,0.9-3.1,1.7-4.6,2.5C-427,122.1-427.2,121.9-427.3,121.8z M-331.1,120.1c0.1-0.1,0.3-0.1,0.4-0.2
	c0.1-0.1,0.1-0.2,0.1-0.3C-330.8,119.8-330.9,119.9-331.1,120.1c-0.3,0.4-0.6,0.7-0.9,1c-0.3,0.3-0.6,0.6-1,1
	c-1.4,0.5-1.9,1.5-1.9,2.9c-0.3,0.6-0.6,1.3-1,1.9c-0.3,0.6-0.6,1.3-1,1.9c-0.3,0.3-0.5,0.6-0.8,0.9c0.2,0.1,0.3,0.2,0.5,0.3
	c0.1-0.4,0.2-0.8,0.3-1.3c0.3,0,0.7,0,1,0c0,0.5,0,0.9,0.1,1.4c0.1,0.3,0.4,0.6,0.5,0.9c0.1-0.3,0.4-0.6,0.3-0.8
	c-0.2-0.5-0.6-1-0.9-1.4c0-0.7,0-1.3,0-2c0.3-0.6,0.7-1.3,1-1.9c1.4-0.5,2-1.5,1.9-2.9c0.3-0.3,0.6-0.6,1-1
	C-331.7,120.7-331.4,120.4-331.1,120.1z M-274.8,119.1c0.1,0,0.3-0.1,0.4-0.1c0.1-0.1,0.1-0.2,0.1-0.3
	C-274.5,118.8-274.6,119-274.8,119.1c-0.3,0.4-0.6,0.7-0.9,1c-0.3,0.3-0.5,0.6-0.8,1c0.2,0.1,0.3,0.2,0.5,0.3
	c0.1-0.4,0.2-0.9,0.2-1.3C-275.5,119.7-275.1,119.4-274.8,119.1z M-287.4,118.1c0.1-0.1,0.3-0.1,0.4-0.2c0.1-0.1,0.1-0.2,0.1-0.3
	C-287.1,117.8-287.2,118-287.4,118.1c-0.1,0.1-0.2,0.1-0.4,0.2c-0.1,0.1-0.1,0.2-0.1,0.3C-287.7,118.4-287.6,118.3-287.4,118.1z
	 M-298.1,124.9c0.3-0.3,0.6-0.6,1-1c0.1-0.1,0.3-0.1,0.4-0.2c0.1-0.1,0.1-0.2,0.1-0.3c-0.2,0.2-0.3,0.3-0.5,0.5
	C-297.4,124.3-297.7,124.6-298.1,124.9c-0.1,0.1-0.2,0.1-0.3,0.2c-0.1,0.1-0.1,0.2-0.1,0.3C-298.4,125.2-298.2,125.1-298.1,124.9z
	 M-304.9,100.7c-0.1-0.1-0.1-0.3-0.2-0.4c-0.1-0.1-0.2-0.1-0.3-0.1C-305.2,100.4-305,100.5-304.9,100.7c0.4,0.3,0.7,0.6,1,0.9
	c0.1,0.1,0.1,0.3,0.2,0.3c0.1,0.1,0.2,0.1,0.3,0.1c-0.2-0.1-0.3-0.3-0.5-0.4C-304.2,101.3-304.6,101-304.9,100.7z M-298.1,101.7
	c-0.3,0.3-0.6,0.6-1,1c-0.1,0.1-0.3,0.1-0.4,0.2c-0.1,0.1-0.1,0.2-0.1,0.3c0.2-0.2,0.3-0.4,0.5-0.5
	C-298.7,102.3-298.4,102-298.1,101.7c0.1-0.1,0.2-0.1,0.3-0.2c0.1-0.1,0.1-0.2,0.1-0.3C-297.8,101.3-297.9,101.5-298.1,101.7z
	 M-301,116.2c0.1-0.1,0.3-0.1,0.4-0.2c0.1-0.1,0.1-0.2,0.1-0.3C-300.7,115.9-300.8,116-301,116.2c-0.1,0.1-0.3,0.1-0.4,0.2
	c-0.1,0.1-0.1,0.2-0.1,0.3C-301.3,116.5-301.2,116.3-301,116.2z M-334.9,116.2c0.1-0.1,0.3-0.1,0.4-0.2c0.1-0.1,0.1-0.2,0.1-0.3
	C-334.6,115.9-334.8,116-334.9,116.2c-0.3,0.3-0.6,0.7-1,1c-4.8,1.9-5.4,2.7-5.2,6.3c1.8-2.2,3.5-4.3,5.2-6.4
	C-335.6,116.8-335.3,116.5-334.9,116.2z M-299.1,112.3c0.3-0.3,0.5-0.6,0.8-0.9c-0.2-0.1-0.3-0.2-0.5-0.3
	C-298.8,111.5-298.9,111.9-299.1,112.3c-0.1,0.1-0.2,0.1-0.4,0.2c-0.1,0.1-0.1,0.2-0.1,0.3C-299.4,112.6-299.2,112.5-299.1,112.3z
	 M-430,114.2c0.4-0.1,0.9-0.2,1.3-0.3c-0.1-0.2-0.2-0.3-0.3-0.5C-429.3,113.7-429.7,114-430,114.2c-0.1,0.1-0.3,0.1-0.4,0.2
	c-0.1,0.1-0.1,0.2-0.1,0.3C-430.3,114.6-430.2,114.4-430,114.2z M-297.1,118.2c-0.6,0.3-1.3,0.6-1.9,1c-0.1,0.1-0.3,0.1-0.4,0.2
	c-0.1,0.1-0.1,0.2-0.1,0.3c0.1-0.2,0.3-0.3,0.4-0.5C-298.4,118.8-297.8,118.4-297.1,118.2c0.8-0.3,0.8-0.7,0-1
	c0.8-0.4,1.6-0.9,2.4-1.3c1.4-0.7,1.6-1.9,1.4-3.2c0-0.2-0.6-0.5-0.7-0.4c-1.5,0.9-3.1,1.7-4.3,3c-1.3,1.4,0,1.8,1.3,1.9
	C-297.1,117.5-297.1,117.8-297.1,118.2z M-300,100.7c-0.3,0-0.7,0-0.9,0.1c-0.3,0.2-0.4,0.7-0.7,1c0.4-0.1,0.8-0.2,1.1-0.4
	C-300.3,101.3-300.2,101-300,100.7c0.1-0.1,0.3-0.1,0.4-0.2c0.1-0.1,0.1-0.2,0.1-0.3C-299.7,100.4-299.9,100.5-300,100.7z
	 M-303.9,107.5c-0.3,0.4-0.7,0.7-0.7,1.1c-0.1,0.4,0.2,0.8,0.3,1.2c0.1-0.3,0.3-0.6,0.3-0.9C-303.9,108.4-303.9,107.9-303.9,107.5
	c0.2-0.4,0.5-0.7,0.7-1c-0.2-0.1-0.3-0.2-0.5-0.3C-303.7,106.6-303.8,107.1-303.9,107.5z M-399.9,98.8c-0.1-0.4-0.2-0.9-0.3-1.3
	c-0.2,0.1-0.3,0.2-0.5,0.3C-400.5,98.1-400.2,98.4-399.9,98.8c0,0.4,0,0.9,0.1,1.4c0.1,0.3,0.4,0.6,0.6,0.9c0.1-0.3,0.4-0.6,0.3-0.8
	C-399.3,99.7-399.6,99.2-399.9,98.8z M-335,121c0.3-0.5,0.7-0.9,0.9-1.4c0.1-0.2-0.2-0.5-0.3-0.8c-0.2,0.3-0.5,0.6-0.6,0.9
	C-335,120.1-334.9,120.6-335,121c-0.1,0.1-0.3,0.1-0.4,0.2c-0.1,0.1-0.1,0.2-0.1,0.3C-335.3,121.4-335.1,121.2-335,121z
	 M-351.4,69.6c0,0.3,0,0.7,0,1c-2,0-4.1,0-6.1,0c2.1,0.6,4.2,1.6,6.1,0c0.5,0,0.9,0,1.4,0c0.3,0,0.6-0.2,0.8-0.3
	c-0.3-0.2-0.5-0.5-0.8-0.6C-350.5,69.6-351,69.7-351.4,69.6c-1.3-1.5-2.8-0.9-4.2,0C-354.2,69.6-352.8,69.6-351.4,69.6z
	 M-380.5,110.4c-0.3-0.7-0.6-0.9-0.9,0c-0.5-0.8-1.1-1.6-1.6-2.5c-2.9,3.4-4.2,6.9-3.2,11.2c0.1,0.6,0.5,1.1,0.7,1.6
	c0.5-0.3,1.3-0.4,1.6-0.8c1.5-2.7,1.4,0.4,2.5,0.6c0-3.4,0-6.8,0-10.2C-381.2,110.4-380.8,110.4-380.5,110.4c0,1.4,0,2.8,0,4.2
	C-379.7,113.1-378.9,111.6-380.5,110.4z M-310.7,102.6c-2.5,0.3-3.8,1.6-3.8,4.8C-313,105.5-311.8,104.1-310.7,102.6
	c0.1-0.1,0.3-0.1,0.4-0.2c0.1-0.1,0.1-0.2,0.1-0.3C-310.4,102.3-310.5,102.5-310.7,102.6z M-298.1,134.6c-0.5-0.7-0.8-2-2-1.2
	c-0.9,0.6-1.2,1.5,0.1,2.2c-0.6,1.1-1.2,2.1-2.3,4c2.8-2,4.7-3.3,6.8-4.7C-296.6,134.8-297.3,134.7-298.1,134.6z M-300,123
	c2.2-1,4.3-2,6.5-3C-297.4,119.8-298.4,120.3-300,123c-0.1,0.1-0.3,0.1-0.4,0.2c-0.1,0.1-0.1,0.2-0.1,0.3
	C-300.4,123.3-300.2,123.1-300,123z M-295.2,130.8c-1.1,0.2-2.6,0.2-2.2,1.7c0.1,0.6,1.8,1.1,2.8,1.1c2-0.1,2.6-1.4,2.9-5.4
	c-0.9,1.4-1.3,2.9-2.4,3.8C-295.3,132.8-295,131.3-295.2,130.8c0.1-0.1,0.3-0.1,0.4-0.2c0.1-0.1,0.1-0.2,0.1-0.3
	C-294.8,130.4-295,130.6-295.2,130.8z M-309.7,108.5c-0.4,0.2-0.9,0.3-1.3,0.5c0-0.5-0.3-1.2,0-1.4c1-1,2.1-1.8,3.1-2.9
	c0.2-0.2,0-0.9-0.1-1.3c0-0.1-0.6-0.1-0.7,0c-1.8,1.5-4.4,3.2-4.1,5.5c0.3,1.9,3,2.5,5.2,2.5c1.2,1.2,2.5,2,4.3,1.1
	c-1.4-0.3-2.9-0.7-4.3-1c0.3-1.4,0.6-2.7,1-4.1c-0.9,0.7-1.2,1.9-1.8,2.3C-310,110.4-309.5,109-309.7,108.5c0.1-0.1,0.2-0.1,0.4-0.2
	c0.1-0.1,0.1-0.2,0.1-0.3C-309.4,108.1-309.6,108.3-309.7,108.5z M-334.5,141.9c-1.1,3.2-1.8,5.4-2.5,7.7c-0.2,0.5-0.2,1.5,0,1.7
	c2.2,1.3,4.3,2.6,6.7,3.5c1.1,0.5,2-0.9,1.5-2.1C-330.5,149.4-332.3,146.2-334.5,141.9z M-285.5,129.5c-0.3,0-0.5,0-0.8,0
	c0,0.9,0,1.8-0.2,2.7c0,0.3-0.5,0.5-0.7,0.8c-1.6-1.9-2.1,0.2-2.7,0.9c-0.7,1-1.2,1.8-2.6,1.7c-0.4,0-0.8,0.6-1.1,0.9
	c0.5,0.3,1.2,0.9,1.6,0.8c2-0.9,4.3-1.6,5.8-3.1C-285.2,133.4-285.6,131.1-285.5,129.5z M-355.6,126c-1.9,2.5-3.5,4.5-5,6.7
	c-0.2,0.2,0.3,1.1,0.6,1.5c0.2,0.2,1.1,0.2,1.2,0C-357.1,131.8-354.9,129.8-355.6,126z M-339.6,129.9c1.8-3,3.4-5.3,2.1-8.4
	C-338,124.2-341.8,125.7-339.6,129.9z M-290.6,111.9c-0.1,3.6-0.1,3.6-2.2,5.8c1.5,0.6,3,0.7,3.8-0.8
	C-287.6,114.7-289.7,113.5-290.6,111.9z M-290.9,147.8c0.1-0.2,0.3-0.4,0.4-0.6c-1.4-1.2-2.7-2.4-4.1-3.4c-0.3-0.2-1.3,0-1.7,0.3
	c-1,1.1,0.3,1.2,0.9,1.5C-293.9,146.4-292.4,147.1-290.9,147.8z M-383,70.8c0-0.4-0.1-0.8-0.1-1.2c-1.5,0.3-2.9,0.5-4.3,0.9
	c-0.3,0.1-0.6,0.8-0.5,1.2c0,0.2,0.8,0.6,1.1,0.5C-385.6,71.8-384.3,71.3-383,70.8z M-369.6,68.9c-2.4,0.7-4.9,1.4-7.8,2.2
	C-374.1,71.9-371.7,70.9-369.6,68.9z M-321,121.6c-1.6,0.4-2.5,1.3-2.2,2.8c0.1,0.3,0.4,0.6,0.7,0.9c0.7-1,1.5-1.9,2.1-2.9
	C-320.4,122.2-320.9,121.8-321,121.6z M-338.6,67.8c0-0.2,0.1-0.5,0.1-0.7c-2.4-0.4-4.9-0.8-7.3-1.2c0,0.3-0.1,0.6-0.1,0.8
	C-343.5,67.1-341,67.4-338.6,67.8z M-325.3,116c-0.4,0-0.7,0-1.1,0c0.3,1.6,0.6,3.1,1,4.7c0,0,0.4,0.1,0.4,0
	C-323.4,119-325.6,117.6-325.3,116z M-388.8,73.1c-0.8-0.7-1.3-1.2-1.5-1.2c-0.9,0.3-1.7,0.8-2.5,1.3c0.2,0.4,0.5,1,0.6,1
	C-391.2,74-390.3,73.6-388.8,73.1z M-352.1,121.6c-0.4,1.6-0.8,3.1-1.4,5.3C-350.8,125.2-351.5,123.4-352.1,121.6z M-405.8,123
	c0.4,0.2,0.8,0.5,1.2,0.7c0.5-1.3,1-2.7,1.4-4c0-0.1-0.2-0.2-0.3-0.3C-404.3,120.6-405.1,121.8-405.8,123z M-387.6,117.8
	c-0.1,0-0.3,0-0.4,0c0,1.8,0,3.6,0,5.4c0.1,0,0.3,0,0.4,0C-387.6,121.4-387.6,119.6-387.6,117.8z M-366,70.8
	c-0.1,0.2-0.1,0.3-0.2,0.5c1.8,0,3.5,0,5.3,0c0-0.2,0-0.3,0-0.5C-362.6,70.8-364.3,70.8-366,70.8z M-294.8,141.7
	c0.5,0.4,0.8,0.8,1.2,0.9c0.7,0.3,1.5,0.6,2.2,0.8c-0.6-0.6-1.1-1.4-1.8-1.9C-293.5,141.4-294.1,141.6-294.8,141.7z M-334.8,134.8
	c-0.3-0.5-0.5-1-0.8-1.5c-0.4,0.5-1,0.9-1,1.4c0,0.4,0.7,0.9,1.1,1.3C-335.3,135.7-335.1,135.3-334.8,134.8z M-384.2,127.2
	c0.2-0.1,0.5-0.1,0.7-0.2c-0.2-1.3-0.4-2.5-0.5-3.8c-0.2,0-0.5,0.1-0.7,0.1C-384.5,124.6-384.4,125.9-384.2,127.2z M-337.7,70.4
	c0.1-0.1,0.1-0.3,0.2-0.4c-1.5,0-2.9,0-4.4,0c0,0.1,0,0.3,0,0.4C-340.5,70.4-339.1,70.4-337.7,70.4z M-288.6,120.6
	c-0.6-0.1-1.2-0.2-1.8-0.3c-0.1,0-0.3,0.6-0.3,0.7c0.5,0.3,1,0.5,1.6,0.6C-289,121.6-288.8,121.1-288.6,120.6z M-421,113.9
	c1,0.4,1.8,0.7,2.7,1.1c0.1-0.2,0.3-0.7,0.2-0.7c-0.6-0.4-1.3-0.7-2-1C-420.2,113.3-420.5,113.6-421,113.9z M-375.2,122.1
	c-0.5,0.7-0.9,1.2-1.2,1.7c-0.1,0.2,0.2,0.5,0.3,0.8c0.4-0.3,0.9-0.5,1.2-0.9C-374.7,123.4-375,122.9-375.2,122.1z M-343.9,71.6
	c-0.8-0.3-1.5-0.6-2.2-0.8c-0.2-0.1-0.6,0.1-0.9,0.2c0.7,0.4,1.5,0.9,2.2,1.2C-344.7,72.3-344.4,72-343.9,71.6z M-301.7,108.7
	c0.3,0.4,0.6,0.7,0.8,1c0.3-0.2,0.7-0.4,0.8-0.6c0-0.4-0.2-0.8-0.4-1.2C-300.8,108.2-301.2,108.4-301.7,108.7z M-329.2,70.1
	c0.5-0.3,1-0.6,1.5-1c-0.2-0.1-0.5-0.4-0.7-0.3c-0.5,0.2-0.9,0.5-1.4,0.8C-329.6,69.8-329.5,69.9-329.2,70.1z M-309,134.2
	c-0.1,0-0.3,0-0.4,0c-0.1,0.6-0.2,1.2-0.2,1.8c0,0.3,0.2,0.6,0.3,0.8c0.2-0.3,0.5-0.6,0.5-0.9C-308.8,135.3-309,134.8-309,134.2z
	 M-332.7,71.3c0-0.1,0-0.2,0-0.4c-0.9,0-1.8,0-2.7,0c0,0.1,0,0.2,0,0.4C-334.4,71.3-333.5,71.3-332.7,71.3z M-327.3,119.5
	c-0.2-0.4-0.3-0.6-0.4-0.9c-0.2,0.2-0.5,0.3-0.7,0.5c-0.1,0.2,0,0.5,0,0.7C-328,119.7-327.7,119.6-327.3,119.5z M-288.4,125.3
	c-0.2-0.3-0.4-0.5-0.6-0.7c-0.1,0.3-0.3,0.6-0.3,0.8c0,0.3,0.2,0.6,0.3,0.8C-288.8,125.9-288.6,125.6-288.4,125.3z M-379.2,70.1
	c-0.3-0.1-0.5-0.3-0.8-0.3c-0.3,0-0.6,0.2-0.8,0.3c0.3,0.1,0.6,0.4,0.9,0.4C-379.7,70.5-379.4,70.2-379.2,70.1z M-359.6,69
	c0,0.1,0,0.3,0.1,0.3c0.1,0.1,0.3,0,0.5,0.1c0-0.2-0.1-0.4-0.1-0.5C-359.3,68.9-359.4,69-359.6,69z M-294.7,138.1
	c-0.3-0.1-0.5-0.2-0.7-0.3c-0.1,0-0.2,0.2-0.3,0.3c0.2,0.1,0.5,0.2,0.7,0.3C-294.9,138.3-294.8,138.2-294.7,138.1z M-284.7,118.4
	c-0.1-0.2-0.2-0.5-0.3-0.7c-0.1,0.1-0.3,0.2-0.3,0.3c0,0.2,0.2,0.5,0.3,0.7C-284.9,118.6-284.8,118.5-284.7,118.4z M-376,127.1
	c0-0.2,0-0.3,0.1-0.5c-0.2,0-0.4,0.1-0.5,0.1c0,0.1,0.1,0.3,0.2,0.4C-376.3,127.3-376.1,127.2-376,127.1z M-366.3,123.3
	c0-0.2,0.1-0.3,0.1-0.5c-0.2,0-0.4,0.1-0.6,0.1c0.1,0.1,0.1,0.3,0.2,0.4C-366.6,123.4-366.4,123.3-366.3,123.3z M-335,66.9
	c-0.1,0.1-0.3,0.1-0.4,0.2c0.1,0.1,0.2,0.3,0.2,0.3c0.2-0.1,0.4-0.2,0.6-0.3C-334.7,67.1-334.8,67-335,66.9z M-323.9,67
	c-0.1,0-0.3-0.1-0.4-0.1c0,0.2,0,0.3-0.1,0.5c0.1,0,0.3,0,0.4-0.1C-323.9,67.3-324,67.1-323.9,67z M-301.2,113.1
	c-0.1-0.1-0.2-0.2-0.3-0.3c-0.1,0.2-0.3,0.5-0.3,0.7c0,0.1,0.2,0.2,0.3,0.3C-301.4,113.6-301.3,113.4-301.2,113.1z M-409.8,109.6
	c-0.1-0.2-0.2-0.5-0.3-0.7c-0.1,0.1-0.3,0.2-0.3,0.3c0.1,0.3,0.2,0.5,0.3,0.7C-410,109.8-409.9,109.7-409.8,109.6z M-297.3,107.5
	c-0.1-0.1-0.1-0.3-0.2-0.4c-0.1,0.1-0.3,0.2-0.3,0.2c0.1,0.2,0.2,0.4,0.3,0.6C-297.4,107.7-297.4,107.6-297.3,107.5z M-306,103.6
	c-0.1-0.1-0.1-0.3-0.2-0.4c-0.1,0.1-0.2,0.1-0.3,0.2c0.1,0.2,0.3,0.4,0.4,0.6C-306.2,103.8-306.1,103.7-306,103.6z"/>
<path d="M-135.8,119.2c-8.9,1.1-18,0.3-26.5,3.8c-5.8,2.3-11.6,4.6-17.5,6.9c-0.6,0.2-1.2,0.8-1.8,0.7c-4.6-0.1-8.7,2-13.1,3
	c-2.8,0.6-5.8,0.8-8.1-1.8c-1.5-1.7-1.4-3.1,0.5-3.7c2.9-0.9,5.8-1.8,8.8-2.2c8.9-1.1,17.6-3.3,26.1-6.4c1.3-0.5,2.5-1.4,3.7-2.3
	c0.5-0.4,0.7-1.2,0.8-1.8c0.5-2.6,1.3-3.5,3.9-4c6.6-1.3,13.2-2.5,19.8-3.7c1.1-0.2,2.2-0.1,3.4,0c4.9,0.5,9.9,1.1,14.8,1.5
	c1.4,0.1,3-0.2,4.3,0.3c1.8,0.6,4.2-0.2,5.5,2c-1.6,0.6-3.2,1.2-4.8,1.7c-3.1,0.9-6.2,1.6-9.3,2.5c-1.3,0.4-2.8,0.5-3.3,2.4
	c-0.1,0.5-1.5,0.9-2.4,1C-132.5,119.3-134.2,119.2-135.8,119.2z M-153.9,112.6c6.9,2.7,13.8,3.8,20.9,3.7c0.6,0,1.3,0.3,1.8,0.1
	c4-1.5,7.9-3.2,12.9-5.2c-3.1,0.3-5.2,0.3-7.3,0.7c-2.5,0.5-4.9,0.7-6.9-0.9c-2.9-2.3-6-1.9-9.1-1.3
	C-145.8,110.7-149.8,111.7-153.9,112.6z M-197.8,127.9c2.9,3.8,2.9,3.8,6.6,2.6c1.7-0.6,3.3-1.5,5-1.6c5.1-0.3,9.6-2.5,14.2-4.1
	c5.7-2,10.8-5.7,17.2-5.9c0.2,0,0.4-0.4,0.6-0.5c-0.3-0.3-0.7-1-1-0.9c-2.5,0.5-5.1,0.8-7.3,1.8c-4.7,2.2-9.3,4.2-14.4,5.2
	c-3,0.6-6.4,0.6-9,2.9c-0.3,0.3-1,0.4-1.4,0.3C-190.7,126.7-194.1,128.5-197.8,127.9z M-153.2,115.2c2.8,4.4,6.4,2.6,10.7,2.8
	C-146.6,116.9-149.6,116.1-153.2,115.2z M-154,114.8c-4.3-0.2-4.3-0.2-7.4,1.7C-158.6,115.8-156.9,115.4-154,114.8z M-197.1,131.6
	c-1.1-0.7-1.6-1.1-2.2-1.3c-0.4-0.1-0.8,0-1.2-0.1c0.3,0.4,0.6,1,1,1.2C-199,131.6-198.4,131.5-197.1,131.6z"/>
<path d="M-185.6,111.4c-2,0.4-4.1,0.8-7.1,1.5c1.6,0.2,2.1,0.2,2.6,0.3c0.7,0.2,1.5,0.5,2.2,0.7c-0.4,0.6-0.9,1.1-1.3,1.7
	c-0.4,0.5-0.9,0.9-1.1,1.5c-1.8,3.3-2,3.3-5.4,2.8c-3.3-0.5-6.7-0.5-10.1-0.6c-0.4,0-0.7,0.5-1.1,0.8l0,0c-0.3,0-0.6,0-1,0
	c-1.2-0.2-2.4-0.4-3.6-0.6c0.9-1.2,1.6-2.7,2.7-3.6c0.7-0.6,2.1-0.6,3.2-0.6c3.5-0.1,7,0,10.6,0c-1.7-2.2-3.5-3.1-6.1-2.7
	c-1.9,0.3-3.8,0.1-5-1.8c-0.2,1.7-0.8,2.9-2.6,3.7c-2.7,1.1-5.3,1-8,0.9l0,0c-0.6-1.3-1.7-2.7,1-3c1.9-0.2,3.8-0.6,5.6-1
	c0.6-0.1,1.6-0.2,1.7-0.6c1.4-2.9,4-2.3,6.3-2.3c3.7,0.1,7.4,0,10.8-1.6c0.4-0.2,1.2-0.4,1.3-0.3c2.4,2.5,4.7,0.1,7-0.1
	c2-0.2,4.2-0.6,5.9,1.2c0.5,0.6,1.6,0.8,1.8,1.4c0.3,1,0.5,2.4,0,3.1c-0.6,0.9-1.9,1.6-3,1.9c-1.7,0.3-3.5,0.2-5.3,0.2
	C-185.6,114.3-185.7,112.9-185.6,111.4c3.3,1.1,6,1.3,6,0.4c-1.2-0.2-2.4-0.4-4.4-0.8c1.5-0.5,2.3-0.7,3-1c0.6-0.3,1-0.7,1.9-1.3
	C-184.6,108.4-184.6,108.4-185.6,111.4z M-188.7,110.1c-2.7-2-2.7-2-7.6,1.6C-193.2,111-191.1,110.6-188.7,110.1z M-208.2,117.4
	c0,0.1,0,0.2,0,0.3c1.1,0,2.3,0,3.4,0c0-0.2,0-0.3,0-0.5C-206,117.3-207.1,117.4-208.2,117.4z M-192.9,117.4
	c-0.8-0.1-1.3-0.2-1.9-0.2c-0.3,0-0.5,0.2-0.8,0.3c0.6,0.2,1.3,0.3,1.9,0.4C-193.5,118-193.3,117.7-192.9,117.4z M-202,117
	c0.1-0.1,0.3-0.2,0.4-0.2c-0.1-0.1-0.3-0.3-0.3-0.3c-0.2,0.1-0.3,0.2-0.5,0.4C-202.3,116.9-202.1,117-202,117z M-210.8,112.6
	c-0.1,0.1-0.3,0.1-0.4,0.2c0.1,0.1,0.2,0.3,0.2,0.3c0.2-0.1,0.4-0.2,0.6-0.3C-210.5,112.7-210.7,112.6-210.8,112.6z"/>
<path d="M-241.9,140.3c5-1.3,9.5-2.6,14.1-3.8c1.1-0.3,2.1-0.7,3.1-1.1c3.4-1.5,7.8,0.4,8.9,4c0.6,1.9-0.7,4.5-2.9,4.8
	c-2.5,0.3-4.8,1.4-7.5,0.5c-2.2-0.7-4.8-0.4-7.2-0.3C-237,144.5-239.4,142.8-241.9,140.3z M-222.2,141.5c0.6,0.2,1.3,0.8,2.1,0.8
	c1.2,0,2.4-0.5,2.2-1.9c-0.1-0.7-1.2-1.5-1.9-1.7C-221.2,138.4-222.4,139.7-222.2,141.5z M-228.1,142.1c0-0.2,0.1-0.3,0.1-0.5
	c-2.8,0-5.5,0-8.3,0c0,0.2,0,0.3,0,0.5C-233.6,142.1-230.9,142.1-228.1,142.1z M-225.3,141.5c0.2,0.1,0.4,0.2,0.6,0.3
	c0.4-1,0.7-2.1,1-3.1c0.1-0.2-0.2-0.7-0.4-0.7c-0.2-0.1-0.7,0.2-0.8,0.4C-225.1,139.3-225.2,140.4-225.3,141.5z M-228.3,138.7
	c-0.1,0.1-0.3,0.1-0.4,0.2c0.1,0.1,0.2,0.3,0.2,0.3c0.2-0.1,0.4-0.2,0.6-0.3C-228,138.8-228.2,138.8-228.3,138.7z"/>
<path d="M-230.2,128.8c-0.1,1.8,1,2.5,2.6,3c0.4,0.1,0.9,0.8,1,1.3c0.1,0.3-0.5,1-0.9,1c-4.4,0.5-8.8,2.4-13-0.3
	c-0.5-0.3-0.7-0.9-1-1.4c0.4-0.3,0.7-0.6,1.2-0.8C-237,130.7-233.6,129.8-230.2,128.8L-230.2,128.8z M-238.4,133.4
	c2.8,0,4.5,0,6.3,0c0.2,0,0.6-0.4,0.6-0.6c0-0.2-0.2-0.7-0.4-0.7C-233.8,131.6-235.7,131.4-238.4,133.4z"/>
<path d="M-230.2,128.8c0.5-0.7,0.8-1.9,1.5-2.1c3.1-0.9,6.2-1.6,9.3-2.2c1.4-0.3,2.5,0.4,2.8,2c0.3,1.6-0.5,3-2.1,3.2
	C-222.6,130-226.4,130.2-230.2,128.8L-230.2,128.8z M-219.2,127.6c0-0.1,0-0.3,0-0.4c-1.8,0-3.6,0-5.4,0c0,0.1,0,0.3,0,0.4
	C-222.8,127.6-221,127.6-219.2,127.6z"/>
<path d="M-206.9,120.1c2.1-0.1,4.2-0.4,6,1c1,0.8,1.1,2.1-0.1,2.7c-0.8,0.5-1.7,1-2.6,1c-3.2,0.1-6.3,0-9.7-0.6
	C-211.2,122.8-209,121.4-206.9,120.1L-206.9,120.1z M-206.3,122.3c0,0.1,0,0.3,0,0.4c1.2,0,2.4,0,3.6,0c0-0.1,0-0.3,0-0.4
	C-203.9,122.3-205.1,122.3-206.3,122.3z"/>
<path d="M-405.7,118.1c-1,2.1-2.1,4.1-3.1,6.2c-0.7,1.6-1.3,3.3-2.7,4.8c0-0.8,0-1.5,0-2.3l0,0c0.2-0.8,0.8-1.7,0.6-2.4
	c-0.4-1.4-1.3-2.6-1.8-3.9c-0.5-1.4-2.3-2.4-1.1-4.2c1.3,0.8,2.7,1.5,4,2.3c0.3,0.2,0.6,0.6,0.7,0.8c1.5-1.5,2.9-2.9,4.4-4.3
	c0,0.7,0,1.3,0,2l0,0C-405.1,117.5-405.4,117.8-405.7,118.1C-405.8,118.2-405.7,118.1-405.7,118.1z M-411.6,119.1
	c-0.1-0.1-0.1-0.3-0.2-0.4c-0.1-0.1-0.2-0.1-0.3-0.1C-411.9,118.8-411.7,118.9-411.6,119.1c0.4,0.6,0.7,1.3,1,1.9
	c0.1,0.4,0.2,0.8,0.3,1.3c0.2-0.1,0.3-0.2,0.5-0.3c-0.3-0.3-0.5-0.6-0.8-0.9C-410.9,120.4-411.3,119.8-411.6,119.1z"/>
<path d="M-238.9,117.1c-0.8-0.9-1.6-1.7-2.4-2.6c1.1-0.5,2.2-1.2,3.3-1.4c2-0.4,4-0.6,6-0.6c0.6,0,1.6,1.2,1.7,1.9
	c0.1,0.5-0.9,1.6-1.6,1.8C-234.2,116.7-236.5,116.9-238.9,117.1L-238.9,117.1z M-233.8,115c-0.1-0.2-0.1-0.4-0.2-0.7
	c-1.1,0.1-2.2,0.2-3.3,0.2c0,0.1,0,0.3,0,0.4C-236.1,115-234.9,115-233.8,115z"/>
<path d="M-411.6,126.9c-5-1.4-10.1-1.5-15.1,0c-1.3,0.4-2.8,2-3.9,0.4c-1.3-1.7,0.8-2.8,1.5-4.1c0.3-0.6,1.2-0.9,1.8-1.4
	c0.1,0.1,0.2,0.3,0.4,0.4c-0.6,1.1-1.2,2.1-2.2,4c2-0.7,3.1-1.1,4.3-1.4c1.7-0.4,3.4-1,5.1-0.9c2.4,0.1,4.7,0.6,7,1.1
	C-412.2,125.2-411.9,126.3-411.6,126.9C-411.6,126.9-411.6,126.9-411.6,126.9z"/>
<path d="M-237.1,125.2c-1.7-0.2-3.5-0.3-5.2-0.6c-0.4-0.1-0.8-0.6-0.9-1c-0.1-0.2,0.5-0.8,0.9-0.9c2.5-0.6,4.9-1.3,7.5-1.7
	c0.9-0.2,2,0.1,2.7,0.6c0.7,0.4,1,1.4,1.5,2.2c-0.7,0.4-1.3,1-2,1.1c-1.4,0.2-2.9,0.1-4.3,0.1C-237.1,125-237.1,125.1-237.1,125.2z
	 M-235.6,123.5c-0.1-0.1-0.2-0.3-0.3-0.3c-0.7,0-1.4,0-2.2,0.1c0,0,0,0.2-0.1,0.2c0.7,0.1,1.4,0.1,2.2,0.2
	C-235.9,123.7-235.8,123.6-235.6,123.5z"/>
<path d="M-216.6,115.2c0.2,0.4,0.5,0.8,0.7,1.2c0.4,1,0.7,1.9,1.1,2.9c-0.9,0.3-1.7,0.7-2.6,0.8c-1.9,0.1-3.8,0.2-5.7-0.1
	c-0.7-0.1-1.3-1.1-1.9-1.8c0.5-0.5,1-1.3,1.6-1.5C-221.2,116.1-218.9,115.7-216.6,115.2L-216.6,115.2z M-220.9,117.6
	c0.1,0.1,0.2,0.3,0.3,0.3c0.7,0,1.5-0.1,2.2-0.1c0,0,0-0.2,0.1-0.3c-0.7-0.1-1.5-0.1-2.2-0.2C-220.6,117.4-220.8,117.5-220.9,117.6z
	"/>
<path d="M-178.8,136.6c-3.5,0-6.1-1.1-5.6-2.2c1-2.3,3.5-1.9,5.3-2.7c0.5-0.2,1.3-0.2,1.9-0.1c1.4,0.2,3.1,2.1,2.9,3.4
	c-0.3,1.7-1.7,1.5-3,1.6C-177.8,136.6-178.3,136.6-178.8,136.6z M-177.5,134.4c0-0.1,0-0.3,0-0.4c-1.2,0-2.3,0-3.5,0
	c0,0.1,0,0.3,0,0.4C-179.8,134.4-178.6,134.4-177.5,134.4z"/>
<path d="M-408.6,103.6c-0.1-4.4,1.8-7.7,6.1-11c-1.8,5.8-4.5,10.5-4.2,15.8c0,0,0,0,0,0c-0.3-0.8-0.7-1.6-1-2.4
	C-408.1,105.2-408.4,104.4-408.6,103.6C-408.7,103.6-408.6,103.6-408.6,103.6z"/>
<path d="M-174.3,119.6c-2.3,1.7-4.7,2.8-7.6,2.5c-1.2-0.1-2.5-0.6-3.6-1.1c-0.4-0.2-0.4-1-0.6-1.5c0.4-0.1,0.9-0.4,1.3-0.4
	c1.6,0.2,3.1,0.7,4.7,0.9c0.6,0.1,1.3-0.5,2-0.8c-0.6-0.3-1.3-0.6-1.9-1c-0.3-0.1-0.6-0.3-0.8-0.4
	C-177.1,116.7-177.1,116.7-174.3,119.6z"/>
<path d="M-238.9,117.2c0.8,2.7,0.6,3.4-1.5,3.8c-0.8,0.2-1.6,0.1-2.4,0.1c-1.6,0-3.3-0.7-3.3-2.1c0-1.6,1.9-1.7,3.2-1.9
	C-241.5,117-240.2,117.1-238.9,117.2L-238.9,117.2z"/>
<path d="M-288.4,109.4c1.2-1.4,2.5-2.8,3.8-4.1c0.2-0.2,0.9-0.2,1.2,0c0.2,0.2,0.4,0.9,0.2,1.2c-1.4,1.7-2.8,3.3-4.2,4.9l0,0
	C-287.7,110.7-288.1,110.1-288.4,109.4L-288.4,109.4z"/>
<path d="M-416.5,105.6c-0.6-0.2-1.4-0.2-1.7-0.6c-1.3-1.5-2.5-3-3.7-4.6c2.5-0.9,3.9,0.9,5.6,2.2l0,0c-0.8,0.1-2.1-0.1-0.9,1.4
	c0.4,0.5,0.7,1,1,1.4L-416.5,105.6z"/>
<path d="M-350.5,156.9c-1.1,1.3-2.3,2.6-3.5,3.9c-0.2,0.2-0.8,0.2-1.2,0.3c-0.1-0.4-0.3-1-0.1-1.3c1.2-1.7,2.4-3.2,3.7-4.9l0.2,0.2
	C-351,155.7-350.8,156.3-350.5,156.9L-350.5,156.9z"/>
<path d="M-250,122.6c-0.8-0.7-1.6-1.3-2.3-1.9c0.7-0.5,1.6-1.6,2.2-1.4c0.9,0.2,1.5,1.2,2.3,1.9C-248.5,121.6-249,122-250,122.6z"/>
<path d="M-321.3,130.7c-0.3,0-0.7,0-1,0c0,0,0,0,0,0c1-1.6,1.9-3.2,2.9-4.9c0,0,0,0,0,0c0.3,0,0.7,0,1,0c0,0,0,0,0,0
	C-319.4,127.5-320.4,129.1-321.3,130.7L-321.3,130.7z"/>
<path d="M-321.4,133.6c0-1,0-1.9,0.1-2.9c0,0,0,0,0,0C-319.5,131.4-319.5,131.4-321.4,133.6C-321.3,133.7-321.4,133.6-321.4,133.6z"
	/>
<path d="M-376.7,140.4c0,0.5,0.1,0.9,0,1.4c-0.1,0.3-0.4,0.6-0.6,0.9c-0.1-0.3-0.4-0.6-0.3-0.8
	C-377.3,141.4-376.9,140.9-376.7,140.4L-376.7,140.4z"/>
<path d="M-338.8,145.3c-0.3,1-0.6,1.9-1,2.9c0,0,0,0,0,0C-339.5,147.2-339.1,146.3-338.8,145.3
	C-338.8,145.3-338.8,145.3-338.8,145.3z"/>
<path d="M-373.8,134.6c-0.3,0.6-0.6,1.3-1,1.9c0,0,0,0,0,0c0-0.7,0-1.3,0-2l0,0C-374.4,134.6-374.1,134.6-373.8,134.6L-373.8,134.6z
	"/>
<path d="M-304.9,145.3c-0.1,0.4-0.2,0.9-0.3,1.3c-0.2-0.1-0.4-0.2-0.5-0.3C-305.4,146-305.1,145.6-304.9,145.3L-304.9,145.3z"/>
<path d="M-301,148.2c0.3-0.6,0.7-1.3,1-1.9c0,0,0,0,0,0C-300.4,146.9-300.7,147.6-301,148.2C-301,148.2-301,148.2-301,148.2z"/>
<path d="M-339.8,148.2c-0.3,0.6-0.6,1.3-1,1.9c0,0,0,0,0,0C-340.4,149.5-340.1,148.9-339.8,148.2
	C-339.8,148.2-339.8,148.2-339.8,148.2z"/>
<path d="M-301,148.2c-0.1,0.4-0.2,0.9-0.3,1.3c-0.2-0.1-0.3-0.2-0.5-0.3C-301.5,148.8-301.3,148.5-301,148.2
	C-301,148.2-301,148.2-301,148.2z"/>
<path d="M-350.4,151.1c-1.2-0.6-1.2-1.3,0-1.9l0,0C-350.5,149.8-350.5,150.5-350.4,151.1L-350.4,151.1z"/>
<path d="M-376.6,140.5c0.1-0.4,0.2-0.9,0.3-1.3c0.2,0.1,0.3,0.2,0.5,0.3C-376.1,139.8-376.4,140.1-376.6,140.5L-376.6,140.5z"/>
<path d="M-389.3,115.2c-0.3,0-0.7,0-1,0c0,0,0,0,0,0c0.3-0.6,0.7-1.3,1-1.9l0,0C-389.3,113.9-389.3,114.6-389.3,115.2L-389.3,115.2z
	"/>
<path d="M-349.5,156c-0.3,0.3-0.7,0.6-1,1l0,0C-350.1,156.6-349.8,156.3-349.5,156L-349.5,156z"/>
<path d="M-300,144.3l-0.5,0l-0.5,0l0,0c0.3-0.3,0.6-0.7,0.9-1l0.1,0.1C-300,143.7-300,144-300,144.3L-300,144.3z"/>
<path d="M-374.7,136.6c-0.3,0.8-0.6,0.8-0.9,0l0,0C-375.4,136.6-375,136.6-374.7,136.6L-374.7,136.6z"/>
<path d="M-415.5,106.5c-0.3-0.3-0.7-0.6-1-0.9c0,0,0.1-0.2,0.1-0.2C-416,105.8-415.7,106.1-415.5,106.5L-415.5,106.5z"/>
<path d="M81.5,52.5c3.8,1.9,6.9,3.8,6.6,8.6c-0.2,2.6-1.5,4.5-3.7,5.2c-2.8,1-5.7,1.7-8.9,1.1c-5.9-1.1-10.7-4.1-15.3-7.6
	c-4-3-7.8-6.2-12-9.6c2.4-2,4.5-4.5,7.1-5.9c5.9-3.2,12.1-5.9,18.9-6.8c2.4-0.3,4.8,0,6.9,1.5c4.4,3,5.1,7.3,1.9,11.6
	C82.6,51.3,82.1,51.9,81.5,52.5z M85.1,62.9c-0.3,0.3-0.7,0.6-1,1c-0.4,0.1-0.9,0.2-1.3,0.2c0.1,0.2,0.2,0.3,0.3,0.5
	c0.3-0.3,0.7-0.5,1-0.8C84.4,63.5,84.7,63.2,85.1,62.9c0.8-0.3,0.7-0.7,0-1c0.3-3.7-1.1-6.2-5.1-6.9c-0.9-0.2-1.8-0.6-2.7-0.9l0,0
	c0-1.1-0.6-2.4,1-2.9c0.3,0,0.6,0,0.9,0c0.3-0.3,0.6-0.6,1-1c0.3-0.3,0.6-0.6,1-1c0.4-0.2,0.8-0.4,1.1-0.8c0.3-0.4,0.3-1,0.5-1.5
	c-0.5,0.1-1,0.3-1.6,0.4c0.1-0.6,0.2-1.2,0.4-1.9c0.9-3.4,0.7-4.3-2.8-5.1c-2.3-0.5-4.8-0.8-7-0.2c-4,1-7.8,2.9-11.7,4.1
	c-3.2,1-5.6,2.9-7.6,5.6c2,1.2,3.8,2.2,5.5,3.3c0.3,0.3,0.7,0.6,1,1c3,2.1,5.8,4.5,9,6.3c4.9,2.7,10.1,5.1,15.8,1.7
	c0.4-0.2,0.9-0.1,1.4-0.2C85.1,62.2,85.1,62.5,85.1,62.9z M65.7,60.9c0.1,0.1,0.1,0.3,0.2,0.4c0.1,0.1,0.2,0.1,0.3,0.1
	C66,61.2,65.8,61.1,65.7,60.9c-0.1-0.1-0.1-0.2-0.2-0.4c-0.1-0.1-0.2-0.1-0.3-0.1C65.4,60.6,65.5,60.7,65.7,60.9z M59.9,57
	c-0.1-0.2-0.3-0.3-0.4-0.5C59.6,56.7,59.7,56.9,59.9,57c0.2,0.2,0.3,0.3,0.5,0.4C60.2,57.3,60,57.2,59.9,57z M68.6,62.9
	c0-0.1-0.1-0.3-0.2-0.4c-0.1-0.1-0.2-0.1-0.3-0.1C68.3,62.5,68.4,62.7,68.6,62.9c1,0.3,2,0.6,2.9,0.9c0.3,0.2,0.6,0.5,1,0.7
	c0.1-0.1,0.2-0.3,0.3-0.4c-0.4-0.1-0.8-0.2-1.2-0.2C70.5,63.5,69.5,63.2,68.6,62.9z"/>
<path d="M27.8,46.4c0.1-0.4,0.2-0.9,0.3-1.3c0.2,0.1,0.3,0.2,0.5,0.3C28.4,45.7,28.1,46,27.8,46.4L27.8,46.4z"/>
<path d="M35.6,45.4c0.3-0.7,0.7-1.3,1-2C36.2,44.1,35.9,44.8,35.6,45.4z"/>
<path d="M32.7,33.8c0.3-1,0.7-2,1-3C33.3,31.8,33,32.8,32.7,33.8z"/>
<path d="M26.9,51.2c0,0.5,0.1,0.9,0,1.4c-0.1,0.3-0.4,0.6-0.6,0.9c-0.1-0.3-0.4-0.6-0.3-0.8C26.2,52.1,26.6,51.7,26.9,51.2
	L26.9,51.2z"/>
<path d="M7.5,60c-0.3,0-0.7,0-1,0c0.3-1,0.7-2,1-2.9C7.5,58,7.5,59,7.5,60z"/>
<path d="M-338.5,76.9c1.9,0.7,3.9,1.3,5.7,2.3c1.3,0.7,1.8,1.2,3-0.3c2.7-3.5,6-3.3,8.7,0.2c2.3,2.9,2.3,6.3,1.3,9.6
	c-0.3,1.1-0.9,2.1-1.4,3.1c-2.3,4-5.1,7.8-6.6,12.2c-0.6,1.7-1.7,1.6-3,0.8c-3.1-1.9-6.4-3.3-8.9-6.3c-1.7-2.1-4.2-3.5-6.2-5.3
	c-4-3.7-4.4-8-1.3-12.4C-345.2,77.7-342,77.4-338.5,76.9z M-344.6,81.3c-0.3,0.3-0.6,0.6-1,1c-0.8,0.3-0.8,0.6,0,0.9
	c-2.6,4.3-2.7,4.9,0.9,8.2c4.1,3.7,8.4,7,12.6,10.5c1.6,1.3,2.8,0.9,3.7-1.2c0.2-0.6,0.2-1.3,0.2-1.9l0,0c2.9-4.5,5.3-9.1,4.8-14.7
	c-0.1-1.1-0.3-2.3-0.9-3.1c-0.6-0.8-1.9-1.5-2.8-1.4c-0.8,0.1-1.4,1.4-2,2.2c-0.2,0.3-0.1,0.9-0.1,1.4c-0.6,0.3-1.3,0.6-1.9,1
	c-3.6-3.4-7.7-5.1-12.6-2.9C-344,80.5-344.3,80.4-344.6,81.3z M-322.3,80.3c-0.1-0.1-0.1-0.3-0.2-0.4c-0.1-0.1-0.2-0.1-0.3-0.1
	C-322.7,80-322.5,80.2-322.3,80.3c0.1,0.4,0.2,0.8,0.3,1.3c0.2-0.1,0.3-0.2,0.5-0.3C-321.9,81-322.1,80.7-322.3,80.3z M-320.7,85.1
	c-0.1-0.1-0.1-0.3-0.2-0.4c-0.1,0.1-0.3,0.3-0.3,0.3c0.1,0.2,0.2,0.3,0.4,0.5C-320.7,85.3-320.7,85.2-320.7,85.1z"/>
<path d="M-361.1,121c0.3-0.3,0.6-0.6,1-1c0.3-0.3,0.6-0.6,1-1c0.8-0.3,0.8-0.6,0-0.9c1.1-2.1,2.9-3.2,6.2-4.2c-2.4,3-4.2,5.1-6,7.3
	c-1.6,2.1-1.6,2.3,0.7,4.6c0,0.3,0,0.7,0,1c-0.3,0.3-0.7,0.6-1,1c-0.7,0-1.3,0-2,0c0-0.8,0-1.5,0.1-2.3c-0.7,0.1-1.3,0.3-2,0.4
	C-362.4,124.3-361.8,122.7-361.1,121z"/>
<path d="M-317.5,115.2c0.3,0,0.7,0,1,0c0.2,1.4,0.4,2.9,0.7,4.6C-318,118.6-317.4,116.8-317.5,115.2z"/>
<path d="M-396,113.3c0,0.7,0,1.3,0,2c-1,0.7-2,1.3-2.9,2C-398.9,115.2-397.7,114.1-396,113.3z"/>
<path d="M-368.9,117.2c0.3,0,0.7,0,1,0c0,0.7,0,1.3,0,2C-368.2,118.5-368.6,117.8-368.9,117.2z"/>
<path d="M-395.1,112.3c0,0.3,0,0.7,0,1c-0.3,0-0.7,0-1,0C-395.7,113-395.4,112.6-395.1,112.3z"/>
<path d="M-310.7,119.1c-0.3-0.3-0.7-0.7-1-1C-311.3,118.5-311,118.8-310.7,119.1z"/>
<path d="M-403.8,114.2c0,0.3,0,0.7,0,1c-0.3,0-0.7,0-1,0C-404.5,114.9-404.1,114.6-403.8,114.2z"/>
<path d="M-329.1,125.9c-0.1,0.4-0.2,0.9-0.3,1.3c-0.2-0.1-0.3-0.2-0.5-0.3C-329.7,126.6-329.4,126.2-329.1,125.9L-329.1,125.9z"/>
<path d="M-329.1,125.9c0.3-0.3,0.6-0.7,0.9-1l0.1,0.1C-328.5,125.3-328.8,125.6-329.1,125.9L-329.1,125.9z"/>
<path d="M-374.7,132.7c0.2-0.2,0.3-0.3,0.5-0.5c0,0.1,0,0.3-0.1,0.3C-374.4,132.6-374.6,132.6-374.7,132.7L-374.7,132.7z"/>
<path d="M-300,135.6c0.7-0.3,1.3-0.7,2-1C-298.7,135-299.4,135.3-300,135.6z"/>
<path d="M-361.1,127.8c-0.3,0.3-0.7,0.7-1,1C-361.8,128.5-361.4,128.2-361.1,127.8z"/>
<path d="M73.1,45.7c-1.4-0.1-2.5-0.2-3.5-0.4c-0.3-0.1-0.8-0.7-0.7-1c0.1-0.3,0.7-0.8,1-0.8c2.2,0.4,4.4,0.8,6.4,1.5
	c1.1,0.4,0.5,1.4-0.3,1.8c-1.3,0.7-1.3,1,0,1.7c0.7,0.4,1.1,0.9,0.2,1.8c-1.6,1.5-4.7-0.6-5.5,2.4c-0.4-0.2-0.9-0.4-1.1-0.7
	c-0.2-0.5-0.5-1.4-0.3-1.6c0.7-0.6,1.8-0.7,2.4-1.4c0.7-0.7-1.8-1.1-0.4-2.1C71.9,46.6,72.4,46.3,73.1,45.7z"/>
<path d="M58.9,54.1c-0.3-0.3-0.6-0.7-1-1c0-0.3-0.1-0.7,0.1-0.9c0.4-0.6-1.5-3.8,1.7-1.4c1.4,1,3.7,0.8,5-1.4
	c0.2-0.4,1.2-0.5,1.9-0.5c0.3,0,0.9,0.8,0.8,1.1c-0.2,0.7-0.6,1.6-1.2,1.8C63.8,52.7,61.3,53.4,58.9,54.1z"/>
<path d="M77.3,54.1c0.3,0.5,0.7,1.1,0.8,1.6c0.1,0.5,0,1.1-0.1,1.7c-0.6-0.1-1.1-0.3-1.7-0.4c-0.1-0.1-0.1-0.3-0.2-0.4
	c-0.1-0.1-0.2-0.1-0.3-0.1c0.2,0.2,0.3,0.3,0.5,0.5c-0.4,1.1-1.1,1.1-1.8,0.3c-0.9-1.1-1-1.7-1.9,0.2c-0.5,1.1-1.3-0.8-1.7-1.4
	c-0.2-0.4,0.3-1.8,0.5-1.8C73.4,54.1,75.4,54.2,77.3,54.1L77.3,54.1z"/>
<path d="M57.4,48.2c1.8-1.3,3.1-2.4,4.5-3.3c0.3-0.2,0.8-0.1,1.3-0.1c-0.1,0.4-0.4,0.8-0.4,1.2c0,1,0.2,2,0.3,3
	c-1.2-0.2-2.5-0.4-3.7-0.6C58.8,48.3,58.1,48.3,57.4,48.2z"/>
<path d="M73.2,59.7c-0.2,0.4-0.4,0.6-0.5,0.9c-0.3-0.2-0.7-0.4-0.9-0.7c-0.1-0.1,0.3-0.7,0.4-0.7C72.6,59.3,72.9,59.5,73.2,59.7z"/>
<path d="M81.2,49.3c-0.3,0-0.7,0-1,0c0.3-0.7,0.7-1.3,1-2C81.2,48,81.2,48.6,81.2,49.3z"/>
<path d="M79.3,50.2c0,0.3,0,0.7,0,1c-0.3,0-0.7,0-1,0C78.6,50.9,78.9,50.6,79.3,50.2z"/>
<path d="M80.2,50.3c-0.3,0-0.7,0-1,0c0.3-0.3,0.7-0.7,1-1C80.2,49.6,80.2,49.9,80.2,50.3z"/>
<path d="M-332.6,89.9c-0.2,0.2-0.4,0.6-0.6,0.7c-0.4,0.1-1.1,0.2-1.3,0c-0.5-0.6-0.8-1.4-1.2-2c-0.3-0.5-0.8-1.3-1-1.3
	c-0.7,0.3-1.5,0.7-2,1.3c-0.6,0.6-0.8,1.5-1.3,2.2c-0.2-1-0.7-2.1-0.5-3c0.2-1.1,0.9-2.5,1.7-2.9c2.7-1.4,2.8-1.2,4,1.6
	C-334.2,87.6-333.3,88.7-332.6,89.9z"/>
<path d="M-328.1,98.7c-0.5,0.1-1.1,0-1.4,0.3c-1.7,1.4-2.7,1.5-2.6-1.1c-1.5-0.6-2.5-1.2-0.5-2.5c-0.2-0.1-0.4-0.4-0.7-0.4
	c-1.6-0.3-1.3-1.1-0.4-1.9c0.8-0.7,1.7-1.9,2.6-0.1c0.2,0.4,0.2,1,0.5,1.3c0.6,0.5,2.1-1,2.1,0.7c0,0.5-1.2,1-1.6,1.6
	c-1,1.3,0.3,1.1,0.9,1.3C-328.8,98.1-328.5,98.5-328.1,98.7L-328.1,98.7z"/>
<path d="M-331.1,84.2c0.6-0.3,1.3-0.6,1.9-1c1.2,0.1,2.5,0.2,1,1.8c-0.3,0.3-0.8,0.4-1.3,0.5c0.5,0.2,1,0.3,1.4,0.5
	c0.4,0.2,0.8,0.4,1.2,0.6c-0.4,0.2-0.9,0.3-1.2,0.6c-0.3,0.3-0.4,0.8-0.6,1.3c0.6,0.1,1.2,0.2,1.8,0.3c-0.9,0.6-1.8,1.3-2.8,1.6
	c-0.3,0.1-1.3-0.9-1.4-1.5C-331.2,87.4-331.1,85.8-331.1,84.2z"/>
<path d="M-345.6,82.2c0.3,0,0.7,0,1,0c-0.3,0.3-0.7,0.7-1,1C-345.6,82.9-345.6,82.6-345.6,82.2z"/>
<path d="M-344.7,81.3c0.3,0,0.7,0,1,0c-0.3,0.3-0.7,0.7-1,1C-344.7,81.9-344.7,81.6-344.7,81.3z"/>
</svg>
