<?xml version="1.0" encoding="utf-8"?>
<!-- Generator: Adobe Illustrator 18.0.0, SVG Export Plug-In . SVG Version: 6.00 Build 0)  -->
<!DOCTYPE svg PUBLIC "-//W3C//DTD SVG 1.1//EN" "http://www.w3.org/Graphics/SVG/1.1/DTD/svg11.dtd">
<svg version="1.1" id="Layer_1" xmlns="http://www.w3.org/2000/svg" xmlns:xlink="http://www.w3.org/1999/xlink" x="0px" y="0px"
	 viewBox="0 0 72.8 22.3" enable-background="new 0 0 72.8 22.3" xml:space="preserve">
<g>
	<path d="M18.3,16.2c-1,1.8-1.9,3.5-3,5c-0.4,0.6-1.3,0.8-2,1.1c-0.2,0.1-0.7-0.1-0.8-0.3c-0.2-0.4-0.3-1-0.1-1.2
		c1-1.2,2-2.3,3.5-3.9c-4-0.5-7.3-1-10.6-1.3c-2.2-0.2-3.6-1.3-4.1-3.4c-0.2-0.6-0.1-1.3-0.3-1.9C-1.6,2.1,1.4,1.2,8.4,0.2
		c3.5-0.5,7.3,0.4,10.9,0.9c3.6,0.5,7.2,1.3,10.9,1.8c3.3,0.5,4.9,3.3,4.1,6.6c-0.8,3.3-2.4,5.5-5.9,6.2c-1.1,0.2-2.2,0.5-3.2,1
		C22.7,18,20.3,17.8,18.3,16.2z M18.6,3.9c-0.1-0.1-0.1-0.3-0.2-0.4c-0.1-0.1-0.2-0.1-0.3-0.1C18.3,3.6,18.4,3.7,18.6,3.9
		C18.3,5.9,18,8,17.8,10c-0.2,1.5,0,2.6,1.9,2.6c4.1-0.1,7.9-1.1,11.3-3.3c0.6-0.4,1.1-1.7,1-2.4c-0.2-0.7-1.2-1.6-1.9-1.7
		C26.2,4.6,22.4,4.3,18.6,3.9z M2.6,6.4c-0.1,0.3-0.5,1-0.3,1.2c0.7,0.8,1.4,1.6,2.4,2c1.9,0.8,3.9,1.2,5.9,1.8
		c4.6,1.4,4.6,1.4,5.5-3.4c0-0.2,0.1-0.3,0.2-0.4c0.5-1.3-0.3-2-1.4-1.7C10.9,6.9,7,7.2,2.6,6.4z M11.5,2.5C9.1,1.4,7.2,2.4,5.3,3.1
		C5,3.2,4.7,3.7,4.4,4c0.3,0.3,0.7,0.7,1,0.7C7.8,5,9.8,4.4,11.5,2.5z M22.4,14.8c-0.1,0.1-0.3,0.1-0.4,0.2c0.1,0.1,0.1,0.2,0.2,0.3
		c0.2-0.1,0.4-0.3,0.6-0.4C22.7,14.9,22.6,14.8,22.4,14.8z"/>
	<path d="M52.9,11.7c-1.4,0-2.9,0.1-4.3,0c-1.4-0.2-2.9-0.5-4.1-1.1c-3.3-1.8-3.4-4.1-1-7c2-2.4,4.6-3.4,7.3-2.5
		c3,0.9,5.6,0.5,8.4-0.5C63.8-0.9,69.6,1.5,72,5.8c1.5,2.8,0.9,5-1.9,6.4c-1.3,0.6-2.7,1.3-4.1,1.4c-3.3,0-6.4,0.4-8.5,3.4
		c-0.1,0.2-1,0-1.2-0.2c-0.2-0.3-0.2-0.8-0.1-1.2c0.1-0.5,0.4-1,0.5-1.6c-0.6,0.1-1.3,0-1.8,0.2c-2.2,1-4.3,2.1-6.5,3.1
		c-0.3,0.2-0.8-0.1-1.3-0.2c0.1-0.6,0-1.4,0.4-1.6c0.8-0.5,1.8-0.7,2.6-1.1c1.1-0.6,2.1-1.2,3.1-1.9C53.1,12.2,53,12,52.9,11.7z
		 M62.3,11.9c2.1-0.5,4-0.8,5.8-1.4c2.2-0.8,2.7-3.5,0.8-5c-1.5-1.2-3.1-2.2-4.9-3c-2.7-1.2-9,1.8-10.1,4.6
		c-0.5,1.2-0.4,2.3,0.9,2.7C57.3,10.6,59.9,11.3,62.3,11.9z M52.3,5.6c-0.4-0.8-0.6-1.8-1-1.9c-1.3-0.3-3-0.8-4-0.3
		c-1.3,0.6-2.2,2.2-3.2,3.4c-0.1,0.1,0.1,0.6,0.3,0.9c1,1.4,4.5,2.7,5.6,1.7C51,8.4,51.6,6.8,52.3,5.6z"/>
	<path d="M21.3,8.1c-0.4,0.1-0.8,0.2-1.2,0.2c-0.1,0-0.2-0.5-0.3-0.8c0.4-0.1,0.8-0.3,1.1-0.4C21,7.2,21.2,7.7,21.3,8.1z"/>
</g>
</svg>
