<?xml version="1.0" encoding="utf-8"?>
<!-- Generator: Adobe Illustrator 18.0.0, SVG Export Plug-In . SVG Version: 6.00 Build 0)  -->
<!DOCTYPE svg PUBLIC "-//W3C//DTD SVG 1.1//EN" "http://www.w3.org/Graphics/SVG/1.1/DTD/svg11.dtd">
<svg version="1.1" id="Layer_1" xmlns="http://www.w3.org/2000/svg" xmlns:xlink="http://www.w3.org/1999/xlink" x="0px" y="0px"
	 viewBox="0 0 65.6 25.5" enable-background="new 0 0 65.6 25.5" xml:space="preserve">
<g>
	<path d="M9.9,18.6c-1.8-0.3-2.7-0.3-3.4-0.6C1,15.6,0,13.3,1.4,7.7C2,5.2,2.9,2.9,4.9,1c1.1-1,2-1.4,3.4-0.6c2,1.3,4.2,2.3,6.1,3.6
		c3.3,2.3,6.4,4.8,9.6,7.2c3.3,2.5,4.9,5.9,4.9,9.9c0,0.9-0.9,2.2-1.7,2.6c-1.2,0.7-2.7,1-4.1,1.1c-1.1,0.1-2.2-0.3-3.3-0.6
		c-5.2-1.3-5.2-1.2-11,0.4c-1.8,0.5-4.4,2.1-5.6-1.4c-0.2-0.5-1.3-1-1.9-0.9c-1.1,0.2-1.7-0.1-1.3-1.1c0.2-0.5,1.3-1.2,1.7-1.1
		C4.6,21.4,6.7,20,9.9,18.6z M14.5,14.3c-0.3,0.3-0.6,0.7-1,1c-0.1,0.1-0.3,0.1-0.4,0.2c-0.1,0.1-0.1,0.2-0.1,0.3
		c0.2-0.2,0.3-0.3,0.5-0.5C13.9,15,14.2,14.7,14.5,14.3c0.1-0.1,0.3-0.1,0.4-0.2c0.1-0.1,0.1-0.2,0.1-0.3
		C14.8,14,14.7,14.2,14.5,14.3z M10.6,6.6c0.9,1,1.8,1.9,3.5,1.5C13.2,6.5,12.3,5.5,10.6,6.6c-0.5-0.9-0.9-1.9-1.4-2.8
		C9.1,3.5,8.5,3.5,8.1,3.3C8,3.7,7.8,4.2,7.9,4.6C8.2,6,9.3,6.5,10.6,6.6z M15.2,18.1c2.9,0.9,5.9,1.9,8.9,2.8
		c1.5,0.4,2.5-0.8,2-2.3c-0.6-1.6-1.5-3.2-2.6-4.4c-2-2.2-5.1-1.8-6.7,0.9C16.1,16,15.7,16.9,15.2,18.1z M4.9,6.1
		C4.6,6.5,4.2,6.8,4.1,7.3c-0.7,3,3.2,7.4,6.1,7c0.7-0.1,1.4-0.6,2-1.1c1.2-0.9,1.1-1.7-0.3-2.5C9.8,9.3,7,9,5.7,6.5
		C5.6,6.3,5.2,6.3,4.9,6.1z M5.5,22.4c1.7,0.5,3.5,1.1,5-1.2C8.5,21.7,7,22.1,5.5,22.4z"/>
	<path d="M49.7,16.6c-0.6-0.2-1.3-0.3-1.8-0.7c-2.6-2.5-5.3-4.6-9.3-3.7c-1.7-1.4-4.3-1.6-4.8-4.3c-0.6-3.4,1-5.7,4.4-6.1
		c1.4-0.2,2.9,0.1,4.3,0.4C46,3.1,49.5,3.5,53,3.7c4.8,0.2,9.2,1.7,11.7,6.3c1.3,2.4,1.2,3.7-1,5.3c-2.1,1.6-4.1,3.8-7.3,2.2
		c-0.6-0.3-1.9,0.2-2.6,0.7c-2.4,1.9-4.8,2.4-7.6,1c-1.6-0.8-3.3-1.2-4.9,0.4c-0.2,0.2-1.5-0.6-2.3-0.9c0.4-0.5,0.7-1.3,1.3-1.5
		c1.8-0.8,3.5-1.4,5.6-0.4c1.1,0.5,2.5,0.3,3.7,0.4C49.7,17,49.7,16.8,49.7,16.6z M52.1,6.6c-1.4,0-2.5-0.2-3.6,0.1
		c-1,0.2-2.3,0.8-2.6,1.6c-0.3,0.8,0.3,2.1,0.9,2.9c2.5,3,6.1,3.8,9.8,4.1c2.1,0.2,3.7-0.6,5.2-1.8c1.1-0.8,0.9-1.4,0.3-2.3
		C59.7,7.3,56.1,6.2,52.1,6.6z M44.2,4.6c-1.6,0-2.7,0-3.8,0c-1.7,0.1-4-0.5-4.2,1.9c-0.2,2.2,2.2,1.9,3.5,2.4
		c2.4,0.9,2.8,0.6,3.8-1.9C43.8,6.4,43.9,5.8,44.2,4.6z"/>
</g>
</svg>
