<?xml version="1.0" encoding="utf-8"?>
<!-- Generator: Adobe Illustrator 18.0.0, SVG Export Plug-In . SVG Version: 6.00 Build 0)  -->
<!DOCTYPE svg PUBLIC "-//W3C//DTD SVG 1.1//EN" "http://www.w3.org/Graphics/SVG/1.1/DTD/svg11.dtd">
<svg version="1.1" id="Layer_1" xmlns="http://www.w3.org/2000/svg" xmlns:xlink="http://www.w3.org/1999/xlink" x="0px" y="0px"
	 viewBox="0 0 169.2 98.3" enable-background="new 0 0 169.2 98.3" xml:space="preserve">
<path d="M693.3-39.7c-3.4,0-6.8,0.1-10.2,0.1c-2.1,0-4.1,0-5.8-1.8c-0.7-0.8-2.3-1.1-3.5-1c-5.3,0.5-10.5,1-15.7,1.8
	c-3.4,0.5-7.1,0.4-10,2.9c-1.5,1.3-3.5,1.3-5.1,0.7c-3-1.2-6.1-0.9-9.1-0.7c-4.8,0.4-9.6,1.1-14.3,1.8c-0.5,0.1-1.4,0.4-1.4,0.8
	c-0.2,1.6-1.2,1.2-2.1,0.9c-4.5-1.4-9.1-1.8-13.8-1.7c-4.3,0.1-8.6-0.1-12.9-0.1c-7.7,0.1-15.4-0.6-23.1-1c-0.3,0-0.6-0.2-0.9-0.3
	c-1.6-0.5-3.8,1.7-4.8-0.5c-0.5-1.1,0.3-2.9,0.6-4.6c-2,1.3-3.6,2.6-5.4,3.6c-4.1,2.3-8.4,0.8-12.7,0.5c-1.3-0.1-2.6-0.7-3.8-0.4
	c-6.1,1.6-12.2,0.7-18.1-0.5c-2.1-0.4-4-0.7-6.1,0c-1.3,0.4-2.9,0.4-4.3,0.3c-7.5-0.3-15.1-0.9-22.4-3.1c-0.8-0.2-1.5-0.7-2.3-0.7
	c-7.1-0.1-14.2,0-21.9,0c0.8,1.4,1.2,2.2,1.8,2.8c4.2,4.2,6,9.5,7,15.1c0.7,4.1,1.8,8.3,1.5,12.4c-0.3,3.6,0.5,7,0.6,10.4
	c0.1,2.9,0.6,5.7,1,8.6c0.2,1.7,0.3,3.4,0.2,5.1c-0.2,4.3,0.4,8.6,0.8,12.9c0,0.3,1.4,0.9,1.7,0.7c2.8-1.8,5.9-1.3,9-1.5
	c4.1-0.3,8.2-0.8,12.3-1.3c0.6-0.1,1.3-0.6,1.8-0.4c2.4,0.7,4.1,0.6,5-2.2c0.4-1.1,2-1.2,2.9-0.4c1.1,0.9,1.9,2.1,3.3,3.6
	c0.2-1.3,0.3-2.3,0.6-3.3c0.5-1.3,1.1-2.6,1.7-3.8c0.2-0.3,1-0.7,1.2-0.5c0.9,0.6,1.6,1.7,2.5,2c0.6,0.2,1.5-1.2,2.3-1.2
	c0.9,0,2,1.1,2.7,0.9c0.6-0.1,0.7-1.7,1.3-2.4c1.5-2,3-1.7,3.9,0.6c0.5,1.2,0.7,2.5,1.1,3.7c1.1,3.4,2.2,4.4,5.8,3.7
	c9.6-1.8,18.8,0.5,28.1,1.8c5.4,0.8,11,0.2,16.4,0.1c2.7-0.1,5.4-0.5,8.1-0.8c3.3-0.3,6.7-0.6,10.1-0.9c2.6-0.2,5.1-0.2,7.5,1.1
	c3.5,1.8,7.2,2.3,11.2,1c1.9-0.6,3.8-1,6.1-0.5c2.4,0.5,5.1-0.1,7.7-0.3c0.8,0,1.6-0.3,2.4-0.3c3.4,0.2,6.7,0.8,10,0.8
	c5.8,0,11.5,0.8,17.2,1.7c4.3,0.7,8.7,0.1,13.1,0.3c2.9,0.1,5.7,0.8,8.6,0.8c3.5,0,7-0.5,10.5-0.7c0,1,0,1.9,0,2.9
	c-6.9-0.3-13.8-0.6-20.7-1c-3-0.2-5.4,0.4-7.9,2.6c-2.8,2.5-6.7,3.8-10.1,5.6c-0.6,0.3-1.7,0.2-2.1-0.2c-0.4-0.4-0.6-1.5-0.4-2.1
	c0.7-1.6,1.7-3.1,2.5-4.7c1.2-2.2,0.9-3-1.5-3c-4.5-0.1-9.1,0-13.6-0.1c-1.9,0-3.8-0.4-5.7-0.5c-0.2,0-0.3-0.2-0.5-0.2
	c-5.4,0.3-10.9,0.5-16.3,1.1c-4.1,0.4-8.1,0.9-12-1.4c-1.6-0.9-4-0.8-6.1-0.7c-2.4,0.1-4.7,0.8-7.5,1.3c2.2,3.4,3.9,6.9,6.4,9.7
	c1.2,1.4,2.1,2.6,2.9,4.2c0.9,1.8,2.4,3.3,3.6,5c0.3,0.4,0.6,0.8,0.8,1.2c1.9,4,3.8,8.1,5.8,12.1c0.9,1.7,2,3.3,3.1,4.8
	c1.9,2.6,3.3,5.4,2.3,8.5c-0.6,1.9,0,3.1,0.9,4.4c4.2,5.6,9.6,8.9,16.8,8.8c5.3,0,10.6,0.5,15.6-1.6c1.8-0.8,3.1,0.5,4.2,1.6
	c1.1,1.1,0.5,2.5-0.3,3.5c-1,1.2-2.1,2.6-3.4,3.1c-5,2-10.1,4.1-15.6,4.7c-0.8,0.1-1.8,0.1-2.3-0.3c-2.7-2.2-5.3-1.5-8.2-0.3
	c-3,1.2-6.2,2-9.3,0.4c-0.9-0.4-1.9-1.4-2.1-2.3c-1-3.9-3.4-7.3-3.1-11.6c0.1-1-0.8-2.1-1.3-3.1c-0.5-1.2-1.1-1.4-2.6-1.2
	c-3.2,0.5-3.2,0.3-3.9-3c-0.9-4.2-1.5-8.6-5.3-11.5c-0.9-0.7-1.1-2.3-1.7-3.4c-2.9-5-6.3-9.6-8.6-15c-1.3-3.1-4.3-5.5-6.6-8.2
	c-2.1-2.5-4.2-4.8-6.3-7.3c-0.6-0.7-1.1-2.1-1.8-2.2c-3-0.5-6.2-0.1-9.2-1.3c-0.2-0.1-1.2,1-1.5,1.7c-2.2,5-4.3,10-6.4,15.1
	c-1.1,2.7-1.9,5.5-3.4,7.9c-1.2,1.8-3.1,3.3-5,4.4c-2.9,1.6-5.3,3.5-7.8,5.7c-3,2.7-6.2,5-9.4,7.4c-2.4,1.8-5,3.4-7.4,5.2
	c-0.4,0.3-0.8,1.2-0.7,1.6c0.7,3.3,1.3,6.6,2.5,9.8c0.6,1.5,2.2,2.7,3.4,4c0.6,0.7,1.2,1.4,1.8,2.2c0.1,0.2,0,0.7-0.2,0.9
	c-0.1,0.2-0.6,0.2-0.8,0.1c-2.8-2.6-6.1-4.9-6.9-9c-0.4-2.1-0.4-4.5-2.2-6.2c-0.3-0.3,0-1.5,0.2-2.1c0.7-1.6,1.5-3.2,2.4-4.7
	c0.3-0.5,1.3-1.1,1.4-1c2,2,3.1,0,4.3-1.1c4.9-3.9,9.7-7.9,14.6-11.8c1.4-1.1,2.8-2.4,4.4-2.9c2.8-0.8,3.7-2.7,4.7-5
	c2-4.9,4.4-9.6,6.6-14.5c0.9-2,1.8-4.1,2.4-6.3c0.4-1.4-0.1-2.5-1.9-2.5c-1.8,0-3.6-0.1-5.3-0.1c-3.7,0-4.9,1.1-6.2,4.5
	c-2.7,7.3-5.8,14.3-12.9,18.6c-1.3,0.8-2.8,1.9-3.5,3.2c-2.1,4-5.5,6.1-9.3,8c-3,1.5-2.9,1.7-1.5,5c0.3,0.6,0.7,1.2,0.6,1.8
	c0,0.3-1.1,0.9-1.2,0.8c-2.1-2.2-4-0.2-5.4,0.7c-2.4,1.6-4.5,3.6-6.5,5.6c-0.4,0.4-0.6,1.6-0.4,2.1c0.9,1.7,1.5,3.9,4.5,3.5
	c1.1-0.2,3,0.9,3.6,1.9c1.9,3.1,4.4,5.9,5.1,9.7c0.7,3.7,1.5,4.1,5.2,4.2c2.1,0,4.2-0.1,6.3,0.1c1.9,0.1,2.7-0.4,1.9-2.4
	c-0.1-0.2,0.4-0.6,0.7-1c0.7,1.4,1.5,2.7,2.1,4.1c0.1,0.1-1.4,1.2-2.2,1.2c-3.7,0.1-7.4,0.1-11.1,0c-2.2,0-3.3-1.5-4.1-3.5
	c-1.2-3.1-2.7-6.2-3.7-9.3c-0.7-2.1-1.9-2.7-3.9-2.8c-1.2-0.1-2.7-0.4-3.4-1.1c-1.4-1.5-2.3-3.4-3.2-5.3c-0.2-0.4,0.5-1.5,1-2
	c3.3-2.8,5.5-6.9,10-8.2c0.6-0.2,1.2-1.5,1.2-2.2c0-2.3,1.3-3.5,3.2-4.4c3.8-1.9,7.1-4.2,9.5-8c1-1.6,2.7-2.7,4.3-3.8
	c5.9-3.8,8.4-9.9,11.1-15.9c0.4-0.9,0.5-1.8,0.9-2.7c0.5-1,1.2-1.8,1.8-2.8c-1.2-0.3-2.4-0.8-3.5-0.7c-2.9,0.1-5.8,0.5-8.6,0.9
	c-0.8,0.1-1.5,0.9-2.4,1.3c-1.3,0.6-2.7,1.6-3.9,1.4c-1.8-0.3-3.3-0.3-5.1,0.1c-2.2,0.5-4.4-0.4-6.8,0.9c-1.6,0.8-4.2-0.6-6.4,0.2
	c-1.3,0.5-2.5-0.2-3.1-1.6c-1.3-2.8-3.7-3.6-6.4-2.7c-4.6,1.5-9.4,1-14.2,1.4c-2.6,0.2-5.2,0.2-7.2,2.1c-1,0.9-1.7,0.5-2.5-0.1
	c-3.2-2.5-6.6-4.5-10.4-6c-2.2-0.9-3.8-2.9-5.8-4.3c-2.9-2.2-5.6-5.1-8.9-6.5c-4.5-1.9-9.3-3.6-14.4-3.5c-0.8,0-1.7,0.1-2.4-0.1
	c-0.4-0.1-1.1-0.9-1-1.3c0.7-4.4,1.4-8.9,2.5-13.2c2.9-11.7,8.5-22.1,15.8-31.6c1.3-1.6,2.8-3.2,4.5-4.4c1.2-0.9,2.9-1.8,4.4-1.7
	c6.1,0.5,12.1-0.4,18.2-0.3c5,0.1,9.9,0.8,14.7,2.2c0.6,0.2,1.2,0.6,1.8,0.6c7.2,0,14.3,2.2,21.6,0.6c2.2-0.5,4.7,0.3,7.1,0.6
	c2.9,0.3,5.7,0.7,8.6,0.8c6.1,0.3,12.2,0.7,18.3,0.6c1.9,0,4.1-1.1,5.6-2.4c2.5-2.2,4.5-4.9,6.7-7.5c0.4-0.5,0.6-1.2,0.7-1.8
	c0.1-1.2,0.3-2-1.7-1.7c-3.8,0.6-5.6-0.7-6.6-4c-0.3-0.9-0.5-2-0.1-2.8c0.5-1.3,1.3-2.7,2.4-3.4c0.4-0.3,2,1.1,3,1.9
	c1,0.8,1.8,2,2.9,2.5c2.3,0.9,3.5,2.5,3.7,4.9c7.7-2.4,9.3-4.3,10.5-9.2c0.5,0.5,1,0.9,1.4,1.3c1.4,1.6,0.7,3.6,0.9,5.5
	c0.2,1.8,2.8,2.8,1.6,5.2c-0.2,0.4,0.2,1.2,0.6,1.7c0.8,1,1.2,1.9-0.2,2.7c-1.3,0.8-2.7,1.4-3.9,0c-1.6-1.8-1.9-3.6-0.1-5.6
	c-7.7-0.8-12.5,3.1-15.7,12.8c1-0.1,2-0.5,2.8-0.3c8,1.8,16.2,1.5,24.3,1.6c4.8,0.1,9.7-0.1,14.5,0c2.1,0,4.1,0.5,6.2,0.7
	c1,0.1,1.9,0.3,2.9,0.1c5.9-0.7,11.8-1.4,17.6-2.3c3.8-0.6,7.6-1,11.4,0.2c2.2,0.7,4.3,0.5,6.4-1.1c1.3-1,3.2-1.3,4.9-1.5
	c7.1-1,14.3-1.8,21.4-2.6c0.8-0.1,2.1,0.1,2.4,0.7c1.1,1.9,2.8,2,4.6,1.9c3.7-0.2,7.4,0.6,11-0.9C693.3-41.7,693.3-40.7,693.3-39.7z
	 M446.9-19.4c0.3,0,0.7,0,1,0c-0.5,2.1-1.1,4.1-1.7,6.7c2.5-1.8,4-3.5,3.4-6.4c0-0.2-1.2-0.2-1.8-0.2c0-0.7,0-1.3,0-2
	c0.1-0.1,0.3-0.1,0.4-0.2c0.1-0.1,0.1-0.2,0.1-0.3c-0.1,0.2-0.3,0.4-0.4,0.5c-0.3,0-0.7,0-1,0c0.5-1.1,1.1-2.2,1.5-3.4
	c0.7-1.6,0.1-4.1-0.6-3.8c-0.8,0.4-1.4,1.5-1.8,2.4c-0.5,1-0.8,2.1-0.9,3.1c-0.1,1.2,0.8,1.6,1.9,1.6C447-20.6,447-20,446.9-19.4
	c-0.2,0.4-0.5,0.7-0.8,1c0.2,0.1,0.3,0.2,0.5,0.3C446.8-18.5,446.9-18.9,446.9-19.4z M455.7,6.8c0.1,0.4,0.2,0.8,0.2,1.2
	c0.2-0.1,0.3-0.2,0.5-0.3C456.2,7.5,455.9,7.2,455.7,6.8c-0.1-0.4-0.2-0.8-0.3-1.2c-0.2,0.1-0.3,0.2-0.5,0.3
	C455.2,6.2,455.4,6.5,455.7,6.8z M440.2,0c0.3-1,0.6-1.9,1-2.9c1.3-1,1.1-1.9,0-2.9c-0.1-1.6-0.1-3.3-1.9-4.4
	c-1.9,3.2-1.9,6.4-1.5,10.2c1.1-1.3,1.8-2.1,2.5-2.9C440.2-1.9,440.2-0.9,440.2,0c-0.1,0.1-0.3,0.1-0.4,0.2
	c-0.1,0.1-0.1,0.2-0.1,0.3C439.8,0.4,440,0.2,440.2,0z M438.2,2.9c0.3,0.3,0.6,0.5,0.9,0.8c0.1-0.2,0.2-0.3,0.3-0.5
	C439.1,3.2,438.6,3.1,438.2,2.9c-0.4-0.5-0.7-1.1-1.1-1.6c-0.2,0.2-0.4,0.4-0.6,0.6C437.2,2.3,437.7,2.6,438.2,2.9z M577.9-57.2
	c-0.5,0.4-1.1,0.7-1.5,1.2c-0.3,0.4-0.5,0.9-0.7,1.4c0.5,0.1,1,0.3,1.4,0.1c0.4-0.1,1-0.5,1.1-0.9C578.3-55.9,578-56.6,577.9-57.2
	c0.1-0.1,0.2-0.1,0.4-0.2c0.1-0.1,0.1-0.2,0.1-0.3C578.2-57.5,578.1-57.3,577.9-57.2z M456.6-0.9c0.6-1.4,1.2-2.8,1.6-4.2
	c0.1-0.2-0.6-0.6-0.9-1c-0.2,0.3-0.7,0.6-0.7,0.9C456.7-3.8,456.7-2.3,456.6-0.9c-0.3,0.5-0.6,0.9-0.9,1.5c-0.1,0.2,0.2,0.5,0.3,0.8
	c0.2-0.3,0.5-0.6,0.6-0.9C456.7,0,456.6-0.5,456.6-0.9z M466.4,13.6c-0.5,0.4-1,0.8-1.3,1.3c-0.2,0.3,0,0.8,0,1.2
	c1-0.1,2.6,0.1,2.9-0.4C468.7,14.4,467.8,13.7,466.4,13.6c0.3-0.3,0.5-0.7,0.9-1c1.5-0.9,0.5-1.9,0-2.8c-0.2-0.3-0.7-0.5-1-0.7
	c-0.3,0.8-0.7,1.7-0.8,2.5C465.5,12.3,466.1,13,466.4,13.6z M470.2,0c0.4,1.4,0.8,2.8,1.4,4.2c0.1,0.3,0.8,0.5,1.2,0.5
	c0.3,0,0.7-0.5,0.7-0.8c-0.1-1.9-0.2-3.8-0.6-5.6c-0.1-0.5-1.1-0.8-1.7-1.2c0.6-0.9,1.6-1.9,1.7-2.8c0.3-4.7,0.5-9.3-1-13.9
	c0-0.1-1.1,0.1-1.6,0.2c2-4.3,0.1-8.3-1.1-12.4c-0.4-1.4-1.2-0.2-1.8-0.2c0.5-3.9-2.6-6-4.4-8.7c-0.3-0.4-1.2-0.8-1.6-0.6
	c-0.4,0.2-0.7,1-0.7,1.6c0.1,4.5,2.7,7.7,5.7,10.5c0.1,4.1,0,8.2,2.9,11.6c0.4,4.6,0.8,9.3,1.3,13.9c0,0.2,0.4,0.4,0.7,0.6
	C470.9-1.9,470.6-0.9,470.2,0c-0.6,0-1.3,0-1.9,0c2.3-4.4,0.2-8.6-0.5-12.9c-0.2,4.1-0.2,8.2-0.2,12.3c0,0.2,0.4,0.4,0.6,0.6
	c0,1.7,0,3.5,0.1,5.2c0,0.3,0.4,0.6,0.6,0.9c0.3-0.3,0.9-0.6,0.9-1C470.1,3.5,470.1,1.8,470.2,0z M463.5,4.9
	c-0.6,1.1-1.3,2.1-1.8,3.3c-0.1,0.3,0.2,1,0.5,1.2c0.3,0.2,1,0,1.2-0.3C464.5,7.7,465,6.3,463.5,4.9c0.3-0.9,0.9-1.8,0.8-2.7
	c-0.1-1.6,1-3.5-1-4.7c-0.6,1.6-1.3,3.2-1.7,4.8C461.3,3.6,461.6,4.9,463.5,4.9z M464.4-24.2c0.7,3.1,1.3,6.1,2,9.2
	C467.3-18.5,466.1-21.4,464.4-24.2c0.1-3.2-0.3-6.3-3.5-8.5c-0.6,2.5-0.5,4.6,0.6,6.6c-0.6,0.4-1.5,0.6-1.8,1.2
	c-0.5,1-0.6,2.1-0.9,3.2c-0.6,2.8-0.4,3.3,2.6,5.3l0,0c0.5,1.3,0.9,2.7,1.5,4c0.4,0.9,1.1,1.6,1.7,2.4c0.2-1.1,0.5-2.1,0.6-3.2
	c0-0.9-0.4-1.9-0.6-2.8c-0.9-3.4-2.9-6.6-3.2-10.2C462.5-25.5,463.5-24.9,464.4-24.2z M444.1-15.5c0.1,0.4,0.2,0.9,0.2,1.3
	c0.2-0.1,0.3-0.2,0.5-0.3C444.5-14.8,444.3-15.1,444.1-15.5c0-2,0-4.1,0-6.7c-4.1,6.6-4.4,8.1-2.5,11
	C442.3-12.6,443.2-14,444.1-15.5z M451.8-29.1c-0.2,1.1-0.5,2.3-0.7,3.4c1.6-1,2.6-2.4,3.5-3.7c0.1-0.2-0.1-0.8-0.2-0.8
	c-0.4,0-0.8,0-1.1,0.2C452.8-29.8,452.3-29.4,451.8-29.1c0.1-0.5,0.1-1.4,0.4-1.7c2.9-2.1,2.5-5.1,2.4-8c0.1,0,0.3-0.1,0.4-0.1
	c0.1,0,0.1-0.2,0.1-0.3c-0.2,0.1-0.3,0.3-0.5,0.4c-1.1,1.3-2.1,2.7-3.4,3.8c-1.8,1.6-1.6,3.7-1.3,5.7
	C450.1-29.1,451.2-29.1,451.8-29.1z M654.5,35c4-1.1,7.5-3,10.7-5.9c-6.9-1.8-7.7-1.5-10.2,4.1C654.8,33.7,654.7,34.4,654.5,35
	c-0.1,0.1-0.3,0.1-0.4,0.2c-0.1,0.1-0.1,0.2-0.1,0.3C654.2,35.3,654.4,35.1,654.5,35z M460.5-11.6L460.5-11.6
	c-0.3-1.4-0.7-2.9-1.1-4.3c-1.1,2.3-2.3,5-1.4,6.5c1.6,2.6,1.5,5.5,2.9,8c0.7-1.5,1.4-2.8,2-4.3C463.7-8,462.8-10.1,460.5-11.6z
	 M601.2,45.7c-0.1-0.4-0.2-0.8-0.3-1.3c-0.1,0.1-0.3,0.2-0.4,0.3C600.7,45,600.9,45.3,601.2,45.7c0.2,2.1,2.1,4,0.3,6.6
	c-0.5-0.8-1-1.4-1.2-2.1c-2.1-7.9-5-15.4-10.2-22c-1-1.3-1.8-2-3.5-1.9c-3.7,0.4-7.3,0.6-11,1c-1.4,0.1-1.6,1-0.8,2
	c1.3,1.6,2.8,3.1,4.1,4.7c4.2,5.2,9.7,9.3,11.5,16.2c0.1,0.5,0.4,0.9,0.6,1.3c1.9,3.2,3.8,6.3,5.7,9.5c0.7,1.1,1.2,2.4,2.1,3.2
	c2.8,2.3,4,5.3,4.5,8.8c0.2,1.5,0.8,2.9,1.3,4.5c2.7-1.3,5.1-2.6,7.7-3.5c2.3-0.7,2.6-2.3,2.3-4.1c-0.2-1.2-0.8-2.4-1.3-3.6
	c-3.2-6.1-6.4-12.2-9.7-18.3C603.1,47,602,46.4,601.2,45.7z M635.3,95.3c4.5-1.5,9.4-2.9,14.3-4.6c1-0.3,1.7-1.4,2.4-2.3
	c0.9-1.1,0.1-2.7-1.4-2.7c-0.5,0-1,0-1.4,0.2c-5.4,2.1-11.1,2-16.7,1.6c-5.5-0.4-10.8-1.8-14.1-7.1c-0.9-1.5-2.3-2.7-3.6-3.9
	c-1.4-1.3-2.7-0.3-4,0.4c-1.4,0.8-0.9,1.9-0.3,2.9c1.1,1.9,1.3,3.9,1.5,6c0.4,4,2.2,7.2,6.5,7.8c2,0.3,4.1,0.2,6.1-0.1
	c2.6-0.4,5-0.9,7.4,0.9C632.8,94.8,633.9,94.9,635.3,95.3z M562.6-54.4c0.2-0.1,0.8-0.3,1.4-0.5c-0.3-0.7-0.5-1.4-0.9-2
	c-0.7-0.9-1.5-1.7-2.4-2.3c-0.7-0.5-1.5-0.8-2.3-1.1c-0.2,0.9-0.7,1.8-0.6,2.7C557.9-55.4,559.5-54.3,562.6-54.4z M526.9,15.7
	c-0.3,2.1-0.7,3.3-0.7,4.6c0,1.7,0.2,3.4,0.6,5.1c0.1,0.4,1.3,0.8,2.1,0.8c1.4,0,0.6-1,0.6-1.7C529.3,21.5,528.7,18.8,526.9,15.7z
	 M516.2,17.4c-0.5,3.1-1,5.6-1.3,8.1c0,0.4,1.1,1.4,1.3,1.3c0.7-0.4,1.8-1.1,1.8-1.7c0.1-1.9-0.2-3.8-0.5-5.7
	C517.5,18.9,517,18.4,516.2,17.4z M520.7,21.4c0,1.7-0.1,2.5,0,3.3c0.2,1.6,1.4,1.6,2.5,1.4c1.1-0.2,1-1,0.7-1.8
	c-0.2-0.8-0.2-1.6-0.5-2.3c-0.5-1.1-1.2-2.1-1.9-3.1C521.2,20,520.8,21.1,520.7,21.4z M452.8-4.7c0,1.2,0,1.4,0,1.5
	c0.3,1.3-0.8,2.9,0.9,3.8c0.6-1.2,1.4-2.4,1.7-3.6c0.3-1.2,0.1-2.5,0-3.8c0-0.3-0.7-0.7-1.1-0.7c-0.4,0-1.1,0.3-1.2,0.6
	C452.9-5.9,452.8-4.8,452.8-4.7z M455.7-22.8c-0.2,0.5-0.2,1-0.4,1.4c-0.5,1-0.5,2,0.6,2.3c0.4,0.1,1.4-1,1.6-1.7
	c0.5-1.3,0.6-2.8,0.9-4.2c0.2-1,0.1-2-1.2-2.1c-1.3-0.1-2.2,0.7-2.2,2C455-24.3,455.4-23.5,455.7-22.8z M459.6-38.4
	c-0.3-1.3,0.5-3-1.5-3c-1.5,0-1.3,1.5-1.5,2.5c-0.2,0.6-0.6,1.2-0.6,1.8c0,0.7,0.1,1.8,0.5,2c1.1,0.6,2.2,0.1,2.7-1.1
	C459.5-37,459.5-37.8,459.6-38.4z M449.8-13.1c-2.7,1-3,2.9-2.7,5c0.1,1,0.8,1.9,1.2,2.8c0.5-0.8,1.3-1.6,1.5-2.5
	C450-9.5,449.8-11.2,449.8-13.1z M453.8-22.3c-0.1-0.4-0.2-1.6-0.8-2.3c-0.6-0.6-2,1.4-2.1,3.1c0,0.6-0.1,1.3,0,1.9
	c0.2,0.7,0.6,1.3,1,1.9c0.6-0.5,1.3-0.9,1.6-1.5C453.9-19.9,453.7-20.8,453.8-22.3z M456.7-14.6c-0.2-0.4-0.7-1.4-1.1-2.4
	c-0.3,1-0.6,2-0.9,3c-0.3,0.9-0.7,1.8-0.8,2.7c0,0.5,0.5,1,0.8,1.5c0.6-0.4,1.5-0.6,1.7-1.1C456.8-11.8,456.6-12.8,456.7-14.6z
	 M457-29.1c2.1-0.4,2.7-1.6,2.5-3.2c-0.1-0.6-0.8-1.4-1.3-1.5c-1.5-0.2-2.7,1.5-2.3,3.3C455.9-29.9,456.7-29.4,457-29.1z
	 M474.2,15.9c-0.1-0.7,0-1.5-0.3-2.3c-0.1-0.3-0.7-0.7-1.1-0.7c-0.4,0-1.1,0.2-1.2,0.5c-0.6,1.6-0.8,3.1,0.5,4.5
	c0.2,0.2,0.6,0.5,0.8,0.4c0.4-0.1,0.8-0.4,1-0.8C474.2,17,474.1,16.4,474.2,15.9z M450.9-8.3c0.3,0,0.5,0.1,0.8,0.1
	c0.6-2.4,1.2-4.8,1.7-7.2c0-0.2-0.3-0.6-0.5-0.7c-0.2-0.1-0.7,0-0.9,0.2c-0.5,0.6-1.1,1.3-1.1,2C450.8-12.1,450.9-10.2,450.9-8.3z
	 M474.2,9.4c-0.1-1.2,0-1.7-0.2-2.1c-0.1-0.4-0.5-1.1-0.7-1c-0.6,0.1-1.2,0.4-1.6,0.8c-0.3,0.3-0.4,0.9-0.4,1.3
	c-0.1,1.3,0.1,2.8,1.6,2.9C473.4,11.3,473.9,9.7,474.2,9.4z M508.2,23.9c0,0.4-0.1,1.1,0.2,1.6c0.3,0.6,1,1,1.5,1.5
	c0.3-0.6,1-1.2,0.9-1.7c-0.1-1-0.6-2-1.1-3c-0.1-0.2-0.6-0.5-0.7-0.4c-0.3,0.2-0.6,0.6-0.8,0.9C508.1,23,508.2,23.3,508.2,23.9z
	 M475.6,21.6c-1.1-0.8-1.9-1.3-2.7-1.9c-0.4,0.7-1.3,1.7-1.1,1.9c0.5,0.7,1.4,1.1,2.2,1.4C474.2,23.1,474.7,22.4,475.6,21.6z
	 M468.9,20.1c-1.1-1-1.7-1.8-2.5-2.3c-0.2-0.1-0.9,0.6-1.4,0.9c0.8,0.7,1.5,1.4,2.3,2C467.4,20.8,467.9,20.5,468.9,20.1z M458.6,4.4
	c0.3-1.9,0.7-3.7,1.2-6.5C457.6,0.4,457.2,2.2,458.6,4.4z M465.6,3.2c0,1.4,0,2.5,0,3.7c0,0.2,0.5,0.6,0.6,0.6
	c0.4-0.2,0.8-0.4,0.9-0.8C467.4,5.5,467.5,4.2,465.6,3.2z M445.6-5.3c-0.2,0-0.4,0.1-0.6,0.1c0,0.9-0.1,1.8,0,2.7
	c0.1,0.5,0.7,0.9,1,1.3c0.2-0.5,0.6-1.1,0.5-1.6C446.5-3.7,446-4.5,445.6-5.3z M463.6,12.4c-0.4-0.6-0.7-1-0.9-1.4
	c-0.4,0.4-0.9,0.7-1.1,1.2c-0.1,0.3,0.4,0.7,0.6,1.1C462.7,13,463.1,12.7,463.6,12.4z M452,6.1c-0.5-0.4-0.9-0.7-1.2-0.9
	c-0.3,0.5-0.7,0.9-0.8,1.4c0,0.2,0.5,0.6,0.8,0.8C451.2,7.1,451.5,6.7,452,6.1z M449.1,1.3c0.2,0,0.3-0.1,0.5-0.1c0-1.4,0-2.9,0-4.3
	c-0.2,0-0.3,0-0.5,0C449.1-1.7,449.1-0.2,449.1,1.3z M448,4.7c-0.3-0.1-0.9-0.5-1.1-0.4c-0.4,0.3-0.8,0.9-0.8,1.4
	c-0.1,0.5,0.3,1,0.4,1.5C446.9,6.5,447.3,5.9,448,4.7z M443-1c-0.2-0.1-0.4-0.2-0.5-0.3c-0.2,0.7-0.6,1.4-0.7,2.1
	c-0.1,0.5,0.2,1,0.4,1.6c0.3-0.4,0.8-0.7,0.9-1.1C443.1,0.5,443-0.3,443-1z M466.1-2.1c-0.2,0-0.4,0.1-0.6,0.1
	c0.1,1.1,0.1,2.1,0.2,3.2c0.1,0,0.3,0,0.4,0C466.1,0.1,466.1-1,466.1-2.1z M454.4,3.5c-0.4-0.4-0.6-0.6-0.8-0.9
	c-0.2,0.6-0.5,1.2-0.7,1.9c-0.1,0.2,0.2,0.5,0.3,0.8C453.6,4.7,454,4.1,454.4,3.5z M445.7,2.2c-0.4-0.6-0.7-1-1.1-1.5
	c-0.2,0.5-0.5,1-0.5,1.4c0,0.4,0.5,0.8,0.8,1.2C445.2,3,445.4,2.6,445.7,2.2z M444.3-7.4c0.2-0.1,0.3-0.1,0.5-0.2c0-1.1,0-2.2,0-3.3
	c-0.2,0-0.3,0-0.5,0C444.3-9.7,444.3-8.6,444.3-7.4z M469.7,11.1c0.1-0.1,0.3-0.2,0.3-0.3c0-0.8-0.1-1.5-0.1-2.3c0,0-0.2,0-0.3-0.1
	c-0.1,0.7-0.1,1.5-0.2,2.2C469.4,10.9,469.6,11,469.7,11.1z M580.8-48.6c-0.4-0.4-0.8-0.9-1.2-1.3c-0.1,0.3-0.4,0.6-0.3,0.8
	c0.2,0.4,0.5,0.7,0.8,1.1C580.2-48.2,580.4-48.3,580.8-48.6z M470.2,15c-0.2-0.3-0.4-0.5-0.5-0.7c-0.1,0.3-0.3,0.6-0.3,0.9
	c0,0.3,0.2,0.6,0.3,0.9C469.9,15.6,470.1,15.3,470.2,15z M451.5-3.3c0.1-0.6,0.2-1.1,0.2-1.5c0-0.1-0.2-0.2-0.3-0.4
	c-0.2,0.4-0.4,0.7-0.4,1.1C451-3.9,451.3-3.7,451.5-3.3z M448.3,7.5c0,0.1-0.1,0.3-0.1,0.4c0.2,0,0.4,0,0.6,0.1c0-0.1,0-0.3-0.1-0.4
	C448.6,7.5,448.4,7.5,448.3,7.5z M459.1,7.3c0.1-0.1,0.3-0.1,0.3-0.2c0-0.1,0-0.3,0-0.5c-0.2,0.1-0.4,0.2-0.5,0.3
	C458.8,6.9,459,7.1,459.1,7.3z M442.9-8.8c-0.1-0.1-0.2-0.3-0.2-0.4c-0.1,0.1-0.3,0.3-0.3,0.3c0.1,0.2,0.3,0.3,0.4,0.5
	C442.8-8.5,442.9-8.6,442.9-8.8z M442,4.7c-0.1-0.1-0.2-0.2-0.3-0.3c-0.1,0.2-0.3,0.5-0.3,0.7c0,0.1,0.2,0.2,0.3,0.3
	C441.7,5.2,441.8,5,442,4.7z M462,15.1c0.2,0.1,0.5,0.3,0.7,0.3c0.1,0,0.3-0.2,0.3-0.3c0-0.1-0.2-0.3-0.2-0.3
	C462.4,14.9,462.2,15,462,15.1z M617.3,95.5c0,0.1,0,0.2,0.1,0.3c0.1,0.1,0.3,0.1,0.4,0.1c0-0.2-0.1-0.3-0.1-0.5
	C617.6,95.4,617.5,95.4,617.3,95.5z M452.3,9.2c0.2,0.1,0.5,0.3,0.7,0.3c0.1,0,0.2-0.2,0.3-0.3c-0.2-0.1-0.5-0.3-0.7-0.3
	C452.5,8.9,452.4,9.1,452.3,9.2z M460.3,9.6c-0.1-0.1-0.2-0.2-0.3-0.3c-0.1,0.2-0.2,0.5-0.3,0.7c0,0.1,0.2,0.2,0.3,0.3
	C460.1,10,460.2,9.8,460.3,9.6z"/>
<path d="M6.4,59c0.6-0.9,1.2-1.8,2.3-3.3c-2.1,0.6-3.6,0.9-5.1,1.4c-0.8,0.3-1.4,1.7-2.3,0.5c-0.3-0.4,0.3-1.5,0.4-2.3
	c0.3-0.3,0.6-0.7,1-1c0.6-0.3,1.3-0.6,1.9-1c0.4-0.1,0.8-0.2,1.3-0.3c-0.1-0.2-0.2-0.3-0.3-0.5c-0.3,0.3-0.6,0.5-0.9,0.8
	c-0.6,0.3-1.3,0.6-1.9,1c-0.3,0.3-0.7,0.6-1,1c-0.9-0.1-2.1-0.2-1.6-1.6c1.1-3,3.2-4.6,6.4-4.7c0.7,0,1.3-0.3,2-0.5
	c1.1,2.1,2.1,4.2,3.5,6.9c-1.1-6.7-1.4-7.3-4.5-11.3c0.4,1.8,0.8,3.2,1.1,4.5c-3-1.8-2.3-5.3-4.3-8.3c3.8,0.5,5.1,2.9,6.1,5.3
	c1.1,2.7,2.9,4.2,5.9,3.9c0.1,0.1,0.1,0.3,0.2,0.4c0.1,0.1,0.2,0.1,0.3,0.1c-0.2-0.2-0.3-0.3-0.5-0.5c-1.3-1.3-2.7-2.6-4-3.9
	c-0.3-0.3-0.4-0.8-0.6-1.2c0.5-0.2,1.1-0.7,1.6-0.6c1.4,0.3,2.7,0.9,4.1,1.2c0.2,0,0.5-0.9,0.8-1.3l0.1-0.1c1.9,0.9,2.3,2.5,2.8,4.5
	c-1.9-0.6-3.3-1.1-4.8-1.5c0-0.1-0.1-0.3-0.2-0.4c-0.1-0.1-0.2-0.1-0.3-0.1c0.2,0.2,0.3,0.3,0.5,0.5c0.4,0.5,0.6,1.1,1.1,1.6
	c1.6,1.5,3.5,1.9,4.1,0.8c0.9-1.4,0.9-3-0.2-4.4c-0.5-0.6-1.1-1.1-1.6-1.8c-0.8-1-1.6-1.9-2.4-2.9c0,0,0,0,0,0
	c1.1,0.5,2.3,0.9,3.9,1.6c-0.2-2-0.5-3.8-0.7-5.5c1.7,0.8,1.7,0.8,4.5,4.9c0,0,0,0,0,0c-0.1,1.2-0.6,2.5-0.4,3.7
	c0.2,0.9,0.5,3,2.3,1.2c0,0,0,0,0,0c0.5-0.4,1.4-0.9,1.3-1.1c-0.6-2.5,0.9-4,2.9-6.1c-0.2,1.9-0.3,3.1-0.4,4.3
	c-0.1,0.1-0.3,0.1-0.4,0.2c-0.1,0.1-0.1,0.2-0.1,0.3c0.2-0.2,0.3-0.3,0.5-0.5c2.6-1,2.7-2.8,1.8-5c-1-2.4-1.6-4.8,0.6-7.7
	c0.8,2,1.4,3.6,2.1,5.2c0.2,0.5,0.8,0.8,1.2,1.2c0.3-0.4,0.8-0.7,0.8-1.1c-0.2-6.5,2.7-12.9,0.5-19.5c-1.2-3.6,0-5.7,3.4-7.7
	C46,5.1,51.2,3.1,57,2.9c1.1,0,2.2-0.3,3.3-0.6c6.3-1.4,12.6-2.5,19-2.2c5.3,0.2,10.5,1.1,15.8,1.5c4.7,0.3,9.3,0.2,14,0.5
	c2.9,0.2,5.8,0.4,8.5,1.2c3.6,1.1,4.3,3.2,2.8,6.8c-0.1,0.1-0.1,0.3-0.2,0.4c-4.7,6.2-2.9,13.1-2.4,19.9c0.2,3.2,0.4,6.4,0.7,9.9
	c2.2-1.2,4.4-2.4,6.5-3.5c2.6-1.4,0-4.8,2.9-6.5c0.7,1.6,1.3,3.2,1.9,4.8c0.7,2.1,1,2.1,3.1,1.2c1.7-0.8,3.4-1.3,5.1-1.9
	c1.4,2.1-0.3,4.7,2.1,6.1c0.1,0-0.2,1-0.5,1.5c-0.4,0.5-1.1,0.7-1.4,1.3c-0.3,0.5-0.2,1.2-0.2,1.8c0.6,0,1.1-0.1,1.7-0.1
	c0.3,0,0.6-0.1,1-0.1c0,0.3,0,0.7,0,1c-0.3,0.3-0.6,0.6-1,1c-0.3,0.3-0.6,0.6-1,1c-0.3,0.3-0.6,0.6-1,1c-0.1,0.1-0.3,0.1-0.4,0.2
	c-0.1,0.1-0.1,0.2-0.1,0.3c0.2-0.2,0.3-0.3,0.5-0.5c0.3-0.3,0.6-0.6,1-1c0.3-0.3,0.6-0.6,1-1c0.3-0.3,0.6-0.6,1-1
	c0.8-0.3,0.7-0.6,0-0.9c0.3-0.9,0.6-1.8,0.7-2.7c0.4-2.2,1.1-2.5,2.6-0.7c0.4,0.5,1.4,0.6,2.3,1c-0.8,0.9-1.7,1.7-2.3,2.6
	c-0.5,0.7-0.6,1.5-0.9,2.3c0.8-0.2,1.5-0.3,2.3-0.5l0,0c0.3,0.6,0.7,1.3,1,1.9l0,0c0.1,1.7,1.1,2.1,2.6,1.9c1.8-0.2,2.5,0.3,1.1,2
	c-0.2,0.2-0.1,1.1,0,1.2c0.5,0.3,1.3,0.6,1.6,0.4c1.2-0.7,2.2-1.6,3.3-2.5c0.1-0.1,0.3-0.1,0.4-0.2c0.1-0.1,0.1-0.2,0.1-0.3
	c-0.2,0.2-0.3,0.3-0.5,0.5c-1.3,0-2.6-0.5-1.3-1.9c1-1,2.7-1.6,4.2-2c1.6-0.3,2.6,0.8,3.5,2.7c-5.1-0.8-5.2,4.2-7.9,6.3
	c-0.1,0.1,0.2,1,0.5,1.1c0.3,0.1,1-0.2,1.2-0.5c2.4-4.6,7-5.4,11.3-6.6c0.4-0.1,1.2,0,1.3,0.2c0.5,1.9,1,3.8,1.4,5.8
	c0,0.1-0.6,0.5-0.7,0.4c-0.4-0.2-0.7-0.6-1.1-0.8c-1.1-0.8-2.5-2.3-3.4-2c-2.4,0.7-3.8,2.8-4.9,5c-0.2,0.3,0.5,1.1,0.7,1.6
	c0.1,0.4,0.3,1,0.2,1.2c-1,1.1-5,1.2-7,0.2c1.5-0.3,3.3,0.5,4.4-1.3c-2.2-2.3-5.4-1.3-7.9-2.4c-0.1-0.1-0.8,1-1.2,1.6
	c0.5,0.3,1,0.8,1.4,0.8c0.9-0.1,1.8-0.6,2.8-0.6c1.9,0,0.7,1.2,0.6,1.9c-1.3,0.6-2.6,1.3-3.9,1.9c0-0.3,0-0.6,0-1
	c0.1-0.1,0.3-0.1,0.4-0.2c0.1-0.1,0.1-0.2,0.1-0.3c-0.1,0.2-0.3,0.3-0.4,0.5c-0.6,0.3-1.3,0.6-1.9,1c-0.3,0.3-0.7,0.6-1,1
	c-2,0.3-3.1,1.2-2.5,4.1c1-1.8,1.8-2.9,2.5-4.1c0.3-0.3,0.6-0.7,1-1c0.6,0,1.3,0,1.9,0c0,0.5,0,1,0.1,1.4c0.1,1.6,0,3.3,0.6,4.7
	c0.2,0.4,2.4-0.1,4,0.6c-1.3,0.8-2.5,2.3-3.9,2.4c-2.3,0.2-3.6,1.9-5.5,2.6c-0.4,0.1-0.5,1-0.7,1.5c0.6,0.2,1.5,0.8,1.9,0.6
	c1.6-0.8,3-1.8,4.5-2.8c0.7-0.4,1.3-0.9,2.2-1.1c-0.3,2-1.8,2.9-3.4,3.8c-3.2,1.8-3.2,1.8-1.9,5.2c0.2,0.4,0.2,0.9,0.2,1.4
	c-0.7-0.3-1.3-0.6-2-1c-0.3-0.6-0.6-1.3-1-1.9c-0.1-0.4-0.2-0.8-0.3-1.3c-0.2,0.1-0.3,0.2-0.5,0.3c0.3,0.3,0.5,0.6,0.8,0.9
	c0.3,0.6,0.6,1.3,1,1.9c0,1.4-0.3,3,1.9,2.9c0,0.1,0.1,0.3,0.2,0.4c0.1,0.1,0.2,0.1,0.3,0.1c-0.2-0.2-0.3-0.3-0.5-0.5
	c0-0.7,0-1.3,0-2c0.7,0.8,1.5,1.6,1.9,2.5c0.5,1.4-0.2,2.1-1.6,1.5c-3-1.1-5.9-2.1-8.8-3.5c-2.2-1-3.1-0.2-4.1,1.7
	c0-1.1,0-2.2,0-3.2c0.1-0.1,0.3-0.1,0.4-0.2c0.1-0.1,0.1-0.2,0.1-0.3c-0.2,0.2-0.3,0.3-0.5,0.5c-0.3,0-0.7,0-1,0l0,0
	c0-0.6,0-1.3,0-1.9l0,0c0-0.3,0-0.6,0-0.9l-0.1-0.1c0.3-1.3,0.7-2.6,1-3.9c0.3,0,0.7,0,1,0c0.3,0.3,0.6,0.5,0.9,0.8
	c0.1-0.2,0.2-0.3,0.3-0.5c-0.4-0.1-0.9-0.2-1.3-0.3c0-0.3,0-0.7,0-1c0.1-0.1,0.3-0.1,0.4-0.2c0.1-0.1,0.1-0.2,0.1-0.3
	c-0.2,0.2-0.3,0.3-0.5,0.5c-0.3,0.3-0.7,0.6-1,1c-3.4,1.9-3.4,2-2,4.8l0,0c-0.1,0.3-0.2,0.6-0.4,0.8c-0.6,1.2-1.1,2.2-2.3,0.4
	c-0.2-0.3-0.8-0.2-1.3-0.3l0,0c0.3-0.7,0.6-1.3,1-2c0.1,0.1,0.1,0.3,0.2,0.4c0.1,0.1,0.2,0.1,0.3,0.1c-0.2-0.2-0.3-0.3-0.5-0.5
	c0.3-2.3,0.6-4.5,1-6.8c0.1,0,0.3-0.1,0.4-0.2c0.1-0.1,0.1-0.2,0.1-0.3c-0.2,0.2-0.3,0.3-0.5,0.5c-0.6,1.4-1.6,2.8-1.8,4.3
	c-0.4,3.5-3.6,3.1-5.5,4.5c-0.3-0.4-0.9-0.9-0.8-1.2c0.7-1.6,1.5-3.1,2.3-4.6c0.3-0.3,0.6-0.7,1-1c0.3-0.3,0.6-0.6,1-1
	c0.3-0.3,0.6-0.6,1-1c0.3-0.3,0.6-0.7,1-1c0.1-0.1,0.3-0.1,0.4-0.2c0.1-0.1,0.1-0.2,0.1-0.3c-0.2,0.2-0.3,0.3-0.5,0.5
	c-0.3,0.3-0.6,0.6-1,1c-0.3,0.3-0.6,0.6-1,1c-0.3,0.3-0.6,0.6-1,1c-0.3,0.3-0.7,0.6-1,1c-1,0.5-1.9,1.1-2.9,1.5
	c-0.4,0.1-1.3-0.3-1.3-0.3c0.7-3.7-2.8-1.4-3.9-3.9c-0.5,2.8-0.7,4.5-1,6.2c-2-0.8-1.5-2.5-1.6-3.9c-0.1-1.8-0.4-3.1-2.5-3.5
	c-1.1-0.2-1.1-0.5,0.6-2l0.1,0.1c2.7,1.7,2.8,1.7,3.9-0.3c1-1.8,1.9-3.7,2.9-5.6c0.2-0.3,0.8-0.6,1.1-0.6c0.3,0.1,0.7,0.7,0.7,1.1
	c-0.1,0.9-0.3,1.9-0.6,2.8c-0.5,1.3-1.4,2.6-1.8,3.9c-0.6,1.7,1.1,1.7,2,2.1c1.1,0.5,1.4-0.4,1.4-1.3c0.1-1.8,0-3.6,0.1-5.3
	c0-0.5,0.6-1.3,1-1.4c0.5,0,1.3,0.5,1.5,0.9c0.7,1.6,1.2,3.3,1.8,5.1c1-0.6,2-1.1,2.8-1.8c2-1.9,1.7-2.9-0.8-4.2
	c-2.7-1.4-5.6-2.6-7.8-4.6c-1.6-1.5-2.2-1.2-3.4,0c-0.6,0.5-1.3,0.9-1.9,1.4l0,0c-0.3-0.8-0.7-0.8-1,0l0,0c-2.7,0.2-4.1,2-4.5,4.3
	c-0.4,2.1,1.1,0.3,1.6,0.5l0,0c-1.1,2.4-2.3,4.7-3.4,7.1c-0.1,0-0.3,0-0.4,0c0.6-4.1,1.1-8.2,1.7-12.3c-3,4.3-1.8,9.7-4.6,14.1
	c0.3-3,0.6-6,0.8-8.9c0.1,0,0.3-0.1,0.4-0.1c0.1-0.1,0.1-0.2,0.1-0.3c-0.2,0.2-0.3,0.3-0.5,0.5c-0.7,1.4-1.3,2.8-2,4.2
	c-0.4,0.8-0.8,1.5-2,2.1c0-4,0-8.1,0-12.1c2.1,1.7,0.3,4.2,1.6,6.7c1.2-2.5,2.3-4.6,3.3-6.7c0.3-0.3,0.7-0.6,1-1
	c0.3-0.3,0.6-0.6,1-1c0.1-0.1,0.3-0.1,0.4-0.2c0.1-0.1,0.1-0.2,0.1-0.3c-0.2,0.2-0.3,0.3-0.5,0.5c-0.3,0.3-0.6,0.6-1,1
	c-0.3,0.3-0.6,0.7-1,1c-0.3,0-0.6,0-1,0l-0.1-0.1c-0.4-1.2-0.8-2.3-1.6-4.5c-1.1,2.2-1.6,3.4-2.2,4.5c-2.2,1.8-2.1,4.2-1.8,6.6
	c0.1,0.8,0.6,1.6,0.6,2.3c-0.3,5.3-0.3,5.3,1.7,9.4c1.6,3.3,3.2,6.6,4.9,9.9c0.9,1.8,0,3.6-1.9,3.2c-2.3-0.4-4.9,0-6.8-2
	c-0.7-0.7-2.3-2-2.6,0.6c0,0.1-0.6,0.4-0.7,0.3c-0.4-0.3-0.9-0.8-0.9-1c0.3-1.7,0.7-3.4,1.2-5.1c0.3-1.2,1.2-2.4,1.1-3.6
	c0-1.6-1.1,0-1.7-0.2l0,0c0.8-1.3,1.6-2.6,2.3-4c0.9-1.6-0.4-2.3-1.3-3.1c-0.9-0.9-1.7-0.3-2.4,0.4c-1.5,1.6-3,3.2-4.5,4.7
	c-0.3-0.8-0.6-0.9-0.9,0c-0.3,0-0.7,0-1,0c0.3-2.9,2.6-4.4,4.7-5.7c2.1-1.3,2.4-2.7,1.3-4.7c-0.3-0.5-0.3-1.2-0.5-1.8
	c-0.5-1.2-1.6-1.3-2.1-0.2c-1.8,3.9-3.7,7.7-5.1,11.8c-0.6,1.9,1.1,0.5,1.7,0.6c0.3,0.8,0.6,0.9,0.9,0c0.3,0,0.7,0,1,0
	c-0.3,1.5-0.6,2.8,1,3.9c0.9,0.7,1.3,1.9,2,2.9c-0.1,0.1-0.3,0.1-0.4,0.2c-0.1,0.1-0.1,0.2-0.1,0.3c0.1-0.2,0.3-0.3,0.4-0.5
	c0.3,0,0.7,0,1,0c0,0,0,0,0,0c0,0.8,0.2,1.6,0,2.3c-0.3,1.9-0.8,2.3-2.7,1.3c-1.3-0.7-1.9-0.3-2.9,0.4c-1,0.7-2.1,1.2-3.1,1.8l0,0
	c1.1-1.8,2.4-3.4,4.6-4c0.2-0.1,0.4-0.6,0.5-0.9c-0.4-0.1-1-0.5-1.2-0.3c-1.9,1.4-3.8,2.9-5.7,4.3c0,0-0.2-0.2-0.2-0.2
	c0.4-1.3,0.7-2.5,1.1-3.8l0,0c0.3-0.7,0.6-1.3,1-2c0.3-0.3,0.6-0.7,1-1c0.3,0,0.7,0,1,0c0.1,0.4,0.2,0.9,0.3,1.3
	c0.2-0.1,0.3-0.2,0.5-0.3c-0.3-0.3-0.5-0.6-0.8-0.9c0-0.7,0-1.3,0-2c0.1-0.1,0.3-0.1,0.4-0.2c0.1-0.1,0.1-0.2,0.1-0.3
	c-0.2,0.2-0.3,0.3-0.5,0.5c-0.3,0.6-0.6,1.3-1,1.9c-0.3,0.3-0.7,0.6-1,1c-0.3,0-0.7,0-1,0c0,0,0,0,0,0c0-1.6-0.1-3.2,0-4.8
	c0.3-3.4-1-5.5-4.4-6.4c-0.1,0.5-0.2,1-0.4,1.3c-0.3,0.6-0.8,1.1-1.2,1.7c-0.2-0.7-0.8-1.5-0.5-2c1-2.2,0.7-5.2,3.6-6.4
	c0,0.3,0,0.7,0,1c-0.2,0.8-0.8,1.9-0.5,2.2c0.8,0.9,1.9,2,3,2.2c2,0.5,1.1-1.9,1.9-2.6c0.6-0.5,1-1.2,1.4-1.8c0.3,0.8,0.6,0.8,0.9,0
	c0.1-0.1,0.3-0.1,0.4-0.2c0.1-0.1,0.1-0.2,0.1-0.3c-0.1,0.2-0.3,0.3-0.4,0.5c-0.3,0-0.7,0-1,0c0.2-2.4,1.7-4,3.2-5.7
	c2.2-2.5,2.2-3.1-0.3-6.6c-1.7,2.3-3.2,4.5-4.8,6.6c-1.2,1.6-2.6,3.1-3.8,4.7c0.3-1.3,0.6-2.6,0.9-3.9c0.3-0.3,0.6-0.6,1-1
	c0.1-0.1,0.3-0.1,0.4-0.2c0.1-0.1,0.1-0.2,0.1-0.3c-0.2,0.2-0.3,0.4-0.5,0.5c-0.3,0.3-0.6,0.6-1,1c-2.8,1.6-4,4.5-5.5,7.2
	c-0.7,1.2-1.1,2-2.4,0.5c-1-1.2-1.6-0.4-1.8,0.8c-0.2,1.2,0.4,3.1-1.4,3c-2.2,0-1.4-2.1-1.5-3.4c-0.1-1.1,0-2.2-0.6-3.4
	c-0.2,1.9-0.4,3.8-0.7,5.8c-3.5-2.3-3.5-2.3-2.6-4.6c0,0.1,0.1,0.3,0.2,0.4c0.1,0.1,0.2,0.1,0.3,0.1c-0.2-0.2-0.3-0.3-0.5-0.5
	c-0.6-1.4-1.2-2.2-2.7-0.8c-0.5,0.5-1.4,0.5-2.1,0.8l0,0c0.3-0.6,0.6-1.1,0.9-1.7c1-2,1-2-0.9-3.8c-0.2-0.2-0.5-0.2-0.8-0.3
	c0.3,1.3-2,2.5-0.1,3.9l0,0c0,0.7,0,1.3,0,2c0,0,0,0,0,0c-0.3,0.7-0.7,1.3-1,2l0,0c-0.6-0.2-2.1,1.1-1.6-0.2
	c1.6-4.5-1.5-8.5-0.2-13.2c-2,1.7,0.1,4.5-2.6,5c0.2-1.7,0.2-3.4,0.5-5.1c0.6-3.3,1.3-6.6,1.9-9.9c0.3-0.3,0.5-0.6,0.8-0.9
	c-0.2-0.1-0.3-0.2-0.5-0.3c-0.1,0.4-0.2,0.9-0.3,1.3c-1.3,3.9-2.6,7.8-3.9,11.6c-0.4,1.1-0.5,2.2-1.1,3.1c-0.5,0.8-0.3,2.5-2.1,2
	c-1.2-0.4-1.8-1.2-1.8-2.5c0-0.6-0.1-1.3-0.2-3.1c-0.5,2-0.7,2.9-1.1,4.5c-0.8-1.9-1.4-3.2-1.9-4.5c-0.4,0.7-0.7,1.3-1.2,2.2
	c-1.1-4.3,1.8-7.7,1.7-11.5l0,0c0.3-0.7,0.6-1.3,1-2c0.1-0.1,0.3-0.1,0.4-0.2c0.1-0.1,0.1-0.2,0.1-0.3c-0.2,0.2-0.3,0.3-0.5,0.5
	c-0.3,0-0.7,0-1,0l0,0c0-1,0-1.9,0-2.9c0.3-0.3,0.5-0.6,0.8-0.9c-0.2-0.1-0.3-0.2-0.5-0.3c-0.1,0.4-0.2,0.8-0.2,1.3
	c-0.8,0-1.1-2.9-2.5-0.1c-2.5,5.2-2.8,5.5-1.8,9.7c1-1.5,2.1-3.1,3.2-4.8c0,0,0,0,0,0c-1.4,3.9-2.7,7.8-4.1,11.7
	c-0.2,0.5-1.9-1.1-1.7,0.9c0.1,1.1-0.1,2.1-0.8,3.2c-0.1-2.5-0.2-5-0.3-7.6c-0.2-0.1-0.5-0.1-0.7-0.2c-0.5,1.3-1.1,2.5-1.9,4.6
	c-0.7-4.2-1.2-7.8-1.8-11.3c-0.3,0-0.5,0.1-0.8,0.1c0.4,3.5,0.8,6.9,1.1,10.4c0,0.5-0.5,1-0.7,1.4c-0.6-0.4-1.6-0.8-1.6-1.2
	c-0.1-1,0.3-2,0.6-3.4c-2.2,1.3-1.6,3.1-1.8,4.6c-0.1,0.6-0.8,1.1-1.2,1.7c-0.3-0.7-0.5-1.4-0.8-2.1c0-0.1,0-0.3,0-0.5
	c0.3-0.3,0.5-0.6,0.8-1c-0.2-0.1-0.3-0.2-0.5-0.3c-0.1,0.4-0.2,0.9-0.3,1.3c-0.5,0.5-1.1,1-2.3,2.1c0.9-3.1,1.6-5.5,2.2-7.8
	c0.4-1.3,0.7-2.7,1.1-4l0,0c0.3-0.3,0.7-0.7,1-1l0,0c0.3-0.7,0.6-1.3,1-2c0.3-0.3,0.6-0.6,1-1c0.1-0.1,0.3-0.1,0.4-0.2
	c0.1-0.1,0.1-0.2,0.1-0.3c-0.1,0.2-0.3,0.3-0.4,0.5c-0.3,0-0.7,0-1,0c0.3-1.9,0.6-3.9,1-5.8c1.9,3,4.3,0.1,6.7,0.3
	c-1.5,1.9-2.8,3.5-4,5.1c-1.1,1.6-0.4,2.6,1.2,3.3c0,0.7,0,1.3,0,2c-0.3,0.3-0.5,0.6-0.8,1c0.2,0.1,0.3,0.2,0.5,0.3
	c0.1-0.4,0.2-0.9,0.3-1.3c1-0.6,1.9-1.3,2.9-1.9c0,0.7,0,1.3,0,2c-0.9,0.5-2,0.9-1.5,2.3c0,0.1,0.3,0.3,0.4,0.2
	c1.6-0.4,1-1.6,1.1-2.6c1.1-0.6,1-1.3,0-1.9c0-0.6,0-1.3,0-1.9c0.3-0.6,0.6-1.3,1-1.9c0.9-0.3,0.8-0.6,0-0.9
	c0.5-3.5,4.1-4.6,5.6-7.8c1.1,1.9,1.9,3.2,2.7,4.6c1.6-1.5,3-2.9,4.5-4.3c0.2,2.2,2.2,3.3,3.5,4.8c0.2,0.2,0.5,0.2,0.8,0.3
	c3-4.4,3-4.4,5.1-5.5c-1.7,5.2-4.6,10.1-3.4,15.9c1-2.2,2-4.4,3-6.5c0.1-0.2,0.6-0.3,0.8-0.3c0.2,0.1,0.5,0.4,0.5,0.7
	c0,0.3,0,0.7-0.2,0.9c-1.1,1.5,0.5,4.2-2.3,4.9c0.4,2,0.6,4.1,1.1,6.1c0.1,0.3,1.1,0.5,1.6,0.7c0.1,0.4,0.2,0.8,0.3,1.2
	c0.2-0.1,0.3-0.2,0.5-0.3c-0.3-0.3-0.5-0.6-0.8-0.9c0.6-3.7,0.6-3.7,3.3-5.5c-0.5,1.8-1,3.2-1.1,4.5c-0.1,1.1,0.3,2.2,0.5,3.3
	c0.4-1,1-1.9,1.1-2.9c0.2-2.4,0.1-4.8,0.1-7.2c1.2-0.6,1.2-1.3,0-1.9c-0.2-0.4-0.4-0.9-0.6-1.3c-0.1,0.4-0.2,0.9-0.3,1.3
	c-0.5-1-1-1.9-1.3-2.9c-0.1-0.2,0.7-1,1-0.9c0.6,0.1,1.4,0.4,1.6,0.9c1.1,2.3,2,1.1,3-0.1c0.5-0.6,1.1-1.2,1.7-1.8
	c-0.7,2.8-1.6,5.3-0.7,8c1.5-0.8,3-1.6,4.5-2.3c0,0.3,0,0.7,0,1c-0.3,0.3-0.6,0.6-1,1c-0.3,0.3-0.6,0.6-1,1
	c-2.1,1.4-4.1,2.9-3.9,5.8c-0.3,0.5-0.6,1-0.8,1.6c-0.1,0.2,0.2,0.5,0.4,0.7c0.1-0.3,0.3-0.6,0.3-0.9c0.1-0.5,0.1-1,0.1-1.4
	c0.7-0.3,1.3-0.6,2-1c0.3,1,0.7,1.9,1,2.9c-0.3,0.7-0.5,1.4-0.8,2.1c0.7-0.3,1.5-0.5,2-0.9c0.7-0.6,1.1-1.4,1.7-2.1
	c0.3-0.3,0.6-0.7,1-1c0.8-0.3,0.8-0.6,0-0.9c2-1.9,4.8-3.2,5.3-6.4c0.1-0.5,0.8-1.1,1.3-1.1c0.4,0,0.9,0.7,1.2,1.1
	c0.5,1,0.8,2,1.1,2.9c2.9-1.6,5.7-3,8.4-4.7c1.7-1,3.4-2.3,5-3.5c0.1-0.1,0.3-0.1,0.4-0.2c0.1-0.1,0.1-0.2,0.1-0.3
	c-0.2,0.2-0.3,0.4-0.5,0.5c-1.6-1-1-2.5-0.9-3.9c0-0.2,0.4-0.5,0.7-0.6c0.2,0,0.8,0.1,0.8,0.3c0.7,2.7,2.2,3.8,5,2.9
	c0.3-0.1,0.8,0.2,1,0.5c0.1,0.1-0.1,0.6-0.3,0.8c-0.3,0.4-0.7,0.7-1,1c-0.9,1-2.9,1.1-2,3.2c1.2-0.6,2.5-1.2,3.6-1.9
	c0.6-0.4,1.1-1.2,1.6-1.8c0.5-0.7,1-1.4,1.4-2.1c0.5,0.8,1.2,1.5,1.6,2.3c0.6,1.3,1.1,2.6,1.6,3.9c0.3,0,0.5,0.1,0.6,0.1
	c1.1-0.4,2.2-0.8,3.3-1.2c-0.1,1.2-0.2,2.4-0.2,3.6c0,0.4,0.1,0.8,0.1,1.3c1.5-0.6,2.9-1,4.2-1.6c0.4-0.2,0.9-1.1,0.8-1.4
	c-0.8-1.5-0.3-3.7-2.5-4.4c-0.3-0.8-0.6-0.8-0.9,0c-0.4-0.6-1.1-1.1-1.3-1.8c-0.1-0.4,0.1-1.3,0.5-1.5c0.4-0.2,1.3-0.1,1.6,0.2
	c1.8,2,3.4,4,5.1,6c-0.2,0.3-0.8,0.8-0.7,1c0.5,1.5,1.1,3,1.7,4.5c2.2-1.6-0.8-3-0.1-4.5c0.3-0.9,0.6-1.9,0.8-2.9
	c0.1-0.6-1-1.6,0.3-1.8c0.5-0.1,1.3,0.8,1.5,1.4c0.3,0.7,0.2,1.5,0.2,2.3c-0.8,1.9-0.8,1.9,0,4.1c0-1.4,0-2.7,0-4.1
	c0.7,0.6,1.3,1.3,2,1.9c0,0.3,0,0.7,0,1c-0.1,0.1-0.3,0.1-0.4,0.2c-0.1,0.1-0.1,0.2-0.1,0.3c0.1-0.2,0.3-0.3,0.4-0.5
	c0.3,0,0.7,0,1,0c0.3,0.6,0.6,1.3,1,1.9c-0.5,0.6-0.9,1.3-1.6,1.7c-2.3,1.4-1,1.8,0.6,2.2c0.9,2,2.3,2,3.9,1c0.3,0.3,0.7,0.6,1,1
	c0.1,0.7,0,1.9,1.1,1.2c1.4-0.8,2.5-2.1,3.7-3.1c0.3-0.3,0.6-0.6,1-1c0.8-0.3,0.9-0.6,0-0.9c0-0.3,0-0.7,0-1c0.3-0.3,0.6-0.6,1-1
	c0.1,0,0.3-0.1,0.4-0.1c0.1,0,0.1-0.2,0.1-0.3c-0.2,0.2-0.3,0.3-0.5,0.5c-0.3,0.3-0.6,0.6-1,1c-0.8,0.3-0.8,0.6,0,0.9
	c0,0.3,0,0.7,0,1c-0.3,0.3-0.6,0.6-1,1c-1.6,0.6-3.3,1.3-4.9,1.9c-0.3-0.3-0.6-0.7-1-1c-0.1-0.9-0.2-1.9-1.6-1.1
	c-0.6,0.3-1.5,0.1-2.3,0.2c0.6-0.8,1.3-1.7,1.9-2.5c1.2-1.6-0.3-1.2-1-1.4c0.2-0.8,0.4-1.6,0.6-2.4c-0.5,0.1-1.1,0.3-1.6,0.4
	c-0.3-0.3-0.6-0.6-1-1c0.4-0.9,0.6-1.8,1.2-2.6c1.1-1.3,0.5-2-0.8-2.5c-2.4-1-4.7-2.1-7.1-3.1c-3.6-1.4-4.6-4.2-4.3-7.7
	c0.1-1.9,0.4-3.9,0.1-5.8c-0.9-6.4-1.6-12.7-1.7-19.2c0-1.4,0.3-2.3,1.4-3.3c1.1-1.1,1.9-2.6,2.4-4.1c0.4-1.2-0.1-2.3-1.7-2.1
	c-3.6,0.5-7.5,0.5-10.8,1.9c-5.3,2.2-10.8,2-16.1,2.3c-8.4,0.3-16.8-0.1-25.2-0.3c-3.7-0.1-7.4,0.3-11,1.5c-0.8,0.2-1.8,0.8-2.3,0.5
	c-3.9-2.2-7.5,0.8-11.2,0.6c-0.3,0-0.9,0.7-1,1.1c-0.1,0.9-0.2,2,0.1,2.9c1.2,2.9,0.5,5.6,0.1,8.5c-0.3,2.5-2.2,5-0.6,7.9
	c0.9-0.8,1.6-1.5,2.3-2c0.3-0.2,1-0.3,1.3-0.1c0.2,0.1,0.4,0.9,0.2,1.2c-1.2,1.7-2.5,3.4-3.9,4.9c-2.7,2.8-5.5,5.4-8.2,8.1
	c-6.5,3.8-13,7.5-19.5,11.3c-1.5,0.9-3.1,1.7-4.6,2.5C6.6,59.3,6.5,59.1,6.4,59z M102.6,57.3c0.1-0.1,0.3-0.1,0.4-0.2
	c0.1-0.1,0.1-0.2,0.1-0.3C102.9,57,102.8,57.1,102.6,57.3c-0.3,0.4-0.6,0.7-0.9,1c-0.3,0.3-0.6,0.6-1,1c-1.4,0.5-1.9,1.5-1.9,2.9
	c-0.3,0.6-0.6,1.3-1,1.9c-0.3,0.6-0.6,1.3-1,1.9c-0.3,0.3-0.5,0.6-0.8,0.9c0.2,0.1,0.3,0.2,0.5,0.3c0.1-0.4,0.2-0.8,0.3-1.3
	c0.3,0,0.7,0,1,0c0,0.5,0,0.9,0.1,1.4c0.1,0.3,0.4,0.6,0.5,0.9c0.1-0.3,0.4-0.6,0.3-0.8c-0.2-0.5-0.6-1-0.9-1.4c0-0.7,0-1.3,0-2
	c0.3-0.6,0.7-1.3,1-1.9c1.4-0.5,2-1.5,1.9-2.9c0.3-0.3,0.6-0.6,1-1C101.9,57.9,102.3,57.6,102.6,57.3z M158.9,56.3
	c0.1,0,0.3-0.1,0.4-0.1c0.1-0.1,0.1-0.2,0.1-0.3C159.2,56,159,56.2,158.9,56.3c-0.3,0.4-0.6,0.7-0.9,1c-0.3,0.3-0.5,0.6-0.8,1
	c0.2,0.1,0.3,0.2,0.5,0.3c0.1-0.4,0.2-0.9,0.2-1.3C158.2,56.9,158.5,56.6,158.9,56.3z M146.2,55.3c0.1-0.1,0.3-0.1,0.4-0.2
	c0.1-0.1,0.1-0.2,0.1-0.3C146.6,55,146.4,55.2,146.2,55.3c-0.1,0.1-0.2,0.1-0.4,0.2c-0.1,0.1-0.1,0.2-0.1,0.3
	C145.9,55.6,146.1,55.5,146.2,55.3z M135.6,62.1c0.3-0.3,0.6-0.6,1-1c0.1-0.1,0.3-0.1,0.4-0.2c0.1-0.1,0.1-0.2,0.1-0.3
	c-0.2,0.2-0.3,0.3-0.5,0.5C136.3,61.5,135.9,61.8,135.6,62.1c-0.1,0.1-0.2,0.1-0.3,0.2c-0.1,0.1-0.1,0.2-0.1,0.3
	C135.3,62.4,135.4,62.3,135.6,62.1z M128.8,37.9c-0.1-0.1-0.1-0.3-0.2-0.4c-0.1-0.1-0.2-0.1-0.3-0.1
	C128.5,37.6,128.7,37.7,128.8,37.9c0.4,0.3,0.7,0.6,1,0.9c0.1,0.1,0.1,0.3,0.2,0.3c0.1,0.1,0.2,0.1,0.3,0.1
	c-0.2-0.1-0.3-0.3-0.5-0.4C129.4,38.5,129.1,38.2,128.8,37.9z M135.6,38.9c-0.3,0.3-0.6,0.6-1,1c-0.1,0.1-0.3,0.1-0.4,0.2
	c-0.1,0.1-0.1,0.2-0.1,0.3c0.2-0.2,0.3-0.4,0.5-0.5C134.9,39.5,135.2,39.2,135.6,38.9c0.1-0.1,0.2-0.1,0.3-0.2
	c0.1-0.1,0.1-0.2,0.1-0.3C135.9,38.5,135.7,38.7,135.6,38.9z M132.7,53.4c0.1-0.1,0.3-0.1,0.4-0.2c0.1-0.1,0.1-0.2,0.1-0.3
	C133,53.1,132.8,53.2,132.7,53.4c-0.1,0.1-0.3,0.1-0.4,0.2c-0.1,0.1-0.1,0.2-0.1,0.3C132.3,53.7,132.5,53.6,132.7,53.4z M98.7,53.4
	c0.1-0.1,0.3-0.1,0.4-0.2c0.1-0.1,0.1-0.2,0.1-0.3C99,53.1,98.9,53.2,98.7,53.4c-0.3,0.3-0.6,0.7-1,1c-4.8,1.9-5.4,2.7-5.2,6.3
	c1.8-2.2,3.5-4.3,5.2-6.4C98.1,54,98.4,53.7,98.7,53.4z M134.6,49.5c0.3-0.3,0.5-0.6,0.8-0.9c-0.2-0.1-0.3-0.2-0.5-0.3
	C134.8,48.7,134.7,49.1,134.6,49.5c-0.1,0.1-0.2,0.1-0.4,0.2c-0.1,0.1-0.1,0.2-0.1,0.3C134.3,49.8,134.5,49.7,134.6,49.5z M3.7,51.4
	c0.4-0.1,0.9-0.2,1.3-0.3c-0.1-0.2-0.2-0.3-0.3-0.5C4.3,50.9,4,51.2,3.7,51.4c-0.1,0.1-0.3,0.1-0.4,0.2c-0.1,0.1-0.1,0.2-0.1,0.3
	C3.3,51.8,3.5,51.6,3.7,51.4z M136.6,55.4c-0.6,0.3-1.3,0.6-1.9,1c-0.1,0.1-0.3,0.1-0.4,0.2c-0.1,0.1-0.1,0.2-0.1,0.3
	c0.1-0.2,0.3-0.3,0.4-0.5C135.2,56,135.9,55.7,136.6,55.4c0.8-0.3,0.8-0.7,0-1c0.8-0.4,1.6-0.9,2.4-1.3c1.4-0.7,1.6-1.9,1.4-3.2
	c0-0.2-0.6-0.5-0.7-0.4c-1.5,0.9-3.1,1.7-4.3,3c-1.3,1.4,0,1.8,1.3,1.9C136.6,54.7,136.6,55,136.6,55.4z M133.7,37.9
	c-0.3,0-0.7,0-0.9,0.1c-0.3,0.2-0.4,0.7-0.7,1c0.4-0.1,0.8-0.2,1.1-0.4C133.4,38.5,133.5,38.2,133.7,37.9c0.1-0.1,0.3-0.1,0.4-0.2
	c0.1-0.1,0.1-0.2,0.1-0.3C134,37.6,133.8,37.7,133.7,37.9z M129.8,44.7c-0.3,0.4-0.7,0.7-0.7,1.1c-0.1,0.4,0.2,0.8,0.3,1.2
	c0.1-0.3,0.3-0.6,0.3-0.9C129.7,45.6,129.7,45.1,129.8,44.7c0.2-0.4,0.5-0.7,0.7-1c-0.2-0.1-0.3-0.2-0.5-0.3
	C129.9,43.8,129.9,44.3,129.8,44.7z M33.7,36c-0.1-0.4-0.2-0.9-0.3-1.3c-0.2,0.1-0.3,0.2-0.5,0.3C33.2,35.3,33.5,35.6,33.7,36
	c0,0.4,0,0.9,0.1,1.4c0.1,0.3,0.4,0.6,0.6,0.9c0.1-0.3,0.4-0.6,0.3-0.8C34.4,36.9,34,36.4,33.7,36z M98.7,58.2
	c0.3-0.5,0.7-0.9,0.9-1.4c0.1-0.2-0.2-0.5-0.3-0.8c-0.2,0.3-0.5,0.6-0.6,0.9C98.7,57.3,98.7,57.8,98.7,58.2
	c-0.1,0.1-0.3,0.1-0.4,0.2c-0.1,0.1-0.1,0.2-0.1,0.3C98.4,58.6,98.6,58.4,98.7,58.2z M82.3,6.8c0,0.3,0,0.7,0,1c-2,0-4.1,0-6.1,0
	c2.1,0.6,4.2,1.6,6.1,0c0.5,0,0.9,0,1.4,0c0.3,0,0.6-0.2,0.8-0.3C84.1,7.3,83.9,7,83.6,7C83.2,6.8,82.7,6.9,82.3,6.8
	c-1.3-1.5-2.8-0.9-4.2,0C79.4,6.8,80.8,6.8,82.3,6.8z M53.1,47.6c-0.3-0.7-0.6-0.9-0.9,0c-0.5-0.8-1.1-1.6-1.6-2.5
	c-2.9,3.4-4.2,6.9-3.2,11.2c0.1,0.6,0.5,1.1,0.7,1.6c0.5-0.3,1.3-0.4,1.6-0.8c1.5-2.7,1.4,0.4,2.5,0.6c0-3.4,0-6.8,0-10.2
	C52.5,47.6,52.8,47.6,53.1,47.6c0,1.4,0,2.8,0,4.2C54,50.3,54.7,48.8,53.1,47.6z M123,39.8c-2.5,0.3-3.8,1.6-3.8,4.8
	C120.7,42.7,121.8,41.3,123,39.8c0.1-0.1,0.3-0.1,0.4-0.2c0.1-0.1,0.1-0.2,0.1-0.3C123.3,39.5,123.2,39.7,123,39.8z M135.6,71.8
	c-0.5-0.7-0.8-2-2-1.2c-0.9,0.6-1.2,1.5,0.1,2.2c-0.6,1.1-1.2,2.1-2.3,4c2.8-2,4.7-3.3,6.8-4.7C137.1,72,136.3,71.9,135.6,71.8z
	 M133.6,60.2c2.2-1,4.3-2,6.5-3C136.3,57,135.3,57.6,133.6,60.2c-0.1,0.1-0.3,0.1-0.4,0.2c-0.1,0.1-0.1,0.2-0.1,0.3
	C133.3,60.5,133.5,60.3,133.6,60.2z M138.5,68c-1.1,0.2-2.6,0.2-2.2,1.7c0.1,0.6,1.8,1.1,2.8,1.1c2-0.1,2.6-1.4,2.9-5.4
	c-0.9,1.4-1.3,2.9-2.4,3.8C138.4,70,138.7,68.5,138.5,68c0.1-0.1,0.3-0.1,0.4-0.2c0.1-0.1,0.1-0.2,0.1-0.3
	C138.8,67.6,138.7,67.8,138.5,68z M124,45.7c-0.4,0.2-0.9,0.3-1.3,0.5c0-0.5-0.3-1.2,0-1.4c1-1,2.1-1.8,3.1-2.9
	c0.2-0.2,0-0.9-0.1-1.3c0-0.1-0.6-0.1-0.7,0c-1.8,1.5-4.4,3.2-4.1,5.5c0.3,1.9,3,2.5,5.2,2.5c1.2,1.2,2.5,2,4.3,1.1
	c-1.4-0.3-2.9-0.7-4.3-1c0.3-1.4,0.6-2.7,1-4.1c-0.9,0.7-1.2,1.9-1.8,2.3C123.7,47.6,124.2,46.2,124,45.7c0.1-0.1,0.2-0.1,0.4-0.2
	c0.1-0.1,0.1-0.2,0.1-0.3C124.3,45.3,124.1,45.5,124,45.7z M99.1,79.1c-1.1,3.2-1.8,5.4-2.5,7.7c-0.2,0.5-0.2,1.5,0,1.7
	c2.2,1.3,4.3,2.6,6.7,3.5c1.1,0.5,2-0.9,1.5-2.1C103.1,86.6,101.4,83.4,99.1,79.1z M148.2,66.7c-0.3,0-0.5,0-0.8,0
	c0,0.9,0,1.8-0.2,2.7c0,0.3-0.5,0.5-0.7,0.8c-1.6-1.9-2.1,0.2-2.7,0.9c-0.7,1-1.2,1.8-2.6,1.7c-0.4,0-0.8,0.6-1.1,0.9
	c0.5,0.3,1.2,0.9,1.6,0.8c2-0.9,4.3-1.6,5.8-3.1C148.5,70.6,148,68.3,148.2,66.7z M78.1,63.2c-1.9,2.5-3.5,4.5-5,6.7
	c-0.2,0.2,0.3,1.1,0.6,1.5c0.2,0.2,1.1,0.2,1.2,0C76.6,69,78.7,67,78.1,63.2z M94.1,67.1c1.8-3,3.4-5.3,2.1-8.4
	C95.7,61.4,91.9,62.9,94.1,67.1z M143.1,49.1c-0.1,3.6-0.1,3.6-2.2,5.8c1.5,0.6,3,0.7,3.8-0.8C146.1,51.9,144,50.7,143.1,49.1z
	 M142.8,85.1c0.1-0.2,0.3-0.4,0.4-0.6c-1.4-1.2-2.7-2.4-4.1-3.4c-0.3-0.2-1.3,0-1.7,0.3c-1,1.1,0.3,1.2,0.9,1.5
	C139.8,83.6,141.3,84.3,142.8,85.1z M50.6,8c0-0.4-0.1-0.8-0.1-1.2c-1.5,0.3-2.9,0.5-4.3,0.9c-0.3,0.1-0.6,0.8-0.5,1.2
	c0,0.2,0.8,0.6,1.1,0.5C48.1,9,49.3,8.5,50.6,8z M64.1,6.1c-2.4,0.7-4.9,1.4-7.8,2.2C59.6,9.1,62,8.1,64.1,6.1z M112.7,58.8
	c-1.6,0.4-2.5,1.3-2.2,2.8c0.1,0.3,0.4,0.6,0.7,0.9c0.7-1,1.5-1.9,2.1-2.9C113.3,59.4,112.8,59,112.7,58.8z M95.1,5
	c0-0.2,0.1-0.5,0.1-0.7c-2.4-0.4-4.9-0.8-7.3-1.2c0,0.3-0.1,0.6-0.1,0.8C90.2,4.3,92.6,4.6,95.1,5z M108.3,53.2c-0.4,0-0.7,0-1.1,0
	c0.3,1.6,0.6,3.1,1,4.7c0,0,0.4,0.1,0.4,0C110.3,56.2,108.1,54.8,108.3,53.2z M44.8,10.3C44,9.6,43.6,9,43.4,9.1
	c-0.9,0.3-1.7,0.8-2.5,1.3c0.2,0.4,0.5,1,0.6,1C42.5,11.2,43.4,10.8,44.8,10.3z M81.6,58.8c-0.4,1.6-0.8,3.1-1.4,5.3
	C82.8,62.4,82.2,60.6,81.6,58.8z M27.8,60.2c0.4,0.2,0.8,0.5,1.2,0.7c0.5-1.3,1-2.7,1.4-4c0-0.1-0.2-0.2-0.3-0.3
	C29.3,57.8,28.6,59,27.8,60.2z M46.1,55c-0.1,0-0.3,0-0.4,0c0,1.8,0,3.6,0,5.4c0.1,0,0.3,0,0.4,0C46.1,58.6,46.1,56.8,46.1,55z
	 M67.7,8c-0.1,0.2-0.1,0.3-0.2,0.5c1.8,0,3.5,0,5.3,0c0-0.2,0-0.3,0-0.5C71.1,8,69.4,8,67.7,8z M138.8,78.9c0.5,0.4,0.8,0.8,1.2,0.9
	c0.7,0.3,1.5,0.6,2.2,0.8c-0.6-0.6-1.1-1.4-1.8-1.9C140.2,78.6,139.6,78.8,138.8,78.9z M98.9,72c-0.3-0.5-0.5-1-0.8-1.5
	c-0.4,0.5-1,0.9-1,1.4c0,0.4,0.7,0.9,1.1,1.3C98.4,72.9,98.6,72.5,98.9,72z M49.5,64.4c0.2-0.1,0.5-0.1,0.7-0.2
	c-0.2-1.3-0.4-2.5-0.5-3.8c-0.2,0-0.5,0.1-0.7,0.1C49.1,61.8,49.3,63.1,49.5,64.4z M95.9,7.6C96,7.5,96,7.3,96.1,7.2
	c-1.5,0-2.9,0-4.4,0c0,0.1,0,0.3,0,0.4C93.1,7.6,94.5,7.6,95.9,7.6z M145.1,57.8c-0.6-0.1-1.2-0.2-1.8-0.3c-0.1,0-0.3,0.6-0.3,0.7
	c0.5,0.3,1,0.5,1.6,0.6C144.7,58.8,144.9,58.3,145.1,57.8z M12.7,51.1c1,0.4,1.8,0.7,2.7,1.1c0.1-0.2,0.3-0.7,0.2-0.7
	c-0.6-0.4-1.3-0.7-2-1C13.5,50.5,13.2,50.8,12.7,51.1z M58.5,59.3c-0.5,0.7-0.9,1.2-1.2,1.7c-0.1,0.2,0.2,0.5,0.3,0.8
	c0.4-0.3,0.9-0.5,1.2-0.9C59,60.6,58.7,60.1,58.5,59.3z M89.7,8.8c-0.8-0.3-1.5-0.6-2.2-0.8c-0.2-0.1-0.6,0.1-0.9,0.2
	c0.7,0.4,1.5,0.9,2.2,1.2C89,9.5,89.3,9.2,89.7,8.8z M132,45.9c0.3,0.4,0.6,0.7,0.8,1c0.3-0.2,0.7-0.4,0.8-0.6
	c0-0.4-0.2-0.8-0.4-1.2C132.8,45.4,132.5,45.6,132,45.9z M104.5,7.3c0.5-0.3,1-0.6,1.5-1c-0.2-0.1-0.5-0.4-0.7-0.3
	c-0.5,0.2-0.9,0.5-1.4,0.8C104,7,104.2,7.1,104.5,7.3z M124.6,71.4c-0.1,0-0.3,0-0.4,0c-0.1,0.6-0.2,1.2-0.2,1.8
	c0,0.3,0.2,0.6,0.3,0.8c0.2-0.3,0.5-0.6,0.5-0.9C124.8,72.5,124.7,72,124.6,71.4z M101,8.5c0-0.1,0-0.2,0-0.4c-0.9,0-1.8,0-2.7,0
	c0,0.1,0,0.2,0,0.4C99.2,8.5,100.1,8.5,101,8.5z M106.3,56.7c-0.2-0.4-0.3-0.6-0.4-0.9c-0.2,0.2-0.5,0.3-0.7,0.5
	c-0.1,0.2,0,0.5,0,0.7C105.6,56.9,106,56.8,106.3,56.7z M145.3,62.5c-0.2-0.3-0.4-0.5-0.6-0.7c-0.1,0.3-0.3,0.6-0.3,0.8
	c0,0.3,0.2,0.6,0.3,0.8C144.9,63.1,145.1,62.8,145.3,62.5z M54.5,7.3C54.2,7.2,54,7,53.7,7c-0.3,0-0.6,0.2-0.8,0.3
	c0.3,0.1,0.6,0.4,0.9,0.4C54,7.7,54.3,7.4,54.5,7.3z M74.1,6.2c0,0.1,0,0.3,0.1,0.3c0.1,0.1,0.3,0,0.5,0.1c0-0.2-0.1-0.4-0.1-0.5
	C74.4,6.1,74.2,6.2,74.1,6.2z M139,75.3c-0.3-0.1-0.5-0.2-0.7-0.3c-0.1,0-0.2,0.2-0.3,0.3c0.2,0.1,0.5,0.2,0.7,0.3
	C138.7,75.5,138.9,75.4,139,75.3z M149,55.6c-0.1-0.2-0.2-0.5-0.3-0.7c-0.1,0.1-0.3,0.2-0.3,0.3c0,0.2,0.2,0.5,0.3,0.7
	C148.8,55.8,148.9,55.7,149,55.6z M57.7,64.3c0-0.2,0-0.3,0.1-0.5c-0.2,0-0.4,0.1-0.5,0.1c0,0.1,0.1,0.3,0.2,0.4
	C57.4,64.5,57.6,64.4,57.7,64.3z M67.4,60.5c0-0.2,0.1-0.3,0.1-0.5c-0.2,0-0.4,0.1-0.6,0.1c0.1,0.1,0.1,0.3,0.2,0.4
	C67.1,60.6,67.3,60.5,67.4,60.5z M98.7,4.1c-0.1,0.1-0.3,0.1-0.4,0.2c0.1,0.1,0.2,0.3,0.2,0.3c0.2-0.1,0.4-0.2,0.6-0.3
	C99,4.3,98.8,4.2,98.7,4.1z M109.7,4.2c-0.1,0-0.3-0.1-0.4-0.1c0,0.2,0,0.3-0.1,0.5c0.1,0,0.3,0,0.4-0.1
	C109.7,4.5,109.7,4.3,109.7,4.2z M132.5,50.3c-0.1-0.1-0.2-0.2-0.3-0.3c-0.1,0.2-0.3,0.5-0.3,0.7c0,0.1,0.2,0.2,0.3,0.3
	C132.3,50.8,132.4,50.6,132.5,50.3z M23.9,46.8c-0.1-0.2-0.2-0.5-0.3-0.7c-0.1,0.1-0.3,0.2-0.3,0.3c0.1,0.3,0.2,0.5,0.3,0.7
	C23.6,47,23.7,46.9,23.9,46.8z M136.3,44.7c-0.1-0.1-0.1-0.3-0.2-0.4c-0.1,0.1-0.3,0.2-0.3,0.2c0.1,0.2,0.2,0.4,0.3,0.6
	C136.2,44.9,136.3,44.8,136.3,44.7z M127.6,40.8c-0.1-0.1-0.1-0.3-0.2-0.4c-0.1,0.1-0.2,0.1-0.3,0.2c0.1,0.2,0.3,0.4,0.4,0.6
	C127.5,41,127.6,40.9,127.6,40.8z"/>
<path d="M297.9,56.4c-8.9,1.1-18,0.3-26.5,3.8c-5.8,2.3-11.6,4.6-17.5,6.9c-0.6,0.2-1.2,0.8-1.8,0.7c-4.6-0.1-8.7,2-13.1,3
	c-2.8,0.6-5.8,0.8-8.1-1.8c-1.5-1.7-1.4-3.1,0.5-3.7c2.9-0.9,5.8-1.8,8.8-2.2c8.9-1.1,17.6-3.3,26.1-6.4c1.3-0.5,2.5-1.4,3.7-2.3
	c0.5-0.4,0.7-1.2,0.8-1.8c0.5-2.6,1.3-3.5,3.9-4c6.6-1.3,13.2-2.5,19.8-3.7c1.1-0.2,2.2-0.1,3.4,0c4.9,0.5,9.9,1.1,14.8,1.5
	c1.4,0.1,3-0.2,4.3,0.3c1.8,0.6,4.2-0.2,5.5,2c-1.6,0.6-3.2,1.2-4.8,1.7c-3.1,0.9-6.2,1.6-9.3,2.5c-1.3,0.4-2.8,0.5-3.3,2.4
	c-0.1,0.5-1.5,0.9-2.4,1C301.1,56.5,299.5,56.4,297.9,56.4z M279.8,49.8c6.9,2.7,13.8,3.8,20.9,3.7c0.6,0,1.3,0.3,1.8,0.1
	c4-1.5,7.9-3.2,12.9-5.2c-3.1,0.3-5.2,0.3-7.3,0.7c-2.5,0.5-4.9,0.7-6.9-0.9c-2.9-2.3-6-1.9-9.1-1.3
	C287.9,47.9,283.9,48.9,279.8,49.8z M235.9,65.2c2.9,3.8,2.9,3.8,6.6,2.6c1.7-0.6,3.3-1.5,5-1.6c5.1-0.3,9.6-2.5,14.2-4.1
	c5.7-2,10.8-5.7,17.2-5.9c0.2,0,0.4-0.4,0.6-0.5c-0.3-0.3-0.7-1-1-0.9c-2.5,0.5-5.1,0.8-7.3,1.8c-4.7,2.2-9.3,4.2-14.4,5.2
	c-3,0.6-6.4,0.6-9,2.9c-0.3,0.3-1,0.4-1.4,0.3C243,63.9,239.6,65.7,235.9,65.2z M280.5,52.4c2.8,4.4,6.4,2.6,10.7,2.8
	C287.1,54.1,284.1,53.3,280.5,52.4z M279.7,52c-4.3-0.2-4.3-0.2-7.4,1.7C275,53,276.8,52.6,279.7,52z M236.6,68.8
	c-1.1-0.7-1.6-1.1-2.2-1.3c-0.4-0.1-0.8,0-1.2-0.1c0.3,0.4,0.6,1,1,1.2C234.7,68.8,235.3,68.7,236.6,68.8z"/>
<path d="M248.1,48.6c-2,0.4-4.1,0.8-7.1,1.5c1.6,0.2,2.1,0.2,2.6,0.3c0.7,0.2,1.5,0.5,2.2,0.7c-0.4,0.6-0.9,1.1-1.3,1.7
	c-0.4,0.5-0.9,0.9-1.1,1.5c-1.8,3.3-2,3.3-5.4,2.8c-3.3-0.5-6.7-0.5-10.1-0.6c-0.4,0-0.7,0.5-1.1,0.8l0,0c-0.3,0-0.6,0-1,0
	c-1.2-0.2-2.4-0.4-3.6-0.6c0.9-1.2,1.6-2.7,2.7-3.6c0.7-0.6,2.1-0.6,3.2-0.6c3.5-0.1,7,0,10.6,0c-1.7-2.2-3.5-3.1-6.1-2.7
	c-1.9,0.3-3.8,0.1-5-1.8c-0.2,1.7-0.8,2.9-2.6,3.7c-2.7,1.1-5.3,1-8,0.9l0,0c-0.6-1.3-1.7-2.7,1-3c1.9-0.2,3.8-0.6,5.6-1
	c0.6-0.1,1.6-0.2,1.7-0.6c1.4-2.9,4-2.3,6.3-2.3c3.7,0.1,7.4,0,10.8-1.6c0.4-0.2,1.2-0.4,1.3-0.3c2.4,2.5,4.7,0.1,7-0.1
	c2-0.2,4.2-0.6,5.9,1.2c0.5,0.6,1.6,0.8,1.8,1.4c0.3,1,0.5,2.4,0,3.1c-0.6,0.9-1.9,1.6-3,1.9c-1.7,0.3-3.5,0.2-5.3,0.2
	C248.1,51.5,248,50.1,248.1,48.6c3.3,1.1,6,1.3,6,0.4c-1.2-0.2-2.4-0.4-4.4-0.8c1.5-0.5,2.3-0.7,3-1c0.6-0.3,1-0.7,1.9-1.3
	C249.1,45.6,249.1,45.6,248.1,48.6z M244.9,47.3c-2.7-2-2.7-2-7.6,1.6C240.4,48.2,242.6,47.8,244.9,47.3z M225.5,54.6
	c0,0.1,0,0.2,0,0.3c1.1,0,2.3,0,3.4,0c0-0.2,0-0.3,0-0.5C227.7,54.5,226.6,54.6,225.5,54.6z M240.8,54.6c-0.8-0.1-1.3-0.2-1.9-0.2
	c-0.3,0-0.5,0.2-0.8,0.3c0.6,0.2,1.3,0.3,1.9,0.4C240.2,55.2,240.4,54.9,240.8,54.6z M231.7,54.2c0.1-0.1,0.3-0.2,0.4-0.2
	c-0.1-0.1-0.3-0.3-0.3-0.3c-0.2,0.1-0.3,0.2-0.5,0.4C231.4,54.1,231.5,54.2,231.7,54.2z M222.9,49.8c-0.1,0.1-0.3,0.1-0.4,0.2
	c0.1,0.1,0.2,0.3,0.2,0.3c0.2-0.1,0.4-0.2,0.6-0.3C223.1,49.9,223,49.8,222.9,49.8z"/>
<path d="M191.8,77.5c5-1.3,9.5-2.6,14.1-3.8c1.1-0.3,2.1-0.7,3.1-1.1c3.4-1.5,7.8,0.4,8.9,4c0.6,1.9-0.7,4.5-2.9,4.8
	c-2.5,0.3-4.8,1.4-7.5,0.5c-2.2-0.7-4.8-0.4-7.2-0.3C196.7,81.7,194.2,80,191.8,77.5z M211.4,78.7c0.6,0.2,1.3,0.8,2.1,0.8
	c1.2,0,2.4-0.5,2.2-1.9c-0.1-0.7-1.2-1.5-1.9-1.7C212.5,75.6,211.3,76.9,211.4,78.7z M205.5,79.3c0-0.2,0.1-0.3,0.1-0.5
	c-2.8,0-5.5,0-8.3,0c0,0.2,0,0.3,0,0.5C200.1,79.3,202.8,79.3,205.5,79.3z M208.3,78.7c0.2,0.1,0.4,0.2,0.6,0.3c0.4-1,0.7-2.1,1-3.1
	c0.1-0.2-0.2-0.7-0.4-0.7c-0.2-0.1-0.7,0.2-0.8,0.4C208.6,76.5,208.5,77.6,208.3,78.7z M205.4,75.9c-0.1,0.1-0.3,0.1-0.4,0.2
	c0.1,0.1,0.2,0.3,0.2,0.3c0.2-0.1,0.4-0.2,0.6-0.3C205.7,76,205.5,76,205.4,75.9z"/>
<path d="M203.5,66c-0.1,1.8,1,2.5,2.6,3c0.4,0.1,0.9,0.8,1,1.3c0.1,0.3-0.5,1-0.9,1c-4.4,0.5-8.8,2.4-13-0.3c-0.5-0.3-0.7-0.9-1-1.4
	c0.4-0.3,0.7-0.6,1.2-0.8C196.7,67.9,200.1,67,203.5,66L203.5,66z M195.2,70.7c2.8,0,4.5,0,6.3,0c0.2,0,0.6-0.4,0.6-0.6
	c0-0.2-0.2-0.7-0.4-0.7C199.8,68.8,198,68.6,195.2,70.7z"/>
<path d="M203.5,66c0.5-0.7,0.8-1.9,1.5-2.1c3.1-0.9,6.2-1.6,9.3-2.2c1.4-0.3,2.5,0.4,2.8,2c0.3,1.6-0.5,3-2.1,3.2
	C211.1,67.2,207.2,67.4,203.5,66L203.5,66z M214.5,64.8c0-0.1,0-0.3,0-0.4c-1.8,0-3.6,0-5.4,0c0,0.1,0,0.3,0,0.4
	C210.9,64.8,212.7,64.8,214.5,64.8z"/>
<path d="M226.7,57.3c2.1-0.1,4.2-0.4,6,1c1,0.8,1.1,2.1-0.1,2.7c-0.8,0.5-1.7,1-2.6,1c-3.2,0.1-6.3,0-9.7-0.6
	C222.5,60,224.6,58.6,226.7,57.3L226.7,57.3z M227.4,59.5c0,0.1,0,0.3,0,0.4c1.2,0,2.4,0,3.6,0c0-0.1,0-0.3,0-0.4
	C229.8,59.5,228.6,59.5,227.4,59.5z"/>
<path d="M27.9,55.3c-1,2.1-2.1,4.1-3.1,6.2c-0.7,1.6-1.3,3.3-2.7,4.8c0-0.8,0-1.5,0-2.3l0,0c0.2-0.8,0.8-1.7,0.6-2.4
	c-0.4-1.4-1.3-2.6-1.8-3.9c-0.5-1.4-2.3-2.4-1.1-4.2c1.3,0.8,2.7,1.5,4,2.3c0.3,0.2,0.6,0.6,0.7,0.8c1.5-1.5,2.9-2.9,4.4-4.3
	c0,0.7,0,1.3,0,2l0,0C28.6,54.7,28.2,55,27.9,55.3C27.9,55.4,27.9,55.3,27.9,55.3z M22.1,56.3C22,56.2,22,56,21.9,55.9
	c-0.1-0.1-0.2-0.1-0.3-0.1C21.8,56,21.9,56.1,22.1,56.3c0.4,0.6,0.7,1.3,1,1.9c0.1,0.4,0.2,0.8,0.3,1.3c0.2-0.1,0.3-0.2,0.5-0.3
	c-0.3-0.3-0.5-0.6-0.8-0.9C22.7,57.6,22.4,57,22.1,56.3z"/>
<path d="M194.7,54.3c-0.8-0.9-1.6-1.7-2.4-2.6c1.1-0.5,2.2-1.2,3.3-1.4c2-0.4,4-0.6,6-0.6c0.6,0,1.6,1.2,1.7,1.9
	c0.1,0.5-0.9,1.6-1.6,1.8C199.5,53.9,197.1,54.1,194.7,54.3L194.7,54.3z M199.9,52.2c-0.1-0.2-0.1-0.4-0.2-0.7
	c-1.1,0.1-2.2,0.2-3.3,0.2c0,0.1,0,0.3,0,0.4C197.6,52.2,198.7,52.2,199.9,52.2z"/>
<path d="M22.1,64.1c-5-1.4-10.1-1.5-15.1,0c-1.3,0.4-2.8,2-3.9,0.4c-1.3-1.7,0.8-2.8,1.5-4.1c0.3-0.6,1.2-0.9,1.8-1.4
	c0.1,0.1,0.2,0.3,0.4,0.4c-0.6,1.1-1.2,2.1-2.2,4c2-0.7,3.1-1.1,4.3-1.4c1.7-0.4,3.4-1,5.1-0.9c2.4,0.1,4.7,0.6,7,1.1
	C21.5,62.4,21.7,63.5,22.1,64.1C22.1,64.1,22.1,64.1,22.1,64.1z"/>
<path d="M196.6,62.4c-1.7-0.2-3.5-0.3-5.2-0.6c-0.4-0.1-0.8-0.6-0.9-1c-0.1-0.2,0.5-0.8,0.9-0.9c2.5-0.6,4.9-1.3,7.5-1.7
	c0.9-0.2,2,0.1,2.7,0.6c0.7,0.4,1,1.4,1.5,2.2c-0.7,0.4-1.3,1-2,1.1c-1.4,0.2-2.9,0.1-4.3,0.1C196.6,62.2,196.6,62.3,196.6,62.4z
	 M198,60.7c-0.1-0.1-0.2-0.3-0.3-0.3c-0.7,0-1.4,0-2.2,0.1c0,0,0,0.2-0.1,0.2c0.7,0.1,1.4,0.1,2.2,0.2
	C197.8,60.9,197.9,60.8,198,60.7z"/>
<path d="M217,52.4c0.2,0.4,0.5,0.8,0.7,1.2c0.4,1,0.7,1.9,1.1,2.9c-0.9,0.3-1.7,0.7-2.6,0.8c-1.9,0.1-3.8,0.2-5.7-0.1
	c-0.7-0.1-1.3-1.1-1.9-1.8c0.5-0.5,1-1.3,1.6-1.5C212.4,53.3,214.8,52.9,217,52.4L217,52.4z M212.8,54.8c0.1,0.1,0.2,0.3,0.3,0.3
	c0.7,0,1.5-0.1,2.2-0.1c0,0,0-0.2,0.1-0.3c-0.7-0.1-1.5-0.1-2.2-0.2C213,54.6,212.9,54.7,212.8,54.8z"/>
<path d="M254.9,73.8c-3.5,0-6.1-1.1-5.6-2.2c1-2.3,3.5-1.9,5.3-2.7c0.5-0.2,1.3-0.2,1.9-0.1c1.4,0.2,3.1,2.1,2.9,3.4
	c-0.3,1.7-1.7,1.5-3,1.6C255.8,73.8,255.3,73.8,254.9,73.8z M256.2,71.6c0-0.1,0-0.3,0-0.4c-1.2,0-2.3,0-3.5,0c0,0.1,0,0.3,0,0.4
	C253.9,71.6,255,71.6,256.2,71.6z"/>
<path d="M25,40.8c-0.1-4.4,1.8-7.7,6.1-11c-1.8,5.8-4.5,10.5-4.2,15.8c0,0,0,0,0,0c-0.3-0.8-0.7-1.6-1-2.4
	C25.6,42.4,25.3,41.6,25,40.8C25,40.8,25,40.8,25,40.8z"/>
<path d="M259.3,56.8c-2.3,1.7-4.7,2.8-7.6,2.5c-1.2-0.1-2.5-0.6-3.6-1.1c-0.4-0.2-0.4-1-0.6-1.5c0.4-0.1,0.9-0.4,1.3-0.4
	c1.6,0.2,3.1,0.7,4.7,0.9c0.6,0.1,1.3-0.5,2-0.8c-0.6-0.3-1.3-0.6-1.9-1c-0.3-0.1-0.6-0.3-0.8-0.4C256.6,53.9,256.6,53.9,259.3,56.8
	z"/>
<path d="M194.8,54.4c0.8,2.7,0.6,3.4-1.5,3.8c-0.8,0.2-1.6,0.1-2.4,0.1c-1.6,0-3.3-0.7-3.3-2.1c0-1.6,1.9-1.7,3.2-1.9
	C192.2,54.2,193.5,54.3,194.8,54.4L194.8,54.4z"/>
<path d="M145.3,46.6c1.2-1.4,2.5-2.8,3.8-4.1c0.2-0.2,0.9-0.2,1.2,0c0.2,0.2,0.4,0.9,0.2,1.2c-1.4,1.7-2.8,3.3-4.2,4.9l0,0
	C145.9,47.9,145.6,47.3,145.3,46.6L145.3,46.6z"/>
<path d="M17.2,42.8c-0.6-0.2-1.4-0.2-1.7-0.6c-1.3-1.5-2.5-3-3.7-4.6c2.5-0.9,3.9,0.9,5.6,2.2l0,0c-0.8,0.1-2.1-0.1-0.9,1.4
	c0.4,0.5,0.7,1,1,1.4L17.2,42.8z"/>
<path d="M83.2,94.1c-1.1,1.3-2.3,2.6-3.5,3.9c-0.2,0.2-0.8,0.2-1.2,0.3c-0.1-0.4-0.3-1-0.1-1.3c1.2-1.7,2.4-3.2,3.7-4.9l0.2,0.2
	C82.6,92.9,82.9,93.5,83.2,94.1L83.2,94.1z"/>
<path d="M183.6,59.8c-0.8-0.7-1.6-1.3-2.3-1.9c0.7-0.5,1.6-1.6,2.2-1.4c0.9,0.2,1.5,1.2,2.3,1.9C185.2,58.8,184.6,59.2,183.6,59.8z"
	/>
<path d="M112.3,67.9c-0.3,0-0.7,0-1,0c0,0,0,0,0,0c1-1.6,1.9-3.2,2.9-4.9c0,0,0,0,0,0c0.3,0,0.7,0,1,0c0,0,0,0,0,0
	C114.2,64.7,113.3,66.3,112.3,67.9L112.3,67.9z"/>
<path d="M112.3,70.8c0-1,0-1.9,0.1-2.9c0,0,0,0,0,0C114.2,68.6,114.2,68.6,112.3,70.8C112.4,70.9,112.3,70.8,112.3,70.8z"/>
<path d="M57,77.6c0,0.5,0.1,0.9,0,1.4c-0.1,0.3-0.4,0.6-0.6,0.9c-0.1-0.3-0.4-0.6-0.3-0.8C56.4,78.6,56.7,78.1,57,77.6L57,77.6z"/>
<path d="M94.8,82.5c-0.3,1-0.6,1.9-1,2.9c0,0,0,0,0,0C94.2,84.5,94.5,83.5,94.8,82.5C94.9,82.5,94.8,82.5,94.8,82.5z"/>
<path d="M59.9,71.8c-0.3,0.6-0.6,1.3-1,1.9c0,0,0,0,0,0c0-0.7,0-1.3,0-2l0,0C59.3,71.8,59.6,71.9,59.9,71.8L59.9,71.8z"/>
<path d="M128.8,82.5c-0.1,0.4-0.2,0.9-0.3,1.3c-0.2-0.1-0.4-0.2-0.5-0.3C128.2,83.2,128.5,82.8,128.8,82.5L128.8,82.5z"/>
<path d="M132.7,85.4c0.3-0.6,0.7-1.3,1-1.9c0,0,0,0,0,0C133.3,84.1,133,84.8,132.7,85.4C132.7,85.4,132.7,85.4,132.7,85.4z"/>
<path d="M93.9,85.4c-0.3,0.6-0.6,1.3-1,1.9c0,0,0,0,0,0C93.2,86.7,93.6,86.1,93.9,85.4C93.9,85.4,93.9,85.4,93.9,85.4z"/>
<path d="M132.7,85.4c-0.1,0.4-0.2,0.9-0.3,1.3c-0.2-0.1-0.3-0.2-0.5-0.3C132.1,86,132.4,85.7,132.7,85.4
	C132.7,85.4,132.7,85.4,132.7,85.4z"/>
<path d="M83.2,88.3c-1.2-0.6-1.2-1.3,0-1.9l0,0C83.2,87,83.2,87.7,83.2,88.3L83.2,88.3z"/>
<path d="M57,77.7c0.1-0.4,0.2-0.9,0.3-1.3c0.2,0.1,0.3,0.2,0.5,0.3C57.5,77,57.3,77.3,57,77.7L57,77.7z"/>
<path d="M44.4,52.4c-0.3,0-0.7,0-1,0c0,0,0,0,0,0c0.3-0.6,0.7-1.3,1-1.9l0,0C44.4,51.1,44.4,51.8,44.4,52.4L44.4,52.4z"/>
<path d="M84.2,93.2c-0.3,0.3-0.7,0.6-1,1l0,0C83.5,93.8,83.8,93.5,84.2,93.2L84.2,93.2z"/>
<path d="M133.6,81.5l-0.5,0l-0.5,0l0,0c0.3-0.3,0.6-0.7,0.9-1l0.1,0.1C133.7,80.9,133.7,81.2,133.6,81.5L133.6,81.5z"/>
<path d="M58.9,73.8c-0.3,0.8-0.6,0.8-0.9,0l0,0C58.3,73.8,58.6,73.8,58.9,73.8L58.9,73.8z"/>
<path d="M18.2,43.7c-0.3-0.3-0.7-0.6-1-0.9c0,0,0.1-0.2,0.1-0.2C17.6,43,17.9,43.3,18.2,43.7L18.2,43.7z"/>
<path d="M515.2-10.3c3.8,1.9,6.9,3.8,6.6,8.6c-0.2,2.6-1.5,4.5-3.7,5.2c-2.8,1-5.7,1.7-8.9,1.1c-5.9-1.1-10.7-4.1-15.3-7.6
	c-4-3-7.8-6.2-12-9.6c2.4-2,4.5-4.5,7.1-5.9c5.9-3.2,12.1-5.9,18.9-6.8c2.4-0.3,4.8,0,6.9,1.5c4.4,3,5.1,7.3,1.9,11.6
	C516.3-11.5,515.7-10.9,515.2-10.3z M518.8,0.1c-0.3,0.3-0.7,0.6-1,1c-0.4,0.1-0.9,0.2-1.3,0.2c0.1,0.2,0.2,0.3,0.3,0.5
	c0.3-0.3,0.7-0.5,1-0.8C518.1,0.7,518.4,0.4,518.8,0.1c0.8-0.3,0.7-0.7,0-1c0.3-3.7-1.1-6.2-5.1-6.9c-0.9-0.2-1.8-0.6-2.7-0.9l0,0
	c0-1.1-0.6-2.4,1-2.9c0.3,0,0.6,0,0.9,0c0.3-0.3,0.6-0.6,1-1c0.3-0.3,0.6-0.6,1-1c0.4-0.2,0.8-0.4,1.1-0.8c0.3-0.4,0.3-1,0.5-1.5
	c-0.5,0.1-1,0.3-1.6,0.4c0.1-0.6,0.2-1.2,0.4-1.9c0.9-3.4,0.7-4.3-2.8-5.1c-2.3-0.5-4.8-0.8-7-0.2c-4,1-7.8,2.9-11.7,4.1
	c-3.2,1-5.6,2.9-7.6,5.6c2,1.2,3.8,2.2,5.5,3.3c0.3,0.3,0.7,0.6,1,1c3,2.1,5.8,4.5,9,6.3c4.9,2.7,10.1,5.1,15.8,1.7
	c0.4-0.2,0.9-0.1,1.4-0.2C518.8-0.6,518.8-0.3,518.8,0.1z M499.3-1.9c0.1,0.1,0.1,0.3,0.2,0.4c0.1,0.1,0.2,0.1,0.3,0.1
	C499.7-1.6,499.5-1.7,499.3-1.9c-0.1-0.1-0.1-0.2-0.2-0.4c-0.1-0.1-0.2-0.1-0.3-0.1C499-2.2,499.2-2.1,499.3-1.9z M493.5-5.8
	c-0.1-0.2-0.3-0.3-0.4-0.5C493.2-6.1,493.4-5.9,493.5-5.8c0.2,0.2,0.3,0.3,0.5,0.4C493.9-5.5,493.7-5.6,493.5-5.8z M502.2,0.1
	c0-0.1-0.1-0.3-0.2-0.4c-0.1-0.1-0.2-0.1-0.3-0.1C501.9-0.3,502.1-0.1,502.2,0.1c1,0.3,2,0.6,2.9,0.9c0.3,0.2,0.6,0.5,1,0.7
	c0.1-0.1,0.2-0.3,0.3-0.4c-0.4-0.1-0.8-0.2-1.2-0.2C504.2,0.7,503.2,0.4,502.2,0.1z"/>
<path d="M461.5-16.4c0.1-0.4,0.2-0.9,0.3-1.3c0.2,0.1,0.3,0.2,0.5,0.3C462-17.1,461.8-16.8,461.5-16.4L461.5-16.4z"/>
<path d="M469.2-17.4c0.3-0.7,0.7-1.3,1-2C469.9-18.7,469.6-18,469.2-17.4z"/>
<path d="M466.3-29c0.3-1,0.7-2,1-3C467-31,466.7-30,466.3-29z"/>
<path d="M460.5-11.6c0,0.5,0.1,0.9,0,1.4c-0.1,0.3-0.4,0.6-0.6,0.9c-0.1-0.3-0.4-0.6-0.3-0.8C459.9-10.7,460.2-11.1,460.5-11.6
	L460.5-11.6z"/>
<path d="M441.1-2.8c-0.3,0-0.7,0-1,0c0.3-1,0.7-2,1-2.9C441.1-4.8,441.1-3.8,441.1-2.8z"/>
<path d="M95.2,14.1c1.9,0.7,3.9,1.3,5.7,2.3c1.3,0.7,1.8,1.2,3-0.3c2.7-3.5,6-3.3,8.7,0.2c2.3,2.9,2.3,6.3,1.3,9.6
	c-0.3,1.1-0.9,2.1-1.4,3.1c-2.3,4-5.1,7.8-6.6,12.2c-0.6,1.7-1.7,1.6-3,0.8c-3.1-1.9-6.4-3.3-8.9-6.3c-1.7-2.1-4.2-3.5-6.2-5.3
	c-4-3.7-4.4-8-1.3-12.4C88.5,14.9,91.7,14.6,95.2,14.1z M89,18.5c-0.3,0.3-0.6,0.6-1,1c-0.8,0.3-0.8,0.6,0,0.9
	c-2.6,4.3-2.7,4.9,0.9,8.2c4.1,3.7,8.4,7,12.6,10.5c1.6,1.3,2.8,0.9,3.7-1.2c0.2-0.6,0.2-1.3,0.2-1.9l0,0c2.9-4.5,5.3-9.1,4.8-14.7
	c-0.1-1.1-0.3-2.3-0.9-3.1c-0.6-0.8-1.9-1.5-2.8-1.4c-0.8,0.1-1.4,1.4-2,2.2c-0.2,0.3-0.1,0.9-0.1,1.4c-0.6,0.3-1.3,0.6-1.9,1
	C99,18,94.9,16.3,90,18.5C89.7,17.7,89.4,17.6,89,18.5z M111.3,17.5c-0.1-0.1-0.1-0.3-0.2-0.4c-0.1-0.1-0.2-0.1-0.3-0.1
	C111,17.2,111.2,17.4,111.3,17.5c0.1,0.4,0.2,0.8,0.3,1.3c0.2-0.1,0.3-0.2,0.5-0.3C111.8,18.2,111.6,17.9,111.3,17.5z M113,22.3
	c-0.1-0.1-0.1-0.3-0.2-0.4c-0.1,0.1-0.3,0.3-0.3,0.3c0.1,0.2,0.2,0.3,0.4,0.5C112.9,22.6,113,22.4,113,22.3z"/>
<path d="M72.5,58.2c0.3-0.3,0.6-0.6,1-1c0.3-0.3,0.6-0.6,1-1c0.8-0.3,0.8-0.6,0-0.9c1.1-2.1,2.9-3.2,6.2-4.2c-2.4,3-4.2,5.1-6,7.3
	c-1.6,2.1-1.6,2.3,0.7,4.6c0,0.3,0,0.7,0,1c-0.3,0.3-0.7,0.6-1,1c-0.7,0-1.3,0-2,0c0-0.8,0-1.5,0.1-2.3c-0.7,0.1-1.3,0.3-2,0.4
	C71.2,61.5,71.9,59.9,72.5,58.2z"/>
<path d="M116.2,52.4c0.3,0,0.7,0,1,0c0.2,1.4,0.4,2.9,0.7,4.6C115.7,55.8,116.3,54,116.2,52.4z"/>
<path d="M37.6,50.5c0,0.7,0,1.3,0,2c-1,0.7-2,1.3-2.9,2C34.7,52.4,36,51.3,37.6,50.5z"/>
<path d="M64.8,54.4c0.3,0,0.7,0,1,0c0,0.7,0,1.3,0,2C65.4,55.7,65.1,55,64.8,54.4z"/>
<path d="M38.6,49.5c0,0.3,0,0.7,0,1c-0.3,0-0.7,0-1,0C37.9,50.2,38.3,49.8,38.6,49.5z"/>
<path d="M123,56.3c-0.3-0.3-0.7-0.7-1-1C122.3,55.7,122.7,56,123,56.3z"/>
<path d="M29.9,51.4c0,0.3,0,0.7,0,1c-0.3,0-0.7,0-1,0C29.2,52.1,29.5,51.8,29.9,51.4z"/>
<path d="M104.5,63.1c-0.1,0.4-0.2,0.9-0.3,1.3c-0.2-0.1-0.3-0.2-0.5-0.3C104,63.8,104.3,63.4,104.5,63.1L104.5,63.1z"/>
<path d="M104.6,63.1c0.3-0.3,0.6-0.7,0.9-1l0.1,0.1C105.2,62.5,104.9,62.8,104.6,63.1L104.6,63.1z"/>
<path d="M59,69.9c0.2-0.2,0.3-0.3,0.5-0.5c0,0.1,0,0.3-0.1,0.3C59.3,69.8,59.1,69.8,59,69.9L59,69.9z"/>
<path d="M133.6,72.8c0.7-0.3,1.3-0.7,2-1C134.9,72.2,134.3,72.5,133.6,72.8z"/>
<path d="M72.6,65c-0.3,0.3-0.7,0.7-1,1C71.9,65.7,72.2,65.4,72.6,65z"/>
<path d="M506.8-17.1c-1.4-0.1-2.5-0.2-3.5-0.4c-0.3-0.1-0.8-0.7-0.7-1c0.1-0.3,0.7-0.8,1-0.8c2.2,0.4,4.4,0.8,6.4,1.5
	c1.1,0.4,0.5,1.4-0.3,1.8c-1.3,0.7-1.3,1,0,1.7c0.7,0.4,1.1,0.9,0.2,1.8c-1.6,1.5-4.7-0.6-5.5,2.4c-0.4-0.2-0.9-0.4-1.1-0.7
	c-0.2-0.5-0.5-1.4-0.3-1.6c0.7-0.6,1.8-0.7,2.4-1.4c0.7-0.7-1.8-1.1-0.4-2.1C505.5-16.2,506-16.5,506.8-17.1z"/>
<path d="M492.5-8.7c-0.3-0.3-0.6-0.7-1-1c0-0.3-0.1-0.7,0.1-0.9c0.4-0.6-1.5-3.8,1.7-1.4c1.4,1,3.7,0.8,5-1.4
	c0.2-0.4,1.2-0.5,1.9-0.5c0.3,0,0.9,0.8,0.8,1.1c-0.2,0.7-0.6,1.6-1.2,1.8C497.5-10.1,495-9.4,492.5-8.7z"/>
<path d="M511-8.7c0.3,0.5,0.7,1.1,0.8,1.6c0.1,0.5,0,1.1-0.1,1.7c-0.6-0.1-1.1-0.3-1.7-0.4c-0.1-0.1-0.1-0.3-0.2-0.4
	c-0.1-0.1-0.2-0.1-0.3-0.1c0.2,0.2,0.3,0.3,0.5,0.5c-0.4,1.1-1.1,1.1-1.8,0.3c-0.9-1.1-1-1.7-1.9,0.2c-0.5,1.1-1.3-0.8-1.7-1.4
	c-0.2-0.4,0.3-1.8,0.5-1.8C507.1-8.7,509.1-8.6,511-8.7L511-8.7z"/>
<path d="M491-14.6c1.8-1.3,3.1-2.4,4.5-3.3c0.3-0.2,0.8-0.1,1.3-0.1c-0.1,0.4-0.4,0.8-0.4,1.2c0,1,0.2,2,0.3,3
	c-1.2-0.2-2.5-0.4-3.7-0.6C492.4-14.5,491.8-14.5,491-14.6z"/>
<path d="M506.9-3.1c-0.2,0.4-0.4,0.6-0.5,0.9c-0.3-0.2-0.7-0.4-0.9-0.7c-0.1-0.1,0.3-0.7,0.4-0.7C506.2-3.5,506.6-3.3,506.9-3.1z"/>
<path d="M514.9-13.5c-0.3,0-0.7,0-1,0c0.3-0.7,0.7-1.3,1-2C514.9-14.8,514.9-14.2,514.9-13.5z"/>
<path d="M512.9-12.6c0,0.3,0,0.7,0,1c-0.3,0-0.7,0-1,0C512.3-11.9,512.6-12.2,512.9-12.6z"/>
<path d="M513.9-12.5c-0.3,0-0.7,0-1,0c0.3-0.3,0.7-0.7,1-1C513.9-13.2,513.9-12.9,513.9-12.5z"/>
<path d="M101.1,27.1c-0.2,0.2-0.4,0.6-0.6,0.7c-0.4,0.1-1.1,0.2-1.3,0c-0.5-0.6-0.8-1.4-1.2-2c-0.3-0.5-0.8-1.3-1-1.3
	c-0.7,0.3-1.5,0.7-2,1.3c-0.6,0.6-0.8,1.5-1.3,2.2c-0.2-1-0.7-2.1-0.5-3c0.2-1.1,0.9-2.5,1.7-2.9c2.7-1.4,2.8-1.2,4,1.6
	C99.5,24.8,100.3,25.9,101.1,27.1z"/>
<path d="M105.5,35.9c-0.5,0.1-1.1,0-1.4,0.3c-1.7,1.4-2.7,1.5-2.6-1.1c-1.5-0.6-2.5-1.2-0.5-2.5c-0.2-0.1-0.4-0.4-0.7-0.4
	c-1.6-0.3-1.3-1.1-0.4-1.9c0.8-0.7,1.7-1.9,2.6-0.1c0.2,0.4,0.2,1,0.5,1.3c0.6,0.5,2.1-1,2.1,0.7c0,0.5-1.2,1-1.6,1.6
	c-1,1.3,0.3,1.1,0.9,1.3C104.9,35.3,105.2,35.7,105.5,35.9L105.5,35.9z"/>
<path d="M102.6,21.4c0.6-0.3,1.3-0.6,1.9-1c1.2,0.1,2.5,0.2,1,1.8c-0.3,0.3-0.8,0.4-1.3,0.5c0.5,0.2,1,0.3,1.4,0.5
	c0.4,0.2,0.8,0.4,1.2,0.6c-0.4,0.2-0.9,0.3-1.2,0.6c-0.3,0.3-0.4,0.8-0.6,1.3c0.6,0.1,1.2,0.2,1.8,0.3c-0.9,0.6-1.8,1.3-2.8,1.6
	c-0.3,0.1-1.3-0.9-1.4-1.5C102.5,24.6,102.6,23,102.6,21.4z"/>
<path d="M88,19.4c0.3,0,0.7,0,1,0c-0.3,0.3-0.7,0.7-1,1C88,20.1,88,19.8,88,19.4z"/>
<path d="M89,18.5c0.3,0,0.7,0,1,0c-0.3,0.3-0.7,0.7-1,1C89,19.1,89,18.8,89,18.5z"/>
</svg>
