<?xml version="1.0" encoding="utf-8"?>
<!-- Generator: Adobe Illustrator 18.0.0, SVG Export Plug-In . SVG Version: 6.00 Build 0)  -->
<!DOCTYPE svg PUBLIC "-//W3C//DTD SVG 1.1//EN" "http://www.w3.org/Graphics/SVG/1.1/DTD/svg11.dtd">
<svg version="1.1" id="Layer_1" xmlns="http://www.w3.org/2000/svg" xmlns:xlink="http://www.w3.org/1999/xlink" x="0px" y="0px"
	 viewBox="0 0 578.9 574.1" enable-background="new 0 0 578.9 574.1" xml:space="preserve">
<path d="M434.6,33c1,0.1,2.4,0.4,1.5,1.6c-3.3,4.2-6.9,8.2-13,8.2c-1.5,0-2.5,0.6-3.7,1.7c-2.8,2.5-6.2,4.5-9.3,6.6
	c3.6,3.2,7.6,2.8,11.6,0.1c0.5-0.4,1.1-0.7,1.7-0.9c0.4-0.1,1-0.2,1.2,0c0.3,0.3,0.4,1,0.3,1.3c-0.7,1.2-1.4,2.5-2.4,3.4
	c-4.7,4-10.2,5.9-16.4,6.4c0.2,0.5,0.3,1,0.5,1.2c2.9,2.6,5.9,5,8.6,7.8c2.2,2.3,4.5,2.8,7.4,2.1c1.2-0.3,2.4-0.5,4.5-0.9
	c-4.7,6.4-11,7.7-17,10c2-0.1,4-0.3,6-0.4c0.4,0,1.2,0.1,1.2,0.2c0.1,0.5,0,1.1-0.1,1.6c0,0.1-0.2,0.3-0.3,0.4
	c-4.9,5-10.1,9.4-17.5,9.9c-0.3,0-0.6,0-1,0c-1.4,0.2-1.7,0.8-0.9,1.9c2.4,3.3,4.9,4,8.7,2.5c0.4-0.2,0.9-0.5,1.3-0.5
	c0.6,0,1.2,0.3,1.6,0.6c0.1,0.1-0.1,1-0.3,1.3c-1.2,1.3-2.5,2.5-3.7,3.8c-0.5,0.6-1,1.3-1.5,1.9c-2.4,0.4-4.8,0.9-7.2,1.3
	c2.5,0.2,5.4,1.9,7.1-1.3c0.6-0.1,1.2-0.3,1.9-0.4c1.3-0.3,1.9,0.4,1.4,1.5c-0.7,1.4-1.7,2.7-2.7,4.2c1.2,1,2.4,2.2,3.8,3.1
	c2.8,1.7,5.7,3.1,9.1,1.8c1-0.4,2.1-0.6,2.4,0.5c0.2,0.6-0.5,1.7-1.1,2.3c-5.2,4.8-11.3,7.6-18.5,7.4c-1-1.2-1.9-1.3-2.9,0
	c-0.1,0.1-0.3,0.1-0.4,0.2c-0.1,0.1-0.1,0.2-0.1,0.3c0.2-0.2,0.3-0.3,0.5-0.5c1,0,1.9,0,2.9,0c3.4,2.3,6.7,4.7,8.4,8.7
	c0.3,0.7,1.1,1.4,1.8,1.5c2.5,0.3,4.4,1.9,6.3,3.1c2.8,1.7,5.3,2.1,7.9-0.3c0.9-0.9,2-2.1,3.3-0.8c1.2,1.2,0.1,2.4-0.9,3.3
	c-2.2,2.1-4.3,4.5-6.9,6c-5.1,2.9-10.4,2.7-15.5-0.6c0.8,6.9-2,12.3-6.9,16.9c-0.9,0.8-1.9,1.7-2.6,2.6c-3,3.9-6.9,5.7-11.8,5.2
	c-0.8-0.1-1.6-0.2-2.3-0.5c-2-1-2.3-2.5-0.3-3.6c4.8-2.6,6.8-7.2,9-11.6c1.1-2.2,1.2-4.3-0.1-6.4c-0.3-0.6-0.8-1.1-0.9-1.7
	c-0.6-3.7-2.7-5.6-6.4-6.2c-1.3-0.2-2.4-1.5-3.5-2.4c-2.2-1.8-4.4-3.1-7.5-1.6c-4.4,2.2-8.4,1.2-12.1-1.8c-1.4-1.1-2.4-3.2-4.9-2.2
	c-0.3,0.1-1.3-0.9-1.5-1.6c-0.9-2.6-1.9-4.9-4.2-6.8c-2.1-1.7-2.2-3.8-0.7-6.1c1.1-1.7,1.4-3.5,2.1-5.2c0.8-2.3,2.8-4.2,4.2-6.3
	c1.3-1.9,3.3-3.2,3.4-6c0.1-2.6,0.6-4.4-2.5-6c-2.2-1.1-2.9-4.2-2-6.9c0.8-2.6,1.5-5.3,2.8-7.6c1.8-3.2,1.8-6.2,0.8-9.7
	c-1-3.3-1.1-6.9-1.6-10.5c-0.9,0.5-1.9,1.2-3,1.6c-1.5,0.6-2.3,1.7-2.5,3.2c-1.2,6.3-6.6,8.3-11.3,10.8c-1.8,1-3.3-0.4-2.9-2.4
	c0.3-1.4,1-2.7,1.3-4.1c0.3-1.5,0.4-3,0.7-5.5c-2.4,1.6-4,2.6-5.6,3.6c-0.3,0.2-1.1,0.4-1.2,0.2c-0.4-0.4-0.9-1.2-0.8-1.6
	c2.3-6.3,1.8-13,2.8-19.4c0.5-3.3,2.7-6.4,4-9.2c-1.5,0.6-1.5,0.6-2.1,1.5c-6.4,9.6-12.9,19.2-19.2,28.9c-2.4,3.6-4.2,7.5-6.5,11.2
	c-3.6,5.7-7.8,11-11,17c-4,7.3-9,14-12.4,21.7c-3.4,7.8-7.9,15.1-11.6,22.8c-5.6,11.4-10.7,23-15,34.9c-2.3,6.5-4.9,12.9-7.4,19.3
	c-0.4,1-0.8,2.1-1.5,3c-4,5.6-5.5,12.2-6.7,18.8c-0.6,3.3-1.6,6.5-2.3,9.8c-0.6,2.3-1,4.7-1.6,7c-2.4,8.1-4.9,16.2-7.2,24.4
	c-1.6,5.7-2.9,11.5-4.1,17.3c-1.6,7.6-3.9,14.9-6.9,21.9c-4.5,10.3-9.3,20.5-12.9,31.1c-1.5,4.5-2.5,9.3-3.6,13.9
	c-3.2,13.1-6.4,26.1-9.4,39.2c-2.1,8.9-4.1,17.8-5.9,26.7c-0.9,4.1-1.4,8.2-2.1,12.3c-0.2,1.1-0.4,2.2-0.9,3.2
	c-1.5,3.4-2.3,7-2.1,10.8c0.1,1.2-0.6,2.5-0.8,3.7c-1.2,7.9-3.1,15.7-4.7,23.5c-1.1,5.3-0.9,10.9-1.2,16.3c-0.1,0.9,0.2,1.9,0.4,2.8
	c0.9,3.9,2.8,5.7,6.9,5.7c5.6,0,11.1,0.6,16.7-0.7c6.2-1.4,12.8-1.2,19.2-1.2c6.9-0.1,13.8-0.3,20.7-1.1c3.5-0.4,6.9-1.3,10.4,0.1
	c5.5-1.2,11.8,0.1,15.9-5.4c1-1.4,2.1-2.9,2.7-4.5c1.2-3.1,2.1-6.4,3.2-9.6c0.4-1,1.1-2,1.8-2.8c1.2-1.3,2.7-2.3,3.7-3.7
	c1.1-1.5,2.5-1.3,3.9-1.1c1.5,0.3,2.1,1.4,2.1,2.8c0,2.8,2.2,5.4,0.9,8.4c-0.6,1.5-1,2.8-2.9,3.5c-3.2,1.2-4.3,4.1-4.7,7.3
	c-0.1,0.5,0.6,1.1,0.9,1.6c0.3-0.2,0.8-0.4,1-0.7c2.7-3.5,5.9-6.8,6.9-11.4c0.5-2.1,1.7-4.2,4.3-4.8c1.5-0.4,2.7-0.5,4,0.6
	c0.7,0.7,1.8,1.1,2.8,1.4c2.1,0.6,2.9,1.4,2.2,3.3c-0.7,1.7-1.8,3.5-3.2,4.6c-2.8,2.2-4.5,4.8-5.6,8.2c-1.1,3.3-2.9,6.4-4.5,9.9
	c2.5-0.1,3.9-1.7,5.4-3.1c3.2-3,6.3-6,9.5-8.9c0.5-0.4,0.9-1,1.4-1.2c1.8-0.8,3.8,0.7,3.6,2.6c-0.2,2.2-0.5,4.5-0.9,6.6
	c-0.4,1.9-1.7,3.1-3.7,3.4c-4.2,0.6-6.4,4.5-9.8,6.3c-0.6,0.3-0.9,1.3-1.3,2c-1,1.9-1.9,3.8-3,5.9c2.8-0.6,4.8-2.6,6.9-4.1
	c1.7-1.2,3.1-2.9,5-3.8c4.1-2,7.8-4.5,10.8-8c1.7-2,4.4-1.7,6.7-2.2c1.2-0.3,2.3,1.6,1.5,2.7c-2.9,4-5.9,7.8-9,11.6
	c-1.1,1.3-2.8,2.2-4,3.5c-1.1,1.3-1.9,2.9-2.9,4.4c-0.2,0.3-0.1,0.6-0.2,0.9c-1.9,5.1-5,7-10.1,5.7c-2.8-0.7-5.2-1.5-8.2-1.1
	c-3.6,0.4-7.3-0.3-11-0.7c-6.6-0.6-12.7,1.1-18.7,3.7c-5,2.2-10.1,2.8-15.5,1.4c-2.9-0.8-6.1-1-8.4,2c-0.3,0.3-0.8,0.6-1.3,0.6
	c-6.2,1.1-11.7,4.4-18,4.9c-0.3,0-0.7,0-0.9,0.1c-0.4,0.2-0.9,0.5-1.1,0.8c-0.1,0.1,0.3,0.7,0.6,1c1.1,1,2,2.1,3.3,2.8
	c2.7,1.5,4,4,5.5,6.5c0.8,1.4,1.9,2.6,2.8,3.9c0.6,0.9,1.4,1.8,1.6,2.8c0.2,1.2,0,2.6-0.6,3.6c-0.2,0.4-2-0.1-3-0.2
	c-1.9-0.2-3.6-0.7-5.4-1.5c-1.7-0.8-4-0.2-6.1-0.2c-6.6,0.1-13.2,0.6-19.8,0.4c-5.3-0.2-10.5-1.1-15.7-1.7c-2.4-0.3-4.8-0.5-7.1-1.1
	c-1.9-0.5-3.5-1.1-3.4,1.9c0,0.1-1,0.3-1.5,0.4c-1.2,0.1-1.4,0.8-0.8,1.6c3.6,4.3,7.2,8.6,10.8,13c1.1,1.4,2.2,2.8,3,4.3
	c0.5,0.9,0.2,1.9-1.1,2.2c-3.2,0.8-6.1,2.8-9.7,1.2c-1.7-0.7-3.8-0.7-5.7-0.8c-2.9-0.1-4.9-2.2-7.4-3.2c-6.6-2.5-13.4-4.1-20.3-5.8
	c-2.2-0.5-2.8,0-3.1,2.3c-0.1,0.8-0.1,1.6-0.2,2.4c0,0.2-0.5,0.6-0.7,0.6c-0.4-0.1-1-0.5-1-0.7c0-1.8,0-3.5,0.2-5.3
	c0.2-1.5,0.5-3.1,0.4-4.7c-2.4,3-1.5,6.8-2.6,10c-0.2,0.6,0,1.3-0.2,1.9c-0.1,0.3-0.7,0.6-1.1,0.7c-0.1,0-0.6-0.4-0.6-0.6
	c-0.1-1.6-0.1-3.2-0.1-4.8c0.1-0.1,0.3-0.1,0.4-0.2c0.1-0.1,0.1-0.2,0.1-0.3c-0.2,0.2-0.3,0.3-0.5,0.5c-0.6,0.9-1.4,1.7-1.7,2.7
	c-0.4,1.3-0.6,1.9-2.2,1.3c-1.4-0.5-2.4-1-1.7-2.6c1.1-2.7,1.9-5.3,1.7-8.3c0.3-0.6,0.6-1.3,1-1.9c0.3-0.6,0.6-1.3,1-1.9
	c2-1,2.5-2.9,2.9-4.8c0.1-0.1,0.3-0.1,0.4-0.2c0.1-0.1,0.1-0.2,0.1-0.3c-0.2,0.2-0.3,0.3-0.5,0.5c-2,1-2.6,2.8-2.9,4.8
	c-0.3,0.6-0.6,1.3-1,1.9c-0.3,0.6-0.6,1.3-1,1.9c-1,3-1.9,6-2.9,9c-0.3,0.8-0.8,1.6-2.1,2.1c0.3-1.7,0.6-3.3,0.9-5
	c0.4-2.3,0-2.8-2.3-3.1c-4.3-0.5-8.5-1.4-12.8-1.7c-3.7-0.3-7.4-0.2-11.1-0.2c-1.2,0-1.6,0.8-1.7,1.9c-0.1,1.3-0.4,2.5-0.6,3.7
	c0,0.2-0.5,0.3-1.1,0.7c-0.5-3.9-0.7-7.7,0.2-11.4c0.6-2.5,1-4.8-2.4-6.5c0.3,6-0.5,11.7,0.6,17.4c0.1,0.6,0.2,1.3,0.2,1.9
	c0,0.2-0.4,0.5-0.7,0.5c-0.2,0-0.7-0.2-0.8-0.4c-0.2-1.4-0.4-2.8-0.6-4.2c0-0.2-0.5-0.5-0.7-0.5c-0.2,0-0.7,0.3-0.7,0.5
	c-0.2,1.4-0.3,2.8-0.7,4.2c-0.7-3.5-1.1-7.1,0.2-10.6c1.3-3.4,1.4-6.9,0.8-11.5c-1.6,6.2-4,11.2-3.5,16.8c0.1,0.9-0.1,2-0.4,2.8
	c-0.3,0.8-1.1,1.3-1.5-0.2c-0.2-0.8-0.6-1.8-1.6-1.1c-2.7,2.2-6.2,1.3-9.2,2.4c-2.1,0.8-4.4,0.9-6.5,1.5c-7.9,2.3-15.5,5.2-23.1,8.3
	c-2.4,1-4.6,2.2-7,3.2c-0.7,0.3-1.6,0.6-2.3,0.4c-0.9-0.2-1.9-0.8-1-2.1c2.9-3.9,5.5-8,8.7-11.5c3.2-3.6,7-6.7,10.6-9.9
	c1.1-1,1.6-2.2,0.9-3.4c-0.3-0.6-1.6-0.9-2.4-1c-3.9-0.4-7.7,0.2-11.5,1.2c-0.9,0.2-2,0.6-2.7,0.3c-0.9-0.3-2-1.1-2.3-2
	c-0.2-0.5,0.7-1.8,1.4-2.2c3.5-2.2,7.1-4.4,10.8-6.4c1.6-0.9,2.6-1.7,1.3-3.6c-0.3-0.5-0.4-1.7-0.1-2.1c0.4-0.4,1.4-0.4,2.1-0.3
	c2,0.3,4.4,1.5,5.9,0.8c1.3-0.5,1.7-3.2,2.6-5c0.6-1.2,1.2-2.3,1.7-3.5c0.5-1.1,1.3-2.2,2.5-1.4c0.5,0.3,0.3,1.6,0.3,2.5
	c0,0.3-0.3,0.6-0.4,0.9c-1.5,3.7-1.2,4.2,2.7,4.1c6.1-0.1,10.2-3.5,13-8.5c0.9-1.7,1.6-3.5,2.2-5.4c0.3-0.9,0.5-2,0.2-2.8
	c-2-4.7,0.3-8.5,2.5-12.2c1.7-2.9,4-5.4,6.1-8.1c0.7-0.9,1.3-1.8,1.8-2.8c1.9-3.9,3.5-8,5.5-11.8c2.6-5.1,3.5-10.6,4.7-16.1
	c1.1-4.9,0.4-10,1.1-14.9c1-6.8,2.6-13.5,4.2-20.2c2.3-9.5,4.9-18.9,7.4-28.3c1.1-3.9,1.7-7.8,1.8-11.8c0.2-5.5,2.1-10.7,3.2-16
	c1.4-6.4,2.4-12.9,3.5-19.3c1.6-9.6,2.9-19.3,6.3-28.6c3.8-10.4,6.7-21.1,10.1-31.6c0.8-2.4,2.2-4.7,2.9-7.1c1.8-6,3.4-12,4.9-18.1
	c2.2-8.8,4.1-17.8,6.5-26.6c2.8-10.2,5.9-20.3,9.4-30.3c2.2-6.2,3.9-12.5,7.8-18.1c4.1-5.9,5.8-12.9,8.2-19.5
	c3.2-8.8,6.8-17.4,10.7-25.8c7-15.2,13.6-30.6,20.7-45.7c6.2-13.2,12.2-26.5,20.2-38.8c0.3-0.4,0.4-0.9,0.8-1.8
	c-1.7,0.7-3,1.4-4.4,1.7c-1.6,0.4-2.5-0.9-1.8-2.3c0.4-0.9,1.1-1.6,1.5-2.5c0.6-1.7-0.1-2.5-2-2.3c-0.6,0.1-1.3,0.2-1.9,0.2
	c-0.2,0-0.6-0.9-0.4-1.1c0.4-0.5,1-0.8,1.5-1.2c2.8-2.1,2.8-2.1,1.5-6c-1,1.4-2.2,2.5-2.8,3.8c-1.4,2.9-4,4.1-6.7,5.2
	c-0.6,0.3-1.8,0.2-2.1-0.2c-0.4-0.4-0.3-1.5,0-2.1c0.6-1.5,1.9-2.7,2.2-4.2c0.8-3.7,1.2-7.6,1.8-11.3c-3.3-3,0.3-6.2-0.2-9.8
	c-2,0-4,0.1-6.1,0c-0.7,0-1.9-0.6-1.9-0.9c0-0.8,0.4-1.8,0.9-2.4c0.9-0.9,2.1-1.5,3-2.4c2.1-2,2-2.5-0.9-4.1c-0.3-0.1-0.6-0.2-1-0.3
	c-3.6,8.3-11.1,8.7-18.6,9.2c-1.3,0.1-3.2-0.5-3.9-1.5c-1.6-2.2-3.5-2.4-5.8-2.4c-0.7,0-1.7-0.5-1.9-1c-0.2-0.6,0.1-1.6,0.6-2.1
	c1.4-1.6,2.9-3,4.4-4.5c3-3,2.9-3,1-7c-0.2-0.4-0.5-0.8-0.9-1.4c-0.3,0.9-0.6,1.6-0.8,2.3c-1.9,7.3-7.5,10.6-13.9,12.7
	c-2.4,0.8-4.8,2.9-7.8,1.3c-0.3-0.2-1.1,0.4-1.6,0.8c-0.6,0.5-1.1,1.2-1.7,1.7c-1.3,1.1-3.3,2-3.9,3.4c-0.5,1.1,0.9,2.9,1.1,4.4
	c0.7,5.6-0.4,10.6-4.9,14.4c-1.6,1.3-3,2.9-4.7,4.1c-1.6,1.1-2.8,0.5-2.9-1.5c-0.2-2.9-0.1-5.8-0.1-8.7c0-2.9,0-5.8,0-8.9
	c-2.6,1.2-4.8,2.2-7,3.3c-1.5,0.7-2.6,3.1-2.3,4.8c0.2,1.1,0.4,2.2,0.7,3.3c0.1,0.4,0.4,0.8,0.9,1.6c2.3-2.3,3.9-4.6,3.9-7.8
	c0-0.4,0.7-0.9,1-1.3c0.3,0.5,0.9,1,0.8,1.5c-0.1,1.6-0.2,3.3-0.9,4.7c-0.9,1.9-2.2,3.5-3.4,5.2c-0.7,1-1.7,1.8-2.5,2.7
	c-0.4-1.1-0.8-2.2-1.1-3.4c-0.5-1.3-0.9-2.6-1.4-4c-2,0.9-3.7,1.7-5.5,2.4c-1.4,0.5-1.7-0.1-1.4-1.5c0.3-1.4,0.5-2.8,0.6-4.3
	c0.3-3.3-0.1-3.9-3-3.4c-2.3,0.4-4.3,0.4-6.5-0.5c-1.8-0.7-2.8-0.1-3,1.7c-0.2,1.3,0.1,2.6-0.1,3.9c-0.3,1.9-0.5,3.9-1.2,5.6
	c-0.5,1.3-1.7,2.3-2.6,3.4c-0.7-1-1.5-1.9-2.2-2.9c-0.2-0.3-0.3-0.6-0.5-0.8c-4.2-3.5-7-7.8-8.3-13.8c-0.7,1.9-1.3,2.9-1.5,3.9
	c-0.6,2.9-2.6,4.5-5,5.5c-3.8,1.5-7.8,1.3-11.7,0.1c-2.1-0.7-2.4-1.7-1.2-3.6c0.9-1.4,2-2.5,2.8-3.9c1.2-1.8,2.2-3.7,3.4-5.7
	c-0.9-0.4-1.4-0.6-1.8-0.8c-1.3-0.5-2.7-1-4-1.4c-0.4,1.3-0.7,2.7-1.3,3.9c-0.4,1-1,2.1-1.8,2.7c-1.4,1.1-2.9,2.2-4.5,2.7
	c-2.9,1-5,2.5-6.2,5.5c-1,2.5-3.2,4.1-5.8,4.8c-3.2,0.9-6.5,3-9.9,0.3c-0.2-0.2-0.6-0.1-1-0.1c-3.3,0.5-5.9-1.2-8.8-2.6
	c-0.3,0.3-0.6,0.6-0.8,0.9c-1.2,1.7-3.2,3.3-3.4,5.2c-0.2,1.8,1.6,3.7,2.2,5.7c1.5,4.5-0.8,9.4-5.8,12.1c-3.1,1.7-6.4,2.9-9.7,4.4
	C12,73,11.2,72.2,10.9,71c-0.2-1,0-2.2,0.3-3.3c1.1-3.4,2.4-6.6,3.5-10c0.5-1.5,0.5-3.1,0.8-4.7c0.3-1.8-0.7-3.1-2.1-4.1
	c-0.4-0.3-0.9-0.4-1.3-0.7C11,47.2,10,46,8.9,44.8c1.3-0.7,2.6-1.5,4-2.1c2.3-1.1,5-1.4,6.5-3.9c0.3-0.3,0.7-0.6,1-1
	c0.2-0.2,0.3-0.3,0.5-0.5c-0.2,0.1-0.3,0.3-0.5,0.4c-0.3,0.3-0.6,0.7-1,1c-2.7,0.5-5.3,1.9-8.3,1.2c-0.9-0.2-2,0.8-3,1.1
	C5.4,42,2.7,42.8,0,43.7c0-1.6,0-3.2,0-4.9c0.3-1,0.6-1.9,1-2.9c0.1-0.1,0.3-0.1,0.4-0.2c0.1-0.1,0.1-0.2,0.1-0.3
	c-0.2,0.2-0.3,0.3-0.5,0.5c-0.3,0-0.6,0-1,0c0-0.6,0-1.3,0-1.9c3.3-2.1,2.8-6.1,5.3-9.6c-2.4,0.8-3.9,1.3-5.3,1.9c0-1.3,0-2.6,0-3.9
	c1.2-0.8,2.3-1.8,3.7-2.3c3-1.2,4.9-3.4,6.8-6.5c-3.7,0-7.1,0-10.5,0c0-0.6,0-1.3,0-1.9c2.7-0.1,5.6,0.4,7.8-1.7
	c1.4-1.3,4.4-2.6,3.1-4.5C9.8,3.8,7.6,6.1,6,7c-2,1.2-4,2.4-6,3.6C0,10,0,9.4,0,8.7c1-0.8,1.8-1.8,2.9-2.4c2.9-1.6,5.8-3.8,8.9-4.1
	C14.2,2,15.9,1.5,17.5,0C23,0,28.5,0,34,0c-0.5,0.5-1,1.3-1.6,1.5c-1.4,0.4-2.9,0.4-4.4,0.6c2,1.2,4.1,2.6,5.9,2.3
	c3-0.5,6.4,0,9.1-2.2c1-0.8,2.6-0.8,3.9-1.3c0.9-0.3,1.7-0.6,2.5-0.9c1,0,1.9,0,2.9,0c0,1,0,1.9,0,2.9C47.8,2.5,43.4,3.3,39.6,6
	c-1,0.7-1.9,1.7-2.9,2.5c-1,0.7-2.1,1.3-4.1,2.5c3.8,0.3,6.5,0.5,9.2,0.7c0.6,0,1.4,0.1,1.9-0.1c1.4-0.7,2.9-1.5,4-2.6
	c1.8-1.8,3.2-4,4.8-6c1-1,1.9-2,2.9-2.9c2.3,0,4.5,0,6.8,0c-0.7,0.6-1.3,1.8-2,1.8C55.9,2,53.6,5,51.1,7.7c-1.7,1.8-3.1,3.8-5.1,6.1
	c1.8-0.8,3.2-2.1,4.5-1.9c2.7,0.4,4.1-1.2,5.7-2.7c1.9-1.9,3.9-3.7,5.6-5.8C62.6,2.6,62.7,1.2,63,0c1.3,0,2.6,0,3.9,0
	c-1.3,1.8-2.5,3.6-3.9,5.3c-1,1.2-1.3,2.4-0.5,4c2.5-2.2,5.1-4.4,7.5-6.7c0.6-0.6,0.5-1.7,0.8-2.6c1.6,0,3.2,0,4.8,0
	c0.3,0,0.6,0,1,0c1.9,0,3.9,0,5.8,0c-0.3,0.5-0.7,1.1-1,1.6c-1.2,1.6-1.2,3.2,0.1,4.7C82.7,7.8,84,8,85.7,7.1
	c0.8-0.4,1.9-0.2,2.8-0.6c3.3-1.3,3.9-2.9,2.7-6.6c1.3,0,2.6,0,3.9,0c-0.3,1.7-0.8,3.2,1.1,4.6c1.1,0.8,1.7,2.3,2.4,3.3
	c3-2.6,3.6-5.1,3.3-7.9c2.9,0,5.8,0,8.7,0c-0.6,0.5-1.2,1.2-1.9,1.4c-4.1,0.8-5.4,4.2-7.2,7.2c-0.3,0.4-0.3,1.4,0,1.6
	c0.4,0.3,1.2,0.3,1.7,0.1c1.7-0.8,3.3-2,5.1-2.6c3.8-1.3,5.9-3.7,6.1-7.7c1,0,1.9,0,2.9,0c-0.2,0.8-0.3,1.6-0.6,2.2
	c-0.7,1.4-1.4,2.7-0.5,4.5c0.6,1.2,0.2,2.8,0.2,4.3c0,1.2-0.2,3,1.5,2.9c0.8,0,1.8-1.7,2.2-2.7c0.3-1-0.1-2.2-0.3-3.3
	c-0.5-2.6-1-5.3-1.5-7.9c1.3,0,2.6,0,3.9,0c-2,5.7,0.1,10.5,5.5,12.9c1.7,0.8,2.6,0.3,3.1-1.5c0.6-2.1,1.3-4.2,1.9-6.3
	c0.5-1.7,0.8-3.4,1.2-5.1c1.6,0,3.2,0,4.8,0c-1.3,1.8-0.8,3.5,0.8,4.5c0.7,0.4,2.3-0.6,3.2-1.3c1.1-0.8,1.8-2.1,2.7-3.2
	c2.6,0,5.2,0,7.8,0c-4.3,3.1-5.9,7.8-6.6,12.7c-0.6,4,0.3,8.2-2.3,12.5c8.9-4.7,13.3-15.6,10.9-25.2c1,0,1.9,0,2.9,0
	c0.1,1.4-0.1,3.1,1.7,3.6c1.8,0.5,3.5,0.5,4.9-1c0.7-0.8,1.4-1.7,2.1-2.6c1.9,0,3.9,0,5.8,0c-0.7,0.6-1.2,1.6-2,1.8
	c-5,1.5-8.1,4.9-10.4,9.4c-0.6,1.1-1.1,2.3-1.8,3.4c-1,1.7-2.9,3-2.7,5.2c2-0.5,3.9-1,5.9-1.5c0.3-0.1,0.7-0.1,0.9-0.3
	c3.1-2.1,7.1-3.5,8.5-7.4c1.2-3.4,1.7-7.1,2.6-10.7c1,0,1.9,0,2.9,0c-0.2,0.8-0.4,1.5-0.6,2.3c-0.1,0.4,0,1.1,0.2,1.2
	c1.1,0.4,2.4,0.7,3.5,1.1c0.2-0.9,0.5-1.7,0.6-2.6c0.1-0.6,0-1.3,0-1.9c1,0,1.9,0,2.9,0c0,0.8,0,1.6,0,2.4c0.2,2.2,0.8,2.8,3,2.3
	c1.7-0.4,3.3-1.7,4.9-1.7C194.1,3,193,1.3,193,0c1,0,1.9,0,2.9,0c-0.2,2.1,0.7,3.2,2.9,2.9c-0.9,2.5-3.5,2.8-5.2,2.5
	c-1.8-0.3-3,0.3-4.5,0.9c-2.5,1-5.1,1.9-7.9,1.4c-0.8-0.1-1.7-0.1-2.5-0.1c0.5,0.8,0.9,1.7,1.5,2.3c3,3,5.4,3.4,9.1,1.6
	c1.7-0.8,3.6-1.6,5.1-2.7c1.8-1.3,3.4-2.9,5-4.4c0.2-0.2-0.4-1-0.6-1.5c-0.3-1-0.7-1.9-1-2.9c1,0,1.9,0,2.9,0c2.7,2.6,2.9,2.6,6.8,0
	c1.6,0,3.2,0,4.9,0c-0.4,0.5-0.7,1.3-1.1,1.5c-2,0.6-2.1,3.1-3.3,3.7c-1.5,0.7-3.6-0.2-5.5-0.2c-1.2,0-1.7,0.6-1.2,1.9
	c0.4,0.9,0.7,1.8,1.1,2.9c2.6-1,5.4-1.6,7.4-3.2c2.2-1.7,3.7-4.3,5.5-6.6c1.6,0,3.2,0,4.8,0c0.3,0.7,0.6,0.8,1,0c4.5,0,9.1,0,13.6,0
	c1,1.2,1.9,1.3,2.9,0c3.6,0,7.1,0,10.7,0c2.6,1.3,3.4,1.3,5.8,0c1,0,1.9,0,2.9,0c-0.2,3.1,2.1,3.9,4.3,4.7c0.7,0.3,1.9-0.1,2.6-0.6
	c1.1-0.9-0.3-1.5-0.6-2.3c-0.2-0.6-0.3-1.2-0.4-1.8c5.2,0,10.3,0,15.5,0c-0.8,1.7-1.5,3.4-0.3,5.8c2.5-2,4.8-3.9,7-5.8
	c2.3,0,4.5,0,6.8,0c-1.7,1.7-4.8,2.4-3.9,5.8c-1.3-0.5-2.6-1.4-3.8-1.2c-1.3,0.2-2.4,1.5-3.6,2.3c-0.7,0.4-1.4,0.7-2.1,1
	c-1.4,0.5-0.5,1.3-0.2,1.8c0.7,1.3,1.9,1.1,2.9,0.4c2.3-1.4,4.5-2.9,6.8-4.3c2.1-0.6,4.3-0.9,6.1-2c1.5-0.8,2.4-2,4.5-1.3
	c1.4,0.5,1.9-1.2,2-2.5c6.8,0,13.6,0,20.4,0c-2.1,2.1-2,4.6-0.8,7c1.6,3.1,3.3,6.2,5.1,9.2c0.9,1.5,2.2,2.6,4.3,2.6
	c0.7-2.8,1.6-5.6,1.8-8.4c0.1-1.6-0.8-3.4-1.7-4.8c-1-1.4-2.6-2.4-3.8-3.6c-0.5-0.5-0.7-1.3-1.1-2c1.3,0,2.6,0,3.9,0
	c0.3,0.8,0.6,0.8,1,0c6.1,0,12.3,0,18.4,0c0.9,2.1,2.7,2,4.5,1.8c2.4-0.3,4.7-0.6,7.1-0.9c0.4-0.1,0.7-0.6,1.1-0.9
	c2.6,0,5.2,0,7.8,0c-0.8,2.6-4,1.7-5.4,3.6c2.2,2.5,4.4,5.1,7.4,8.5c-0.5-2.9,0.6-4.7-1.3-6.4c-1.9-1.7-1.8-2.1,0.6-2.9
	c1.5-0.5,3.1-0.8,4.6-1c1.2-0.2,1.6-0.8,1.7-1.9c1.3,0,2.6,0,3.9,0c-0.6,3.3,3.2,4.4,3.7,7.4c0.7-2.9,4.6-3.9,4-7.4
	c1.9,0,3.9,0,5.8,0c-0.7,0.8-1.3,2-2.2,2.5c-3.3,1.5-4.1,4.7-5.7,7.5c-0.8,1.5,0,2.5,0.7,3.5c0.2,0.3,1.2,0.5,1.5,0.3
	c4.5-3.5,9.6-6.7,8.6-13.7c1,0,1.9,0,2.9,0c0.1,0.4,0.2,0.9,0.4,1.3c0.5-0.4,1.1-0.9,1.6-1.3c3.2,0,6.5,0,9.7,0
	c-1.3,1.3-2.7,2.7-4.1,4c-1,1-2.2,1.9-3.1,3c-0.2,0.2,0,1.4,0.3,1.5c2.9,1.2,7.5-0.1,9-2.5c1.2-1.8,1.3-3.9,0.7-5.9
	c2.9,0,5.8,0,8.7,0c-1.4,0.7-2.7,1.5-4.1,2.2c-1.4,0.7-2.6,2.4-1.8,3.3c1.9,1.9,0.4,3.2-0.1,4.8c-0.1,0.4,0,0.8,0.1,1.2
	c0.6-0.1,1.3-0.1,1.7-0.4c0.5-0.4,0.7-1.1,1-1.6c1.9-3.8,4.7-6.9,8.1-9.4c2.6,0,5.2,0,7.8,0c-0.6,2.4-1.3,4.8-2,7.4
	c2.5-0.8,4.4-1.5,6.2-2.1c-1.1-1.8-2.1-3.6-3.2-5.3c1.3,0,2.6,0,3.9,0c-0.1,1.5,0.1,2.9,1.6,3.7c0.8,0.5,1.7,1,2.3,1.7
	c4.4,4.8,9.7,6.2,16,4.6c2-0.5,4-0.9,6.1-0.4c0.8,0.2,1.8-0.6,2.7-0.9c-2.8-1.2-5.3-2.2-7.6-3.4c-3.3-1.7-6.8-0.7-10.1-1.1
	c-0.9-0.1-2,1.4-3.1,2c-0.4,0.2-1.1,0.1-1.7,0.1c0.1-0.7,0-1.6,0.4-2.1c0.5-0.6,1.4-0.7,2-1.2C450,2,451,1,452,0c1.3,0,2.6,0,3.9,0
	c0.3,0.9,0.6,0.6,1,0c1,0,1.9,0,2.9,0c0.1,0.4,0.2,0.9,0.3,1.3c0.2-0.4,0.4-0.9,0.7-1.3c1,0,1.9,0,2.9,0c0.6,1,1.3,1.1,1.9,0
	c1.9,0,3.9,0,5.8,0c0.6,1.1,1.3,1,1.9,0c1,0,1.9,0,2.9,0c2.1,1.6,4,3.5,6.8,3.9c0.3,0.3,0.6,0.5,0.9,0.8c0.1-0.2,0.2-0.3,0.3-0.5
	c-0.4-0.1-0.8-0.2-1.2-0.3c-1.3-1.3-2.6-2.6-3.9-3.9c1.6,0,3.2,0,4.9,0c3.5,2.8,7.5,4.1,12,3.9c3-0.2,3.1-0.3,2.6-3.9
	c1.3,0,2.6,0,3.9,0c0.3,0.7,0.6,0.8,1,0c1.6,0,3.2,0,4.9,0c1,1.2,1.9,1.3,2.9,0c1,0,1.9,0,2.9,0c-1.7,2.6-3.8,4.3-7.1,3
	c1.5,2,2.8,3.8,4.2,5.7c0,0,0,0.1,0,0.1c-0.2,0.6,0.1,2-1.2,1.1c-0.8-0.6-1.3-1.8-1.9-2.7c-1.4-1.8-3.2-2.8-5.4-2.1
	c-0.8,0.3-1.7,1.4-1.9,2.3c-0.2,0.6,0.5,1.9,1.1,2.2c3.2,1.3,4.8,4.1,7.1,6.3c0.6,0.6,1.4,1,2.2,1.5c0,0,0.1,0.2,0.1,0.2
	c-2,3.4-3.8,6.9-4,11c0,0.5-0.6,1-1.1,1.3c-0.2,0.1-1-0.3-1.1-0.7c-1.8-3.6-3.9-7-5.2-10.8c-0.7-2-1.3-3.3-3.1-4.4
	c-2-1.2-3.7-3-5.5-4.6c-0.8-0.7-1.5-1.7-2.5-2.1c-0.9-0.4-2.1,0-3.2,0c0.4,0.9,0.7,2.1,1.4,2.7c1.4,1.3,3.1,2.3,4.6,3.4
	c0.5,0.3,1.1,1,1,1.4c-0.1,0.5-0.7,1.2-1.2,1.3c-2.8,0.7-5.6,1.2-8.9,1.9c0.9,0.5,1.5,1.2,2.2,1.3c1.8,0.2,3.5,0.1,5.3,0.1
	c1.7,0,2.9,1,2.8,2.7c-0.2,2.6-0.6,5.5-3.1,6.7c-7.4,3.5-11.6,3.7-16.4-3.8c-0.6-1-1-2-1.6-3c-0.3-0.5-0.8-1-1.2-1.4
	c-0.3-0.3-0.8-0.4-1.5-0.7c0,2.9,2.2,4.6,3.4,6.7c2.7,4.3,2.1,5.6-3,6.6c-2.8,0.5-5.6,1-8.4-0.4c-1.1-0.6-1.7-0.3-2.3,0.8
	c-0.8,1.6-1.8,3-2.7,4.5c-2.6,4.3-6.9,6.1-11.4,7.5c-1.8,0.5-3.2-0.8-3-2.7c0.2-1.6,0.2-3.4,1-4.7c2.1-3.3,0.9-5.1-2-7.1
	c-2.5-1.7-2.2-2-4.4,0.1C435.5,31.7,435,32.4,434.6,33c-0.6,0.3-1.3,0.6-1.9,1c-0.6,0.3-1.3,0.6-1.9,1c-0.1,0.1-0.3,0.1-0.4,0.2
	c-0.1,0.1-0.1,0.2-0.1,0.3c0.2-0.1,0.3-0.3,0.5-0.4c0.6-0.3,1.3-0.7,1.9-1C433.3,33.6,433.9,33.3,434.6,33z M290,466.6
	c0.3-0.3,0.6-0.6,1-1c0.1-0.1,0.3-0.1,0.4-0.2c0.1-0.1,0.1-0.2,0.1-0.3c-0.2,0.2-0.3,0.3-0.5,0.5C290.7,465.9,290.4,466.2,290,466.6
	c-0.1,0.1-0.3,0.1-0.4,0.2c-0.1,0.1-0.1,0.2-0.1,0.3C289.7,466.9,289.9,466.7,290,466.6z M128,551c0.3-0.3,0.6-0.7,1-1
	c4.8-1.5,9.8-2.4,14.9-2.4c-3.1-0.4-6.1-0.7-9.1-0.4c-2.1,0.2-4.6,0.3-5.8,2.7C128.7,550.3,128.4,550.6,128,551
	c-0.1,0.1-0.3,0.1-0.4,0.2c-0.1,0.1-0.1,0.2-0.1,0.3C127.7,551.3,127.9,551.1,128,551z M368.6,36.9c0.1,0.1,0.1,0.3,0.2,0.4
	c0.1,0.1,0.2,0.1,0.3,0.1C368.9,37.2,368.8,37,368.6,36.9c-0.3-0.3-0.7-0.6-1-1c-0.1-0.1-0.1-0.3-0.2-0.4c-0.1-0.1-0.2-0.1-0.3-0.1
	c0.2,0.2,0.3,0.3,0.5,0.5C368,36.2,368.3,36.5,368.6,36.9z M42.7,33.9c-0.4,0.1-0.8,0.2-1.3,0.3c0.1,0.2,0.2,0.3,0.3,0.5
	C42,34.5,42.4,34.2,42.7,33.9c0.3-0.3,0.7-0.6,1-1c0.3,0,0.7,0,0.9-0.1c0.5-0.3,1-0.7,1.4-1.1c0,0-0.3-0.5-0.4-0.5
	c-0.5,0.3-1,0.6-1.5,0.9c-0.2,0.2-0.3,0.5-0.4,0.8C43.3,33.3,43,33.6,42.7,33.9z M346.3,2.9c-0.2-0.1-0.3-0.3-0.5-0.4
	C346,2.6,346.1,2.8,346.3,2.9c0.6,0.4,1.3,0.7,1.9,1c0.7,1.4,1.7,2.2,4.1,1.5c-1.8-0.6-2.9-1.1-4.1-1.5
	C347.6,3.5,346.9,3.2,346.3,2.9z M345.3,42.7c0.3-0.6,0.7-1.3,1-1.9c0.4-0.3,0.9-0.4,1.1-0.8c0.3-0.4,0.3-1,0.4-1.5
	c-0.4,0.3-0.9,0.6-1.2,1c-0.2,0.3-0.2,0.9-0.3,1.3C346,41.4,345.6,42,345.3,42.7c-0.1,0.1-0.3,0.1-0.4,0.2c-0.1,0.1-0.1,0.2-0.1,0.3
	C345,43,345.2,42.8,345.3,42.7z M282.3,465.6c-0.4,0.1-0.8,0.2-1.2,0.3c0.1,0.2,0.2,0.3,0.3,0.5C281.6,466.1,282,465.9,282.3,465.6
	c0.1-0.1,0.3-0.1,0.4-0.2c0.1-0.1,0.1-0.2,0.1-0.3C282.6,465.3,282.4,465.4,282.3,465.6z M131.9,536.4c0.6-0.3,1.3-0.6,1.9-1
	c0.6-0.3,1.3-0.6,1.9-1c0.2-0.2,0.3-0.3,0.5-0.5c-0.2,0.2-0.3,0.3-0.5,0.5c-0.6,0.3-1.3,0.6-1.9,1
	C133.2,535.8,132.6,536.1,131.9,536.4c-0.4,0.1-0.8,0.2-1.3,0.3c0.1,0.2,0.2,0.3,0.3,0.5C131.3,536.9,131.6,536.7,131.9,536.4z
	 M161,538.4c-1.3,0.9-1,2.1-0.2,3.3C160.9,540.5,161,539.4,161,538.4c0.3-0.5,0.6-0.9,0.8-1.4c0.1-0.2-0.2-0.5-0.2-0.8
	c-0.2,0.3-0.5,0.6-0.5,0.9C161,537.4,161,537.9,161,538.4z M117.4,559.7c0.4-0.6,0.9-1.2,1.3-1.9c0.1-0.2-0.1-0.5-0.2-0.8
	c-0.3,0.1-0.7,0.2-0.7,0.3C117.6,558.1,117.5,558.9,117.4,559.7c-0.2,0.1-0.3,0.3-0.5,0.5C117.1,560,117.2,559.9,117.4,559.7z
	 M313.3,491.8c0.6-0.5,1.3-0.9,1.8-1.5c0.2-0.2,0.2-0.7,0.3-1.1c-0.4,0.2-1,0.2-1.2,0.5C313.8,490.3,313.6,491.1,313.3,491.8
	c-0.3,0.3-0.7,0.6-1,0.9c-1.5-0.1-2.9-0.7-4.3,0.8c-1.2,1.4-3.2,2.1-4.7,3.2c-2.7,1.9-5.7,3.7-8.1,6c-3.2,3.1-6.9,4.6-11.3,4.5
	c-5-0.1-9.9,0.2-14.9-0.8c-4.5-0.9-9.2-0.4-13.9-0.9c-8-0.9-16.1,0.5-24.1-1.1c-1.7-0.3-2.6,0.9-1.6,2.3c1,1.4,1,2.8,1.2,4.4
	c0.3,3.6,0.5,3.6,4,3.8c1.3,0.1,2.6,0.2,3.8,0.4c5.8,1.1,11.5,1.2,17-1.4c4.4-2.1,9-3.2,14-2.9c4.8,0.3,9.7,0.1,14.5,0.1
	c3.2,0,6.4,0,9.5,1.2c2.9,1.1,4.8,0,6.2-2.7c0.4-0.7,0.8-1.4,1-2.2c0.5-2.5,2.1-4,4-5.7c2.9-2.6,6.6-4.8,7.8-8.9
	C312.7,492.4,313,492.1,313.3,491.8z M161,530.6c-1.8,0.7-2,2.3-1.9,3.9c-1.7,3.1-3.2,6.3-2,10.1c0.7-3.4,1.3-6.7,2-10.1
	C159.7,533.2,160.4,531.9,161,530.6c0.1-0.1,0.3-0.1,0.4-0.2c0.1-0.1,0.1-0.2,0.1-0.3C161.3,530.3,161.2,530.4,161,530.6z
	 M74.7,538.3c0.2,0.4,0.4,0.8,0.8,1.1c0.2,0.1,0.6,0,1-0.1c-0.1-0.2-0.2-0.6-0.4-0.7C75.6,538.5,75.1,538.4,74.7,538.3
	c-0.3-2.8-2-3.1-4.9-2.5C71.5,537.3,72.9,538.2,74.7,538.3z M335.6,18.4c0.1,0.1,0.1,0.3,0.2,0.4c0.1,0.1,0.2,0.1,0.3,0.1
	C335.9,18.8,335.8,18.6,335.6,18.4c-0.1-2-0.1-4.1-0.3-6.1c0-0.4-0.6-0.7-0.9-1c-0.2,0.3-0.6,0.6-0.7,1
	C333.2,14.6,332.8,17,335.6,18.4z M122.2,549c-1.1,1.3-2.3,2.5-3.3,3.8c-0.2,0.3,0.1,1.1,0.1,1.6c0.7-0.2,1.8-0.2,2-0.6
	C121.6,552.4,121.8,550.7,122.2,549c0.3-0.5,0.6-1,0.8-1.6c0.1-0.2-0.2-0.5-0.4-0.7c-0.1,0.3-0.3,0.6-0.3,0.9
	C122.2,548.1,122.2,548.5,122.2,549z M308.4,1.9c-5.2,1.7-5.5,2-5.1,7.8C305.2,6.9,306.8,4.4,308.4,1.9c0.2-0.1,0.4-0.3,0.5-0.4
	C308.8,1.6,308.6,1.8,308.4,1.9z M381.2,87.3c0.3,1,0.6,1.9,1,2.9c1.1,5.6,3.8,8,8.5,7.7c0.8-0.1,1.7,0.1,2.6,0.2
	c-0.3,0.9-0.4,1.8-0.9,2.6c-0.3,0.5-0.9,0.9-1.5,1.2c-1.4,1-0.6,1.7,0.4,2c0.8,0.3,2,0.5,2.5,0.1c1.5-1.3,3.3-1.1,5-1.2
	c1.2,0,2.6,0.2,3.2-1.6c-2.9-0.5-5-2.1-6.9-4.2c-1-1.1-2-2.3-3.7-1.7c-3,1.2-4.8-0.8-6.6-2.5c-0.9-0.9-1.8-1.7-2.8-2.6
	C381.9,89.2,381.5,88.3,381.2,87.3c0.2-2.4-1.8-4.5-0.6-7.1c0.1-0.2-1.2-1-1.9-1.6c-0.4,0.5-1.1,1-1.3,1.7c-0.2,0.5,0,1.3,0.3,1.8
	C378.9,83.9,380.1,85.6,381.2,87.3z M404.5,2.9c-3.3,0.6-5.3,2.9-8.3,5.9c2.3-0.2,4,0.1,4.7-0.6C402.3,6.7,403.3,4.7,404.5,2.9
	c0.1-0.1,0.3-0.1,0.4-0.2c0.1-0.1,0.1-0.2,0.1-0.3C404.8,2.6,404.7,2.8,404.5,2.9z M41.7,534.5c-0.3-0.3-0.6-0.5-0.9-0.8
	c-0.1,0.2-0.2,0.3-0.3,0.5C40.9,534.3,41.3,534.4,41.7,534.5c1.6,1.7,3.2,3.5,4.8,5.3c1.4,1.7,2.2,4,4.8,4.9
	C50,538.9,47.6,536.4,41.7,534.5z M400.6,79.5c0.1,0.1,0.1,0.3,0.2,0.4c0.1,0.1,0.2,0.1,0.3,0.1C400.9,79.8,400.8,79.7,400.6,79.5
	c-1.4-4-1.8-4.2-5.6-3.8c-1.6,0.2-2.7,1.3-2.6,2.7c0.2,1.5,1.4,2.3,3.1,2C397.2,80.1,398.9,79.8,400.6,79.5z M331.7,34
	c1.6-0.9,3.7-1.4,4.9-2.7c2.4-2.5,4.3-5.5,6.6-8.5c-1.4-0.5-2.6-0.9-3.7-1.4c-1.4-0.7-2-0.1-2.5,1.1c-0.4,1-1.1,2-1.3,3.1
	C335.4,28.8,333.5,31.3,331.7,34c-0.1,0-0.3,0.1-0.4,0.2c-0.1,0.1-0.1,0.2-0.1,0.3C331.4,34.3,331.6,34.1,331.7,34z M361.8,115.4
	c1.4-1.2,2.9-2.3,4.3-3.5c0.2,1.3,0,2.3-0.5,3.1c-0.6,1.1-1.6,2-2.2,3.1c-0.3,0.5-0.4,1.4-0.2,1.7c1.3,1.6,2.6,3.2,4.2,4.5
	c1.1,1,2,0.4,2.1-1.2c0.1-2.1,0.1-4.2,0.3-6.2c0.3-2.3-1.1-5.2-3-6.3c-4-2.1-4.5-1.8-4.9,2.8C361.8,114.1,361.8,114.8,361.8,115.4
	c-0.1,0.1-0.3,0.1-0.4,0.2c-0.1,0.1-0.1,0.2-0.1,0.3C361.5,115.8,361.7,115.6,361.8,115.4z M376.4,48.5c-0.1-0.1-0.1-0.3-0.2-0.4
	c-0.1-0.1-0.2-0.1-0.3-0.1C376,48.2,376.2,48.3,376.4,48.5c0.5,1.7,1,3.4,1.6,5c1.2,3,3.5,4.5,6.7,4.6c1.5,0,2.9,0.1,4.4-0.1
	c0.5,0,1.1-0.4,1.5-0.8c0.1-0.1-0.2-0.9-0.5-1.2c-2.1-2.8-5.4-4.1-7.6-6.8c-0.5-0.6-1.8-0.6-2.7-0.7
	C378.6,48.5,377.5,48.5,376.4,48.5z M412.2,11.6c-1.2,0-2.6,0.4-3.6,0.1c-7-2.4-13-1-18.5,3.9c1.2,1.1,2.2,2.1,3.4,2.9
	c0.7,0.5,1.8,1,2.6,0.8C402,18,407.6,15.8,412.2,11.6c0.2-0.1,0.3-0.3,0.5-0.5C412.6,11.3,412.4,11.5,412.2,11.6z M228.9,22.3
	c1.9-1.1,3.8-2.2,5.8-3.3c7-3.9,8.4-10.2,7.6-17.8c-3.2,1.2-5.3,3.1-6.6,5.8C233.3,12.1,231.2,17.2,228.9,22.3
	c-0.1,0.1-0.3,0.1-0.4,0.2c-0.1,0.1-0.1,0.2-0.1,0.3C228.6,22.6,228.8,22.5,228.9,22.3z M435.5,28.1c-2.7,0.3-5.4,0.8-8.1,0.9
	c-3.8,0.1-7.7,0.9-11.3-1.3c-4.6-2.8-8.6-0.8-12.6,1.5c-0.9,0.6-0.7,1.2-0.2,2c1.2,1.9,2.9,1.2,4.2,0.6c3.9-1.9,7.6-1.4,11.5,0.1
	C425.3,34.3,430.9,33.5,435.5,28.1c0.1-0.1,0.3-0.1,0.4-0.2c0.1-0.1,0.1-0.2,0.1-0.3C435.8,27.8,435.7,28,435.5,28.1z M196.9,10.6
	c-7.4,1.3-11.1,7.8-16.6,11.9c-0.1,0.1,0.3,1.3,0.5,1.3c1.7,0.1,3.5,0.3,5.2,0c2.5-0.6,4.8-1.8,7.3-2.3c3-0.6,3.1-3.4,4.5-5.1
	c1.6-1.9-0.8-2.5-0.8-3.7C196.9,12,196.9,11.3,196.9,10.6c0.7,0,1.3,0,1.8-0.2c0.3-0.1,0.5-0.6,0.8-0.9c-0.5-0.1-1.1-0.4-1.4-0.2
	C197.6,9.6,197.3,10.2,196.9,10.6z M367.6,40.7c0.1,0.1,0.1,0.3,0.2,0.4c0.1,0.1,0.2,0.1,0.3,0.1C367.9,41,367.8,40.9,367.6,40.7
	c-3.5-3.2-4.3-7.3-4-11.8c0.2-1.9,0.1-3.9,0-5.8c0-0.5-0.5-1.3-0.9-1.4c-0.5-0.2-1.4,0.1-1.6,0.5c-2,3.1-4.4,6.1-5.6,9.5
	c-2,5.6,1.6,12.2,8.4,11C365.2,42.4,366.4,41.4,367.6,40.7z M292.9,471.4c-2.4-0.1-4.4,0.9-6,2.6c-1.9,2.1-4.1,4.2-5.6,6.6
	c-3.1,5.3-8.5,6.4-13.6,8.2c-1.6,0.6-3.9,0-5,1c-1.1,1-1,3.2-1.3,4.9c0,0.2,0.3,0.5,0.5,0.8c5-1.2,10-2.3,15.3-1
	c2.6,0.6,5.3-0.7,6.5-3.2c1.9-3.9,3.7-7.8,5-11.9C289.7,476.4,290.9,473.7,292.9,471.4c1.9-0.2,3.2-1.1,3.6-3.2
	c0-0.1-0.2-0.3-0.3-0.3c-2.2-0.2-2.1,2-3.1,3C293,471.1,293,471.3,292.9,471.4z M66,526.7c1,0.2,1.9,1.5,2.9-0.1
	c0.3-0.5,0.8-1.1,1.3-1.4c0.3-0.2,1-0.2,1.2,0.1c0.2,0.3,0.2,0.9,0,1.2c-0.3,0.5-0.8,1-1.3,1.5c-4.4,4.7-8.9,9.3-13.1,14.2
	c-3.6,4.1-7.9,6.9-12.8,9.1c-1.3,0.6-2.5,1.5-3.6,2.4c-1.5,1.2-3,2.4-4.5,3.7c-4.3,3.8-7.7,8.4-10.7,14c4.6-1.8,8.7-3.1,12.5-4.9
	c6.3-3,12.9-4.9,19.5-6.7c3.7-1,7.5-1.8,11.2-2.8c2.6-0.7,4.7-1.7,4.5-5.1c-0.1-1.7,0.9-3.4,1.4-5.1c1.4-4.6,1.3-4.9-2.9-7
	c-0.7-0.4-1.4-0.8-2.2-1c-1.3-0.4-3.4-0.5-3-2.4c0.2-1,2-2,3.2-2.5c1.9-0.7,3.8-0.6,5.3,1.1c0.7,0.8,1.5,1.4,2.4,2.2
	c2.4-4.7,4.1-9.4,9.1-12.1c0.1,2.9-1.6,4.6-2.4,6.6c-0.9,2.2-1.6,4.5-2.5,6.7c-0.5,1.1-0.2,1.6,0.8,2.3c2.5,2,4,4.4,2.6,8
	c-1,2.4-0.2,3.1,2.5,3.2c4.7,0.2,9.3-0.3,13.9,0.9c2.8,0.7,5.7,0.7,8.6,1.1c2.9,0.4,4.6-0.8,5.5-3.5c1.3-3.7,3.1-7,6-9.8
	c0.6-0.6,0.6-2,0.6-3c-0.1-4-0.4-8-0.5-12c0-0.8,0.8-1.6,1.3-2.4c0.5,0.7,1.3,1.4,1.5,2.2c0.5,2.8,0.7,5.7,1.2,8.6
	c0.3,2.2,1.3,2.7,3.3,1.6c2-1,3.9-2.2,6-3.4c-2.1-2.9-4.1-5.6-6-8.4c-0.2-0.2,0.1-1,0.3-1.2c0.3-0.2,1-0.1,1.2,0.1
	c1.5,1.9,2.7,4,4.2,5.8c1.9,2.4,3,2.5,4.9,1.2c1.5-1,3-1.9,4.6-2.6c0.6-0.3,1.8-0.2,2.1,0.2c0.4,0.4,0.4,1.7,0,2.1
	c-1.9,1.9-3.9,3.5-5.9,5.3c4.3,3.6,4.3,3.6,9.7,3.6c1,0,1.9,0,2.9,0c1.9,0.1,2.9-0.6,3.5-2.6c0.7-2.3,1.5-4.6,2.7-6.7
	c1.3-2.3,1-4.3-0.5-6.3c-1.2-1.7-2.6-3.3-3.7-5c-0.3-0.5-0.4-1.7,0-2.1c0.4-0.4,1.5-0.4,2.1-0.2c2.4,0.8,4,2.6,5.3,4.7
	c1.2,2,1.7,1.9,3.4,0.5c0.7-0.6,1.3-1.4,2.1-2c1.8-1.3,3.7-2.6,5.6-3.8c0.3-0.2,1.1-0.1,1.2,0.1c0.2,0.3,0.3,1,0.1,1.3
	c-0.4,0.7-0.9,1.3-1.5,1.9c-1.2,1.3-2.6,2.4-3.7,3.8c-1.5,2-3.4,4-4.1,6.4c-1,3-0.9,6.3-1.5,9.5c-0.3,1.2,0,1.8,1,2.3
	c0.9,0.4,1.8,0.9,2.7,1c6.2,0.7,12.4,1.4,18.6,2c3.8,0.4,7.7,0.9,11.5,0.6c5.4-0.3,10.8-0.4,15.9-2.4c1.5-0.6,2.8-0.1,3.2,1.9
	c0.2,0.7,1.3,1.2,2.1,1.7c0.2,0.1,0.7,0,0.9-0.2c0.2-0.3,0.4-1,0.3-1.2c-2.6-3.8-4.1-8.5-8.2-11.2c-3.9-2.6-7.9-4.9-11.7-7.5
	c-3.1-2.1-6.1-4.1-8.9-6.5c-2-1.8-3.5-4.2-5.4-6.2c-2.2-2.3-3.5-4.9-4.3-7.9c-1.2-4.7-2.3-9.4-4.2-13.8c-1.5-3.5-2.1-7.2-2.4-10.7
	c-0.6-8-0.1-16,2.3-23.9c1.7-5.8,2.7-11.8,4.1-17.7c0.1-0.3,0.2-0.7,0.1-0.9c-1.6-3.4,0-6.7,0.7-9.8c1.2-5.1,2.8-10.1,3.8-15.4
	c2.1-11,4.8-21.9,7.3-32.8c2.6-11.7,5.2-23.4,7.9-35.1c1.1-4.7,1.9-9.4,3.4-14c2.6-7.8,5.6-15.4,8.5-23c0.3-0.9,1-1.7,1.4-2.6
	c2.3-5.3,5.1-10.4,6.9-15.9c2.5-7.8,4.2-15.8,6.5-23.6c5.2-18,10.2-36,14.1-54.4c0.7-3.3,1.7-6.5,3-9.6c1-2.3,2.8-4.3,3.7-6.7
	c2.5-6.5,4.9-12.9,7.4-19.4c4.8-12.3,9.5-24.5,15.8-36.2c6.9-12.6,12.2-26,20.1-38.1c3.7-5.7,6.9-11.6,10.7-17.2
	c2.8-4.1,5.6-8.2,7.7-12.8c0.3-0.7,0.8-1.4,1.2-2.1c6.2-9.4,12.5-18.7,18.7-28.1c0.7-1.1,1.6-2.1,2.6-3.6c-4.2,1.1-4.2,1.1-8.4,0.5
	c-0.7-0.1-1.5,0.2-2.2,0.4c-1.5,0.5-3,1.3-4.5,1.6c-1.2,0.2-2.6,0.1-3.8-0.3c-0.7-0.2-1.1-1.1-1.7-1.7c0.6-0.5,1.1-1.1,1.7-1.4
	c0.8-0.4,1.9-0.5,2.7-1c3.8-2.4,4-5,0.6-7.8c-1.1-0.9-2.4-1.5-3.8-2.3c-0.9,3.3-1.8,6.2-2.5,9.2c-0.4,1.6-1.1,1.7-2.4,1
	c-4.1-2.1-7.6-4.6-8.7-10.1c-1.4,2.4-2.5,4.2-3.6,6c-2.7,4.3-6.6,6.4-11.6,6.7c-0.6,0-1.2-0.7-1.8-1.1c0.4-0.6,0.7-1.5,1.3-1.7
	c4.5-1.2,5.8-4.7,6.4-8.7c0.2-1.2,0.4-2.3,0.6-3.1c-1.7,0-3.2,0-4.6,0c-0.7,0-1.7-0.3-2.2,0.1c-2.5,2-4.9,0.6-7.3-0.1
	c-1.3-0.4-2.8-1.8-3.8-1.5c-1.1,0.3-1.6,2.2-2.5,3.3c-0.4,0.4-1,0.7-1.5,1c-0.3-0.6-0.9-1.2-1-1.9c-0.4-2-0.7-4-1.1-6
	c-1,1.1-1.4,2.3-1.8,3.5c-0.4,1.2-0.8,2.4-1.4,3.6c-0.4,0.8-1.2,1.1-1.9,0.2c-0.5-0.6-0.8-1.4-1.3-2c-1.1-1.4-2.2-2.4-3.9-0.7
	c-0.2,0.2-1.5-0.1-1.8-0.5c-0.7-0.9-1.2-2.1-2-3.6c-3,3.4-5.6,6.4-8.2,9.5c-3.2,3.8-6.6,7.5-9.3,11.7c-5.5,8.5-10.6,17.2-15.9,25.9
	c-7.5,12.2-13.6,25.2-19.5,38.2c-5.9,12.9-11.7,25.8-17.4,38.7c-4.2,9.4-8.4,18.8-12.1,28.4c-3.6,9.3-6.9,18.7-11.8,27.4
	c-1.7,2.9-2.8,6.1-3.9,9.3c-2,6.1-3.8,12.3-5.7,18.4c-0.7,2.1-1.5,4.2-2.1,6.4c-1.5,5.4-3.1,10.8-4.4,16.2c-1.9,7.5-3.5,15-5.3,22.4
	c-1.2,4.7-2.5,9.3-4.1,13.8c-1.9,5.6-4.4,11-6.3,16.7c-2.9,8.7-5.4,17.5-8,26.2c-1.1,3.5-2.2,7.1-2.8,10.7c-1.2,7.3-2,14.6-3.2,21.8
	c-1.7,10.3-5.3,20.1-5.8,30.6c-0.4,9-5,17.2-6.1,26.1c-0.7,5.3-3.1,10.4-4.3,15.8c-1.3,5.6-2.6,11.3-2.8,17c-0.3,11.3-2.4,22-7.7,32
	c-0.4,0.9-0.7,1.8-1.2,2.6c-1.8,3.5-3.5,7.2-5.6,10.6c-1.2,2-3,3.7-4.5,5.6c-2.3,2.9-3.7,6.7-3.1,9.9c1.1,5.6-1.5,9.6-4,13.8
	C66.8,525,66.4,525.9,66,526.7c-0.1,0.1-0.3,0.1-0.4,0.2c-0.1,0.1-0.1,0.2-0.1,0.3C65.6,527,65.8,526.9,66,526.7z M179.4,492.2
	c1.8,5.1,2.7,10.1,5.2,14.3c3.1,5.3,7.2,10.2,12.4,13.8c2.7,1.9,5.7,3.5,8.8,4.8c0.9,0.4,2.5-0.9,3.8-1.2c2.6-0.7,5.3-1.1,7.9-2
	c1.3-0.4,2.7-1.3,3.3-2.5c1.8-3,3.4-6.2,4.8-9.5c1.6-4-1.3-9.6-4.6-10.3c-8.1-1.7-16.3-3.2-24.5-4
	C190.8,495.1,185.2,494.2,179.4,492.2z M170.5,564.4c-4.1-5.2-8-10.2-11.9-15c-0.9-1-2.3-1.6-3.5-2.3c-4.5-2.7-9.2-5.2-13.5-8.3
	c-3.8-2.7-4.1-3-8-0.5c-0.7,0.4-1.3,1-2,1.3c-3.5,1.2-4.1,3.7-3.1,7.2c4.5-2.1,9.3-1.7,14.1-1.5c3.4,0.1,6.6,1,8.4,4.5
	c-3.4,0.4-6.7,1.5-9.6,0.8c-3.2-0.8-5.7,0.7-8.5,0.8c-1.2,0-2.6,1.2-3.7,2.1c-1.3,1-1.1,1.9,0.4,2.4c3.4,1,6.7,2.4,10.1,2.8
	c4.4,0.5,8.5,2.2,12.3,4.1c4.7,2.4,9.4,3,14.4,2.8C167.6,565.4,169,564.8,170.5,564.4z M192.8,492.3c5.8,0.6,11.2,3,17.1,2.4
	c0.6-0.1,1.2,0.4,1.8,0.5c7.1,1.3,14,4.4,21.3,3.1c7.1-1.2,14.1-0.6,21.2-0.8c0.8,0,1.6,0,2.4-0.1c0.3-0.1,0.9-0.7,0.8-0.8
	c-0.8-1.8,1.2-2.1,1.6-3.1c0.6-1.3,1.5-2.9,0.4-4c-0.7-0.7-2.5-0.7-3.6-0.4c-4.6,1.4-9.5,1.3-13.9,0.4c-6.9-1.4-13.4,0.5-20.1,0.6
	c-2.7,0-5.4,1.5-8,1.1C206.7,490.3,199.8,491.3,192.8,492.3z M303.4,481c-0.4-0.3-0.7-0.7-1.1-1c-0.7,1.1-1.3,2.4-2.2,3.2
	c-4.3,3.5-8,8-13.2,10.4c-3.9,1.8-7.9,3.5-12,4.8c-2.4,0.8-5,1.1-7.5,1.2c-8.6,0.2-17.1,0-25.7,0.2c-4.2,0.1-8.3,0.6-12.4,1.1
	c-0.3,0-0.6,0.6-0.9,0.9c0.4,0.3,0.7,0.7,1.1,0.7c3.8,0.4,7.6,0.8,11.5,1.1c6.2,0.4,12.6-0.8,18.8,0.9c0.8,0.2,1.9-0.3,2.8-0.6
	c6-2.3,12-3,18.4-1.3c3.7,1,5.8-0.4,7.2-3.9c2.1-5.1,7-7.2,10.9-10.5c3,0.1,3.9-1.5,3.8-4.3C302.6,482.8,303.1,481.9,303.4,481z
	 M14.4,37.7c0.6-0.2,1.1-0.4,1.7-0.6c1.9-0.7,4.9-0.4,3.6-4c-0.1-0.2,0.6-0.9,0.9-0.9c4.1,0.1,5.7-3.4,7.7-5.9c3.2-4,7-5.9,11.9-5.9
	c4.2-0.1,4.2-0.1,5.6-4.3c-1.6-0.6-3.3-1.1-4.9-1.8c-2-0.9-3.7-0.6-5.2,1.1c-2.9,3.5-7,5.1-11.3,6c-2.2,0.4-3.6,1.5-4.2,3.4
	C18.8,29.2,16.7,33.2,14.4,37.7z M425,15.1c3.2,3.6,6.4,5.9,11,6.4c2.2,0.2,4.4,1.5,4.5,4.7c0.1,2.4,2.5,4.9,4.8,4.6
	c3.7-0.5,7.6-0.6,10.4-3.6c-2.1-1.3-4.2-2.2-5.8-3.7c-3.3-3.1-7.1-4-11.4-3.3c-1,0.2-1.9,0.1-1.8-1.5c0-0.5-0.6-1.2-1.1-1.7
	c-0.7-0.7-1.6-1.1-2.1-1.8c-0.8-1-1.3-2.7-2.2-3c-0.9-0.2-2.1,1-3.3,1.6C427.2,14.3,426.3,14.6,425,15.1z M264.8,486.9
	c2.9,0.8,5.6-1.2,8.3-2.8c1.1-0.6,1.7-2.2,2.2-3.5c0.3-0.8,0.1-1.9,0.1-2.9c0-2.5-0.4-5.1,2.1-7.1c0.7-0.5,1-2.2,0.7-3
	c-0.5-1.5,0-2.3,0.9-3.4c1.1-1.2,1.9-2.5,2.7-3.9c0.2-0.4-0.1-1.3-0.4-1.7c-0.2-0.2-1.2-0.1-1.5,0.2c-1.2,1.2-2.5,2.5-3.4,4
	c-2.8,4.2-4.2,9-5.2,13.7c-0.9,4.2-3.5,5.5-6.8,6.4c-3.5,1-7.2,1.4-10.8,2.2c-0.4,0.1-0.7,0.5-1.1,0.7c0.4,0.4,1,1.1,1.3,1
	c3.1-1.4,6.2-0.3,9.4,0.1C263.5,486.9,263.8,486.9,264.8,486.9z M403.1,20.3c3.5,0.1,6.4-0.7,9.1-2.7c0.5-0.4,1.5-0.7,1.9-0.5
	c0.9,0.5,1.1,1.5,0.5,2.5c-0.6,0.9-1.3,1.9-1.7,2.9c-0.2,0.4,0.1,1.5,0.2,1.6c3.7,0.7,7.1,4,11.4,1.5c0.8-0.5,2.3-0.5,3.3-0.1
	c2.3,0.9,3.9,0.1,5.6-1.7c-1.8-0.9-3.4-1.7-5-2.5c-3.1-1.8-5.4-5.2-9.5-5c-0.3,0-0.6-0.7-0.9-1c-2.3-2.1-2.7-2.1-5.3-0.6
	C409.6,16.5,406.6,18.3,403.1,20.3z M471.5,29.9c-1.6-2.3-3.1-4-4.1-6c-1.3-2.6-2.1-5.4-3.2-8c-0.7-1.6-1.2-3.4-3.6-3.3
	c-2.3,0.1-3.4,1.5-3.9,3.6c-0.4,1.7-0.8,3.4-1.5,5c-0.9,2.1,0.3,3,1.9,3.6c0.7,0.3,1.6,0.2,2.3,0.5c0.4,0.2,0.7,0.9,0.8,1.4
	c0.2,3.3,0.7,4.2,3.6,4.2C466.3,30.9,468.6,30.3,471.5,29.9z M85.3,31.5c5.2-2.1,12-10.6,12.5-15.3c0.1-1.1-0.5-2.5-1.2-3.4
	c-1.5-1.9,1.9-2.3,0.9-3.6c-0.8-1.1-1.9-2.2-3.1-2.8c-1-0.5-3.7,1.3-4.1,2.6c-0.4,1.4-0.7,2.8-1,4.2C87.7,19.1,88.6,25.6,85.3,31.5z
	 M12.3,69.8c2.8-0.9,4.9-1.3,6.6-2.3c2.2-1.2,4.5-2.5,6.4-4.2c2.9-2.7,2.3-8.7-0.9-11.1c-2.3-1.7-6.5-0.9-6.8,1.4
	C17,59.1,15.1,64.2,12.3,69.8z M128,31.2c0.3,0.2,0.5,0.5,0.8,0.7c0.7-0.3,1.5-0.5,2.1-0.9c6-4.1,9.2-10.1,11.4-16.7
	c0.5-1.5,0.4-4.2-0.6-4.9c-1.7-1.4-3.6,0.6-5.1,1.6c-1.1,0.7-2.1,2.1-2.6,3.4C132,19.8,130.1,25.5,128,31.2z M60.8,19.4
	c1.8-0.4,3.4-0.6,4.9-1.1C72.2,16,76,11.1,78.4,4.8c0.4-1.1-0.3-1.9-1.5-1.8c-0.8,0-1.5,0.3-2.3,0.5c-6.9,2.1-10.5,8-15.2,12.8
	c-0.4,0.4-0.7,1.6-0.4,2.1C59.2,19,60.2,19.2,60.8,19.4z M363.6,52.2c-1.7,1.8-2.7,3.1-4.1,4.2c-1.7,1.5-2.3,3.3-2.5,5.4
	c-0.3,3.3,0.9,6.3,1.9,9.3c0.9,2.6,1.1,2.7,3.1,0.9c1.2-1.1,2.3-2.2,3.6-3.2c3.3-2.5,3.4-2.4,1.7-6.6c-0.3-0.7-0.4-1.5-0.7-2.3
	C365.7,57.6,364.7,55.1,363.6,52.2z M395.5,136.3c-2-1.7-3.8-3.1-5.3-4.7c-2-2-4.2-3.1-7-3.9c-4-1.2-7.5,0.8-11.3,0.7
	c-0.2,0-0.7,0.5-0.6,0.6c0.1,0.4,0.4,0.9,0.6,1c2.2,0.3,4.4,0.6,6.6,0.8c1,0.1,2.3,0.7,1.3,1.7c-2.2,2.3-0.4,3,1,4.3
	c1.4,1.3,2.9,1.7,4.8,1.8C389,138.8,392.2,138.2,395.5,136.3z M365,19.7c1.6-0.7,3.3-1.4,5.1-2.1c1.5-0.6,1.5-1.5,0.4-2.6
	c-3-3-5.9-6-8.9-8.9c-0.7-0.7-1.9-1-3-1.3c-0.3-0.1-0.7,0.3-1.1,0.5c0.2,0.3,0.3,0.7,0.5,0.8c2.6,1.2,1.7,2.1-0.1,3.2
	c-0.9,0.6-1.7,1.5-2.4,2.3c-1.8,2.1-1.8,2.8,0.2,4.9C358.2,19.3,361.7,18.3,365,19.7z M135.8,38.9C135.9,38.9,135.9,38.9,135.8,38.9
	c0,1.1-0.1,2.3,0,3.4c0.2,2-0.8,4.1,0.8,5.9c1.6-1.3,3.1-2.6,4.7-3.9c0.1-0.1,0.2-0.2,0.3-0.4c3.7-4.7,3.8-10.6,0.2-15
	c-0.8-0.9-1.7-1.7-2.6-2.6c-1.2,1.4-2.5,2.8-3.5,4.4c-0.4,0.6-0.1,1.6-0.1,2.4C135.8,35.1,135.8,37,135.8,38.9z M34.6,34.9
	c-2-2.3-2.7-2.5-4.9-1c-2.6,1.8-5.1,3.8-7.6,5.6c-3.1,2.3-6,4.8-10.2,5.3c1.4,2.3,3.5,3,5.7,3.7c6.8,2.1,12.4-2.5,11.1-9.5
	c-0.3-1.9,0.1-2.8,1.7-3.3C31.7,35.3,33.2,35.2,34.6,34.9z M59.6,10c-3.1,1.7-5.8,3-8.2,4.7c-1.5,1-2.9,2.5-3.9,4.1
	c-1.5,2.3-2.6,4.7-4,7.1c-1,1.8-0.3,3,1.7,3.2c3.7,0.2,9-3.1,10.4-6.6c0.2-0.5,0-1.7-0.4-1.9c-1.7-1.1-2-1.9-0.1-3
	C57.9,15.8,59,13.1,59.6,10z M413.9,117.7c-3.6-0.5-6.5-1.8-9.1-3.9c-1.1-0.9-3.3-1.5-4.4-0.9c-2.9,1.4-5.8,1.7-9,1.7
	C397.7,125.4,406.5,123.4,413.9,117.7z M114,8.3c-3.1,1.5-6.3,3-9.4,4.5c-0.3,0.1-0.5,0.4-0.7,0.7c-2.1,3.4-4.2,6.9-6.5,10.6
	c1.5,0,2.6,0.2,3.6-0.1c1-0.3,1.9-1.3,2.9-1.5C110.6,21,114.8,15.1,114,8.3z M77.1,41c3.7-0.1,6.8-1,8.4-4.7c0.2-0.5,0-1.6-0.4-1.9
	c-0.6-0.6-2.3-0.8-2.3-1.3c-0.1-1,0.6-2,1-3c0.2-0.4,0.5-0.9,0.5-1.3c0.2-1.3,0.1-2.8-1.4-3.2c-0.9-0.2-2.3,0.2-2.9,0.8
	c-1,1-1.5,2.4-2.2,3.6c-1,1.8-2,3.6-3,5.4c-0.8,1.5-1.5,3-2.2,4.5C74,40.3,75.5,40.7,77.1,41z M453.7,14c-2.6-1.3-5.1-2.4-7.4-3.8
	c-2.8-1.7-5.8-1.5-8.9-1.4c-1.5,0-2.5,0.7-2.7,2.2c-0.2,1.4,0,2.6,1.4,3.3c2,1,3.9,2.3,6.1,2.9C446.4,18.3,450.6,18.4,453.7,14z
	 M486.4,14.3c-1.2-2-2.4-4-3.6-5.9c-3.2-5.1-8.9-6.4-14.4-2.8c2.4,0.1,4.3,0.1,6.1,0.2c0.5,0,1.4,0.6,1.4,0.9
	c0.1,0.7-0.2,1.6-0.6,2.1c-0.6,0.7-1.6,1.1-2.5,1.4c-1.3,0.6-2.6,1-4.9,1.9C474.9,12.8,480.2,17.9,486.4,14.3z M402.4,72.7
	c-1.4-2.1-2.4-3.5-3.5-4.9c-3.2-4-7-6.7-12.4-5.7c-1,0.2-2.5,0.6-2.8,1.3c-0.3,0.8,0.1,2.6,0.8,3c4,2.2,7.5,5.3,12,6.3
	C398.2,73,400,72.7,402.4,72.7z M417.5,75.9c-2.2-2.3-3.9-4.3-5.9-6.1c-2.1-1.9-4.5-3.5-6.8-5.2c-1.3-1-2.6-0.2-3.5,0.7
	c-1.2,1.2,0.3,2,1,2.7c0.9,0.8,2.1,1.4,3.2,1.8c2.1,0.8,2.6,1.9,1,3.3c-1.3,1.2-3,2.1-5,3.6c1.8,0.8,3,1.7,4.2,1.8
	C409.8,78.6,413.9,77.8,417.5,75.9z M353.9,127.9c1.8-4.6,3.5-8.9,5-13.3c0.6-1.9,0.8-4,0.9-6.1c0-0.8-0.6-2-1.3-2.3
	c-0.6-0.3-1.7,0.3-2.4,0.9C350.4,112.2,349.5,119.9,353.9,127.9z M399.9,155c3.3-5,1.4-9.2-1.7-13.2c-1.9-2.4-4.8-2.7-8.2-0.9
	c-0.7,0.4-0.7,3.4,0.4,5.2c0.8,1.3,1.9,2.5,3.1,3.6C395.4,151.4,397.6,153.1,399.9,155z M200,12.8c4.7,5.5,15.6,5.4,21.6-3.6
	c-3-1.8-6.1-1.6-9.2-0.3c-1,0.4-2.2,0.5-3.2,0.9C206.1,10.7,203.1,11.8,200,12.8z M48.3,31.5c-5,6-7.9,7.1-15.2,5.9
	c-1.6-0.3-2.4,0.6-1.9,2.1c0.8,2.3,2.5,3.9,4.7,4.5c2.9,0.8,6.3,1.9,8.6-0.9C47,39.9,49.2,36.2,48.3,31.5z M396.2,90.5
	c-1.1-0.8-1.8-1.1-2.2-1.7c-1.8-2.4-5.4-4-3.6-8.2c0.3-0.7-0.2-2.1-0.9-2.6c-0.9-0.7-2.2-1.3-3.3-1.2c-0.9,0-2.3,0.8-2.6,1.5
	c-1.5,3.3,0.4,10.8,3.3,12.9c0.8,0.6,2.5,1.1,3,0.7C391.5,90.4,393.7,91.2,396.2,90.5z M24.3,33.9c0.2,0.2,0.4,0.4,0.7,0.7
	c1.6-1,3.2-2,4.9-2.9c1.6-0.8,3.3-1.3,4.9,0.1c0.8,0.7,1.6,1.7,2.5,1.8c1,0,2-0.9,3-1.4c1.5-0.7,1.4-1.4,0.5-2.6
	c-1.8-2.2-1.7-2.3,0.5-4.5c0.2-0.2,0.5-0.4,0.6-0.7c0.2-0.4,0.5-0.9,0.4-1.3c-0.1-0.3-0.7-0.6-1.1-0.7c-4-0.2-7.7,0.8-10.5,3.8
	C28.4,28.6,26.4,31.3,24.3,33.9z M46,45.3c6.3-0.8,9.9-4.3,11.1-10c0.6-3.1,0.1-6.3,0.1-9.9c-1.8,1.3-3.4,2.1-4.7,3.3
	c-0.9,0.8-1.9,2.1-1.9,3.1C50.7,36.8,48.6,41,46,45.3z M371.2,133.2c-3.2-2.1-5.2-5.2-7.2-8.2c-1.1-1.7-2.7-2.9-4.1-4.4
	c-0.9,1.6-1.9,3.2-2.5,5c-1,2.8-0.2,4.6,2.2,6.7C363.1,135.4,366.9,135.5,371.2,133.2z M197.4,488.3c8.1,0.1,16.1,1.4,24.1-0.2
	c3.7-0.8,7.6-0.9,11.5-1.1c3.9-0.2,7.8,0,11.6,0c1,0,2,0.1,2.9-0.1c0.5-0.1,1-0.6,1.4-0.9c-0.3-0.3-0.5-0.8-0.9-1
	c-0.7-0.3-1.5-0.6-2.2-0.6c-2.6,0.1-5.1,0.5-7.7,0.6c-6.9,0.4-13.8,0.6-20.7,1c-0.8,0-1.6,0.4-2.3,0.5c-0.9,0.1-1.9,0.4-2.8,0.2
	c-4.3-0.9-8.5,0.6-12.8,0.5C198.8,487.2,198.1,487.9,197.4,488.3z M350.5,9.2c-2.9-2.3-5.1-4.4-7.7-6c-3.8-2.3-7.7-1.7-11.7,0
	c1.1,1.6,1.9,2.8,2.7,3.9c2.5,3.5,5.4,4.3,9.9,2.9c0.7-0.2,1.5,0.1,2.3,0C347.3,9.8,348.6,9.6,350.5,9.2z M361.4,76.8
	c-3.2,2.9-5.9,5.8-6.3,10c-0.6,5.7,0.3,6.5,6,6.2c2.5-0.2,2.8-0.4,2.6-2.9c-0.3-3.7-0.7-7.3-1.2-10.9
	C362.4,78.5,361.8,77.8,361.4,76.8z M428.2,38.4c-3-1.3-5.8-2.3-8.6-3.6c-3.3-1.6-6.7-2-10.3-1.7c-1.4,0.1-2.8,0.5-2.6,2.1
	c0.2,1.2,0.6,3.1,2.9,2.1c0.3-0.2,1.3,0.5,1.6,1c0.5,0.8,0.4,1.9,0.9,2.6c0.4,0.7,1.8,1,1.7-0.1c-0.2-2.6,0.8-2.3,2.4-1.5
	C420.3,41.6,424.2,41.1,428.2,38.4z M376.7,85.4c-1.4,2.1-2.5,3.8-3.6,5.5c-1.6,2.6-1.3,4.8,0.7,6.9c3.4,3.7,7.5,3.2,12.5,2.6
	c-4.3-3.3-6.6-7-7.7-11.4C378.3,87.9,377.5,86.8,376.7,85.4z M389.3,73.2c-2.9-2.6-4.6-3.7-7.1-4.2c-2.8-0.5-5.7-0.8-8.5-1.2
	c-2.6-0.3-3.1,0.1-3,2.5c0,1.5,3.2,5.2,4.7,5.2c2.4,0,4.8-0.2,7.1-0.6C384.8,74.6,387.1,73.8,389.3,73.2z M49,534.6
	c1.2,2.4,2.4,4.8,3.7,7.1c0.8,1.5,1.5,1.2,2.5,0c2.3-2.7,4.7-5.2,7.1-7.8c0.8-0.8,1.6-1.6,2.3-2.5c0.6-0.8,0.3-1.6-0.8-1.6
	c-0.9,0-1.9,0.3-2.8,0.4c-3,0.5-6,1.1-9,1.3C49.8,531.7,49.4,532.6,49,534.6z M383.4,46.9c1.2,0.6,2.3,0.7,2.8,1.4
	c1.6,1.9,3.4,1.5,5.5,1.3c4.1-0.4,7.4-2.6,11.1-4c3.1-1.2,3-1.6,5.1-5.2c-3.8,2.5-7.2,3-11,1.6c-0.7-0.3-1.9,0.2-2.7,0.5
	C390.7,43.9,387.2,45.4,383.4,46.9z M232.8,6.5c-3.4-0.1-5.7,1.1-7.5,3.3c-0.6,0.7-1.5,1.2-2.2,1.8c-3.4,2.7-6.8,5.5-10.8,8.6
	c1.5,0,2.5,0.2,3.4,0c4.1-1.2,8.2-2.4,11.9-4.8C230.9,13.3,232.4,10.5,232.8,6.5z M417.2,55.7c-2-0.3-3.2-0.3-4.4-0.6
	c-1.4-0.4-2.8-0.9-4-1.5c-2.3-1.2-4.7-1.7-7-0.6c-2.1,0.9-5.3,1.1-4.5,4.9c0.1,0.3-0.9,0.8-1.4,1.2c-0.5,0.4-1,0.8-1.5,1.2
	c0.7,0,1.4,0,2.2,0c1.3,0,2.6,0,3.9-0.1C406.1,59.8,411.5,58.3,417.2,55.7z M318.3,25.2c2.3-3.7,1.8-7.6,1.6-11.3
	c-0.1-2.4-2.1-3.8-3.9-4.4c-0.9-0.2-2.4,1.6-3.5,2.7c-0.3,0.3-0.1,1.3-0.1,2c0,0.6,0.3,1.2,0.1,1.7c-1.3,3.9-1.2,4.7,1.7,6.8
	C315.5,23.5,316.9,24.3,318.3,25.2z M34.4,7.3c-0.4-0.2-0.7-0.3-0.9-0.4c-0.3-0.1-0.6,0-1-0.1c-5-1.2-5-1.2-7.8,2.9
	c-0.6,0.9-1.5,1.8-1.8,2.8c-0.7,2.9-2.6,4.8-4.8,6.8c5.5-0.8,11.4-0.2,15.7-5.4c-1.4-0.8-2.7-1.4-3.8-2.2c-0.7-0.5-1.2-1.4-1.8-2
	c0.7-0.4,1.3-0.8,2-1.1C31.6,8.1,33,7.7,34.4,7.3z M87.7,8.7c-3.9,1.6-6.2,4.1-8.3,7.1c-1.9,2.7-3.9,5.5-5.8,8.2
	c-0.6,0.9-0.2,2,0.8,2.1c0.8,0,1.6-0.1,2.3-0.4c5.6-2.6,9.4-6.8,10.5-13.1C87.4,11.4,87.5,10.3,87.7,8.7z M336.8,39.8
	c-1.1,2.5-2.6,4.6-2.8,6.8c-0.5,5.3-0.5,10.6-0.7,16.1c3.6-2.6,5.5-6.4,7.8-9.8c0.8-1.3,1-3,1.3-4.6c0.1-0.7-0.3-1.5-0.4-2.3
	c-0.7,0.3-1.4,0.4-2,0.8c-0.8,0.5-1.5,1.2-2.4,1.6c-1,0.4-2-0.5-1.8-1.5c0.2-0.9,0.6-1.8,1.1-2.7C337.4,42.9,337.9,41.7,336.8,39.8z
	 M129.9,18c-4.2,0.2-6.3,3.1-8.2,5.7c-2.3,3.3-5.2,5.5-8.6,7.5c-1.1,0.6-2.1,1.3-3.5,2.1C119.4,34.9,127.1,29,129.9,18z M12.2,23.3
	C7.9,23.7,5.8,26,5,29.5c-0.7,3.1-1.3,6.2-1.8,9.3c-0.1,0.5,0.9,1.6,1.1,1.5c3.5-0.8,6.1-2.5,6.4-5.5C11.1,31.1,11.7,27.4,12.2,23.3
	z M333,19c-1,1.1-1.2,1.3-1.3,1.6c-0.9,1.8-1.7,3.8-4,1.3c-0.2-0.2-1.5,0.2-1.7,0.7c-2.1,4.3-4,8.7-6.2,13.3
	c0.8-0.3,1.2-0.5,1.6-0.7c3-1.3,5.1-4.5,8.9-3.7c0.3,0.1,0.8-0.5,1-0.9C333.7,27.3,333.4,23.7,333,19z M419.7,143.2
	c-2.6-1.5-4.9-3-7.2-4.3c-0.8-0.5-1.8-1-2.7-1c-3,0.2-6,0.6-9,1c-1.1,0.2-1.2,1.1-0.6,1.7c0.7,0.8,1.7,1.3,2.7,1.8
	c1,0.5,2.2,0.6,3,1.2C410.1,146.9,415.1,147,419.7,143.2z M242.3,16.8c0.3,1.3,0.4,2.5,0.8,3.4c1,2,2.4,2.3,4.1,0.7
	c1.7-1.7,3.5-3.3,5-5.2c0.5-0.6,0.9-2.1,0.6-2.5c-1.3-1.6-2.7-3.2-4.4-4.3c-1.9-1.1-3.7-0.2-4.5,2C243.2,12.9,242.8,15,242.3,16.8z
	 M216.1,38.7c0.9-0.4,1.5-0.6,2-0.9c4.2-2,7.5-4.9,8.6-9.6c0.2-1,0.1-2.1-1.4-1.7c-1,0.3-2.3,1.2-2.9-0.2c-0.2-0.5,0.8-1.5,1.2-2.3
	c0.3-0.5,1-1,1-1.6c0-0.5-0.4-1.3-0.8-1.6c-0.4-0.3-1.3-0.2-1.7,0.1c-0.5,0.3-0.7,1-1,1.6c-1.7,3.8-3.3,7.6-4.9,11.4
	c-0.4,1-0.8,2.1-0.9,3.2C215.4,37.6,215.8,38.1,216.1,38.7z M309,16.3c-2.3,1.1-4.7,1.6-6,3.1c-2.6,2.8-0.7,9.8,2.7,11.7
	c2.2,1.2,2.8,0.8,3.7-1.6C311.1,25.1,309.4,21.1,309,16.3z M383.5,116.3c-1.8-2.9-4.2-5.4-4.8-8.3c-0.9-3.9-3.5-5.8-6.2-8.2
	c0,3.6-0.1,6.9,0,10.1c0,1.4-0.1,3.3,0.8,4c1.3,1.2,3.3,1.9,5.1,2.3C380,116.6,381.8,116.3,383.5,116.3z M471.3,17.7
	c2,1.4,2.8,3.4,3.6,5.6c2,5,8.6,6.7,12.9,3.4c0.9-0.7,1.6-2,1.9-3.1c0.4-1.3-0.4-2.3-1.9-1.9c-1.7,0.5-3.3,1-5.1,0.1
	c-3.2-1.6-7.1-1.6-10.1-4C472.4,17.5,471.7,17.7,471.3,17.7z M386.1,17.2c-1.8-1.6-3.1-2.7-3.4-4.9c-0.2-2-1.6-3.8-2.6-5.6
	c-1-1.9-2.8-2.6-4.8-2.6c-0.5,0-1.3,0.3-1.6,0.7c-0.9,1.4-0.2,7.5,1,8.7C377.7,16.4,381.3,17.6,386.1,17.2z M365.6,90.9
	c0.3,0.6,0.6,1.9,0.9,1.9c0.8,0,2-0.2,2.5-0.8c2-2.7,3.9-5.5,5.6-8.3c0.5-0.8,0.5-1.8,0.6-2.8c0.3-2.4-1.9-2.6-3.3-3.5
	c-1.7-1-2.3,0.6-3,1.5C366.4,82.4,366.8,86.8,365.6,90.9z M398,82c-0.7,0.2-1.4,0.4-2.2,0.5c-1.1,0.1-2.1,0.5-1.8,1.7
	c0.2,1,0.7,2.1,1.5,2.8c0.5,0.4,1.5,0.3,2.3,0.4c1.6,0.2,2.8,0.4,2.3,2.6c-0.3,1.4,1.2,1.3,2,0.9c3-1.5,5.9-3.2,8.8-4.9
	c0.4-0.2,0.7-1,0.7-1.5c0-0.2-0.7-0.7-1.1-0.8c-2.9-0.4-5.7-0.6-8.6-1C400.6,82.5,399.4,82.2,398,82z M101.8,41.4
	c-0.1-1.8-0.2-2.8-2-2.1c-0.7,0.3-1.6,0.4-2.3,0.4c-2-0.1-2.5-1.5-1.5-3.3c0.8-1.4,1.7-2.8,2.3-4.2c1-2.1,0.7-2.8-1.2-4
	c-1.6-1-2.8-0.9-4.2,0.5c-1.7,1.7-1.9,3.5-1.4,5.7c0.9,4.4,3.9,7.3,7,10.1c1.3,1.2,2.1,1,2.7-0.8C101.6,42.9,101.7,41.9,101.8,41.4z
	 M358.8,100.7c0.3,0.8,0.3,1.7,0.7,2c2.7,2,5.4,3.9,8.2,5.7c0.3,0.2,1.4-0.2,1.6-0.6c0.9-2.1,1.5-4.2,0.3-6.4
	c-0.9-1.7-1.4-3.7-4.1-3c-0.4,0.1-1.2-0.8-1.7-1.3c-1.5-1.3-2.5-1.3-3.4,0.2C359.7,98.4,359.3,99.6,358.8,100.7z M369.2,31.9
	c1.1,2.4,3,4.8,3.2,7.3c0.3,5.1,7.3,7.7,12,4.2c0.3-0.2,0.3-1.4,0.1-1.6c-3.3-2.5-6.6-5-10.1-7.3C372.7,33.4,370.8,32.7,369.2,31.9z
	 M231.1,33.2c-4.9,1.7-6.5,5.2-7.9,8.8c-1.1,2.7-2.1,5.5-3.3,8.4c2.4-1,5.1-1.5,7-3c2-1.7,3.2-4.3,4.7-6.5c0.2-0.3,0-1.1-0.2-1.3
	C229,37.8,229.9,35.8,231.1,33.2z M399,110.3c-3.2-1.5-6.6-2.5-9.2-4.4c-2.9-2.1-5.2,0.1-7.7,0.3c-0.3,0-0.7,1.4-0.6,2.1
	c0.2,1.7,2.5,4.2,4.1,4.2C390.1,112.5,394.8,113.1,399,110.3z M338.4,71.7c2.9-1.3,6.1-2.2,7.3-5.7c0.3-0.8,0.3-2.2-0.1-2.6
	c-1.5-1.2-1-1.9,0-3.1c1.9-2.4,1.9-2.5-0.3-4.6c-0.3-0.3-0.7-0.7-1.1-0.9c-0.4-0.2-1.1-0.2-1.2,0c-1.2,2.1-3.6,3.5-3.5,6.6
	C339.5,64.7,338.8,68,338.4,71.7z M287.3,21.9c2.6-1.6,4.9-2.3,5.9-3.9c1.3-2,2.2-3.7,4.9-3.8c0.5,0,1.2-0.7,1.3-1.2
	c0.8-2.5,2-5.1,0.8-7.9c-3.9,0.5-6.4,2.3-7.7,6.2C291.4,14.7,289.4,17.7,287.3,21.9z M386.8,27.1c2.3,0.4,4,0.9,5.7,0.9
	c2.5-0.1,5-0.6,7.6-0.8c4.2-0.4,7.9-2.4,9.8-5.6c-1.8,0.4-3.5,0.8-5.2,1.1c-1.1,0.2-2.3,0.7-3.3,0.3
	C396.1,21.1,391.7,22.6,386.8,27.1z M272.2,12.8c0.3,4.5,2.7,7.9,6.5,8.4c0.7,0.1,2-0.4,2.3-1c0.9-1.7,1.4-3.5,2-5.4
	c0.4-1.3-0.3-2.2-1.6-1.6c-2.2,0.9-3.4,0.1-4.8-1.7c-0.8-1.1-0.9-3.8-2.9-2.9C272.7,9,272.7,11.3,272.2,12.8z M388.2,124.9
	c-1.4-1.1-2.8-2.2-4.2-3.2c-0.8-0.5-1.7-1.3-2.5-1.3c-2.3,0.2-3.9-0.6-5.5-2.1c-1-0.9-2.5-1.2-3.8-1.8c-1.5,3.1,0.1,5.6,0.5,8.3
	c0.1,0.5,1.3,1.2,1.7,1.1C378.7,124.5,383.1,125,388.2,124.9z M370.2,30c5.2,2.1,9.8,3.2,14.4,3.8c1,0.1,2.2-0.4,3.2-0.9
	c0.6-0.3,1.6-1,1.5-1.5c0-0.6-0.8-1.5-1.5-1.8C382.4,27.2,376.7,26.1,370.2,30z M382,65.8c-1.3-2.4-1.8-4.5-3-5.3
	c-3.6-2.4-5.5-5.8-7.1-9.8c-2.3,2.8-3.1,5.4-1.9,8.1c1.1,2.4,1.2,5.8,5.5,5.4C377.1,64.1,378.9,65,382,65.8z M354.9,19.7
	c-4.2,2.5-5.9,6.3-7.1,10.3c-1.1,3.7-0.1,5.5,4.1,7.3c0.4-1.7,0.8-3.4,1.1-5.1c0.2-0.9,0-2.2,0.5-2.8
	C356.5,26.5,354.7,23.2,354.9,19.7z M444.3,39.4c-0.1,2.9,0.3,3.1,2.1,2.7c5.5-1.1,8-5.4,10.2-9.9c0.2-0.4,0.1-1-0.2-1.3
	c-0.2-0.3-0.9-0.4-1.2-0.3c-1.9,0.7-3.9,1.4-5.8,2.3C446.5,34.3,444.6,36.8,444.3,39.4z M300.3,16.1c2.7,0.8,4.9,0,6.7-1.7
	c1.9-1.7,3.8-3.6,5.4-5.5c1.1-1.3,2.1-2.9,2.9-4.4c0.4-0.9,0.3-2,0.4-3.1c-1,0.3-2.2,0.4-3,0.9c-1.2,0.8-2.2,1.9-3.2,2.9
	C306.5,8.8,303.5,12.3,300.3,16.1z M347.1,22.9c-0.3,0-0.5,0-0.8-0.1c-1.1,1.7-1.9,3.9-3.4,5.1c-3.3,2.7-3.8,6-3.4,9.9
	c0.2,1.8,0.3,3.6,0.5,5.7c2.2-2.4,4.8-3.9,4.9-7.2c0.1-3.8,0-7.6,2.1-11.1C347.4,24.7,347.1,23.7,347.1,22.9z M362.6,45.4
	c-1.5,0.5-3,0.9-4.4,1.6c-3.4,1.9-5.8,5-7.5,8.4c-0.5,1-0.6,2.3-0.8,3.4c1.1-0.5,2.5-0.7,3.4-1.4c3.5-3,8.1-5,10.1-9.7
	c0.2-0.5,0.7-0.9,1.1-1.3C363.9,46.1,363.3,45.8,362.6,45.4z M43.4,540.5c0-1.5-2.6-4-3.8-3.4c-4.3,2.2-8.4,4.6-12.6,7
	c-0.3,0.2-0.3,0.8-0.5,1.3c0.4,0.1,0.9,0.5,1.2,0.4c3.9-1.9,8.1-1.6,12.3-1.6C42,544.1,43.4,542.5,43.4,540.5z M383.2,167.4
	c4.3,1.1,6.9-0.9,9.1-3.6c0.7-0.8,1.2-1.9,2-2.6c2.9-2.2,3.2-5,0.7-7.1c-1.5-1.2-2.3-1-3.2,0.8C389.8,159.5,387.9,164.2,383.2,167.4
	z M397.1,29.6c-1,0.7-2.6,1.3-2.7,2.1c-0.5,3.4,2.7,8.1,6.1,8.7c1.4,0.2,3-0.7,4.4-1.1c-0.4-1.1-0.5-2.4-1.1-3.4
	c-1-1.6-2.2-3.1-3.5-4.5C399.6,30.6,398.5,30.3,397.1,29.6z M5.4,22.4c1.5-0.3,2.9-0.3,4.1-1c3-1.7,6-3.5,8.9-5.4
	c0.5-0.3,1-0.8,1.3-1.4c1-1.6,2.4-3.2,1.3-5.3c-0.6-1.2-3.2-0.3-5.4,1.8c-0.2,0.2-0.5,0.5-0.7,0.7C11.8,15.3,8.7,18.7,5.4,22.4z
	 M274.6,2.2c-0.3-0.3-0.5-0.6-0.8-0.9c-3.2,2.1-6.5,4.2-9.7,6.4c-4.1,2.9-5.4,6.5-4.1,11.1c0.3,0.8,0.9,2,1.6,2.2
	c1.4,0.3,1-1.2,1.3-2c0.6-2,1.2-4,1.9-5.9c1.3-3.5,3-6.6,6.7-8.3C272.7,4.2,273.6,3.1,274.6,2.2z M238.3,19.9
	c-6.7,3.4-5.8,9-5.1,14.8C238.8,31.7,240.8,25.9,238.3,19.9z M67.5,19.8c-5.4,3.3-6.7,8.8-8,14.2c0,0.1,0.8,0.7,1,0.6
	c2-1.1,4.9-1.4,5.6-4.1C67.1,27.1,68.4,23.6,67.5,19.8z M432.5,1.6c-4,1-6.8,3.4-9.2,6.3c-1,1.2-1.6,2.7-2.2,4.1
	c-0.1,0.2,0.8,1.2,1,1.1c2.9-0.7,6-1.1,7.7-4C431.2,6.9,432.3,4.5,432.5,1.6z M406.9,134.5c-2-1.8-3.5-3.2-5-4.6
	c-2-1.7-4.3-2.1-6.8-1.6c-1,0.2-1.9,1-2.9,1.5c0.7,0.8,1.4,1.5,2,2.4c1.8,2.5,6.2,0.6,7.2,4.3c0,0,0.6,0,0.9-0.1
	C403.6,135.8,404.9,135.3,406.9,134.5z M112.3,20.4c-1.1,1-1.7,1.8-2.5,2.1c-5.6,2.3-7.4,7.6-10.2,12.2c-0.3,0.4-0.1,1.1-0.1,1.7
	c0.6-0.2,1.3-0.1,1.7-0.5c2.9-2.8,5.9-5.5,8.5-8.6C111.2,25.7,112.5,23.5,112.3,20.4z M260,8.2c-0.4-0.8-0.5-1.3-0.8-1.6
	c-0.8-0.6-1.6-1.2-2.5-1.5c-3-0.8-6.1-1.6-9.2-2.3c-0.6-0.1-1.3,0.1-2,0.1c0.3,0.9,0.3,1.9,0.8,2.6c0.4,0.6,1.4,1,2.1,1
	c2.4,0,3.8,1.5,5.1,3.1c0.7,0.8,1.1,2.4,2.4,1.7C257.5,10.7,258.7,9.3,260,8.2z M207.8,32.9c6-1.8,9.5-5.3,11.3-10.8
	C209.6,23.2,210,24.2,207.8,32.9z M10.3,11.3c0.3,0.2,0.5,0.5,0.8,0.5c0.5,0,1.3,0,1.5-0.3c2.6-3.4,5.4-5.9,10.2-4
	c1,0.4,3.3-1.6,3-2.4c-0.3-0.6-1.4-0.8-2.2-1.2c-0.3-0.1-0.7-0.2-0.8-0.4c-2.2-2.8-4.5-1.3-6.2,0.2c-2.3,2-4.1,4.5-6,6.8
	C10.3,10.7,10.4,11,10.3,11.3z M370.8,27c0.6-0.4,2.4-0.9,3.4-2.1c1.1-1.2,1.5-3,2.1-4.6c0.2-0.6,0.1-1.4,0.2-2.1
	c-0.7,0-1.5-0.3-2.1,0c-2.1,1-4.2,2.3-6.3,3.2c-1.7,0.7-1.5,2-1.1,3.1C367.3,25.8,367.8,27.3,370.8,27z M290.3,32.6
	c0.3,0.2,0.6,0.3,0.9,0.5c0.9-1,1.9-2,2.7-3.1c1.4-1.8,2.6-3.7,4-5.4c1.9-2.3,2.8-4.5,1.9-5.4c-1.3-1.4-4.2-0.3-5.6,2.9
	C292.6,25.4,291.6,29,290.3,32.6z M351.2,42.9c0.2-0.1,0.4-0.1,0.6-0.2c-0.1-0.5-0.1-1.2-0.4-1.6c-0.2-0.2-1-0.3-1.3-0.1
	c-2.2,1.3-4.2,7.1-3.3,9.4c0.8,2.2,2.3,2.5,4,0.8c2-2,2.3-3.7,1.2-6.3C351.7,44.3,351.5,43.6,351.2,42.9z M392.3,34.1
	c-2.5,0.9-4.7,1.8-7,2.5c-0.8,0.2-1.8-0.1-2.7-0.1c0.8,0.9,1.4,2,2.4,2.5c1.5,0.9,3.2,1.4,4.8,2.1c1.7,0.8,2.9-0.3,3.9-1.1
	c1.5-1.1-0.5-1.8-0.7-2.8C392.9,36.3,392.6,35.2,392.3,34.1z M206.6,50.8c0.1,0.2,0.2,0.4,0.4,0.6c1.5-2.4,3.1-4.8,4.6-7.2
	c0.7-1.1,1-2-0.5-2.7c-2.2-1.2-1.4-2.5,0-3.8c1.3-1.2,2.7-2.4,2.7-4.7c-4.6,2.3-6.3,5.7-6.2,10.4C207.6,45.8,206.9,48.3,206.6,50.8z
	 M376.8,24.8c2.6,0.4,4.8,0.8,7,1.1c0.4,0,1-0.3,1.1-0.6c0.7-1.5,0-4.4-1.3-5.1c-2.3-1.3-4.5-0.9-5.7,1.3
	C377.3,22.4,377.2,23.6,376.8,24.8z M504.7,25.1c2.3-3.1,2.7-3.9,2.8-6.3c0-0.8-0.4-1.8-0.9-2.3c-0.6-0.6-1.7-0.8-2.6-1.1
	c-2.2-0.7-3-0.1-2.3,2.1C502.5,20,503.6,22.4,504.7,25.1z M234.4,3.6c-3.9-3-7.6-2.6-11.3-0.6c-1.2,0.6-2.4,1.4-1.3,2.9
	c0.8,1.1,1.7,2,3.1,0.9C227.7,4.7,230.8,3.8,234.4,3.6z M283.7,19.8c0.2,0.2,0.5,0.5,0.7,0.7c1-1.2,2.1-2.3,2.8-3.6
	c1.1-1.8,2-3.6,2.8-5.6c0.4-0.9,0.3-2,0.5-3c-1.2,0.4-2.4,0.6-3.5,1.2c-0.5,0.3-0.8,1.3-1,2.1C285.3,14.3,284.5,17.1,283.7,19.8z
	 M13.2,33.4c1.9-0.8,2.5-2.6,3.2-4.3c0.8-1.9,1.6-3.8,2.3-5.7c0.2-0.4,0.4-1.2,0.3-1.3c-0.5-0.3-1.1-0.6-1.7-0.6
	c-2.2,0.1-3.4,1.7-3.6,4.8C13.5,28.6,13.3,31,13.2,33.4z M173.5,19.2c0.2,0.3,0.4,0.5,0.6,0.8c1.4-0.6,2.7-1.2,4.1-1.8
	c0.7-0.3,1.6-0.9,2.2-0.7c2.6,1.1,3.3-1,4.5-2.3c-1.2-0.7-2.2-1.4-3.3-1.8c-0.6-0.3-1.7-0.5-2.1-0.1
	C177.4,15.2,175.5,17.2,173.5,19.2z M384.6,119.2c1.7,1.4,3,2.3,4.2,3.4c2.3,2,2.3,2,5.3-0.2c-1.1-1.4-2.4-2.6-3.2-4.1
	c-0.9-1.6-1.8-1.5-3.1-0.8C387.1,117.9,386.4,118.2,384.6,119.2z M192.9,488.9c-4.8-2.1-9.6,0-14-1.5
	C184.4,492,187.3,492.3,192.9,488.9z M118.3,22.5c0.3,0.2,0.5,0.3,0.8,0.5c2-2,4-4,6-6c0.3-0.3,0.7-1.1,0.5-1.2
	c-0.8-0.8-1.6-1.7-2.5-2c-0.6-0.2-2,0.5-2.3,1.1C119.8,17.4,119.1,20,118.3,22.5z M416.3,44.1c-2.4-0.3-4-0.6-5.7-0.7
	c-0.5,0-1.3,0.1-1.7,0.4c-1.7,1.4-3.3,2.8-5.3,4.5C408.6,48.8,412.2,46.8,416.3,44.1z M111.9,28.6c2.6-1,4.7-2.3,4.5-5.4
	c-0.1-1.4,0.4-2.8,0.6-4.2c0.1-0.6,0.3-1.3,0.2-1.9c0-0.4-0.4-1.2-0.6-1.2c-0.6,0.1-1.4,0.3-1.6,0.6c-0.4,1-0.6,2.2-0.6,3.2
	c0.2,2.5-0.5,4.7-1.7,6.9C112.4,27.3,112.2,28,111.9,28.6z M218,48.9c1.1-2.5,2-4.3,2.6-6.2c0.7-2,0.1-2.4-2-2.1
	c-0.8,0.1-1.6,0.1-2.4,0.4c-1,0.3-1.7,0.9-1.1,2.1C216,44.7,216.8,46.4,218,48.9z M118.7,41.1c0.4,0,1.1,0.3,1.4,0.1
	c2.4-1.6,3.3-4.2,3.9-6.8c0.2-0.8-0.5-1.4-1.5-1C120,34.3,118.4,37.3,118.7,41.1z M401.2,50.3c-3.7,0.6-7.6,0.5-10.9,2.6
	c2.9,2,3,2.2,3.8,1.7C396.5,53.2,398.9,51.7,401.2,50.3z M493,7c1.8,1.9,3.3,3.5,4.9,5.1c0.2,0.2,1.4-0.4,1.3-0.5
	c-0.4-1.8-0.9-3.7-1.4-5.5C496.3,6.4,494.7,6.7,493,7z M365.3,81.1c1.3-2.6,2.3-4.2,3-6c0.4-1,0.2-2.2,0.1-3.3
	c0-0.2-1.3-0.6-1.4-0.4c-1.1,1.4-1.5,3.1-2.4,4.7C364,76.9,364.9,78.6,365.3,81.1z M227.9,511.6c-1.7,3.2-3,5.5-4.7,8.5
	c1.8-0.4,3-0.7,4.2-1c1.2-0.4,1.7-1.2,1.3-2.6C228.3,515.3,228.2,514,227.9,511.6z M225,51.4c-0.2-0.2-0.4-0.3-0.5-0.5
	c-1.9,0.8-3.7,1.8-5.7,2.4c-1.5,0.5-1.8,1.6-1.3,2.6c0.8,1.7,1.1-0.9,1.9-0.4c0.1,0.1,0.3,0.1,0.4,0.2c0.8,1.3,1.7,1.1,2.4,0
	C223.1,54.2,224,52.8,225,51.4z M80.3,7.4c-2.3,3.1-4.1,5.5-5.8,7.9c-0.2,0.3,0.2,1,0.3,1.6c0.4-0.1,1-0.1,1.2-0.3
	c1.5-1.8,3-3.7,4.2-5.7C80.6,10.2,80.3,9.2,80.3,7.4z M202.3,24.5c0.1,0.3,0.3,0.6,0.4,1c1.6-0.5,3.2-1,4.8-1.7
	c1.3-0.6,1-1.9,0.5-2.9c-0.2-0.5-0.5-0.9-0.8-1.3c-0.6,0.5-1.2,0.9-1.8,1.4C204.3,22,203.3,23.3,202.3,24.5z M270.3,9.3
	c-3.1,4-3.3,5.7-0.7,9.7c0.2,0.3,0.4,0.5,0.6,0.7c0.2-0.4,0.5-0.9,0.4-1.2c-1.1-2.8-0.8-5.6,0-8.3C270.6,10,270.4,9.6,270.3,9.3z
	 M341.1,19.2c0.3-1.7,0.5-3.1,0.7-4.5c0-0.3-0.4-1-0.5-1c-1.1,0.1-2.5-0.1-3.1,0.5c-0.5,0.6-0.4,2.2,0,3
	C338.7,18.1,339.9,18.5,341.1,19.2z M322.4,16.9c-0.4,3.3-0.7,6.5-1.1,10C325.4,20.1,325.5,19.8,322.4,16.9z M69.9,23.4
	c0.3,0.2,0.5,0.3,0.8,0.5c0.9-1,2.1-1.9,2.7-3.1c0.3-0.6-0.2-1.7-0.5-2.5c-0.1-0.3-0.8-0.6-1.2-0.5c-1,0.2-1.4,0.9-1.3,2.1
	C70.5,21,70,22.2,69.9,23.4z M368.9,45.2c-0.4-0.1-0.8-0.2-1.2-0.3c-0.6,2-1.3,4.1-1.9,6.2c0,0.2,0.8,0.6,1.2,0.8
	c0.8-1.4,1.7-2.7,2.2-4.1C369.6,47.1,369.1,46.1,368.9,45.2z M213.2,5.7c2,0,3.2,0.2,4.2-0.1c0.6-0.1,1.5-0.8,1.6-1.3
	c0.1-0.6-0.5-1.4-1.1-1.9c-0.2-0.2-1.1,0.1-1.6,0.4C215.5,3.5,214.7,4.3,213.2,5.7z M63.1,21.2c-1.9,0.4-3.2,0.6-4.5,0.8
	c0.2,1.3,0.5,2.5,0.9,4.6C60.9,24.5,61.7,23.2,63.1,21.2z M144.6,17.2c-0.2-0.1-0.4-0.1-0.6-0.2c-0.6,1.1-1.3,2.1-1.7,3.3
	c-0.3,1.2-2.2,2.1-0.8,3.7c0.8-1.1,1.7-2.1,2.3-3.3C144.3,19.6,144.3,18.4,144.6,17.2z M133.8,9.9c1.6-1.1,2.9-1.6,3.4-2.6
	c0.3-0.7-0.6-1.9-0.9-2.9c-0.5,0.5-1.1,1-1.4,1.6C134.5,7,134.4,8,133.8,9.9z M391.4,20.3c-1.1-0.4-1.6-0.8-2.1-0.8
	c-1.6-0.2-2.4,0.7-2.1,2.2c0.1,0.5,1,1.2,1,1.2C389.1,22.3,390,21.5,391.4,20.3z M349.7,21.3c0.9-1.3,1.8-2.5,2.8-3.8
	c-0.4-0.3-0.7-0.8-1.1-0.7c-1.3,0-3.1,2.5-2.8,3.8C348.6,20.7,349,20.9,349.7,21.3z M153.9,543.7c-0.4-3.5-0.4-3.5-5-2.9
	C150.6,541.8,152.2,542.7,153.9,543.7z M453.9,17.7c-1.3,0.8-2.3,1.3-3,2c-0.3,0.3-0.3,1.1-0.1,1.6c0.1,0.3,0.7,0.7,1.1,0.7
	c0.3,0,0.8-0.4,1-0.8C453.2,20.2,453.4,19.2,453.9,17.7z M145.2,9.4c0.5-1.8,0.9-3.4,1.4-5.6C143.7,6.5,143.7,6.5,145.2,9.4z
	 M126,544c-0.2,0-0.5-0.1-0.7-0.1c-0.1,1.1-0.2,2.2-0.4,3.3c-0.2,1.1-1.5,2.1,0,3.1c0.3-1,0.8-2,1-3C126.2,546.3,126,545.1,126,544z
	 M354,41.8c-0.2,0.2-0.4,0.4-0.6,0.6c0.6,0.9,1.1,1.9,1.9,2.6c0.3,0.3,1.2,0.1,1.7-0.1c0.8-0.5,0.5-0.9-0.2-1.4
	C355.8,43,354.9,42.4,354,41.8z M344.4,19.7c0.2,0,0.3,0.1,0.5,0.1c0.4-1.1,0.9-2.1,1.2-3.2c0.1-0.5-0.3-1.1-0.5-1.6
	c-0.4,0.4-1,0.7-1.1,1.1C344.3,17.2,344.4,18.4,344.4,19.7z M348.7,15.2c0.7-0.5,1.2-0.7,1.4-1.1c0.3-0.6,0.5-1.3,0.7-2
	c-0.4-0.1-1-0.5-1.2-0.3c-0.5,0.4-0.9,1.1-1.1,1.7C348.2,14,348.5,14.5,348.7,15.2z M241.9,22.7c-0.1,0.6-0.3,1.1-0.3,1.5
	c0,0.8,0.2,1.5,0.3,2.3c0.3-0.1,0.7-0.1,0.8-0.3c0.2-0.9,0.4-1.7,0.4-2.6C243,23.4,242.4,23.1,241.9,22.7z M229.7,30.4
	c0.2-1.6,0.3-3.3,0.5-4.9C228.6,26.8,229,28.5,229.7,30.4z M48.6,545.6c-0.5-0.6-0.9-1.1-1.3-1.7c-0.2,0.4-0.7,1-0.6,1.3
	c0.2,0.6,0.7,1.1,1.1,1.6C48,546.4,48.3,546.1,48.6,545.6z M468.5,14.5c-0.4-0.2-0.7-0.4-1.1-0.6c-0.2,0.6-0.6,1.2-0.5,1.7
	c0.1,0.5,0.6,0.9,1,1.4c0.4-0.4,1.1-0.7,1.2-1.1C469.2,15.5,468.7,15,468.5,14.5z M158.3,9.9c0.7-1.3,1.2-1.9,1.4-2.6
	c0.1-0.3-0.2-0.8-0.4-1.1c-0.3,0.2-0.9,0.4-1,0.7C158.2,7.6,158.3,8.3,158.3,9.9z M256.8,15.2c-0.1,0-0.3,0-0.4,0c0,1.2,0,2.3,0,3.5
	c0.1,0,0.3,0,0.4,0C256.8,17.5,256.8,16.3,256.8,15.2z M465.8,4.7c0.4-0.3,0.8-0.7,1.2-1.1c-0.3-0.2-0.7-0.6-0.9-0.5
	c-0.4,0.2-0.8,0.7-1.2,1C465.1,4.3,465.4,4.4,465.8,4.7z M382.7,103c-0.8,0-1.4-0.1-2-0.1c-0.3,0-0.5,0.2-0.8,0.3
	c0.6,0.1,1.3,0.3,1.9,0.4C382.1,103.7,382.3,103.4,382.7,103z M84.9,23.8c0.3-0.5,0.6-0.8,0.7-1.3c0.1-0.2-0.3-0.6-0.5-0.8
	c-0.2,0.4-0.5,0.8-0.6,1.2C84.5,23.1,84.7,23.4,84.9,23.8z M478.6,17.5c-0.3,0.2-0.5,0.4-0.7,0.5c0.3,0.1,0.5,0.3,0.8,0.3
	c0.3,0,0.5-0.2,0.8-0.3C479.2,17.8,478.9,17.7,478.6,17.5z M47.5,532.9c-0.2-0.3-0.4-0.5-0.5-0.7c-0.1,0.3-0.3,0.5-0.3,0.8
	c0,0.3,0.2,0.5,0.3,0.8C47.1,533.5,47.3,533.2,47.5,532.9z M398.7,62.9c0.1-0.1,0.3-0.2,0.4-0.3c-0.1-0.1-0.3-0.3-0.3-0.3
	c-0.2,0.1-0.3,0.3-0.5,0.4C398.5,62.8,398.6,62.8,398.7,62.9z M317.6,7.2c0.1-0.1,0.3-0.1,0.3-0.2c0-0.1,0-0.3,0-0.5
	c-0.2,0.1-0.4,0.2-0.5,0.3C317.4,7,317.5,7.1,317.6,7.2z M366.8,30.8c0.1-0.1,0.3-0.2,0.4-0.3c-0.1-0.1-0.3-0.3-0.3-0.3
	c-0.2,0.1-0.3,0.3-0.5,0.4C366.5,30.7,366.6,30.8,366.8,30.8z"/>
<path d="M551,0c1.3,3.8,3.4,6.8,7.6,7.8c0.6,0.1,1.1,1,1.6,1.5c-0.6,0.4-1.2,1.2-1.9,1.2c-2.9,0.1-5.7,0.1-8.8,0.1
	c0.2,0.9,0.3,1.3,0.3,1.7c0.3,3.2,0.1,3.2-3,2.2c-1.8-0.6-3.7-0.9-5.6-0.9c-4.7,0-9.4,0-13.3-3.2c-1.2-0.9-1.7,0.2-2.4,0.7
	c-4.3,3.1-9.2,4.9-14.3,6.3l-0.1-0.2c2.8-2.9,6.4-4.5,10.8-6.5c-4-0.8-7.4-1.4-10.8-2.1c0,0,0-0.1,0-0.1c0.4-0.6,0.6-1.7,1.1-1.8
	c2.1-0.5,4.4-0.8,6.6-1.2c2-0.3,3.9-0.7,5.2-1.9c-2.4-1.3-4.7-2.6-7.1-3.8c2.6,0,5.2,0,7.8,0c1.6,1.3,3.2,1.3,4.9,0
	C536.7,0,543.8,0,551,0z M546.8,11.8c-1.6-2.6-2.9-4.6-4.1-6.7c-1.6-2.9-4.7-4-7.3-3.7c-2.5,0.3-4.8,2.4-7.1,3.8
	c-0.2,0.1-0.4,1-0.2,1.2c1.5,1.4,2.9,3.6,4.6,3.9C537.2,11.3,541.9,11.4,546.8,11.8z M552.8,8.1c-1.3-3.6-3.4-5.9-7.2-6
	c-0.9,0-1.4,0.5-1,1.5C546.1,7,549,8,552.8,8.1z M522.6,8.7c0.7-0.1,1.3-0.1,1.6-0.3c0.4-0.3,0.7-0.9,1-1.3c-0.5-0.2-1-0.5-1.5-0.6
	c-0.4,0-0.9,0.2-1.3,0.4c-0.4,0.3-0.8,0.7-1.2,1.1C521.8,8.3,522.3,8.5,522.6,8.7z"/>
<path d="M569.4,0c0.2,0.2,0.5,0.7,0.7,0.6c4.2-0.7,6.2,2.2,8.4,5c0.8,1,0.5,1.7-0.5,2.3c-4.4,2.2-9.1,2.8-13.9,1.5
	c-1.5-0.4-3.2-1.8-4-3.1c-1.1-1.8-1.6-4.1-2.3-6.2c1,0,1.9,0,2.9,0c0,2.8,0.2,5.6,3.3,6.9c3.4,1.4,6.9,1.4,10.2-0.1
	c1-0.4,1-1.3,0.3-1.9c-0.8-0.7-1.7-1.5-2.7-1.8c-1.8-0.5-3.7-0.7-5.6-1c-1.2-0.2-1.6-0.9-1.6-2C566.2,0,567.8,0,569.4,0z"/>
<path d="M3.9,0C3.5,2.4,1,3,0,4.9C0,3.2,0,1.6,0,0C1.3,0,2.6,0,3.9,0z"/>
<path d="M167.8,458.5c0.4,3.4-0.4,6.2-1.8,9c-1.8,3.7-2.8,7.8-3.4,12c-0.5,4.3-2.5,8.2-2.9,12.6c-0.2,2.1-0.8,4,0,6.1
	c0.2,0.4-0.3,1.3-0.7,1.6c-0.3,0.2-1.2,0-1.6-0.4c-5.1-4.7-9.5-10-12.2-16.5c-0.8-1.9-2-3.7-2.7-5.7c-1.7-4.8-3.9-9.6-4.5-14.6
	c-0.5-4.5,1.1-9.3,4.1-13c2.3-3,6.4-3.3,9.6-1.2c0.7,0.4,1.4,0.9,1.8,1.6c1.4,1.8,2.6,2.2,4.1,0.1c0.3-0.4,0.7-0.7,1.2-0.8
	c1.6-0.6,3.5-1.9,4.8-1.4c2.3,0.8,3.7,3.1,4.1,5.6C168,455.1,167.8,456.9,167.8,458.5z M163.9,451.1c0.2,0.2,0.3,0.3,0.5,0.5
	C164.2,451.4,164.1,451.2,163.9,451.1c-0.3-0.3-0.6-0.5-0.9-0.8c-0.1,0.2-0.2,0.3-0.3,0.5C163.1,450.9,163.5,451,163.9,451.1z
	 M152.3,453c0.1,0.4,0.2,0.8,0.3,1.3c0.2-0.1,0.3-0.2,0.5-0.3C152.8,453.6,152.6,453.3,152.3,453c-0.4-0.8-0.8-1.7-1.3-2.4
	c-0.1-0.2-0.6-0.1-0.8-0.2c0,0.3-0.1,0.6,0,0.7C150.8,451.8,151.6,452.4,152.3,453z M155.8,495.2c0.4-2.7,1-5.2,1-7.8
	c-0.1-2.5,1.3-4.6,1.5-7c0.2-2.5,1.1-5,1.9-7.4c1.1-3.3,2.6-6.6,3.4-10c0.6-2.6,0.4-5.5,0.2-8.2c-0.1-1.9-1.6-3.1-3.6-3.3
	c-1.9-0.2-2.4,1.2-2.9,2.5c-0.2,0.4-0.2,0.9-0.4,1.4c-1.2,2.7-2.6,3-4.6,0.8c-0.6-0.7-1-1.7-1.6-2.4c-1.4-1.7-3.2-2.7-5.4-2.8
	c-1.5-0.1-2.5,0.3-3,1.8c-1.4,3.9-2.7,7.8-1.5,12.1C143.8,475.9,147.9,486.5,155.8,495.2z"/>
<path d="M144.8,468c-1.2-3,0.5-5.6,0.9-8.4c0-0.1,1.4-0.2,1.4,0c0.4,1.2,0.4,2.2,1.8,0.4c1.1-1.6,2.2-1.2,2.3,0.7
	c0.1,1.9,0.7,3.4,2.1,4.6c0.4,0.3-1.1,2.9-1.6,2.8c-0.4-0.1-0.9-0.5-1-0.9c-0.3-0.6-0.3-1.2-0.4-1.9c-0.1-0.6-0.1-1.3-0.2-2.7
	c-0.6,1.4-0.8,2.1-1.1,2.7c-0.1,0.3-0.4,0.5-0.7,0.7c-0.1,0.1-2.9,1.9-2.9,1.9C145.2,467.9,145.1,467.9,144.8,468z"/>
<path d="M160.8,464.8c-0.5,0.6-0.6,0.7-0.7,0.8c-1.5,0.6-2.9,1.1-4.4,1.7c-0.5-1.8-1.3-3.6-1.4-5.5c-0.2-2.2,1.1-3.1,3.4-2.9
	c0.4,0,0.7,0.5,1.1,0.7c-0.3,0.3-0.4,0.9-0.8,1c-1.5,0.5-1.9,0.6,0,1.2c1.1,0.3,0.3,0.7-0.1,1.1c-0.5,0.6-0.8,1.4-1.2,2.2
	c0.7-0.1,1.5-0.2,2.2-0.3C159.4,464.7,159.8,464.8,160.8,464.8z"/>
<path d="M153.3,478.3c-3-3.8-3-3.8-0.5-7.5c1,1.1,2.6,2.1,2.6,3.2C155.5,475.2,154.2,476.6,153.3,478.3z"/>
<path d="M156.2,479.2c-1.6,1.9-2.5,3.6-1.2,6c0.2,0.3-0.5,1-0.7,1.5c-0.4-0.4-1-0.8-1-1.3c-0.1-1.6,0-3.3-2.2-3.6c0,0,0-1.3,0.2-1.4
	C152.9,479.9,154.5,479.5,156.2,479.2z"/>
</svg>
