<?xml version="1.0" encoding="utf-8"?>
<!-- Generator: Adobe Illustrator 18.0.0, SVG Export Plug-In . SVG Version: 6.00 Build 0)  -->
<!DOCTYPE svg PUBLIC "-//W3C//DTD SVG 1.1//EN" "http://www.w3.org/Graphics/SVG/1.1/DTD/svg11.dtd">
<svg version="1.1" id="Title_Page" xmlns="http://www.w3.org/2000/svg" xmlns:xlink="http://www.w3.org/1999/xlink" x="0px" y="0px"
	 viewBox="0 0 265.2 202.6" enable-background="new 0 0 265.2 202.6" xml:space="preserve">
<g>
	<g>
		<path d="M127.7,0.6c0.3,3-2.1,4.1-3.7,5.8c-0.4,0.4-1.1,1.2-1,1.5c0.3,0.5,1,1,1.6,1.1c2.2,0.4,4.5,0.6,6.7,0.9
			c1.8,0.2,3.5-0.2,4.8-1.3c1.3-1.1,2.3-0.8,3.4,0c1.3,0.9,1.2,2.1,0.5,3.4c-0.3,0.6-0.5,1.2-1.1,2.6c3.2-1.7,4.9-4.8,8.4-4.9
			c-3.5,3.8-7.4,6.6-12.9,7.2c1.4,1.5,2.3,2.5,3.3,3.5c2.4,2.7,2.4,2.7,4.4,0c1.5-2,2.9-4.1,4.4-6.2l0,0c-0.4,1.9-1.6,4.1-1,5.4
			c0.5,1.2,3.2,1.3,4.9,2.1c0.5,0.2,1.1,0.9,1.2,1.5c0.2,2,0.1,2,1.7,2.1c2.1,0.1,4.2,0.5,6.3,0.5c0.7,0,1.5-0.5,2.2-0.9
			c1.2-0.9,2.3-2.1,3.6-3c1.7-1.1,3.5-0.6,3.9,1.4c0.3,1.3-0.2,2.7-0.4,4c-0.1,0.8-0.3,1.5-0.5,2.2c1.1,0.2,2.2,0.8,3.1,0.6
			c0.9-0.2,1.5-1.3,2.3-1.8c2.1-1.4,4.2-2.8,6.4-4c1.3-0.7,2.3,0.2,1.8,1.6c-1.2,3.5-2.6,6.8-4,10.4c1.5,0.3,3-0.9,4.7-1.3
			c2.5-0.7,5-2.2,7.6,0.1c0.4,0.4,1.8-0.2,2.6-0.6c2.2-1.1,4.2-2.4,6.4-3.4c0.8-0.4,2.3-0.4,2.6,0.1c0.6,0.8,1.1,2.3,0.7,3
			c-1.3,2.3-2.9,4.5-4.5,6.7c-0.5,0.7-1.5,1.4-0.3,2c2.2,1.2,0.9,2.5,0,3.3c-1.2,1-2.7,1.6-4.1,2.2c-1.3,0.6-2.7,0.9-4.3,1.4
			c1.6,1.8,3.5,1.5,5.1,0.9c2.4-0.9,2.4-0.9,3.7-0.8c1.5,0.1,3.1,0,4.5-0.5c3.2-1.1,6.4-1,9.7-0.9c1.4,0.1,1.8,0.9,1,2
			c-1.3,1.7-2.7,3.3-4.2,4.7c-0.9,0.9-2.1,1.4-3.5,2.3c1.5,0.3,2.8,0.2,3.7,0.7c3.5,1.8,6.7,1.8,10.1-0.1c1.3-0.7,3-0.8,4.4-1.5
			c1.6-0.7,2.9,0,3.8,1.1c0.4,0.5,0.2,1.9-0.2,2.7c-1.5,3.4-3.4,6.5-7.7,8.9c3.3,0.2,5.5,0.3,7.7,0.4c1.3,0,2.7,0,3.3,1.4
			c0.7,1.5-0.4,2.4-1.4,3.3c-0.5,0.5-1.1,0.8-1.7,1.2c1.4,2,3.2,1.6,4.8,1.8c1.5,0.3,2.9,1,4.3,1.5c-0.3,1.9-1.7,2.8-3.2,3.6
			c-0.4,0.2-0.8,0.3-1.7,0.6c2.3,0.5,4,0.8,5.7,1.2c0.7,0.1,1.4,0.2,2,0.6c0.8,0.5,2.2,1.3,2.2,1.7c-0.2,1-1.1,1.8-1.8,2.7
			c-0.2,0.2-0.5,0.3-0.7,0.4c-1,0.5-2.6,0.8-2.9,1.6c-0.5,1.2-0.2,2.8-0.1,4.2c0,0.4,0.3,0.8,0.4,1.2c0.2,0.7,4.2,6.5,4.6,7.1
			c1.9,2.9,5.1,5,5.1,9c0,2.8,0.2,2.9,2.8,3.2c5,0.6,9.4,3,14,4.7c0.2,0.1,0.5,0.5,0.5,0.6c-0.1,0.3-0.3,0.8-0.6,0.9
			c-2.7,0.8-5.3,1.9-8.2,0.9c-1.3-0.4-2.7-0.5-4.8-0.9c1.2,1.4,1.8,2.4,2.5,3.1c4.7,4.5,7.3,10.1,8.2,16.4c0.3,1.7,0.6,3.3,0.7,5
			c0,0.5-0.5,1.3-0.9,1.6c-0.3,0.2-1.1-0.1-1.5-0.3c-0.3-0.2-0.6-0.6-0.8-1c-0.9-1.5-1.4-0.7-2,0.3c-2.5,4-1.8,8.4-1.1,12.7
			c0.6,3.9,1.5,7.8,2.4,11.6c0.3,1.1,0.4,2,0.1,3.2c-0.3,1.4,0.2,3,0.7,4.5c0.8,2.3,1.8,4.5,2.7,6.7c0.6,1.5,0.2,1.9-1.6,1.7
			c-0.8-0.1-1.7,0.1-2.4-0.2c-1.1-0.4-2.7-0.7-3.1-1.5c-0.9-1.6-2.2-2.4-3.8-3.1c-1.3-0.5-2.3-1.5-4-2.7c0.6,1.4,0.7,2.4,1.3,3
			c2.8,2.9,5.1,6.5,9.3,7.8c1,0.3,2.1,1.1,2.7,2c1.8,2.4,3.4,4.9,5,7.4c0.8,1.4,0.3,2.2-1.3,2c-1.7-0.2-3.5-0.5-4.9-1.4
			c-4.3-2.6-8.2-5.6-10.3-10.4c-0.4-0.9-0.9-1.7-1.4-2.6c-3.6,3.4-4.9,3.1-6.1-1.6c-1-3.8-1.4-7.8-2-11.7c-0.2-0.9-0.2-1.9-0.4-3.4
			c-1.3,1.1-2.2,2-3.2,2.7c-0.5,0.4-1.2,0.5-1.8,0.7c-0.2-0.7-0.6-1.4-0.5-2c0.6-2.6,1.1-5.2,2-7.8c0.8-2.2,2-4.3,3-6.3
			c-1.7,0-3.1,0-4.5,0c0.3-1.3,0.7-2.7,1-4c1.2-4.6,3.3-8.8,5.9-12.7c0.2-0.3,0.2-0.8,0.3-1.2c0.3-0.3,0.6-0.6,0.8-0.9
			c0.1,0,0.2-0.1,0.3-0.2c0.1-0.1,0.1-0.2,0.1-0.3c-0.1,0.1-0.3,0.3-0.4,0.4c-0.3,0.3-0.6,0.6-0.9,0.8c-2.8,2.6-5.5,5.3-8.3,7.9
			c-1.6,1.4-3.3,2.7-5,3.9c-1,0.7-2.1,0-2-1.2c0.1-1.2,0.3-2.6,0.8-3.7c1.3-2.5,2.7-5,4.3-7.3c1.1-1.5,0.2-2.4-0.3-3.5
			c-0.6-1.4-1.6-0.7-2.5-0.5c-1.6,0.4-3.3,0.7-5,0.9c-0.9,0.1-2.2,0.3-2.4-1.1c-0.1-0.7,0.5-1.5,1.1-2.1c1.1-1.1,2.3-2.2,3.6-2.9
			c2-1.1,2.2-2.3,1.3-4.2c-0.5-1-0.5-2.1-0.8-3.2c-0.8,0.7-1.6,1.4-2.3,2.2c-0.2,0.2-0.4,0.4-0.6,0.6c-1,0.6-2.1,1.4-3.1,0.4
			c-0.6-0.6-1.1-1.8-1-2.5c0.5-2.3,1.3-4.6,2-6.9c0.7-2.1,1.5-4.1,2.6-6.8c-1.7,1-2.6,1.6-3.6,2c-0.7,0.3-1.5,0.1-2.3,0.1
			c0.1-0.8,0.1-1.6,0.2-2.8c-1.4,0.8-2.4,1.6-3.6,2.1c-0.7,0.3-1.8,0.3-2.3-0.1c-0.4-0.3-0.3-1.5-0.1-2.2c0.6-2,1.4-4,2.1-6
			c0.1,0,0.2-0.1,0.3-0.1c0.1,0,0.1-0.2,0.1-0.3c-0.1,0.1-0.3,0.3-0.4,0.4c-1.5,0-2.4-0.7-2.6-2.2c-0.1-0.8,0-1.7-0.1-2.6
			c-0.1-0.8-0.2-1.6-0.3-2.5c-0.8,0.1-1.6,0.3-2.4,0.4c-1.3,0.2-2.3-0.1-2.4-1.7c-0.1-1.3-0.6-1.8-1.9-1.2c-0.5,0.2-1.1,0.3-1.6,0.4
			c-3.2,0.6-3.6,0.4-2.4-2.8c0.7-2.1-1.1-2.9-1.4-4.4c-0.4-1.7-0.9-2.2-2.9-1.6c-1.9,0.5-2.9-1-1.9-2.8c0.8-1.3,1.9-2.4,2.9-3.7
			c0.2-0.3,0.3-1,0.1-1.1c-0.4-0.3-1.2-0.7-1.4-0.5c-1.2,1-2.3,2.1-3.5,3.1c-2.7,2.6-5.9,3.8-9.7,3.5c-1.6-0.1-2-0.8-1.3-2.2
			c0.9-1.7,1.9-3.5,2.8-5.2c0.2-0.4,0.4-1.2,0.2-1.4c-3.2-3.1-3.8-7.6-5.7-11.3c-0.1-0.1-0.2-0.1-0.7-0.4c-0.5,1-1,1.9-1.4,2.8
			c-1,2-1.8,4.1-2.9,6.1c-0.5,0.8-1.3,1.5-2.2,2c-1.3,0.7-2.7-0.1-2.7-1.5c0-1.4,0.1-2.9,0.4-4.2c0.7-2.5,0.2-5,0.4-8.2
			c-2.3,1.5-3.8,2.7-5.5,3.6c-1.7,0.9-3.6,2.4-5.5,0.9c-1.9-1.5-0.9-3.6-0.3-5.5c0.5-1.5,1-3,1.4-4.5c0.2-0.7,0.4-1.4,0.4-2
			c0-0.3-0.4-0.8-0.7-1c-0.1-0.1-0.7,0.3-0.8,0.5c-0.5,1-0.8,2.1-1.2,3.2c-0.3,0.8-0.5,1.6-0.8,2.4c-0.9,2.1-1.6,2.2-2.9,0.5
			c-0.4-0.5-0.7-1.2-1.3-2.1c-0.6,1.2-1,2.1-1.5,2.9c-1.2,1.8-1.6,1.8-2.6-0.4c-1.2-2.5-2.3-5.1-3.4-7.6c-0.5-1-1-2-1.9-3.7
			c-0.9,3.9-1.6,7.1-2.3,10.3c-0.1,0.3-0.5,0.8-0.8,0.8c-0.3,0-0.7-0.3-0.9-0.6c-1.6-2.8-3.4-5.6-4.6-8.6c-0.7-1.7-1.7-2.8-3.4-3.7
			c-0.4,1.6-0.7,3.2-1.2,4.7c-0.4,1-0.9,2.1-1.7,2.8c-1,0.9-2.4,2.2-3.4,2c-1.8-0.4-0.7-2.4-1-3.7c-0.1-0.4,0-0.9-0.1-1.3
			c-0.3-1.1-0.3-2.5-1-3.2c-0.5-0.5-2-0.1-3-0.1c-1,0-2,0-3.6,0c1.6-2.5,3-4.5,4.3-6.6c0.5-0.8,1.2-1.7,1.4-2.6
			c0.2-0.8-0.3-1.7-1.2-2.5c-0.4,1-0.7,2.1-1.1,3.1c-0.4,1-1,1.9-2.2,1.3c-1.3-0.6-1.6-0.2-2.1,1c-0.7,1.8-1.5,3.7-2.6,5.3
			c-0.6,0.9-1.6,1.6-2.6,2.1c-1.8,0.9-3.1,0.2-3.4-1.8c-0.4-2.9-0.6-5.9-0.9-8.9c-0.1-1.1-0.2-2.1-1-3.3c-0.2,0.6-0.4,1.2-0.7,1.7
			c-0.7,1.1-1.2,2.7-2.2,3c-1.8,0.5-1.2-1.8-2-2.7c-1.3-1.3-2-3.1-3.1-4.5c-0.4-0.5-1.2-0.9-1.8-0.8c-0.4,0.1-0.9,0.9-1.1,1.5
			c-1.7,5.4-5.6,8.1-11.2,7.8c-2.5-0.1-3.3-1-2.3-3.1c1.1-2.4,2.5-4.8,4.1-6.9c1.5-2.2,1.7-2-0.7-3.5c-0.2-0.1-0.5-0.2-0.8-0.4
			c-0.9-0.5-1.2-1-0.3-2c2.2-2.4,2.2-3,0.2-5.6c-0.9-1.1-1.7-2.1-0.5-3.4c1.3-1.4,0.9-2.4-0.4-3.6c-0.7-0.6-1.2-1.5-2.1-2.6
			c-0.9,3.2-3,5-5.1,6.9c-2.6,2.2-4.3,5-5.3,8.4c-2.2,7.5-7.2,12.5-15.2,16c0.7-1.3,0.9-1.8,1.2-2.2c1.2-1.2,1.6-2.7,1.5-4.3
			c-0.1-1.3,0-2.6,0-3.8c-0.3-4,0.1-7.7,3.2-10.9c-0.8,0.3-1.6,0.6-2.4,0.9c-2.4,0.9-4.8,1.9-7.2,2.6c-0.5,0.1-1.3-0.4-1.7-0.8
			c-0.2-0.3-0.1-1,0.1-1.5c0.1-0.4,0.6-0.6,0.8-1c1.7-2.9,1.7-2.9-1.4-4.2c-1.2-0.5-1.9-1.3-1.1-2.6c0.4-0.7,0.9-1.5,1.3-2.2
			c1.9-3,1.9-3.5,1-7.7C46.8,4.2,45.1,5,43.7,6c-0.5,0.3-0.5,1.2-0.7,1.9c-0.8,2.3-1.4,4.6-2.3,6.8c-1,2.3-2.8,3.9-5,5
			c-2.7,1.3-3.7,0.9-4.8-1.9c-0.3-0.9-0.7-1.9-1.1-3.1c-1.5,0.7-2.9,1.5-4.5,2.1c-1.3,0.5-2.7,1-4.1,1c-3.6,0-4.3-1.1-2.7-4.3
			c1.8-3.5,3.1-7.4,7.1-9.6c-1.1-1.2-2.2-2.2-3.2-3.2c1.1,0,2.3,0,3.4,0c3.1,3.7,7.5,4.8,11.9,5.1c5,0.3,5.6-0.7,3.5-5.1
			c0.9,0,1.7,0,2.6,0c0.2,0.4,0.4,0.7,0.7,1.1c1,1.3,2,1.4,2.9,0c0.2-0.3,0.5-0.7,0.7-1c0.9,0,1.7,0,2.6,0c0,1.6,0,3.1,0.1,4.7
			c0.1,1.2,0.9,1.4,1.7,0.6c1.5-1.7,2.8-3.5,4.2-5.3c1.4,0,2.9,0,4.3,0c-0.1,0.2-0.2,0.6-0.4,0.7c-4.3,1.9-7,5.6-10.2,8.7
			c-1.1,1-1.9,2.4-2.9,3.6c6.1,2.5,13.9-0.3,17-5.7c1.4-2.4,2.8-4.9,4.2-7.3c0.6,0,1.1,0,1.7,0c-0.5,0.7-0.9,1.4-1.4,2.1
			c-2,2.9-2.6,5.8,0.4,8.7c2.6-3.2,3.9-6.8,4.5-10.7c0.6,0,1.1,0,1.7,0c-0.3,4.1-0.5,8.2-0.8,12.7c3.3-4,4.5-8.2,5.1-12.7
			c0.9,0,1.7,0,2.6,0c0.6,1.1,1.2,2.3,1.8,3.4c0.4,0.8,0.8,1.6,1.9,1.1c1-0.4,2.4-0.3,2.3-2c0-0.9,0-1.7,0-2.6c0.6,0,1.1,0,1.7,0
			c0.3,2.4,0.6,4.7,0.9,7.1c0.3,2.4-0.4,4.9,0.6,7.7c1-1.2,1.7-1.9,2.1-2.8c1-2.1,2.1-4.1,0-6.5c-1.2-1.4-1.3-3.6-2-5.5
			c0.6,0,1.1,0,1.7,0c0.2,3.1,1.5,5.5,3.8,7.6c1.7,1.6,3.2,3.5,4.8,5.2c-0.7-0.2-1.3-0.4-1.9-0.7c-1.9-1-2.1-1-2.2,1
			c-0.1,2.7,0,5.4-0.2,8.1c-0.2,2.5,0,3,2.3,2.5c1.2-0.2,2.5-0.6,3.6-1.1c2.8-1.2,3.2-2.3,1.7-4.9c-1-1.7-2.2-3.3-3.3-4.9
			c1.5-1.2,0.2-3,1-4.3c1.6-2.8,0.6-5.3-0.7-7.8c-0.1-0.2-0.2-0.5-0.3-0.8c0.9,0,1.7,0,2.6,0c0.3,3.8,0.9,4.2,4.2,5.1
			c4.2,1.2,8.3,0.5,12.5-0.1c1.7-0.2,2.7-1.4,3.5-3.1c-4.1-0.3-4.1-0.3-6.5-2C121.4,0.6,124.5,0.6,127.7,0.6z M114.8,24.5
			c0-0.1-0.1-0.2-0.1-0.3c0-0.1-0.2-0.1-0.3-0.1C114.6,24.3,114.7,24.4,114.8,24.5c0,0.3,0,0.6,0.1,0.8c0.2,0.5,0.6,0.9,0.9,1.3
			c0.2-0.1,0.5-0.3,0.5-0.4c-0.2-0.5-0.5-0.9-0.8-1.3C115.4,24.7,115.1,24.7,114.8,24.5z M198.7,69c0.1,0.1,0.1,0.2,0.2,0.3
			c0.1,0.1,0.2,0,0.3,0.1C199,69.3,198.8,69.2,198.7,69c-1.2-1.7-2.5-3.2-4.7-4.3C195.1,68.7,195.1,68.7,198.7,69z M250,189.7
			c0-0.1-0.1-0.3-0.1-0.4c0-0.1-0.2-0.1-0.3-0.1C249.8,189.4,249.9,189.6,250,189.7c2.5,5.8,7.5,10,11.5,9.7
			C259.1,194.8,256.6,192.7,250,189.7z M92.6,16.8c-3.2-0.5-3.3-0.5-3.4-3.1C89,12.4,89,11,88.9,9.1c-1.7,1.7-3.1,2.9-4.2,4.3
			c-0.9,1.2-1.4,2.6-2,4c1.6,0.9,3.1,1.9,4.7,2.7c0.5,0.2,1.4-0.2,1.9-0.5C90.5,18.7,91.5,17.7,92.6,16.8c0.8,0,1.7,0.1,2.5-0.2
			c0.5-0.2,1.2-0.8,1.3-1.3c0.3-1.6,0.3-3.2,0.4-5.3C95.2,12.6,93.9,14.7,92.6,16.8z M145.7,31.4c4,0.3,7.8-0.7,11.5-2.1
			c0.5-0.2,1.1-1.2,0.9-1.6c-0.1-0.5-0.9-0.9-1.5-1.2c-0.2-0.1-0.5,0-0.8,0c-3.1,0.2-6.2,0.5-9.2,0.7c-1,0.1-2,0-2.9,0.3
			c-0.5,0.1-1,0.7-1.1,1.1c-0.1,0.3,0.5,0.8,0.9,1.1C144.1,30.2,144.9,30.8,145.7,31.4c-0.3,0.5-0.6,1.1-0.9,1.6
			c-0.2-0.1-0.5-0.3-0.7-0.4c-0.3-0.3-0.5-0.6-0.8-1c-0.3,0.4-0.8,0.7-0.9,1.1c-0.3,0.9-0.2,2.2-0.8,2.7c-1.1,0.9-1,2-1,3.1
			c0.1,2.2,0.2,4.4,1.2,6.5c1.8,3.7,3.4,7.4,5.2,11.1c0.3,0.6,0.9,1,1.3,1.4c0.4-0.5,1-1,1.2-1.6c1.2-3.1,1.4-6.2,0.7-9.4
			c-0.5-1.9-1-3.8-0.3-5.8c0.5-0.4,1.3-0.6,1.6-1.1c0.4-0.9,0.1-2.3,0.7-2.7c0.5-0.4,1.8,0.3,2.7,0.3c1,0,2-0.2,2.9-0.4
			c2.3-0.7,4.6-1.3,6.8-2.2c1.6-0.7,3.4-1.2,4.9-2.9c-1.5-0.3-2.8-0.9-3.9-0.7c-4.5,0.9-9.1,2-13.5,3.3c-3.8,1.2-3.8,1.5-2.3,5.2
			c0.2,0.4,0.1,0.8,0.2,1.3c-2.7-1.9-4.4-4.4-5.1-7.6c1.5,0.6,2.8,2.6,4.4,0.5C148.1,32.9,146.9,32.2,145.7,31.4z M224.4,85.3
			c0-0.1-0.1-0.3-0.1-0.3c0-0.1-0.2-0.1-0.3-0.1C224.1,85,224.2,85.2,224.4,85.3c0.2,1.1,0,2.5,0.6,3.2c0.5,0.6,2,0.2,3,0.4
			c0.4,0.1,0.8,0.4,1.2,0.4c3.3,0.6,6.4,0,9.5-1.1c0.4-0.1,0.6-0.8,0.8-1.3c0-0.1-0.6-0.5-0.9-0.6C233.9,85,229.1,85.1,224.4,85.3z
			 M108.8,22c0-0.1-0.1-0.2-0.1-0.3c0-0.1-0.2-0.1-0.3-0.1C108.6,21.7,108.7,21.8,108.8,22c0.5,2.3,1.5,4.6,1.5,7
			c0.1,3.8,2.2,6.2,4.9,8.4c0.4,0.3,1,0.4,1.5,0.6c0.2-0.6,0.7-1.4,0.5-1.9c-1.4-4.6-2.9-9.2-5.9-13C110.9,22.4,109.7,22.3,108.8,22
			z M240.7,131.5c-3.1-4.2-5.1-9-6.6-14c-0.2,1.6-0.4,3.1-0.2,4.7C234.4,126.5,236.4,129.8,240.7,131.5c1.9,3.7,6.1,3.9,9.1,5.7
			c0.1,0.1,1-0.7,1-1c-0.1-1-0.4-1.9-0.7-2.8c-1.2-3.3-2.4-6.6-3.7-9.9c-0.2-0.6-0.9-1-1.4-1.4c0-0.1-0.1-0.3-0.1-0.3
			c0-0.1-0.2-0.1-0.3-0.1c0.1,0.1,0.3,0.3,0.4,0.4c-0.4,2.2-0.6,4.4-1.2,6.5C243.3,130,242.7,131.7,240.7,131.5z M167.9,45.1
			c2.5,1.9,2.6,5.1,4.1,7.6c1.4,2.2,2,4.9,3,7.4c0.3,0.8,0.5,2.3,1.8,1.7c0.7-0.3,1.2-1.6,1.2-2.4c0.1-0.9-0.6-1.8-0.8-2.7
			c-0.1-0.4,0-1.2,0.2-1.2c1.4-0.3,1.3-0.9,1-2.1c-0.6-2.5-1.8-4.3-4.1-5.6c-1.2-0.7-2.2-1.7-3.2-2.6C170,44,169,43.9,167.9,45.1
			c-2.3,0.2-1.7,1.9-1.6,3.2c0.2,2.1,0.6,4.2,0.7,6.3c0.1,1.2-0.7,1.8-1.9,1.7c-0.7,0-1.5,0-2.1-0.3c-2.1-1.1-2.7-0.1-3.2,1.7
			c-0.2,0.8-0.9,1.5-1,2.3c-0.1,1.3-0.3,3.1,0.4,4c1,1.2,2.2-0.4,3.3-0.9c3.9-1.8,5.9-4.6,5.4-9.1C167.6,51.1,167.9,48.1,167.9,45.1
			z M216.7,67.3c-1.4,0.3-2.7,0.7-4.1,0.9c-1.5,0.1-2,0.9-1.8,2.2c0.3,4.2,0.6,8.4,1,12.7c0,0.4,0.5,1.1,0.9,1.2
			c0.4,0.1,1.2-0.1,1.5-0.5c1.9-2.3,3.5-4.9,3.3-8C217.3,72.9,216.9,70.1,216.7,67.3c0.9,0.8,1.8,1.5,2.6,2.2
			c1.2-1.5,2.3-2.8,3.4-4.3c1.2-1.7,2.5-3.4,3.6-5.2c0.7-1.2-0.2-2.2-1.6-1.9c-1.4,0.3-2.7,0.8-4,1.4c-1.1,0.4-1.7,0.9-0.3,2
			c1.7,1.4,1.6,1.5-0.1,2.9C219,65.4,217.9,66.3,216.7,67.3z M104.7,10.7c-0.2,0.1-0.3,0.1-0.5,0.2c0.6,1.5,1.1,3,1.8,4.5
			c1.5,3.1,4.2,4.8,7.2,6.2c1.3,0.6,2.4,1.3,3.7,2c0.6,0.3,1.2,0.4,1.8,0.6c0.1-0.5,0.2-1.1,0.2-1.6c-0.5-3.2-1.1-6.3-1.5-9.5
			c-0.3-2.3-1.7-4-4.1-4.7c-2-0.5-4.1-0.8-6.2-1.4c-1.5-0.4-2.1,0.4-2.3,1.6C104.6,9.3,104.7,10,104.7,10.7z M83,26
			c1.9,1,3.4,1.8,4.9,2.6c3.2,1.6,6.3,1.6,9.2-0.5c0.6-0.4,1.2-0.7,1.8-0.9c0.2-0.1,0.6,0.1,0.7,0.3c0.1,0.1,0,0.5-0.1,0.7
			c-0.4,0.4-0.7,0.9-1.2,1.2c-1.8,0.9-1.6,2.1-0.7,3.5c0.7,1.1,1.3,2.2,2.1,3.2c0.7,0.8,1.8,0.7,2-0.4c0.5-2.6,0.9-5.3,0.9-8
			c0.1-1.7-0.7-2-2.5-1.8c-1.4,0.2-2.8,0.4-4.2,0.4c-0.6,0-1.3-0.5-1.9-0.7c0.3-0.5,0.6-1,0.9-1.5c1.1-1.5,1.4-5.4,0.5-6
			c-0.8-0.5-4.2,0.9-5,2.4c-1.2,2.2-3,3.3-5.1,4.3C84.7,25,84.1,25.4,83,26z M194,74.2c0.3-0.2,0.6-0.3,0.9-0.5c-1-2.9-2-5.8-3-8.8
			c-0.5-1.6-0.5-3.9-1.6-4.6c-1-0.7-3.2,0.2-4.8,0.3c-2.3,0.2-2.6,0.6-1.3,2.5c1.3,1.9,2.4,3.9,2.4,6.2c-0.1,3.7-0.2,7.5-3.2,10.4
			c-0.6,0.6-1,1.4-1.3,2.2c-0.2,0.3-0.3,1.1-0.1,1.1c0.4,0.3,1.1,0.5,1.5,0.4c2.5-1.2,5.2-2.3,7.5-3.9c2.3-1.6,2.3-4.2,0.3-6.2
			c-2.3-2.3-3.3-5.2-4.3-8.2c-0.3-0.9-0.2-2,0-2.9c0.1-0.3,0.9-0.5,1.4-0.7c0.1,0,0.5,0.6,0.5,0.9C188.2,67.4,191.7,70.5,194,74.2z
			 M118.8,45.5c2.2,0.1,5.6-0.6,8-1.8c4.9-2.4,7.5-6.7,9.2-11.7c0.2-0.6,0-1.6-0.4-1.9c-0.4-0.3-1.3-0.2-1.9,0
			c-2,0.7-3.9,1.6-5.9,2.4c-1.8,0.7-3,2-3.9,3.7C122.3,39.4,120.5,42.5,118.8,45.5z M125.5,10.9c1.1,4.1,3.6,7,5.5,10.2
			c2.2,3.7,4.9,6.9,7.9,9.9c0.4,0.4,1.1,0.3,1.7,0.5c0.1-0.5,0.5-1.1,0.3-1.5c-1.4-4.7-3.6-8.9-7.6-11.9c-0.6-0.4-1.2-0.7-1.8-1.2
			c-0.2-0.2-0.3-0.7-0.3-1.1c0-0.1,0.4-0.2,0.7-0.2c1.1-0.2,2.2-0.3,3.3-0.6c1.5-0.4,2.4-1.5,2.6-3c0.2-1.3-0.4-2-1.6-1.5
			c-2,0.9-4,0.9-6.1,0.5C128.7,10.7,127.1,10.9,125.5,10.9z M107,39.6c-0.1,0-0.3,0-0.4,0.1c0.2,1.8,0.3,3.6,0.6,5.4
			c0.1,0.5,0.4,1,0.6,1.5c0.6-0.3,1.4-0.5,1.7-0.9c1.2-2,2.3-4.2,3.5-6.3c0.7-1.2,0.7-2.1-0.7-2.7c-1.9-0.8-2.6-2.4-2.8-4.4
			c-0.3-2.4-1-4.7-1.6-7c-0.2-0.5-0.8-1.3-1.2-1.4c-0.6,0-1.3,0.5-1.7,1c-0.3,0.4-0.4,1.1-0.4,1.6c0,2.4-0.1,4.7,1,7.1
			C106.4,35.4,106.6,37.6,107,39.6z M244.9,168.8c0.9-1.8,1.4-2.6,1.8-3.5c1.1-2.4,1.9-5.1,3.3-7.3c2.3-3.6,3.5-7.7,5.1-11.6
			c0.9-2.2,0.3-3.8-1.1-5.3c-1.1-1.2-1.8-1.1-2.3,0.4c-1.2,4.1-2.3,8.1-3.3,12.2c-0.5,2.1-0.8,4.1-2.9,5.4c-0.4,0.3-0.6,1.2-0.7,1.9
			C244.9,163.3,244.9,165.5,244.9,168.8z M125.1,26.1c0.6-2.4,1.6-4.5,1.5-6.5c-0.3-4.1-2.2-7.8-5-11c-1.1-1.3-2.3-1.5-3.7-0.6
			c-0.3,0.2-0.7,1-0.6,1.1c2.2,2.5,2.1,5.8,2.6,8.8C120.5,21.3,121.6,23.9,125.1,26.1z M196.5,45.4c0-0.4,0.1-0.8,0.1-1.2
			c-1.3-0.1-2.6-0.4-3.9-0.4c-1.7,0-3.5,0.7-5,0.2c-4-1.4-7.4,1-11.1,1.5c-0.7,0.1-0.9,1-0.2,1.6c0.4,0.4,0.8,0.8,1.2,1.2
			c0.9,1.1,1.5,2.7,2.6,3.1c1,0.3,2.4-0.9,3.7-1.3c1.1-0.4,2.2-0.6,3.2-1C190.3,47.9,193.4,46.6,196.5,45.4z M221.4,99.3
			c4.2-7.6,1.1-13.7-2.2-20.3c-0.9,1.5-1.7,2.5-2,3.6c-0.6,2.3-1.7,4.9-1.1,6.9C217.2,92.8,219.4,95.7,221.4,99.3z M190,52
			C190,52,190,52,190,52c-1.6,0-3.1-0.1-4.7,0.1c-3.2,0.4-4,1.3-4.8,4.4c-0.4,1.3,0.1,1.7,1.1,2.2c2.2,1.2,4.4,0.5,6.5-0.1
			c2.4-0.8,4.8-1.8,7-3c0.7-0.4,1-1.5,1.5-2.3c-0.8-0.4-1.6-1.1-2.5-1.2C192.9,51.9,191.5,52,190,52z M219.3,62.7
			c-1.7-0.5-2.9-0.9-4.1-1.3c-3.9-1.2-8.2-0.1-11.8-2.6c-0.2-0.1-0.6-0.1-0.8,0c-0.7,0.1-1.6,0.5-1,1.3c1.7,2.2,3.5,4.4,5.5,6.4
			c0.6,0.6,1.9,0.8,2.8,0.6C213.1,66.4,216.6,65.8,219.3,62.7z M165.3,52.1c0.1,0,0.1,0,0.2,0c-0.4-2.1-0.6-4.2-1.2-6.2
			c-0.9-2.9-2.6-5.3-5-7.2c-0.3-0.2-1.1-0.1-1.5,0c-0.3,0.1-0.5,0.7-0.5,1c0.1,2.1,0.4,4.2,0.5,6.3c0.2,4.1,3,6.2,5.9,8.2
			c1.1,0.8,2,0,1.8-1.4C165.4,52.7,165.4,52.4,165.3,52.1z M234.2,135.6c1.6,0.2,2.1-2.1,3.6-0.9c-0.7,0.9-1.3,2-2.2,2.8
			c-3.6,3.1-6.3,6.8-8.2,11.2c-0.2,0.4,0.1,1,0.1,1.5c0.4-0.1,0.9-0.2,1.1-0.4c2.8-2.7,5.5-5.4,8.2-8.1c1.7-1.7,3.3-3.5,5-5.2
			c-1.8-1.7-3.7-3.4-5.5-5.1c-0.3-0.2-0.7-0.3-1.3-0.5C234.8,132.4,234.5,133.9,234.2,135.6z M246.3,155.8c1.4-5,2.6-9,3.6-13.1
			c0.6-2.3,0.2-3-1.9-4.1c-3.2-1.7-3.8-1.4-4.5,2.1c-0.1,0.7-0.2,1.4-0.2,2.1c0.3,3.4,0.5,6.7,1,10
			C244.4,153.7,245.3,154.4,246.3,155.8z M21,17c2.2-1.1,4.2-1.8,6-3c2.1-1.4,3.9-3.1,4.2-6c0.2-1.4,0.2-2-1-2.6
			C27.3,3.8,27,3.8,25,6.5c-0.6,0.8-1.3,1.5-1.8,2.4c-1,2-2,4-2.8,6.1C20.3,15.4,20.8,16.1,21,17z M59.6,21.9
			c-0.8,1.4-1.7,2.2-1.7,3.1c-0.2,3.5-0.3,7.1-0.2,10.6c0,0.9,1,0.9,1.6,0.3c2.8-2.4,5.2-5.3,6.6-8.8c0.4-1,0.3-2.1,0.5-3.1
			c-1.1,0.2-2.1,0.4-3.1,0.7C60.5,25.7,60.6,25.8,59.6,21.9z M135.8,37.7c-3.5,4.3-2.7,10.7,2,17.1
			C141.2,49.4,140.4,42.2,135.8,37.7z M162.8,39.1c0.7-0.2,1.1-0.2,1.5-0.4c3.2-1.7,6.6-2.5,10.2-2.3c0.6,0,1.6-0.2,1.8-0.7
			c1.4-2.6,2.7-5.2,4-7.9c0.1-0.3,0.1-1-0.1-1.1c-0.5-0.2-1.2-0.4-1.5-0.2c-2,1.6-3.8,3.3-5.7,5c-1,0.9-2,1.9-3.2,2.5
			c-2.3,1-4.8,1.7-7.1,2.6c-0.5,0.2-0.8,0.8-1.3,1.2C161.8,38.3,162.3,38.7,162.8,39.1z M244.9,113.2c0-3.4-4.3-8.6-7.6-9.4
			c-1-0.3-1.8,0.6-1.3,1.8c1.3,3.4,2.7,6.8,4.2,10.1c0.4,0.9,1.3,1.7,2,2.5c0.9-1,1.9-2,2.6-3.2C245,114.5,244.8,113.7,244.9,113.2z
			 M37.2,7.5c-1,0.2-2.9-0.9-3.8,1.1c-1,2.5-1.8,5.1-1.5,7.8c0.2,1.6,1.1,2.1,2.6,1.5c3.3-1.3,6.5-5.9,6.4-9.2
			c0-0.4-0.5-1.1-0.9-1.2C39.3,7.4,38.4,7.5,37.2,7.5z M235.6,97.6c-0.4-1.7-0.8-3.1-1-4.7c-0.2-1.2-0.8-1.6-2-1.7
			c-1.8-0.1-3.5-0.2-5.3-0.4c-0.9,2.2,1.1,3.6,1.7,5.4c0.8,2.5,1.9,5,2.9,7.4c0.2,0.4,0.8,1,1.1,1c0.4,0,1.1-0.6,1.2-1
			C234.8,101.7,235.2,99.6,235.6,97.6z M259.1,143.8c0-3.6-0.4-7.1-2.3-10.1c-2.4-3.9-5.1-7.7-7.7-11.5c-0.1-0.2-0.5-0.4-0.6-0.4
			c-0.3,0.3-0.8,0.6-0.8,0.9c0.1,0.7,0.3,1.3,0.6,2c1.4,3.2,3,6.4,4.2,9.7C253.9,138.1,256.3,141,259.1,143.8z M154.6,57.6
			c0.5-1.6,0.8-3.3,1.4-4.8c1.7-4.3-0.4-8.3-0.5-12.5c0-0.2-1.1-0.7-1.2-0.6c-0.9,1-2,2.1-2.6,3.3c-0.4,0.7-0.1,1.8,0,2.7
			c0.2,1.2,0.9,2.6,0.6,3.7C151.5,52.5,153,55,154.6,57.6z M209.5,79.7c-0.8,0.5-1.5,0.8-2.1,1.4c-0.6,0.6-0.9,1.3-1.4,2
			c0.5-0.2,1-0.5,1.6-0.6c0.1,0,0.6,0.5,0.6,0.8c0,1.1-0.2,2.2-0.3,3.4c-0.2,2.4-0.5,4.8-0.5,7.2c0,1.7,0.6,1.9,2.1,1
			c0.9-0.6,1.9-1.3,2.6-2.2c1.6-2,2.4-4.3,2.6-6.9c-2.9,1.5-3.5,1.4-4.4-1.3C209.8,82.9,209.7,81.4,209.5,79.7z M170.3,53.3
			c-0.2,0.1-0.5,0.1-0.7,0.2c0,1.8-0.1,3.7,0,5.5c0.1,1,0.5,1.9,0.6,2.9c0.1,0.8,0.1,1.7-0.1,2.5c-0.4,2.5-0.9,5-1.3,7.5
			c-0.1,0.4,0.2,0.9,0.4,1.1c0.3,0.2,0.8,0,1.1-0.2c2.9-2.1,4.7-6.7,3.6-10.1C173,59.5,171.6,56.4,170.3,53.3z M188.2,42.1
			c4.1,1.2,7.3,0.1,9.7-3.6c0.9-1.4,2.1-2.6,3-4.1c0.3-0.4,0.2-1.5-0.2-1.8c-0.4-0.3-1.4-0.2-1.9,0.1
			C194.7,35.2,190.2,37.1,188.2,42.1z M189,36.8c-0.4-0.3-0.7-0.9-1.2-0.9c-3.1-0.5-6.3,0.3-8.2,2.5c-1.7,2.1-3.6,3.5-5.9,4.7
			c-0.4,0.2-0.7,0.7-1.1,1c0.5,0.1,1,0.4,1.4,0.4c3.2-0.7,6.3-1.4,9.5-2.2C186.3,41.6,187.5,39.2,189,36.8z M203.6,69.1
			c0.5-0.3,1.2-0.5,1.6-0.9c0.1-0.1-0.3-1-0.7-1.4c-2.3-2.8-4.7-5.6-6.9-8.5c-1.1-1.5-2.1-0.9-3.2-0.3c-1.4,0.7-1.8,1.7-0.9,3.1
			c0.3,0.5,0.5,1.1,0.9,1.4c2.3,2.1,4.7,4.1,7.1,6C201.9,68.9,202.8,68.9,203.6,69.1z M211.6,50.7c-0.9-0.4-1.7-1.3-2.4-1.2
			c-2.7,0.5-5.4,1.3-8.1,2.1c-1.5,0.4-2.4,1.5-2.7,3c-0.1,0.7,0.2,1.6,0.6,2.1c0.3,0.4,1.2,0.6,1.8,0.5c0.8-0.1,1.5-0.9,2.3-0.9
			c3.3-0.1,5.2-2.7,7.7-4.2C211,51.9,211.1,51.5,211.6,50.7z M225.8,94.6c-0.8,1.8-1.5,3.4-2.4,5c-2,3.4-3.7,6.8-4,11.1
			c3.4-1,4.5-3.9,6.4-6c2.8-3.1,2.6-6.2,0.4-9.5C226.1,94.9,225.9,94.7,225.8,94.6z M226.9,107.2c-0.2,0-0.5-0.1-0.7-0.1
			c-0.4,1-0.9,1.9-1.3,2.9c-1.1,3-2.2,6-3.2,9.1c-0.6,1.9-2.2,3.7-1.2,6c2.5-0.1,3.2-2.2,4.3-3.9c0.8-1.1,1.8-2.3,1.9-3.6
			C227.1,114.2,226.9,110.7,226.9,107.2z M80.5,38.7C85.9,40,88.5,37,91,34.1c0.3-0.3,0.5-1.1,0.3-1.5c-0.8-1.8-2.6-2-4.2-2.5
			c-1.4-0.5-1.6,1-2.1,1.7C83.5,33.9,82.2,36.1,80.5,38.7z M242.2,153.1c-1.6,3.6-3,6.7-4.4,9.8c-1.3,2.9-3.4,5.7-2.8,9.7
			c1.4-1.9,3.1-3.2,3.5-4.8c0.5-1.9,1.7-2.7,2.7-4c1.2-1.7,1.8-3.8,2.4-5.7C244.1,156.3,243.2,154.8,242.2,153.1z M245,181.8
			c1.1-4.7-2.5-8-3.6-11.9c-0.1-0.2-0.6-0.5-0.6-0.4c-0.3,0.2-0.7,0.6-0.7,0.8c0.2,2.8,0.3,5.7,0.8,8.4c0.5,2.7,1.5,5.4,2.3,8.1
			c0.1,0.3,0.7,0.7,0.8,0.6c0.3-0.2,0.7-0.6,0.8-0.9C244.8,184.9,244.9,183.4,245,181.8z M229,119.9c2.8-3,4.7-6.3,5.6-10.2
			c0.2-1,0-2.1-1.5-2c-1.8,0.1-2.5-1-2.8-2.6c-0.2-0.8-0.7-1.4-1.2-2.4C227.5,108.6,230.9,114.1,229,119.9z M248.6,166.2
			c-0.4,0.8-0.7,1.5-1.2,2.3c-3,5-3,5,0.3,9.6c0.5,0.7,1.1,1.3,1.6,1.9c0.6,0.8,1.3,0.9,2.2,0.4c1-0.6,0.8-1.2,0.5-2.1
			C250.8,174.4,249.8,170.5,248.6,166.2z M253.1,156.6c-0.4,0.7-0.6,0.9-0.7,1.1c-2.6,3.5-1.9,7.4-1.3,11.3c0.1,0.8,1,1.7,1.7,2.2
			c0.6,0.4,1.8,0.5,2.4,0.2c0.5-0.3,0.8-1.5,0.6-2.2C255,165.1,254.1,161,253.1,156.6z M231.7,120.4c-0.9,0.8-1.4,1.3-1.9,1.8
			c-1.9,1.7-2.5,3.3-1.7,5.4c0.6,1.7,1.3,3.3,2,5c0.5,1.1,1.2,2.1,2.1,3.7C233.8,130.6,233.2,125.8,231.7,120.4z M176.5,38.8
			c-0.9-0.5-1.7-1.4-2.4-1.3c-3,0.6-6,1.5-9,2.2c-0.2,0.1-0.6,0.3-0.6,0.6c-0.1,0.6-0.4,1.4-0.1,1.8c0.3,0.6,1.2,1.6,1.6,1.5
			c3.3-0.6,6.7-1.5,9.5-3.5C175.9,40,176.1,39.5,176.5,38.8z M236.2,112.4c0.2,5.9,1.2,11.5,5,16.2c2.1-4,1.9-5.5-0.8-8.8
			c-0.6-0.8-1-1.7-1.5-2.6C238,115.5,237.1,113.9,236.2,112.4z M219.6,77.6c2.9-1.2,5.7-2.3,8.3-3.6c0.6-0.3,0.9-1,1.4-1.5
			c-0.5-0.3-1-0.7-1.6-0.9c-0.8-0.3-1.6-0.6-2.4-0.7c-5-0.9-6,0-6,5C219.3,76.2,219.3,76.5,219.6,77.6z M66.5,21.2
			c3.2-3.8,6.4-6.8,6.8-11.6c-0.9,0.8-1.5,1.8-2.3,2.7c-0.6,0.7-1.5,1.5-2.3,1.5c-1.3,0-1.8-1.1-1.9-2.4c0-0.6-0.5-1.2-0.7-1.8
			C65.3,13.3,64.6,17.1,66.5,21.2z M200,87c0.7-0.4,1.2-0.6,1.6-0.9c2.2-1.4,2.3-4.1,3.5-6.1c0.9-1.6,0.3-2.2-1.6-2.4
			c-0.8,0-1.7,0-2.5,0c-2.1,0.1-2.5,0.4-2.2,2.5C199,82.4,199.5,84.6,200,87z M126.7,30.6c-0.3-0.5-0.4-0.9-0.7-1.2
			c-1.3-1.1-2.6-2.2-3.9-3.2c-0.2-0.2-0.7-0.1-1-0.2c0.1,1.8-1.2,1.3-2.3,1.4c-0.2,0-0.4,0.7-0.4,1.1c0.1,0.7,0.4,1.3,0.6,2
			c1.5,4.6,1.9,4.7,5.6,1.6C125.3,31.6,126,31.2,126.7,30.6z M235.9,79.9c-2.4-0.6-3.9-1.1-5.4-1.2c-2.1-0.2-4.2-0.2-6.4-0.1
			c-1,0-2.1,0.4-2.1,1.6c0.1,1.1,0.5,2.2,1.9,2.4c0.4,0.1,0.9,0,1.3,0.1C228.8,83,231.8,81.5,235.9,79.9z M183.4,73.7
			c3.4-6.3-0.9-9.7-3.1-14.6C178.1,65.1,181.4,68.7,183.4,73.7z M235.5,156.9c4.3-1.2,4.6-5.1,6.4-7.7c1-1.6,0.5-3.6-0.9-5.4
			C238.9,148,236.3,151.9,235.5,156.9z M157.3,31.2c2.4-0.4,4.1-0.4,5.6-0.9c2.3-0.8,4.5-2,4.9-4.8c0.1-0.7-0.3-1.6-0.5-2.4
			c-0.7,0.2-1.5,0.2-2,0.6C162.8,26,160.3,28.4,157.3,31.2z M49,22c1.4-0.4,2.2-0.6,3-0.9c2-0.8,3.9-1.6,5.9-2.3
			c1.4-0.5,1.6-1.7,1.1-2.7c-0.2-0.4-1.4-0.4-2.1-0.4c-0.7,0-1.4,0.5-2,0.4c-2.5-0.4-3.6,1-4.3,3C50.2,19.8,49.7,20.5,49,22z
			 M256.9,186.5c0.7-1.2,1.6-2.1,1.5-2.7c-0.9-3.1-2-6.2-3.2-9.2c-0.2-0.5-1.1-0.7-1.6-1c-0.3,0.6-0.7,1.1-0.9,1.7
			c-0.1,0.4,0,0.9,0.2,1.2c1.2,2.6,2.3,5.1,2.4,8.1C255.4,185.1,256.1,185.6,256.9,186.5z M257.5,121.6c0,0.1,0,0.3,0,0.4
			c0.3,0,0.6,0,0.8-0.1c0.3-0.1,0.7-0.3,0.7-0.4c0-0.3-0.1-0.8-0.4-1c-0.6-0.4-1.3-0.6-1.9-0.8c-3.2-0.9-6.4-1.9-9.7-2.6
			c-0.5-0.1-1.4,0.8-1.7,1.4c-0.1,0.2,0.6,1.4,1.1,1.5C250,120.7,253.8,121.1,257.5,121.6z M213.2,110.7c4-2.9,5.4-4.5,6.5-7.5
			c0.5-1.3,0.7-2.5-0.4-3.5c-0.3-0.3-1.3-0.3-1.4-0.1C215.8,103,214.3,106.5,213.2,110.7z M80.9,3.1c-0.4,2.7-0.6,4.7,0.5,6.7
			c1.4,2.7,2,2.9,4.1,0.7c1.1-1.1,2.2-2.3,3.7-3.9C84.4,7.9,84.3,7.8,80.9,3.1z M196,70.3c0.5,1.6,0.7,2.1,0.8,2.6
			c0.9,3.4,2.9,4.6,6.1,3.4c0.6-0.2,1.4-0.8,1.5-1.3c0.1-0.5-0.5-1.4-1-1.7C201.3,72.4,199.1,71.6,196,70.3z M63.3,12
			c-1.8,0.8-2.4,2-2.4,3.5c0,2,0,4,0.1,5.9c0,0.6,0.4,1.2,0.6,1.8c0.8-0.4,1.8-0.7,2.4-1.4c0.4-0.4,0.2-1.4,0.2-2
			C64,17.4,63.7,14.9,63.3,12z M149.5,23.3c-0.6-0.4-1.1-0.8-1.6-1.2c-2.2-1.4-2.8-1.3-4.8,0.3c-0.6,0.4-1.1,0.8-1.6,1.3
			c-0.9,0.8-0.7,1.8,0.4,2.2C144.4,26.9,147,26.1,149.5,23.3z M128.7,21.4c-0.3,0.4-0.7,0.7-0.8,1.1c-0.3,0.9-0.4,1.9-0.7,2.9
			c-0.7,2.1,1.1,2.7,2.1,3.7c1.2,1.2,2.4,0.3,3.4-0.4c0.3-0.2,0.6-1.1,0.4-1.3c-1.1-1.8-2.3-3.5-3.5-5.3
			C129.5,21.8,129.1,21.7,128.7,21.4z M125.1,53.4c0.3-0.1,0.6-0.1,0.8-0.3c1.7-1.9,2.2-4.2,2.5-6.6c0-0.3-0.2-0.9-0.5-1
			c-1.3-0.6-4.5,1.5-4.3,2.9c0.2,1.5,0.6,3,1,4.5C124.5,53.1,124.9,53.2,125.1,53.4z M212.8,101.8c1.3-1.7,2.4-3,3.3-4.4
			c1-1.5,0.5-3-0.4-4.4c-0.5-0.8-1.6-0.9-2,0.1C212.7,95.6,211.9,98.3,212.8,101.8z M206.6,85c-2.8,2.3-4.4,4.3-5.2,6.9
			c-0.2,0.7-0.2,1.9,1.2,1.2c1-0.5,2.3-0.9,2.7-1.7C205.9,89.7,206.1,87.8,206.6,85z M208.7,68.9c-1.9,1-3.1,1.7-4.8,2.6
			c3.4,1.2,3.2,4,3.9,7.2C209.6,75.1,208.8,72.3,208.7,68.9z M223,135c0.1,0.3,0.3,0.6,0.4,0.9c1.1-0.3,2.1-0.5,3.2-0.8
			c2-0.7,2-0.7,0.8-3.2C225.9,132.9,224.4,133.9,223,135z M137.6,32.7c-1.5,2-0.8,3.5,1,5.2C138.4,36,140.4,34,137.6,32.7z
			 M197,83.5c-0.2-0.6-0.3-0.8-0.4-1.1c-0.6,0.5-1.2,1-1.7,1.4c0.2,0.1,0.4,0.5,0.5,0.4C196,84.1,196.5,83.7,197,83.5z M132.1,43.7
			c-0.4-0.3-0.7-0.5-0.9-0.6c-0.1,0-0.5,0.4-0.5,0.6c0.1,0.3,0.4,0.6,0.6,0.9C131.5,44.3,131.7,44.1,132.1,43.7z M242.1,166.8
			c0-0.1,0-0.3,0.1-0.4c-0.2,0-0.3,0.1-0.5,0.1c0,0.1,0.1,0.3,0.1,0.4C241.9,167,242,166.9,242.1,166.8z M86.4,21.8
			c-0.1-0.1-0.2-0.2-0.2-0.3c-0.1,0.2-0.2,0.4-0.3,0.6c0,0.1,0.1,0.2,0.2,0.3C86.2,22.2,86.3,22,86.4,21.8z"/>
	</g>
	<g>
		<path d="M1.9,0.6c0.9,4.5,3.6,7.8,7.1,10.8C11.2,9,12.2,6.3,12,3.1c0-0.8,0-1.7,0.1-2.5c0.3,0,0.6,0,0.9,0
			c1.5,2.7,1.3,5.5-0.2,8.1c-1.1,2.1-2.4,4.1-3.5,6c-1.6-1.6-3-3.2-4.6-4.8C2.2,7.2,0.2,4.4,0.1,0.6C0.7,0.6,1.3,0.6,1.9,0.6z"/>
	</g>
	<g>
		<path d="M146.5,14.3c0-0.4-0.1-0.8,0-1.2c0.1-0.3,0.3-0.5,0.5-0.8c0.1,0.2,0.3,0.5,0.3,0.7C147.1,13.5,146.8,13.9,146.5,14.3
			L146.5,14.3z"/>
	</g>
	<g>
		<path d="M260.7,148.3c-0.5,0-0.9-0.4-1-0.9c0-0.3-0.1-0.6-0.2-0.9c-0.1-0.7-0.3-1.5-0.3-2.2c0-4.7-1.2-9-3.7-12.7
			c-1.4-2-3-3.9-4.6-5.8l-0.9-1c-0.6-0.7-1.3-1.5-1.2-2.4c0.1-0.6,0.4-1.1,0.9-1.5c0.7-0.5,1.6-0.4,2.4-0.3c0.2,0,0.3,0,0.4,0.1
			c0.9,0.1,1.8,0.4,2.6,0.7c1.7,0.6,2.8,0.9,4-0.1c0.4-0.3,1.1-0.3,1.4,0.2c0.3,0.4,0.3,1.1-0.2,1.4c-2.2,1.8-4.3,1-5.9,0.4
			c-0.7-0.3-1.4-0.5-2.1-0.6c-0.2,0-0.3,0-0.5-0.1c-0.3,0-0.8-0.1-0.9-0.1c-0.1,0.1-0.1,0.1-0.1,0.1c0,0.1,0.4,0.6,0.6,0.9l0.9,1
			c1.6,1.9,3.3,3.8,4.8,6c2.7,4.1,4.1,8.7,4.1,13.8c0,0.6,0.1,1.2,0.2,1.9c0.1,0.3,0.1,0.7,0.2,1c0.1,0.5-0.3,1.1-0.8,1.1
			C260.8,148.3,260.8,148.3,260.7,148.3z"/>
	</g>
	<g>
		<path d="M165.2,56.4c-3.8,0-8.4-4.1-9-8.2c-0.2-1.5-0.3-2.9-0.3-4.4c0-0.7-0.1-1.4-0.1-2.1c0-0.6-0.2-1.4-0.7-1.8
			c-0.3-0.3-0.9-0.4-1.6-0.3c-0.5,0.1-1.1-0.3-1.1-0.8c-0.1-0.5,0.3-1.1,0.8-1.1c0.8-0.1,1.6-0.1,2.2,0.1c0,0,0.1,0,0.1,0
			c3.2-1.6,3.8-1.7,6.1,0.4l0.2,0.2c4.1,3.7,4.8,8.5,5.5,13.2c0.1,0.8,0.2,1.6,0.4,2.3c0.1,0.6,0,1.2-0.4,1.7
			c-0.3,0.3-0.8,0.8-1.8,0.8C165.3,56.4,165.2,56.4,165.2,56.4z M157.1,39.2c0.4,0.6,0.6,1.4,0.7,2.4c0.1,0.7,0.1,1.4,0.1,2.1
			c0.1,1.4,0.1,2.8,0.3,4.2c0.5,3.3,4.5,6.6,7.1,6.5c0.2,0,0.3-0.1,0.3-0.1c0,0,0,0,0-0.1c-0.1-0.8-0.3-1.6-0.4-2.4
			c-0.7-4.5-1.3-8.8-4.8-12l-0.2-0.2c-0.7-0.6-1.1-1.1-1.4-1.1C158.5,38.5,157.9,38.8,157.1,39.2z"/>
	</g>
	<g>
		<path d="M227,152.7c-0.3,0-0.6-0.1-0.7-0.2c-0.6-0.3-0.8-1-0.7-1.9c0-0.2,0-0.4,0-0.7c-0.1-0.5-0.1-1.2,0.2-1.8
			c0.3-0.6,0.6-1.3,1-2c0.8-1.6,1.6-3.3,2.9-4.8c0.7-0.8,1.2-1.8,1.7-2.9c0.2-0.5,0.5-1.1,0.8-1.6c0.3-0.5,0.9-0.7,1.4-0.4
			c0.5,0.3,0.7,0.9,0.4,1.4c-0.3,0.5-0.5,1-0.7,1.5c-0.6,1.2-1.1,2.4-2.1,3.4c-1.1,1.2-1.8,2.7-2.6,4.2c-0.3,0.7-0.6,1.4-1,2.1
			c0,0.1,0,0.4,0,0.7c0,0.2,0,0.3,0,0.5c1.2-0.8,2.2-1.6,3-2.4c3-2.9,6.1-5.8,9-8.7l3.4-3.3c0.4-0.4,1-0.4,1.4,0
			c0.4,0.4,0.4,1,0,1.4l-3.4,3.3c-2.9,2.9-6,5.8-9,8.7c-1.1,1.1-2.4,2.1-4,3.1C227.5,152.7,227.2,152.7,227,152.7z"/>
	</g>
	<g>
		<path d="M212.7,103.8c-0.2,0-0.5,0-0.7-0.1c-0.7-0.3-1.2-1.2-1.5-2.8c-0.2-1.1-0.3-2.3-0.4-3.4c0-0.5-0.1-0.9-0.1-1.4
			c0-0.5,0.4-1,0.9-1.1c0.6,0,1,0.4,1.1,0.9c0,0.5,0.1,0.9,0.1,1.4c0.1,1.1,0.2,2.2,0.3,3.3c0.1,0.6,0.2,1,0.3,1.2
			c0.3-0.1,0.7-0.3,0.9-0.5l0.2-0.2c1.2-1.4,2.4-2.8,3.1-4.3c0.5-1,0-2.3-1.2-4c-1.3-1.7-2.9-3.8-1.1-6.4c-0.9-2.3,0.3-4.1,1.2-5.6
			c0.3-0.5,0.6-1,0.8-1.5c0.4-1,0.5-1.9,0.6-2.9l0.1-0.7c0-0.4,0-0.9-0.1-1.5c-0.2-1.3-0.4-3.4,1.5-4.3c0.5-0.3,0.7-0.6,0.9-1.4
			c0.2-0.9,0.6-2,2-2.7c2.2-1.1,3.5-3.7,4.3-5.7c0.1-0.3,0.1-0.8,0-1.3c0,0,0-0.1,0-0.1c-0.2-0.1-0.4-0.3-0.6-0.4
			c-0.3-0.3-0.3-0.3-0.6-0.1c-0.9,0.5-1.8,0.8-2.7,1c-1.4,0.4-2.6,0.7-3.4,1.8c-0.3,0.5-1.1,0.9-1.8,0.8c-3.1-0.5-6.4-1-10.7-1.7
			c-0.2,0-1-0.2-1.5-0.8c-1.1-1.3-1.9-1.3-3.8,0.2c-0.4,0.3-1.1,0.3-1.4-0.2c-0.3-0.4-0.3-1.1,0.2-1.4c1.2-0.9,4-3.1,6.5,0.2
			c0,0,0.1,0,0.2,0.1c4.2,0.7,7.4,1.2,10.5,1.7c1.2-1.7,3-2.2,4.5-2.6c0.8-0.2,1.6-0.4,2.2-0.8c1.5-0.9,2.4-0.1,2.9,0.3
			c0.1,0,0.1,0.1,0.2,0.1c0.3,0,0.5,0.1,0.7,0.2c0.2,0.2,0.4,0.5,0.4,0.8c0,0.2,0,0.5,0,0.7c0.1,0.7,0.1,1.4-0.1,2.2
			c-0.8,2.3-2.4,5.4-5.2,6.8c-0.6,0.3-0.7,0.7-0.9,1.5c-0.2,0.8-0.6,2-1.9,2.7c-0.6,0.3-0.6,0.8-0.4,2.3c0.1,0.6,0.2,1.3,0.1,2
			l-0.1,0.6c-0.1,1.1-0.2,2.3-0.8,3.6c-0.3,0.6-0.6,1.1-1,1.7c-1,1.7-1.6,2.7-0.9,4.3c0.2,0.4,0.1,0.8-0.1,1.1
			c-1.2,1.5-0.8,2.4,0.8,4.4c1.7,2.3,2.2,4.3,1.4,6c-0.8,1.8-2.1,3.3-3.4,4.8l-0.2,0.2C214.7,103.2,213.7,103.8,212.7,103.8z"/>
	</g>
	<g>
		<path d="M82.1,41c-0.3,0-0.5,0-0.8,0c-0.7-0.1-1.8-0.2-2.3-1.1c-0.5-0.8-0.2-1.8,0.1-2.5c1.5-3.4,3.2-6.1,5.4-8.5
			c-1.2-0.7-2.4-1.5-3.5-2.4c-0.3-0.2-0.4-0.6-0.4-1c0.1-0.4,0.4-0.7,0.7-0.8c1.6-0.4,2.1-1.3,2-3.6c0-0.5-0.2-0.6-0.8-1
			c-0.4-0.2-0.9-0.5-1.2-1c-0.9-1.1-1.6-2.6,0.1-4.4c0.8-0.9,1.6-1.8,2.4-2.7c1.3-1.5,2.7-3.1,4.2-4.5l0.1-0.1
			c0.2-0.2,0.5-0.4,0.5-0.5l0,0c0,0,0-0.1-0.1-0.6c-0.4-1.2-0.4-2.5-0.5-3.8c0-0.5,0-1-0.1-1.5c0-0.6,0.4-1,0.9-1.1
			c0.5-0.1,1,0.4,1.1,0.9c0,0.5,0.1,1.1,0.1,1.6c0,1.2,0.1,2.3,0.4,3.3c0.5,1.7,0,2.3-1,3.2l-0.1,0.1c-1.4,1.3-2.7,2.7-4,4.3
			c-0.8,0.9-1.6,1.9-2.5,2.8c-0.6,0.7-0.7,0.9,0,1.8c0.1,0.2,0.4,0.3,0.7,0.5c0.7,0.4,1.7,1,1.8,2.6c0.1,1.7-0.1,3.7-1.8,4.9
			c2.2,1.5,4.5,2.7,7,3.7c0.9,0.3,1.7,1.2,2.2,2.3c0.4,0.9,0.4,1.8,0.1,2.4C91.4,38.1,86.5,41,82.1,41z M80.9,38.8
			c0.1,0,0.3,0.1,0.7,0.1c3.6,0.3,8.3-2.3,9.7-5.4c0-0.1,0-0.4-0.2-0.9c-0.2-0.6-0.6-1-1-1.2c-1.2-0.5-2.4-1-3.6-1.6c0,0,0,0,0,0
			c-2.2,2.3-3.9,5-5.4,8.3C80.9,38.5,80.9,38.7,80.9,38.8z"/>
	</g>
	<g>
		<path d="M170.1,75.3c-0.5,0-0.9-0.1-1.2-0.3c-0.5-0.2-1.5-0.7-1.5-1.6c-0.1-0.8-0.1-1.6,0-2.4c0.2-1,0.3-2,0.5-3
			c0.3-1.4,0.5-2.9,0.7-4.3l0-0.3c0.2-1.1,0.1-1.4-0.4-1.7c-0.5-0.3-0.6-0.9-0.4-1.4c0.3-0.5,0.9-0.6,1.4-0.4c1.7,1,1.5,2.7,1.3,3.7
			l0,0.3c-0.2,1.5-0.5,3-0.7,4.4c-0.2,1-0.4,1.9-0.5,2.9c-0.1,0.5-0.1,1,0,1.7c0.2,0.1,0.5,0.2,0.7,0.3c2.5-2.2,3.9-5.2,4.6-9.3
			c-0.3-0.8-1.3-3.5-1.5-4.2c-1.2-1.3-1.7-2.8-2.2-4.3c-0.5-1.6-1-3.1-2.2-4.1c-0.7-0.6-0.8-1.6-0.8-2.5c0-0.4,0-0.8-0.1-1
			c-0.1-0.5-0.3-1.1-0.5-1.7c-0.1-0.3-0.2-0.5-0.3-0.8c-0.2-0.5,0.1-1.1,0.6-1.3c0.5-0.2,1.1,0.1,1.3,0.6c0.1,0.3,0.2,0.5,0.3,0.8
			c0.2,0.6,0.4,1.2,0.6,1.9c0.1,0.5,0.1,0.9,0.1,1.4c0,0.3,0,0.8,0.1,1c1.7,1.4,2.3,3.3,2.8,5c0.4,1.4,0.9,2.7,1.8,3.7
			c0.2,0.2,2.1,5.1,2,5.6c-0.8,4.8-2.5,8.3-5.5,10.9C170.8,75.2,170.4,75.3,170.1,75.3z"/>
	</g>
	<g>
		<path d="M213.2,112.8c-0.4,0-0.9-0.3-1.1-0.4c-0.4-0.3-1.2-0.8-1-1.6c0.2-0.5,0.4-1,0.6-1.5c0.2-0.5,0.5-1,0.6-1.5
			c0.2-0.8,0.4-1.4,0.7-2.1c0.5-1.1,0.8-2,0.6-3c-0.1-0.5,0.2-1.1,0.7-1.2c0.5-0.1,1.1,0.2,1.2,0.7c0.4,1.7-0.2,3-0.7,4.3
			c-0.3,0.6-0.5,1.2-0.6,1.7c-0.1,0.7-0.4,1.3-0.7,1.9c-0.1,0.1-0.1,0.2-0.2,0.4c0.5-0.4,1.1-0.7,1.6-1c1.4-0.9,2.8-1.7,3.4-3.1
			c1.3-3.2,2.7-6.2,4.2-9.1l0.2-0.4c1.3-2.4,2.6-4.9,0.5-7.5c-0.6-0.7-0.6-1.5-0.7-2.2c-0.1-0.7-0.1-1.2-0.5-1.5
			c-0.2-0.2-0.4-0.4-0.4-0.7c0-0.3,0.1-0.6,0.3-0.8c0.1-0.1,0.2-0.3,0.3-0.4c0.4-0.5,1-1.2,1.8-1.1c1.5,0.2,3.1,0.3,4.6,0.3
			c2.9,0.1,6,0.2,8.9,1.3c0.2,0.1,0.5,0.1,0.8,0.1c0.7,0,1.6,0.1,2.5,0.8c0.6,0.4,1.2,1,1.2,1.8c0,0.7-0.5,1.2-0.8,1.5
			c-1,0.9-1.9,1.5-2.8,1.9c-2.6,1.1-6.9,1.5-10.1,0.4c-1-0.4-1.1-0.2-1.5,0.2c-0.2,0.2-0.4,0.3-0.6,0.3c0.3,2.4-0.9,4.6-1.8,6.3
			l-0.2,0.4c-1.5,2.9-2.9,5.8-4.1,8.9c-0.8,2.1-2.6,3.1-4.2,4.1c-0.8,0.5-1.5,0.9-2.1,1.4C213.6,112.7,213.4,112.8,213.2,112.8z
			 M227.5,88.7c0.5,0,1,0.1,1.5,0.3c2.3,0.8,6.1,0.7,8.7-0.4c0.7-0.3,1.4-0.8,2.3-1.5c0,0,0,0,0,0c-0.1-0.1-0.2-0.1-0.3-0.2
			c-0.4-0.3-0.8-0.3-1.4-0.4c-0.4,0-0.9-0.1-1.4-0.3c-2.6-1-5.4-1.1-8.3-1.2c-1.5-0.1-3-0.1-4.5-0.3c0,0.1-0.1,0.1-0.1,0.2
			c0.4,0.7,0.5,1.5,0.5,2.1c0,0.5,0.1,0.9,0.2,1.1c0.4,0.5,0.7,0.9,0.9,1.4C226.3,88.9,226.9,88.7,227.5,88.7z"/>
	</g>
	<g>
		<path d="M196.1,43.5c-0.2,0-0.4-0.1-0.6-0.2c-0.4-0.3-0.5-1-0.2-1.4c0.4-0.5,0.8-1,1.2-1.5c0.9-1.2,1.8-2.4,2.7-3.6
			c0.8-1.1,1.5-2.1,2-3.2c0.1-0.2,0-0.8-0.2-0.9c-0.1,0-0.7,0-0.9,0.1c-0.9,0.5-1.8,0.9-2.7,1.3c-3.3,1.5-6.4,3-8.1,6.3
			c-0.4,0.8-1,1.3-1.6,1.8c-0.2,0.2-0.5,0.4-0.7,0.6c-0.4,0.4-1,0.4-1.4,0c-0.4-0.4-0.4-1,0-1.4c0.2-0.2,0.5-0.5,0.8-0.7
			c0.5-0.4,0.9-0.8,1.1-1.2c2-3.9,5.6-5.6,9-7.2c0.9-0.4,1.8-0.8,2.6-1.3c0.8-0.4,2.4-0.6,3.2,0.2c0.8,0.7,1.1,2.2,0.7,3.2
			c-0.5,1.3-1.4,2.5-2.2,3.6c-0.9,1.3-1.8,2.5-2.7,3.7c-0.4,0.5-0.8,1-1.1,1.5C196.7,43.4,196.4,43.5,196.1,43.5z"/>
	</g>
	<g>
		<path d="M176.9,38.4c-0.4,0-0.9-0.3-1-0.7c-0.4-1.7,0.4-2.9,1.1-3.8c0.3-0.4,0.6-0.8,0.7-1.1c0.4-0.9,0.8-1.7,1.2-2.5
			c0.5-0.9,0.9-1.8,1.3-2.7c0.1-0.3,0-1-0.1-1.3c-0.3,0-0.9,0.1-1.3,0.4c-1.5,1-3.2,2.2-4.5,3.7c-3.2,3.5-7.3,5.7-12.6,6.7
			c-0.1,0-0.3,0.2-0.4,0.3c-0.2,0.1-0.3,0.3-0.5,0.4c-0.5,0.3-1.1,0.2-1.4-0.3c-0.3-0.5-0.2-1.1,0.3-1.4c0.1-0.1,0.2-0.2,0.3-0.2
			c0.3-0.3,0.8-0.6,1.3-0.7c4.8-0.9,8.5-2.9,11.5-6.1c1.5-1.6,3.3-2.9,4.9-4c0.9-0.6,2.6-1,3.6-0.4c1,0.7,1.1,2.6,0.8,3.6
			c-0.4,1-0.9,2-1.4,2.9c-0.4,0.8-0.8,1.5-1.1,2.3c-0.2,0.6-0.6,1.1-0.9,1.5c-0.6,0.8-1,1.4-0.8,2.1c0.1,0.5-0.2,1.1-0.7,1.2
			C177,38.4,177,38.4,176.9,38.4z"/>
	</g>
	<g>
		<path d="M33.2,20.4c-0.4,0-0.7-0.1-1.1-0.2c-1-0.4-1.4-1.5-1.6-2.2c-0.3-1-0.5-2.1-0.7-3.1c-0.1-0.4-0.1-0.9-0.2-1.3
			c-0.1-0.5,0.2-1.1,0.8-1.2c0.5-0.1,1.1,0.2,1.2,0.8c0.1,0.4,0.2,0.9,0.2,1.4c0.2,1,0.3,1.9,0.6,2.8c0.2,0.5,0.4,0.9,0.6,1
			c0.2,0.1,0.6,0.1,1.5-0.3c4.5-1.8,5.7-5.6,6.6-10.4c-0.3-0.4-0.5-1-0.4-1.6c0.2-0.8,0.9-1.2,1.4-1.5c0.1-0.1,0.3-0.2,0.4-0.2
			c0.2-0.5,0.8-0.7,1.2-0.5c0.5,0.2,0.8,0.8,0.6,1.3c-0.3,0.7-0.9,1-1.4,1.2c-0.1,0-0.2,0.1-0.2,0.1c0,0.1,0.1,0.1,0.2,0.2
			C43,7,43.1,7.3,43.1,7.6c-0.8,4.2-1.9,9.9-7.9,12.3C34.6,20.2,33.9,20.4,33.2,20.4z"/>
	</g>
	<g>
		<path d="M243.7,190.3C243.7,190.3,243.7,190.3,243.7,190.3c-0.9,0-1.5-0.8-1.8-1.4c-1.3-2.3-2-4.5-2.3-6.8c-0.3-2.5-0.7-5-1.1-7.5
			c-0.2-1.1-0.4-2.1-0.5-3.2c-0.1-0.5,0.3-1.1,0.8-1.1c0.5-0.1,1.1,0.3,1.1,0.8c0.2,1.1,0.3,2.1,0.5,3.2c0.4,2.5,0.8,5,1.2,7.6
			c0.2,2,0.9,4,2.1,6c0,0,0,0.1,0.1,0.1c0.1-0.1,0.1-0.2,0.1-0.2c0.1-0.1,0.2-0.2,0.2-0.4c0.2-0.3,0.5-0.6,0.7-0.8
			c0.1-0.1,0.2-0.1,0.2-0.2c0.4-0.4,1-0.4,1.4,0s0.4,1,0,1.4c-0.1,0.1-0.2,0.2-0.3,0.3c-0.2,0.2-0.3,0.3-0.4,0.4
			c-0.1,0.1-0.1,0.2-0.2,0.3C245.2,189.5,244.6,190.3,243.7,190.3z"/>
	</g>
	<g>
		<path d="M107.6,49.1c-0.4,0-0.9-0.1-1.2-0.3c-0.7-0.4-1.1-1.2-1-2.1c0.1-0.8-0.2-1.7-0.4-2.6c-0.4-1.4-0.9-2.9-0.2-4.5
			c-0.4-0.9-0.4-1.8-0.4-2.6c0-1.3,0-2.1-0.8-2.8c-0.9-0.8-0.9-2.2-0.8-3.6c0-0.4,0-0.8,0-1.2c0-0.4,0-0.9,0-1.3c0-0.5,0.1-1,0-1.3
			c-0.1-0.1-0.1-0.3-0.2-0.4c-0.1-0.2-0.2-0.6-0.4-0.7c0,0-0.2-0.1-0.7,0.2c-1.2,0.5-2.6,0.4-3.9,0.3C97,26,96.5,26,96,26
			c-0.6,0-1-0.4-1-1s0.4-1,1-1c0.6,0,1.1,0.1,1.7,0.1c1.1,0.1,2.2,0.2,3-0.1c0.9-0.4,1.6-0.4,2.2-0.2c0.9,0.4,1.2,1.2,1.5,1.8
			c0,0.1,0.1,0.2,0.1,0.3c0.4,0.8,0.3,1.6,0.2,2.4c0,0.4-0.1,0.7,0,1c0,0.4,0,0.9,0,1.4c0,0.7,0,1.9,0.2,2.1c1.4,1.4,1.4,3,1.4,4.2
			c0,0.8,0,1.5,0.3,2.1c0.2,0.3,0.2,0.7,0,1c-0.6,1-0.3,2,0.1,3.5c0.3,1,0.7,2.2,0.5,3.5c0.1,0.1,0.5,0.2,0.9-0.1
			c2.1-1.5,3.1-3.7,4-5.9c0.3-0.8,0.8-1.4,1.2-2c0.2-0.2,0.4-0.5,0.5-0.7c0.3-0.5,0.9-0.6,1.4-0.3c0.5,0.3,0.6,0.9,0.3,1.4
			c-0.2,0.3-0.4,0.6-0.6,0.8c-0.4,0.5-0.8,1-1,1.5c-0.9,2.5-2.2,5.1-4.7,6.9C108.9,48.9,108.2,49.1,107.6,49.1z"/>
	</g>
	<g>
		<path d="M123.9,56.1c-0.2,0-0.3,0-0.5-0.1c-0.3-0.1-0.4-0.4-0.5-0.7l-1.4-8.3c-0.1-0.5,0.3-1.1,0.8-1.1c0.5-0.1,1.1,0.3,1.1,0.8
			l1.1,7c2.8-1.6,3.1-4.4,3.4-7.4c0-0.3,0.1-0.6,0.1-0.9c0.3-2.2,0.7-4.1,3.5-4.7c0.5-0.1,1.1,0.2,1.2,0.8c0.1,0.5-0.2,1.1-0.8,1.2
			c-1.4,0.3-1.7,0.9-2,3l-0.1,0.9c-0.4,3.4-0.9,7.6-5.8,9.5C124.1,56.1,124,56.1,123.9,56.1z"/>
	</g>
	<g>
		<path d="M259.6,146.6c-2.1,0-3.1-1.6-3.9-2.7c-0.2-0.3-0.3-0.5-0.5-0.7c-1.9-2.5-1.9-2.5-4.7-3.4l-0.4-0.1c-3-0.9-5.7-2.1-7.9-3.5
			c-2-1.3-3.9-2.9-5.7-4.5c-0.6-0.5-1.2-1-1.7-1.5c-0.9-0.8-1.4-1.5-1.6-2.2c-0.6-2.8-1.1-5.6-1.6-8.3l-0.1-0.7
			c-0.4-2.1,0.5-3.6,2.4-4.1c0.5-0.2,1.1,0.1,1.2,0.7s-0.1,1.1-0.7,1.2c-0.8,0.2-1.2,0.6-1,1.9l0.1,0.7c0.5,2.7,1,5.5,1.6,8.3
			c0,0.1,0.2,0.5,0.9,1.2c0.6,0.5,1.2,1,1.8,1.5c1.7,1.5,3.5,3.1,5.4,4.3c2.1,1.3,4.6,2.4,7.4,3.3l0.4,0.1c3.3,1,3.5,1.2,5.7,4.1
			c0.2,0.3,0.4,0.6,0.6,0.9c0.8,1.2,1.3,1.8,2.3,1.8c0.5,0,1,0.4,1.1,0.9c0,0.6-0.4,1-0.9,1.1C259.8,146.6,259.7,146.6,259.6,146.6z
			"/>
	</g>
	<g>
		<path d="M262.3,122.8c-0.5,0-1-0.1-1.5-0.3c-0.8-0.3-1.3-0.9-1.8-1.5c-0.1-0.2-0.3-0.3-0.4-0.5c-0.3,0-0.6,0-0.9-0.2
			c-2.6-1.5-5.5-2-8.2-2.4c-4.1-0.6-4.7-1.3-4.7-5.3c0-1.3-0.3-2.3-1.1-3.2c-2.3-3-4.5-5.1-7.6-6.1c-0.5-0.2-0.8-0.7-0.7-1.2
			c0.2-0.5,0.7-0.8,1.2-0.7c3.9,1.1,6.5,3.9,8.7,6.8c1,1.3,1.5,2.8,1.5,4.5c0,2.8,0,2.8,3,3.3c2.9,0.4,5.9,1,8.7,2.6
			c0.3,0,0.8-0.1,1.2,0.3c0.3,0.3,0.6,0.6,0.9,0.9c0.4,0.4,0.7,0.8,1.1,1c0.4,0.2,1,0.1,1.6,0.1c0.3,0,0.7-0.1,1-0.1
			c0.6,0,1,0.4,1,1s-0.4,1-1,1c-0.3,0-0.6,0-0.9,0C263,122.7,262.6,122.8,262.3,122.8z"/>
	</g>
	<g>
		<path d="M261.8,202.2c-0.1,0-0.2,0-0.3,0c-1.1-0.2-2.1-0.5-2.9-1c-5.4-3.1-8.8-6.6-10.7-11.2c-0.3-0.6-0.2-1.3-0.2-1.9
			c0-0.1,0-0.3,0-0.4c-0.5-0.5-0.9-0.9-1.3-1.3c-1.3-1.4-2.4-4.1-1.3-6.9c0.3-0.7,0.3-1.9-0.6-2.8c-1.9-1.9-2.1-4.4-2-6.7
			c0-0.6,0.5-1,1-1c0.6,0,1,0.5,1,1c-0.1,2.3,0.2,3.9,1.4,5.3c1.3,1.3,1.6,3.2,1,4.9c-0.8,2,0,3.9,0.9,4.9c1.6,1.8,4.2,4.2,7.2,5.3
			c3.9,1.4,5.9,4.4,7.8,7.2c0.2,0.3,0.5,0.7,0.7,1c0.3,0.5,0.4,1.1,0.5,1.5c0,0.2,0.1,0.3,0.1,0.5c0.1,0.3,0,0.5-0.1,0.8
			c-0.1,0.2-0.4,0.4-0.6,0.5c-0.2,0-0.3,0.1-0.5,0.1C262.7,202.1,262.3,202.2,261.8,202.2z M249.8,189.5c1.8,4,4.8,7.2,9.7,10
			c0.6,0.3,1.4,0.6,2.2,0.7c0.1,0,0.2,0,0.4-0.1c0-0.2-0.1-0.4-0.1-0.4c-0.2-0.3-0.5-0.7-0.7-1c-1.8-2.7-3.5-5.2-6.9-6.5
			C252.8,191.6,251.2,190.6,249.8,189.5z"/>
	</g>
	<g>
		<path d="M243.2,169.7c-0.1,0-0.1,0-0.2,0c-0.5-0.1-0.9-0.6-0.8-1.2c0-0.2,0.1-0.5,0.2-0.7c0.1-0.4,0.2-0.8,0.2-1.2l0-0.5
			c-0.1-3.8-0.3-8,3.7-11c0-0.1,0-0.2,0.1-0.4c0-0.3,0.1-0.6,0.2-1c1.3-3.6,2.2-7.4,3-11c0.3-1.3,0.6-2.5,0.8-3.8
			c0.1-0.5,0.7-0.9,1.2-0.7c0.5,0.1,0.9,0.7,0.7,1.2c-0.3,1.3-0.6,2.5-0.8,3.8c-0.8,3.7-1.7,7.6-3,11.3c0,0.1-0.1,0.3-0.1,0.5
			c-0.1,0.5-0.2,1.2-0.7,1.6c-3.3,2.3-3.1,5.6-3,9.4l0,0.5c0,0.6-0.1,1.2-0.3,1.8c-0.1,0.2-0.1,0.4-0.1,0.6
			C244.1,169.4,243.7,169.7,243.2,169.7z"/>
	</g>
	<g>
		<path d="M261.6,188.1c-0.2,0-0.3,0-0.4-0.1c-0.2-0.1-0.3-0.1-0.5-0.2c-0.7-0.3-1.5-0.6-1.7-1.4c-0.3-1.8-0.9-3.6-1.6-5.5
			c-1.2-3.3-2.5-6.8-1.4-10.8c0-0.1,0-0.2,0-0.4c-0.3-1.2-0.5-2.4-0.8-3.7c-0.5-2.1-0.9-4.1-1.3-6.2c-0.1-0.6-0.3-1.3-0.5-1.9
			c-0.5-1.9-1-3.8-0.7-5.7c0.3-1.9,1.3-3.7,2.2-5.4c0.4-0.7,0.8-1.4,1.1-2.1c0.2-0.5,0.8-0.7,1.3-0.5c0.5,0.2,0.7,0.8,0.5,1.3
			c-0.4,0.8-0.8,1.5-1.2,2.2c-0.9,1.6-1.7,3.2-2,4.8c-0.2,1.5,0.2,3.1,0.6,4.9c0.2,0.7,0.3,1.4,0.5,2c0.4,2.1,0.9,4.1,1.3,6.2
			c0.3,1.2,0.5,2.5,0.8,3.7c0.1,0.5,0.1,0.9,0,1.3c-0.9,3.4,0.2,6.4,1.4,9.5c0.7,1.8,1.3,3.6,1.7,5.5c0.1,0.1,0.3,0.1,0.4,0.2
			c0.3,0.1,0.5,0.2,0.7,0.3c0.5,0.2,0.7,0.8,0.4,1.3C262.3,187.9,262,188.1,261.6,188.1z"/>
	</g>
	<g>
		<path d="M116.7,40.6c-0.9,0-1.6-0.7-2.1-1.3c-0.3-0.4-0.6-0.8-0.9-1.2c-0.3-0.4-0.8-1.2-1-1.3c-2.8-0.3-3-2.4-3.2-3.6
			c0-0.3-0.1-0.5-0.1-0.7c-0.3-1.1-0.5-2.2-0.8-3.3c-0.6-2.7-1.1-5.2-2.2-7.6c-0.3-0.6,0.1-1.2,0.3-1.5c0-0.1,0.1-0.1,0.1-0.2
			c0.2-0.5,0.8-0.7,1.3-0.4c0.5,0.2,0.7,0.8,0.4,1.3c-0.1,0.1-0.1,0.2-0.2,0.4c1.1,2.5,1.7,5.1,2.2,7.7c0.2,1.1,0.5,2.2,0.7,3.3
			c0.1,0.3,0.1,0.6,0.2,1c0.2,1.3,0.3,1.7,1.4,1.9c1.1,0.1,1.8,1.1,2.5,2.1c0.3,0.4,0.5,0.8,0.8,1c0.3,0.3,0.5,0.5,0.6,0.5
			c0.1-0.1,0.2-0.3,0.3-0.6c0.8-2.5,0.7-4.3-0.3-6.1c-1.4-2.6-1.1-3.2,0.1-5.6l0.3-0.5c0.3-0.5,0.9-0.7,1.4-0.4
			c0.5,0.3,0.7,0.9,0.4,1.4l-0.3,0.5c-1,1.9-1,1.9-0.1,3.7c1.6,3,1.1,5.7,0.4,7.7c-0.1,0.4-0.6,1.8-1.7,2
			C116.9,40.6,116.8,40.6,116.7,40.6z"/>
	</g>
	<g>
		<path d="M54.1,40.9c-0.4,0-0.9-0.3-1-0.8c-0.1-0.5,0.2-1.1,0.7-1.2c0.4-0.1,0.8-0.5,1.3-1c0.7-0.8,1.7-1.8,3.3-1.7
			c0.4-0.4,0.9-0.8,1.3-1.3c2.8-2.7,5.4-5.2,6.2-9c0.1-0.3,0.2-0.5,0.5-0.7c0.4-0.2,0.5-0.4,0.2-1.4c-0.2-0.8-0.6-2.1,0.4-3.2
			c1-1,1.9-2.2,2.8-3.2c0.5-0.6,1-1.2,1.5-1.8c1.6-1.9,2.2-4.7,1.5-7.7c-0.2-0.8-0.2-1.7,0-2.9c0.2-1,0.4-2.1,0.6-3.1
			c0.1-0.4,0.2-0.8,0.3-1.2c0.1-0.5,0.6-0.9,1.2-0.8c0.5,0.1,0.9,0.6,0.8,1.2c-0.1,0.4-0.2,0.8-0.3,1.3c-0.2,1-0.4,2-0.6,3
			c-0.1,0.9-0.1,1.6,0,2.2c0.8,3.6,0.1,7-1.9,9.4c-0.5,0.6-1,1.2-1.5,1.8c-0.9,1.1-1.8,2.3-2.8,3.3c-0.2,0.2-0.2,0.5,0,1.3
			c0.2,0.8,0.6,2.3-0.7,3.4c-1,4.2-3.9,7-6.7,9.6c-0.5,0.5-1.1,1.1-1.6,1.6c-0.3,0.3-0.6,0.4-1,0.3c-0.8-0.2-1.1,0.1-2,1
			c-0.6,0.6-1.2,1.3-2.3,1.6C54.2,40.9,54.1,40.9,54.1,40.9z"/>
	</g>
	<g>
		<path d="M57.1,38.4c-0.5,0-1-0.4-1-1c0-0.9-0.1-1.8-0.1-2.7c-0.1-2-0.2-4.1-0.3-6.2c-0.3-3.3,0.9-6,3.4-8.1
			c0.4-0.4,1.1-0.3,1.4,0.1c0.4,0.4,0.3,1.1-0.1,1.4c-2,1.7-2.9,3.8-2.7,6.4c0.2,2.1,0.3,4.2,0.3,6.3c0,0.9,0.1,1.8,0.1,2.7
			C58.1,37.9,57.7,38.3,57.1,38.4C57.1,38.4,57.1,38.4,57.1,38.4z"/>
	</g>
	<g>
		<path d="M220.7,127.8c-0.3,0-0.5-0.1-0.8-0.3c-0.8-0.7-1.4-1.7-1.6-2.6c-0.2-0.7,0-1.3,0.2-1.9c0.1-0.2,0.1-0.4,0.2-0.6
			c0.3-1.9,1.1-3.6,1.9-5.2c0.6-1.3,1.2-2.6,1.5-3.9c0.1-0.5,0.1-1.1,0-1.7c0-0.3,0-0.7,0-1c0-0.6,0.4-1,1-1s1,0.4,1,1
			c0,0.3,0,0.6,0,0.9c0,0.8,0.1,1.6-0.1,2.3c-0.4,1.5-1,2.9-1.7,4.2c-0.7,1.6-1.4,3.1-1.7,4.7c0,0.3-0.1,0.5-0.2,0.8
			c-0.1,0.3-0.2,0.7-0.2,0.9c0.1,0.4,0.3,0.8,0.6,1.2c0.2-0.1,0.5-0.3,0.6-0.4c0.6-0.6,1.2-1.3,1.8-2c0.2-0.3,0.5-0.6,0.7-0.9
			c0.4-0.4,1-0.5,1.4-0.1c0.4,0.4,0.5,1,0.1,1.4c-0.2,0.3-0.5,0.6-0.7,0.9c-0.6,0.7-1.2,1.5-1.9,2.2
			C222.9,126.7,221.7,127.8,220.7,127.8z"/>
	</g>
	<g>
		<path d="M183.2,85.1c-0.5,0-1-0.1-1.6-0.1c-0.4,0-0.9-0.1-1.3-0.1c-0.3,0-0.6-0.2-0.8-0.5c-0.2-0.3-0.2-0.7,0-1
			c0.3-0.7,0.6-1.3,0.9-2c0.6-1.5,1.2-2.9,2.3-4c1.2-1.3,1.4-2.8,1.5-4.6c0.1-0.8,0.1-1.5,0.3-2.3c0.5-2.4,0.5-2.4-1.7-6.2l-0.2-0.4
			c-0.4-0.7-0.6-1.5-0.8-2.3c-0.1-0.3-0.1-0.6-0.2-0.9c-0.2-0.5,0.2-1.1,0.7-1.2c0.5-0.2,1.1,0.2,1.2,0.7c0.1,0.3,0.2,0.7,0.2,1
			c0.1,0.6,0.3,1.3,0.5,1.7l0.2,0.4c2.4,4.1,2.6,4.5,2,7.6c-0.1,0.7-0.2,1.3-0.3,2.1c-0.2,1.8-0.3,3.9-2,5.7c-0.8,0.8-1.3,2-1.9,3.4
			c-0.1,0.3-0.2,0.5-0.3,0.8c0.8,0.1,1.5,0.2,2,0c5.4-1.2,8.5-5.2,10.9-8.9c0-0.1,0-0.5-0.1-0.9c-0.3-0.8-0.5-1.7-0.8-2.5
			c-1.2-3.5-2.3-7.1-3-10.9c-0.1-0.5,0.3-1.1,0.8-1.2c0.5-0.1,1.1,0.3,1.2,0.8c0.7,3.6,1.8,7.2,3,10.6c0.3,0.8,0.6,1.7,0.8,2.6
			c0.1,0.3,0.5,1.6-0.1,2.5c-2.4,3.9-6,8.5-12.2,9.8C184,85,183.6,85.1,183.2,85.1z"/>
	</g>
	<g>
		<path d="M252.2,138.9C252.2,138.9,252.2,138.9,252.2,138.9c-0.6,0-1-0.5-1-1c0-2-0.8-3.8-1.6-5.6c-1.1-2.5-2.2-5.2-3.5-8.6
			c-0.3-0.9-0.6-1.8,0-2.6c0.6-0.8,1.8-0.9,3.5-0.9c0.6,0,1,0.4,1,1s-0.4,1-1,1l0,0c0,0,0,0,0,0c-0.9,0-1.5,0-1.8,0.1
			c0,0.1,0.1,0.3,0.2,0.7c1.2,3.4,2.3,6.1,3.4,8.5c0.9,1.9,1.8,4,1.8,6.4C253.2,138.5,252.7,138.9,252.2,138.9z"/>
	</g>
	<g>
		<path d="M234.2,174.4c-0.4,0-0.8-0.3-0.9-0.7c0-0.1-0.1-0.2-0.1-0.3c-0.2-0.4-0.4-0.9-0.3-1.5c0.1-0.5,0.2-0.9,0.3-1.4
			c0.4-1.8,0.8-3.8,1.5-5.6c0.4-1.1,1-2.2,1.6-3.2c0.7-1.2,1.3-2.4,1.7-3.6c0.7-2.5,1.6-4.5,2.8-6.3c0.3-0.5,0.9-0.6,1.4-0.3
			c0.5,0.3,0.6,0.9,0.3,1.4c-1.1,1.6-1.9,3.3-2.5,5.7c-0.4,1.5-1.1,2.8-1.8,4.1c-0.6,1-1.1,1.9-1.4,2.9c-0.6,1.7-1,3.5-1.4,5.3
			c-0.1,0.4-0.2,0.8-0.3,1.2c0.6-0.7,1.2-1.3,1.9-1.9c1.4-1.2,2.5-2.3,2.6-4.2c0-1,1.1-1.5,2-2c0.3-0.2,0.6-0.3,0.9-0.5
			c0.5-0.3,1.1-0.2,1.4,0.3c0.3,0.5,0.2,1.1-0.3,1.4c-0.3,0.2-0.7,0.4-1,0.6c-0.3,0.2-0.8,0.4-1,0.6c-0.2,2.6-1.8,4.1-3.3,5.4
			c-0.7,0.6-1.3,1.2-1.8,1.8c-0.4,0.5-1,0.6-1.4,0.7c-0.1,0-0.2,0-0.3,0.1C234.4,174.4,234.3,174.4,234.2,174.4z"/>
	</g>
	<g>
		<path d="M118.6,27c-0.5,0-0.9-0.1-1.3-0.4c-0.8-0.5-1.4-1.2-2-1.8c-0.3-0.3-0.5-0.6-0.8-0.8c0,0-0.1,0-0.1,0
			c-0.2,0.1-0.4,0.2-0.5,0.2c-0.5,0.2-1.1-0.1-1.3-0.6c-0.2-0.5,0.1-1.1,0.6-1.3c0.1,0,0.2-0.1,0.4-0.1c0.5-0.2,1.3-0.6,1.9,0
			c0.5,0.4,0.9,0.9,1.3,1.3c0.6,0.6,1.1,1.1,1.7,1.5c0.1,0,0.2,0.1,0.4,0c0.1,0,0.1-0.1,0.2-0.2c0.1-0.5,0.1-1,0-1.7
			c-0.2-1.1-0.4-2.2-0.6-3.4c-0.4-2.1-0.8-4.4-1-6.6c-0.1-1-0.6-1.7-1.3-2.4c-0.5-0.6-1-1.2-1.3-1.9c-0.1-0.2-0.1-0.3-0.8-0.2
			c-0.3,0-0.6,0-0.9,0c-0.5-0.1-0.9-0.1-1.4-0.2c-1.3-0.1-2.7-0.3-3.9-0.8l-0.4-0.1c-2-0.7-4.6-1.7-4.6-5c-0.1,0-0.1-0.1-0.2-0.1
			c-0.2-0.1-0.4-0.2-0.6-0.3c-0.5-0.3-0.6-0.9-0.3-1.4s0.9-0.6,1.4-0.3c0.1,0.1,0.3,0.1,0.4,0.2c0.6,0.3,1.3,0.7,1.3,1.5
			c-0.1,2.1,1.2,2.7,3.3,3.5l0.4,0.1c1,0.4,2.2,0.5,3.4,0.7c0.5,0.1,1,0.1,1.5,0.2c0.2,0,0.4,0,0.6,0c0.7,0,2.1-0.1,2.7,1.4
			c0.2,0.5,0.6,1,1,1.5c0.7,0.9,1.6,1.9,1.7,3.5c0.2,2.1,0.6,4.3,1,6.4c0.2,1.1,0.4,2.3,0.6,3.4c0.2,1,0.1,1.8,0,2.5
			c-0.2,0.8-0.7,1.3-1.4,1.6C119.2,26.9,118.9,27,118.6,27z"/>
	</g>
	<g>
		<path d="M225.7,123.5c-0.4,0-0.8-0.3-1-0.7c-0.2-0.5,0.1-1.1,0.7-1.3c0.9-0.3,1.1-0.8,1.3-2.2c0-0.3,0.1-0.6,0.2-0.9
			c0.7-3.3,0.3-6.6-0.2-10.1c-0.1-0.7-0.2-1.3-0.3-2c-0.2-1.4-0.4-3.3,1.2-4.7c1.1-1,0.8-2.1,0.2-3.7l-0.1-0.3
			c-0.3-1-0.9-1.9-1.6-2.8c-0.3-0.4-0.6-0.9-0.9-1.3c-0.3-0.5-0.1-1.1,0.3-1.4c0.5-0.3,1.1-0.1,1.4,0.3c0.3,0.4,0.5,0.8,0.8,1.3
			c0.7,1,1.4,2,1.8,3.2l0.1,0.3c0.6,1.6,1.5,3.9-0.7,5.9c-0.7,0.6-0.7,1.5-0.5,3c0.1,0.7,0.2,1.3,0.3,2c0.5,3.5,0.9,7.1,0.1,10.8
			c-0.1,0.3-0.1,0.5-0.1,0.8c-0.2,1.3-0.5,3.1-2.7,3.8C225.9,123.5,225.8,123.5,225.7,123.5z"/>
	</g>
	<g>
		<path d="M223.9,137.6c-1.1,0-2.3-0.3-3.5-1c-0.3-0.2-0.5-0.5-0.5-0.8c0-0.3,0.1-0.7,0.4-0.9l6.9-5c0.4-0.3,1.1-0.2,1.4,0.2
			c0.3,0.4,0.2,1.1-0.2,1.4l-5.5,4c1.6,0.3,3-0.2,4.5-0.8c0.6-0.2,1.2-0.5,1.8-0.7c0.5-0.2,1.1,0.1,1.2,0.7c0.2,0.5-0.1,1.1-0.7,1.2
			c-0.5,0.2-1.1,0.4-1.7,0.6C226.8,137,225.5,137.6,223.9,137.6z"/>
	</g>
	<g>
		<path d="M234.2,159.5c-0.4,0-0.8-0.2-0.9-0.6c-0.2-0.5,0-1.1,0.5-1.3c0,0,0,0,0,0c0-0.1,0-0.3-0.1-0.4c-0.1-0.6-0.4-1.7,0.6-2.5
			c0.1-0.1,0.2-0.7,0.3-1c0.1-0.5,0.2-1.1,0.4-1.6c0.4-0.9,0.8-1.8,1.2-2.8c1.1-2.6,2.2-5.3,4.6-7.4c0.4-0.4,1-0.3,1.4,0.1
			s0.3,1-0.1,1.4c-2,1.8-3,4.1-4,6.7c-0.4,1-0.8,1.9-1.3,2.9c-0.1,0.3-0.2,0.7-0.3,1c-0.1,0.7-0.3,1.6-0.9,2.2c-0.1,0.1,0,0.4,0,0.6
			c0.1,0.6,0.4,2-1.1,2.6C234.5,159.4,234.3,159.5,234.2,159.5z"/>
	</g>
	<g>
		<path d="M140.2,34.5c-0.2,0-0.5-0.1-0.8-0.3c-3.4-3-6.2-6.7-8.8-10.2c-1.2-1.6-2.4-3.3-3.7-4.8c-0.3-0.4-0.9-1.2-1.1-2.2
			c-0.4-2.8-2-4.9-3.7-7.2c-0.4-0.6-0.9-1.2-1.3-1.8c-0.4-0.6-0.8-0.6-1.9-0.4l-0.1,0c-0.4,0.1-0.9,0.4-1.5,0.7
			c-0.3,0.2-0.6,0.3-0.8,0.5c-0.5,0.2-1.1,0-1.3-0.4c-0.2-0.5,0-1.1,0.4-1.3c0.2-0.1,0.5-0.3,0.7-0.4c0.6-0.4,1.3-0.8,2.1-0.9l0.1,0
			c1-0.2,2.7-0.5,3.9,1.2c0.4,0.6,0.9,1.2,1.3,1.8c1.7,2.4,3.5,4.8,4,8c0.1,0.3,0.3,0.8,0.6,1.2c1.3,1.6,2.6,3.3,3.8,4.9
			c2.5,3.4,5.1,6.8,8.2,9.7c0.6,0,1,0.4,1,1c0,0.6-0.4,1-1,1C140.4,34.5,140.3,34.5,140.2,34.5z"/>
	</g>
	<g>
		<path d="M241.1,131.2C241,131.2,241,131.2,241.1,131.2c-1-0.1-1.4-0.9-1.7-1.3L239,129c-1.8-3.4-3.6-7-4.5-11
			c-0.1-0.5-0.2-0.9-0.4-1.4c-0.6-2.1-1.3-4.5,1-6.8c0-0.1,0-0.2-0.1-0.3c-0.2-0.4-0.4-0.8-0.6-1.2c-0.5-0.9-1-1.9-1-3
			c0-0.9,0.5-1.5,0.9-2.1c0.7-0.8,0.8-1.1,0.4-1.6c-0.3-0.4-0.2-0.9,0.1-1.3c0.9-0.9,0.7-1.8,0.4-3.3c-0.1-0.3-0.1-0.7-0.2-1
			c-0.2-1.1-0.3-2.3-0.4-3.4c0-0.5-0.1-1-0.1-1.4c0-0.5,0.4-1,0.9-1.1c0.6,0,1,0.4,1.1,0.9c0,0.5,0.1,1,0.1,1.5
			c0.1,1.1,0.2,2.1,0.3,3.2c0.1,0.3,0.1,0.6,0.2,0.9c0.3,1.4,0.7,3-0.4,4.5c0.6,1.5-0.3,2.6-0.8,3.3c-0.2,0.3-0.5,0.7-0.5,0.9
			c0,0.6,0.4,1.3,0.8,2c0.3,0.5,0.5,0.9,0.7,1.5c0.2,0.4,0.5,1.7-0.3,2.3c-1.5,1.4-1.2,2.7-0.6,4.9c0.1,0.5,0.3,1,0.4,1.5
			c0.9,3.8,2.6,7,4.4,10.5l0.4,0.8c0,0,0,0,0,0c1.4-2.1,1.9-4.2,1.4-6.1c-0.9-3.8,0.9-6,2.6-7.4c0.4-0.4,1-0.3,1.4,0.1
			c0.4,0.4,0.3,1-0.1,1.4c-1.9,1.7-2.5,3.2-1.9,5.4c0.6,2.5,0,5.1-1.6,7.7C242.6,130.3,242,131.2,241.1,131.2z"/>
	</g>
	<g>
		<path d="M90.9,16.9c-1.4,0-1.8-2.5-1.8-2.5c-0.2-1.4-0.3-2.7-0.4-4.1c0-0.5-0.1-1-0.1-1.5c0-0.6,0.4-1,0.9-1.1
			c0.6,0,1,0.4,1.1,0.9c0,0.5,0.1,1,0.1,1.6c0.1,1.3,0.2,2.6,0.3,3.9c0,0.2,0.1,0.5,0.2,0.7c0.4-0.1,0.8-0.2,0.8-0.3
			c0.8-1.2,1.5-2.6,2.2-3.9c0.3-0.5,0.5-1,0.8-1.6c0.3-0.5,0.9-0.7,1.4-0.4c0.5,0.3,0.7,0.9,0.4,1.4c-0.3,0.5-0.5,1-0.8,1.5
			c-0.7,1.4-1.4,2.8-2.3,4.1C93.1,16.6,91.6,16.9,90.9,16.9C90.9,16.9,90.9,16.9,90.9,16.9z"/>
	</g>
	<g>
		<path d="M21.7,18.3c-0.9,0-1.8-0.4-2.4-0.7c-0.6-0.4-1.9-1.1-1.1-3.3C19.8,10,22.3,6.2,26,2.8c0.4-0.4,1-0.4,1.4,0.1
			c0.4,0.4,0.4,1-0.1,1.4C23.9,7.5,21.6,11,20.2,15C20,15.5,20,15.7,20,15.7c0,0,0.2,0.1,0.3,0.2c0.6,0.4,1.3,0.5,1.5,0.4
			c0.9-0.5,1.9-1,2.9-1.4c3.3-1.4,6.1-2.7,6.5-6.7c0.1-0.5,0.4-0.9,0.6-1.2C32,6.9,32,6.9,32,6.8c0-0.5,0.1-1,0.5-1.3
			c0.4-0.4,1-0.4,1.5-0.4c1.7,0.1,3.5,0.2,5.2,0.3l2,0.1c0.6,0,1,0.5,0.9,1.1c0,0.6-0.5,1-1.1,0.9l-2-0.1c-1.7-0.1-3.4-0.2-5.1-0.3
			C34,7.7,33.7,8,33.4,8.3c0,0.1-0.1,0.1-0.2,0.2c-0.6,5.1-4.3,6.8-7.7,8.3c-1,0.4-1.9,0.8-2.7,1.3C22.5,18.3,22.1,18.3,21.7,18.3z"
			/>
	</g>
	<g>
		<path d="M147.8,59.8c-0.3,0-0.7-0.2-0.9-0.5c-0.2-0.3-0.4-0.6-0.5-0.9c-0.4-0.7-0.9-1.4-1.2-2.3l-0.3-0.9c-0.7-2.1-1.5-4.4-3-5.9
			c-2-2.1-2.5-4.5-3-6.9c-0.1-0.6-0.3-1.2-0.4-1.8c-0.7-2.5,0.3-4.8,1.3-7c0.3-0.7,0.6-1.4,0.8-2.1c0.3-0.9,0.9-1.5,1.7-1.8
			c0.9-0.4,2-0.2,3.1,0.4c3.1,1.7,6.3,2,9.4,0.7c0.6-0.2,1.1-0.3,1.6-0.3c0-0.2,0.1-0.5,0.3-0.7c0.7-0.7,1.3-1.3,2-2
			c1.7-1.8,3.5-3.6,5.4-5.2c0.1-0.1,0.2-0.2,0.3-0.3c0.7-0.7,2.3-2.3,4.3-0.6c0.8,0.7,1.3,2.7,1.4,3.9c0,0.8-0.1,1.4-0.5,1.8
			c-0.3,0.3-0.6,0.7-1,1.1c-1.4,1.6-2.9,3.4-5.6,3.6c-0.7,0.1-1.5,0.2-2.3,0.5c-0.5,0.1-1,0.3-1.5,0.3c-0.8,0.2-1.4,0-2-0.1
			c-0.6-0.1-1.1-0.3-1.7,0c-3.6,1.5-7.4,1.2-11.1-0.8c-0.5-0.3-1.1-0.4-1.4-0.3c-0.2,0.1-0.4,0.3-0.5,0.6c-0.3,0.7-0.6,1.5-0.9,2.2
			c-0.9,2-1.7,3.9-1.2,5.7c0.2,0.6,0.3,1.3,0.4,1.9c0.5,2.2,0.9,4.2,2.5,5.9c1.8,1.8,2.6,4.3,3.4,6.6l0.3,0.9c0.2,0.6,0.6,1.2,1,1.9
			c0.2,0.3,0.4,0.6,0.6,1c0.3,0.5,0.1,1.1-0.4,1.4C148.1,59.7,147.9,59.8,147.8,59.8z M158.3,30.8c0.1,0,0.3,0,0.4,0
			c0.5-0.1,0.9-0.2,1.3-0.3c0.8-0.2,1.7-0.4,2.6-0.5c1.9-0.1,3-1.4,4.3-2.9c0.3-0.4,0.6-0.7,1-1.1c0.1-0.6-0.3-2.5-0.7-2.9
			c-0.5-0.4-0.7-0.4-1.6,0.5c-0.2,0.1-0.3,0.3-0.4,0.4c-1.8,1.6-3.6,3.4-5.3,5.1C159.4,29.7,158.8,30.3,158.3,30.8z"/>
	</g>
	<g>
		<path d="M205.1,58.1c-0.3,0-0.6-0.1-0.8-0.4c-0.3-0.4-0.2-1.1,0.2-1.4c0.7-0.5,1.3-1,2-1.5c1.6-1.2,3.2-2.4,4.8-3.6
			c0.2-0.1,0.2-0.2,0.2-0.3c0-0.1-0.2-0.4-0.8-0.6c-1.5-0.6-2.9-0.2-4.6,0.2c-0.4,0.1-0.8,0.2-1.2,0.3c-0.5,0.1-1,0.3-1.4,0.4
			c-0.5,0.2-1,0.3-1.5,0.4c-0.4,0.1-0.8,0.2-1.2,0.3c-1.3,0.4-2.6,0.8-3.7,0.3c-0.6-0.3-1-0.2-1.8,0.1c-0.7,0.2-1.4,0.4-2.4,0.2
			c-0.6-0.1-1.3-0.2-1.9-0.3c-0.8-0.1-1.6-0.2-2.4-0.4c-2.3-0.6-4.8,0.1-6.8,1.8c-0.4,0.4-1.1,0.3-1.4-0.1s-0.3-1,0.1-1.4
			c2.5-2.2,5.6-3,8.6-2.2c0.7,0.2,1.4,0.3,2.2,0.4c0.7,0.1,1.4,0.2,2.1,0.4c0.4,0.1,0.7,0,1.3-0.2c0.8-0.2,2-0.6,3.3,0.1
			c0.4,0.2,1.4-0.2,2.2-0.4c0.5-0.1,0.9-0.3,1.3-0.4c0.5-0.1,0.9-0.3,1.4-0.4c0.5-0.2,1.1-0.3,1.6-0.4c0.4-0.1,0.8-0.2,1.2-0.3
			c1.8-0.5,3.7-1,5.9-0.1c1.1,0.5,1.9,1.2,2,2.1c0.1,0.4,0,1.3-0.9,2.1c-1.6,1.3-3.2,2.5-4.9,3.7c-0.7,0.5-1.3,1-2,1.5
			C205.5,58,205.3,58.1,205.1,58.1z"/>
	</g>
	<g>
		<path d="M207.4,97.4c-0.3,0-0.6-0.1-0.9-0.5c-0.7-1.1-1.6-2.5-1.5-4c0.1-1.3,0.4-2.6,0.6-3.8c0.2-0.9,0.4-1.8,0.5-2.7
			c0-0.2-0.1-0.7-0.3-1c-0.8-0.1-1.8-0.5-2.2-1.3c-0.4-1,0.3-2,1-2.9c0.1-0.1,0.2-0.4,0.2-0.5c0.2-0.5,0.4-1.2,1.2-1.4
			c2.7-0.7,2.8-2.3,2.7-5.1c0-0.4,0-0.8,0-1.2l0-0.7c0-0.6,0-1.2,0-1.9c0-0.8-0.3-1.3-0.6-1.4c-0.1,0-0.3,0.1-0.6,0.4
			c-0.9,1.1-2,1.2-2.9,1.4c-0.8,0.1-1.2,0.2-1.4,0.6c-0.3,0.4-1,0.5-1.4,0.2c-0.4-0.3-0.5-1-0.2-1.4c0.8-1,1.8-1.2,2.7-1.4
			c0.8-0.1,1.3-0.2,1.7-0.7c0.8-0.9,1.8-1.3,2.7-0.9c1.1,0.4,1.8,1.6,1.9,3.2c0,0.7,0,1.3,0,2l0,0.6c0,0.4,0,0.8,0,1.2
			c0.1,2.6,0.2,5.8-3.9,7c0,0.1-0.1,0.2-0.1,0.3c-0.1,0.4-0.3,0.8-0.6,1.1c-0.4,0.5-0.5,0.7-0.6,0.9c0.1,0.1,0.4,0.1,0.8,0.2
			c1.2,0.2,1.8,2.3,1.7,3.2c-0.1,1-0.3,1.9-0.5,2.9c-0.3,1.2-0.5,2.3-0.6,3.5c0,0.6,0.3,1.5,0.8,2.1c0,0,0.1,0,0.1,0
			c0.6-0.2,1.2-0.5,1.8-0.6c1-0.1,1.1-0.1,1.4-0.7c0.5-1.1,1.3-1.9,2.1-2.7c0.3-0.3,0.6-0.6,0.9-1c0.4-0.4,1-0.5,1.4-0.1
			c0.4,0.4,0.5,1,0.1,1.4c-0.3,0.4-0.7,0.7-1,1.1c-0.7,0.7-1.4,1.4-1.8,2.2c-0.8,1.6-2,1.7-3,1.8c-0.3,0-0.9,0.3-1.3,0.4
			C208.2,97.2,207.8,97.4,207.4,97.4z"/>
	</g>
	<g>
		<path d="M115.7,29c-0.3,0-0.7-0.2-0.9-0.5c-0.3-0.4-0.5-0.9-0.8-1.3c-0.6-1-1.2-2-1.8-2.9c-0.1-0.2-0.3-0.4-0.4-0.6
			c-0.3-0.5-0.8-1.3-1.1-1.4c-2.9-0.3-4.3-2.3-5.6-4c-0.3-0.4-0.6-0.8-0.9-1.2c-0.8-1-1.5-1.7-2.4-2.4c-4.5-3.3-9.2-6.7-10.3-12.9
			c-0.1-0.5,0.3-1.1,0.8-1.2c0.5-0.1,1.1,0.3,1.2,0.8c1,5.5,5.1,8.5,9.5,11.7c1.2,0.9,2,1.7,2.8,2.8c0.3,0.4,0.7,0.9,1,1.3
			c1.2,1.6,2.2,3,4.2,3.2c1.1,0.1,1.9,1.3,2.5,2.3c0.1,0.2,0.2,0.4,0.4,0.6c0.7,1,1.3,2,1.9,3c0.2,0.4,0.5,0.9,0.8,1.3
			c0.3,0.5,0.1,1.1-0.3,1.4C116,28.9,115.9,29,115.7,29z"/>
	</g>
	<g>
		<path d="M193.6,75.6c-0.3,0-0.6-0.1-0.8-0.3c-0.3-0.3-0.6-0.7-0.9-1c-0.8-0.8-1.6-1.6-2.1-2.7c-0.3-0.5-0.5-1-0.8-1.5
			c-1.2-2.1-2.4-4.3-2.4-7.1c0-1.7,1.3-2,1.9-2.2l0.2,0c0.5-0.2,1.1,0.2,1.2,0.7c0.2,0.5-0.2,1.1-0.7,1.2l-0.2,0.1
			c-0.1,0-0.3,0.1-0.4,0.1c0,0,0,0.1,0,0.2c0,2.2,1,4.1,2.1,6.1c0.3,0.5,0.6,1,0.8,1.5c0.4,0.8,1.1,1.4,1.8,2.2
			c0.4,0.4,0.7,0.7,1,1.1c0.4,0.4,0.3,1-0.1,1.4C194,75.5,193.8,75.6,193.6,75.6z"/>
	</g>
	<g>
		<path d="M9.1,15.7c-0.4,0-0.7-0.2-0.9-0.5c-1.1-2.2,0.3-3.6,1.1-4.4c0.3-0.3,0.5-0.5,0.7-0.8c1.9-3,2.4-5.7,1.5-8.6
			c-0.2-0.5,0.1-1.1,0.7-1.2c0.5-0.2,1.1,0.1,1.2,0.7C14.6,4.2,14,7.5,11.7,11c-0.3,0.4-0.6,0.8-1,1.1C9.9,13,9.6,13.4,10,14.2
			c0.3,0.5,0.1,1.1-0.4,1.3C9.4,15.7,9.3,15.7,9.1,15.7z"/>
	</g>
	<g>
		<path d="M122.1,7.6c-0.3,0-0.5-0.1-0.7-0.3c-0.4-0.4-0.3-1,0.1-1.4l3.5-3.1L118.6,2c-0.5-0.1-0.9-0.6-0.9-1.1
			c0.1-0.5,0.6-0.9,1.1-0.9l8.6,1c0.4,0,0.7,0.3,0.8,0.7c0.1,0.4,0,0.8-0.3,1l-5.2,4.6C122.6,7.5,122.3,7.6,122.1,7.6z"/>
	</g>
	<g>
		<path d="M177.3,38.8c-0.4,0-0.8-0.3-0.9-0.7c-0.2-0.5,0.1-1.1,0.6-1.3c0.8-0.3,1.6-0.5,2.3-0.8c1.8-0.6,3.6-1.2,5.3-1.8
			c2.7-1,4.8-0.5,6.3,1.7c0.3,0.5,0.2,1.1-0.2,1.4c-0.5,0.3-1.1,0.2-1.4-0.2c-1-1.4-2.1-1.7-4-0.9c-1.8,0.7-3.6,1.3-5.4,1.9
			c-0.8,0.3-1.6,0.5-2.3,0.8C177.5,38.8,177.4,38.8,177.3,38.8z"/>
	</g>
	<g>
		<path d="M219.2,79.5c-0.5,0-1-0.4-1-0.9c0-0.6,0.4-1,0.9-1.1c4.3-0.4,7.6-1.9,10-4.8c0.2-0.3,0.2-0.5,0.2-0.7
			c0-0.1-0.1-0.2-0.3-0.2c-1.1,0-2.1-0.2-3.1-0.3c-1.7-0.2-3.3-0.4-4.8-0.2c-0.5,0.1-1.1-0.3-1.1-0.8s0.3-1.1,0.8-1.1
			c1.9-0.3,3.7-0.1,5.4,0.2c1,0.1,2,0.3,2.9,0.3c0.9,0,1.7,0.5,2.1,1.4c0.4,0.9,0.2,2-0.5,2.8C227.9,77.2,224.2,79,219.2,79.5
			C219.3,79.5,219.3,79.5,219.2,79.5z"/>
	</g>
	<g>
		<path d="M84.9,24.3c-0.5,0-1-0.4-1-1c0-0.6,0.4-1,1-1c1.4,0,1.4,0,2.2-0.9l0.1-0.1c0.4-0.3,0.7-0.7,1-1.1c1.9-2,4.2-4.3,7.9-3.9
			c0.5,0.1,1,0.5,0.9,1.1c-0.1,0.5-0.5,0.9-1.1,0.9c-2.7-0.3-4.4,1.4-6.2,3.3c-0.4,0.4-0.7,0.7-1.1,1.1l-0.1,0.1
			C87.1,24.1,86.9,24.2,84.9,24.3C84.9,24.3,84.9,24.3,84.9,24.3z"/>
	</g>
	<g>
		<path d="M66.2,23.4c-0.3,0-0.6-0.1-1-0.3c-0.5-0.4-0.6-1-0.7-1.4c-0.3-2.4-0.7-4.9-1.1-7.3c-0.2-1-0.3-2-0.5-2.9
			c-0.1-0.5,0.3-1.1,0.8-1.2c0.5-0.1,1.1,0.3,1.2,0.8c0.2,1,0.3,1.9,0.5,2.9c0.4,2.4,0.9,4.9,1.1,7.4c0.2,0,0.4,0,0.6,0.1
			c0.5,0.2,0.8,0.7,0.7,1.2c-0.2,0.5-0.7,0.8-1.2,0.7c0,0,0,0-0.1,0C66.4,23.4,66.3,23.4,66.2,23.4z"/>
	</g>
	<g>
		<path d="M188,51.2c-0.2,0-0.4-0.1-0.6-0.2c-0.4-0.3-0.5-1-0.2-1.4c1.1-1.5,2.6-1.9,4-2.3c0.6-0.2,1.1-0.3,1.6-0.6
			c0.4-0.2,0.8-0.4,1.3-0.6c0.7-0.4,1.5-0.8,2.3-1.1c0.3-0.1,0.5-0.2,0.6-0.3c-0.2-0.3-0.8-0.6-1.4-0.7c-0.7-0.2-1.5-0.1-2.3,0
			l-0.4,0c-0.5,0-1,0.1-1.5,0.2c-0.9,0.1-1.9,0.3-2.9,0.2c-5.4-0.4-8.9,0.2-13.6,2.5c-0.5,0.2-1.1,0-1.3-0.5c-0.2-0.5,0-1.1,0.5-1.3
			c5-2.4,8.9-3.2,14.6-2.7c0.8,0.1,1.6-0.1,2.4-0.2c0.6-0.1,1.1-0.2,1.7-0.2l0.4,0c1-0.1,1.9-0.1,2.9,0.1c0.9,0.2,2.2,0.8,2.7,1.8
			c0.3,0.7,0.3,1.2,0.1,1.6c-0.3,0.7-0.9,1.2-1.9,1.5c-0.7,0.2-1.3,0.6-2,0.9c-0.5,0.2-0.9,0.5-1.4,0.7c-0.6,0.3-1.2,0.5-1.8,0.6
			c-1.2,0.4-2.2,0.7-2.9,1.6C188.6,51.1,188.3,51.2,188,51.2z"/>
	</g>
	<g>
		<path d="M184.1,75.6c-0.1,0-0.3,0-0.4-0.1c-2-0.9-2.6-2.7-3.1-4c-0.7-1.8-1.5-3.6-2.3-5.4c-0.3-0.8-0.7-1.5-1-2.3
			c-0.2-0.5,0-1.1,0.5-1.3c0.5-0.2,1.1,0,1.3,0.5c0.3,0.8,0.7,1.5,1,2.3c0.8,1.8,1.7,3.6,2.4,5.5c0.5,1.4,1,2.4,2.1,2.8
			c0.5,0.2,0.7,0.8,0.5,1.3C184.9,75.4,184.5,75.6,184.1,75.6z"/>
	</g>
	<g>
		<path d="M8.7,13.1c-0.2,0-0.4-0.1-0.6-0.2C3.3,9.3,0.8,5.7,0,1.2C-0.1,0.6,0.3,0.1,0.8,0C1.4-0.1,1.9,0.3,2,0.8
			c0.7,4,3,7.2,7.3,10.5c0.4,0.3,0.5,1,0.2,1.4C9.3,13,9,13.1,8.7,13.1z"/>
	</g>
	<g>
		<path d="M185.3,61.1c-0.1,0-0.3,0-0.4,0c-0.3,0-0.6,0-0.9,0c-1.2,0-2.6,0-3.9-1c-0.1-0.1-0.3-0.2-0.4-0.3
			c-0.9-0.6-2.6-1.8-1.1-4.1c0.8-1.2,0.4-2.2-0.7-3.8l-0.2-0.3c-1-1.7-2-2.7-3.2-3.6c-1-0.7-2-1.6-2.8-2.4c-0.4-0.4-0.8-0.7-1.1-1.1
			c-0.4-0.4-0.5-1-0.1-1.4c0.4-0.4,1-0.5,1.4-0.1c0.4,0.4,0.8,0.7,1.2,1.1c0.9,0.8,1.7,1.6,2.6,2.2c1.8,1.2,2.9,2.8,3.7,4.2l0.2,0.3
			c1,1.6,2.2,3.6,0.6,6c-0.5,0.7-0.5,0.7,0.5,1.3c0.2,0.1,0.3,0.2,0.5,0.3c0.8,0.6,1.7,0.6,2.8,0.6c0.3,0,0.7,0,1,0
			c1,0,2.1-0.2,3.2-0.5c1-0.2,2-0.5,3.1-0.6c0.5,0,1.3-0.7,2-1.3c0.6-0.5,1.2-1,1.9-1.4c1.2-0.7,1.7-1.5,1.6-2.9
			c0-0.6,0.4-1,0.9-1.1c0.6,0,1,0.4,1.1,0.9c0.1,2.2-0.7,3.8-2.6,4.8c-0.5,0.3-1,0.7-1.5,1.2c-1,0.8-2,1.7-3.2,1.7
			c-0.9,0-1.8,0.3-2.7,0.5C187.6,60.8,186.5,61.1,185.3,61.1z"/>
	</g>
	<g>
		<path d="M83.2,14.4c-0.2,0-0.5-0.1-0.7-0.3c-2.8-2.5-6.2-6.5-2.8-12c0.3-0.5,0.9-0.6,1.4-0.3c0.5,0.3,0.6,0.9,0.3,1.4
			c-2.1,3.3-1.4,6.1,2.4,9.4c0.4,0.4,0.4,1,0.1,1.4C83.7,14.3,83.4,14.4,83.2,14.4z"/>
	</g>
	<g>
		<path d="M49.3,23.8c-0.4,0-0.8-0.2-1-0.4c-0.1,0-0.1-0.1-0.2-0.1c-0.5-0.2-0.7-0.8-0.4-1.3c0.2-0.5,0.8-0.7,1.3-0.4
			c0.1,0.1,0.3,0.1,0.4,0.2c2.6-1,5.1-2,7.7-3l1.8-0.7c0.5-0.2,1.1,0.1,1.3,0.6s-0.1,1.1-0.6,1.3l-1.8,0.7c-2.7,1-5.3,2.1-8,3.1
			C49.6,23.8,49.4,23.8,49.3,23.8z"/>
	</g>
	<g>
		<path d="M50.2,8.8c-0.5,0-0.9-0.4-1-0.9l-0.7-4.9c-0.2,0.1-0.4,0.3-0.5,0.4c-0.9,0.7-1.8,1.3-2.9,1.4c-1.1,0-1.8-0.9-2.5-1.8
			c-0.3-0.3-0.5-0.7-0.8-0.9c0,0-0.2-0.1-0.3-0.1c-0.1,0-0.2-0.1-0.3-0.2c-0.5-0.2-0.7-0.8-0.4-1.3c0.2-0.5,0.8-0.7,1.3-0.4
			c0.1,0,0.1,0.1,0.2,0.1c0.3,0.1,0.6,0.2,0.9,0.5c0.3,0.3,0.7,0.7,1,1.1c0.3,0.4,0.8,1,1,1c0.4,0,1-0.5,1.7-1
			C47.2,1.6,47.6,1.3,48,1c0.4-0.2,0.9-0.2,1.2-0.2c0.1,0,0.1,0,0.2,0c0,0,0,0,0,0c0.5,0,0.9,0.4,1,0.9l0.9,6
			c0.1,0.5-0.3,1.1-0.8,1.1C50.3,8.8,50.3,8.8,50.2,8.8z"/>
	</g>
	<g>
		<path d="M160.1,66c-0.7,0-1.4-0.1-2-0.3c-0.9-0.3-2.3-1.3-1.4-4.1c0.5-1.7,1.1-3.4,1.8-5c0.3-0.6,0.5-1.3,0.8-1.9
			c0.2-0.5,0.8-0.8,1.3-0.6c0.5,0.2,0.8,0.8,0.6,1.3c-0.2,0.7-0.5,1.3-0.8,2c-0.6,1.6-1.3,3.2-1.7,4.8c-0.4,1.5,0,1.6,0.2,1.7
			c0.7,0.3,1.7,0.3,2.1,0.1c1.5-0.9,2.9-1.9,4.3-2.9c0.6-0.4,1.1-0.8,1.7-1.2c0.4-0.3,1.1-0.2,1.4,0.2c0.3,0.4,0.2,1.1-0.2,1.4
			c-0.6,0.4-1.1,0.8-1.7,1.2c-1.4,1-2.9,2.1-4.4,3C161.4,65.9,160.8,66,160.1,66z"/>
	</g>
	<g>
		<path d="M50.2,17c-0.1,0-0.2,0-0.4-0.1l-0.6-0.3c-0.5-0.2-1-0.4-1.5-0.6c-0.4-0.2-0.8-0.4-1.2-0.6l-0.5-0.3
			c-0.3-0.1-0.4-0.4-0.5-0.6c-0.1-0.3,0-0.6,0.1-0.8l0.3-0.4c0.2-0.3,0.4-0.5,0.5-0.8c0.1-0.3,0.3-0.5,0.4-0.8
			c0.1-0.3,0.3-0.6,0.5-0.9c1-1.8,2.5-3,4-4.2c1.2-1,2.4-2,3.2-3.2c1.6-2.4,3.7-3,5.9-3.4c0.5-0.1,1.1,0.3,1.2,0.8S61.2,1.9,60.7,2
			c-1.9,0.3-3.4,0.7-4.6,2.5c-1,1.5-2.3,2.6-3.6,3.7c-1.4,1.1-2.7,2.2-3.5,3.6c-0.1,0.3-0.3,0.5-0.4,0.8c-0.1,0.3-0.3,0.6-0.5,0.9
			c-0.1,0.1-0.2,0.3-0.3,0.4c0.2,0.1,0.4,0.2,0.7,0.3c0.5,0.2,1,0.4,1.4,0.6l0.7,0.3c0.5,0.2,0.8,0.8,0.6,1.3
			C51,16.7,50.6,17,50.2,17z"/>
	</g>
	<g>
		<path d="M246.6,122.7c-0.2,0-0.4-0.1-0.6-0.2c-0.3-0.2-0.6-0.4-0.9-0.7c-0.4-0.3-0.9-0.8-1.2-0.8c-3.2-0.1-4.6-2.4-5.6-4.2
			c-0.1-0.2-0.2-0.4-0.4-0.6c-0.6-1.1-1.2-2.2-1.8-3.3c-0.3-0.5-0.5-1-0.8-1.4c-0.3-0.5-0.1-1.1,0.4-1.4c0.5-0.3,1.1-0.1,1.4,0.4
			c0.3,0.5,0.5,1,0.8,1.5c0.6,1.1,1.2,2.2,1.8,3.2c0.1,0.2,0.2,0.4,0.4,0.6c1.1,2,1.9,3.2,3.9,3.2c0.9,0,1.7,0.7,2.4,1.2
			c0.2,0.2,0.5,0.4,0.7,0.6c0.5,0.3,0.6,0.9,0.3,1.4C247.3,122.5,246.9,122.7,246.6,122.7z"/>
	</g>
	<g>
		<path d="M159.3,28.1c-0.3,0-0.6-0.2-0.8-0.4c-0.6-0.9-1.4-0.9-2.7-0.9c-0.2,0-0.5,0-0.7,0c-1.3,0-2.6,0-3.9,0l-1.7,0
			c-0.6,0-1-0.4-1-1s0.4-1,1-1l1.7,0c1.3,0,2.6,0,3.9,0c0.2,0,0.4,0,0.7,0c1.4,0,3.2-0.1,4.4,1.7c0.3,0.5,0.2,1.1-0.3,1.4
			C159.7,28,159.5,28.1,159.3,28.1z"/>
	</g>
	<g>
		<path d="M244.9,170.4c-0.6,0-1.4-0.3-2.5-0.7c-0.5-0.2-1-0.4-1.4-0.6l-0.7-0.3c-0.5-0.2-0.8-0.8-0.6-1.3c0.2-0.5,0.8-0.8,1.3-0.6
			l0.7,0.3c0.5,0.2,1,0.4,1.5,0.6c0.7,0.3,1.4,0.6,1.6,0.6c0.1-0.1,0.5-0.7,0.9-1.3l0.1-0.2c1.6-2.5,2.6-4.7,3.4-7
			c0.5-1.5,1.4-2.7,2.3-3.9c0.4-0.5,0.8-1,1.1-1.5c0.3-0.5,0.9-0.6,1.4-0.3c0.5,0.3,0.6,0.9,0.3,1.4c-0.4,0.5-0.8,1.1-1.2,1.6
			c-0.9,1.1-1.7,2.2-2,3.3c-0.8,2.5-2,4.9-3.6,7.5l-0.1,0.2C246.4,169.7,245.8,170.4,244.9,170.4z"/>
	</g>
	<g>
		<path d="M210.2,69.2c-0.4,0-0.8-0.2-0.9-0.6c-0.2-0.5,0-1.1,0.5-1.3c1-0.4,2.1-0.7,3.1-1c2.4-0.7,4.7-1.4,6.4-3.4
			c0.4-0.4,1-0.5,1.4-0.1c0.4,0.4,0.5,1,0.1,1.4c-2,2.4-4.7,3.2-7.3,4c-1,0.3-2,0.6-2.9,1C210.5,69.2,210.4,69.2,210.2,69.2z"/>
	</g>
	<g>
		<path d="M137.9,57.2c-0.2,0-0.4-0.1-0.6-0.2c-2.6-1.8-3.7-4.7-4.4-7c-0.5-1.7-0.9-2.6-2.3-3.2c-0.6-0.3-1-0.6-1.4-1
			c-0.2-0.1-0.3-0.3-0.5-0.4c-0.4-0.3-0.5-1-0.2-1.4c0.3-0.4,1-0.5,1.4-0.2c0.2,0.1,0.4,0.3,0.6,0.5c0.3,0.3,0.7,0.6,1,0.7
			c2.1,1,2.8,2.6,3.3,4.4c0.6,2,1.6,4.5,3.7,5.9c0.5,0.3,0.6,0.9,0.3,1.4C138.6,57,138.2,57.2,137.9,57.2z"/>
	</g>
	<g>
		<path d="M142.2,28.1c-0.5,0-0.9-0.3-1-0.8c-0.1-0.5,0.3-1.1,0.8-1.2c0.2,0,0.5-0.1,0.7-0.2c0.7-0.2,1.4-0.3,2.1-0.2
			c1.9,0.3,3.2-0.4,4.5-2.4c-1.2-1.2-2.8-1.5-4.5-1.8c-0.4-0.1-0.8-0.1-1.1-0.2c-0.5-0.1-0.9-0.6-0.8-1.2c0.1-0.5,0.6-0.9,1.2-0.8
			c0.4,0.1,0.7,0.1,1.1,0.2c2,0.4,4.2,0.8,5.8,2.7c0.5,0.5,0.4,1.5,0.1,2c-1.6,2.8-3.8,4-6.6,3.5c-0.4-0.1-0.8,0.1-1.3,0.2
			c-0.3,0.1-0.6,0.1-0.9,0.2C142.3,28.1,142.3,28.1,142.2,28.1z"/>
	</g>
	<g>
		<path d="M139,16.1c-0.5,0-1.1-0.1-1.6-0.5c-0.5-0.3-0.6-0.9-0.3-1.4c0.3-0.5,0.9-0.6,1.4-0.3c0.5,0.3,0.9,0.2,1.8-0.4
			c1.4-1,2.9-2.2,4.3-3.3c0.6-0.5,1.1-0.9,1.7-1.4c0.4-0.3,1.1-0.3,1.4,0.2s0.3,1.1-0.2,1.4c-0.6,0.5-1.1,0.9-1.7,1.4
			c-1.4,1.1-2.8,2.3-4.3,3.3C141,15.4,140.1,16.1,139,16.1z"/>
	</g>
	<g>
		<path d="M149.9,41.8c-0.3,0-0.6-0.2-0.8-0.4l-1.3-2c-1.3-1.9-2.6-3.8-3.8-5.8c-0.3-0.5-0.4-1-0.5-1.5c0-0.2-0.1-0.3-0.1-0.5
			c-0.1-0.5,0.2-1.1,0.7-1.2c0.5-0.1,1.1,0.2,1.2,0.7c0.1,0.2,0.1,0.4,0.1,0.6c0.1,0.3,0.1,0.6,0.2,0.8c1.2,1.9,2.5,3.9,3.8,5.7
			l1.3,2c0.3,0.5,0.2,1.1-0.3,1.4C150.3,41.7,150.1,41.8,149.9,41.8z"/>
	</g>
	<g>
		<path d="M85.6,7.2c-1.5,0-2.3-1-4.1-3.5C81.3,3.5,81,3.2,80.8,3c-0.2-0.1-0.3-0.3-0.5-0.4c-0.4-0.4-0.4-1,0-1.4s1-0.4,1.4,0
			c0.1,0.1,0.3,0.2,0.4,0.4c0.3,0.3,0.7,0.6,1,1.1c1.1,1.5,1.8,2.5,2.3,2.6C85.9,5.4,87,5,88.8,4.3c0.5-0.2,1.1,0.1,1.3,0.6
			C90.3,5.5,90,6,89.5,6.2C87.7,6.9,86.5,7.2,85.6,7.2z"/>
	</g>
	<g>
		<path d="M115.3,48.2c-0.4,0-0.8-0.2-0.9-0.6c-0.2-0.5,0-1.1,0.6-1.3c0.3-0.1,0.6-0.2,0.9-0.3c0.2-0.1,0.5-0.1,0.7-0.2
			c0.5-1.6,1.5-3,2.4-4.3c1.2-1.6,2.3-3.1,2.3-5c0-0.6,0.5-1,0.8-1.3c0.1-0.1,0.2-0.1,0.2-0.2c2.1-2.8,4.6-5.5,8.9-5.6
			c0.4,0,1-0.4,1.5-0.8c0.3-0.2,0.7-0.5,1-0.7c0.5-0.3,1.1-0.1,1.4,0.4c0.3,0.5,0.1,1.1-0.4,1.4c-0.3,0.2-0.6,0.4-0.9,0.6
			c-0.8,0.5-1.6,1.2-2.6,1.2c-3.3,0.1-5.3,2-7.4,4.8c-0.2,0.2-0.4,0.4-0.6,0.6c0,0,0,0,0,0c-0.2,2.4-1.4,4.2-2.7,5.9
			c-0.9,1.3-1.8,2.5-2.2,3.9c-0.2,0.9-1.2,1.1-2,1.3c-0.2,0.1-0.5,0.1-0.7,0.2C115.5,48.2,115.4,48.2,115.3,48.2z"/>
	</g>
	<g>
		<path d="M231.6,83.7c-0.3,0-0.6-0.1-0.8-0.4c-0.3-0.5-0.2-1.1,0.2-1.4c0.6-0.4,1.2-0.7,1.9-0.9c0.8-0.4,1.5-0.6,1.9-1.1l-8.1-1.7
			c-0.5-0.1-0.9-0.6-0.8-1.2c0.1-0.5,0.6-0.9,1.2-0.8l9.5,2c0.3,0.1,0.5,0.2,0.7,0.5c0.1,0.2,0.2,0.5,0.1,0.8
			c-0.7,2.1-2.3,2.8-3.7,3.4c-0.5,0.2-1.1,0.4-1.5,0.7C232,83.7,231.8,83.7,231.6,83.7z"/>
	</g>
	<g>
		<path d="M256.6,187.7c-1.2,0-1.8-0.8-2.9-2.8l-0.4-0.7c-0.6-1.1-0.6-2.2-0.7-3.1c0-0.8-0.1-1.5-0.4-2.1c-1-1.5-1.2-3.2-1.5-4.9
			c-0.2-1.7-0.5-3.2-1.4-4.5c-0.5-0.6-0.4-1.4-0.3-2.1c0-0.3,0.1-0.6,0-0.8c0-0.2-0.2-0.5-0.4-0.9c-0.1-0.2-0.2-0.4-0.3-0.6
			c-0.2-0.5,0-1.1,0.4-1.3c0.5-0.2,1.1,0,1.3,0.4c0.1,0.2,0.2,0.3,0.3,0.5c0.3,0.4,0.5,0.9,0.7,1.5c0.1,0.5,0,1,0,1.4
			c0,0.2-0.1,0.6,0,0.7c1.3,1.6,1.5,3.5,1.8,5.4c0.2,1.5,0.4,2.9,1.2,4.1c0.7,1,0.7,2.1,0.7,3.1c0,0.8,0.1,1.5,0.4,2.2l0.4,0.7
			c0.4,0.8,0.9,1.6,1.1,1.7c0.3,0.1,1.5-0.4,2.5-0.8c0.5-0.2,1.1,0,1.3,0.5s0,1.1-0.5,1.3C258.3,187.4,257.3,187.7,256.6,187.7z"/>
	</g>
	<g>
		<path d="M206.8,69.2c-0.3,0-0.6-0.1-0.8-0.4l-9.8-12c-0.4-0.4-0.3-1.1,0.1-1.4c0.4-0.4,1.1-0.3,1.4,0.1l9.8,12
			c0.4,0.4,0.3,1.1-0.1,1.4C207.3,69.1,207,69.2,206.8,69.2z"/>
	</g>
	<g>
		<path d="M48.5,23.4c-0.4,0-0.8-0.3-0.9-0.7c-0.5-1.6,0.3-2.7,1-3.5c0.4-0.4,0.7-0.8,0.7-1.2c0.2-2.7,1.9-3.3,3.8-3.6
			c6.6-1,10.6-3.9,12.6-9.1c0.1-0.2,0.2-0.5,0.3-0.7c0.6-1.7,1.3-3.8,3.7-4.6c0.5-0.2,1.1,0.1,1.3,0.6c0.2,0.5-0.1,1.1-0.6,1.3
			c-1.5,0.5-2,1.9-2.5,3.4c-0.1,0.3-0.2,0.5-0.3,0.8c-2.2,5.9-6.8,9.3-14.1,10.4c-1.8,0.3-2,0.6-2.1,1.7c-0.1,1-0.7,1.7-1.1,2.3
			c-0.6,0.7-0.8,1-0.6,1.6s-0.1,1.1-0.6,1.3C48.7,23.4,48.6,23.4,48.5,23.4z"/>
	</g>
	<g>
		<path d="M245.3,157.3c-0.3,0-0.6-0.1-0.8-0.4l-0.3-0.4c-1.7-2.2-3.7-4.8-2-8.3c0,0,0-0.3-0.1-0.6c-0.4-1.3-0.8-2.8-1.3-4.2
			c-0.5-1.2,0.1-2.2,0.5-3c0.4-0.7,0.5-0.9,0.4-1.3c-0.1-0.3-0.1-0.6-0.1-0.8c0-0.6,0.4-1,1-1c0.6,0,1,0.4,1,1c0,0.1,0,0.1,0,0.2
			c0.4,1.2-0.1,2.2-0.5,2.9c-0.4,0.7-0.5,1-0.4,1.3c0.5,1.5,0.9,3,1.3,4.4c0.1,0.4,0.3,1.3-0.1,2c-1.1,2.4-0.1,3.9,1.7,6.3l0.3,0.4
			c0.3,0.4,0.2,1.1-0.2,1.4C245.8,157.3,245.5,157.3,245.3,157.3z"/>
	</g>
	<g>
		<path d="M138.8,60.2c-0.4,0-0.8-0.3-0.9-0.7c-0.9-2.5-0.6-4.6,1-6.5c0.5-0.6,0.7-1.5,0.7-2.8c0-0.7,0.3-1.4,0.6-1.9
			c0.1-0.2,0.2-0.4,0.3-0.6c0.2-0.5,0.8-0.8,1.3-0.6c0.5,0.2,0.8,0.8,0.6,1.3c-0.1,0.2-0.2,0.5-0.4,0.7c-0.2,0.4-0.4,0.8-0.4,1
			c0,1.7-0.3,3-1.2,4c-1.1,1.4-1.3,2.8-0.7,4.6c0.2,0.5-0.1,1.1-0.6,1.3C139,60.2,138.9,60.2,138.8,60.2z"/>
	</g>
	<g>
		<path d="M168.3,61.1c0,0-0.1,0-0.1,0c-0.5-0.1-0.9-0.6-0.9-1.1l0.9-8.1c0.1-0.5,0.6-0.9,1.1-0.9c0.5,0.1,0.9,0.5,0.9,1.1l-0.9,8.1
			C169.3,60.7,168.8,61.1,168.3,61.1z"/>
	</g>
	<g>
		<path d="M140.1,24.7c-0.3,0-0.6-0.1-0.8-0.4c-0.3-0.4-0.2-1.1,0.2-1.4c3.3-2.5,5.4-6,6.5-11c0.1-0.5,0.6-0.9,1.2-0.8
			c0.5,0.1,0.9,0.6,0.8,1.2c-1.1,5.4-3.5,9.4-7.2,12.2C140.5,24.6,140.3,24.7,140.1,24.7z"/>
	</g>
	<g>
		<path d="M232.5,138.5c-0.1,0-0.2,0-0.3-0.1c-2.2-0.8-3.1-2.7-3.6-4l-0.5-1.4c-1.2-3.3-2.5-6.7-2.6-10.5c0-0.6,0.4-1,1-1
			c0.6,0,1,0.4,1,1c0.1,3.4,1.2,6.5,2.5,9.8l0.5,1.4c0.6,1.6,1.3,2.4,2.4,2.8c0.5,0.2,0.8,0.8,0.6,1.3
			C233.3,138.2,232.9,138.5,232.5,138.5z"/>
	</g>
	<g>
		<path d="M165.7,46.1c-0.4,0-0.8-0.2-0.9-0.6c-0.2-0.5,0.1-1.1,0.6-1.3c0.3-0.1,0.7-0.3,1-0.4c0.8-0.3,1.6-0.7,2.5-0.9
			c2.2-0.5,4.3-1.4,6.6-2.8c1.1-0.7,1.3-1,1.2-1.6c-0.1-0.5,0.3-1.1,0.8-1.1c0.5-0.1,1.1,0.3,1.1,0.8c0.3,2.1-1.1,3-2.1,3.6
			c-2.4,1.5-4.8,2.5-7.2,3.1c-0.7,0.2-1.5,0.5-2.2,0.8c-0.4,0.1-0.7,0.3-1.1,0.4C166,46.1,165.9,46.1,165.7,46.1z"/>
	</g>
	<g>
		<path d="M200.8,70.9c-0.3,0-0.6-0.2-0.8-0.4c-1.8-2.6-4.1-4.7-6.9-6.1c-0.5-0.3-0.7-0.9-0.4-1.3c0.3-0.5,0.9-0.7,1.3-0.4
			c3.1,1.6,5.6,3.8,7.6,6.7c0.3,0.5,0.2,1.1-0.3,1.4C201.2,70.8,201,70.9,200.8,70.9z"/>
	</g>
	<g>
		<path d="M132.3,17.8c-0.7,0-1-0.7-1.4-1.2c-0.1-0.2-0.2-0.3-0.3-0.4c-0.3-0.5-0.2-1.1,0.3-1.4c0.5-0.3,1.1-0.2,1.4,0.3
			c0.1,0.2,0.2,0.3,0.3,0.5c0,0,0,0.1,0.1,0.1c0.1,0,0.2,0,0.3-0.1c2.2-0.5,4-1,4.8-3c0.3-0.8,0.3-2,0.1-2.4c0,0,0-0.1-0.1-0.1
			c-0.3,0-0.8,0.1-1.4,0.6c-1.6,1.2-3.5,1-5.1,0.8c-0.6-0.1-1.3-0.1-1.8-0.1c-1.1,0-2.2,0-3.3,0l-1.4,0c-0.6,0-1-0.4-1-1s0.4-1,1-1
			l1.5,0c1.1,0,2.2,0,3.2,0c0.7,0,1.4,0.1,2.1,0.1c1.5,0.2,2.7,0.3,3.7-0.4c1-0.7,2-1.1,2.9-0.9c0.6,0.1,1.1,0.4,1.5,0.9
			c0.8,1.1,0.7,3,0.2,4.3c-1.2,2.9-3.8,3.6-6.2,4.2c-0.3,0.1-0.6,0.1-0.9,0.2C132.5,17.8,132.4,17.8,132.3,17.8z"/>
	</g>
	<g>
		<path d="M200.4,78.2c-0.8,0-1.6,0-2.4-0.1l-0.7,0c-0.8,0-1.4-0.6-1.8-1c-0.1-0.1-0.3-0.3-0.4-0.4c-0.4-0.3-0.5-1-0.2-1.4
			c0.3-0.4,1-0.5,1.4-0.2c0.2,0.2,0.4,0.4,0.6,0.5c0.2,0.2,0.5,0.4,0.6,0.5l0.6,0c2.5,0.1,4.8,0.2,7-0.7c0.5-0.2,1.1,0,1.3,0.5
			c0.2,0.5,0,1.1-0.5,1.3C204.1,78,202.2,78.2,200.4,78.2z"/>
	</g>
	<g>
		<path d="M212.4,86.7c-0.3,0-0.5,0-0.8-0.1c-0.5-0.2-1.2-0.7-1.5-1.9c-0.3-1-0.4-2-0.5-3.2c0-0.2,0-0.3,0-0.5c0-0.8,0-1.1-0.4-1.3
			c-0.5-0.3-0.6-0.9-0.3-1.4c0.3-0.5,0.9-0.6,1.4-0.3c1.3,0.8,1.3,2.1,1.4,3c0,0.1,0,0.3,0,0.4c0,1.1,0.2,2,0.4,2.8
			c0.1,0.4,0.2,0.5,0.3,0.6c0.1,0,0.3,0,0.8-0.3c0.3-0.2,0.6-0.4,0.9-0.6l0.4-0.3c0.5-0.3,1.1-0.2,1.4,0.3c0.3,0.5,0.2,1.1-0.3,1.4
			l-0.4,0.3c-0.3,0.2-0.6,0.4-0.9,0.6C213.6,86.5,213,86.7,212.4,86.7z"/>
	</g>
	<g>
		<path d="M148.2,61.9c-0.1,0-0.2,0-0.2,0c-0.5-0.1-0.9-0.7-0.7-1.2c0-0.2,0.1-0.3,0.1-0.5c0.1-0.5,0.2-1,0.5-1.5
			c0.3-0.5,0.6-0.9,0.9-1.3c0.8-1,1.4-1.8,1.4-2.9c0-0.4,0-0.9-0.1-1.3c-0.1-1.1-0.2-2.3,0.3-3.3c0.5-1.1,0.2-1.9-0.2-3
			c-0.1-0.4-0.3-0.7-0.4-1.1c-0.5-1.6-0.7-3.2,1.1-4.9c0.7-0.6,1.7-1.9,0.8-3.4c-0.3-0.5-0.1-1.1,0.3-1.4c0.5-0.3,1.1-0.1,1.4,0.3
			c1.2,1.9,0.8,4.1-1.1,5.9c-1,0.9-0.9,1.6-0.5,2.9c0.1,0.3,0.2,0.6,0.3,0.9c0.4,1.2,1,2.7,0.2,4.5c-0.3,0.6-0.2,1.4-0.1,2.3
			c0,0.5,0.1,1,0.1,1.6c0,1.8-1,3-1.9,4.1c-0.3,0.4-0.6,0.8-0.8,1.1c-0.1,0.2-0.1,0.5-0.2,0.8c0,0.2-0.1,0.4-0.1,0.6
			C149.1,61.6,148.6,61.9,148.2,61.9z"/>
	</g>
	<g>
		<path d="M154.6,59.8c-0.1,0-0.3,0-0.4-0.1c-0.5-0.2-0.7-0.8-0.4-1.3c0.1-0.2,0.2-0.4,0.3-0.6c0.2-0.4,0.4-0.7,0.5-1.1
			c0.5-1.3,1-2.7,1.5-4l0.6-1.5c0.2-0.5,0.8-0.8,1.3-0.6c0.5,0.2,0.8,0.8,0.6,1.3l-0.6,1.5c-0.5,1.3-1,2.7-1.6,4
			c-0.2,0.5-0.4,0.9-0.6,1.3c-0.1,0.2-0.2,0.3-0.3,0.5C155.3,59.6,155,59.8,154.6,59.8z"/>
	</g>
	<g>
		<path d="M103.7,14.4C103.7,14.4,103.7,14.4,103.7,14.4c-0.6,0-1-0.5-1-1c0-0.5,0-1,0-1.5c0-2-0.1-4.3,1.5-6.3
			c0.3-0.4,1-0.5,1.4-0.2c0.4,0.3,0.5,1,0.2,1.4c-1.1,1.5-1.1,3.1-1.1,5.1c0,0.5,0,1.1,0,1.6C104.7,14,104.2,14.4,103.7,14.4z"/>
	</g>
	<g>
		<path d="M142.2,31.5c-0.1,0-0.3,0-0.4-0.1c-1.5-0.7-1.5-2.2-1.4-3.1c0.1-1,0-1.1-0.3-1.2c-0.2-0.1-0.4-0.3-0.5-0.6
			c-0.8-2.4-2.4-4.2-4.2-6.1c-0.9-1-1.8-2-2.5-3c-0.3-0.4-0.2-1.1,0.2-1.4c0.4-0.3,1.1-0.2,1.4,0.2c0.7,1,1.5,1.9,2.4,2.9
			c1.7,1.9,3.5,3.9,4.4,6.5c1.2,0.8,1.1,2.1,1,2.9c-0.1,0.9,0,1,0.3,1.2c0.5,0.2,0.7,0.8,0.5,1.3C142.9,31.3,142.6,31.5,142.2,31.5z
			"/>
	</g>
	<g>
		<path d="M232.9,138.5c-0.1,0-0.2,0-0.3-0.1c-0.5-0.2-0.8-0.7-0.6-1.3c0-0.1,0.1-0.2,0.1-0.4c0.1-0.3,0.2-0.7,0.4-1.1
			c0.3-0.6,0.3-1.3,0.3-2.1c-0.1-1.3-0.1-2.8,1.2-4.1c0.4-0.4,1-0.4,1.4,0c0.4,0.4,0.4,1,0,1.4c-0.6,0.6-0.6,1.3-0.6,2.5
			c0,1,0.1,2.2-0.5,3.2c-0.1,0.1-0.2,0.4-0.2,0.6c0,0.2-0.1,0.3-0.1,0.5C233.7,138.2,233.3,138.5,232.9,138.5z"/>
	</g>
	<g>
		<path d="M61.6,25.4c-0.2,0-0.4,0-0.6-0.1c-0.7-0.3-1-1-1.4-2.2l-0.2-0.7c-0.5-1.4-0.4-2.7-0.4-4c0.1-1.3,0.1-2.5-0.4-3.6
			c-0.2-0.5,0-1.1,0.5-1.3c0.5-0.2,1.1,0,1.3,0.5c0.7,1.5,0.6,3,0.6,4.5c-0.1,1.2-0.1,2.3,0.2,3.3l0.2,0.7c0.1,0.3,0.2,0.6,0.3,0.9
			c0.3-0.1,0.7-0.3,1.1-0.5c0.3-0.1,0.5-0.3,0.8-0.5c0.1-0.1,0.3-0.2,0.4-0.3c0.5-0.3,1.1-0.2,1.4,0.3c0.3,0.5,0.2,1.1-0.3,1.4
			c-0.1,0.1-0.2,0.2-0.4,0.3c-0.3,0.2-0.6,0.5-1,0.7C62.9,25.1,62.2,25.4,61.6,25.4z"/>
	</g>
	<g>
		<path d="M125.5,28.1c-0.1,0-0.2,0-0.4-0.1c-0.5-0.2-0.8-0.8-0.6-1.3l2.6-6.8c0.2-0.5,0.8-0.8,1.3-0.6c0.5,0.2,0.8,0.8,0.6,1.3
			l-2.6,6.8C126.3,27.9,125.9,28.1,125.5,28.1z"/>
	</g>
	<g>
		<path d="M233.1,107.3c-1.1,0-2.6-0.2-3-2.6c-0.1-0.5-0.5-1.1-0.9-1.7c-0.2-0.3-0.5-0.7-0.6-1c-0.3-0.5-0.1-1.1,0.4-1.4
			c0.5-0.3,1.1-0.1,1.4,0.4c0.2,0.3,0.4,0.6,0.6,0.9c0.5,0.7,1.1,1.5,1.2,2.5c0.1,0.9,0.3,0.9,1.4,0.9c0.2,0,0.5,0,0.7,0
			c0.6,0,1,0.5,1,1c0,0.6-0.5,1-1,1c-0.2,0-0.4,0-0.6,0C233.4,107.3,233.3,107.3,233.1,107.3z"/>
	</g>
	<g>
		<path d="M95,26.1c-0.2,0-0.5,0-0.7-0.1c-0.2,0-0.3,0-0.5,0c-0.6,0-1-0.4-1-1s0.4-1,1-1c0.2,0,0.5,0,0.7,0.1c0.1,0,0.3,0,0.4,0
			c0.9-1.1,0.9-2.5,0.9-4.1l0-0.9c0-2.7-0.1-5.4,0.9-8.1c0.2-0.5,0.8-0.8,1.3-0.6c0.5,0.2,0.8,0.8,0.6,1.3c-0.9,2.4-0.8,4.8-0.8,7.4
			l0,0.8c0,2,0,4.1-1.6,5.8C95.9,26,95.5,26.1,95,26.1z"/>
	</g>
	<g>
		<path d="M74.2,15.3c-0.4,0-0.8-0.3-0.9-0.7c-0.2-0.5,0.1-1.1,0.6-1.3c0.2-0.1,0.4-0.1,0.6-0.1c0.1,0,0.2,0,0.3-0.1
			c0.7-1.1,1.5-2.2,2.1-3.3l0.8-1.2C77.9,8.1,78.5,8,79,8.3c0.5,0.3,0.6,0.9,0.3,1.4l-0.8,1.2c-0.7,1.2-1.5,2.4-2.3,3.5
			c-0.4,0.5-1,0.7-1.4,0.7c-0.1,0-0.2,0-0.3,0.1C74.4,15.2,74.3,15.3,74.2,15.3z"/>
	</g>
	<g>
		<path d="M99.8,38.4c-0.3,0-0.6-0.2-0.8-0.4l-4.3-6.4c-0.3-0.5-0.2-1.1,0.3-1.4c0.5-0.3,1.1-0.2,1.4,0.3l4.3,6.4
			c0.3,0.5,0.2,1.1-0.3,1.4C100.2,38.3,100,38.4,99.8,38.4z"/>
	</g>
	<g>
		<path d="M251.9,183.1c-1.6,0-3.2-0.4-4.4-2.2c-0.1-0.2-0.5-0.4-0.8-0.6c-0.2-0.1-0.4-0.3-0.6-0.4c-0.4-0.3-0.5-1-0.2-1.4
			c0.3-0.4,1-0.5,1.4-0.2c0.2,0.1,0.3,0.2,0.5,0.3c0.5,0.3,1,0.7,1.4,1.2c0.9,1.3,2,1.4,3.8,1.3c0.5-0.1,1,0.4,1.1,0.9
			s-0.3,1-0.9,1.1C252.7,183,252.3,183.1,251.9,183.1z"/>
	</g>
	<g>
		<path d="M119.9,47.8c-0.5,0-1.1-0.1-1.6-0.3c-0.2-0.1-0.5-0.1-0.7-0.2c-0.5-0.1-0.9-0.6-0.8-1.2c0.1-0.5,0.6-0.9,1.2-0.8
			c0.3,0,0.6,0.1,0.9,0.2c0.5,0.1,0.9,0.3,1.2,0.2c2-0.5,3.9-1.2,5.9-1.8c0.7-0.2,1.5-0.5,2.2-0.7c0.5-0.2,1.1,0.1,1.3,0.7
			s-0.1,1.1-0.7,1.3c-0.7,0.2-1.5,0.5-2.2,0.7c-1.9,0.6-4,1.3-6,1.8C120.4,47.8,120.2,47.8,119.9,47.8z"/>
	</g>
	<g>
		<path d="M219.2,112.8c-0.3,0-0.6-0.1-0.8-0.2c-0.8-0.4-1-1.4-1.2-2.3c-0.1-0.3-0.1-0.5-0.2-0.8c-0.2-0.5,0.1-1.1,0.6-1.3
			c0.5-0.2,1.1,0.1,1.3,0.6c0.1,0.3,0.2,0.6,0.2,1c0.1,0.2,0.1,0.6,0.2,0.8c0.2,0,0.6-0.2,1.5-0.7c1.5-0.9,2.5-1.8,3.1-3
			c0.4-0.8,1-1.3,1.6-1.8c0.2-0.2,0.5-0.4,0.7-0.6c0.4-0.4,1-0.4,1.4,0c0.4,0.4,0.4,1,0,1.4c-0.2,0.2-0.5,0.5-0.8,0.7
			c-0.5,0.4-0.9,0.8-1.1,1.2c-1,2-2.7,3.1-3.9,3.8C221,112.3,220,112.8,219.2,112.8z"/>
	</g>
	<g>
		<path d="M206.8,80.3c-0.4,0-0.8-0.3-1-0.7c-0.1-0.3-0.2-0.6-0.3-0.9c-0.3-0.8-0.6-1.5-0.6-2.4c0-2.5-1.9-3.6-3.8-4.7l-0.5-0.3
			c-0.7-0.4-1.9-0.3-3.1-0.1c-0.6,0.1-1.3,0.1-1.9,0.1c-0.6,0-1-0.4-1-1s0.4-1,1-1c0.5,0,1.1-0.1,1.7-0.1c1.5-0.2,3-0.3,4.3,0.4
			l0.5,0.3c2.1,1.2,4.9,2.8,4.8,6.4c0,0.5,0.2,1.1,0.4,1.7c0.1,0.3,0.2,0.7,0.3,1c0.2,0.5-0.2,1.1-0.7,1.2
			C207,80.3,206.9,80.3,206.8,80.3z"/>
	</g>
	<g>
		<path d="M201.4,95.2c-0.6,0-1.2-0.2-1.5-0.6c-0.5-0.5-0.7-1.3-0.5-2.2c0.5-3.3,2-6,4.7-8.3c0.4-0.4,1.1-0.3,1.4,0.1
			c0.4,0.4,0.3,1.1-0.1,1.4c-2.3,2-3.6,4.2-4,7.1c0,0.3,0,0.5,0,0.5c0,0,0.1,0,0.2,0c0.8-0.1,1.6-0.4,2.5-0.7
			c0.4-0.1,0.8-0.3,1.2-0.4c0.5-0.2,1.1,0.1,1.3,0.6c0.2,0.5-0.1,1.1-0.6,1.3c-0.4,0.1-0.7,0.3-1.1,0.4c-0.9,0.4-1.9,0.7-3,0.9
			C201.7,95.2,201.5,95.2,201.4,95.2z"/>
	</g>
	<g>
		<path d="M32.2,6.7c-0.2,0-0.3,0-0.5-0.1c-3.2-1.8-6.1-3.4-9.3-4.6c-0.5-0.2-0.8-0.8-0.6-1.3s0.8-0.8,1.3-0.6
			c3.3,1.3,6.3,2.9,9.6,4.8c0.5,0.3,0.6,0.9,0.4,1.4C32.9,6.5,32.6,6.7,32.2,6.7z"/>
	</g>
	<g>
		<path d="M132.4,47.4c-0.1,0-0.1,0-0.2,0c-0.5-0.1-0.9-0.6-0.8-1.2c0.1-0.3,0.1-0.5,0.2-0.8c0.1-0.3,0.2-0.7,0.2-0.9
			c-1-3.8,0.9-6.5,2.8-8.6c0.4-0.4,1-0.4,1.4-0.1s0.4,1,0.1,1.4c-1.9,2.1-3.1,4.1-2.4,6.8c0.2,0.7,0,1.4-0.2,2
			c-0.1,0.2-0.1,0.4-0.2,0.6C133.3,47,132.8,47.4,132.4,47.4z"/>
	</g>
	<g>
		<path d="M92.1,32c-0.5,0-0.9-0.4-1-0.9C91.1,30.5,91.5,30,92,30c2.7-0.4,4.5-1.2,5.8-2.7c0.4-0.4,0.9-0.5,1.4-0.6
			c0.1,0,0.2,0,0.3-0.1c0.5-0.2,1.1,0.1,1.3,0.6c0.2,0.5-0.1,1.1-0.6,1.3c-0.2,0.1-0.4,0.1-0.5,0.1c-0.1,0-0.3,0.1-0.4,0.1
			c-2.1,2.3-5,3-7,3.2C92.2,32,92.2,32,92.1,32z"/>
	</g>
	<g>
		<path d="M128.5,31.5c-0.4,0-0.7-0.2-0.9-0.5c-0.8-1.5-2.2-2.4-3.8-3.3c-1.4-0.8-2.8-1.6-3.8-3c-0.3-0.4-0.3-1.1,0.2-1.4
			c0.4-0.3,1.1-0.3,1.4,0.2c0.8,1,2,1.7,3.3,2.5c1.7,1,3.5,2,4.5,4.1c0.3,0.5,0.1,1.1-0.4,1.3C128.8,31.5,128.7,31.5,128.5,31.5z"/>
	</g>
	<g>
		<path d="M200.9,89.3c-1.8,0-2.9-1-3.3-3c-0.1-0.6-0.2-1.1-0.3-1.7c-0.5-2.3-0.9-4.7-0.9-7.1c0-0.5,0.5-1,1-1c0,0,0,0,0,0
			c0.6,0,1,0.5,1,1c0,2.2,0.4,4.4,0.9,6.7c0.1,0.6,0.2,1.1,0.3,1.7c0.2,1.2,0.6,1.4,1.6,1.3c0.5,0,1,0.4,1.1,0.9
			c0,0.6-0.4,1-0.9,1.1C201.2,89.3,201.1,89.3,200.9,89.3z"/>
	</g>
	<g>
		<path d="M69,14.1C68.9,14.1,68.9,14.1,69,14.1c-0.4,0-0.7-0.2-0.9-0.5l-2.9-4.8c-0.3-0.5-0.1-1.1,0.3-1.4c0.5-0.3,1.1-0.1,1.4,0.3
			l2.2,3.6l3-3.7c0.3-0.4,1-0.5,1.4-0.1c0.4,0.3,0.5,1,0.1,1.4l-3.9,4.8C69.6,13.9,69.3,14.1,69,14.1z"/>
	</g>
	<g>
		<path d="M176.4,64c-0.5,0-1-0.4-1-0.9c0-0.6,0.4-1,0.9-1.1c0.9-0.1,1.1-0.5,1.5-1.7c0.2-0.6,0.4-1.2,0.8-1.7
			c0.3-0.5,0.9-0.6,1.4-0.2c0.5,0.3,0.6,0.9,0.2,1.4c-0.2,0.3-0.3,0.7-0.5,1.2C179.4,62.1,178.8,63.9,176.4,64
			C176.5,64,176.5,64,176.4,64z"/>
	</g>
	<g>
		<path d="M194.8,86.3c-0.6,0-1.5-0.4-1.7-1.1c-0.1-0.2-0.5-1.5,0.2-2.2c0.7-0.8,1.5-1.6,2.2-2.3c0.3-0.3,0.5-0.5,0.8-0.8
			c0.4-0.4,1-0.4,1.4,0s0.4,1,0,1.4c-0.3,0.3-0.5,0.5-0.8,0.8c-0.7,0.7-1.4,1.3-2,2c0,0,0,0.1,0,0.1c0.6-0.1,1.2-0.3,1.8-0.5
			l0.8-0.2c0.5-0.2,1.1,0.2,1.2,0.7c0.2,0.5-0.2,1.1-0.7,1.2l-0.8,0.2c-0.7,0.2-1.5,0.4-2.3,0.6C195,86.3,194.9,86.3,194.8,86.3z"/>
	</g>
	<g>
		<path d="M138.8,40.1c-0.3,0-0.5-0.1-0.7-0.3c-0.3-0.3-0.7-0.6-1.1-0.9c-1-0.8-2-1.7-2.4-2.9c-0.4-1.1,0.3-2.3,1-3.4
			c0.2-0.4,0.5-0.8,0.6-1.1c0.2-0.5,0.8-0.7,1.3-0.5c0.5,0.2,0.7,0.8,0.5,1.3c-0.2,0.4-0.5,0.9-0.7,1.3c-0.3,0.5-0.9,1.5-0.8,1.8
			c0.2,0.7,1,1.4,1.8,2c0.4,0.3,0.8,0.7,1.2,1.1c0.4,0.4,0.4,1,0,1.4C139.3,40,139,40.1,138.8,40.1z"/>
	</g>
	<g>
		<path d="M101.6,38.4c-0.1,0-0.3,0-0.4-0.1c-0.5-0.2-0.7-0.8-0.4-1.3c0.1-0.2,0.2-0.4,0.3-0.6c0.2-0.3,0.4-0.7,0.5-1
			c0-0.2,0.1-0.3,0.1-0.5c0.1-0.7,0.3-2.1,2-2.4c0.5-0.1,1.1,0.3,1.2,0.8c0.1,0.5-0.3,1.1-0.8,1.2c-0.2,0-0.3,0.1-0.4,0.7
			c0,0.2-0.1,0.5-0.1,0.7c-0.1,0.5-0.4,1-0.6,1.4c-0.1,0.2-0.2,0.3-0.3,0.5C102.3,38.2,101.9,38.4,101.6,38.4z"/>
	</g>
	<g>
		<path d="M147.8,36.7c-0.3,0-0.6-0.1-0.8-0.4c-0.3-0.4-0.2-1.1,0.2-1.4l3.4-2.6c0.4-0.3,1.1-0.2,1.4,0.2c0.3,0.4,0.2,1.1-0.2,1.4
			l-3.4,2.6C148.2,36.6,148,36.7,147.8,36.7z"/>
	</g>
	<g>
		<path d="M170,32.4c-0.2,0-0.3,0-0.5-0.1l-3-1.7c-0.5-0.3-0.6-0.9-0.4-1.4c0.3-0.5,0.9-0.6,1.4-0.4l3,1.7c0.5,0.3,0.6,0.9,0.4,1.4
			C170.7,32.2,170.4,32.4,170,32.4z"/>
	</g>
</g>
</svg>
