<?xml version="1.0" encoding="utf-8"?>
<!-- Generator: Adobe Illustrator 18.0.0, SVG Export Plug-In . SVG Version: 6.00 Build 0)  -->
<!DOCTYPE svg PUBLIC "-//W3C//DTD SVG 1.1//EN" "http://www.w3.org/Graphics/SVG/1.1/DTD/svg11.dtd">
<svg version="1.1" id="Layer_1" xmlns="http://www.w3.org/2000/svg" xmlns:xlink="http://www.w3.org/1999/xlink" x="0px" y="0px"
	 viewBox="0 0 514.7 575.2" enable-background="new 0 0 514.7 575.2" xml:space="preserve">
<g>
	<g>
		<path d="M172.5,39.7c-2.3,2.5-4.6,4.9-6.8,7.4c-0.3,0.3-0.2,1.1,0,1.6c0.7,1.8,1.5,3.6,2.4,5.2c2.8,4.8,0.1,9.7,0,14.5
			c0,0.4-1.6,1.4-2.2,1.2c-3.6-1.2-7.9-0.5-10.2-4.7c-0.4,0.7-0.5,0.8-0.5,0.9c-0.1,9.5-7.2,11.9-14.3,14.3c-2,0.7-2.7-0.2-2.6-2.4
			c0.1-2.7,0-5.5-0.5-8.4c-0.7,2-1.7,3.9-2,5.9c-0.8,5.1-8.3,12.3-14.2,12.8c-0.9,0.1-2,0-2.8-0.3c-2.2-0.7-2.5-2.2-0.8-3.9
			c3.8-3.7,5.9-8.4,8.2-12.9c2-3.8,3.4-8.1,9.1-10c-1.5-0.6-2-0.8-2.4-1c-2.5-1.4-3-2.7-1-4.3c4-3.4,5.4-7.7,6-12.6
			c0.6-4.8,2.3-9.3,5.6-13.1c0.8-0.9,0.6-2.6,0.9-4.1c-0.7,0-1.1-0.2-1.2-0.1c-3.4,5.2-9.5,7.4-13.3,12.2c-0.1,0.1-0.2,0.3-0.4,0.3
			c-7.7,3.4-13.3,10-20.8,13.8c-2.4,1.2-4.5,1.4-6.8-0.2c-1.5-1.1-2.1-0.9-2.3,0.7c-0.3,2.4-0.5,4.8-1,7.1c-0.3,1.6-0.9,3.1-1.4,4.6
			c5,0.5,7.5-1,9.2-5.3c0.6-1.5,1.2-2.9,2-4.3c0.1-0.2,0.8-0.2,1.2-0.1c0.2,0,0.4,0.5,0.3,0.8c-0.7,6.9-6.5,11.9-13.1,11.5
			c-2-0.1-2.7-0.9-2.2-2.8c0.4-1.2,1-2.4,1.6-3.5c1.3-2.9,1.3-2.9,0.7-7.1c-2.8,0.8-5.5,1.5-8.3,2.2c-0.6,0.2-1.3,0.4-1.9,0.3
			c-0.5-0.1-1.1-0.7-1.4-1.2c-0.1-0.2,0.2-0.9,0.6-1.1c2.7-1.8,4.3-4.5,5.1-7.4c0.8-3,2.4-5.5,3.6-8.3c1.4-3.3,3.7-5.1,7-5.9
			c0.6-0.1,1.2-0.4,2.4-0.7c-1.4-0.3-2.4-0.2-3-0.6c-2.3-1.5-2.3-1.6-3.9,0.1c-1.6,1.6-3.3,3.1-4.8,4.8c-1.8,2-4.2,2.9-6.7,3.6
			c-1.8,0.5-2.4-0.1-2.1-1.8c0.4-2.3,1-4.6,1.6-7.3c-1.1,0.5-2.2,1.1-3.3,1.4c-2.1,0.5-2.7,1.6-2.7,3.7c-0.1,4.9-2.9,8.4-6.4,11.5
			c-1.2,1-2.3,1.1-3.5,0.1c-1.8-1.6-3.7-3.1-4.1-5.7c-0.4-2.7-1.1-5.3-1.6-8c-0.3-1.7-2.5-2.8-3.9-1.8c-0.3,0.2-0.5,0.8-0.4,1.2
			c0.3,1.6,0.9,3.1,1.2,4.6c0.7,3,0.9,6.1-0.8,8.9c-0.9,1.4-1.9,1.8-3.1,0.6c-1.7-1.7-3.4-3.5-5-5.2c-1.1-1.2-2.5-1-3.1,0.5
			c-0.8,2.1-1.4,4.3-2.4,6.3c-1.3,2.7-1.9,2.8-4,0.4c-1.6-1.8-3.1-3.7-4.4-5.7c-1.8-2.9-3.3-5.9-5-8.8c-0.8-1.5-1-2.9-0.3-4.6
			c0.7-1.7,0.9-3.6,1.6-6.4c-2.9,2.3-4.7,4-5.8,6.4c-1.8,4-3.6,7.9-5.4,11.9c-0.4,0.8-0.8,2-0.5,2.7c1,2.3,0.7,4.4-0.1,6.6
			c-0.1,0.4,0.2,1.3,0.3,1.3c0.5,0,1.4,0,1.6-0.4c1.9-3,3.7-6,5.5-9c0.5-0.8,0.9-1.6,1.4-2.4c0.1-0.1,0.6,0,0.8,0
			c0.1,0,0.2,0.2,0.3,0.4c0,0.1-0.1,0.3-0.1,0.5c-1.5,5.4-4.1,10.1-8.7,13.5c-0.7,0.5-1.8,0.7-2.6,0.5c-0.4-0.1-0.8-1.4-0.7-2.1
			c0.7-3.2,0.9-6.2,0.1-9.5c-0.4-1.4,1-3.2,1.8-5.6c-3.6,2.1-6.8,3.6-9.7,5.6C9,45.8,5.3,45.8,1.4,45.5c-1.3-0.1-1.8-1-1-2
			c2.9-3.2,5.8-6.4,8.9-9.5c1.5-1.5,4.2-1.8,4.8-4.3c-2-0.5-3.9-1.1-5.9-1.6c-0.6-0.2-1.3-0.1-1.9-0.3c-1.8-0.7-2.1-2.7-0.5-3.7
			c4.7-3,9.3-6.4,14.3-8.9c3.7-1.9,7.8-1.2,11.7,0.1c1.4,0.5,2.8,1.3,4.5,1.3c-0.9-0.7-1.8-1.8-2.9-2.2c-2.7-1-3.8-3.3-5-5.6
			c-0.9-1.8-0.6-3.2,1-4.2C30.8,4,32.4,3.1,33.9,3c2.3-0.1,3.1-1.4,3.8-3c0.6,0,1.3,0,1.9,0c-2,4.1-2,4.1,2.2,5.4
			c1.4,0.4,3.1,0.6,3.9,1.5c1.9,2.1,2.9,0.5,4.1-0.5c2.1-1.7,2.4-4,2.4-6.4c0.6,0,1.3,0,1.9,0c0.6,2.8-1,5.1-2.7,7.6
			c2.1-0.4,3.3-0.9,3.8-2.5c0.2-0.5,1.2-0.8,1.8-1.1c0,1.1,0.1,2.2,0.1,3.4c0,1.2,0.2,2.2,1.7,2.4c3.3,0.3,4.4,2.5,4.9,5.4
			c0.1,0.6,0.3,1.2,0.4,1.5c2.9-0.6,5.5-1.1,8.4-1.6c-0.7-1.8-1.3-3.4-2-5c-0.2-0.4-0.6-0.7-0.9-0.9c-4.8-2.6-6-4.2-6.7-9
			c5.8,0,11.6,0,17.4,0c0.3,0.9,0.6,0.6,1,0c0.6,0,1.3,0,1.9,0c0.3,2.6,2.5,2.5,4.2,3.1c2.2,0.7,2.2,0.7,2.5-1.6
			c0.1-0.5,0-1,0.1-1.4C91,0,92,0,93,0c-0.3,1-1.5,2.2-0.2,3c3.2,2,6.4,3.9,9.8,5.6c1.3,0.6,2.4-0.1,3.2-1.9
			c1.3-2.8-0.3-4.6-1.2-6.7c1.3,0,2.6,0,3.9,0c-0.3,2.3-0.6,4.6-0.8,7c0,0.4,0.1,1,0.4,1.2c0.2,0.1,0.9,0,1.1-0.3
			c2.7-2.6,5.3-5.3,7.9-7.9c1,0,1.9,0,2.9,0c-1.2,1.3-2.2,2.8-3.6,3.8c-3.3,2.4-6,5.3-8.2,8.7c-1,1.6-1.9,3.4-3.1,4.9
			c-2.6,3.1-2.7,6.7-2.4,10.5c0.1,1.1,1,1.3,1.7,0.7c1.8-1.6,3.3-3.6,5.3-4.9c4.2-2.6,6.6-6.5,9-10.4c2.4-3.9,4.3-7.9,2.2-12.6
			c-0.1-0.1,0-0.3,0-0.5c0.6,0,1.3,0,1.9,0c0.1,0.6-0.1,1.4,0.2,1.9c1.5,2.9,0.7,5.4-0.7,8.1c-1,1.8-1.6,3.7-2.4,5.6
			c-0.3,0.3-0.7,0.6-1,0.9c-3.2,3.4-6.4,6.7-9.4,10.2c-1.9,2.2-2.8,4.8-2.9,8.7c4-3.5,7.9-5.8,9.5-10.2c1.1-2.8,1.9-5.7,2.9-8.6
			c0.3-0.3,0.6-0.7,0.9-1c2-2.6,4.2-5,6.1-7.7c0.5-0.7,0.5-2.4,0-2.9c-1.3-1.5-1.4-3.1-1.2-4.9c0.6,0,1.3,0,1.9,0
			c0.9,5.1,1.1,5.3,5.5,3.5c2-0.8,4.6-0.6,5.2-3.5c1,0,1.9,0,2.9,0c-0.8,2.5-2.4,4.1-4.9,4.8c-3.4,1-6.3,2.9-8.6,5.6
			c-3.9,4.6-8,9.2-9.1,15.5c-0.3,1.5-0.2,3.1-0.2,4.6c1.4-0.6,2.9-1,4.1-1.8c3.5-2.3,6.1-5.5,8.8-8.7c2.3-2.7,4.3-5.4,5.7-8.7
			c1.2-2.8,2.8-5.4,4.2-8.1c0.5-1,0.6-2.1,0.9-3.1c2.6,0,5.2,0,7.8,0c0.8,0.5,1.5,1.1,2.3,1.5c0.3,0.1,0.7-0.1,1.1-0.2
			c-0.2-0.4-0.3-0.9-0.5-1.3c1,0,1.9,0,2.9,0c-0.2,3.6,0.4,7,2.3,10.1c1.1-1.6,2-3.3,3.3-4.6c1.7-1.6,2.2-3.4,2.1-5.6
			c1.6,0,3.2,0,4.8,0c-2,2.2-2.6,4.3,0.1,6.5c0.6,0.5,0.7,1.7,0.9,2.6c0.5,2.6,0.9,5.2,1.4,8c3.6-4.2,5.4-9.1,7.5-13.9
			c0.4-0.9-0.1-2.1-0.2-3.2c1.6,0,3.2,0,4.8,0c-0.7,5.4,1.3,9.9,4.2,14.4c1.5,2.3,2.8,2.7,4.7,0.4c3.6-4.2,6.4-8.8,5.6-14.8
			c0.3,0,0.6,0,1,0c1.6,2.3,1.7,4.7,0.4,7.1c-0.9,1.7-1.7,3.4-2.5,5.2c-0.2,0.5-0.2,1.1-0.2,1.7c0.7-0.2,1.5-0.2,2-0.7
			c1.6-1.5,3.1-3.2,4.8-4.6c2.9-2.4,4.2-5.1,2.4-8.8c1.6,0,3.2,0,4.8,0c-0.9,4.4-3.4,7.9-6.4,11.2c2.3-0.2,4.2-0.5,6-0.6
			c1.3-0.1,2.6,0,3.8,0c1.3-0.1,2.1-0.8,2.2-2.1c0.4-2.8,0.8-5.7,1.1-8.5c0.3,0,0.6,0,1,0c0.5,5.1,0.3,10.1-2.4,14.8
			c-0.6,1.1-0.2,2.8-0.1,4.2c0,0.3,1.1,0.9,1.4,0.7c3.5-2,7.5-10.5,5.1-14.4c-1-1.6-1.4-3.5-2.1-5.3c1,0,1.9,0,2.9,0
			c-1,1.7-0.5,3.1,1.3,3.7c2.5,0.9,5.1-0.8,6.5-3.7c0.6,0,1.3,0,1.9,0c-0.9,2.5-2.2,4.4-5.1,5.2c-2.8,0.8-2.7,1.1-1.9,5.1
			c3-3.3,6.8-5.4,10.8-6.9c1.7-0.6,2.1-1.8,2-3.4c0.6,0,1.3,0,1.9,0c0.3,0,0.6,0,1,0c1.3,0,2.6,0,3.9,0c-1.7,1.4-2.2,4.1-5.1,4.4
			c-0.6,0.1-1.3,2.4-1.5,3.7c-0.2,1,0.4,2,0.8,3.7c-4.5-2-7.9-0.9-11.2,1.5c-0.6,0.5-1.4,0.7-2.2,1.1c-5.4,2.4-8.6,6.9-11,12.1
			c-1.2,2.7-0.5,3.3,2.4,2.8c9.1-1.6,15.9-7.1,22.9-12.5c0.4-0.3,0.8-1.3,0.7-1.6c-0.9-1.6-0.4-1.8,1.2-2.3c1.2-0.4,2.3-1.9,2.8-3.1
			c1.6-3.8,4.3-6.7,6.9-9.7c1,0,1.9,0,2.9,0c-0.6,0.7-1,1.6-1.7,2.2c-2.9,3-6.4,5.6-6.3,10.5c0,0.5-1.1,1-1.7,1.4
			c-1.4,0.8-2.9,1.4-2.9,3.4c-0.1,0.1-0.3,0.1-0.4,0.2c-0.1,0.1-0.1,0.2-0.1,0.3c0.2-0.2,0.3-0.3,0.5-0.5c6.8-2.6,12.3-7,17.3-12.1
			c1.5-1.6,2.7-3.5,4-5.3c1,0,1.9,0,2.9,0c-2.6,3.8-5.3,7.5-9.2,10.4c4.9-0.8,9.7-1.3,14.1-3.7c2.8-1.5,4.7-3.7,5.7-6.7
			c2.6,0,5.2,0,7.8,0c-2.8,1.5-5.7,2.7-7.3,5.8c-0.3,0.7-1.7,0.7-2.5,1.2c-2.5,1.4-5.6,2.4-7.3,4.5c-3.3,4.1-5,9.2-6.7,14.6
			c3.5-1.2,5.9-2.9,8.1-5.1c2.4-2.3,5.1-4.4,7.8-6.4c3.3-2.4,6.7-4.4,7.5-8.9c0.2-1.1,1.5-2.1,2.1-3.2c0.5-0.8,0.8-1.7,1.2-2.6
			c0.6,0,1.3,0,1.9,0c0.4,3-1.8,5-2.9,7.4c-0.8,1.7-1.3,3.5-2,5.2c-0.1,0.1-0.3,0.1-0.4,0.2c-0.1,0.1-0.1,0.2-0.1,0.3
			c0.2-0.2,0.3-0.3,0.5-0.5c3.5-1.6,6.9-3.1,10.4-4.8c3.3-1.6,5.8-3.9,6.1-7.8c0.6,0,1.3,0,1.9,0c0,0.3-0.1,0.6,0,0.9
			c0.2,0.5,0.5,0.9,0.7,1.4c0.3-0.3,0.7-0.6,0.9-1c0.2-0.4,0.2-0.9,0.3-1.3c0.6,0,1.3,0,1.9,0c0,1.6,0.1,3.2,0,4.8
			c-0.2,2.8,0.9,4.9,3,6.8c0.6-2.8,0.7-2.7,3.1-4.8c2.4-2,5.5-3.4,6.5-6.8c0.6,0,1.3,0,1.9,0c-1.2,3.2-2.6,6.3-5.6,8.3
			c-0.6,0.4-1.1,1.2-1.3,1.9c-1.3,4.4-1.3,8.8-0.1,13.2c0.6,2.1,2.2,2.3,3.6,0.6c2.9-3.5,5.4-7.2,6.2-11.7c0.3-1.7,0.6-3.8-0.1-5.1
			c-1.5-2.5-0.9-4.8-0.8-7.3c0.6,0,1.3,0,1.9,0c0.4,1.7,0.7,3.4,1.1,5.1c0.2,0.9,0.9,1.9,0.7,2.7c-0.5,3,1.6,4.7,3,6.7
			c0.9,1.2,1.7,0.6,2.3-0.2c3-4,3.2-10.1,0.5-14.4c1,0,1.9,0,2.9,0c0.4,1.5,0.9,3,1.3,4.6c0.2,1,0.4,2,0.6,3c1-0.5,2.1-0.8,3-1.4
			c2.2-1.4,3.3-3.4,2.9-6.1c5.8,0,11.6,0,17.4,0c-1.4,0.6-2.8,1.1-4.4,1.8c6.5,4,8.7,8.3,8.1,15.6c2.9-1,3.9-3.7,5.4-5.9
			c2.5-3.6,0.8-8.6-3.3-10.5c-0.4-0.2-0.7-0.6-1-0.9c1.6,0,3.2,0,4.8,0c1,2.1,2.4,4.1,2.8,6.3c0.4,2,1.3,3.4,3,4.4
			c0.1,0.1,0.1,0.3,0.2,0.4c0.1,0.1,0.2,0.1,0.3,0.1c-0.2-0.2-0.3-0.3-0.5-0.5c-0.4-3.6-1.4-7.1,0-10.7c1,0,1.9,0,2.9,0
			c-1.9,3.4-1.3,6.8-0.2,10.4c0.9,3.1,2.9,5,5.6,6.2c1.6,0.8,3.5,2.3,5.3,1.1c2-1.3,0-3.2,0-4.9c0-2.5-0.7-5.4-2.6-6.4
			c-2.3-1.2-1.9-2.3-1.4-4c0.2-0.7,0.1-1.6,0.1-2.4c0.6,0,1.3,0,1.9,0c0.4,3.4,2.3,5.8,4.7,8.1c4,3.9,9,5.2,14.2,6.3
			c1.5,0.3,2.4-0.5,2.9-1.9c0.7-1.9,0.8-4-0.5-5.5c-1.8-2.1-2.6-4.7-3.8-7c0.6,0,1.3,0,1.9,0c0.6,1.1,1,2.5,1.9,3.3
			c2.6,2.2,3.7,5,4.4,8.3c0.9,3.8,2.6,7.5,6,9.5c3,1.8,6,3.7,10.1,3.5c5.2-0.2,6.5-1.2,4.5-5.9c-0.3-0.7-0.8-1.3-1.2-2.1
			c-0.9-1.9-1.9-3.7-2.6-5.7c-0.9-2.7-2.7-4.6-5-6.2c-3-2-6.2-3.3-9.4-4.7c2.3,0,4.5,0,6.8,0c2.3,2.4,2.4,2.4,5.8,0c1,0,1.9,0,2.9,0
			c-0.9,0.8-1.9,1.6-2.8,2.4c-0.3,0.3-0.7,1-0.6,1.1c1.3,2,2.7,3.9,4.1,5.8c0.1,0.1,0.6-0.1,0.9-0.1c4.2-0.1,7.5,1.8,9.8,5
			c2.1,2.9,5.1,4.3,7.7,6.3c0.4,0.3,1.4,0.4,1.7,0.1c1.7-1.4,2-6.9,0.4-8.6c-1.9-2-4-3.7-6.1-5.5c-3.7-3.2-7.4-3.4-10.9,0.3
			c-0.2,0.2-0.7,0.6-0.7,0.5c-0.4-0.3-0.7-0.6-0.9-1c-0.3-0.4-0.4-0.9-0.7-1.1c-0.7-0.4-1.5-0.5-2.1-0.9c-0.2-0.1,0-1.4,0.2-1.4
			c1.1-0.2,2.2-0.2,3.3-0.3c1.7-0.2,2.6-1.1,2.6-2.9c1,0,1.9,0,2.9,0c2.4,1.6,4.7,3.2,7,4.9c1.9,1.4,3.9,2.8,5.7,4.4
			c1.4,1.3,2.2,3.5,3.7,4.3c1.3,0.7,3.4-0.3,5,0c1.1,0.2,2.4,1.2,2.8,2.1c1.1,2.4,1.3,5.4,2.8,7.6c1.3,2.1,3.8,3.4,5.6,5.2
			c0.9,0.9,1.3,2.2,1.8,3.4c1,2.2,2,3.8,5,4.2c2.6,0.4,5,2.8,7.4,4.3c1.5,0.9,2.3,0.6,2.4-1.1c0.1-1.1-0.1-2.1-0.2-3.7
			c2.3,1.7,2.3,3.7,2.4,5.7c0.2,6.5,2.1,9,8.5,11.4c0.2-3.6,0.8-7-2.7-9.7c-1.2-0.9-2-2.6-2.4-4.1c-1.2-5.4-5.6-6.2-9.9-6.8
			c-2.5-0.3-5.1,0.4-7.6,0.6c-0.4,0-0.8-0.3-1.2-0.5c0.2-0.4,0.3-1,0.6-1.1c3.3-1.7,6.9-1.4,10.4-0.7c1.9,0.4,3.6,1.4,5.4,2.1
			c2.2,0.9,3.4,2.4,4,5c0.5,2,2.1,3.9,3.6,5.5c1.4,1.5,2.2,3,2.1,5.1c-0.1,1.9,0.1,3.9,0,5.8c0,1,1.6,2.2,0,2.9
			c-0.6,0.3-1.7-0.5-2.6-0.9c-0.4-0.2-0.7-0.7-1.2-0.8c-1.1-0.5-2.3-1-3.5-1.4c0.1,1.2,0.2,2.4,0.2,3.6c0,0.2,0,0.3,0.1,0.5
			c0.2,2.5-0.4,5.5,0.7,7.5c1.1,2,3.7,3.6,6,4.6c3.7,1.7,4.7,4.9,4.8,8.2c0.2,4.3,1.5,8.2,3.1,12c0.6,1.5,0.4,2.4-1.1,3
			c-1.9,0.9-6.3,6.2-7.1,8.4c-0.7,1.9-1.2,2.2-3.2,1.3c-2.1-1-4.1-1.4-6.7-1.4c-2.7,0.1-5.5-2.1-8.5-3.3c0.6,2.6,1,5.2,2.7,7.5
			c0.6,0.8,0.8,2.2,0.6,3.2c-0.5,2.7-1.1,5.4-2.1,7.8c-0.7,1.8-0.4,3.1,1,3.6c3.6,1.2,7,3.4,11,2.8c2.4-0.3,3.1-1.5,1.7-3.6
			c-1.8-2.6-4-5-5.9-7.6c-2.2-3-4.2-6.1-6.2-9.2c-0.2-0.4,0.1-1.1,0.2-1.6c0.4,0.2,1,0.3,1.2,0.6c2.2,3,4.3,6,6.5,9
			c1.3,1.8,2.9,3.4,4.3,5.2c0.7,0.9,1.3,1.9,1.8,2.9c0.8,1.7,2.2,3.6,0.5,5.3c-1.5,1.5-3.6,2.1-5.8,1.6c-1.5-0.3-3.1-0.7-5-1.2
			c1.3,4.7,0.7,9.3,0.7,13.9c0,2-1.1,2.7-2.8,1.7c-1.9-1.1-3.6-2.6-5.6-4c-0.3,0.9-1.1,1.9-0.8,2.6c0.2,0.7,1.3,1.3,2.2,1.6
			c3.2,1.5,6.5,2.7,9.6,4.3c4.2,2.2,5.3,5.3,4,10.1c-0.5,1.8-1,3.7-1.6,5.5c-0.8,2.6-1.1,5.2-0.4,8c0.4,1.7-0.6,4.2-1.8,5.6
			c-1.2,1.4-2.9-0.5-4.2-1.2c-2.6-1.5-4.2-3.8-4.3-7c-0.3-5.3-0.6-10.6-1-15.9c-0.3-4.2-3.1-6.8-6.2-9.1c-1-0.7-2.2-1.2-3.5-1.8
			c-0.9,3.3-1.7,6.7-2.8,9.9c-0.6,1.8-1.5,3.6-2.5,5.2c-1,1.5-2.3,1.5-3.4,0c-0.8-1.2-1.6-2.5-1.9-3.8c-0.9-3.5-1.7-7.1-2.5-11
			c-0.4,0.2-0.8,0.6-1.3,0.8c-2.1,0.9-3.1,0.6-3.8-1.3c-1.2-3.1-2.7-6.2-2.2-9.8c0.2-1.7,0-3.4-0.6-5.3c-0.3,0.9-1.1,1.9-0.8,2.6
			c1.3,4-1.1,7.2-2.3,10.5c-1.2,3-6.6,5.4-9.8,4.9c-3-0.4-3.7-2.3-2.5-5c1.1-2.6,2.3-5.4,2.4-8.2c0.3-4.5,2-8,5.3-11
			c0.6-0.5,1.1-1.1,1.7-1.7c2-2.1,2.1-2.2-0.7-3.6c-1.7-0.8-2.5-1.9-2.3-3.8c0.3-2.2,0.4-4.5,0.9-6.6c0.9-3.9,1.8-7.8,2.9-11.6
			c0.5-1.8,1.6-3.4,2.3-5.1c0.3-0.9,0.5-1.8,0.6-2.8c0.1-1.6,0.1-3.2,0-4.8c-0.1-1.4,0.2-3.6-0.6-4.1c-1.5-1-2.1,1.3-3.3,1.9
			c-1.1,0.6-2.3,0.9-3.4,1.4c-1.3,0.6-2.3,1.8-1.4,2.9c1.4,1.8,1,3.7,1.1,5.5c0.1,1.8-0.2,3.7,0.4,5.3c1,2.8,0,5.1-1,7.4
			c-1.3,3.1-3.4,5.8-5.1,8.8c-1.8,3.1-4.4,5.1-7.9,5.7c-1.9,0.3-3.1,1.2-4.6,2.3c-3.3,2.6-6.8,4.8-10.3,7.2
			c-0.2,0.2-0.8,0.2-0.9,0.1c-0.2-0.3-0.5-0.9-0.4-1.2c0.7-3.3,1.4-6.6,2.4-9.8c1.9-6.4,5.8-11.4,11.3-15.1c2.4-1.6,3.8-3.8,5.4-6
			c3.2-4.6,6.3-9.3,8.9-14.3c1-2,1.5-4,1.2-5.9c-0.5-3.9-0.6-7.6,0.5-11.4c0.1-0.4-0.1-0.9-0.2-1.4c-2.3,0.9-2.5,2.7-2.5,4.7
			c0,4.2,0.2,8.3-0.9,12.5c-1,3.5-2.3,6.7-4.9,9.3c-0.5,0.5-1.4,1.2-1.9,1c-0.8-0.3-1.8-1.1-1.9-1.8c-0.6-3.3-0.9-6.7-1.2-10
			c-0.2-1.7-0.1-3.4-0.1-5.4c-3.3,2.9-6,5.6-9.1,7.8c-2.3,1.6-5.1,2.6-7.8,3.6c-2.2,0.8-3.4,0-3.9-2.3c-0.3-1.5-0.2-3.2,0-4.8
			c0.2-1.4,0.5-2.9,1.1-4.2c0.9-2.2,0.5-4.1-1.4-6.1c-1.1,2.6-2.6,4.5-2.1,7.8c0.5,3-1.3,6.5-2.3,9.7c-0.3,1-1.5,1.3-2.4,0.6
			c-1.5-1.2-2.8-2.4-4.7-4c0.3,1.4,0.7,2.6,0.8,3.7c0.2,1.6-0.5,2.1-2.2,2.2c-2.7,0.1-5.4,0.4-8.1,0.8c-0.3,0-0.7,0.8-0.7,1.3
			c-0.7,5.1-1.1,10.2,0.4,15.3c0.2,0.7,0.3,1.5,0.4,2.2c-2.9,1.2-5.7,1.5-9-1.2c0.9,3.4,1.5,5.8,2.2,8.2c0.5,1.8-0.2,2.8-1.7,2.1
			c-3.1-1.6-4.7,1-6.9,1.8c-1.1,0.4-1.3,1.1-0.9,2.3c2.4,6.1,2,12.6,3,18.9c0.1,0.7-0.4,1.5-0.7,2.2c-0.5,1-1.1,1-1.9,0.2
			c-0.9-1-0.9-3.4-2.7-2.8c-2.1,0.7-1,3.1-1,4.7c0,2.2,0.7,4.4,0.7,6.7c0,0.7-0.9,1.9-1.5,1.9c-2.1,0.1-2.3,1.3-2.3,2.9
			c0.1,1.6-0.1,3.3,0.1,4.8c1.2,8.3,0.3,16.5-1.7,24.6c-0.2,0.6-0.3,1.3-0.3,1.9c-0.3,5-0.6,9.9-1,14.9c-0.1,1.1-0.4,2.2-0.5,3.3
			c-0.5,3.6-0.8,7.3-1.4,10.9c-1.4,8.2-0.9,16.6-2.6,24.8c-0.7,3.6-0.8,7.5-0.6,11.4c0.4,6.9,0.9,13.8-0.5,20.7
			c-0.7,3.6,0,7.4-0.3,11.1c-0.4,5.6-1.1,11.1-1.7,16.7c-0.1,0.8-0.1,1.6-0.1,2.4c0,10.7-2.3,21-4.3,31.4
			c-1.1,5.7-2.8,11.2-2.6,17.1c0,0.9-0.4,1.9-0.5,2.8c-0.5,3.8-1.3,7.6-1.3,11.4c0,9.6-2.1,18.8-4.3,28c-1.3,5.3-2.8,10.6-3.2,15.9
			c-0.4,5.6-2.4,10.6-3.6,15.9c-1.4,6.2-3.4,12.4-4.8,18.6c-1.9,8.6-3.8,17.2-5.3,25.8c-0.8,5-0.6,10.3-1.2,15.3
			c-0.7,5.4-0.5,10.9-2.3,16.1c-2.7,8.2-1.7,16.1,2.1,23.8c1,2,2,4,3.2,6.2c4.9-6.8,11.8-9.7,19.4-11.5c-0.8,0.8-1.5,1.8-2.4,2.5
			c-3.2,2.5-6.4,4.9-9.5,7.4c-0.4,0.3-0.5,1.1-0.8,1.7c-0.3,0.3-0.7,0.6-1,0.9c-0.4,0.1-0.8,0.2-1.2,0.3c0.1,0.2,0.2,0.3,0.3,0.5
			c0.3-0.2,0.7-0.5,1-0.7c0.3-0.3,0.6-0.7,0.9-1c2.3-0.7,4.6-1.4,6.9-1.9c0.4-0.1,1,0.5,1.5,0.8c-0.2,0.4-0.4,0.9-0.7,1.1
			c-2.8,2.4-5.8,4.6-7.4,8.1c9.1,3.4,18.1,6.7,27,10.2c2.5,1,4.8,2.6,7,4c0.5,0.3,0.7,1.3,0.6,2c0,0.2-1.1,0.6-1.6,0.6
			c-6.7-0.3-13.4-0.6-21.1-1c1.7,1.9,2.8,3,3.7,4.3c0.8,1-0.1,2.7-1.2,2.3c-3-1.1-5.7,0.7-8.5,0.5c-5-0.4-9.9-0.7-14.9-1.1
			c-2.7-0.2-5.4-0.7-8.1-0.8c-4.5-0.1-9-0.1-13.5,0c-3.1,0.1-3.6,0.5-3.6,3.7c-0.1,3.9,0,7.7-0.1,11.6c0,1.3-0.1,2.6-0.4,3.8
			c-0.5,1.9-1.4,2.5-3.8,2.4c-3.5-0.1-6.1-1.2-8.7-3.3c-4.3-3.4-9.4-5.3-14.2-7.8c-5.4-2.8-10.7-5.7-16.1-8.6
			c-0.6-0.3-1.1-0.8-1.7-0.9c-2.3-0.1-3.9-1.3-5.6-2.5c-2.5-1.7-5.3-2.2-8.2-0.7c-0.9,0.4-1.7,0.9-2.7,1.1c-2,0.4-2.6,1.5-2.6,3.4
			c0,0.7-0.5,1.4-0.8,2.1c-0.5-0.7-1-1.4-1.5-2.1c-0.3-0.4-0.6-0.7-1.2-1.3c-0.3,1.7-0.5,3-0.9,4.3c-0.1,0.4-0.9,0.6-1.5,0.7
			c-0.2,0-0.7-0.8-0.6-1.1c0.4-1.7,0.9-3.4,1.3-5.1c0.2-0.6,0.2-1.3,0.2-1.9c0.2-0.3,0.5-0.6,0.7-1c-0.2-0.1-0.3-0.2-0.5-0.3
			c-0.1,0.4-0.2,0.8-0.3,1.2c-2.2,2.7-3.1,5.9-3.9,9.2c-0.1,0.5-0.8,0.8-1.2,1.2c-0.3-0.5-0.8-1.1-0.8-1.6c0-0.9,0.3-1.9,0.4-2.8
			c0.3-1.9-0.1-2.3-2-1.7c-6.6,2.3-13.3,3.5-20.3,3.6c-1.7,0-3.4,0.7-5.1,1.3c-2,0.6-3.5,1.7-3.1,4.2c0.3,2-1.3,2.5-2.6,2.9
			c-1.1,0.4-2.3,0.3-2-1.6c0.1-0.6-0.1-1.2-0.2-1.8c-0.2-1.4-0.4-2.2-2.5-1.6c-4.1,1.1-7.8,2.7-11.4,4.9c-1.6,1-3.4,1.9-5.2,2.5
			c-1.7,0.6-2.9-0.7-2.3-2.3c0.4-1.2,1.2-2.3,1.9-3.4c0.8-1.2,1.9-2.3,2.4-3.6c2.4-6,6.9-10.4,11.7-14.4c3.2-2.6,6.4-5.3,9.6-7.9
			c-5.1-2.8-10.5-2.7-16-2.6c-1.1,0-2.4,0.2-3.3-0.3c-1.5-0.7-4.1-0.2-4.2-2.5c0-0.8,2-1.7,3.2-2.5c2.1-1.4,4.2-3.1,6.5-4.1
			c4-1.7,8.1-2.9,12.2-4.3c1.4-0.5,2.8-0.7,4.2-1.1c3.9-1.2,4.6-2.9,3-6.7c-0.8-1.9-2.1-3.6-3.1-5.4c-0.4-0.8-0.4-1.7-0.6-2.6
			c0.9-0.2,1.9-0.6,2.7-0.5c2.3,0.2,3.5,2.1,4.6,3.9c0.6,1,1,2,1.5,3c0.4,0.8,0.9,1.6,1.8,3.1c1.3-3.2,2.3-5.6,3.3-8.1
			c0.2-0.5,0.6-0.9,0.9-1.4c0.4,0.5,1.1,0.9,1.1,1.4c0.1,3.5,0.3,7.1-0.1,10.6c-0.2,1.7,0.2,1.7,1.5,1.9c3.7,0.6,6.2-2,8.4-3.9
			c4.9-4.1,9.5-8.8,10.9-15.4c0.7-3.4,1.3-6.9,1.4-10.4c0.1-4.2,0.7-8.3,1.7-12.3c1.9-7,3.9-13.9,5.6-20.9c1.7-7.5,3.1-15,3.7-22.7
			c0.6-8.1,2.4-16.1,3.9-24.1c1-5.5,2.4-10.9,3.6-16.4c1.1-4.7,2.2-9.3,3.2-14c1-5,1.9-10,2.6-15.1c0.8-5.5,1.5-11.1,1.8-16.7
			c0.3-5.5,0-11,0.3-16.5c0.3-4.9,1-9.8,1.6-14.8c0.1-1.3,0.2-2.6,0.2-3.9c0.1-7.9,1.4-15.6,2.7-23.3c1.1-6.8,2-13.6,3.2-20.4
			c1.6-9.6,3.4-19.2,5-28.8c0.9-5.5,1.8-11,2.7-16.6c0.4-2.2,0.7-4.4,1.1-6.6c1.1-6.7,1.6-13.3,1.9-20.1c0.2-5.6,1.2-11.1,1.8-16.7
			c0.2-1.8,0.1-3.5,0.1-5.3c0-4.8,0.2-9.7-0.1-14.5c-0.3-4.6-0.6-9.2-2.4-13.7c-3.3,1.7-6.4,3.3-9.5,4.9c-0.8,0.4-1.8,0.6-2.7,0.7
			c-1,0-1.6-1.5-0.9-2.1c3.1-2.6,3.6-6.1,4.2-9.9c0.4-2.4,2.3-4.5,3.5-6.7c0.3-0.6,0.8-1.7,0.5-2c-0.9-0.8-1.7-0.4-2.3,0.6
			c-1.7,3.1-3.5,6.1-5.1,9.2c-1.6,3.3-4.7,4.8-7.5,6.6c-1.3,0.8-2,0.2-2-1.5c0-0.8,0.1-1.6,0.3-2.4c0.8-3.9,0.8-3.9-2.6-5.2
			c-2.5-1-2.5-1.2-0.9-3.2c2.5-3.1,5-6.3,7.4-9.4c0.4-0.5,0.6-1.2,0.5-1.8c-0.8-3.7-2.2-7.1-5.8-9c-0.5-0.3-1.5-0.5-1.7-0.3
			c-0.5,0.6-0.9,1.5-0.8,2.1c0.5,2.5,1.3,4.9,2,7.4c0.3,0.9,0.6,1.8,0.7,2.8c0,0.4-0.4,0.8-0.6,1.2c-0.5-0.3-1.2-0.5-1.3-0.9
			c-1.2-3.6-2.4-7.2-3.6-11c-2.4,3.2-5.8,4.5-9.5,5.2c-0.8,0.2-1.6,0.2-2.4,0.2c-1.3-0.1-1.8-1.3-1-2.4c0.6-0.9,1.5-1.7,2-2.7
			c1.4-2.7,3.1-5.3,2.9-8.6c-0.1-1.2,0.8-2.4,1.3-3.6c0.8-1.9-0.4-3-1.4-4.3c-0.1-0.1-1.3,0.2-1.4,0.5c-1.6,4.7-5.6,6.9-9.4,9.3
			c-1.3,0.8-2.9,1.4-4.4,1.8c-0.5,0.1-1.4-0.6-1.8-1.2c-0.2-0.3,0.1-1.4,0.5-1.6c3.5-1.7,3.5-5.1,3.9-8.2c0.5-3.5,0.6-7,1.1-10.5
			c0.1-1,0.8-2,1.5-2.7c1-1.2,2.4-2.2,3.4-3.4c0.8-1,1.6-2.3,1.6-3.4c0-5.1,1.9-9.7,3.3-14.5c0.7-2.4,0.3-2.8-2.1-2.6
			c-1.6,0.2-2.9,0.5-2.1,2.7c0.4,1.2,0.2,2.6,0.3,3.8c0.1,2.9,0,5.7-2,8.2c-2.5,3.1-5.2,5.7-8.9,7.1c-0.4,0.2-1.4-0.4-1.7-0.9
			c-0.3-0.5-0.3-1.4,0-1.9c1.3-2.7,0.5-5.3-0.1-8c-0.7-3.2-1.2-6.5-2-10.4c-2,1.9-3.4,3.4-5,4.7c-1.3,1.1-2.6,0.8-2.7-0.8
			c-0.1-3,0-6.1,0.3-9.2c0.3-3.5,1-6.9,1.6-11c-1.6,0.9-2.6,1.5-3.7,2.1c-3.1,1.9-3.1,1.9-4.7-1.9c-0.8,0.7-1.8,1.2-2.1,2
			c-1.6,3.7-5.5,4.1-8.3,6.1c-0.5,0.3-1.2,0.4-1.9,0.4c-1.7,0.1-2.9-0.3-2.8-2.3c0-0.9,0-1.9,0-3.7c-1.9,2.3-3.2,4-4.6,5.6
			c-0.5,0.6-0.9,1.4-1.5,1.9c-1.7,1.5-3.9,0.9-4.4-1.4c-0.4-1.7-0.4-3.5-0.2-5.3c0.5-4.4,1.1-8.9,1.7-13.9c-0.9,0.7-1.5,1.2-2.2,1.6
			c-1.9,1.1-3.8,2.3-5.9,3.2c-2.5,1-2.9,0.6-2.6-2.2C172.4,41,172.4,40.4,172.5,39.7c0.1-0.1,0.3-0.1,0.4-0.2
			c0.1-0.1,0.1-0.2,0.1-0.3C172.8,39.4,172.6,39.6,172.5,39.7z M198.6,508.9c-0.2-0.1-0.3-0.3-0.5-0.4
			C198.3,508.6,198.5,508.8,198.6,508.9c0.3,0.3,0.6,0.7,1,1c0.3,0.6,0.6,1.3,1,1.9c0.6,6.3,3.7,12.2,3.1,18.8c0,0.4,0.5,1.2,1,1.4
			c0.5,0.1,1.5-0.1,1.7-0.4c0.5-0.7,0.9-1.9,0.7-2.5c-0.6-1.6-0.9-3-0.2-4.6c0.2-0.5,0.1-1.3-0.1-1.8c-2-3.6-4.1-7.2-6.1-10.8
			c-0.3-0.6-0.6-1.3-1-1.9C199.3,509.6,199,509.3,198.6,508.9z M329.5,523.5c-0.3,0.3-0.7,0.6-1,1c-0.5,0.4-1,0.8-1.4,1.3
			c-0.2,0.2,0.1,0.8,0.1,1.2c0.3-0.2,0.6-0.3,0.7-0.6c0.3-0.6,0.4-1.2,0.6-1.8C328.9,524.1,329.2,523.8,329.5,523.5
			c0.3-0.3,0.7-0.6,1-1c0.6-0.6,1.3-1.3,1.9-1.9c0.3-0.3,0.6-0.6,1-1c0.7-0.3,1.3-0.6,2-0.9c0.1-0.2,0.3-0.3,0.4-0.5
			c-0.2,0.2-0.3,0.3-0.5,0.5c-0.6,0.3-1.3,0.7-1.9,1c-0.3,0.3-0.6,0.6-1,1c-1.3,0-1.9,0.6-1.9,1.9
			C330.2,522.8,329.8,523.2,329.5,523.5z M278.1,28.1c-0.1,0.2-0.3,0.3-0.4,0.5C277.8,28.5,278,28.3,278.1,28.1
			c0.2-0.1,0.3-0.3,0.5-0.4C278.4,27.8,278.3,27.9,278.1,28.1z M224.8,37.8c-0.3,0.7-0.6,1.3-0.9,2c-6.8,7.1-10.2,18.8-7.8,28.1
			c2-2.7,4.8-4.9,5.4-7.6c1-4.6,3.2-8.7,4.3-13.2c0.4-1.6,0.4-2.6-0.8-3.8c-0.8-0.8-0.8-2.3-1.1-3.5
			C224.2,39.1,224.5,38.5,224.8,37.8c0.4-0.3,0.7-0.6,1-0.9c0.3-0.7,0.6-1.3,0.9-2c0.3-0.6,0.6-1.3,1-1.9c2.3-3.2,4.5-6.4,6.8-9.7
			c0.2-0.2,0.3-0.3,0.5-0.5c-0.2,0.1-0.3,0.3-0.5,0.4c-3.2,1.7-6.4,3.5-6.3,7.9c0,0.6-0.3,1.2-0.4,1.8c-0.3,0.6-0.7,1.3-1,1.9
			c-0.3,0.6-0.7,1.3-1,1.9C225.4,37.1,225.1,37.4,224.8,37.8z M104.6,46.5c-0.3,0.3-0.5,0.6-0.8,1c0.2,0.1,0.3,0.2,0.5,0.3
			C104.4,47.4,104.5,47,104.6,46.5c0.2-0.1,0.3-0.3,0.5-0.4C104.9,46.2,104.7,46.4,104.6,46.5z M242.3,60.1
			c-1.3,0.6-2.6,1.3-3.8,1.9c-0.3-0.4-0.5-1-0.9-1.1c-2.1-0.7-2.2-0.6-2.1-2c0.3-5,0.7-9.9,1.1-14.9c0-0.4,0.5-0.7,0.8-1.1
			c0.4,0.4,1.1,0.8,1.1,1.2c0.1,3.7,0,7.4,0.1,11.1c0,1.2,0.6,2.3,0.9,3.5c1-0.7,2.1-1.4,3-2.2c0.4-0.4,0.7-1.1,0.8-1.7
			c0.3-2.2,0.6-4.4,0.9-7c-0.8,0.3-1.3,0.5-1.8,0.7c-2.7,1-2.8,1-2.9-1.6c-0.1-2.5,0-5,0-7.9c-2.6,1.6-4.8,3-7,4.3
			c-4.5,2.7-6.9,7-4.4,11.6c0.9,1.7,1.7,3.5,2.4,5.3c0.9,2.5,2.6,3.1,5,2.7c1.1-0.2,2.2-0.6,3.2-0.9
			C240.9,63.4,241.3,63.2,242.3,60.1c0.1-0.1,0.3-0.1,0.4-0.2c0.1-0.1,0.1-0.2,0.1-0.3C242.6,59.8,242.4,59.9,242.3,60.1z
			 M334.4,15.5c-2.9,2.6-2.9,2.6-0.9,5.5C333.8,18.9,334.1,17.2,334.4,15.5c0.1-0.1,0.3-0.1,0.4-0.2c0.1-0.1,0.1-0.2,0.1-0.3
			C334.7,15.2,334.5,15.3,334.4,15.5z M296.5,533.2c2.9-2.6,5.8-5.2,8.7-7.8c0.4-0.1,0.8-0.2,1.3-0.3c-0.1-0.2-0.2-0.3-0.3-0.5
			c-0.3,0.2-0.6,0.5-1,0.7C301,526.5,298.2,529.2,296.5,533.2c-2.4,2.2-4,4.7-3.2,8.2C294.9,538.9,295.7,536,296.5,533.2z
			 M302.4,539c-4.4,2-6.6,5.2-6.3,9.4c2.1-2.9,4.1-5.7,6.1-8.5C302.4,539.7,302.3,539.3,302.4,539c0.1-0.1,0.3-0.1,0.4-0.2
			c0.1-0.1,0.1-0.2,0.1-0.3C302.7,538.7,302.5,538.8,302.4,539z M245.2,528.3c-2.5-0.1-3,2.2-4,3.6c-2.7,3.6-5.7,7.2-6.6,11.9
			c-0.4,0.3-0.8,0.4-1.1,0.8c-0.3,0.4-0.3,1-0.4,1.5c0.4-0.3,0.9-0.6,1.2-1c0.2-0.3,0.2-0.9,0.3-1.3
			C238.1,538.7,241.6,533.5,245.2,528.3c0.1-0.1,0.3-0.1,0.4-0.2c0.1-0.1,0.1-0.2,0.1-0.3C245.5,528,245.3,528.2,245.2,528.3z
			 M259.7,117.3c-0.1-0.1-0.1-0.3-0.2-0.4c-0.1-0.1-0.2-0.1-0.3-0.1C259.4,117,259.5,117.1,259.7,117.3c1.2,2.4,2.3,4.8,3.5,7.1
			c1.4-0.7,2.8-1.7,4.3-2.1c1.7-0.4,2-1.4,1.8-2.8c-0.3-2.2-0.7-4.3-1.2-7.1C266.1,116.2,263.6,118.1,259.7,117.3z M389.6,61.1
			c-0.1-0.1-0.1-0.3-0.2-0.4c-0.1-0.1-0.2-0.1-0.3-0.1C389.3,60.8,389.5,60.9,389.6,61.1c1.1,0.9,2.3,1.7,3.2,2.8
			c1.3,1.4,3.3,2.9,3.4,4.4c0.1,3.7,2.9,5.4,4.7,8.3c2.8-3.8,3.8-7.4,1.4-11.3c-0.3-0.5-0.5-1.2-0.8-1.7c-1.8-3.3-2.9-3.8-6.6-3.1
			C393.1,60.8,391.3,60.9,389.6,61.1z M416.7,50.4c-1.6,2.8-3.3,5.7-5.3,9.2c-0.9-2.4-1.3-4.1-2.2-5.6c-1.1-1.9,1-4.6-1.8-5.9
			c0.2,2.2,0.4,4.4,0.7,6.5c0.1,0.8,0.5,1.5,0.7,2.3c1.6,4.6,4.7,7.9,9.1,10c0.9,0.4,1.6,2.3,2.7,0.9c0.8-1,1-2.5,1.2-3.9
			c0.1-0.7-0.3-1.6-0.7-2.3C419.1,58.2,418.9,53.9,416.7,50.4c1,0.5,2,0.9,2.8,1.5c1,0.8,0.4,3,2.5,2.8c-0.3-1.4-0.4-2.7-0.9-4.1
			c-0.7-2.2-1.6-4.4-2.4-6.6c-0.2,0-0.5,0-0.7,0.1C417.7,46.2,417.2,48.3,416.7,50.4z M306.2,42.7c-1.4,2.3-3.2,4.4-4.2,6.9
			c-1.3,3.2-2.3,6.6-0.9,10.2c1.2,3,1.9,6.3,2.9,9.9c1.1-1.5,1.8-3,3-3.9c2.8-2,2.2-5,2.3-7.5c0.1-2.4,0.7-5.5-2.5-7.2
			c-0.5-0.3-0.7-1.7-0.7-2.6C306.1,46.5,306.2,44.6,306.2,42.7c1.7-2.2,1.8-4.9,1.9-7.5C307.3,37.6,306.1,39.9,306.2,42.7z
			 M248.1,95c1.1,0.4,1.9,0.8,1.1,2.4c-1.9,3.7-3.7,7.4-5,11.3c-1.3,3.8-1.8,7.8-4.7,11.4c5.6-0.6,8.6-3.2,9.7-8
			c0.4-1.7,1.3-3.3,1.7-5c0.5-1.8,1.7-1.6,3-1.5c-0.6,2.1-1.1,4.2-1.9,7c1.5-1.7,2.4-2.8,3.4-3.8c0.1-0.1,0.6,0,0.8,0.1
			c0.2,0.2,0.4,0.6,0.4,0.8c-0.4,0.7-0.8,1.4-1.4,1.9c-1.8,1.8-0.1,2.4,1.4,3.5c-0.3-3.3,3.4-4.5,3.1-7.8c-0.2-2.9-0.1-5.8,0-8.7
			c0.1-1.7,0.5-3.5,0.7-5.2c0.1-1.2,0-2.5,0-3.7c-1.3,0.2-2.4,0.3-3.5,0.6c-0.6,0.2-1.1,0.6-1.7,0.9c-3.2,1.5-3.2,1.5-0.3,4.3
			c0.4-1.1,0.8-2.2,1.3-3.1c0.3-0.4,0.9-0.7,1.4-1c0.2,0.5,0.8,1.2,0.6,1.5c-1,2.5-2,5-3.4,7.4c-0.9,1.6-0.6,2.3,0.8,3
			c1,0.5,3-0.5,2.8,1.6c0,0.4-2.3,0.5-3.5,0.7c-0.3,0.1-0.6,0-1,0c-0.9-1.6-2.9-2.7-1.5-5.1c0.6-0.9,1.9-2,0.7-3.4
			c-0.8-1-1.6-2.1-2.6-2.7c-0.6-0.3-1.7,0.2-2.5,0.4c-1.2,0.4-2.4,0.8-3.6,1.1c-3.6,0.8-3.8,1.2-1.5,3.9c0.5,0.6,1.1,1,1.5,1.4
			C245.7,99.1,246.9,97.1,248.1,95z M39.6,40.7c0.6,1.2,1.4,2.4,1.9,3.7c1.2,2.6,3,2.5,4.1-0.4c0.7-1.7,0.6-1.9-1.5-2.2
			C42.7,41.5,41.2,41.1,39.6,40.7c1.6-4.5,3.1-9.1,4.9-13.5c0.7-1.8,0.9-3.3,0.1-5c-0.6-1.3-1-2.7-1.7-4c-1.1-2.1-2.6-2.3-3.9-0.3
			c-1.2,1.7-2,3.6-2.7,5.6c-2.7,7.3-2.7,7.3,1.4,14.1C38.3,38.6,39,39.7,39.6,40.7z M470.1,72.7c-0.5-2.7-0.8-5.5-3.4-8.2
			c-0.6,3.7-1.1,6.6-1.6,9.7C467.2,73.9,467.9,70.9,470.1,72.7c-1.9,2.8-3.9,5.5-5.7,8.3c-0.5,0.8-1,2.2-0.6,3
			c1.8,3.9,3.1,8.1,6.7,10.9c2.3,1.8,2.9,1.9,3.9-1c1.2-3.4,1.8-6.8,1.5-10.4c-0.1-0.9-0.3-1.9-0.8-2.7
			C473.4,78.1,471.7,75.4,470.1,72.7z M483.7,143.5c-0.1-0.4-0.2-0.9-0.3-1.3c-0.1-0.2-0.4-0.3-0.7-0.5c0,0.3-0.2,0.7,0,1
			C482.8,143,483.3,143.2,483.7,143.5c1,1.6,2.1,3,2.1,5.2c0.1,5.6,0.5,11.2,0.9,16.7c0.1,2.4,1,4.2,3.3,5.5
			c1.6,0.9,2.7,0.2,2.9-1.7c0.2-1.8-0.2-3.8,0.1-5.6c0.5-3.1,1.5-6.2,2-9.3c0.6-3.8,0-5.3-2.7-7
			C489.6,145.5,486.8,144.2,483.7,143.5z M474.9,113.4c-2.1,1.7-4.4,3.2-6.4,5.1c-2.5,2.4-2.5,3.7-1.2,6.9c2,4.9,5.7,8.4,9.1,12.3
			c1,1.1,2,1,2.5-0.5c0.2-0.6,0.6-1.2,0.7-1.8c0.4-6.1-0.3-12.2-2.3-18C476.8,116,475.7,114.7,474.9,113.4c0.3-0.1,0.6-0.2,0.8-0.5
			c0.3-0.5,0.6-1,0.9-1.5c0,0-0.5-0.4-0.5-0.3c-0.4,0.4-0.7,0.9-1,1.4C474.9,112.8,474.9,113.1,474.9,113.4z M462.2,74.7
			c0.1,0.3,0.1,0.6,0.2,0.9c0.2,0.8,0.5,1.7,0.8,2.5c0,0,0.3,0,0.4,0c-0.2-1-0.3-1.9-0.6-2.9c-0.1-0.2-0.4-0.4-0.7-0.6
			c2.7-10.5,3.2-20.7-2.3-30.9c-0.9,0.8-1.6,1.5-2.4,2.1c-3.6,2.8-3.7,2.8-1.9,7c1,2.4,1,4.7,0.3,7.1c-0.5,1.9-1.2,3.6-1.7,5.5
			c-0.2,0.9-0.5,2-0.1,2.7C456,71.3,457.8,74.7,462.2,74.7z M346,46.5c1.8-3.7,3.7-7.3,5.4-11.1c0.2-0.5-0.3-1.5-0.7-2.1
			c-0.8-1-1.8-1.9-2.7-2.8c-2-1.9-3.1-4.2-3.9-7c0.6,0.1,0.8,0.1,0.9,0.2c3.5,2.9,4.7,8.5,10.5,8.8c0.1,0,0.2,0.5,0.4,0.8
			c3.5,7.3,6.1,8.8,13.9,7.7c-0.1-0.9-0.2-1.9-0.4-2.8c-0.7-3.4-0.8-7.1-2.9-10.1c-0.6-0.8-1.6-1.8-2.5-1.9c-5-0.7-9.7-2.1-14.4-3.6
			c-2.1-0.7-4.5-0.9-6.5,0.5c-1.6,1.1-1.8,2.1-0.6,3.5c4.1,4.7,5.5,9.9,3.9,16C345.9,43.9,346,45.2,346,46.5c-0.3,0.3-0.5,0.6-0.7,1
			c0.2,0.1,0.3,0.2,0.5,0.3C345.8,47.4,345.9,47,346,46.5z M151.1,35.9c-0.8,1-1.6,2-2.3,3c-0.7,0.8-1.1,2.4-2.5,1.6
			c-0.6-0.3-0.9-1.5-1.1-2.4c-0.4-2.4-0.3-2.4-1.7-4.4c-1.7,3.1-2.6,6.4-3.3,10c-0.9,4.6-0.5,10.2-6,12.8c-0.2,0.1-0.3,0.7-0.2,0.8
			c0.3,0.3,0.8,0.8,1,0.7c3-0.9,6.4-0.8,9.2-2.7c0.7-0.5,2.3-0.8,2.5-0.5c0.9,1.3-0.7,1.4-1.2,2c-0.6,0.7-1.5,1.3-1.9,2.1
			c-2.8,5.4-3.5,11.3-2.9,17.3c0,0.4,0.9,1.2,1.2,1.2c3.3-0.8,7.1-1.4,8.9-4.3c2.8-4.5,3.8-9.7,0.9-14.6c-1.1-1.8-1.5-3,0.1-4.5
			c0.3-0.3,0.2-1.2,0.3-1.8c-0.7,0-1.4-0.2-2.1-0.1c-1.7,0.3-3.4,0.8-5.1,1.1c-0.5,0.1-1.2-0.5-1.6-0.9c-0.2-0.2-0.1-1,0.2-1.2
			c2.7-2.4,4.1-5.7,5.9-8.6C150.6,40.3,151.1,38.3,151.1,35.9c0.4-0.6,0.9-1.2,1.3-1.9c0.1-0.2-0.1-0.5-0.2-0.8
			c-0.3,0.1-0.7,0.2-0.7,0.3C151.3,34.3,151.3,35.1,151.1,35.9z M323.7,527.4c0.1,0.1,0.1,0.3,0.2,0.4c0.1,0.1,0.2,0.1,0.3,0.1
			C324,527.7,323.8,527.5,323.7,527.4c0.1-3.1-1.9-5.4-3.1-8c-3.8-7.7-5.1-15.6-2.6-23.8c1.7-5.5,2-11.1,2.3-16.6
			c0.3-6.5,1.2-12.9,2.3-19.3c0.8-4.7,2.3-9.4,2.9-14.1c1-8.2,3.6-15.9,5.5-23.8c1.5-6.4,3.6-12.6,4.5-19.1
			c0.9-6.5,2.3-12.9,3.8-19.3c1.5-6.2,2.9-12.4,3.1-18.8c0.2-5.4,1-10.8,1.6-16.2c0.2-1.6,0.9-3.2,0.9-4.7
			c-0.3-5.7,1.5-11.1,2.5-16.6c1-5.8,2.5-11.6,3.3-17.4c0.9-6.5,1.5-13,2-19.6c0.5-6.9,0.7-13.8,1-20.7c0.1-2.4,0.7-4.8,0.7-7.1
			c0-5.6-0.1-11.3-0.3-16.9c0-1.1-0.5-2.2-0.4-3.3c0.6-5.6,1.4-11.1,2-16.7c0.6-5.7,1.2-11.5,1.8-17.2c0.3-2.7,0.7-5.4,1-8.1
			c0.4-3,0.7-6,1-9.1c0.6-5.1,1.2-10.2,1.7-15.2c0.6-5.5,1.5-11.1,1.5-16.6c0-7-0.8-14.1-1.3-21.1c-0.2-2.4-0.6-4.8-0.8-7.1
			c-0.4-3.5-1.2-7-1-10.5c0.3-5.9-0.5-11.8-1.3-17.6c-0.8-5.8-2.4-11.6-3.5-17.4c-0.8-4.2-1.4-8.5-2.2-12.8
			c-0.6-3.4-1.4-6.8-2.3-10.8c-3.6,4.3-6.8,8-11.7,9.3c-0.6,0.1-1.2,1.1-1.3,1.7c-0.4,2.2-0.1,4,2.2,5.3c2.7,1.4,4.3,3.8,4.5,7
			c0.3,3.5,0.7,7,0.9,10.5c0.2,3.6-1.9,6.4-3.6,9.3c-0.8,1.4-2.5,1.1-2.9-0.5c-0.6-2-1-4-1.4-6.1c-0.7-3.3-2.5-5.9-5.3-7.7
			c-1.4-0.9-2.6-1-4.3,0c-1.9,1.1-2.7,3.5-5,3.8c-0.6-2.1-1.2-4.3-1.8-6.4c-0.1-0.5-0.3-0.9-0.4-1.4c-0.8-2.8-2.2-5.5-2.3-8.3
			c-0.1-3.8-1.1-7.1-2.6-10.4c-0.9-2-1-4.4-2-6.4c-1.2-2.4-1.6-4.8-1.6-7.5c0-1.1,0.8-2.6-1.1-3.1c0.1,1,0.2,2.1,0.2,3.1
			c-0.1,3.7,1,7.4-0.9,10.9c-2.9,5.4-2.9,5.4-2.9,11.6c0,0.8,0,1.6,0,2.4c-0.2,3.5-3.2,7.3-6.5,8.3c-1.7,0.5-3.2,0.2-4.1-1.5
			c-1.2-2.1-2.4-4.2-3.6-6.3c-1.3-2.2-1.7-4.3-0.9-6.9c0.7-2.2,0.4-4.6,0.6-7.6c-1.2,1-1.6,1.4-2.1,1.8c-2.2,1.6-2.3,1.7-3-1
			c-1.5-5.8-2.9-11.7-4.3-17.6c-0.5,0.5-1,0.9-1.5,1.3c-2,1.6-2.9,3.2-2,6.2c0.7,2.4,0,5.4-0.6,8c-0.4,2-2.7,3.8-0.2,5.8
			c1.2,5.6-2.2,13-7.8,16.6c-1.7-3.3-3.4-6.6-5.2-9.8c-0.9-1.6-1-3.1,0-4.6c2.5-3.7,3.5-7.6,2.3-12.1c-0.5-1.7-0.1-3.5-0.1-5.3
			c0-1.5,0.2-2.9,0.3-4.6c-1.6,1-2.8,1.7-4.1,2.4c-1.2,0.6-2,0.1-2-1.1c0.1-2.4,0.6-4.7,0.7-7.1c0-0.6-0.6-1.2-1-1.8
			c-0.5,0.5-1.3,0.9-1.5,1.4c-1,3-1.5,6.2-2.7,9.1c-0.8,1.9-1.1,3.5-0.3,5.4c1.7,4.3,3.4,8.6,4.6,13.1c2,6.9,3.1,14.1,5.5,20.8
			c3.7,10.4,4.9,21.5,9,31.8c1.1,2.9,0.8,6.3,1.2,9.5c0.7,5.2,1.4,10.5,2.1,15.7c0.6,4.3,1.4,8.5,1.7,12.8c0.3,5.3,0.2,10.7,0,16
			c-0.2,5.6-0.6,11.2-1.1,16.8c-0.5,5.6-1.4,11.1-1.7,16.7c-0.2,4-0.2,8-1.6,11.9c-0.3,0.7-0.3,1.6-0.4,2.4
			c-0.9,5.5-1.7,11.1-2.7,16.6c-1,5.4-2.2,10.7-3.1,16c-0.9,5.5-1.1,11.2-2.3,16.6c-2.1,9.5-3.3,19.2-4.5,28.9c-0.5,4-0.7,8-1,12
			c0,0.5,0,1-0.1,1.4c-0.6,4.4-1.6,8.8-1.7,13.3c-0.3,9.3,0.2,18.7-1.1,28c-0.6,4.1-0.9,8.3-1.6,12.4c-0.9,5-2.2,10-3.2,15
			c-2,9.7-4,19.4-6,29.1c-0.5,2.3-1.5,4.6-1.7,7c-0.8,7.2-1.4,14.4-2.1,21.5c-0.1,0.8-0.1,1.6-0.3,2.4c-2.3,9.3-4.7,18.6-7.1,27.9
			c-0.7,2.8-1.7,5.5-2.2,8.4c-0.8,5.5-1.6,11.1-1.9,16.7c-0.3,4.7-1.7,8.7-5,12.1c-2.3,2.4-4.2,5-6.4,7.6c0.3,0.1,0.4,0.2,0.6,0.2
			c0.9,0,1.7,0,2.6,0c-0.5,0.7-1,1.5-1.6,2.1c-0.2,0.2-0.6,0.1-0.9,0.1c-3.6,0.6-7.3,1.2-10.8,2c-1.2,0.3-2.8,0.7-3.3,1.5
			c-0.6,1.1-0.2,2.7-0.2,4.1c0,0.3,0.6,0.8,0.9,0.8c0.8,0,1.6,0,2.4-0.3c6.5-2.4,12.8-5.3,16.5-11.8c0.3-0.6,0.6-1.2,1.1-1.6
			c0.2-0.2,0.8-0.1,1.2,0c0.2,0.1,0.5,0.6,0.4,0.8c-0.3,0.8-0.6,1.5-1,2.2c-2.7,4.9-7.1,7.8-12,10c-4.7,2.1-9.4,4.1-14.2,5.9
			c-3.3,1.2-5,3.2-4.4,6.9c0.4,2.5-0.3,4.8-1.6,6.9c-1.3,2.2-2.6,4.5-3.8,6.7c-0.5,0.8-1,1.7-1.1,2.6c-0.1,0.5,0.9,1.5,1.1,1.5
			c5.5-2.3,11.4-1.5,17-2.8c4.1-0.9,8.2-1.5,11.9-3.8c3.5-2.1,5.9-4.8,5.6-9.3c-0.2-3.2-0.1-6.5-0.1-9.7c0-1,0-1.9,0.1-2.9
			c0.1-0.4,0.6-1.1,0.8-1c0.6,0.1,1.3,0.4,1.5,0.8c0.4,0.6,0.5,1.5,0.6,2.3c0.4,1.6,0.8,3.3,1.3,5.6c1.2-1.6,1.9-2.6,2.7-3.6
			c2.1-2.6,4.2-5.3,6.5-7.7c1.2-1.2,3-1.8,4.6-2.4c0.5-0.2,1.5,0.4,2,0.9c0.3,0.3,0.1,1.2-0.1,1.8c-0.1,0.4-0.5,0.8-0.9,1.1
			c-5.6,5.4-9.4,12.2-13.4,18.8c-0.6,1-2.4,1.9-1.1,3.1c0.6,0.5,2.3-0.1,3.5-0.4c0.8-0.2,1.4-0.7,2.2-1c1.3-0.6,2.5-1.5,4.1-0.6
			c1.6,0.8,2-0.2,1.9-1.6c0-0.8-0.3-1.6-0.3-2.4c0.1-0.7,0.5-1.3,0.7-2c0.6,0.4,1.4,0.6,1.7,1.1c0.5,0.6,0.8,1.5,0.8,2.2
			c-0.2,3.5,2.2,5.1,4.8,6.5c1.6,0.8,3,1.8,4.6,2.6c5,2.5,10.1,4.8,15,7.5c4.9,2.7,10.4,4.4,14.6,8.3c1.1,1,2.8,1.6,4.3,2.1
			c1.8,0.6,3.1-0.2,3.1-2c0-6.7,1-13.6-1-20.2c-0.8-2.6-2.3-5-3.1-7.6c-1.5-4.7-3.8-8.8-8.4-11.3c-0.4-0.2-0.8-0.6-1-1
			c-0.3-0.5-0.3-1.1-0.5-1.7c0.6,0,1.3-0.2,1.7,0c2.8,2.2,5.5,4.5,8.5,7c3.8-5.9,7.8-11.8,15.8-13.6c-9-8.2-9.5-19-11.9-29.7
			c2,0.8,2.8,1.8,3.1,3.4c0.3,1.6,0.7,3.1,1,4.7c0.8,5.5,2.6,10.6,5.4,15.3c1.7,2.7,3.2,5.7,7.2,5.6c1.1,0,1.5,0.5,1.5,1.8
			c0.1,3.1,1.8,5.6,4.5,6.7c2.6,1.1,4.7,2.6,6.7,4.6c2,2.1,4,4.3,6.2,6.1c4.2,3.5,8.6,6.9,14.7,5.9c4.1-0.7,8.2,0,12.3,0
			c1,0,2-0.2,3.9-0.4c-1.6-0.9-2.2-1.4-2.9-1.7c-5.5-2.1-11.1-4.2-16.6-6.3c-5.5-2.1-11-4.1-16.5-6.4c-1.3-0.5-2.6-1.5-3.5-2.5
			C321.2,527.9,322.4,527.4,323.7,527.4z M297.7,538.7c1-0.6,1.8-1.2,2.5-1.5c1.6-0.7,3.2-1.5,4.9-1.9c0.7-0.2,1.7,0.6,2.5,0.9
			c-0.3,0.7-0.5,1.4-0.9,2c-1.8,2.3-3.8,4.4-5.5,6.7c-1,1.4-1.8,3.1-2.5,4.7c-0.5,1.3,0.3,2.1,1.8,2c3.1-0.3,6.2-0.7,9.3-0.7
			c3.7,0,7.3,0.5,11,0.8c2.9,0.2,5.7,0.7,8.6,0.8c4.7,0.2,9.4,0.5,14.2-0.1c-0.2-0.5-0.2-0.7-0.3-0.8c-0.5-0.4-1.1-0.7-1.6-1
			c-5.8-3.2-11.4-6.6-15.7-11.6c-1.2-1.3-2.4-2.6-3.8-3.7c-1.1-0.9-2.2-2-3.6-2.4c-2.8-0.8-4.9-2.1-6-5c-0.7-1.7-2-2.2-3.8-1.2
			c-3.4,1.9-6.5,4.1-9.1,7.1C298.5,534.9,297.5,536.4,297.7,538.7z M411.9,53.7c3-4.6,5.8-14,5.6-18.4c-0.3-5.4-2.6-9.9-7.3-12.9
			c-0.7-0.4-1.2-1-1.8-1.6c1.4-0.3,2.3,0.2,3.3,0.6c3.3,1.5,4.4,5.2,6.9,7.1c2.5,1.8,6.4,1.7,9.1,4c0.2,0.2,0.6,0.1,1,0.2
			c0-4.2-1.9-6.6-6-8c-3.6-1.2-7.3-2.9-9-6.8c-0.7-1.5-1.2-3.2-2-5.3c-0.7,1.5-1.1,2.5-1.5,3.5c-0.5,1.2-1.4,1.8-2.7,1.3
			c-4.9-2.1-10.8-2-15-6c-0.1-0.1-0.5,0.1-0.8,0.2c0.2,1.1,0.6,2.1,0.7,3.2c0.2,1.6,1.1,1.7,2.4,1.5c2.9-0.4,2.9-0.4,3.4,2.3
			c0.6,3.2,1.2,6.4-0.4,9.6c-0.5,0.9-0.6,2.2-0.5,3.3c0.9,5.9,2.3,11.6,4.7,17.1c0.3,0.6,0.8,1.1,1.3,1.6c2.7-3.4,4.1-6.8,3.6-10.9
			c-0.1-0.9,0.5-1.8,0.6-2.8c0.5-4.8,0.9-9.7-2.6-13.8c-1.1-1.3-2.6-2.3-3.8-3.6c-0.3-0.3-0.3-1-0.5-1.6c0.6,0,1.3-0.3,1.7-0.1
			c4.9,3,7.2,7.6,7.5,13.2c0.2,4.2,0,8.4,0,12.6C410,46.7,411.1,50.2,411.9,53.7z M477.7,37.4c0.4,2.2,0.6,3.4,0.9,4.6
			c1,4.8,2.8,9.6,2.9,14.5c0.1,3.2,1.2,5.5,2.6,7.9c1.3,2.3,3.3,3.9,6.1,4.3c1.7,0.3,1.9-0.1,1.7-2.1c-0.1-0.5,0.2-1.1,0.4-1.6
			c0.3-0.7,0.9-1.4,0.8-2c-0.2-3-0.3-6.1-0.8-9.1c-0.5-3.3-1.2-6.7-4-9C485.1,42.5,481.8,40.3,477.7,37.4z M359.8,92.9
			c0.1-0.3,0.2-0.6,0.2-1c1.5,0.2,3,0.5,4.6,0.6c1.6,0.1,3.2,0.2,4.7-0.1c1.5-0.3,2.2-1.3,1.1-2.8c-1.2-1.7-2.7-3.3-3.4-5.2
			c-2.2-5.4-6.7-7.6-11.7-9.4c-0.1,0.6-0.2,0.9-0.2,1.2c1.5,6.2,3.2,12.3,3.8,18.8c0.3,3.2,1.1,6.7,4.2,9c1.9,1.4,3.4,3.4,5.3,5
			c0.6,0.5,1.9,0.5,2.6,0.1c1.3-0.6,0.5-1.6,0.1-2.4c-1.3-2.9-2.7-5.8-3.9-8.8c-0.9-2.1-2.3-3.3-4.6-3.7
			C361.6,93.9,360.7,93.3,359.8,92.9z M256.2,26.2c-0.9-3.2-1.4-6-2.4-8.6c-1-2.5-2.5-2.7-4.4-0.9c-0.8,0.7-1.7,1.6-2.1,2.6
			c-1.4,3.3-2.8,6.6-3.9,9.9c-1.5,4.4-2.2,9-2,13.6c0,1,0,2.1,0,3.1c1-0.5,2-0.8,2.9-1.4c0.7-0.4,1.3-0.9,1.8-1.6
			c2.7-3.7,5.5-7.4,8-11.3C255,30,255.5,28,256.2,26.2z M466.7,25.5c-1.4,4.1-2.9,8-4.1,12c-0.3,1.1-0.3,2.7,0.2,3.7
			c2.6,5.2,6.7,8.9,11.7,11.7c0.9,0.5,2,0.4,2.2-0.9c0.3-2.9,1.5-5.9,0.1-8.9c-0.5-1.2-0.6-2.5-1-3.7
			C473.9,34.2,471.5,29.2,466.7,25.5z M480.6,83.5c1.4-3.8,2.7-6.9,3.5-10.1c0.4-1.7,0.4-4-0.3-5.5c-1.7-3.4-3.9-6.6-6.1-9.7
			c-0.9-1.2-2.4-1.9-3.8-2.7c-0.3-0.2-1.4,0.2-1.6,0.6c-1,3-2.8,5.7-2,9.2C471.7,72.2,475.3,77.8,480.6,83.5z M57.5,31.3
			c-1.7-0.1-2.4-0.1-3-0.2c-3-0.5-3.4-1.1-1.5-3.5c1.9-2.3,4.2-4.4,6.5-6.3c2.6-2,2.7-4.7,2.2-7.4c-0.2-1-1.5-2-2.5-2.5
			c-0.5-0.2-1.8,0.4-2.3,1c-1.3,1.4-2.3,3.1-3.6,4.5c-5.9,5.7-8,13.3-10.5,20.7c-0.4,1.1,0.1,1.9,1.4,2c2.5,0.2,4.8-0.2,6.7-2
			C52.8,35.8,54.8,33.9,57.5,31.3z M476.7,96.7c-3.8,3.6-3.9,3.7-6.8,0.6c-2.4-2.5-4.5-5.2-6.8-7.7c-0.9,3.5-1.4,7.2-2.9,10.4
			c-1.1,2.5-1.6,5.2-2.3,7.8c-0.1,0.4,0,1.2,0.2,1.2c0.5,0.2,1.3,0.4,1.7,0.1c2.5-1.7,4.4-3.7,4.3-7c0-1.4-0.1-2.9,0.1-4.3
			c0-0.5,0.5-1,0.8-1.5c0.4,0.4,1.1,0.9,1.1,1.3c0,2.6-0.3,5.1-0.1,7.7c0.1,2.8,0.4,5.6,0.9,8.4c0.3,1.7,1.4,1.8,2.8,0.7
			C475.5,110.1,477.1,104.3,476.7,96.7z M453.4,31.6c0.4,3.3,0.7,6.8,1.3,10.2c0.3,1.9,1.1,2.1,2.4,0.7c1.2-1.3,2.4-2.7,3-4.3
			c1.5-4,3-8.1,3.9-12.3c0.5-2.4-0.1-5.1-0.7-7.5c-0.7-2.8-1.4-3-4.6-2.8c-2.3,0.1-3.7,1.2-3.9,3.4
			C454.2,23.1,453.8,27.2,453.4,31.6z M245.2,61.2c1-0.4,1.8-0.6,2.5-1c6.8-3.7,10.1-9.9,11.8-17.2c0.1-0.5-0.3-1.4-0.7-1.6
			c-2.4-1.4-3.1-3.1-1.5-5.5c0.2-0.4-0.2-1.4-0.6-1.9c-1-1-1.5-0.1-2.1,0.7c-2,2.9-4.2,5.7-6.1,8.6c-0.9,1.3-1.7,2.8-2,4.4
			c-0.8,3.9-1.4,7.8-1.9,11.8C244.3,60,244.8,60.5,245.2,61.2z M318.6,47.9c3.3-2.8,5.9-4.8,8.2-7c3.1-3,4.9-6.6,4.7-11.1
			c-0.1-1.6-0.1-3.2,0-4.8c0-2.8-1.5-4.9-3.4-6.6c-1.3-1.1-2.4-0.9-3,0.7c-1.2,3-2.4,6-3.1,9.1c-0.9,4.4-1.3,8.8-2,13.2
			C319.6,43.2,319.2,45,318.6,47.9z M434.3,11.7c-0.1,0.6-0.6,1.4-0.4,1.9c0.8,2.3,2,4.4,2.7,6.7c0.4,1.3,0.5,3-0.1,4.1
			c-1.7,2.8-0.6,4.8,1.3,6.8c0.9,0.9,1.9,1.8,2.7,2.8c1.8,2.1,4.3,2.7,6.7,3.5c1.1,0.4,2.2-0.2,2-1.3c-1-8-3-15.7-8.9-21.7
			C438.8,12.9,437.1,11.7,434.3,11.7z M396.9,57.9c-1.6-1.1-2.1-1.5-2.7-1.7c-1.2-0.6-2.7-0.8-3.7-1.6c-1.2-1-1.8-2.6-3-3.7
			c-1.6-1.5-3.4-3.1-5.4-3.7c-1.1-0.3-2.2-0.3-3.3-1c-1.7-1.1-2.4-0.5-2.7,1.7c-0.3,2.4-0.7,4.7-1.4,7c-0.4,1.3-0.3,2,0.6,3
			c2.1,2.3,3.6,4.9,3.7,8.1c0,0.5,0.1,1.1,0.4,1.3c2.1,1.5,4.2,2.9,6.4,4.2c0.3,0.2,0.9-0.1,1.3-0.3c0.2-0.1,0.3-0.6,0.2-0.8
			c-1.3-2.4-2.4-5-4-7.1c-0.9-1.2-3-1.4-4-2.5c-1-1.1-1.3-2.9-2-4.2c-0.3-0.6-1.7-0.8-0.7-1.7c0.2-0.3,1.2-0.1,1.7,0.2
			c1.3,0.9,2.5,2,3.8,2.8c0.8,0.5,1.7,1.2,2.5,1.2C388.4,58.8,392.1,58.4,396.9,57.9z M67.6,0.9c-0.5,0.4-1.5,1-2.4,1.7
			c0.7,0.8,1.3,1.8,2.1,2.3c3.5,1.9,6.7,4.2,9.4,7.2c0.6,0.7,1.6,1.3,2.4,1.3c2.2-0.1,3.6,0.9,5.1,2.3c0.5,0.5,2.1,0.6,2.5,0.1
			c1.4-1.5,2.7-3.2,3.7-5c0.9-1.6-0.4-5.2-2-5.8C81.8,2.8,75,2.3,67.6,0.9z M443.9,63.5c0.4,3.1,0.7,5.6,1.1,8.1
			c0.2,1.1,1.1,1,1.8,0.3c3.8-3.8,5.3-8.8,7.4-13.5c0.5-1,0.3-2.6-0.1-3.8c-0.7-2.1-1.9-4-2.8-6.1c-0.3-0.7-0.8-2-0.5-2.2
			c2.2-1.7,0.4-3.8,0.7-5.7c0.2-1.5-0.6-2-2.1-1.3c-2.4,1.1-2.6,1.5-2.2,4c0.1,0.9,0.5,2,0.2,2.7c-1.7,4.2-1.5,8.8-2.5,13.1
			C444.5,60.9,444.2,62.4,443.9,63.5z M79.5,17.9c0.1,0.1-0.2-0.8-0.9-1.3c-1.2-0.9-2.5-1.2-4-0.2c-0.9,0.6-2.4,1.3-3.1,0.9
			c-2.4-1.3-4.2,0.1-5.7,1.2c-3.3,2.4-6.4,5.3-9.5,8c-0.4,0.4-0.6,1.1-0.9,1.6c0.7,0.3,1.3,0.9,2,0.8c5.2-0.2,10.4-0.5,15.6-1
			c1.2-0.1,2.4-0.9,3.5-1.5C79.5,24.8,79.5,21.8,79.5,17.9z M280.8,15.2c-4.8,3.4-9.5,6.7-14.2,10.1c-0.4,0.3-0.8,0.6-1,1
			c-2.3,3.6-4.6,7.3-6.9,11c-0.9,1.4-0.1,2.2,1.2,2.3c1.1,0.1,2.3-0.1,3.2-0.6c2.6-1.5,5.5-2.9,7.5-5.1c3.1-3.2,5.9-6.8,8.3-10.6
			C280.4,20.9,281,18,280.8,15.2z M154.2,30.6c4.7-1.1,7.3-4.7,10.2-7.6c3.6-3.6,4.3-11.1,1.6-15.2c-1.3-2-2.9-2.3-4.2-0.4
			C157.1,14.2,153.3,21.4,154.2,30.6z M145,1.3c-0.5,0.4-1,0.6-1.3,0.9c-5.1,6.3-7.6,13.6-8,21.7c-0.1,1.6,0,3.2,0,4.8
			c0,0.3,0.5,0.9,0.8,0.9c0.4,0,1.1-0.3,1.2-0.6c0.5-2.3,2.7-3,3.8-4.7c2.3-3.3,4.5-6.7,6.1-10.3c0.8-1.7,0.5-4.1,0-6.1
			C147.2,5.8,145.9,3.6,145,1.3z M455,121.7c0.3,4.2,0.3,7.6,0.7,10.9c0.2,1.4,0.7,2.8,1.4,4.1c0.5,1,1.7,1.3,2.4,0.2
			c1.4-2.1,2.8-4.3,3.6-6.7c0.7-2.1,1.5-4.7,0.8-6.5c-0.9-2.6,0.9-4.1,1.2-6.2c0-0.3,0-0.6-0.1-1c-0.3-1.9-0.6-3.8-1-5.6
			c-0.2-1-0.8-1.3-1.7-0.8c-1.2,0.7-2.3,1.7-3.7,2.3c-1.7,0.7-2.5,2.1-2.9,3.6C455.3,118.1,455.2,120.4,455,121.7z M174.5,532.8
			c6.4,0.9,12.1,1.6,17.8,2.5c2.7,0.4,3.1,0.3,3.4-2.2c0.1-0.6,0-1.3,0.1-1.9c0.1-1.1-0.3-2.5,1.2-2.8c1.7-0.3,1.6,1.1,1.8,2.2
			c0.1,0.6,0.3,1.3,0.6,1.8c0.3,0.5,0.8,0.9,1.2,1.4c0.3-0.5,0.8-1,0.9-1.5c0.1-2.3,0.1-4.5,0-6.8c-0.2-2.7-1-3.3-3.8-2.5
			c-4.5,1.2-9,2.2-13.3,3.9C181,528.3,177.4,529.6,174.5,532.8z M198.5,32.2c-2.3,1.5-4.1,2.7-6,3.8c-1,0.6-2,1.1-3,0
			c-1.3-1.4-2.1-0.8-2.9,0.6c-3.3,6.3-3.8,13.1-3.4,20.1c0,0.4,0.5,1.1,0.7,1.1c0.6-0.1,1.3-0.4,1.6-0.8c2.5-3.3,5-6.6,7.5-10
			c0.9-1.3,2.1-2.5,2.6-4C196.7,39.6,197.5,36.1,198.5,32.2z M356.8,17.4c5.1-0.1,5.8-1,4.6-6.1c-1.2-5.2-9.7-11.1-14.9-10.3
			c-1.2,0.2-1.4,1-1.5,2.1c-0.5,4,1.6,7,3.7,10.2C350.7,16.3,353.3,17.7,356.8,17.4z M213.1,12.6c-2.3,0-3.9,0.1-5.5,0
			c-3.3-0.2-5.6,1.3-8.1,3.4c-5.2,4.4-7.1,10.1-8.3,16.3c-0.2,1.1,0.3,1.6,1.3,1.1c1-0.5,2-1.1,2.9-1.8c3.4-2.5,6-5.7,9.1-8.5
			C207.8,20.2,210.2,16.8,213.1,12.6z M291,20.1c-3.3,2.5-6.4,4.7-9.3,7.1c-2,1.5-1.7,4-2.2,6.1c2.7,2,0.4,3.5-0.4,5.2
			c-0.4,0.8-0.8,1.8-0.8,2.7c-0.1,2.6,0,5.1,0,8.4c6.5-5.6,9.3-12.5,11.5-19.8C290.7,26.9,292.4,24,291,20.1z M154.5,52.3
			c0.9-0.1,1.5,0,1.8-0.3c4.3-3.8,9.3-6.9,12.5-11.8c1.3-2,2.6-4.3,4.5-5.6c3.6-2.4,4.3-6.5,6.6-9.7c-1.3,0.3-2.3,0.9-3.3,1.5
			c-0.8,0.5-1.5,1.5-2.3,1.5c-2,0.1-3.1,1.4-4.6,2.4c-3.1,2.1-5.5,4.8-7.8,7.7C158.7,42.3,155.6,46.5,154.5,52.3z M193.8,54
			c0.2,0.5,0.2,1.3,0.6,1.6c0.3,0.3,1.3,0.1,1.7-0.2c5.3-3.8,11.1-7.1,13.3-13.9c0.9-2.7,1.9-5.4,3.1-8c0.7-1.5-0.3-2.2-1.1-2.7
			c-0.4-0.2-1.4,0.3-1.9,0.8c-2.2,2.3-3.9,5.3-6.5,6.9C197.1,42.2,195.8,48.1,193.8,54z M7.7,25.6C9.1,26.2,10,26.7,11,27
			c3.1,0.8,6.2,0.3,9.4,0.2c5.4-0.1,9.1-2.8,12.4-6.4c1.2-1.3,0.7-2.8-1-3.2c-1.9-0.4-3.7-0.8-5.6-1c-2.4-0.3-4.8-0.1-6.9,1.4
			C15.5,20.5,11.8,22.9,7.7,25.6z M296.3,60.4c-0.4,0.6-0.8,0.9-0.9,1.4c-0.6,4.4-1.2,8.8-1.7,13.2c-0.1,0.9,0.2,1.9,0.6,2.8
			c1.1,2.1,2.3,4.2,3.6,6.3c1,1.6,2.1,1.7,3.6,0.6c3.1-2.1,4.2-5.1,3.7-8.8c-0.2-1.7,0.6-4.1-2.7-3.2c-0.2,0.1-1.2-1.2-1.1-1.7
			C302,66.2,298.9,63.5,296.3,60.4z M245,18.9c-0.6,0-1.2-0.2-1.6,0c-8.2,5.2-12.8,13.2-17,21.6c-0.6,1.1,0.4,2,1.9,1.8
			c4.3-0.7,7.5-3.4,10.8-5.9c0.6-0.5,0.8-1.6,1.1-2.5c1.5-4.5,2.9-9.1,4.4-13.6C244.7,20,244.8,19.7,245,18.9z M225.4,55.7
			c-0.7,1.9-1.6,4-2.4,6.2c-0.3,0.9-0.9,1.9-0.6,2.6c2,5.6,2.5,11.5,3.5,17.2c0.2,1.4,1,1.7,1.9,0.9c3.1-2.4,6.6-6.3,5.5-10.9
			c-0.5-2-1.3-4-2.3-5.8C229.2,62.4,227.1,58.8,225.4,55.7z M378,75.8c0,2,0,3.6,0,5.2c0,1.8-0.7,2.9-2.6,2c-2-0.9-2.3,0.2-2.2,1.7
			c0.3,2.5,1,5,1.4,7.5c0.7,4.7,4.3,6,8.1,7.1c1.3,0.4,1.8-0.4,1.8-1.5c-0.2-4-0.9-8-0.6-11.9C384.3,81.1,381.9,78.5,378,75.8z
			 M193.4,541.4c-0.6,0.3-1.4,0.4-1.7,0.8c-2.6,3.7-5.8,6.7-9.6,9.2c-3.7,2.5-5.1,6.8-7.7,10.2c-1.4,1.8-2.5,3.9-3.5,5.6
			c4.6-2,9.3-4,13.9-5.9c1.2-0.5,1.9-1,2.1-2.3c0.7-4.4,2.5-8.2,5.4-11.5C193.7,545.8,194.2,543.7,193.4,541.4z M440.4,81.2
			c-3,4.7-5.9,8.9-8.2,13.4c-1.1,2.1-2,4.6-1,7.3c0.3,0.9-0.3,2.1-0.6,3.2c-0.3,0.9-0.8,1.8-1,2.7c-0.3,1.1,0.7,2.1,1.7,1.5
			c1.4-0.8,3-1.5,3.8-2.8c2.3-3.8,4.2-7.9,6.1-11.9c0.3-0.7,0.7-1.5,0.6-2.3C441.4,88.9,440.9,85.5,440.4,81.2z M120.3,85.8
			c0.9-0.2,1.4-0.3,2-0.4c5.9-1.2,9.8-4.5,11.5-10.6c1-3.4,2.1-7,4.8-9.8c1.3-1.3,2.2-3.1,1.4-5.4c-1.7,1.2-3.3,2.6-5.1,3.6
			c-3.1,1.7-5,4.2-6.5,7.4C126,75.5,123.2,80.4,120.3,85.8z M437.8,34.9c-1.8,4.6-2.8,9.1-2.5,13.7c0.2,2.4,0.6,4.7,1.2,7
			c0.3,1.2,1.5,1.8,2.6,0.7c3.8-3.9,6.7-8.2,6.6-14c0-1.8-0.4-3-2.2-3.8C441.7,37.8,440.1,36.4,437.8,34.9z M498,69.6
			c-1.8,5.9-1.6,11.2-0.6,16.6c0.9,5,3.3,6.7,8.1,5.8c1.9-0.3,2.3-1,1.8-3c-1.1-4.5-2.2-9-3.4-13.4c-0.2-0.7-0.6-1.4-1.1-1.9
			C501.4,72.4,499.9,71.2,498,69.6z M194.7,17.8c-1.5,0.4-2.6,0.6-3.6,1.1c-8.9,4.3-13.3,12.1-16.3,21c-0.1,0.4-0.1,1,0.1,1.2
			c0.2,0.2,0.9,0.2,1.3,0c5-2.7,9.3-6.3,12.2-11.3C190.6,26.2,192.4,22.3,194.7,17.8z M432.5,81.4c2.6-2.2,4.3-4.1,4.6-7.1
			c0.3-2.8,0.8-5.7,1.5-8.4c0.6-2.1,0.3-3.7-1.4-5.2c-1.8-1.5-2.8-3.4-3.1-5.8c-0.1-0.8-0.4-1.5-0.7-2.2c-0.1-0.3-0.6-0.6-1-0.6
			c-0.2,0-0.6,0.4-0.6,0.6c-0.5,2.8-1.3,5.6-1.3,8.5c0,4.5,0.5,8.9,0.9,13.4C431.6,76.7,432.1,78.8,432.5,81.4z M105.4,51.4
			c5.8-3.2,11.4-5.4,14.4-10.6c1.7-3,3.1-6.4,2.8-11.2c-1.9,2.8-4.1,4.4-6.2,3.2c-2.5-1.5-3.2,0.1-4.1,1.3c-0.8,1.1-1.3,2.6-1.8,3.9
			C108.9,42.2,107.4,46.4,105.4,51.4z M147.8,2.2c0.3,1.1,0.3,2.3,0.9,3.2c2.7,4.1,1.9,8.1-0.3,11.9c-2.9,4.9-2,10-1.7,15.1
			c0.1,1.1,0.8,2.1,1.5,3.6c0.8-1.4,1.4-2.2,1.6-3.1c1.8-5.8,3.8-11.6,5.1-17.5C155.9,10.5,154.5,3.6,147.8,2.2z M365.9,43.8
			c-1.3-0.1-1.9-0.1-2.5-0.2c-2.6-0.3-3-0.1-2.2,2.2c1.7,4.6,3.5,9.2,5.5,13.7c0.7,1.7,1.7,1.7,2.7,0.2c1.5-2.4,3.3-4.9,4.1-7.5
			c0.7-2.3,0.2-5,0-7.5c-0.1-0.8-0.5-1.6-2-1.3C369.6,43.9,367.4,43.7,365.9,43.8z M238.3,82.9c2.9-2.1,5-3.5,7-5
			c5.3-4.1,5.9-10.4,7.4-16.3c0.2-0.9-0.4-1.6-1.5-1.1c-1,0.5-2,1-3,1.5c-1.7,0.9-3.9,1.5-4.8,3C240.2,70.1,238.9,75.8,238.3,82.9z
			 M323.3,62.5c-2.8,3.9-3.7,7.8-3.6,12.4c0.2,5.1,2.3,9.6,3.3,14.4c0.2,1.1,1.6,0.9,2.4,0.3c2.4-1.8,4.4-3.9,4.7-7
			c0.2-1.5-0.2-3.6-1.1-4.4c-1.7-1.3-2.4-2.8-3.1-4.6c-0.3-1-1.2-1.9-2-2.6c-1.2-1.2-1.2-1.1,0.1-2.7c0.3-0.4,0.5-1.2,0.4-1.7
			C324.2,65.2,323.8,63.9,323.3,62.5z M450.7,119.1c0-0.4,0-1.4-0.2-2.3c-0.1-0.4-0.4-1-0.7-1c-0.4-0.1-0.9,0.2-1.2,0.5
			c-1.2,1.3-2.1,2.9-3.4,4c-1.9,1.7-2.8,4-3,6.4c-0.4,3.5-1,6.9-2.6,10.2c-0.9,1.8,0,2.8,1.9,2.6c4.1-0.5,7.3-3.3,8-7.8
			C450.1,127.7,450.3,123.7,450.7,119.1z M425.1,55.4c3.3-5.2,5.5-10.2,5.1-16c-0.1-0.9-0.2-2.2-0.8-2.6c-2.6-1.7-4.7-4.5-8.1-4.9
			c-0.7-0.1-1.4-0.1-2.2-0.2c0,0.7-0.3,1.8,0.1,2.2c1.6,1.6,1.3,3.5,1.4,5.4c0.1,1.6,0.2,3.2,0.7,4.7
			C422.4,47.6,423.7,51.2,425.1,55.4z M340.9,53c2.6-3.2,2.8-6.8,3.6-10.2c1.2-5-0.2-9.5-2.5-13.8c-0.4-0.7-1-1.2-1.6-1.7
			c-1.5-1.1-2.3-0.9-2.9,0.8c-1.5,3.9-1.6,8-0.8,11.9C337.6,44.3,339.3,48.4,340.9,53z M164.2,66.8c1.4,0.2,2.3-0.3,2.4-2
			c0-1.1,0.4-2.2,0.7-3.2c1-4.1-1-7.4-2.8-10.8c-0.7-1.3-1.9-1.5-3.2-0.3c-1.6,1.5-3.5,2.8-5.1,4.3c-0.5,0.4-0.8,1.3-0.8,2
			c0,0.9,0.4,1.8,0.6,2.8C156.9,64.5,159.2,66.6,164.2,66.8z M485.4,76.9c-1.3,2.9-2.2,5.1-3.1,7.2c-0.6,1.3-1.1,2.7-3.1,2
			c-1.4-0.5-1.1,0.3-0.5,1.1c0.5,0.8,0.8,1.6,1.3,2.4c2,3.8,4.5,7.3,8.8,8.9c1.9,0.7,2.6,0.3,2.6-1.9c0.2-5.2-1.4-10-3.2-14.8
			C487.5,80.3,486.6,79,485.4,76.9z M90.3,53.2c4.2,0,7.4-1.6,9.6-3.9c2.8-3,4.7-6.9,7-10.4c0.7-1,0.4-1.7-0.8-2.1
			c-0.6-0.2-1.3-0.9-1.5-1.6c-0.5-1.5-1.7-1.5-2.7-1.2c-1.2,0.4-2.7,0.9-3.3,1.8c-1.7,2.5-3.7,5.1-4.3,8
			C93.6,47.2,92.2,50,90.3,53.2z M77.7,35.1c-0.4-1.5-0.8-3.1-1.3-4.5c-0.2-0.5-0.8-1.1-1.2-1.1c-2.7,0.2-5.4,0.6-8.1,0.7
			c-1.7,0.1-2.5,0.9-2.1,2.4c0.9,3.5,2,7,3.1,10.5c0.2,0.6,0.7,1.1,1.2,1.5c1.2,0.9,2.8,1.2,3.8-0.1C75.2,41.7,77.8,39.1,77.7,35.1z
			 M378.5,22.5c-0.8-2.4-1.7-4.8-2.4-7.2c-0.5-1.7-1.3-3.3-3-3.3c-2,0-1.9,2.2-2.7,3.6c-0.1,0.3,0,0.7-0.2,0.9
			c-2.3,5.9,0.5,11.7,0.3,17.6c-0.1,1.3,1.3,1.7,2.3,0.6C376.1,31.3,378.3,27.5,378.5,22.5z M450.2,88.4c-1.5,5.6-2.9,10.5-4.1,15.4
			c-0.3,1.2-0.2,2.6-0.1,3.9c0.2,2.5,1.6,3.3,4,2.1c0.9-0.4,1.8-0.9,2.4-1.6c3.5-4.3,6.8-8.8,7.9-15.4c-0.9,1.1-1.3,1.5-1.7,2
			c-0.5,0.6-0.9,1.4-1.3,2c-1.4,1.9-2.2,1.9-3.3-0.1C452.6,94.2,451.6,91.5,450.2,88.4z M209,50.6c1.9-1.2,3.1-1.8,4-2.6
			c5.3-4.7,9.9-10,12.6-16.7c0.3-0.8,0.5-1.8,0.7-2.6c-0.9,0.2-1.8,0.2-2.6,0.5c-1.5,0.6-2.9,1.5-4.4,1.9c-2.3,0.6-4,1.9-5,4.1
			c-1.1,2.4-2.5,4.8-3.4,7.3C210.2,44.8,209.8,47.3,209,50.6z M341,67c7.5-4.7,11.5-11.2,12.5-19.4c0.4-3.2,0.7-6.3,1-9.5
			c0-0.3-0.5-0.7-0.8-0.9c-0.1-0.1-0.6,0.3-0.7,0.5c-3.3,5.8-6.4,11.8-8.6,18.1C343.1,59.5,342.1,63.3,341,67z M251.9,89
			c2.6,0,5.5-0.6,7.9-2c1.8-1.1,3.6-2.9,3.2-5.3c-0.6-3.8-1.7-7.4-2.6-11.1c-0.4-1.5-1.4-1.7-2.4-0.4c-0.7,0.9-1.3,1.8-1.8,2.8
			C253.5,77.8,251.4,83,251.9,89z M393.8,42.2c0.1-3.2-0.9-5.9-2.2-8.8c-1.1-2.5-3.5-3.3-5.2-4.9c-1.2-1.1-1.9-3.1-4.1-2.8
			c0.2,1.7,0.3,3.4,0.6,5c1,6.6,4.8,12.2,7.1,18.3c0.2,0.5,0.9,0.7,1.4,1.1c0.3-0.5,0.9-0.9,1-1.4C393,46.5,393.4,44.3,393.8,42.2z
			 M229.7,109.3c1.1-0.7,2.4-1.2,3.4-2.1c3.7-3.1,6.1-6.8,5.3-12c-0.4-2.4-0.1-4.8,0-7.2c0-0.5,0.6-0.9,1-1.4c0.5,0.7,1,1.3,1.7,2.2
			c0.2-1.8,0.3-3.4,0.5-5.2c-1.1,0.4-1.9,0.5-2.6,0.9c-3.6,2-6.7,4.4-7.3,8.9C231,98.6,230.3,103.9,229.7,109.3z M375.4,80.7
			c0.6-3.4,1.3-6.1,1.4-8.7c0.3-4.7,0.6-9.6-3.7-13.4c-0.7,1-1.4,2.2-2.2,3.1c-1.1,1.1-2.3,2.1-3.5,3.2c-0.7-1.2-1.4-2.3-2.1-3.5
			c-0.1-0.2-0.4-0.3-0.5-0.3c-1.9,2.4-1,4.1,1,6.1c2.2,2.3,3.6,5.2,5.5,7.8C372.6,76.7,373.9,78.4,375.4,80.7z M175,24.1
			c2.4-0.9,4.3-1.7,6.3-2.4c1.3-0.5,2.8-0.7,4-1.3c1.1-0.5,1.5-1.5,0.7-2.8c-2.5-4.1-4.8-8.2-7.4-12.5c-1,2.3-1.6,4.7-3,6.5
			C172.6,15.7,173.1,19.7,175,24.1z M286,48.5c-0.1,0-0.3,0-0.4,0.1c0.5,2.8,0.6,5.8,1.5,8.4c0.8,2.2,1.9,4.3,1.9,6.8
			c0,1.1,1,1.2,1.7,0.5c3.4-3.1,5.8-9.6,3.3-13.8c-1.5-2.6-3.2-5.1-4.9-7.7c-0.3-0.4-1.2-0.9-1.6-0.8c-0.6,0.3-1.4,1-1.5,1.6
			C285.9,45.3,286,46.9,286,48.5z M289.7,39.9c0.9-0.3,1.4-0.3,1.8-0.6c4.2-3.3,7.8-7.1,10.2-11.9c0.4-0.8,0.5-1.8,0.3-2.7
			c-0.2-1.4-0.6-2.8-1.1-4.1c-0.4-1.2-0.9-3-1.7-3.2c-1.8-0.4-1.7,1.8-2.5,2.9c-0.9,1.1-1.6,2.4-2.3,3.7c-2.4,4.6-4,9.4-4.9,14.5
			C289.5,38.7,289.6,39.2,289.7,39.9z M271.8,70.3c3.2-2.9,5.6-5.5,6.2-9.3c0.8-4.9-1.3-9.1-3.4-13.3c-0.7-1.4-2.3-1.3-2.9,0.3
			c-1,2.5-2.2,5.2-2,7.8C269.9,60.3,271,64.9,271.8,70.3z M264.3,86.7c-2,5.8-3.2,10.5-2.5,15.3c0.6,3.9,0.1,7.5-0.6,11.3
			c0,0.2-0.2,0.3-0.2,0.4c0.2,0.4,0.4,0.8,0.8,1.1c0.1,0.1,0.7,0,0.8-0.1c2.3-2.7,5-5.3,6.7-8.4c0.7-1.4-0.6-3.9-1-5.8
			c-0.4-1.7-0.6-3.5-1.1-5.1C266.5,92.7,265.6,90.2,264.3,86.7z M455.7,94.6c3.4-3.1,4.1-7.1,5.3-10.9c0.9-2.8,0-5.2-2.6-7.2
			c-2-1.5-3.5-3.7-5.3-5.5c-0.5-0.5-1.1-0.8-1.5-1c0.3,2.9,0.8,5.5,0.9,8.2c0.2,2.2,0.1,4.5,0,6.8C452.4,88.5,453.4,91.6,455.7,94.6
			z M360.1,67.8c2.5-5.5,3.4-10.5,0.9-15.8c-1-2.1-1-4.6-1.5-7c-0.2-1.1-0.1-2.3-0.5-3.3c-0.4-0.8-1.4-1.2-2.1-1.8
			c-0.3,0.8-0.8,1.5-1,2.4c-0.2,1.1,0,2.3-0.3,3.4c-1.5,6-1.4,11.7,2.1,17.1C358.4,64.2,359,65.7,360.1,67.8z M3.3,43.2
			c2.8,0.7,4.9-0.1,7.2-1c4-1.6,6.9-4.9,10.9-6.5c1.9-0.8,3.1-3.5,4.4-5.5c0.6-0.9-0.2-2-1.3-1.7c-3.2,0.8-6.6,1.1-9.4,3.4
			c-1.7,1.4-3.4,3-5.3,4.1C7,37.7,5,40,3.3,43.2z M308.2,49c3.4-0.7,5.3-2.9,6.7-5.1c1.7-2.8,3-6,3.8-9.1c0.9-3.6,1-7.3,1.4-10.9
			c-1.6,1.8-3.1,3.8-5,5.6C309.6,34.9,308.7,41.7,308.2,49z M340.5,101.5c0.6-0.4,0.9-0.6,1-0.8c2.2-5.6,1.9-11.2,0.5-17
			c-0.6-2.5-2.5-3.6-4.4-4.8c-0.5-0.3-1.9,0.1-2,0.4c-0.6,2.5-0.9,5-1.3,7.5c-0.3,1.9,0.6,3.2,1.8,4.8c1.4,1.9,2.2,4.2,3.1,6.4
			C339.7,99.1,340.1,100.2,340.5,101.5z M465.9,128.2c-1.8,4.6-3.4,9-2.5,13.6c0.6,3.1,1.4,6.2,2.3,9.2c0.3,0.9,1.2,1,1.9,0.1
			c2.8-4.1,2.9-9.1,4.2-13.6c-1.3-2.1-2.6-4.3-4-6.4C467.3,130.2,466.7,129.3,465.9,128.2z M78.5,29.8c3.9,0.4,6.6-1,8.9-3
			c3.4-2.9,6.5-6.1,9.7-9.3c1.2-1.2,3.1-2.9,2-4.3c-0.8-0.9-3.5-0.3-5.3,0.1c-1,0.2-1.8,1.2-2.7,1.9C86,19.1,82.7,24.4,78.5,29.8z
			 M85.9,36.7c4.1-0.5,4.4-0.5,7.3-3.5c3.9-4.2,8.9-7.8,8.8-14.5c-2.3-0.8-4,0-5.5,1.7c-2.2,2.5-4.5,4.9-6.6,7.5
			C87.7,30.4,85.8,32.9,85.9,36.7z M317.6,67.5c4.8-4.7,6.2-10.1,3.9-16.2c-0.2-0.6-1.3-1.4-1.6-1.2c-3.1,1.3-3.7-1.1-4.6-3.2
			c-2.8,2.7-2.7,6-1.8,9.1C314.5,59.7,316.1,63.4,317.6,67.5z M428.7,96.8c-7.3,5.4-11.9,11.9-12.7,21.1
			C425.2,113.8,429.4,107,428.7,96.8z M328.4,73.8c1.2-1.9,1.9-3,2.6-4.2c1.9-2.9,2.9-6.1,2.3-9.6c-0.5-3.2-1.4-6.2-3.6-8.7
			c-0.8-0.9-1.5-1-2.1,0.4c-1.5,3.8-2.6,7.6-1.9,11.7C326.4,66.7,327.4,69.8,328.4,73.8z M271,129.7c-0.3-1.1-0.5-2-0.9-2.9
			c-1.1-3-2.5-3.4-5-1.5c-0.7,0.5-1.2,1.4-1.5,2.3c-0.4,1.1-0.7,1.7-2.2,1.9c-1.1,0.1-2.3,1.5-3.2,2.6c-1,1.2-1.6,2.7-2.4,4.1
			c-0.7,1.2-0.1,2.4,1.1,2.2c3-0.5,5.9-1.2,8.8-2.1c0.6-0.2,1-1.2,1.6-1.6c1.5-1.2,0-4.7,3.4-4.3C270.9,130.4,271,129.8,271,129.7z
			 M386.6,62.1c-0.2,0.2-0.5,0.5-0.7,0.7c1,2.1,2.1,4.3,3,6.4c1,2.3,0.7,3.4-0.9,4.6c-1.6,1.3-2.8,0.1-3.9-0.6
			c-1.6-0.9-3-2.1-4.9-3.5c0,1.2-0.1,1.7,0,2.1c2.3,5.9,7.9,8.5,14,6.4c0.5-0.2,1-1.2,1-1.8c-0.1-2.2-0.7-4.4-0.7-6.7
			c0.1-2.3-1-3.7-2.6-4.9C389.6,63.9,388,63.1,386.6,62.1z M361.6,118.1c-1,2.9,1.1,5.4,2.5,7.9c0.9,1.6,2.4,3,4.7,2.9
			c1.6,0,2.6-0.5,2.3-2.2c-0.6-3.6-1.3-7.2-2.2-10.7c-0.4-1.8-5.4-4.2-6.3-3.1c-0.9,1-0.7,2.9-1,4.3
			C361.6,117.3,361.6,117.5,361.6,118.1z M161.5,29.5c-1.4,0.8-2.7,1.6-3.9,2.3c-3.2,1.9-5.3,4.4-4.8,8.4c0.1,0.6-0.4,1.4-0.8,2
			c-1,1.4-2.2,2.7-2.9,4.2c-0.5,1.1-2.4,2.4-0.9,3.6c0.7,0.5,2.7-0.5,3.8-1.2c0.9-0.5,1.5-1.6,2.1-2.5c1.8-2.8,3.2-6,5.4-8.4
			C161.7,35.4,162.1,32.9,161.5,29.5z M379.1,16.7c1.4,5.2,1.3,5.4,2.5,5.9c4.8,2,8,6.1,12.2,9.1c0.2-0.5,0.5-0.9,0.6-1.3
			c0.4-3,0.8-6,1.1-9c0.1-1.2,0.2-2.4,0.2-3.6c-1.1,0.5-2.5,0.8-3.4,1.5c-1.7,1.3-4.4,1.4-4.9,4.2c0,0.1-0.6,0.2-0.8,0.1
			c-0.3-0.3-0.7-0.7-0.8-1.1c0-1,0.9-2.1-0.7-2.8C383.2,18.9,381.4,17.9,379.1,16.7z M301.2,32.5c-1.5,1.6-2.9,2.9-4,4.4
			c-0.7,0.8-1.4,1.9-1.4,2.9c0.1,3.5,0.5,7,1,10.4c0.1,1.1,1.1,1.2,1.7,0.5c2.8-3.5,5.5-7.1,6.5-11.5c0.1-0.6-0.4-2-0.6-2
			C301,37.3,301.3,34.7,301.2,32.5z M396.6,38.3c-0.3,0.1-0.7,0.1-1,0.2c0.1,4.4-0.4,8.8,0.9,13.3c1.1,3.7,3.9,6.2,5.9,9.1
			c1.1,1.5,2.8,1,3.1-0.8c0.4-2.2,0.4-4.4,0.4-6.7c0-0.2-1.1-0.8-1.3-0.7c-2.3,1.3-3.1,0.1-3.7-2c-0.6-2.1-1.7-4.1-2.4-6.3
			C397.7,42.5,397.2,40.4,396.6,38.3z M134.1,19.4c-8.2,8.6-8.9,9.9-10.4,19.3c1.9,0,3.4-0.9,4.7-2.1c1.2-1.1,2.2-2.3,3.4-3.4
			c1.3-1.2,1.7-2.5,1.8-4.3C133.6,26,133.9,23,134.1,19.4z M264.7,49.3c2.1-1.4,3.6-2.3,5-3.4c4.5-3.5,8-7.7,8.2-13.7
			c0-0.5-0.5-1.1-0.8-1.5c-0.1-0.1-0.8,0.2-1.1,0.5c-2,2-3.9,4.2-6.1,5.9C265.9,40.1,264.6,44,264.7,49.3z M46.6,9.2
			c-3.7-1.4-6.6-2.6-9.6-3.7c-0.3-0.1-0.6-0.4-0.9-0.4C34.8,5,33.5,4.9,32.3,5c-1.7,0.2-2.5,1.5-2,3.1c0.6,2.1,6,6.9,8.1,7.1
			c0.4,0,1-0.2,1.3-0.4C41.8,13.1,43.9,11.4,46.6,9.2z M243.4,94.2c1.8-0.7,3.5-1.1,4.7-2c0.7-0.5,0.6-2,0.9-3.1
			c1.1-5,1.7-10.1,4-14.8c0.2-0.3-0.2-0.9-0.3-1.4c-0.5,0.3-1.2,0.4-1.6,0.8c-1.4,1.8-2.4,3.9-4.1,5.3c-2.1,1.9-3,4.1-3.5,6.6
			c-0.4,2.2-0.9,4.4-1.1,6.6C242.4,92.8,243,93.5,243.4,94.2z M200,35.9c3.8-1.3,6.2-3.9,8.9-6.1c1.9-1.5,3.3-3.4,4.3-5.7
			c1.2-2.6-0.6-4.7-0.6-7.1C208.6,23.3,201.5,27.5,200,35.9z M481.8,116.5c0.6-0.9,0.9-1.4,1.3-1.9c1.8-3.1,0.2-6.2-0.2-9.3
			c-0.3-2.5-2.2-5-1.9-7.3c0.5-3.6-2-5-3.8-7.2c-0.1,1.5-0.3,3.2,0.4,4.1c1.2,1.6,1.5,3.2,1.2,5c-0.3,2.5-0.9,5-1.3,7.5
			c-0.1,0.7-0.3,1.6,0,2.2C478.7,111.7,480.1,113.8,481.8,116.5z M488,137.2c1.1-1.4,1.7-2.8,1-4.6c-0.4-0.9-0.6-1.9-0.5-2.8
			c0.5-4.6-2.4-7.1-5.9-9.1c-1.3-0.7-1.9,0-1.8,1.2c0.2,2.5,0.9,5.1,0.9,7.6c0,2.4,1,4,2.7,5.3C485.6,135.7,486.8,136.5,488,137.2z
			 M337.2,51.8C337.2,51.8,337.2,51.8,337.2,51.8c0-0.8,0.2-1.7-0.1-2.4c-1-3.1-1.1-6.7-4.3-8.7c-0.9-0.6-1.7-1.2-2.5-0.1
			c-0.9,1.2-3.1,1.8-2.3,3.8c0.7,1.7,1.7,3.6,3.1,4.7c1.4,1.1,2.1,2.1,2.4,3.8c0.3,1.5,0.7,3.9,2.4,3.6c1.9-0.3,1-2.7,1.3-4.2
			C337.3,52.2,337.2,52,337.2,51.8z M343,7.3c-4,1.3-5.6,4.1-6.3,7.5c-0.6,2.5-1,5-1.5,7.5c-0.1,0.6-0.2,1.2-0.3,1.8
			c0,0.1,0.2,0.3,0.3,0.3c0.2,0,0.7,0.1,0.7,0c0.2-0.4,0.2-1,0.4-1.3c0.8-1.1,0.9-4.2,3.3-1.3c0.2,0.2,1.2-0.1,1.6-0.4
			c2.1-2.2,3.5-5.1,2.3-7.8C342.8,11.4,342.5,9.5,343,7.3z M494.3,78.9c-1,1.9-1.6,2.6-1.7,3.5c-0.7,4.7,0,9.3,1,13.8
			c0.4,1.6,3.9,4.3,5,4.2c0.4-0.1,1-0.5,1-0.9c0.4-2.2,1-4.4-0.9-6.3c-2.6-2.7-3.4-6.1-3.6-9.7C495.1,82.3,494.8,81.1,494.3,78.9z
			 M303.1,35c2.4-1.2,3.9-1.9,5.3-2.7c1.6-0.8,3.2-1.6,3.5-3.6c0.4-2.8,0-5.5-1.4-7.8c-0.4-0.7-1.7-1.3-2.4-1.1
			c-0.6,0.1-1.4,1.2-1.7,2C305.3,25.8,304.3,29.9,303.1,35z M343.1,54.1c-2.3,1.2-5.2,1.1-5.3,4.6c0,0.9-2.2,1.8-2.2,2.7
			c0.1,3.6-1.8,6.4-2.8,9.6c-0.4,1.2-0.4,2.2,0.6,3c0.3,0.2,1.5-0.1,1.5-0.1c0.1-3,2.7-4.5,3.8-6.7C340.8,63,341.7,58.5,343.1,54.1z
			 M379.8,28.4c-1.7,2.6-3.1,4.9-4.5,7.1c-1.3,2.2-1.7,4.4-0.4,6.8c0.9,1.7,2.7,1.6,4.1,1.9c0.5,0.1,1.4-1.4,1.8-2.3
			C382.8,37.2,380.6,33,379.8,28.4z M294.1,19c3.2-3.1,6.3-6,9.2-9c0.7-0.7,0.8-2,0.8-3.1c0-1.8-0.9-2.5-2.4-1.6
			c-2.8,1.6-5.4,3.4-8.1,5.1c-0.2,0.2-0.5,0.5-0.5,0.8C293.5,13.8,293.8,16.5,294.1,19z M272.6,82.1c3-4,5.8-7.7,3.9-13.2
			c-2,1.6-3.7,3-5.6,4.6c-0.7-1.4-1.3-2.7-2.2-4.5c-0.3,2.1-1.2,3.9-0.7,5.2C269.1,77,270.1,79.9,272.6,82.1z M495.5,71.1
			c-2.6-0.2-5.2-0.5-7.7-0.6c-0.4,0-1,0.5-1.2,0.9c-0.7,1.5-0.9,2.8,0.4,4.3c1.4,1.6,2.3,3.6,3.7,6C492,77.7,496.4,75.9,495.5,71.1z
			 M421,71.6c-2.2-1.5-4.2-2.7-6.1-4.1c-2.7-1.9-2.9-1.9-4,1.4c-0.4,1.3-0.8,2.8-0.8,4.2c-0.1,2.2,0.7,2.8,3,2.4
			C416.1,75.1,418.7,73.5,421,71.6z M275.7,133.4c-4.4,5-4.7,5.9-5.7,15.9c2.1-1.5,4.1-2.6,5.7-4.1c0.8-0.8,1.3-2.3,1.2-3.4
			C276.7,139,276.1,136.2,275.7,133.4z M430.2,27c-0.2,0.7-0.2,0.8-0.2,0.9c1.9,6,3.6,12,1.5,18.4c-0.2,0.7,0.6,1.7,1.1,3.1
			c0.8-4,1.4-7.3,2-10.6c0.3-1.7,1.2-3.5,1-5.1c-0.2-2-1.1-4-2.2-5.6C433,27.4,431.3,27.4,430.2,27z M282.1,24.2
			c2.9-2.2,5.2-4,7.7-5.8c1.6-1.1,2.6-3.7,1.5-5.1c-1.2-1.4-2.6-0.7-3.9,0.1c-0.8,0.5-1.8,1-2.2,1.7
			C283.7,17.8,282.4,20.5,282.1,24.2z M422.6,70.3c2.4-3.1,5.1-4.7,5.7-7.7c0.5-2.8,0.7-5.7,1-8.7c-1.7,1.6-3.1,4-4.4,4
			c-2.9-0.1-2.5,1.1-1.9,2.7C424.5,65.6,424.5,65.6,422.6,70.3z M368.6,95.4c1.3,2.6,2.2,5,3.6,7.1c1,1.5,2.6,2.7,4,3.9
			c0.1,0.1,1.2-0.6,1.2-0.7c-0.7-2.7-1.1-5.5-2.8-8C373.1,95.4,371.6,94.5,368.6,95.4z M254.4,13.9c1.3,3.7,2.5,7.2,4,11.3
			c1.1-3.1,1.9-5.4,2.7-7.8c0.2-0.7,0.1-1.6-0.2-2.2C259.8,12.4,258.7,12.2,254.4,13.9z M359.2,73.7c0.8,0.5,1.7,1.1,2.6,1.7
			c2.1,1.3,4,1.1,5.7-1c1.4-1.7-0.4-2.8-1.2-4c-0.4-0.6-1.1-1.2-1.7-1.7c-0.9-0.8-1.6-0.7-2.2,0.4C361.4,70.6,360.3,72.1,359.2,73.7
			z M346.4,14c-0.3,1.7-0.6,3.1-0.9,4.5c-0.3,1,0,1.5,1,1.7c3.3,0.8,6.6,1.4,9.8,2.4c1.4,0.5,2.1,0.2,2.6-1c0.3-0.6,0.8-1.1,1.8-2.6
			C354,21.4,349.9,18.9,346.4,14z M57.9,34.7c-1.9,1.6-3.6,3-5.3,4.5c1.3,1.7,2.6,3.3,4,4.9c0.7,0.8,2.2,0.4,2.2-0.6
			C59,40.5,59.6,37.4,57.9,34.7z M46.3,11.9c1.4,2,2.2,4.6,3.5,4.8c2.2,0.5,2.9-2.6,4.4-3.9c0.3-0.3,0.6-0.8,0.7-1.2
			c0.5-1.4-0.6-2.6-2-2.2C51,10.1,49.1,10.9,46.3,11.9z M303.9,21.9c1-2.1,2-3.7,2.7-5.5c0.3-0.8,0.5-1.9,0.4-2.8
			c-0.2-1.4-1.7-2.4-2.8-1.8c-1.2,0.7-2.4,1.7-3.1,2.8c-0.3,0.5,0.4,1.7,0.7,2.5C302.5,18.7,303.1,20.1,303.9,21.9z M255.3,56.5
			c-0.4,3-0.7,5.4-1.1,7.7c-0.4,2.3-0.4,4.6,0,7.4c1.5-1.9,2.6-3.2,3.6-4.7c0.3-0.5,0.6-1.2,0.4-1.7
			C257.4,62.5,256.4,59.7,255.3,56.5z M356.1,66.1c0.3-0.1,0.5-0.2,0.8-0.2c-1.2-2.4-2.4-4.7-3.6-7.1c-0.1-0.2-0.6-0.3-0.8-0.2
			c-0.2,0.1-0.5,0.5-0.5,0.7c0.9,4.3,1.8,8.6,2.8,12.9c0.1,0.3,0.5,0.6,0.7,0.9c0.3-0.3,0.9-0.7,0.9-1C356.4,70,356.2,68,356.1,66.1
			z M197.3,538.6c-0.3,4.9-1.7,9.4-5,13c-1.7,1.9-1.4,3.9-1.1,6c1.3-2.4,2.7-4.7,4-7.1c1.1-2.3,2.2-4.6,3.1-7
			C198.8,542,198.9,540.2,197.3,538.6z M464.9,49.7c2.2,3.8,0.6,7.7,2.2,11.5C471.4,54.6,471.1,53.2,464.9,49.7z M170.8,19.4
			c-1.1,1.2-1.8,2-2.6,2.9c-1.5,1.7-1.4,3.9,0.3,5.2c0.4,0.3,1.3,0.3,1.7,0.1c1.4-0.9,2.5-2.1,2-3.9C172,22.3,171.4,21.1,170.8,19.4
			z M368,17.7c-1,0.9-1.9,1.5-2.6,2.4c-1,1.4-3.8,1.2-3.3,3.5c0.1,0.6,2.5,0.6,3.8,1.1c0.7,0.2,1.3,0.8,2,1.3
			C368,23,368,20.6,368,17.7z M271.4,114.2c0,2.9-0.1,5.8,0,8.6c0.1,1.4,0.6,2.8,1,4.2c0.1,0.2,0.5,0.6,0.6,0.6
			c0.4-0.2,0.9-0.5,0.9-0.8C274.5,122.4,273.3,118.3,271.4,114.2z M365.8,142.1c-0.2-2.5-0.4-4.4-0.6-6.3c-0.1-1.7-0.2-3.4-0.5-5.1
			c-0.1-0.5-1.1-0.9-1.7-1.3c-0.1,0.6-0.4,1.2-0.3,1.7c0.2,2.2,0.5,4.4,0.8,6.6c0.2,1.4,0.4,2.8,0.7,4.2c0.1,0.3,0.8,0.5,1.3,0.8
			C365.7,142.3,365.9,141.9,365.8,142.1z M324.4,55.5c1.2-3.1,2.1-5.4,2.9-7.8c0.1-0.4-0.3-1.3-0.7-1.6c-0.4-0.3-1.3-0.3-1.7-0.1
			c-1.4,0.9-2.4,2.1-2,4C323.2,51.6,323.7,53.1,324.4,55.5z M370.4,84.8c0.3-0.1,0.5-0.2,0.8-0.3c0-1.4,0.2-2.9-0.1-4.3
			c-0.2-1.2-0.8-2.8-1.6-3.2c-0.9-0.4-2.4,0.4-3.7,0.7C367.5,80.4,368.9,82.6,370.4,84.8z M100.2,10c-2.6-1.3-4.4-2.3-6.2-3.1
			c-0.4-0.2-1.5,0.3-1.6,0.6c-0.2,1.1-0.2,2.2,0,3.2c0.1,0.3,1.1,0.7,1.6,0.6C95.7,11.1,97.3,10.7,100.2,10z M448.5,22.6
			c0.9,3.6,1.8,7.2,2.6,10.8c0.5-2.5,0.4-5,0.5-7.5C451.7,23.6,450.4,22.8,448.5,22.6z M106.4,11.2c-1,0.2-1.7,0.5-2.4,0.5
			c-1.6-0.1-2.3,0.9-2.7,2.2c-0.2,0.7,0,1.5,0.1,2.2c0.6-0.1,1.2-0.1,1.8-0.3C105.1,15,105.8,13.4,106.4,11.2z M46.7,21.8
			c2.4-1.8,1.9-3.4,0.4-5c-0.4-0.4-0.5-1.2-0.9-1.6c-0.5-0.5-1.2-0.9-1.8-1.3c0,0.8-0.1,1.7,0.1,2.4C45.1,18.1,45.9,19.8,46.7,21.8z
			 M383.5,39.2c-1.2,5.7-1.2,5.7,3.9,7.9C386.2,44.7,385.1,42.5,383.5,39.2z M235.7,4.7c-1.7,1.1-3.1,1.8-4.4,2.7
			c-0.6,0.4-0.9,1.1-1.3,1.7c0.7,0.2,1.5,0.5,2.2,0.4c1.8-0.2,3.2-1.2,3.8-3C236.1,6.1,235.8,5.6,235.7,4.7z M259.3,145.2
			c1.3-1.2,2.4-2.3,3.5-3.5c0.3-0.4,0.4-1.1,0.3-1.6c0-0.2-0.8-0.4-1.3-0.4C259,139.8,258.7,140.5,259.3,145.2z M164.6,24.8
			c-0.5,1-1.1,1.7-1.1,2.4c0,1.4,0.4,2.7,0.7,4.1c0,0,1.5,0,1.8-0.3C167.3,29,166.4,27.3,164.6,24.8z M299.3,53.6
			c-2.9,1.8-3.5,3.7-1.9,5.3c0.3,0.3,0.8,0.6,1.3,0.5c0.2,0,0.6-0.6,0.6-1C299.4,57,299.3,55.4,299.3,53.6z M361.3,105.1
			c-0.3,0.2-0.6,0.4-0.9,0.6c0.5,1.4,0.8,3,1.6,4.2c0.3,0.5,1.7,0.3,2.5,0.4c-0.1-0.5,0-1.2-0.3-1.6
			C363.4,107.4,362.3,106.2,361.3,105.1z M334,38.2c0.4-3.4,0.9-6.9,1.3-10.3C334.3,31.3,332.3,34.5,334,38.2z M261.3,28.6
			c-2-0.8-3,0.3-3.7,1.5c-0.3,0.5,0.4,1.6,0.7,2.4c0.5-0.3,1.3-0.6,1.6-1.1C260.5,30.6,260.8,29.6,261.3,28.6z M330.7,74.4
			c0.8,2.8,1.3,4.7,2,7.1C334.2,77,334.2,77,330.7,74.4z M334,527c-2.1,0.2-3.2,1.6-4.1,3c-0.1,0.2,0.1,0.6,0.3,0.8
			c0.2,0.2,0.7,0.2,0.8,0.1C332,529.6,333,528.3,334,527z M453.3,117.7c0.2-0.9,0.4-1.8,0.5-2.7c0.2-0.9,0.3-1.9,0.6-3.1
			C450.7,113.5,453.2,115.8,453.3,117.7z M81.4,23.2c1.1-1.4,1.8-2.2,2.3-3.1c0.2-0.3-0.2-1-0.4-1.5c-0.6,0.2-1.5,0.3-1.6,0.6
			C81.4,20.3,81.5,21.4,81.4,23.2z M293.6,45.4c0-1.4,0-2.3,0-3.3c0-0.9-0.5-1.2-1.2-0.7c-0.4,0.3-0.9,1-0.8,1.2
			C291.9,43.6,292.6,44.3,293.6,45.4z M207.3,519.8c0.2,0.1,0.5,0.1,0.7,0.2c0.4-1.2,0.7-2.4,1.1-3.6c-0.3-0.1-0.6-0.2-0.9-0.2
			C207.9,517.3,207.6,518.5,207.3,519.8z M311.1,16c-0.4-0.5-0.5-0.7-0.7-0.9c-0.5,0.7-1.1,1.3-1.6,2c0.3,0.1,0.7,0.4,0.9,0.3
			C310.2,16.9,310.7,16.4,311.1,16z M265.2,11.5c-0.4-0.3-0.7-0.7-0.8-0.6c-0.7,0.4-1.5,1-2.2,1.5c0.2,0.2,0.6,0.7,0.6,0.6
			C263.6,12.6,264.4,12.1,265.2,11.5z M332.2,83c-0.6,1.7-0.9,2.4-1.1,3.2c-0.1,0.2,0.1,0.5,0.1,0.8c0.3-0.2,0.9-0.5,0.9-0.7
			C332.3,85.5,332.2,84.7,332.2,83z M327.3,15c-0.5-0.4-0.9-0.8-1.2-0.9c-0.2-0.1-0.7,0.4-0.7,0.5c0.1,0.3,0.3,0.8,0.6,0.8
			C326.3,15.5,326.7,15.2,327.3,15z M396.2,35c-0.1-0.3-0.2-0.7-0.4-0.8c-0.2-0.1-0.5,0.1-0.8,0.2c0.1,0.3,0.2,0.6,0.5,0.8
			C395.6,35.3,395.9,35.1,396.2,35z M276.1,44c-0.2-0.3-0.4-0.5-0.5-0.7c-0.1,0.3-0.3,0.5-0.3,0.8c0,0.3,0.2,0.5,0.3,0.8
			C275.8,44.6,276,44.3,276.1,44z M430.3,50.6c-0.1,0.1-0.2,0.1-0.4,0.2c0.1,0.1,0.1,0.2,0.2,0.3c0.2-0.1,0.4-0.3,0.6-0.4
			C430.6,50.7,430.4,50.7,430.3,50.6z"/>
		<path d="M57.2,3.8c0-1.3-0.1-2.5-0.1-3.8c0.6,0,1.3,0,1.9,0C58.4,1.3,57.8,2.5,57.2,3.8z"/>
		<path d="M412.9,0c-1.3,1.6-2.6,1.5-3.9,0C410.3,0,411.6,0,412.9,0z"/>
		<path d="M514.7,76.8c-0.6,2.6-1.4,6.1-2.3,9.7c-0.1,0.3-1.1,0.7-1.6,0.6c-0.3-0.1-0.8-1-0.7-1.4c0.8-2.9,1.6-5.9,2.8-8.7
			c0.8-1.8,0.6-3-0.8-4.3c-2.1-1.9-3.6-4.1-3.5-7.1c0-1.5-0.9-2.3-2.4-2.6c-2.8-0.6-5.6-1.3-8.4-1.9c-0.5-0.1-1-0.6-1.5-0.9
			c0.4-0.4,0.8-1,1.3-1c4-0.4,7.5,1.4,11.1,2.6c0.9,0.3,1.4,2.3,2,3.5c0.7,1.6,1,3.4,1.9,4.8C514.6,72.9,514.7,72.8,514.7,76.8z"/>
	</g>
</g>
</svg>
