<?xml version="1.0" encoding="utf-8"?>
<!-- Generator: Adobe Illustrator 18.0.0, SVG Export Plug-In . SVG Version: 6.00 Build 0)  -->
<!DOCTYPE svg PUBLIC "-//W3C//DTD SVG 1.1//EN" "http://www.w3.org/Graphics/SVG/1.1/DTD/svg11.dtd">
<svg version="1.1" id="Layer_1" xmlns="http://www.w3.org/2000/svg" xmlns:xlink="http://www.w3.org/1999/xlink" x="0px" y="0px"
	 viewBox="0 0 694.7 567.2" enable-background="new 0 0 694.7 567.2" xml:space="preserve">
<path d="M177.5,512.2c0.8,0.6,1.5,1.2,2.3,1.7c3,2,3,2,5.8,0c2.3-1.6,2.3-1.6,0.6-4.3c-0.6-0.9-1-1.7-0.1-2.5
	c0.9-0.9,1.7-0.6,2.5,0.1c0.4,0.3,0.7,0.6,1,1c1.5,1.9,3.1,2.2,5.5,1c3-1.5,6.3-2.3,9.8-2c0.4,0,0.8,0.3,1.4,0.5
	c-1,1.7-2.7,1.9-4.1,2.5c-2.4,1-4.7,2.1-7,3.3c-0.4,0.2-0.5,1.3-0.4,2c0.2,1.1,1,1.1,1.8,0.5c1.1-0.7,2.1-1.5,3.3-2
	c0.6-0.3,1.4-0.1,2.1-0.1c-0.3,0.6-0.4,1.4-0.8,1.9c-2.3,2.2-4.7,4.3-7,6.6c-0.9,1-1.1,2.2,0.5,3.2c1.6,1,3,2.4,4.4,3.7
	c0.9,0.8,0.8,1.7-0.4,2.3c-0.6,0.3-1.2,0.8-1.8,0.8c-5-0.1-10,0-14.9-0.5c-3.3-0.4-6.6-1.5-10-1.2c-1.2,0.1-2.5,0.3-3.7,0.4
	c0.6,1.4-0.6,2.4-0.7,3.5c-0.1,1.3,1.1,2.8,2,4c0.4,0.4,1.7,0.1,2.5,0c0.5-0.1,0.9-0.4,1.3-0.6c8.6-3.3,8.3-1.5,13.9,4.1
	c0.4,0.4,0.7,1.2,0.6,1.7c0,0.6-0.4,1.3-0.8,1.6c-0.3,0.2-1.2,0-1.6-0.4c-1.2-0.8-2.2-1.9-3.3-2.8c-1.3-1.1-2.8-1-4,0.1
	c-1.1,0.9-1.8,2.2-2.8,3.3c-1.2,1.3-0.6,2.5-0.3,4c0.7,4.9,1.2,9.9,1.6,14.8c0.1,0.8-0.8,2.1-1.6,2.6c-0.6,0.4-1.9,0.3-2.6-0.2
	c-1.2-0.8-2.1-2-3.2-3c-1.5-1.2-2.9-2.5-4.5-3.5c-0.9-0.6-2-0.9-3.1-1.3c-0.4,1-0.7,2-1.1,3c-0.2,0.4-0.6,0.7-1,1
	c-0.3-0.5-0.7-0.9-0.8-1.4c-0.2-0.7-0.1-1.5-0.7-2.3c-0.1,1.2-0.1,2.5-0.4,3.7c-0.1,0.5-0.7,0.8-1.1,1.2c-0.2-0.5-0.5-1.1-0.7-1.6
	c-0.1-0.3,0-0.6,0.1-1c0.1-0.9,0.2-2.5,0.1-2.5c-1.5-0.3-1.9,0.8-2.1,2c-0.1,0.5,0,1-0.2,1.4c-0.2,0.3-0.7,0.6-1.1,0.7
	c-0.1,0-0.6-0.4-0.6-0.6c-0.1-1.3-0.1-2.6-0.1-3.9c0.3-1,0.6-1.9,1-2.9c0.3-0.3,0.5-0.6,0.8-1c-0.2-0.1-0.3-0.2-0.5-0.3
	c-0.1,0.4-0.2,0.8-0.3,1.3c-0.3,1-0.6,1.9-1,2.9c-0.6,0.5-1.1,0.9-1.7,1.4c-0.2-0.7-0.6-1.4-0.4-2c0.3-1.4-0.3-2.2-1.5-2.6
	c-2.3-0.8-4.5-1.9-6.8-2.3c-3.6-0.7-6.6-2.5-9.7-4.2c-2.6-1.5-5.4-2.6-8.1-3.9c-0.3,2.4-0.5,4.4-0.8,6.3c-0.1,0.3-0.5,0.6-0.8,0.9
	c-0.3-0.3-1-0.7-0.9-1c0-2.8,0.2-5.6,0.3-8.5c0-0.6,0.1-1.2,0-1.9c0-0.1-0.2-0.3-0.3-0.3c-0.3,0-0.7,0.1-0.8,0.2
	c-1.2,1.7,0.8,4.9-1.3,5.4c-2.3,0.5-3,1.9-4,3.4c-0.1,0.1-0.1,0.4-0.2,0.4c-0.2,0.2-0.6,0.5-0.8,0.4c-0.4-0.2-0.9-0.6-0.9-0.9
	c-0.1-1.8,0-3.6-0.2-5.3c-0.1-1.4-0.2-3.4-1-3.9c-1.9-1-4.5-2.3-6.2-1.7c-5.1,1.7-10.4,1.7-15.6,2.5c-1.6,0.2-2.3,0.3-1.7,2.3
	c0.4,1.3,2.1,2.6,0.5,4.2c-0.7-1.2-1.4-2.4-2-3.6c-1.4-3.2-2.8-6.5-4.2-9.7c-0.1-0.3-0.7-0.3-1.1-0.5c-0.1,0.4-0.3,1-0.1,1.3
	c2.6,4.5,3.6,9.5,5.2,15.4c-4-3.3-2.9-7.8-5.8-10.6c0.5,2.8,1.1,5.6,1.6,8.3c0.1,0.4-0.2,0.8-0.3,1.3c-0.5-0.3-1.3-0.5-1.4-0.8
	c-1.1-4-2.6-8.2-1.7-12.2c1.2-5,0.1-9.9,0.5-14.9c-1.4,6.1-2.8,12.3-2.6,18.6c0.1,1.9,0.5,4.1-2.6,4.1c-0.4,0-1.1,1.1-1.2,1.7
	c-0.2,1.6,0,3.2-0.1,4.8c0,0.5-0.5,0.9-0.8,1.4c-0.4-0.5-1-0.9-1.1-1.4c-0.2-2.1,0-4.2-0.3-6.3c-0.5-3.7-1.1-4-4.9-4.2
	c-5.9-0.3-11.4,1.8-17,2.9c-3.6,0.8-7.2,1.5-10.9,1.8c-3,0.2-5.7,1-8.3,2.3c-4.7,2.3-9.8,3-14.8,3.9c-1.7,0.3-2.6-0.9-1.6-2.2
	c1.9-2.7,3.8-5.6,6.3-7.8c4.4-3.8,9.2-7,13.9-10.5c-3.1-1.3-6.5-1.9-10-2.1c-2.4-0.1-4.9,0-7.3-0.2c-0.7,0-1.4-0.7-1.9-1.2
	c-0.1-0.2,0.4-1.1,0.8-1.5c1.8-2.4,4.5-3.7,7.2-4.8c1.9-0.8,3.9-1.4,5.9-2.2c1.9-0.7,2.1-1.7,0.8-3.2c-0.7-0.8-1.8-1.3-2.6-2
	c-1.9-1.4-3.7-2.9-6-4.7c4-0.6,8.8,0.8,11.2,3c1.1,1,2,2.1,3.1,3c0.7,0.5,1.7,0.8,2.6,1c0.4,0.1,1.2-0.3,1.2-0.5
	c0-0.6-0.1-1.4-0.5-1.6c-2.7-2-5.5-3.9-8.3-5.8c-0.4-0.3-0.8-0.5-1-1.1c4-0.5,7.4,1,10.9,2.8c0.3-2.5,2-4.7,0.6-7.3
	c-0.1-0.2,0.4-0.8,0.6-1.2c0.4,0.3,1.1,0.4,1.3,0.8c2.2,3.5,3,7.4,2.7,12.7c3.4-4.1,8.3-3.5,11.1-6.9c0.2-0.3,1.1,0.1,1.7,0
	c0.4,0,1.2,0,1.3-0.2c1.2-2.8,4.2-5,2.7-8.8c-0.8-2-0.9-4.5,1.3-6.2c0.3-0.2,0.9-0.4,1.2-0.3c0.3,0.2,0.7,0.8,0.6,1.1
	c-0.6,1.6-0.5,3.1,0.2,4.7c0.3,0.7,0,1.9-0.4,2.7c-3.2,6.3-6.3,12.6-10.4,18.5c-3,4.3-6.9,7-11.3,9.4c-5.4,2.9-10.9,5.7-15.9,9.1
	c-3.7,2.5-6.8,5.9-10.1,8.9c-0.4,0.4-0.4,1.1-0.7,1.7c0.6,0.2,1.3,0.6,1.8,0.5c4.2-1.2,8.5-1.6,12.4-3.8c2.4-1.4,5-1.9,7.8-2.1
	c4.1-0.3,8.2-1.2,12.3-2.1c5.2-1.2,10.2-2.8,15.6-2.6c0.8,0,1.6,0,2.4-0.2c1.1-0.3,1.6-0.9,1-2.2c-1.7-3.5-3.3-7-7.1-8.8
	c-1.6-0.8-3.1-1.7-4.5-2.7c-0.4-0.3-0.5-1.1-0.5-1.6c0-0.3,0.7-0.7,1.1-0.7c0.8,0,1.7,0.6,2.3,0.4c4.5-1.9,6.7,0.6,9,4
	c2.4,3.5,4.1,7.1,4.8,11.3c0.4-2.3,0.9-4.6,1.3-7c0.1-0.9,0.3-2.1-0.1-2.9c-2.1-4.1-2.2-9.2-5.8-12.6c-0.6-0.5-0.8-1.4-1.2-2.1
	c-0.1-0.2,0-0.6,0.2-0.8c0.2-0.2,0.7-0.4,0.9-0.2c1.1,0.9,2.3,1.7,3.2,2.7c1.4,1.7,2.5,3.7,4,5.9c1.8-2.3,3.3-4.2,4.8-6.1
	c0.2-0.3,1-0.4,1.3-0.3c0.3,0.2,0.6,0.8,0.6,1.2c-0.2,1.1-0.7,2.1-0.9,3.2c-1.3,5.2-2.1,10.4,1.7,15.2c1.1,1.3,1.3,3.3,2.1,4.8
	c0.3,0.5,1.3,1.2,1.7,1c4.3-2.1,9.2-1.1,13.7-2.6c0.2-0.1,0.4-0.3,1.1-0.9c-1.8-0.8-3.4-1.4-4.9-2.1c-0.3-0.1-0.3-0.8-0.3-1.2
	c0-0.2,0.5-0.5,0.8-0.4c0.9,0.2,1.8,0.5,2.7,0.9c3,1.2,5.9,2.6,8.9,3.8c3.5,1.3,3.5,1.2,3.6-2.2c0.1-1.9,0-3.9,0-5.8
	c0-1.1-0.2-2.4,0.2-3.4c1.6-3.8-0.2-6.9-1.9-10c-1-1.9-2-3.9-3.3-6.4c3.1,0.2,4.8,1.6,6,3.4c1.2,1.7,2.2,2.8,4,0.8
	c0.3-0.3,0.8-0.5,1.3-0.7c2.7-1.3,4.4-1.1,5.8,1.4c1.7,2.9,3,6,4.4,9.1c0.3,0.6,0.1,1.5,0.1,2.2c-0.9-0.3-1.9-0.3-2.5-0.8
	c-1.8-1.6-3.4-3.4-5.1-5.3c-1.8,1.9-2.2,4-1.5,6.9c1,4.3,1.3,8.8,1.8,13.3c0.3,2.3,1.2,3.8,3.6,4.5c1.5,0.4,3.1,1.1,4.3,2.1
	c5.4,4.2,12.1,5,18.2,7.2c0.6,0.2,1.8-0.5,2.2-1.1c0.8-1.2,0.9-2.8,1.7-4c3-4.7,2.1-9-1-13.2c-1.4-1.9-2.5-4.1-3.6-6.3
	c-0.2-0.3-0.1-1,0.2-1.3c0.2-0.2,1-0.4,1.2-0.2c1.6,1.2,3.6,2.1,4.5,4.2c0.9,2.2,2.3,4.2,3.6,6.4c2-1.6,3.9-3,5.7-4.5
	c0.3-0.3,0-1.4,0-2.1c-0.4,0.3-0.7,0.5-1.1,0.8c-0.4,0.2-1.1,0.7-1.3,0.5c-0.9-0.7-1.8-1.5-2.4-2.4c-5.3-7-10.7-14.1-15.8-21.2
	c-2.2-3-4-6.2-5.7-9.5c-0.7-1.3-0.7-3.1-1-4.6c0-0.3,0.5-0.6,0.8-0.9c0.3,0.3,0.9,0.6,0.9,0.9c0.7,6.7,5.4,11.2,8.8,16.4
	c3.3,4.9,7.4,9.2,11.2,13.9c0.9-1.9,0.2-3.6-0.5-5.4c-0.8-2.2-1.4-4.6-1.9-6.9c-0.1-0.4,0.5-1.1,0.9-1.4c0.2-0.1,0.9,0.2,1.2,0.4
	c1.1,1.1,2.2,2.3,3.2,3.5c0.9-1.4,1.9-2.9,2.9-4.3c0.3-0.4,1.1-0.5,1.7-0.7c0.2,0.6,0.6,1.2,0.5,1.7c-0.2,1.6-0.3,3.3-1,4.7
	c-1.8,3.6,0,7,0.3,10.4c0.1,0.5,1,1.2,1.6,1.3c1.6,0.2,3.2,0.1,4.8,0.1c3.7,0,7.3,0.5,10.9,1.4c3.7,0.9,7.7,0.4,11.5,0.4
	c0.2,0,0.3-1,0.4-1.5c0-0.1-0.2-0.3-0.3-0.4c-7.9-5.2-14.5-12.2-23-16.7c-7.1-3.8-13.5-8.7-19-14.7c-1.3-1.4-2.5-2.9-3.5-4.6
	c-2.3-3.7-6.2-6-8-10.1c-2.8-6.6-6-13.1-8.7-19.8c-2.6-6.6-4.7-13.3-7.2-19.9c-5.2-13.6-9.7-27.5-13-41.7
	c-2.4-10.1-4.8-20.2-7.1-30.4c-1.7-7.8-3.2-15.6-3.9-23.7c-0.9-11.2-1.2-22.5-2.1-33.7c-0.6-8.4-0.7-16.7-0.6-25.1
	c0-5.4,1-10.8,1.6-16.2c0.4-3.3,0.9-6.7,1.1-10c0.4-9.9,3.5-19.2,6-28.7c1.6-6,3.5-12,5.4-17.9c0.6-2,0.1-3.1-1.7-3.8
	c-1.9-0.8-3.8-1.7-5.8-2.4c-0.5-0.2-1.4,0.3-1.8,0.8c-1.1,1.2-1.9,2.6-3,3.8c-0.9,0.9-1.9,1.7-3,2.3c-0.3,0.2-1.6-0.8-1.6-0.8
	c2.2-4.8-0.4-8.9-2.4-12.8c-1.9-3.6-1.9-6.6,0.2-10c1.3-2.2,1.2-2.4-1.2-4.5c-0.5,2.6-0.5,5.5-1.6,7.8c-1.3,2.9-3.3,5.4-5.2,8
	c-0.3,0.5-1.7,0.8-2,0.6c-0.6-0.5-1.2-1.7-0.9-2.3c0.9-2.4,0.2-4.3-0.7-6.5c-1.4-3.6-2.4-7.3-3.7-10.9c-0.7-1.9-1.5-3.7-2.4-5.8
	c-1,1.5-1.6,2.9-2.6,3.8c-1.1,1.1-2.5,2.1-3.9,2.6c-3,0.9-3.7-0.2-3-3.5c0.8-3.6,1.1-7.2,1.7-11.3c-1.5,0.5-2.5,1.2-3.2,1
	c-0.6-0.2-0.9-1.5-1.2-2.3c-0.9-2.3-1.2-2.4-3.2-0.9c-1.3,1-2.4,2.2-3.8,3c-1.4,0.7-3,1.2-4.5,1.3c-1.1,0.1-2.2-0.7-1.2-2.3
	c2.2-3.8,1.2-7.4-0.8-10.9c-0.6-1.2-1.3-1-2.3-0.4c-1.6,0.8-3,0.1-2.5-1.1c1.5-4-0.7-7.1-2-10.5c-0.5-1.3-0.9-2.7-1.5-4.7
	c-0.8,2-1.6,3.5-2,5.1c-2.4,8.8-4.8,17.6-6.8,26.5c-1.4,6.2-2.1,12.6-3.3,18.9c-1,5.7-2.1,11.3-3.2,17c-0.1,0.6-0.5,1.2-0.5,1.9
	c-0.4,5.3-0.6,10.6-1.1,15.9c-1.2,13.5-0.5,27.1-1.2,40.6c-0.3,6.6-0.5,13.2-0.8,19.8c-0.3,5.9-1.4,11.8-1.4,17.7
	c0,5.4,0.9,10.8,1.4,16.2c0.3,3.2,0.7,6.4,1.1,9.5c0.5,4.4,1.1,8.9,1.7,13.3c0,0.3,0.2,0.6,0.1,1c-0.3,10.1,2.5,19.7,4.2,29.5
	c1.5,8.8,3.2,17.7,6.9,26c0.6,1.3,1.1,2.7,1.4,4.1c3.4,13.2,6.9,26.3,10.2,39.6c1.7,6.7,2.9,13.5,4.6,20.1c1.1,4.4,2.8,8.6,3.8,12.9
	c1.4,5.9,2.5,11.9,3.4,17.9c0.3,2-0.1,4-0.4,6c-0.1,0.6-0.7,1.2-1,1.7c-0.3-0.5-0.9-1-1-1.5c-0.2-0.9-0.1-1.9-0.1-2.9
	c0.1-7.8-1.5-15.3-3.3-22.8c-2.3-9.5-4.9-18.9-7.4-28.4c-1.8-6.8-3.8-13.6-5.7-20.4c-1.4-5.1-2.5-10.3-3.9-15.4
	c-1.2-4.3-2.5-8.6-3.9-12.9c-2.1-6.4-3.8-12.9-5-19.5c-1.3-7.4-2.8-14.8-3.8-22.2c-0.9-6.2-1.2-12.4-2-18.6
	c-0.8-6.3-2.2-12.6-2.6-19c-0.4-7-2.7-14-0.4-21.1c0.1-0.3,0-0.6,0.1-1c0.3-9.8,0.3-19.7,1.1-29.4c0.9-11.1,0.6-22.2,1-33.3
	c0.3-8.5,1.1-17,1.9-25.4c0.3-3.7,1.1-7.3,1.9-10.9c2.4-10.8,3.8-21.7,7.2-32.3c1.4-4.4,2-9.1,3-13.6c0.3-1.3,0-1.7-1.2-2
	c-1.6-0.3-2.2-1.3-1.3-2.8c2-3.8,0.5-7.5,0-11.3c-0.1-1.1-0.9-1.3-1.7-0.8c-0.7,0.4-1.3,1-1.8,1.6c-1.4,1.7-3.3,1.8-5.3,1.6
	c-2.2-0.2-2.6-1-1.3-3c2.1-3.1,1.8-6.6,1.2-9.9c-0.5-3-0.6-5.7,0.1-8.5c0.2-0.9,0.1-1.9,0.1-2.9c1.7-1.5,0-2.2-1-3c0.3,1,0.6,2,1,3
	c-0.6,1.1-1.1,2.2-1.8,3.2c-0.2,0.3-0.9,0.5-1.3,0.4c-0.3-0.1-0.7-0.9-0.6-1.1c1.2-2,0.3-3-1.3-4.3c-2.9-2.4-3.7-5.9-3.8-9.5
	c-0.1-2-0.2-3.4-2.8-3.4c-1.4,0-1.9-1.1-1.7-2.8c0.4-2.6,0.2-5.4,0.3-8.1c-3-1.1-1.8-4.5-3.8-6.4c-3.8-3.7-5.4-8.5-6.3-13.7
	c-0.4-2.6-0.3-4.9,1.3-6.8C5,61.3,5,59.8,3.8,58.2C1,54.7,1.7,50.7,2.3,46.8c0.3-2,1-4,1.4-6c0.5-3.1-1.6-5-3.7-6.8
	c0-4.8,0-9.7,0-14.5c1,0.9,2,1.8,3.3,2.8C5,17.1,4.8,12.8,0,9.7c0-1.3,0-2.6,0-3.9c1.9,2,3.8,4,5.6,5.9C5.4,7.9,5.1,4,4.8,0
	c0.6,0,1.3,0,1.9,0C7.5,1.9,9.3,2.3,11,2.8c1,0.3,1.4-0.4,0.9-1.4C11.7,1,11.7,0.5,11.6,0c1,0,1.9,0,2.9,0c0,0.6,0,1.3,0.2,1.8
	c0.2,0.5,0.7,1,1,1.4c0.2-0.5,0.5-0.9,0.7-1.4c0.1-0.6,0.1-1.2,0.1-1.9c0.6,0,1.3,0,1.9,0c0.1,0.4,0.2,0.9,0.3,1.3
	C19,0.9,19.2,0.4,19.4,0c0.6,0,1.3,0,1.9,0c0,0.3,0,0.7,0.1,0.9c0.2,0.5,0.4,0.9,0.7,1.4c0.3-0.3,0.7-0.6,0.9-1
	C23.2,1,23.2,0.5,23.3,0c1,0,1.9,0,2.9,0c0.2,2.1-1.7,3-2.8,4.3c-3.6,4.4-5.8,9.2-4.8,15c0.2,1.2,0.8,2.2,2.3,1.1
	c0.6-0.5,1.3-0.9,2.1-1.3c5.4-3,8.1-7.6,8.1-13.7c0-1.8,0-3.5,0-5.3c0.6,0,1.3,0,1.9,0c0.4,5.4-0.5,10.6-2.9,15.5
	c-1.2,1.7-2.4,3.4-3.5,5.2c-1.2,1.9-2.3,3.7-2.5,6.1c-0.3,2.8-1.5,5.5-2.2,8.3c-0.1,0.4-0.1,1,0.1,1.2c0.3,0.2,0.9,0.2,1.3,0
	c4.7-1.9,7.3-5.5,8.9-10.1c0.5-1.5,1-2.9,0.2-4.6c-0.9-2-1.5-4.1-2.2-6.2c1.7-0.1,2.7,0.9,3.1,2.4c0.7,2.4,1.2,4.9,1.7,7.3
	c-0.1,0.1-0.3,0.1-0.4,0.2c-0.1,0.1-0.1,0.2-0.1,0.3c0.2-0.2,0.3-0.3,0.5-0.5c1.6-1.5,0.9-3.2,0.4-4.9c-0.5-1.7-1.1-3.4-1.4-5.1
	c-0.3-1.5-1.7-3.4,1.3-4.1c0.3-0.1,0.5-1.7,0.5-2.6c-0.2-2.9-0.5-5.7-0.7-8.6c0.6,0,1.3,0,1.9,0c-0.1,4.4,0.2,8.8,1.5,13.1
	c4.9-3.1,6.7-7.7,7.2-13.1c0.6,0,1.3,0,1.9,0c0,0.2,0,0.3,0,0.5c-0.1,1-0.2,1.9-0.2,2.9c0.4-1,0.8-1.9,1.2-2.9c0.1-0.1,0-0.3,0-0.5
	c0.6,0,1.3,0,1.9,0c-0.6,2.9,0.1,5.5,1.9,7.8c0.1,0.1,0.1,0.3,0.2,0.4c0.1,0.1,0.2,0.1,0.3,0.1c-0.2-0.2-0.3-0.3-0.5-0.5
	c-0.7-2.9,1.5-5.1,1.9-7.8c0.3,0,0.6,0,1,0c0,0.8,0.3,1.7,0,2.4c-1.5,3.5,0,7.2-0.8,10.8c-0.3,1.2,0.5,2.8,1.3,4
	c1,1.6,2.4,3,3.7,4.4c0.3,0.3,1.7,0.1,1.9-0.2c4.1-5.7,4.2-12-2.2-17.3c-1.4-1.1-3-1.9-3-4c0.6,0,1.3,0,1.9,0c1.1,1,2.2,2.1,3.4,3.1
	c1,0.8,1.8,0.3,2.1-0.8C64,1.6,63.9,0.8,64,0c0.6,0,1.3,0,1.9,0c-0.3,1.6-0.4,3.2-0.9,4.6c-0.6,1.4-0.7,2.5-0.1,4.1
	c2.3,5.5,0.2,13.9-4.6,17.4c-2.2,1.6-3.2,3.7-3.9,5.9c-1.2,4-1.9,8.1-2.8,12.1c-0.2,1.1,0.4,1.7,1.3,1.3c1.5-0.6,3.1-1.2,4.1-2.4
	c1.6-2,3.1-4.2,3.8-6.6c1.4-4.2,2.1-8.7,2.1-13.2c0-1.2-0.6-3.6,2-1.6c0.1,0.1,0.8-0.7,1.2-1.1c1.1-1.1,2-2.4,3.2-3.4
	c1.3-1.1,1.6-1.8,0-2.9c-3.6-2.3-5-5.7-4.5-10C67,2.9,66.9,1.5,66.9,0c0.6,0,1.3,0,1.9,0c0,1.6,0.3,3.4-0.2,4.8
	c-0.7,2-0.4,3.5,0.8,4.9c1.3,1.4,2.7,3.1,4.4,3.6c1.8,0.5,3.2,1.2,4.5,2.4c0.9,0.8,2.2,1.1,3.4,1.7c1.2-5.5,0.9-8-1.4-11.8
	c-1.2-1.9-2.5-3.7-3.7-5.6c1,0,1.9,0,2.9,0c1.8,5.5,7,8.5,10,13.1c0.4,0.6,1.4,0.9,2.1,1.1c0.3,0.1,1-0.2,1.2-0.5
	c3.4-4.9,0.9-10.2-5-10.7c-0.5,0-1,0-1.4,0c-2.4,0.2-4-0.8-5-3c7.1,0,14.2,0,21.3,0c1,3,2.1,5.9,3.1,8.9c0.2,0.4,0.5,0.8,0.8,1.2
	c3.4,5.5,8.1,9.3,14.2,11.8c0.9-4.1-0.3-7.8-1.3-11.4c-0.8-3.1-3.2-4.9-6.4-5.9c-2.8-0.8-6-1.4-7.5-4.6c1.3,0,2.6,0,3.9,0
	c1,0.7,1.9,1.4,2.9,2c2.1,1.1,2.8,0,2.9-2c1,0,1.9,0,2.9,0c-0.3,0.6-0.5,1.1-0.8,1.7c-0.7,1.2-1,2.2,0.7,3.1
	c1.4,0.7,2.2,0.5,3.2-0.6c1.2-1.2,1.9-2.5,1.8-4.2c1.9,0,3.9,0,5.8,0c-1.6,1.5-3.3,2.9-4.8,4.5c-1.2,1.2-3.1,2.1-2.7,4.2
	c0.5,2.5,1.2,4.9,1.8,7.4c0.3,1.4,1.1,1.3,2.1,0.6c4.1-2.7,6.8-6.2,6.6-11.4c-0.1-1.8,0-3.5,0-5.3c0.6,0,1.3,0,1.9,0
	c0.3,1.6,0.6,3.2,1,4.9c-0.6,2.2-1.1,4.4-1.6,6.7c-0.1,0.3,0.5,0.8,0.8,0.9c0.8,0.3,1.6,0.4,2.2,0.5c-0.5-2.9-1-5.5-1.4-8.1
	c0.6-1.6,1.3-3.2,1.9-4.8c0.6,0,1.3,0,1.9,0c-0.3,1.2-0.5,2.5-0.9,3.7c-0.2,0.8-0.9,1.6-0.7,2.2c1.2,7.6,4,14.4,10.3,20.6
	c0.3-2.7,0.3-4.6,0.7-6.5c1-5.2-0.5-10-3.3-14.2C143.5,4,142.5,2,141.6,0c1,0,1.9,0,2.9,0c0.4,1.2,0.8,2.4,1.4,3.5
	c0.4,0.8,1.2,1.9,1.8,1.9c0.8-0.1,1.8-0.9,2.1-1.7c0.5-1.1,0.4-2.5,0.6-3.7c0.6,0,1.3,0,1.9,0c0.2,0.4,0.4,0.8,0.6,1.3
	c0.1-0.4,0.2-0.8,0.3-1.3c4.2,0,8.4,0,12.6,0c-1.7,2-1.7,2.2,0.1,2.8c0.3,0.1,0.6,0.1,0.9,0.2c1.8,0.5,4.6,0.4,5.2,1.5
	c1,1.9-1.9,2.8-2.7,4.4c-0.1,0.2-0.1,0.6,0.1,0.8c0.2,0.2,0.7,0.5,0.8,0.4c1.1-1.7,3.8-1.7,4.2-4.1c0.2-1.4,0.8-2.7,1.1-4.1
	c0.1-0.1,0.3-0.1,0.4-0.2c0.1-0.1,0.1-0.2,0.1-0.3c-0.2,0.2-0.3,0.3-0.5,0.5c-2.4,0-5,0.5-6.8-1.9c3.6,0,7.1,0,10.7,0
	c-0.6,1.4-1.2,2.9-1.8,4.3c-1,2.1-2,4.3-3,6.4c-0.8,0.1-1.6,0.3-2.3,0.4c0.6,0.5,1.3,0.9,1.9,1.4c0.1,0.1,0.3,0.1,0.4,0.2
	c1.4,0.6,2.8,1.3,4.2,1.8c0.3,0.1,0.8-0.3,1.1-0.6c0.1-0.1-0.1-0.7-0.3-0.8c-0.7-0.5-1.5-1.1-2.2-1.1c-0.9-0.1-1.8,0.4-2.7,0.7
	c0-0.6,0-1.3,0-1.9c3.3-1.5,6.2-4.1,10.3-2.3c0.4,0.2,1.6-0.7,2.1-1.4c1.6-2.2,0.1-4.6,0.2-6.9c1,0,1.9,0,2.9,0
	c0.4,0.6,0.6,1.4,1.2,1.9c1.9,1.7,4.8,2.8,5.8,4.9c1.3,2.9,4.9,3,5.9,5.9c0,0.1,0.8,0.1,1.1-0.1c0.7-0.4,1.3-1,2.1-1.6
	c-1-0.5-1.7-0.9-2.5-1.3C199.3,8,196.9,5,197.9,0c0.6,0,1.3,0,1.9,0c-0.2,3.8,1.4,6.3,5,7.8c3.5,1.5,6.5,3.7,9.4,6.3
	c3.7,3.3,7.9,6.3,13.9,6.9c-0.8-1.2-1.3-2-1.7-2.7c-0.5-1-1-2-1.5-3c-1.2-2.2-4.3-4.2-6.1-2.9c-2.6,1.9-3.1,0.3-3.7-1.4
	c-1.1-2.9-2.5-5.4-5.1-7.3c-0.9-0.7-1-2.5-1.5-3.8c1.3,0,2.6,0,3.9,0c-1.5,3.5,1.6,4.6,3.3,6.4c3.5-2,1.7-4.2,0.6-6.4
	c1.9,0,3.9,0,5.8,0c-1.3,2.4-2.4,4.8-3.8,7.2c-1.1,2-1.1,2.1,1.3,2.5c0.8,0.1,1.6,0.3,2.4,0.4c1.4,0.3,1.6-0.4,1.4-1.6
	c-0.5-2.8-1.1-5.6-0.3-8.5c1,0,1.9,0,2.9,0c-0.1,1-0.5,2.2-0.3,3.1c1,3.7,4.1,5,7.5,5.8c0.7,0.2,1.4,0.1,2.1,0.1
	c0-0.6,0.2-1.3,0-1.8c-0.8-2.4-1.7-4.8-2.6-7.2c1.6,0,3.2,0,4.9,0c0.3,3.1,2.1,5,4.9,5.8c2.1,0.6,4.3,0.7,6.5,1.1
	c0.8,0.1,1.9,1.1,2.3-0.4c0.2-0.8-0.2-1.7-0.5-2.5c-0.5-1.3-1-2.6-1.5-3.9c1.6,0,3.2,0,4.9,0c0.1,1.3-0.2,2.7,0.2,3.8
	c0.5,1.2,1.5,2.6,2.6,3.2c1.4,0.8,0.7-1.3,1.5-1.6c0.7-0.2,1.5-0.5,2.2-0.5c1.4,0.2,2.7,0.6,4.1,0.9c0.2,0.2,0.3,0.3,0.5,0.5
	c-0.1-0.2-0.3-0.3-0.4-0.5c-0.1-1.9-1.4-2.5-3-3.1c-1.7-0.6-4-0.4-4.7-2.7c2.9,0,5.8,0,8.7,0c0.5,4.1,2.3,7.4,5.4,10.5
	C273,6.8,273,3.4,271.6,0c3.2,0,6.5,0,9.7,0c0.6,3.9-2.3,6.7-3.7,10.1c1.4-0.2,2.6-0.1,3.6-0.4c1.4-0.4,2.8-0.8,4-1.6
	c2.4-1.6,2.4-2.9,0.5-5.1c-0.8-1-1.6-2-2.4-3c1.3,0,2.6,0,3.9,0c0.4,0.6,0.7,1.6,1.2,1.7c1.3,0.4,1.5-0.8,1.7-1.7c0.6,0,1.3,0,1.9,0
	c-0.4,1.4-0.7,2.8-1.1,4.2c-0.8,2.8,0.6,5.4,3.3,6.4c1.8,0.7,3.6,1.3,5.2,2.2c1.4,0.7,1.9,0,2.1-0.9c0.2-0.9,0.2-2-0.2-2.8
	c-1.4-3-2.9-6-4.4-9c1,0,1.9,0,2.9,0c0.4,0.9,0.7,1.8,1.2,2.6c2.2,3.8,4.4,7.5,3.7,12.2c-0.3,2.2,0.4,3.7,2.6,5.2
	c2.6,1.7,5.1,3.6,7,6.4c2.6,3.9,1.5,7.7,0.8,11.5c-0.1,0.3-1.8,0.8-2.3,0.5c-2.7-1.7-5.3-3.7-7.8-5.6c-0.8-0.6-1.4-1.4-2.1-2
	c-1.7-1.7-3.3-4.3-5.3-4.7c-3-0.6-6.3,0.4-9.5,0.8c-1.4,0.2-2.8,0.5-4.4,0.8c1.9,2.3,3.7,4.5,5.4,6.8c1.7,2.4,1.3,3.7-1.5,4.7
	c-5,1.8-9.8,0.8-14.2-2c-0.9-0.6-1.7-1.4-2.6-2.2c-0.2,0.6-0.4,0.8-0.4,1.1c-0.1,0.9-0.2,1.8-0.3,2.7c-0.9-0.2-1.9-0.2-2.6-0.6
	c-1.5-0.9-2.9-2.1-4.3-3.1c-1.4-1.1-2-0.5-2.1,1.1c-0.1,1.9-0.9,2.1-2.5,1.3c-4.4-2.1-6-6.2-7.1-10.4c-0.8-2.9-1.7-4.4-4.8-4.9
	c-1.5-0.2-2.7-1.6-4.1-2.4c-0.1-0.1-0.1-0.3-0.2-0.4c-0.1-0.1-0.2-0.1-0.3-0.1c0.2,0.2,0.3,0.3,0.5,0.5c1.2,3.1,1.2,6.3,1,9.5
	c-0.1,1.2-0.2,2.4-2,1.8c0,0-0.4,0.8-0.4,1.2c-0.1,1.7,0,3.4-0.1,5.2c-0.1,1.8-0.2,3.5-0.3,5.3c-0.1,1.4-0.2,2.9-0.6,4.3
	c-0.5,1.7-1.6,2.4-3.3,1.4c-1.3-0.7-2.5-0.9-4-0.7c-3.1,0.3-5.8-1.2-7.8-3.9c-3.2-4.4-7.4-7.4-13.9-8c2.6,1.9,4.5,3.5,6.5,4.8
	c3.7,2.3,5.1,6.1,6.3,9.9c0.6,2-0.4,2.8-2.6,2.4c-3.6-0.8-7.3-1.3-10.8-2.3c-2.9-0.8-5.6-2-8.3-2.9c0.2,1.8,0.5,3.7,0.5,5.6
	c0,3-1.1,3.6-3.5,2c-2.8-1.9-5.6-3.8-8.1-6c-2.5-2.1-5.4-3.9-6.2-7.6c-0.4-1.7-1.8-1.9-2.9-0.5c-3.1,3.7-7,6.6-10.2,10.1
	c-1.2,1.3-2,2.9-2.9,4.4c-0.3,0.5-0.5,1.5-0.9,1.6c-3.3,0.5-3.7,3.4-4.8,5.6c-3.4,6.9-7,13.8-9.9,21c-2.3,5.6-4,11.5-5.8,17.3
	c-4.6,14.7-7.1,29.9-12.1,44.6c-3.4,10-6.2,20.2-9.2,30.4c-0.2,0.7-0.3,1.5-0.5,2.3c2.2,0.7,3.8,0.5,4.9-1.7c0.5-1,1.1-2,1.9-2.8
	c0.4-0.4,1.1-0.6,1.7-0.6c0.2,0,0.6,0.7,0.6,1.2c0.5,3.5-1,6.3-3.1,8.8c-1,1.2-2.4,2.1-4.2,3.7c2.1,0.7,3.3,1,4.4,1.5
	c0.6,0.2,1.1,0.5,1.6,0.8c-0.3,0.7-0.5,1.6-1.1,2c-2.3,1.5-4.7,2.7-7,4.2c-0.5,0.3-0.8,1.1-1.2,1.7c0.5,0.3,1,0.9,1.5,0.9
	c4.6,0.2,9.1,2.3,13.8,0.3c1.5-0.6,2.5,0.7,1.7,2.2c-0.8,1.5-2,2.9-3.2,4.2c-1,1-2.2,1.9-3.4,2.6c-1.1,0.7-1.4,1-0.6,2.5
	c0.8,1.5-0.6,2.9-1.8,4c-0.5,0.5-1.1,0.9-1.8,1.5c8,1.2,14.8-1.1,21.3-5.2c1.7-1.1,2.4-2.2,2.5-4.2c0.1-2.2,0.5-4.5,1.1-6.6
	c0.5-2,1.4-2.3,3.2-1.4c1.4,0.8,2.6,1.8,4.1,2.8c0.7-1.3,1.3-2.6,2-3.9c1.3-2.4,1.3-2.4,4.2-0.6c0.3,0.7,0.6,1.3,1,2
	c0.1,1.1,0.1,2.2,0.2,3.2c0.6-1.7,0.6-1.7-0.1-3.3c-0.3-0.6-0.7-1.3-1-1.9c-0.3-2.2-1.7-3.7-3.4-5.1c-1.4-1.2-2.8-2.6-2-4.4
	c0.9-2,3.2-1.5,4.8-1.1c9.9,2.4,14.2,11.8,11.3,20c-0.5,1.3-1.6,2.6,0.3,3.7c0.2,0.1,0.1,1.2-0.2,1.6c-3.9,5.5-7.9,11-13.7,14.8
	c-5.3,3.5-10.5,3.5-15.8,0c-1.8-1.2-3.8-2.2-6.4-3.7c0.3,2.3,0.6,3.8,0.8,5.3c0.1,1.4,0.2,2.9,0.2,4.3c0,0.4,0.1,1.1-0.2,1.2
	c-0.3,0.2-1.2,0.2-1.3,0c-1.7-2.8-4.6-3-7.3-4.1c-3.4-1.4-6.5-3.4-9.6-5.5c-1.3-0.8-2.1-2.3-3.2-3.5c-1.5-1.7-2.8-3.5-4.4-5.1
	c-1.7-1.6-2.6-1.4-3.4,0.9c-1.9,5.6-3.8,11.2-5.4,16.9c-1.7,6.2-3.2,12.4-4.5,18.7c-0.8,3.6-1.1,7.3-1.6,10.9
	c-0.9,7.1-1.9,14.3-2.7,21.4c-0.3,2.6-0.2,5.2-0.1,7.7c0.3,11.4,0.3,22.9,1.1,34.3c0.4,5.1,0.4,10.3,0.9,15.4c0.6,6,1.7,12,2.6,18
	c0.7,4.6,1.5,9.2,2.5,13.7c1.5,6.2,3.3,12.4,4.8,18.6c1,4.2,1.6,8.5,2.6,12.7c1.3,5.5,2.6,10.9,4.3,16.3c2.2,6.9,4.9,13.6,7.3,20.4
	c3.8,10.3,7.3,20.6,11.4,30.7c2.4,5.7,4.8,11.5,9.3,16.2c3.1,3.2,5.7,6.9,8.6,10.4c0.8,1,1.8,1.8,3.2,3.1c0.8-3.7,1.3-7,2.3-10.1
	c0.8-2.6,2.1-5,3.4-7.4c0.6-1.1,1.5-1.2,2.5,0.3c1,1.5,2.7,2.6,4.1,3.8c0.2,0.1,0.8-0.2,1.2-0.4c0.8-0.5,1.6-1,2.5-1.4
	c0.4-0.2,1-0.2,1.3,0c0.2,0.2,0.4,0.9,0.2,1.2c-0.7,1.2-1.5,2.5-2.4,3.6c-1.4,1.6-1.6,3.2-1.1,5.3c0.7,2.8,1,5.6,1.6,8.9
	c2-2.1,3.8-4,5.7-5.9c2.1-2.1,4.6-3.6,7.6-3.9c1.6-0.2,2.8-0.1,2.1,2.4c-0.4,1.5,0.4,3.4,0.4,5.1c-0.1,1.7-1.1,2.1-2.7,1.3
	c-1.1-0.6-2.2-1.6-3.3-1.5c-0.8,0-1.5,1.5-2.1,2.4c-1.2,1.9-2.3,3.8-3.5,5.7C178.9,510.9,178.2,511.5,177.5,512.2
	c-0.4-3.9,1.6-6.8,4-9.4c1.4-1.6,3.1-2.9,4.1-4.8c-4.6,2.1-7.5,5.7-9.5,10.3C175.3,510.1,175.7,511.3,177.5,512.2z M169.7,494.7
	c-0.1,0.2-0.3,0.4-0.4,0.5C169.5,495,169.6,494.9,169.7,494.7c0.2-0.1,0.3-0.3,0.5-0.4C170,494.4,169.9,494.5,169.7,494.7z
	 M158.1,543.2c-0.1,0.2-0.3,0.3-0.4,0.5C157.8,543.5,158,543.4,158.1,543.2c0.2-0.1,0.3-0.3,0.5-0.5
	C158.4,542.9,158.2,543,158.1,543.2z M190.1,514.1c-0.6,0.3-1.3,0.7-1.9,1c-0.8,0.4-1.7,0.8-2.4,1.3c-0.2,0.1-0.1,0.6-0.2,0.8
	c0.3,0,0.7,0.2,0.8,0.1c0.7-0.7,1.2-1.5,1.9-2.2C188.8,514.8,189.5,514.4,190.1,514.1c0.2-0.1,0.3-0.3,0.5-0.5
	C190.4,513.8,190.3,513.9,190.1,514.1z M70.8,161c0.3,0.3,0.6,0.6,1,1c2.4,4.9,5.7,9.3,6.8,14.7c0.1,0.5,0.6,1,1,1.5
	c0.6-0.5,1.4-0.8,1.8-1.4c1.6-2.6,0.7-10-1.6-12.1c-0.9-0.8-2.1-1.3-3.3-1.7c-1.5-0.5-3.1-0.7-4.7-1C71.5,161.7,71.1,161.3,70.8,161
	c-0.2-0.4-0.5-0.8-0.8-1.1c-0.2-0.2-0.5-0.2-0.7-0.3c0.1,0.4,0,0.9,0.2,1C69.9,160.9,70.4,160.9,70.8,161z M159.1,516
	c-0.2-0.1-0.3-0.3-0.5-0.4C158.8,515.7,158.9,515.9,159.1,516c0,0.5,0,1,0.1,1.5c0.1,0.3,0.2,0.6,0.4,0.9c0.1-0.2,0.5-0.6,0.4-0.7
	C159.7,517.1,159.4,516.6,159.1,516z M52.4,24.3c0.3,0.6,0.7,1.3,1,1.9c0.4,1.5,0.7,2.9,1.1,4.7c2.3-2.7,0.5-3.7-1.1-4.7
	C53,25.5,52.7,24.9,52.4,24.3c-0.1-0.3-0.2-0.7-0.4-0.8c-0.5-0.3-1-0.4-1.5-0.5c-0.1,0-0.3,0.5-0.5,0.7c0.5,0.2,1,0.4,1.5,0.6
	C51.7,24.3,52.1,24.2,52.4,24.3z M127.1,519.9c0.2,0.2,0.3,0.3,0.5,0.5C127.4,520.2,127.2,520.1,127.1,519.9c-0.6-1-1.3-2-1.9-2.9
	c0-0.3,0-0.7-0.1-0.9c-0.3-0.5-0.7-1-1-1.4c0,0-0.5,0.3-0.5,0.4c0.3,0.5,0.6,1,0.9,1.5c0.2,0.2,0.5,0.3,0.8,0.4
	C125.8,518,126.4,519,127.1,519.9z M167.8,498.6c-0.4,0.6-0.9,1.2-1.3,1.9c-0.1,0.2,0.1,0.5,0.2,0.7c0.2-0.1,0.7-0.2,0.7-0.3
	C167.6,500.1,167.7,499.3,167.8,498.6c0.3-0.3,0.5-0.6,0.8-0.9c-0.2-0.1-0.3-0.2-0.5-0.3C168,497.7,167.9,498.1,167.8,498.6z
	 M71.8,158.1c-0.1-0.1-0.1-0.3-0.2-0.4c-0.1-0.1-0.2-0.1-0.3-0.1C71.5,157.8,71.6,158,71.8,158.1c1.1,2.5,3.2,1.9,5.2,1.4
	C75.3,159,73.5,158.6,71.8,158.1z M41.7,519c0-0.4,0-0.9-0.1-1.3c-0.1-0.3-0.3-0.6-0.5-0.9c-0.1,0.3-0.3,0.6-0.3,0.8
	C41.1,518,41.4,518.5,41.7,519c0.3,2.5-0.6,5.2,1.1,7.5C41.9,524,43.6,521.2,41.7,519z M116.4,518c-0.1-0.1-0.1-0.3-0.2-0.4
	c-0.1-0.1-0.2-0.1-0.3-0.1C116.1,517.7,116.2,517.8,116.4,518c0.4,2.8,0.8,5.6,2.9,7.8c0,0.4,0,0.9,0.1,1.3c0.1,0.3,0.3,0.6,0.5,0.9
	c0.1-0.3,0.3-0.6,0.2-0.8c-0.2-0.5-0.6-1-0.8-1.4C119.5,522.7,118.4,520.2,116.4,518z M158.1,27.2c0.1,0.1,0.1,0.3,0.2,0.4
	c0.1,0.1,0.2,0.1,0.3,0.1C158.4,27.5,158.3,27.3,158.1,27.2c-2.1-2.2-4.5-4-7.1-5.4C152.8,24.3,154.7,26.7,158.1,27.2z M30,74.7
	c0.4,1.1,0.9,2.2,1.3,3.3c0.1-0.1,0.3-0.2,0.3-0.2C31.1,76.8,30.6,75.7,30,74.7c-1-1.2-2-2.4-3.1-3.7c-2.5,2.5-0.1,4.1,0.5,6.2
	C28.3,76.1,28.2,74.4,30,74.7z M122.2,192.1c1.7,0.2,3.6,1.6,5.1-0.6c0.3-0.4,0.7-0.8,1.1-1.2c-0.7-0.3-1.6-1.1-2-0.9
	C125,190.1,123.6,191.1,122.2,192.1c-1.8,1.5-2.1,3.5-1.8,5.6c0,0.3,0.6,0.6,1,0.8c0.1,0,0.6-0.4,0.6-0.6
	C122.1,195.9,122.2,194,122.2,192.1z M292,12.6c0.1,0.1,0.1,0.3,0.2,0.4c0.1,0.1,0.2,0.1,0.3,0.1C292.3,12.9,292.1,12.8,292,12.6
	c-1.2-1.5-2.3-2.9-3.5-4.4c-2.7,2.7-2.8,2.7,0.2,3.7C289.8,12.3,290.9,12.4,292,12.6z M177.5,539.3c-1.6,0.6-3.4,1-4.9,1.7
	c-1,0.5-0.9,1.6,0,2.4c0.8,0.7,1.4,0.5,1.9-0.3C175.5,541.8,176.5,540.6,177.5,539.3c0.4-0.1,0.8-0.2,1.3-0.3
	c-0.1-0.2-0.2-0.3-0.3-0.5C178.2,538.8,177.8,539.1,177.5,539.3z M47.5,131c-0.1-0.1-0.1-0.3-0.2-0.4c-0.1-0.1-0.2-0.1-0.3-0.1
	C47.2,130.6,47.4,130.8,47.5,131c1.1,1.9,2.2,3.9,3.4,5.7c0.2,0.3,1.3,0.5,1.5,0.2c0.4-0.3,0.7-1.3,0.5-1.6
	C51.4,133.5,50.2,131.3,47.5,131z M71.8,533.5c0.1,1.1,0.1,2.2,0.2,4.2C72.8,535.6,73.1,534.4,71.8,533.5c-0.2-3.6-2.8-5.9-4.8-8.5
	c-0.5-0.6-1.7-0.7-2.6-1c-0.2-0.1-0.6,0.2-0.8,0.4c-0.1,0.2-0.1,0.7,0,0.8C67,527.2,69.1,530.6,71.8,533.5z M174.6,30.1
	c0.1,0.1,0.1,0.3,0.2,0.4c0.1,0.1,0.2,0.1,0.3,0.1C174.9,30.4,174.7,30.2,174.6,30.1c0-1.1-0.1-2.2,0-3.3c0.2-3.1-0.9-5.3-3.9-6.4
	c-0.1-0.1-0.1-0.3-0.2-0.4c-0.1-0.1-0.2-0.1-0.3-0.1c0.2,0.2,0.3,0.3,0.5,0.5c0.4,2.5,0.7,5,1.1,7.6C172.1,29.4,173.2,30,174.6,30.1
	z M51.4,52.4c-1.8,1.1-3.1,2.7-2.4,4.7c0.8,2.3,1.9,4.7,3.9,6.8c0.2-0.8,0.3-1.3,0.4-1.7C54,58.6,52.3,55.6,51.4,52.4
	c0.6-0.4,1.1-0.8,1.7-1.2c-0.3-0.4-0.6-0.7-0.9-1.1c-0.3,0.6-0.6,1.2-0.8,1.8C51.4,52,51.4,52.2,51.4,52.4z M27.2,36.9
	c-4.4,1.4-5.1,4.9-4.7,8.8c0,0.6,0.8,1.1,1.2,1.6c0.6-1.6,3.5,1.2,3.5-1.7C27.1,42.6,27.1,39.7,27.2,36.9c0.1,0,0.3-0.1,0.4-0.2
	c0.1-0.1,0.1-0.2,0.1-0.3C27.5,36.5,27.3,36.7,27.2,36.9z M56.3,58.2c-0.2-0.1-0.3-0.3-0.5-0.4C55.9,57.9,56.1,58.1,56.3,58.2
	c1.5,1.4,3.1,2.8,4.7,4.1c1,0.8,1.7,0.6,2.1-0.7c0.4-1.5,1.3-2.8,0.5-4.6c-1-2.2-1.3-4.8-4-6.2c-0.5,1.9-0.7,3.5-1.3,4.9
	C57.8,56.6,56.9,57.4,56.3,58.2z M57.2,511.2c-3.2,0.6-6.1,1.6-8.8,3.4c-2.1,1.4-2.3,2-0.9,3.7c0.4,0.5,0.9,0.9,1.3,1.4
	c1.1,1.3,2.1,1,3.2,0C54.6,517.3,56.5,514.6,57.2,511.2c0.1-0.1,0.3-0.1,0.4-0.2c0.1-0.1,0.1-0.2,0.1-0.3
	C57.5,510.9,57.4,511,57.2,511.2z M7.7,78.6c1.3,1.9,2.6,3.9,4,5.8c0.7,1,2.2,0.6,2.4-0.6c0.1-0.7,0.1-1.6-0.2-2.2
	C12.8,78.9,10.5,78.2,7.7,78.6c0.7-2.5,1.5-4.9,2.1-7.3c0.2-0.7,0.5-1.6,0.2-2.2c-0.6-1.5-1.3-2.9-2.1-4.2c-1.1-1.8-2.7-1.6-3.6,0.3
	c-0.3,0.7-0.6,1.6-0.4,2.3C4.9,71.3,5,75.4,7.7,78.6z M39.8,56.3c0.3-0.4,0.8-0.8,0.8-1.1c-0.2-3.2,0.9-5.9,2.9-8.4
	c0.7-0.9,1.1-1.9,1.5-3c0.2-0.5,0.4-1.5,0.1-1.7c-1.4-1.4-3-2.6-4.6-3.9c-1.2,1.6-2.9,3.1-2.6,5.4c0.1,0.6-0.1,1.3,0,1.9
	C38.5,49.1,39.1,52.7,39.8,56.3c-0.9,1.3-1.7,2.6-2.5,4c-0.3,0.5-0.4,1-0.6,1.5c0.5,0.1,1,0.3,1.4,0.2c0.5-0.2,1-0.6,1.1-1
	C39.5,59.4,39.6,57.9,39.8,56.3z M103.8,196.9c0.6-1.3,1.2-2.4,2.7-0.6c2.9,3.6,5.9,5.3,9,5.6c-2.2-1.8-5-3.5-7-5.9
	c-2.1-2.4-3.5-5.5-5-7.9c-0.1,2.6-0.2,5.4-0.3,8.1C103.2,196.5,103.6,196.7,103.8,196.9c0.7,2.8,1.3,5.6,2.1,8.4
	c0.2,0.7,0.7,1.6,1.3,1.9c3.5,1.5,7.2,2.8,10.8,4.1c0.2,0.1,0.8-0.1,0.8-0.3c0.1-0.4,0.2-1,0-1.3c-0.6-0.8-1.2-1.5-2-2.1
	C112.5,204,108.1,200.5,103.8,196.9z M10.7,62.1c0.6-1.9,1-3.9,1.9-5.7c0.8-1.6,0.3-2.7-0.5-3.9c-0.9-1.3-2.6-2-2.3-3.9
	c0.1-0.2,0.3-0.3,0.4-0.5c-0.2,0.2-0.3,0.3-0.5,0.5c-3.9,2.6-4.2,2.5-4.9-2c-0.1-0.4-0.2-0.8-0.4-1.2C3.9,48.1,3.9,51,4,53.9
	c0,0.9,0.4,1.9,0.8,2.7C6.7,60.2,6.8,60.1,10.7,62.1c-0.1,0.1-0.3,0.1-0.4,0.2c-0.1,0.1-0.1,0.2-0.1,0.3
	C10.4,62.4,10.5,62.2,10.7,62.1z M22.3,50.4c-3.1-1.3-3.1-1.3-2.4-5.2c-3.4,1.5-4.3,2.8-3.5,6.8c0.8,4.5,2.1,9,3.3,13.9
	c3.7-3.4,4-7.2,3.3-11.3C22.7,53.3,22.5,51.8,22.3,50.4c0.6,0.3,1.2,0.8,1.7,0.7c0.7-0.1,1.2-0.7,1.8-1.2c0.1-0.1,0-0.5,0-0.8
	c-0.7,0.1-1.4,0-2,0.3C23.2,49.6,22.8,50.1,22.3,50.4z M24.3,94.1c0.3,0.8,1.1,1.9,0.9,2.4c-1.5,3-0.6,6,0.2,8.9
	c0.8,3,1.1,6.2,3.8,9.1c1-4,2.1-7.6,2.8-11.3c0.5-2.8-0.1-5.3-2.5-7.3c-1.3-1-2-2.7-3.1-4.2C25.6,92.4,24.9,93.2,24.3,94.1
	c-0.9-0.2-2.2-0.8-2.6-0.4c-1.2,1-2.8,2.3-2.9,3.6c-0.4,4.1-0.8,8.4,0.9,12.4c0.2,0.4,0.4,0.9,0.8,1.2c0.3,0.3,0.9,0.4,1.3,0.4
	c0.2,0,0.4-0.5,0.4-0.8c0.1-0.6,0-1.3,0-1.9C21.8,103.5,21.9,98.7,24.3,94.1z M19.4,38.8c-0.3,1.2-0.6,2.4-0.8,3.6
	c0,0.2,0.3,0.8,0.4,0.7c0.4,0,1-0.2,1.1-0.4c0.4-0.9,0.8-1.8,0.8-2.7C20.9,39.6,19.9,39.2,19.4,38.8c-0.9-1.3-0.3-2.4,0.3-3.6
	c2.8-6.2,1.8-10.1-3.6-14.4C13.4,26,12.6,36,14.3,44.6C15.5,41.8,16.9,39.8,19.4,38.8z M216.3,27.2c-0.1-0.1-0.1-0.3-0.2-0.4
	c-0.1-0.1-0.2-0.1-0.3-0.1C216,26.8,216.2,27,216.3,27.2c1.1,0.9,2.2,1.8,3.4,2.6c3.6,2.7,5,2.4,0.2,5.7c2.3,2.2,4.6,4.4,7,6.6
	c0.8,0.8,1.6,1.6,2.6,2.2c1.8,1,3.1,0.2,3.3-1.8c0.4-5-1.5-8.7-5.8-11.4c-1.2-0.7-3.1-1.3-3.4-2.4c-1-3-2.6-2.7-4.8-1.7
	C218,27.2,217.1,27.1,216.3,27.2z M101.8,183.3c-0.1-0.4-0.2-0.8-0.3-1.3c-0.2,0.1-0.3,0.2-0.5,0.3
	C101.3,182.7,101.6,183,101.8,183.3c0.1,0.8,0.2,2.2,0.4,2.2c3.6,0.4,4.3,3.4,5.6,5.9c2,3.9,4.8,6.6,9.1,7.8c0.4-1.2,1-2.2,1.2-3.3
	c0.8-4-1.9-9.4-5.5-10.5C109.1,184.5,105.4,184,101.8,183.3z M117.4,23.3c-3.6-3.4-3.8-3.5-6.4,0.1
	C113.3,23.3,115.3,23.3,117.4,23.3c0.6,1.2,1.6,2.2,1.8,3.4c1.3,5.6-3.1,13.8-8.4,15.9c-0.7,0.3-1.9,0.3-2.3-0.1
	c-0.5-0.6-0.8-1.7-0.7-2.6c0.2-1.5,1.3-2.8,0.2-4.4c-2.9,3.6-6.2,6.2-9.8,7.6c-0.9,0.3-2.6,0.5-3,0c-0.7-0.8-0.9-2.2-0.9-3.4
	c0-1,0.4-2,0.9-3.7c-0.8,0.8-0.9,1.1-1.2,1.2c-3,0.7-5,2.4-6.1,5.3c-0.3,0.7-1.1,1.2-1.5,1.8c-3.6,5.3-7.1,10.6-10.6,15.9
	c-1.4,2.1-2.7,4.3-4.2,6.4c-5.2,7.5-8,16.1-11.3,24.4c-3.6,8.9-6.7,18-10,27c-0.3,0.9-0.1,2.1,0.3,3.1c0.9,2.3,2.9,3.3,5.1,4
	c1.8,0.6,3.6,1.2,5.4,2c2.3,1,4.5,2.7,7.2,1.1c0.3-0.1,1,0.2,1.2,0.5c0.2,0.3,0.1,0.9-0.1,1.3c-0.3,0.6-0.8,1-1.1,1.6
	c-1.3,2.3-1.1,2.6,1.3,3.3c1.5,0.5,3.2,0.9,4.4,1.8c1.8,1.4,3.5,1.4,5.4,0.3c0.8-0.5,1.7-0.9,2.6-1.2c0.5-0.2,1.2-0.1,1.7-0.1
	c0,0.7,0.2,1.6-0.1,2.1c-2.5,3.9-5.9,6.7-10.5,7.9c-0.7,0.2-1.4,0.6-2.1,0.9c-0.1,0.1-0.3,0.1-0.4,0.2c-0.1,0.1-0.1,0.2-0.1,0.3
	c0.2-0.2,0.3-0.3,0.5-0.5c2.4,0.4,4.9,0.3,7.1,1.2c3,1.2,5.8,2.5,9.2,1.7c1.8-0.4,2.3,0.6,1.5,2.3c-1.5,3.4-4.5,5.1-8,7.2
	c2.4,0.4,4.2,1.2,5.8,0.9c6.2-1.1,10.8,1.9,15.3,5.4c0.6,0.5,1.2,1.7,1,2.5c-0.1,0.7-1.2,1.1-1.7,1.6c4.5,0.5,9,1,13.4,1.4
	c1.4,0.1,2.9-0.1,4.3-0.1c0.7,0,1.5-0.1,2.2-0.2c-0.2,0.7-0.3,1.5-0.5,2.2c-0.1,0.3-0.3,0.6-0.4,0.9c-0.5,0.9-1.9,1.7-0.4,2.8
	c0.9,0.7,1.9,1.2,2.9,1.7c0.2,0.1,0.8-0.4,0.9-0.8c0.4-0.7,0.6-1.5,0.9-2.2c3.8-12.4,7.9-24.7,11.4-37.2c3.6-12.8,6.6-25.8,10-38.6
	c2.7-10.1,7-19.6,11.1-29.1c1.6-3.7,3.4-7.4,5.7-10.6c3.7-5.2,7.8-10.2,12.1-15c2.1-2.4,4.7-4.3,7.2-6.3c2.4-2,3.2-4.3,2.1-7.6
	c-0.2,0.7-0.3,1.2-0.5,1.5c-0.5,0.9-0.8,2.4-1.6,2.7c-1.6,0.6-2-1.1-2.6-2.2c-0.3-0.6-0.7-1.2-1.2-2c-1,4-1,4.1-3.9,2.6
	c-0.5-0.3-1.1-0.5-1.8-0.9c-1.1,3.9-0.2,7.5,0.5,11.3c-7.6-2.2-10.7-8.2-13.5-14.2c-3,1.4-4,4.4-7.3,5c-3.1,0.5-5.5,0.4-7.9-1.6
	c-0.3,0.4-0.5,0.9-0.7,1.2c-1,1.3-1,4.1-3,3.8c-1.3-0.2-2.3-2.4-3.4-3.7c-0.2-0.2-0.3-0.6-0.4-0.9c-1.8-5.6-6.5-9.9-6.5-16.3
	c-6.4,2.9-6.3,2.9-6.7,8.2c0,0.2-0.4,0.4-0.4,0.5C120.9,24.7,119.1,24,117.4,23.3z M49.3,82.5c-1.1-0.9-1.8-1.6-2.5-2.1
	c-1.3-0.9-1.9-0.6-2.1,1c-0.4,4.8,0.1,9.3,3.7,13c1.2,1.3,1.1,2.1-0.6,2.9c-1.1,0.5-2.7,1.1-2.9,1.9c-0.3,1,0.8,2.3,1.2,3.5
	c0.5,1.5,1,3,1.5,4.5c0.5,1.4,0.8,2.9,2.4,3.9c0.8-1.6,1.6-2.8,2-4.2c1.6-4.7,2.8-9.6,4.8-14.1c2.9-6.5,4.4-13.8,8.7-19.7
	c0.4-0.6,0.5-1.5,0.8-2.3c0.8-2.5,0.1-4-2.4-4.9c-1.4-0.5-2.9-0.8-4.7-1.4c1.8,2.7,0.5,5.2-0.4,7.7c-0.6,1.8-1.5,3.6-2.2,5.4
	c-0.6,1.5-1.4,2.1-2.9,1c-1.3-0.9-2.6-1.8-4.1-2.9C49.6,78.1,49.5,80,49.3,82.5z M161.1,549C161.1,549,161.1,549,161.1,549
	c0,1.6,0,3.2,0,4.8c-0.1,1.6,0.3,2.7,1.9,3.4c3.6,1.5,6.9,3.4,9.5,6.4c0.3,0.3,1,0.6,1.2,0.5c0.4-0.3,0.9-1,0.9-1.4
	c-0.2-3.2-0.7-6.3-0.9-9.5c-0.3-6-3.8-10.4-7-15c-0.3-0.5-2.1-0.7-2.4-0.3c-1.4,1.7-3.2,3.2-3.1,5.7
	C161.1,545.4,161.1,547.2,161.1,549z M104.7,16.7c0-1.8,0.2-3.1,0-4.4c-0.6-3.3-0.8-6.7-3.3-9.4c-1.5-1.6-2.9-2.6-5-1.2
	c-0.6,0.4-1.3,0.7-2,1c0.4,0.6,0.8,1.5,1.4,1.8c2,0.9,2.6,2.7,3.1,4.6c0,0.2-1,0.8-1.1,0.8c-2-1.7-2.2,0.4-2.4,1.3
	c-1.3,5.6,1.3,10.3,3.7,15c0.2,0.5,1,0.7,1.6,0.9c0.8,0.3,1.6,1,2.1-0.7C104,23.1,105.2,19.8,104.7,16.7z M131.4,211
	c-4.3-0.1-6.2-2.8-8.4-5c-0.7-0.7-1.3-1.5-2.1-2c-0.6-0.4-1.4-0.6-2-0.9c-0.1,0.9-0.4,1.8-0.4,2.7c0,0.4,0.4,0.8,0.8,1.2
	c2.8,3.2,4.5,6.9,5.7,10.9c0.4,1.3,1.1,2.8,2.2,3.6c4.5,3.3,9.4,5.8,15.1,6.8c-0.1-3.4-1-5.7-2.9-7.9c-1.5-1.8-3.4-1.9-5.5-2.2
	c-2.8-0.4-5.8-0.8-7.9-3c-0.4-0.4-0.5-1.1-0.7-1.6c0.5-0.1,1-0.5,1.5-0.4C128.5,213.6,129.6,212.7,131.4,211z M67.8,41
	c0.3,0.1,0.7,0.2,1,0.3c2.5-3,6.2-5.1,7-9.5c0.8-5,1-9.9-0.6-15c-1,0.9-1.8,1.7-2.7,2.3c-3.5,2.5-5.1,5.9-5.1,10.1
	C67.5,33.1,67.7,37.1,67.8,41z M274,28.1c0.5,0,1,0.1,1.4,0c0.8-0.3,1.6-0.8,2.5-1.2c-0.4-0.6-0.7-1.4-1.3-1.9
	c-3.4-3-6.2-6.5-8.4-10.4c-1-1.8-2.3-3.5-3.7-5c-0.7-0.7-1.9-1-2.8-1.5c-0.2,1-0.8,2.1-0.6,3c0.5,3.3,1.2,6.6,1.9,9.8
	c0.1,0.5,0.2,1,0.5,1.3C266.2,25.6,269.5,28,274,28.1z M181.8,10.6c0.2,0.8,0.2,1,0.3,1.1c2.3,2.6,4.5,5.5,8.7,3.8
	c0.9-0.3,2.1,0.1,2.1,1.3c0,0.5-0.8,1.2-1.4,1.6c-3.1,1.9-6,8.3-5.1,11.5c0.2,0.7,0.8,1.4,1.3,2c0.9,1.1,2.1,1.1,2.8,0
	c1.2-1.7,2.6-3.5,3-5.4c0.2-1.2-1.4-2.7-2.2-4c-0.3-0.5-0.8-0.9-1.5-1.7c1.4-0.2,2.3-0.5,3.2-0.5c3.3,0.2,5-1.6,6.1-4.4
	c0.5-1.3,0.6-2-1.1-2.3c-3.7-0.7-7.4-1.7-11.2-2.5C185.3,10.8,183.7,10.8,181.8,10.6z M211.9,39.1c-0.3,1.6-0.4,3.1-0.9,4.4
	c-0.7,2.2-1.8,2.7-3.6,1.5c-4.8-3.1-8.5-7.1-9.6-13c-0.2-1.2-0.8-2.2-1.2-3.4c-0.9,0.9-1.8,1.7-2.6,2.6c-1.6,1.9-0.8,3.7,0.4,5.3
	c2.7,3.8,5.6,7.2,10.2,9.2c3.3,1.4,6.7,2,10.1,2.8c1.9,0.5,3.9,0.7,6.2,1C219.1,44.4,216.2,41.3,211.9,39.1z M58,137.8
	c-3,0-4.9,1-5.2,2.3c-0.3,1.5,1.4,4.7,2.9,5.5c2.6,1.3,5.1,2.6,7.1,4.8c1.3,1.4,2.9,2.5,4.6,3.4c0.6,0.3,1.7-0.3,2.6-0.5
	c-0.1-0.6-0.2-1.1-0.4-1.7c-1.3-2.9-2.7-5.8-4-8.7C64,139.3,60.8,138.3,58,137.8z M6.8,47c3.2-3.2,5.7-6.1,4.9-10.6
	c-0.5-3-0.7-6.3,0.2-9.1c1-3.2-0.5-5.3-1.8-7.6c-0.4-0.8-1.7-1.5-2.6-1.5c-1.2,0-1.6,1.2-1.7,2.5c-0.3,4.2,0.2,8,3.9,10.8
	c0.4,0.3,0.5,1.1,0.7,1.7c-0.6,0.1-1.1,0.3-1.7,0.3c-2.7-0.1-3.4,0.6-3.2,3.1C6,40,6.4,43.5,6.8,47z M18.1,526.2
	c4.6,0.6,8.3,0.9,12,1.5c1.9,0.3,3.7,0.8,5.6,1.3c3.4,0.9,4.5,0,4.1-3.4c-0.2-1.3,0-2.6-0.2-3.8c-0.1-0.6-0.7-1.5-1.2-1.7
	c-1.4-0.5-2.7-1.4-4.5-0.6c-3.7,1.5-7.6,2.5-11.3,3.8C21.2,523.8,20,524.9,18.1,526.2z M241.6,28c-0.3-6.4-3.6-10.8-6.4-15.4
	c-0.2-0.4-0.8-0.6-1.2-0.8c-2.1-0.9-4.1-1.8-6.2-2.7c-1-0.4-1.5-0.1-1.4,1c0.4,5.4,2.7,9.8,7.1,12.9C235.8,24.7,238.3,26,241.6,28z
	 M253.4,20.4c1.6-0.1,3.2-0.1,4.8-0.3c1.1-0.2,1.6-1,0.9-2.2c-2.2-3.7-5.3-6.5-9.3-8.1c-1.7-0.7-3.7-0.6-5.6-0.9
	c-0.3,1.7-0.4,3.5-1.1,5c-0.8,1.8,0,2.8,1.2,3.7C247.1,19.6,250,20.8,253.4,20.4z M84,177.8c-0.5,0.8-0.7,1.2-1,1.5
	c-2.6,2.2-2.9,4.7-1.6,7.8c1.7,4.3,3.1,8.7,4.7,13.4c2.7-3.4,4.1-6.8,4.2-10.8C90.3,184.5,86.8,181.6,84,177.8z M104.9,171.4
	c-2.8,0.8-6.2,1.6-9.5,2.7c-1.3,0.4-0.7,1.4,0,2.2c3.6,3.7,8.1,3.6,12.6,2.8c2.6-0.5,5.3-1.5,7.1-3.8c1-1.2,0.9-2.2-0.5-2.4
	C111.6,172.4,108.6,172,104.9,171.4z M93,34.6c0-4.6,0.1-9,0-13.3c0-0.9-0.5-1.9-1.1-2.6c-2.3-2.9-4.7-5.7-7-8.5
	c-0.3,2,0,3.8,0.3,5.6c0.1,0.7,0.4,1.5,0.3,2.2C85.2,23.9,87.9,30.3,93,34.6z M82.6,162.1c1.3,2.3,2.5,4.2,3.5,6.1
	c1.9,4,5.9,6,10.4,1.5c0.5-0.5,0.9-0.9,1.4-1.4c1.3-1.2,1-2.2-0.2-3.2c-0.6-0.5-1.3-0.9-2-1.3C91.7,161.1,87.4,162.3,82.6,162.1z
	 M8.2,4.2C6,11,7.3,15.9,12,19.1c1.9,1.3,4,0.6,4.2-1.7c0.3-2.4,0.2-4.8-0.2-7.2c-0.4-2.4-1.2-4.7-4.6-4.5C10.5,5.7,9.5,4.8,8.2,4.2
	z M102,36c-0.7-1.6-1.2-2.8-1.8-3.9c-0.2-0.4-0.8-0.7-1.1-0.7c-0.3,0-0.9,0.5-1,0.8c-0.7,2.9-1.4,5.8-2.1,8.9
	c7.7-1.6,11.7-6.3,11.5-13.8c-0.1-3.5,0.5-6.6,3.8-8.6c-1.6-1.4-2.8-2.5-4.2-3.8c-0.3,3.1-0.3,5.9-1,8.5
	C105.1,27.4,103.6,31.2,102,36z M47.9,114.3c-0.9-3.1-1.5-6.1-2.6-8.8c-1.2-2.9-2.1-6-5.2-8.2c-1.1,4-5.3,6.9-1.8,11.6
	C40.8,112.1,43.2,115.1,47.9,114.3z M26.3,137.4c8.2-2.9,9.3-12.3,5.7-17.3c-1.5-2-3.3-0.2-4.6-1.3c-0.4,1-1,1.9-1.2,2.9
	c-0.1,0.7,0.2,1.6,0.3,2.4C27.6,128.4,27.6,132.6,26.3,137.4z M173.5,190.9c0.7,6.3,0.3,11.6-3,16.2c-1.5,2.1-3.1,4-4.6,6
	c-0.3,0.4-0.3,1.1-0.5,1.7c0.6,0.1,1.2,0.4,1.8,0.3c0.6-0.1,1.3-0.4,1.7-0.8c2.5-2.5,5.5-4.7,7.4-7.5
	C179.9,201.4,178.9,196.2,173.5,190.9z M66.4,167.1c0.8-5.1,0.9-8.2-0.7-10.1c-2.2-2.7-4.9-5.1-7.5-7.5c-0.7-0.6-1.7-0.8-2.7-1
	c-1.4-0.3-1.9,0.3-1.4,1.8c0.8,2.1,1.5,4.3,2.8,6.1C60.1,160.1,63.3,163.6,66.4,167.1z M45,131.9c-1.4,4.5-3.3,8.3-0.1,12.2
	c0.5,0.6,0.6,1.5,0.8,2.2c1,2.8,2.1,5.6,3.3,9c0.7-1.9,1.3-3.2,1.7-4.6c1-3.7,2.4-7.4-1.6-10.4c-0.3-0.2-0.3-0.8-0.3-1.3
	C48.9,136.2,47.3,134.3,45,131.9z M108.9,181.7c0.7,0.5,1,0.8,1.2,0.8c3.5,1.1,7,2.2,9.2,5.5c0.2,0.3,1,0.3,1.6,0.3
	c5-0.2,6.7-4.3,9.9-7.9c-7.2,0.6-13.8-1.8-20.1,1.1C110.4,181.6,109.9,181.6,108.9,181.7z M168.4,6.5c-2.1-0.8-4-1.4-5.8-2.4
	c-4.2-2.2-8-1.4-11.4,1.6c-0.6,0.6-0.9,1.5-1.4,2.3c0.7,0.2,1.5,0.4,2.2,0.7c0.9,0.4,1.6,1.1,2.5,1.4c1.8,0.6,3.9,1.7,5.5,1.2
	C162.9,10.5,166.2,9.3,168.4,6.5z M313,35.5c0.5-2.8,0.9-5.5-0.9-7.6c-1.9-2.3-4.2-4.5-6.5-6.4c-1.7-1.4-5.1,0.2-5.6,2.4
	c-0.1,0.4,0.1,1,0.4,1.3C304.2,29.1,307.6,33.4,313,35.5z M30.1,80.3c-0.9,4.2-2.3,7.3-1.1,11.2c1.1,3.3,3.9,5,5.3,7.9
	c0.2,0.4,1.1,0.9,1.4,0.8c0.5-0.2,1-0.9,1-1.5c0.3-4,0.6-8.1-1.9-11.6C33.4,85.1,31.9,83,30.1,80.3z M199,52c0.3-0.2,0.7-0.3,1-0.5
	c-0.4-1.6-0.4-3.5-1.3-4.9c-2.3-3.7-4.8-7.2-7.4-10.7c-0.3-0.4-1.2-0.7-1.6-0.6c-2.4,0.7-3.5,3.3-2.4,5.6
	C189.8,46.2,194.6,48.9,199,52z M46.5,29.6c-0.8-6.2-2.5-10.4-7.2-12.8c-0.9-0.4-2-0.4-3-0.7c0.4,0.8,0.9,1.6,1.1,2.5
	c0.2,0.7-0.1,1.5-0.1,2.3c0.5,5,4.1,8.7,6.1,13c0.1,0.2,1.4,0.2,1.5,0C45.6,32.3,46.1,30.7,46.5,29.6z M278,15.6
	c0.2,0.3,0.2,0.7,0.4,0.8c1.6,0.7,3.2,1.7,4.9,1.9c2.6,0.3,5.2,0.9,8,0.2c2.5-0.6,3.2,0.3,3,3.1c-0.1,1.5,0.6,1.7,1.6,1.5
	c2.4-0.6,3.9-2.1,4.6-4.5c0.3-1.1,0-1.9-1.3-2.1c-4.9-0.6-9.8-1.5-14.4-3.2c-0.4-0.1-1.2-0.1-1.2,0c-0.8,2.7-3,0.9-4.4,1.4
	C278.7,14.9,278.4,15.3,278,15.6z M25.7,55.5c0,1.6,0.5,3.4-0.1,4.5c-1.4,2.4-0.9,4.1,0.6,6c2.3,2.8,4.4,5.7,6.8,8.9
	C35.3,67.2,32.2,59.2,25.7,55.5z M101.1,192.8c0.1-4.6-0.8-7.9-3.1-10.7c-2-2.3-4.2-4.5-6.5-6.5c-1.2-1.1-2.7-2.6-4.6-1.4
	c-0.2,0.1,0.9,2.3,1.5,3.5c0.2,0.4,0.5,0.8,0.7,1.3C91.3,185,96.9,187.7,101.1,192.8z M150.9,222.5c3.6,3.7,8,4.6,11.8,2.6
	c4.7-2.4,8-6.3,11.9-10.6c-3.6,1.2-6.5,2.1-9.2,3.2c-2.9,1.2-5.8,2.8-8.6,4.2C154.9,222.9,153.1,223.7,150.9,222.5z M24.7,88.9
	c2.9-6.3,1.6-13.3-3.1-17.2c-0.9-0.7-1.6-1.1-2.1,0.4c-0.3,0.7-0.5,1.7-1.1,2.1c-2,1.4-1.4,3-0.4,4.5C20.2,82,22.4,85.3,24.7,88.9z
	 M164.8,25.4c-1.7-2.7-3.1-4.6-4.2-6.7c-2-3.8-5.3-5.8-9.1-7.3c-0.5-0.2-1.1,0-1.7-0.1c0,0.4-0.1,0.9,0.1,1.3
	c1.6,5.4,4.5,9.7,9.9,11.9C161.2,25,162.8,25,164.8,25.4z M99.8,211c3.5-3,3.4-6.7,2.6-10.7c-2.7-1.6-3-4.8-4.5-7.1
	c-0.8-1.2-1.8-1.1-2.5,0.2c-1.5,2.8-1.2,5.5,0.1,8.2C97,204.7,98.3,207.7,99.8,211z M156.2,210.1c1.5,0.4,3.3,0.9,5,1.6
	c0.2,0.1,0.1,1.4,0,1.5c-3.3,0.6-4,3.4-5.8,6c4.2-1,6.6-3,7.6-5.7c1.4-3.8-0.5-10.4-3.9-12.9c-0.4-0.3-1.7-0.1-1.9,0.2
	c-0.5,1.1-0.9,2.4-1,3.6C156.1,206.3,156.2,208.2,156.2,210.1z M223.7,23.1c-3-2-5.4-3.8-8-5.4c-1.9-1.2-3.8-2.4-5.8-3.3
	c-1.1-0.5-2.5-0.5-3.7-0.6c-0.4,0-1,0.3-1.1,0.6c-0.1,0.3,0.1,1,0.4,1.3c2.1,1.9,4.9,3.4,6.3,5.8c1.7,3,4,2.9,6.5,2.7
	C220,24.1,221.7,23.5,223.7,23.1z M202.5,23.1c0.7,2.5,1,3.8,1.4,5.2c0.8,2.8,0.7,3.1-2.3,2.6c-2.1-0.4-1.9,0.5-1.4,1.7
	c1.6,4.1,4.4,7.2,8.4,10.1C208.1,35.5,210.1,28.4,202.5,23.1z M33.9,105.7c-3.9,7.6-1,13.3,3.6,19.4
	C40.3,117.6,38.6,111.6,33.9,105.7z M53.6,131.1c-2.1-3.8-3.4-7-5.5-9.5c-2-2.4-3.8-5.3-7.1-6.7c0,2.4-0.2,4.4,0,6.4
	c0.4,2.8,1.6,5.1,4.6,6.2C48,128.5,50.3,129.6,53.6,131.1z M270.3,30.3c2.9,5.5,8.1,6.5,13.4,7.2c0.9,0.1,2-0.8,3-1.2
	c-0.4-0.8-0.7-1.7-1.2-2.4c-0.8-1-1.8-1.8-2.7-2.8c-1.3-1.5-2.5-1.9-4.6-1.3C275.8,30.6,273.2,32.2,270.3,30.3z M79.3,28.3
	c-1.2,2.9-2.3,5.5-3.3,8.1c-0.2,0.4-0.2,0.9-0.2,1.4c0.3,1.8,3.7,5.3,5.4,5.6c2.1,0.4,3.8-1.2,3.3-3.3C83.5,36,81.8,32.1,79.3,28.3z
	 M110.8,39.8c1.3-1.2,2.4-2.3,3.6-3.3c2.4-2.1,3.2-4.7,2.9-7.8c-0.2-2.9-0.5-3.1-3.5-2.7c-0.8,0.1-1.7,0.4-2.4,0.1
	c-1.7-0.7-1.9,0.2-1.9,1.5c0.1,1.3,0.1,2.6,0.3,3.9C110.2,34.1,110.4,36.7,110.8,39.8z M48.1,23.3c0.8-2.1,1.8-3.5,1.8-5
	c0.2-3.8,0.1-7.6-0.1-11.5c0-0.6-0.9-1.3-1.5-1.6c-0.3-0.1-1.1,0.6-1.4,1c-2.4,4.5-4.4,9-0.6,13.7C47,20.7,47.3,21.7,48.1,23.3z
	 M34.3,29.1c-2,3.7-4.1,6.6-5,9.9c-0.9,3.1-0.4,6.6-0.5,10C35,43.4,36.9,37,34.3,29.1z M37.5,146.8c0.3-0.5,0.7-1,0.9-1.6
	c1.1-3.8,2.4-7.7,3.1-11.6c0.3-1.8-0.6-3.7-1-5.6c-0.1-0.2-0.9-0.6-1.1-0.4c-1.3,0.9-3,1.8-3.6,3.1c-0.7,1.4-0.6,3.4-0.4,5.1
	C35.9,139.3,36.8,142.9,37.5,146.8z M238.9,35.1c0.1,0,0.2,0,0.4,0c-0.3-1.9-0.5-3.8-1-5.6c-0.2-0.7-0.9-1.4-1.5-1.7
	c-0.6-0.3-1.9-0.1-2,0.2c-0.8,1.9-2.4,3.7-1.2,6.2c1.5,3.1,3.3,6.3,1.7,10c-0.1,0.3,1.4,1.3,2.2,2c0.4-0.5,1.1-1.1,1.2-1.7
	C238.7,41.5,238.8,38.3,238.9,35.1z M10.4,76.5c2.1,0,3.6-1,5.1-2.3c1.6-1.4,2.2-2.8,2.1-5.3c-0.2-4.3-1.7-8.1-2.7-12.6
	c-2.5,3.4-0.7,6.9-1.6,10.1C12.4,69.6,11.5,72.8,10.4,76.5z M50.5,65.8c-0.4,2.2-1.2,4-0.7,5.2c0.7,1.9,2.2,3.5,3.5,5
	c0.6,0.7,1.3,0.5,1.9-0.4c2.7-3.9,3.2-8.2,2.7-12.7c-0.1-0.5-0.7-1-1.2-1.3c-0.1-0.1-0.8,0.5-1,0.9c-0.7,1.5-1.1,3-1.8,4.4
	c-0.4,0.7-1.2,1.1-1.9,1.6C51.6,67.9,51.3,67.2,50.5,65.8z M46.4,58c-0.8,1.5-1.3,2.7-2.1,3.6c-1.8,1.9-1.8,3.8-0.9,6.2
	c0.8,2,0.8,4.4,1.2,6.5c0.1,0.6,0.1,1.3,0.4,1.9c0.3,0.5,0.9,0.7,1.4,1.1c0.3-0.5,0.9-0.9,0.9-1.4c0.3-2.8,0-5.9,0.9-8.5
	C49.6,63.9,49.1,61.2,46.4,58z M137.8,201.4c-4.1-0.6-7.5-1.1-11-1.6c-0.9-0.1-2-0.1-2.9,0.2c-0.9,0.3-1.9,0.8-0.9,2.1
	c0.4,0.5,0.7,1.1,1.1,1.6c3,4.5,4,4.7,8.4,1.7C134.3,204.2,135.9,202.9,137.8,201.4z M35.7,44.6c-2.8,3.1-5.5,6.1-8.6,9.5
	c2.8,0.9,5.3,1.9,7.9,2.6c2,0.5,3-0.5,2.6-2.6C37,50.9,36.3,47.7,35.7,44.6z M32.6,79.6c2.7,4.7,4.8,8.6,7,12.4
	c0.6,1.1,1.3,2.3,2.2,3c0.7,0.6,1.9,0.5,2.9,0.7c0.1-0.9,0.5-1.8,0.2-2.5c-0.8-2.1-2-4-2.9-6c-1.1-2.2-2.7-3.9-4.9-5
	C35.9,81.5,34.7,80.8,32.6,79.6z M51.6,44c3-5.5,2.5-10.7-0.1-15.8c-0.3-0.6-0.9-1.1-1.3-1.7c-0.5,0.7-1.5,1.4-1.5,2.2
	c-0.2,3.2-0.3,6.5,0.1,9.7C49,40.4,49.3,42.9,51.6,44z M41.4,58.8c0.2,0.2,0.5,0.3,0.7,0.5c2.2-2.3,4.6-4.4,6.7-6.9
	c1.5-1.8,2.2-3.9,1.3-6.3c-0.6-1.7-1.7-1.6-3.4-0.6c-2.3,1.4-3.1,3.7-3.8,5.9C42.1,53.7,41.9,56.3,41.4,58.8z M139.7,217.4
	c6.8,5.8,12.8,3.5,15.9-3.6c-0.5-0.1-1-0.4-1.4-0.3C149.5,214.7,144.8,216,139.7,217.4z M60.9,163.6c-0.4-0.5-0.9-1.1-1.5-1.7
	c-1.9-2.2-3.7-4.4-5.6-6.5c-0.5-0.6-1.3-1.1-1.9-1.6c-0.1,0.9-0.4,1.8-0.3,2.7c0.1,0.8,0.7,1.4,0.9,2.2c0.6,2,1.2,4,1.7,6
	c0.5,1.6-0.8,3.5,0.9,4.8c1.3-1.1,2.7-2.2,4-3.3c0.5-0.4,0.9-0.9,1.3-1.4C60.8,164.5,60.8,164.1,60.9,163.6z M85,153
	c-2.1-0.8-4-1.6-5.9-2.4c-1.5-0.6-3-1.3-4.5-1.7c-0.8-0.2-1.7,0.2-2.6,0.3c0.3,0.8,0.4,2.1,1,2.4c1.6,1,2,1.9,0.5,3.4
	c-0.1,0.1,0.4,1.2,0.7,1.2c1.4,0.2,2.8,0.6,4.1,0.3C81,156.2,83,154.7,85,153z M202.1,15.7c0.4,3.4,0.5,4.4,1.7,5.1
	c3.9,2.1,5.6,5.5,6.7,9.5c0.6,2.3,2.5,3.3,4.6,3.5c0.9,0.1,1.9-0.8,2.8-1.3c-0.4-0.7-0.7-1.9-1.4-2.2c-3.8-1.8-6.1-5.1-8.5-8.3
	C206.3,19.8,204.5,17.7,202.1,15.7z M70.9,166.7c-0.4,2.2-0.8,3.8-1,5.3c-0.4,3.2-0.6,6.3-0.9,9.5c0,0.4,0.2,1.2,0.3,1.2
	c0.6,0,1.3,0,1.7-0.4C75.9,178.2,76,172.2,70.9,166.7z M271.4,14.6c-0.2,0.3-0.3,0.6-0.5,0.9c1.8,2.1,3.5,4.2,5.3,6.2
	c1.6,1.7,3.6,2.4,6,2.7c3,0.4,5.1-1.9,7.9-1.8c0.1,0,0.1-0.5,0.2-0.8c-0.5-0.1-0.9-0.3-1.4-0.3c-5.9,0-11.1-1.4-15-6.3
	C273.6,14.6,272.3,14.7,271.4,14.6z M140.2,34.6c0.6-1.2,1.1-2.4,1.8-3.4c2.1-3.1,1.8-6-0.7-8.7c-0.4-0.5-0.6-1.1-1-1.6
	c-0.9-1.3-1.7-1.2-2.4,0.2C136.6,24.1,137.5,30.2,140.2,34.6z M14.6,97.9c1.1-1.3,1.6-2,2.3-2.7c0.8-0.8,1.6-1.6,2.3-2.4
	c2.5-2.7,2.8-4.5,1-7.6c-0.6-1.1-1.5-2.1-2.4-3.3C15.6,86.8,14.5,91.8,14.6,97.9z M161.2,28.2c1.7,3.7,2.9,6.9,5.6,9.1
	c0.6,0.5,1.3,0.8,2,1.2c0.3-0.8,0.7-1.7,0.8-2.5c0.1-1.8,0-3.6,0.1-5.3c0-1.5-0.4-2.5-2.2-2.4C165.6,28.2,163.7,28.2,161.2,28.2z
	 M74.8,57.4c-1.6-0.1-2.2,0-2.8-0.1c-2.5-0.7-5-1.3-6-4.5c-0.9-2.5-2.6-4.8-4-7.1c-0.1-0.2-0.6-0.4-0.6-0.3
	c-0.2,0.2-0.5,0.5-0.5,0.8c0.1,0.7,0.1,1.5,0.4,2.1c0.9,1.7,1.9,3.3,2.8,5c1.7,3.3,4.9,5.9,4.1,10.2c-0.2,1,1.3,1.4,2.1,0.5
	C71.8,62,73.1,60,74.8,57.4z M53.5,126.2c0.8,2.8,1.3,4.8,1.9,6.8c0.9,2.9,3.4,3.7,6,1.9c1.3-0.9,2.6-1.9,4.6-3.3
	C61.1,129.5,57.6,127.9,53.5,126.2z M78.1,140.6c-2.3-1-4.1-1.9-6-2.6c-1.9-0.7-3.9-1.4-5.9-1.9c-0.7-0.1-1.5,0.4-2.2,0.7
	c0.4,0.5,0.7,1,1.1,1.5c0.8,1.2,1.8,2.3,2.5,3.5c0.7,1.4,1.7,1.7,3.1,1.7C73.6,143.6,75.8,142,78.1,140.6z M169.8,13.5
	c1.8,2.4,3,4.1,4.3,5.6c3.6,4.2,8,4.1,11.7-0.2c-2.6-0.7-5.2-1.3-7.7-2.1C175.5,15.9,173.1,14.8,169.8,13.5z M68.6,52.2
	c1.5-2.3,2.2-4.5,2.1-6.9c0-1.3,0.4-2.7-1.9-1.3c-2.1,1.3-2.8,0.7-3-1.7c-0.1-1.6,0.3-3.3-0.4-5.2c-3.6,5.1-3.6,5.2-0.8,9.5
	C65.9,48.4,67.2,50.2,68.6,52.2z M260.2,26.1c-0.1,0-0.2-0.1-0.4-0.1c0.2-0.6,0.3-1.2,0.6-1.8c0.6-1.7-0.3-2-1.7-1.7
	c-0.6,0.1-1.2,0.5-1.8,0.7c-1.2,0.3-3.3,0.4-3.4,0.9c-0.2,1.3,0.2,2.8,0.8,4c0.6,1.4,1.6,2.8,2.6,4c0.8,0.9,1.6,0.9,2-0.5
	C259.4,29.8,259.8,28,260.2,26.1z M167.7,25c0.4-0.2,0.7-0.4,1.1-0.5c-0.3-3.8-1.3-7.5-3.5-10.7c-0.7-1.1-1.8-1.3-3-0.6
	c-1.1,0.7-1.6,1.8-0.9,2.9C163.4,19,165.6,22,167.7,25z M42.3,74.8c0.2-0.1,0.5-0.1,0.7-0.2c-0.8-2.9-1.7-5.8-2.2-8.7
	c-0.4-2.2-1.9-1.8-3.2-1.8c-1.6,0-1.5,1.3-1.6,2.4c0,1.8,0.2,3.3,2.2,4.4C39.7,71.9,40.9,73.5,42.3,74.8z M42.4,83
	c1.2-4.5-2.5-6.5-4.4-9.4c-0.1-0.2-1-0.2-1.2,0c-2.4,1.8-2.2,5.2,0.4,6.6C38.8,81.1,40.5,82,42.4,83z M150.6,25.3
	c-0.4,0.4-0.9,0.6-1,0.9c-0.5,1.8-1.1,3.4-3.5,2.5c-0.1,0-0.6,1.2-0.9,1.9c1.6,0.7,3.1,1.9,4.7,1.9c2,0,3.7-1.5,5-3.1
	c0.1-0.2,0.1-0.7,0-0.9C153.4,27.5,152.1,26.4,150.6,25.3z M78.6,18.5c-0.2,0.4-0.8,1.1-0.8,1.6c0.1,1.3,0.4,2.5,0.8,3.7
	c0.2,0.7,0.4,1.8,0.9,2c1.3,0.5,2.8,0.7,4.2,0.8c0.1,0,0.6-0.8,0.5-1.2c-0.2-1.3-0.6-2.5-0.9-3.7C82.8,20.2,80.8,18.6,78.6,18.5z
	 M52.6,15.2c-0.3,1.4-1.3,3.2-0.8,4.3c1.1,2.2,2.9,4.1,4.6,6c0.3,0.3,1.5,0,2-0.3c0.3-0.2,0.5-1.2,0.3-1.6c-0.3-0.7-0.9-1.3-1.4-1.9
	C55.8,19.6,54.2,17.4,52.6,15.2z M87.1,39.7c0.8-1.4,1.5-2.3,1.8-3.4c0.9-2.7-1.2-6.5-4-7.2c-0.6-0.1-1.2,0.2-1.8,0.3
	c0.1,0.4,0.1,0.9,0.3,1.3C84.5,33.6,85.7,36.3,87.1,39.7z M134.4,24.8c1-2.6,1.7-4.8,2.7-7c0.7-1.4,0.2-2-1.2-2.3
	c-0.6-0.1-1.2-0.5-1.8-0.7c-2.2-0.6-2.7-0.1-2.3,2.1c0.3,1.5,0.7,3.1,1.2,4.6C133.4,22.5,133.9,23.5,134.4,24.8z M166.5,198.4
	c-3.4,3.6-2.4,7.1-0.1,10.8C169.5,204.9,169.5,203.3,166.5,198.4z M232.8,25.2c-0.7-0.5-1.4-1.2-2.2-1.5c-1.4-0.5-5.9,0.9-6.1,1.8
	c-0.2,1,3.2,4,4.8,4.2c0.4,0.1,1-0.1,1.2-0.4C231.3,28.1,231.9,26.8,232.8,25.2z M77.4,52.2c1.6-2.1,3.1-4,4.6-6c-2-1-4-2-6-3
	C75.4,46.3,75.6,49.2,77.4,52.2z M200.7,24.2c0-0.6,0-1.3,0-1.9c-0.1-1.5-0.6-2.1-2.1-1.1c-0.8,0.5-1.7,0.8-2.5,1.3
	c-0.4,0.3-0.8,1.3-0.7,1.3c1.3,1.1,2.8,2.1,4.2,3c0.1,0,0.8-0.7,1-1.2C200.8,25.2,200.7,24.6,200.7,24.2z M37.4,39.1
	c0.6-0.7,1.1-1.5,1.7-2.2c2.3-2.6,2.4-2.6,0.7-5.5c-0.6-1.1-1.5-2-2.4-3.3C37.4,32,37.4,35.4,37.4,39.1z M196.1,10.4
	c-1.9-2.1-3.7-4.1-5.5-6.1C188.8,9.6,189.7,10.5,196.1,10.4z M263.4,26.6c-1.7,3.6-1.7,3.6,0.5,5.9c0.4,0.5,0.9,1,1.4,1.3
	c0.6,0.3,1.3,0.4,2,0.6c0-0.8,0.2-1.7-0.1-2.2C266.1,30.2,264.7,28.4,263.4,26.6z M1.9,24c0.4,3.9-0.8,6.9,1.6,9.5
	C6.5,30.3,6.5,29.9,1.9,24z M73.7,40.5c-0.1,0-0.3,0-0.4,0c-0.4,4.5-0.9,9.1-1.2,13.6c0,0.2,0.9,0.8,1.3,0.8
	c1.7-0.3,2.2-1.3,1.5-3.1c-1.1-2.8-1.3-5.6-1.2-8.5C73.7,42.3,73.7,41.4,73.7,40.5z M165.1,489.8c-3.4,10.5-3.4,10.5-1.4,13.4
	C164.2,498.5,164.7,494.2,165.1,489.8z M95.4,23.1c0,4.3,0,7.7,0,11.9c0.6-1.8,0.6-3.1,1.3-3.9C99,28.3,97.6,26.1,95.4,23.1z
	 M170.3,499.3c-0.2,0-0.3,0-0.5,0c-0.4,1.8-0.7,3.7-1.3,5.4c-0.6,1.5,0.3,2.1,1.1,2.7c0.3,0.3,0.9,0.5,1.3,0.4
	c0.2-0.1,0.5-0.8,0.4-1.2C171,504.3,170.7,501.8,170.3,499.3z M170.1,193.7c1.2-4.8,1.1-5.1-1.4-6c-0.7-0.2-1.5-0.1-2.2-0.1
	c0.3,0.8,0.4,1.6,0.9,2.3C168,191,168.8,192,170.1,193.7z M43.7,517.4c0.5,3.1,0.7,5.1,1.1,7.1c0,0.2,1,0.5,1.3,0.4
	c1.3-0.5,1.7-1.5,0.9-2.7C46.3,520.8,45.3,519.6,43.7,517.4z M177.5,24.1c1.1,2.1,1.7,3.6,2.6,4.9c0.6,1,1.4,0.6,1.8-0.2
	c0.9-1.6,0.4-2.9-1.3-3.7C179.9,24.9,179.1,24.7,177.5,24.1z M274.6,9.9c1.5-2.3,2.5-3.9,3.4-5.5c0.1-0.1-0.4-0.9-0.8-1
	c-2.4-0.6-2.5-0.5-2.6,1.7C274.5,6.5,274.6,7.8,274.6,9.9z M56.2,53.2c0.9-2.3,1.4-3.6,1.8-4.9c0.1-0.4-0.4-1.3-0.8-1.4
	c-1.2-0.3-2.7,1.3-2.4,2.5C55.1,50.3,55.5,51.2,56.2,53.2z M167,494.2c2.8-1.8,2-4.2,1.4-6.5c-0.1-0.2-0.5-0.4-0.7-0.3
	c-0.2,0.1-0.6,0.4-0.6,0.6C167,489.9,167,492,167,494.2z M25.5,69.1c-1-1.1-1.7-1.9-2.5-2.8c-0.2,0.4-0.7,0.8-0.6,1.1
	c0.3,1,0.8,1.9,1.2,2.9C24.1,70,24.6,69.7,25.5,69.1z M161.7,528.9c0.2-2.8,0.4-5.6,0.7-9.2C160.3,523.1,161.3,525.9,161.7,528.9z
	 M254.5,8.4c0.6,2.2,2.3,3.3,4.1,4.5C258,10.7,256.3,9.5,254.5,8.4z M122.2,516.7c-0.5-0.4-0.9-0.9-1.4-1.1c-0.2-0.1-0.9,0.5-1,0.8
	c-0.2,0.7-0.2,1.5,0,2.2c0.1,0.2,1.2,0.5,1.3,0.3C121.5,518.4,121.8,517.6,122.2,516.7z M33.8,517.1c0.3-0.3,0.5-0.6,0.8-0.9
	c-1.5-1.4-2.6-3.3-5.1-3.4C30.9,514.3,32.3,515.7,33.8,517.1z M24.7,20.9c-0.2-0.2-0.4-0.3-0.6-0.5c-0.9,0.6-1.8,1.2-2.6,1.9
	c-0.3,0.2-0.1,0.9-0.1,1.4c0.5,0,1.3,0.1,1.6-0.2C23.7,22.7,24.2,21.8,24.7,20.9z M190,521.7c-0.1-1.7-0.2-2.9-0.3-4.3
	C187.3,518.8,187.2,520,190,521.7z M46.2,40.5c0.2-0.1,0.5-0.2,0.7-0.3c-0.1-0.7-0.2-1.5-0.4-2.2c-0.2-0.5-0.6-1-1-1.5
	c-0.2,0.7-0.5,1.4-0.4,2.1C45.2,39.3,45.8,39.9,46.2,40.5z M14.8,46.4c-1.7,1.5-3.3,1.8-2.3,3.7c0.2,0.3,0.5,0.5,1,1
	C13.9,49.6,14.2,48.4,14.8,46.4z M156.7,552.4c-0.7,1.2-2,2.1-0.7,3.6c0.1,0.1,0.3,0.1,0.4,0.2c0.2-1.1,0.4-2.1,0.6-3.2
	C157,552.9,156.9,552.7,156.7,552.4z M239,6.3c-0.6,0.2-1,0.2-1.1,0.4c-0.4,0.6,0.9,1.8,2.1,1.9c0.3,0,0.6-0.2,0.9-0.3
	C240.2,7.6,239.6,6.9,239,6.3z M241.4,12.2c-0.2-0.5-0.3-0.8-0.4-1.1c-0.7,0.5-1.4,1-2,1.7c-0.1,0.1,0.5,0.7,0.7,1.1
	C240.2,13.3,240.8,12.8,241.4,12.2z M66.9,64c-0.6-0.9-1.1-1.6-1.6-2.3c-0.3,0.5-0.8,1.1-0.8,1.6c0,0.5,0.6,1,1.1,1.3
	C65.9,64.8,66.4,64.3,66.9,64z M119,534.1c-0.1,0-0.3,0-0.4,0c0,1.8,0,3.7,0,5.5c0.1,0,0.3,0,0.4,0C119,537.8,119,536,119,534.1z
	 M19.5,4.8c-0.3-0.1-0.6-0.1-0.8-0.2c-0.3,1.2-0.5,2.3-0.8,3.5c0.3,0.1,0.5,0.1,0.8,0.2C18.9,7.1,19.2,5.9,19.5,4.8z M43.6,508
	c-0.2,0-0.4,0.1-0.6,0.1c-0.2,0.6-0.5,1.2-0.5,1.8c0,0.5,0.2,1.1,0.3,1.7c0.3-0.4,0.8-0.8,0.8-1.2C43.7,509.6,43.6,508.8,43.6,508z
	 M115.7,544.5c0.1,0,0.3,0,0.4,0c0-1.5,0-3,0-4.6c-0.1,0-0.3,0-0.4,0C115.7,541.5,115.7,543,115.7,544.5z M192.3,520.3
	c0.1,0,0.2,0,0.4,0c0-1.5,0-2.9,0-4.4c-0.1,0-0.2,0-0.4,0C192.3,517.4,192.3,518.8,192.3,520.3z M34.8,59.9c-0.5-0.5-1-1-1.6-1.4
	c-0.1-0.1-0.5,0.2-0.8,0.3c0.5,0.7,1.1,1.3,1.6,2C34.3,60.6,34.5,60.4,34.8,59.9z M42,12.7c-0.5,0.9-0.8,1.3-0.9,1.9
	c0,0.1,0.6,0.4,0.9,0.7c0.2-0.4,0.6-0.7,0.6-1.1C42.6,13.8,42.3,13.5,42,12.7z M188.2,498.9c-0.2,0.2-0.6,0.3-0.6,0.5
	c0,0.2,0.2,0.5,0.4,0.8c0.3-0.3,0.6-0.5,0.9-0.8C188.6,499.3,188.4,499.1,188.2,498.9z M117,526.5c-0.3,1.2-0.6,1.6-0.5,2
	c0,0.5,0.3,0.9,0.5,1.3c0.1-0.3,0.3-0.5,0.3-0.8C117.3,528.4,117.2,527.9,117,526.5z M77,523.5c0,0.1-0.1,0.3-0.1,0.4
	c0.2,0,0.4,0,0.5,0.1c0-0.1,0-0.3-0.1-0.4C77.2,523.4,77.1,523.5,77,523.5z M85.1,171.6c-0.1-0.1-0.2-0.3-0.3-0.4
	c-0.1,0.1-0.3,0.3-0.3,0.3c0.1,0.2,0.3,0.3,0.4,0.5C85.1,171.9,85.1,171.7,85.1,171.6z M75.1,541.9c0,0.1-0.1,0.3-0.1,0.4
	c0.2,0,0.4,0,0.6,0.1c0-0.1,0-0.3-0.1-0.4C75.3,541.9,75.2,541.9,75.1,541.9z M15.3,78.8c0-0.2,0-0.3,0.1-0.5
	c-0.2,0-0.4,0.1-0.6,0.1c0.1,0.1,0.1,0.3,0.2,0.4C15,79,15.2,78.9,15.3,78.8z"/>
<path d="M395.7,27.2c1.6,1.6,3.6,1.8,5.8,2c1,0.1,2.2,0.7,2.8,1.5c0.9,1.3-0.2,2.5-1.2,3.3c-1.9,1.5-3.8,2.9-5.9,4.2
	c-2.1,1.2-4.3,1.1-6.5,0.1c-1.9-0.9-3.8-1.7-5.6-2.9c-1.2-0.8-2-1-3.5-0.7c-3.5,0.7-9-3-10-6.2c-0.5-1.4,0.6-3.7,2.7-3.9
	c2.8-0.3,2.9-1.7,3-3.8c0.1-2.4,0.6-4.7,1-7.1c0.1-0.1,0.3-0.1,0.4-0.2c0.1-0.1,0.1-0.2,0.1-0.3c-0.2,0.2-0.3,0.3-0.5,0.5
	c-1.9,1.4-4,2.6-5.5,4.4c-1.8,2.1-4.8-1-6.2,2.1c-0.9,2-2.5,3.7-3.5,5.7c-1.5,3.1-4.7,4.3-7.1,6.3c-2.4,2.1-5.2,0.8-7.8,0
	c-0.3-0.3-0.6-0.7-1-1c-0.3-0.3-0.6-0.7-1-1c-0.2-0.1-0.3-0.3-0.5-0.4c0.2,0.2,0.3,0.3,0.5,0.5c0.3,0.3,0.7,0.6,1,1
	c0.3,0.3,0.7,0.6,1,1c1.9,1.7,3.8,3.4,5.6,5.2c1.1,1,0.8,1.9-0.6,2.5c-5.1,2.2-10.3,1.2-14.2-2.7c-1.1-1.1-2.3-2.3-3.4-3.5
	c-2.1-2.4-5.6-4.7-8.3-5.7c-1.3-0.5-2.6-1.3-3.6-2.3c-4.2-4-7.9-8.4-12.7-11.7c-1.6-1.1-2.9-3-4-4.8c-1.1-1.7-2.1-3.5-1-5.9
	c0.4-0.7-0.4-2.1-0.6-3.2c1,0,1.9,0,2.9,0c0,0.8,0.1,1.6,0,2.4c-0.6,5.5,1.8,9.1,6.8,11.2c0.1,0.1,0.1,0.3,0.2,0.4
	c0.1,0.1,0.2,0.1,0.3,0.1c-0.2-0.2-0.3-0.3-0.5-0.5c0.8-4.6,1.2-9.2-1-13.6c1,0,1.9,0,2.9,0c0.7,2.9,1.5,5.8,1.9,8.8
	c0.3,2,1.3,2.8,3.2,2.8c1,0,2-0.1,3.7-0.3c-3.7-3.5-6.7-6.8-7.8-11.3c1,0,1.9,0,2.9,0c0.7,3.2,2.4,5.8,5.1,7.8
	c1.2,0.9,2.1,0.9,3-0.6c1.7-2.6,0.7-4.8-0.3-7.2c1.3,0,2.6,0,3.9,0c0,3.4,0,6.8,0.1,10.2c0.1,2.3,0.5,2.5,2.6,2
	c0.5-0.1,0.9-0.4,1.4-0.5c2.7-0.7,2.6-0.7,2.1-3.3c-0.6-2.8-1.8-5.5-0.3-8.4c0.6,0,1.3,0,1.9,0c0.1,0.4,0.2,0.9,0.4,1.3
	c0.5-0.4,1-0.9,1.6-1.3c1.3,0,2.6,0,3.9,0c0.4,1,0.6,2.1,1.2,3c0.2,0.4,1.1,0.8,1.5,0.7c1.9-0.6,4-1,4.1-3.7c0.6,0,1.3,0,1.9,0
	c0.6,0.6,1.2,1.5,1.9,1.7c2,0.5,1.4-0.7,1-1.7c1.6,0,3.2,0,4.9,0c0.6,1.9,2.4,1.8,3.8,2.3c2.3,0.8,2.4,0.8,2.9-2.3
	c0.6,0,1.3,0,1.9,0c0,0.3,0,0.6,0.1,0.9c0.5,1.5,1.6,3-0.2,4.3c-1.5,1.1-2.9,0.4-4.4-0.3c-1.9-0.9-4.1-1.4-6.2-2
	c-0.1-0.1-0.1-0.3-0.2-0.4c-0.1-0.1-0.2-0.1-0.3-0.1c0.2,0.2,0.3,0.3,0.5,0.5c2.6,3,6.3,4.3,9.7,5.6c3.2,1.2,5.4-0.5,5.7-4
	c0.2-2.1,1.1-2.8,3-2.5c0,0.6,0.1,1.4-0.1,1.9c-1.4,3-0.8,5.1,2.1,6.9c1.3,0.8,2,2.7,3.1,4c0.8,0.9,1.7,1.9,2.8,2.5
	c1.3,0.7,2.3-0.2,1.9-1.7c-0.6-2.5-1.4-4.9-2.2-7.3c-1.2-3.7-3.5-6-7.5-6.4c-0.3-0.6-0.7-1.3-1-1.9c2.3,0,4.5,0,6.8,0
	c2.5,4.9,5.4,9.7,6.7,15.2c0.6,2.4,1.2,2.5,3.2,1.2c1.8-1.1,1.7-1.5,0.2-3.1c-1.8-1.8-3.5-3.8-4.8-5.9c-0.8-1.2,0.5-1.5,1.5-1.5
	c4.1,7.4,13.8,12.5,21.2,11c-0.4-1-0.9-2-1.3-3c-0.5-1.1-1.2-2.2-1.5-3.4c-1.1-3.2-3.7-4.8-7-4.3c-0.9,0.1-1.9,0.6-2.8,0.5
	c-2.9-0.2-5.7-0.5-8.6-0.8c-1.6-1.9-3.2-3.9-4.9-5.8c2.6,0,5.2,0,7.8,0c-0.1,1.2-0.1,2.4-0.2,3.8c2.1,0,4.1,0,6.2,0
	c3.4-0.1,3.4-0.1,4.7-3.8c1.6,0,3.2,0,4.9,0c0.5,4.3,4.1,6.2,6.7,9c0.3,0.4,1.2,0.4,1.7,0.3c1.9-0.3,3.7-0.6,5.5-1
	c-2.1-2.8-4.1-5.6-6.2-8.3c1.9,0,3.9,0,5.8,0c-0.3,3.1,0.1,5.7,3.5,7c2.5,1,2.7,0.9,3.3-1.9c0.3-1.7,0.7-3.4,1-5.1
	c1.6,0,3.2,0,4.9,0c0,2.5,0.3,4.8,1.9,6.8c0,2.4,0.6,4.5,3.4,5.3c-1.2-1.8-2.3-3.5-3.5-5.3c0.6-2.3,1.3-4.5,1.9-6.8
	c0.6,0,1.3,0,1.9,0c-0.1,1.9-0.3,3.8-0.4,5.7c0,0.6-0.3,1.3-0.1,1.8c2,3.7,3.8,7.6,8.3,8.8c3,0.8,6.2,1.2,9.7,1.8
	c-2.5-4.7-4.6-8.8-8.4-12c-1.7-1.5-4.3-3.1-4.3-6.1c1,0,1.9,0,2.9,0c0.1,0.4,0.2,0.9,0.3,1.3c0.2-0.4,0.4-0.9,0.7-1.3
	c0.6,0,1.3,0,1.9,0c0,1.4,0,2.8,0,4.3c1.8-0.3,3.1-0.5,4.5-0.8c1.8-0.5,2.6-1.7,2.3-3.5c1,0,1.9,0,2.9,0c0.2,0.4,0.4,0.8,0.7,1.2
	c0.3,0.4,0.8,0.8,1.1,1.1c0.3-0.5,0.7-0.9,1-1.4c0.1-0.2,0.1-0.6,0.1-0.9c1,0,1.9,0,2.9,0c-0.5,1.2-1.7,2.7,1,2.9
	c1.7,0.1,3.4,0.3,5.1,0.7c1.1,0.2,1.5-0.3,1.6-1.2c0.1-0.8,0.1-1.6,0.1-2.4c1,0,1.9,0,2.9,0c-0.4,1.3-1.8,2.8,0.1,3.8
	c2.3,1.2,1.6,2.6,0.8,4.4c-1,2.4-0.5,3.1,2,3.4c3,0.5,6,1.1,8.9,1.6c1.7,0.3,2.6,1.3,3.1,3.1c2.1,7.5,6.8,13.2,12.8,18.6
	c0.7-5.3,0.4-9.8-2.6-14.1c-2.7-3.9-5.8-6.8-10.4-8c-2-0.5-4.1-0.9-5.3-3.5c1.4,0,2.5-0.2,3.4,0c3.2,0.9,6-0.3,8.8-1.6
	c4-1.9,3.9-2,0.8-5.2c-0.8-0.8-1.4-1.7-2.1-2.6c1.3,0,2.6,0,3.9,0c1.3,1.9,2.5,3.8,3.8,5.7c1.5-2.1,2.7-3.9,4-5.7c0.6,0,1.3,0,1.9,0
	c-0.3,1.2-0.4,2.5-1,3.5c-1.7,2.6-3.5,5.1-5.5,7.8c1.7,0.2,3,0.5,4.2,0.6c0.6,0,1.3,0.1,1.7-0.2C516,8.5,519.4,5.3,519,0
	c1.3,0,2.6,0,3.9,0c-1.5,3.8-2.7,7.8-6.1,10.5c-0.5,0.4-0.9,0.9-1.2,1.5c-0.2,0.2-0.2,0.8-0.1,0.9c0.3,0.2,0.9,0.5,1.2,0.4
	c0.9-0.3,1.8-0.7,2.5-1.4c3.5-3.4,6.7-7.2,8.6-11.8c0.6,0,1.3,0,1.9,0c2,2.2,2,2.2,5.8,0c1.6,0,3.2,0,4.8,0c0,1.3,0.5,1.3,1.8,1.2
	c2.8-0.2,3.2,0.6,2,3.3c-0.7,1.4,0.2,2.1,1,2c3.6-0.6,6.2,2.5,9.6,2.2c3.2-0.2,6.4-0.2,9.7,0c2.5,0.2,5,0.7,7.5,1.3
	c1.1,0.3,1.5,1.2,0.5,2.2c-1,1-2.1,1.9-3.3,2.9c3.8,2,8.1,1,12,1.9c1.2,0.3,2.6,0.2,3.7,0.6c0.5,0.2,0.8,1.2,1.1,1.8
	c-0.1,0.1-0.3,0.1-0.4,0.2c-0.1,0.1-0.1,0.2-0.1,0.3c0.1-0.2,0.3-0.3,0.4-0.5c0.6,0,1.3,0,1.9,0.1c4.1,1.1,8.2,2.7,12.6,1.8
	c1.6-0.3,2,0.6,1.4,2.1c-0.3,0.7-0.8,1.4-1.2,2.1c-2,2.8-1.9,3.2,1.2,4.7c2.8,1.3,5.6,2.4,8.4,3.7c2,0.9,2.1,1.1,0.9,2.6
	c-0.1,0.1-0.2,0.2-0.3,0.4c-3.8,4.4-3.4,6,2.4,7.9c2.9,1,5.9,1.5,8.8,2.5c2,0.6,2.1,1.1,1,2.7c-0.5,0.7-1.5,1.8-1.3,2.2
	c0.8,1.5,1.7,3,3,4c2.2,1.7,3.2,1.3,4.5-1.1c0.4-0.7,0.7-1.5,1.1-2.2c1.4-2.5,2.2-2.6,4.4-0.7c2,1.7,2.5,4,3,6.4
	c0.1,0.7-0.7,3,1.8,2.2c0.2-0.1,1.1,1,1.3,1.7c1,2.5,0.2,4.8-1.4,6.7c-1.6,1.8-3.5,3.2-5.6,5.1c0.6,0.2,1.2,0.5,1.6,0.4
	c3.6-0.8,10.6-7.7,10.3-11.1c-0.3-3.5,0.5-6.9,0.2-10.4c-0.1-1.4,0.1-2.9,0.4-4.3c0.3-0.9,1.3-1.8,2.2-0.7c2.3,3.1,5.5,5.4,6.8,9.3
	c2.1,6.4,2.2,12.6-1.4,18.6c-1,1.6-1.7,3.3-2.8,5.6c3.5-1.2,6.4-2.3,7.5-5.7c0.5-1.6,1.3-2.8,2.8-3.7c2.6-1.6,3.5-5,6.8-5.9
	c0.4-0.1,0.8-0.8,0.8-1.1c-0.3-2.6,1.2-4.6,2.5-6.6c0.7-1.2,0.6-2.2-0.5-3c-4.2-3-5.1-8.2-7.9-12c-0.6-0.8-0.8-2.4-0.4-3.2
	c1.3-2.4-0.5-2.8-2-3.3c-0.7-0.3-1.6-0.1-2.4-0.2c-3.8-0.3-7.7-0.6-11.5-1c-1.9-0.2-2.4-1.5-1.2-3.1c3.6-4.5,8.6-6.6,14.1-7.6
	c0.2,0,0.3-0.1,0.5,0c5,2,10.7,2.5,14.8,6.5c0.5,0.4,0.8,1.2,1.3,1.3c4.7,1.2,7.6,5.2,11.6,7.5c1.9,1.1,3.8,3.3,4.4,5.4
	c2.3,7.8,3.6,15.7,0.2,23.5c-0.1,0.3-0.1,0.7-0.3,0.9c-3.6,4-5.2,9.1-8.1,13.6c-2.5,3.8-6.1,5.9-10.3,7.4c-3.9,1.5-8,1-11.7,2
	c-6,1.5-11.4-0.7-17-1.4c-1.8-0.2-3.5-1.5-5.2-2.3c-1.1-0.6-2.1-1.8-3.3-2c-2-0.3-4.2-2.2-6,0.4c-2.6-1.7-4.5,0.5-6.6,1.3
	c-5.5,2-10.1,0.5-13.8-4.8c-1.1-1.6-1.8-2.1-3.1-0.5c-0.9,1.2-1.8,1.1-2.6-0.2c-0.5-0.8-1-1.7-1.8-2.2c-4.2-2.6-6.8-6.3-8.1-11
	c-0.1-0.5-0.8-1.2-1-1.1c-2.7,1.1-3.9-1-5.2-2.5c-1.5-1.6-2.7-3.5-4.2-5.4c-2.5,1.6-5,3.4-7.7,5.1c-3.4,2.1-5.2,1.2-5.3-2.7
	c0-1.9-0.6-3.9,1.1-5.5c0.3-0.3,0.2-1.2,0-1.6c-0.8-1.4-2-2.6-2.6-4c-1-2.7-2.8-3.4-5.5-3.5c-1.8,0-3.6-1.2-5.2-2.1
	c-1.2-0.7-2.2-1.9-3.1-3c-2-2.7-4.5-3.9-7.9-3.5c-1,0.1-2.4-0.2-3.2-0.8c-2.5-2-5.6-2.1-8.9-2.9c1.1,3.3,2.2,6.5,3.1,9.6
	c0.7,2.2,0,3-2.3,2.8c-3.6-0.4-6.7-1.9-9-4.9c-0.8-1-1.8-1.9-2.4-3c-0.7-1.4-1.5-1.1-2.7-0.7c-1,0.3-2.3,0.4-3.2-0.1
	c-3.3-1.8-6.4-3.9-9.9-6.1c-0.3,0.5-0.8,1.3-1.2,2.1c-0.6,1.2-1.4,1.2-2.3,0.4c-0.2-0.2-0.5-0.4-0.7-0.7
	c-4.8-5.8-10.6-10.9-13.2-18.3c-0.7-2-1.9-2.8-3.7-3.2c-0.7-0.2-1.5,0.1-2.2,0.2c0.1,0.6,0.1,1.3,0.4,1.8c1.1,2.1,2.4,4.2,3.6,6.3
	c0.7,1.3,0,2.7-1,2.6c-1.9-0.1-2.1,0.6-2.5,2.2c-0.9,3.1-2.4,6-3.7,8.9c-0.3,0.7-0.9,1.4-1.5,1.9c-2,1.8-3.8,1.3-4.9-1.1
	c-1.5-3.4-3-6.7-4.8-10.9c-0.2,1.3-0.3,1.8-0.3,2.2c0.1,2.6,0,2.9-2.2,3c-2.6,0.2-5.2,0.2-7.5-1.3c-1.5-1-2.5-0.5-3.5,1.1
	c-0.9,1.6-2.2,3.2-3.6,4.5c-1.4,1.3-3.2,0.9-4-0.9c-1-2.2-1.8-4.5-2.4-6.8c-0.5-1.8-1-2.6-3.3-2.1c-3.5,0.8-6.4,2.1-8.6,4.9
	c-0.6,0.8-1.3,1.4-2.1,2c-3.8,2.5-7.8,3-11.5,0c-1.5-1.3-2.7-1.7-3.8,0.3c-0.8,1.6-2.1,1.5-3.2,0.4c-4.2-4.4-9.5-7.9-11.5-14.1
	c-0.2-0.6-0.5-1.2-1-1.6c-1.3-1.3-2.6-1-3.3,0.8c-0.8,2.1-1.4,4.3-2.3,6.3c-0.3,0.7-1.4,1-2.1,1.5c0.5-3,1.1-6.1,1.7-9.3
	c-0.6,0.3-0.9,0.4-1.1,0.6c-2,1.2-4.1,2.5-6.1,3.7C391.2,24.8,394,25.3,395.7,27.2z M665.4,85.4c0.3-0.3,0.6-0.6,1-1
	c0.7-0.6,1.9-1.1,2.1-1.9c1-4.3,4.6-7.7,3.8-12.6c-0.3-1.8,0.5-3.8,0.7-5.7c0-0.2-0.3-0.6-0.5-0.8c-0.2-0.1-0.7,0.1-0.8,0.2
	c-1.1,3-2.9,5.9-3.1,9c-0.3,4-0.4,8-2.2,11.7C666.1,84.7,665.7,85,665.4,85.4c-0.1,0.1-0.3,0.1-0.4,0.2c-0.1,0.1-0.1,0.2-0.1,0.3
	C665.1,85.7,665.3,85.5,665.4,85.4z M670.3,37.9c0.2,0.1,0.3,0.3,0.5,0.4C670.6,38.1,670.4,38,670.3,37.9c-0.3-0.4-0.6-0.7-0.9-1
	c-0.3-0.3-0.6-0.6-1-1c-0.8-3.7,2.5-2.6,4.4-3.3c-3.1-2.3-6.2-3.1-10.3-2c2.2,1.9,4,3.6,5.9,5.3c0.3,0.3,0.6,0.6,1,1
	C669.6,37.2,669.9,37.5,670.3,37.9z M531.6,14.5c0.4-0.1,0.8-0.2,1.3-0.3c-0.1-0.2-0.2-0.3-0.3-0.5C532.2,14,531.9,14.3,531.6,14.5
	c-0.1,0.1-0.3,0.1-0.4,0.2c-0.1,0.1-0.1,0.2-0.1,0.3C531.2,14.9,531.4,14.7,531.6,14.5z M664.4,35.9c0.2,0.1,0.3,0.3,0.5,0.4
	C664.8,36.2,664.6,36,664.4,35.9c-0.6-0.4-1.3-0.7-1.9-1c-0.4-0.5-0.7-1-1.1-1.6c-0.9-1.5-3-3-0.4-4.8c0,0-0.3-0.8-0.5-0.8
	c-1.4,0.1-2.9,0.1-4.3,0.5c-3.1,1-6.2,2.1-7.9,5.4c4.9,0.4,9.5,0.8,14.1,1.3C663.2,35.2,663.8,35.6,664.4,35.9z M648.9,77.6
	c-0.3,0.5-0.6,0.9-0.8,1.4c-0.1,0.2,0.2,0.5,0.3,0.8c0.2-0.3,0.5-0.6,0.5-0.9C649,78.5,648.9,78.1,648.9,77.6c0.1,0,0.3-0.1,0.4-0.2
	c0.1-0.1,0.1-0.2,0.1-0.3C649.2,77.3,649.1,77.4,648.9,77.6z M329.8,15.5c0-0.3,0-0.6,0-1c0-0.6,1-1.6-0.4-1.8
	c-0.6-0.1-1.2,0.1-1.8,0.2c0.3,0.6,0.6,1.3,1,1.8C328.9,15.1,329.4,15.3,329.8,15.5c1.7,1.3,3.4,2.5,5.4,3.9
	C335.2,14.7,332.1,15.8,329.8,15.5z M470.5,23.3c0,0.4,0,0.9,0.1,1.3c0.1,0.3,0.3,0.6,0.5,0.9c0.1-0.3,0.3-0.6,0.2-0.8
	C471.1,24.2,470.7,23.8,470.5,23.3c0-2.1,0-4.2-0.1-6.3c0-0.7-0.4-1.5-0.7-2.1c-0.1-0.2-0.6-0.2-0.9-0.1c-0.3,0.1-0.7,0.4-0.6,0.5
	C469.1,17.8,467.7,21.2,470.5,23.3z M424.9,20.4c-0.1-0.1-0.1-0.3-0.2-0.4c-0.1-0.1-0.2-0.1-0.3-0.1
	C424.5,20.1,424.7,20.2,424.9,20.4c2,2.9,4.3,5.1,8.8,4.6C430.8,22.3,428.1,21,424.9,20.4z M602.4,46.5c0.5-1.7,1-3.4,1.6-5.5
	c-2.5,0.9-4.8,1.6-7,2.4c0.1,0.6,0.1,0.8,0.2,0.8C598.9,45.1,600.6,45.8,602.4,46.5c4.8,4,10.2,5.6,16.3,3.7c0.3-0.1,0.6-0.6,0.7-1
	c0-0.1-0.4-0.5-0.7-0.6c-2.3-0.6-4.7-1-6.9-1.8c-1.6-0.6-3-2.3-4.6-2.4C605.7,44.4,604,45.8,602.4,46.5z M486.9,22.3
	c0.1,0.1,0.1,0.3,0.2,0.4c0.1,0.1,0.2,0.1,0.3,0.1C487.2,22.6,487.1,22.5,486.9,22.3c-0.8-4.3-3.4-7.1-7.3-8.8
	c-0.9-0.4-2.2-0.6-3.1-0.4c-2.2,0.5-2.5,1.7-0.9,3.3C478.8,19.5,482.6,21.4,486.9,22.3z M554.8,35.9c-0.1-0.1-0.1-0.3-0.2-0.4
	c-0.1-0.1-0.2-0.1-0.3-0.1C554.5,35.6,554.7,35.7,554.8,35.9c0.3,1,0.6,2.1,0.9,3.1c0.1,0.7-0.2,1.7,0.2,2.1
	c1.9,1.9,3.9,3.8,6.1,5.4c1.5,1.1,3.9,1.7,4.8,0.3c1-1.5-0.8-3-2.2-4.2c-1.9-1.5-4-3-5.2-4.9C558.1,35.8,556.6,35.9,554.8,35.9z
	 M547.1,37.8c0.1,0.1,0.1,0.3,0.2,0.4c0.1,0.1,0.2,0.1,0.3,0.1C547.4,38.1,547.2,38,547.1,37.8c0.3-0.5,0.5-1,0.7-1.5
	c0.6,0.5,1.2,1.1,1.9,1.5c0.5,0.3,1.1,0.4,1.7,0.5c0.1-0.7,0.4-1.8,0.1-2.1c-3.4-3.7-6.8-7.4-10.8-10.8c-0.2,0.9-0.3,1.3-0.4,1.8
	C539.4,32.8,542.1,36.9,547.1,37.8z M513.2,23.3c0.6,0,1.3-0.1,1.9-0.1c3.7-0.1,3.7-0.1,3.8-3.6c0.1-1.4,0.4-2.8,0.5-4.3
	c0-0.4,0.1-1.1-0.2-1.2c-0.2-0.2-1-0.1-1.2,0.1c-0.9,0.7-1.6,1.5-2.5,2.3c-0.9,0.9-1.8,1.7-2.6,2.6c-1.6-1.7,1.1-2.3,1-3.6
	c0-0.4-0.4-0.7-0.7-1.1c-1.7,1.7-2.7-0.9-4.3-0.6c-1.7,0.4-3.5,0.5-5.2,0.8c-1.1,0.2-1.3,1-0.7,1.7c1.7,2.1,3.5,4,6.6,4.4
	c1.1,0.1,3.6-0.1,3.4,2.5c-1.5,0-3,0-5.6,0C511,24.2,511,24.2,513.2,23.3z M524.8,29.1c-0.1-0.1-0.1-0.3-0.2-0.4
	c-0.1-0.1-0.2-0.1-0.3-0.1C524.5,28.8,524.6,28.9,524.8,29.1c-0.2,2.5,2,4.9,0.3,7.5c-0.1,0.2,0,0.7,0.1,0.9
	c2.7,4.2,4.9,9.1,11.3,9.4c-0.7-2.6-1.5-4.8-1.9-7.1c-0.6-3.1-2.5-5.1-4.8-7C528.2,31.5,526.4,30.3,524.8,29.1z M567.4,41.7
	c-0.1-0.1-0.1-0.3-0.2-0.4c-0.1-0.1-0.2-0.1-0.3-0.1C567.1,41.4,567.3,41.6,567.4,41.7c0.9,1.1,1.9,1.8,2.2,3.5
	c0.7,4.6,3,8.7,5.9,12.4c1,1.3,2.5,2.2,4.5,3.9c0-2.1,0.2-3.2,0-4.2c-0.8-3.2-1.8-6.4-2.8-9.6c-0.6-2-1.8-3.9-2.7-5.7
	c-1.3-2.6-4.3,0.8-6.5-0.3C567.8,41.7,567.6,41.7,567.4,41.7z M596.5,47.5c-0.9-1.8-2.5-2.3-4.6-1.9C593.5,46.3,595,46.9,596.5,47.5
	c0.3,0.9,1.1,1.9,0.9,2.6c-1.4,4,1.1,6.4,3.4,8.7c2.1,2.2,4.5,4,6.9,5.9c0.7,0.5,1.7,0.6,2.5,0.9c0.3-0.9,0.8-1.7,0.8-2.6
	C611.1,56,604.3,48.8,596.5,47.5z M381.1,15.6c-1.9,3.4-2,4-1.5,6.1c1.1,4.7,3.6,8.7,7.1,11.7c2.7,2.3,6.1,4.5,10,2.3
	c1.3-0.8,2.4-1.9,3.8-3C392.6,28.3,385.7,23.4,381.1,15.6z M417.7,12.1c3.8,4.9,10.3,7.8,16.3,7.2c1.7-0.2,3.3-1,4.8-1.9
	c1.6-1,1.5-2-0.3-2.7c-2.4-0.9-5.7-0.9-7-2.6c-2.1-2.7-4.3-1.4-6.4-1.2C422.6,11,420.2,11.7,417.7,12.1z M473.6,18.1
	c-0.4,3-0.3,6,0.9,8.9c1.4,3.2,2.8,6.4,4.2,9.6c0.5,1.1,1.5,1,2.1-0.2c1.2-2.4,2.4-4.9,3.3-7.4c1-2.6,0.3-4.3-1.9-5.6
	C479.4,21.6,476.5,19.9,473.6,18.1z M515.9,25.2c-1.8,0.4-3.8,0.8-5.8,1.3c-0.3,0.1-0.7,0.9-0.5,1.1c1,2.4,0.2,6,4.1,6.8
	c0.8,0.2,1.4,1.3,2.2,1.8c1.3,0.8,2.7,1.6,4.2,2.1c0.5,0.2,1.5-0.3,1.8-0.8c2-3.2-0.1-10.3-3.4-11.8C517.9,25.3,517,25.3,515.9,25.2
	z M541.5,4.4c-4.9-1-8.8-0.5-12.2,1.8c-4.3,2.9-7,7.4-9.1,12.1c-0.2,0.4,0.2,1.6,0.4,1.6c1,0.1,2.4,0.4,3.1-0.1
	c0.9-0.6,2.8-0.8,2.2-2.4c-0.4-1-0.8-1.4,0.4-2.2c2.6-1.6,5-3.4,7.5-5.1C536.2,8.3,538.6,6.5,541.5,4.4z M547.7,20.9
	c2.4,1.1,4.4,1.5,5.7,2.7c4.7,4.4,10,5.3,16,3.5c0.3-0.1,0.7,0,1-0.1c1-0.4,1.1-1.3,0.3-1.8c-3.5-2.6-7.2-5.1-11.6-5.4
	C555.5,19.6,552,20.4,547.7,20.9z M363.2,21.5c-4.1,0.7-7.5,1.5-10.9,1.7c-3.4,0.2-6.9-0.3-10.5-0.5c2.8,3.3,5.7,6.1,9.8,7.6
	c1.4,0.5,2.6,0.4,3.6-0.4C358.1,27.8,360.6,25.2,363.2,21.5z M369.3,16.4c2.6-0.1,3.8-0.6,5.2-2.7c0.4-0.6,0.8-1.6,0.5-2.1
	c-0.2-0.5-1.3-0.9-1.9-0.9c-4.1,0.6-7.5-1.4-10.8-3.3c-1.4-0.8-2.6-1.8-4-2.7c-0.5-0.3-1.1-0.4-1.7-0.6c0.1,0.7-0.1,1.6,0.3,2.1
	c1.6,2.4,3.4,4.7,5.2,6.9C364,15.7,366.8,16.2,369.3,16.4z M416.9,32c1.4-2.7,3.2-4.8,3.1-7.7c0-3.3-1.4-4.8-4.6-4.7
	c-2.6,0.1-5.2,0.5-8.1,0.8C409.1,25.3,413,28.3,416.9,32z M336.8,23.1c-3.2-2.1-6-4.2-9-6c-2-1.2-4.2-2.3-6.4-3.2
	c-1.6-0.6-2.5,0.4-2,2c1.3,4.5,4.9,7,8.6,9.3c2.4,1.5,4.5-0.9,6.8-1.2C335.6,23.9,336.3,23.4,336.8,23.1z M581.4,36.3
	c0-0.3,0.1-0.6,0.1-0.9c-1.8-0.6-3.7-1-5.3-1.9c-3.9-2.2-8.1-1.1-12.2-1.3c-0.2,0-0.7,0.8-0.7,0.8c1.8,2.2,0.4,2.7-1.5,3.1
	c-0.2,0-0.6,0.4-0.5,0.6c0,0.3,0.3,0.7,0.5,0.8c3.5,0.5,7.1,1.5,10.6,1.3C575.4,38.5,578.4,37.1,581.4,36.3z M610.6,53.6
	c1.4,4.1,3,7.7,6.5,10c1,0.7,2.2,1.1,3.4,1.3c1.3,0.2,2.2-0.4,2.1-1.9c-0.2-5.5-1.1-10.1-8.7-9.6C612.8,53.5,611.7,53.5,610.6,53.6z
	 M671.5,34.9c1.1,2,1.9,3.5,2.7,4.8c2.4,3.8,4.2,8,8.6,10c0.4,0.2,1.2,0.5,1.3,0.4c0.3-0.5,0.8-1.2,0.6-1.6c-1-3.2-1.9-6.4-3.4-9.4
	c-0.6-1.3-2.4-2.2-3.8-2.7C675.8,35.6,673.9,35.4,671.5,34.9z M455.3,20.7c2.2,4.8,5.8,7.7,10.5,9.2c2.7,0.8,3.5-0.2,2.7-3.1
	c-0.5-2-1.3-3.9-2.2-5.8c-0.2-0.5-1.2-1-1.8-1C461.5,20.1,458.5,20.4,455.3,20.7z M652.8,84c0.2,0.3,0.3,0.6,0.5,1
	c1.4,0.3,2.9,0.3,4.2,0.8c2.8,1.2,4.6-0.1,6.2-2.1c2.9-3.7,3.1-7.9,2.4-12.8C661.2,75.2,659.3,81.9,652.8,84z M594.2,60.8
	c-0.8-2.3-1.4-4.6-2.3-6.8c-0.4-0.9-4.9-2.8-5.2-2.2c-0.5,1-0.9,2.4-0.7,3.5c0.3,2.3,0.7,4.7,1.5,6.9c1,2.7,3.9,5.2,4.4,4.4
	C592.9,64.9,593.4,62.9,594.2,60.8z M673.9,73.7c0.3,0.1,0.6,0.2,0.9,0.3c3.7-6.5,4.5-13.6,4-20.9c-0.1-1.1-0.6-2.2-1.2-3.1
	c-0.3-0.6-1.2-0.8-1.8-1.2c-0.2,0.6-0.7,1.1-0.7,1.7c-0.1,4.7-2.3,9.5-0.1,14.3c0.2,0.4,0,1-0.1,1.4
	C674.6,68.7,674.3,71.2,673.9,73.7z M451.1,20.5c0,2.9-0.1,5.4,0,7.9c0.1,1.9,0.7,3.8,1.1,5.6c0.1,0.3,0.8,0.7,1.1,0.6
	c1.6-0.4,4-5.4,3.2-6.9c-1.6-2.8-3-5.8-5.2-8.1c-1.7-1.8-4.3-2.6-6.6-3.7c-0.4-0.2-1.3,0.1-1.6,0.5c-0.3,0.4-0.6,1.3-0.4,1.6
	c0.7,1,1.6,2,2.6,2.8C447.8,23.1,448,23.1,451.1,20.5z M458.2,6.3c3.9,2.4,6.6,5.7,11.5,5.7c1.9,0,3.4-0.1,4.8-1.2
	c1.2-1,2.2-2.2,3.7-3.8c-3.6-0.7-6.6-1.8-9.7-1.8C465.3,5.1,461.9,5.8,458.2,6.3z M582.1,32.1c2.6,1.6,2.7,2.1,4.4,5.7
	c0.6,1.4,1.8,3.1,3.1,3.4c2.9,0.8,6.1,0.9,8.8-1.1c0.7-0.5,1.3-1.4,1.5-2.2c0.1-0.3-1.1-1.1-1.8-1.3c-4.4-1.6-8.7-3.1-13.1-4.5
	C584.2,32,583.3,32.1,582.1,32.1z M351,10.9c-1.6,0.7-2.6,1.5-3.7,1.5c-2.7,0.1-4.9,2.3-7.8,1.4c-0.6-0.2-2.1,0.7-2.3,1.3
	c-0.2,0.7,0.5,2,1.2,2.4c2.2,1.2,4.6,2.3,7,3.1c0.6,0.2,1.8-0.1,2.1-0.6C349.3,17.5,351.2,14.9,351,10.9z M683.9,61.8
	c-1,2.5-2.3,4.9-3,7.5c-1.1,4.1-3.4,7.3-6.7,9.7c-1.8,1.3-2.6,3-3.7,5.9c3.6-2.1,7.1-2.7,9-5.5C683.1,74.1,684.8,68.2,683.9,61.8z
	 M592.4,49.2c-2.5-3.1-5.2-5.7-7-8.8c-1.4-2.4-2.8-2-4.6-1.4c-0.9,0.3-1.9,0.5-2.7,1c-0.3,0.2-0.6,1.2-0.4,1.5
	c3.2,3.9,6.9,7.1,12,8.3C590.4,50,591.4,49.5,592.4,49.2z M568.7,11.8c-6.6-1.9-11.9-1.2-16.9,1.9c-1.2,0.7-2,1.5-1.2,3.1
	c0.7,1.4,1.6,1.6,3.1,1.3C558.8,16.9,563.4,14.8,568.7,11.8z M630.7,82.9c1.4,0.7,2.5,1.6,3.7,1.9c3.5,0.7,6.9,1.4,10.1-1.1
	c1.5-1.1,1.5-2.3,1.3-3.8c-0.2-1.7-1.6-1.3-2.7-1.3c-3.3,0-6.8-0.6-9.3,2.6C633.3,82,632,82.3,630.7,82.9z M615.1,75.2
	c4.1,3.3,8.7,4.6,13.4,5.1c1.2,0.1,2.4-0.4,3.6-0.8c0.4-0.1,0.9-0.7,0.9-0.9c-0.1-0.6-0.5-1.3-0.9-1.5c-2.1-1-4.4-1.9-6.5-2.9
	C622,72.5,618.7,73.4,615.1,75.2z M546.2,17.9c-7.1-2-13.5-2.8-19.8,3.2c4,0.3,7.5,1.3,10.4,0.5C539.8,20.9,543.5,21.5,546.2,17.9z
	 M423.3,22.3c-0.3,2-0.5,3.3-0.7,4.5c-0.6,2.6-0.4,3.5,1.7,4.8c2.3,1.5,4.8,2,7.2,0.4c1.6-1,3.1-2.1,5.3-3.6
	C431.2,28.1,426.9,26.6,423.3,22.3z M558.6,32.6c-2.3-2.4-4.2-4.2-6-6.2c-2.2-2.4-5.3-2.9-8-4c-0.4-0.2-1.3,0.3-1.6,0.8
	c-0.2,0.3,0,1.2,0.3,1.6c1.8,1.7,3,4.1,5.5,5C551,34.2,554.8,33,558.6,32.6z M519.1,22.6c1.8,1.9,3,4,3.9,3.8
	c3.5-0.5,4.4,2.6,6.5,3.9c2.6,1.7,5.3,3.4,8,5c0.2,0.1,0.9-0.2,1.2-0.4c0.1-0.1,0.1-0.6,0-0.9c-0.4-0.9-1.2-1.7-1.2-2.5
	c0-2.5-1.6-3.3-3.4-4.1c-1.2-0.5-2.4-0.8-3.6-1.2C527,25.1,523.7,24,519.1,22.6z M349.4,37.6c-2.7-3.1-5.3-5.9-7.8-8.7
	c-0.9-1-1.8-1.8-2.7-2.8c-1.3-1.3-2.5-0.4-3.4,0.3c-0.4,0.3-0.2,1.8,0.1,2.4c0.8,1.4,1.9,2.6,2.8,3.9
	C341.1,36.8,344.6,38.6,349.4,37.6z M668.6,40.8c-2,0-3.4,1.1-2.8,2.3c1.5,3.2,3.1,6.4,4.8,9.5c0.2,0.3,0.9,0.7,1.2,0.5
	c0.5-0.2,1.1-0.7,1.2-1.2c0.3-1.6,0.1-3.2,0.5-4.8C674.3,42.8,672.8,40.7,668.6,40.8z M606.7,81.9c0.5-2.5,1.1-4.3,1.2-6.1
	c0-0.3-2-0.6-3.1-1.1c-0.6-0.3-1-0.8-1.4-1.3c-1.6-1.8-3.1-3.7-4.7-5.5c-0.3-0.4-1.1-0.5-1.6-0.6c-0.1,0-0.6,0.9-0.5,1.2
	c0.5,1.8,1,3.7,1.7,5.4C599.9,77.5,603.3,79,606.7,81.9z M628,68.3c1.3-0.7,2.5-1.4,3.8-2.1c1.6-0.8,3.3-1.7,3.5-3.7
	c0.2-2.9,0.5-5.8-1.6-8.3c-0.8-0.9-1.7-0.9-2.2,0.3c-0.4,0.9-0.7,1.8-0.9,2.7C629.7,60.9,628.9,64.4,628,68.3z M639.1,75.7
	c4.1,1.1,7.6,0.1,9.1-2.6c2-3.5,3.4-7.2,2.1-12.3C647.1,66.6,644.6,72.2,639.1,75.7z M543.7,8.5c-3.2-0.8-5.2,1.5-7.4,3
	c-1.1,0.7-0.7,1.8,0.4,2.1c1.3,0.4,2.8,0.8,4.1,0.8c2-0.1,4.1-0.5,6.1-1c0.9-0.2,1.8-0.7,2.6-1.2c0.4-0.2,0.9-0.9,0.9-1
	c-0.3-0.5-0.7-1.1-1.2-1.3C547.4,9.4,545.6,9,543.7,8.5z M620.8,67.7c-2.4-1.1-4.8-2.2-7.3-3.4c-0.2,0.9-0.1,2-0.6,2.7
	c-0.6,0.8-1.6,1.4-2.5,1.8c-0.6,0.3-2-1.2-2.1,0.7c0,0.9,0.3,2,0.9,2.6c1.9,1.7,9.3-0.1,10.6-2.5C620.1,68.9,620.5,68.2,620.8,67.7z
	 M662.6,90c-4.5-1.2-8.6-1.7-12-3.5c-2.7-1.4-4.5-1.2-6.7,0.4c-0.4,0.3-1,0.6-2.3,1.4C648.9,90.4,655.2,92.5,662.6,90z M623.3,86.8
	c-0.6-0.4-0.8-0.6-1.1-0.7c-3.3-1.1-6.3-2.5-6.5-6.8c0-0.8-1-1.6-1.8-2.2c-0.7-0.5-2-1.1-2.5-0.7c-0.6,0.4-1.1,1.7-1,2.5
	C611.4,85.2,617.4,89.7,623.3,86.8z M577.7,23.6c3.8,1.5,6.5,3.1,9.7,2.3c0.6-0.1,1.7,0.1,2,0.6c0.8,1.5,1.7,1.6,3.1,0.8
	c1.5-0.9,3.1-1.6,4.8-2.5C591.1,22.1,585.1,21.4,577.7,23.6z M608.6,35.9c-2.8-1.3-4.9-2.2-6.9-3.2c-3.4-1.7-6.6-4.7-10.9-2.6
	c-1.3,0.7-2.5-2.1-3.7,0c1.2,0.6,2.4,1.4,3.7,1.9c1.8,0.7,3.6,1.3,5.4,1.9c2.2,0.8,4.8,1.1,6.6,2.4C604.9,37.7,606.3,37,608.6,35.9z
	 M685,75.1c-0.4,0.6-1.1,1.2-1.3,1.9c-0.6,2.3-2,3.9-3.9,5.2c-1.3,0.9-2.6,1.8-4,2.4c-2.6,1.1-5.4,2-8,3.1c-0.5,0.2-1,0.9-1,1.4
	c0,0.3,0.8,0.7,1.3,1c0.3,0.1,0.6,0.1,1,0C676.3,89.4,685,82.4,685,75.1z M692.5,55.3c-3.3,5.3-6.9,9.4-6,15.3
	c2.9,0.4,4.2-1.2,5.1-3.7C692.8,63.3,692.6,59.7,692.5,55.3z M648,51.5c0,2.3,0,4.1,0,5.8c-0.1,1.9,0.1,3,2.2,1.3
	c0.3-0.3,1.8,0.1,2,0.5c0.7,1.9,2.1,3.6,1.2,5.9c-0.8,2.1-1.3,4.3-1.8,6.4c-0.2,0.6-0.2,1.2-0.2,1.8c0,0.2,0.4,0.6,0.6,0.7
	c0.2,0.1,0.6-0.1,0.7-0.3C656.7,66.4,654.6,56.4,648,51.5z M595.1,56.4c2.8,5.9,4.6,11.5,9.9,15c0.6-6.2,0.6-6.1-3.9-9.5
	C599.2,60.5,597.5,58.7,595.1,56.4z M565.1,18.7c8.2,5.4,8.8,5.5,15.3,0.9C575.6,18.8,570.8,17.4,565.1,18.7z M686.4,59.4
	c2.8-2.1,3.1-4.4,4.2-6.2c1-1.5,1-2.9,0.1-4.5c-1-1.8-1.9-3.6-3-5.3c-0.2-0.3-0.8-0.3-1.3-0.5c-0.1,0.4-0.4,0.9-0.4,1.2
	C687,49,688.8,53.7,686.4,59.4z M354.5,8.3c-0.6,4.4,1,8.2,4.4,10.1c2.4,1.4,3,1.3,5.2-0.4C359.4,16.2,358.1,11.1,354.5,8.3z
	 M627.3,72.1c0.1,0.3,0.1,0.6,0.2,0.9c1.8-0.4,4-0.4,5.3-1.4c2.3-1.6,5.2-2.8,6-6c0.1-0.4-0.1-0.9-0.3-1.3c0-0.1-0.6-0.1-0.8,0.1
	C634.2,67,630.8,69.6,627.3,72.1z M434.1,22.5c2.2,1.1,3.4,2.1,4.7,2.2c1.6,0.2,3.3-0.2,5-0.4c0.2,0,0.7-1.1,0.5-1.2
	c-1.1-1.2-2.1-2.6-3.5-3.1c-0.8-0.3-2.1,0.8-3.2,1.3C436.8,21.6,436,21.8,434.1,22.5z M571.2,29.7c2.2,0.4,4.2,1.1,6.2,1
	c2.1-0.1,4.1-1,6.5-1.6C579.1,25.7,574.9,25.6,571.2,29.7z M343.9,11c1.3-0.4,2.2-0.7,3.1-1c-0.3-1-0.6-2-1.1-2.9
	c-0.5-1-1.2-1.8-1.9-2.7c-0.8-1.1-2.4-1-3.1,0.1c-1.1,1.8,0.1,3.4,0.7,5C342,10.1,343.2,10.5,343.9,11z M681.2,61.5
	c5-5.8,5.1-7.3,0-9.6C681.2,55.1,681.2,58.3,681.2,61.5z M458.4,9.3c1.7,3.3,2.2,7.5,6.8,8.7c0.9-2.1,0-3.5-1.4-4.7
	C462,11.9,460.2,10.6,458.4,9.3z M381.7,31.6c-0.8-1.5-1.6-2.9-2.5-4.2c-0.3-0.4-1-0.9-1.5-0.8c-1.1,0.2-2,0.8-3.1,1.2
	c0.6,0.9,1,1.9,1.7,2.7C377.9,32.2,379.7,32.3,381.7,31.6z M624.1,69.2c0.1,0.1,0.3,0.1,0.4,0.2c1-2.3,2.2-4.5,3-6.9
	c0.6-1.8,0.2-3.6-2.4-3.6C624.7,62.3,624.4,65.8,624.1,69.2z M617.9,80.3c0.8,1.7,1.7,2.9,3.5,3.1c2.3,0.4,4.6,0.6,7,0.9
	c0.2,0,0.6-0.5,0.5-0.5c-0.3-0.4-0.5-0.9-0.9-1C624.8,81.9,621.6,81.2,617.9,80.3z M583.8,58.6c-0.3-3.1-0.6-6.1-1-9.2
	c0-0.4-0.6-0.7-1-0.9c-0.4-0.2-0.8-0.3-1.3-0.3c-0.1,0-0.3,0.6-0.3,0.8C580.8,52.4,581.7,55.7,583.8,58.6z M356.7,20.1
	c-4.2-5.5-4.3-3.2-6,0.5c0,0.1,0.1,0.3,0.2,0.9C352.8,21,354.5,20.6,356.7,20.1z M437.1,11.6c-1.1-3.1-2.1-5.6-3.1-8.4
	C432.6,9.4,432.6,9.4,437.1,11.6z M574.6,59c-0.4,0.3-0.8,0.7-1.2,1c0,1.2-0.1,2.5,0.1,3.7c0.1,0.4,1.2,0.9,1.6,0.7
	c2-0.6,2.1-1.4,0.9-3C575.5,60.7,575.1,59.8,574.6,59z M500,11c0.1,0.2,0.1,0.5,0.2,0.7c1.3-0.2,2.6-0.3,3.9-0.7
	c0.4-0.1,0.6-1.1,0.8-1.6c-0.5,0-1.1-0.2-1.6,0C502.2,9.8,501.1,10.4,500,11z M353.9,5.7c-0.4-0.2-0.8-0.7-1.1-0.6
	c-1.2,0.2-2.5,0.6-3.7,1c-0.2,0.1-0.3,0.6-0.3,0.7c0.1,0.2,0.5,0.6,0.7,0.5c1.3-0.3,2.7-0.7,4-1.1C353.7,6.2,353.7,6,353.9,5.7z
	 M534.1,24.5c0.1,0.2,0.2,0.4,0.3,0.5c0.8,0.3,1.6,0.5,2.5,0.7c0.1,0,0.2-0.2,0.3-0.3c-0.6-0.4-1.1-0.8-1.7-1.1
	C535,24.2,534.5,24.5,534.1,24.5z M409.1,3.9c-0.7-0.3-1.3-0.6-1.8-0.8c-0.1,0.3-0.3,0.6-0.2,0.7c0.3,0.3,0.7,0.6,1.2,0.7
	C408.4,4.6,408.6,4.3,409.1,3.9z M412.4,8.6c0.1,0.3,0.2,0.7,0.4,0.8c0.2,0.1,0.5-0.1,0.8-0.2c-0.2-0.3-0.3-0.6-0.5-0.7
	C413,8.4,412.7,8.5,412.4,8.6z"/>
<path d="M497.6,0c-0.9,0.8-1.8,2.2-2.8,2.3c-4.2,0.3-6.8,3-9.5,5.7c-0.8,0.8-1.6,1.6-2.4,2.3c-0.3,0.2-1,0.2-1.2,0
	c-0.3-0.2-0.6-0.9-0.4-1.2c0.5-1,1.1-1.9,1.9-2.7c1.7-1.8,3-3.7,2.9-6.3c1,0,1.9,0,2.9,0c0.3,0.8,0.6,0.8,1,0C492.4,0,495,0,497.6,0
	z"/>
<path d="M525.7,0c-0.6,1.2-1.3,1.2-1.9,0C524.4,0,525.1,0,525.7,0z"/>
<path d="M401.6,0c-0.3,0.8-0.6,0.8-1,0C400.9,0,401.3,0,401.6,0z"/>
<path d="M94.5,389.9c0.9-1.7,1.4-2.9,2.2-3.9c2.6-3.6,5.9-3.7,8.9-0.5c0.5,0.6,0.9,1.3,1.3,2c5.2,8.4,5.3,17.6,4.2,27.1
	c-0.6,5.2-2.1,10.4-1.2,15.8c0.2,0.8,0.1,2.3-0.2,2.5c-1.1,0.5-2.5,0.8-3.5,0.4c-1.9-0.7-3.7-2-5.4-3.1c-2.8-1.9-5.5-3.9-8.2-5.9
	c-1.4-1.1-3-2-4-3.4c-3.6-5.1-7.5-10-10-15.8c-1.8-4.2-1.4-8.6-0.8-12.9c0.4-3,3.4-4.7,6.5-5C87.8,386.7,91.5,386.4,94.5,389.9z
	 M107.7,395.8c0,0.4,0,0.9,0.1,1.3c0.1,0.3,0.3,0.6,0.5,0.9c0.1-0.3,0.3-0.6,0.2-0.8C108.3,396.7,108,396.2,107.7,395.8
	c0.1-3.2-1.9-5.7-3.3-8.3c-0.9-1.6-2.7-2.5-4.4-2.2c1.8,2.3,3.7,4.6,5.5,6.9C106.3,393.3,106.9,394.6,107.7,395.8z M106.7,418.1
	C106.7,418.1,106.7,418,106.7,418.1c0.3-1.1,0.8-2.2,0.9-3.3c0.1-3.7,0.3-7.4-0.1-11.1c-0.7-5.8-2.5-11.2-6.9-15.5
	c-1.5-1.5-2.5-1.4-3.1,0.6c-0.3,1-0.1,2.1,0.1,3.2c0.3,1.5,0.9,3,1.3,4.5l-0.1,0.1c-2,0.4-3.2-1-4.6-2.1c-3.8-3.1-8.3-3.9-13.1-3.6
	c-0.6,0-1.5,0.9-1.5,1.4c0,3.8-0.7,7.6,0.9,11.4c4.8,11.7,13.1,20,23.8,26.1c0.9,0.5,1.9,0.8,2.7,1.2c0.5-3.5,1-6.7,1.3-9.9
	C108.6,420,109.1,418.2,106.7,418.1z M86,389.1c0,0.1,0,0.3,0,0.4c1.2,0.4,2.4,0.8,3.6,1c0.6,0.1,1.3-0.2,2-0.3
	c-0.6-0.4-1.2-1-1.9-1.1C88.5,388.9,87.2,389.1,86,389.1z M108.9,400.1c-0.1,0.6-0.1,1-0.1,1.4c0,0,0.4,0.1,0.6,0.1
	c0-0.3,0.1-0.6,0.1-0.9C109.4,400.6,109.2,400.5,108.9,400.1z"/>
<path d="M131.2,469.4c-0.4,4.7-0.7,9.8-1.2,14.9c-0.2,2.4-1.3,2.9-3.6,1.9c-10.9-5-20.1-12.1-25.4-23.2c-2.6-5.3-2.1-10.9,1.1-16
	c0.5-0.9,2.1-1.5,3.2-1.6c1.5-0.1,3.4,1,4.6,0.4c1.2-0.6,1.5-2.8,2.7-3.8c1.4-1.3,3.2-2.2,4.9-2.9c0.7-0.3,2-0.1,2.6,0.4
	c1.6,1.3,3.2,2.7,4.3,4.4c3.1,4.8,4.9,10.1,6.3,15.6C131.3,462.4,131,465.7,131.2,469.4z M126.1,454c-0.3-0.6-0.6-1.3-1-1.9
	c-0.3-1-0.7-1.9-1-2.9c-0.3-0.6-0.6-1.3-1-1.9c-0.7-2.7-1.5-5.3-4.9-5.8c-0.1-0.1-0.1-0.3-0.2-0.4c-0.1-0.1-0.2-0.1-0.3-0.1
	c0.2,0.2,0.3,0.3,0.5,0.5c1.6,1.9,3.2,3.9,4.8,5.8c0.3,0.6,0.6,1.3,1,1.9c0.3,1,0.6,1.9,1,2.9C125.5,452.7,125.8,453.3,126.1,454
	c0.1,0.4,0.2,0.8,0.3,1.3c0.2-0.1,0.3-0.2,0.5-0.3C126.6,454.6,126.4,454.3,126.1,454z M111.3,455.4c-1.7-2-2.7-3.3-3.8-4.4
	c-1.7-1.7-3.8-1.2-4.8,1.1c-1.5,3.5-0.8,6.9,0.6,10.3c3.8,9.2,11.3,14.9,19.6,19.5c2.6,1.4,2.7,1.3,3.5-1.5c0.3-1.2,0.5-2.5,0.6-3.8
	c0.1-2.6-0.1-5.2,0-7.7c0.5-8.8-3.2-16.2-7.6-23.4c-0.3-0.4-0.4-0.9-0.7-1.2c-2.3-2.5-3.7-2.2-5.6,0.7
	C111.2,447.9,111.9,451.2,111.3,455.4z M128.3,465.7c0.2,0,0.4,0,0.7,0.1c-0.1-1.1-0.1-2.2-0.2-3.3c-0.2,0-0.3,0-0.5,0
	C128.3,463.6,128.3,464.7,128.3,465.7z"/>
<path d="M87.1,407.4c-2.6-3.1-1.7-6-1.8-9.9c1.4,2.1,2.3,3.4,3.3,4.9c0.4-1.8,0.6-4.2,1.2-4.2c2.1-0.3,1.9,2.1,2.9,3.2
	c0.4,0.5,1,0.9,1.3,1.5c0.4,0.6,0.9,1.8,0.7,2c-1.3,1.1-1.3-0.6-2-1.1c-0.3-0.3-0.8-0.4-1.1-0.6c-0.1,3.8-3.1,0.2-4.1,1.6
	C87.1,405.3,87.3,406,87.1,407.4z"/>
<path d="M103.8,401.6c-2,1.5-3.9,3.7-6.8,1.9l0,0c-0.1-0.5-0.1-1-0.2-1.4c-1-3.4-1-3.4,2.1-5.3l0.1-0.1c0.8,0.3,2.3-0.8,2.3,1.2
	c0,1.1,0.9,2.5-1.1,2.8c-0.3,0.1-0.6,0.8-0.9,1.2c0.4,0.1,0.8,0.2,1.2,0.2C101.7,402,102.7,401.8,103.8,401.6L103.8,401.6z"/>
<path d="M92.7,414.6c0.4,0.2,0.9,0.3,1.3,0.5c1.2,0.7,2,0.6,2.2-1c0-0.3,0.7-0.5,1.1-0.6c0.1,0,0.5,0.6,0.4,0.7
	c-1.4,2.4,0.1,4.3,0.9,6.3c0.1,0.3-0.2,0.8-0.4,1.2c-0.4-0.2-1-0.3-1.2-0.6c-1-2.3-2.3-4.2-4.8-5c-0.2-0.1-0.4-0.7-0.4-1.1
	C91.9,414.9,92.4,414.8,92.7,414.6z"/>
<path d="M106.7,418.1c-2.8,2.6-3.9,2.5-4.9-0.7c-0.6-1.9-1-3.9-1.5-5.8c0.3-0.1,0.6-0.2,0.9-0.4c0.5,1.2,1.4,2.4,1.5,3.6
	C103,417.5,104.4,418.2,106.7,418.1L106.7,418.1z"/>
<path d="M97.9,412c-0.9-0.3-1.4-0.3-1.8-0.5c-0.9-0.4-1.9-0.8-2.8-1.2c0.7-0.8,1.2-1.8,2-2.5c1.2-0.9,1.6-0.6,1.9,1.4
	c0.1,0.5,0.3,0.9,0.4,1.3C97.7,410.8,97.8,411.1,97.9,412z"/>
<path d="M97,403.5c-0.2,0.2-0.3,0.3-0.5,0.5c0-0.1,0-0.3,0.1-0.3C96.7,403.6,96.9,403.6,97,403.5C97,403.5,97,403.5,97,403.5z"/>
<path d="M103.8,401.6c0.2-0.2,0.3-0.3,0.5-0.5c0,0.1,0,0.3-0.1,0.3C104.1,401.5,103.9,401.5,103.8,401.6L103.8,401.6z"/>
<path d="M114.2,464.1c-0.4-0.1-0.8-0.1-1-0.2c-0.8-0.8-1.5-1.7-2.2-2.5c-0.7,1.1-2.8,1.5-2.2,3.6c0.2,0.7,0.1,1.4,0.2,2.1
	c-0.6-0.5-1.5-0.9-1.8-1.6c-0.6-1.3-1.1-2.7-1.4-4c-0.3-1.3-0.3-2.7,1.8-2c0.2,0.1,0.5-0.2,0.7-0.4c2-1.9,2-1.9,3.4,0.2
	C112.8,460.7,114.3,462,114.2,464.1z"/>
<path d="M119.7,452.1c-0.7,1.3-1.1,1.9-1.4,2.5c-0.2,0.5-0.4,1.1-0.5,1.6c0.6-0.1,1.2-0.3,1.8-0.3c0.4,0,0.9,0.2,1.7,0.4
	c-1,0.8-1.7,1.3-2.4,2c-0.2,0.2-0.1,0.9,0.2,1.1c1.4,1.2,1.3,1.1,0.5,2c-1.1,1.4-1.8,1-2.4-0.3c-0.1-0.3-0.3-0.6-0.5-0.8
	C114.1,455.8,114.1,455.8,119.7,452.1z"/>
<path d="M120.3,469.5c1-0.3,2.1-0.6,4-1.1c-1,1.3-1.6,2-2.1,2.6c-1.5,1.9-0.9,3.2,1,4.3l0,0c-0.1,1.2-0.3,2.7-1.8,1.1
	c-1.2-1.2-1.7-3.2-4-2.2c-0.1-0.5-0.6-1.2-0.4-1.4C118,471.6,119.2,470.6,120.3,469.5C120.3,469.5,120.3,469.5,120.3,469.5z"/>
<path d="M120.3,469.5c-0.8,0-1.6,0.2-2.4,0.1c-1.1-0.2-3,0.7-3.1-1c0-1.1,1.3-2.3,2.1-3.4c0.4-0.5,1.9,0.4,2.1,1.1
	C119.4,467.3,119.9,468.4,120.3,469.5C120.3,469.5,120.3,469.5,120.3,469.5z"/>
<path d="M123.2,475.3c0.3-0.3,0.6-0.5,1-0.8c0.1,0.2,0.2,0.3,0.3,0.5C124.1,475.1,123.6,475.2,123.2,475.3L123.2,475.3z"/>
</svg>
