<?xml version="1.0" encoding="utf-8"?>
<!-- Generator: Adobe Illustrator 18.0.0, SVG Export Plug-In . SVG Version: 6.00 Build 0)  -->
<!DOCTYPE svg PUBLIC "-//W3C//DTD SVG 1.1//EN" "http://www.w3.org/Graphics/SVG/1.1/DTD/svg11.dtd">
<svg version="1.1" id="Layer_1" xmlns="http://www.w3.org/2000/svg" xmlns:xlink="http://www.w3.org/1999/xlink" x="0px" y="0px"
	 viewBox="0 0 278.1 183.2" enable-background="new 0 0 278.1 183.2" xml:space="preserve">
<g>
	<defs>
		<rect id="SVGID_1_" x="0" y="0" width="278.1" height="183.2"/>
	</defs>
	<clipPath id="SVGID_2_">
		<use xlink:href="#SVGID_1_"  overflow="visible"/>
	</clipPath>
	<g clip-path="url(#SVGID_2_)">
		<g>
			<path d="M182,52.2c4.6-1.2,9.3-2.3,13.9-3.5c0.6-0.1,1.7,0,1.7,0.2c0.1,0.7,0.2,1.6-0.2,2.3c-2.6,4.7-6.9,7.5-11.1,10.5
				c-0.8,0.5-1.5,1.1-2.9,2c4.6-0.2,8.3-0.2,12-0.7c1.7-0.2,3.2-1.5,4.8-2.4c1.5-0.8,2.8-0.3,2.7,1.4c0,3.7-1.6,6.7-4.6,9
				c-0.9,0.7-2.3,0.8-1.9,2.5c0.2,0.9-0.2,2.1,0.3,2.7c1,1.2,1.6-0.5,2.4-0.6c1.1-0.2,2.3-0.4,3.3,0c2.8,0.9,4.8,3,6.3,5.4
				c1.9,3.2,2.7,3.7,6.1,3.1c0.5-0.1,0.9-0.5,1.4-0.5c0.4-0.1,1.2-0.1,1.3,0.2c0.3,0.5,0.5,1.5,0.3,1.8c-1.3,1.4-2.8,2.8-4.3,4
				c-0.8,0.6-2,0.7-2.6,1.5c-0.6,0.8-0.6,2.1-0.9,3.2c0.7,0.1,1.5,0.2,2.2,0.2c3.5-0.2,4.1,0.4,3.7,3.9c-0.1,1-0.6,1.9-0.7,2.9
				c-0.1,0.6,0.3,1.2,0.4,1.8c0.4-0.4,1.1-0.9,1-1.3c-0.2-3.4,1.3-7-1.6-10c-0.1-0.1,0.2-0.6,0.4-0.8c0.2-0.2,0.7-0.3,0.9-0.2
				c0.7,0.4,1.4,0.9,2,1.5c1,1.2,2.1,2,3.8,2c3.5,0.1,5.2,2.7,6.7,5.3c0.5,0.8,0.7,1.9,1,2.8c0.5,1.4,0.6,3.1,1.5,4.1
				c0.6,0.7,2.4,0.3,3.6,0.5c3.6,0.4,4.9,2.9,5.8,6c0.7,2.5,1.1,2.6,3.3,1.4c3.8-2.1,4.5-3.9,2.9-8.2c-0.6-1.6-1.4-3-1.9-4.6
				c-0.5-1.3,0.6-2.4,1.9-2c2.6,0.8,5.1,1.8,6.6,4.2c2.2,3.6,4.4,7.2,3.4,11.7c-0.3,0.3-0.7,0.7-1,1c-0.3,0.3-0.7,0.7-1,1
				c-0.3,0.7-0.7,1.3-1,2c-0.1,0-0.3,0.1-0.4,0.1c-0.1,0.1-0.1,0.2-0.1,0.3c0.2-0.2,0.3-0.3,0.5-0.5c0.3-0.7,0.7-1.3,1-2
				c0.3-0.3,0.7-0.7,1-1c0.3-0.3,0.7-0.7,1-1c2.7-2.2,5.3-4.5,8-6.6c0.8-0.6,1.6-1.2,2.5-1.4c2.5-0.6,3.9,0.7,3.5,3.2
				c-0.5,2.6-1.3,5.1-3.5,7c-1.7,1.4-1.8,2.6,0.3,3.8c0.6,0.3,1.2,1.4,1,1.9c-0.2,0.6-1.2,1-1.9,1.2c-5.1,1.5-10.2,2.9-15.6,1.3
				c-2.4-0.7-5.2,1.2-7.7-0.7c-0.1-0.1-1.3,0.7-1.3,1.1c0.4,5.5-4.6,9.1-5,14.4c-0.1,0.8-0.6,1.5-1.1,2.2c-0.9,1.1-2.1,1.3-3,0.2
				c-2.6-3.1-5.7-6.1-4.7-10.9c0.2-1.3-0.5-2.7-0.9-4.6c-2.8,5.7-2.6,5.5-6.2,1.1c-3.6-4.5-7.6-8.8-13.6-10.1
				c-1.8-0.4-7.1,2.1-7.6,3.5c-0.2,0.5,0.1,1.3,0.3,1.9c0.8,2.4,1.7,4.7,2.3,7.1c0.5,2-0.5,3.3-2.3,2.5c-3.1-1.2-4.2,0.5-5.3,2.6
				c-1,1.9-1.6,4-2.6,5.9c-0.7,1.4-2,1.9-3.2,0.6c-1-1-2.1-2.2-2.7-3.5c-0.9-2.2-1.7-3.5-4.3-1.9c-1.3,0.8-2.1-0.4-2.5-1.7
				c-0.2-0.6-0.3-1.4,0-2c1.6-4-0.4-7.9-0.1-11.8c0.2-2.1-1.3-3.3-3-4.2c-1.1-2.2-2-4.6-3.3-6.7c-1.4-2.2-0.2-5.3-2.4-7.2
				c0.6-0.4,1.3-1.2,1.6-1.1c3.3,1.6,5.9-0.1,8.5-1.8c-3.2-0.3-6.3-0.3-9.4-0.3c-0.8,0-1.7,0.1-2.4,0.4c-0.8,0.3-1.6,0.9-0.8,1.8
				c2.9,3.3,2.7,7.8,4.5,11.5c0.9,1.8,0.4,2.5-1.5,2.3c-2.9-0.3-5.7-0.9-8.9-1.4c0.6,4.4-0.8,8.2-2.3,11.8c-0.3,0.6-1.2,1.3-1.8,1.3
				c-0.6-0.1-1.4-0.9-1.6-1.6c-0.3-0.9-0.2-2-0.2-3c-0.1-1.5-0.2-3-0.3-5c-0.5,0.8-0.7,1.1-0.9,1.3c-1,1.8-1.6,4.3-4.7,2.8
				c-0.3-0.1-1.5,0.7-1.7,1.4c-1.9,4.9,0.2,9.5,5.2,11.6c1.2,0.5,2.6,0.9,2.4,2.7c-0.5,0-1,0-1.4,0.1c-0.3,0.1-0.6,0.4-0.9,0.5
				c0.3,0.1,0.6,0.3,0.8,0.3c0.5-0.2,1-0.6,1.5-0.9c1.7-0.5,3.4-1.1,5.1-1.6c1.4-0.5,2.8-1.4,4.2-1.4c2.2-0.1,2.7-1.1,2.8-3.1
				c0.2-4.1,0.6-8.2,1-12.3c0-0.5,0.7-0.9,1.1-1.3c0.3,0.4,0.7,0.7,0.8,1.1c0.2,0.6,0.3,1.3,0.4,2.1c1.8-1.7,1.6-4.7,4.6-4.5
				c0,0.5,0.1,1.2-0.2,1.5c-3.3,3.7-1.9,7.6-0.5,11.5c0.8,2.1,1.1,4.5,1.6,6.7c0.3,1.3,0.6,2.6,1.2,3.8c1.5,2.9,3.2,5.8,4.8,8.7
				c1.2,2.2,3.1,3.7,5.5,3.8c3.5,0.1,7-0.2,10.4-0.4c1.8-0.1,3.6-0.6,5.4-0.5c2.7,0.2,3.8,2.2,3.3,4.9c-0.5,2.7-1.6,4.9-3.7,6.8
				c-2,1.9-4.9,0.4-6.4,2c-1.4,1.4-0.1,4.3-2.3,5.7c-0.6,0.4-1.1,1.3-1.5,1.2c-3.9-0.9-7.1,2.3-10.9,1.5c-1.1-0.2-2.2-0.7-3.2-1.2
				c-1.4-0.7-2.4-0.5-3.6,0.6c-1.3,1.3-2.8,2.3-4.3,3.4c-3.8,2.7-7.6,1.2-7.7-3.3c-0.1-3.1-1.4-5.1-3.3-7.4
				c-3.7-4.4-6.3-9.2-4.6-15.5c0.8-2.8-0.8-5.2-2.6-7.5c-2.7-3.5-5.3-7.2-7.2-11.2c-1-2.1-0.5-4.9-0.7-8.5c-1.2,3-2,4.9-2.8,6.9
				c-0.8,1.8-1.5,1.9-3,0.1c-0.3-0.4-0.5-0.9-0.3-0.1c-2.2,1.8-4.4,3.6-6.6,5.3c-0.9,0.7-2,1.3-3.1,1.4c-1,0.1-2.1-0.6-3.1-1
				c0.4-0.8,0.8-1.7,1.2-2.4c0.9-1.4,2.1-2.6,2.8-4.1c0.6-1.2,2-2.6,0.6-4c-0.3-0.3-1.9,1-2.9,1.3c-3.8,1.2-7.6,2.5-11.5-0.1
				c-1.1-0.7-2.9-0.4-4.3-0.8c-0.9-0.3-1.6-1-2.4-1.5c0.5-0.6,0.8-1.3,1.4-1.8c0.7-0.7,1.4-1.3,2.1-1.9c-0.2-0.3-0.2-0.6-0.4-0.6
				c-2.4-1.1-3.1-4.2-5.2-5c-2.1-0.9-4.8,0-7.2-0.1c-0.8,0-1.7-0.3-2.3-0.7c-0.6-0.4-1.2-1.1-1.4-1.7c-0.1-0.3,0.8-1.2,1.3-1.3
				c2.9-0.5,4.4-2.7,6.2-4.6c-0.9-1.2-2.1-2.2-2.4-3.3c-0.4-1.5-0.3-3.3,0.1-4.9c0.6-2.2,2.7,0.1,3.9-0.8c-0.7-0.9-1.3-1.8-2-2.6
				c-1.2-1.6-2.4-2.8-4.3-0.6c-0.9,1-1.6,0.4-2.1-0.8c-1.6-4.2-3.3-8.3-5.1-12.7c-3.3,3.2-2.5,7.1-4,11c1.9-1.2,3.1-1.9,4.4-2.6
				c0.3-0.2,1.3,0,1.3,0.1c0.1,0.6,0.2,1.5-0.1,1.7c-3,2-6.1,4-9.3,5.7c-0.6,0.3-1.9-0.8-2.9-1.2c0.4-0.8,0.7-2,1.3-2.3
				c3.8-1.5,3.3-4.9,4-7.9c-0.5-0.1-0.8-0.3-1-0.2c-1.2,0.3-2.7,1.3-3.5,0.9c-1.7-0.8,0-2.3,0-3.5c0-1,0-2,0-3.6
				c-1.5,1.4-2.5,2.4-3.6,3.3c-0.9,0.7-1.9,1.3-2.9,1.7c-0.4,0.2-1.3,0-1.4-0.2c-0.2-0.5-0.3-1.3,0-1.7c1.9-3.1,3.8-6.2,5.7-9.4
				c0.8-1.3,1.5-2.6,1.8-4c0.2-0.8,0.1-2.2-0.5-2.6c-1.4-1.2-0.8-2.2-0.4-3.5c0.9-3.7,0.2-5-3.2-6.7c-1.7-0.9-3.4,0.1-4,2.1
				c-0.3,0.9-0.9,1.6-1.3,2.5c-0.5,1.1-0.9,2.3-0.5,4.1c2.3-2.1,4.6-4.2,7.6-6.8c-0.3,1.6-0.2,2.5-0.6,3.1c-2.3,3.8-5.2,6.8-9.8,7.7
				c-1.5,0.3-2.2-0.5-1.6-1.9c1.2-2.9,2.5-5.8,3.8-8.7c0.5-1,0.5-1.5-0.9-2.1c-2.9-1.3-3-2.4-0.9-4.8c1.2-1.4,2.4-2.7,4.1-4.5
				c-3.5-0.2-6.4-0.2-9.3-0.5c-1-0.1-2.6-0.5-2.9-1.1c-0.3-0.8,0.2-2.3,0.9-3.1c0.9-1.2,2.2-2,3.3-3c0.7-0.6,1.7-1.2,0.7-2.4
				c-1.6-2-2.8-2.6-4-1.7c-1.7,1.2-3,3.1-5.5,2.8c-0.2-1.9-0.4-3.9-0.5-5.8c0-0.3-0.2-0.6-0.3-1.3c-1.1,0.6-2.2,1.3-3.3,1.7
				c-1.4,0.4-3.1,1.1-4.2,0.7c-1.8-0.7-3.4-2.1-4.8-3.5c-0.4-0.4-0.2-1.6-0.3-2.4c3.2,1.1,3.2,1.1,5.9-2.3c-2.4,0.8-4.3,0.9-5.8,2.3
				c-3,0.3-5.9,0.8-8.9,0.9c-1.7,0-2.1-1.4-0.9-2.7c1.2-1.4,2.7-2.5,3.8-4c0.4-0.6,0.5-1.9,0.1-2.6c-1.1-2.2-4.4-2.7-6.1-1.2
				c-0.1,0.1-0.2,0.3-0.4,0.3c-1.2,0.7-2.6,2.2-3.6,2c-1.9-0.4-1.1-2.5-1.1-3.9c0-1.7-0.8-2.2-2.1-3.3c-2.4-1.9-4.7-2-7.4-1.9
				C16.2,11,16.2,11,14.1,8c3.8,0,7.2-0.2,10.7,0.1c1.4,0.1,2.7,1.7,4.1,1.7c1.3,0,2.6-1.4,4-1.7c2.5-0.6,3.3,0.1,4.1,2.7
				c0.2,0.6,0.4,1.3,0.6,1.9c0.3,1.1,1,1.2,1.8,0.6c1.4-1.2,2.8-2.3,4.1-3.6c2.1-2.2,6.3-2.6,8.2-0.3c1.9,2.3,4.1,1.9,6.4,1.6
				c0.6-0.1,1.2-1.2,1.7-2c0.7-0.9,1.5-1,1.8,0c0.5,1.4,0.8,2.5,1.8,0.5C64.2,8.1,65.2,8,66.4,8c6.2,0,12.3-0.1,18.5,0
				c1.4,0,2.9,0.6,4.3,1c1.5,0.4,3.1,1.4,4.4-0.6c0.3-0.4,1.5-0.4,2.3-0.3c0.6,0.1,1.2,0.7,1.8,0.7c2.4-0.1,4.9-0.7,7.2-0.3
				c2.5,0.5,4.9,0.6,7.3-0.2c0.8-0.3,1.6-0.4,2.4-0.4c1.9-0.1,2.3,0.5,1.7,2.3c-0.3,0.8-0.7,1.5-1.1,2.5c3.4,0.7,5.9-0.9,8.5-2.2
				c0.2-0.1,0.2-0.9,0.2-1.4c0-0.3,0.1-0.7,0.1-1c3.8,0.6,7.9-1.8,11.4,1.4c0.5,0.5,2.1-0.1,3.1-0.4c1.5-0.4,3.2-2.1,4.6-0.8
				c1.8,1.7-0.5,3.3-0.9,4.9c-0.3,1.3-2.4,2.8,0.1,4.1c0.1,0.1-0.5,1.6-0.8,2.4c-0.4,1.1-2,2.2-0.8,3.5c1.4,1.5,2.8,0.5,3.9-0.7
				c2.1-2.2,4.9-3.3,7.6-4.7c2.5-1.2,4.6-3.2,6.9-4.8c0.6-0.4,1.4-0.6,2.1-0.9c0.2,0.8,0.8,1.7,0.6,2.3c-1.4,3.7-3,7.4-4.6,11
				c-0.4,0.9-1.2,1.6-1.7,2.5c-0.3,0.5-0.5,1.4-0.2,1.7c0.5,0.5,1.4,1.1,2,1c1.6-0.3,3.1-1.2,4.7-1.6c2.5-0.6,4.4-0.1,5.9,2.3
				c2.1,3.2,3.4,6.3,3,10.2c-0.3,3.1,0.1,3.3,3.3,3.4c2.2,0.1,4.3,0,6.5,0.1c3,0.2,3.7,1.4,2.5,4.3C183,50.5,182.5,51.3,182,52.2
				c-0.1,0.1-0.3,0.1-0.4,0.2c-0.1,0.1-0.1,0.2-0.1,0.3C181.6,52.5,181.8,52.3,182,52.2z M134,46.2c0.3-0.3,0.7-0.7,1-1
				c0.1,0,0.3-0.1,0.4-0.1c0.1,0,0.1-0.2,0.1-0.3c-0.2,0.2-0.3,0.3-0.5,0.5C134.6,45.5,134.3,45.9,134,46.2
				c-0.1,0.1-0.3,0.1-0.4,0.2c-0.1,0.1-0.1,0.2-0.1,0.3C133.6,46.5,133.8,46.3,134,46.2z M179,54.2c-0.1,0-0.3,0.1-0.4,0.1
				c-0.1,0.1-0.1,0.2-0.1,0.3C178.7,54.5,178.8,54.3,179,54.2c0.1-0.1,0.3-0.1,0.4-0.2c0.1-0.1,0.1-0.2,0.1-0.3
				C179.4,53.9,179.2,54.1,179,54.2z M189,164.4c-0.2,0-0.3,0.1-0.4,0.2c-0.1,0.1-0.1,0.2-0.1,0.3
				C188.7,164.7,188.8,164.5,189,164.4c0.1-0.1,0.2-0.1,0.3-0.2c0.1-0.1,0.1-0.2,0.1-0.3C189.3,164,189.2,164.2,189,164.4z
				 M170,85.3c-0.3-0.3-0.7-0.7-1-1c0.7-1.7,1.4-3.3,1.9-5c0.5-1.5,0.7-3.2,0.8-4.7c0-0.2-1-0.9-1.2-0.8c-2.4,1.4-3.7,3.7-4.2,6.3
				c-0.5,2.2,1.2,3.2,2.7,4.2C169.4,84.6,169.7,84.9,170,85.3c0.4,0.8,0.8,1.6,1.3,2.4c0.2-0.7,0.6-1.4,0.5-2.1
				C171.6,84.1,170.6,85.3,170,85.3z M188,95.3c-1.5,0.4-3.1,0.7-5.4,1.3C187.1,97.8,187.1,97.8,188,95.3c0.1-0.1,0.3-0.1,0.4-0.2
				c0.1-0.1,0-0.2,0.1-0.3C188.3,94.9,188.2,95.1,188,95.3z M233.1,115.3c-0.1-0.2-0.1-0.3-0.2-0.4c-0.1-0.1-0.2-0.1-0.3-0.1
				C232.8,114.9,232.9,115.1,233.1,115.3c0.4,1.2,0.7,2.4,1.3,3.5c0.2,0.3,1.4,0,2.2-0.1c-0.2-0.6-0.2-1.4-0.5-1.7
				C235.1,116.4,234.1,115.9,233.1,115.3z M136,107.2c-0.8,0.2-1.6,0.3-2.3,0.7c-2.9,1.6-3,2.9-0.5,5.9
				C134.1,111.7,135,109.5,136,107.2c0.4-0.3,0.7-0.7,1-1c1-0.5,2.1-1,3-1.6c1-0.8,1.8-1.8,2.8-2.6c0.7-0.6,1.6-0.9,2.9-1.6
				c-5.7,0-6.2,0.4-8.6,5.9C136.6,106.6,136.3,106.9,136,107.2z M184,74.3c-0.3-0.3-0.7-0.7-1-1c-0.9-1.6-2.1-3-2.7-4.7
				c-0.5-1.5,0-3.6-0.8-4.6c-1.1-1.3-3.1-1.7-4.7-2.6c-0.1-0.1-0.1-0.5-0.1-1.3c2,0.2,3.9,0.4,6,0.7c-2.2-3.3-4.9-5.2-9.1-4.5
				c-3,0.5-6.1,0.6-9.4,0.9c0.4,0.9,0.9,2,1.4,2.9c0.2,0.3,1.1,0.4,1.1,0.4c1.9-4.8,2.9-1.5,4.1,0.5c0.2,0.4,0.8,0.5,1.3,0.7
				c2.4,0.9,3.7,2.7,4.8,4.9c0.5,1,1.3,2.1,2.2,2.6c2.2,1.2,2.3,2.9,1.5,4.9c1.8-0.3,3.2-0.5,4.6-0.8
				C183.4,73.5,183.7,73.9,184,74.3c1.8,1.9,3.6,3.9,5.4,5.8c1.3,1.3,2.9,1.5,4.5,0.6c0.4-0.2,0.7-0.8,0.7-1.2c0-0.3-0.4-0.9-0.8-1
				C190.6,77,187.3,75.6,184,74.3z M132.9,133.3c1.3-1.1,2.9-1.9,3.7-3.3c1.3-2.2,2.2-4.7,3.2-7.2c0.1-0.3-0.3-1.1-0.6-1.2
				c-0.3-0.1-1,0.1-1.3,0.4c-0.7,0.7-1.4,1.5-1.7,2.4C135,127.4,134,130.4,132.9,133.3c-0.1,0.1-0.2,0.1-0.3,0.2
				c-0.1,0-0.1,0.2-0.1,0.3C132.6,133.6,132.8,133.4,132.9,133.3z M149,70.2c-1.1-0.5-2.1-1.1-3.2-1.6c0,0-0.1,0.2-0.2,0.3
				C146.7,69.4,147.9,69.8,149,70.2c1.6,1.8,3.4,3.6,4.8,5.6c1.3,1.7,2.9,1.3,4.5,0.9c0.5-0.1,1-0.9,1.1-1.5
				c0.1-0.5-0.3-1.4-0.7-1.5C155.4,72.5,152.2,71.4,149,70.2z M115.9,32.1c1,0,2-0.1,3,0c3.9,0.4,6.5-1.5,8.8-4.6
				C120.2,26.6,118.6,27.3,115.9,32.1c-0.3,0.4-0.6,0.7-1,1c-1.2-0.2-2.5-0.4-3.7-0.7c0.7-0.8,1.5-1.6,2.2-2.4
				c0.4-0.5,0.7-1,1.3-1.7c-1.7-0.2-3-0.2-4.3-0.6c-1.3-0.3-1.4,0.3-1.5,1.2c-0.1,0.6-0.1,1.6-0.5,1.9c-2.5,1.6,0.6,3.2-0.1,4.7
				c1.6,0.6,3.4,1.9,4.8,1.5c1.9-0.5,3.4-0.3,5.3-0.1c2.4,0.2,5,0,7.4-0.5c1.8-0.4,3.3-0.4,4.8,0.6c1.4,0.9,4.6,1.1,3.9,3
				c-0.8,2.2-2.9-0.3-4.5-0.4c-1.8-0.1-3.6-0.4-5.4-0.5c-2.7,0-2.7,0.1-5.3,1.8c3.1,0.6,6.1,0.8,8.9,1.9c3.2,1.2,5.5,0.1,7.8-1.6
				c3.5-2.6,3.8-4.6,1.4-8.2c-0.4-0.6-0.9-1.3-1.6-2.2c-0.6,0.8-1.1,1.3-1.3,1.9c-0.5,2-1.8,2-3.4,1.4c-0.6-0.2-1.5-0.1-1.9-0.5
				c-2-2.1-3.9-1.2-5.7,0.3c-2.7,2.3-5.6,0.5-8.4,0.5c-0.1,0-0.3-0.9-0.4-1.4C115.3,32.8,115.6,32.5,115.9,32.1z M112.9,63.2
				c2.6-0.4,4.8-3,7.8-1.3c0.2,0.1,0.7-0.2,0.8-0.4c1.5-2.1,2.9-4.2,4.4-6.3c0.1-0.1,0.3-0.1,0.4-0.2c0.1-0.1,0.1-0.2,0.1-0.3
				c-0.2,0.2-0.3,0.3-0.5,0.5c-3.1,1.1-6.2,2-9.2,3.3C114.8,59.4,113.1,60.7,112.9,63.2c-0.2,0-0.3,0.1-0.4,0.2
				c-0.1,0.1,0,0.2-0.1,0.4C112.6,63.6,112.8,63.4,112.9,63.2z M114,93.2c0.6,1.5,1.2,2.9,2,4.3c0.1,0.2,0.9,0.3,1.3,0.1
				c0.2-0.1,0.4-1,0.2-1.2C116.3,95.4,115.1,94.3,114,93.2c-1.1-1.1-2.2-2.3-3.4-3.4c-0.7-0.6-1.5-1.2-2.4-1.5
				c-0.8-0.3-2.2-0.4-2.6,0c-0.5,0.6-0.6,2.1-0.2,2.7c1.8,2.6,3.8,5,5.8,7.4c0.1,0.1,0.6,0.2,0.8,0c0.3-0.2,0.6-0.5,0.5-0.8
				c-0.1-0.8-0.3-1.6-0.6-2.3C110.6,92.7,112.4,93.1,114,93.2z M51.9,16.2c-1.6,0-3.3-0.2-4.6,1.2c-2.5,2.8-5.2,5.2-8.4,7.2
				c-0.3,0.2-0.3,0.7-0.9,1.9c4.2-1.4,7.8-2.5,11.3-3.8c0.8-0.3,1.5-1.4,1.7-2.2C51.5,19.1,51.6,17.6,51.9,16.2
				c0.1-0.1,0.2-0.1,0.3-0.2c0.1-0.1,0-0.2,0.1-0.3C52.2,15.8,52,16,51.9,16.2z M158,18.2c-2.1,0.9-4.3,1.7-6.4,2.8
				c-2,1.1-3.9,2.5-5.7,3.8c-0.3,0.2-0.3,1.3-0.1,1.6c2.9,2.5,7,2.2,8.9-1.1C156.1,23.1,156.9,20.5,158,18.2
				c0.1-0.1,0.2-0.1,0.3-0.2c0.1-0.1,0.1-0.2,0.1-0.3C158.3,17.9,158.1,18,158,18.2z M178.3,164.5c-5,0.1-6.8-1.7-6.7-6.7
				c0-0.8-0.3-1.6-0.5-2.4c-0.8-4-1.6-8.1-2.4-12.1c-1.4-7-1.3-7-7.9-3.5c-3.2,1.7-3.3,1.8-2,5.4c0.9,2.7,1.6,5.2,0.4,8.2
				c-0.9,2.2-0.2,4.7,1.2,6.7c1.5,2.1,3.3,4,4.8,6.2c0.9,1.3,1.4,3,1.8,4.5c0.3,0.9,0,2,0.2,3c0.5,2.3,2.8,3,4.5,1.3
				c0.5-0.5,0.8-1,1.2-1.5c2.5-3.2,4.9-3.9,8.7-2.5c1.1,0.4,2.2,1.2,3.2,1.1c1.2-0.1,2.8-0.8,3.3-1.7c0.4-0.8-0.2-2.8-1-3.3
				c-2.3-1.5-4.3-4.4-7.7-2.7C179,164.6,178.7,164.5,178.3,164.5z M207.1,156.1c-1.8-2.1-3.4-2.1-4.7-1.6c-3.6,1.3-7.2,0.7-10.9,0.9
				c-4.4,0.2-7.8-1.6-9.8-5.5c-2.1-4.1-4.1-8.3-6.2-12.5c-0.3-0.7-1.2-1.8-1.5-1.7c-1,0.3-2,1-2.8,1.7c-0.3,0.2-0.2,0.9-0.2,1.4
				c-0.2,4.5,0.6,8.9,2.2,13.2c0.3,0.8,1,1.7,1.8,2.2c2.3,1.4,4.4,2.9,5.4,5.6c0.5,1.3,1.7,1.9,2.8,1.2c2.3-1.4,4.2,0,6.2,0.6
				c1.5,0.5,2.8,0.8,4.2-0.1c2-1.3,3.5-4,6.6-2.4c0.2,0.1,0.8-0.2,0.8-0.4C202,156,204.4,156.3,207.1,156.1z M148.4,51.8
				c1.4,2.1,2.7,4.1,4.2,6.1c0.6,0.8,1.5,1.6,2.5,0.6c1.6-1.6,3.2-3.3,4.6-5.1c0.8-1,0.2-3.6-0.6-4c-1.2-0.6-2.7,0.3-3.5,1.9
				c-0.1,0.1,0,0.3-0.1,0.5c-0.2,0.5-0.5,0.9-0.8,1.4c-0.6-0.5-1.5-0.9-1.6-1.5c-0.4-1.7-0.5-3.6-0.9-5.3c-0.3-1.8-0.8-3.5-1.1-5.3
				c-0.1-0.5,0.5-1.1,0.8-1.6c0.4,0.4,1,0.7,1.2,1.2c1.1,2.3,0.5,5.2,2.6,7.1c0.8-0.4,1.4-0.7,1.9-1c2.7-1.6,2.7-1.5,3.5,1.4
				c0.2,0.9,0.7,1.8,1.1,2.6c0.6-0.9,0.9-1.7,0.6-2.2c-0.7-1.6-1.7-3.2-2.4-4.8c-0.3-0.6,0.1-1.5,0.2-2.3c0.6,0.2,1.3,0.2,1.7,0.6
				c1,0.8,1.9,1.9,3,2.7c1.3,0.9,2.3,0.3,2.8-1.3c0.7-2.1,0.4-4.1,0-6.2c-1.3-5.9-2.7-6.7-8.1-4.8c-0.5,0.2-1,0.7-2,1.5
				c2.2,0.2,3.6,0.2,5.1,0.5c0.3,0.1,0.8,1.3,0.6,1.5c-1.2,1.3-2.3,2.8-3.8,3.7c-0.5,0.3-1.9-0.9-3-1.2c-0.8-0.2-1.7-0.1-2.5-0.1
				c-3.2,0-6.3,0-9.5-0.1c-3.1,0-3.1,0-4.1,4c2.6-1.4,5.2-2.6,8-1.3c0.5,0.2,1.3,0.5,1.3,0.8c0.4,2.6,0.6,5.3,1.1,7.8
				C151.6,52,149.6,51.3,148.4,51.8z M171.5,91.7c-0.3,0.9-0.4,1.6-0.8,2.1c-0.5,0.6-1.2,0.9-1.8,1.3c-0.1-0.7-0.4-1.5-0.2-2.1
				c0.9-3.3-0.3-5.8-2.5-8.1c-0.9-0.9-1.9-1.9-2.8-2.8c-0.8-0.8-1.1-1.5-0.3-2.6c2.7-3.4,4.9-7.2,8-10c1.9-1.7,1.6-2.8,0.4-3.9
				c-1.3-1.1-3.1-1.7-4.8-2.3c-0.8-0.3-1.7,0.5-1.2,1.5c1.6,3.2-2.5,5.8-0.8,9c0.1,0.2-0.5,0.9-0.9,1.1c-2.8,2-5,5.4-9.3,4.4
				c-1-0.2-2.3,0.3-3.3,0.9c-5,3-9.9,6-15.3,9.3c2.5,0.6,4.5,0.9,6.3,1.6c1.9,0.7,3,0.2,3.9-1.4c0.5-1,1.1-2.1,1.8-3
				c1.2-1.6,2.4-3.2,3.9-4.5c2.4-2.1,6.3-2.2,7.5-0.2c2.5,4.6,6.7,8.2,8.2,13.5c0.8,2.8,1.2,2.8,4.4,1.9c0.6-0.2,1.2-0.3,1.9-0.5
				C172.9,95.2,172.3,93.7,171.5,91.7z M87.6,20.2c-0.1-0.4-0.3-0.8-0.4-1.1c-3.6,2.4-7.4,1.6-11,0.9c-2.5-0.5-4.8-2.1-7.2-3.1
				c-0.4-0.2-1.1,0.3-1.6,0.5c0.2,0.5,0.5,1.4,0.7,1.4c2.7,0,4.2,1.9,5.7,3.6c1.8,2,3.5,4,5.1,6.1c2.3,3,1.5,5.3-2,6.8
				c-4.2,1.9-7.9,4.3-10.7,8.6c5.1,0,9.6,0.4,13.8-2.7c3-2.3,3.4-1.8,3.1-6c0-0.7,0.7-2,0.8-2c2.3,0.5,4.6-1.4,7,0.5
				c2,1.6,4.6,1.8,6.7-0.5c0.5-0.6,1.4-0.8,2-1.2c-1.6-3.4-4.4-2.6-6.5-1.7c-4.3,1.9-7.8-0.5-11.5-1.5c-1.6-0.4-2.1-2.2-1.8-3.7
				c0.2-0.9,1.1-2,1.9-2.5C83.6,21.8,85.6,21.1,87.6,20.2z M164.7,99c0.7-4-1.1-6.5-2.6-9c-0.9-1.4-1.9-1.7-3.2-0.3
				c-0.5,0.6-1.2,1.2-1.9,1.5c-2,1-2.4,2.8-1.8,4.6c1.2,4,2.6,7.9,4.1,11.8c1.3,3.6,4.4,4.8,7.8,5.5c2.5,0.5,3.5-0.8,2.7-3.1
				c-1.6-4.8-4.7-8.3-9.1-10.7c-1.1-0.6-2.2-1.4-3.1-2.3c-0.3-0.3-0.2-1.3,0.1-1.7c0.3-0.3,1.2-0.4,1.6-0.2
				C161,96.2,162.7,97.5,164.7,99z M151.9,95.1c-1.9,3.2-3.5,5.9-5.1,8.6c-1.2,1.9-1.1,3.7,0.2,5.6c2.1,3.2,4.2,6.4,6.4,9.8
				C156.6,111,156.3,103.3,151.9,95.1z M102.9,30.1c3.7,0.1,4.1-0.4,3.4-3.1c-0.3-1.3-0.5-2.6-0.9-3.8c-0.8-2.4-2.5-4.2-4.8-4.4
				c-1.4-0.1-2.3-0.2-3.4-1.1c-1.2-1-6.3,0.1-6.9,1.1c-0.5,0.8,1.1,3.6,2.8,4.9c0.1,0.1,0.3,0.2,0.4,0.3c2.2,1.7,4.4,3.4,6.7,5
				C101.3,29.6,102.5,30,102.9,30.1z M66.2,14.4c-2.6-0.9-5.2-1.6-8.1-0.6c-2.7,1-4.1,2.3-4.3,5.2c-0.1,2.3-0.7,4.5-1,6.8
				c-0.2,1.2-0.3,2.5-0.5,3.7c1.4-0.6,2.9-1,4.2-1.8c0.8-0.5,1.4-1.4,2-2.2C61,22.1,63.5,18.4,66.2,14.4z M174.7,106.6
				c1.7,4.2,2.9,8.5,6.4,11.3c1.5,1.2,3.3,2.1,4.9,3.1c0.9-1.7,1.9-3.3,2.6-5.1c0.8-2.1,0-3.4-1.9-4.9
				C183.1,108.1,178.7,108.4,174.7,106.6z M64.9,24.3c0,0.3,0,1,0.2,1.6c0.3,1.1,0.8,2.2,1.3,3.2c2.7,6.6,4,7.1,10.2,4
				c1.5-0.8,1.5-1.8,0.7-2.8c-1.9-2.5-3.9-4.9-6.1-7.2c-0.8-0.9-2.1-1.6-3.3-1.9C65.6,20.8,64.9,21.6,64.9,24.3z M95.1,59.5
				c4.2,3.8,5.9,8,5,13.4c-0.6,3.7,1,7.2,4.8,9.1c0.5,0.3,1.2,0.3,1.7,0.4c0.1-0.6,0.4-1.5,0.2-1.9c-0.7-1-2.6-1.8-2.4-2.5
				c0.2-1.3,1.8-2.1,1.6-3.8c-0.1-1.6,1-3.7,0.3-4.8C103.7,65.3,101.9,60,95.1,59.5z M120.5,52.2c0.2,0,0.7,0,1.2-0.1
				c2.9-1.1,5.8-2.2,8.7-3.3c0.9-0.3,0.6-1.9-0.4-2.4c-4.6-2.1-9.6-2.1-14.5-3c-0.5-0.1-1.8,1-1.9,1.7
				C113.2,49.7,115.7,52.3,120.5,52.2z M126.5,86.8c1.8,0,2.5,0.1,3.1,0c0.6-0.2,1.3-0.5,1.7-1c0.2-0.2-0.4-1.1-0.8-1.5
				c-1.6-1.7-3.3-3.3-5-4.9c-2.9-2.8-3-2.8-6.4-0.9c-0.7,0.4-1.5,0.6-2.3,0.9c-2.2,0.8-2.2,1.1-1.3,3.2c0.7,1.7,1.9,2.6,3.5,3.3
				C121.9,86.9,124.7,87.8,126.5,86.8z M81,18.2c0.7-0.1,2.1-0.4,3.5-0.6c-0.9-1.3-1.7-2.6-2.6-3.9c-0.4-0.5-0.9-1-1.4-1.4
				C77.1,9.7,73.3,8.2,69,9.6c-2.1,0.7-2.3,1.5-0.9,3.1C71.2,16.5,75.4,18.1,81,18.2z M120.4,102.1c0,0.3,0,0.5,0.1,0.8
				c1.1,0.3,2.5,0.3,3.3,0.9c2.7,2.2,5.7,1.3,8.6,1.3c1.8,0,3.1-1.1,3.9-2.7c0.6-1.1,0.5-1.6-0.7-2.2c-2-1-1.9-1.8,0-2.9
				c2.2-1.2,4.5-2.3,7.4-3.8c-1.6-0.3-2.6-0.2-3.2-0.5c-2.3-1.2-3.5-0.3-4.8,1.6c-2,3-4.8,4.9-8.5,5.6
				C124.4,100.7,122.4,101.5,120.4,102.1z M89.7,48.9c-1.6,1.4-3,2.5-4.3,3.7c-0.5,0.5-1.2,1.7-1.1,1.9c0.6,0.7,2,1,2.3,1.7
				c0.4,0.8-1.2,2.1,0.2,3.1c0.1,0.1,0.3,0.2,0.4,0.3c1.6,0.7,3.1-0.5,3.3-2.5c0-0.4,0.5-1,0.7-1c1.1,0,2.5-0.1,3.4,0.4
				c3.4,2,5.8,0.9,7.7-2.1c0.3-0.5,0.8-1,1.4-1.7c-5.6-1.9-10.3,1.6-15.9,1.7C90,52.9,91.9,51.4,89.7,48.9z M134.4,50.4
				c1.3,2.2,2.2,3.4,2.8,4.7c0.6,1.6,1,3.4,1.3,5.1c0.2,0.9,0.1,1.8,0.2,2.7c0.9-0.3,1.9-0.6,2.8-1c0.6-0.3,1.3-0.7,1.5-1.2
				c1-1.9,2.2-2.5,4.4-1.6c1.1,0.4,2.1-0.7,1.4-1.7c-1-1.5-2.2-3.1-3.7-3.7C142,52.3,138.7,51.6,134.4,50.4z M180,92.1
				c0.2-3.7,0.2-6.8-1.7-9.3c-0.7-0.9-2-1.4-3-2c-0.4,1-1,2.1-1.1,3.1c-0.2,1.8,0,3.7-0.1,5.5c-0.2,2.7,0.9,4.9,2.3,7
				c0.4,0.7,1.5,1,2.3,1.4c0.5-0.8,1.2-1.5,1.4-2.4C180.1,94.1,180,92.8,180,92.1z M156.8,35.9c-2.4-3.4-4.9-5.9-8.9-6.2
				c-2.2-0.1-4.5-0.2-6.7,0c-1.9,0.2-2.4,1.7-0.9,3.1c1.2,1.1,2.6,2,4.1,2.5C148.2,36.8,152.3,35.8,156.8,35.9z M138.8,20.2
				c-0.2-0.4-0.3-0.8-0.5-1.1c-3.9-0.3-7.8-0.6-11.8-0.9c-1.1-0.1-2.7-0.6-3.1-0.1c-1.1,1.2,0.5,1.9,1.2,2.7
				c0.2,0.2,0.5,0.7,0.4,0.9c-1.2,3,0.9,2.6,2.7,2.6c1.1,0,2.4,0,3.4,0.5c1.7,0.9,3,0.2,4.1-0.6C136.5,22.9,137.6,21.5,138.8,20.2z
				 M86.9,46.4c0.1-2.6-0.8-3.4-2.4-3.2c-0.9,0.1-2.1,0.3-2.7,0.9c-2.9,2.7-5.6,5.6-8.4,8.4c-0.2,0.2-0.3,0.8-0.2,0.9
				c0.3,0.3,0.8,0.5,1.2,0.5c1-0.1,2-0.7,2.8-0.6c4.1,0.7,6.4-2,8.6-4.6C86.6,47.9,86.8,46.6,86.9,46.4z M235.2,132.3
				c-0.5-5.7-1.8-10.5-4.6-14.6c-1.6-2.4-4.3-4.3-8.5-2.9c4.3,2.4,5.4,6.4,6.7,10C229.9,128.1,232.1,129.9,235.2,132.3z M86.3,36.7
				c0.2,0.5,0.4,0.9,0.6,1.4c1.9,3.5,3.8,6.9,5.7,10.4c0.5,0.9,0.9,2,2.2,1.2c1.4-1,2.9-5.2,2.4-6.7C96,38.5,91.6,36,86.3,36.7z
				 M196.7,110.1c-0.1,0.3-0.1,0.6-0.2,0.9c0.4,0.3,0.6,0.8,1.1,1c5.3,2.4,10.6,4.3,16.5,4.3c1.1,0,2.3,0.4,3.4,0.4
				c0.4,0,0.8-0.5,1.1-0.8c0.1-0.1-0.1-0.7-0.3-0.8c-0.8-0.5-1.7-1.1-2.6-1.4c-4.2-1.9-8.7-3-13.3-3.4
				C200.5,110.1,198.6,110.1,196.7,110.1z M141,98.2c3-0.5,5.9-0.3,7.4-2.3c2.2-2.9,4.1-5.9,7.6-7.3c0.6-0.2,1-0.9,1.4-1.4
				c0.7-0.7,1.5-1.3,0.8-2.5c-0.7-1.2-1.6-1.5-2.8-1.5c-2.4,0-3.5,1.6-4.6,3.4c-1.3,2.1-2.5,4.4-4.1,6.2
				C145.2,94.7,143.3,96.2,141,98.2z M183.3,133.8c1.7-0.9,3.3-1.6,4.7-2.6c3.3-2.2,4.8-6.1,3.8-9.8c-0.1-0.4-0.6-0.7-1-0.9
				c-0.2-0.1-0.7,0.1-0.8,0.4c-0.3,0.4-0.7,0.8-0.7,1.3c-0.4,2.5-1.8,2.4-3.5,1.5c-0.6-0.3-1.2-0.7-1.8-0.7c-0.5,0-1.3,0.6-1.3,0.8
				C182.8,127.1,183,130.3,183.3,133.8z M198.1,89.5c-0.1-0.9,0-1.5-0.2-1.9c-0.5-0.8-1-1.6-1.8-2c-0.3-0.2-1.2,0.8-1.8,1.3
				c-0.2,0.2-0.4,0.6-0.4,0.9c-1.4,4.5-2.7,9.1-5.4,13c-0.1,0.1,0.8,1.2,0.9,1.2c1.9-1,4-1.8,5.6-3.1c1.6-1.3,2.5-3.1,1.5-5.3
				c-0.2-0.4,0.5-1.1,0.7-1.7C197.4,90.9,197.8,90,198.1,89.5z M162.9,67c0.1-3.2-1.9-5.6-3.3-8.2c-0.1-0.2-1.7,0-1.9,0.3
				c-0.9,1.9-1.6,3.9-2.2,5.9c-1.2,4.2-1.2,4.2,2.8,5.7c0.2,0.1,0.3,0.1,0.5,0.2c2.4,0.9,2.4,0.9,3.3-1.7
				C162.4,68.5,162.6,67.8,162.9,67z M106.7,64.2c-0.1,0.5-0.2,0.7-0.1,0.8c1.2,2.3,4.7,4.1,2,7.5c-0.1,0.2,0.3,0.9,0.6,1.3
				c2.9,4.1,5.7,4.3,10.4,0.8c-2.1-1.8-4.2-3.7-6.3-5.5C111.1,67.4,109.9,64.5,106.7,64.2z M103.7,113.5c5.5-1.6,9.7-3.3,13.7-5.6
				c1.3-0.8,1.9-1.8,0.6-3.2c-1-1.1-3-2.1-0.8-3.9c-0.2-0.2-0.3-0.5-0.5-0.5c-0.6,0.1-1.4,0.1-1.8,0.5
				C111.4,104.8,107.9,108.8,103.7,113.5z M114.4,85.7c-0.7,2.1,0,3.4,1.2,4.8c2,2.4,3.7,5,5.5,7.5c0.2,0.3,0.6,0.7,0.9,0.7
				c2.9,0,4.2-1.6,3-4.4c-0.6-1.4-1.6-2.9-2.8-3.8C119.8,88.7,117.1,87.3,114.4,85.7z M229.2,113.4c-1.3-3.9-2.6-6.2-6.4-6.1
				c-1.4,0-2.8-0.8-4.2-1.2c-1.3-0.3-2.6-0.6-3.9-0.7c-1.3,0-1.7,0.9-0.9,2c1.2,1.6,2.4,3.2,3.8,4.6c0.4,0.4,1.5,0.7,2,0.4
				C222.7,111.1,225.7,111,229.2,113.4z M131.7,123.1c6-2.9,8.8-6.9,9.6-12.3c0.2-1.4,1.3-3.1-0.2-3.9c-0.6-0.3-2.4,1.3-3.4,2.3
				c-0.6,0.5-1.1,1.4-1.1,2.1c-0.3,2.9-2.1,5.1-3.3,7.6C132.7,120,132.4,121.2,131.7,123.1z M86,75.5c0.3,0.3,0.6,0.6,0.9,1
				c2.6-1.1,5.2-2,7.7-3.2c2.2-1.1,3.4-3.2,3.1-5.7c-0.1-0.9-0.6-2.2-1.3-2.5c-0.6-0.3-2,0.3-2.5,1C91.2,69.1,88.6,72.3,86,75.5z
				 M225.3,105.2c2.8,0,3.1-0.4,2.2-3.2c-1.3-3.9-3.1-5.6-5.9-5.7c-1.3,0-2.1,0.4-2.5,1.8C217.8,102,220.5,105.1,225.3,105.2z
				 M202.5,108.8c2-1.4,3.1-2.2,4.4-3c1.4-0.8,3.2-1.2,4.2-2.3c1.3-1.4,2-3.3,2.7-5c0.1-0.3-1.1-1.7-1.3-1.6
				c-2.2,0.9-4.5,1.9-6.6,3.2c-1.3,0.8-1.9,2.1-1.9,3.8C204.1,105.1,203.3,106.4,202.5,108.8z M180.5,48.4c-0.9,0-1.7,0-2.5-0.1
				c-3.7-0.7-7.4,1.7-11.2,0c-0.3-0.1-1,0.2-1.3,0.5c-0.8,0.9-0.3,3.5,0.9,5.1c1,1.4,2.4,0.7,3.1,0.2c2-1.7,4.4-1.9,6.8-2.5
				C177.9,51.1,179.9,50.8,180.5,48.4z M103.1,11.7c0-0.1,0-0.2,0-0.3c-0.3,0-0.7,0-1,0c-1.5-0.1-2.7,0.2-2.9,1.9
				c-0.2,1.6,0.8,2.3,2.2,2.8c3.3,1.3,8.6,0,10.8-2.8c0.3-0.4,0.6-1.2,0.4-1.3c-0.4-0.4-1.1-0.7-1.6-0.7
				C108.3,11.3,105.7,11.5,103.1,11.7z M115.3,20.8c2.6-0.3,4.3-0.8,5.1-3.3c0.8-2.3,3-2.8,5.4-2.3c3.8,0.7,4.6,0.1,5.3-3.6
				c0.1-0.6-0.1-1.5-0.5-2c-0.2-0.2-1.2,0-1.7,0.3c-2.7,1.6-5.2,3.7-8,4.7C117.6,15.7,116.5,17.9,115.3,20.8z M111.8,49.4
				c0,0.1,0.2-1,0-1.9c-0.5-1.8-1.9-3.2-0.1-5.2c1-1-0.4-2.6-1.6-3.2c-1.1-0.5-2.8-0.8-3.6-0.2c-0.8,0.6-1.5,2.4-1.2,3.4
				c0.4,1.5,1.4,3,2.5,4.1C109.1,47.7,110.7,48.6,111.8,49.4z M112.9,53.6c-2.2,0.3-4,0.2-5.6,0.8c-1.8,0.7-3.4,1.9-5,3
				c-1.3,0.9-0.8,1.9,0.2,2.8c1,0.9,1.9,0.9,3.1,0.7C109.7,60.2,111.1,57.1,112.9,53.6z M212.2,87.4c-3.9-2.6-8.4-2.2-11.2-5.4
				c-0.3-0.3-1.5,0.1-2.2,0.5c-0.2,0.1,0,1.1,0.2,1.7c1.7,4,5.3,5.8,9.5,4.7C209.6,88.6,210.7,88,212.2,87.4z M143.4,79
				c-3-2.5-5.3-5.9-9.5-5.7c-0.9,0-1.8,0.5-2.7,0.8c0.4,1,0.5,2.3,1.2,3c0.9,0.9,2.2,1.8,3.4,1.9C138.3,79.2,140.9,79,143.4,79z
				 M191.9,85.4c-2.6-2.6-5-4.9-7.4-7.1c-0.8-0.8-1.8-1.4-2.8-1.9c-0.3-0.2-0.9,0.2-1.3,0.4c-0.2,0.1-0.2,0.7-0.1,0.9
				c2.4,3.2,4.7,6.4,7.1,9.5c0.9,1.2,1.9,1,2.8-0.3C190.7,86.4,191.3,86,191.9,85.4z M126.8,67.7c2.8-1.7,5.4-3.3,8-5
				c0.5-0.3,0.6-1.1,0.8-1.7c-0.7,0-1.4-0.1-2.1-0.1c-1.6,0.1-3.3,0.3-4.9,0.3c-1.6,0-3,0.2-3.6,1.9c-0.3,0.8-1.3,1.9-1.1,2.2
				C124.5,66.3,125.5,66.8,126.8,67.7z M122.6,126.2c4.3,0,9.1-4.9,9.1-9.1c0-0.4-0.5-0.9-0.8-1.1c-0.2-0.1-0.8,0.3-1,0.5
				c-2.3,3-4.6,6-8.7,6.8c-0.7,0.1-1.3,0.7-1.9,1c0.6,0.5,1.2,1.1,1.8,1.5C121.6,126.1,122.3,126.1,122.6,126.2z M135.4,48
				c3,0.9,4.9,1.6,6.8,2c0.9,0.2,2,1.6,3-0.1c0.9-1.5,2.6-2.7,1.3-4.9c-0.8-1.3-1.6-2.2-3.2-1.4C140.9,44.9,138.6,46.2,135.4,48z
				 M100.1,90.2c1.7-2.5,2.6-4.9,1.4-6.3c-2.4-2.7-2.8-6.1-4.1-9.3c-2.7,1.9-2.9,2.1-2.2,3.8C96.7,82.2,98.3,85.9,100.1,90.2z
				 M150.7,76.4c-0.1-0.5-0.1-0.8-0.3-1.1c-3.3-3.8-8.4-4.1-12.4-6.5c-0.2-0.2-1.1,0.6-1.6,1c0.3,0.5,0.5,1.1,0.9,1.4
				c2.8,1.7,5.7,3.4,8.6,4.9c1.1,0.6,2.5,0.7,3.8,0.9C150,77.1,150.4,76.7,150.7,76.4z M100.6,42.8c2.6-1.8,3.1-4.9,4.6-7.4
				c0.3-0.4,0.1-1.2,0.2-1.8c-0.6,0.1-1.2,0-1.8,0.2C96.9,36.2,94.6,35.2,100.6,42.8z M93.8,27.3c-1.7-1.5-3.2-3-4.8-4.4
				c-0.4-0.3-1.3-0.5-1.8-0.3c-1.5,0.6-3,1.4-4.4,2.2c-1,0.6-0.8,1.8,0.4,2.2C86.6,28.2,90,29.5,93.8,27.3z M267.7,109.6
				c-4.4,2.1-7,5.8-10.3,9.3C264.5,119,268,115.8,267.7,109.6z M239.4,118.8c2,3.1,4.7,3.1,7.2,1.9c2.5-1.1,4.1-3.3,4.3-6.2
				c0-0.3-0.2-0.8-0.4-0.8c-0.4-0.1-1.1-0.1-1.3,0.1C246.6,116.7,242.9,117.1,239.4,118.8z M142.2,125.8c4-3.9,3.9-8.6,3.7-13.5
				c0-0.5-0.7-1-1.1-1.5c-0.4,0.4-1,0.7-1.2,1.2C142.1,116.5,141.5,121,142.2,125.8z M117.7,64.3c-1.8,0.1-3.7,2-3.1,2.8
				c1.6,2.1,3.5,4.1,6.2,4.6c0.9,0.2,2-0.8,3-1.3c-0.4-0.7-0.6-1.5-1.1-2.1c-1-1.1-2-2.2-3.2-3.1C118.9,64.8,118.1,64.5,117.7,64.3z
				 M97,50.1c3.6,0,6.4,0.1,9.2-0.1c1.2-0.1,1.4,2.1,2.5,0.9c0.2-0.3-0.9-2-1.6-2.8c-4.4-4.4-4.4-4.4-8.8,0.3
				C98,48.8,97.7,49.2,97,50.1z M192.5,111.4c-0.7,7.8,1.3,9,9.4,5.8C198.7,115.3,195.8,113.5,192.5,111.4z M197.7,106.9
				c-3.5-0.7-6.5-1.1-9.3-2c-3-0.9-5.9-0.7-8.8,0.1c1.6,0.8,3.6,0.9,5,1.7C189,109.4,193.1,108.3,197.7,106.9z M141.6,82.5
				c-2.2-0.4-4.3-0.7-6.4-1.2c-1.1-0.3-2.1-0.9-3.1-1.3c-1.4-0.5-1.5-3.2-3.8-2.1c0.9,1.3,1.8,2.6,2.8,3.8c0.7,0.9,1.6,1.7,2.6,2.3
				C137.3,86.5,138,86.4,141.6,82.5z M224.1,126.7c1.5-1.8,1.2-3.9,0.5-5.9c-0.6-1.6-1.7-2.7-3.8-1.9c-1.3,0.5-2.8,0.5-4.7,0.7
				C218.9,122.1,221.4,124.4,224.1,126.7z M195.1,120.9c-0.2,0.4-0.4,0.8-0.5,1.3c-0.2,1.6-0.4,3.2-0.4,4.8c0,0.7,0.4,1.8,0.9,2
				c1.3,0.5,3.2,1.4,4.1,0.8c1.7-1,0.1-2.6-0.3-3.9c-0.4-1.2-1-2.4-1.7-3.6C197,121.8,196.2,121.6,195.1,120.9z M192.9,52.5
				c-5-0.3-8.6,1.9-12.6,4.4c1.1,0.3,1.9,0.3,2.3,0.7c1.8,1.9,3.2,1.5,4.9-0.3C188.9,55.7,190.7,54.4,192.9,52.5z M199.4,97
				c0.5,0.9,0.9,2.5,1.8,3c1.5,0.8,2.2-0.8,2.9-2c0.1-0.1,0.2-0.3,0.3-0.4c1.2-2.1-0.5-3.4-1.5-4.8c-0.4-0.6-1.3-0.8-2-1.2
				c-0.3,1.2-0.6,2.5-1,3.7C199.8,95.7,199.7,96.2,199.4,97z M131.5,50.3c-1.5,3.2-2.7,5.8-4.1,8.9c2.5-0.5,4.8-0.9,7.6-1.4
				C133.9,55.2,132.8,53,131.5,50.3z M118.4,120.2c5.3-5,6.2-9.6,3-13.1C120.4,111.3,119.5,115.6,118.4,120.2z M188.5,66.6
				c3.7,4.3,6.2,4.5,9.8,0.6c0.3-0.3,0.5-1,0.3-1.3c-0.2-0.3-0.9-0.5-1.3-0.5C194.4,65.7,191.5,66.2,188.5,66.6z M189.2,139
				c2.7-1.4,5.2-4.3,5.4-6.4c0-0.3-1.2-1.3-1.5-1.2c-1.6,0.8-3.6,1.5-4.4,2.9C188.1,135.4,189,137.4,189.2,139z M109,25
				c1.9-2.5,3.1-4.1,4.3-5.8c0.2-0.4,0.4-1.3,0.2-1.3c-0.5-0.3-1.2-0.5-1.8-0.4c-1,0.1-1.9,0.5-2.8,0.8c-1.5,0.5-2.2,1.4-1.5,3
				C107.8,22.1,108.2,23,109,25z M181.9,65.2c1.4,4.1,2.9,7,6.6,8.2c0.4,0.1,1.1,0.3,1.2,0.1c0.3-0.3,0.4-1,0.3-1.4
				c-0.5-1-0.9-2.1-1.7-2.7C186.4,68,184.4,66.9,181.9,65.2z M230.7,132.4c0.2,1.9,0.1,3.6,0.7,4.8c0.6,1.2,2,1.9,3,2.8
				c0.5-1.2,1.2-2.3,1.6-3.5c0.3-1-0.2-1.8-1.4-2.2C233.4,133.9,232.3,133.2,230.7,132.4z M94.5,62.7c-2.5-0.2-3.9-1.8-5.2-0.2
				c-1.2,1.5-2.2,3.2-3.1,4.9c-0.1,0.2,0.3,1,0.7,1.2c0.3,0.2,1,0.1,1.2-0.1C90,66.8,91.8,65.1,94.5,62.7z M118.1,110.3
				c-2.7,1.3-4.7,2.3-6.8,3.4c2.2,1.2,2.4,4.1,5.1,4.3C116.9,115.7,117.4,113.5,118.1,110.3z M41.7,18c1.9,0.3,4.9-2.4,5-4.4
				c0.1-0.7-0.5-1.4-0.7-2.2c-0.6,0.3-1.2,0.5-1.7,0.8c-1.1,0.8-2.1,1.5-3.1,2.4c-0.4,0.4-0.8,1.1-0.7,1.6
				C40.8,17,41.4,17.6,41.7,18z M238,131.7c2.2-2.8,2.4-5,1.9-7.1c-0.2-0.8-1.1-1.4-1.7-2.1c-0.7,0.8-2,1.7-1.9,2.4
				C236.5,126.9,237.2,128.9,238,131.7z M182.4,85c0,2.4-0.1,4.8,0.1,7.2c0,0.4,1,1,1.4,0.9c1.1-0.2,2.1-0.7,3-1.3
				c0.3-0.2,0.4-1.2,0.2-1.5C185.5,88.5,183.9,86.7,182.4,85z M249.3,102.9c0.2,1.4,0.1,2,0.3,2.5c1.2,2.4,2.4,4.9,3.7,7.2
				c0.2,0.5,0.7,0.8,1.1,1.2c0.2-0.6,0.7-1.3,0.5-1.8C254.1,108.7,252.6,105.7,249.3,102.9z M112.3,24.5c2.9,1.8,5.7,1.8,8.5,0.5
				c0.4-0.2,0.9-0.8,0.8-1c-0.2-0.5-0.8-1.5-1.1-1.4C117.9,23.4,114.8,22.3,112.3,24.5z M132.3,15.7c6.8,1,6.9,1,7.1-4.1
				C136.9,12.4,134.3,12.9,132.3,15.7z M59.8,34.2c4.4-2.3,4.4-2.3,2.5-9.8C59.7,27.3,61.7,30.9,59.8,34.2z M159.3,123
				c2.4-2.9,1.4-6,1.3-8.9c0-0.7-0.8-1.4-1.4-1.9c-0.3-0.2-1-0.4-1.2-0.2c-0.3,0.2-0.6,1-0.4,1.2C159.7,116,158.6,119.5,159.3,123z
				 M233.2,109c0.2,2.5,1.4,4.4,3.3,5.7c0.2,0.2,1.3-0.3,1.4-0.6C238.7,111.1,237.7,110,233.2,109z M140.1,24.8
				c-4,1.7-7.2,3-10.4,4.3c-0.1,0.1-0.2,0.3-0.3,0.4c-0.1,0.3-0.2,0.7-0.1,0.9c0.1,0.2,0.6,0.5,0.8,0.4
				C133.2,29,137.4,29.3,140.1,24.8z M30.7,16.3c1.3-1.2,2.6-2.2,3.5-3.3c0.4-0.5,0.4-1.7,0.1-2.2c-0.3-0.4-1.5-0.5-2.1-0.2
				C30,11.7,29.5,13.6,30.7,16.3z M86,83.4c2.1-1.3,3.6-2,4.7-3.1c0.5-0.5,0.4-1.7,0.5-2.6c-0.7,0.1-1.5,0.3-2.2,0.4
				C86.6,78.6,86.2,80.4,86,83.4z M133.6,92c-0.3-0.2-0.6-0.6-1-0.6c-1.8-0.1-4.4,2.5-4.5,4.4c0,0.3,0.5,0.9,0.8,0.9
				C130.5,96.5,133.6,93.5,133.6,92z M179.1,161.6c-1.4-1.7-2.6-3.1-3.9-4.5c0,0-0.8,0.3-0.9,0.6c-0.6,2.3,0.8,4.5,3,4.6
				C177.7,162.3,178.1,162,179.1,161.6z M251.8,122.8c0,0.1,0,0.2,0,0.3c3.3,0,6.6,0,9.9,0c0.4,0,0.8-0.4,1.2-0.7
				c-0.5-0.3-0.9-1-1.4-1C258.2,121.8,255,122.3,251.8,122.8z M83.2,10.6c0.4,0.6,0.5,0.9,0.7,1.1c1,1.5,2,3.1,4.1,3.1
				c0.2,0,0.6-0.5,0.5-0.6c-0.9-1.7-1.9-3.5-4.1-3.8C84.2,10.3,83.9,10.5,83.2,10.6z M150.7,67.3c-0.8-1.8-1.3-3-2-4.2
				c-0.3-0.4-1.1-0.9-1.5-0.8c-0.5,0.1-1,0.8-1.1,1.4c-0.2,1-0.1,2,1.2,2.4C148.3,66.4,149.2,66.8,150.7,67.3z M94.5,12.1
				c-1.3,0.1-1.8,0-2.3,0.2c-0.4,0.1-1,0.5-1,0.8c0,0.4,0.4,0.8,0.7,1.1c0.4,0.3,1,0.7,1.3,0.6c1.1-0.4,2.1-1,3.2-1.5
				C95.7,12.8,94.8,12.3,94.5,12.1z M123.1,119.4c2.3-0.8,3.4-2,3.7-3.7c0.1-0.6-0.3-1.2-0.5-1.8c-0.6,0.4-1.4,0.6-1.6,1.2
				C124.1,116.3,123.8,117.6,123.1,119.4z M133.5,68.6c-0.3-0.3-0.6-0.8-0.7-0.7c-1.5,0.6-3,1.3-4.4,2c0,0,0.2,1,0.5,1.1
				c1.7,0.6,4-0.5,4.6-2C133.6,68.8,133.5,68.6,133.5,68.6z M193.5,102.9c2.1,1.5,3.8,0.9,5.1-0.5c0.3-0.3-0.5-1.7-0.8-2.6
				C196.3,100.9,195,101.8,193.5,102.9z M111.4,87.6c0.5-2.1,0.5-3.2,0.9-4c1.1-2.2-0.8-2.4-1.9-3.1c-0.1-0.1-0.8,0.5-0.8,0.6
				C110,82.9,110.6,84.7,111.4,87.6z M194.5,166.8c-0.9,1.1-1.6,1.9-2.3,2.6c0.5,0.4,1.4,1.4,1.5,1.3c0.8-0.6,1.5-1.4,2-2.3
				C195.9,168.3,195.2,167.7,194.5,166.8z M149.7,61.1c1.5,2.1,2.5,3.4,3.9,5.3C153.6,62.2,153.6,62.2,149.7,61.1z M143.9,64.5
				c-0.5-0.4-0.8-0.9-1.1-0.8c-0.8,0.2-1.6,0.4-2.2,0.9c-0.5,0.4-0.6,1.1-0.9,1.7c0.7,0.1,1.6,0.6,2.1,0.4
				C142.6,66.2,143.1,65.3,143.9,64.5z M106.6,100.7c-0.5,0.8-1.1,1.5-1,1.7c0.6,0.9,1.3,1.6,2.1,2.4c0.4-0.7,1.2-1.5,1.1-2
				C108.5,102.1,107.6,101.6,106.6,100.7z M173.2,128.9c-0.4,0-0.7,0-1.1,0c0.1,1.2,0.1,2.5,0.2,3.7c0,0.2,0.9,0.6,1.1,0.5
				c0.4-0.2,0.8-0.8,0.7-1.2C174,130.9,173.6,129.9,173.2,128.9z M178.4,78.2c-1.2-0.9-1.7-1.6-2.4-1.7c-0.5-0.1-1.1,0.4-1.7,0.6
				c0.5,0.5,1,1.2,1.6,1.5C176.3,78.8,177,78.4,178.4,78.2z M114.6,57.5c1.2-1,2-1.6,2.7-2.3c-0.2-0.2-0.4-0.5-0.6-0.6
				c-1.3-0.6-1.7,0.4-2.1,1.2C114.5,56.2,114.6,56.6,114.6,57.5z M129.2,90c-1-0.3-1.6-0.7-2-0.5c-0.4,0.1-0.9,1-0.8,1.2
				c0.2,0.4,0.9,1,1.3,0.9C128.1,91.5,128.4,90.8,129.2,90z M205.5,82.6c0.4-0.4,0.8-0.8,1.2-1.1c-1-0.9-2.1-1.8-3.1-2.8
				c-0.3,0.3-0.5,0.6-0.8,0.9C203.7,80.6,204.6,81.6,205.5,82.6z M195.4,163.6c0.1,0.2,0.3,0.5,0.4,0.7c1-0.6,2-1.2,3.1-1.8
				c-0.2-0.3-0.3-0.5-0.5-0.8C197.4,162.3,196.4,163,195.4,163.6z M208.3,92.9c-0.6-0.5-1-0.9-1.4-1.2c-0.2,0.4-0.7,0.7-0.7,1.1
				c0,0.4,0.4,0.9,0.8,1C207.1,93.9,207.6,93.4,208.3,92.9z M125.8,75.4c0.7-0.6,1.3-1,1.6-1.5c0.1-0.2-0.4-0.7-0.6-1.1
				c-0.5,0.4-1.1,0.6-1.4,1.1C125.2,74.1,125.5,74.7,125.8,75.4z M209.9,107.1c-0.5,0.6-0.9,1.1-1.3,1.5c0.5,0.2,1.1,0.5,1.6,0.5
				c0.4,0,0.8-0.5,1.2-0.7C211,108,210.6,107.6,209.9,107.1z M48.9,11.3c0.4,0.2,0.7,0.5,1,0.7c0.1,0,0.2-0.2,0.4-0.3
				c-0.3-0.3-0.5-0.7-0.8-1C49.4,10.9,49.2,11,48.9,11.3z M128.2,108.7c-0.1,0.6-0.1,1-0.1,1.5c0,0,0.6,0.1,0.6,0.1
				c0.1-0.3,0.2-0.6,0.1-0.9C128.8,109.2,128.5,109,128.2,108.7z M190.5,166.8c0.2,0.1,0.5,0.3,0.7,0.3c0.1,0,0.2-0.2,0.3-0.3
				c-0.2-0.1-0.5-0.3-0.7-0.3C190.7,166.5,190.6,166.7,190.5,166.8z M174.5,71.6c-0.1,0.1-0.3,0.2-0.3,0.3c0,0.3,0.2,0.5,0.2,0.8
				c0.1-0.1,0.3-0.2,0.3-0.3C174.7,72.1,174.6,71.9,174.5,71.6z M205.7,159.8l-0.2-0.2l0,0.2L205.7,159.8z M194.7,72.8l-0.2-0.2
				l0,0.3L194.7,72.8z"/>
			<path d="M12.4,9c-0.6,0.5-1.2,0.9-1.9,1.4c-2.8,1.9-2.8,1.8-4.3-2.1c2,0,3.9,0,5.8,0C12.2,8.5,12.3,8.7,12.4,9z"/>
		</g>
	</g>
</g>
</svg>
