<?xml version="1.0" encoding="utf-8"?>
<!-- Generator: Adobe Illustrator 18.0.0, SVG Export Plug-In . SVG Version: 6.00 Build 0)  -->
<!DOCTYPE svg PUBLIC "-//W3C//DTD SVG 1.1//EN" "http://www.w3.org/Graphics/SVG/1.1/DTD/svg11.dtd">
<svg version="1.1" id="Layer_1" xmlns="http://www.w3.org/2000/svg" xmlns:xlink="http://www.w3.org/1999/xlink" x="0px" y="0px"
	 viewBox="0 0 505.4 570.5" enable-background="new 0 0 505.4 570.5" xml:space="preserve">
<path d="M134.9,33c-3.5,0.9-6.6,2.3-8,6.2c-0.4,1.2-1.8,2.3-3,3.1c-3.5,2.5-5,1.6-6.5-2.4c-1.7-4.7-1.8-9.7-2.8-14.6
	c-0.2-1.1,0.2-2.3-0.1-3.6c-0.7,1.2-1.3,2.5-2.1,3.7c-0.6,0.9-1.1,2.2-1.9,2.7c-2.5,1.4-2.7,3.6-2.9,6.2c-0.3,4.6,0.7,9.3-0.9,13.8
	c-0.2,0.5-0.3,0.9-0.4,1.4c-0.7,2.1-1.1,4.8-3.9,4.8c-2.2,0-3.7-2-4.4-4c-0.9-2.4-1.4-4.9-1.9-7.4c-0.3-1.5,0.5-3.3-1.2-4.4
	c-1.7,1.7-3.2,3.5-5,5.1c-1.6,1.5-2,1.4-3.1-0.8c-0.4-0.9-0.7-1.8-1.4-3.4c-0.5,1.2-0.9,1.8-1,2.4c0,2.8-1.5,4.8-3.4,6.7
	c-2.5,2.4-2.5,2.4-5.3-0.8c-1.3,2.5-2.5,4.9-3.8,7.3c-0.4,0.7-1.3,1.2-1.9,1.7c-0.4-0.8-0.9-1.6-1.1-2.5c-0.2-0.8,0.1-1.6-0.1-2.4
	c-0.4-1.8-1-3.7-1.6-5.5c-0.5-1.5-1.5-1.9-3.1-1.3c-1.4,0.5-3,0.7-4.5,1.1c-0.3-1.5-0.6-3.1-0.9-4.6c0-0.1-0.2-0.2-0.4-0.6
	c-1.8,0.3-2.7,3.1-5.3,2.3c-0.8-0.2-1.8,4.5-1.2,6.2c0.9,2.6,1.9,5.1,2.8,7.7c0.3,0.9,0.8,2,0.5,2.8c-1.2,3.1,0.5,5.4,1.4,8.1
	c1.3,3.9,2.5,8-0.4,11.9c-1,1.4-1.9,3-1,4.9c0.3,0.6-0.2,1.5-0.3,2.3c-0.2,2.6-0.9,5.2-0.3,7.6c0.8,3.6,1.2,6.9-0.7,10.3
	c-0.4,0.7-0.1,1.9,0.1,2.7c0.4,1.5,0.8,3.1,1.5,4.5c0.5,1.1,1.4,2.2,2.4,2.9c1.1,0.9,2.6,1.3,3.9,2c2.7,1.5,2.8,1.6,0.7,4.2
	c-0.9,1.2-0.8,1.8,0.1,2.8c0.9,1.1,1.7,2.3,2.6,3.5c1.4,1.9,1.3,2.8-1,3.4c-2,0.5-4.1,0.8-6.2,0.8c-1.4,0-2.5-0.1-4,0.5
	c-1.5,0.6-3.7-0.3-5.4-0.9c-4.1-1.5-4.1-1.6-5.1,2.9c-0.2,0.8-0.4,1.6-0.7,2.3c-0.3,1-0.7,1.9-1.1,2.8c-0.9-0.7-2-1.1-2.6-2
	c-2.6-3.9-5.5-7.6-6.1-12.4c-0.2-1.8-0.3-3.3-2.8-2.4c-1.3,0.5-1.9-0.5-2-1.5c0-2.2,0.1-4.5,0.4-6.7c0.3-2.2,1.2-4.3-0.8-6.3
	c-0.6-0.6-0.5-2.5,0-3.5c1.2-2.8,2.8-5.5,4.2-8.2c1.5-2.8,3.2-5.6,4.3-8.5c0.4-1.2-0.4-2.9-0.8-4.6c-1.9,1.1-3.2,1.9-4.7,2.6
	c-0.6,0.3-1.7,0.3-2.2-0.1c-0.4-0.4-0.4-1.5-0.2-2.1c1-2.5,2.2-5,3.3-7.5c1.3-3.1,2.7-6.2,4.3-10c-1.9,1-3.1,1.8-4.5,2.5
	c-1.2,0.5-2.4,1-3.6,1.2c-0.8,0.1-1.9-0.3-2.5-0.9c-0.3-0.3,0-1.6,0.5-2.1c4-4.9,3.7-10.4,2.1-16c-0.6-2-1.1-2.1-2.9-0.7
	C24,51,23,53.1,21.3,52c-0.8-0.5-1-2.6-0.8-4c0.3-3.2,1-6.3,1.5-9.5c0.1-0.8,0-2.2-0.5-2.5c-3-1.6-2.2-3.9-1-6.3
	c-3.2,0.2-6,0.3-9.4,0.5c1,1.4,1.9,2.6,2.7,3.9c0.8,1.3,1.4,1.7,2.2,0c0.2-0.4,0.7-0.7,1.1-0.9c0.2-0.1,0.6,0,0.9,0.1
	c0.2,0.2,0.3,0.5,0.4,0.8c0,0.1,0,0.3-0.1,0.4c-0.8,1.3-1.7,2.7-2.5,4c-1.1-1.1-2.2-2.1-3.3-3.2c-1.7-1.7-3.3-3.5-5-5.3
	c-0.7-0.8-1.5-1.1-2.6-0.5c-1.4,0.8-2.2-0.1-2.6-1.2C0,22.4-1,16.3,1.3,10c1.2-3.4,4.3-4.8,7.2-5.9C10.8,3.2,12.4,2,13.6,0
	c1,0,1.9,0,2.9,0c-1.8,2.8-4,4.9-7.3,5.9C8.4,6.2,7.5,6.8,7.1,7.6c-0.3,0.5,0,1.7,0.5,2.1c1.3,1.1,0.9-0.6,1.3-0.9
	c0.8-0.7,1.7-1.4,2.7-1.9c3.4-1.5,6.9-2.4,10.7-2.2c2.5,0.1,2.8-0.6,2.2-3.3c-0.1-0.5-0.1-1-0.2-1.4c1.6,0,3.2,0,4.8,0
	c-1,1.9-1.5,3.7,0.2,5.6c1.7,1.9,3.2,0,4.8,0.2c0.3,0,0.7,0,0.9-0.2C36,4.8,37.1,4,37.7,3c0.4-0.8,0.1-2,0.2-3c1.6,0,3.2,0,4.9,0
	c-1.8,2.4-3.6,4.8-5.5,7.4c1.3,0.6,2.7,1.8,3.6,1.4c1.5-0.5,3-1.6,3-3.8c0-1.7,0.6-3.4,0.9-5.1c1,0,1.9,0,2.9,0
	c-2.1,6.1-3,11.9-2.1,15.1c5.8-3.5,9.5-8,8.9-15.1c1,0,1.9,0,2.9,0c-0.5,2.3-1,4.6-1.5,6.9C55.3,9.2,55.9,10,58,9.5
	c2.1-0.5,4.4-0.7,4.3-3.9c-0.1-1.9,0.5-3.7,0.8-5.6c1,0,1.9,0,2.9,0c-0.6,2.3-1.4,4.5-1.8,6.8c-0.3,1.6,1,3.1,2,2.5
	c1.6-0.9,3.4-1.9,4.4-3.4c1.2-1.7,2.9-3.6,1.2-6c1.3,0,2.6,0,3.9,0c-0.3,1.5-2.9,3.2,0.4,4.3c-0.2,0.4-0.3,0.9-0.6,1.2
	c-0.6,0.5-1.3,1-1.9,1.4c-4.4,3-8.7,6-13.1,9c-1,0.7-1.6,1.7-1.1,2.9c0.5,1.1,0.9,2.3,2.5,2.6c6.5,1,17.4-4.9,15.6-12.9
	c-0.2-0.8-0.1-1.6,0-2.4c0.2-1.3-0.9-2.9,0.9-3.8c0.5,1.2,1.2,2.5,1.5,3.8c0.2,0.9,0,1.8-0.1,2.8c-0.1,1.4-0.3,2.8-0.5,4.7
	c2.5-1.2,4.5-2.2,6.5-3.1C84,6.9,81.7,3.9,81.5,0c1,0,1.9,0,2.9,0c-0.5,4.4,1.4,7.8,5,9.2c2.3,0.9,3.1,0.5,3.9-1.8
	C94.1,5,94.9,2.6,94.1,0c1.3,0,2.6,0,3.9,0c-0.6,1.7-2.3,3.1-1.5,5.7c1.8-1.9,4.1-3,4.5-5.7c1.9,0,3.9,0,5.8,0
	c1.2,1.3,2.4,2.7,4.3,4.7c-0.2-2.3-0.3-3.5-0.4-4.7c1,0,1.9,0,2.9,0c-1.7,7.5,1.8,12.7,7.3,17.2c2.2-1.6,3.2-3.6,3.5-6.1
	c0.2-1.3,0.7-2.5-0.2-3.6c-1.8-2.2-3.5-4.5-6.4-5.6c-1.1-0.4-2.1-1.3-3.2-1.9c2.3,0,4.5,0,6.8,0c0,0.5-0.1,1,0.1,1.4
	c0.1,0.3,0.4,0.6,0.7,0.9c0.2-0.3,0.7-0.7,0.7-1c0-0.4-0.3-0.9-0.5-1.3c0.6,0,1.3,0,1.9,0c0.3,0.7,0.6,0.8,1,0c2.3,0,4.5,0,6.8,0
	c-0.6,0.7-1,1.6-1.8,2.2c-3.1,2.6-3.4,6-3,9.6c0.2,2.5,1.9,3.3,4,2c4.6-2.9,6.8-7.4,8-12.5c0.1-0.4-0.3-0.9-0.5-1.3
	c3.6,0,7.1,0,10.7,0c-2.1,3.2-4.2,6.4-6.2,9.6c-0.7,1.2-1.2,2.6-1.5,4c-0.2,1,0.2,1.9,1.6,1.4c4.3-1.4,7.5-3.7,9.4-8.1
	c1.1-2.5,0-4.7,0.4-7c1.3,0,2.6,0,3.9,0c-1.7,3.3-1.3,6.4,1.1,9.3c1.5,1.8,2.6,1.7,4.5,0.2c3.3-2.8,3-6.2-0.7-9.4c2.6,0,5.2,0,7.8,0
	c-0.9,1.7-0.3,3.2,1,4.1c0.5,0.4,2.1-0.2,2.9-0.8c1.4-0.9,2.6-2.2,3.8-3.3c2.3,0,4.5,0,6.8,0c0.7,1.2,1.3,2.5,2.2,3.5
	c1.5,1.6,2.5,1.5,3.7-0.4c0.5-0.9,0.6-2.1,0.9-3.1c1.3,0,2.6,0,3.9,0c-0.3,2.2,0.5,4.1,1.6,6c1.1,1.9,2.2,3.9,3.4,5.8
	c1,1.7,2.1,1.7,3.1-0.1c0.3-0.5,0.4-1.2,0.6-1.8c1.5-3.3,0.6-6.6,0-9.9c1,0,1.9,0,2.9,0c0.4,3.3,3.4,5.5,3.7,8.9
	c0,0.1,1.1,0.2,1.2,0c1.1-1.9,3.6-3.4,1.9-6.3c-0.5-0.8-0.7-1.8-1-2.7c0.6,0,1.3,0,1.9,0c0.1,0.5,0.1,1,0.3,1.4
	c0.8,1.4,1.5,1.4,2.3,0c0.2-0.4,0.2-0.9,0.3-1.4c0.6,0,1.3,0,1.9,0c-1.7,5.6-2.2,11.2-0.3,16.9c0.5,1.3,0.8,2.7,1.4,4
	c0.5,0.9,1.5,1.5,2.2,0.3c3.4-5.6,7.3-11.1,5.4-18.3C227.8,2,228,1,228,0c0.6,0,1.3,0,1.9,0c0,1.9,0.1,3.7,1.8,5.2
	c1.5,1.3,2.6,3.1,3.9,4.6c0.4-0.5,1-1.4,1.7-2c1.5-1.4,1.3-2.5,0-4c-0.8-0.9-1-2.5-1.5-3.8c0.6,0,1.3,0,1.9,0
	c1.5,3.3,1.6,3.2,5.3,3.2c2.3-0.1,2.2-1.7,2.5-3.2c1.6,0,3.2,0,4.8,0c-1.6,5-1.4,10,0,15c0.4,1.4,1.2,2.7,1.9,4.1
	c1.3-1.1,2.7-2.1,3.7-3.5c0.9-1.2,1.4-2.8,2-4.3c1.6-3.7,0.9-7.6,1-11.3c0.6,0,1.3,0,1.9,0c0.1,0.3,0,0.8,0.2,0.9
	c1.4,0.9-1.2,2.9,1,3.6c0.3-1.3,0.5-2.7,0.8-4c0-0.2,0-0.3,0-0.5c0.6,0,1.3,0,1.9,0c0,2.6-0.3,5.2,0.1,7.7c0.3,2.6,1.1,5.3,2,7.8
	c0.7,2,1.8,2,3,0.2c1.6-2.4,3-4.9,2.8-8c-0.2-2.6,0-5.1,0-7.7c1.9,0,3.9,0,5.8,0c-0.2,6.3,3.5,11.2,5.7,16.6c0.1,0.3,1.6,0.4,2,0.1
	c0.8-0.8,1.2-1.8,1.7-2.8c2.4-4.4,2.4-9.2,2.2-14c0.6,0,1.3,0,1.9,0c1.3,3.3,1.3,6.5-0.1,9.8c-0.4,1-0.5,2.1-0.6,3.2
	c0,0.3,0.6,0.7,0.9,1c0.2,0.1,0.7-0.1,0.8-0.3c1.7-3.2,4-6.1,3.2-10.2c-0.2-1.1,0.4-2.4,0.6-3.6c0.6,0,1.3,0,1.9,0
	c0.1,0.8,0,1.7,0.3,2.4c3,6,8.1,9.8,13.9,12.8c1,0.5,1.7,0.2,2.3-1c2.3-5.2,0-10.4-5.4-12.3c-1.8-0.6-3.5-1.3-5.2-2
	c2.6,0,5.2,0,7.8,0c0.3,0.8,0.6,0.8,1,0c1,0,1.9,0,2.9,0c0.7,3.3,1.4,6.5,2.2,9.7c0,0.2,1.5,0.4,1.8,0.1c1.4-1.5,2.5-3.3,4-4.7
	c1.8-1.6,1.8-3.2,0.7-5.1c0.6,0,1.3,0,1.9,0c1.3,1.6,2.3,3.4,3.8,4.7c1.8,1.6,3.9,2.7,5.9,4c0.1,0.1,0.1,0.3,0.2,0.4
	c0.1,0.1,0.2,0.1,0.3,0.1c-0.2-0.2-0.3-0.3-0.5-0.5c0.3-2.9,0.6-5.8,1-8.7c1.6,0,3.2,0,4.9,0c-1.8,4.9-1.8,9.9-0.4,15.3
	c1.1-0.8,2.4-1.3,3-2.3c2.6-4,5.1-8.1,5.2-13.1c0.6,0,1.3,0,1.9,0c-0.2,1.7-0.4,3.4-0.6,5.1c-0.1,0.8-0.5,1.8-0.2,2.3
	c0.4,0.6,1.4,0.9,2.2,1.2c0.1,0,0.4-0.4,0.7-0.6c-2.7-2.6-0.5-5.3-0.2-7.9c0.6,0,1.3,0,1.9,0c-1,2-1.2,4.1-0.5,6.9
	c2-2.6,3.7-4.8,5.3-6.9c1,0,1.9,0,2.9,0c-1.2,1.3-2.4,2.6-3.4,4c-1.1,1.4-2.1,2.8-3.1,4.3c-1.6,2.3-0.8,4.1,1.1,6
	c0.5-2.1,0.8-3.9,1.5-5.7c0.4-1.1,1.3-2.2,2.3-2.8c2.9-1.9,2.9-1.8,5.2,1c4.2,5.1,6.4,11,8,17.3c0.7,2.8,0,3.6-3.1,4.2
	c-3.4,0.6-4,1.4-3.9,5c0.1,3.1-1.7,4.6-4.6,3.5c-1.2-0.4-2.7-1.1-3.1-2.1c-1-2.2-2-3.1-4.3-1.9c-0.3,0.2-1.1-0.4-1.7-0.7
	c-1-0.5-2-1.1-2.9-1.7c-1-0.6-1.9-1.1-3.1-1.8c-1,5.2-4,9.1-7.8,12.5c-0.7,0.6-1.5,1.3-2.3,1.7c-2.9,1.6-3.9,1.2-3.9-2
	c0.1-4.3-0.9-8.7,1.5-12.8c0.2-0.3-0.1-1.3-0.5-1.6c-2.8-2.2-5.6-4.2-8.4-6.3c-0.4,1.6-0.8,3.3-1.4,5c-1.3,3.5-2.4,6.9,1,9.9
	c0.2,0.2,0.3,0.6,0.4,0.9c0.5,1.8,2.9,3.5,1.5,5.1c-1.6,1.8-4.2,3.4-6.9,2.6c-2.2-0.6-2.5,0.4-2.7,2.1c-0.6,6.2-0.7,6.2-5.9,3.1
	c-0.4-0.2-0.9-0.4-1.4-0.6c-1,1.5-1.8,3-2.9,4.3c-1.1,1.3-2.5,1.5-3.8,0.3c-1-0.9-1.9-1.8-2.8-2.7c-0.9-0.9-1.7-1.9-2.4-2.9
	c-2,2.2-3.8,4.6-5.9,6.6c-0.9,0.8-2.7,1.5-3.8,1.2c-1.6-0.4-1.5-2.2-1.8-3.8c-1.4-6.2,0.4-11.4,3.4-16.6c0.2-0.3,0.6-0.5,1-0.8
	c0.2,0.5,0.7,1.1,0.5,1.6c-0.8,2.4-2,4.8-2.5,7.2c-0.5,2.6-0.6,5.4-0.6,8.1c0,1.9,1.3,2.4,2.9,1.2c3.5-2.7,5.2-6.5,6.4-10.6
	c1.5-5.2-1-8.8-6.4-9c-4.2-0.2-7.4-1.7-9-5.9c-1-2.7-2.3-5.2-3.5-7.7c-2.2,2.1-2.2,2.2-0.9,4.9c1.8,3.6,3.6,7.2,5.5,10.7
	c0.8,1.5,0.4,2.4-1.2,2.9c-0.8,0.2-1.5,0.5-2.3,0.7c-1.2,0.4-2.4,0.3-2.7-1.1c-0.1-0.4,1.1-1.3,1.9-1.6c1.3-0.5,1.3-1.1,0.8-2.2
	c-1.4-2.7-2.7-5.4-4.1-8.1c-0.2-0.3-1.2-0.6-1.3-0.5c-0.4,0.5-1,1.7-0.9,1.8c2.1,1.7,1,3.9,1.1,5.9c0.1,3.6,0.6,6.9,3.2,9.8
	c2.2,2.5,3.7,5.6,5.4,8.5c2,3.6,0.8,6.8-1.3,9.9c-0.7,1.1-1.5,2.1-2.4,3.3c-2.6-2.5-4.7-4.4-6.9-6.5c-0.2,0.8-0.5,1.6-0.8,2.5
	c-0.8,2.7-1.5,3.1-4.1,2.2c-0.7-0.3-1.5-0.6-2.1-0.9c-0.6,2.6-0.9,5.2-1.7,7.6c-1,3-2.2,3.3-5.2,1.9c-1.1-0.6-2.2-1.3-3.5-2.1
	c-0.6,1.2-1.1,2.3-1.6,3.4c-7,16.6-13.2,33.4-17.9,50.9c-2.1,7.9-5,15.6-7.4,23.4c-3.6,11.6-7.1,23.3-10.7,35
	c-0.7,2.1-1.4,4.3-2.1,6.4c-4.1,12-7.1,24.3-9.7,36.7c-1.4,6.7-3.1,13.4-4.4,20.2c-0.9,4.2-1.2,8.6-2.1,12.8
	c-1.4,6.9-3.2,13.7-4.5,20.6c-1.1,6-1.7,12-2.6,18.1c-1.2,8.2-1.3,16.6-3.6,24.7c-1.3,4.7-1.5,9.8-2.2,14.7
	c-0.9,6.7-1.7,13.3-3.2,19.9c-1.8,8-3.4,15.9-3.8,24.2c-0.4,8.6-2.3,17.1-3.5,25.7c-0.8,5.4-1.3,10.8-2.2,16.2c-0.5,3-1.3,6-2.3,8.8
	c-0.9,2.8-1.4,5.5-1.6,8.5c-0.3,5.7-1.3,11.4-1.7,17.2c-0.6,9.5-1.8,19-1,28.5c0.3,3.6,1.4,7.2,2.2,10.8c0.2,0.9,0.8,1.7,1.4,2.5
	c3.2,4.4,6.5,8.8,9.8,13.1c1,1.3,2,2.6,3.1,3.7c0.9,0.8,2,1.7,3.1,1.9c0.8,0.1,2.4-4.3,2-5.5c-0.5-1.7-1-3.3-1.4-5
	c-0.1-0.4,0.4-1.3,0.9-1.5c0.5-0.2,1.2,0.1,1.7,0.4c0.4,0.2,0.5,0.8,0.8,1.2c2.1,2.3,2.2,2.3,4.8,0.8c0.4-0.2,0.7-0.7,1.2-0.9
	c0.5-0.2,1.1-0.2,1.7-0.4c-0.2,0.7-0.1,1.5-0.5,2c-0.8,1-1.8,1.9-2.7,2.8c-0.7,0.7-1.3,1.5-0.5,2.5c1,1.2,1.8,0.6,2.9-0.1
	c2.1-1.5,4.2-3,6.4-4.2c1.5-0.8,3.3-1.1,5.1-1.4c0.6-0.1,1.4,0.4,2.1,0.7c-0.5,0.5-1,0.9-1.6,1.3c-3.1,2.3-6.3,4.4-9.3,6.8
	c-1,0.8-1.7,1.9-2.4,3c-1.1,1.4-0.9,2.6,0.8,3.5c2.2,1.2,2.5,1.1,4-0.6c2.3-2.7,4.7-5.3,7.2-7.8c1.2-1.1,2.9-1.7,4.4-2.5
	c0.2,0.3,0.4,0.5,0.7,0.8c-0.4,0.5-0.6,1.2-1.1,1.6c-3.5,2.4-5.2,6-6.4,9.9c-0.6,2.1-0.7,2.1,2.1,2.6c0.1,0.1,0.1,0.3,0.2,0.4
	c0.1,0.1,0.2,0.1,0.3,0.1c-0.2-0.2-0.3-0.3-0.5-0.5c0-1.1-0.1-2.3,0-3.4c0.2-1.5,1.9-2,2.9-0.8c0.8,1,1.4,2.1,2,3.3
	c0.7,1.3,1.2,2.7,2,3.9c1.4,2,2.8,2,4.6,0.3c1-1,2.1-1.9,3.3-2.8c0.3-0.2,1-0.1,1.2,0.1c0.3,0.3,0.5,1,0.3,1.3
	c-0.6,1.3-1.4,2.5-2.1,3.7c-0.6,1-0.3,1.5,0.5,2.4c2.8,2.8,5.6,5.8,8.1,8.9c1.3,1.6,2.6,3.9,1.4,5.7c-1.3,2-3.5,0.4-5.3-0.1
	c-1.2-0.3-2.5-0.6-3.7-1.2c-1.9-0.9-3-0.7-3.6,1.5c-0.1,0.5-0.7,0.8-1.1,1.2c-0.3-0.5-0.6-1-0.9-1.5c-0.2-0.4-0.2-0.9-0.5-2.5
	c-0.2,2-0.3,2.8-0.5,3.7c-0.2,1.2-0.7,1.7-1.9,1.2c-0.7-0.3-1.9-0.3-2.2-0.8c-1.7-3.5-5.3-2.7-8-3.4c-6.1-1.4-12.3-2.2-18.4-3.4
	c-6.9-1.4-13.7-3.3-20.9-2.6c-1.7,0.2-3.6,0.1-5.3-0.4c-1.7-0.5-2.9-0.1-3.9,0.9c-0.8,0.8-1.1,5-0.4,5.8c2.1,2.6,4.2,5.2,6.6,7.6
	c4,4.2,8.3,8.2,12.4,12.3c0.6,0.6,1.2,1.8,0.9,2.4c-0.3,0.7-1.5,1.4-2.3,1.4c-8.2-0.2-16.4,1.4-24.4-1.9c-2.9-1.2-6.1-1.9-9.1-2.9
	c-1-0.4-1.9-1.2-2.9-1.7c-3.6-1.7-7.2-3.4-10.8-5.1c-4-1.8-8-3.5-11.9-5.2c-3.5-1.6-7-3.3-10.6-4.7c-1.1-0.5-2.6-0.7-3.7-0.3
	c-4.5,1.6-8.9,3.5-13.5,5.2C86,555,82,556.3,78,557.5c-0.7,0.2-1.8-0.4-2.3-0.9c-0.8-0.7-1.3-1.8-1.9-2.7c-0.9-2.6-0.9-2.6-3.1-3.8
	c1,1.3,2,2.5,3.1,3.8c0.5,2,1.1,4,1.5,6c0.2,0.9,0.2,1.9,0.2,2.8c0,0.2-0.4,0.5-0.7,0.5c-0.2,0-0.7-0.2-0.8-0.4
	c-0.3-0.6-0.3-1.3-0.6-1.8c-0.5-0.9-0.6-2.6-2.2-1.9c-1.3,0.5-3.5,0.3-3.2,2.8c0.1,0.5,0,1-0.2,1.4c-0.2,0.3-0.6,0.5-1,0.8
	c-0.3-0.3-0.7-0.7-0.8-1c-0.6-3.4,0.4-6.7,1.2-10c0.2-0.8,0.4-1.5,0.8-2.8c-2.7,3.5-3.8,6.3-3.4,9.4c0.2,1.4-0.5,1.7-1.5,1.7
	c-1.9,0.1-3.9-0.1-5.8,0.1c-3.3,0.4-6.7,0.8-10,1.5c-5.3,1.2-10.5,2.7-15.8,3.9c-0.7,0.2-1.9-0.1-2.1-0.4c-0.3-0.8-0.4-2.1,0-2.7
	c2-2.5,3.9-5.1,6.3-7.2c4.3-3.6,9.4-6.3,13-10.7c0.5-0.6,1-1.2,1.9-2.3c-1.5-0.3-2.5-0.5-3.5-0.6c-1.6-0.2-3.2-0.1-4.8-0.4
	c-1.6-0.3-1.9-1.8-0.6-2.7c3.2-2.2,6.4-4.2,10-6.5c-1.4-1.7-3.1-3.5-5.1-5c-1-0.8-2.1-1.5-3-2.4c-0.4-0.5-0.5-1.3-0.7-2
	c0.7,0.1,1.5,0,2.2,0.3c4.6,1.6,9,3.4,12.3,7.9c0.5-3.2,0.9-6,1.5-8.7c0.4-1.8,0.9-4.7,2.9-4.4c2.2,0.4,1,3.3,1,5.1
	c0,1.8-0.5,3.7-0.9,5.8c2.2-0.7,3.9-1,3.2-3.6c-0.3-0.9,0.5-2.2,0.6-3.3c0.4-3.2-0.1-6.1-2.5-8.5c-0.5-0.5-0.7-1.4-1-2
	c0.7-0.1,1.6-0.6,2.1-0.4c2.2,1.1,2.8-0.4,3.7-1.8c0.4-0.6,1.2-0.8,1.9-1.2c0.3,0.7,0.8,1.4,0.7,2.1c-0.1,1.1-0.5,2.2-0.8,3.3
	c-0.8,2.8,0.7,5,2,7.2c0.2,0.4,1.1,0.5,1.7,0.6c0.4,0,1-0.1,1.3-0.4c0.2-0.2,0.2-0.9,0-1.2c-0.9-1.5-2-2.9-2.9-4.4
	c-0.6-1,0.3-1.4,1.2-1.5c0.3,0,0.6,0.1,0.9,0.2c3.9,1.2,4.1,1.2,4.9-2.7c0.7-3.3,0.8-6.7,1.3-10c0.5-3.3,0.9-6.7,1.6-9.9
	c0.8-4.2,1.9-8.4,2.8-12.6c0.3-1.2,0.5-2.5,0.4-3.8c-0.1-8.1,0.6-16,1.9-24c0.5-3.3,0.7-6.7,1-10c0.4-5.4,0.7-10.9,1.1-16.3
	c0.1-1.9,0.7-3.8,0.9-5.7c1.3-12.4,2.7-24.8,5.6-37c0.8-3.4,1-7,1.1-10.5c0.2-4.5-0.2-9,0.1-13.4c0.7-10.5,0.3-21.2,2.9-31.6
	c0.9-3.4,2.2-6.7,3.6-10c3.2-7.6,6.9-14.9,9.6-22.6c2.1-5.9,2.9-12.1,4.2-18.2c1.6-7.7,3.3-15.3,4.4-23.1c1.4-9.4,3.9-18.5,6-27.7
	c0.9-3.9,1-8,1.1-12c0.2-6.4,1.6-12.7,2.6-19c1.6-9.9,4.7-19.3,6.5-29.1c0.8-4.4,2.5-8.6,3.8-12.9c3.1-10.8,6.7-21.5,9.1-32.4
	c3.2-14.1,7.2-27.9,11.4-41.8c2-6.4,4.1-12.8,6.2-19.2c0.1-0.3,0.3-0.6,0.2-0.9c-0.7-3.4-1.5-6.9-2.3-10.3c-0.1-0.3-1.1-0.6-1.5-0.4
	c-1.3,0.6-2.4,1.6-3.7,2.2c-1.6,0.7-2.1,1.9-2,3.5c0,1,0,1.9,0,2.9c0.1,1.3,0.3,2.5,0.5,3.8c1.4-0.6,2.9-1.1,4.2-1.9
	c0.9-0.5,1.7-1.5,3.2-2.9c-0.4,1.8-0.3,2.9-0.8,3.4c-1,1-2.2,2-3.4,2.6c-1.5,0.8-3.2,1.2-4.8,1.8c-0.3-1.5-0.7-3-0.8-4.5
	c-0.2-2.5,0.3-5-1.5-7.4c-0.7-0.9-0.1-3.1,0.3-4.6c0.9-2.9,2.1-5.7,3.4-9.2c-1.4,0.4-2.2,0.5-3,0.8c-2.5,1.1-5.1,2-7.5,3.3
	c-2.4,1.3-4.5,3-6.8,4.5c-0.5,0.3-1.1,0.8-1.7,0.8c-0.7,0-1.5-0.3-2.2-0.5c0.2-0.6,0.3-1.2,0.6-1.7c1.3-2.1,2.7-4.2,3.5-7.1
	c-1.1,0.5-2.1,1.1-3.2,1.6c-1,0.4-2.1,1-3.2,1c-1.5,0-3.6,0.1-4.4-0.8c-1.2-1.3,0.8-2.5,1.5-3.7C133.4,35.1,134.2,34.1,134.9,33
	c0.1-0.1,0.3-0.1,0.4-0.2c0.1-0.1,0.1-0.2,0.1-0.3C135.2,32.7,135,32.8,134.9,33z M52.4,530.6c-0.1-0.1-0.1-0.3-0.2-0.4
	c-0.1-0.1-0.2-0.1-0.3-0.1C52.1,530.3,52.3,530.4,52.4,530.6c0.3,0.3,0.6,0.7,1,1c0.3,0.3,0.6,0.7,1,1c0.2,0.1,0.3,0.3,0.5,0.4
	c-0.2-0.2-0.3-0.3-0.5-0.5c-0.3-0.3-0.7-0.6-1-1C53.1,531.2,52.8,530.9,52.4,530.6z M207.6,520.9c-0.4,0.2-0.9,0.4-1.1,0.8
	c-0.3,0.4-0.3,1-0.4,1.6c0.4-0.3,0.9-0.6,1.2-1C207.6,521.9,207.5,521.3,207.6,520.9c0.3-0.3,0.5-0.6,0.8-0.9
	c-0.2-0.1-0.3-0.2-0.5-0.3C207.8,520.1,207.7,520.5,207.6,520.9z M108.7,10.7c1-0.4,2.1-0.6,3-1.2c0.2-0.1-0.1-1.3-0.4-2
	c-0.1-0.2-1.3-0.1-1.4,0.1C109.3,8.6,109.1,9.6,108.7,10.7c-0.1,0-0.3,0.1-0.4,0.2c-0.1,0.1-0.1,0.2-0.1,0.3
	C108.4,11,108.5,10.8,108.7,10.7z M325,15.5c0.1,0.1,0.1,0.3,0.2,0.4c0.1,0.1,0.2,0.1,0.3,0.1C325.3,15.8,325.2,15.7,325,15.5
	c0.3-2.6-1-5.5,1.4-7.8c0.4-0.4,0.6-1,1.3-2.4C321.5,10.2,321.1,12.2,325,15.5z M48.5,99.9c-0.1-0.1-0.1-0.3-0.2-0.4
	c-0.1-0.1-0.2-0.1-0.3-0.1C48.2,99.6,48.4,99.8,48.5,99.9c0.1,3.7-0.7,7.7,3.8,10.5C51.1,106.4,52,102.4,48.5,99.9z M30.1,105.7
	c2.9-1.8,5.9-3.6,8.7-5.6c0.4-0.3,0.6-1.4,0.5-2c-0.6-2.2-1.4-4.2-2.2-6.7c-1.6,2.9-3,5.5-4.4,8.2C31.8,101.6,31,103.7,30.1,105.7
	c-0.1,0.1-0.3,0.1-0.4,0.2c-0.1,0.1-0.1,0.2-0.1,0.3C29.8,106,30,105.9,30.1,105.7z M267.8,42.7c0.7,0.4,1.3,0.9,2,1.3
	c1.4,0.9,2.7,0.8,4-0.1c1.3-0.9,1.7-2,1.1-3.7c-0.5-1.4-0.2-3.2-0.4-4.7c-0.2-1.7-0.5-3.4-0.7-5c-2.8,0.2-2.1,2.8-2.9,4.3
	C269.6,37.2,267.6,39.6,267.8,42.7c-0.1,0.1-0.3,0.1-0.4,0.2c-0.1,0.1-0.1,0.2-0.1,0.3C267.5,43,267.6,42.8,267.8,42.7z M47.6,16.5
	c-0.5,0.1-1,0.2-1.4,0.3c-3.8,1-4.2,0.6-3.6-3.1c0.1-0.8,0-1.6,0-2.7c-4.3,1.8-7.4,4.5-10.2,7.9C39.4,22,43.4,21.4,47.6,16.5
	c0.1,0,0.3-0.1,0.4-0.2c0.1-0.1,0.1-0.2,0.1-0.3C47.9,16.2,47.7,16.3,47.6,16.5z M143.6,42.7c4.7-1.4,7.3-5.2,9.5-9
	c1.3-2.3,3.2-4.8,3-8.8c-2.6,2.2-5.3,3.6-6.6,5.7C147.1,34.3,145.5,38.6,143.6,42.7c-0.1,0.1-0.3,0.1-0.4,0.2
	c-0.1,0.1-0.1,0.2-0.1,0.3C143.3,43,143.5,42.8,143.6,42.7z M153.3,23.3c1.6-0.6,3.6-0.7,4.9-1.7c3.6-2.9,7-6.1,10.4-9.3
	c0.6-0.6,0.8-1.7,1.2-2.5c0.4-0.2,0.8-0.4,1.1-0.8c0.1-0.2,0-0.6-0.1-1c-0.2,0.1-0.6,0.2-0.7,0.5c-0.2,0.4-0.2,0.8-0.3,1.3
	C162.2,10.2,156,15.3,153.3,23.3c-0.1,0.1-0.3,0.1-0.4,0.2c-0.1,0.1-0.1,0.2-0.1,0.3C153,23.6,153.2,23.4,153.3,23.3z M195,8.7
	c-0.7-1.8-1.4-3.6-2.2-5.6c-1.2,1.9-2.3,3.3-3,4.8c-0.2,0.5,0.1,1.5,0.5,2c0.2,0.2,1.6,0,1.8-0.4C192.8,8.2,193.7,7.9,195,8.7
	c-1.3,2.2-2.5,4.4-3.7,6.6c-0.4,0.8-1.1,1.9-0.9,2.6c1,3.2,0.5,7,3.6,9.8C198.2,21.6,198.4,15.3,195,8.7z M215.4,7.8
	c-3.2,2.6-3.8,6.8-6.3,10c-1.4,1.7-2.1,4-3,6c-0.2,0.5-0.2,1.6,0.1,1.7c0.6,0.3,1.7,0.6,2.1,0.3c2.9-2.3,5.6-4.7,8.3-7.2
	c0.3-0.3,0.1-1.2,0-1.8C216.2,13.8,215.8,10.8,215.4,7.8c0.1-0.1,0.3-0.1,0.4-0.2c0.1-0.1,0.1-0.2,0.1-0.3
	C215.7,7.4,215.5,7.6,215.4,7.8z M165,32c-1.7,0.8-2.6,2.1-3,4.1c-0.6,3.6-1.8,7.1-3.7,10.3c-0.3,0.5-0.7,1.2-0.7,1.7
	c0,0.3,0.8,1,1.1,1c2.8-1,4.7-3,6.7-5.1c3.6-3.7,5.1-8,5.5-12.9c1.1,0,1.6,0.5,2,1.6c0.7,1.9,1.8,3.6,2.8,5.4c0.1,0.2,0.9,0.2,1.2,0
	c0.3-0.2,0.6-1.1,0.5-1.2c-2.8-2.4-2.4-5.9-3-9.7c-1.4,1.6-2.5,2.8-3.5,3.9c-1.1,0.7-2.3,1.5-3.4,2.2C165.9,34.1,165.4,33,165,32
	c0.1-0.1,0.3-0.1,0.4-0.2c0.1-0.1,0.1-0.2,0.1-0.3C165.3,31.7,165.1,31.8,165,32z M65,24.3c-2.9,1.7-5.1,4.1-5.5,7.4
	c-0.2,2.3,0.4,4.7,0.8,7c0.3,1.5,0.9,2.9,1.4,4.4c1.6-0.6,3.4-1,4.8-1.9c1.1-0.7,2-2.1,2.6-3.3c0.4-0.7,0.4-1.9,0.1-2.7
	C68,31.5,66.5,27.9,65,24.3c3.4,0,3,3.4,4.6,5.3c1.4-3,3.1-5.6,4.1-8.9C70.5,22,67.8,23.1,65,24.3z M89.3,18.4
	c0.6-1.3,1.4-2.5,1.7-3.8c0.6-2.3-0.7-3.6-2.9-2.7c-2.9,1.1-5.6,2.4-8.4,3.7c-0.7,0.3-1.5,0.9-1.8,1.5c-2.4,4.9-4.7,9.8-7,14.7
	c0,0.1,0.1,0.3,0.2,0.7c3.3-0.7,6.2-2,8.8-4.2c4.1-3.5,6.1-8.1,7.4-13.2c0.2-0.7,0.8-1.3,1.2-1.9c0.3,0.6,0.7,1.2,0.7,1.9
	C89.4,16.2,89.3,17.3,89.3,18.4c-5.7,7.5-4.2,15.1-0.5,23.1c5.1-3.8,4.5-9.3,5.1-14.4c0-0.3-0.2-0.6-0.3-0.9c-0.5-1-0.8-1.8-2.4-1.5
	c-2.4,0.4-2.7-0.2-2.3-2.5C89,21,89.1,19.7,89.3,18.4z M188.2,20.2c-0.8,1.2-1.4,2.1-1.9,3c-1.7,3.6-3,7.5-5,11
	c-6.1,10.6-9.5,22.2-13.4,33.6c-3.5,10.2-6.4,20.5-9.5,30.8c-1.1,3.7-2.3,7.4-3,11.2c-2,11.6-5.3,22.8-8.6,34
	c-4.1,14-8,28.1-11.3,42.3c-2.4,10.3-4.8,20.6-4.6,31.3c0.1,3.1-0.4,6.3-1,9.3c-0.6,3.1-1.6,6.2-2.4,9.3c-1.1,4.5-2.3,9-3.2,13.6
	c-1.8,9.4-3.3,18.9-5,28.4c-0.9,4.7-1.5,9.5-3,14.1c-2,5.9-4.6,11.6-7.1,17.4c-1.7,4-3.7,7.9-5.2,11.9c-2.7,7.1-3.8,14.6-4,22.2
	c-0.1,3.4-0.7,6.7-0.8,10.1c-0.1,2.4,0.2,4.8,0.3,7.2c0,0.8,0.3,1.6,0.3,2.3c-0.5,4.6-1.6,9.2-1.5,13.8c0.1,7.8-2.8,15.1-3.3,22.8
	c-0.4,6.7-1.8,13.3-2.6,20c-0.5,3.8-0.7,7.7-1.1,11.5c-0.6,6.4-1.2,12.8-1.9,19.1c-0.1,0.8,0,1.6-0.1,2.4
	c-1.1,6.8-1.7,13.7-1.9,20.6c-0.1,4-0.4,8.1-1.2,11.9c-1.5,6.7-3,13.4-3.7,20.3c-0.4,3.5-0.9,7.2-2.4,10.2c-1.5,3-0.3,4.8,1.1,6.9
	c0.8,1.2,1.7,1.1,2.5-0.3c1-1.8,1.7-3.8,2.7-5.6c0.2-0.3,0.9-0.5,1.3-0.4c0.3,0.1,0.6,0.8,0.5,1.1c-0.9,2.1-1.7,4.2-2.8,6.1
	c-2.8,4.9-7.7,7.2-12.5,9.4c-8.6,3.9-15.9,9.7-23.1,15.5c-2.6,2.1-5.2,4.3-7.8,6.4c-3.4,2.7-7.5,4.7-9.1,9.2c8.9-0.6,17-5.1,26-4.6
	c1.9,0.1,3.2-1.1,4-3c2.7-6.1,2.7-6.1,0.2-12.2c-0.2-0.6-0.7-1.1-0.9-1.7c-0.6-1.2,0-2.3,1.2-2.3c0.6,0,1.2,0.2,1.8,0.4
	c3.6,1.2,3.5,1.2,6-2c1.1-1.4,2.4-2.7,3.7-3.8c0.5-0.4,1.4-0.2,2.2-0.2c-0.1,0.7,0,1.5-0.3,2c-1.3,2-2.8,3.9-4,5.9
	c-1,1.6-1,3.3,0.3,4.9c1.7,2.3,3.3,4.6,4.9,7c2.8-0.7,5.6-1.3,8.3-2.2c5.2-1.8,10.3-3.7,15.3-5.7c3.6-1.4,6.9-0.5,10.2,1
	c3.6,1.7,7.1,3.6,10.8,5.2c5.4,2.5,11.1,4.4,16.3,7.3c4.5,2.5,9.3,4.2,14.1,6c6.9,2.5,14,2,21,2c0.4,0,1.3-0.3,1.3-0.5
	c0-0.6-0.1-1.3-0.5-1.7c-2.9-3-6-5.9-8.9-8.9c-1.3-1.3-2.8-2.6-4-4c-2.8-3.1-5.3-6.6-8.4-9.3c-3.2-2.8-6.9-5.2-10.6-7.4
	c-2.6-1.6-4.5-3.6-5.7-6.3c-0.3-0.6-0.1-1.3-0.2-2c0.7,0.3,1.5,0.4,2,0.9c1,1.1,1.5,2.6,2.6,3.4c1.7,1.3,3.7,2.3,5.5,3.4
	c0.8-2.2,1.7-4.5,2.5-6.7c0.1-0.3,0.1-0.7,0-1c-1.3-3.1-0.4-6.8-2.4-9.8c-0.4-0.6-0.4-1.5-0.4-2.3c-0.1-1.9,0.6-2.3,2.3-1.6
	c2.8,1.2,3.4,3.6,3.8,6.2c0.2,1.5,1.2,1.7,2.3,0.7c1.7-1.5,3.2-3.2,5-4.5c0.6-0.4,1.9-0.5,2.5-0.1c1,0.7,0.3,1.7-0.4,2.4
	c-0.6,0.6-1.2,1.1-1.7,1.7c-1.3,1.6-2.7,3.2-3.9,4.9c-1,1.4-0.7,3.6,0.6,4.6c1.4,1.1,1.9-0.6,2.8-1c1.4-0.7,2.7-1.7,4.2-2.4
	c0.4-0.2,1.1,0,1.7,0c-0.2,0.6-0.2,1.3-0.5,1.7c-2.5,2.3-3.9,5.1-5.7,8.7c5.4-1.3,10.1,1.9,14.9-0.1c0.2-0.1,0.6,0.1,0.9,0.2
	c9.5,1.2,18.8,3.8,28.2,5.6c3.5,0.7,6.9,1.3,10.4,1.8c2,0.3,3.5-1.6,2.2-2.9c-2.3-2.2-1.5-4.8-1.6-7.2c0-2.1-0.5-3.9-2.2-5
	c-1.4-1-2.9-1.9-4.5-2.6c-4.4-2-8.8-3.8-13.2-5.7c-1.1-0.4-2.4-0.3-3.4-0.9c-4-2.2-7.4-5.2-10.1-8.8c-4.2-5.4-8.1-11.1-12.3-16.6
	c-1.2-1.5-1.8-2.8-0.9-4.8c0.4-0.9-0.2-2.2-0.2-3.3c-0.2-7.2-0.6-14.5-0.4-21.7c0.1-5.4,1.2-10.8,1.7-16.2
	c0.5-5.3,0.7-10.6,1.1-15.9c0.1-0.8,0.5-1.5,0.6-2.3c1.1-4.5,2.3-9,3.2-13.5c1.2-6.4,2.3-12.9,3.2-19.4c1-7,2-13.9,2.5-21
	c0.4-6.3,1.3-12.4,2.6-18.5c1.1-5.3,2.4-10.6,3.2-16c0.7-4.1,0.7-8.3,1.2-12.5c0.4-3.2,0.9-6.3,1.8-9.4c2.3-8.1,3-16.4,3.9-24.6
	c0.4-4,0.7-8,1.2-12c0.4-2.8,1-5.7,1.6-8.5c1.4-6.4,3-12.8,4.3-19.2c0.8-4.1,1.1-8.3,1.9-12.3c1.4-6.9,3.2-13.7,4.5-20.6
	c2.5-12.4,5.8-24.6,9.8-36.7c0.6-2,1.4-3.9,2-5.9c1.6-5.2,3-10.5,4.6-15.7c3.6-11.3,7.3-22.6,10.9-33.9c1.4-4.4,2.5-9,3.9-13.4
	c2.9-9.2,5.8-18.4,9-27.5c2.8-7.7,6.2-15.2,8.9-22.9c4.2-11.7,9.1-23.1,14.3-34.3c1.4-3,3.2-5.8,1.8-9.5c-0.7-1.8,0.5-4.6-3.2-3.6
	c-0.4,0.1-1.4-0.9-1.6-1.6c-1.1-2.8-2.1-5.7-3.1-8.6c-0.4-1.2-0.7-2.4-1-3.6c-1.2,3.8-1.8,7.5-1.6,11.1c0.3,5.2-1.5,9.6-4.7,13.3
	c-2.3,2.6-5.3,4.7-8,6.9c-1,0.8-2.1,0.7-2.5-0.8c-0.3-1.2-0.4-2.5-0.6-3.8c-0.3-2.1-0.7-4.3-1-6.4c-2.2,4.4-6.4,6.2-9.8,8.7
	c-1.4,1-2.5,0.3-2.7-1.3c-0.2-1.5-0.2-3-0.3-5c-1.8,1.2-2.9,2-4.2,2.8c-2,1.2-3.1,0.8-3.3-1.5c-0.2-2.5,0.5-5.2-3.1-6
	c-1.1-0.3-2.1-2.6-2.9-2.6c-1.2,0.1-2.2,1.7-3.3,2.7c-0.9,0.7-1.8,1.4-2.7,2c-1.5,0.9-2.3,1.9-1.6,3.9c0.6,2,0.2,4.2-1.1,6
	c-1.3,1.9-2.9,2.1-4.3,0.3c-1.6-2.2-2.9-4.6-4.2-7c-0.6-1.1-1.1-2.2-1.9-4.1c-1.3,2.5-2.2,4.3-3.3,6.1c-0.3,0.5-1,1-1.5,1
	c-0.4,0-0.9-0.7-1.1-1.2C190.8,27.9,189.6,24.3,188.2,20.2z M233,32.6c6.5-2,8.6-7.2,10.3-12.6c0.9-2.9,1.9-6,0.7-8.9
	c-0.6-1.4,0.4-3.7-1.8-4.1c-2.1-0.4-2.9,1.7-4.1,2.9c-0.2,0.2-0.3,0.6-0.5,0.8C234,17.5,232.7,24.7,233,32.6z M114.5,16
	c0-0.5,0-0.9-0.2-1.4c-0.7-2.8-2-3.4-4.5-2c-0.4,0.2-0.9,0.4-1.2,0.7c-4.6,4.1-8.8,8.4-10.1,14.8c-0.1,0.7-0.4,2-0.1,2.2
	c0.7,0.5,1.8,0.7,2.6,0.5c7-1.8,10.8-6.9,13.3-13.4C114.5,17,114.5,16.5,114.5,16z M357.1,29.1c0.5,0,1,0,1.5,0
	c1.5,0,2.6-0.3,1.7-2.3c-1.9-4.6-3.7-9.2-5.6-13.8c-0.2-0.4-0.6-0.8-0.9-1.1c-0.8-1-1.7-1.2-3-0.6c-1.9,0.9-3,2.2-3.9,4
	c-0.9,1.8,0,3,1,4.4c0.3,0.5,0.3,1.2,0.4,1.8C349.2,26.9,351.8,29.1,357.1,29.1z M90.9,22.2c7.5-2.6,12-7.5,15.9-13
	c1.9-2.7,0.8-5.7-2-6.7c-0.9-0.3-2.4-0.2-3,0.3c-2.1,1.9-3.9,4.1-5.8,6.2C92.8,12.6,92.5,17.1,90.9,22.2z M329.5,7
	c-0.9,1.8-0.1,4.1-2.1,5.3c-0.3,0.2-0.2,1.5,0.1,2.2c2.1,5.2,5.9,8.6,11.3,10.3c0.8,0.3,1.9,0.1,2.7-0.1c1.3-0.3,1.7-1.1,0.9-2.4
	c-1.6-2.7-3-5.6-4.7-8.3C335.7,10.8,333.4,8,329.5,7z M312.6,18.2c-0.1,0.5-0.2,1-0.2,1.4c0.6,5.1,4,9,5.7,13.6
	c0.4,1.1,1.9,0.7,2.3-0.3c1.3-2.9,2.6-5.8,3.5-8.9c1.4-4.8,0.8-6-3.3-8.7c-2.4-1.6-2.4-1.6-3.4,0.9
	C315.9,19.4,315.9,19.4,312.6,18.2z M126.3,27.3c-0.4-1.6-0.8-3.1-1.2-4.7c-0.5-1.6-1.3-3.1-3.3-2.9c-2.1,0.2-5.3,3.5-5,5.1
	c0.8,4.9,1.7,9.7,2.7,14.5c0.1,0.7,0.7,1.7,1.3,1.8c1.9,0.4,4.9-2.9,4.1-4.7c-1-2.3-0.4-4,0.5-5.9C125.8,29.5,126,28.4,126.3,27.3z
	 M63.2,11c-3.9,0-6.8,1.6-9.2,3.9c-2.4,2.3-4.6,4.9-6.9,7.4c-1.8,2-1,5.2,1.5,5.5c3.5,0.5,7.1,0.4,10.4-1.2c1.9-1,1.9-2,0.5-3.9
	c-0.4-0.5-0.7-1.1-1.1-1.6c-2.4-3.4-2.3-4.2,0.9-6.7C60.7,13.4,61.9,12.2,63.2,11z M369.3,25c1.2-0.1,2.4-0.2,3.6-0.3
	c-0.2-1.3-0.1-2.6-0.5-3.7c-1.6-4.3-3.1-8.8-6.3-12.3c-1.8-2.1-3.3-2-4.3,0.5c-1.6,3.9-1.7,7.9,1,11.4
	C364.4,22.8,365.2,26.4,369.3,25z M133.3,25.7c11.8,1.9,18.7-1.7,21.3-11.4C146.3,16.3,138.7,18.8,133.3,25.7z M296.7,25.5
	c0.7,3,2.5,5.4,4.3,7.9c0.1,0.2,1.4,0,1.5-0.3c0.5-1,0.9-2.1,1.1-3.2c0.7-4.4,1.2-8.9,1.8-13.3c0.3-2-0.9-3.1-2.4-3.8
	c-1.7-0.8-2.8,0.4-3.3,1.9C298.7,18.3,297.7,21.9,296.7,25.5z M106.1,31.3c-2.6,1-4.4,1.6-6.2,2.3c-1.7,0.7-2.6,2-2.5,3.7
	c0.1,2.2,0.3,4.5,0.8,6.6c0.6,2.3,1.5,4.5,2.6,6.6c0.5,1,1.7,0.9,2.4-0.1c0.4-0.5,0.5-1.1,0.7-1.7c0.8-2.7,1.6-5.3,1.2-8.3
	C104.7,37.7,105.6,34.8,106.1,31.3z M38.5,113.8c-5.3,7.5-4.6,14.8,1.9,21.4C43.5,129,44.1,119.4,38.5,113.8z M248.7,18.7
	c-2.4,3.4-2.5,6.7-2.2,10c0.1,2,0.6,3.9,0.9,5.9c1.6-1,3.3-1.8,4.7-3.1c3.7-3.6,6.3-7.9,5.9-13.6c-1.3,1-2.4,2-3.6,2.8
	C251.1,22.9,250.6,22.7,248.7,18.7z M168.6,28.6c2.3-0.3,3.4-1.1,4.2-2.6c0.9-1.9,1.7-3.8,2.8-5.5c2.4-3.6,2-7.6,1.8-11.6
	c0-0.6-0.7-1.7-1.1-1.7c-0.8-0.1-2,0.2-2.5,0.8c-1.1,1.3-2.1,2.9-2.7,4.5c-0.6,1.7-1.6,4.2-0.9,5.4c1.5,2.6,0.4,4.5-0.4,6.6
	C169.3,25.6,169.1,27,168.6,28.6z M52.5,81.1c4.5-3.4,3.3-7.7,2.4-11.8c-0.4-1.9-1.9-3.6-3.1-5.3c-0.4-0.5-1.5-0.9-2.1-0.7
	c-0.5,0.1-0.9,1.1-1,1.8c-0.3,1.5,0.2,3.6-0.7,4.6c-2.7,3.2-0.9,5.3,1.1,7.6C50.1,78.7,51.4,79.9,52.5,81.1z M33.6,56.1
	c0.6-0.1,1-0.2,1.2-0.3c6.4-2.6,9.7-9.2,7.5-15.5c-0.8-2.5-1.8-2.9-3.8-1.3c-1,0.7-1.9,1.9-2.2,3c-1.2,4.1-2.2,8.3-3.2,12.5
	C33.1,55,33.5,55.6,33.6,56.1z M168.2,16.3c-3.3,2.7-5.6,4.6-8,6.5c-0.4,0.3-0.7,0.7-0.9,1.1c-1.6,4.1-3.2,8.3-4.9,12.8
	c3.6-1.7,10.3-7.3,11.7-9.6c0.2-0.4,0.5-0.9,0.6-1.3C167.2,23,167.6,20.2,168.2,16.3z M40.4,95.4c3.7-5,5.7-10,6-15.5
	c0.1-1-0.6-2.1-1.2-3c-0.4-0.7-1.1-1-2-0.3c-1.5,1.2-3.2,2.1-4.8,3.2c-1,0.7-1.5,1.4-1.1,2.8C38.5,86.5,39.3,90.6,40.4,95.4z
	 M47.4,47.8c4.2-4.8,4.3-9.8,4-14.7c-0.1-0.9-0.8-2.4-1.5-2.6c-1.3-0.3-3.2-0.4-4,0.3c-1.4,1.3-2.9,3.2-2.3,5.4
	C44.5,39.9,45.9,43.4,47.4,47.8z M19.1,13.6c3.1,2,5.7,3.7,8.5,5.3c0.4,0.3,1.5-0.1,2.1-0.6c2.5-2,4.8-4.2,7.2-6.3
	c1.1-1,1-1.8-0.5-2.5c-0.7-0.3-1.6-0.7-2.2-0.6C29.2,10.1,24.2,11,19.1,13.6z M43.3,23c-1.1,0.1-2.1,0.3-3.2,0.3
	c-1.6-0.1-2.4,0.9-2.8,2.2c-1.2,3.9-2.4,7.9-3.6,11.9c-0.1,0.4-0.1,1.1,0.1,1.2c0.3,0.2,1,0.2,1.3,0C41.9,35.6,44.2,31,43.3,23z
	 M231.6,6.9c-1.7,4.3-2.7,8.3-4.8,11.6c-1.5,2.4-1.8,4.7-1.6,7.3c0.1,1,0.5,2,0.8,3c0.9-0.5,2.1-0.8,2.8-1.6c1.6-1.8,2.5-4,3-6.4
	c0.2-0.9,0-2.1,0.4-2.8C234.3,14.3,232.8,11,231.6,6.9z M336.5,36.1c0.1,0,0.1,0,0.2,0c0,0.8-0.1,1.6,0,2.4c0.1,0.6,0.3,1.2,0.5,1.8
	c0.7-0.2,1.5-0.3,2-0.8c4.1-3.4,5.9-8.3,7.8-13c0.1-0.3-0.1-1.1-0.4-1.3c-0.4-0.2-1.1-0.3-1.6-0.1c-1.4,0.7-2.8,2.2-4.2,2.2
	c-2.7,0-3.2,1.6-3.6,3.5C336.9,32.6,336.7,34.3,336.5,36.1z M277.6,42.8c-1.1,2.4-2.1,4.3-2.8,6.4c-0.3,1.1-0.4,2.8,0.2,3.7
	c1.2,2,2.9,3.9,4.6,5.5c0.4,0.4,2.1,0.3,2.4-0.2c0.9-1.3,1.6-2.8,2-4.3c0.2-0.6,0-1.9-0.5-2.2C280.5,49.8,280.2,46.1,277.6,42.8z
	 M289.7,16c-1.8,1.4-1.4,4.8-4.6,4.9c-0.1,0-0.4,1-0.3,1.3c0.5,1.3,1.2,2.6,1.9,3.9c1.4,2.6,4.2,3.7,6.9,2.8
	c0.5-0.2,1.3-1.2,1.2-1.7C293.8,23.2,294.3,18.4,289.7,16z M34.5,23.1c-0.2-0.2-0.5-0.6-0.8-0.8c-3.4-2.1-7.5-1-9.1,2.5
	c-1.1,2.3-2,4.7-2.9,7c-0.2,0.5,0.1,1.2,0.4,1.7c0.1,0.2,0.9,0.1,1.3-0.1C28,31.5,31.1,28,34,24.1C34.2,23.9,34.3,23.5,34.5,23.1z
	 M49.3,80.1c-1.3,3.7-2.2,6.4-3.1,9.1c-0.2,0.6-0.3,1.3-0.1,1.8c1.6,3.5,3.2,7.1,6.9,10c-0.6-5.4-1.4-10.3,0-15.2
	c0.2-0.6-0.4-1.5-0.9-2.1C51.5,82.7,50.6,81.7,49.3,80.1z M47.3,107.4c-0.8,1.6-1.2,2.5-1.7,3.3c-1.8,3.2-3.5,6.4-1.2,10.3
	c0.6,1,0.3,2.5,0.3,3.8c0,1.6,0.6,2.7,2.2,3.3c1.1,0.4,2.1,1,4,1.8c-2.4-4.7-2.6-8.8-2.4-13c0.1-1.4,0.1-2.9,0-4.3
	C48.3,111.1,47.8,109.6,47.3,107.4z M305.2,35.5c-0.6,0.8-1,1.7-1.6,2.3c-3,3.2-3.2,6.4-0.5,9.5c0.9,1.1,1.9,2.1,3.1,3
	c0.4,0.3,1.7,0.1,1.8-0.2c1.4-3.5,2.4-7-0.1-10.4C307,38.5,306.2,37.1,305.2,35.5z M135.5,29.1c-1.3-0.5-1.9-0.7-2.4-0.9
	c-2.3-0.9-2.7-1.3-1.4-3.3c1.3-2,3.1-3.6,4.8-5.3c0.8-0.8,2.1-1.2,2.6-2.1c0.4-0.8,0.3-2.2-0.1-3c-0.6-1.1-2-1.1-2.9-0.3
	c-1.2,1.1-2.4,2.3-3,3.7c-2.2,4.6-4.1,9.4-6.1,14.1c-0.1,0.3,0,1,0.2,1.2c0.3,0.2,0.9,0.3,1.3,0.1C130.5,32,132.6,30.8,135.5,29.1z
	 M23.1,50.2c1.4-1.9,2.3-3,3.1-4.2c2.1-3.1,5.1-5.9,4.8-10.1c-0.1-1.2-0.5-2.4-0.7-3.6c-1,0.5-1.9,1.2-2.9,1.4
	c-1.9,0.4-2.6,1.7-3,3.3c-0.6,2.3-1.1,4.6-1.7,6.9C22.3,45.7,22.2,47.3,23.1,50.2z M41.9,114c0.5-1.3,0.6-1.9,0.9-2.5
	c2.7-4.6,4.8-9.3,2-14.7c-0.4-0.8-0.3-2-0.4-3c-0.6,2.8-1.9,5.1-3.9,7.1c-0.7,0.6-1.6,1.7-1.4,2.3C39.8,106.6,39.2,110.2,41.9,114z
	 M205.7,19.8c0.1-3.7-1.1-4.5-3.9-3.3c-1.7,0.7-3.3,3.1-2.6,4.9c1.5,4.4,2.7,8.9,5.7,12.6c0.9,1.2,1.8,0.6,2.3-0.3
	c1.1-1.9,0.4-3.5-1.8-4.8c-2.5-1.6-2.7-2.2-1.4-5C204.6,22.3,205.3,20.7,205.7,19.8z M183,23.9c2-2.9,4-5.7,5.9-8.5
	c0.3-0.5,0.9-1.3,0.7-1.6c-1.1-1.9-2.3-3.8-3.7-5.5c-0.6-0.8-1.9-0.6-2.3,0.5c-0.7,1.9-1.7,3.9-1.9,5.9
	C181.4,17.7,180.6,21,183,23.9z M79,47.4c0.8-0.7,1.3-1.1,1.6-1.6c2.8-4.5,1.9-9.2,0.6-13.8c-0.1-0.3-1.1-0.6-1.5-0.4
	c-1.1,0.3-2,1-3,1.4c-1.6,0.7-2,1.6-1.3,3.4C76.7,39.9,77.8,43.5,79,47.4z M19.6,17.4c-1-1.1-1.5-1.7-2-2.3
	c-1.6-2.2-1.6-2.6,1.1-3.6c2.7-1.1,5.4-2,8.1-3.1c0.4-0.2,0.6-0.9,0.9-1.4c-0.5-0.3-1.1-0.9-1.6-0.8c-1.7,0.1-3.5,0.8-5.2,0.7
	c-3.2-0.2-6,1.1-8.8,2.1c-0.4,0.2-0.9,1.2-0.8,1.7C12,14.6,14.7,16.5,19.6,17.4z M133.9,39c7-1.5,11.6-4.6,14.2-10.4
	c0.2-0.5,0.2-1.4-0.2-1.7c-0.3-0.3-1.1-0.1-1.7,0C140.3,28.5,136.9,33,133.9,39z M313.8,30.3c-0.6,1.3-1.2,2.3-1.7,3.3
	c-2.5,5-1.5,9.8,2.9,13.1c0.4,0.3,1.1,0.6,1.2,0.5c0.4-0.3,0.8-0.9,0.9-1.5c0.6-5-1.4-9.6-2.3-14.4C314.8,31,314.4,30.9,313.8,30.3z
	 M46.6,65.4c-0.2-0.6-0.2-1.8-0.7-2.4c-0.7-0.8-2-2.2-3.1-0.8c-1.1,1.3-1.9,2.1-3.6,1.1c-0.1-0.1-0.8,0.5-0.7,0.7
	c0.5,3.5,1,7,1.5,10.4c0.1,0.3,1.2,0.8,1.3,0.7C44,72.6,46.5,69.8,46.6,65.4z M53.4,59.8c-0.7-2-1.4-3.6-1.7-5.3
	c-0.7-3.7-2.7-5.6-6.9-5.2c0,1.2,0,2.4,0,3.7C44.8,60.5,44.8,60.5,53.4,59.8z M233.9,546.2c-2.6-4.4-4.9-8-8.4-10.5
	c-1.9-1.4-3.1-0.9-3.3,1.3c-0.2,1.7-0.2,3.5,0.1,5.3c0.1,0.7,1,1.6,1.7,1.8C226.9,544.8,229.9,545.4,233.9,546.2z M263.7,52
	c-0.2-0.1-0.4-0.1-0.6-0.2c-1.5,3.6-3,7.3-4.3,10.9c-0.9,2.4-0.4,3.4,1.7,4.8c2,1.3,2.8,1.1,3.4-1.1c0.5-1.8,1-3.7,1-5.6
	C264.7,57.9,264.1,54.9,263.7,52z M36.6,103.7c-1.9,1.8-4.2,3-4.7,4.7c-1.1,3.6-2.2,7.4-1.5,11.6c4-2.4,5.6-6.1,7-9.8
	C38,108.5,37,106.2,36.6,103.7z M4.3,8.3c-2.7,4.3-2.4,8.8-2.2,13.3c0.1,1.5,0.9,3,1.4,4.5c0.1,0.2,0.5,0.6,0.7,0.5
	c0.4-0.1,1.1-0.4,1.1-0.7c0.1-0.9,0.2-1.9-0.1-2.7c-1.4-3.2-1.4-3.1,0.9-5.6c1.2-1.3,2.4-2.6,3.4-4c0.2-0.3-0.4-1.5-0.5-1.5
	C5.6,13.3,6,9.6,4.3,8.3z M77,524.2c-1.8,0.6-3.3,0.7-4.4,1.5c-3,2-5.9,4.4-8.9,6.5c-1,0.7-2.1,1.3-1.1,2.6c0.9,1.2,1.9,0.2,2.9-0.3
	c2.3-1.4,4.7-2.6,7.1-3.8c1.7-0.9,3.5-1.7,5.1-2.7c0.4-0.3,0.5-1.4,0.4-2.1C78,525.2,77.3,524.7,77,524.2z M266.1,44.8
	c-1,5.3,1,9.4,3.2,13.3c0.2,0.4,0.8,0.7,1.2,0.7c0.3,0,0.9-0.5,0.9-0.8c0.4-2.9,0.8-5.7,1.1-8.6c0.1-1.1-0.5-1.9-1.7-1.8
	C268.8,47.8,267.2,47,266.1,44.8z M275.9,5.3c-1,3.9-2.1,7.6-3,11.4c-0.3,1.2-0.2,2.5-0.1,3.8c0,0.5,0.5,1.4,0.8,1.4
	c0.5,0,1.2-0.4,1.6-0.8C278.7,17.4,280.2,9.9,275.9,5.3z M170,54.6c1.4-3.7,2.5-6.5,3.6-9.3c1.5-4.1,1.5-4.2-1.5-7.5
	C167.7,42.5,167.5,47.9,170,54.6z M12.3,27.8c8.2,0.5,9.4-0.3,11.2-5.8c0.3-1.1,1-2.1-0.2-3c-1.3-0.9-2.4-0.6-3.4,0.5
	C17.6,22.1,15.2,24.6,12.3,27.8z M306.5,28.3c0,0,0.1,0,0.1,0c0,0.5,0,1,0,1.4c0.2,1.7-0.6,3.6,1.4,4.8c1.1-1.3,2.2-2.6,3.1-4.1
	c0.4-0.6,0.1-1.6,0.4-2.3c1.2-2.6-0.1-4.3-1.8-5.9c-1.1-1.1-2.7-0.7-2.9,0.8C306.5,24.8,306.6,26.5,306.5,28.3z M16.6,19.2
	c-1.6-1-3-1.9-4.4-2.6c-0.5-0.3-1.4-0.6-1.6-0.3c-1.5,1.4-2.9,3-4.3,4.5c1.5,1,3,2.1,4.6,3.1c1.3,0.8,2.5,0.2,3.3-1
	C15,21.8,15.7,20.7,16.6,19.2z M60.6,119.9c-3.4-2.5-6.4-4.8-10.1-7.4c0,2.6-0.1,4.7,0.1,6.7c0.1,0.7,1,1.9,1.6,1.9
	C55,121.1,58,121.8,60.6,119.9z M72.5,35.4c-0.8,1.9-1.1,4-2.3,5.3c-1.8,1.9-1.9,3.3-0.5,5.4c0.8,1.1,1.1,2.6,1.8,4.2
	C75.1,45.3,75.1,40.5,72.5,35.4z M178.2,20.5c-2.2,3.9-2.6,6.6-1.4,11.2c0.3,1,1.3,1.9,2,2.9c1-2.4,1.9-4.3,2.7-6.2
	c0.2-0.5,0.3-1.2,0-1.6C180.6,24.9,179.5,22.9,178.2,20.5z M61.6,128.5c-0.5-4-3.1-5.9-6.6-5.1c-0.8,0.2-1.5,0.5-2.3,0.8
	c-1.2,0.5-1.5,1.8-0.7,2.7c1.1,1.3,7,3,8.5,2.4C61,129.1,61.4,128.7,61.6,128.5z M44.9,540.8c3.4,0.4,6.2,0.8,9.1,1.1
	c1.4,0.1,2.3-0.8,2.1-2c-0.2-1.2-0.9-2.4-1.5-3.5c-0.1-0.3-0.9-0.5-1.2-0.3C50.7,537.6,47.1,537.5,44.9,540.8z M28.3,66.9
	c0.2,0.2,0.4,0.5,0.5,0.7c1.4-0.7,2.8-1.3,4.1-2.2c0.9-0.6,1.6-1.7,2.9-1.1c0.1,0,0.7-0.5,0.7-0.7c-0.1-0.8-0.5-1.5-0.7-2.3
	c-0.4-1.4-1.3-2.1-2.8-2.2c-1.5-0.1-1.7,0.9-2.2,2.1C30.2,63.2,29.2,65,28.3,66.9z M30.9,83.4c6.1-3.3,8.1-5.8,6.3-14.1
	C35.1,73.9,33.2,78.2,30.9,83.4z M54.2,40.2c4-4.4,4-4.4,3-8.6c-0.3-1.2-0.9-1.5-2-1.5c-1.1,0-1.9,0.5-1.8,1.7
	C53.7,34.6,54,37.4,54.2,40.2z M30.6,52.1c0.4,0,0.7,0.1,1.1,0.1c0.7-2.9,1.5-5.8,2.2-8.7c0.1-0.4-0.4-1.3-0.8-1.5
	c-0.4-0.2-1.4,0-1.7,0.4c-1.3,1.8-2.9,3.5-1.8,6.1C30.1,49.6,30.3,50.9,30.6,52.1z M323.5,41.3c1.6,0,2.5-1.3,1.8-2.9
	c-0.6-1.4-1.6-2.6-2.4-4c-1,1.1-2.1,2.2-3,3.4c-0.8,1-0.4,1.9,0.6,2.4C321.3,40.7,322.5,41,323.5,41.3z M180.2,10.6
	c1-1.8,1.6-3.5,2.8-4.7c2-2,0.1-2.7-0.9-3.8c-1.5-1.7-2.1,0.1-3,0.8c-1.1,0.8-1.1,1.5-0.3,2.8C179.5,7,179.6,8.6,180.2,10.6z
	 M137.3,11.1c1.3,0.5,2.6,0.8,3.4-0.6c1.3-2.6,2.9-5,4.1-8.9c-2,1.3-3.5,1.8-4.1,2.8C139.3,6.5,138.4,8.8,137.3,11.1z M42.8,55.5
	c-0.2-0.6-0.3-1.4-0.7-1.6c-0.3-0.2-1.2,0.1-1.6,0.5c-1,0.8-1.8,1.9-2.9,2.5c-1.5,0.8-1.2,1.4-0.2,2.4c2.4,2.4,3.5,2.2,4.7-0.9
	C42.5,57.4,42.6,56.5,42.8,55.5z M295.5,19.4c0.7-0.5,1.1-0.6,1.1-0.9c0.3-0.9,0.3-1.9,0.7-2.8c0.9-2,2-4,2.8-6
	c0.2-0.6-0.1-1.4-0.2-2.1c-0.6,0.2-1.5,0.3-1.8,0.7c-1.4,2.5-2.8,5-3.8,7.7C294.1,16.8,295,18.1,295.5,19.4z M156.2,538.7
	c0.1,0,0.2-0.1,0.3-0.1c-0.5-2.3-0.9-4.6-1.5-6.9c-0.1-0.3-0.7-0.5-1-0.7c-0.2,0.4-0.7,0.8-0.6,1.2c0.5,2.5,1.1,4.9,1.8,7.4
	c0.3,1.2-1.6,3.3,0.9,3.3c1.2,0-0.3-2,0.1-3.2C156.3,539.4,156.2,539,156.2,538.7z M207.2,6.2c-1.2,2.9-2.4,5.5-0.5,8.3
	c0.6,0.9,1.3,1.1,1.8,0c0.4-0.9,0.6-2.1,0.4-3.1C208.6,9.7,207.9,8.1,207.2,6.2z M127.8,22.7c1.1-1.9,2.1-3.7,2.9-5.1
	c-1.5-0.6-2.7-1.2-3.9-1.6c-0.5-0.2-1.3,0-1.6,0.3c-0.3,0.3-0.1,1.1,0.1,1.6C126,19.5,126.8,21,127.8,22.7z M363.9,26.6
	c-0.4,1.4-0.9,2.8-1.2,4.1c-0.2,0.7-0.5,1.6-0.2,2.1c0.4,0.5,1.3,1,2,0.9c1.4-0.1,0.3-1.2,0.5-1.8c0.2-0.6,0.5-1.2,0.7-1.8
	C366.6,27.8,366.6,27.8,363.9,26.6z M98.8,20.9c-4,2.3-4,2.3-2.2,6.2C97.3,25.2,98,23.1,98.8,20.9z M152.3,12.4c2.2,0,3.7,0,6.1,0
	c-1.6-1.4-2.7-2.3-3.7-3.2C154,10.1,153.3,11,152.3,12.4z M68.6,555.4c0.5,0.7,0.8,1.3,1.2,1.8c0.6-0.6,1.7-1.2,1.7-1.7
	c0-0.8-0.9-1.5-1.4-2.2C69.6,553.9,69.1,554.6,68.6,555.4z M216.9,531.3c-0.1,0.1-0.3,0.2-0.4,0.3c0,1.3-0.1,2.6,0.1,3.8
	c0.1,0.6,0.7,1.1,1.1,1.7c0.1-0.7,0.4-1.5,0.3-2.2C217.7,533.6,217.2,532.5,216.9,531.3z M311.4,18.2c-1.5-1.2-2.2-1.8-3-2.4
	c-0.3,0.5-0.7,1-0.8,1.5c-0.2,1.1,0.1,1.9,1.5,1.5C309.5,18.7,310,18.6,311.4,18.2z M194.6,519.3c0.4,0,0.8,0.1,1.2,0.1
	c0-1.1,0.1-2.2,0-3.2c0-0.3-0.6-0.5-1-0.7c-0.1,0-0.5,0.5-0.5,0.7C194.3,517.2,194.5,518.3,194.6,519.3z M247.3,11.4
	c-0.2,0.1-0.3,0.1-0.5,0.2c0,1.7,0,3.5,0,5.2c0.3,0,0.6,0,0.9-0.1C247.5,14.9,247.4,13.1,247.3,11.4z M150.2,524.3
	c0.4,0.7,0.8,1.4,1.2,2.1c0.3-0.3,0.8-0.7,0.7-1c-0.3-1-0.8-1.9-1.3-2.9C150.7,523,150.5,523.5,150.2,524.3z M8.9,28.3
	c0.6-0.7,1-1.2,1.4-1.6c-0.6-0.4-1.1-1-1.8-1.2c-0.3-0.1-0.8,0.7-1.3,1.1C7.8,27.2,8.3,27.7,8.9,28.3z M166.7,5.3
	c0.4,0.7,0.8,1.4,1.2,2.1c0.3-0.3,0.8-0.7,0.7-1c-0.3-1-0.8-1.9-1.3-2.9C167.2,4.1,167,4.6,166.7,5.3z M247.5,5.5
	c-0.4-0.5-0.6-0.8-0.9-1.1c-0.4,0.7-0.8,1.3-1,2c-0.1,0.2,0.5,0.6,0.8,1C246.8,6.8,247.1,6.2,247.5,5.5z M53.9,12.2
	c-0.2-0.2-0.4-0.4-0.7-0.6c-0.9,0.9-1.9,1.9-2.8,2.8c1.1,0.2,1.7-0.2,2.2-0.7C53.1,13.3,53.5,12.7,53.9,12.2z M193.1,512.9
	c-0.2-0.1-0.4-0.1-0.6-0.2c-0.4,0.8-0.9,1.5-1.1,2.4c-0.1,0.4,0.1,0.9,0.2,1.3c0.3-0.3,0.7-0.6,0.8-1
	C192.6,514.6,192.8,513.7,193.1,512.9z M153.5,539.8c-0.5-0.7-0.9-1.3-1.3-1.9c-0.2,0.3-0.7,0.7-0.7,0.8c0.2,0.7,0.7,1.2,1,1.9
	C152.8,540.4,153.1,540.2,153.5,539.8z M67.2,545.6c-0.5-0.7-0.9-1.3-1.3-1.8c-0.2,0.3-0.7,0.6-0.7,0.8c0.2,0.7,0.7,1.3,1,1.9
	C66.5,546.2,66.7,546,67.2,545.6z M344.4,18.2c-0.2-0.6-0.3-0.9-0.5-1.2c-0.4,0.4-0.9,0.8-1.2,1.3c-0.1,0.1,0.3,0.5,0.4,0.8
	C343.6,18.8,344.1,18.5,344.4,18.2z M33.1,30.6c0.2-0.5,0.5-1,0.7-1.5c0,0-0.5-0.3-0.5-0.3c-0.3,0.4-0.6,0.9-0.9,1.4
	C32.5,30.2,32.7,30.3,33.1,30.6z M150.4,536.3c-0.1-0.6-0.2-0.9-0.3-1.2c-0.3,0.4-0.7,0.7-1,1.1c-0.1,0.2,0.1,0.5,0.1,0.7
	C149.6,536.8,150,536.5,150.4,536.3z M69.2,521.2c0,0.8-0.1,1.2,0,1.6c0,0,0.4,0,0.6,0.1c0-0.3,0.1-0.6,0-0.9
	C69.7,521.8,69.5,521.7,69.2,521.2z M69.8,546.5c-0.1-0.3-0.2-0.5-0.3-0.8c-0.2,0.2-0.4,0.5-0.4,0.7c0,0.3,0.3,0.6,0.4,1
	C69.6,547.1,69.7,546.8,69.8,546.5z M118.2,18.3c-0.2-0.1-0.6-0.3-0.7-0.2c-0.2,0.1-0.3,0.5-0.5,0.8c0.3,0.1,0.6,0.3,0.8,0.2
	C117.9,19,118,18.6,118.2,18.3z M83.3,29.1c-0.1-0.1-0.2-0.3-0.2-0.4c-0.1,0.1-0.2,0.1-0.3,0.2c0.1,0.2,0.3,0.4,0.4,0.6
	C83.2,29.4,83.2,29.2,83.3,29.1z M150,518.6c-0.1,0-0.3,0-0.3,0.1c-0.1,0.1,0,0.3-0.1,0.5c0.2,0,0.4-0.1,0.6-0.1
	C150.1,518.9,150.1,518.7,150,518.6z"/>
<path d="M497.7,0c-0.7,0.6-1.4,1.7-2.1,1.7c-3.3,0.1-5.4,1.4-5.8,4.9c-0.1,0.5-0.3,0.9-0.5,1.4c-0.6,1.4-1.3,2.4-2.8,0.9
	c-1.2-1.2-2.3-1.1-3.1,0.3c-1,1.8-1.8,1.5-2.7-0.1c-0.2-0.4-0.7-0.6-0.7-0.6c-3.2,4.1-6.3,8.2-9.4,12.2c-0.4,0.5-1.5,1.2-1.9,1
	c-0.6-0.2-1.1-1.2-1.1-1.9c-0.1-1.6-0.2-3.2-1.6-4.4c-0.9-0.7-1.6-0.9-2.3,0.2c-0.8,1.2-1.6,2.5-2.6,3.5c-1.7,1.6-3.2,1.4-4.2-0.7
	c-0.5-1.1-0.8-2.4-1-3.7c-0.1-0.8,0-1.6,0-2.4c0-0.6-0.1-1.3-0.1-2.1c-1.4,1.5-2.6,3-4,4.2c-2,1.8-3,1.6-4.8-0.3
	c-0.4-0.5-0.8-1.1-1.3-1.4c-0.4-0.3-1.1-0.3-1.6-0.1c-0.4,0.1-0.8,0.6-1.1,1c-3,4-6.9,5.7-11.8,5c-0.3,0-0.6,0.2-1.2,0.5
	c1.8,1.6,3.6,3.1,5.9,5.1c-2.1,0.1-3.3,0.2-4.6,0.3c-1,0-2-0.1-2.9,0.1c-1.3,0.3-2.6,1.4-3.9,1.3c-0.8-0.1-1.6-1.6-3-3.1
	c1.5,4,2.6,7.1,3.8,10.1c0.6,1.5,0.1,2.7-0.8,3.4c-0.5,0.4-1.8,0.1-2.6-0.2c-2.4-0.9-4.8-1.8-7.1-2.9c-2-1-2.2-1-3.1,1
	c-0.3,0.6-0.4,1.2-0.5,1.9c-0.9,3.9-4.2,4.6-7.3,5.4c-1.6,0.4-2.6-1.1-3.1-2.5c-0.3-0.9-0.2-1.9-0.2-2.9c0-1.5-0.6-2.5-1.9-3
	c-0.7-0.3-1.5-0.6-2.2-1.1c-3.3-2-4.5-1.8-6.6,1c-0.4,0.5-1.5,1-2,0.8c-2.3-1-4.7-1.8-6.2-4.3c-1.4-2.3-1.8-4.3-0.9-6.8
	c0.5-1.3,0.4-2.9,0.2-4.3c0-0.6-0.6-1.6-1.2-1.7c-4.6-1.3-6.9-5.1-9.3-8.7c-0.1-0.1-0.1-0.3-0.2-0.4c-0.7-1.2-2.7-6.5-2.8-7.5
	c1,0,1.9,0,2.9,0c0.4,5.8,3.2,10.2,8.1,13.4c1.5,0.9,2.3,0.5,2.5-1.2c0.2-1.6-0.3-3.7,0.5-4.6c2.2-2.6,1.6-5,0.6-7.5
	c1.3,0,2.6,0,3.9,0c1.1,3,1.3,3.1,3.1,1.2c0.3-0.3,0.5-0.8,0.8-1.2c0.6,0,1.3,0,1.9,0c-0.1,0.6-0.1,1.1-0.2,1.7c0.5,0,0.9,0,1.4,0
	c-0.1-0.6-0.2-1.1-0.2-1.7c1,0,1.9,0,2.9,0c2.7,3.8,6.4,6.2,10.5,8.1c5.1,2.3,8.4-0.3,7.8-5.8c-0.1-0.8-0.5-1.5-0.8-2.2
	c1.9,0,3.9,0,5.8,0c0.5,0.6,1,1.4,1.7,1.6c2.2,0.6,4.4,1.1,6.6,1.2c2.4,0,4.7-0.5,7.1-0.9c0.2,0,0.2-1.2,0.2-1.8c1.3,0,2.6,0,3.9,0
	c0.2,0.9,0.4,2.4,0.7,2.5c1,0.1,2.1-0.2,3.1-0.6c0.8-0.4,1.4-1.2,2-1.9c1.9,0,3.9,0,5.8,0c1.8,3.2,5.5,4.2,8.2,6.3
	c1.2,1,2.3,0.2,2.4-1.6c0.1-1.6,0-3.2,0-4.8c1.3,0,2.6,0,3.9,0c0,3.6,0,7.3,0.1,10.9c0,0.5,0.5,1.3,1,1.4c0.4,0.2,1.2-0.1,1.6-0.5
	c0.9-0.8,1.6-2.4,2.6-2.7c3.1-0.7,4-3.4,5.5-5.6c0.9-1.3,0.5-2.4-0.1-3.6c1,0,1.9,0,2.9,0c-0.5,2.4,1.4,3.7,2.4,5.4
	c0.9,1.6,2,1.5,2.6-0.1c0.7-1.7,1.2-3.5,1.8-5.3c0.6,0,1.3,0,1.9,0c-0.9,2.2-1.8,4.3,0.7,6.9c0.5-2.6,0.8-4.7,1.2-6.9
	C491.8,0,494.7,0,497.7,0z M431.3,16.7c4.5-0.3,4.8-0.5,8.2-3.6c1-1,2.2-1.9,3.4-2.7c2.4-1.6,2.8-2.4,2.4-5
	c-0.2-0.9-0.6-1.5-1.6-1.1c-2.9,1-5.8,1.9-8.6-0.1C434.7,4,434.3,4,434,4c-3.2,0.3-6.4,0.5-9.5,0.9c-1.5,0.2-3.6,3.7-2.7,4.8
	c1.5,2.1,3.1,4.2,5,5.8C427.9,16.5,429.8,16.4,431.3,16.7z M385.6,4.1c-0.3,2.2-0.5,3.9-0.9,5.6c-0.5,1.9-0.7,3.6,0.6,5.5
	c1.3,2,2.5,3.6,5.3,3.3c0.8-0.1,1.8,0.6,2.7,1c2.2,0.9,3,0.3,2.5-2.1C394.6,11.4,391,7.2,385.6,4.1z M390.5,3.7
	c0.2,0.9,0.2,1.2,0.3,1.4c2.6,2.7,5.2,5.2,6.4,8.9c0.2,0.7,1.4,1.1,2.2,1.5c1,0.4,2.3,0.4,3.2,1c1.9,1.3,3.7,0.6,5.5,0
	c1.4-0.5,1.4-1.4,0.5-2.1c-3.7-2.8-7.4-5.7-11.3-8.1C395.3,5,392.9,4.6,390.5,3.7z M404.1,38.5c2.1,0.1,4.7-1.5,5.3-3.1
	c0.8-2.1,1.6-4.2,2.4-6.3c0.1-0.3,0.3-0.6,0.4-0.9c0.5-1.9-0.6-4.4-2.6-5.2c-1.9-0.7-2.2,1.2-3,2.3c-2.6,3.3-1.8,7.7-3.6,11.2
	C402.7,37,403.7,38,404.1,38.5z M430,22.1c-1.3-1.6-2.4-3.2-3.8-4.6c-1.8-2-3.7-4-5.8-5.8c-1-0.8-2.5-1-3.7-1.5
	c0.2,1.1,0.3,2.1,0.5,3.2c0.3,1.2,0.8,2.5,0.8,3.7c0,2.2,1.3,3.3,3.1,3.7C424,21.5,426.9,22.9,430,22.1z M399.2,17
	c-0.8,5.2-0.8,5.2-4.6,5.3c-0.7,0-1.4,0.2-2.4,0.3c0.6,0.9,1.2,1.3,1.3,1.9c0.9,3.7,3.7,5.4,6.8,6.7c1.7,0.7,2.4,0.4,2.2-1.6
	c-0.2-2.8-0.6-5.7-1.1-8.5C401.2,20.1,400.3,19,399.2,17z M383.2,17.3c0,3-0.1,5.2,0,7.4c0.1,1.4,0.3,3,1.1,4.1
	c0.7,1,2.2,1.7,3.5,1.9c0.5,0.1,1.6-1.5,1.8-2.4c0.3-1.9,0.6-3.9,0-5.7c-0.3-1-2.1-1.6-3.2-2.5C385.7,19.5,384.9,18.7,383.2,17.3z
	 M419.3,23.5c-1.6,1.5-2.7,2.7-3.9,3.6c-1.4,1.1-1.4,2.3-0.2,3.2c1.7,1.3,3.7,2.5,5.7,3.4c1.5,0.7,2.5-0.4,1.9-2
	C421.7,29,420.5,26.4,419.3,23.5z M409.7,11.8c0.7,1.3,1.2,2.2,1.8,3.1c0.8,1.3,1,2.5-0.5,3.2c-2.2,1.1-1.2,2.2,0,3.2
	c1,0.8,2,1.6,3.1,2.2c1.4,0.8,2.1,0.4,2-1.2c-0.1-1.2-0.4-2.5-0.8-3.7c-0.6-1.5-1.3-2.8-0.4-4.5c0.7-1.3-0.4-2.2-1.6-2.4
	C412.2,11.6,411.1,11.8,409.7,11.8z M447.8,1.5c0.1,2.5,0.2,5.1,0.5,7.5c0.2,1.3,0.7,2.6,1.1,4c1.1-0.8,2.2-1.7,3.2-2.5
	c0.1-0.1,0.2-0.3,0.3-0.4c2.1-3.3,2.1-3.6-1.2-5.9C450.3,3.3,449,2.4,447.8,1.5z M457.9,13.6c0.3,1.4-0.7,3.4,1.5,4.4
	c0.9-1.3,1.9-2.5,2.5-3.9c0.5-1.1,0.6-2.4,0.8-3.7c0-0.3-0.3-0.9-0.6-1.1C460,8,458,9,457.9,11.4C457.9,12,457.9,12.7,457.9,13.6z
	 M416.3,1.2c0,1.8-0.2,3.3,0.1,4.6c0.2,0.7,1.2,1.6,1.9,1.7c0.6,0.1,1.5-0.8,2-1.5c0.9-1.1,0.5-2-0.7-2.7
	C418.8,2.7,417.8,2.2,416.3,1.2z M471.4,10.7c-3.3,3.3-3.3,3.3-1.2,8C472.1,16.5,471.4,13.9,471.4,10.7z M473.9,13.8
	c1.6-2.7,2.9-4.6,4.1-6.6c0.1-0.2-0.1-0.8-0.2-0.8c-0.4-0.1-1.1-0.2-1.2,0C475.1,8.3,472.9,10,473.9,13.8z M404,23.9
	c0.3,0,0.6,0.1,1,0.1c0.5-1,1.1-1.9,1.4-3c0.1-0.4-0.6-1.4-0.8-1.4c-0.6,0.2-1.6,0.6-1.7,1C403.6,21.7,403.9,22.8,404,23.9z"/>
<path d="M505.4,0c-1.5,2.1-1.5,2.1-2.9,0C503.5,0,504.4,0,505.4,0z"/>
</svg>
