<?xml version="1.0" encoding="utf-8"?>
<!-- Generator: Adobe Illustrator 18.0.0, SVG Export Plug-In . SVG Version: 6.00 Build 0)  -->
<!DOCTYPE svg PUBLIC "-//W3C//DTD SVG 1.1//EN" "http://www.w3.org/Graphics/SVG/1.1/DTD/svg11.dtd">
<svg version="1.1" id="Layer_1" xmlns="http://www.w3.org/2000/svg" xmlns:xlink="http://www.w3.org/1999/xlink" x="0px" y="0px"
	 viewBox="0 0 573.9 567.1" enable-background="new 0 0 573.9 567.1" xml:space="preserve">
<g>
	<g>
		<path d="M62.7,522.8c-0.5-1.8-1-3.6-1.6-5.3c2.6-0.5,3.2,2.2,4.8,3.2c0.4,0.2,0.8,0.4,1.2,0.6c0.4-2.6,0.7-5.1,1.2-7.6
			c0.1-0.5,0.8-0.8,1.2-1.2c0.3,0.5,0.8,1,0.9,1.5c0.2,1.2,0.3,2.5,0.5,4.3c4.6-3.2,9.1-5.5,12.5-9.5c3.2-3.7,4.6-8.3,5.2-12.7
			c0.6-4.5,2.4-8.7,2.7-13.1c0.3-3.7,0.3-7.4,0.1-11.1c-0.3-4.8-1.2-9.5-1.6-14.3c-0.4-5.9-0.6-11.9-0.7-17.8c0-2.4,0.5-4.8,0.7-7.2
			c0.4-4.3,0.9-8.6,0.9-13c0.1-16-0.1-32,0-48c0.1-9,0.2-18.1,1.2-27c0.6-5.6,1.2-11.3,0.5-16.8c-1.3-10.2-0.4-20.3-0.8-30.4
			c-0.1-3.5-0.4-7.2,0.1-10.7c1.3-9.3,0.2-18.7,1.1-28c0.7-7.4,0.5-14.8,0.8-22.2c0-1.3,0.4-2.5,0.5-3.8c0.1-2.9,0.1-5.7,0-8.6
			c0-0.8-0.4-1.6-0.4-2.3c-0.4-6.9-0.6-13.8-1-20.7c-0.2-2.9-0.8-5.7-1-8.6c-0.3-6.9,0.6-13.8,2-20.6c1.6-7.6,1.5-15.3,2.1-23
			c0.5-7.5,0-15.1,2.4-22.4c0.6-1.8,1.6-4.4-1.7-5.7c-0.7-0.3-0.6-2.6-0.9-4c-0.2-0.9-0.6-1.5-1.6-1.1c-0.6,0.2-1.2,0.5-1.8,0.5
			c-1.6-0.1-2.7-1.5-2.2-3c0.3-0.9,0.8-1.8,1.3-2.6c0.8-1.6,1.9-3-0.7-4.3c-1.2-0.6-1-1.9,0.4-2.6c1.3-0.6,2.5-1.3,3.7-2
			c0.1-0.1,0.3-0.1,0.4-0.2c0.1-0.1,0.1-0.2,0.1-0.3c-0.2,0.2-0.3,0.3-0.5,0.5c-0.6,0-1.3,0.1-1.9,0c-1.8,0-2.2-1-1.7-2.5
			c1-3,2.1-6.1,3.1-9.1c0.2-0.7,0.3-1.5,0.7-3.3c-2.3,2.3-3.8,3.8-5.5,5.2c-0.6,0.5-1.9,1-2.5,0.7c-0.6-0.3-1-1.6-0.9-2.5
			c0.3-2.2,0.8-4.3,1.4-7.1c-1.5,1.1-2.5,2-3.6,2.7c-1.4,0.9-2.4,0.3-2.7-1.4c0-0.2,0-0.3,0-0.5c-0.2-1.7,0.2-4.1-0.8-5
			c-1.2-1.1-3.6-1.2-5.4-1.1c-1.3,0.1-2.6,1-3.8,1.8c-1.6,1-3,1-4.3-0.5c-1.4-1.6-1.5-2.5-0.1-4.2c0.5-0.6,1.1-1.1,1.7-1.7
			c1.6-1.7,1.6-1.7,0.6-4.9c-0.2,0-0.3,0-0.5,0.1c-1.6,0.6-3.2,1.2-4.9,1.8c-1.2-2,0.6-3.5,0.8-5.8c-0.9,0.5-1.6,1.1-2.4,1.3
			c-1.4,0.5-2.3-0.1-2.2-1.6c0.1-1.6,0.5-3.1,0.8-4.7c0.4-2,0.8-4.1,1.2-6.1c0.1-0.1,0.3-0.1,0.4-0.2c0.1-0.1,0.1-0.2,0.1-0.3
			c-0.2,0.2-0.3,0.3-0.5,0.5c-1.3,0.6-2.5,1.5-3.9,1.8c-1,0.2-2.3-0.1-3.1-0.7c-0.4-0.3-0.3-1.7-0.1-2.5c0.5-2.2,1.2-4.3,1.8-6.5
			c0.4-1.4-0.6-2-1.5-1.5c-3,1.5-5.3,0.5-7.1-1.9c-1.7,1.3-3.1,2.7-4.7,3.7c-2.6,1.6-3.6,1.1-4.2-2.1c-0.1-0.6-0.2-1.3,0-1.8
			c0.7-1.7,0.5-2.7-1.6-3.1c-1.5-0.3-1.9-1.7-1.8-3.1c0.1-1.4,0.2-2.8,0.3-4.6c-0.7,0.4-1.3,0.6-1.6,1c-3.4,3.7-3.3,3.2-5.7-1.3
			c-0.6-1.2-0.2-3.5-2.1-3.4c-2.5,0.2-1.1,2.5-1.5,3.9c-0.2,0.6-0.3,1.2-0.6,1.8c-0.9,1.5-2.5,2-3.5,0.6c-1.2-1.5-2.2-2.5-4.3-1.8
			c-0.2,0.1-1.2-0.8-1.1-1.2c0.4-3-1.3-5.1-2.9-7.4c-1.3-1.8-2.1-4-2.6-6.2c-0.5-2.1-0.5-4.4-0.7-6.6c-2.3,0.4-4.6,0.9-6.9,1
			c-0.7,0-1.9-0.8-2.2-1.4c-0.2-0.5,0.6-1.7,1.3-2.2c2.5-2,5.2-3.7,7.6-5.7C9.4,1.9,9.2,0.8,9.4,0c1,0,1.9,0,2.9,0
			c0,1.4-0.1,3.2,1.6,3.6c1.6,0.4,1.9-1.3,2.6-2.3c0.2-0.4,0.4-0.8,0.7-1.3c1.6,0,3.2,0,4.9,0c0.2,1.1,0.5,2.2,0.7,3.3
			c0.4-1.1,0.8-2.2,1.2-3.3c1,0,1.9,0,2.9,0c0.4,0.7,0.7,1.4,1.1,2.1c0.6,1,1.1,2.1,2.5,1.3c1.2-0.8,2.4-1.7,1.2-3.4
			c5.5,0,11,0,16.5,0c1,1.3,1.9,1.2,2.9,0c2.6,0,5.2,0,7.8,0c0.1,1.1,0.2,2.2,0.4,4.2c1.5-1.8,2.5-3,3.5-4.2c1,0,1.9,0,2.9,0
			c0.8,1.1,1.6,2.3,2.6,3.7c1.1-1.3,2.2-2.5,3.2-3.7c2.3,0,4.5,0,6.8,0c-2,2.8-4.3,5.5-5.1,9c-0.2,1.1-0.9,2,0.6,2.8
			c1.1,0.6,1.9,0.8,3-0.2c2.2-2,4.1-4,3.4-7.3c-0.2-1.4,0-2.9,0-4.3c0.6,0,1.3,0,1.9,0c0,1.1,0,2.2,0,3.9c2-1.6,3.4-2.7,4.8-3.9
			c0.6,0,1.3,0,1.9,0c-0.3,1-0.6,1.9-1,2.9c-1.4,0-2.4,0.6-2.9,1.9c-0.3,0.3-0.6,0.6-1,1c-0.4,0.1-0.9,0.1-1.3,0.3
			c-0.2,0.1-0.3,0.5-0.4,0.7c0.3,0,0.8,0.2,1,0c0.3-0.3,0.5-0.7,0.7-1.1c0.3-0.3,0.6-0.6,1-1c1.4,0,2.4-0.6,2.9-1.9
			c2-0.1,3-1.4,3.9-2.9c0.6,0,1.3,0,1.9,0c0.9,1.5,1.3,3,0.6,4.9c-0.7,1.8-1.1,3.9-1.6,5.8c-0.2,0.2-0.3,0.3-0.5,0.5
			c0.2-0.2,0.3-0.3,0.5-0.5c4-2.7,5.8-7.1,8.7-10.7c1.6,0,3.2,0,4.8,0c1.4,5.5,2.5,3.9,5.1,1.2c0.3-0.3,0.5-0.8,0.7-1.2
			c0.6,0,1.3,0,1.9,0c2.4,1.9,2.4,1.9,4.8,0c1,0,1.9,0,2.9,0c0.8,0.3,1.7,0.6,2.5,0.9c1,0.4,2,0.7,2.9,1.2c0.7,0.3,0.6,2.1,1.9,1
			c0.2-0.1-0.5-1.3-0.8-1.9c-0.2-0.4-0.5-0.8-0.7-1.2c1,0,1.9,0,2.9,0c1,1.4,1.9,1.2,2.9,0c0.6,0,1.3,0,1.9,0
			c1.4,1.8,1.5,4.6,3.9,5.8c0-2,0-3.9,0-5.8c1.3,0,2.6,0,3.9,0c3.2,3.9,3.2,4,7.4,1.6c0.8-0.5,1.5-1.1,2.3-1.6c1,0,1.9,0,2.9,0
			c-0.6,3.3-0.8,6.7-2,9.8c-1.2,3.2-3.1,6.4-6.5,8c-1.9,0.9-3.1,1.9-3.3,4.2c-0.2,2.1-1.1,2.2-3.5,1.4c-0.6-0.2-1.2-0.4-2-0.8
			c-0.1,1.5,0.1,2.8-0.3,4c-0.4,1.1-1.4,2.9-2.1,2.9c-3.4,0-2.6,2.2-2.3,4c0.2,1.4,0.8,2.8,1,4.2c0.2,1,0.3,2.3-0.2,3.1
			c-0.3,0.5-1.7,0.4-2.7,0.5c1.3,2,2.5,3.7,3.5,5.5c1.3,2.3,1,3.6-1,4.9c-2,1.3-4.1,2.4-6.2,3.5c-0.5,0.3-1.3,0.7-1.3,1
			c0,0.5,0.5,1.1,1,1.5c1,0.7,2.8,1.1,3,1.9c0.2,1-0.8,2.4-1.4,3.5c-0.7,1.2-1.6,2.2-2.3,3.2c2.5,0.9,4.8,1.6,7,2.5
			c1.2,0.5,1.2,1.5,0.3,2.3c-0.8,0.7-1.8,1.3-2.8,1.7c-1.5,0.6-3.1,1-5.3,1.7c2.2,0.9,3.7,1.5,5.1,2.1c1.3,0.6,2.2,1.7,1.8,3.1
			c-0.3,0.9-1.3,1.7-2.1,2.3c-0.7,0.6-2.3,0.7-2.4,1.3c-0.3,1.4-0.2,3,0,4.5c0.1,0.7,0.6,1.5,1.1,1.9c2.6,2.1,4.2,4.9,4.8,8.1
			c0.3,1.5-0.2,3.1,0,4.6c0.9,6.4,4.3,11.6,7.8,16.8c1.7,2.5,4.8,4.4,4,8.3c-0.1,0.4,0.6,1.1,1.1,1.5c3.3,2.7,4.8,6.5,6.3,10.2
			c1.2,3,3,5.1,5.6,6.9c4.6,3.1,4.4,3.8-0.5,6.7c1.4,2.8,2.4,5.8,1.7,9.1c-0.2,0.7,0.3,1.5,0.6,2.3c0.9,2.3,1.9,4.6,2.9,7
			c0.3-0.4,0.8-0.7,0.9-1.1c0.8-5.5,1.5-11.1,2.2-16.7c0.7-6,0.8-12.2,2.2-18.1c1.9-8,2-16.2,4.7-24c3.7-10.8,5-22.2,9.5-32.7
			c0.9-2.2,1.6-4.5,2.2-6.8c1.1-4.2,2.1-8.4,3.3-12.5c0.9-2.9,2.2-5.7,3.2-8.6c1.1-3,2.9-6.1,2.8-9.1c-0.1-3.4,2.5-5.4,2.7-8.4
			c0-0.3,0.3-0.6,0.4-0.9c2.6-11.1,7-21.6,10.9-32.3c0.6,0,1.3,0,1.9,0c-0.3,0.9-0.6,1.8-0.9,2.7c-0.3,1-0.8,2.1-1,3.1
			c-0.3,1.4,0.8,2,1.9,2.2c0.2,0,0.8-1,1-1.7c0.7-2.1,1.2-4.3,1.8-6.4c2.3,0,4.5,0,6.8,0c1.3,3.2,1.3,3.2,3.6,1.7
			c0.8-0.5,1.5-1.1,2.2-1.7c1,0,1.9,0,2.9,0c0,1.4,0,2.9,0.1,4.3c0,0.4,0.4,0.7,0.7,1.1c0.3-0.3,0.8-0.5,0.9-0.8
			c0.5-1.5,0.8-3.1,1.2-4.6c1.6,0,3.2,0,4.8,0c0.5,0.4,1.1,0.9,1.6,1.3c0.1-0.4,0.2-0.9,0.3-1.3c1,0,1.9,0,2.9,0
			c0.4,0.5,0.7,1,1.1,1.5c0.9,1.1,1.6,1.3,2.1-0.3c0.1-0.4,0.4-0.8,0.7-1.2c0.6,0,1.3,0,1.9,0c0.6,1.1,1.3,1,1.9,0
			c1.3,0,2.6,0,3.9,0c-2.6,1.5-5.2,3-6.7,5.8c-1.5,2.8-1.3,3.8,1.5,6.8c2.4-4.3,4.8-8.4,7.2-12.6c1,0,1.9,0,2.9,0
			c0,2.4,1.9,3.3,3.7,3.5c0.8,0.1,1.8-1.7,2.7-2.7c0.2-0.2,0.3-0.5,0.4-0.8c0.3,0,0.6,0,1,0c-0.3,1.1-0.4,2.2-0.8,3.2
			c-1,2.5-2.2,4.9-3.1,7.5c-0.9,2.3-0.7,2.3,1,5.3c3-5.2,6.5-10,7.7-15.9c1,0,1.9,0,2.9,0c-2.9,5-4.3,10.6-5.7,16.1
			c-0.2,0.9,0,1.9,0.2,2.8c0.5,1.9,1.5,2.2,3.1,1.1c3.7-2.7,5.1-6.7,6.6-10.9c1-3,0.2-5.3-1.1-7.8c-0.2-0.4-0.2-0.9-0.2-1.4
			c0.6,0,1.3,0,1.9,0c0.6,1.1,1.1,2.3,1.9,3.2c1.4,1.5,4.4,2.1,5.2,1.2c1.3-1.5,0.2-3-0.3-4.4c1,0,1.9,0,2.9,0
			c-1,4.7,2.7,7.5,4.2,11.6c1-4.2,1.8-7.9,2.6-11.6c1,0,1.9,0,2.9,0c-0.4,0.9-0.9,1.7-1.2,2.6c-0.2,0.5-0.4,1.6-0.2,1.7
			c0.7,0.3,1.6,0.7,2.2,0.4c2.2-0.9,4.2-2.3,5-4.7c0.6,0,1.3,0,1.9,0c-1.2,2-2.4,4-3.7,6c5.4,0.1,9.9-1.9,13.4-6c4.5,0,9.1,0,13.6,0
			c1.4,1,2.6,2.1,4.1,3c2.8,1.7,2.9,1.6,4.2-1.2c0.3-0.6,0.3-1.2,0.5-1.8c1.6,0,3.2,0,4.9,0c0.1,3.4,1.7,5.7,4.7,7.2
			c1.3,0.6,2.3,0.8,3.2-0.7c0.8-1.4,0.6-2.4-0.5-3.4c-1.2-1-2.3-2.1-3.5-3.1c1,0,1.9,0,2.9,0c4.6,3.6,4.6,3.6,7.8,0c1,0,1.9,0,2.9,0
			c0.2,0.5,0.5,1.1,0.7,1.6c0.4-0.5,0.8-1.1,1.2-1.6c1,0,1.9,0,2.9,0c-0.1,0.3-0.2,0.6-0.5,0.8c-1.8,1.9-2.2,4.1-0.6,6.1
			c1.5,2,3.7,3.3,6.3,2.4c1.5-0.5,2.7-0.4,4.1,0c1.6,0.5,3.5,0.9,4.5-1.3c0.9-2,0.7-2.9-1.6-4.9c-1.2-1-2.4-2.1-3.5-3.1
			c1.6,0,3.2,0,4.9,0c2.4,2.6,2.6,2.6,4.9,0c0.6,0,1.3,0,1.9,0c0.1,0.4,0.2,0.9,0.4,1.3c0.5-0.4,1.1-0.9,1.6-1.3c1.6,0,3.2,0,4.9,0
			c-0.5,0.3-1,0.7-1.5,1c-0.6,0.4-1.3,0.8-1.9,1.2c0.6,0.6,1.2,1.3,2,1.8c0.3,0.2,1.3-0.1,1.4-0.4c0.4-1.2,0.7-2.4,1-3.6
			c0.6,0,1.3,0,1.9,0c-0.1,0.9-0.3,1.9-0.4,2.8c-0.2,2.8-0.9,5.7-0.6,8.4c0.2,2.1,1.6,4.2,2.5,6.2c0.4,0.8,4,3.6,4.2,3.3
			c0.7-1.4,1.8-2.8,1.9-4.2c0.1-2-0.8-4.1-0.7-6.1c0.1-2.6-1-4.3-2.8-5.8c-0.9-0.7-1.8-1.5-2.3-2.4c-0.3-0.5,0.1-1.4,0.2-2.1
			c0.3,0,0.6,0,1,0c3.8,5.1,3.7,3.9,6.8,0c0.6,0,1.3,0,1.9,0c-0.8,1.2-1.5,2.4-2.3,3.6c-0.6,1-0.5,1.8,0.4,2.5
			c2.4,2.1,4.7,4.3,7.3,6.3c1.4,1.1,3.2,1.7,4.8,2.5c0.7-1.9,1.9-3.9,1.8-5.8c0-1.9-0.3-4.1-2.1-5.7c-1-0.8-1.4-2.3-2.1-3.5
			c1,0,1.9,0,2.9,0c1.4,4.2,3,6.4,5.6,7.9c0.7-2.5,0.4-4.7-2.2-6.1c-0.6-0.3-1-1.2-1.4-1.8c1.9,0,3.9,0,5.8,0
			c-0.1,0.5-0.2,1.1-0.3,1.6c0.5-0.2,1.1-0.2,1.5-0.5c0.3-0.2,0.5-0.7,0.7-1.1c1.3,0,2.6,0,3.9,0c1.9,2.7,4.7,2.8,7.6,2.9
			c2.5,0.1,2.5,0,2.1-2.9c0.6,0,1.3,0,1.9,0c1.1,2.8,2,5.8,3.5,8.4c0.7,1.4,1.7,3.2,4,2.8c4-0.6,4.5-0.9,5.2-4.3
			c0.1-0.6,0.3-1.2,0.5-2c-4.5-0.2-9.6,1.2-11.2-5c0.6,0,1.3,0,1.9,0c0,2.2,1.6,3.3,3.2,3.3c1.5,0,2.6-1.5,2.6-3.3
			c0.6,0,1.3,0,1.9,0c-0.3,1.9,1,2.8,2.2,3.8c0.5,0.5,0.6,1.4,0.9,2.1c0.7-0.4,1.5-0.7,2.2-1.2c0.6-0.4,1.2-1,1.5-1.6
			c0.5-1,0.7-2.1,1-3.2c0.6,0,1.3,0,1.9,0c-1.1,4.4-1.1,4.4,3,6.3c0.6,0.3,1.2,0.3,1.8,0.5c0.3,0.3,0.6,0.6,1,1c2.5,2,4.8,4.1,7.4,6
			c1.3,1,3.8-0.1,3.7-1.6c-0.1-1.5-0.4-3.3-1.3-4.5c-1-1.4-1.7,0.8-2.7,0.8c-1.3,0-2.5,0-3.8-0.1c-1.1-0.1-2.2-0.4-3.3-0.7
			c-0.3-0.3-0.6-0.6-1-1c-0.6-2.3-1.3-4.5-1.9-6.8c0.6,0,1.3,0,1.9,0c0,3.4,1.5,5.8,4.9,6.6c2.5,0.6,3.9-0.9,3.4-3.4
			c-0.2-1.1-0.4-2.1-0.6-3.2c0.6,0,1.3,0,1.9,0c0.4,1.4,0.3,3.3,1.2,4c1.8,1.5,2.8,3.4,4,5.3c0.8,1.3,2.3,2.9,3.5,3
			c1.9,0.1,2.7-1.9,3.1-3.7c0.1-0.5,0.4-0.9,0.6-1.3C493,3,493,3,489.5,0c1.6,0,3.2,0,4.9,0c0.2,4.9,1.5,9.2,6.3,11.5
			c0.5,0.2,1.7,0.2,1.9-0.2c1.5-2.5,1.1-6.1-0.9-8.4c-0.8-1-1.6-2-2.4-2.9c1.6,0,3.2,0,4.9,0c1.9,3.9,5.5,5.7,9.2,7.4
			c1.6,0.7,2.5,0.1,2.4-1.7c-0.1-1.9-0.6-3.8-0.9-5.6c0.6,0,1.3,0,1.9,0c0.1,0.4,0.2,0.9,0.4,1.3c0.5-0.4,1.1-0.9,1.6-1.3
			c1,0,1.9,0,2.9,0c-1,1.2-2.2,2.2-2,4.1c0.2,1.7,0,3.5,0.1,5.3c0.1,0.7,0.5,1.9,0.9,1.9c0.8,0,1.9-0.3,2.5-0.9
			c0.8-0.7,1.5-1.7,1.9-2.8c0.9-2.5,1.7-5.1,2.5-7.7c0.3,0,0.6,0,1,0c-0.4,4.7,1.9,8.1,4.7,11.5c3.5-4.6,3.6-5.3,2.1-11.5
			c1,0,1.9,0,2.9,0c0.8,2.2,1.6,4.5,2.5,6.7c0.3,0.7,1.3,1.6,1.7,1.5c0.8-0.2,1.6-1,2.1-1.7c0.4-0.6,0.4-1.6,0.3-2.3
			c-0.2-1.4-0.5-2.7-0.8-4.1c0.6,0,1.3,0,1.9,0c0.3,0.3,0.6,0.6,1,0.9c0,0,0,0,0,0c0,1.3-0.1,2.6,0.1,3.8c0.3,2.7-1.4,4.2-3.3,5.4
			c-2,1.4-3.1-0.9-4.6-1.5c-0.1-0.1-0.1-0.3-0.2-0.4c-0.1-0.1-0.2-0.1-0.3-0.1c0.2,0.2,0.3,0.3,0.5,0.5c0.5,2.4-0.6,4.4-1.7,6.4
			c-1.4,2.5-1.4,2.5-3.4,0.1c-1.1-1.3-2-1.2-3.2,0.4c-1.3,1.7-2.6,3.3-3.9,4.9c-0.8,0.9-1.6,0.4-1.9-0.4c-0.7-1.6-1.1-3.3-1.7-5.2
			c-1,1.5-1.7,3-2.7,4.1c-1.8,2.1-4.2,1.8-5.6-0.5c-0.6-1-1.1-2-1.5-3c-0.4-1-0.6-2.1-0.9-3.4c-2,0.7-2.5,2.2-2.5,4
			c0,1.3,0.1,2.7-0.4,3.8c-1,2.3-2.4,4.4-3.7,6.6c-1.8-1.4-3.6-2.9-5.5-4.4c-0.5,1-1.1,2.5-2,3.7c-0.8,1.1-2,2.2-3.2,2.7
			c-2.9,1.3-4.8,0.1-4.7-3.1c0.2-4.7,0.9-9.5,1.4-14.6c-3,3.4-3.7,7.5-5.1,11.3c0,0,0.6,0.3,1,0.5c0.5,0.2,1,0.4,1.5,0.6
			c-0.3,0.5-0.6,1.1-1,1.5c-0.2,0.2-0.6,0.3-0.9,0.4c-1.5,0.4-2.3-0.8-3.4-1.2c-0.7-0.3-2,1.3-3.1,2c-0.2,0.1-1-0.4-1-0.8
			c-0.2-1.4-0.3-2.8-0.4-4.6c-1.4,2.1-2.4,3.9-3.7,5.5c-0.3,0.4-1.8,0.6-1.9,0.5c-1.5-2.9-5.2-2.5-7.1-5c-0.8,1.7-1.4,3.1-2,4.4
			c-1.4,2.6-1.5,2.6-4-0.3c-1,1.4-1.8,2.9-2.8,4.2c-0.5,0.6-1.6,1-2.4,1c-0.3,0-0.8-1.2-1-1.9c-0.4-1.7-0.7-3.4-1-5.2
			c-0.2-1.3-1.1-1.6-2.2-1.2c-1.9,0.7-3.8,1-3.8,4c0.1,2.4-2.1,3.9-4.4,4.5c-2.4,0.6-3.1-0.3-2.5-2.7c0.7-2.3,1.3-4.6,2-6.9
			c0-0.1-0.1-0.3-0.4-0.6c-2.8,1.5-2.9,4.3-3.3,6.9c-0.2,1.7,0.3,3.6-2.7,3c-0.9-0.2-2.2,1.7-3.5,2.8c-2-1.1-1.5-3.5-1.7-5.6
			c0-0.4-0.3-0.9-0.5-1.3c-0.5,0.3-1.1,0.5-1.4,0.8c-1.1,1.1-2.1,2.5-3.3,3.5c-1.8,1.6-2.6,1.3-3.8-0.6c-0.2-0.4-0.4-0.9-0.6-1.3
			c-0.2-0.4-0.3-0.9-0.5-1.6c-1.7,1.5-3.1,3-4.7,4.2c-2.7,1.9-3.6,1.5-4.6-1.8c-0.1-0.3-0.1-0.6-0.2-0.9c0-0.1-0.2-0.1-0.5-0.3
			c-0.7,1-1.4,2.1-2.2,3c-2.7,3.1-3.5,3-6.4-0.2c-1,1.3-1.9,2.6-3,3.7c-0.9,0.9-2,1.2-2.9,0c-1.3-1.7-2-3.8-4.8-3.7
			c-0.6,0-1.2-2.3-2-3.8c-0.4,0.7-0.9,1.4-1.2,2.2c-1.3,3.7-3.9,6.3-7.4,7.8c-2.2,0.9-3.4-0.2-2.9-2.5c0.5-2.3,1-4.7,1.6-7
			c1.3-0.9,1-2.1,0.2-3.3c0,1.1-0.1,2.2-0.1,3.3c-1.2,1.8-2.7,2.5-4.7,1.1c-1-0.7-2.1-1.4-3.1-2.1c-0.3-0.7-0.6-1.3-1-2
			c-0.1-0.1-0.1-0.3-0.2-0.4c-0.1-0.1-0.2-0.1-0.3-0.1c0.1,0.2,0.3,0.3,0.4,0.5c0.3,0.6,0.7,1.3,1,1.9c0.2,1.6,0,3.3,0.5,4.8
			c1,2.5-0.1,4.5-0.9,6.5c-0.6,1.3-2.1,2.8-3.4,3c-1.9,0.3-2.2-2-2.8-3.4c-1-2.4-1.6-4.9-2.4-7.3c-1.8,1.6-3.5,3.2-5.4,4.5
			c-1.5,1.1-3.1,2.4-5.3,1.1c-0.4-0.2-1.3,0-1.8,0.2c-2,0.8-3,0.1-3.7-1.8c-0.2-0.6-0.5-1.2-1-1.5c-0.9-0.5-5.6,2.6-5.8,3.7
			c-0.3,1.5-0.1,3.8-1,4.4c-1.9,1.2-3-1.2-4.2-2.3c-1.2-1.1-2.1-1.4-2.9,0.4c-0.2,0.4-0.6,0.8-0.9,1.1c-2.1,1.9-3.4,1.8-5-0.6
			c-0.4-0.5-0.7-1.1-1-1.6c-0.4,0.1-0.7,0.2-1,0.3c-4,2.2-4,2.2-5-2.5c-1.8,1.2-3.6,2.3-5.4,3.3c-0.9,0.5-2,1.1-3,1.2
			c-2.1,0.3-3.1-0.7-2.7-2.8c0.4-2,1.3-3.9,2-5.9c0.1-0.2,0.3-0.3,0.4-0.5c-0.2,0.1-0.3,0.3-0.5,0.4c-2,1.4-3.9,2.8-4,5.6
			c0,0.9-0.6,1.8-1.1,2.6c-2,3-4.6,3-6.4-0.1c-1.2-2.1-1.9-4.4-2.8-6.4c-2,2.1-4.1,4.5-6.3,6.7c-1.7,1.7-2.2,1.6-3.7-0.5
			c-0.7-0.9-1.2-2-2-2.7c-0.6-0.6-1.7-1.3-2.3-1.1c-3.2,1.2-5-1.1-7.1-2.6c-0.5-0.4-0.8-0.9-1.3-1.4c-0.5-1.4-1-2.7-1.7-4.7
			c-0.5,2.3-0.8,4-1.2,5.7c-0.1,0.1-0.3,0.1-0.4,0.2c-0.1,0.1-0.1,0.2-0.1,0.3c0.1-0.2,0.3-0.3,0.4-0.5c1-0.3,1.9-0.6,2.9-1
			c-0.4,0.9-0.7,2.1-1.4,2.8c-0.8,0.8-2.1,1.8-3,1.6c-1.6-0.3-1.5-2.1-1.5-3.5c0.1-0.1,0.3-0.1,0.4-0.2c0.1-0.1,0.1-0.2,0.1-0.3
			c-0.2,0.2-0.3,0.3-0.5,0.5c-0.4,0.5-0.8,1-1.1,1.5c-0.6,0.7-1.2,1.5-1.7,2.2c-0.9-0.8-2.2-1.4-2.7-2.4c-0.7-1.4-0.9-3.1-1.3-4.6
			c-0.3-1.3-1-1.6-2-0.7c-0.7,0.6-1.3,1.4-1.8,2.3c-1.3,2.2-3.2,3.6-5.4,4.6c-1.8,0.9-3.5,1.7-5.2-0.2c-0.3-0.3-0.9-0.5-1.3-0.5
			c-3.1,0.1-2.6-2.1-2.6-4c1.5-5.2,3.3-10.4,3.7-15.8c-1.4,2.7-2.9,5.3-3.6,8.2c-0.6,2.4-1.2,5.1-0.1,7.6c-0.6,1.8-1.2,3.5-1.9,5.3
			c-1,2.6-1.7,3.1-4.2,1.6c-1.4-0.8-1.9-0.6-2.5,0.7c-0.9,2.1-1.6,4.2-2.8,6.1c-1.3,2.1-2.4,2-4.2,0.2c-0.3-0.3-0.6-0.7-0.9-1.2
			c-0.7-1.2-1.6-1.1-2.2-0.2c-2.1,3.2-5.1,5.2-8.7,6.4c-1.9,0.7-2.9,2-2.7,4.1c0.1,0.8-0.1,1.6,0,2.4c0.2,2.4-1.4,3.4-3.2,4.2
			c-2,0.8-3-0.4-4.1-1.6c-0.3-0.4-0.5-0.8-1-1.4c-0.5,1.2-0.9,2.3-1.3,3.4c-0.9,2.2-2.2,2.5-3.8,0.7c-0.6-0.7-0.9-1.7-1.3-2.5
			c-0.3-0.6-0.6-1.1-1-1.6c-0.3-0.4-0.7-0.6-1.5-1.2c-0.1,1.3-0.4,2.3-0.3,3.3c0.3,2.6-0.4,4.2-3,5.3c-2.1,0.9-5.4,10.9-4.5,12.9
			c0.6,1.3,1.7,2.3,2.6,3.4c0.6,0.8,1.2,1.5,1.6,2.4c0.7,1.4,2,2.7,0.7,4.4c-1.2,1.6-2.6,2.3-4.6,1.7c-0.4-0.1-0.8-0.1-1.6-0.2
			c0.3,6.3,0.4,12.3,4,17.7c1.4,2.1,1.9,4.7,2.7,7.2c0.2,0.8,0,2.4-0.5,2.6c-2.3,1.1-1.4,2.8-1.3,4.4c0.1,1.5,0.2,2.9,0,4.4
			c-0.7,5.6,1.1,10.8,2.2,16.1c0.2,0.7,0.4,2,0.1,2.2c-2.5,1.5-1.1,3.3-0.9,5.3c0.5,5.2,2.3,10.2,0.8,15.7c-1,3.6-0.2,7.7-0.3,11.6
			c-0.1,5.6,0.5,11.3-0.9,16.8c-0.4,1.4-0.7,2.7-1.3,4c-1.1,2.7-2,5.2-1.2,8.3c0.9,3.4,1,6.9,1.3,10.4c0.1,0.7-0.4,1.7-0.9,2
			c-0.5,0.3-1.5,0-2.2-0.4c-1.4-0.7-2.6-1.6-3.9-2.4c-0.2,1.7-0.4,3.4-0.5,5.1c-0.1,1.6,0,3.2-0.1,4.8c-0.3,3.1-1.2,3.5-4.8,1.5
			c0,5.2,0.1,10.1-0.1,15c-0.1,2.2,0.8,3.3,2.7,3.9c1.5,0.5,3.1,0.8,4.7,1.2c1.3,0.3,1.6,1,0.8,2.1c-0.8,1-1.6,2-2.3,3.1
			c-0.7,1-1.1,2,0,3c1.2,1.2,1.4,2.2,0,3.7c-0.9,0.9,1.3,3.3,3.1,3.7c1.6,0.3,3.2,0.4,4.7,0.9c2.8,1,3.3,2.6,1,4.4
			c-1.8,1.4-4.1,2.3-6.3,3.4c1.3,2.7,2.3,6,6.2,6.9c0.1,0.1,0.1,0.3,0.2,0.4c0.1,0.1,0.2,0.1,0.3,0.1c-0.2-0.2-0.3-0.3-0.5-0.5
			c-1-1.5-2.1-3.1-3.1-4.7c-0.3-0.5-0.2-1.1-0.3-1.7c0.7,0,1.8-0.2,2.1,0.1c1.6,2.2,3.7,4.3,4.4,6.8c1.7,5.9,5.4,10.4,9.1,14.9
			c0.4,0.5,1,1.5,0.8,1.9c-0.3,0.6-1.3,1.1-2,1c-1.7-0.1-3.4-0.6-5.1-0.9c-0.1-0.1-0.1-0.3-0.2-0.4c-0.1-0.1-0.2-0.1-0.3-0.1
			c0.2,0.2,0.3,0.3,0.5,0.5c0.4,3.4,1.8,6.4,3.7,9.3c0.7,1.1,1.5,2.1,1.9,3.3c0.2,0.6-0.2,1.7-0.6,2.1c-0.4,0.4-1.5,0.5-2.1,0.3
			c-3.1-1.2-4.8-3.7-6.4-7.5c-0.9,4.9-1.6,8.8-2.4,12.8c-0.1,0.6-0.6,1.3-1.1,1.4c-0.4,0.1-1.1-0.4-1.5-0.8
			c-1.6-2.1-2.6-4.3-2.3-7.1c0.3-2.7,0.3-5.5,0.7-8.1c0.2-1.6,0.5-2.5-1.6-2c-0.2,0-0.9-0.9-0.9-1.4c-0.2-1.1-0.2-2.3,0-3.4
			c1-5.9-1.1-10.7-4.9-14.6c-1.2,0.9-2.8,2.8-3.5,2.5c-1.8-0.8-2.3-2.9-2.3-5c0.2-4.4-1.6-7.9-5.2-10.8c0.1,3.2,0.3,6.1,0.4,8.9
			c0.1,3,0,5.9,1.8,8.8c1.2,1.9,1.8,4.4,0.5,6.9c-0.4,0.9-0.2,2.2,0,3.3c0.5,2.5,1,5,1.6,7.5c0.1,0.5,0.1,1,0.4,1.4
			c3.7,5.1,3.9,12,8.6,16.6c0.3,0.3,0.4,1.5,0.2,1.7c-0.7,0.5-1.8,1.3-2.4,1.1c-1.4-0.6-2.9-1.5-3.9-2.6c-1.2-1.3-1.9-0.9-2.6,0.2
			c-0.7,1.1-1.2,2.3-1.8,3.4c-0.5,0.8-0.9,2.2-1.5,2.4c-3.2,0.9-2.8,3.3-2.9,5.7c-0.1,2.6-0.8,5.1-0.7,7.6c0.1,3.8,0.2,7.7,1,11.5
			c2.1,10.3,3,20.6,2.7,31.1c-0.1,2.6-0.2,5.2,0,7.8c0.5,7.2-1.5,14-2.3,21c-0.5,3.6-1.2,7.3-1.5,10.9c-0.5,5.9-0.7,11.9-1,17.8
			c-0.4,7.5-0.6,15-1,22.5c-0.4,7.2,1,14.1,2.5,21c0.6,2.6,1.3,5.3,2.5,7.7c0.8,1.7,2.4,2.9,3.6,4.4c2.2,2.5,4.2,5.3,6.7,7.6
			c2.2,2,4.6,3.9,7.3,5.2c1,0.5,2.9-0.8,4.5-1.1c0.5-0.1,1.1,0,1.7,0.1c-0.2,0.6-0.2,1.2-0.5,1.7c-0.4,0.7-1.1,1.2-2,2.2
			c3.6,1.9,6.9,3.8,10.3,5.5c1.7,0.9,2.1,0.6,2.2-1.6c0.1-1.5-0.1-2.9,0.1-4.4c0.1-0.7,0.6-1.6,1.1-1.8c0.5-0.2,1.3,0.6,1.8,1
			c0.2,0.2,0.3,0.5,0.5,0.8c1.5,2.9,1.5,2.8,4.4,1.8c0.8-0.3,1.7-0.2,2.6-0.2c-0.5,0.8-0.8,1.7-1.4,2.4c-0.9,1.1-2.1,2-3.1,3.1
			c-1.6,1.9-1.6,3.1,0.6,4.3c3.8,2.1,5.3,5.9,7.6,9.2c0.3,0.5,0.4,1.2,0.4,1.8c0,0.4-0.2,1-0.5,1.2c-0.2,0.2-1,0-1.2-0.2
			c-1.8-2.5-4.5-2.1-7.1-2.1c-1.6,0-2.9,0.2-2.9,2.3c0,0.8-0.5,1.7-1.5,1.1c-0.5-0.3-0.7-1.3-0.7-1.9c0-2.6,0.2-5.1-0.5-7.8
			c-1,2.9-2,5.8-3.3,9.6c-1.2-2.5-0.6-4.4-0.8-6.2c0.3-0.3,0.5-0.6,0.8-0.9c-0.2-0.1-0.3-0.2-0.5-0.3c-0.1,0.4-0.2,0.8-0.3,1.3
			c-0.3,0.3-0.8,0.6-0.9,1c-0.8,1.8-1.6,3.5-3.8,1.5c-2.6,1.3-5-0.3-7.5-0.6c-2.9-0.3-3.2-0.7-3.3-3.6c-0.1-3.3-0.5-6.5-2.3-9.4
			c0.1,4.5,2.1,8.9,0.9,14.1c-1.8-2.6-3.8-3.8-6.4-2c0.2-2.7,0.3-5.4,0.5-8.1c-1,2-1.8,4-2.1,6.1c-0.1,0.6,1,1.4,1.6,2
			c2.4,2.6,4.8,5.2,7.4,7.6c1.1,1,2.8,1.5,4.3,2.1c3.5,1.6,7.2,3,9.6,6.2c0.5,0.7,0.8,1.7,0.8,2.5c0,0.4-1.2,0.8-1.9,0.9
			c-7,1.1-13.9-0.6-20.8-1.2c-7.1-0.6-13.6-3.9-20.7-3.7c-1.1,0-2.1-0.7-3.2-0.8c-0.7-0.1-1.6,0.2-2.1,0.7c-0.6,0.5-0.3,2.2-1.7,1.6
			c-0.5-0.2-0.6-1.7-0.6-2.6c-0.1-3.2,0-6.5-0.1-9.7c-0.1-2-0.6-4-1.8-6c0,3.8,0,7.6,0,11.5c0,1.9-0.5,2.7-2.6,1.8
			c-1.7-0.7-2.3,0.4-2.3,2c0,0.8,0.1,1.7-0.1,2.4c-0.2,0.6-0.9,1.1-1.4,1.7c-0.3-0.6-0.7-1.3-0.7-1.9c-0.1-3.2,0-6.4-0.3-9.6
			c-0.2,0.8-0.3,1.7-0.5,2.5c-0.3,1.1-0.5,2.5-1.3,3c-0.7,0.5-2-0.2-3.1-0.2c-1.7-0.1-2.4,0.4-1.6,2.3c0.2,0.4-0.5,1.3-0.8,2
			c-0.6-0.6-1.6-1.2-1.7-1.8c-0.2-3.2-0.1-6.4-0.6-9.6c-0.5,3.1-1,6.2-1.6,9.2c-0.1,0.5-0.9,0.8-1.3,1.3c-0.2-0.4-0.5-0.9-0.5-1.3
			c0-1.9-0.8-2.1-2.4-1.4c-0.9,0.4-2.1,0.1-3.2,0.2c-1.9,0.2-3.1,1-2.9,3.1c0.1,2-0.5,3.4-2.4,4.3c-1.2-2.6-2.3-5.1-3.5-7.7
			c-0.2,0-0.5,0.1-0.7,0.1c-0.2,1.4-0.4,2.9-0.6,4.3c0,0.2-0.5,0.4-0.7,0.4c-0.2,0-0.7-0.3-0.7-0.5c-0.2-0.8-0.4-1.6-0.2-2.4
			c0.9-4.4-0.2-8.9,0-13.3c0.3-1,0.6-1.9,1-2.9c0.3-1,0.6-1.9,1-2.9c0.1-0.1,0.3-0.1,0.4-0.2c0.1-0.1,0.1-0.2,0.1-0.3
			c-0.2,0.2-0.3,0.3-0.5,0.5c-0.3,1-0.6,1.9-1,2.9c-0.3,1-0.6,1.9-1,2.9c-0.3,1-0.8,2-0.9,3c-0.1,3.1,0,6.1-0.1,9.2
			c0,0.7-0.5,2-0.8,2c-4,0.3-6.5,3.7-10,4.9c-1.4,0.5-2.6,1.8-4,2.6c-1.8,1-3.7,2-5.7,2.4c-3.4,0.7-7,1.2-10.5,1.1
			c-3.4,0-6.2,1.6-9.1,2.8c-6,2.5-12.3,3.6-18.7,4.1c-4,0.3-7.4,1.9-11,3.4c-1.5,0.6-2.8,1.6-4.4,2c-0.9,0.2-2.1-0.3-2.9-0.8
			c-0.2-0.1,0.1-1.8,0.6-2.4c1.4-1.5,3-2.9,4.6-4.2c0.8-0.7,1.9-1.3,2.6-2.1c4.5-5,8.8-10.1,14.7-13.6c-0.1-0.3-0.2-0.6-0.4-0.9
			c-2.5,0.3-5.1,0.3-7.5,0.9c-2.5,0.6-4.8,0.1-7.1-0.7c-1.3-0.4-1.4-1.2-0.7-2.2c1-1.3,1.9-2.7,3.1-3.5c5-3.5,10.1-6.8,15.3-10
			c1.6-1,2.4-1.6,1.4-3.6c-1-2,0.3-3.4,2.5-2.8C60.6,521.3,61.6,522.2,62.7,522.8c0.1,0.1,0.1,0.3,0.2,0.4c0.1,0.1,0.2,0.1,0.3,0.1
			C63.1,523.1,62.9,523,62.7,522.8z M169.4,309.4c-0.1-0.1-0.1-0.3-0.2-0.4c-0.1-0.1-0.2-0.1-0.3-0.1
			C169.1,309.1,169.3,309.3,169.4,309.4c0.3,0.3,0.6,0.7,1,1c0.9,2.2,1.8,4.3,3.1,7.3c0.9-2.2,1.1-3.4,0.1-4.4c-1-1-2.1-1.9-3.2-2.9
			C170.1,310.1,169.8,309.8,169.4,309.4z M64.7,8.7c-0.1,0.1-0.3,0.1-0.4,0.2c-0.1,0.1-0.1,0.2-0.1,0.3C64.4,9.1,64.5,8.9,64.7,8.7
			c0.3-0.3,0.7-0.6,1-1c0.3-0.6,0.6-1.3,1-1.9c0.1-0.1,0.3-0.1,0.4-0.2c0.1-0.1,0.1-0.2,0.1-0.3c-0.2,0.2-0.3,0.3-0.5,0.5
			c-0.3,0.6-0.6,1.3-1,1.9C65.3,8.1,65,8.4,64.7,8.7z M52.1,21.3c-0.1,0.1-0.3,0.1-0.4,0.2c-0.1,0.1-0.1,0.2-0.1,0.3
			C51.7,21.7,51.9,21.5,52.1,21.3c0.1,0,0.3-0.1,0.4-0.2c0.1-0.1,0.1-0.2,0.1-0.3C52.4,21,52.2,21.2,52.1,21.3z M82.2,513.2
			c0.3-0.3,0.6-0.6,1-1c0.3-0.3,0.7-0.6,1-0.9c0.3-0.3,0.6-0.7,1-1c0.3-0.3,0.6-0.7,1-1c0.3-0.3,0.6-0.7,1-1
			c1.9-1.3,3.9-2.6,5.9-3.9c0.4-0.3,1-0.3,1.5-0.4c-0.1,0.6-0.1,1.3-0.4,1.6c-1.2,1.1-2.5,2-3.7,3c-2.3,1.9-5,3.7-6.9,5.9
			c-3.9,4.6-7.9,9.2-12.4,13.3c-0.8,0.7-1.3,1.8-1.9,2.8c-3.1,5.8-7.6,10.3-13.2,13.5c-3.7,2.1-7,4.6-9.9,7.6
			c-3.2,3.3-6,7.1-9.8,9.9c-0.6,0.5-1,1.2-1.5,1.9c-0.1,0.1-0.3,0.1-0.4,0.2c-0.1,0.1-0.1,0.2-0.1,0.3c0.2-0.2,0.3-0.3,0.5-0.5
			c1.4-0.4,2.8-0.7,4.1-1.1c2.9-0.9,5.8-2.4,8.7-2.6c7.8-0.5,15.2-2.3,22.3-5.3c2.8-1.2,5.5-1.7,8.4-1.7c3.9,0.1,7.7-0.3,10.7-3.2
			c0.4-0.4,1.2-0.4,1.8-0.6c4.8-1.8,9.4-3.5,12.9-7.9c1.8-2.3,2.2-4.2,1.3-6.4c-1.3-3.4-3-6.8-6.1-9.1c-0.6-0.5-1.3-0.9-1.9-1.5
			c-0.2-0.3-0.3-1.2-0.1-1.3c0.4-0.3,1.2-0.6,1.6-0.4c2.2,1.3,4.4,2.7,6.6,4c0.4,0.2,1.2-0.1,1.8-0.1c-0.1-0.6,0-1.2-0.2-1.7
			c-1.1-2.3-2.4-4.5-3.6-6.8c-0.2-0.3-0.2-1,0-1.2c0.2-0.2,1-0.3,1.2-0.1c1.6,1.3,3.1,2.6,5.4,4.5c0.4-0.7,0.9-1.6,1.4-2.4
			c0.9-1.1,1.8-2.2,2.8-3.3c0.3-0.3,1.2-0.3,1.3-0.1c0.3,0.4,0.5,1.1,0.4,1.6c-0.3,0.9-1,1.6-1.4,2.5c-1.9,4.8-1.9,6.1,0.1,9.3
			c0.6,1,1.3,0.8,1.9,0.1c0.7-0.9,1.2-1.9,1.9-2.8c2.1-2.4,4.2-4.9,6.4-7.2c0.5-0.5,2-0.8,2.5-0.5c1.2,0.8,0,1.6-0.5,2.3
			c-2.6,3.1-4.7,6.5-5.9,10.4c-0.7,2.1-1.9,4-2.8,6.1c-0.2,0.5-0.4,1.4-0.2,1.6c0.4,0.4,1.2,0.5,1.8,0.4c1.5-0.5,2.9-1.7,4.3-1.7
			c2.5,0,2.8-1.3,3.1-3.2c1-6.5,4-12.1,7.7-17.4c0.9-1.3,2.2-2.4,3.4-3.4c0.3-0.3,1.3-0.2,1.7,0.1c0.3,0.2,0.2,1.2,0,1.6
			c-0.4,0.7-1.1,1.2-1.6,1.8c-4.1,5.5-7.6,11.3-6.5,18.6c0.2,1.1-0.3,2.4,1.3,2.7c1.6,0.3,3-0.1,3.3-1.9c0.4-1.9,0.9-3.8,1-5.7
			c0.2-2.5,0.8-4.7,3.3-6c1.6-0.9,2.6-2.2,2.7-4.2c0.1-1.9,0.7-3.8,1.1-5.6c0.1-0.4,0.7-1,0.9-1c0.5,0.1,1.1,0.4,1.4,0.9
			c0.3,0.5,0.3,1.2,0.6,1.8c0.8,1.9,0.9,4.3,4,4.4c1.4,0.1,1.5,1.9,0,2.7c-2,1-2.4,2.4-2.2,4.3c0.3,3.2,0.6,6.4,0.9,9.6
			c0.2,3,0.2,3.1,3.3,3.7c3.9,0.8,7.9,1.3,11.8,2c2.3,0.5,4.5,1.2,7,1.1c3.1-0.1,6.3,0.9,9.4,1.7c4,1.1,9.9,1.3,15.3,0.2
			c-2.9-1.8-5.2-4-7.8-4.7c-3.5-0.9-5.9-2.9-8.5-5.2c-6.2-5.6-12.4-11.2-18.7-16.7c-1.9-1.7-4.1-3.3-6.4-4.2c-1.8-0.8-3-1.8-3.5-3.5
			c-0.2-0.8-0.1-1.7-0.2-2.5c0.7,0.5,1.4,1.1,2.1,1.7c0.2,0.2,0.1,0.6,0.3,0.9c0.4,1.1,1.1,1,1.9,0.4c0.7-0.6,1.3-1.5,2.1-2
			c2.1-1.4,4.3-2.7,6.6-4c0.3-0.2,1.2,0.3,1.6,0.6c0.1,0.1-0.1,0.9-0.3,1.3c-1.2,1.4-2.5,2.8-3.8,4.2c1.4-0.1,2.4-0.7,3.5-1.2
			c0.3-0.1,1,0,1.3,0.3c0.2,0.2,0.4,0.9,0.2,1.2c-0.7,1.2-1.5,2.5-2.4,3.6c-1.2,1.3-0.9,2.2,0.2,3.3c2,2.1,4.9,2.8,6.6,5.4
			c0.8,1.3,2.3,0.8,3-0.8c0.7-1.8,0.8-3.9,1.9-5.4c2-2.8,2.2-5.5,1.4-8.7c-0.1-0.5,0.1-1.1,0.1-1.7c0.7,0.1,1.6,0,2.2,0.3
			c0.8,0.5,1.4,1.3,1.9,2.1c0.7,1.2,1.5,1,2.4,0.4c0.7-0.5,1.4-1,2.3-1.6c-3.9-2.5-7.2-4.8-9.5-8.6c-1-1.7-2.7-3.3-4.5-4.3
			c-4.1-2.2-5.1-6.1-6.1-9.9c-1.1-4-1.3-8.2-2.2-12.3c-1.9-9.6-0.8-19.3-0.7-28.9c0.1-7,1.1-14,1.7-21.1c0.4-4.6,0.6-9.3,1.1-13.9
			c0.4-3.5,1.2-6.9,1.7-10.4c0.4-2.2,0.9-4.4,1-6.6c0.4-12.6-0.2-25.1-1.9-37.5c-0.5-3.5-0.6-7-1.3-10.5c-0.8-3.9-0.9-7.6,0-11.4
			c0.7-2.8,0.4-15.1-0.2-18.2c-1.2,2.9-2.6,5.8-2.4,9.2c0.1,1.1-0.9,2.2-1.4,3.3c-1-0.7-2.1-1.3-3-2c-0.5-0.4-0.8-1.1-0.9-1.7
			c-0.3-2.5-1.6-4.8-0.7-7.5c0.6-1.8,0.8-3.8-2.1-4.4c-1.2-0.2-1.5-1.4-1-2.7c1-2.5,1.7-5.2,2.5-7.8c0.3-1,0.3-2.1,0.5-3.2
			c-1.2,0.3-2.4,0.4-3.4,0.9c-1.5,0.6-2.9,1.6-4.4,2c-0.9,0.3-2.1-0.1-3.1-0.3c0.1-0.9,0.1-1.9,0.4-2.7c0.6-1.1,1.5-2,2.2-3.1
			c1.6-2.6,3.8-5.2,2.5-8.4c-0.9-2.2-0.3-3.8,0.9-5.4c1.2-1.6,1.7-3,1.1-4.9c-0.2-0.7,0.2-1.5,0.2-2.3c0-3.2,0.6-6.4-1.2-9.4
			c-0.5-0.8-0.4-2.3,0.1-3.1c1.7-3,2.5-5.8,0.3-8.9c-0.3-0.4-0.2-1-0.4-1.4c-0.8-1.6-0.1-2.6,1.3-3c2-0.5,2.2-1.4,1.5-3.1
			c-1.5-3.7-1.1-7.8-1.5-11.7c-0.2-1.7,0.3-3.1,2.2-3.8c0.7-0.3,1.4-1.1,1.8-1.9c0.8-1.8,1.2-3.7,1.9-5.5c0.6-1.6,0.6-2.9-0.1-4.5
			c-0.9-2-1.4-4.2-1.9-6.4c-0.6-3-0.7-6-2.8-8.5c-0.7-0.8-1-2.1-1.1-3.1c-0.3-3.1,0.7-6.4-2.7-8.6c-0.8-0.5-0.9-2.3-1.1-3.6
			c-0.5-2.5-0.8-5-1.3-7.8c-1,0.4-1.8,0.9-2.7,1.1c-2.4,0.8-3.7-0.1-3.8-2.6c0-0.9,0.3-1.9,0.5-2.8c0.2-1.3,0.3-2.5,0.5-3.8
			c0.5-1.1,1.1-2.1,1.6-3.2c0,0-0.2-0.1-0.3-0.2c-0.4,1.1-0.8,2.2-1.2,3.4c-1.1,0.5-2.2,1.1-3.3,1.6c-0.2-1.2-0.5-2.4-0.7-3.7
			c-0.1-0.5,0-1,0-1.5c0-1.5-0.2-2.6-2.2-1.7c-1.5,0.7-2.5,0.1-2.7-1.6c-0.1-0.9-0.1-1.9-0.1-2.8c0-1.8,0.4-3.7-0.3-5.6
			c-1.3,0.6-2.3,1.2-3.4,1.4c-1.6,0.3-3.5,0.7-4.3-1.1c-0.4-0.9,0.4-2.3,0.7-3.5c0.4-1.4,1.8-2.5,0.9-4.4c-2-4.5-3.8-9.1-5.8-14.1
			c-1.1,1.9-1.8,3.4-2.9,4.8c-1,1.4-2.6,1.2-3.4-0.4c-0.4-0.7-0.8-1.5-0.8-2.3c0-3.1-0.6-6.3,0.2-9.1c1.6-5.2-0.2-9.9-0.7-15.3
			c-1.1,1-1.6,1.6-2.2,2c-1.9,1.3-2.9,1-3.6-1c-0.3-0.7-0.4-1.6-0.3-2.3c0.5-3.8,1.1-7.6,1.7-11.3c0.3-0.3,0.5-0.6,0.8-0.9
			c-0.2-0.1-0.3-0.2-0.5-0.3c-0.1,0.4-0.2,0.8-0.3,1.3c-1.2-1.4-2.4-2.8-3.7-4.3c-0.1,1.2,0,2.4-0.4,3.4c-2.8,8.6-4,17.4-5.9,26.2
			c-1.8,8.4-2.3,16.8-2.6,25.3c-0.2,6.6-0.8,13.1-1.9,19.6c-1,6-1.9,12.1-2,18.1c-0.1,7.7,0.5,15.4,0.9,23.1c0,0.6,0.3,1.3,0.3,1.9
			c0.5,5.3,1.1,10.5,1.4,15.8c0.1,2-0.7,4.1-0.8,6.2c-0.3,7.6-0.1,15.1-0.8,22.7c-1,10.4-1.2,20.9-1.1,31.4
			c0.1,12.7-1.1,25.5,0.8,38.2c0.6,3.9-0.4,7.8-0.3,11.9c0.3,6.5-1.4,13.1-1.5,19.6c-0.6,26.1,0.8,52.3-1,78.4
			c-0.5,7.2-0.1,14.5,0,21.8c0,1.7,0.4,3.5,0.7,5.2c1.3,8,2.3,15.9-0.5,23.8c-0.9,2.5-0.9,5.3-1.5,8.5c1.5-1.3,2.3-2,4-3.4
			c-1.5,4.9-3.7,8.2-6.1,11.3c-0.6,0.9-1,1.9-1.5,2.9c-0.3,0.3-0.7,0.6-1,1c-0.3,0.3-0.7,0.6-1,1c-0.3,0.3-0.7,0.6-1,0.9
			c-0.3,0.3-0.6,0.7-0.9,1C82.8,512.5,82.4,512.8,82.2,513.2c-0.4,0.3-0.7,0.6-1,0.9c-3,1.7-6,3.3-8.8,5.2c-0.3,0.2,0.3,1.9,0.5,2.9
			c0.7-0.2,1.6-0.1,2-0.5c2.2-2.5,4.3-5.1,6.4-7.7C81.5,513.8,81.8,513.5,82.2,513.2z M226.7,24.2c0.3-0.3,0.5-0.6,0.8-0.9
			c-0.2-0.1-0.3-0.2-0.5-0.3C226.9,23.4,226.8,23.8,226.7,24.2c-0.2,0.3-0.5,0.6-0.8,1c0.2,0.1,0.3,0.2,0.5,0.3
			C226.5,25.1,226.6,24.7,226.7,24.2z M160.7,234.7c0.1,0.4,0.2,0.8,0.3,1.3c0.2-0.1,0.3-0.2,0.5-0.3
			C161.2,235.4,161,235.1,160.7,234.7c-0.1-0.4-0.2-0.8-0.3-1.3c-0.2,0.1-0.3,0.2-0.5,0.3C160.2,234.1,160.5,234.4,160.7,234.7z
			 M83.1,40.7c-0.3,0.6-0.6,1.3-1,1.9c-2.1,1.4-4.6,2.5-4.8,5.6c-0.1,3.1,0,6.3,0,9.6c2.2-1.1,4.1-1.8,2.2-4.2
			c-0.5-0.6-0.2-1.9,0-2.8c0.8-2.8,1.7-5.5,2.6-8.2C82.5,42,82.8,41.4,83.1,40.7c0.1-0.1,0.3-0.1,0.4-0.2c0.1-0.1,0.1-0.2,0.1-0.3
			C83.4,40.4,83.3,40.6,83.1,40.7z M100.6,98c0.3-0.3,0.5-0.6,0.8-0.9c-0.2-0.1-0.3-0.2-0.5-0.3C100.8,97.1,100.7,97.6,100.6,98
			c-0.3,0.3-0.6,0.7-1,1c-2.1,1.2-2.7,3.4-3.4,5.4c0.3,0.2,0.6,0.3,0.9,0.5c0.8-1.9,1.6-3.9,2.4-5.8C99.9,98.6,100.2,98.3,100.6,98z
			 M162.6,176.5c-0.1-0.1-0.1-0.3-0.2-0.4c-0.1-0.1-0.2-0.1-0.3-0.1C162.3,176.2,162.5,176.4,162.6,176.5c0.1,1.1,0.2,2.1,0.3,3.5
			C164.4,178.4,164.5,177.3,162.6,176.5z M178.2,196.9c-0.5,1.8-1,3.6-1.5,5.4C178.8,200.9,177.9,198.8,178.2,196.9
			c0.1-0.1,0.3-0.1,0.4-0.2c0.1-0.1,0.1-0.2,0.1-0.3C178.5,196.6,178.3,196.8,178.2,196.9z M168.5,283.2c-0.1-0.1-0.1-0.3-0.2-0.4
			c-0.1-0.1-0.2-0.1-0.3-0.1C168.2,282.9,168.3,283.1,168.5,283.2c0.3,1.7,0.5,3.3,0.8,5c0.1,0.2,0.8,0.5,1.2,0.4
			c0.2,0,0.6-0.8,0.5-1C170.2,286.1,169.3,284.7,168.5,283.2z M170.4,305.6c-0.1-0.1-0.1-0.3-0.2-0.4c-0.1-0.1-0.2-0.1-0.3-0.1
			C170.1,305.2,170.2,305.4,170.4,305.6c0.1,2.3,1.8,3.3,3.8,4.8C174.1,307.1,172.8,305.8,170.4,305.6z M173.3,265.8
			c0.1,0.1,0.1,0.3,0.2,0.4c0.1,0.1,0.2,0.1,0.3,0.1C173.6,266.1,173.5,265.9,173.3,265.8c-1-2.5-2.1-4.9-3.1-7.4
			C170,261.5,170.9,264,173.3,265.8z M179.1,319.1c0.1,0.1,0.1,0.3,0.2,0.4c0.1,0.1,0.2,0.1,0.3,0.1
			C179.5,319.4,179.3,319.3,179.1,319.1c-0.6-2.4-1-4.8-3.7-7.5C176.4,315.1,176.6,317.7,179.1,319.1z M185.9,282.3
			c0.1,0.1,0.1,0.3,0.2,0.4c0.1,0.1,0.2,0.1,0.3,0.1C186.2,282.6,186.1,282.4,185.9,282.3c-0.4-5.2-0.7-5.8-4.8-6.6
			C182.9,278.1,184.4,280.2,185.9,282.3z M100.6,5.8c1.1-0.1,2.3,0.1,3.3-0.4c0.7-0.3,1.2-1.4,1.4-2.2c0.1-0.4-0.5-1-0.8-1.6
			c-0.6,0.4-1.1,0.9-1.8,1.2C101.4,3.5,100.5,4.3,100.6,5.8c-0.1,0.1-0.3,0.1-0.4,0.2c-0.1,0.1-0.1,0.2-0.1,0.3
			C100.2,6.1,100.4,6,100.6,5.8z M200.5,307.5c0.1,0.1,0.1,0.3,0.2,0.4c0.1,0.1,0.2,0.1,0.3,0.1
			C200.8,307.8,200.6,307.6,200.5,307.5c-1.4-3.3-2.7-6.7-4.1-10.1C195.8,301.7,197.5,304.9,200.5,307.5z M166.5,254.1
			c0.1,0.1,0.1,0.3,0.2,0.4c0.1,0.1,0.2,0.1,0.3,0.1C166.8,254.5,166.7,254.3,166.5,254.1c-0.4-3.3-0.8-6.7-1.3-10.5
			c-1.4,2.1-1.9,3.7-1.1,5.5C164.8,250.8,165.7,252.5,166.5,254.1z M135.5,147.4c-0.1-0.1-0.1-0.3-0.2-0.4c-0.1-0.1-0.2-0.1-0.3-0.1
			C135.2,147.1,135.3,147.3,135.5,147.4c0.2,3.4,1.6,6.3,3.8,9.9C139.3,152.9,139.2,149.5,135.5,147.4z M215,42.7
			c-1,0.9-2.1,2.6-3,2.6c-1.7-0.1-1.8,0.6-1.8,1.8c0,0.9,0,1.8,0,2.9c2.2-0.3,3.6-1,3.9-3.1C214.4,45.4,214.7,44.1,215,42.7
			c0.1-0.1,0.3-0.1,0.4-0.2c0.1-0.1,0.1-0.2,0.1-0.3C215.3,42.4,215.2,42.5,215,42.7z M56.9,16.5c1.9-0.1,3.8-0.1,5.7-0.5
			c1.6-0.3,2.4-1.6,1.9-3.2c-0.1-0.3-0.9-0.8-0.9-0.8C61.6,13.8,57.8,13,56.9,16.5c-0.1,0.1-0.3,0.1-0.4,0.2
			c-0.1,0.1-0.1,0.2-0.1,0.3C56.6,16.8,56.8,16.6,56.9,16.5z M87,51.4c4.6-0.3,5.3-4.5,7.3-7.3c0.1-0.1-0.2-0.7-0.4-0.8
			c-0.4-0.1-1.1-0.1-1.2,0.1C90.9,46.2,87.9,48.1,87,51.4c-0.1,0.1-0.3,0.1-0.4,0.2c-0.1,0.1-0.1,0.2-0.1,0.3
			C86.7,51.7,86.8,51.6,87,51.4z M164.6,257c0.1,0.1,0.1,0.3,0.2,0.4c0.1,0.1,0.2,0.1,0.3,0.1C164.9,257.4,164.7,257.2,164.6,257
			c-1.7-3.9-2.3-8.5-7.1-11.7c1.4,4.9,3.2,8.5,6.1,11.5C163.8,257.1,164.3,257,164.6,257z M140.3,141.6c-0.1-0.1-0.1-0.3-0.2-0.4
			c-0.1-0.1-0.2-0.1-0.3-0.1C140,141.3,140.2,141.5,140.3,141.6c-0.1,5.1,4.8,5.5,7.5,8c-1-2.3-2.1-4.6-3.7-6.5
			C143.3,142.3,141.6,142.1,140.3,141.6z M138.4,145.5c0.1,0.1,0.1,0.3,0.2,0.4c0.1,0.1,0.2,0.1,0.3,0.1
			C138.7,145.8,138.5,145.7,138.4,145.5c-0.3-3.3-2.4-5.8-3.9-8.5c-0.7-1.2-1.8-1.9-3.6-1.8c0.9,1.9,1.6,3.5,2.5,5
			C134.7,142.3,135.8,144.7,138.4,145.5z M222.8,40.7c-0.8,0.3-1.8,1.2-2.4-0.1c-0.9-1.7-1.6-1.7-2.4,0c-0.8,2-1.9,3.9-1.8,6.6
			C219.5,45.8,221.9,44.1,222.8,40.7c0.1-0.1,0.3-0.1,0.4-0.2c0.1-0.1,0.1-0.2,0.1-0.3C223.1,40.4,222.9,40.6,222.8,40.7z
			 M101.5,85.4c-0.7,0.7-1.2,1.5-2,2c-3.4,1.8-3,4.9-2.8,7.9c0,0.5,0.6,1,0.9,1.5c0.4-0.4,1.1-0.8,1.2-1.3
			C99.8,92.1,100.6,88.7,101.5,85.4c0.9-0.2,1.7-0.4,2.6-0.4c0.3,0,0.7,0.5,1,0.7c0.1-0.5,0.3-1,0.2-1.3c-0.6-0.9-1.3-1.7-2.3-2.9
			C102.4,83,101.9,84.2,101.5,85.4z M114.1,94.1c-0.1-0.4-0.2-0.8-0.3-1.3c-0.2,0.1-0.3,0.2-0.5,0.3
			C113.6,93.5,113.9,93.8,114.1,94.1c-2.3,4.5,0.2,8.7,0.8,13C118.2,102.5,116.8,98.3,114.1,94.1z M124.8,134.8
			c-0.1-0.1-0.1-0.3-0.2-0.4c-0.1-0.1-0.2-0.1-0.3-0.1C124.5,134.5,124.7,134.7,124.8,134.8c1.3,3.9,2.7,7.8,4,11.8
			c0.1,0.2,0.5,0.5,0.7,0.5c0.2,0,0.6-0.2,0.7-0.4c1.4-3.1,0.1-7.9-2.7-9.9C126.7,136.1,125.7,135.5,124.8,134.8z M498.3,15.5
			c-1.4,1.5-2.6,3.2-4.2,4.6c-1.7,1.5-1.7,3.3-1.6,5.3c0.1,1.6,1,2,2.2,1c1-0.8,2-1.8,2.3-2.9C497.7,20.9,497.9,18.2,498.3,15.5
			c0.6-0.3,1.3-0.6,1.9-1c1,2.3,2,4.7,3.1,7c0.3,0.6,1.4,1.5,1.7,1.4c0.8-0.3,1.5-1.1,1.8-1.9c0.8-1.8,0.9-3-0.9-4.9
			c-2-2.1-3.7-1.6-5.8-1.6C498.6,12.9,498.5,14.4,498.3,15.5z M118,108.6c-0.1-0.1-0.1-0.3-0.2-0.4c-0.1-0.1-0.2-0.1-0.3-0.1
			C117.7,108.3,117.9,108.5,118,108.6c-1.9,5.6-0.7,10.8,1.6,16.1C122.1,120.1,121.4,113.5,118,108.6z M30.7,5.8
			c-2,3.6-2.9,7.5-4,11.4c-0.6,2.1-1.1,4.2-0.6,6.2c1.3-0.6,2.5-1,3.5-1.7c1.9-1.2,3.3-3.8,2.5-5.2C30,13.2,30.8,9.5,30.7,5.8
			c0.4-0.1,0.9-0.1,1.3-0.3c0.2-0.1,0.3-0.5,0.5-0.7c-0.3,0-0.8-0.2-1,0C31.2,5,31,5.5,30.7,5.8z M84.1,20.4
			c-1.8,0.8-2.2,2.6-2.8,4.2c-0.7,1.8-1.3,3.7-2.4,5.2c-1.4,1.8-1.6,3.3-0.6,5.2c0.7,1.4,1.1,2.9,1.7,4.3c2.2-0.5,2.9-2.3,3.4-4.2
			c0.2-0.8,0.7-1.5,0.7-2.3c0-0.9-0.2-2.3-0.7-2.5c-2.1-1-1.4-2.6-1-4C82.8,24.3,83.5,22.3,84.1,20.4c0.2-0.1,0.3-0.3,0.5-0.4
			C84.4,20.1,84.2,20.2,84.1,20.4z M454.6,12.6c-2.7-0.2-5.5,1.9-8.1-1.3c-0.4,1.7-0.4,2.8-0.9,3.7c-1.4,2.8,1.4,3.5,2.5,5
			c1.1,1.6,2.4,0.8,3.8,0.4c1.7-0.4,2.3-1.7,2.5-3.1C454.7,15.8,454.6,14.2,454.6,12.6c0.1-0.1,0.3-0.1,0.4-0.2
			c0.1-0.1,0.1-0.2,0.1-0.3C454.9,12.3,454.8,12.5,454.6,12.6z M79.2,12.6c-0.9,0.7-1.6,1.7-2.6,2.1c-2.7,1-3.3,3.3-3.7,5.7
			c-0.5,3.3-1,6.6-1.4,10c-0.1,1.1,0,2.9,0.6,3.1c1.6,0.6,1.9-1.2,2.6-2.1c1.3-1.9,2.5-3.7,3.7-5.6c0.4-0.6,0.9-1.7,0.6-2.2
			C77.2,19.8,78.9,16.2,79.2,12.6c0.1-0.1,0.3-0.1,0.4-0.2c0.1-0.1,0.1-0.2,0.1-0.3C79.5,12.3,79.4,12.5,79.2,12.6z M173.6,126.4
			c-0.4,1.3-1,2.3-1.1,3.4c-1,7.8-1.9,15.5-2.9,23.3c-0.9,6.6-1.9,13.3-2.8,19.9c-0.2,1.9-0.3,3.9,0.1,5.8c1.1,4.3,3.6,8.2,4,12.8
			c0,0.4,1.2,0.7,1.8,1.1c1-2,3.6-3,3.5-5.6c-0.2-2.8,0.6-5.4,1.6-8c0.2-0.6,0.2-1.8-0.2-2.2c-2.3-2-1.2-4.4-1.1-6.7
			c0.1-1.4,0.3-2.8,0.3-4.2c0-2.7,0-5.4,0-8c0-1.1,0.5-2.5,0-3.2c-2.6-4.1-1.5-8.3-1-12.6c0.3-2.6,1.5-5.2,0.6-7.9
			C175.5,131.8,174.6,129.3,173.6,126.4z M193.3,529.5c2.1-0.9,5.4-0.2,6.3-3.8c0.3-1.2,1.2-2.3,1.7-3.4c1.4-3,1.4-3-1.7-4.7
			c-2.5-1.4-5-2.9-7.5-4.2c-1.4-0.7-2.7-1.7-4.4-0.3c-2.2,1.8-2.4,2.7-2.1,5.2c0.4,2.8,2.5,5.2,1.6,8.3c-0.1,0.5,0.7,1.5,1.3,1.8
			C189.9,528.8,191.5,529,193.3,529.5z M52.9,540.6c3.8,1.5,6-0.5,8.1-2.9c0.5-0.6,1.2-1.1,1.7-1.8c2.5-3.1,2.3-3.5-0.4-6.4
			c-1.7-1.9-3.1-1.8-5-0.6c-4.4,2.7-8.8,5.3-13.1,8.1c-1.3,0.8-2.6,1.9-3.8,3c-0.3,0.3-0.6,1.1-0.5,1.2c0.4,0.4,1,0.8,1.5,0.8
			c1.1,0.1,2.3,0,3.4-0.1C47.5,541.5,50.3,541.1,52.9,540.6z M90.4,32.9c2.7-2.3,5.4-4.3,7.6-6.7c3.4-3.6,4.4-3.7,7.6-0.3
			c0.9,1,1.3,1.8,1,3.3c-0.4,2.7-0.4,5.5-0.1,8.2c0.2,2.6,1,5.2,1.7,8.8c1.6-2.6,2.7-4.3,3.7-6c3.1-5.1,2.7-10-1.1-14.6
			c-1.9-2.3-3.6-4.9-7.2-3.1c-0.4,0.2-1,0.1-1.4,0c-2.7-0.5-4.5,0.5-6,2.8c-1,1.4-2.7,2.3-4,3.4C90.9,29.5,89.5,30.4,90.4,32.9z
			 M233.1,10.6c0.8,3.1,1.8,6.9,2.9,10.7c0.3,0.9,0.9,1.7,1.6,2.3c0.3,0.3,1.5,0.2,1.6,0c1.3-2.5,2.5-5.1,3.7-7.7
			c0.7-1.7-0.8-2.6-1.4-3.8c-0.7-1.4-1.1-3-1.8-4.4c-0.8-1.7-1.6-3.5-2.6-5.1c-0.4-0.6-1.5-1.2-2.2-1.2c-0.4,0-1.2,1.1-1.2,1.8
			C233.3,5.4,233.3,7.6,233.1,10.6z M293.6,21.2c0,1,0,1.3,0,1.6c0.1,2.2,0.7,2.7,2.6,1.5c3.9-2.5,7-5.7,8.6-10.1
			c0.3-0.9,0.5-1.9,0.3-2.8c-0.2-0.8-0.7-1.9-1.4-2.3c-1.5-0.9-3.2-1.5-4.9-2c-1.4-0.5-2.7,0-3,1.5C294.9,13,294.3,17.4,293.6,21.2z
			 M221.6,28.6c4.3-8.9,7.5-17,5.8-27.1c-2.7,3.2-4.9,5.8-7,8.3c-0.3,0.3-0.4,0.9-0.4,1.4C220.1,16.7,219,22.2,221.6,28.6z
			 M260.6,8.8c0-1.3,0-1.6,0-1.9c-0.2-1.9-1.4-3.6-3-3.8c-2-0.3-1.5,1.6-2.2,2.5c-0.8,1.2-1.7,2.3-2.4,3.6
			c-1.8,3.4-3.7,6.7-5.3,10.2c-0.5,1,0,2.4,0,3.6c0.8-0.4,1.7-0.8,2.5-1.2c0.9-0.4,1.7-0.9,2.5-1.4C257.4,17.5,259.4,13,260.6,8.8z
			 M291.5,20.8c0.1,0,0.2,0,0.2,0c-0.4-2.5-0.8-5.1-1.1-7.6c-0.5-3.8-2.1-6.4-6.4-6.4c-1,0-2.5-1.2-2.8,0.5
			c-0.4,1.7-2.6,3.6-0.4,5.2c2.1,1.6,2.7,3.9,3.9,6c1,1.7,1.7,3.5,2.8,5.1c0.5,0.7,1.5,1,2.3,1.5c0.5-0.9,1.1-1.8,1.5-2.7
			C291.7,21.8,291.5,21.3,291.5,20.8z M214.1,22.6c-0.5-3.6-0.6-6.4-1.3-9c-0.4-1.4-1.9-2.4-3.1-3.5c-0.2-0.2-1.5,0.1-1.6,0.4
			c-1,2.5-2.9,5.2-2.5,7.5c0.8,4.5,3,8.7,4.7,13c0.4,1,1.4,0.9,1.7-0.1C212.9,27.9,213.6,24.8,214.1,22.6z M386.9,3.5
			c-1.1,2.3-2.3,4.4-3.2,6.6c-0.4,1-0.8,2.2-0.7,3.2c0.5,3.5,1.3,7,2.1,10.6c4-2.3,4.7-6,5.9-9.7C392.5,9.3,392.9,5.5,386.9,3.5z
			 M404.7,8.1c-0.2,0.5-0.5,0.9-0.4,1.1c1.2,3.8,1,7.4,0.1,11.3c-0.7,3.1-0.2,6.4-0.1,9.6c0.1,1.4,1.2,1.7,2.3,0.8
			c3.2-2.5,3.7-6.3,4.2-9.9c0.8-6.3,0.5-6.6-4-11C406.2,9.4,405.5,8.8,404.7,8.1z M359.5,2.1c-1.5,0.9-2.4,1.4-3.4,2.1
			c-2.6,1.8-3.8,4.4-3.3,7.5c0.5,2.7,1.3,5.2,0.2,7.9c-0.3,0.7,1.1,2,1.7,3.1c0.8-0.6,2.2-1,2.4-1.8c1.2-3.8,2.5-7.6,3.1-11.5
			C360.6,7.2,359.8,4.7,359.5,2.1z M99,43.3c0.2-0.3,0.5-0.7,0.8-1c3.5-4.2,3.8-9.3,3.6-14.5c0-0.7-0.7-1.3-1.1-2
			c-0.6,0.4-1.4,0.7-1.9,1.2c-1.3,1.2-2.4,2.6-3.8,3.7c-1.5,1.3-1.8,2.8-1.9,4.7C94.6,38.7,94.9,41.7,99,43.3z M120.9,19.6
			c-0.1-4.6-3.7-6.7-7.1-5.4c-2.5,0.9-2.5,3.2-3.3,5c-0.7,1.7,1.2,2,1.9,2.9c0.8,1,1.1,2.3,1.8,3.3c0.7,1,1.7,1.8,2.7,2.4
			c0.4,0.2,1.7-0.3,1.9-0.7C119.7,24.4,120.3,21.6,120.9,19.6z M378.6,21.5c-0.4-2.1-0.6-4-1.1-5.8c-0.9-2.7-3.5-4.3-6.4-4
			c-0.6,0.1-1.3,0.4-1.6,0.8c-1.2,1.5-1.1,3.9,0,5.7c1.3,2,2.5,4.1,3.7,6.1c0.9,1.3,1.8,3.1,3.6,2.5c0.7-0.2,0.8-2.1,1.2-3.2
			C378.3,22.8,378.5,22.1,378.6,21.5z M302.6,30.6c-0.2,2.3,0.7,2.8,2.8,1.8c3.8-1.7,6.5-7.6,4.9-11.3c-0.7-1.6-1-4.6-3.2-4.1
			c-1.5,0.3-3.1,2.8-3.6,4.6C302.8,24.5,302.9,27.6,302.6,30.6z M472.1,17.4c-0.4-3.3-1.7-6.4-4.8-8.7c-2.1-1.5-4.1-2.4-6.6-1.4
			c-0.4,0.2-1.1,0.8-1,1c0.6,1.5,1.1,3,2,4.4c0.4,0.6,1.7-1.6,2.3,0.2c0.5,1.2,0.8,2.5,1.5,3.5c1,1.4,2.2,2.7,3.5,4
			c1.1,1.1,2.5,0.7,2.9-0.8C472,19,472,18.4,472.1,17.4z M317.3,26.5c3.1-2.9,4.5-6.9,5.1-11c0.3-2.1-0.3-4.4-0.7-6.5
			c-0.2-1.1-1-2.2-2.4-1.8c-1.2,0.3-2.4,0.9-2.4,2.5C316.7,15.3,315.3,21,317.3,26.5z M94.6,11.4c-2.1,2.1-3.8,3.5-5.1,5.3
			c-1.4,1.9-2.6,4.1-3.6,6.2c-0.6,1.2,0.3,3.8,1.4,4.1c1.4,0.4,2.5,0,2.8-1.7c0.1-0.3,1.3-0.7,1.3-0.5c0.7,1,1.4,1.2,2.2,0.1
			c0.6-0.7,1.4-1.4,2-2.1c1.1-1.2,1.5-2.3-0.1-3.6c-1.5-1.2-1.8-2.9-1-4.7C94.8,13.9,94.6,13,94.6,11.4z M54.9,1.8
			c-2.8,0.5-5,0.6-6.8,1.4c-1.4,0.6-3.3,2-3.3,3.2c-0.1,3.3-1.7,6.1-2.2,9.2c-0.1,0.7,0.4,1.5,0.6,2.2c0.7-0.2,1.5-0.3,2-0.7
			c0.8-0.7,1.5-1.7,2.1-2.6C49.7,10.5,52.1,6.5,54.9,1.8z M333.4,21.4c0-5-2.8-9.6-6.8-11.2c-1.3-0.5-2.1,0-1.8,1.2
			c0.7,3.1,0.7,6.4,2.4,9.2c0.7,1.1,1.1,2.4,2,3.3c0.9,0.9,2.1,1.3,3.2,1.9c0.3-1.1,0.6-2.3,0.9-3.4
			C333.4,22.1,333.4,21.8,333.4,21.4z M32.5,10.1c0.3,1,0.4,2.9,0.9,3c1.1,0.2,2.5-0.2,3.5-0.8c3.8-2.3,5.4-6.2,7.1-10
			c0.1-0.2-0.3-1-0.6-1.1C41.5,1,39.6,0.4,38,2c-1.2,1.1-2.2,2.3-3.4,3.4C33.1,6.7,32.4,8.2,32.5,10.1z M285,29.6
			c-0.1,0-0.2,0-0.3,0c0.3,1.9,0.3,3.9,1,5.6c1.5,4.1,2.2,4.2,5,1.1c1.4-1.5,2.3-3.4,3.4-5.2c0.9-1.5,0.1-2.7-1.4-2.9
			c-2.2-0.2-4-1-5.6-2.4c-1-0.8-1.8-0.5-1.9,0.8C284.9,27.7,285,28.7,285,29.6z M340.9,32.7c0.2-5.4,1.4-10.8-3.7-14.7
			c-0.3-0.3-0.4-1.1-0.3-1.6c0.8-4.4,0.6-4.6-4.2-4.3c2.7,4.2,4.4,8.5,2.7,13.5c-0.7,2,0.1,3.8,1.9,5
			C338.5,31.2,339.6,31.8,340.9,32.7z M421.5,13.7c-1.7,1.6-2.7,3.5-3.9,3.6c-3.1,0.2-3.1,2.4-3.5,4.3c-0.4,2-0.2,4.1-0.2,6.2
			c0,0.7,0.5,1.3,0.8,2c0.5-0.3,1.2-0.4,1.6-0.8C421.1,25.1,421.8,19.9,421.5,13.7z M21.2,8.6c-3.3,6.3-4.2,12.4-4,18.7
			c0,0.5,0.5,1,0.8,1.5c0.6-0.4,1.5-0.7,1.8-1.3c1.1-3,2.5-5.9,3-9C23.2,15.4,23.7,12.1,21.2,8.6z M345,30.5
			c3.3-3.4,5.3-6.3,4.7-10.1c-0.4-2.7-1.2-5.2-0.1-8c0.6-1.6-1.3-1.9-2.4-2.3c-0.2-0.1-1,1-1.2,1.6C344.3,17.5,345.3,23.4,345,30.5z
			 M119,96.7c1.2-5.3,0-9.8-1.4-14.2c-0.3-1.1-0.8-2.2-1.6-3c-0.6-0.6-1.8-1-2.5-0.7c-0.6,0.2-1.2,1.6-1.1,2.2
			c1,3.5,2.1,7.1,3.5,10.5C116.6,93.4,117.9,95,119,96.7z M430.9,10.1c-0.4,0.2-0.7,0.3-0.9,0.6c-1.3,1.3-2.5,2.6-4.6,1.7
			c-0.1-0.1-0.7,0.5-0.8,0.8c-0.4,3.6,0.9,6.6,3.6,9c1.5,1.3,2.5,0.9,3-1.2c0.5-1.7,0.7-3.5,1.4-5.1c0.9-2,0.1-3.4-0.8-5
			C431.7,10.6,431.2,10.4,430.9,10.1z M56.9,2.5c-1.2,2.5-3.5,3.5-2.2,5.9c0.1,0.2-0.2,1-0.5,1.2c-3.5,2.1-4.7,6-6.7,9.1
			C47,19.4,45.8,20.2,47,21c0.5,0.3,1.8-0.2,2.5-0.6c0.7-0.4,1.2-1.1,1.7-1.7c1.8-2,3.7-3.9,5.3-6.1c0.9-1.2,1.8-2.7,1.8-4.1
			C58.5,6.9,57.7,5.2,56.9,2.5z M111.7,3.8c-1,1.1-2.1,1.7-2.4,2.6c-1.2,3.6-3.3,6.5-6.2,9c-0.7,0.6-1.5,1.3-1.9,2.1
			c-0.4,0.6-0.5,1.5-0.4,2.2c0.1,0.3,1,0.5,1.6,0.7c3.1,0.7,4.2-1.8,5.5-3.8C110.6,12.9,113,9.2,111.7,3.8z M81.6,52.4
			c-0.1-0.3,0,0.1,0.1,0.5c0.5-0.2,1.3-0.1,1.6-0.5c2.4-3,4.8-5.9,7-9c0.7-1,1.2-2.3,1.3-3.5c0.1-0.8-0.5-2-1.1-2.4
			c-0.5-0.3-1.8,0.2-2.4,0.7C84.2,41.7,82.3,46.4,81.6,52.4z M92.8,3.5c-1.7,0.7-2.6,0.8-3.3,1.3c-1.2,0.8-2.1,2-3.3,2.8
			c-2.8,2.1-4.4,4.9-5.2,8.2c-0.1,0.5,0,1.2,0.4,1.5c0.4,0.3,1.4,0.6,1.7,0.4c2-1.6,4.3-3,5.6-5C90.4,10.2,91.2,7.2,92.8,3.5z
			 M114.3,3.3c-0.1,1.7-0.2,2.9,1.1,4.1c2.6,2.6,5,5.3,7.5,8c0.6,0.7,1.2,1.5,2,2c0.6,0.3,2,0.3,2,0.2c0.3-1.9,0.6-3.7,0.7-5.6
			c0-0.2-0.7-0.7-0.9-0.6c-3,1.1-4.3-1.2-5.3-3C119.7,5.6,117.4,4.3,114.3,3.3z M437,4.9c-0.3,0.3-1.5,0.8-1.6,1.6
			c-0.6,3.4,3.9,8.3,7.1,8c0.4,0,1-0.3,1.2-0.6c1-1.5,1.6-3.1,0.7-4.9C443,6.2,440.7,5.1,437,4.9z M125.6,34.7
			c-0.7,1.8-1,2.9-1.5,3.9c-2.3,4.6-0.5,8.2,2.8,11.4c0.4,0.4,1.4,1,1.5,0.9c0.5-0.5,1.2-1.2,1.2-1.9
			C129.6,44.1,128.2,39.7,125.6,34.7z M217.8,19.1c0-2.1,0.1-3.8,0-5.5c-0.1-2.2,0.5-4.1,1.6-5.9c1.8-2.8,1.5-3.7-1.2-5.9
			c-1.3-1-2.6-0.7-3,0.7C213.9,8.3,213.3,13.9,217.8,19.1z M79.3,76.4c3.5-1.6,6.4-3.3,8.3-6.1c0.5-0.7,0.7-2.3,0.4-2.5
			c-2.2-1.4-1.2-3.4-1.2-5.2c0-0.4-0.4-0.8-0.6-1.2c-0.4,0.2-0.9,0.3-1.1,0.7c-1.9,3.7-3.8,7.4-5.6,11.2
			C79.2,74.1,79.4,75.1,79.3,76.4z M201.3,29.4c-0.7,2.2-1.3,4.3-1.9,6.3c-0.9,3.1,0.7,6.1,3.9,6.8c2.1,0.5,4.1-1.5,3.5-3.6
			c-0.3-1.1-0.6-2.2-1.2-3.1C204.4,33.8,202.9,31.8,201.3,29.4z M69.7,49.8c0.3-0.1,0.6-0.2,0.9-0.2c-0.4-7.1-0.7-14.1-1.1-21.8
			c-2.6,4.2-3.5,8.3-3.8,12.6c0,0.3,0,0.7,0.1,1C67.1,44.2,68.4,47,69.7,49.8z M63.4,34.6c-4,5.7-5.1,11.4-6.4,17.1
			c-0.2,1.1,0.6,1.4,1.5,0.8c0.8-0.5,1.5-1.1,2.2-1.8C64.7,46.2,63.7,40.8,63.4,34.6z M322.6,23.3c-1.4,2-3,4-4.3,6.1
			c-0.9,1.4-1.6,1.9-2.9,0.6c-0.6-0.6-1-0.6-1.4,0.3c-1.2,2.6-3.4,4.9-3.6,8.6C317.1,35.3,322.6,31.6,322.6,23.3z M58.3,29.5
			c2.7,0.4,5.2-1.7,5.2-4.6c0-0.5-0.9-1.5-1.4-1.5c-2.7,0.1-5.4,0.4-8.1,0.7c-1.3,0.1-2.2,0.9-1.8,2.2c0.3,0.9,1,2.1,1.8,2.5
			C55.3,29.4,56.8,29.3,58.3,29.5z M457.6,8.5c-0.5,1.4-0.9,2-0.9,2.6c-0.4,3.5-0.8,7-1,10.5c-0.1,2-0.9,4.4,1.2,6.2
			C461.3,20.2,461.5,17.7,457.6,8.5z M325.9,24.5c-1,5.1,0.6,9.5,2,13.9c0.4,1.2,1.4,1.2,2.1,0.1c1.9-2.7,1.3-5.8,1.3-8.8
			c0-2.1-2-2.3-3.1-3.3C327.5,25.8,326.8,25.2,325.9,24.5z M188.8,129.8c0-2.5,0.2-4.7-0.1-6.9c-0.2-1.7-0.4-3.8-1.5-4.9
			c-0.6-0.7-2.9,0.2-4.4,0.4c-0.5,0.1-0.9,0.3-1.8,0.6c2.4,3.9-0.9,9,3.7,12.8c0.7-4.3-2.1-8.1-0.2-12.2
			C187.3,122.4,185,127,188.8,129.8z M114.6,50.2c3.7-5.9,3.7-12.1,3.1-18.8c-1.5,3.5-2.5,6.7-4.2,9.5
			C111.5,44.3,111.4,47.1,114.6,50.2z M110.1,48.2c0.6,4.6,0.1,8.1-1.9,11.4c-0.3,0.5-0.1,1.7,0.3,2c2.9,2.1,5.5,4.3,7.4,7.3
			c0.7,1.1,2.1,1.2,2.9,0.2c0.4-0.5,0.3-1.8-0.1-2.5c-2.2-3.3-5.1-5.7-9.3-5.9C109.9,56.7,114.2,53.3,110.1,48.2z M129.6,25.5
			c0-4.3,0-4.3-3.9-5.2c-0.3-0.1-0.6-0.2-0.9-0.4c-1.2-0.5-1.8,0-1.9,1.2c-0.3,2.6,0.4,5.1,1.8,7.3c0.7,1,1.9,1.6,2.8,2.4
			c0.6-1,1.3-2,1.7-3.1C129.6,26.8,129.6,25.8,129.6,25.5z M123.4,96.9c0.8,2.1,0.9,3.6,1.6,4.1c2.5,1.6,3.2,4.3,4.8,6.4
			c1.3,1.7,2.1,3.7,4.3,4.6c-0.2-1.8-0.6-3.4-0.5-4.9c0.2-3.6-1.9-5.6-4.5-7.4C127.7,98.8,126,98.2,123.4,96.9z M337.9,7
			c0.6,2.3,0.8,4,1.5,5.6c0.4,1,1.4,1.7,2.1,2.5c0.7-0.8,1.8-1.5,1.9-2.4c0.4-2,0.7-4.1,0.3-6.1c-0.4-2.2-3.4-5-3.8-4.3
			C339,3.8,338.5,5.6,337.9,7z M132.3,97.2c0.1-2.8-4.5-8.4-7.1-8.6c-1-0.1-2.1,0.6-2.9,1.3c-0.3,0.3-0.1,1.5,0.1,2.2
			c0.8,2.1,6.5,5.8,8.9,5.7C131.7,97.8,132,97.4,132.3,97.2z M99,73.5c0.5-0.5,1-0.8,1.2-1.2c0.8-1.4,1.4-2.8,2.2-4.2
			c1.4-2.6,1.2-2.4-1.3-4.7c-1.6-1.5-2.3-1.1-3.4,0.1c-0.5,0.6-1.2,1.1-1.7,1.7c-2,2.2,1,3.7,1,5.7C97,71.8,98.2,72.6,99,73.5z
			 M354.4,30.2c0.4,1.1,0.7,2.3,1.1,3.4c1-0.5,1.9-1.1,2.9-1.6c2.4-1.2,3-3.7,3.8-5.9c0.2-0.7-0.7-1.9-1.4-2.7
			c-0.4-0.4-1.8-0.5-2-0.3C357.3,25.5,353.3,26.2,354.4,30.2z M313.6,20.3c0.9-6.1,0.8-11.9,4.1-17.1c-4.2,1.4-6.1,2.8-6.4,5.5
			C311,12.5,310,16.6,313.6,20.3z M65.8,47.7c-1,3.4-2.2,6.3-2.8,9.4c-0.4,1.8-2.6,3.7-0.3,5.7c1.2-1.4,2.9-2.6,3.6-4.2
			c1.4-3.2,4-6.6,0.6-10.2C66.7,48.3,66.6,48.2,65.8,47.7z M131.1,7.2c0.6,2.5,1.1,4.8,1.7,7.1c0.3,1.1,1.4,1.1,1.8,0.4
			c1-2.1,2.1-4.3,2.5-6.6c0.2-1.2-0.9-2.6-1.5-3.9c-0.3-0.7-1-1.2-1.4-1.8c-0.7,0.6-1.6,1.1-2.1,1.9C131.5,5.2,131.4,6.3,131.1,7.2z
			 M47.8,38.2c-0.7-2-1.1-3.4-1.8-4.9c-0.2-0.5-0.8-1.1-1.2-1.1c-0.5,0-1.1,0.5-1.5,0.9c-2.1,2.6-1.8,6-2.8,9.1
			c-0.3,0.9,1.2,1.9,1.9,1.3c1.8-1.5,3.5-3.2,5.2-4.9C47.9,38.3,47.9,37.9,47.8,38.2z M370.4,32.2c-0.3-1.3-0.7-3.3-1.3-5.2
			c-0.4-1.4-1.7-1.9-3.1-1.6c-0.6,0.1-1.5,1-1.4,1.4c1,3.7,2.1,7.3,3.2,10.9c0.1,0.3,0.8,0.6,1.1,0.6c0.4-0.1,0.9-0.6,0.9-0.9
			C370.1,35.9,370.2,34.5,370.4,32.2z M66.1,67.1c4.2-2.2,5.4-6.3,7.7-9.3c1.5-2,1.5-5.2,2.2-7.9C71,54.5,68.3,60.3,66.1,67.1z
			 M96.8,16.4c0.5-0.1,0.9,0,1.1-0.2c2.3-1.9,4.7-3.8,6.9-5.9c0.6-0.5,0.9-1.4,1.1-2.1c0.1-0.4-0.5-1.3-0.8-1.3
			c-4.6-0.4-8.9,3.8-8.9,8.5C96.3,15.8,96.7,16.2,96.8,16.4z M212.7,42.1c2.5-4.2,4.1-7.7,3.9-11.8c0-0.6,0.6-1.7,0.9-1.7
			c2.2,0.2,1.3-1.4,1.1-2.2c-0.2-0.6-1.3-1.5-1.6-1.4c-0.7,0.3-1.3,1.1-1.7,1.8c-0.3,0.7-0.1,1.6-0.3,2.3c-0.7,1.8-1,4.2-2.3,5.1
			c-2.4,1.7-2.1,3.1-0.8,5.1C212.2,39.8,212.2,40.5,212.7,42.1z M393.3,29.1c1.3-1.7,2.5-3.2,3.4-4.8c0.4-0.7,0.5-1.9,0.1-2.7
			c-1-2.3-2.4-4.4-3.8-7C391.5,19.6,390.6,24.1,393.3,29.1z M227.5,31.4c-0.4,0.3-0.7,0.5-0.9,0.7c-2.4,3.2-1.9,8.5,1,10.9
			c0.3,0.3,0.9,0.4,1.3,0.3c1.8-0.5,3.2-5.4,1.7-6.1c-2-0.9-2.3-1.7-1.7-3.6C229.2,33.1,228.1,32.2,227.5,31.4z M233.9,23.3
			c-1,3.5-2,6.7-2.9,9.9c-0.1,0.4-0.1,1.1,0.2,1.2c0.3,0.2,0.9,0.1,1.3-0.1c2.8-1.9,5.5-3.8,7.1-6.2
			C237.7,26.6,236.1,25.2,233.9,23.3z M79.3,65.3c-2,2-4,4.1-6,6.1c-1.6,1.6-3.2,3.1-4.7,4.8c-0.3,0.3-0.2,1.1-0.1,1.6
			c0,0.1,0.9,0.3,1.2,0.1C75.1,75.5,79.3,72.1,79.3,65.3z M61.5,32.9c-0.3-0.2-0.7-0.7-0.9-0.6c-3.8,2-6.8,4.8-9.3,8.2
			c-0.2,0.3-0.2,1.2,0,1.4c0.4,0.4,1.1,0.6,1.7,0.6C56.4,42,61,36.7,61.5,32.9z M72.7,48.1c4.7-2.7,6.3-6,3.7-10.7
			c-0.1-0.3,0-0.7-0.1-0.9c-0.3-0.5-0.7-0.9-1.1-1.3c-0.5,0.4-1.2,0.8-1.3,1.3C72.7,40.1,72.1,43.9,72.7,48.1z M146,140.6
			c-0.6-1.3-0.8-2.1-1.2-2.7c-2.2-3.3-4.5-6.5-6.8-9.7c-0.3-0.4-1.3-0.4-2-0.6c0.1,0.6,0.2,1.2,0.4,1.7c1,2.3,2.5,4.5,2.9,6.9
			c0.4,1.9,1.3,2.8,2.8,3.3C143.1,139.9,144.2,140.1,146,140.6z M109,95.2c3-2.5,2.2-5.6,2.1-8.3c-0.1-3-0.6-6-2.4-8.7
			c-0.4,2,0.1,4-0.5,5.7C106.9,87.6,107.6,91.1,109,95.2z M129.2,110.4c-0.2,0-0.4,0.1-0.5,0.1c0.4,3,0.8,5.9,1.1,8.9
			c0.3,2.5,2.3,4.6,4.9,4.7c1.3,0.1,1.9-0.7,1.3-1.7C133.7,118.4,131.4,114.4,129.2,110.4z M128.2,134.3c0.2-4-1.7-10.9-4.4-15.6
			C121.7,124.6,123.2,129.8,128.2,134.3z M281.1,16.5c0,1.7-0.1,2.8,0,3.9c0.3,3.9-0.4,7.7-2.2,11.2c-0.3,0.6,0,1.4,0,2.1
			c0.7-0.1,1.6-0.1,2.2-0.5c1.3-0.8,1.8-2.1,1.8-3.7c0.1-2.1,0.5-4.1,0.8-6.2C284.1,20.8,283.6,18.6,281.1,16.5z M118.5,75.8
			c-2.6-3.4-4.9-6.5-7.8-10.4c-0.3,2.6-0.4,4.2-0.6,5.7c-0.3,3.3,1.6,5.3,5.1,5C116,76.1,116.9,76,118.5,75.8z M143.8,124.7
			c-0.1-0.4-0.1-0.6-0.2-0.7c-2.1-3-4.2-6-6.4-8.9c-0.1-0.2-1.2,0.1-1.7,0.5c-0.4,0.3-0.8,1.2-0.6,1.5c1.5,2.8,3,5.6,4.7,8.3
			c0.3,0.4,1.4,0.5,2.1,0.4C142.5,125.6,143.1,125,143.8,124.7z M103,61.7c2.8-1.5,3.9-4.1,4.9-6.6c0.5-1.3,0.2-2.8,0.1-4.2
			c0-0.3-1.3-0.8-1.4-0.7c-1.1,1.2-2.5,2.3-2.9,3.7C102.9,56.2,100.6,58.6,103,61.7z M433.5,30.2c1.2-1.2,1.8-1.7,2.4-2.3
			c2.6-2.7,3-6,0.9-9c-0.3-0.5-1-0.8-1.4-1.1c-0.3,0.5-0.9,0.9-1,1.4c-0.6,2.5-1.3,4.9-1.7,7.4C432.6,27.5,433.1,28.6,433.5,30.2z
			 M14.7,22.9c1.5-2.8,1.7-5.3,0.5-8.1c-1.3-3.1-2.3-6.2-3.5-9.3C10.7,14.7,11.3,17,14.7,22.9z M389.6,24.3
			c-2.3,0.2-3.3,2.9-5.9,1.6c-0.1-0.1-0.8,0.4-0.9,0.7c-0.9,2.9-1.7,5.9-2.6,8.9c2.2-0.9,3.8-2,4.9-3.5
			C386.9,29.5,388.2,26.9,389.6,24.3z M153.4,3c-2.9,0.2-5.1,1.3-5.7,3.9c-0.5,2.1-0.5,4.4-0.4,6.6c0,1,1.3,1.1,1.7,0.4
			c1.1-1.7,2.1-3.5,2.8-5.4C152.5,6.9,152.8,5.1,153.4,3z M197.1,55.8c1.3-3.7,2.4-6.5,3.2-9.4c0.3-1.1-0.2-2.5-0.6-3.6
			c-0.1-0.3-1.8-0.4-1.8-0.2c-1.1,2.5-2.4,5-2.8,7.6C194.9,51.6,196.2,53.3,197.1,55.8z M278.9,15.5c-1.9,2.2-3.4,3.9-4.8,5.6
			c-0.3,0.4-0.7,0.9-0.7,1.2c0.3,2.5,0.8,5,1.3,7.5c0.1,0.3,0.7,0.6,1.1,0.7c0.2,0,0.6-0.3,0.7-0.5c0.2-0.7,0.4-1.5,0.5-2.3
			c0.3-2.9-0.3-5.9,1.8-8.5C279.3,18.5,278.9,17.1,278.9,15.5z M147.3,169.2c-1,2.8-1.9,5.4-2.9,8.1c-0.1,0.4-0.2,1-0.1,1.4
			c0.1,0.4,0.2,1,0.5,1.2c0.3,0.2,1,0,1.3-0.2c1.3-1.2,2.6-2.3,3.8-3.7c1.7-1.9,1.4-3.4-0.6-5.3
			C148.7,170.3,148.1,169.9,147.3,169.2z M161.1,217.7c2.3-4.4,2-9.1-1-16.2C158.1,205.7,158.4,209.8,161.1,217.7z M73.9,2.9
			c-0.2-0.3-0.3-0.8-0.4-0.8c-0.5,0-1.1-0.1-1.4,0.2c-3,3-4.7,6.7-5.2,10.9c-0.1,0.6,1.7,1.9,2.7,2c1.2,0.2,2.1-1,1.5-2.3
			c-1.3-2.9,0.2-5.2,1.4-7.6C72.9,4.4,73.4,3.7,73.9,2.9z M334.4,9.6c0.3-0.2,1.5-0.6,1.6-1.1c0.1-0.7-0.5-1.9-1.2-2.3
			C333,5,330.9,4,329,3c-0.5-0.2-1.3-0.4-1.6-0.2c-0.4,0.4-0.7,1.1-0.7,1.7C327,7.7,329.9,9.7,334.4,9.6z M104.5,38.9
			c-1.6,2.5-2.7,4.6-4.1,6.4c-1.3,1.7-0.5,3,0.4,4.4c0.2,0.3,1,0.5,1.2,0.4c1.4-1.5,3.6-2.8,3.9-4.6
			C106.4,43.6,105.1,41.4,104.5,38.9z M65,31.9c0.9-1.6,1.4-3,2.4-4c1.5-1.5,2.1-3,2.1-5.1c0-1.1,0.9-2.3,1.3-3.4
			C71,18.9,71,18.5,71,18c-0.6,0.1-1.4-0.1-1.6,0.2c-3,3.5-4.8,7.4-5.5,12C63.9,30.6,64.4,31,65,31.9z M184.7,103.7
			c0-2.3,0.1-3.9,0-5.6c-0.1-1.9-0.6-3.8-0.7-5.7c-0.1-1.6,0.1-3.3-1.5-4.4c-0.4,1.8-0.7,3.6-1.3,5.2
			C179.9,97.3,180.7,100.7,184.7,103.7z M147,152.9c0.9,2.9,1.5,5.3,2.5,7.7c0.6,1.4,1.8,2.6,2.8,3.8c0.1,0.2,0.7,0.3,0.9,0.2
			c0.3-0.3,0.7-0.8,0.7-1.1c-0.5-2-1.7-4-1.7-5.9C152.1,154.1,150.6,153,147,152.9z M182.8,105.9c1.2,2.9,2.2,5.2,3.1,7.5
			c0.5,1.3,1.5,2,2.9,2c1,0,2-0.2,1.5-1.6C189.3,110.2,188.2,106.7,182.8,105.9z M179.8,102c-0.7,0.7-1.1,0.9-1.2,1.1
			c-0.6,4.3,1.5,8.3,1.9,12.5c0,0.3,1.6,0.5,2.5,0.5c0.1,0,0.6-1.1,0.4-1.5C182.3,110.5,181.1,106.4,179.8,102z M16.7,12.3
			c2-3.6,6.2-6.2,2.9-10.8C13.9,6.1,13.7,6.6,16.7,12.3z M33.1,22.3c-0.8,2.8-1.6,5.4-2.2,8c-0.1,0.4,0.1,1,0.5,1.2
			c0.3,0.2,1,0.1,1.3-0.2c1-1,2.3-2,2.8-3.2c0.6-1.7,3.9-1.9,2.6-3.9C37.4,23.1,35,23,33.1,22.3z M89.7,60.1
			c0.2,0.2,0.4,0.4,0.6,0.6c1.1-0.7,2.3-1.2,3.2-2c1.1-1.1,2-2.5,3-3.7c1.1-1.2,1.6-2.5,0.2-3.8c-0.9-0.8-2.7-0.3-3.8,1
			c-0.4,0.5-0.7,1.1-0.9,1.7C91.3,55.9,90.5,58,89.7,60.1z M298.3,30.2c0.1,0,0.2,0,0.3,0c0,1.3-0.2,2.6,0.1,3.9
			c0.4,1.7,1,3.4,1.8,4.9c0.2,0.4,1.6,0.8,2.1,0.5c0.7-0.5,1.2-1.5,1.5-2.3c0.1-0.2-0.7-1.1-1.1-1.1c-2.3,0-2.6-1.4-2.5-3.2
			c0.2-2.2,0.4-4.5,0.5-6.7c0-0.5-0.3-1-0.4-1.6c-0.5,0.3-1.4,0.5-1.5,1C298.6,27,298.5,28.6,298.3,30.2z M118.4,62.9
			c6.9,4.3,5.6,3.1,9.2-0.3c0.4-0.4,0.8-1.2,0.6-1.6c-0.1-0.4-0.9-0.7-1.5-0.8C123.7,59.9,120.7,60.1,118.4,62.9z M89.6,52.3
			c-3.7,2.5-6.8,4.6-10,6.7c-0.4,0.3-0.8,0.6-1,0.9c-0.2,0.2-0.2,0.7-0.1,0.9c0.2,0.3,0.7,0.6,1,0.5c1.8-0.7,3.5-1.5,5.3-2.1
			C87.7,58.3,89.5,56.4,89.6,52.3z M152.4,178.2c-1.9,3.8-1.9,3.9,0.3,12.3C157,186.2,156.1,182.1,152.4,178.2z M159.2,175.6
			c-2.2,5.3-2,9.8,1,14.1C162.2,185.4,162,182.3,159.2,175.6z M208.7,44.3c-0.2-0.1-0.5-0.1-0.7-0.2c-0.4,1.5-0.9,2.9-1.2,4.4
			c-0.5,2.2-1.2,4.3-1.3,6.5c-0.1,1.1,0.9,2.3,1.6,3.2c0.2,0.3,1.8,0.1,2-0.3c0.5-1.1,0.7-2.3,0.8-3.5c0-0.4-0.6-0.7-0.7-1.2
			c-0.4-1-1-2-1-3C208.2,48.4,208.5,46.3,208.7,44.3z M123.4,111.6c1-4,0.2-7.1-0.6-10.2c-0.3-1.2-0.8-1.5-2-1.1
			c-0.8,0.3-1.7-0.1-1.9,1.4C118.6,105.7,121,108.2,123.4,111.6z M177.3,108.3c-0.6,2.1-0.7,3.5-1.3,4.7c-1.7,3.6-0.2,6.5,1.9,9.2
			c0.3,0.4,1.1,0.4,1.6,0.6c0.1-0.6,0.5-1.2,0.4-1.8C179.1,117.2,178.3,113.4,177.3,108.3z M126.4,84.9c-4-6.2-4.1-6.2-7.9-5.8
			c0.5,1.2,1,2.4,1.5,3.6C121.6,87.4,121.6,87.4,126.4,84.9z M150.5,165.8c1.4,3.7,2.4,6.4,3.3,9c0.1,0.3,0.1,0.7,0.3,0.9
			c0.3,0.3,0.8,0.7,1.1,0.7c0.5-0.1,1.2-0.6,1.3-1c0.5-2.6,0.5-5.2-1-7.3C154.9,167,153,166.8,150.5,165.8z M136.6,134.3
			c-1.2-2.4-2-4.4-3.1-6.1c-0.8-1.3-2-2.4-3.1-3.5c-0.2-0.2-0.7-0.3-0.9-0.2c-0.3,0.3-0.7,0.7-0.7,1.1
			C129.1,130,131.7,133.1,136.6,134.3z M173.4,204.8c-0.5-7.2-1.1-8.1-7.3-10.3C166.6,199.2,169.9,202,173.4,204.8z M187.5,177.4
			c-1.2,4.3-0.5,7.9,1.2,11.4c0.2,0.3,0.8,0.7,0.9,0.6c0.4-0.2,0.8-0.7,0.8-1.1C190.7,184.6,191.7,180.7,187.5,177.4z M150.9,137.2
			c-1.3-4.2-4.4-6.4-7.3-8.8c-0.3-0.3-1.2,0-1.8,0.1c0,0.6-0.1,1.2,0.1,1.6C144.2,133.1,145.9,136.8,150.9,137.2z M250.3,34.5
			c1.4-1.2,2.5-2,3.5-3c3.1-3.1,3-3.7,0.1-7c-0.3-0.3-0.8-0.6-1-0.5c-0.4,0.2-0.9,0.8-0.8,1.1c0.8,2.5-0.6,4.1-2.1,5.8
			c-0.4,0.5-0.7,1.1-0.8,1.7C249.3,33.1,249.8,33.6,250.3,34.5z M119.1,3c1.7,1.9,3,3.4,4.4,4.9c0.8,0.8,1.6,2.3,3.1,1.3
			c1.4-1,1.3-2.5,0.8-3.9c-0.5-1.4-1.3-2.5-3.1-2.3C122.7,3.1,121.1,3,119.1,3z M117.8,139.2c1.6-2.9,2.8-4.9,3.8-7
			c0.3-0.7,0.2-2.1-0.3-2.6c-0.7-0.6-2-1-3-0.9c-0.5,0.1-1.1,1.5-1.1,2.3C117.2,133.4,116.7,136,117.8,139.2z M94.3,78
			c-3.5,3-5.6,6.5-5.7,11.6C92.6,86.4,95.9,83.5,94.3,78z M121.1,26.9c-0.4,4.5-0.7,8.3-1,12.1c0,0.4,0.6,0.9,0.9,1.4
			c0.3-0.3,0.7-0.6,0.8-1c0.6-1.8,0.9-3.7,1.6-5.5C124.4,31.2,123.2,29.4,121.1,26.9z M263.7,34c2.4-2.2,2.7-4.6,3.5-6.8
			c0.4-1.2-0.9-3.1-2-3.4c-1.1-0.3-2.7,1.1-2.5,2.7C262.8,28.8,263.3,31.2,263.7,34z M164.6,207.4c0.2,2.4,0.5,4.9,2.4,6.9
			c0.3,0.3,1.1,0.5,1.6,0.4c0.3,0,0.7-0.8,0.6-1.2c-0.6-2.8-1.2-5.5-2-8.3c-0.1-0.4-0.9-0.8-1.4-0.9c-0.2,0-0.7,0.6-0.9,1
			C164.7,205.9,164.7,206.6,164.6,207.4z M191.3,159.4c-0.9-5.1-0.4-10.5-3.5-16.1C188.3,149.6,186.5,155.2,191.3,159.4z
			 M165.1,305.9c-0.4-4.6-0.3-9.4-3.3-14.2C159.4,297.8,163.2,301.7,165.1,305.9z M432.3,3.8c-0.7-0.7-1.2-1.5-1.9-2.1
			c-0.2-0.2-1.1-0.1-1.2,0.1c-1.2,2.2-2.4,4.3-3.5,6.6c-0.2,0.3,0.3,1.3,0.8,1.6c0.3,0.2,1.2-0.1,1.5-0.4c1.2-1.2,2.3-2.6,3.3-3.9
			C431.7,5.1,431.9,4.5,432.3,3.8z M55.7,32.2c0-0.2,0-0.4-0.1-0.5c-1.8-0.8-3.7-1.6-5.5-2.3c-0.2-0.1-0.7,0.5-0.9,0.9
			c-1.2,2-1.2,3.8-0.1,4.9c1.5,1.3,2.7-0.2,4-0.4c0.8-0.1,1.5-1.1,2.2-1.7C55.5,32.8,55.6,32.5,55.7,32.2z M154.3,152.1
			c-0.4,0.6-1,1.2-0.9,1.7c0.4,1.8,1,3.7,1.7,5.4c0.3,0.7,1.4,1,2.1,1.5c0.5-0.8,1.6-1.7,1.4-2.2c-0.5-1.9-1.4-3.8-2.3-5.6
			C156.1,152.5,155.2,152.4,154.3,152.1z M25.8,15.8c0.6-4.1,1.2-7.3,1.5-10.5c0.1-0.7-1-1.4-1.6-2.1c-0.5,0.5-1.5,1.1-1.6,1.6
			C24.1,8.2,23.1,11.8,25.8,15.8z M155.7,288.7c-0.2,0-0.5,0-0.7,0c-1.7,3.6-3.4,7.2-5.2,10.8c6.1-2.3,6.1-2.3,6-8.4
			C155.8,290.3,155.8,289.5,155.7,288.7z M147.4,165.3c0.3-0.1,0.6-0.2,0.8-0.3c-1.3-4.4-2.5-8.8-3.8-13.1c-0.2-0.6-0.5-1.2-1-1.6
			c-0.4-0.3-1.1-0.4-1.6-0.5c-0.1,0.6-0.6,1.3-0.4,1.7c1.3,3.1,2.7,6.1,4,9.2C146.2,162.2,146.8,163.8,147.4,165.3z M154.8,266
			c1.1-0.5,1.9-0.7,2.4-1.2c1.4-1.3,2.7-2.7,3.9-4.1c0.4-0.5,0.6-1.2,0.8-1.8c-0.7-0.2-1.8-0.9-2.1-0.6c-2,1.7-3.9,3.6-5.7,5.6
			C153.9,264.1,154.5,265.1,154.8,266z M141.9,20.9c1.4-4.5-1.8-7.2-3-11C136.1,16.8,137.7,17.8,141.9,20.9z M122.4,67.6
			c-0.4,0.9-0.8,1.9-1.5,2.8c-0.9,1.1,0,1.7,0.7,1.6c3.2-0.5,6.6,0.6,10-1.9C128.2,69.1,125.3,68.4,122.4,67.6z M84.2,83.1
			c1.4-2.1,2.8-4.2,4.1-6.4c0.4-0.6,0.4-1.5,0.5-2.3c0-0.4-0.2-1.1-0.5-1.2c-0.3-0.2-1,0-1.3,0.3C84.4,76,82.7,79,84.2,83.1z
			 M208.6,523.3c-0.9,6.4-0.6,6.9,5.9,5.9C212.8,525.1,212.8,525.1,208.6,523.3z M156,202.6c3-4.2,3.5-9.6,1.3-12.8
			c-0.1-0.2-0.6-0.3-0.8-0.2c-0.2,0.1-0.5,0.5-0.5,0.8C156,194.3,156,198.2,156,202.6z M474,14.9c0,1.4-0.1,2.3,0,3.2
			c0.3,1.9-1.1,4.1,1,5.7c1.1-1.8,2.1-3.5,3.2-5.3c0.9-1.5,0.2-2.4-1.3-2.9C476.2,15.4,475.4,15.3,474,14.9z M186,80.8
			c-0.1,0-0.3,0-0.4,0.1c-1.1,0.6-1.7,3.2-1.1,4.3c0.9,1.5,4.1,3.3,4.8,2.5c1.1-1.3,0.4-2.7-0.3-4c-0.6-0.9-1.3-1.8-2.1-2.6
			C186.7,80.9,186.3,80.9,186,80.8z M161.3,280.7c-3.1,3.8-3.9,7.4-2.7,11.7C161.6,289,162.2,285.1,161.3,280.7z M324.8,3.6
			c1.3-2.4,0-2.6-1.7-2.6c-0.3,0-0.6,0-1,0c-1.9-0.2-2.5,1.2-2.9,2.5c-0.1,0.3,1.2,1,1.9,1.5c1.1,0.8,2.5,2.5,3.4,2.3
			C326.8,6.6,323.5,4.7,324.8,3.6z M140.8,1.4c0.3,3.5,0.6,6.6,0.8,9.8C146.5,7.2,146.2,4.4,140.8,1.4z M55.5,20.1
			c0.1,0.4,0.1,0.8,0.2,1.2c2.5,0,5.1-0.1,7.6,0c1.6,0.1,2.3-0.7,2.9-2c0.5-1.3-0.2-2-1.3-1.7C61.7,18.3,58.6,19.3,55.5,20.1z
			 M148.4,140.5c-1.2,3.9-0.7,5.6,2.4,8c0.4,0.3,1.1,0.4,1.7,0.3c0.2,0,0.4-0.9,0.3-1.2C152,145,152,141.8,148.4,140.5z
			 M169.5,228.8c2.3-3.1,1.6-5.8,0.4-8.5c-0.3-0.7-0.9-1.2-1.4-1.8c-0.6,0.7-1.3,1.3-1.6,2.1c-0.2,0.7-0.1,1.6,0.2,2.3
			C167.7,224.8,168.5,226.5,169.5,228.8z M526.8,17.1c4.8-6.1,3.6-6.3,0.5-9C525,11.6,524.9,12.5,526.8,17.1z M133,148.1
			c-1.7,2.7-2.9,4.6-3.9,6.5c-0.3,0.5-0.1,1.2-0.1,1.8c0.7,0,1.5,0.2,2.1-0.1c3.2-1.5,4.3-1.7,2.6-5.6
			C133.5,150.1,133.4,149.5,133,148.1z M398.3,33.9c1-2,2.1-3.7,2.7-5.6c0.3-1.1,0.2-3.1-0.4-3.5c-1.6-0.8-1.8,1.1-2.6,2
			C396,29,395.9,31.2,398.3,33.9z M514.7,12.8c0.6,1.3,1.4,3.2,2.4,5c0.1,0.2,0.9,0.4,1.2,0.2c1.5-0.6,1.7-2.3,0.8-3.7
			c-0.7-1.2-1.1-2.6-1.7-3.8c-0.2-0.3-0.8-0.6-1.2-0.6c-0.4,0-0.9,0.3-1.2,0.7C514.8,11,514.8,11.5,514.7,12.8z M171.2,252.5
			c0.8-4.3,1.5-7.7,2-11.2c0.1-0.4-0.6-0.9-0.9-1.4c-0.3,0.3-0.9,0.6-1,0.9c-0.6,3.2-1.1,6.5-1.6,9.8
			C169.7,250.9,170.3,251.3,171.2,252.5z M506.4,6.1c-0.3,1.4-0.3,2.4-0.7,3.2c-0.9,1.6,0.1,2.8,0.8,4c0.4,0.8,1.2,1.1,1.9,0.2
			c0.5-0.8,0.9-1.7,1.4-2.5c1.1-1.6,0.5-2.7-0.9-3.6C508.2,6.9,507.5,6.6,506.4,6.1z M481.7,22.3c2.3-1.5,3.7-3,4.4-4.9
			c0.3-0.7,0.7-1.7,0.4-2.3c-0.5-0.9-1.5-1.4-2.2-2.1c-0.5,0.6-1.2,1.1-1.3,1.8C482.4,17.1,482.2,19.4,481.7,22.3z M185.9,168.1
			c0.3,0,0.5,0,0.8,0c0-3.8,0-7.5,0-11.2c-3,0.9-3.2,3-2.6,5.4C184.6,164.2,185.3,166.1,185.9,168.1z M118.8,57.5
			c-0.7-3.3,2.2-6.4,0.2-10.3c-0.8,1.8-1.3,3.1-2,4.4C115.4,54.7,115.4,54.7,118.8,57.5z M365.7,22.9c-0.2-3.1-1.8-5.5-3.4-8.1
			C359.5,19.7,360.1,21,365.7,22.9z M170,291.7c-2.5,7.7-2.2,8.7,2.5,11.3C171.7,299.4,171,296,170,291.7z M190.8,176.5
			c0-3.4,0.1-6,0-8.5c-0.1-1.9-0.4-3.7-0.7-5.6c-2.3,1.5-1,3.7-1.1,5.6C188.8,170.6,188.2,173.5,190.8,176.5z M186.5,190.5
			c-0.5,2.3-1,4.4-1.4,6.6c-0.4,2.2,0.3,4.5,1.3,4.2c1.8-0.6,1.3-2.3,1.5-3.7C188,195.2,188.9,192.6,186.5,190.5z M180.4,149.6
			c-0.6,4.5-2.3,8.4-1.8,12.6C180.8,158.4,183.4,154.7,180.4,149.6z M221.1,36.4c0.3,0.1,0.7,0.2,1,0.2c0.7-1.2,1.6-2.3,2-3.6
			c0.5-1.5,1.9-2.9,0.8-4.7c-1.4,1.2-3.3,2.1-4.2,3.6C220.1,33.1,220.9,34.9,221.1,36.4z M202.5,294.3c-2.6-3.5-4.9-6.6-7.4-9.9
			C194.8,289.6,195.8,291,202.5,294.3z M103.8,96.1c-1.8,3.7-3.3,6.8-4.8,9.9c-0.1,0.3,0,1.1,0.2,1.2c0.3,0.2,1,0.1,1.2-0.2
			c0.7-0.6,1.5-1.3,1.8-2.2c0.8-2.4,1.4-4.8,2.1-7.3C104.4,97.4,104.2,97,103.8,96.1z M135.2,19.1c-1.5,2.1-2.5,3.3-3.2,4.7
			c-0.3,0.5-0.1,1.8,0.3,2.1c0.8,0.6,2,0.9,3,1c0.3,0,1-1.2,0.9-1.8C136.1,23.4,135.7,21.7,135.2,19.1z M181.2,190.5
			c0.5,3.7-1.9,7.1-0.4,11.4c0.8-1.8,1.1-3.1,1.7-4.1C184.4,195.1,184,192.8,181.2,190.5z M178.9,132.9c0.6-5-1.3-8.3-4.3-11.6
			C175.2,126.2,176.2,129.2,178.9,132.9z M424.7,29.1c0.6-0.5,1.1-0.9,1.4-1.4c1.6-2.3,1.5-2.7-1.5-5.9c-0.3-0.3-1.1-0.7-1.3-0.6
			c-1.5,1.5-0.1,2.9,0.1,4.4c0.1,0.8,0.1,1.6,0.2,2.4C423.9,28.3,424.3,28.6,424.7,29.1z M141.6,157.4c0,4.3,0,8,0,12.1
			C144.9,163.8,144.9,163.6,141.6,157.4z M257.9,25.2c0.5-0.7,0.8-0.9,0.9-1.2c0.7-2.3,2.2-4.5,1.2-7.1c-1.5,1.5-3,3.1-4.6,4.6
			c-0.1,0.1-0.1,0.3-0.3,0.7C256,23.1,256.9,24.1,257.9,25.2z M169.6,205c1,3.4,0.7,7.1,4.2,9C175.3,209.7,173.1,207.3,169.6,205z
			 M181.8,252.3c-0.1-0.3-0.3-0.7-0.4-0.7c-1.7,0-3.4-0.1-5,0.4c-0.6,0.2-1.1,2-0.9,2.9c0.3,1.5,1.6,0.4,2.3,0.2
			c1.3-0.4,2.5-1.2,3.6-1.9C181.6,253,181.6,252.6,181.8,252.3z M171.8,215.9c0.7,2.4,0.1,5.2,2.6,6.8c0.6,0.4,1.4,0.7,2,1
			c0.1-0.7,0.4-1.5,0.3-2.2C176.6,218.4,173.4,217.9,171.8,215.9z M102,75.2c-1.4,1.1-3.3,2-4.1,3.5c-0.8,1.4-0.5,3.5,0.2,5.5
			C101.1,81.7,101.3,78.5,102,75.2z M99.5,56.4c-2,1.4-3.6,2.4-5,3.6c-1.2,1-2.2,2.2-3.3,3.4c-0.1,0.2-0.1,0.8,0,0.8
			c0.4,0.2,1,0.4,1.2,0.2C94.9,62.2,98.7,61.2,99.5,56.4z M181.8,131.4c-1.7,5-1.3,8.8,0.9,12.4
			C182.7,140.1,183.8,136.3,181.8,131.4z M41.1,12.5c-1.8,2.2-3.1,3.8-4.2,5.5c-0.5,0.8-0.4,1.9-0.6,2.9c1.2-0.3,2.4-0.5,3.5-0.9
			c0.4-0.2,0.5-1.1,0.6-1.7C40.6,16.7,40.8,14.9,41.1,12.5z M233,21.4c-3.5,1.2-4.4,3.9-5,6.6c-0.1,0.5,0.8,1.2,1.3,1.7
			c0.4-0.4,1-0.7,1.2-1.2C231.3,26.4,232.1,24,233,21.4z M121.8,74.7c-0.3,0.3-0.7,0.7-1,1c1.5,1.2,2.9,2.4,4.4,3.7
			c1.7,1.4,3.4,1.5,5.3-0.4C127.5,77.5,124.7,76.1,121.8,74.7z M176.2,237.9c0-3.6,0.1-6.3-0.1-9c0-0.7-0.6-1.4-1.1-1.9
			c-0.2-0.3-0.8-0.3-1.3-0.3c-0.1,0-0.4,0.6-0.3,0.8C174.5,230.6,173.6,234.2,176.2,237.9z M181.6,264.9c2.4,2,4,3,6,2.8
			c1.2-0.1,2.3-0.7,3.5-1c-1.2-0.6-2.3-1.5-3.5-1.7C186,264.7,184.3,264.9,181.6,264.9z M160.4,313.9c-0.2,3.5-1.7,7.2,0.8,11.5
			c0.2-1.8,0.2-2.7,0.4-3.6c0.6-2.9,0.6-2.8-0.9-6.1C160.5,315.1,160.5,314.5,160.4,313.9z M493.8,17.3c1.2-1.9,2.6-3.3,2.8-4.8
			c0.1-1.2-1.4-2.6-2.1-3.9c-0.1-0.3-0.1-0.7-0.2-0.9c-0.1-0.2-0.5-0.4-0.7-0.3c-0.2,0.1-0.6,0.4-0.6,0.7
			C493.2,11,493.5,13.9,493.8,17.3z M183.4,168.5c0.5,2.9-2.8,5.7-0.5,8.8C186.8,174.6,185.4,171.6,183.4,168.5z M153.1,285.4
			c0.4,0.3,0.8,0.5,1.2,0.8c1.5-2,2.9-4,4.4-6c0.5-0.7,1.2-1.5,1.4-2.3c0.2-0.5-0.3-1.1-0.5-1.7c-0.3,0.2-0.7,0.3-0.9,0.6
			C156.8,279.7,155,282.5,153.1,285.4z M164.4,282.9c0.3-0.2,0.7-0.3,1-0.5c-0.3-1.5-0.9-3.1-0.8-4.6c0.1-2.8-1.3-4.4-4-6.2
			C162,275.8,163.2,279.4,164.4,282.9z M352.6,24.8c-0.2,0-0.4-0.1-0.6-0.1c-0.8,2.6-1.6,5.1-2.3,7.7c-0.1,0.4,0,0.9,0,1.3
			c0.6-0.1,1.4,0.1,1.8-0.2c0.5-0.5,1.1-1.3,1.1-2C352.7,29.3,352.6,27.1,352.6,24.8z M74.6,60.3c-1.7,2.7-2.3,5.4-2.4,8.5
			C76.2,65.8,76.2,65.8,74.6,60.3z M156.2,275.2c2.4-2,2.5-4.7,3.4-7c0.1-0.3-0.3-1-0.6-1.1c-0.3-0.1-1,0.1-1.3,0.4
			C155.8,269.7,155.5,272.2,156.2,275.2z M144.2,530.2c-2.1,2.1-3,4.2-2.7,6.7c0.1,0.5,0.9,1.3,1.1,1.2c0.6-0.2,1.5-0.8,1.5-1.3
			C144.2,534.6,144.2,532.4,144.2,530.2z M169.6,323.9c3.5-3.6,3.5-4.5,0-8.8C169.6,317.8,169.6,320.5,169.6,323.9z M191.2,302.9
			c-2.1,3.2-1.3,6.5-0.9,9.7C191.4,309.6,193.8,306.6,191.2,302.9z M92.2,76.5c0.9-2.6,1.6-4.2,1.9-5.8c0.1-0.7-0.7-1.5-1.1-2.2
			c-0.6,0.6-1.8,1.2-1.8,1.9C90.9,72,90.5,73.8,92.2,76.5z M42.4,30c-4,0.5-4.8,1.3-4.8,4.2c0,0.4,0.3,1.2,0.5,1.2
			c0.5,0,1.4-0.1,1.6-0.4C40.7,33.4,41.5,31.8,42.4,30z M146.9,523.7c-6.9,2-8.1,3.6-6.9,9.4C140.9,528.7,143.3,525.7,146.9,523.7z
			 M462.6,25.7c2.9-5.5,2.9-5.5,0-10.2C462.6,18.5,462.6,21.6,462.6,25.7z M190.4,142.2c0-4.7-0.7-6.5-3.7-8.9
			C188,136.5,186.5,140.1,190.4,142.2z M334.8,31.5c-1.2,3.4,0.4,5.3,3,6.9C338.9,35,337.4,33.1,334.8,31.5z M157.7,256.1
			c0.4-0.3,1.2-0.7,1.4-1.3c0.4-1.1-1.4-3.3-2.6-3.4c-1.2-0.1-1.6,0.7-1.6,1.8C155,254.8,155.7,255.8,157.7,256.1z M184.5,179.6
			c-1.5,3.2-3.3,5.9,0,9.7C184.5,185.7,184.5,182.9,184.5,179.6z M161.9,170.7c-0.9-2.1-1.8-4.3-2.8-6.3c-0.1-0.3-0.9-0.3-1.3-0.2
			c-0.2,0-0.4,0.8-0.3,1.1C158.1,167.5,158.8,169.9,161.9,170.7z M207.1,30.4c-1.2-3.4-2.1-6-3.3-9.6c-0.6,2-1.4,3.1-1.1,3.7
			C203.7,26.5,204,28.9,207.1,30.4z M61.1,9.9c0.8-1.2,1.8-2.4,2.5-3.7c0.5-0.8,0.7-1.7,0.9-2.6c0.1-0.4-0.3-0.9-0.4-1.3
			c-0.5,0.2-1.1,0.4-1.4,0.7C60.8,5.1,60.3,7.4,61.1,9.9z M204.2,44.7c-0.6,0.2-1,0.2-1.2,0.3c-2.1,1.6-0.5,3.5-0.4,5.3
			c0,0.3,0.6,0.6,0.9,0.8c0.5-1.1,1.1-2.2,1.6-3.3c0.2-0.6,0.2-1.3,0.1-1.9C205,45.4,204.5,45,204.2,44.7z M87.4,29.6
			c-2,0.9-1.1,2.8-1.5,4.2c-0.5,1.5-1.1,2.9-1.8,4.6C88.3,35.4,88.3,35.4,87.4,29.6z M201.1,52.7c-3.2,4.2-3.2,4.2,0,7.4
			C201.1,57.5,201.1,55.2,201.1,52.7z M42.4,21c-0.8,2.1-1.4,3.4-1.8,4.8c-0.1,0.3,0.9,1.2,1.1,1.2c1-0.4,2-0.9,2.7-1.6
			c0.2-0.2-0.2-1.3-0.5-2C43.7,22.8,43.2,22.3,42.4,21z M166.9,268.8c-0.8,4.2-0.2,7.5,1.3,10.8
			C168.1,276.2,169.2,272.7,166.9,268.8z M245.5,31.6c2.6-1.6,3.8-3.5,3.8-6.4C245.1,27.6,244.4,28,245.5,31.6z M181.7,163.7
			c-1.2,3-3.8,5.7-3.2,9.8C181.9,170.7,180.5,166.8,181.7,163.7z M126.4,109.9c-1.2,3.7-2.4,7,1.4,9.9
			C127.3,116.5,126.9,113.5,126.4,109.9z M91.7,113.3c0.3,0.2,0.5,0.5,0.8,0.7c2.4-1.2,4.9-2.3,3.7-6.7
			C94.4,109.7,93.1,111.5,91.7,113.3z M177.4,279.2c2.4-4.5,2.3-6.7,0-8.8C177.4,273.2,177.4,276,177.4,279.2z M362.1,8.9
			c1.4,2.8,2.5,4.9,3.7,7.4C367.2,11.9,367.2,11.9,362.1,8.9z M187.8,214.1c0-1.9,0.1-3.2,0-4.5c0-0.6-0.4-1.1-0.6-1.7
			c-0.5,0.5-1.3,0.9-1.6,1.5C184.5,211.8,184.7,212.2,187.8,214.1z M242.9,10.2c0.4-0.1,0.8-0.2,1.1-0.3c0.2-2.7,0.4-5.5-3.2-8.2
			C241.7,5.2,242.3,7.7,242.9,10.2z M166.5,184.8c-0.4,0.1-0.8,0.2-1.2,0.2c0.4,2,0.8,4,1.2,5.9c0.1,0.3,0.7,0.5,1.1,0.7
			c0.2-0.4,0.7-0.8,0.7-1.1C168.3,188.5,167.6,186.6,166.5,184.8z M157,309.8c0.3,0.1,0.5,0.2,0.8,0.3c0.9-1.9,2-3.8,2.7-5.8
			c0.2-0.6-0.3-1.5-0.5-2.2c-0.5,0.5-1.1,0.9-1.3,1.5C158.1,305.6,157.6,307.7,157,309.8z M3.1,9.4c2.3,0.8,4.1-0.3,5.6-1.7
			C9.1,7.3,9,6.3,9.1,5.6c-0.7,0.1-1.5-0.1-2,0.2C5.7,6.9,4.5,8.1,3.1,9.4z M163.6,262.5c-0.4,0-0.9,0-1.3,0c-1,2.8-1,5.4,1.3,8.2
			C163.6,267.8,163.6,265.2,163.6,262.5z M46.5,30.1c1-1.7,2.1-3.3,3.1-5c0.1-0.2-0.2-1-0.5-1.1c-0.3-0.2-0.9,0-1.2,0.2
			C46.1,25.6,45.8,27.6,46.5,30.1z M178.5,265.5c0.1,3.1,2.2,4.7,4.4,6.8C182.9,268.7,180.8,266.9,178.5,265.5z M435.8,13
			c-0.2,0.2-0.4,0.5-0.6,0.7c1.2,1.5,2.3,3,3.5,4.4c0.3,0.3,1.1-0.1,1.7-0.1c-0.1-0.6,0.1-1.4-0.2-1.6
			C438.9,15.2,437.3,14.1,435.8,13z M180.6,519.9c-2,2.3-1.5,4.2-1.1,6c0.1,0.3,1,0.5,1.6,0.5c0.3,0,0.8-0.7,0.8-1
			C181.5,523.7,181.1,522.1,180.6,519.9z M380.8,11.9c-1.6,1.9-1.6,1.9,1.3,10.5C381.7,19,381.2,15.6,380.8,11.9z M192,290.7
			c0,3.4-1.2,6.2,1.7,9.2C193.3,296.5,194.4,293.8,192,290.7z M132.1,37.3c-0.3-2.6-0.5-5-0.9-8.5c-0.4,1.8-0.5,2.7-0.8,3.6
			c-0.3,0.9-0.8,1.7-1.2,2.6c-0.6,1.2,0,1.7,1.1,1.9C130.9,37,131.5,37.1,132.1,37.3z M105.7,77.7c1-5.7,1-6.1-1.5-10.9
			C104.8,71.1,105.2,74.4,105.7,77.7z M167.6,234c0,1-0.1,1.4,0,1.6c0.2,0.6,0.5,1.1,0.7,1.6c0.4-0.4,0.9-0.8,1.1-1.3
			c0.4-1,0.7-2.1,0.9-3.2c0.1-0.4-0.2-0.9-0.3-1.3c-0.6,0.2-1.4,0.2-1.7,0.6C167.8,232.8,167.6,233.8,167.6,234z M101.6,110
			c-3.3,1.1-2.7,3.5-3.3,5.4c-0.1,0.2,0.4,0.8,0.7,0.8c0.4,0,1.1-0.2,1.2-0.5C100.7,114,101.1,112.2,101.6,110z M162.3,198.4
			c0.4-1.7,0.9-3.2,1.2-4.7c0.1-0.4-0.3-0.9-0.5-1.3c-0.6,0.2-1.4,0.3-1.6,0.7C160.1,195,160.9,196.7,162.3,198.4z M155.6,145.8
			c-0.3,0.3-0.5,0.5-0.8,0.8c0.8,1.1,1.4,2.4,2.4,3.3c0.3,0.3,1.4,0,2.1-0.1c-0.1-0.5-0.1-1.3-0.4-1.6
			C157.9,147.3,156.7,146.6,155.6,145.8z M187.9,279.3c1,2.1,2.1,4.2,3.4,6.8C192.4,282.4,190.9,280.5,187.9,279.3z M176.9,147.9
			c2.5-3.6,2.6-4.2,1.4-8.9C177.9,142,177.5,144.4,176.9,147.9z M136.7,158.8c0,1.9,0,3.7,0,5.7
			C139.5,162.1,139.5,162.1,136.7,158.8z M184,206.2c0-0.9,0.1-1.3,0-1.5c-0.2-0.5-0.5-1-0.8-1.6c-0.5,0.5-1.4,1.1-1.4,1.6
			c0,1,0.4,2.1,0.7,3.2c0.1,0.2,0.6,0.3,0.8,0.3c0.2-0.1,0.5-0.4,0.6-0.7C183.9,206.9,183.9,206.2,184,206.2z M178.9,188.7
			c-1.7,2.4-4,3.2-3.2,6.2C177.2,193.2,179.3,192.4,178.9,188.7z M165.4,224.8c-0.2,0-0.3,0-0.5,0c-0.4,2.5-0.7,5-1,7.5
			c0,0.3,0.4,0.7,0.6,1c0.3-0.3,0.8-0.6,0.8-1C165.5,229.9,165.4,227.4,165.4,224.8z M186,146.3c-0.2,0-0.3-0.1-0.5-0.1
			c-0.5,1.2-0.7,2.6-1.5,3.6c-1.2,1.6-0.7,2.7,0.7,4C185.2,151.1,185.6,148.7,186,146.3z M111.5,106.3c0,2.2,0,4.4,0,7.3
			C114.3,110.7,112.4,108.5,111.5,106.3z M114,55.7c-0.3,0.2-0.5,0.3-0.6,0.4c-1.3,1.5-0.5,2.6,0.8,3.5c0.3,0.2,0.9,0.1,1.3,0.2
			c-0.2-1-0.4-2-0.7-3C114.7,56.3,114.2,56,114,55.7z M122.3,48.4c-0.2,3.7-0.2,3.7,4.1,4C124.9,50.8,123.8,49.8,122.3,48.4z
			 M324.8,33.9c-0.3-0.6-0.6-1.1-0.9-1.6c-0.4,0.4-0.8,0.8-1.1,1.2c-0.3,0.5-0.6,1.2-0.6,1.8c-0.1,0.4,0.2,0.8,0.4,1.2
			c0.4-0.1,1-0.2,1.3-0.5C324.2,35.5,324.4,34.7,324.8,33.9z M239.2,32.2c-1.3,0.8-2.3,1.3-3,2c-0.3,0.3-0.3,1.1-0.1,1.6
			c0.1,0.3,0.7,0.7,1.1,0.7c0.3,0,0.8-0.4,1-0.8C238.5,34.8,238.8,33.7,239.2,32.2z M22.8,25.8c-1,2.1-1.7,3.3-2.2,4.6
			c-0.1,0.3,0.7,1,1.1,1.3c0.2,0.1,1-0.4,1-0.7C22.9,29.6,22.8,28.2,22.8,25.8z M179.9,180c-0.2,0.1-0.4,0.1-0.5,0.2
			c-0.4,1.4-0.8,2.7-1.2,4.1c0,0.1,0.2,0.4,0.2,0.4c0.3,0,0.7-0.1,0.8-0.2c0.5-1.1,1-2.3,1.4-3.4C180.8,180.7,180.2,180.3,179.9,180
			z M307.2,13.9c0.2,0,0.3,0,0.5,0c0.4-1.8,0.9-3.6,1.2-5.4c0.1-0.3-0.3-0.8-0.5-1.2c-0.3,0.3-0.9,0.6-1,0.9
			C307.3,10.1,307.3,12,307.2,13.9z M164.8,292.3c0.2-2,1.7-4.2-1.5-6.3C164,288.6,164.4,290.5,164.8,292.3z M161.9,306.6
			c0.3,1.9,0.6,3.3,0.8,4.6c0,0.2,0.4,0.5,0.6,0.5c0.3-0.1,0.6-0.3,0.7-0.5C165.2,309,163.7,308,161.9,306.6z M266.3,17.1
			c-0.2-0.1-0.4-0.2-0.6-0.2c-0.5,0.7-1.1,1.4-1.4,2.2c-0.2,0.6-0.1,1.4-0.1,2c0.5-0.5,1.2-0.9,1.5-1.5
			C266.1,18.8,266.1,17.9,266.3,17.1z M59.3,523.4c0.7,1.9,1.7,3.4,3.3,4.1C61.6,526.2,60.5,524.8,59.3,523.4z M157.6,231.5
			c-2.4,2.9-1.5,5.2-1.1,7.5C156.8,236.9,157.1,234.7,157.6,231.5z M175.9,264.7c0.7-0.8,1.2-1.3,1.7-1.8c-0.7-0.3-1.3-0.7-2-0.8
			c-0.2-0.1-0.9,0.7-0.9,0.8C174.9,263.5,175.3,264,175.9,264.7z M130.1,16.1c0.3,1.4,0,3.1,1.6,4c0.1,0,0.3-0.1,0.4-0.2
			C132.4,18.1,131.4,17,130.1,16.1z M232.7,17.4c-0.5-0.7-0.8-1.1-1.1-1.6c-0.3,0.6-0.9,1.1-1,1.7c-0.1,0.5,0.4,1,0.7,1.5
			C231.8,18.5,232.2,18,232.7,17.4z M114,533.3c-0.3,0-0.6,0.1-0.9,0.1c0.5,1.8,0.9,3.6,1.4,5.3c0.3-0.1,0.5-0.1,0.8-0.2
			C114.8,536.8,114.4,535,114,533.3z M115.9,533.4c0.3,0.2,0.7,0.4,1,0.6c0.4-1.6,1.9-2.9,1.1-5
			C117.3,530.5,116.6,531.9,115.9,533.4z M180.4,224.4c0.8-2.1,0.7-4.2,0-6.2C180.4,220.2,180.4,222.3,180.4,224.4z M173,258.8
			c0.2-1.6,0.6-3.3-1.8-4.7C172,256.2,172.5,257.5,173,258.8z M124,56.6c-0.5-0.6-0.9-1.1-1.4-1.7c-0.2,0.4-0.7,1-0.6,1.3
			c0.2,0.6,0.7,1.1,1.1,1.6C123.4,57.5,123.6,57.2,124,56.6z M192.3,58.6c-0.4,0.6-0.6,0.8-0.7,1.1c-0.2,0.9-0.4,1.7-0.5,2.6
			c0.3,0,0.7,0.1,0.7,0.1c0.3-0.8,0.6-1.7,0.8-2.5C192.7,59.6,192.5,59.2,192.3,58.6z M107.7,68.1c0.3-1.7,1.1-3.4-1.2-4.9
			C107,65.2,107.4,66.7,107.7,68.1z M131.9,45.7c-0.1,1.2-0.3,1.7-0.2,2.1c0.3,0.8,0.9,1.5,1.3,2.2c0-0.8,0-1.7-0.1-2.5
			C132.9,47,132.5,46.6,131.9,45.7z M105.7,91.2c-0.5-0.6-0.8-0.9-1.1-1.3c-0.4,0.6-0.8,1.2-1,1.9c-0.1,0.3,0.4,0.7,0.6,1
			C104.7,92.3,105.1,91.9,105.7,91.2z M443.1,28.3c0.2,0.1,0.3,0.2,0.5,0.3c0.5-0.5,1.2-0.8,1.6-1.4c0.3-0.4,0.1-1,0.2-1.6
			c-0.5,0.2-1.1,0.3-1.4,0.7C443.5,27,443.4,27.7,443.1,28.3z M160.3,511.8c-0.2-0.2-0.4-0.4-0.5-0.4c-0.5,0.3-1.2,0.6-1.5,1
			c-0.3,0.5-0.2,1.2-0.3,1.8c0,0.1,0.3,0.2,0.3,0.2C159,513.5,159.7,512.7,160.3,511.8z M187.8,292.1c0.3,0.1,0.5,0.1,0.8,0.2
			c0.2-1.3,0.4-2.5,0.6-3.8c0,0-0.2-0.1-0.4-0.1C188.4,289.7,188.1,290.9,187.8,292.1z M382.3,7.2c0.1-0.1,0.3-0.1,0.4-0.3
			c0.3-0.8,0.5-1.6,0.7-2.5c-0.3-0.1-0.5-0.1-0.8-0.2c-0.2,0.8-0.4,1.7-0.5,2.5C382,6.9,382.2,7.1,382.3,7.2z M30.8,24.7
			c-0.3-0.5-0.5-0.7-0.6-0.9c-0.4,0.6-0.9,1.2-1.2,1.9c-0.1,0.1,0.5,0.5,0.7,0.8C30,25.9,30.4,25.3,30.8,24.7z M176.4,248.1
			c-0.4-0.5-0.6-0.8-0.9-1.1c-0.4,0.6-0.8,1.3-1.1,2c-0.1,0.2,0.2,0.5,0.4,0.8C175.3,249.2,175.8,248.7,176.4,248.1z M230.1,9.3
			c-0.1,0.1-0.3,0.2-0.2,0.3c0.1,0.9,0.2,1.7,0.3,2.6c0.3,0,0.6-0.1,0.8-0.1c-0.2-0.8-0.3-1.7-0.5-2.5
			C230.4,9.5,230.2,9.4,230.1,9.3z M115.9,10.1c-0.6-0.4-1.1-1-1.2-0.9c-0.5,0.3-0.9,0.8-1.3,1.2c0.4,0.3,0.8,1,1.1,0.9
			C115,11.2,115.4,10.6,115.9,10.1z M313.8,25.6c-0.2-0.4-0.3-0.7-0.4-0.9c-0.4,0.6-0.9,1.1-1.2,1.8c-0.1,0.2,0.3,0.7,0.4,1
			C313,26.9,313.4,26.2,313.8,25.6z M70.2,521.2c-0.3,0.5-0.6,0.7-0.5,0.9c0.1,0.8,0.2,1.5,0.4,2.3c0,0,0.5-0.1,0.8-0.1
			C70.7,523.4,70.5,522.5,70.2,521.2z M207.9,34.5c0.3-0.6,0.6-1.1,0.7-1.7c0-0.1-0.3-0.3-0.5-0.5c-0.2,0.5-0.5,0.9-0.7,1.4
			C207.4,33.9,207.7,34.1,207.9,34.5z M181.6,248.7c-0.6-0.3-1.1-0.6-1.7-0.8c-0.1,0-0.3,0.3-0.5,0.5c0.5,0.2,0.9,0.5,1.4,0.7
			C181,249.2,181.2,248.9,181.6,248.7z M165.3,237.9c-0.5-0.3-0.9-0.5-1.3-0.7c-0.1,0.3-0.3,0.6-0.3,0.8c0.1,0.3,0.4,0.6,0.6,0.9
			C164.7,238.7,164.9,238.4,165.3,237.9z M95.3,47c-0.1,0.3-0.3,0.6-0.2,0.8c0.1,0.2,0.5,0.3,0.8,0.4c0.1-0.2,0.3-0.6,0.2-0.7
			C95.9,47.3,95.5,47.2,95.3,47z M179.9,260.1c-0.1-0.3-0.2-0.7-0.4-0.8c-0.2-0.1-0.5,0.1-0.8,0.2c0.2,0.3,0.3,0.6,0.5,0.7
			C179.3,260.3,179.6,260.2,179.9,260.1z M446.1,21.7c-0.2,0.4-0.5,0.7-0.6,1.1c0,0,0.3,0.3,0.3,0.3c0.3-0.2,0.6-0.5,0.9-0.7
			C446.5,22.2,446.3,22,446.1,21.7z M445.4,19.9c-0.2-0.3-0.3-0.6-0.5-0.7c-0.1-0.1-0.5,0.1-0.7,0.1c0.1,0.3,0.2,0.6,0.4,0.8
			C444.8,20.1,445.1,19.9,445.4,19.9z M176.5,207.2c0,0.6-0.1,1-0.1,1.4c0.2,0,0.6,0.1,0.6,0c0.1-0.3,0.2-0.6,0.1-0.9
			C177,207.6,176.8,207.4,176.5,207.2z M159.7,238.1c-0.1-0.3-0.2-0.5-0.4-0.8c-0.1,0.2-0.4,0.5-0.4,0.7c0,0.3,0.3,0.6,0.5,0.9
			C159.5,238.6,159.6,238.3,159.7,238.1z M159.1,173.3c0,0.1-0.1,0.3-0.1,0.4c0.2,0,0.4,0,0.6,0.1c0-0.1,0-0.3-0.1-0.4
			C159.4,173.3,159.2,173.3,159.1,173.3z M112.6,530.2c0,0.1-0.1,0.3-0.1,0.4c0.2,0,0.4,0,0.6,0.1c0-0.1,0-0.3-0.1-0.4
			C112.8,530.2,112.7,530.3,112.6,530.2z M181.8,211.4c-0.1-0.1-0.2-0.3-0.3-0.4c-0.1,0.1-0.3,0.3-0.3,0.3c0.1,0.2,0.3,0.3,0.4,0.5
			C181.8,211.7,181.8,211.5,181.8,211.4z M144,13.6c-0.1-0.1-0.1-0.3-0.2-0.4c-0.1,0-0.2,0.1-0.3,0.2c0.1,0.2,0.3,0.4,0.4,0.6
			C143.9,13.8,144,13.7,144,13.6z M270.1,25.2c-0.1-0.1-0.1-0.3-0.2-0.4c-0.1,0.1-0.2,0.1-0.3,0.2c0.1,0.2,0.3,0.4,0.4,0.6
			C270,25.5,270.1,25.3,270.1,25.2z M95.1,97.3c-0.1,0-0.3-0.1-0.4-0.1c0,0.2,0,0.4-0.1,0.6c0.1,0,0.3,0,0.4-0.1
			C95.1,97.6,95.1,97.5,95.1,97.3z"/>
		<path d="M573.9,0c-0.7,4-0.6,8.3-4,11.5c-2.4,2.1-2.7,2.3-4.4-0.2c-1.1-1.6-2-3.3-3-4.9c-0.3-0.5-0.9-0.8-1.3-1.2
			c-0.2,0.7-0.7,1.4-0.7,2.1c0.1,0.9,0.7,1.9,0.7,2.8c-0.1,2-0.2,4.1-0.8,6.1c-0.4,1.5-1.7,1.7-3.1,0.7c-0.3-0.2-0.5-0.4-0.7-0.6
			c-0.9-1.1-1.7-2.9-2.8-3.1c-1-0.2-2.3,1.3-3.5,2c-0.2,0.1-0.8,0.2-0.9,0.1c-0.3-0.3-0.5-0.8-0.7-1.2c-0.1-0.3,0-0.7,0.2-0.9
			c2.8-4.7,0.3-8.4-2.2-12.1l0,0c0-0.3,0-0.6,0-0.9c0.6,0,1.3,0,1.9,0c1,1.5,2.1,3,3.6,5.2c0.5-2.2,0.9-3.7,1.3-5.2c1,0,1.9,0,2.9,0
			c0,1.4,0.6,2.4,2,2.8c1.5,0.4,2.2-0.6,1.9-2.8c0.6,0,1.3,0,1.9,0c1.5,3.2,2.9,6.4,4.4,9.5c0.4,0.9,1.7,1.6,2.1,0.2
			c1.1-3.2,3.3-6.1,3.2-9.7C572.6,0,573.3,0,573.9,0z M552.6,9.9c0.4,0.2,0.8,0.4,1.2,0.6c1-1.2,2.1-2.4,3.1-3.7
			c1-1.2,0.8-2.5-0.4-3.3c-1.6-1.1-1.9,0.7-2.3,1.5C553.4,6.6,553,8.3,552.6,9.9z M559.3,12.4c0-0.9,0.1-1.2,0-1.5
			c-0.3-0.6-0.6-1.3-1-1.9c-0.6,0.6-1.6,1.3-1.7,2c-0.1,1,0.5,2,0.9,3c0.1,0.1,1.2,0,1.4-0.3C559.3,13.2,559.3,12.5,559.3,12.4z"/>
		<path d="M15.2,0c-0.6,1.3-1.3,1.1-1.9,0C13.9,0,14.6,0,15.2,0z"/>
		<path d="M146.8,452.1c-4.7-8.5-9-16.6-11-25.8c-0.6-2.8-0.5-5.8-0.2-8.6c0.3-3.5,4.8-7.3,8.1-7.2c0.9,0,2.1,0.3,2.6,1
			c2.2,2.9,4.3,1.9,6.8,0.3c1.9-1.2,4.2-1.5,6.4-0.4c2.5,1.2,4,2.9,4.2,5.9c0.4,6.7-1.3,12.7-4.6,18.4c-1.3,2.3-2.7,4.7-3.9,7.1
			c-0.6,1.2-0.4,3-2.8,2.1c-0.4-0.2-1.5,1-2.1,1.8C149.2,448.2,148.1,450,146.8,452.1z M149.1,434.6c1.5,0,1.9,0.8,2,2.1
			c0.1,1.2,0.6,2.3,0.9,3.4c1.1-0.6,2.4-1.1,3.2-2c1.1-1.4,1.8-3,2.5-4.6c0.6-1.3,0.7-2.8,1.3-4.1c1.7-4.6,0.4-10.5-3.1-13.8
			c-1.6-1.5-2.8-1.5-3.9,0.3c-0.6,1-0.8,2.4-1.1,3.6c-0.1,0.4-0.1,0.8-0.1,1.3c1.4-0.5,2.7-0.9,3.9-1.3c-0.4,1.4-1.3,2-2,2.8
			c-0.6,0.6-0.4,0.8,0.5,1c1.8,0.4,1.9,0.7,0.7,1.5c-1.8,1.2-1.6,1.7,0.3,2.2c0.1,0,0.2,1.2-0.1,1.5c-0.4,0.4-1.2,0.4-1.8,0.7
			c-1.3,0.7-2.5,0.4-2.2-1.1c0.7-3.5-1.7-6.1-2.3-9.2c-0.5-2.4-3.4-3.9-5.6-3.6c-2.4,0.3-4.6,2.6-4.7,5.3c-0.1,2.2,0,4.5,0,7.7
			c2-3.1,2.2-6.1,5.2-7.3c1.6-0.7,2.1-0.2,2.5,1c0.5,1.5,0.8,3,1.3,4.4c0.2,0.5,0.6,0.8,1,1.2c-0.8,0.5-1.6,1-2.4,1.6
			c-0.3-0.5-0.8-0.9-0.8-1.4c-0.1-1.8-1.5-2.5-2.6-1.7c-1.3,0.9-3,2.9-2.7,4c1.1,4.1,2.9,8,4.6,12.6c1.2-2.6-0.4-3.8-0.8-5.3
			c-0.1-0.4,0-0.9,0-1.3c0.5,0.1,1,0.3,1.5,0.4c0.5,0,1.2,0.1,1.5-0.1c1.2-0.8,1.6,0.1,1.3,0.8c-0.9,2.4-1.1,4.6-0.2,7
			c0.2,0.7-0.3,1.6-0.5,2.4c1.7-1.1,3.5-1.7,2.1-4.5C147.6,440.1,148.8,437.1,149.1,434.6L149.1,434.6z M161.5,420.3
			c0.3-2.5,0.6-4.9-1.8-6.5c-0.3-0.2-0.9-0.2-1.3-0.2c-0.1,0.4-0.3,0.9-0.1,1.2C159.2,416.6,160.3,418.3,161.5,420.3z"/>
		<path d="M148.9,460.3c1.9-2.1,3.9-3.4,7-3.2c1.3,0.1,2.2,0.4,2.8,1.2c1.5,2.1,2.1,4.3,2.2,7.1c0.3,7.3-3.2,13.3-5.8,19.7
			c-1.2,3-2.5,5.9-2.4,9.3c0.1,2.3-1.9,3.1-3.5,1.5c-3.1-2.9-7.2-5-8.4-9.6c-0.1-0.6-0.7-1.1-1.2-1.5c-2.7-2.4-3.6-5.6-4.2-9
			c-0.6-3.1-1.2-6.3-1.8-9.4c-0.5-2.6,0.4-4.8,2.2-6.6C139.9,456,144.9,456.1,148.9,460.3z M136.5,462.7c-0.3,0.3-0.5,0.6-0.8,1
			c0.2,0.1,0.3,0.2,0.5,0.3C136.3,463.5,136.4,463.1,136.5,462.7c0.3-0.3,0.6-0.6,1-1c1.3-0.6,2.6-1.3,3.9-1.9c0.5,0,1,0,1.4-0.1
			c0.3-0.1,0.6-0.2,0.9-0.3c-0.3-0.1-0.6-0.4-0.7-0.4c-0.6,0.2-1.1,0.5-1.6,0.8c-1.6,0-3.2,0.1-3.9,2
			C137.1,462,136.8,462.4,136.5,462.7z M153.9,470.5L153.9,470.5c1.2-2.4,2.8-4.6,0.7-7.4c-1.8-2.4-2.8-2.6-4.5,0.2
			c-0.9,1.4-1.5,1.5-2.5,0.4c-2.2-2.6-4.7-2.4-7.4-0.9c-2.9,1.6-4.3,4.7-3.7,8.2c0.5,2.8,1.2,5.6,1.9,8.4c0.2,0.8,0.4,1.6,1,2.1
			c2.3,2,3.4,4.6,4.8,7.2c0.5,1,1.3,1.9,2.1,2.6c2.5,1.9,4.1,1.2,4.5-1.9c0.2-1.7-0.8-3.8,1.9-4.3c1.9-4.3,3.7-8.6,2.9-13.4
			C155.6,471.2,154.5,470.9,153.9,470.5z M154.6,459.2c3.3,2.8,3.1,6.8,3.7,10.5C159.2,461.5,158.8,460.4,154.6,459.2z"/>
		<path d="M149.1,434.6c-1.2-0.2-2.8-0.2-2.1-2.1c0.3-0.7,1.7-1,2.6-1.4c0,0.9,0,1.7-0.1,2.6C149.4,434,149.2,434.3,149.1,434.6
			C149.1,434.6,149.1,434.6,149.1,434.6z"/>
		<path d="M157.3,425.3c0.1,0.1,0.3,0.2,0.3,0.3c-0.1,0.3-0.2,0.5-0.3,0.7c-0.1-0.1-0.3-0.2-0.3-0.3
			C157.1,425.8,157.2,425.5,157.3,425.3z"/>
		<path d="M139.6,473.7c-0.9-2.8-0.2-4.9,2.4-6.4c1.1-0.6,1.6-0.5,2.3,0.5c0.9,1.3,0.5,3.7,3,3.9c0.1,0,0.2,0.5,0.2,0.7
			c-0.3,0.9-2.7,1.8-3.1,1c-1.5-2.6-2.7-1.4-4,0.1C140.2,473.6,139.8,473.6,139.6,473.7z"/>
		<path d="M151.7,481.4c-0.2,0.4-0.3,0.6-0.4,0.7c-2.8,1.3-2.2,3.9-2.3,6.2c0,0.4-0.4,0.8-0.6,1.2c-0.4-0.4-1-0.6-1.3-1.1
			c-0.5-0.7-0.6-2.1-1.2-2.3c-2.6-0.9-1.5-2.1-0.3-3c1.4-1,3-1.8,4.6-2.5C150.6,480.5,151.2,481.1,151.7,481.4z"/>
		<path d="M153.9,470.5c-0.8,1.8-2.9,3.2-4,2.4c-1.2-0.8-1.4-3.3-1.7-5.1c-0.2-1.2,1.5-2.3,2.6-2.1c1.1,0.2,2,1.9,1.7,3.4
			C152.3,470.2,152.3,470.2,153.9,470.5L153.9,470.5z"/>
		<path d="M148.9,476.9c0,2.5-1.8,4.2-3.4,3.4c-1.2-0.6-1.7-1.4-0.8-2.6c0.4-0.5,1-0.8,1.3-1.3c0.4-0.7,0.2-2.2,1.6-1.6
			C148.3,475.1,148.6,476.3,148.9,476.9z"/>
	</g>
</g>
</svg>
