<?xml version="1.0" encoding="utf-8"?>
<!-- Generator: Adobe Illustrator 18.0.0, SVG Export Plug-In . SVG Version: 6.00 Build 0)  -->
<!DOCTYPE svg PUBLIC "-//W3C//DTD SVG 1.1//EN" "http://www.w3.org/Graphics/SVG/1.1/DTD/svg11.dtd">
<svg version="1.1" id="Layer_1" xmlns="http://www.w3.org/2000/svg" xmlns:xlink="http://www.w3.org/1999/xlink" x="0px" y="0px"
	 viewBox="0 0 749.1 506.6" enable-background="new 0 0 749.1 506.6" xml:space="preserve">
<path d="M125.8,31c1.4,0,2.6,1,1.7,2c-1.8,2.2-1.2,4.3-0.9,6.7c0.4,3.2,0.1,6.4,0,9.7c0,0.6-0.8,1.3-1.5,1.7c-0.2,0.1-1-0.5-1.4-1
	c-1.7-1.7-3.3-3.5-5.7-6.1c0,3.9,0,6.7,0,9.5c0,1.1,0.1,2.3-0.1,3.4c-0.4,1.9-2,2.6-3.7,1.6c-2.2-1.2-3.8-3-4.5-5.4
	c-0.9-2.8-1.6-5.5-2.5-8.3c-0.3-0.9-0.7-1.8-1.4-2.7C107.5,50,106.7,57,100,63c-0.2-1.4-0.4-2.4-0.4-3.4c0.1-3.8-1.8-6.7-3.9-9.6
	c-0.8-1.1-1.7-0.8-2.9-0.7c-2.1,0.1-4.3,1.2-6.5-0.1c-2.5-1.5-2.7-1.8-0.4-3.6c2.5-1.9,2.5-1.9,3.9-5.6c-4.1,2.2-8.1,2.2-12.2,1.8
	c-0.6-0.1-1.3-0.2-1.8-0.4c-1.2-0.5-1.3-1.7-0.2-2.5c1.4-1,2.9-2,4.4-3c2.1-1.5,3-4.5,2.1-6.7c-0.1-0.3-1.2-0.6-1.5-0.4
	c-2.2,1.2-4.5,1.8-7,1.4c-1-0.2-1.8-1-2.7-1.6c0.5-0.7,1-1.5,1.6-2.2c0.2-0.2,0.6-0.3,0.8-0.5c1.3-1.3,2.8-2.9,1.9-4.6
	c-0.8-1.6-2.9-1-4.4-0.4c-2.9,1.2-5.3,0-7.7-1.4c-0.4-0.2-0.8-0.7-0.8-1c0-0.3,0.5-0.7,0.9-0.9c2.2-1.2,4.5-2.4,6.7-3.6
	c3.8-2,5.2-6.5,8.6-8.9c0.2-0.1-0.2-1.3-0.4-1.9c-0.2-0.6-0.7-1.1-1.2-1.8C74.1,4,71,5.7,67.3,6.5c-2.6,0.5-4.7,1.9-6.6,3.8
	c-1.9,1.9-4.1,3.5-6.4,5.1c-1,0.7-1,1.3-0.7,2.3c1.7,6.5-1.2,11.2-5.9,15.2c-0.8,0.6-2,0.9-3.1,1c-1.7,0.2-2.7-0.8-2.2-2.3
	c1.9-5.5-0.1-10.7-0.8-16.1c-0.3-2,0.3-4,0.5-6.3c-2.3,0.3-3.5,1.8-4.7,3.5c-2.4,3.6-5.1,7-7.6,10.5c-0.1,0.1-0.3,0.1-0.4,0.2
	c-0.1,0.1-0.1,0.2-0.1,0.3c0.2-0.2,0.3-0.3,0.5-0.5c3.6,0.2,7.1-0.2,9.6-3.3c0.2-0.3,1.1-0.1,1.6-0.1c0,0.4,0.1,1.1-0.2,1.3
	c-1.6,1.3-3.1,3.2-4.9,3.6c-3.5,0.9-7.3,1-10.9,1.3c-0.6,0-1.2-0.7-1.8-1.1c0.4-0.5,0.6-1.2,1.1-1.5c2.9-1.2,5.2-3.2,7.2-5.6
	c0.6-0.7,0.8-1.7,1.2-2.5c0.1-0.1,0.3-0.1,0.4-0.2c0.1-0.1,0.1-0.2,0.1-0.3c-0.2,0.2-0.3,0.3-0.5,0.5c-4,1.4-7.9,1.7-11.1-1.8
	c-0.3-0.4-0.8-0.7-1-1.1c-0.7-1.5-2.3-3-1-4.8c1.5-2,3.2-0.6,4.7,0.2c3.3,1.5,3.3,1.6,5.9,0c-2.1-2.5-5.1-3.3-7.8-4.7
	c-1.9-0.9-4,0.6-4.3,3.2c-0.3,3-1.3,5.5-2.9,8c-2.8,4.3-6.8,6.7-11.7,7.7c-0.5,0.1-1,0.3-1.4,0.1c-0.8-0.4-1.8-0.9-2.2-1.6
	c-0.2-0.3,0.4-1.6,0.9-2c2.9-2,4.6-4.9,6-8c0.8-1.8,0.7-3.1-1.2-4.5C2.2,3.6,2.4,3.4,3.6,0c3.2,0,6.5,0,9.7,0
	c-1.9,1.7-4.2,1.9-6.6,2.1C5.6,2.2,5.5,3.2,6.2,3.8c0.8,0.7,2,1.6,2.9,1.5c4.2-0.4,8.5-1.1,11-5.3c3.6,0,7.1,0,10.7,0
	c-1.4,0.9-2.9,1.7-4.6,2.8c1.3,0.6,2.8,1,3.8,1.9c3.5,2.9,7.3,0.8,10.9,0.8c1.4,0,1.7-1.9,0.5-2.9c-1.2-1-2.6-1.7-3.8-2.5
	c1.9,0,3.9,0,5.8,0c0.6,1.1,1.3,1.1,1.9,0c1.3,0,2.6,0,3.9,0c-0.4,0.5-0.6,1.1-1.1,1.6c-1.6,1.7,0.3,2.5,0.8,3.7
	c0.6,1.4,1.4,1.4,2.7,0.9c2.7-1,2.9-1.2,1.6-3.6c-0.4-0.8-0.7-1.7-1-2.6c0.6,0,1.3,0,1.9,0C56,2.3,56,2.3,58.9,0c3.6,0,7.1,0,10.7,0
	c-1.1,1.5-2.2,2.9-3.7,4.8c2.2-0.9,3.7-1.3,5-2C72.2,2.1,73.3,1,74.4,0c5.2,0,10.3,0,15.5,0c-2.4,1.2-4.8,2.4-7.5,3.7
	c3.7,2.7,7.8,2.4,11.6,2.9c1.2,0.2,2.9-0.8,3.8-1.7c1.2-1.4,1.9-3.2,2.7-4.9c1.6,0,3.2,0,4.8,0c0.3,0.7,0.6,0.8,1,0c1,0,1.9,0,2.9,0
	c0,1.7,0,3.5,2.6,2.6c0.3-0.1,0.6-0.4,0.9-0.4c0.4,0.1,0.8,0.3,1.1,0.6c0.1,0.1,0,0.7-0.1,0.9c-0.8,0.7-1.7,1.4-2.5,2.1
	c-0.8,0.7-1.8,1.2-2.4,2c-1,1.3-2.6,2.4-1.8,4.5c1.4-0.7,2.8-1.3,4.1-2.1c3.9-2.3,6.7-5.4,6.9-10.2c1,0,1.9,0,2.9,0
	c2.1,1.8,4.1,3.7,6.8,6c0.4-2.4,0.7-4.2,1-6c1,0,1.9,0,2.9,0c0.8,1.5,2,2.6,4.2,3.9c-0.6-1.9-1-2.9-1.3-3.9c1,0,1.9,0,2.9,0
	c0.3,0.8,0.6,0.8,1,0c1,0,1.9,0,2.9,0c-0.3,1-0.7,1.9-1,2.9C140.2,3,140.1,3,140,3.1c-0.1,0.1-0.1,0.2-0.1,0.3
	c0.2-0.2,0.3-0.3,0.5-0.5c2,0,2.2-1.7,2.9-2.9c0.6,0,1.3,0,1.9,0c-0.2,1.1-0.4,2.2-0.6,3.2c-0.5,2.7-0.8,5.3,0.4,8
	c0.7,1.5,1.6,1.6,2.5,0.4c2.7-3.4,4.9-7,3.5-11.6c0.6,0,1.3,0,1.9,0c0.6,1.1,1.3,1,1.9,0c0.6,0,1.3,0,1.9,0
	c-0.6,1.1-1.1,2.1-1.7,3.2c-1.2,2.1-3.4,3.7-3.2,6.5c-0.1,0.1-0.3,0.1-0.4,0.2c-0.1,0.1-0.1,0.2-0.1,0.3c0.2-0.2,0.3-0.3,0.5-0.5
	c1.3-1,2.5-2,3.8-2.9c2.6-1.6,4-4,4.9-6.8c1,0,1.9,0,2.9,0c-1,3.3,0.7,5.7,2.7,8c1.2,1.4,3.2,2.3,3.1,4.6c-0.2,0-0.3,0-0.5,0
	c-4,0.9-4.4,2.2-4.5,6c-0.1,5.1,2.2,9.3,4.1,13.7c0.2,0.5,0.7,0.9,1.1,1.3c0.5-0.5,1.5-1,1.5-1.6c0.1-1.6,0.1-3.2-0.3-4.7
	c-0.5-2-1.4-3.9-2.4-5.8c-1.6-3.2-2.1-6.2,0.9-8.9c2.9-2.1,3.5-4.8,2.3-8c-0.5-1.5-0.9-3.1-1.3-4.6c1.9,0,3.9,0,5.8,0
	c-0.6,0.7-1.4,1.3-1.8,2c-0.3,0.5-0.6,1.4-0.4,1.9c0.6,1,1.4,0.9,2.4,0.2c1.4-1.1,1.9-2.4,1.8-4.1c0.6,0,1.3,0,1.9,0
	c0.3,3,0.6,6,1.1,9c0.1,0.8,0.7,1.5,1.3,2.6c0.6-2.1,0.8-3.7,1.5-5.1c1.2-2.5,0.9-4.6-0.9-6.5c1.6,0,3.2,0,4.8,0
	c-1.5,5.3-3,10.6-4.6,16.3c3.2-2.1,4.9-4.8,6.2-7.9c1.1-2.8,2.2-5.6,3.2-8.3c0.6,0,1.3,0,1.9,0c-0.3,0.9-0.6,1.8-0.8,2.7
	c-0.2,1.1,0.1,2,1.4,2c0.9,0,1.9-0.2,2.8-0.4c-0.2-0.9-0.3-1.8-0.6-2.6c-0.2-0.6-0.6-1.2-0.8-1.7c1,0,1.9,0,2.9,0
	c1.6,5.2,1.7,5.3,6.7,4.7c0.3,0,0.7-0.4,0.9-0.3c0.6,0.3,1.6,0.7,1.6,1c-0.1,2.4,1,2.4,2.6,1.6c1.1-0.5,2.1-1.1,3.2-1.7
	c-0.4-0.3-0.6-0.4-0.7-0.4c-1.9-0.8-3.7-1.7-5.6-2.5c-1.9-0.8-3.9-1.6-5.9-2.4c3.6,0,7.1,0,10.7,0c-0.1,0.5-0.2,1.1-0.3,1.6
	c0.7-0.1,1.4-0.1,2-0.4C215,1.1,215,0.4,215,0c2.9,0,5.8,0,8.7,0c3.6,3.5,3.8,3.5,6.8,0c1.3,0,2.6,0,3.9,0c2.4,3.1,5.9,2.4,9.1,2.5
	c1.6,0.1,1.1-1.5,0.6-2.5c2.6,0,5.2,0,7.8,0c0.2,2-0.3,3.5-2.5,3.9c-1.6,0.4-3.2,0.9-5,1.5c0.9,1.7,1.6,3.1,2.5,4.5
	c0.8,1.2,1.6,1.7,3,0.4c3.3-2.8,4.3-6.2,3.9-10.3c0.6,0,1.3,0,1.9,0c1.1,3.3,3.8,6,3.2,9.8c-0.1,0.5,0.9,1.4,1.6,1.6
	c4.1,1.4,7.8,0.4,12.1-2.6c-6.6,0.2-10.4-2.5-13-7.2c-0.3-0.6-0.7-1.1-1-1.6c2.6,0,5.2,0,7.8,0c-0.7,0.9-1.4,1.7-2,2.6
	c-0.2,0.3-0.4,1.1-0.3,1.2c1,0.7,2,1.3,3.1,1.9c0.4-0.8,0.9-1.5,1.1-2.3c0.2-1.1,0.1-2.2,0.1-3.3c1,0,1.9,0,2.9,0c0,1.6,0,3.1,0,4.7
	c0,1.4,0.7,1.9,2,2.1c3.1,0.6,3.1,0.7,1.2,3.2c-0.3,0.4-0.7,0.7-0.8,1.1c-0.1,0.3,0.1,1.1,0.3,1.2c1.5,0.5,3,1,4.6,1.1
	c0.6,0.1,1.6-0.6,1.9-1.1c0.2-0.5-0.1-1.6-0.6-2c-1.9-1.7-3-3.7-3.3-6.2c-0.2-1.4-0.9-2.7-1.4-4.1c1.6,0,3.2,0,4.8,0
	c-0.1,0.9-0.2,1.9-0.4,2.8c-0.7,3,0,5,2.6,6.4c1,0.5,2.1,0.9,3.1,1.1c0.7,0.1,1.4-0.2,2.2-0.3c-0.3-0.5-0.6-1-1.1-1.4
	c-3-2.1-5.1-4.8-5.4-8.6c1,0,1.9,0,2.9,0c0.3,4.9,2.1,6.7,8.1,7.5c-2-1.7-3.3-2.9-4.8-3.9c-1.7-1.1-1.2-2.3-0.4-3.6
	c1.6,0,3.2,0,4.8,0c0.3,0.8,0.6,0.8,1,0c1.6,0,3.2,0,4.8,0c0.6,2.1,0.7,4.5,3.8,4.5c0.3,0,1,1.1,0.8,1.5c-0.8,2,0.9,2.2,1.9,2.5
	c2.2,0.7,3.9-0.5,5.9-2c-3.5-1.1-5.3-3.2-5.7-6.5c0.6,0,1.3,0,1.9,0c1.3,3.9,4.4,4,7.8,3.9c0.1,0.7,0.4,1.6,0.2,2.1
	c-0.4,0.8-1.3,1.4-1.9,2.1c-1,1.1-0.7,2,0.7,2.4c1.1,0.3,2.2,0.5,3.3,0.7c1.3,0.3,2.2,0.1,2.1-1.6c0-0.6,0.5-1.2,0.8-1.8
	c0.5,0.3,1.5,0.5,1.5,0.8c0.2,2.6,2.7,1.8,4,2.7c3.3,2.2,6.8,1.6,10.4-1.5c-1.5-0.1-2.8,0.1-4-0.2c-2.9-0.7-5.8-1.7-8.1-3.9
	c-2.5-2.4-5.6-3.2-9-1.9c0.6-1.3,1.3-2.6,1.9-3.9c1.9,0,3.9,0,5.8,0c-0.1,0.3-0.4,0.6-0.3,0.9c0.1,0.5,0.4,1,0.6,1.5
	c0.2-0.5,0.5-0.9,0.7-1.4c0.1-0.3,0-0.6,0-0.9c1.9,0,3.9,0,5.8,0c-0.9,1.1-1.8,2.1-2.7,3.2c-0.3,0.4-0.7,1.4-0.5,1.5
	c0.6,0.5,1.5,1.1,2,0.9c2.7-1.3,5.2-2.8,7.8-4.3c0.3-0.2,0.2-0.9,0.3-1.4c0.6,0,1.3,0,1.9,0c0.3,0.8,0.6,0.8,1,0c2.9,0,5.8,0,8.7,0
	c-1,1.6-2.6,0.7-4,1c-0.5,0.2-1,0.6-1.5,0.8c0.5,0.3,0.9,0.8,1.4,1c3.1,1.3,6.2,1.2,9.4,0.3c2.8-0.8,4.6,0.1,4.2,2.2
	c-0.6,2.9,1,2.5,2.5,2.3c1.6-0.3,3.2-0.8,5.3-1.5c-1.1-0.2-1.6-0.2-2-0.4c-0.5-0.2-1-0.6-1.5-0.9c0.4-0.4,0.8-0.9,1.3-1.1
	c2.7-1.3,5.4-2.6,8.2-3.8c1.9,0,3.9,0,5.8,0c0.1,2.1,1.7,2.6,3.1,2.6c1.1,0,2.9-0.6,1.7-2.6c3.9,0,7.8,0,11.6,0
	c0.3,1.9,0.9,3.7,2.8,4.7c4.8,2.4,9.6,0.5,11.8-4.7c1.3,0,2.6,0,3.9,0c-0.1,0.8-0.1,1.6-0.2,2.3c-0.1,1-0.2,2-0.2,3
	c1-0.5,2.2-0.8,2.8-1.6c0.8-1,1-2.5,1.5-3.8c1.3,0,2.6,0,3.9,0c0.6,3.3,1.2,3.6,3.4,1.9c0.6-0.5,1-1.2,1.5-1.9c0.6,0,1.3,0,1.9,0
	c-0.5,1.1-1.2,2.2-1.5,3.4c-0.1,0.3,0.7,1.3,0.8,1.3c1.1-0.5,2.2-1.1,3.2-1.8c1.2-0.7,1.1-1.8,0.5-2.9c1.6,0,3.2,0,4.8,0
	c-1.2,1.4-2.4,2.7-3.7,4.1c6.3,0.4,6.3,0.4,6.6-4.1c0.6,0,1.3,0,1.9,0c-0.4,2.5-0.9,5-1.3,7.5c-0.7,4.1,0.8,6.1,4.8,6
	c2.8-0.1,5,0.7,6.7,2.9c0.2,0.3,0.7,0.3,1.6,0.8c-0.9-2-1.5-3.5-2.3-4.8c-1.7-2.6-3.7-5.1-5.4-7.8c-0.9-1.4-1.5-3.1-2.2-4.6
	c0.6,0,1.3,0,1.9,0c0.4,0.6,0.8,1.1,1.2,1.7c0.2-0.6,0.5-1.1,0.7-1.7c1.9,0,3.9,0,5.8,0c0.6,1.1,1.3,1.1,1.9,0c0.3,0,0.6,0,1,0
	c2.6,4.6,4.6,5,8.6,1.5c0.5-0.4,0.7-1,1.1-1.5c0.3,0,0.6,0,1,0c1.5,2,1.6,2,3.9,0c1.6,0,3.2,0,4.8,0c0.5,1.6,1.6,1.7,2.9,1
	c0.4,0.6,0.8,1.7,1.2,1.7c2,0.1,4,0.2,5.9-0.2c0.7-0.1,1.1-1.6,1.6-2.5c1.9,0,3.9,0,5.8,0c1,1.3,1.9,1.3,2.9,0c1,0,1.9,0,2.9,0
	c0.2,0.9,0.5,1.7,0.7,2.6c0.2,1.8,3.3,5.4,4.2,4.8c1.8-1.1,0.7-3.1,0.8-4.7c0.1-0.9-0.5-1.8-0.9-2.6c1,0,1.9,0,2.9,0
	c2,1.9,4,3.9,6,5.8c0.9,0.9,1.8,0.4,2-0.7c0.3-1.7,0.5-3.4,0.7-5.1c1.6,0,3.2,0,4.8,0c1.9,1.7,3.6,3.6,5.7,5c1.1,0.7,3,0.5,4.4,0.3
	c0.3,0,0.5-2,0.4-3.1c0-0.7-0.5-1.5-0.8-2.2c1,0,1.9,0,2.9,0c-0.4,2.3,0.7,3.9,2.5,5.1c0.6,0.4,0.7,2.2,1.9,1
	c0.3-0.4-0.1-1.7-0.5-2.5c-0.6-1.2-1.3-2.4-2-3.5c0.6,0,1.3,0,1.9,0c2.4,2.1,4.8,4.3,7.3,6.5c1.7-3.5-1.4-4.5-2.4-6.5
	c1.3,0,2.6,0,3.9,0c1,1.8,2.3,2.8,4.5,3c2.1,0.2,4.2,1.2,6.3,1.9c1,0.3,2,0.6,3.8,1.2c-1.6-2.5-2.8-4.3-3.9-6.1c1,0,1.9,0,2.9,0
	c0.3,0.3,0.6,0.6,1,1c0,0,0,0,0,0c0.4,3.1,2.8,4.4,5.3,4.7c3.2,0.4,6.4,0.1,9.6,0.1c0.4,0,1.2-0.4,1.2-0.6c-0.1-0.6-0.2-1.3-0.6-1.7
	c-1.2-1.2-2.5-2.3-3.8-3.5c1.3,0,2.6,0,3.9,0c1,1.8,2.4,3,5.1,3.5C576.1,2,575.5,1,574.8,0c4.8,0,9.7,0,14.5,0
	c-0.3,0.6-0.6,1.3-1,1.9c-3.3,0-6.6,0-10.3,0c0.2,1,0.4,1.5,0.5,2.1c0.8,2.4,2.3,3.6,4.9,3.6c2.9,0.1,0.9-1.9,1.2-2.9
	c0.1-0.4,0.6-0.7,1-0.9c0.9-0.6,1.8-1.2,2.7-1.8c1.8-0.1,3.9,0.5,4.9-1.9c0.6,0,1.3,0,1.9,0c0.8,2.2,3.1,1.8,4.6,2.7
	c0.1-0.4,0.3-0.9,0.4-1.3c0-0.5-0.1-0.9-0.2-1.4c0.6,0,1.3,0,1.9,0c0.7,1.3,1.2,2.6,2,3.8c0.8,1.3,7.4,3.5,8.6,2.7
	c2.5-1.7-0.2-3.7,0-5.5c0-0.3,0-0.6,0-1c0.6,0,1.3,0,1.9,0c0.3,1,0.6,2.1,0.9,3.1c0.7,2.6,2.5,3.5,4.7,2.2c1-0.6,1.8-1.7,2.7-2.5
	c-0.9-1-1.7-1.9-2.5-2.8c1.6,0,3.2,0,4.8,0c0.5,0.4,1.1,0.9,1.6,1.3c0.1-0.4,0.2-0.9,0.4-1.3c0.6,0,1.3,0,1.9,0
	c1.2,2.6,2.1,3.4,4,2.7c1.4-0.6,2.5-1.8,3.8-2.7c1,0,1.9,0,2.9,0c-0.4,0.6-1,1.2-1.2,1.9c-0.1,0.4,0.3,1.4,0.5,1.4
	c1.7-0.2,3.4-0.2,4.9-0.8c0.8-0.3,1.1-1.7,1.7-2.5c0.6,0,1.3,0,1.9,0c0.3,1.3-0.7,3.1,1.2,3.7c1.6,0.5,2.8-0.4,3.8-1.5
	c0.6-0.7,1.2-1.5,1.8-2.2c2.9,0,5.8,0,8.7,0c2.6,1.4,5.2,1.4,7.8,0c3.6,0,7.1,0,10.7,0c1,1.3,1.9,1.3,2.9,0c1.3,0,2.6,0,3.9,0
	c1,5.4,3.3,6.8,8.2,4.6c3-1.3,6-2,9.3-1.7c0.1,0.1,0.1,0.3,0.2,0.4c0.1,0.1,0.2,0.1,0.3,0.1c-0.2-0.2-0.3-0.3-0.5-0.5
	c-1-1-1.9-1.9-2.9-2.9c1,0,1.9,0,2.9,0c2.2,2.6,5.3,3.2,8.3,3.7c3.7,0.7,4.2,0.1,3.3-3.7c3.2,0,6.5,0,9.7,0c3.4,4.5,7.4,8,13.2,8.8
	c0.4,0.1,0.9,0.6,0.9,0.9c0,0.3-0.4,0.9-0.8,1c-2.1,0.7-4.2,1.4-6.4,1.9c-2.8,0.6-5.6,0.9-8.5,1.3c2.6,2.9,5.1,5.6,7.6,8.2
	c1.5,1.6,3.5,2.2,5.7,2.4c0.5,0,1.2,0.7,1.3,1.2c0.1,0.4-0.7,0.9-1,1.4c-0.1,0.1-0.3,0.1-0.4,0.2c-1.1,0.9-3.7,0.7-3.2,2.9
	c0.5,2.2,2.2,3.9,4.5,4.7c2.5,0.9,5.1,1.7,7.6,2.6c0.6,0.2,1.3,0.9,1.5,1.6c0.1,0.3-0.6,1.1-1.1,1.4c-4,2.4-8.2,3.9-12.9,3.1
	c-1.5-0.2-2.9-1.1-4.3-2c-1.2-0.8-2.2-1.9-3.3-2.8c-1.7-1.4-2.6-1.2-4.1,0.5c-1.8,2.1-3.5,4.2-5.5,6.1c-1.8,1.7-3.2,1.1-3.6-1.4
	c-0.4-2.7-0.6-5.4-1.2-8.1c-0.2-1.1-0.8-2.4-2-0.4c-1.1,1.8-2.4,1.5-3.4,0c-2.1-3.1-4.2-6.1-4.1-10.1c0-1.1,0.1-2.3-0.2-3.4
	c-0.3-1.2-1.4-2-2.6-1.5c-0.8,0.4-1.9,1.7-1.8,2.4c0.3,1.7,1.2,3.3,1.9,4.8c0.7,1.6,0.5,2.6-0.9,3c-5.2,1.3-12-1.4-13.6-5.8
	c-1.3-3.7-1.7-3.7-5.6-2.7c-3.5,0.8-6.8,0.9-10.1-1.1c-1.1-0.7-2.8-0.7-4.1-0.6c-1.7,0.1-3.4,0.7-5.8,1.3c2,0.9,3.5,1.6,4.9,2.4
	c1.3,0.7,1.3,2,0.4,2.8c-1.1,0.9-2.4,1.8-3.8,1.9c-3,0.3-6.1,0.7-8.9-1.1c-1.4-0.9-2.7-1.3-4.5-0.8c-1.5,0.4-3.2,0.2-4.8-0.1
	c-3.4-0.6-3.3-0.7-2.6,3c0.6,3.3,2.4,5.5,5.3,7.1c1.8,1,2.5,0.7,2.4-1.2c-0.1-2.1-0.6-4.1-0.8-6.2c0-0.4,0.4-0.8,0.6-1.2
	c0.4,0.2,1,0.4,1.1,0.7c0.5,1.7,1,3.4,1.1,5.1c0.3,3.3-0.4,6.8,1,10c0.1,0.3,0.1,0.7,0,0.9c-0.2,0.4-0.5,0.8-0.8,1
	c-0.1,0.1-0.7-0.1-0.8-0.3c-1.4-4.6-5.5-6.9-8.7-10.1c-2.4-2.4-2.7-5.5-3.2-8.4c-0.5-3.3-3.6-3.4-5-5.4c-0.1-0.1-0.7,0.1-0.7,0.2
	c-1.6,3-4.9,2.8-7.4,4.1c-0.5,0.2-1,0.7-1.1,1.2c-0.1,0.2,0.5,0.8,0.8,1.1c0.2,0.2,0.6,0.3,0.9,0.4c1.1,0.5,2.2,0.9,3.4,1.4
	c-0.9,1.1-1.6,2.5-2.8,3.1c-1.5,0.8-3.4,1.6-5,1.3c-3.9-0.6-7.9-1.3-10.8-4.7c-1-1.2-2.3-2.3-3.5-3.4c-0.3-0.2-1-0.3-1.2-0.1
	c-0.2,0.2-0.3,0.9-0.1,1.2c0.8,1.2,1.4,2.6,2.5,3.5c2.3,2.1,2.4,4.5,1.5,7.1c-1.1,3.2-2.4,6.3-3.7,9.4c-0.2,0.4-0.6,1-0.9,1
	c-0.5-0.1-1.3-0.4-1.5-0.8c-1.8-4.5-5.5-7-9.3-9.4c-2.6-1.7-4.9-3.8-3.7-7.5c0.1-0.4-0.4-1-0.7-1.5c-3,1.5-5.2-1.2-7.8-1.4
	c-0.5,0-0.9,0.1-1.8,0.2c0.9,1.2,1.7,2.1,2.4,3.1c1.3,2,1.6,4.2,1,6.5c-0.1,0.5-0.7,1-1.3,1.3c-0.2,0.1-1-0.4-1.1-0.8
	c-0.7-2.5-3.1-2.8-5-3.3c-3.9-1.1-7.7-2.3-10.3-6.1c-0.7,2.8-1.2,5.1-2,7.3c-0.5,1.5-1.8,1.5-2.7,0c-0.7-1.1-1.3-2.1-2.2-3.6
	c-2.9,5.1-7.1,7.8-12.2,9.4c-0.5,0.1-0.9,0.4-1.4,0.4c-0.4,0-1-0.3-1.2-0.6c-0.2-0.3,0.1-0.9,0.2-1.3c0-0.1,0.2-0.3,0.3-0.4
	c3.4-2.5,4.7-6.4,6.8-9.8c1.8-2.9-0.1-7.9-3.4-9.1c-2.1-0.8-4.1-1.5-6.2-2.2c-1.5-0.5-3.7,2.1-3.5,4c0.1,1.1,0.4,2.1,0.6,3.2
	c-0.6,0.1-1,0.3-1.1,0.2c-3.4-4.5-6.9-9.1-5.5-15.3c0.6-3-2.3-2.6-3.4-3.9c-1.1-1.1-1.8,0.3-2.6,1.2c-2.3,2.6-3.7,5.7-4.8,8.8
	c-1.5,4.4-5.1,4.9-8.7,5.7c-1.3,0.3-2.5-1.5-1.6-2.6c4.5-5,2.6-11.4,3.8-17.1c0.1-0.3-0.8-0.9-1.3-1.2c-0.1-0.1-0.8,0.5-0.9,0.8
	c-0.4,1.7-0.8,3.4-1.1,5.2c-0.3,1.3-1,1.6-2.1,0.9c-2.4-1.5-4.8-3.1-7.2-4.6c-0.7,5-0.7,4.9,3.6,7.2c0.6,0.3,1.4,1.1,1.4,1.7
	c0,0.5-0.9,1.3-1.5,1.5c-1.2,0.4-2.5,0.5-3.8,0.6c-2,0-1.7,0.7-0.8,1.9c0.2,0.2-0.5,1.6-0.9,1.7c-1.9,0.2-3.9,0.3-5.8,0.2
	c-2.4-0.2-4.9-0.2-7.1-1c-3.1-1.1-6,0.2-9,0.1c-1.1,0-1.9,0.4-1.4,1.8c0.3,0.8,0.4,1.6,0.7,2.3c0.7,1.3,0.1,2.1-1.1,2.7
	c-0.7,0.3-1.5,0.8-2.2,0.9c-1.4,0.3-1.6,1.2-1.8,2.4c-0.8,4.7-7.1,7.9-11.5,5.9c-0.4-0.2-0.8-0.8-1.2-0.8c-1.9-0.2-4-0.8-5.7-0.2
	c-1.8,0.6-1.1,2.9-0.9,4.3c0.3,2.7-1.3,5.3-0.4,8c0.1,0.3-0.6,1-1.1,1.4c-0.2,0.1-0.9-0.3-1.1-0.6c-1.6-2-3.1-4.1-4.6-6.2
	c-0.7-1-1.2-1-2.3-0.4c-3,1.7-6.2,1.2-9.3,0.3c-5-1.3-8.1-5-11.2-8.7c-0.4-0.5-0.6-1.3-1.1-1.6c-0.6-0.4-1.5-0.4-2.2-0.5
	c0,0.7-0.2,1.5,0,2.1c1,2.5,1.8,5.2,4.1,7c0.4,0.3,0.7,1.2,0.5,1.6c-0.2,0.4-1.1,0.7-1.6,0.7c-4.2-0.3-8.3-0.4-12.4-1.1
	c-2-0.4-3.3-2.2-4.1-4.4c-1.1-3.1-2.6-6.1-4.1-9.1c-0.1-0.3-1.4-0.3-1.9,0c-1.7,1.1-3.3,2.6-5,3.6c-1.5,0.9-2.5,0.1-2-1.6
	c0.5-1.9,0.7-3.7-0.2-5.8c-3.1,1.8-6.2,3-9.6,2.9c-2.2-0.1-2.7-0.7-2-2.7c1.5-4.2,3.2-8.3,5.1-12.8c-2.7,0.9-4.5,1.7-4.6,4.8
	c-0.1,2.3-1,4.7-2,6.9c-1.2,2.7-3.2,4.7-6.2,5.7c-2.6,0.9-3.7,0-3.3-2.6c0.3-2.7,0.6-5.4,0.9-8.1c0-0.4-0.2-0.9-0.4-1.4
	c0-0.1-0.3-0.3-0.4-0.2c-0.2,0.1-0.6,0.3-0.6,0.4c1,6.1-4.8,4.9-7.5,6.8c-1.7,1.2-4.3,1.1-6.5,1.6c-3,0.7-7.9-1.5-9.3-4.2
	c-0.6-1.1-1.1-2.3-1.5-3.5c-0.7-2.1-0.7-2.1-2.9-1c-2.8,1.5-5.7,2.9-8.5,4.4c-1.2,0.6-1.1,1.4-0.3,2.3c1.4,1.7,3,2.8,5.4,2.7
	c0.8-0.1,1.6,0.7,2.4,1.1c-0.5,0.9-0.9,2-1.6,2.6c-1.1,0.9-2.6,1.3-3.8,2c-2.7,1.5-5.2,1.2-7.8-0.2c-1.6-0.9-3.4-1.7-5.1-2.6
	c-2.1-1.9-4.2-3.9-6.3-5.8c-1.1-1-1.7-1-2.6,0.4c-1.9,3-2.7,3.1-5.7,1.5c-0.8-0.5-1.5-1.2-2.4-1.6c-1.1-0.4-3-1.2-3.5-0.7
	c-1.2,1.2,0.8,2,1.2,3.1c0.3,0.7,0.9,1.3,1.3,2c0.2,0.3,0.2,1,0,1.3c-1.5,2.1-5,2.3-5.9,0c-1-2.4-2.8-3.4-4.8-4.4
	c-3.2-1.5-5.9,0.9-8.8,1.1c-0.1,0-0.4,1.1-0.3,1.6c0.5,1.6,0,2.4-1.7,2.6c-2.9,0.3-5.7,0.7-8.6,0.9c-2.8,0.2-2.8,0.1-3,3.1
	c-0.1,1,0.1,2-0.2,2.9c-0.6,1.3-1.3,2.9-2.4,3.4c-2.1,0.9-3.9,1.6-4.1,4.1c-0.1,2.1,0,3.9,1.2,6c2.7,4.9,1.8,9.9-1.9,13.7
	c-0.6,0.7-1.5,1-2.3,1.6c-0.3-0.8-0.7-1.6-1-2.4c-0.3-0.7-0.2-1.8-0.7-2.2c-3.7-3.4-3.5-7.7-2.9-12.1c0.3-2-0.7-2.8-2.3-1.7
	c-2.8,1.9-5.3,0.5-7.9,0c-0.7-0.1-1.2-1.3-1.6-2.1c-0.1-0.3,0.5-1.3,1-1.4c4.9-1.1,6.4-4.8,7.8-9c1-3.1,2.7-6,5.5-7.8
	c2-1.2,2.4-3.3,3.6-4.9c0.9-1.3-0.7-5.3-2.1-5.5c-3.7-0.8-6.2-2.9-7.4-6.5c-1.8,2.1-3.3,4-5.1,5.6c-1.3,1.1-2.9,3-4.8,0.4
	c-0.3-0.4-1.6-0.3-2.2,0c-1.6,0.7-3.2,1.5-4.6,2.6c-4.7,3.6-9.1,7.7-14.1,10.9c-6.9,4.6-12.4,10.7-18.6,16.1c-2.5,2.2-4.5,5-6.7,7.5
	c-4.9,5.6-9.9,11-14.6,16.7c-3.4,4-6.8,8.1-8.5,13.3c-0.6,1.9-2,3.7-3.4,5.2c-3.9,4.2-6.5,9.1-9,14.2c-1,2.1-2.3,4.1-3.6,6.1
	c-0.8,1.2-1.9,2.2-2.6,3.4c-3.9,6.7-8,13.2-11.4,20.1c-4.1,8.4-7.7,17-11.4,25.5c-0.6,1.4-0.8,3.1-1.2,4.6c-0.5,1.8-1,3.7-1.6,5.5
	c-1.4,4.3-3.1,8.5-4.2,12.8c-1.2,4.9-1.8,10-2.9,15c-0.8,3.8-2.4,7.4-2.9,11.2c-1.5,11.5-5.1,22.4-7.6,33.7
	c-2,9.1-4.7,17.9-7.1,26.9c-1.9,7.4-3.7,14.9-5.7,22.3c-1.2,4.6-2.7,9.2-4,13.8c-1.9,7.1-3.2,14.3-4,21.7
	c-1.3,11.3-3.6,22.4-4.5,33.7c-0.7,8.5-0.8,17-1,25.5c-0.5,18.9-0.1,37.8-0.2,56.7c0,5.8-1.6,11.1-4.8,15.9
	c-1.7,2.5-3.6,4.7-5.5,7.1c3.7,2.2,3.6,2.2,6-0.7c1.9-2.3,4-4.3,7.5-5.5c-0.5,1.3-0.7,2.1-1.1,2.7c-1.9,3-3.8,6-5.9,8.8
	c-0.9,1.2-0.9,2.1-0.3,3.5c1.4,3,2.5,6.1,3.8,9.5c0.4-1.3,1-2.5,1-3.7c0.2-6.2,2.8-11.5,6.5-16.2c1.5-1.9,3-3.9,6.5-5.2
	c-4.6,8.3-9.3,15.4-9.5,24.6c3.7-1.3,7.3-2.1,10.5-3.8c4.5-2.4,9.3-2.5,14-1.8c5.5,0.8,10.9,2.6,16.2,4.4c4.6,1.5,4.6,1.8,6.8-2.8
	c0.3-0.6,0.6-1.1,0.8-1.7c0.4-1.3,1.1-2.7,1-4c0-1.7-0.6-3.4-1-5.1c-0.3-1.4-0.8-2.8-1.1-4.2c-0.1-0.3,0.3-0.8,0.6-1.1
	c0.1-0.1,0.6,0,0.9,0.2c0.4,0.3,0.7,0.6,1,1c0.9,1.6,1.8,3.2,2.7,4.9c1.4-1.3,2.8-2.7,4.3-3.8c4.1-3.2,4.1-3.5,0.1-6.6
	c-0.5-0.4-1.2-0.6-1.6-1c-2.2-2.1-4.4-4.2-6.6-6.4c-0.3-0.3-0.1-1.1-0.1-1.7c0.6,0,1.4-0.3,1.7,0c1.1,0.8,2.1,1.9,3.2,2.8
	c4.3,4.2,8.9,7.9,12.2,13c0.6,1,1.6,1.8,2.4,2.7c0.9-1.1,1.8-2.2,2.5-3.5c0.2-0.4-0.2-1.2-0.2-1.8c-0.1-1.6-0.1-3.2-0.1-4.8
	c0-0.6,0.4-1.1,0.7-1.7c0.6,0.4,1.4,0.6,1.9,1.1c0.5,0.6,0.8,1.4,1.2,2.1c0.5,1.1,1.2,1.3,2.3,0.5c1.9-1.4,4.1-2,6.5-2.3
	c-1,1.6-2.2,2.8-3.5,3.9c-1.3,1.2-2.8,2.2-4,3.5c-0.6,0.6-0.9,1.7-1,2.6c-0.1,1,1.1,1.6,2,1c1.7-1.2,3.3-2.6,5-3.7
	c1.5-0.9,3-2,5-0.8c-0.8,1.2-1.3,2.9-2.4,3.5c-3.4,1.9-4.8,5.6-7.6,8c-1.7,1.5-1.3,2.8,0.9,3.4c4.5,1.2,9.1,2,13.2,4.3
	c0.4,0.2,1.4,0.3,1.6,0c0.3-0.4,0.3-1.2,0.1-1.8c-1.1-3.5-2.2-7-3.3-10.5c-0.1-0.5-0.5-0.9-0.5-1.3c0-0.4,0.2-1,0.4-1.1
	c0.4-0.1,0.9,0.1,1.3,0.3c0.3,0.1,0.4,0.5,0.6,0.7c2.1,4.3,4.9,8.4,4.9,13.5c0,0.5,0.5,1,0.8,1.5c0.4-0.4,1-0.7,1.3-1.2
	c1.1-2,2.2-4,3-6.1c1.1-2.7,1.3-5.7-1.1-7.6c-2.7-2.2-5.2-4.7-7.8-6.9c-9.2-7.5-16.4-16.6-22.9-26.4c-0.3-0.4-0.4-0.9-0.5-1.3
	c-0.4-3.5-1-7-1-10.5c0.2-6.8-1.3-13.4-2.6-20c-2-9.6-2.8-19.3-3.2-29.1c-0.2-5.4,0.1-10.9,0.7-16.4c0.5-4.5,1.1-8.9,2.8-13.1
	c0.6-1.5,1-3.1,1.3-4.6c2-9.4,3.9-18.8,6-28.1c2-9.1,4.1-18.1,6.2-27.1c1.2-5.1,2.4-10.3,3.3-15.5c0.9-4.9,1.3-9.8,2.2-14.7
	c1.5-8.5,3.6-16.9,3.8-25.6c0.1-3.5,0.8-7,1.5-10.4c1.3-6.1,3.1-12.1,4.1-18.2c1.4-7.9,3.6-15.7,6.2-23.2c3.2-9.2,7.6-18.1,11.7-27
	c1.5-3.3,3.4-6.6,5.6-9.5c3.4-4.5,7.1-8.7,10.9-12.9c7.2-8,14.6-15.9,21.8-23.9c0.8-0.8,1.4-1.7,2.1-2.6c5.2-7.2,10.7-14,17-20.3
	c1.8-1.8,3.3-4,4.9-6c2.5-3.1,4.8-6.5,7.6-9.3c5.3-5.2,11.2-9.6,16.1-15.2c0.5-0.6,1.2-1,1.9-1.4c10-6.6,20.1-13.3,30.2-19.8
	c0.7-0.5,1.8-0.4,2.8-0.5c0,2.3-2.1,2.7-3.4,3.6c-7.5,5-15,10-22.6,14.7c-4.8,3-9.2,6.5-13.1,10.6c-2.6,2.7-5.8,4.7-8.2,7.4
	c-4.7,5.2-9.2,10.7-13.8,16.1c-0.7,0.9-1.4,1.8-2.2,2.6c-5.9,5.9-11.1,12.5-16,19.2c-1,1.3-1.9,2.6-3.1,3.7
	c-4.8,4.7-9.2,9.9-13.4,15.2c-3,3.8-6.2,7.5-9.7,10.7c-7.9,7.3-12.7,16.5-17.1,26.1c-2.6,5.7-5.3,11.4-7.3,17.3
	c-2.5,7.4-4.7,15-6.6,22.5c-1.7,6.8-3,13.8-4.3,20.7c-0.7,3.8-1.2,7.6-1.7,11.4c-0.5,4-0.6,8-1.1,12c-0.5,3.6-1.5,7.2-2.2,10.8
	c-0.9,4.7-1.7,9.4-2.5,14.1c-0.7,3.8-1.2,7.6-2,11.3c-1.3,6.4-2.9,12.8-4.1,19.2c-1.1,6-3.6,11.7-3.6,17.8c0,0.3,0,0.6-0.1,1
	c-1.9,7.9-3.7,15.9-5.6,23.8c-0.3,1.2-0.5,2.6-1,3.7c-2.2,4.6-2.6,9.4-3.1,14.5c-0.4,4.8-1,9.6-0.7,14.4c0.5,8,0.4,16,2.5,23.8
	c1.2,4.6,1.5,9.5,2.2,14.2c0.2,1.6,0.6,3.1,1,4.7c0.4,1.8,1.2,3.6,0.2,5.6c-0.5,0.9,0,2.2,0.1,3.3c0.1,0.6,0.6,1.2,0.6,1.8
	c-0.7,8.7,5.4,13.9,10.1,19.8c1.8,2.3,3.6,4.5,5.7,6.6c3.4,3.4,7.1,6.5,10.7,9.8c0.2,0.2,0.5,0.7,0.7,0.6c4.8-0.9,4.8,3.7,6.9,6
	c2.9-0.9,4.8-3,6.9-5c2.1-1.9,4.6-2.5,4.4-1.7c-0.4,1.3-1.4,2.4-2.3,3.5c-1.3,1.6-2.7,3.1-4,4.6c6.5,6.1,14.2,9.4,21.6,13.5
	c0.6-3,1-5.9,1.7-8.6c0.3-1.3,0.8-2.8,2.7-2.9c1.7-0.1,2.7,1,3.5,2.2c0.6,0.9,1.1,2,1.8,3.3c1.5-0.7,3.1-1.5,4.6-2.1
	c3.6-1.3,4.8-0.5,4.7,3.3c0,0.5,0.1,1-0.1,1.4c-0.2,0.5-0.5,1.3-1,1.4c-0.5,0.2-1.5-0.1-1.6-0.5c-1-2.2-2.2-1.9-3.6-0.5
	c-2.6,2.6-5.1,5.3-7.6,8c-0.2,0.2,0.2,1.1,0.4,1.6c0.9,2.1,2,4.1,2.6,6.2c0.8,2.7-0.6,3.9-3.3,3.1c-1.9-0.6-3.7-0.6-5.6-0.1
	c-0.6,0.2-1.4-0.1-2.1-0.2c0.2-0.6,0.3-1.2,0.6-1.6c1.5-1.7-0.6-1.3-1-2c-2.3-3.7-5.7-4.9-9.8-5.1c-2.4-0.1-4.9-0.4-7.1-1.1
	c-2.8-1-4.9-0.8-6.9,1.5c-0.8,0.9-1.6,0.3-1.6-0.7c-0.1-2.2,0-4.5-0.9-6.9c-0.3,1.4-0.7,2.9-1.1,4.3c-0.1,0.5-0.5,0.9-0.8,1.4
	c-0.3-0.6-0.8-1.3-0.8-1.9c-0.1-0.6,0.4-1.2,0.5-1.8c0.1-0.8,0.1-1.6,0.1-2.4c1.3-2.6,2.6-5.2,3.9-7.8c0.3-0.6,0.6-1.3,1-1.9
	c0.3-0.3,0.7-0.6,1-1c0.3-0.3,0.6-0.7,1-1c0.3-0.3,0.5-0.6,0.8-1c-0.2-0.1-0.3-0.2-0.5-0.3c-0.1,0.4-0.2,0.8-0.3,1.3
	c-0.3,0.3-0.7,0.6-1,1c-0.3,0.3-0.6,0.7-1,1c-0.3,0.6-0.6,1.3-1,1.9c-2.5,2-3.7,4.6-3.9,7.8c-1.1,2-2.3,4.1-3.5,6.4
	c-0.4-0.5-1.1-1-1.3-1.6c-0.9-2.7-2.9-4.2-5.4-5c-4.3-1.4-8.5-2.7-12.8-4c-1.3-0.4-1.7,0.1-1.5,1.5c0.9,5.9,2.4,11.6,6.5,16.3
	c2,2.3,3.4,5,4.9,7.7c0.4,0.7,0.4,2,0,2.6c-0.4,0.6-1.8,1-2.5,0.8c-3.9-1.2-8.4-1.3-11.1-5.2c-0.4-0.6-1.1-1.3-1.8-1.6
	c-5.9-2.4-10.2-7.2-15.3-10.8c-1.2-0.8-1.4-0.7-1.8,0.6c-0.4,1.5-2.1,1.4-2.8,0.8c-1.3-1.1-1.9-1.3-2.7,0.4c0,0.1-1.1-0.1-1.3-0.4
	c-0.5-0.6-1.7-0.8-1.1-2.3c1.4-3.1,2.5-6.2,3.7-9.4c0.2-0.6,0.2-1.2,0.5-2.7c-2.3,2.6-2.3,5.2-3.3,7.3c-0.3,0.7-0.7,1.4-1.7,0.5
	c-2.6-2.3-5.8-3.1-9-4.2c-5.8-2-11.9-2.4-17.9-3.2c-1.6-0.2-3.4,0.6-5,1.2c-2.9,1-5.6,2.3-8.5,3.4c-3.1,1.1-5.5,2.7-5,6.6
	c0.1,0.4-0.1,1-0.3,1.4c-0.1,0.2-0.5,0.4-0.7,0.4c-0.3,0-0.7-0.4-0.7-0.5c0.2-1.4,0.5-2.8,0.6-4.2c0-0.4-0.5-0.9-0.8-1.4
	c-0.3,0.3-0.7,0.7-0.8,1c-0.4,1.9-0.7,3.8-1,5.7c-0.3,2-2.1,0.8-3,1.5c-0.4-0.6-0.9-1.2-1-1.9c-0.2-0.9,0.1-2-0.1-2.9
	c-0.2-0.6-0.8-1.6-1.3-1.6c-0.6-0.1-1.7,0.5-2,1c-0.7,1.6-1,3.4-1.5,5c-0.2,0.5-0.8,0.8-1.1,1.2c-0.2-0.5-0.7-1.1-0.6-1.6
	c0.9-5.7,1.8-11.3,2.7-17c0.1-0.5,0-1,0-1.5c0.3-1,0.6-1.9,1-2.9c0.3-0.6,0.7-1.3,1-1.9c0.3-0.6,0.6-1.3,1-1.9
	c0.1-0.1,0.3-0.1,0.4-0.2c0.1-0.1,0.1-0.2,0.1-0.3c-0.2,0.2-0.3,0.3-0.5,0.5c-0.3,0.6-0.6,1.3-1,1.9c-0.3,0.6-0.6,1.3-1,1.9
	c-0.3,1-0.6,1.9-1,2.9c-0.6,1.4-1.5,2.8-1.9,4.2c-1.1,5-2,10-3.1,15c-0.1,0.3-0.6,0.5-1,0.8c-0.3-0.4-0.7-0.7-0.7-1.1
	c0-0.6,0.3-1.2,0.5-1.8c0.4-1.1-0.2-1.5-1.2-1.6c-0.5,0-1,0-1.4,0.1c-4.8,1.7-9.7,3.4-14.5,5.2c-2.6,0.9-5.1,2-7.7,2.8
	c-0.6,0.2-1.8,0.1-2.1-0.3c-0.5-0.7-0.9-1.9-0.5-2.5c1.2-2.2,2.6-4.3,4.1-6.4c1.2-1.7,2.8-3.2,3.8-5c1.8-3.4,4.5-5.7,7.4-8.1
	c2.9-2.3,5.6-4.9,8.2-7.4c0.6-0.5,1.1-1.8,0.9-2.4c-0.3-0.7-1.6-1.3-2.3-1.2c-5.6,0.7-8-2.4-9.4-7.2c0.1,0.8,0.1,1.5,0.2,2.3
	c0.1,0.9,0.4,1.9,0.4,2.8c0,0.5-0.5,1.1-0.7,1.6c-0.4-0.4-1-0.7-1.2-1.2c-0.4-1.4-0.7-2.8-1-4.2c-0.6-3.7-0.5-3.7-4-3
	c-9.7,2.1-12.2,3.1-18.3,7.6c2.8,0,4.9,0.1,7,0c4.3-0.1,8.6,0.7,12.9,0.1c0.6-0.1,1.4,0.5,2.1,0.7c-0.6,0.4-1,1-1.7,1.2
	c-3.8,1.1-7.5,1.3-11.4,0.3c-2.4-0.6-5.1-0.1-7.7,0.1c-0.6,0-1.3,0.6-1.8,0.5c-1.4-0.3-3.3-0.6-3.8-1.5c-0.8-1.6,1-2.4,2.2-3.1
	c5.8-3.5,11.8-6.4,18.5-7.8c2-0.4,4.8-0.8,5.5-2.1c1-1.7,0.4-4.4,0.2-6.6c-0.1-2.1-0.6-4.1-0.7-6.2c0-0.8,0.7-1.5,1-2.3
	c0.5,0.6,1.2,1.1,1.4,1.8c0.9,3.7,1.7,7.5,2.4,11.2c0.4,2.1,0.6,2.4,2.8,1.8c2.3-0.6,3.5-1.6,4.2-4.4c1.1-4.5,0.5-8.2-1.8-11.9
	c-0.2-0.3,0.1-0.8,0.2-1.3c0.4,0.1,0.9,0.1,1.2,0.4c1.1,0.9,2,1.9,3.1,2.9c0.8-1.2,1.6-2.3,2.4-3.5c1.2-1.6,2.4-3.2,4.4-4.4
	c-0.1,0.7-0.2,1.5-0.4,2.2c-1,3.7-2.2,7.3-3,11.1c-0.2,1.1,0.3,2.5,0.8,3.6c0.1,0.4,1.1,0.9,1.5,0.7c3.1-0.8,6.2-1.8,8.2-4.6
	c1.4-2,1.6-4.1,1.6-6.4c0-16.8-0.1-33.6,0-50.4c0.1-9,0.4-18,1-27c0.5-6.7,1.8-13.3,2.7-19.9c0.7-5.7,1.2-11.5,2.2-17.1
	c1.2-6.6,2.4-13.3,4.4-19.7c3.8-12.4,6.8-25,10.1-37.6c1-3.9,2-7.7,3-11.6c3.1-12.1,6.2-24.2,9.1-36.3c1.3-5.4,1.9-11.1,3.5-16.4
	c2.4-7.9,2.7-16.1,4.7-24c0.3-1.2,0.6-2.5,1.2-3.6c1.8-3.8,3.5-7.5,3.9-11.8c0.2-2.8,2-5.4,3.1-8c1.6-3.9,3-7.8,4.8-11.6
	c2.8-5.9,5.9-11.8,8.9-17.6c0.9-1.7,1.9-3.3,2.9-5c0.8-1.4,1.2-3.1,2.2-4.3c6.1-7.1,9.1-16.3,14.8-23.6c3.4-4.4,5.9-9,8.1-14
	c1.6-3.7,4.3-7,7.7-9.7c3.3-2.7,6-6.2,8.8-9.5c3.8-4.5,7.5-9.1,12.1-13c2.7-2.3,5-4.9,7.5-7.3c0.6-0.6,1.4-1.1,1.6-1.8
	c0.9-2.4,1.7-4.8,2.5-7.2c0.2-0.6,0-1.2-0.1-1.9c-0.5,0.2-0.8,0.2-1,0.3c-3.4,2.9-3.4,2.9-5.3-1.2c-1.7-3.6-3.4-7.2-5.4-11.5
	c-1.4,3.4-3,6-2.8,9.3c0.1,1.2-0.9,1.8-1.8,0.6c-0.9-1.1-1.7-0.9-2.3,0c-0.9,1.3-1.9,2.6-2.4,4.1c-1.4,4.2-4.2,7.2-7.8,9.4
	c-1.8,1.1-2.6,2.4-3.1,4.5c-0.9,4.3-2.7,8.3-6.3,11.2c-1.3,1-2,2.3-2.4,4c-1,4.3-4.4,6.5-8.2,8.1c-1.7,0.8-6.1-1.5-7.3-3.7
	c-0.9-1.7-1.6-3.5-2.2-5.3c-0.7-2.2-0.3-3.1,1.9-3.2c1.9-0.1,3.4-0.5,4.6-2.1c1.6-2.1,1.3-4.1,0.2-5.9c-2.5,0.4-4.8,0.9-7.1,1.1
	c-1,0.1-2.1-0.6-3-1.2c-0.7-0.4-1.3-1.2-0.3-2c3.4-2.5,4.3-6.7,6.6-9.9c1.8-2.6,1.9-5.6,0.7-9.3c-1.2,2.1-2.1,3.7-3.2,5.3
	c-1.2,1.7-2,1.6-3.1-0.3c-1.4-2.3-3-4.5-4.6-7c-1.7,2.3-3.1,4.2-4.6,6c-0.4,0.5-1.4,0.4-2.1,0.6c-0.2-0.7-0.5-1.4-0.5-2.1
	c0-2.3,0.2-4.5,0.1-6.8c-0.1-1.8-0.9-2.2-2.5-1.5c-1.3,0.6-2.6,1.3-3.9,1.8c-3.2,1.2-3.2,1.1-2.2,4.4c0.4,1.2,0.8,2.4,1.2,3.6
	c0,0.1,0.2,0.2,0.3,0.4c1.9-1,1.2-2.8,1.4-4.3c0.1-0.6,0-1.3,0.2-1.9c0.1-0.3,0.7-0.6,1.1-0.7c0.1,0,0.6,0.4,0.6,0.6
	c0.3,3.2,0.7,6.4-2.3,8.8c-2.4,2-2.3,2.1-3.5-0.8c-0.4-1-0.9-1.3-1.7-0.8C130.4,28.1,128.1,29.6,125.8,31c-1.3,0-2,0.6-1.8,2
	c0,0.1,0.2,0.2,0.3,0.4c0.5-0.6,1-1.2,1.5-1.9C125.8,31.4,125.8,31.2,125.8,31z M161.7,466.5c0.3-0.3,0.7-0.6,1-1
	c0.1-0.1,0.3-0.1,0.4-0.2c0.1-0.1,0.1-0.2,0.1-0.3c-0.2,0.2-0.3,0.3-0.5,0.5C162.3,465.8,162,466.1,161.7,466.5
	c-0.1,0.1-0.3,0.1-0.4,0.2c-0.1,0.1-0.1,0.2-0.1,0.3C161.4,466.8,161.5,466.6,161.7,466.5z M166.5,460.6c-0.3,0.3-0.6,0.6-1,1
	c-0.3,0.3-0.6,0.7-1,1c-0.2,0.2-0.3,0.3-0.5,0.5c0.2-0.2,0.3-0.3,0.5-0.5c0.3-0.3,0.7-0.6,1-1C165.9,461.3,166.3,461,166.5,460.6
	c0.2-0.1,0.3-0.3,0.5-0.4C166.9,460.3,166.7,460.5,166.5,460.6z M149.1,465.5c0.1-0.1,0.3-0.1,0.4-0.2c0.1-0.1,0.1-0.2,0.1-0.3
	C149.4,465.2,149.3,465.3,149.1,465.5c-0.3,0.3-0.6,0.6-1,1c-1.3,0.5-1.9,1.5-1.9,2.9c-1.3,0.5-1.9,1.5-1.9,2.9
	c-0.4,0.2-0.9,0.4-1.1,0.8c-0.3,0.4-0.3,1-0.4,1.6c0.4-0.3,1-0.6,1.2-1c0.2-0.3,0.2-0.9,0.3-1.3c1.3-0.5,1.9-1.5,1.9-2.9
	c1.3-0.5,1.9-1.5,1.9-2.9C148.5,466.1,148.8,465.8,149.1,465.5z M229.6,483c0.3-0.3,0.6-0.6,1-1c0.3-0.3,0.6-0.6,1-1
	c0.3-0.3,0.7-0.6,1-1c0.3-0.3,0.6-0.6,1-1c0.1-0.1,0.3-0.1,0.4-0.2c0.1-0.1,0.1-0.2,0.1-0.3c-0.2,0.2-0.3,0.3-0.5,0.5
	c-0.3,0.3-0.6,0.6-1,1c-0.3,0.3-0.6,0.7-1,1c-0.3,0.3-0.6,0.6-1,1C230.2,482.3,229.9,482.6,229.6,483c-0.3,0.3-0.6,0.6-0.6,1.3
	c-0.5-0.1-0.7-0.2-0.7-0.1c-0.5,0.6-0.9,1.2-1.3,1.7c0.2,0.1,0.5,0.4,0.6,0.4c0.5-0.6,0.9-1.2,1.2-2.3
	C228.9,483.6,229.3,483.3,229.6,483z M149.1,477.1c0.1-0.1,0.3-0.1,0.4-0.2c0.1-0.1,0.1-0.2,0.1-0.3
	C149.4,476.8,149.3,477,149.1,477.1c-0.3,0.3-0.6,0.7-1,1c-0.4,0.1-0.9,0.1-1.3,0.3c-0.2,0.2-0.2,0.7-0.2,1.1
	c0.2-0.1,0.6-0.1,0.7-0.3c0.3-0.3,0.5-0.7,0.7-1.1C148.5,477.8,148.8,477.5,149.1,477.1z M72.5,444.2c0.1,0.4,0.2,0.8,0.3,1.3
	c0.2-0.1,0.3-0.2,0.5-0.3C73,444.8,72.7,444.5,72.5,444.2c-0.3-0.6-0.7-1.3-1-1.9c-0.1-0.4-0.2-0.8-0.3-1.3
	c-0.2,0.1-0.3,0.2-0.5,0.3c0.3,0.3,0.5,0.6,0.8,1C71.8,442.9,72.2,443.5,72.5,444.2z M457.5,16.5c0.4-0.1,0.8-0.2,1.3-0.3
	c-0.1-0.2-0.2-0.3-0.3-0.5C458.1,16,457.8,16.2,457.5,16.5c-0.1,0.1-0.3,0.1-0.4,0.2c-0.1,0.1-0.1,0.2-0.1,0.3
	C457.2,16.8,457.3,16.6,457.5,16.5z M310.1,11.6c0.1,0.1,0.1,0.3,0.2,0.4c0.1,0.1,0.2,0.1,0.3,0.1C310.4,12,310.3,11.8,310.1,11.6
	c-0.2-0.5-0.5-1-0.7-1.4c-0.2,0.2-0.4,0.4-0.6,0.6C309.2,11.1,309.6,11.4,310.1,11.6z M72.5,437.4c0.3-0.5,0.7-0.9,0.9-1.4
	c0.1-0.2-0.2-0.5-0.3-0.8c-0.2,0.3-0.5,0.6-0.5,0.9C72.4,436.5,72.5,436.9,72.5,437.4c-0.1,0.1-0.3,0.1-0.4,0.2
	c-0.1,0.1-0.1,0.2-0.1,0.3C72.2,437.7,72.3,437.5,72.5,437.4z M228.6,19.4c-1.3,0-2.1,0.5-1.8,2c0,0.1,0.2,0.2,0.3,0.4
	c0.5-0.6,1-1.3,1.5-1.9C228.7,19.7,228.6,19.5,228.6,19.4c0.1-0.1,0.3-0.1,0.4-0.2c0.1-0.1,0.1-0.2,0.1-0.3
	C228.9,19.1,228.8,19.2,228.6,19.4z M263.5,38.8c0.7-0.6,1.4-1.1,2.1-1.7c0.2-0.1,0.1-0.5,0.2-0.8c-0.4,0-1-0.1-1.1,0.1
	C264.2,37.2,263.9,38,263.5,38.8c-0.1,0.1-0.3,0.1-0.4,0.2c-0.1,0.1-0.1,0.2-0.1,0.3C263.2,39.1,263.4,38.9,263.5,38.8z M175.3,44.6
	c1.5-1.3,2.1-2.7,0-4.6C175.3,41.8,175.3,43.2,175.3,44.6c-0.1,0.1-0.3,0.1-0.4,0.2c-0.1,0.1-0.1,0.2-0.1,0.3
	C175,44.9,175.1,44.8,175.3,44.6z M158.8,7.8c1.3-0.8,2.5-1.6,1.9-3.6C160.1,5.3,159.4,6.5,158.8,7.8c-0.1,0-0.3,0.1-0.4,0.2
	c-0.1,0.1-0.1,0.2-0.1,0.3C158.5,8.1,158.6,7.9,158.8,7.8z M229.6,475.2c0.1,0.1,0.1,0.3,0.2,0.4c0.1,0.1,0.2,0.1,0.3,0.1
	C229.9,475.5,229.8,475.4,229.6,475.2c0-0.3,0-0.7-0.2-0.9c-0.5-0.5-1-1-1.6-1.4c0,0-0.6,0.6-0.6,0.6c0.4,0.6,0.9,1.1,1.4,1.6
	C228.9,475.2,229.3,475.2,229.6,475.2z M367.3,4.8c1.9-0.3,3.9-0.6,5.8-1c0.2,0.4,0.6,0.8,0.6,1.3c0.1,2.8,1.4,4,4.3,3.6
	c0.6-0.1,1.3,0.2,1.8,0.4c2,0.9,3.7,0.4,5.3-0.9c-2.2-1-4.3-2.2-6.5-3.1c-1.8-0.7-3.7-0.9-5.5-1.4C370.8,1.9,369,3.3,367.3,4.8
	c-0.4,0.1-0.8,0.2-1.3,0.3c0.1,0.2,0.2,0.3,0.3,0.5C366.7,5.4,367,5.1,367.3,4.8z M173.3,464.5c-3.1,0.9-5,2.8-6.1,7
	C169.8,468.7,171.6,466.6,173.3,464.5c0.1,0,0.3-0.1,0.4-0.2c0.1-0.1,0.1-0.2,0.1-0.3C173.7,464.2,173.5,464.4,173.3,464.5z
	 M642.7,7.8c-1.4,0.4-2.7,0.8-4,1.3c-0.2,0.1-0.4,1-0.3,1.1c0.8,0.5,1.6,0.9,2.5,1.2c0.2,0,0.6-0.9,0.9-1.4
	C642.1,9.2,642.4,8.5,642.7,7.8c1.6-0.1,2.8-0.7,3.5-2.2C644.8,5.8,643.4,6.2,642.7,7.8z M656.3,9.7c5.4-0.5,10.3-2.1,13.9-6.3
	c-2,0.7-3.9,1.9-5.8,2.8C661.8,7.4,659,8.5,656.3,9.7c-0.4,0.1-0.8,0.2-1.3,0.3c0.1,0.2,0.2,0.3,0.3,0.5
	C655.7,10.2,656,10,656.3,9.7z M239.3,8.7c0,2.4-2.2,3.3-3.4,4.9c-0.8,1-2.2,1.7-2.3,3.5c1.8-1.2,3.2-2.2,4.6-3.1
	C240.7,12.5,240.7,12.3,239.3,8.7c0.1-0.8,0.2-1.5,0.4-2.3c0.5,0.4,1.2,0.8,1.6,1.3c0.5,0.6,0.7,1.4,1.2,2.1
	c0.2,0.3,0.8,0.3,1.1,0.4c0-0.4,0.3-0.9,0.1-1.2c-1.9-3.6-4.2-5-7.1-4c-0.6,0.2-1,1.1-1.5,1.7c0.5,0.4,1,0.8,1.6,1.1
	C237.5,8.1,238.4,8.4,239.3,8.7z M102.6,16.5c-3,1.7-4.5,5.8-8.8,5.2c-0.2,0-0.7,1-0.7,1.6c0,0.6,0.4,1.6,0.6,1.6
	c2.1,0.2,4.2,0.4,6.2,0c0.8-0.2,1.3-2,1.7-3.2C102,19.9,102.2,18.2,102.6,16.5c0.1-0.1,0.3-0.1,0.4-0.2c0.1-0.1,0.1-0.2,0.1-0.3
	C102.9,16.2,102.7,16.3,102.6,16.5z M676.7,14.5c-1.7-1.6-3.3-3.3-5.1-4.8c-0.5-0.4-1.6-0.8-2.1-0.5c-1.2,0.5-1.1,3.9,0.2,4.2
	C672,14,674.3,14.2,676.7,14.5c0.2,2.7-2.8,3.2-3.8,5.2c1.1,0.4,2,1.1,2.9,1c1.4-0.1,2.8-0.7,4.3-1.1c-0.8-3,0.9-1.8,2.3-1.4
	c0.4,0.1,1,0.2,1.4,0c0.7-0.4,1.4-1.1,2-1.6c-0.7-0.3-1.3-0.9-2-1C681.4,15.2,679,14.9,676.7,14.5z M118.1,7.8
	c3.2,0.3,5.1,2.3,6.8,4.8c0.8,1.2,1.5,2.5,2.5,3.5c0.4,0.4,1.5,0.2,2.1-0.1c0.9-0.5,0.6-1.2,0.1-1.9c-1.6-2.3-3.3-4.7-4.7-7.2
	c-1-1.8-2.5-3.5-4.3-3.3C119.6,3.7,118.9,6.3,118.1,7.8c-4.6,3.8-4.6,3.8-3.1,8.5C117.5,13.8,117.4,10.6,118.1,7.8z M213.1,10.6
	c-1.7-0.5-3.3-1-5-1.4c-0.3-0.1-0.8,0.3-1.1,0.6c-0.1,0.1-0.1,0.7,0.1,0.8c2.7,3.1,3.7,7,5.3,10.6c0.2,0.5,0.7,1,1.1,1.5
	c0.5-0.5,1.3-0.9,1.6-1.5c1.3-2.2,1.6-4.4-0.3-6.7C213.9,13.5,213.6,12,213.1,10.6c0.4-0.2,0.9-0.4,1.1-0.7c0.2-0.2,0-0.6,0-1
	c-0.2,0.1-0.6,0.2-0.7,0.4C213.2,9.8,213.2,10.2,213.1,10.6z M471.1,3.9c0.2,0.4,0.4,0.8,0.8,1.1c0.2,0.1,0.6,0,1-0.1
	c-0.1-0.2-0.2-0.6-0.4-0.7C472,4,471.5,4,471.1,3.9c-0.4-0.6-0.9-1.7-1.2-1.6c-3.5,0.8-7,1.7-10.4,2.6c-3.7,1-5.5,4.1-7.7,6.7
	c0.1-1.6,0-3.2,0.5-4.7c0.5-2,0.2-3.8-1.4-4.3c-1.4-0.4-3-0.5-4.5-0.6c-0.2,0-0.6,0.8-0.8,1.2c-1.1,4.1,2.1,6.3,4,9
	c0.2,0.2,1.4-0.4,2.1-0.6c0,0.2,0,0.3,0,0.5c0.3,3,0.2,2.8,3,2.5c5.1-0.5,9.3-2.6,12.7-6.5C468.6,6.7,469.8,5.3,471.1,3.9z
	 M85.1,443.2c-2.4,1.2-4.8,2.6-7.3,3.6c-4.6,1.8-9.4,3.4-14,5.1c-0.7,0.2-1.6,0.7-1.8,1.3c-0.8,2.1,1.8,6,4,6.5
	c2.1,0.5,4.3,1.2,6.3,2.2c1.4,0.7,2,0.3,2.9-0.5C80.6,456.4,84.4,450.7,85.1,443.2c0.1-0.1,0.3-0.1,0.4-0.2c0.1-0.1,0.1-0.2,0.1-0.3
	C85.4,442.9,85.3,443,85.1,443.2z M176.4,503.5c-0.6-0.8-1.1-1.4-1.5-2.1c-3.3-5-7.5-9.5-8.7-15.9c-0.6-3.2-2.6-6.2-3.9-9.3
	c-0.6-1.5-1.4-2.2-3.3-1.7c-3.2,0.8-5.8,2.5-8.5,4.3c-5.4,3.8-5.5,5.3-0.4,9.2c0.4,0.3,0.9,0.4,1.3,0.7c4.9,3.3,9,7.8,14.8,9.9
	c0.6,0.2,1.1,0.7,1.5,1.2C169.7,502.6,172.6,503.6,176.4,503.5z M49.2,492.8c0.3,0.3,0.6,0.5,0.9,0.8c4-1.6,8-3.2,12-4.7
	c3.3-1.2,6.7-2.1,10-3.3c1.6-0.6,3.1-1.3,3.4-3.6c0.5-3.3,1.2-6.7,2.5-9.6c1.1-2.3,0.8-4.3,0-6.3c-1-2.6-1.6-2.7-3.6-0.9
	c-4.4,4-8.7,8-13.1,12.1c-1.4,1.3-2.7,2.7-3.9,4.1c-2,2.5-3.9,5-5.8,7.6C50.7,490.1,50,491.5,49.2,492.8z M199.7,472
	c-2.4,3.3-2.9,8.6-0.8,12.3c0.3,0.6,1.1,1.2,1.8,1.3c2.3,0.5,4.7,0.9,7.1,1.1c4.1,0.3,7.9,0.8,11.3,3.4c1.3,1.1,2.4,0.4,3-1.1
	c0.8-1.8,0-3.8-2.2-5.1C213.2,480,206.5,476,199.7,472z M235.4,11.8c-2.5-1.9-4.2-3.3-6-4.6c-2.2-1.6-4.4-3.2-6.7-4.6
	c-1.9-1.2-2.7-0.8-3.9,1.4c-0.2,0.4-0.4,0.9-0.8,1.2c-1.6,1.7-1.1,3.1,0.4,4.5c2.1,2,4.2,4,6.1,6.1c1.1,1.2,2.2,1.3,3.4,0.6
	C230.4,15,232.7,13.5,235.4,11.8z M435.4,26.1c0.1-0.3,0.2-0.5,0.3-0.8c-0.5-0.3-1.1-0.9-1.5-0.9c-3.9,0.5-6.7-1.7-9.7-3.6
	c-1.2-0.7-2.6-1.3-3.9-1.4c-3.4-0.2-6.7-0.1-10.1,0c-1.4,0.1-2.7,0.6-4,1c1.3,1.5,2.7,2.1,4.1,2.7c2,0.9,4.3,1.4,6.1,2.6
	c1.5,0.9,2.8,1.4,4.5,1.3C425.9,26.8,430.6,26.4,435.4,26.1z M690.3,20.3c0.8,0,1.9,0.1,3.1,0c1.6-0.1,1.7-0.6,0.9-2.2
	c-2.4-4.9-6.4-8.3-10.1-12.1c-3.7-3.8-3.5-4.6-6.1,1.1c-0.4,0.9-0.5,1.8-0.9,2.7c-0.7,1.5-0.1,2.5,1.3,3c1,0.3,2.2,0.5,3.2,0.7
	c2.4,0.4,4.7,0.6,7.1,1c1.6,0.3,1.8,1.1,0.6,2.3c-0.7,0.7-1.6,1.1-2.3,1.7c-0.4,0.4-0.7,0.9-1.1,1.4c0.6,0.3,1.1,0.8,1.7,0.8
	C688.4,20.8,689.2,20.5,690.3,20.3z M452.1,41.2c1.7-3,1-6,0.1-9c-0.7-2.2-1.2-4.3-4.4-4.1c-1,0.1-2.3-0.9-3.2-1.7
	c-1.6-1.3-3.1-1.3-4.9-0.4c-2.9,1.3-3.1,2.6-0.7,4.4c4.4,3.3,8.9,6.6,12.6,10.7C451.7,41.1,451.9,41.1,452.1,41.2z M595.5,12.7
	c4,3.2,8.4,3.4,12.8,2.4c4.2-1,8.5-2.3,10.9-7c-1.8,0.2-3.6,0.8-5.1,0.5c-2.7-0.6-5.3,0-7.9,0C602,8.7,598.9,10.8,595.5,12.7z
	 M594.9,27c-2.4,5.5-2.3,7.7,0.9,9.7c3.5,2.2,6.7,4.6,9.3,7.9c1.1-2.3,2-4.1,2.8-6.1c0.5-1.2,0.8-2.4,0.8-3.7c0.1-1.6-0.6-1.9-2-1.1
	c-3.4,1.7-3.6,1.8-6.2-0.8C598.7,31.2,597,29.2,594.9,27z M421.3,37.8c-1.8-9.7-8.8-12.3-15.8-12.8c0.8,1.5,1.5,2.9,2.3,4.3
	c0.7,1.4,1.6,2.8,2.1,4.2c1,3.1,1.8,4,4.9,4.2C417,37.9,419.2,37.8,421.3,37.8z M462.5,14.7c2.3,0,5.6-0.9,7.8,0.2
	c3.1,1.7,6.1,1.5,9.3,1.4c1.6,0,3.5,0.9,4.8-0.9c-1.1-1-2.2-2.2-3.4-3.1c-2-1.5-4.1-3.1-6.4-4.2c-1.6-0.8-3.7-1.1-5.4,0.4
	C466.9,10.8,464.6,12.9,462.5,14.7z M337.7,27.2c-1.8-2-4.4-3.6-5-5.7c-1.1-3.5-4.4-4-6.3-6.4c-0.2-0.3-0.9-0.3-1.3-0.2
	c-2.8,0.9-4.1,6.4-1.9,8.2c2.1,1.7,4.3,3.5,6.8,4.5C332.4,28.6,335.2,28.7,337.7,27.2z M697.7,13.6c0.5,1.2,0.6,2.6,1.4,3.1
	c2.2,1.5,4.5,2.8,7.5,1.9c3.2-1,3.6-1,2-3.9c-1.3-2.4-2.4-4.4-1-7.1c0.2-0.4-0.7-1.7-1.4-2c-0.7-0.3-1.9-0.3-2.5,0.2
	c-1.5,1.2-2.9,2.6-4.1,4.1C698.6,10.9,698.3,12.3,697.7,13.6z M52.6,21.7c-0.5-3.5-0.9-3.9-4.2-5.3c-0.6-0.2-1.1-0.6-1.7-0.9
	c-1.1-0.8-1.4-1.7-0.1-2.7c0.4-0.3,0.7-0.7,1.1-0.9c0.9-0.5,1.7-1.1,0.8-2.2c-1-1.2-2-0.8-2.8,0.2c-1.7,1.9-2.6,3.8-1.9,6.6
	c0.8,3.4,1,6.9,1.6,10.4c0.2,1.3-0.8,3.3,0.9,3.7c0.9,0.2,2.5-1.3,3.2-2.5C50.8,26.1,51.6,23.8,52.6,21.7z M116.3,35
	c-1.6,1-2.4,1.5-3.3,2c-4,2.3-4.8,4.6-3.4,9c0.6,2,1.1,4,1.8,5.9c0.4,1,0.8,2.1,1.5,3c0.4,0.5,1.5,0.9,2,0.7c0.5-0.2,1-1.2,1-1.9
	c0.1-1.1-0.4-2.1-0.3-3.2C115.8,45.6,116,40.6,116.3,35z M106.4,33.7c-3.9-2.3-5.9-0.2-7.9,2c-3.5,3.9-7,7.8-10.5,11.7
	c5,0.4,9.7-1.2,13.9-4.4c2.8-2.1,2.8-2.3-0.5-4.4c-0.2-0.1-0.1-0.5-0.2-0.7C102.8,36.6,104.4,35.3,106.4,33.7z M67.2,19.1
	c1.2-0.2,2.4-0.7,3.6-0.7c6.4,0.2,10.8-3.3,14.7-7.8c1.7-2,1.4-3-1.1-3.6c-2.4-0.5-4.7-0.5-6.6,1.6C74.4,12.2,70.8,15.6,67.2,19.1z
	 M440.3,38.7c1.3,0,2.1,0.1,2.9,0c0.5,0,1.2-0.3,1.2-0.5c0-0.6-0.1-1.3-0.4-1.7c-2.1-1.9-4.5-3.6-6.5-5.7c-2.6-2.7-5.6-1.8-8.6-1.4
	c-1.2,0.2-1.6,1.6-0.7,2.6C431.5,35.9,434.9,39.6,440.3,38.7z M79.1,39.6c3.4,0.6,6.5-0.8,9.8-1.6c4.7-1.2,6.6-4.8,8.5-8.5
	c0.7-1.4-0.3-2.5-1.9-2.2c-2.4,0.5-4.5,1.2-6.3,3.1C86,33.5,82.6,36.4,79.1,39.6z M721.8,12.7c-1.2,3.4,0.3,5.6,1.9,7.9
	c1.1,1.6,0.4,2.6-1.6,2.6c-0.4,0-0.9-0.1-1.3-0.2c0.1,0.6,0,1.3,0.3,1.7c0.9,0.9,1.8,1.9,2.9,2.3c4.2,1.7,8.4,1.9,12.5-1.4
	C730.3,22.9,725.8,18.3,721.8,12.7z M459.1,31.4c1.9-0.9,4.1-1.8,6.1-3c0.9-0.5,1.2-1.7-0.3-2c-2.8-0.7-4.7-2.6-6.6-4.6
	c-0.9-0.9-1.7-2-2.8-2.6c-0.9-0.5-2.3-0.7-3.1-0.3c-1.3,0.7-0.4,1.9,0,2.9c0.8,2.1,2.9,4,1.4,6.6c-0.2,0.3,0.6,1.4,1.2,1.7
	C456.1,30.7,457.4,30.9,459.1,31.4z M267.4,17.1c0,4,1.2,6.7,3.8,8.4c1.6,1.1,3,0.7,4.5-0.1c1.5-0.7,1.5-2,1.3-3.3
	c-0.2-1.7-0.5-3.5-1-5.2c-0.2-0.7-0.8-1.3-1.5-1.7c-1-0.5-2.1-0.8-3.1-1.2C268,13.1,267.5,13.5,267.4,17.1z M343.3,11.8
	c2.2-0.6,4.7-1.1,7-2c1.1-0.4,2.1-1.5,2.9-2.4c0.3-0.3,0.1-1.2,0.1-1.8c-0.4,0-0.9,0-1.3,0c-4,0.5-8,0.5-11.8-1.2
	c-3.2-1.4-6-0.3-8.7,1.4c-0.4,0.2-0.6,0.7-0.9,1c0.5,0.3,1.1,0.9,1.5,0.8c2-0.4,4-1,6-1.4c0.5-0.1,1.2,0.1,1.6,0.4
	c0.2,0.2,0.1,0.9,0,1.4c0,0.3-0.3,0.6-0.5,0.8c-1.3,1.2-0.6,1.9,0.7,2.3C341.1,11.4,342,11.5,343.3,11.8z M159.5,470.8
	c-1.2-2.3-2.4-4.5-3.5-6.8c-0.7-1.5-1.7-1.5-2.6-0.3c-2.7,3.6-5.3,7.2-7.8,10.9c-0.2,0.2-0.3,0.6-0.3,0.9c0.1,0.4,0.1,1,0.5,1.3
	c0.3,0.2,1,0.1,1.3-0.2c2.5-3,6.1-3.2,9.5-4.2c0.6-0.2,1.3-0.2,1.9-0.4C158.8,471.7,159.1,471.2,159.5,470.8z M86.6,16
	c5.2,3.7,7.9,4.4,10.8,1.9c3.9-3.4,5.3-6.2,3.4-12.5C97.4,9.1,98.9,10.5,86.6,16z M250.9,43.1c6.1,0.9,7.1,0.4,9.6-3.9
	c0.9-1.5,1.7-3.1,2.8-4.5c1.8-2.2,1.3-4.6,0.9-6.9c-0.2-1.5-2-1.9-2.9-0.7c-1.1,1.6-1.9,3.3-2.8,5C256.6,36.1,255.7,40.7,250.9,43.1
	z M365.2,18.3c-2.7-1.3-5.4-2.7-8.1-4c-1.2-0.6-2.3-1.3-3.5-1.5c-1.5-0.2-3.6-1-4.3,0.8c-0.5,1.2,0.5,3,1,4.4
	c0.2,0.5,0.9,0.9,1.4,1.3C355.6,22.2,360.3,21.9,365.2,18.3z M657.4,11.4c-1.5,0.7-3.1,1.3-4.7,2c1.1,1.3,2.2,2.6,3.4,3.8
	c0.4,0.4,1.1,0.6,1.7,0.9c4.8,2.3,9.4,0.3,14-0.9c0.3-0.1,0.5-0.7,0.6-1.1c0-0.1-0.5-0.5-0.8-0.5c-4.1,0.5-7.3-1.9-10.9-3.2
	C659.7,12.1,658.7,11.8,657.4,11.4z M386.8,22.2c3,0.1,6.1-1.3,7.7-3.4c0.8-1,1.7-2.2,1.7-3.3c-0.1-2.5-0.6-5-1.2-7.5
	c-0.2-0.8-1.1-1.2-1.8-0.3c-2.9,3.8-5.6,7.7-6.8,12.5C386.2,20.9,386.6,21.7,386.8,22.2z M637.9,18.1c-1.8-1.5-3.4-2.4-4.5-3.7
	c-2.5-3-5.7-4.4-9.5-5.1c-1.6-0.3-2.3-0.3-3,1.2c-0.8,1.6,0,2.3,1.4,2.9c0.7,0.3,1.8,1,1.7,1.2c-0.9,2.6,1.1,2.4,2.5,3
	C630.2,19,633.7,18.3,637.9,18.1z M720.4,1.6c1.1,2.4,0.2,5,1.7,7.5c1.1,1.9,2.1,2.6,4,2.4c2.4-0.2,4.7-0.6,7.1-1
	c0.8-0.1,1.6-0.4,3.3-0.9C730.6,7.1,727,2.1,720.4,1.6z M709,33.7c3.2-2.7,5.4-5.8,5.4-8.4c0-1.7-0.3-3.6-1.2-4.9
	c-0.3-0.5-2.6,0.2-4,0.4c-0.5,0.1-0.9,0.5-1.3,0.5c-1.6,0.2-2.1,1.2-2.1,2.7C705.7,27.5,706.7,30.8,709,33.7z M719.4,19.3
	c0.3-0.3,0.6-0.5,0.9-0.8c-1.6-2.2-0.2-5.4-2.7-7.4c0,0,0.4-0.9,0.5-0.9c1.2,0.1,2.1-0.4,1.8-1.5c-0.2-0.7-1.3-1.4-2.2-1.6
	c-1.2-0.3-2.5-0.2-3.8-0.3c-1.4-0.2-2.8-0.6-4.1-0.9c-0.2,4.6-0.2,6,1.2,7.2C713.7,15.3,716.6,17.2,719.4,19.3z M106.1,36.7
	c5.8-0.9,8.3-3.3,9.5-7.9c0.1-0.6,0.5-1.3,0.9-1.5c3.2-1.6,2.7-4.4,2.3-7c-0.1-0.9-1.2-1.7-1.8-2.5c-0.6,0.7-1.4,1.2-1.9,2
	c-0.8,1.3-1.4,2.8-1.9,4.3C111.8,28.4,110.4,32.8,106.1,36.7z M586.3,13.6c2.3-0.2,4.1,0.2,5.3-0.5c3.5-1.9,6.8-4.3,10.3-6.5
	c-4.3-2.7-6.6-3.3-10.6-2.7c-2.5,0.4-2.7,0.8-2.1,3.7c0.2,1-0.1,2.2-0.5,3.1C588.3,11.6,587.5,12.2,586.3,13.6z M589.8,23.6
	c0.5,0.1,1.4,0.2,2.2,0.5c2.8,1.2,5.5,2.5,7.6,4.9c1,1.2,2.2,2.3,3.5,3.3c0.7,0.6,1.5,0.5,1.8-0.6c0.9-4.1-3-9.4-7.1-9.3
	c-3.5,0.1-6.6-0.8-9.7-2.2c-0.6-0.3-1.4-0.1-2.1-0.1c0.1,0.7,0,1.7,0.4,2.2C586.9,23.2,587.7,24.5,589.8,23.6z M745.4,39.4
	c-1-0.6-1.4-0.9-1.9-1c-4.1-1.3-8-2.7-9.7-7.1c-0.1-0.4-0.6-0.9-1-0.9c-0.8-0.1-1.6,0-2.2,0.3c-0.3,0.2-0.5,1.2-0.3,1.7
	c0.8,2,2.4,3.9,1,6.3c-0.1,0.2,0.4,0.8,0.7,1.1c1.5,1.2,3.1,2.1,5.2,2C740,41.6,742.5,40.6,745.4,39.4z M563.8,32.9
	c1-5.1-0.1-9.4-3.6-13c-1.9-2-2.5-1.8-5.3,0.4c-1.5,1.2-1.6,2-0.3,4.1c0.4,0.7,1,1.2,1.6,1.7C558.5,28.2,560.9,30.3,563.8,32.9z
	 M444.3,15.6c-1.9-0.1-2.8,0.1-3.4,1.7c-2.1,5.4-2.2,5.4,3.6,7c1.5,0.4,2.9,1.3,4.4,1.8c1.6,0.5,2-0.1,1.9-1.8
	c-0.2-3.5-3.1-5.4-4.9-8C445.6,15.8,444.6,15.7,444.3,15.6z M610.5,21.5c3.5,0.9,6.5,1.1,8.9,2.4c3.6,2,6.5,0.5,9.5-1
	c1.1-0.6,1-1.7-0.1-2.1c-2.7-1.1-5.4-2.1-8.1-3c-0.7-0.2-1.7-0.3-2.4,0C615.8,18.8,613.4,20,610.5,21.5z M158.5,24.8
	c0.2-0.7,0.3-1.3,0.5-1.9c1.7-3.8,0.6-7.2-1.4-10.5c-0.4-0.7-1.8-1.7-2.1-1.6c-1.5,0.8-3,1.8-4,3.1c-1,1.4-0.5,3,0.8,4.3
	C154.4,20.2,156.2,22.3,158.5,24.8z M312.9,20.5c0-0.6,0-0.8,0-0.9c-0.6-3.3-8.6-9.6-12-9.4c-0.6,0-1.4,0.9-1.7,1.5
	c-0.2,0.3,0.3,1.1,0.5,1.6c2.1,5.1,7.5,5.5,11.5,7.8C311.5,21.3,312.4,20.7,312.9,20.5z M608.4,24.5c1.6,1.5,3,2.5,4.1,3.9
	c2.3,3,5.8,3.2,8.9,4.3c1.5,0.6,2.7-0.5,3.7-1.5C617.4,24.2,616.7,23.9,608.4,24.5z M355.4,11.1c2.7,1.1,4.7,2,6.7,2.8
	c1.7-2.7,3.7,0.5,5.6-0.4c1.9-0.9,4-1.5,6.2-2.2c-0.7-1-1.1-1.5-1.5-2c-1.8-2.6-1.8-2.6-4.9-1.7C363.8,8.7,360,9.8,355.4,11.1z
	 M645,14.9c2.1,4,5,6.3,9.5,6.4c1.5,0.1,2,0.6,1.2,2.2c-1.2,2.1-0.9,2.9,1,3.2c1.9,0.3,3.8,0.2,5.7,0.1c0.4,0,0.8-0.5,1-0.9
	c0.1-0.1-0.4-0.7-0.7-0.9c-1.4-1-2.9-2-4.3-3.1c-2.2-1.8-4.3-3.9-6.6-5.5C649.9,15.2,647.7,14.2,645,14.9z M288.3,13.5
	c1.4,3.2,4,5.5,7.4,6.8c1.7,0.7,3,2.6,5.2,1.4c-0.7-1.7-1.3-3.5-2-5.2c-0.2-0.6-0.9-0.9-1.3-1.4C295.1,12.3,292.6,9.5,288.3,13.5z
	 M463.6,32.4c3,1.2,5.3-0.1,7.4-1.5c0.6-0.4,1.1-1.7,0.9-2.4c-0.6-3.8-1.5-7.7-2.3-12.2c-1.8,2.2-3.2,3.9-4.5,5.6
	c-0.9,1.2-0.5,2.1,0.9,2.6c0.6,0.2,1.2,0.5,1.8,0.7c1.8,0.4,1.5,1.4,0.6,2.4C466.8,29.2,465.2,30.7,463.6,32.4z M180.3,36.8
	c0.4-0.2,1.1-0.2,1.2-0.5c0.5-1.9,1.8-2,3.4-2.2c1.3-0.2,2.5-1.4,3.6-2.4c3.1-2.6,3-3.7-0.5-6.1c-0.5-0.4-1-0.8-1.5-1.2
	c-2.1-1.3-2.7-1-3.4,1.3c-1,3.5-0.7,7.4-3.3,10.4C179.7,36.2,180.1,36.5,180.3,36.8z M716.6,19.7c-0.3,0.1-0.6,0.3-0.9,0.4
	c1.1,3.3,2,6.6,3.2,9.9c1.3,3.6,5.3,6.2,8.5,5.8c1.2-0.1,2-1.1,1.4-1.9c-1.3-1.8-1.6-4.5-4.7-4.9c-3-0.3-4.6-2.4-5.5-5.2
	C718.1,22.4,717.3,21.1,716.6,19.7z M204.8,8.2c-3.4-1.9-7.1-1.4-10.7-1.3c-1.4,0.1-2.9,2-2.9,3.3c0,1.5,1.8,3.5,3,3.2
	C198.1,12.3,202.7,12.8,204.8,8.2z M65.9,0.7c-1.6,0.6-2.3,1-3,1C59.2,2,56.8,4,55.2,7.3c-0.8,1.7-2.4,3-3.6,4.4
	c-0.6,0.7-1.4,1.3-2.4,2.1c3.7-0.1,6.1-1.2,8.6-3.3C60.9,8,62.9,4.7,65.9,0.7z M263.4,42.9c-0.3,0.1-0.7,0.2-0.8,0.4
	c-3.1,3.5-2.3,11.7,1.4,14.8c1.1,0.9,1.7,0.6,2.2-0.5c0.5-1.1,0.8-2.1,0.8-3.5c-0.1-3.9-3.7-6.7-2.8-10.8
	C264.2,43.3,263.7,43.1,263.4,42.9z M666.3,3.4c-1.6-0.7-2.5-1.2-3.4-1.3c-2.4-0.3-4.8-0.3-7,1c-1.9,1.2-3.9,2.3-5.8,3.4
	c-1.9,1.2-4.3,1.7-6.2,3.8C651.8,9.5,658.5,6.7,666.3,3.4z M124.7,42.8C124.8,42.8,124.8,42.8,124.7,42.8c0.1-0.6,0.1-1.3,0.1-1.9
	c-0.1-1.9-0.5-3.1-2.9-2.2c-1.4,0.5-2.1-0.3-1.4-1.9c0.4-0.9,0.6-1.8,0.9-2.7c0.4-1.1,0.9-2.2-0.4-2.9c-0.5-0.3-1.5-0.7-1.7-0.5
	c-0.8,0.9-2,1.9-2,3c0,2.5,0.4,5,0.9,7.5c0.1,0.7,0.6,1.5,1.1,2c1.2,1.1,2.5,2,3.8,2.9c0.9,0.6,1.5,0.2,1.6-0.8
	C124.8,44.4,124.7,43.6,124.7,42.8z M103.5,27.9c5-3.1,7.3-7.5,8.5-12.6c0.1-0.4-0.9-1.4-1.2-1.4c-4.2,0.9-7.2,4.6-7.3,8.8
	C103.5,24.3,103.5,25.9,103.5,27.9z M119.8,27.5c5.8,1.9,9.3-0.6,12.7-3.3c0.4-0.3,0.7-1,0.6-1.5c-0.2-1.2-0.5-2.5-0.9-3.7
	c-0.4-1.2-1.2-1.4-2.2-0.4c-1.1,1.1-2.1,2.3-3.3,3.3C124.7,23.7,122.4,25.4,119.8,27.5z M75.4,28.1c2.8-1.2,4.9-2,7-3.1
	c2-1,3-2.9,3.5-4.9c0.5-2-1.6-3.9-3.5-3.2c-2,0.7-3.6,1.8-4.2,4.2C77.7,23.2,76.6,25.2,75.4,28.1z M161.2,54.1
	c0.4,0.8,0.9,1.8,1.4,2.8c0.2,0.4,0.4,0.9,0.7,1.3c1.3,1.8,3.9,2.8,5.5,1.6c2-1.5,3.7-3.5,5.3-5.5c0.4-0.4-0.1-1.5-0.2-2.3
	c-0.7,0.1-1.4,0.1-2,0.4c-1,0.5-1.9,1.2-2.8,1.8c-1.3,0.8-2.6,2.7-4.1,1.2c-1.3-1.3,0.8-2.4,1.3-3.7c0.1-0.2-0.1-0.6-0.2-0.8
	C164.5,52,162.9,53,161.2,54.1z M5,19.4c7-2,10.9-7.1,10.7-13.7C13.5,7,11,7.7,9.9,9.3C7.9,12.2,6.7,15.7,5,19.4z M423.9,14.6
	c-2.9-2.2-5.7-3.2-8.6-3.8c-1-0.2-2.2,0.1-3.3,0.4c-1,0.3-2.1,0.8-1.9,2.4c0.4,2.2,1.4,3.9,2.9,3.7
	C416.5,16.9,420.1,16.5,423.9,14.6z M140.9,5.9c-3.2,3.4-6.8,4.8-11,5.2c4.6,5.5,4.6,4.9,9.1,3.3c2.8-1,3.2-2.1,2.5-5.1
	C141.4,8.4,141.3,7.4,140.9,5.9z M288.9,21.3c0.3-0.2,1.2-0.3,1.4-0.7c0.2-0.4-0.2-1.2-0.6-1.6c-0.9-1.1-2.2-2-2.8-3.3
	c-1-2.3-2.3-2.3-4.1-1.1c-0.9,0.6-2,1-2.9,1.6c-1.2,0.9-1.4,4.5-0.3,5.5c0.2,0.2,1,0.2,1.2,0c1.8-2,3.6-3,5.9-0.6
	C287.1,21.5,288,21.3,288.9,21.3z M485.4,4.9c-0.1,0.3-0.2,0.7-0.3,1c1.7,0.8,3.3,1.8,5,2.5c1.3,0.5,3.3,0.5,3,2.4
	c-0.2,1.6-1.6,2.7-3.4,2.8c-0.3,0-0.7,0-0.9,0.1c-0.3,0.2-0.6,0.6-0.8,1c0,0.1,0.4,0.6,0.6,0.6c3.1,0.6,6.2,1.1,9.8,1.7
	c-2-3.7-3.6-6.8-5.3-9.8c-0.9-1.7-2.4-2.5-4.4-2.3C487.6,5,486.5,4.9,485.4,4.9z M429.3,20.7c1.5,0.8,2.4,1.3,3.5,1.8
	c3.1,1.3,3.8,1.1,5.3-1.8c0.4-0.7,0.7-1.5,0.9-2.2c0.5-1.7-0.5-2.5-1.7-3.5c-1.3-1.1-2.5-1-3.4,0C432.2,16.6,430.9,18.6,429.3,20.7z
	 M516.3,20.1c1.3-0.7,2.8-1.1,3.7-2c3-3.4,3-7.8,0.4-11.4c-0.5-0.7-1.4-1-2.1-1.5c-0.2,0.7-0.5,1.4-0.6,2.2
	C517.2,11.5,516.8,15.5,516.3,20.1z M653.1,23.8c-2.3-1.1-3.8-1.4-4.7-2.3c-3.1-2.9-6.3-3.1-10-1.4c-0.9,0.4-1.9,0.5-2.9,0.7
	c3,2,6.2,3.1,9.3,4.2c0.4,0.2,1.2,0.2,1.4,0C647.7,23.1,650,24.2,653.1,23.8z M569,18.5c-0.2-0.7-0.2-1.3-0.5-1.8
	c-0.6-1.1-1.4-2.2-2.1-3.2c-2-2.6-2.6-2.8-6-1.8c-2,0.6-2.3,1.1-1.4,3c1.2,2.5,6,5.1,8.8,4.6C568.2,19.2,568.5,18.8,569,18.5z
	 M716.2,28.6c-0.4,0-0.8,0-1.1,0c-0.4,1.4-1.2,3-1,4.3c0.7,3.4,2,6.8,3.3,10.9c1.4-1.6,2.5-3.1,3.7-4.3c1.1-1.2,1.2-2.1,0-3.3
	C718.8,34.1,716.5,32,716.2,28.6z M576.4,23.9c-0.9,2.3-1.4,3.8-2.2,5.2c-0.5,1-1.6,1.2-2.4,0.2c-0.8-1-1.5-2.1-2.3-3.1
	c-0.2-0.3-0.8-0.3-1.1-0.4c-0.1,0.5-0.3,1.1-0.1,1.3c1.3,1.4,2.5,3,4.1,3.8c2.4,1.3,5,2,7.6,2.9c0.7,0.2,1.4,0.3,2.2,0.4
	c-0.2-0.7-0.3-1.4-0.7-2c-0.9-1.7-1.8-3.3-2.8-5C578.1,26.5,577.5,25.6,576.4,23.9z M375.1,19.2C375.1,19.2,375.1,19.2,375.1,19.2
	c0,1-0.1,1.9,0,2.9c0.1,0.6,0.4,1.2,0.5,1.8c0.7-0.3,1.5-0.5,2-0.9c2.2-1.7,2.7-4.3,3.3-6.7c0.2-1,0.2-2.1,0.3-3.1
	c-1.2-0.1-2.5-0.4-3.7-0.2c-1.7,0.3-2.8,1.4-2.6,3.4C375.2,17.3,375.1,18.3,375.1,19.2z M424.6,11.2c1.4,0.4,4,0.5,4.4,1.5
	c1,2.5-2,2.7-3.4,3.8c-1.1,0.8-1,1.9,0.3,2.5c1.3,0.6,2,0,2.8-1c1.3-1.7,2-4.1,4.5-4.9c1.9-0.6,2.2-2.1,2-3.8
	c-0.1-2.4-0.3-2.5-2.4-1.5C430,9,427.2,10.1,424.6,11.2z M398.6,10.6c-0.2,2.6,0.2,4.8-0.7,6.3c-1.4,2.5-1,4.8-0.5,7.3
	c0.1,0.6,0.3,1.4,0.7,1.6c0.4,0.1,1.4-0.2,1.6-0.6c1.4-2.4,3-4.8,3.9-7.4c0.2-0.7-2-2.1-2.9-3.3C400,13.4,399.5,12.2,398.6,10.6z
	 M536.5,5.6c0,2.2,0.6,4.1-0.1,5c-2.7,3.7-0.5,6.4,1.2,9.5c0.8-0.7,1.3-1.1,1.7-1.6c1.1-1.3,2.6-2.5,3.1-4c0.2-0.7-1.7-1.9-2.5-3.1
	c-0.6-0.9-1-2-1.6-3C537.9,7.7,537.3,6.9,536.5,5.6z M640.6,6.2c-1.3-0.5-2.3-1.2-3.4-1.2c-4-0.1-8-0.1-12.1-0.1
	c-0.6,0-1.3,0.2-1.8,0.6c-0.4,0.2-0.6,0.7-0.8,1.1c0.4,0.2,0.9,0.5,1.3,0.6c1.8,0.6,3.6,1.2,5.5,1.7c0.9,0.2,1.9,0.5,2.7,0.2
	C634.9,8.3,637.5,7.3,640.6,6.2z M189.7,13c-1.6,1.7-3,3.3-4.5,4.7c-0.9,0.9-1,1.8-0.2,2.5c1.9,1.7,3.6,3.9,6.4,4.5
	C191.9,17.9,191.9,17.9,189.7,13z M489,11.1c-2.1-1.6-4.5-3-6.3-5c-2.5-2.8-4.9-2.2-7.8-0.4c2,1.5,3.9,2.6,5.5,4.1
	C483,12.4,485.7,13.2,489,11.1z M570.5,8.3c1.6,1.1,3.1,2.5,4.8,3.2c2.3,0.9,4.8,1.7,7.3,1.7c1.2,0,2.4-1.7,3.9-2.9
	c-2.6-0.6-4.8-0.6-6.5-1.5C576.9,7,573.9,6.6,570.5,8.3z M696.1,29c2.6,0.1,2.9-0.4,2-2.6c-0.4-0.9-0.6-1.9-1.1-2.6
	c-0.5-0.6-1.4-1.3-2.1-1.4c-1.6-0.2-3.2-0.1-4.8,0.2c-1.1,0.2-1.5,1-1,2.2C690.5,28.2,693.6,28.5,696.1,29z M169.8,51.3
	c3.4-3.1,2.4-6.8,3.1-9.9c0.3-1.1-1.2-2.7-1.9-4.1c-1,1.2-2.1,2.3-3,3.5c-0.3,0.5-0.4,1.3-0.3,1.8C168.3,45.4,169,48.2,169.8,51.3z
	 M179.8,11.9c-0.3-1.7-0.4-2.8-0.7-3.8c-0.2-0.7-0.6-1.3-0.9-1.9c-0.5,0.3-1.2,0.5-1.6,0.9c-1.9,2.5-3.8,5.1-5.6,7.7
	c-0.2,0.3-0.2,1,0,1.2c0.3,0.3,0.9,0.5,1.3,0.3c2.3-1.1,4.6-2.2,6.9-3.4C179.6,12.7,179.8,11.9,179.8,11.9z M605,20.4
	c-2.7-1.2-4.5-1.8-6.1-2.8c-2.6-1.6-5.3-2.3-8.2-2c-1,0.1-1.9,0.6-2.9,0.9c0.8,0.7,1.5,1.5,2.3,2.2c0.5,0.4,1.2,0.4,1.8,0.7
	C595.8,21,600,20.1,605,20.4z M159.9,41.3c6.8-2.7,8.3-6.9,4.1-12.2C162.8,33.2,159.3,36.2,159.9,41.3z M102.9,45.1
	c-0.4,0.3-0.9,0.7-1.4,1c-0.7,0.3-1.5,0.5-2.2,0.8c-1.6,0.9-1.9,1.9-0.9,3.6c0.9,1.5,1.7,3.1,2.7,4.6c0.7,1.1,1.6,1,2.1-0.1
	C104.5,51.7,105.1,48.4,102.9,45.1z M545.1,10.9c-0.1,0.8-0.2,1.6-0.3,2.3c-0.6,4.6-0.3,5.1,4.3,5.2c1.3,0,2.5,0,4,0
	C549.8,12.5,549.7,12.4,545.1,10.9z M218.5,29.4c1-0.7,1.5-1,2-1.4c1.3-1.2,3.8-1.3,3.6-3.9c-0.2-2.1-0.4-4.1-0.8-6.1
	c-0.1-0.5-0.9-1.1-1.4-1.1c-0.4,0-1,0.6-1.3,1.1c-0.3,0.5-0.6,1.1-0.7,1.8C219.5,22.7,219.1,25.6,218.5,29.4z M120.3,11
	c-0.3,0.4-0.9,0.8-0.9,1.1c0.5,3.1,1.1,6.2,1.9,9.3c0.1,0.3,1.1,0.8,1.6,0.7c2.2-0.5,3.4-2.8,2.4-4.7c-1.1-2-2.4-3.8-3.7-5.6
	C121.3,11.4,120.8,11.3,120.3,11z M407.9,14.5c-0.8-2.3-1.3-4.4-2.2-6.2c-0.3-0.6-1.6-1.1-2.3-1c-3.3,0.5-3.8,1.6-2.1,4.5
	c1.1,1.9,2.8,3.1,4.9,3.5C406.7,15.4,407.4,14.8,407.9,14.5z M581.5,17.9c-3.9-1.1-6.9-2.7-9.2-5.5c-1.3-1.5-3-2-5-2
	C572.4,19.6,574.2,19,581.5,17.9z M269.4,35.8c3.8-6.3,0.1-9.5-3.9-12.8C265.3,27.7,266.8,31.7,269.4,35.8z M426.9,7
	c-3.3-0.3-6.5-0.5-9.7-0.9c-2.7-0.4-5,0.8-7.3,1.9c-0.3,0.1-0.4,0.7-0.5,1.1c0.4,0.1,0.9,0.4,1.2,0.2c2.4-1.1,4.7-1,7.3-0.7
	C420.8,8.9,424,9.4,426.9,7z M558.2,9.3c-3.5-1.3-6.7-2.5-9.9-3.7c-0.9-0.3-1.8-0.5-2.7-0.5c-0.5,0-1.1,0.7-1.3,1.2
	c-0.1,0.3,0.5,1.1,0.9,1.3c2.3,1,4.7,2.1,7.1,2.7C554.1,10.8,556.2,11.2,558.2,9.3z M84.6,31.9c0.9-0.9,1.6-1.5,2.3-2.2
	c0.7-0.7,1.4-1.3,2.1-2c2.7-2.3,2.7-3.7-0.4-7C88.5,24.9,83.1,26.8,84.6,31.9z M587.7,27.8c0.1-0.2,0.2-0.3,0.4-0.5
	c-1.6-1.9-3.2-3.9-5-5.6c-0.8-0.8-2.2-1.1-3.4-1.2c-0.8,0-1.6,0.7-2.4,1.1c0.4,0.6,0.8,1.5,1.4,1.8C581.6,25,584.7,26.4,587.7,27.8z
	 M38.9,8.6c-5.5-0.7-9.2,4-14.6,4.3c3.6,1.9,3.7,2.1,6.4,0.7C33.5,12,36.2,10.3,38.9,8.6z M174.2,31.1c0,0.4,0.1,0.7,0,1
	c-0.9,2,0,3.4,1.6,4.4c0.6,0.4,2.9-2,3.2-3.6c0.1-0.8-0.1-2.1-0.7-2.5c-1.1-0.8-2.5-1.2-3.8-1.7c-0.1,0-0.6,0.4-0.6,0.6
	C173.9,29.9,174.1,30.5,174.2,31.1z M312.7,13.4c0,0.1,0.1,0.5,0.3,0.8c0.8,1.3,0.9,3.2,3.1,3.2c2,0,3.8-0.6,5.2-2.1
	c0.4-0.4,0.5-1.2,0.3-1.7c-0.1-0.3-0.9-0.6-1.4-0.6C317.6,13.1,315.2,13.3,312.7,13.4z M696.1,15.6c-1.4-2.6-2.7-5.3-4.4-7.7
	c-1.3-1.7-3.1-3.1-4.8-4.5c-0.4-0.3-1.1-0.1-1.7-0.2c0,0.5-0.2,1.4,0,1.6C689.7,7.5,692,12.3,696.1,15.6z M181.7,14.8
	c-3.5,0.8-4.6,2.2-4.5,4.7c0.1,1.2-0.4,2.5-0.9,3.7c-1,2.8-1,2.9,1.3,4c0.6,0.3,1.4,0.2,2.1,0.3c-0.1-0.7,0-1.5-0.4-2.1
	c-1.4-2.5-1.4-5.9,0.3-8C180.1,16.8,180.6,16.2,181.7,14.8z M676.3,1.2c-1.8,1.7-3.2,2.9-4.5,4.2c-1.1,1-0.9,1.7,0.4,2.5
	c2.5,1.7,2.4,1.8,3.5-0.9c0.5-1.2,1.1-2.3,1.5-3.5C677.3,3.1,676.8,2.5,676.3,1.2z M551.5,36.8c3.1-0.3,4.9-2,6.1-4.3
	c0.6-1.1,0.8-2.1-0.4-2.9c-1.3-0.8-1.6,0.4-2.1,1.1C553.9,32.8,552.7,34.8,551.5,36.8z M474.5,24.2c1.2-0.1,2.8,0.1,2.8-1.7
	c0-1.7-2.3-4-3.7-3.9c-1.7,0-1.4,1.4-1.5,2.5C472,23.8,472.4,24.2,474.5,24.2z M641.5,15.8c0-0.3,0.1-0.6,0-0.6
	c-2.2-1.7-4.4-3.5-6.6-5.2c-0.2-0.1-0.9,0.3-1.1,0.6c-0.2,0.3-0.1,0.9,0.1,1.2c1.7,2.1,3.8,3.8,6.6,4.3
	C640.7,16.2,641.1,15.9,641.5,15.8z M466.4,17.4c-0.8-0.3-1.3-0.8-1.7-0.7c-1.2,0.2-2.5,0.4-3.7,0.9c-0.7,0.3-1.3,1-2,1.5
	c1.2,1,2.3,2,3.5,2.9C463.7,20.6,464.9,19.1,466.4,17.4z M382.7,4.5c2.3,1.5,4.7,1.3,7.2-0.3c1.1-0.7,1.3-1.3,0.5-2.1
	c-0.4-0.4-1.4-0.6-1.8-0.4C386.6,2.5,384.6,3.6,382.7,4.5z M333.4,17.5c1.7-1,3.5-2,5.2-3.1c0.2-0.1,0.3-1,0.1-1.2
	c-0.2-0.3-0.9-0.6-1.2-0.4c-1.7,0.7-3.5,1.6-5.1,2.5c-0.2,0.1-0.4,0.9-0.2,1.2C332.3,16.8,332.8,17,333.4,17.5z M81.6,475.7
	c-0.5,2.3-0.9,4.2-1.3,6.2c-0.1,0.4,0.2,0.9,0.3,1.3c0.6-0.2,1.2-0.2,1.6-0.5c0.4-0.4,0.7-1,0.8-1.6
	C83.2,479.3,83.3,477.4,81.6,475.7z M87.4,12.7c3-0.6,5.2-1.7,7.2-3.5C91.1,8.2,88.7,8.8,87.4,12.7z M134.8,7.6
	c-1.3-1.5-2.2-2.5-3-3.4c-0.6,1-1.3,2-1.6,3.1c-0.1,0.3,0.8,1.4,1.2,1.4C132.3,8.5,133.2,8.1,134.8,7.6z M110.3,26.2
	c-0.3-0.3-0.5-0.5-0.8-0.8c-1.3,1.4-2.6,2.8-3.8,4.3c-0.2,0.2,0.3,1.1,0.7,1.6c0.2,0.2,1.1,0.1,1.2-0.2
	C108.6,29.6,109.5,27.9,110.3,26.2z M85.5,479.3c-0.2,0.1-0.4,0.1-0.6,0.2c0.1,2.6,0.2,5.3,0.4,7.9c0,0.3,0.5,0.7,0.8,1
	c0.3-0.3,0.8-0.7,0.8-0.9C86.4,484.8,86,482.1,85.5,479.3z M575,22.5c-0.6-0.4-1-0.9-1.2-0.9c-1.1,0.4-2.1,0.9-3.2,1.4
	c0.6,0.9,1.2,1.8,1.8,2.7C573.2,24.7,574,23.7,575,22.5z M146.2,20.8c0.3,0.1,0.6,0.1,0.9,0.2c0.6-1.4,1.3-2.8,1.7-4.2
	c0.2-0.5-0.2-1.2-0.3-1.7c-0.7,0.4-1.8,0.7-1.9,1.2C146.3,17.7,146.3,19.2,146.2,20.8z M606.5,17.7c2.6,0.5,5.4,2.2,7.9-1.5
	C611.4,16.8,609,17.2,606.5,17.7z M165.9,10.4c-2.2,0.6-3.4,0.8-4.5,1.2c-0.4,0.2-0.9,0.7-1,1.1c-0.1,0.4,0.3,1,0.6,1.2
	c0.5,0.2,1.3,0.2,1.6,0C163.6,13.1,164.4,12.1,165.9,10.4z M556.3,15c0-1.9-0.8-2.5-2.1-2.3c-0.4,0.1-1.1,0.8-1,1
	c0.4,1.1,0.8,2.6,2.4,2.4C556,16.1,556.2,15.2,556.3,15z M699.5,6.3c-1.8,0.3-3.6,0.4-4.2,2.4c-0.1,0.4,0.1,1,0.3,1.3
	c0.2,0.2,0.9,0.1,1.1-0.1C697.7,8.8,698.6,7.5,699.5,6.3z M180.5,43.8c0.7-1.3,1.1-1.9,1.3-2.6c0.1-0.5-0.1-1.1-0.1-1.7
	c-0.9,0.2-1.8,0.3-2.6,0.6c-0.1,0.1-0.1,1,0.1,1.5C179.4,42.1,179.8,42.6,180.5,43.8z M279.3,26.8c2.1,0,3.6-0.5,4.4-2.5
	c0-0.1-0.1-0.3-0.2-0.4c-2-0.9-2.5,1.4-3.9,1.8C279.5,25.7,279.4,26.2,279.3,26.8z M662.7,10.5c-0.1,0.3-0.1,0.6-0.2,0.9
	c1,0.3,2.1,0.8,3.1,0.7c0.5-0.1,0.8-1.4,1.2-2.2c-0.5-0.1-1-0.3-1.5-0.2C664.4,9.8,663.6,10.2,662.7,10.5z M219.7,14.9
	c0-1.6-1.2-2.4-2.5-2.9c-0.1-0.1-0.9,0.7-0.8,0.8c0.6,1.1,1.3,2.1,2,3.1c0.1,0.1,0.6,0,0.8-0.1C219.3,15.5,219.5,15.2,219.7,14.9z
	 M104.4,1.7c-0.8,0.5-1.3,0.7-1.5,1c-0.4,0.8,0.7,2,2.1,2c0.4,0,0.8-0.4,1.2-0.6C105.6,3.3,105,2.5,104.4,1.7z M502.3,12.8
	c0.1-0.3,0.2-0.5,0.3-0.8c-1.2-0.6-2.4-1.3-3.7-1.9c-0.3-0.1-0.8,0.1-1.2,0.2c0.1,0.4,0.2,1.1,0.4,1.1
	C499.4,12,500.9,12.3,502.3,12.8z M232.2,2.7c-0.8,0.9-1.4,1.5-2,2c0.6,0.5,1.2,1,1.7,1.5c0.5-0.7,1.1-1.4,1.4-2.1
	C233.4,3.9,232.7,3.4,232.2,2.7z M197.5,18.9c-3.6,0.3-3.6,0.3-3.4,2.9C195.2,20.9,196.2,20,197.5,18.9z M565.4,21.1
	c-0.5,0.7-1,1.2-0.9,1.3c0.4,0.8,0.9,1.5,1.4,2.2c0.3-0.3,0.9-0.8,0.9-1C566.5,22.9,566,22.2,565.4,21.1z M296.8,3.8
	c-1-0.7-1.7-1.2-2.5-1.5c-0.2-0.1-0.7,0.5-1,0.8c0.7,0.5,1.3,1.1,2.1,1.5C295.5,4.6,296,4.2,296.8,3.8z M106.3,7.5
	c-0.7-0.3-1-0.6-1.4-0.6c-1.3,0.1-1.4,1.1-1.3,2c0,0.4,0.3,0.8,0.5,1.1C104.8,9.3,105.4,8.5,106.3,7.5z M296.3,6.5
	c-0.6,0.5-0.9,0.8-1.2,1c0.5,0.6,1,1.2,1.7,1.6c0.1,0.1,0.7-0.4,1.1-0.6C297.4,7.9,296.9,7.3,296.3,6.5z M171.6,22.6
	c0.2,0,0.5-0.1,0.7-0.1c-0.1-0.9-0.1-1.8-0.3-2.7c-0.1-0.4-0.6-0.6-1-0.9c-0.2,0.4-0.5,0.8-0.5,1.1C170.8,21,171.2,21.8,171.6,22.6z
	 M620.6,15.1c-1.1-0.7-1.5-1.3-2-1.3c-0.5-0.1-1.1,0.3-1.6,0.4c0.3,0.4,0.6,1,0.9,1.1C618.5,15.5,619.2,15.3,620.6,15.1z M45.6,4.1
	c-0.7,1-1.2,1.7-1.6,2.4c0,0.1,0.6,0.5,0.9,0.8c0.5-0.7,1-1.3,1.4-2.1C46.3,5.1,45.9,4.7,45.6,4.1z M100.3,28
	c-0.2,0.9-0.5,1.4-0.5,2c0,0.3,0.6,0.5,0.9,0.8c0.2-0.5,0.6-1,0.6-1.5C101.4,29,100.9,28.6,100.3,28z M230,479.7
	c0-0.4,0.1-0.9,0.1-1.3c-0.6-0.2-1.1-0.6-1.7-0.6c-0.3,0-0.7,0.8-0.7,1.2c0,0.5,0.4,1.3,0.6,1.3C228.9,480.4,229.5,480,230,479.7z
	 M487.5,2.3c-0.8-0.5-1.3-0.8-1.8-1.1c-0.2-0.1-0.5,0.3-0.7,0.4c0.3,0.4,0.6,0.9,1,1.1C486.2,2.9,486.7,2.6,487.5,2.3z M645.9,11.4
	c-0.4,0.6-0.7,1-1,1.4c0.2,0.2,0.6,0.5,0.7,0.4c0.5-0.2,0.9-0.6,1.4-0.9C646.7,12.1,646.5,11.9,645.9,11.4z M163.1,472.3
	c0.3-0.9,0.6-1.3,0.5-1.6c-0.2-0.6-0.5-1.1-0.8-1.6c-0.2,0.2-0.6,0.5-0.5,0.7C162.4,470.3,162.7,471,163.1,472.3z M197,16
	c-0.3-0.1-0.6-0.4-0.8-0.4c-0.7,0.1-1.4,0.4-2.2,0.6c0,0,0,0.3,0,0.4c0.9-0.1,1.7-0.2,2.6-0.4C196.8,16.3,196.9,16.1,197,16z
	 M227.5,492.2c-0.3,0.3-0.7,0.5-0.7,0.6c0.2,0.7,0.5,1.4,0.8,2.1c0,0.1,0.5,0,0.7,0C228,494,227.8,493.2,227.5,492.2z M90.7,478.7
	c-0.1,0-0.3,0-0.4,0c-0.1,0.6-0.2,1.1-0.2,1.7c0,0.3,0.3,0.6,0.5,0.9c0.1-0.3,0.3-0.6,0.3-0.8C90.8,479.9,90.7,479.3,90.7,478.7z
	 M225.7,483.4c-0.2-0.3-0.4-0.6-0.5-0.8c-0.1,0.3-0.3,0.5-0.3,0.8c0,0.3,0.2,0.6,0.3,0.8C225.3,483.9,225.5,483.6,225.7,483.4z
	 M143.6,485.4c-0.1,0.6-0.1,1-0.1,1.5c0,0.1,0.2,0.2,0.3,0.4c0.1-0.4,0.3-0.8,0.4-1.2C144.1,485.9,143.9,485.7,143.6,485.4z
	 M225,494.2c0,0.6-0.1,1-0.1,1.4c0,0,0.4,0,0.6,0.1c0-0.3,0.1-0.6,0-0.9C225.5,494.6,225.3,494.4,225,494.2z M591.9,27.7
	c0.3-0.2,0.6-0.3,0.8-0.5c0.1-0.1-0.1-0.5-0.2-0.7c-0.3,0.1-0.7,0.2-0.8,0.4C591.6,27,591.8,27.4,591.9,27.7z M165.1,466
	c-0.1,0.1-0.3,0.2-0.3,0.2c0,0.2,0.1,0.5,0.2,0.7c0.1-0.1,0.3-0.2,0.3-0.3C165.3,466.5,165.2,466.2,165.1,466z M92.2,469
	c0,0.1-0.1,0.3-0.1,0.4c0.2,0,0.4,0,0.6,0.1c0-0.1,0-0.3-0.1-0.4C92.5,469,92.3,469.1,92.2,469z M199.5,14.8
	c-0.1,0.1-0.3,0.1-0.4,0.2c0.1,0.1,0.1,0.2,0.2,0.3c0.2-0.1,0.4-0.3,0.6-0.4C199.8,14.9,199.7,14.8,199.5,14.8z M23.4,10
	c-0.1,0-0.3-0.1-0.4-0.1c0,0.2,0,0.4-0.1,0.6c0.1,0,0.3,0,0.4-0.1C23.4,10.3,23.3,10.1,23.4,10z M163.1,8.3C163,8.2,163,8,162.9,8
	c-0.1,0-0.3,0-0.5,0c0.1,0.2,0.2,0.4,0.3,0.5C162.8,8.5,163,8.4,163.1,8.3z M177.5,47.2c0,0.1-0.1,0.3-0.1,0.4c0.2,0,0.4,0,0.6,0.1
	c0-0.1,0-0.3-0.1-0.4C177.8,47.1,177.7,47.2,177.5,47.2z"/>
</svg>
