<?xml version="1.0" encoding="utf-8"?>
<!-- Generator: Adobe Illustrator 18.0.0, SVG Export Plug-In . SVG Version: 6.00 Build 0)  -->
<!DOCTYPE svg PUBLIC "-//W3C//DTD SVG 1.1//EN" "http://www.w3.org/Graphics/SVG/1.1/DTD/svg11.dtd">
<svg version="1.1" id="Layer_1" xmlns="http://www.w3.org/2000/svg" xmlns:xlink="http://www.w3.org/1999/xlink" x="0px" y="0px"
	 viewBox="0 0 634.4 573" enable-background="new 0 0 634.4 573" xml:space="preserve">
<path d="M143.6,28.1c-2.1,1.3-4.5,2.4-6.4,4.1c-2,1.8-3.8,2.3-6,0.9c-2.5-1.7-4.8-0.9-6.5,1c-3.2,3.6-7.9,4.2-11.8,6.4
	c-1.4,0.8-2.6-0.2-2.3-1.8c0.2-1.1,0.8-2.1,1.1-3.2c0.4-1.5,0.7-3,1.3-5.4c-3.1,2.3-5.5,4.1-7.9,5.7c-1.4,0.9-1.2,2.3-1,3.4
	c0.7,3.8-0.2,7.6-0.3,11.4c0,3.2-1.3,3.9-4.8,3.1c-1.8-0.4-2,0.5-1.9,1.7c0.1,0.8,0.4,1.6,0.8,2.2c2.8,5.1,4.1,10.7,5.4,16.4
	c0.8,3.6,0.3,7,0.7,10.9c-2.4-0.7-3.2-2.7-4.7-3.7c-1-0.7-2.4-1.7-3.2-1.4c-0.9,0.4-1.4,2-1.8,3.1c-1.1,3.1-2,6.4-3.3,9.5
	c-0.6,1.3-2.2,3.2-3.1,3.1c-1.9-0.3-1.4-2.5-1.6-4.1c-0.2-1.7-0.6-3.5-0.8-5.2c-0.6-4.7-0.2-9.3,1.8-13.7c1-2.2,1.2-4.2,0.2-6.5
	c-1.8-4.1-2.2-8.7-2.9-13.1c-0.3-2.1,0.5-4.4,0.8-6.6c0.1-0.1,0.3-0.1,0.4-0.2c0.1-0.1,0.1-0.2,0.1-0.3c-0.2,0.2-0.3,0.3-0.5,0.5
	c-2.6,2.8-5.3,5.6-7.8,8.5c-0.6,0.8-0.9,2.1-0.8,3.1c0.4,5.4-1.3,10.2-3.6,14.8c-0.8,1.7-1,3.1-0.4,5c1.7,5.3,3,10.8,4.5,16.2
	c0.3,1.2,0.3,1.9-1.2,1.6c-4.4-0.7-7.4-2.9-8.1-7.6c-0.1-0.7-0.5-1.5-0.8-2.4c-1.7,2.5-1.7,2.5-1.6,5.6c0,1.9-0.3,3.8-0.2,5.7
	c0,0.7,0.8,1.4,1.4,1.9c2,1.8,4.1,3.6,6.3,5.2c1,0.7,2.2,1.3,3.4,1.4c3.2,0.1,6.4-0.1,9.7-0.2c1.7-0.1,2.5,0.6,2.3,2
	c-0.4,3.5-1.7,5.2-5.3,6c-3.2,0.7-6.6,1.2-9.9,1.7c-0.5,0.1-1.2-0.3-1.7-0.6c-1.9-1.4-3.8-2.9-6-4.5c-0.7,1.4-1.5,2.7-2.2,4.1
	c-1.4,2.8-3.9,4.1-6.7,5.1c-0.5,0.2-1.4-0.1-1.7-0.5c-0.2-0.3-0.1-1.2,0.2-1.6c2.2-2.8,3.4-5.8,3.1-9.4c0-0.2,0-0.3,0-0.5
	c1.9-4,1.5-7.9-0.1-11.9c-1.6-4-1.4-8.2-0.3-12.3c0.2-0.7,0.1-1.6-0.1-2.3c-1-4.8-1.2-9.6,1.4-14c0.3-0.5,0.8-1.4,0.6-1.7
	c-1.4-2.3,0.5-3.6,1.4-5.1c0.9-1.5,0.6-2.4-0.9-3c-1.5-0.6-3-1.1-4.5-1.8c-1.6-0.8-1.8-2-0.3-2.7c3.6-1.7,5.4-4.6,6.9-8.2
	c2.4-5.5,6.5-9.4,12.6-10.9c0.6-0.1,1.2-0.4,1.9-0.6c-0.3-0.2-0.5-0.5-0.7-0.5c-1.3-0.1-2.9-0.1-3.2-1.6c-0.5-2,1.7-1.4,2.6-2
	c4.7-3.1,8.5-6.9,11-11.9c1.9-3.8,4-7.2,8.5-8.6c1.1-0.3,1.8-2.1,2.7-3.1c0.3-0.3,0.7-0.6,1-0.9c0.1-0.2,0.3-0.3,0.4-0.5
	c-0.2,0.1-0.3,0.3-0.5,0.4c-0.3,0.3-0.6,0.7-0.9,1c-2.3,0.5-4.7,1.1-7,1.6c-3.8,0.9-7.4,2.5-11.1,3.8c-2.4,0.8-3.6,2.2-5,3.9
	c-1.8,2.2-3.7,4.4-5.8,6.3c-1,0.9-2.5,1.3-3.9,1.7c-1.3,0.4-3.3,0.1-4.1,0.9c-1.3,1.5-2.7,3.6-2.7,5.5c0,7.2-3.9,12.7-7.4,18.5
	C49.4,50,48.1,50,46,47.4c-0.5-0.6-0.9-1.3-1.3-2c-0.3-0.7-0.5-1.4-1.1-3.1c-0.6,1.5-0.8,2.3-1.3,3c-0.5,0.8-1.3,1.2-1.7-0.1
	c-1.3-3.8-2.5-7.6-3.8-11.4c-0.5-1.5-0.9-3-1.5-5.1c-1.5,1.3-2.7,2.4-3.9,3.4c-0.4,0.3-1.1,0.4-1.7,0.6c-0.1-0.6-0.3-1.2-0.1-1.7
	c0.8-2.6,1.8-5.1,1.3-7.6c-1,2.2-1.9,4.6-3.2,6.8c-1.1,1.9-1.4,3.8-1.4,6c-0.1,4,0.7,8.1-1,12c-0.2,0.4-0.3,0.9-0.5,1.4
	c-0.7,2.1-1.4,4.2-2.1,6.3c2.1,3.2,3.6,6.9,7.1,9c0.5,0.3,1.2,0.5,1.7,0.9c0.8,0.7,1.5,1.5,2.3,2.2c-1,0.4-1.9,0.8-2.9,1.1
	c-6.3,1.8-10.1-2.3-14-6.2c-0.2,1.8-0.3,3.7-0.6,5.5c-0.1,0.5-0.8,1.2-1.3,1.3c-0.4,0.1-1.2-0.5-1.4-0.9c-1-2.5-1.8-5.1-2.7-7.8
	c-0.3,0.2-0.8,0.7-1.5,0.8c-0.4,0.1-1.4-0.3-1.5-0.6c-0.2-1.1-0.1-2.2-0.2-3.4c-0.2-2.1-0.5-4.1-0.8-6.1c-0.1-0.8-0.3-1.7-0.1-2.4
	c1.7-5.5,2.8-11.2,7.3-15.5c1.3-1.3,3-3.1,3-4.7c0.1-3,1.7-4.7,3.5-6.6c0.6-0.6,1.9-1.3,0.8-2.3c-1-0.8-2-1.8-3.8-0.6
	c-3,2.2-6.2,4-9.4,5.8c-2,1.1-2.1,1-5.3-0.5c1.1-0.7,2-1.2,2.8-1.7c3.5-2.2,4.5-4.2,3.8-8.1c-0.1-0.6-0.3-1.4-0.7-1.7
	c-4.4-2.7-5.8-7.6-8-11.8C0.5,1.2,0.3,0.6,0,0c1,0,1.9,0,2.9,0c1.7,3.4,3.2,6.9,5,10.2c0.8,1.4,1.8,1.2,2.1-0.4
	c0.7-3.2,1.1-6.5,1.6-9.8c1,0,1.9,0,2.9,0c-0.8,4.6-1.8,9.2-1.9,13.7c1.9-2.5,3.5-5,5.6-7.2c2.1-2.3,4.6-4.4,7-6.5
	c1.3,0,2.6,0,3.9,0c-1.7,5.8-2.4,12-6.7,17.4c3.9-0.3,5.3-2.9,7-4.9c3.3-4,6.3-8.4,9.5-12.6c1.3,0,2.6,0,3.9,0
	c-0.5,0.6-0.8,1.5-1.4,1.8c-3.8,2.1-5.9,5.6-8.3,8.9c-2,2.8-3.9,5.7-5.8,8.6c-0.3,0.3-0.7,0.6-1,1c-0.1,0.1-0.3,0.1-0.4,0.2
	c-0.1,0.1-0.1,0.2-0.1,0.3c0.2-0.1,0.3-0.3,0.5-0.4c0.3-0.3,0.6-0.7,1-1c5.5-0.8,10.3-3,14.5-7.3c-1-0.7-1.8-1.2-2.5-1.7
	c-1.5-0.9-0.9-1.8,0.1-2.6c0.6-0.5,1.4-0.8,2.1-1.1c3.8-1.5,7.6-2.9,11.2-4.3c-0.7-0.8-1.4-1.6-2.1-2.4c1.9,0,3.9,0,5.8,0
	c0.2,0.6,0.3,1.4,0.7,1.7c2.2,1.5,4.4,3.2,6.9,4.3c2.9,1.3,5.2-1.6,7.9-2c1.7-0.2,3.4-0.8,5.1-1c1.7-0.3,2.5-1.2,2.6-2.9
	c4.8,0,9.7,0,14.5,0c-0.4,1.2-0.8,2.4-1.5,4.4c3.2-1.7,5.8-3,8.3-4.4c1.3,0,2.6,0,3.9,0c0,2.5-2.1,3.5-3.5,4.9c-2.7,2.8-4.7,6-6,9.7
	c-0.7,2.1,0.4,3.1,2.5,2.4c6.6-2,12.5-7.5,12.8-17c1,0,1.9,0,2.9,0c-0.3,1.2-0.3,2.6-0.9,3.6c-2.5,4.9-2.1,10-1.7,15.4
	c2.3-1.4,3.3-3.1,3.6-5.6c0.6-4.5,1.9-9,2.9-13.4c1.3,0,2.6,0,3.9,0c-0.9,1.6-2.2,3.1-2.7,4.9c-1.4,5.1-2.7,10.3-1.8,16.2
	c2-3.5,4.4-6.4,5.1-9.7c0.9-3.6,0.3-7.6,0.3-11.4c1,0,1.9,0,2.9,0c0,4,0,8,0,12.4c1.4-1.5,2.5-2.3,3.9-1.1c1,0.8,1.9,0.6,3,0.5
	c2.4-0.1,3.8-1.5,5.2-3.1c2-2.3,3.9-4.6,5.8-6.9c0.4-0.5,0.4-1.2,0.6-1.8c0.6,0,1.3,0,1.9,0c-1.8,3-3.6,6-5.4,9
	c-2.3,3.8-5.5,5.9-10.2,4.8c-0.6-0.1-1.6,0.3-2.2,0.7c-2.5,1.6-2.9,4.1-2.4,6.8c0.2,1.3,0.8,2.5,0.8,3.7c0,1.7-1,4.2-0.2,4.9
	c1.1,1,3.4,0.8,5.2,1.1c2.3,0.3,4.4,0.1,6.2-1.8c1.6-1.7,3.7-3,5.5-4.5c3.9-3.1,7.1-6.5,6.6-12c0.1-0.1,0.3-0.1,0.4-0.2
	c0.1-0.1,0.1-0.2,0.1-0.3c-0.2,0.2-0.3,0.3-0.5,0.5c-0.7,0.2-1.5,0.4-2.2,0.7c-0.1-0.9-0.4-1.8-0.2-2.6c0.7-3.6,1.6-7.2,2.4-10.7
	c1,0,1.9,0,2.9,0c-0.6,2-1.2,3.9-1.7,5.9c-0.1,0.4,0.1,1.2,0.2,1.3c0.5,0.1,1.3,0.1,1.6-0.2c2.6-2.3,5.1-4.6,7.6-7
	c1.3,0,2.6,0,3.9,0c-3.2,2.7-6.3,5.5-9.5,8c-1.4,1.1-2.2,2-2.1,3.9c0.2,3.3-0.9,6.4-2.9,9c-1.4,1.9-2.1,3.9-2,6.3
	c-0.3,0.6-0.7,1.3-1,1.9c-0.2,0.2-0.3,0.3-0.5,0.5c0.2-0.1,0.3-0.3,0.5-0.4c0.3-0.7,0.6-1.3,0.9-2c4.6-4.1,7.6-9.4,10.9-14.4
	c2.8-4.1,5-8.5,7.5-12.8c0.6,0,1.3,0,1.9,0c-0.6,1.3-1,2.8-2,3.8c-3.1,3.5-1.1,6.5,0.6,9.6c0.7,1.3,1.8,1.2,2.5-0.2
	c0.9-1.9,1.5-3.9,2.6-5.6c1.7-2.3,2.8-4.7,3.1-7.6c1,0,1.9,0,2.9,0c-0.1,0.6-0.2,1.3-0.5,1.8c-0.8,1.6-1.5,3.2-2.6,4.6
	c-1.1,1.5-0.3,2.3,0.6,3.3c1.4,1.3,2.1,0,2.6-0.8c1.7-2.9,3.1-5.9,4.7-8.9c0.6,0,1.3,0,1.9,0c-1,2.7-2.1,5.4-3.1,8.1
	c-1,2.8-4.7,3.8-5.2,7.1c9.1,1,12.6-0.6,17.1-7.2c0.3-0.4,0.6-1.1,0.4-1.2c-0.4-0.4-1.1-0.8-1.6-0.7C190,6.4,187.9,7,186,7.5
	c1.4-2.6,2.8-5.1,4.2-7.5c0.6,0,1.3,0,1.9,0c-0.3,1.3-0.6,2.7-0.9,4.3c5.3-0.8,10.4-0.6,14.5-4.3c1.6,0,3.2,0,4.8,0
	c0.1,1.8-1.1,2.5-2.4,3.2c-4.1,2-6.7,5.7-10,9c4.4,0.3,7.4-0.8,11.9-3.4c3.5-2,5.9-4.6,6.3-8.8c0.6,0,1.3,0,1.9,0
	c-0.1,1.6-0.2,3.2-0.4,4.7c-0.7,4.7-1.5,9.4-2.3,14c2.7-3.8,4.7-7.7,6.6-11.7c1.1-2.3,2-4.7,2.9-7c1,0,1.9,0,2.9,0c-1.5,3-3,6-4.5,9
	c-2.9,6-1.5,9,5.1,11.8c0.2-7.3,4.5-13.6,5.1-20.7c0.6,0,1.3,0,1.9,0c-0.2,1.4-0.5,2.8-0.6,4.2c-0.1,1.1-0.1,2.2,0.1,3.2
	c0.1,0.3,1.2,0.8,1.4,0.6c3-3,7.5-4.2,9.8-8.1c2.3,0,4.5,0,6.8,0c0.1,2.2,0.2,4.3-1.4,6.1c-0.5,0.6-0.4,1.7-0.5,2.6
	c-0.1,0.1-0.3,0.1-0.4,0.2c-0.1,0.1-0.1,0.2-0.1,0.3c0.2-0.2,0.3-0.3,0.5-0.5c1.2-0.9,2.4-1.9,3.7-2.8c2.1-1.5,3.5-3.4,4.1-5.9
	c1,0,1.9,0,2.9,0c-1,1.8-1.7,3.8-3,5.3c-2.4,2.9-2.9,6.1-2.6,9.6c2.5-1.6,5-3.1,7.3-4.7c1.2-0.8,2-1.9,2.1-3.6
	c0.2-2.2,0.7-4.4,1-6.6c1,0,1.9,0,2.9,0c-0.6,2.3-1.2,4.6-1.8,6.9c-0.1,0.4,0.2,0.9,0.3,1.3c0.5-0.2,1.1-0.3,1.4-0.6
	c1.1-0.9,2.1-1.9,3.1-2.9c1.6-1.6,3.1-3.1,4.7-4.7c1.6,0,3.2,0,4.9,0c0,2,0,4.1,0,6.4c3.8-1,3.9-3.7,3.9-6.4c1,0,1.9,0,2.9,0
	c0.2,0.9,0.2,2.1,1.6,1.5c1.1-0.4,2.2-1,3.2-1.5c0.6,0,1.3,0,1.9,0c0.8,4.5,1.9,4.5,5.3,1.9c0.6-0.5,1-1.2,1.5-1.9
	c3.2,0,6.5,0,9.7,0c1,2.6,1.7,2.6,3.9,0c4.5,0,9.1,0,13.6,0c0.6,1,1.3,1.1,1.9,0c1.3,0,2.6,0,3.9,0c-0.7,0.9-1.3,1.9-2.1,2.6
	c-3.7,3.2-5.6,7.7-7.6,12c-0.1,0.1-0.3,0.1-0.4,0.2c-0.1,0.1-0.1,0.2-0.1,0.3c0.2-0.2,0.3-0.3,0.5-0.5c0.5,0,1,0.1,1.4-0.1
	c2.6-1.3,5.6-1.7,7.9-4.1c1.3-1.4,3.5-2.1,4-4.3c0.5-2,0.8-4,1.2-6.1c0.6,0,1.3,0,1.9,0c0.6,0.6,1.2,1.1,1.9,1.7
	c0.3-0.6,0.7-1.1,1-1.7c1,0,1.9,0,2.9,0c-0.2,0.6-0.1,1.4-0.5,1.8c-1.1,1.3-1.8,2.6-1.2,4.4c0.8,2.7-2.8,1.3-3,3.4
	c-0.4,3.1-1.3,6.1-2.1,9.7c4.2-1.8,6.5-4.9,8.8-7.8c2.8-3.5,2.2-7.5,1-11.4c1.9,0,3.9,0,5.8,0c0.3,0.8,0.6,0.7,1,0
	c0.6,0,1.3,0,1.9,0c-0.9,2.4-0.1,4.4,1.7,6.3c1.1-2.2,2.2-4.3,3.2-6.3c1.3,0,2.6,0,3.9,0c-0.1,0.3-0.2,0.7-0.4,0.8
	c-5.7,4.3-4.8,9.9-3.3,15.7c0.4,1.4,1.2,1.8,2.5,1c0.5-0.3,1.2-0.6,1.6-1.1c2.5-3.9,5.9-7.1,7.1-11.8c0.4-1.6,1.5-3.1,2.3-4.6
	c1.3,0,2.6,0,3.9,0c0.7,1.8,1.5,3.6,2.2,5.5c0.3,0,0.6-0.1,0.9-0.1c0.6-1.8,1.1-3.6,1.7-5.4c1,0,1.9,0,2.9,0
	c-0.8,2.6-0.6,3.3,1.5,2.8c2.2-0.6,4.2-1.8,6.3-2.8c1.3,0,2.6,0,3.9,0c0.1,0.7,0.5,1.9,0.1,2.1c-2.3,1.9-5.6,2.7-5.8,6.5
	c0,0.1-0.3,0.1-0.4,0.1c-2.1,0.5-2.4,2.5-3,4c-0.7,1.9-0.8,3.9-1.2,6.5c1.9-1.5,3.4-2.8,5.1-3.8c4-2.6,6.1-6.4,7.2-10.9
	c0.4-1.5,1.3-3,0-4.5c1,0,1.9,0,2.9,0c1.8,4.1,1.8,4.1,5.2,1.7c0.6-0.4,1.1-1.1,1.6-1.7c0.6,0,1.3,0,1.9,0c0.2,2.4-1.8,3.5-3.3,4.4
	c-3.8,2.4-5.6,6.1-6.9,10.1c-0.2,0.5,0,1.2,0.3,1.6c0.1,0.2,1,0.2,1.4,0.1c3.8-1.6,7.4-3.6,8.9-7.6c1.1-2.8,1.7-5.8,2.5-8.7
	c0.6,0,1.3,0,1.9,0c0.3,1.8,0.6,3.6,1,5.8c2.6-1.7,3.6-3.5,3.9-5.8c1,0,1.9,0,2.9,0c-0.7,1.6-1.5,3.1-2.2,4.7c-1.5,3.3-3,6.7-4.4,10
	c-0.1,0.3,1,1.4,1.2,1.3c2.6-1.5,5.9-2.5,7.6-4.7c2.5-3.2,4.3-7.1,4.6-11.4c0.6,0,1.3,0,1.9,0c0.2,0.5,0.5,1.1,0.7,1.6
	c0.4-0.5,0.8-1.1,1.2-1.6c1,0,1.9,0,2.9,0c-1,3.4-2.5,6.4-4.6,9.3c-1.3,1.8-2.1,3.9-3,6c-0.5,1.3,0.4,2.3,1.7,1.9
	c0.9-0.3,1.9-0.6,2.6-1.2c5.2-4.1,9.1-9,9-16c1,0,1.9,0,2.9,0c0,1.4,0.8,2.2,2.1,1.8c1.6-0.4,3.1-1.2,4.7-1.8c1.9,0,3.9,0,5.8,0
	c-1,1.4-2.1,2.8-3,4.3c-0.3,0.4-0.2,1.6-0.1,1.6c0.6,0.3,1.5,0.4,2.1,0.2c2.6-1.1,5.2-2.5,7.7-3.7c1-0.5,2-1,2-2.4c1,0,1.9,0,2.9,0
	c-0.3,0.7-0.3,1.7-0.8,2.2c-0.7,0.8-1.7,1.3-2.7,1.8c-4.3,2.1-4.7,3.3-1.8,6.8c1,1.2,2,2.3,3.3,3.7c0.4-1.2,0.7-1.9,1-2.6
	c0.8-1.7,1.3-3.7,2.5-5c2-2,2.7-3.7,0.6-6c-0.2-0.2-0.1-0.6-0.1-0.9c1,0,1.9,0,2.9,0c0.3,0.6,0.7,1.1,1,1.7c0.6-0.6,1.2-1.1,1.9-1.7
	c1.6,0,3.2,0,4.8,0c-0.3,0.3-0.6,0.8-1,1c-4.7,2-6.6,6.8-10.1,10.1c-0.8,0.8-1,2.3-1.3,3.6c-0.3,1.2,0.3,1.7,1.6,1.4
	c8.5-1.5,14-7.5,14.7-16.1c1.9,0,3.9,0,5.8,0c-1.3,2-2.7,4-3.9,6c-0.4,0.6-0.4,1.4-0.5,2.2c0.7,0,1.5,0.3,2.2,0.1
	c2.4-0.8,4.8-1.7,7.2-2.7c2.8-1.2,5.3-2.7,6.7-5.6c1,0,1.9,0,2.9,0c0.4,1.5,0.4,3.3,1.2,4.4c1.2,1.6,3,2.9,4.7,4.1
	c0.5,0.3,1.5-0.1,2.3-0.2c-0.2-0.7-0.2-1.6-0.6-2c-1.7-1.3-2.9-2.7-2.2-5c0.1-0.3-0.4-0.9-0.6-1.3c1,0,1.9,0,2.9,0
	c1.4,1.7,2.8,3.4,4.3,5c2.3,2.3,5.3,1.4,8.1,1.7c4.1,0.5,5-0.7,4.2-4.8c-0.1-0.6-0.1-1.3-0.1-1.9c1,0,1.9,0,2.9,0c0,0.5,0,0.9,0,1.4
	c0,0.3,0.2,0.5,0.3,0.8c0.2-0.3,0.5-0.5,0.6-0.8c0.1-0.4,0.1-0.9,0.1-1.3c1,0,1.9,0,2.9,0c-1.7,3.3-0.8,6.9-0.8,10.3
	c0,1,0.8,1.4,1.6,0.8c3.8-2.8,7.8-5.6,7.9-11.1c1.3,0,2.6,0,3.9,0c0.4,0.8,0.6,1.8,1.1,2.5c2.3,2.6,2.8,2.7,6.1,1.4
	c1.2-0.5,1.5-1,0.9-2.1c-0.3-0.5-0.3-1.2-0.4-1.8c0.6,0,1.3,0,1.9,0c0.3,0.8,0.6,0.8,1,0c1.3,0,2.6,0,3.9,0
	c-6.8,5.1-7.2,12.6-8.1,21.2c2.4-2.1,4.8-3.2,5.6-5c2.4-5.2,5-10.4,5.4-16.2c0.6,0,1.3,0,1.9,0c1,1.3,1.9,1.2,2.9,0c1,0,1.9,0,2.9,0
	c-0.2,0.4-0.4,0.9-0.7,1.2c-1.5,1.3-1.1,2.3,0.2,3.6c1.3,1.3,1.8,0,2.7-0.6c1.3-0.9,2.7-1.5,4.1-2.3c0.9-0.5,1.7-1.2,2.5-1.9
	c0.6,0,1.3,0,1.9,0c-0.1,2.3-1.5,3.3-3.5,3.9c-1,0.3-2.4,0.5-2.9,1.3c-2.3,3.3-4.3,6.7-6.4,10.1c-0.1,0.2,0.1,0.8,0.3,1.1
	c0.1,0.2,0.6,0.1,0.9,0c0.4-0.2,0.9-0.4,1.2-0.7c0.9-0.9,1.4-3,3-0.8c0.1,0.1,0.8-0.2,1.1-0.5c4.8-3.6,8.6-7.7,7.2-14.4
	c0.6,0,1.3,0,1.9,0c0,2.1,0,4.1,0,6.2c2.2-2.1,5.4-2.9,5.8-6.2c2.9,0,5.8,0,8.7,0c1.3,2.7,2.3,5.7,6.3,5.4c0.5-1.8,0.9-3.6,1.4-5.4
	c1,0,1.9,0,2.9,0c-0.5,1.5-1,3-1.6,4.8c1.6,0,2.5,0,3.5,0c4.8,0,4.8,0,4.9-4.8c0.6,0,1.3,0,1.9,0c0.4,1.1,0.7,2.2,1.1,3.3
	c0.6-0.9,1.2-1.9,1.7-2.8c0.1-0.1,0-0.3,0.1-0.5c0.6,0,1.3,0,1.9,0c-0.5,1.7-1.2,3.3-1.5,5c-0.2,1.2-0.3,2.6,0.1,3.7
	c0.9,2,2.2,3.9,3.3,5.8c0,1.9,0,3.9,0,5.8c-5.1,0.2-6.4,1.7-5.6,6.7c0.3,1.9,0.5,3.8,0.9,5.6c0.3,1.1,1.1,2.1,1.6,3.1
	c1.2-1.1,2.1-2,3.1-2.8c0,3.6,0,7.1,0,10.7c-3.9,4.4-4.5,9.8-4.8,15.3c-0.1,1.9-1,4.5-0.1,5.5c1.6,1.8,2.9-2,4.9-1.4
	c0,0.6,0,1.3,0,1.9c-1.5,1-3.1,2-4.6,3c0.1,0.3,0.3,0.5,0.4,0.8c1.4-0.6,2.8-1.2,4.2-1.8c0,1,0,1.9,0,2.9c-1.9,0.3-3.7,0.7-5.6,1
	c-3.4,0.6-6.1,2.2-7,5.7c-0.6,2.6-0.8,5.4-0.8,8c0,1.6,1.5,2.3,2.6,1.2c2.2-2.1,4.3-4.3,6.1-6.8c1.8-2.5,3.2-5.4,4.7-8.2
	c0,1.6,0,3.2,0,4.8c-1,0.6-1.1,1.3,0,1.9c0,2.3,0,4.5,0,6.8c-1.5,1.5-2.8,3.7-5.5,1.3c-0.4-0.3-2.1,0.5-3,1.1
	c-3.3,2.1-6.7,3.7-10.4,4.7c-2.3,0.6-3.1,0.4-3.3-1.8c-0.2-1.8-1.2-2.9-2.3-4.1c-0.8-1-0.6-1.8,0.5-2.3c2.3-0.9,3.5-2.5,4.6-4.7
	c0.9-1.7,0.6-3-0.3-4.5c-0.9-1.5-2.4-1.6-3.8-1.3c-1.1,0.2-2.2,0.8-3.7,1.4c0.5-3.1,1.4-5.6,2.9-7.9c0.2-0.3,0-1.3-0.2-1.3
	c-2.2-0.5-1.9-1.8-1.1-3.3c0.6-1.2,1.2-2.3,1.7-3.5c0.6-1.2,1.8-2.4,0-3.7c-0.2-0.1-0.1-1,0.2-1.3c2.6-2.5,2.1-5.4,0.7-8.6
	c-2.3,1.8-5,3.2-6.5,5.4c-1.3,2-1.3,4.9-1.5,7.4c-0.5,5.6-0.5,11.2-1.1,16.8c-0.5,4.8-1.4,9.5-2.1,14.2c-0.8,5.2-1.6,10.4-2.6,15.6
	c-1.9,9.9-1.7,19.8-2.1,29.8c-0.3,8-1.3,15.9-3.1,23.8c-0.8,3.3-1,6.6-1.6,9.9c-1.4,8.2-2.4,16.5-4.2,24.6c-3.8,16.5-7.8,33-11,49.6
	c-1,5-1.5,10.1-2.2,15.2c-1,7.8-1.7,15.6-3.1,23.3c-0.7,3.9-1.2,7.8-0.7,11.5c1.1,7.2-1.2,13.8-2.6,20.7c-1.5,7.2-3.9,14.2-4.5,21.6
	c-0.3,3.8-2.1,7.4-2.8,11.2c-0.8,4.2-1.2,8.5-1.8,12.8c-0.6,4-1.2,7.9-1.7,11.9c-0.5,3.7-0.9,7.3-1.2,11c-0.7,7.8-1.3,15.7-2,23.5
	c-0.5,5.4-1.1,10.8-1.9,16.2c-0.4,2.8-1.2,5.6-1.9,8.4c-1.9,8.3-3.2,16.7-5.8,24.8c-1,3.2-1.2,6.6-1.9,9.9
	c-0.8,3.7-1.5,7.5-2.5,11.2c-1.5,5.7-3.1,11.4-3.6,17.4c-0.2,2.5-1.2,5-2,7.4c-2,6.1-0.5,11.4,3.6,16.1c1.1,1.3,2,1.4,3-0.2
	c1.3-1.9,3.2-3.8,1.5-6.5c-0.4-0.6-0.2-1.6-0.1-2.4c0.1-0.7,0.5-1.4,0.8-2.1c0.6,0.4,1.4,0.7,1.9,1.2c2,2.4,2,2.4,4.7,0.6
	c1.2-0.8,2.4-1.6,3.7-2.2c0.6-0.3,1.4-0.2,2.1-0.3c-0.3,0.7-0.4,1.7-0.8,1.9c-3.2,1.4-4.5,4.6-6.6,7c-0.5,0.6-0.9,1.9-0.7,2.6
	c1,3.2,0.9,6.3,0.2,9.5c-0.1,0.3,0.3,1,0.6,1.1c0.3,0.1,0.8-0.2,1.2-0.3c0.1,0,0.2-0.2,0.4-0.3c1.1-0.8,2.9-2.5,3.3-2.2
	c1.5,1,0.7,2.8,0.4,4.4c-0.1,0.5,0.3,1.3,0.7,1.5c0.4,0.2,1.3,0,1.7-0.3c1.1-1.2,2.1-2.5,2.9-3.8c0.3-0.4,0.2-1.2,0.1-1.7
	c-0.4-1.7-0.9-3.4-1.2-5.1c-0.1-0.6,0.1-1.3,0.2-2c0.7,0.3,1.4,0.5,2.1,0.9c0.3,0.1,0.4,0.5,0.6,0.8c0.7,1,1.5,1.9,2.2,2.9
	c1-0.8,1.9-1.7,2.9-2.4c1.8-1.4,3.6-2.7,5.4-3.9c0.3-0.2,0.9,0.1,1.4,0.1c-0.1,0.4,0,0.9-0.3,1.2c-2,2.3-3.8,4.8-6,6.9
	c-2.3,2.3-4,4.6-2.8,8c0.4,1.3-0.6,2.9,1,4c-0.2,0.4-0.4,0.9-0.6,1.3c-0.1,0.3,0,0.6,0,0.9c0.4-0.1,0.9-0.1,1.1-0.4
	c0.3-0.5,0.4-1.2,0.6-1.8c0.3-0.3,0.6-0.7,1-1c0.3-0.3,0.6-0.6,1-1c0.3-0.3,0.6-0.6,1-1c0.4-0.1,0.8-0.2,1.3-0.3
	c-0.1-0.2-0.2-0.3-0.3-0.5c-0.3,0.3-0.6,0.5-0.9,0.8c-0.3,0.3-0.6,0.6-1,1c-0.3,0.3-0.6,0.6-1,1c-0.3,0.3-0.7,0.6-1,1
	c-0.3,0-0.6,0-0.9,0c2-3.1,1.4-7.1,3.2-10.4c0.6,0.5,1,0.7,1.3,1.1c1.9,2.5,1.9,2.5,4.9,1.3c0.1-0.1,0.3-0.2,0.4-0.2
	c1.5-0.3,3-0.6,4.4-0.8c0.3,2.3-2,2.2-3,3.2c-0.8,0.8-1.9,1.2-2.7,1.9c-0.7,0.6-1.5,1.5-1.6,2.3c-0.2,3.1-0.2,6.1,0,9.2
	c0,0.8,0.9,1.7,1.5,2.3c0.5,0.6,1.5,0.7,2,1.3c0.7,1,1.1,2.2,1.6,3.3c-1,0.4-2,0.9-3,1.1c-1.3,0.2-2.7,0.4-3.8-0.1
	c-4.1-1.8-7.8,0.2-11.8,0.5c2.8,3.2,5.2,6.3,7.9,9.1c1.5,1.6,3.6,2.7,5.1,4.3c1.1,1.2,2.7,3.1,2.5,4.3c-0.5,2.1-3,1.3-4.6,1.3
	c-4.5-0.2-8.9-0.9-13.1-2.5c-1.8-0.7-2.7-0.2-3.1,1.7c-0.2,1.4-0.8,2.7-1.2,4.3c-2.6-1.9-1.4-4.5-1.3-6.6c0-1.6,0.5-3.1,0.8-4.7
	c0.3-1,0.7-1.9,1-2.9c0.2-0.3,0.5-0.6,0.7-1c-0.2-0.1-0.3-0.2-0.5-0.3c-0.1,0.4-0.2,0.8-0.3,1.3c-0.3,1-0.6,1.9-1,2.9
	c-1.5,2.7-3,5.4-2.2,8.8c0.1,0.3-0.7,0.9-1,1.3c-0.2-0.5-0.7-1-0.7-1.5c-0.1-1.9,0-3.8,0-5.7c0.3-1,0.7-1.9,1-2.9
	c0.3-0.3,0.5-0.6,0.8-1c-0.2-0.1-0.3-0.2-0.5-0.3c-0.1,0.4-0.2,0.8-0.3,1.3c-0.3,1-0.6,1.9-1,2.9c-0.5,1.1-1,2.2-1.7,3.7
	c-0.1-1.5,0-2.7-0.4-3.6c-0.4-0.8-1.5-1.3-2.4-1.9c-0.4,0.6-0.9,1.1-1.2,1.8c-0.3,0.7-0.4,1.6-0.7,2.3c-0.2,0.4-0.8,0.7-1.2,1
	c-0.3-0.5-0.8-1.1-0.7-1.6c0.5-4.2,0.9-8.4,1.9-12.5c0.9-4.2,2.2-8.4,3.6-12.4c1.2-3.5,2.9-6.7,4.4-10.1c-1.6,1-3.8,3.5-4.7,6.3
	c-1.3,4.1-2.8,8.1-3.6,12.4c-0.9,4.7-3,9.1-4.6,13.6c-0.1,0.2-0.6,0.6-0.6,0.5c-0.4-0.2-0.8-0.5-1-0.9c-1.1-2.4-2-3.2-3.9-1.9
	c-1.9,1.2-2.7,1.2-3.5-0.9c-0.2-0.5-1-1.1-1.4-1c-0.5,0.1-1,0.8-1.1,1.4c-0.2,1.1,0,2.3-0.1,3.4c-0.1,0.7-0.5,1.4-0.8,2.1
	c-0.4-0.6-1-1-1.2-1.7c-0.5-2-0.9-4-1.3-6.1c-0.6,1.6-1.1,3.1-2.1,5.7c-1.1-6-0.7-11,1-15.5c1.7-4.4,1-8.4-0.2-12.6
	c-0.3-1.2-0.8-2.3-1.2-3.5c0-0.5,0-1-0.1-1.4c0-0.3-0.2-0.6-0.4-0.9c-0.1,0.2-0.5,0.6-0.4,0.7c0.2,0.6,0.5,1.1,0.8,1.6
	c0,3.9,0.3,7.8,0,11.6c-0.5,5.6-1.3,11.1-2.1,16.7c-0.1,0.8-0.7,1.5-1.1,2.1c-0.1,0.2-0.6,0.4-0.8,0.3c-0.2-0.1-0.4-0.4-0.6-0.6
	c-0.1-0.1,0-0.3,0-0.5c0.5-4.9,0.2-5.2-4.5-6.3c-3.1-0.7-6.2-1.7-9.1-2.9c-6.2-2.6-12.3-3.2-18.6-0.2c-2.4,1.1-5.2,1.4-7.8,2
	c-0.5,0.1-1,0-1.4,0.1c-3.8,0.7-5.2,2.8-4.8,6.8c0.1,0.5-0.2,1.1-0.4,1.6c-0.6-0.4-1.6-0.8-1.7-1.3c-0.3-1.4-0.5-2.9-0.3-4.3
	c0.3-4.1-0.8-8-2.2-11.8c-0.2-0.5-0.7-1-1.7-1.2c0.7,3.5,1.7,7.1,2.2,10.6c0.5,3.2,0.5,6.4,0.6,9.6c0,0.4-0.4,0.8-0.7,1.1
	c-0.4-0.4-1.1-0.7-1.1-1.2c-0.2-1.1,0-2.3-0.2-3.4c-0.1-0.6-0.8-1.2-1.2-1.7c-0.5,0.5-1.3,1-1.4,1.5c-0.3,1.2-0.1,2.6-0.2,3.9
	c0,0.3-0.6,0.6-0.9,0.9c-0.3-0.3-0.9-0.6-0.9-0.9c0.2-4.3-2.3-8.5-0.2-12.8c0.4-0.8,0-1.8-0.8-2.8c-0.3,2.3-0.7,4.7-1,7
	c-0.2,1.9,0,3.9-0.2,5.8c-0.2,1.8-1.1,2-2.9,1.1c-0.8-0.4-1.8-0.7-2.5-0.4c-1.3,0.4-0.5,1.5-0.4,2.5c0.2,1.4,0,2.8,0,4.7
	c-2.5-1.7-2.9-3.9-2.8-6.1c0.1-2.8-0.6-5.3-2.6-7.8c0,0.9-0.1,1.9,0,2.8c0.2,3.2,0.5,6.4,0.6,9.6c0,0.3-0.4,0.7-0.7,1
	c-0.3-0.3-0.9-0.6-1-0.9c-0.2-1.8-0.2-3.5-0.4-5.3c-0.1-0.5-0.5-1.1-0.7-1.6c-0.3,0.5-0.9,0.9-0.9,1.4c-0.3,1.6-0.3,3.2-0.5,4.8
	c0,0.2-0.5,0.6-0.7,0.6c-0.3-0.1-0.9-0.4-0.9-0.7c0.1-2.6-1.2-2.1-3.1-1.7c-8.5,1.9-17.1,2.2-25.7,3.3c-5,0.6-9.9,0.8-14.9,0.7
	c-2,0-4.1-0.5-6.1-1.2c-1.8-0.6-2-2.1-0.5-3.3c2.4-1.9,4.9-3.7,7.6-5.1c3-1.5,6.2-2.5,9.3-3.9c0.8-0.3,1.4-1,2.1-1.5
	c-1-1.1-0.2-3.5-2.7-3.5c-0.5,0-1.1,0.1-1.4-0.1c-1.1-0.6-2.3-1.1-3-2c-0.4-0.5,3-2.7,4.1-2.5c0.6,0.1,1.2,0.4,1.8,0.6
	c3.8,1.5,4,1.2,5.3-2.2c0.2-0.5,0.7-0.9,1.1-1.3c0.4,0.5,1.1,0.8,1.2,1.4c0.4,1.7,0.6,3.5,0.7,5.2c0.1,1.6,0.8,1.9,2.2,1.2
	c3.8-1.9,6.8-4.8,9.6-7.9c1-1.1,0.3-2.8-1.2-2.8c-2.9-0.1-5.8,0-8.7,0.3c-3.5,0.3-6.9,1-10.4,1.4c-0.8,0.1-1.7-0.6-2.6-0.9
	c0.4-1,0.5-2.2,1.2-2.8c1.4-1,3-1.7,4.6-2.5c3.9-1.8,4.4-2.9,3.4-7.1c-0.2-0.8,0-1.8-0.4-2.4c-1.7-2.6-0.8-5.1,0-7.7
	c0.9-3,2.7-5.1,4.9-7c0.3-0.3,1.1-0.5,1.3-0.3c0.4,0.4,0.9,1.1,0.8,1.6c-0.4,1.9-0.9,3.8-1.7,5.5c-1.3,2.6-1.6,4.9,0.9,6.9
	c0.2,0.2,0.4,0.5,0.6,0.8c0.7,1,1.1,2.7,2.6,1.8c0.5-0.3,0.1-2.3-0.2-3.5c-0.4-1.4-1.3-2.6-1.8-3.9c-0.1-0.3,0-1.2,0.2-1.2
	c0.5-0.2,1.5-0.3,1.7,0c1.7,1.9,3.2,4,4.6,5.8c1.5-2.6,2.9-5.2,4.6-7.7c1.2-1.7,1.6-1.7,2.1,0.6c0.4,2.1,1.4,1.3,2.2,0.8
	c3.7-2.5,6.4-6,8.3-9.8c3-5.9,5.6-11.9,8.2-17.9c3-6.9,5.3-14.1,6.5-21.6c0.9-5.5,2.5-10.9,3.6-16.4c1.7-8.5,3.4-16.9,5-25.4
	c1.3-6.8,2.6-13.5,3.7-20.3c1.1-6.8,1.9-13.6,3.1-20.4c1.8-11,3.9-22,5.7-33.1c1-6.2,1.4-12.4,2.1-18.6c0.9-7.8,1.9-15.6,2.8-23.3
	c0.5-4.6,1-9.3,1-13.9c0-7.4,1.4-14.7,2.7-21.9c1.1-6.1,2.1-12.3,3.1-18.4c1.2-7.3,2.5-14.5,3.1-21.9c0.6-7,2-13.9,3.1-20.9
	c0.5-3.5,1.1-6.9,1.6-10.4c0.9-6.3,1.9-12.6,2.8-19c0.8-5.4,1.3-10.8,2.2-16.2c1.6-10.1,3.5-20.2,5.2-30.3c0.9-5,1.7-10.1,2.5-15.1
	c0.6-3.5,1.2-6.9,1.8-10.4c0.1-0.8,0-1.6,0-2.5c-3,2.4-5.7,4.6-8.5,6.8c-0.3,0.3-1.1,0.5-1.3,0.3c-0.4-0.4-0.7-1.1-0.7-1.6
	c0-0.8,0.3-1.6,0.6-2.3c2-4.7,4-9.5,6.4-15.3c-2.3,1.8-3.8,3-5.3,4.1c-0.9,0.6-2.2,1.4-2.9,0.1c-1.1-1.9-1.6-1.7-2.9-0.1
	c-1,1.3-2.7,2.2-4.3,3.1c-2,1.1-3.4,0-3.3-2.2c0-0.3,0-0.6,0.1-1c0.9-4.3,1.7-8.7,2.6-13.1c-0.7-0.1-1.1-0.2-1.3-0.1
	c-1.1,0.4-2.3,1-3.4,1.4c-0.3-1.2-0.8-2.3-0.9-3.5c-0.4-3.8-0.7-7.6-1.1-11.5c-0.6,0.3-0.9,0.4-1.2,0.5c-0.7,0.2-1.4,0.4-2.1,0.5
	c-0.1-0.8-0.5-1.6-0.3-2.3c0.4-1.1,1.1-2.2,2.1-4.1c-3.5,1-6.2,1.8-8.9,2.4c-0.8,0.2-1.8,0-2.7,0c0-1.1-0.2-2.2,0.1-3.2
	c0.6-1.4,1.6-2.7,2.4-4c0.3-0.3,0.7-0.6,1-1c1.6-1.9,3.2-3.9,4.8-5.8c0.3-0.3,0.5-0.6,0.8-0.9c-0.2-0.1-0.3-0.2-0.5-0.3
	c-0.1,0.4-0.2,0.8-0.3,1.3c-2.3,1.3-4.5,2.6-6.8,3.9c-1-0.4-2.2-0.5-2.8-1.1c-0.5-0.5-0.3-1.7-0.2-2.6c0.2-1.3,0.7-2.5,0.9-3.7
	c0.1-0.6-0.3-1.2-0.4-1.8c-0.5,0.3-1,0.5-1.4,0.8c-1.2,1.1-2.2,2.3-3.4,3.4c-3.7,3.6-7,7.4-6.2,13.1c0.1,0.8,0.4,1.5,0.6,2.2
	c0.7-0.3,1.5-0.5,2-1c3.7-3.1,7.3-6.2,10.9-9.3c1.4-0.1,2,0.5,1.9,1.9c-0.3,0.3-0.6,0.7-1,1c-2.1,1.5-4.2,3-6.2,4.6
	c-1,0.8-1.8,1.7-2.7,2.6c-0.4,0.5-0.8,1-1.3,1.5c-2.9,2.8-5,2.3-6.4-1.5c-0.5-1.3-0.9-2.7-1.4-4.2c-3.8,1.8-7.4,3.4-10.8,5.3
	c-0.9,0.5-1.3,1.8-1.8,2.7c-1.4,2.5-2.8,5.1-4.3,7.6c-1.1,1.8-1.5,1.8-2.7,0.2c-3.1-4.1-6.3-8.1-7-14.1c-1.5,1.4-2.6,2.3-3.5,3.3
	c-1.2,1.3-2.2,1.9-3.3-0.1c-0.1-0.2-1.2-0.1-1.3,0.1c-0.9,1.8-1.7,3.8-2.6,5.6c-0.3,0.6-1,1-1.6,1.5c-0.4-0.5-1-0.9-1.1-1.5
	c-1.5-8.1-1.6-16.2-0.5-24.4c-0.1,0-0.4-0.2-0.6-0.2c-3.9,1.6-5.3,0.6-4.7-3.5c0.1-1.1,0.7-2.1,1-3.2c0.3-0.9,0.6-1.8,1.3-3.7
	c-2.7,1.9-4.5,3.2-6.3,4.5c-0.3,0.2-1,0.2-1.2,0c-0.2-0.2-0.3-0.9-0.2-1.2c1.1-2.7,2.2-5.3,3.4-8c0.7-1.4,1.4-2.6-1-3.2
	c-0.5-0.1-0.7-1.3-1-2c-0.5-1.3-0.8-2.7-1.4-4.4c-0.3,0.9-0.3,1.4-0.6,1.7c-1,1-2,1.8-3,2.7c-0.8-1-1.9-1.8-2.3-2.9
	c-1.7-4.5-4.6-8.6-3.1-14.3c-2.3,1.2-3.7,2.3-5.3,2.8c-2.8,0.9-4.1-0.4-3.4-3.2c0.7-2.5,1.7-4.8,2.5-7.2c0.6-1.8,1.3-3.5,1.9-5.4
	c-5.6-1-5.9-0.8-6.7,4c-0.4,2.4-0.6,4.7-1,7.1c-0.1,0.8-0.4,1.6-0.8,2.2c-2.4,2.8-4.8,5.6-7.3,8.3c-0.5,0.5-1.4,0.8-2.1,1
	c-0.6,0.1-1.5-0.1-1.7-0.5c-0.3-0.6-0.4-1.6-0.1-2.1c1.4-2.5,2.9-5,4.5-7.4c0.9-1.3,0.5-2.4-0.2-3.6c-1.2-2.1-2-2.2-3.6-0.6
	c-1.6,1.6-3.1,3.2-4.7,4.8c-0.7,0.7-1.5,1.2-2.4,1.7c-4,2.3-4.1,2.2-5.2-2.6c-3.5,3-7.2,5.4-11.8,5.8c-0.6,0.1-1.5-0.3-1.9-0.7
	c-0.2-0.2,0-1.3,0.3-1.7c2.1-2.6,4.3-5.1,6.5-7.6c0.4-0.5,1-0.9,1.2-1.5c0.3-0.6,0.5-1.9,0.4-2c-1-0.5-2.2-0.6-2.8,0.7
	c-2.3,5.1-7.1,7.7-11.3,10.8c-1.4,1-3.1,1.6-3.4-1.2c0.1-0.1,0.3-0.1,0.4-0.2c0.1-0.1,0.1-0.2,0.1-0.3c-0.2,0.2-0.3,0.3-0.5,0.5
	c-1.4,0.7-3,1.2-4.2,2.2c-5.2,4.4-10.3,9-15.4,13.6c-0.4,0.3-0.3,1.5-0.1,2.1c1.3,2.8,2.7,5.4,4,8.2c0.4,0.8,0.4,1.8,0.6,2.6
	c-0.9,0.2-2,0.7-2.7,0.4c-1.8-0.6-3.4-1.5-5.6-2.5c0.3,1.5,0.5,2.7,0.7,3.9c0.2,1.4-0.8,1.8-1.7,1.4c-2.1-1.1-4.2-2.4-6-4
	c-2.4-2.1-5.1-3.9-5.8-7.4c-0.3-1.5-0.5-2.7,0.2-4.1c1.5-3.2,2.1-6.7,1.9-10.3c-0.1-1.4-0.6-2-2-2.1c-3.9-0.3-4.6,0-6.3,4
	c-1.7,3.9-4.2,7.2-7.9,9.4c-1.3,0.7-2.8,2.1-4.2,0c-0.1-0.2-1.2,0-1.5,0.3c-1.8,2.2-3.5,4.6-5.3,6.8c-0.8,1.1-1.6,3-3.2,2.2
	c-1.3-0.7-1.4-2.4-1.3-4.3c0.5-6.3,4.1-11.7,5.3-18.2c-2.3,1.8-4.4,3.4-6.4,5c-0.4,0.4-0.9,1.2-0.8,1.6c1,3.2-0.9,5.5-2,8.1
	c-0.8,2.1-1.8,4.2-2,6.4c-0.3,2.9-2,4.7-3.6,6.6c-1.1,1.4-2.2,1-2.7-0.7c-0.2-0.6-0.5-1.3-0.2-1.8c0.9-1.7-0.2-2.9-0.7-4.4
	c-0.8-2-0.6-4.4-0.6-6.6c0-2.5-3.1-0.2-3.3-2.2c-0.8,0.4-1.9,0.6-2.3,1.2c-1.1,1.6-1.7,3.5-2.8,5c-1.9,2.5-4.4,4.2-7.9,3.8
	c-2.8-0.3-5.1-1.7-6.5-3.7c-0.6-0.9,0.7-3.3,1.4-4.8c0.6-1.5,1.5-2.9,2.5-4.1c2.1-2.6,4.4-5.1,6.7-7.6c1.5-1.7,2.9-3.4,5.6-3.2
	c1.6,0.1,3.2-2.3,2.3-3.3c-2.6-3-1.1-6.1-0.6-9.1c0-0.1-0.2-0.3-0.4-0.6c-3.1,2.6-6,5.3-7.9,8.9c-1.7,3.1-4.6,4.4-7.4,5.9
	c-1.4,0.8-2.9,0.7-4-0.6c-1-1.3-1-2.9,0.1-4c2.7-2.7,3-6.3,4.1-9.6c0.1-0.1,0.3-0.1,0.4-0.2c0.1-0.1,0.1-0.2,0.1-0.3
	c-0.2,0.2-0.3,0.3-0.5,0.5c-2-0.4-2.9,2.9-5.2,1.5c-0.5,0.8-1.1,1.6-1.4,2.4c-0.7,2.3-1,4.7-1.8,7c-1,2.9-1.8,3-4.4,1.1
	c-1.9-1.4-1.8-1.4-2.8,0.8c-1.7,3.9-3.1,8-5.9,11.5c-1.2,1.5-1.3,3.9-1.7,5.9c-0.3,1.4-0.2,2.9-0.4,4.3c-0.5,6-4.2,9.6-8.9,12.6
	c-0.5-2.7-1.2-5.2-1.4-7.7c-0.2-2.7-0.1-5.4-0.1-8.1c-1.2,0.7-2.5,1.6-4,2.2c-0.6,0.3-1.7,0.4-2.2,0c-0.4-0.3-0.3-1.4-0.3-2.1
	c0.1-0.8,0.4-1.5,0.7-2.8c-2.3,0.5-3.8,1.6-5.4,2.4c-2.7,1.4-5.5,2.6-8.3,3.8c-0.4,0.2-1.2,0-1.3-0.2c-0.2-0.5-0.4-1.2-0.1-1.7
	c1-1.8,2.2-3.5,3.3-5.3c0.7-1.2,1.3-2.4,1.3-4c-2,2-4.1,4-6,6.1c-0.5,0.5-0.9,1.4-0.9,2.1c-0.1,3.4-0.2,6.8,0,10.2
	c0.1,1.2,0.8,2.4,1.4,3.5c1.5,2.7,3.1,5.2,4.7,7.9c0.8,1.3,0.2,2.3-1,2.7c-1.7,0.6-3.4,0.5-5-0.8c-2.1-2-3.4-4.2-3.4-7.2
	c0-0.6-0.5-1.6-0.8-1.6c-0.7,0-1.4,0.4-2,0.8c-1.4,1-2.7,2.1-4.1,3.1c-1.1-1.9,0.6-3.6,0.5-5.4c0-0.3-0.1-0.6-0.2-0.9
	c-0.4,0.2-0.9,0.3-1.3,0.5c-1.1,0.6-2.1,1.2-3.1,1.9c0.2-1.1,0.4-2.3,0.8-3.4c0.8-2.5,1.8-5,2.8-7.9c-0.8,0.2-1.5,0.4-2.2,0.5
	c-0.6,0-1.1-0.1-1.7-0.2c0.2-0.6,0.3-1.4,0.7-1.6c2.6-1.3,3.2-3.6,4.1-6.2c1-2.8,2.9-5.3,4.8-7.7c1.6-2,3.6-3.7,5.4-5.5
	c2.4-2.5,2.6-3.4,1.1-6.3c-0.2-0.5-0.9-0.9-1.4-0.9c-1-0.1-0.7,0.6-0.6,1.3c0.3,3.7-2.3,5.8-4.4,8.1c-1,1-2.5,1.5-3.6,2.4
	c-1.5,1.2-3.2,2.2-3.4,4.5c0,0.6-0.8,1.1-1.2,1.7c-0.3-0.7-0.8-1.4-0.8-2.1c-0.2-5.3,0.4-10.4,4.5-14.2c1.8-1.7-0.6-2.5,0-3.7
	c0.5-1.1,1.3-2.1,1.7-3.2c0.1-0.3-0.6-1-1.1-1.4c-0.1-0.1-0.9,0.4-1,0.7c-1,2.7-2.5,5.3-2.8,8.1c-0.5,4.3-2.5,8-4.3,11.7
	c-0.7,1.5-1.7,1.3-2.4,0c-0.6-1.3-1.4-0.8-1.3,0.1c0.3,4.1-2.5,6.7-4.5,9.7c-1.4,2.1-2.9,4.2-4.6,6.2c-0.9,1-2.3,0.5-2.4-0.9
	c0-1.4,0.3-2.8,0.5-4.8c-2.1,1.5-3.8,2.7-5.7,3.9c-0.6,0.4-1.7,0.7-2.2,0.5c-0.5-0.3-0.8-1.5-0.5-2.1c0.8-1.8,0.4-3.3-0.4-5
	c-1.2-2.5-1.7-5,0.8-7.4C142.9,30.8,143.1,29.3,143.6,28.1c0.3-0.3,0.7-0.6,1-0.9c0.1-0.2,0.3-0.3,0.4-0.5c-0.2,0.2-0.3,0.3-0.5,0.5
	C144.2,27.5,143.9,27.8,143.6,28.1z M430.7,66.9c0.3-0.3,0.7-0.6,1-1c0.3-0.3,0.7-0.6,1-1c0.1-0.2,0.3-0.3,0.4-0.5
	c-0.2,0.2-0.3,0.3-0.5,0.5c-0.3,0.3-0.6,0.7-1,1C431.3,66.3,431,66.6,430.7,66.9c-0.3,0.3-0.7,0.6-1,1c-2.9,0.6-2.9,0.6-3.3,3.9
	c1.3-1.5,2.3-2.7,3.3-3.8C430,67.6,430.4,67.3,430.7,66.9z M616,62.1c0.2-0.2,0.3-0.3,0.5-0.5C616.3,61.8,616.1,61.9,616,62.1
	c-0.4,0.3-0.7,0.6-1,0.9c-1.2,1.6-2.4,3.2-3.5,4.9c-0.4,0.7-0.5,1.6-0.8,2.4c0.9,0.1,1.9,0.4,2.7,0.1c1.2-0.4,2.8-0.7,2-2.9
	c-0.5-1.4-0.3-3-0.5-4.5C615.3,62.7,615.6,62.4,616,62.1z M545.1,512.2c0.3-0.3,0.7-0.6,1-1c0.1-0.1,0.3-0.1,0.4-0.2
	c0.1-0.1,0.1-0.2,0.1-0.3c-0.2,0.2-0.3,0.3-0.5,0.5C545.8,511.5,545.5,511.8,545.1,512.2c-0.3,0.3-0.6,0.7-1,1
	c-2.2,1.2-3.3,3.2-3.9,5.6c2-1.4,3.3-3.3,3.9-5.6C544.5,512.8,544.8,512.5,545.1,512.2z M378.3,22.3c0.3-0.3,0.6-0.7,1-1
	c2.6-1.6,2.9-4.1,2.9-6.8c0.1-0.1,0.3-0.1,0.4-0.2c0.1-0.1,0.1-0.2,0.1-0.3c-0.2,0.2-0.3,0.3-0.5,0.5c-1.8,1.9-2.9,4.1-2.9,6.8
	C378.9,21.7,378.6,22,378.3,22.3c-0.2,0.1-0.3,0.3-0.5,0.5C378,22.6,378.2,22.5,378.3,22.3z M431.7,41.7c0.3-0.3,0.6-0.7,1-1
	c2.9-1.6,4.7-4.4,5.9-7.3c1.2-3.1,2.4-6.7-1.3-9.4c-0.3-0.2-0.3-1.5,0.1-1.9c0.7-0.8,1.8-1.3,2.6-2c2-2,4.8-3.3,5.3-6.5
	c0.3-0.3,0.6-0.6,1-1c2.1-1.7,4.3-3.2,6.9-4c2.8-0.8,4.6-2.4,3.8-5.8c-1.1,0.3-2.2,1-3.2,0.9c-4.5-0.7-5.8,2.1-6.5,5.7
	c-0.2,1.1-0.6,2.1-0.9,3.2c-0.3,0.3-0.6,0.6-1,1c-1.2,0.7-2.4,1.4-3.6,2.2c-1.4,1-2.7,2.4-4.2,3.1c-2.3,1-3,2.5-2.9,4.9
	c0,1.9,0.2,4.2-0.8,5.5c-2.5,3.1-3.1,6.1-1.2,9.6c0.3,0.5,0.1,1.3,0.1,1.9C432.3,41.1,432,41.4,431.7,41.7c-0.1,0.1-0.3,0.1-0.4,0.2
	c-0.1,0.1-0.1,0.2-0.1,0.3C431.3,42,431.5,41.9,431.7,41.7z M156.2,37.8c0.3-0.3,0.7-0.6,1-0.9c0.1-0.2,0.3-0.4,0.4-0.6
	c-0.2,0.2-0.3,0.3-0.5,0.5C156.8,37.2,156.5,37.5,156.2,37.8c-0.3,0.3-0.7,0.6-1,1c-0.7,1-1.3,1.9-2,2.9c-0.1,0.2-0.3,0.3-0.4,0.5
	c0.2-0.2,0.3-0.3,0.5-0.5c0.6-1,1.3-2,1.9-2.9C155.5,38.5,155.9,38.2,156.2,37.8z M561.6,523.8c0.3-0.3,0.7-0.6,1-1
	c0.2-0.2,0.3-0.3,0.5-0.5c-0.2,0.2-0.3,0.3-0.5,0.5C562.3,523.1,561.9,523.5,561.6,523.8c-0.3,0.3-0.7,0.6-1,1
	c-0.7,0.6-1.8,1.1-2.1,1.9c-0.6,1.4-2.9,2.2-1.7,4.3c0.8-1.1,1.6-2.1,2.3-3.3c0.6-0.9,1-1.9,1.4-2.9
	C561,524.4,561.3,524.1,561.6,523.8z M414.2,526.7c-0.2-0.2-0.3-0.3-0.5-0.5C413.9,526.4,414,526.6,414.2,526.7c0.3,0.3,0.6,0.7,1,1
	c0.4,1,0.7,2.1,1.2,3c0.1,0.2,0.7,0.2,1.1,0.4c0-0.4,0.3-1,0.1-1.2c-0.7-0.8-1.6-1.5-2.4-2.2C414.8,527.4,414.5,527,414.2,526.7z
	 M565.5,537.4c-0.3,0.3-0.5,0.6-0.8,1c0.2,0.1,0.3,0.2,0.5,0.3C565.3,538.2,565.4,537.8,565.5,537.4c0.1,0,0.3-0.1,0.4-0.2
	c0.1-0.1,0.1-0.2,0.1-0.3C565.8,537.1,565.7,537.2,565.5,537.4z M456.9,56.3c0.3-0.3,0.5-0.6,0.8-0.9c-0.2-0.1-0.3-0.2-0.5-0.3
	C457.1,55.4,457,55.8,456.9,56.3c-0.3,0.3-0.7,0.6-1,1c-0.3,0.7-0.6,1.3-1,2c-3.5,2.7-2.5,7-4.5,10.8c6.2-2.8,6.5-3,10.3-7.9
	c0.1-0.1,0.3-0.1,0.4-0.2c0.1-0.1,0.1-0.2,0.1-0.3c-0.2,0.2-0.3,0.3-0.5,0.5c-4.6,0.5-4.6,0.5-5.8-2.9c0.3-0.6,0.7-1.3,1-1.9
	C456.2,56.9,456.5,56.6,456.9,56.3z M460.8,15.5c0.3-0.6,0.6-1.3,1-1.9c3.4-2.7,3.4-2.7,2.2-6c-0.9,2.4-1.5,4.2-2.2,6
	C461.4,14.2,461.1,14.9,460.8,15.5c-0.1,0.1-0.3,0.1-0.4,0.2c-0.1,0.1-0.1,0.2-0.1,0.3C460.4,15.8,460.6,15.7,460.8,15.5z
	 M543.2,508.3c-0.1-0.1-0.1-0.3-0.2-0.4c-0.1-0.1-0.2-0.1-0.3-0.1C542.9,508,543,508.1,543.2,508.3c0,0.4,0,0.9,0.1,1.3
	c0.1,0.3,0.3,0.6,0.5,0.9c0.1-0.3,0.3-0.6,0.3-0.8C543.8,509.2,543.5,508.8,543.2,508.3z M437.5,552c0.2,0.2,0.3,0.3,0.5,0.5
	C437.8,552.2,437.6,552.1,437.5,552c-0.2-0.4-0.4-0.9-0.7-1.1c-0.2-0.2-0.7,0-1,0c0.1,0.2,0.2,0.6,0.4,0.7
	C436.6,551.8,437,551.8,437.5,552z M47.5,33.9c1.3,0,2-0.6,1.8-2c0-0.1-0.2-0.3-0.3-0.4c-0.5,0.6-1,1.3-1.5,1.9
	C47.5,33.6,47.5,33.8,47.5,33.9c-0.1,0.1-0.3,0.1-0.4,0.2c-0.1,0.1-0.1,0.2-0.1,0.3C47.2,34.3,47.4,34.1,47.5,33.9z M447.2,69.8
	c1.5-1.4,2.2-3,1.1-5.1C447.9,66.5,447.5,68.1,447.2,69.8c-0.2,0.3-0.5,0.6-0.8,1c0.2,0.1,0.3,0.2,0.5,0.3
	C447,70.7,447.1,70.3,447.2,69.8z M409.3,31c0,0.2,0,0.3,0,0.5c0.2,0.7,0.4,1.4,0.6,2.1c0.3-0.1,0.5-0.2,0.8-0.3
	c-0.3-0.7-0.7-1.4-1.1-2.1C409.7,31.2,409.5,31.1,409.3,31c-0.1-1.9,0.1-3.8-1.8-5.5C407.4,27.9,408.3,29.5,409.3,31z M506.3,29.1
	c1.6,0,2.8-0.7,4-2.4c-1.6,0.2-2.7,0.2-3.7,0.5C505.2,27.6,506.4,28.5,506.3,29.1c-0.1,0.1-0.3,0.1-0.4,0.2
	c-0.1,0.1-0.1,0.2-0.1,0.3C506,29.4,506.2,29.3,506.3,29.1z M341.4,7.8c-1.2,1.5-2.5,2.9-3.5,4.5c-0.2,0.3,0.6,1.3,1,1.8
	c0.1,0.1,1.2-0.4,1.3-0.7C340.8,11.5,341.1,9.6,341.4,7.8c0.3-0.5,0.6-0.9,0.9-1.4c0.1-0.2-0.2-0.5-0.2-0.8
	c-0.2,0.3-0.5,0.6-0.5,0.9C341.4,6.9,341.5,7.3,341.4,7.8z M509.3,12.6c1.8-0.1,3-1.2,3.6-2.7c0.2-0.6-0.2-2.1-0.8-2.4
	c-1.3-0.7-1.5,0.6-1.7,1.5C510,10.2,509.6,11.4,509.3,12.6c-0.2,0.1-0.3,0.3-0.5,0.4C508.9,12.9,509.1,12.8,509.3,12.6z M174.6,55.3
	c3.5-0.6,4.3-3.2,4.8-6.5C175.2,52,175.2,52,174.6,55.3c-0.1,0.1-0.3,0.1-0.4,0.2c-0.1,0.1-0.1,0.2-0.1,0.3
	C174.3,55.6,174.4,55.5,174.6,55.3z M617.9,43.6c2.4-0.1,3.5-2.1,4.9-3.6c0.4-0.4,0.1-1.8-0.3-2.4c-0.7-1-1.3-0.1-1.7,0.6
	C619.7,40,618.8,41.8,617.9,43.6c-0.6,0.1-1.3,0-1.8,0.2c-0.3,0.1-0.5,0.6-0.8,0.9c0.5,0.1,1.1,0.4,1.5,0.3
	C617.2,44.8,617.5,44.1,617.9,43.6z M521.9,546.1c1-2,2.1-3.9,2.9-5.9c0.7-2.1,3.2-3.5,2.5-7.1C524.9,537.9,521.7,541.3,521.9,546.1
	c-2.3,4.5-2.3,4.7-1.3,9C521,552,521.4,549.1,521.9,546.1z M618.9,52.4c-5.1,0.4-5.8,4.9-7.5,8.4c-0.1,0.2,0.1,0.6,0.3,0.8
	c0.2,0.2,0.7,0.3,0.8,0.1c0.7-0.5,1.4-0.9,1.8-1.6C615.9,57.6,617.4,55,618.9,52.4c0.1,0,0.3-0.1,0.4-0.2c0.1-0.1,0.1-0.2,0.1-0.3
	C619.2,52.1,619,52.2,618.9,52.4z M424.9,33c2.2-1.4,4.4-2.8,6.4-4.4c0.6-0.5,0.7-1.7,0.7-2.6c0-0.6-0.3-1.6-1.5-1
	C427.1,26.7,425.6,29.6,424.9,33c-0.1,0.1-0.3,0.1-0.4,0.2c-0.1,0.1-0.1,0.2-0.1,0.3C424.6,33.3,424.7,33.1,424.9,33z M495.7,64
	c-3.8-0.7-5.6,2.3-7.8,4.5c-1.1,1.1-1.2,2.4-0.5,3.8c1.1-0.7,2.2-1.1,3-1.8C492.4,68.5,495.1,67.2,495.7,64c0.1-0.1,0.3-0.1,0.4-0.2
	c0.1-0.1,0.1-0.2,0.1-0.3C496,63.7,495.8,63.9,495.7,64z M431.6,13.6c-1.3,1-2.4,2.1-3.8,2.9c-1.7,1-2.2,2.1-1.5,3.9
	c0.4,1.2,0.6,2.4,1,4c1.3-0.8,2.4-1.4,3.4-2.2c0.3-0.2,0.7-1,0.6-1.1C429.6,18.4,431.8,16.1,431.6,13.6c0.1,0,0.3-0.1,0.4-0.2
	c0.1-0.1,0.1-0.2,0.1-0.3C432,13.3,431.8,13.4,431.6,13.6z M458.8,19.4c-2,1.3-4,2.5-5.9,4c-0.8,0.6-1.7,1.7-1.7,2.5
	c0.1,1.3,0.5,2.9,2.4,3.1c0.9,0.1,1.8,0.3,3.2,0.5C457.5,26.2,458.1,22.8,458.8,19.4c0.2-0.3,0.5-0.6,0.8-1
	c-0.2-0.1-0.3-0.2-0.5-0.3C459,18.6,458.9,19,458.8,19.4z M161,12.6c-4.1,5.9-8.2,11.9-12.5,18.2c4.2-0.4,6.1-2.3,6.8-5.7
	c0.3-1.2,0.9-2.6,1.9-3.3C160.7,19.6,161.1,16.2,161,12.6c0.4-0.3,0.9-0.4,1.1-0.8c0.3-0.4,0.3-1,0.4-1.5c-0.4,0.3-0.9,0.6-1.2,1
	C161.1,11.6,161.1,12.2,161,12.6z M560.7,7.8c-2.1,0.1-3,1.5-4,3.1c-2,3.4-4,6.8-6.3,10.6c2.7-1.1,5-2,7.3-3.1
	c0.8-0.4,1.6-1.3,1.8-2C560,13.5,560.3,10.6,560.7,7.8c0.1-0.1,0.3-0.1,0.4-0.2c0.1-0.1,0.1-0.2,0.1-0.3
	C561,7.4,560.8,7.6,560.7,7.8z M73.7,8.7C80,9.2,85,6.3,90,2.7C84,0.3,83.4,0.3,79.1,4C77.2,5.5,75.5,7.1,73.7,8.7
	c-0.1,0-0.3,0.1-0.4,0.2c-0.1,0.1-0.1,0.2-0.1,0.3C73.4,9,73.6,8.9,73.7,8.7z M42.7,14.5c-1.8,1.3-3.6,2.6-5.5,3.8
	c-3.6,2.2-4.6,4.8-3.4,9.3c1.2-1.1,2.3-2.4,3.6-3.1C41.3,22.3,43,19,42.7,14.5c0.6,0.3,1.6,0.4,1.7,0.7c0.3,1.9,1.1,2,2.6,1.1
	c1.8-1.2,3.7-2.4,5.5-3.7c2.9-1.3,5.8-2.6,8.6-4c0.4-0.2,0.8-1.1,0.6-1.5c-0.7-1.6-5.5-3.4-7.1-2.8c-2.3,0.8-4.5,1.5-6.8,2.4
	c-0.6,0.2-1.5,1-1.4,1.2c0.4,0.9,0.9,2.1,1.7,2.6c0.9,0.5,2.3,0,3.3,0.4c0.5,0.2,0.8,1.2,1.1,1.8c-2.1,0-4.1,0.1-6.2,0
	C44.6,12.6,43.4,13,42.7,14.5z M573.3,18.4c0,3.1,0,6.3,0,9.6c3.2-1.7,4.1-5.5,6.6-7.8c0.1,0-1-1.5-1.1-1.4
	C576.8,19.7,575,19.5,573.3,18.4c0.2-0.7,0.4-1.5,0.8-2.2c1.4-2.1,2.9-4.2,4.2-6.3c1.3-2-1-5.9-3.5-5.9c-0.5,0-1.2,0.5-1.4,1
	C572,9.5,571.5,13.9,573.3,18.4z M66.9,107.7c0.2,0.2,0.3,0.3,0.5,0.5C67.3,108,67.1,107.8,66.9,107.7c-0.3-1.1-0.8-2.1-1.1-3.2
	c-1.7-5.4-4.2-10.7-2.9-16.7c0.3-1.2-0.1-2.6-0.2-3.9c-1.2,1.3-1.2,3-2.1,3.8c-1.9,1.6-1.5,3.3-1,5.2c0.7,2.5,1.6,4.9,2.2,7.4
	C62.6,103.5,64.1,106,66.9,107.7z M436.5,41.7c3.1-0.7,6.2-1.3,9.3-2c2.8-0.6,4.8-2.3,6.2-4.9c0.5-0.9,0.7-1.7-0.3-2.5
	c-0.7-0.6-1.4-1.2-2-1.9c-1.7,2.4-3.2,4.7-4.7,6.9c-0.8,1.3-1.6,1.4-2.5,0.1c-0.5-0.7-1-1.4-1.7-2.4
	C439.2,37.5,437.9,39.6,436.5,41.7c-0.1,0.1-0.3,0.1-0.4,0.2c-0.1,0.1-0.1,0.2-0.1,0.3C436.2,42,436.3,41.9,436.5,41.7z M530.6,23.3
	c-1.6,4.4,0.6,8.4,1.6,12.5c0.1,0.2,1.3,0.5,1.5,0.3c2.1-2.2,4.1-4.5,3.7-7.9c-0.2-1.6-0.3-2.7-2.6-2.3
	C533.1,26.1,531.3,25.2,530.6,23.3c1.5-1.1,3.1-2.2,4.6-3.4c2-1.6,2-2.9,0.3-4.7c-0.7-0.8-1.6-1.5-2.5-2.4
	C531.3,16.3,530.5,19.7,530.6,23.3z M518,69.8c1.8-2.6,0.8-5.8,1.8-8.7c0.8-2.2,0.6-4.7,0.8-7.1c-1.1,1.3-1.7,2.8-2.5,4.2
	c-1.4,2.8-2.8,5.8-4.4,8.4c-1.9,3.1-4.2,6-6.4,9c-0.1,0.1-0.3,0.1-0.4,0.2c-0.1,0.1-0.1,0.2-0.1,0.3c0.2-0.2,0.3-0.3,0.5-0.5
	c3.9-0.6,6.1-3.3,8-6.4C516.6,67.3,517.3,68.5,518,69.8c-0.3,0.3-0.5,0.7-0.8,1c0.2,0.1,0.3,0.2,0.5,0.3
	C517.8,70.7,517.9,70.3,518,69.8z M460.8,55.3c0-0.5,0.1-0.9-0.1-1.4c-0.1-0.3-0.4-0.6-0.6-0.9c-0.1,0.3-0.4,0.6-0.3,0.8
	C460.1,54.4,460.4,54.8,460.8,55.3c-0.2,0.7-0.4,1.5-0.6,2.2c0.7,0.1,1.5,0.4,2.2,0.3c2.9-0.4,4.9-2.3,6.5-4.5
	c1.5-2,2.7-4.2,4.4-6.9c-1.9,0.4-3.5,1.3-4.5,0.9c-1.9-0.8-2.8,0.2-3.6,1.3C463.5,50.8,462.2,53.1,460.8,55.3z M486,43.7
	c-1.8,0-3.9,2.4-5.5-0.6c-0.1-0.1-0.7-0.1-0.9,0c-2,1.5-5,2.4-4.9,5.9c2.5-0.7,4.8-1.3,7.4-2c-0.7,2.7-2.6,3.6-4.3,4.2
	c-3,1-3.8,3.1-3.4,5.9c0.1,0.9,0.2,1.8,0.4,3.3c1.9-1.2,3.5-2.2,5.1-3.3c-0.2-0.3-0.3-0.5-0.4-0.5c-1-0.1-2.4,0.9-2.8-0.7
	c-0.1-0.7,0.6-1.8,1.2-2.2C481.8,51.2,483.9,47.5,486,43.7c0.1-0.1,0.3-0.1,0.4-0.2c0.1-0.1,0.1-0.2,0.1-0.3
	C486.3,43.3,486.1,43.5,486,43.7z M497.6,84.4c-0.1-0.1-0.1-0.3-0.2-0.4c-0.1-0.1-0.2-0.1-0.3-0.1C497.3,84.1,497.5,84.2,497.6,84.4
	c0.4,4.4,0.4,4.4,4.3,2.9c5-2,8.2-5.7,10.2-10.6c0.1-0.1,0.3-0.1,0.4-0.2c0.1-0.1,0.1-0.2,0.1-0.3c-0.2,0.2-0.3,0.3-0.5,0.5
	c-2.8,0.6-4.9,3.5-8.3,2.8c-0.8-0.1-1.8,1.2-2.7,1.8C500,82.3,498.8,83.4,497.6,84.4z M12.6,20.4c7.1-3.6,12.4-8.5,12.9-17.7
	c-3.6,3-7,5.7-9.2,9.5C14.9,14.8,13.8,17.6,12.6,20.4c-0.1,0.1-0.3,0.1-0.4,0.2c-0.1,0.1-0.1,0.2-0.1,0.3
	C12.3,20.7,12.4,20.5,12.6,20.4z M197.9,28.1c-5.1,3.4-7.3,8.9-10.9,14.1c1.5-0.3,2.6-0.3,3.3-0.8c3-1.8,6-3.7,8.9-5.6
	c0.7-0.4,1.2-1.1,1.7-1.7c0.7-0.9,1-2-0.5-2C197.3,32.1,197.9,30,197.9,28.1c0.2-0.3,0.5-0.6,0.8-1c-0.2-0.1-0.3-0.2-0.5-0.3
	C198.1,27.3,198,27.7,197.9,28.1z M504.4,89.2c-0.9,0.3-1.8,0.5-2.7,0.9c-4.6,2.2-4.6,2.2-6.5-1.8c-0.8,5.1-1.6,10.6-2.5,16.3
	C498.7,100.9,501.6,95.2,504.4,89.2c0.1-0.1,0.3-0.1,0.4-0.2c0.1-0.1,0.1-0.2,0.1-0.3C504.7,88.9,504.6,89.1,504.4,89.2z
	 M406.4,540.3c6.2-0.4,12.4-0.8,18.9-1.3c-0.6-2-1-4-1.8-5.9c-0.3-0.6-1.4-1.1-2.2-1.1c-0.9,0-1.9,0.4-2.7,0.9
	C414.5,535.3,410.5,537.8,406.4,540.3c-0.1,0.1-0.3,0.1-0.4,0.2c-0.1,0.1-0.1,0.2-0.1,0.3C406.1,540.6,406.3,540.4,406.4,540.3z
	 M428.7,45.6c-1.2,1.4-3.3,2.7-3.6,4.2c-0.5,3-0.7,6.2,0.3,9.5c1.5-1,2.8-1.6,3.6-2.5c3.1-3.8,6-7.7,9-11.6
	c-2.4,0.4-4.3,1.4-6.3,2.3C429.7,48.4,429.7,48.4,428.7,45.6c0.2-0.1,0.3-0.3,0.5-0.5C429,45.3,428.9,45.4,428.7,45.6z M498.6,48.5
	c4.9-1.1,8.4-3.8,10-8.6c0.5-1.5,0.8-3.2,0.4-4.6c-0.2-0.9-1.8-1.4-2.9-2c-2.1-1.2-2.5-1.2-3.3,1.1C501.3,39.1,500,43.8,498.6,48.5
	c-0.1,0.1-0.3,0.1-0.4,0.2c-0.1,0.1-0.1,0.2-0.1,0.3C498.3,48.8,498.4,48.7,498.6,48.5z M557.8,21.3c-3.1,0.1-4.6,2.3-5.6,4.7
	c-1.5,3.7-2.3,7.7-3.7,12.2c4.9-3.2,9.5-5.5,11.5-10.8c0.8-2,1.2-3.7-1.5-4.5C558.1,22.9,558,21.9,557.8,21.3
	c0.1-0.1,0.3-0.1,0.4-0.2c0.1-0.1,0.1-0.2,0.1-0.3C558.1,21,557.9,21.2,557.8,21.3z M508.3,4.9c-2.7,1.3-5.3,2.9-8.2,3.8
	c-3.7,1.1-5.5,3.6-6.8,6.9c-0.5,1.3,0,1.8,1.2,1.8C502.4,17.3,509.6,11.9,508.3,4.9c0.1-0.1,0.3-0.1,0.4-0.2
	c0.1-0.1,0.1-0.2,0.1-0.3C508.6,4.5,508.4,4.7,508.3,4.9z M480.2,30.1c-0.7-0.4-1.6-0.6-2.1-1.1c-1-1.1-2-2.1-3.7-1.6
	c-1.6,0.4-2.9,1.3-3.5,3c-0.6,1.5-0.9,3.2-1.8,4.4c-2.3,3-2,6.2-1,9.9c4.4-4.2,7.9-8.7,11.4-13.2C479.8,31,479.9,30.5,480.2,30.1
	c0.1-0.1,0.3-0.1,0.4-0.2c0.1-0.1,0.1-0.2,0.1-0.3C480.5,29.8,480.3,29.9,480.2,30.1z M46.6,37.8c-0.1-0.1-0.1-0.3-0.2-0.4
	c-0.1-0.1-0.2-0.1-0.3-0.1C46.3,37.5,46.4,37.7,46.6,37.8c-0.6,3.1-1.1,6.2,2,8.6c3.6-4,5.9-8.5,7.2-13.5c0.5-1.8,0.4-3.8,0.9-5.6
	c1.2-4,1.3-4-2.8-3.9c-0.6,0-1.4-0.2-1.9,0.1c-0.6,0.3-1.2,1-1.3,1.5c-0.1,0.7,0.5,1.5,0.6,2.3C51.9,31.8,51.9,36,46.6,37.8z
	 M616.9,17.5c-0.1-0.1-0.1-0.3-0.2-0.4c-0.1-0.1-0.2-0.1-0.3-0.1C616.6,17.2,616.8,17.3,616.9,17.5c1.8,2.9,1.8,3.2-0.6,4.9
	c-1.5,1.1-3.3,1.8-5.4,2.8c4.8,2.8,5,8.1,7.6,12.5c1.3-2.1,2.4-3.6,3.4-5.3c0.6-1.1,1-2.4,1.3-3.6C624.8,23.5,622.4,19.3,616.9,17.5
	z M448.1,504.4c-1,1.4-2,2.8-3,4.2c-3.4,5-5.5,10.9-11.7,13.6c-0.9,0.4-1.4,2.4-1.7,3.7c-0.7,3.4-1.3,6.9-1.8,10.4
	c-0.1,0.6,0.1,1.2,0.3,2.7C438.3,527.9,444.2,516.6,448.1,504.4c0.2-0.3,0.5-0.6,0.7-1c-0.2-0.1-0.3-0.2-0.5-0.3
	C448.3,503.6,448.2,504,448.1,504.4z M74.7,55.3c2.5-2.7,4.9-5.4,7.5-8c1.7-1.8,2.7-3.7,3.3-6.2c0.9-3.6-0.9-6.8,0-10.8
	c-2,0.7-4,0.8-4.7,1.8c-1.6,2.5-3.1,5.3-3.7,8.2C75.9,45.2,75.4,50.3,74.7,55.3c-0.1,0.1-0.3,0.1-0.4,0.2c-0.1,0.1-0.1,0.2-0.1,0.3
	C74.4,55.6,74.5,55.5,74.7,55.3z M65,57.2c1.1-1.2,2.1-2.3,3.2-3.5c1-1.1,1.8-2.4,3.9-3.2c-0.4,1.4-0.5,2.2-0.9,2.8
	c-1.6,2.2-4,4.1-4.9,6.5c-0.9,2.7-2.8,4.3-4.6,6.1c-0.5,0.5-0.9,1.4-1.2,2.1c-1.7,4.2-2.1,8.5,0.1,13c0.3-1.3,0.3-2.3,0.8-3.1
	c3.6-5.9,6.8-12,9.1-18.4c1.3-3.6,2.2-7.3,3-11c0.3-1.6-0.5-2-2-1.3c-2.3,1-4,2.7-5,5C65.9,53.8,65.5,55.5,65,57.2
	c-0.3,0.3-0.5,0.6-0.8,0.9c0.2,0.1,0.3,0.2,0.5,0.3C64.8,58.1,64.9,57.7,65,57.2z M201.8,4.9c-3.3,0-5.9,1.3-7.4,4.3
	c-1.7,3.5-4.5,5.7-7.8,7.4c-1.2,0.6-1.2,1.3-1,2.3c1,4,2.4,7.9,0.8,12.2c-0.5,1.3,0.3,1.7,1.5,0.8c0.4-0.3,1.1-0.1,1.7-0.2
	c3.6-0.4,5.8-2.7,7.1-5.7c1.1-2.6,1.5-5.5,2.2-8.3c0.7-2.7,0.6-2.8-2-2.5c-1.6,0.1-2.4-0.7-1.9-2.1c0.4-1,1.2-1.9,1.9-2.7
	C198.5,8.4,200.1,6.6,201.8,4.9c0.1-0.1,0.3-0.1,0.4-0.2c0.1-0.1,0.1-0.2,0.1-0.3C202.1,4.5,201.9,4.7,201.8,4.9z M533.5,40.7
	c-2.6,1.9-5,4.1-5.8,7.4c-0.2,0.8-1,1.9-1.7,2.1c-3.1,0.9-3.2,3.2-3.1,5.7c0,0.8-0.1,1.6-0.2,2.4c-1.2,7.9-2.4,15.8-3.7,23.7
	c-1.1,7.3-2.3,14.5-3.5,21.8c-0.8,4.7-1.6,9.5-2.3,14.2c-1.2,7.3-2.3,14.5-3.5,21.8c-1.4,8.4-2.9,16.7-4.2,25.1
	c-0.8,4.9-1.4,9.8-2.2,14.7c-1.2,7.9-2.5,15.8-3.6,23.7c-0.8,5.9-1.3,11.8-2.1,17.6c-1.5,10.1-3.1,20.2-4.6,30.3
	c-1.1,7-2.1,13.9-3.3,20.8c-1.7,9.3-3.8,18.5-3.6,28.1c0.1,4.1-0.6,8.3-0.9,12.5c-0.3,3.7-0.6,7.3-1,11c-0.5,4.8-1.2,9.5-1.8,14.3
	c-0.8,6-1.6,12-2.5,18.1c-0.7,4.9-1.6,9.8-2.3,14.7c-0.5,3.3-1.1,6.6-1.7,9.9c-1.4,7.9-2.8,15.8-4.1,23.7
	c-1.4,8.8-2.6,17.7-4.2,26.5c-1.7,9.3-3.7,18.5-5.6,27.8c-1.1,5.5-2.1,11-3.4,16.4c-1.8,7.5-3.9,14.9-5.8,22.3
	c-2.2,8.9-5.9,17.4-10,25.5c-4.4,8.8-9.6,17.1-16.9,23.9c-3.8,3.6-7.7,6.9-12.5,8.9c-5.8,2.4-11.6,4.5-17.4,6.9
	c-2.3,1-4.9,1.7-6.5,4.4c2.1,0.4,3.9,1,5.8,1.1c1.7,0.1,3.5-0.4,5.2-0.5c5.4-0.4,10.8-0.8,16.2-1.2c3-0.3,6.1-0.6,9.1-1
	c3-0.4,6-0.8,9-1.5c2.8-0.7,4.6-3.9,3.7-6.6c-0.6-2.1-1.9-3.6-3.9-4.7c-1-0.5-1.6-1.8-2.3-2.8c1.1-0.6,2.2-1.2,3.3-1.7
	c0.4-0.2,1-0.2,1.4-0.1c2.1,1,2.3-0.3,2.8-1.9c0.6-2.3,1.5-4.5,2.5-6.7c0.2-0.4,1.1-0.9,1.5-0.7c0.4,0.1,0.8,1,0.8,1.5
	c-0.1,2.4-0.5,4.8-0.5,7.2c-0.1,1.9-0.1,3.8,0.4,5.6c0.5,2,1.7,3.8,2.6,5.6c0.5,1,0.9,2.3,2.4,1.8c1.4-0.4,2.9-0.8,2.8-2.7
	c-0.2-4.3,1.1-8.3,2.4-12.2c0.4-1.3,0.4-2.2-0.6-3c-1.3-1-2.5-2-3.9-2.8c-1.7-1-3.5-1.7-5.1-2.7c-0.6-0.3-1.2-1.3-1.1-1.9
	c0.1-0.6,1-1.4,1.7-1.5c3.6-0.4,7-0.5,10,2.4c1.9,1.8,2,1.6,3.6-0.6c1-1.4,1.9-3,3.1-4.3c0.5-0.5,1.6-0.5,2.5-0.7
	c-0.1,0.8-0.1,1.5-0.3,2.2c-0.9,2.6-1.9,5.1-2.8,7.7c-0.2,0.6-0.1,1.6,0.3,2.2c2.6,3.5,3.7,7.6,4.4,11.9c1.6-0.5,2.9-1.2,4.3-1.4
	c4.5-0.6,8.7-1.9,12.8-3.8c2.7-1.3,5.8-1.5,8.8-2c2-0.3,4.2,0.2,5.9-1.5c0.4-0.4,1.4,0,2.2,0c-0.2,0.7-0.3,1.5-0.7,2
	c-0.6,0.7-1.5,1.2-2.5,2c4.9,2.8,9.8,4.2,14.9,5.2c1.3,0.2,2.1-0.2,2.3-1.7c1.1-6.9,1.5-13.7,0.2-20.6c-0.5-2.6-0.1-5.4-0.1-8.9
	c4.8,4.1,5.7,9.4,7.3,14.7c2.5-3.4,4.8-6.4,7-9.5l0.2-0.2c1.3-0.9,2.6-1.9,3.9-2.7c0.3-0.2,1,0.1,1.2,0.4c0.2,0.3,0.2,0.9,0,1.3
	c-0.2,0.4-0.6,0.7-0.9,1.1c-2,2.6-1.8,3.8,0.7,5.5c2.1,1.4,4.3,2.6,6.4,3.9c1.5-2.4,2.8-4.6,4.1-6.8c1.6-2.6,1.6-2.6-1-4.4
	c-0.7-0.4-1.3-0.9-1.8-1.5c-4.5-6-9-12.1-13.4-18.2c-0.8-1.1-1.1-2.5-1.6-3.7c0.2-0.1,0.5-0.3,0.7-0.4c1,0.7,1.9,1.4,2.8,2.1
	c1.4-6.5,2.6-12.9,4.1-19.3c1.7-7.5,3.7-14.9,5.4-22.4c0.7-3.3,1-6.6,1.7-9.9c0.5-2.2,1.4-4.2,1.9-6.4c1-4.4,1.6-8.8,2.8-13.1
	c3.3-11.2,3.7-22.7,4.9-34.2c0.7-6.7,1.3-13.4,2.1-20.1c0.8-6.3,2-12.6,2.7-19c0.9-8.3,1.5-16.5,3.9-24.6c1.8-6.1,2.5-12.6,4.1-18.7
	c2.5-9.4,4.6-18.8,3.8-28.8c-0.4-4.1,0.5-8.3,1-12.5c0.5-4.1,1.2-8.2,1.8-12.3c0.6-3.8,1.3-7.6,1.9-11.4c1.1-7,1.6-14,3.3-20.8
	c2.5-10.1,4.1-20.4,7.2-30.4c2.3-7.5,3.4-15.3,4.9-23c0.8-4.1,1.4-8.2,2-12.3c0.6-4,1.1-7.9,1.6-11.9c0.8-6.5,1.6-13,2.3-19.6
	c0.4-3.3,1.1-6.8,0.6-10c-0.6-3.6-0.2-7,0.3-10.5c1.2-7.6,2.3-15.2,3.5-22.8c0.8-5.5,1.8-11.1,2.3-16.6c0.6-5.9,0.7-11.9,1.1-17.8
	c0.1-0.9,0.4-1.9,0.6-2.8c1.4-6.6,2.7-13.2,2.2-20c-0.2-3.3-0.8-6.7-1.3-10.6c-1.7,3.4-3.4,6.4-4.7,9.4c-1.5,3.5-4.5,4.9-7.7,6
	c-0.6,0.2-1.6-0.1-2.2-0.5c-0.2-0.1,0-1.1,0.2-1.7c0.2-0.6,0.6-1.1,0.8-1.8c1.2-3.6,2.3-7.3,2.3-11.2c-0.8,0.9-1.3,1.9-1.9,2.8
	c-2.6,3.7-5.6,6.7-10.5,6.7c-0.9,0-1.8-0.4-2.7-0.6c0.3-1,0.5-2,0.8-3c0.2-0.5,0.4-1,1-2.2c-2.6,1.8-4.5,3.3-6.5,4.5
	c-0.6,0.3-1.7-0.2-2.6-0.5c-0.1,0-0.1-1.2,0.2-1.6c2.7-4.5,2.1-8.9,0.5-13.4c-2,1.8-3.7,3.7-5.7,5.2c-1.2,0.9-1.5,1.9-1.6,3.3
	c-0.4,5.4-3.5,9.2-7.8,12.1c-0.9,0.6-1.9,1.2-2.8,2c-0.4,0.3-0.8,1.2-0.7,1.5c1.7,4.2-1.1,8.2-0.5,12.4c0.1,0.7-0.4,1.6-0.8,2.2
	c-0.7,1.2-1.5,2.4-2.3,3.6c-0.9-1-1.9-1.9-2.8-2.9c-0.6-0.7-0.9-1.8-1.6-2.4c-0.9-0.8-2.1-1.6-3.2-1.6c-0.6,0-1.4,1.6-1.8,2.6
	c-0.5,1.3-0.8,2.8-1.1,4.2c-0.6,2.7-2.3,4.6-4.3,6.3c-0.7,0.6-2.5,1.1-2.8,0.8c-0.8-0.8-1.5-2.3-1.2-3.3c1.2-4.2,1.5-8.5,1.5-12.9
	c0-1.7,0.9-3.4,1.5-5C532.6,43.2,533.1,42,533.5,40.7c2.4,0,2.2,1.6,1.8,3c-0.4,1.8-1.7,3.6-1.7,5.4c0.1,4.4-0.6,8.5-1.9,12.7
	c-0.1,0.2,0.3,0.5,0.7,1c0.9-1.7,2-3.1,2.5-4.7c1-2.8,1.2-5.9,3.1-8.4c0.4-0.6,0.2-1.9,0-2.8c-0.7-2.9-1.5-5.7-2.3-8.8
	C534.9,39.1,534.2,39.9,533.5,40.7z M522.8,554.5c0.3,0.5,0.5,1.7,1.1,2c1.2,0.6,2.6,0.3,3.3-1.1c0.2-0.4,0.3-0.9,0.4-1.4
	c0.4-1.1,0.8-2.2,2.2-1.8c0.1,0-0.1,1.6-0.3,2.4c-0.1,0.9-0.7,2-0.4,2.6c1.3,2,4.6,1.7,5.5-0.4c0.7-1.6,1.1-3.3,1.5-5
	c0.6-2.5,1-5,1.9-7.4c1.2-3.5,1.2-4.3-1.8-6.4c-1.3-0.9-2.8-1.5-4.3-2.3c-1.2-0.6-2-0.1-2.8,1C525.7,542,524,547.9,522.8,554.5z
	 M73.5,12c-3.3,0.4-5.9,0.8-8.6,1.1c-0.2,0-0.6-0.3-0.6-0.5c-0.1-0.3,0.1-0.7,0.3-0.9c1.4-0.8,2.8-1.6,4.1-2.4
	c0.6-0.3,1.2-0.5,1.7-0.9c0.4-0.3,0.7-0.7,1-1.1C62.5,10,54.3,13.3,47,19c1.9,0.6,3.5,1.4,5.2,1.7c1.7,0.3,3.5,0.5,5.2,0.3
	c2.2-0.3,4.3-1.4,6.5-1.5c4-0.1,6.1-2.4,7.9-5.4C72.3,13.5,72.8,12.9,73.5,12z M611.3,7.7c0.3,0.9,0.5,1.8,0.9,2.7
	c0.2,0.4,0.5,0.8,0.8,1.1c5,4,10.4,7.3,17.2,6.9c3.4-0.2,3.4-0.2,1.7-3c-0.5-0.8-0.9-1.7-1.4-2.5c-2.9-4.5-6.8-7.1-12.5-6
	C616,7.3,613.8,7.4,611.3,7.7z M499.8,78.7c0.2,0.2,0.3,0.4,0.5,0.5c2.2-2.5,4.5-4.9,6.6-7.5c3.9-4.7,7.8-9.4,9.7-15.4
	c0.5-1.5,1.2-3.7,2.3-4.1c3.6-1.1,1.4-4.3,2.6-6.2c0-0.1-0.6-0.7-1-0.9c-0.2-0.1-0.7,0.1-0.8,0.3c-0.5,0.8-1,1.6-1.4,2.5
	c-1.6,3.6-4.5,6-7.2,8.7c-2.8,2.8-5.3,6.2-7.2,9.8C501.9,70.2,501.1,74.6,499.8,78.7z M540,28.1c-3.3,10.6-1.5,19.3,7.7,25.9
	c2.1-4.3,1.2-8.5,1.1-12.9c-1.6,0.6-2.7,1.2-4,1.5c-0.7,0.1-2-0.1-2.1-0.5c-0.2-0.8,0-1.8,0.4-2.5c0.4-0.8,1.4-1.4,1.9-2.1
	c0.3-0.4,0.6-1.3,0.4-1.6C544,33.1,543.4,29.9,540,28.1z M214.6,11.5c-0.3-1-0.5-2.1-0.7-2.1c-0.7-0.1-1.4,0.2-2,0.5
	c-2.2,1.2-4.4,2.6-6.7,3.7c-3,1.4-5.8,4.4-5,6.8c1,2.9,1,5.5-0.1,8.3c-0.1,0.2,0.8,1.2,1,1.2c1.9-0.9,3.8-1.7,5.4-2.9
	c0.6-0.4,0.8-1.6,1.1-2.5c1.2-3.7,2.3-7.3,5.3-10.1C213.8,13.7,214.1,12.3,214.6,11.5z M443.5,61.1c-4,1.5-5.7,5.5-9.8,6.4
	c-0.5,0.1-1.1,1.7-1,2.5c1,4.5,2.3,8.9,6.1,12.2c4.3-4.1,5.3-9.3,5.9-14.8c-0.4,0.2-0.6,0.3-0.9,0.4c-0.8,0.2-1.7,0.4-2.5,0.6
	c0-0.9-0.2-1.8,0-2.6C442,64.2,442.8,62.7,443.5,61.1z M469.1,28.7c-5.1-2.9-5.2-3-1.2-7.2c2.2-2.3,1.7-4.7,1.2-7.2
	c-0.3-1.6-2.3-2.2-3.4-1c-1.5,1.6-3.1,3.4-3.8,5.4c-1.6,5.1-2.6,10.4-3.9,15.7C462.8,34.4,466.3,32.6,469.1,28.7z M477.4,69.6
	c9.8-1.6,14.5-9,19.4-16.6c-1.7-0.1-3.3,1-4.2-0.9c-0.1-0.3-0.9-0.5-1.2-0.4c-2.1,0.8-4.2,1.6-6.2,2.6c-0.4,0.2-0.6,1.3-0.6,1.9
	c0,2.7-0.4,5.2-2.5,7.4C480.3,65.5,478.9,67.6,477.4,69.6z M312.8,36.3c2.7-1.6,4.6-2.9,6.8-4c1.9-1,2.7-2.6,3.4-4.5
	c0.9-2.4,1.8-4.7,3-7c1.3-2.5,1.2-3-1.6-3.3c-3.7-0.4-3.7-0.4-2.1-3.8c0.1-0.1,0.3-0.3,0.2-0.4c-0.2-0.7-0.4-1.4-0.6-2.1
	c-0.5,0.3-1.3,0.4-1.5,0.8c-0.6,1.5-1.2,3-1.3,4.5c-0.4,3.7-0.6,7.4-3.8,10c-0.3,0.3-0.8,0.9-0.7,1.2
	C316.3,30.9,313.2,32.8,312.8,36.3z M523.8,22.7c1-0.5,1.6-0.8,2.3-1.1c0.2,0.6,0.6,1.2,0.5,1.7c-0.1,0.9-0.6,1.8-0.8,2.8
	c-0.4,1.9-0.9,3.7-1.1,5.6c-0.4,3.2-0.8,6.4-0.8,9.6c0,2-1,4.1,0.7,5.9c0.9-1.4,1.9-2.8,2.8-4.2c0.1-0.1,0.1-0.3,0.2-0.4
	c2.2-2.4,2.2-5,1.3-8.1c-0.8-2.4-1.1-5-1.3-7.5c-0.5-4.3,0.8-8.3,2-12.3c0.3-0.9,0.6-1.8,0.7-2.7c0-0.2-1.1-0.9-1.3-0.8
	c-2.5,2.3-6.3,3.7-5.3,8.2C524,20.4,523.8,21.5,523.8,22.7z M249.8,26.2c-1.8,2.1-2.9,4.3-4.7,5.3c-3.4,2-4.4,5.4-6,8.5
	c-0.8,1.6-0.1,2.9,1.4,3.5c4.2,1.6,7.9,0.1,9.9-4.1c0.5-1.1,0.4-1.8-0.6-2.4c-1.4-0.7-1.7-1.5-0.1-2.3c2.1-1.1,2.4-2.7,1.5-4.7
	C250.6,29,250.3,27.9,249.8,26.2z M502.3,99.9c0.3,0.2,0.6,0.4,0.9,0.6c3.3-3.8,8.9-4.9,10.9-10.4c1.7-4.9,3.7-9.5,3.5-15.7
	C511.6,81.4,508,89,503.5,96C502.8,97.1,502.7,98.6,502.3,99.9z M428.7,37.9c0.1-2.9-0.3-3.2-2.9-1.9c-1.2,0.5-2.4,1-3.4,1.8
	c-2,1.6-4.8,3.1-5.5,5.2c-1.1,3.2-2,6.4-3.4,9.4c-0.2,0.3,0,1.2,0.2,1.3c0.5,0.1,1.3,0.2,1.6-0.1c3.7-3.3,7.5-6.6,11.1-10
	C428,42,428.8,40.1,428.7,37.9z M440.9,22.7c8.8,2.2,19.2-5,18.9-13.8c-1.8,0.6-3.7,1.1-5.5,1.8c-1.9,0.8-3.9,1.7-5.4,3.1
	C446.1,16.6,443.6,19.7,440.9,22.7z M122,15.8c-2.1,3.6-4.1,7.1-6.1,10.5c-0.2,0.4-0.4,0.9-0.4,1.4c-0.5,3.2-1,6.4-1.5,9.7
	c1.5-0.7,2.9-1.6,4.4-2c3.7-1,5.1-3.7,5.4-7C124.3,24.1,124.8,19.8,122,15.8z M293.2,17.6c6.9-1.4,11.3-5.4,14.9-10.4
	c0.7-1,0.9-2.4,1.2-3.6c0.4-2-1-3.4-2.8-2.3c-3.2,2-6.7,4-9.1,6.9C295.4,10.5,294.7,14,293.2,17.6z M566.9,567.7
	c0.9-0.4,1.5-0.8,2.2-1.1c-0.3-0.5-0.5-1.1-0.8-1.6c-0.2-0.3-0.4-0.5-0.7-0.7c-2.9-1.6-5-3.9-6.7-6.7c-0.9-1.4-2.4-2.5-3.7-3.8
	c-1.1-1.1-2-0.8-2.5,0.6c-0.8,2.4-1.6,4.8-2.2,7.3c-0.6,2.2-0.3,2.5,1.8,2.7c1.6,0.2,3.1,0.3,4.6,0.7
	C561.6,566,564.2,566.9,566.9,567.7z M451.7,40.2c-2.1,0.8-3.9,1.3-5.7,2.2c-1,0.5-2.2,1.2-2.5,2.1c-1.4,4.7-2.9,9.5-3.5,14.9
	c3.2-2.6,5.9-4.9,8.6-7.1c0.6-0.5,1-1.3,1.4-1.9C452.1,47.3,452.4,44,451.7,40.2z M504.5,23.7c3.5,1.2,6.7,0.7,9.2-1.4
	c2.6-2.2,4.8-5,6.9-7.7c0.4-0.6,0-2.4-0.6-3c-0.5-0.6-2.1-0.7-2.9-0.3C511.3,13.6,507.2,17.8,504.5,23.7z M88.3,41.1
	c0.4,0.1,0.7,0.2,1.1,0.3c2.1-2.6,4.3-5.1,6.4-7.7c0.5-0.6,1-0.9,0-1.9c-2.1-2-1.9-2.3,0.6-3.4c1-0.5,2.5-0.7,2.9-1.5
	c1.1-2.3,1.7-4.8,2.4-7.2c0.1-0.3-0.4-0.9-0.7-1c-1.2-0.3-3.5,1.3-3.9,2.6c-0.8,3.5-2.6,6.1-6.3,7.1C89,28.9,88.2,30,88.2,32
	C88.4,35,88.3,38.1,88.3,41.1z M90.9,42.6c-1.3,2.4-3.1,4.3-3.3,6.4c-0.5,4.6-0.8,9.3,1.2,13.8c0.3,0.6,0.9,1.1,1.4,1.7
	c0.7-0.6,1.7-1.1,1.9-1.9c0.8-2.9,1.3-5.9,2.2-8.8c0.9-3,0.1-5.6-1.4-8.1C92.2,44.9,91.7,44.1,90.9,42.6z M562.5,539.2
	c-3.2-2.6-6.2-5.1-9.4-7.5c-0.9-0.7-2.2-1.6-3.4-0.2c-1,1.2-0.5,2.3,0.1,3.5c0.5,1.1,0.8,2.4,1.2,3.6c0.9,2.8,1.8,5.5,2.8,8.6
	C556.7,544.6,559.3,542.2,562.5,539.2z M535.2,23.2c3.8-0.1,7.1,1.1,9.3-2.4c0.1-0.2,0.6-0.3,0.9-0.4c4.4-1.4,6.6-4.8,8.4-8.7
	c0.9-2,0.1-3.2-1.9-2.9c-1,0.2-2,0.8-2.9,1.5c-1.7,1.5-3,3.7-4.9,4.6C540.3,16.6,538.5,20.1,535.2,23.2z M250.7,1.6
	c-5.9,2.3-7.2,3.9-9.3,9.8c-1.1,3-2.6,5.7-4,8.6c-0.3,0.7-0.8,1.4-1.5,2.7c7.6-1.9,10.5-7,12.3-13.1C249,6.9,249.8,4.4,250.7,1.6z
	 M419.3,75.2c2.2-3.2,4.4-6,6.3-9c0.7-1,2.3-2.7-0.9-3.1c-0.7-0.1-1.5-2.3-1.8-3.6c-0.3-1.7,0-3.5-0.2-5.3c-0.1-0.9-0.5-1.7-0.8-2.5
	c-0.6,0.6-1.6,1.1-1.8,1.9C418.1,60.6,417,67.7,419.3,75.2z M278.4,16.4c0.1,0.2,0.3,0.4,0.4,0.6c3.9-1.5,7.8-2.9,11.7-4.5
	c3.3-1.3,5-4.6,4.3-8.1c-0.2-1.3-1.1-1.7-2.1-1.3c-2.8,1.5-5.9,2.8-8.1,5C282.1,10.5,280.4,13.6,278.4,16.4z M101.9,80.4
	c-0.6-8-2.1-15.2-6.2-22.4c-2.7,5.5-2.2,10.5-1.1,15.5c0.2,1,1,2,1.8,2.7C98,77.6,99.7,78.7,101.9,80.4z M446.3,61.8
	c0.7-0.4,1.1-0.6,1.5-0.8c1.4-0.8,2.9-1.4,4.1-2.4c1.2-1,2-2.5,3-3.8c1.1-1.4,2-3,3.4-4c2.2-1.6-2.1-2.4-0.2-3.7
	c0.2-0.2,0.3-0.6,0.5-0.8c1.8-2.4,0.4-4.5-0.4-6.7c-0.5-1.2-1.2-1.9-2.6-1.4c-1.1,0.5-1,1.3-0.8,2.3c1.1,5.3-0.5,9.9-4.6,13.4
	C447.8,55.9,447.1,58.6,446.3,61.8z M79.6,29.4c3.9-1.1,7.9-2.2,11.8-3.5c1.1-0.4,2-1.6,2.9-2.5c0.8-0.9,1.1-2.2-0.1-2.9
	C91.5,19,92,17,92.9,14.7c0.3-0.9,0.4-1.9,0.6-3.3c-3.1,1.8-4.3,4.3-5.4,6.7C86.1,22.5,82.9,25.7,79.6,29.4z M41.7,41
	c1.4-2.9,2.2-5.3,3.6-7.5c2.2-3.5,0.8-6.8,0-10.2c-0.1-0.4-1-0.9-1.5-0.8c-2.3,0.3-4.9,3.3-5,5.6C38.5,32.4,39.3,36.6,41.7,41z
	 M76.4,35.7C72.4,37,69,37.9,67,41.2c-2.5,3.9-5,7.8-7.5,11.7c-0.1,0.2,0,0.8,0.1,0.8c0.9,0.4,1.8,0.9,2.7,1c0.5,0,1.4-0.8,1.5-1.4
	c0.7-3.4,3.1-5.6,5.5-7.7C73.9,41.8,74,41.8,76.4,35.7z M213.3,17.4c-5.1,7-3.1,13,0.6,18.9c3.3-4.6,5.6-9.6,7.3-14.9
	c0.6-2,0-3.3-1.5-4.8c-2.1,3.4-2.5,7.1-3.4,10.6c-0.1,0.5-0.6,1-0.9,1.5c-0.4-0.4-1.1-0.7-1.3-1.2c-0.4-1.2-0.7-2.4-0.8-3.7
	C213.2,22.1,213.3,20.2,213.3,17.4z M308,16c0.2,0.3,0.5,0.6,0.7,0.8c1.2-0.6,2.8-1,3.4-2c0.9-1.8,2.4-0.3,3.3-1
	c1.2-0.8,2.6-1.5,3.3-2.7c1.2-1.9,2-4,2.7-6.2c0.3-0.9,0-2.1-0.1-3.1c-1,0.1-2.1,0-3.1,0.2c-0.6,0.1-1.3,0.5-1.6,1
	c-2.6,3.5-6.7,6-7.4,10.9C309.1,14.7,308.4,15.3,308,16z M499,19.7c-1.3,0.2-2.7,0.9-3.4,0.4c-2.3-1.5-3.5,0.9-5.2,1.3
	c-2.2,0.5-3.7,2.1-4.4,4.1c-0.6,1.8-1,3.5-2.5,4.9c-0.2,0.2-0.3,0.8-0.1,0.9c0.3,0.2,0.9,0.5,1.2,0.4C491,29.8,497.3,27.7,499,19.7z
	 M410.3,43.6c0.2,0.2,0.4,0.4,0.6,0.6c2.4-2.1,4.8-4.1,7-6.3c1.4-1.5,2.3-3.5,3.7-5c3.2-3.5,2.4-7.9,2.8-12c0-0.4-0.3-0.9-0.6-1.3
	c-0.3-0.3-0.7-0.8-1-0.7c-0.3,0.1-0.8,0.7-0.7,1c0.3,3.1-1.2,5.4-2.8,8C416.1,32.9,413.3,38.3,410.3,43.6z M173.1,41.8
	c4.3-0.7,7.5-2.6,10.4-4.9c0.5-0.4,1-1.7,0.9-1.8c-1.7-1.2-0.7-2.5-0.4-3.9c0.3-1.8,0.1-3.7,0.1-6.1C178.8,30,174.5,34.6,173.1,41.8
	z M602.8,10.6c-2.1,3.4-4,7-6.2,10.3c-2.2,3.2-4.4,10.2-4.2,14.6c2.7-1.5,2.7-1.5,3.8-3.4C599.8,25.2,602.6,18.2,602.8,10.6z
	 M210.4,34.8c-3.1,5.3-4.2,10.6-3.6,16.2c0.1,0.7,0.7,1.8,1.2,1.8c0.8,0.1,1.9-0.3,2.4-0.9c0.9-1,1.6-2.3,2.1-3.6
	C214.1,43.8,213.8,39.4,210.4,34.8z M145.4,41.2c5.8-2.2,11.1-6.2,14.1-10.3c1.3-1.8,1.7-3.8,1.4-6c-0.1-0.7-0.6-1.4-1-2.1
	c-0.6,0.4-1.3,0.8-1.7,1.3c-0.8,1.2-1.2,2.7-2,3.8c-1,1.4-2,3.2-3.4,3.9C148.8,33.8,147.5,37.5,145.4,41.2z M602.2,3.5
	c-6.6,3-9.1,8.8-11.7,14.5c-0.5,1.1,0.4,2.3,1.5,2.2c0.6-0.1,1.4-0.2,1.7-0.7c1.7-1.9,3.8-3.6,4.9-5.8C600.3,10.5,601.1,7,602.2,3.5
	z M548,551.4c0-1.4,0.3-2.6-0.1-3.6c-0.5-1.2-1.4-2.4-2.5-3.2c-0.8-0.6-2-0.2-2.1,1.1c-0.1,2.3-0.4,4.4-1.6,6.4
	c-0.3,0.5,0,1.5,0.4,2.1c0.4,0.8,0.7,1.2-0.2,2c-0.6,0.5-0.8,1.8-0.6,2.6c0.1,0.8,0.8,1.8,1.5,2.1c0.6,0.2,1.9-0.2,2.3-0.8
	C547,557.3,548.7,554.6,548,551.4z M517.9,39.2c0-4.1-0.4-4.6-3.7-4.1c-0.7,0.1-1.8,0.8-2,1.5c-1,3.1-2.7,6.2-0.4,9.5
	c0.4,0.6,0.2,1.6,0.5,2.3c0.2,0.6,0.8,1.5,1,1.4c0.7-0.2,1.6-0.6,1.8-1.1C516.5,45.7,518,42.6,517.9,39.2z M590.8,12.5
	c-0.2-0.1-0.4-0.2-0.6-0.3c-2.2,1.8-4.5,3.6-6.6,5.5c-0.7,0.7-1.3,1.9-1.3,2.8c0,2.5-0.5,4.8-1.7,6.9c-0.5,0.9-0.6,2-0.9,3.1
	c3.9,0,5.9-2.7,8.1-4.9c0.9-1,1.3-1.8-0.2-2.6c-1.7-0.9-1.6-1.9-0.5-3.5C588.4,17.4,589.5,14.9,590.8,12.5z M486.9,17.7
	c-0.4-0.3-1-1.1-1.5-1c-5.9,1-11.6,2.6-16.3,6.6c-0.4,0.4-0.7,1-1,1.5c0.5,0.3,1.2,1,1.6,0.9c3.2-0.5,6.8-0.3,9.2-3.1
	c0.8-0.9,1.3-0.9,2.4-0.8C483.4,22.1,486.6,19.7,486.9,17.7z M27.7,22.4c-2.2,1.4-4.6,2.3-6.1,3.9c-1.6,1.7-2.5,4.1-3.3,6.3
	c-0.8,2.2-1.2,4.6-1.6,6.9c-0.1,0.3,0.5,0.7,0.8,0.9c0.2,0.1,0.7-0.1,0.8-0.3c0.7-0.9,1.5-1.7,1.9-2.7c1.7-3.6,3.7-7,6.7-9.7
	C28.5,26.3,28.3,24.6,27.7,22.4z M509.9,31.5c3.1,3.5,5.6-0.2,8.3-1c1.2-0.3,2.2-1.2,3.2-1.8c0.1-0.1,0.2-0.3,0.2-0.4
	c0.1-2.9,0.7-5.9-0.5-9C517.1,23.7,513.4,27.6,509.9,31.5z M88.9,92.3c1-2.6,1.8-4.3,2.4-6.1c0.6-2,0.7-4.2,1.6-6
	c1.4-2.4,0.5-4.3-0.7-6.2c-0.4-0.5-1.3-1.1-1.8-1c-0.6,0.1-1.6,0.8-1.7,1.4c-1,3.6-1.7,7.2-1.1,10.9C87.8,87.3,88.3,89.3,88.9,92.3z
	 M254.6,33.7c3.8-0.8,6.9-2.3,10-4.3c1.6-1.1,2.7-2,3-3.8c0.3-1.3,0.5-2.7,0.7-3.9c-4.4-0.7-6.8,2-8.9,4.8
	C257.7,28.8,256.3,31.2,254.6,33.7z M312.6,49.1c0.2-0.2,0.5-0.4,0.7-0.6c-0.6-2.1-1.5-4.2-1.9-6.4c-0.3-1.8-0.8-2.7-2.8-2
	c-0.4,0.2-1.1-0.2-1.6-0.4c0.2-0.6,0.2-1.2,0.6-1.6c1.9-2.3,3.9-4.5,4.1-7.8c-4.7,0.6-6.2,3.8-7,7.6c-0.4,1.8-0.1,3.5,1.4,4.9
	C308.3,44.8,310.4,47,312.6,49.1z M286.8,35.8c0.6-0.2,1.1-0.3,1.4-0.6c3.7-2.8,5.9-6.6,6.9-11.1c0.3-1.5,1.7-3.3-0.1-4.2
	c-0.8-0.4-2.9,1-3.9,2.1c-1.2,1.2-2.3,2.8-2.7,4.4C287.5,29.4,287.3,32.5,286.8,35.8z M618.3,57.8c2.9,1.3,4.6-1.2,6.9-1.6
	c0.6-0.1,1.4-0.4,1.6-0.9c0.4-1.2,0.5-2.5,0.9-3.7c0.5-1.5,1.3-2.9,1.9-4.4c0.5-1.1,1-2.2,1.9-4.1C624,46.3,622,52.7,618.3,57.8z
	 M101.8,40.6c0-0.8,0-1.1,0-1.4c0.2-1.8-0.3-2.8-2.3-3.5c-2.2-0.8-2.9,0-3.7,1.6c-0.3,0.5-0.8,1-1.3,1.4c-2.1,1.3-1.4,2.9-0.6,4.6
	c1.1,2.2,2.3,2.7,5.2,2.4c1.9-0.2,2.2-1.7,2.6-3C101.9,41.8,101.8,40.9,101.8,40.6z M256.9,23.1c-0.2-0.5-0.1,0.4,0.3,0.5
	c0.7,0.2,1.6,0.1,2.1-0.2c1.7-1.2,3.1-3.4,4.8-3.7c2.7-0.4,3-2.2,3.4-3.9c0.2-1.1-0.3-2.6-1-3.5c-1.1-1.3-1.8,0.4-2.7,0.8
	c-0.4,0.2-0.8,0.5-1.3,0.7C258.6,15.2,257,18.2,256.9,23.1z M505.2,114.2c6.1-2.9,10-10.9,9.4-20.6c-1.4,1.8-3.3,3.3-4.1,5.2
	C508.4,104,506.8,109.4,505.2,114.2z M316.5,16.4c-1.6,0.8-3,1.2-4.1,2.1c-2.9,2.1-6.1,4-5.3,8.6c0.3,1.8,0.5,2.3,2.1,1.6
	c1-0.5,2-1.1,2.9-1.7C315.3,24.5,316.7,21.1,316.5,16.4z M280.2,2.2c-6.2,3.4-11.7,6.6-10.3,14.4c1.7-1.4,3.2-3.2,5.1-4.2
	C279.1,10.3,280.3,6.9,280.2,2.2z M484.6,51c3.7-1,7.6-1.5,10.5-4.1c1.1-1,1.9-2.4,2.8-3.7c0.8-1.2,0-1.9-1-2.1
	c-3-0.7-5.4,0.3-7.2,2.7C487.8,46,486.2,48.5,484.6,51z M615.2,35.5c-0.9-1.8-1.7-3.6-2.8-5.4c-0.7-1.2-2-1-2.4,0.4
	c-1,4.1-1.9,8.3-2.7,12.5c-0.2,1,0.5,1.3,1.5,0.8C612,42,613.8,39.1,615.2,35.5z M606.4,3.4c-0.2,6,0.7,10.8,1.9,15.6
	c0.2,0.8,1,2,1.7,2.1c1.5,0.2,3.1-0.1,4.6-0.3c-0.4-1.2-0.6-2.5-1.2-3.5c-2-3.3-4.1-6.5-4.7-10.4C608.4,5.9,607.5,5.1,606.4,3.4z
	 M291.2,14.5c-1.3,0.7-2.4,1.4-3.6,1.8c-4.9,1.7-6.7,5.6-7.5,10.3c-0.2,1.1,0.1,1.9,1,1.3c3.1-1.9,6.5-3.6,7.8-7.4
	C289.6,18.7,290.3,16.8,291.2,14.5z M102.6,33.6c0.2,0,0.5,0.1,0.8,0.1c3.4-0.5,5.1-3.7,7.8-5.3c3.5-2.1,4.4-4.7,2.8-8.4
	c-1.3,0.8-2.7,1.6-4,2.4c-0.6,0.4-1.3,0.9-1.6,1.6C106.4,27.1,104.5,30.4,102.6,33.6z M410.8,25.5c0.6,2,1.1,4,1.8,6
	c0.4,1.1,1.4,1.6,2.1,0.3c1.8-3.2,3.4-6.5,4.9-9.9c0.2-0.5-0.3-1.5-0.8-2c-0.3-0.3-1.2-0.2-1.7,0.1c-2,1.3-3.9,2.8-5.8,4.3
	C411.1,24.5,411,25,410.8,25.5z M208.2,28.7c-3.9,1.1-4.4,4.7-6.1,7.3c-0.8,1.3-1.5,2.8-2,4.3c-0.3,1,0.5,1.5,1.4,1.2
	C206.4,40.2,209.5,34.2,208.2,28.7z M19,50.9c-2.8,2.7-2.9,3-1.7,5.6c0.6,1.3,0.7,2.8,1.5,4c1.1,1.8,2.1,3.8,3.7,4.8
	c1.6,1,3.7,2.3,6.7,1.1c-4.6-1.6-4.9-6.6-8.8-8.2c-0.3-2-0.6-4-1-6C19.3,51.8,19.1,51.4,19,50.9z M403.1,32c0.3-1.5,0.6-2.6,0.8-3.7
	c0.9-4.1-0.2-7.8-3-10.8c-0.4-0.4-1.5-0.7-2-0.4c-0.5,0.3-1,1.4-0.8,1.9C399.5,23.2,399.5,27.9,403.1,32z M280.1,19.4
	c-0.1-0.2-0.2-0.3-0.4-0.5c-0.4,0.2-0.9,0.3-1.3,0.5c-1.2,0.5-2.3,1.4-3.4,0c-1-1.3,0.2-2,0.7-2.9c0.2-0.3-0.1-0.8-0.2-1.2
	c-0.5,0.1-1.3,0.1-1.6,0.4c-2.8,3.1-3.7,7-4.2,11c0,0.3,0.3,1,0.7,1.1c0.3,0.1,1-0.1,1.3-0.4C274.5,24.7,277.3,22.1,280.1,19.4z
	 M169.7,29.5c3-2.1,5.3-3.5,7.2-5.2c1.1-1,1.8-2.6,2.4-4c0.2-0.6,0.1-1.9-0.4-2.1c-0.7-0.4-1.9-0.6-2.6-0.3c-1,0.4-1.8,1.3-2.5,2.1
	C171.8,22.4,170.7,25.3,169.7,29.5z M262.4,43.3c3.4-3.1,5.5-6,6.1-8.4c0.2-0.7,0.1-1.7-0.3-2.2c-0.6-0.8-5.1,0-5.4,1
	C261.7,36.7,259.7,39.8,262.4,43.3z M627.4,63.4c-0.7-0.2-1.5-0.8-1.9-0.6c-1.2,0.7-2.5,1.5-3.3,2.6c-1.7,2.3-3.1,4.8-4.5,7.2
	c-0.3,0.4-0.2,1.1-0.2,1.7c0.7,0,1.7,0.3,2.2-0.1c1.2-0.8,2-2.3,3.2-2.8C626.3,69.8,625.8,66.3,627.4,63.4z M325.8,27.1
	c3.9-3.4,7.3-6.2,10.7-9.2c0.3-0.3,0.5-1.4,0.3-1.5c-1-0.7-2.3-1.8-3.1-1.6c-1.6,0.6-4.8,0.3-4.5,2.7c0.3,3-0.9,4.8-2.7,6.8
	C326.1,24.9,326.1,25.8,325.8,27.1z M108,12.4c-1.3,1.9-2.4,3.3-3.1,4.8c-1.1,2.5-1.9,5-2.8,7.6c-0.2,0.5,0.1,1.2,0.2,1.8
	c0.7-0.2,1.6-0.2,2-0.6C107.5,22.4,109.7,18.5,108,12.4z M284.9,28.6c-6.4,2.7-8.7,7.9-9.3,14.3c2.6-3.1,5.1-6.1,7.7-9
	C284.6,32.4,285.5,30.9,284.9,28.6z M163.8,27.2c4.5-6.4,4.3-9.9-0.5-12.8C161.6,18.5,161.6,22.7,163.8,27.2z M626.2,26.9
	c-0.8,2.4-1.7,4.8-2.5,7.2c-0.2,0.5-0.3,1.2-0.1,1.7c0.8,1.5,2,2.9,2.7,4.5c0.8,1.8,1.9,0.5,2.8,0.4c1.5-0.2,1.1-1.2,0.7-2.1
	C628,34.9,626.2,31.3,626.2,26.9z M496,59.5c0.3,0.2,0.7,0.5,1,0.7c1.7-1.8,3.5-3.7,5.3-5.5c1.8-1.8,3.6-3.6,5.3-5.4
	c0.5-0.6,1.1-1.1,1.5-1.8c0.2-0.3,0-1-0.3-1.3c-0.2-0.2-1-0.3-1.2-0.1c-1.1,0.9-2,2.2-3.3,2.8C500,51.3,498.6,55.9,496,59.5z
	 M74.3,93.1c-1-4.1-1.8-7.6-2.7-11.1c-0.3-1-2.8-2.3-3.3-1.7c-0.8,0.9-1.6,1.9-0.7,3.4c1,1.6,1.7,3.4,2.5,5.1
	C71,90.5,71.6,92.3,74.3,93.1z M409.3,21.9c7.5-2,8.6-8,10.2-13.6c-0.9,0.9-1.4,2-2.2,3c-1.4,1.7-2.7,4-4.5,4.8
	C409.8,17.3,410,19.4,409.3,21.9z M439.8,46.8c-1.4,1.8-2.7,3.3-3.9,5c-1.1,1.5-2,3.3-3.1,4.8c-1.2,1.6-1.3,3.2-0.7,5.2
	C437.4,56.9,438.9,54.1,439.8,46.8z M550.1,23.9c-2,0-3.4-0.2-4.7,0.1c-0.9,0.2-1.9,0.8-2.6,1.6c-0.3,0.3,0.1,1.5,0.5,2
	c1.3,1.7,2.8,3.3,4.7,5.4C548.7,29.8,549.3,27.1,550.1,23.9z M74.1,59.2c-1.5,2.9-3.2,5.7-4.5,8.6c-0.4,1,0,2.4,0.2,3.5
	c0.1,0.4,0.6,0.7,0.9,1.1c0.4-0.4,1.1-0.7,1.3-1.1C73.6,67.6,75.2,63.8,74.1,59.2z M445.2,25.3c-2.9,0-4.1,0.9-3.7,3.1
	c0.4,1.8,1.4,3.4,2.1,5.1c1.1-1.3,2.2-2.6,3.3-3.9c0.2-0.2,0.3-0.6,0.4-0.9C448.5,25.9,448.2,25.3,445.2,25.3z M503.9,27.4
	c-1.7-0.3-3.8-1.2-5-0.6c-1.5,0.8-2.3,2.9-3.4,4.5c-0.2,0.3-0.4,0.6-0.4,0.9c-0.1,0.4-0.1,1,0.1,1.3c0.3,0.3,0.9,0.4,1.3,0.3
	C500.3,33.2,502.5,30.9,503.9,27.4z M485.7,34.1c-5.6,0.4-6.3,0.9-11.7,8.1C478.4,41.8,482.6,38.9,485.7,34.1z M490.9,87.5
	c0.4-1.8,0.7-2.9,0.8-4.1c0.3-2.5,0.6-5.1,0.8-7.6c0.1-0.9-0.3-1.8-0.4-2.7c-0.9,0.6-1.8,1.1-2.7,1.7c-0.3,0.3-0.5,0.9-0.5,1.3
	C489,79.7,488.3,83.4,490.9,87.5z M501.6,64.3c1.2-1.5,2.2-2.8,3.3-4.1c1.6-2.2,3.2-4.3,4.7-6.6c0.3-0.4,0.1-1.1,0.1-1.7
	c-0.6,0.1-1.4,0-1.7,0.3C504.7,55.5,500.8,58.5,501.6,64.3z M179.5,42.3c-5.2,0.7-6.3,4.9-8.6,8c-0.2,0.3-0.1,1,0.1,1.3
	c0.1,0.2,0.8,0.1,1.2-0.1C176.1,49.8,178.7,47,179.5,42.3z M464.8,35.7c0.3,0.3,0-0.2-0.2-0.1c-1.4,0.4-2.7,0.9-4,1.5
	c-0.3,0.2-0.6,1.2-0.4,1.5c1.2,2.1,1.7,4.4,1.7,6.8c0,0.3,0.6,0.8,0.9,0.8c0.4,0,1-0.3,1.1-0.7c0.3-0.7,0.6-1.5,0.6-2.2
	C464.7,41,464.8,38.7,464.8,35.7z M351.4,20.2c5.3-1.1,8.1-3.8,10.2-7.4c0.3-0.5,0.1-1.2,0.1-1.9c0-0.3-0.2-0.7-0.4-0.8
	c-0.2-0.1-0.7-0.1-0.8,0.1C357.6,13.2,354.9,16.3,351.4,20.2z M21.9,50.1c3.1-4.7,2.9-9.5,2.1-14.9C21,40.4,21,40.4,21.9,50.1z
	 M306.9,13.3c-3.8,1-5.4,3.2-6.4,9.4c1.9-0.9,3.4-1.5,4.9-2.3c0.3-0.1,0.5-0.9,0.4-1C303.8,16.8,307,15.3,306.9,13.3z M380.2,2.8
	c-2,3.7-4.7,6.8-0.4,10.5C381.3,9.9,383.7,6.8,380.2,2.8z M561,547c1.8,0,3.4,0,5,0c1.6,0,3.3,0.3,5.4-0.5c-1.1-0.7-1.6-1.1-2.1-1.4
	C564.4,541.9,565.2,541.5,561,547z M326.5,1.4c-2.1,0.4-2.8,1.7-2.5,3.5c0.2,1.5,0.5,3,0.8,4.5c2.3,0,1.8-2.2,2.5-3.4
	c0.3-0.5,0.6-1.1,0.8-1.7C328.7,2.8,327.8,1.3,326.5,1.4z M494.7,37.5c-4.4-3.1-4.6-3.2-6.9-1c-1,1-2.6,2.9-2.3,3.2
	c1.3,1.7,2.4-0.4,3.6-0.7C490.8,38.8,492.6,38.2,494.7,37.5z M9.6,56.4c2.1-2.8,3.6-4.6,4.9-6.6c0.4-0.6,0.7-1.4,0.7-2.1
	c0-0.5-0.5-1.1-0.9-1.5c-0.2-0.1-0.9,0.1-1.2,0.4C10.2,48.9,10.3,52.2,9.6,56.4z M59.3,115.3c5.2-4.9,5.4-6.5,1.5-10.1
	C60.3,108.5,59.8,111.5,59.3,115.3z M605.7,20.1c-0.7,5.6-0.7,5.6,1.4,8.4C610,25.2,610,25.2,605.7,20.1z M627.8,58.5
	c-0.6-0.3-1-0.7-1.2-0.6c-2.9,1.2-6.1,2.1-7.9,5c-0.3,0.4-0.1,1.1-0.2,1.6c0.4,0,1.1,0.1,1.3-0.1c1.8-2.1,4.2-3.3,6.8-4.3
	C627,59.9,627.3,59.2,627.8,58.5z M66.4,72.9c-1.1,2.3-2.3,4.4-3.1,6.6c-0.2,0.6,0.4,1.4,0.6,2.2c0.5-0.3,1.1-0.6,1.5-1.1
	c0.7-0.9,1.2-1.9,1.8-2.8C68.1,76.1,68.2,74.6,66.4,72.9z M67.6,102.2c0.4,3.7,2.1,6.4,5.3,7.9c0.4,0.2,0.9,0,1.3,0
	c0-0.4,0.1-1-0.1-1.2C72,106.6,69.8,104.4,67.6,102.2z M534.7,10.1c1.4,1.7,2.8,3.3,4.8,5.8c-0.4-3.6,0.4-6.2-1.5-8.5
	C536.9,8.2,535.9,9.1,534.7,10.1z M319.3,47.1c0.1-0.1,0.2-0.2,0.3-0.3c-0.9-2.3-1.6-4.6-2.6-6.9c-0.3-0.7-1.2-1.2-1.8-1.8
	c-0.3,0.8-0.7,1.6-0.9,2.4c-0.1,0.5,0.2,1.3,0.5,1.7C316.3,44,317.8,45.5,319.3,47.1z M620.3,50c1.3-1.8,2.6-3.6,3.8-5.5
	c0.2-0.3,0.2-1,0-1.2c-0.2-0.2-0.9-0.2-1.2-0.1C618.7,45.4,618.5,46.1,620.3,50z M78.1,108.2c0.7,1.1,1.8,2.3-0.3,3.3
	c-0.2,0.1-0.4,0.4-0.6,0.6c0.3,0.1,0.7,0.4,0.9,0.3c2.2-1.5,4.7-1.7,7.1-2.4c0.4-0.1,0.7-0.9,1-1.3
	C83.3,108.5,80.7,108.4,78.1,108.2z M180.1,55.7c0.8,3.4,0.2,7.4,5.2,9.5c-1.6-3.3-2.8-5.8-4.1-8.3
	C180.9,56.5,180.5,56.1,180.1,55.7z M144.9,31.6c-3,3.1-3,3.2-0.4,6.6C146.7,36.1,146.4,33.9,144.9,31.6z M14.3,64.3
	c0-3.5,0-6.9,0-10.3c-1.1,1.2-2.2,2.6-2.1,3.9C12.5,60,13.5,62,14.3,64.3z M96.4,47.6c1.2,1.5,2,2.6,2.9,3.6c1,1,2,0.7,2.4-0.7
	c0.4-1.8-0.1-2.7-1.9-2.9C98.9,47.5,97.9,47.6,96.4,47.6z M447.7,535.7c3.1,2,5.4,3.5,7.7,5.1C454.2,537.6,452.2,535.6,447.7,535.7z
	 M428.2,532.2c1.7-6.8,1.7-6.8,0.9-10.4C428,525.1,427.3,528.4,428.2,532.2z M10.1,45.1c3.5-1.2,4.1-3.8,4.3-7.5
	c-0.9,1.1-1.4,1.5-1.6,2C11.8,41.4,11,43.2,10.1,45.1z M357.5,8.1c0.7-0.8,1.2-1.1,1.2-1.4c0.2-1.8-2-4-3.5-3.6
	c-0.2,0.1-0.6,0.5-0.6,0.6C355.5,5,356.4,6.4,357.5,8.1z M458.3,549.4c-0.4,2.5-0.8,4.8-1.1,7.2c0,0.2,0.2,0.8,0.4,0.8
	c0.4,0,1.2,0,1.2-0.3c0.4-1,0.9-2.1,0.8-3C459.4,552.5,458.8,551.1,458.3,549.4z M557.3,7.3c-1.4-1.5-2.2-2.5-3.1-3.3
	c-0.3-0.3-1-0.5-1.2-0.4c-0.4,0.4-0.9,1-0.9,1.5c0,0.5,0.4,1.3,0.8,1.5C554.1,6.9,555.3,7,557.3,7.3z M413.8,522.3
	c0.7-2.2,1.4-4.4,2.1-6.6C414.4,517.7,411.8,519.2,413.8,522.3z M487.2,13.5c0.1,0.2,0.2,0.4,0.2,0.6c1.3,0,2.6,0.1,3.9-0.1
	c0.4-0.1,0.6-1,0.9-1.6c-0.5-0.2-1.1-0.8-1.4-0.6C489.5,12.2,488.4,12.9,487.2,13.5z M496.4,81c0.1-2.1,0.3-3.2,0.2-4.3
	c-0.1-1,0.6-2.4-1.1-2.5c-0.2,0-0.7,1.9-0.6,2.8C494.9,78.1,495.6,79,496.4,81z M405.8,550.8c1.2,1.3,2.5,2.5,4.3,4.4
	C409.9,551.8,408.4,550.7,405.8,550.8z M568.3,535.4c-0.2-0.1-0.3-0.1-0.5-0.2c-0.4,1.5-0.9,3-1.2,4.6c-0.1,0.3,0.4,0.8,0.6,1.2
	c0.3-0.3,1-0.5,1-0.8C568.3,538.6,568.3,537,568.3,535.4z M544.4,521.7c-0.4-0.8-0.7-1.6-1.1-2.4c-0.5,0.7-1.6,1.4-1.5,2
	c0.1,0.7,1.1,1.3,1.7,2C543.8,522.8,544,522.3,544.4,521.7z M618.7,85.6c-0.2-0.4-0.2-0.6-0.3-0.6c-0.3-0.1-0.7-0.3-0.8-0.2
	c-0.8,1.2-1.6,2.3-2.3,3.5c0,0.1,0.1,0.3,0.2,0.4c0.3,0.1,0.7,0.3,0.8,0.2C617.1,87.8,618,86.6,618.7,85.6z M632,79.6
	c-0.5,1.4-1,2.4-1.3,3.5c-0.1,0.2,0.2,0.7,0.3,0.8c0.4,0.1,1,0,1.1-0.2c0.4-0.8,0.8-1.7,1-2.5C633.2,80.8,632.6,80.4,632,79.6z
	 M500.5,22.3c2.4-0.7,3.5-2.1,3-4.5C502.4,19.3,501.5,20.8,500.5,22.3z M613.6,51.9c0.2,0.2,0.4,0.4,0.6,0.6
	c0.9-0.8,1.9-1.6,2.6-2.5c0.3-0.4-0.1-1.2-0.2-1.8c-0.5,0.3-1.1,0.4-1.4,0.8C614.6,49.9,614.1,50.9,613.6,51.9z M556.7,546.9
	c0.3,0.3,0.6,0.5,0.9,0.8c1.3-1.6,3.3-2.6,3.3-5.1C559.5,544,558.1,545.5,556.7,546.9z M523.6,7.7c-0.3,0.7-0.7,1.3-0.6,1.7
	c0.2,0.7,0.8,1.2,1.2,1.8c0.7-0.6,1.3-1.3,2-1.9C525.5,8.9,524.7,8.4,523.6,7.7z M253.8,30.9c1.1-1.6,2-2.9,3.4-5.1
	C254.3,27.1,252.4,27.7,253.8,30.9z M98.6,34.3c1-1.3,1.6-2,2.2-2.8c0.2-0.3,0.2-0.8,0.4-1.1c-0.5,0-1-0.2-1.4-0.1
	C98.4,30.8,97.8,31.8,98.6,34.3z M546.8,537.8c-0.4,0.5-0.7,0.8-0.9,1.1c-0.5,1-1.1,2-0.1,3c0.1,0.1,0.4,0,0.4,0
	c0.3-0.8,0.6-1.6,0.8-2.5C547.1,539,546.9,538.5,546.8,537.8z M550.2,550.2c0.2,0,0.3,0,0.5,0c0-1.8,0-3.6,0-5.4c-0.2,0-0.3,0-0.5,0
	C550.2,546.6,550.2,548.4,550.2,550.2z M520.7,36.4c0.6-1.1,1-1.6,1.1-2c0.1-0.6-0.2-1.2-0.3-1.8c-0.5,0.5-1.1,0.9-1.4,1.5
	C519.9,34.5,520.3,35.1,520.7,36.4z M483.7,24.9c-0.2-0.2-0.4-0.4-0.6-0.6c-0.7,0.3-1.4,0.6-2,1.1c-0.3,0.2-0.4,0.7-0.6,1.1
	c0.5,0,1.2,0.3,1.6,0C482.7,26.1,483.1,25.5,483.7,24.9z M263,48.8c0.2,0,0.4,0.1,0.5,0.1c0.4-1,0.8-1.9,1.2-2.9
	c0.1-0.2-0.2-0.5-0.3-0.8c-0.4,0.2-1,0.3-1,0.6C263.1,46.8,263.1,47.8,263,48.8z M626.3,20.7c-0.4,0-0.7,0-1.1,0.1
	c0.3,1.3,0.5,2.6,0.8,3.9c0.2,0,0.3,0,0.5-0.1C626.5,23.3,626.4,22,626.3,20.7z M618.9,80.4c-0.2-0.7-0.3-1-0.4-1.3
	c-0.7,0.6-1.3,1.1-2,1.7c0.2,0.2,0.5,0.5,0.6,0.5C617.7,81.1,618.3,80.7,618.9,80.4z M47.9,25.8c0.3-0.5,0.5-0.7,0.5-0.8
	c-0.1-0.8-0.2-1.5-0.4-2.3c0,0-0.5,0.1-0.8,0.1C47.4,23.7,47.6,24.6,47.9,25.8z M17.7,46.8c0.2,0,0.3,0,0.5,0c0-1.1,0-2.3,0-3.4
	c-0.2,0-0.3,0-0.5,0C17.7,44.5,17.7,45.7,17.7,46.8z M560.1,521.7c-0.3-0.4-0.7-0.8-1.1-1.2c-0.1,0.3-0.3,0.6-0.2,0.8
	c0.2,0.5,0.6,0.8,1,1.2C559.9,522.3,560,522.1,560.1,521.7z M440.6,550.4c0.1,0,0.3,0,0.4,0c0.1-0.6,0.2-1.1,0.2-1.7
	c0-0.3-0.3-0.6-0.5-0.9c-0.1,0.3-0.3,0.5-0.3,0.8C440.5,549.2,440.6,549.8,440.6,550.4z M567.1,526.9c-0.3,0.6-0.5,1-0.6,1.4
	c0,0.3,0.2,0.6,0.3,0.9c0.4-0.3,0.9-0.5,1-0.8C568,528,567.5,527.6,567.1,526.9z M500,37.7c-0.8-0.9-1-1.1-1.2-1.3
	c-0.3,0.5-0.7,0.9-1,1.4c0,0,0.4,0.5,0.5,0.5C498.9,38.1,499.5,37.9,500,37.7z M43.6,8.2c-0.4,0.3-0.9,0.7-1.4,1
	c0.3,0.1,0.6,0.4,0.8,0.3c0.5-0.2,0.9-0.6,1.3-0.9C44.2,8.6,44,8.4,43.6,8.2z M406,19.9c0.1,0.3,0.2,0.6,0.5,0.8
	c0.1,0.1,0.5-0.1,0.7-0.2c-0.1-0.3-0.2-0.7-0.4-0.8C406.6,19.6,406.2,19.8,406,19.9z M613.8,84.5c-0.2,0.3-0.4,0.7-0.5,1
	c0.2,0.1,0.5,0.3,0.7,0.2c0.2-0.1,0.4-0.4,0.5-0.6C614.5,85,614.1,84.8,613.8,84.5z M606.5,31.3c-0.1,0.8-0.1,1.3-0.1,1.7
	c0,0,0.5,0.1,0.5,0c0.1-0.3,0.1-0.6,0.1-0.9C607,32,606.8,31.8,606.5,31.3z M413.9,530.9c0-0.2,0-0.3,0.1-0.5
	c-0.2,0-0.4,0.1-0.5,0.1c0.1,0.1,0.1,0.3,0.2,0.4C413.6,531,413.8,530.9,413.9,530.9z M436.3,4.8c-0.1-0.1-0.2-0.3-0.3-0.4
	c-0.1,0.1-0.3,0.3-0.3,0.3c0.1,0.2,0.3,0.3,0.4,0.5C436.2,5.1,436.3,4.9,436.3,4.8z M552.7,554.8c-0.1-0.1-0.1-0.3-0.2-0.4
	c-0.1,0.1-0.2,0.1-0.3,0.2c0.1,0.2,0.2,0.4,0.4,0.6C552.6,555.1,552.6,555,552.7,554.8z M457.5,542.8c-0.1,0-0.3,0-0.3,0.1
	c-0.1,0.1-0.1,0.3-0.1,0.5c0.2,0,0.4-0.1,0.6-0.1C457.6,543.1,457.5,543,457.5,542.8z M455.6,33.3c0-0.2,0-0.3,0.1-0.5
	c-0.2,0-0.4,0.1-0.6,0.1c0.1,0.1,0.1,0.3,0.2,0.4C455.3,33.4,455.5,33.3,455.6,33.3z M456.7,546.1c-0.1-0.1-0.1-0.3-0.2-0.4
	c-0.1,0.1-0.2,0.1-0.3,0.2c0.1,0.2,0.3,0.4,0.4,0.6C456.5,546.3,456.6,546.2,456.7,546.1z M521.5,40.4c-0.1,0-0.3,0-0.3,0.1
	c-0.1,0.1-0.1,0.3-0.1,0.4c0.2,0,0.4-0.1,0.6-0.1C521.6,40.7,521.6,40.5,521.5,40.4z"/>
<path d="M519.6,419.5c3-1.6,5.2-3.2,7.7-4.1c3.7-1.2,6.5,0,8.5,3.4c1.7,2.7,2.4,5.6,2.1,9c-0.5,6-3.7,10.6-6.4,15.7
	c-3.3,6.3-8.3,11.4-12.3,17.2c-0.4,0.6-1.2,1.1-1.7,1.6c-5.8-7-10.6-14.2-11.4-23.5c-0.1-1.6-0.9-3.1-1.4-4.6
	c-2.2-7.6,2.8-14.5,7.4-17.3c2.6-1.5,3.6-1.3,6,0.8C518.8,418.4,519.3,419.1,519.6,419.5z M516,419.1c0.2,0.1,0.3,0.3,0.5,0.4
	C516.4,419.3,516.2,419.2,516,419.1c-0.3-0.3-0.6-0.5-0.9-0.8c-0.1,0.2-0.2,0.3-0.3,0.5C515.2,418.9,515.6,419,516,419.1z
	 M535.4,427.8c-1.8,1.7-0.6,3.9-1,5.8c-0.3,0.3-0.5,0.6-0.8,0.9c0.2,0.1,0.3,0.2,0.5,0.3c0.1-0.4,0.2-0.8,0.3-1.3
	C536.2,431.9,535.1,429.7,535.4,427.8c0.3-0.5,0.6-0.9,0.8-1.4c0.1-0.2-0.2-0.5-0.3-0.8c-0.2,0.3-0.5,0.6-0.5,0.9
	C535.4,426.9,535.5,427.3,535.4,427.8z M520.9,442.3c0.6,0.4,1.6,0.6,1.8,1.1c0.3,0.9,0.2,1.9,0.2,2.9c0,1.6,1.1,2,2.2,1.7
	c0.9-0.3,2-1.1,2.4-2c2.6-6.8,6.2-13.3,6.5-21c0.1-2.1-0.4-3.4-2.1-4.3c-5.5-3.1-7.3-2.7-10.7,2.6c-0.2,0.3-0.3,0.6-0.5,0.8
	c-0.8,0.8-1.7,0.9-2.5,0c-0.5-0.6-0.7-1.5-1.2-2.1c-1.9-2.3-4.8-2.4-7-0.4c-2.3,2-3.3,4.7-3.6,7.6c-0.3,3.2,1.2,5.9,1.7,8.9
	c1.3,7.7,4.1,14.5,10,20.2c2.3-2.6,4.5-5,6.8-7.6c-0.8-0.4-1.1-0.6-1.4-0.6c-2.6,0-2.6,0-2.6-2.2
	C520.9,446.1,520.9,444.2,520.9,442.3L520.9,442.3z M533.8,419.4c-0.7-0.6-1-1-1.4-1.1c-0.4-0.1-0.8,0.1-1.3,0.2
	c0.3,0.3,0.6,0.6,1,0.8C532.5,419.4,532.9,419.3,533.8,419.4z"/>
<path d="M517,477.6c2.5-1.2,4.5-2.5,6.8-3.2c3.3-1,6.7,1.5,6.7,5c0,3-0.3,6.1-1.2,9c-2.5,7.7-5,15.5-8.7,22.7
	c-0.8,1.5-1.1,3.3-1.6,5c-0.8,2.9-1.7,3.4-3.9,1.8c-3.7-2.6-6.9-5.8-8.7-10.1c-2.3-5.6-4.5-11.3-5.5-17.3c-0.7-4.3-1.1-8.6,1.2-12.7
	c3.4-6.1,9.4-6.7,14-1.2C516.4,477,516.7,477.3,517,477.6z M520.9,506.3c0.3-0.3,0.5-0.6,0.8-1c-0.2-0.1-0.3-0.2-0.5-0.3
	C521.1,505.5,521,505.9,520.9,506.3c-0.1,0-0.3,0.1-0.4,0.2c-0.1,0.1-0.1,0.2-0.1,0.3C520.6,506.7,520.7,506.5,520.9,506.3z
	 M525.7,477.2c-0.3-0.3-0.6-0.5-0.9-0.8c-0.1,0.2-0.2,0.3-0.3,0.5C524.9,477,525.3,477.1,525.7,477.2c0.7,0.6,1.3,1.3,1.9,1.9
	c0.1,0.1,0.1,0.3,0.2,0.4c0.1,0.1,0.2,0.1,0.3,0.1c-0.2-0.2-0.3-0.3-0.5-0.5C527.7,477.9,527.1,477.2,525.7,477.2z M527.1,486.3
	c-0.2-2.3-0.3-3.6-0.5-4.8c-0.3-1.7-2.5-3.7-4-3.7c-1.6,0-2.5,1.2-3.2,2.5c-0.1,0.3-0.2,0.6-0.4,0.9c-1.4,2.2-1.6,2.3-3.3,0.2
	c-1.9-2.3-3.9-4.1-7-4.6c-3-0.4-4-0.2-5.1,2.6c-1.5,3.7-1.5,7.5-0.5,11.4c1.1,4.5,2.7,8.8,4.1,13.2c1.3,4.1,3.4,7.2,6.4,9.9
	c2,1.8,2.7,1.5,3.6-1.1c0.4-1.1,0.7-2.2,0.7-3.2c0-2.1,0.4-4.1,1.4-6c2.1-4.1,4.2-8.2,6.2-12.4C526.3,489.3,526.8,487.3,527.1,486.3
	z"/>
<path d="M528.5,528.8c-0.3-0.1-0.8-0.1-0.9-0.2c-0.5-1.2-0.9-2.5-1.3-3.8c0-0.1,0.5-0.3,0.8-0.5c0.5,1.1,1.1,2.2,1.6,3.3
	c0.1,0.3,0.1,0.6,0.1,1L528.5,528.8z"/>
<path d="M516.8,429.9c-1.2,2.1-1.3,2.2-2.7,0.9c-1-0.9-1,0-1.1,0.4c-0.4,1.2-0.7,2.4-1.1,3.6c-0.7-2.1-0.4-6.6,0.6-8.2
	c0.1-0.2,1.4-0.1,1.4,0.1c0.6,2.1,1.3,2.6,2.5,0.4c0.3-0.5,1-0.7,1.5-1.1c0.1,0.7,0.3,1.3,0.4,2c0.2,2.2,0.4,4.4,0.6,6.6
	c0,0.2-0.5,0.6-0.6,0.6c-0.4-0.1-1-0.4-1-0.7C516.9,433.1,516.9,431.7,516.8,429.9z"/>
<path d="M528.5,432.6c-7.2,3.3-6.6,1.9-6.6-3.4c0-1-0.1-1.9,0.1-2.9c0.2-1.6,1.5-1.5,2.6-1.3c1,0.2,0.7,0.6,0,1.1
	c-0.5,0.3-0.8,0.9-1.2,1.3c0.6,0.1,1.2,0.1,1.8,0.2c0.4,0,0.8,0.1,1.3,0.1c-0.2,0.4-0.4,1-0.7,1c-1.6,0.3-2.2,1.2-1.9,2.7
	c0.4,1.6,1.7,1.1,2.8,1.2C527,432.6,527.4,432.6,528.5,432.6z"/>
<path d="M520.9,442.3c-1.5-0.6-3.1-1.2-4.9-2c3.7-2.8,3.7-2.8,7.7-2.6c-1,0.7-1.6,1.4-2.3,1.6C519.1,440,520.7,441.3,520.9,442.3
	L520.9,442.3z"/>
<path d="M517.1,444.3c0.2,2,0.4,4,0.5,6.1c0,0.4-0.2,0.8-0.3,1.2c-0.4-0.3-1.1-0.5-1.3-0.9c-0.4-0.8-0.5-1.8-1-2.7
	c-0.6-1.2-1.4-2.3-2.1-3.5c1.1-0.1,2.5-0.3,3.9-0.4L517.1,444.3z"/>
<path d="M516.9,444.1c0.1-0.4,0.3-0.8,0.4-1.2c0.2,0.1,0.5,0.4,0.5,0.4c-0.2,0.4-0.5,0.7-0.7,1L516.9,444.1z"/>
<path d="M527.9,432.2c0.1,0,0.2-0.1,0.3-0.1c0,0.1,0,0.3-0.1,0.3c-0.1,0.1-0.3,0.1-0.4,0.2C527.7,432.5,527.8,432.3,527.9,432.2z"/>
<path d="M516.5,492.1c-0.1,0-0.4,0.3-0.7,0.2c-1.6-0.1-3.1-0.1-2.7-2.5c0.1-0.8-0.1-1.1-1.3-1.3c-2.6-0.4-2.6-0.6-3.3,1.3
	c-0.2,0.6-0.3,1.3-0.6,1.8c-0.2,0.3-0.7,0.3-1.1,0.5c-0.1-0.3-0.4-0.6-0.3-0.9c0.7-2,1.4-3.9,2.2-5.8c0.5-1.2,1.2-1.2,2.1-0.1
	c0.2,0.2,1.3-0.2,2-0.4c0.6-0.2,1.1-0.4,1.7-0.7c0,0.7,0.1,1.4,0.1,2.1c0,1.1-0.1,2.2-0.1,3.3c0,0.3,0.7,0.8,1,0.8
	c0.5-0.1,1.3-0.4,1.4-0.8c0.3-0.7,0.2-1.6,0.2-2.4c0.2-2.9,0.2-2.9,2.8-3.2c0.6-0.1,1.2,0.3,1.8,0.4c-0.4,0.5-0.9,1-1.3,1.5
	c-0.1,0.2-0.2,0.7-0.2,0.7c3.3,0.8,0.6,1.6-0.1,2.1c-0.8,0.7-1,1.2,0,1.7c0.4,0.2,0.9,0.3,1.3,0.5c-0.5,0.4-0.9,1-1.4,1
	C518.9,492.3,517.8,492.2,516.5,492.1z"/>
<path d="M516.8,497.5c-2.6,0.5,0.2,3.7-2.5,3.5c-1.8-0.1-4.3-2.3-3.8-2.9c1-1.1,2.2-2.2,3.5-2.7
	C514.5,495.2,515.7,496.6,516.8,497.5z"/>
<path d="M517.1,502.7c-0.9,0.8-2.2,1.4-2.7,2.5c-0.5,1.1-0.2,2.5-0.4,3.8c0,0.3-0.6,0.6-0.8,0.9c-0.3-0.3-0.7-0.6-0.9-0.9
	c-0.2-0.4,0-1-0.2-1.4c-0.4-1.2-0.9-2.4-1.3-3.7c1.3-0.5,2.7-0.9,4-1.4c0.6-0.2,1.1-0.4,1.7-0.6
	C516.7,502.2,516.9,502.4,517.1,502.7z"/>
<path d="M523.6,490.6c-0.1,0.2-0.2,0.4-0.3,0.7c-0.1-0.1-0.3-0.2-0.3-0.3c0.1-0.2,0.2-0.5,0.3-0.7
	C523.4,490.4,523.5,490.5,523.6,490.6z"/>
<path d="M515.9,509.5c-0.1,0.1-0.2,0.2-0.3,0.3c-0.1-0.3-0.2-0.5-0.3-0.8c0-0.1,0.2-0.2,0.3-0.3C515.7,509,515.8,509.2,515.9,509.5z
	"/>
</svg>
