<?xml version="1.0" encoding="utf-8"?>
<!-- Generator: Adobe Illustrator 18.0.0, SVG Export Plug-In . SVG Version: 6.00 Build 0)  -->
<!DOCTYPE svg PUBLIC "-//W3C//DTD SVG 1.1//EN" "http://www.w3.org/Graphics/SVG/1.1/DTD/svg11.dtd">
<svg version="1.1" id="Layer_1" xmlns="http://www.w3.org/2000/svg" xmlns:xlink="http://www.w3.org/1999/xlink" x="0px" y="0px"
	 viewBox="0 0 612 792" enable-background="new 0 0 612 792" xml:space="preserve">
<path d="M-58.5,744.3c2.3-1.2,4.5-2.4,6.8-3.5c2.3-1.1,4.5-2.4,7-3.2c7.2-2.2,14.4-4.2,21.7-6.2c4.9-1.3,9.9-2.5,14.9-3.7
	c2.4-0.6,4-2,4.7-4.3c0.3-1,0.2-1.8-1-2.2c-2.8-1.1-5.6-2.3-8.8-2c-3,0.3-6,0.1-8.9,0.1c2.7-4.8,10-6.4,20.8-4.3
	c-1.7-3.6-1.6-7.5-4.3-10.6c-0.6-0.7-1.7-1.9-0.5-3c1.2-1.1,2.7-1.1,4-0.1c2.7,2,4.1,4.9,4.8,8.1c0.2,0.8,0.1,1.6,0.1,2.2
	c3.8-4.1,7.6-8.3,11.5-12.4c0.7-0.7,1.4-1.4,2.2-1.9c0.3-0.2,1-0.2,1.2,0c0.3,0.2,0.5,0.9,0.4,1.3c-0.3,0.7-0.7,1.4-1.3,2
	c-1.3,1.4-2.6,2.8-4.1,4.1c-4.2,3.6-6.4,8.4-8.1,13.4c-1.9,2.3-0.8,4.2,0.4,6.4c1.9-2.4,0.6-4.4-0.4-6.3c3.2-1.8,6.5-3.6,9.7-5.3
	c0.4-0.2,1.4,0,1.6,0.3c0.2,0.4,0.1,1.4-0.2,1.7c-1.8,1.8-3.7,3.5-5.7,5.3c-1.5,1.3-2.4,2.8-2.8,4.9c-0.4,1.8-0.2,2.9,0.9,4.3
	c1.1,1.3,2,3.1,2.1,4.7c0.2,3.3,0.8,6.3,1.9,9.4c0.8,2.2,0.8,4.7,1.2,7.1c0.5,3.1,1.5,3.9,4.5,3.5c0.6-0.1,1.2-0.5,1.8-0.6
	c1.3-0.3,2.9,1.8,3.9-0.1c0.6-1,0.1-2.6,0.4-3.8c1.3-5-0.8-9.8-1.2-14.6c-0.4-4.4-1.6-8.8-2.3-13.2c-0.1-0.4,0.3-0.8,0.4-1.2
	c0.4,0.2,1,0.4,1.1,0.7c0.4,1.9,1,1.7,1.9,0.3c1.2-1.8,1.9-3.5,0.5-5.6c-1.1-1.6-1.7-3.4-2.5-5.2c-0.3-0.7-0.7-1.5-0.7-2.2
	c0-0.5,0.4-1.2,0.8-1.5c0.2-0.2,1,0.1,1.2,0.4c0.8,1,1.6,2,2.3,3.1c0.6,1,1,2,1.5,3c0.6,1.3,1.4,2.1,3,1.4c0.6-0.3,1.5,0,2.2,0
	c-0.2,0.7-0.2,1.4-0.5,2.1c-0.5,1.2-1.2,2.3-1.7,3.4c-0.1,0.3,0.1,1.1,0.3,1.3c0.5,0.3,1.4,0.5,1.7,0.2c1.2-0.8,2.1-1.9,3.3-2.8
	c0.8-0.6,1.6-1,2.5-1.4c0.3-0.1,1,0,1.2,0.3c0.3,0.3,0.4,1,0.2,1.3c-0.9,2-1.9,4-3,6c-0.1,0.3-0.8,0.4-1.2,0.4
	c-0.2,0-0.5-0.5-0.4-0.7c0.2-1.2,0.6-2.5,0.9-3.7c0.1-0.1,0.3-0.1,0.4-0.2c0.1-0.1,0.1-0.2,0.1-0.3c-0.2,0.2-0.3,0.3-0.5,0.5
	c-1.1,1.3-2.5,2.5-3.3,4c-0.9,1.5,0.1,2.7,2,3c1.7,0.3,3.5,0.6,5.2,0.8c3.5,0.4,5.8,2.8,7.9,5.1c2.6,3,5.4,5.5,9,7.2
	c1.1,0.5,2.1,1.5,3.2,2.2c4.9,3.2,10,4.4,15.2,0.5c-1.7-4.4-4.9-7.6-8.8-10.6c-2.8-2.2-4.8-5.5-7-8.4c-1-1.4-1.7-2.2-3.4-0.9
	c-1.5,1.2-1.4-0.2-1.3-1.2c0.1-0.9,0.6-2.3,0.3-2.6c-2.2-2.2-0.5-3.5,0.9-4.7c2.2-1.9,3-3.8,1.9-6.8c-1-2.8-0.1-5.7,1-8.5
	c0.2-0.4,0.7-1,1-0.9c0.5,0.1,1.3,0.5,1.4,0.9c0.5,2,1,4,1.3,6.1c0.3,2.1,0.8,2.6,2.8,1.6c2.8-1.4,5.5-2.3,8.7-2.6
	c1.6-0.1,3.1-2.3,4.6-3.7c0.1-0.1-0.6-1.6-1.2-1.9c-5-2.3-7.2-7.6-11.4-10.6c-0.8-0.6-1.6-1.8-1.6-2.8c-0.2-5.6-0.2-11.2,2.2-16.6
	c3.4-7.8,6.4-15.8,9.5-23.7c4.1-10.3,8.4-20.5,12.4-30.9c3.1-8.1,6.2-16.2,8.6-24.6c3.2-11,6.6-21.8,12.3-31.8
	c3.4-6.2,6.1-12.7,9.3-19.1c2.8-5.6,6-11.1,8.7-16.7c2.4-4.9,4.3-10.1,6.7-14.9c1.9-3.9,4.2-7.6,6.5-11.3c8-12.6,16.7-24.9,24-37.9
	c4.8-8.5,10.5-16.6,14.6-25.5c1.9-4.1,4.5-7.8,6.8-11.7c3.2-5.6,6.2-11.2,9.5-16.7c2.3-3.8,4.7-7.7,7.6-11.1
	c7.2-8.3,13-17.6,19.2-26.5c3.9-5.5,7.5-11.3,11.3-16.8c1.9-2.8,4-5.4,6.2-8c3.2-3.8,6.6-7.5,10-11.1c5.6-6,11.4-11.9,16.9-18
	c5.7-6.3,10.7-13.3,15.9-20c5-6.5,10.4-12.7,15.5-19.1c3.2-4.1,7.4-7.6,8.8-13c0.6-2.4,2.2-4.2,4.6-5.4c1.4-0.7,2.7-1.7,3.9-2.8
	c4.6-4.1,8-8.8,7-15.5c-0.2-1.2,0-2.5,0-4.6c-3.4,1.8-6.1,3.3-8.9,4.8c-1.1,0.6-2.3,0.9-3.5,1.4c0,0-0.4-0.3-0.4-0.3
	c0.9-1.5,1.9-2.9,2.8-4.4c0.2-0.4,0.2-1,0-1.4c-0.1-0.2-0.8-0.2-1.2-0.1c-0.3,0-0.6,0.2-0.9,0.2c-5.6,1.1-5.7,1.1-4.3-4.7
	c0.4-1.5,0.9-3,1.5-4.7c-3.9-0.7-7.2,0.9-10.5,2c-2.7,0.9-5,0.5-7.5-0.4c-0.3-0.1-0.8-0.7-0.7-1c0.1-0.3,0.6-0.8,1-0.8
	c3.4-0.2,5.3-2.4,7.2-5c3-4.1,6.3-7.9,10-12.5c-1.8,0.2-2.9,0.2-3.9,0.5c-1.8,0.6-3.5,1.6-5.4,2.1c-1.6,0.5-2.5,1.1-2.5,2.9
	c0,0.7-0.5,1.5-0.8,2.2c-0.6,1.4-1.4,2.1-2.9,0.7c-0.9-0.9-2-1.5-3.8-2.9c1.1,3.7,0.2,6.4-0.6,9.2c-0.9,2.9-2.8,4.6-4.8,6.5
	c-0.3,0.3-1.1,0.4-1.6,0.2c-0.3-0.1-0.7-0.9-0.6-1.2c1.4-3.5,0.4-6.6-1.1-9.7c-0.5-1.1-0.7-2.3-1-3.5c-1.2,0.7-2.5,1.3-3.7,2.1
	c-1.2,0.7-0.9,1.7-0.6,2.9c0.6,2.6-0.6,3.9-3,3c-2.7-1-4.3,0.2-6.1,1.6c-5.7,4.7-11.4,9.4-17.1,14.1c-11.1,9.1-21.8,18.6-31.7,29
	c-4.5,4.6-8.5,9.6-12.7,14.5c-5.6,6.6-11.2,13.3-15.8,20.6c-6,9.5-12.4,18.8-17.4,28.9c-2.1,4.2-4.6,8.1-7.1,12
	c-9.9,15.2-20,30.4-30,45.5c-8.6,13-17.1,26.1-24.3,39.9c-5.4,10.2-11.7,20-17.3,30.1c-6.1,11.1-12.1,22.4-17.8,33.8
	c-2.7,5.4-4.5,11.3-6.9,17c-5.4,13.1-10.1,26.4-16.3,39.2c-5.4,11.2-12.1,21.6-18.3,32.2c-3.3,5.7-6.1,11.7-8.7,17.8
	c-4.4,10.2-8.4,20.5-12.6,30.8c-2.3,5.7-4.7,11.3-6.9,17c-4.1,10.2-9.6,19.7-14.5,29.4c-2.4,4.7-4.8,9.5-7.1,14.3
	c-1.7,3.7-3.5,7.1-6.4,10.1c-3.1,3.2-6.4,6.4-6.9,11.2c-0.1,0.8,0,1.6,0,3.1c2-2.3,3.4-4,4.9-5.7c0.2,0.1,0.5,0.3,0.7,0.4
	c-0.6,1.2-1.1,2.5-1.9,3.6c-1.2,1.6-3.2,2.8-3.1,5.2c0,0.3-0.2,0.7-0.5,0.8c-4.8,2.3-8.1,6.7-12.7,9.3c-5,2.9-9.5,6.5-13.8,10.4
	c0-1,0-1.9,0-2.9c4.1-3,8.2-5.9,12.6-9.1c-4.5,0.1-8.6,0.2-12.6,0.4c0-0.6,0-1.3,0-1.9c3.7,0,7.4,0,11.1-0.1c1.7-0.1,3.7-0.2,5.1-1
	c2-1.2,4-2.8,5.3-4.7c0.6-0.9-0.3-2.9-0.5-4.6c-8,1.4-14.8,4.8-21,9.5c0-1,0-1.9,0-2.9c2.7-1.4,5.5-2.6,8.1-4.1
	c1.9-1,1.8-1.5,0.3-4.9c-0.2,0.2-0.4,0.3-0.5,0.6c-0.5,1.3,0.6,4.1-2,3.3c-2.1-0.6-0.2-2.7,0.2-3.7c1.4-3.6,0.6-6.6-1.2-9.6
	c-0.4-0.7-1-1.3-1.3-2c-0.1-0.3,0-1,0.3-1.2c0.3-0.2,1-0.2,1.2,0c1.2,1.1,2.3,2.2,3.5,3.3c0.9,0.9,1.6,0.6,2.2-0.5
	c1.2-1.9,2.5-3.7,3.8-5.5c0.2-0.3,0.9-0.6,1.1-0.5c0.3,0.1,0.6,0.7,0.7,1.1c0.1,0.5,0.1,1,0.1,1.4c-0.2,2.5,0,4.6,2.6,6.1
	c1.4,0.8,2.3,2.6,3.7,4.3c0.5-2,0.9-3.6,1.3-5.2c0.7-2.9,1.9-5.5,4.4-7.3c0.5-0.4,1.1-0.5,1.7-0.7c0.2,0.7,0.4,1.4,0.5,2.1
	c0.1,0.4-0.1,0.8-0.3,1.6c3.2-1.4,4.8-4,5.9-6.5c4.6-10.7,10-20.9,15.7-31c5.2-9.3,8.9-19.3,12.8-29.1c5.4-13.4,10.3-27.1,16.3-40.2
	c4-8.7,9.4-16.8,14.4-25.1c3.1-5.2,6.5-10.3,8.5-16.2c0.4-1.2,1.1-2.4,1.7-3.5c5.9-10.6,9.9-22,14.4-33.2c3.8-9.4,7.3-18.9,11.7-28
	c4.6-9.6,10-18.7,15-28.1c3.6-6.6,7.2-13.3,11-19.9c9.2-16,18.1-32.3,28.5-47.6c9.2-13.4,18.1-27,26.8-40.7c6-9.4,11.3-19.1,17-28.6
	c7.5-12.5,15.3-24.9,24.5-36.4c7.9-9.9,16.1-19.3,25.3-27.9c10.4-9.9,20.8-19.7,32.2-28.4c3.4-2.6,6.8-5.4,10.2-8.1
	c2.5-2,2.5-2.3,1.2-5.2c-1-2.2-1.8-4.5-2.7-6.7c-0.1-0.3-0.5-0.6-0.8-0.9c-0.3,0.4-0.8,0.7-0.8,1.1c-0.1,0.9-0.1,1.9,0.1,2.8
	c0.9,4.8-1.7,11.2-5.9,13.7c-2.7,1.7-5.6,3.1-8.5,4.6c-1,0.5-1.6-0.3-1.5-1.1c0.2-1.9,0.6-3.7,0.3-5.9c-0.8,0.9-1.5,1.8-2.3,2.7
	c-1.6,2-2.2,2.1-3.6,0.3c-1.8-2.3-3.5-4.5-5.5-7c-1,0.9-2.1,1.6-2.8,2.6c-1.5,2.6-4,4.1-6.2,6c-1.1,1-1.5,2-0.6,3.4
	c0.6,0.9,1.1,2,1.5,3c0.3,0.8,0.6,2.1,0.2,2.6c-0.5,0.6-1.8,0.8-2.6,0.6c-1.4-0.3-2.9-0.8-3.9-1.8c-3-3-6.8-5.2-8.6-9.3
	c-0.3-0.7-0.9-1.3-1.4-2c-0.9,1.4-1.7,2.8-2.7,4.1c-0.7,0.8-1.7,1.4-2.5,2.1c-0.6-0.9-1.2-1.7-1.9-2.6c-0.1-0.1-0.1-0.3-0.1-0.5
	c0.1-2.2-1.2-2.7-3.1-2.5c-0.5,0-1,0.1-1.5,0c-2.1-0.2-2.6-0.8-1.9-2.7c0.3-0.9,0.8-1.7,1.2-2.7c-2-0.8-3.2,0.7-4.6,1.2
	c-1,0.4-1.7,0.9-1,2.1c0.1,0.3,0.1,0.6,0.1,0.9c-0.2,5.9-0.6,6.2-5.7,3.2c-1.5-0.9-2.9-1.9-4.1-3.2c-1.1-1.1-4-0.4-3.3-3.3
	c-1.6-0.7-3.2-1.3-4.8-2c-1.1,2.1,0.1,3.6,0.8,5.2c0.7,1.7,0.3,2.2-1.6,2.2c-2.2,0-4-1-5.6-2.5c-1.4-1.3-2.7-2.7-4.7-4.6
	c0,2-0.1,3.2,0,4.5c0.2,2.4-0.9,4.4-2,6.3c-0.2,0.4-1.3,0.7-1.4,0.6c-2.6-2.6-2.2-0.1-2.4,1.4c-0.1,0.6-0.2,1.3-0.5,1.8
	c-0.6,1.2-1.8,1.3-2.5,0c-1.2-2.1-2.3-4.2-3.6-6.5c-1.4,0.6-2.8,1.3-4.2,2c-3,1.3-3.1,1.3-4-2.4c-2.3,1.1-4.5,2.2-6.7,3.2
	c-2.2,1-4.3,1.2-6.4-0.3c-1.3-0.9-2.9-1.5-4.7-2.4c-0.4,2.3-0.9,4.5-1.1,6.6c-0.1,0.5,0.8,1.1,1.2,1.7c0.5-0.5,1.3-0.9,1.4-1.5
	c0.3-1.2,0.2-2.4,1-3.8c0.9,2.2,1.9,4.4,3,7.1c-1.8,0.5-3.5,0.9-5.2,1.3c-2.7,0.8-3,1.7-2.3,4.4c0.5,2.3,0.6,4.7,0.6,7.1
	c0,0.7-1.1,1.5-1.9,1.9c-0.4,0.2-1.4-0.5-1.9-1c-1.7-1.5-3.3-3.1-4.8-4.7c-0.3-0.3-0.3-1-0.4-1.5c0.6-0.1,1.3-0.4,1.8-0.2
	c1,0.6,1.8,1.3,2.6,2.1c0.7,0.7,1.2,1.5,2.2,2.6c1-2,0.8-3.3,0.4-4.6c-0.5-1.4-1-2.4-3.1-1.7c-1.8,0.6-4.2,0.4-6.1-0.3
	c-2.4-0.8-2.3-2.6-0.3-4.2c1.7-1.4,3.4-2.9,5-4.5c0.4-0.4,0.5-1.6,0.2-2c-0.4-0.5-1.4-0.5-2.1-0.6c-0.2,0-0.5,0.4-0.8,0.5
	c-2.4,1.7-5,1.8-8.4-0.5c1.3,2.8,2.3,4.2,3.7,5.5c0.3,0.3,0.2,1.3-0.1,1.6c-0.3,0.3-1.2,0.3-1.6,0.1c-1.1-0.8-2-2.4-3.1-2.5
	c-0.8-0.1-1.8,1.6-2.8,2.4c-0.5,0.4-1.1,0.5-1.6,0.8c-0.3-0.7-0.7-1.3-0.9-2c-0.2-1.1-0.3-2.2-0.5-3.8c-1.6,1.6-2.6,3-3.9,4.1
	c-0.6,0.5-1.7,0.6-2.6,0.8c-0.2-0.9-0.9-1.9-0.6-2.6c1-2.2,0.2-4.1-0.7-6c-0.6-1.3-1.6-2.5-2.7-3.3c-0.4-0.2-1.8,1.4-2.8,2.1
	c-1.2,0.8-2.5,1.6-3.8,2c-1,0.3-2.1-0.2-3.2-0.4c0.3-0.8,0.7-1.7,1-2.5c0.8-2.3,1.7-4.7,2.8-7.8c-1.2,0.8-1.6,1-1.9,1.4
	c-2.6,2.8-6.8,2.3-9.4,4.3c-2.6,2-4.6,4.8-8.2,5.3c-0.4,0.1-0.9,0.3-1.2,0.7c-0.3,0.3-0.5,0.9-0.4,1.3c0.1,0.3,0.7,0.6,1.1,0.6
	c0.4,0,0.9-0.2,1.4-0.4c0.8-0.3,1.7-0.5,1.8,0.6c0,0.6-0.6,1.4-1.1,1.7c-0.8,0.5-1.8,0.8-2.7,1c-1.4,0.3-2.4,0.2-2.9-1.6
	c-0.3-1.3-1.1-2.7-2-3.6c-1.5-1.5-2.3-2.7-0.5-4.4c0.2-0.2,0-0.9-0.3-1.2c-0.3-0.3-1-0.6-1.3-0.4c-1.3,0.9-2.5,1.9-3.7,3
	c-1.3,1.2-2.4,2.7-3.7,3.8c-1.5,1.3-1.9,1-2.7-1.1c-0.1-0.4-0.5-1-0.6-0.9c-0.5,0.2-1.3,0.4-1.5,0.9c-0.3,0.7-0.2,1.6-0.2,2.4
	c-0.3,3.8-2.1,7-4.4,10c-0.5,0.7-1.5,1.1-2.4,1.6c-1.2,0.6-1.9,0.1-2-1.1c-0.1-1.6,0.1-3.2,0-4.8c-0.3-2.3-0.8-4.6-1.2-7.3
	c-4.9,3.1-8.8,6.1-11.8,10.5c-1.9,2.8-4.8,4.7-8.6,4.3c-1.2-0.1-1.6-0.9-1.6-2c3.7-0.9,2.4-4.1,3.6-7c-1.2,0.6-2,0.8-2.6,1.2
	c-0.3,0.3-0.1,1-0.2,1.6c-0.3,1.4-0.6,2.7-0.8,4.1c-2.1,2.3-3.2,5.6-6.4,6.9c-0.7,0.3-1.6,0.6-2.1,0.3c-0.4-0.2-0.5-1.4-0.4-2
	c0.5-2.2,1.5-4.2,0.3-6.5c-0.1-0.3,0.3-0.8,0.5-1.3c0.5,0.3,1.3,0.4,1.4,0.8c0.3,1.8,0.5,3.6,0.7,5.6c2.2-1.2,3.2-3.2,3.9-5.3
	c0.5-1.5-0.3-2.3-2-2.4c-3-0.1-6.2,0.6-8.3-1.8c-1.5,2.5-3,4.7-4.1,7.1c-1.5,3.4-3.2,6.8-2.2,10.9c0.9,3.8,0.7,7.7-1,11.3
	c-0.5,1.1-1.3,1.3-2.2,0.4c-1.4-1.3-2.8-2.6-4.3-3.7c-1.6-1.2-2.9-1-3.9,0.9c-1.6,3.1-3.5,6.2-5.1,9.3c-2.4,4.6-6.4,7.1-11.2,8.5
	c-0.5,0.1-1.1-0.3-1.6-0.4c0.2-0.3,0.3-0.8,0.7-1c2.1-1.4,2.7-3.5,2.6-5.9c-0.1-3.1,0-6.1,2.4-8.6c0.2-0.2-0.1-1.5-0.6-1.8
	c-1.6-1.3-3.4-2.4-5.1-3.6c-1.5-1.2-3-2.4-4.4-3.7c-1-0.9-0.2-2.3,0.6-2.1c4.3,1.5,6.7-2,9.9-3.4c2.2-1,4.4-2,6.9-3.2
	c-0.9-0.3-1.3-0.4-1.7-0.6c-3.2-1.3-3.1-1.3-1.5-4.2c0.7-1.3,1.4-2.5,1.9-3.9c0.5-1.2,0.6-2.5,2.3-2.8c0.3-0.1,0.8-0.6,0.9-1
	c1.1-4.3,4-7.6,6.8-10.9c0.9-1.1,1.4-2.5,2.2-3.7c0.6-0.9,1.4-1.8,2.4-2.3c0.4-0.2,1.6,0.3,1.9,0.9c0.7,1.1,0.1,1.3-1,1.2
	c-0.2,0-0.6,0.2-0.8,0.4c-2.6,3.5-5.2,6.9-7.6,10.5c-0.8,1.3-1,3-1.5,4.5c2.4,1.4,3.8-0.9,5.1-1.7c4-2.3,8-5,8.1-10.4
	c0-1.2,0.1-2.5-0.2-3.7c-1.1-3.6-1-7.3,0.2-10.8c0.4-1.2,1.5-2.4,2.5-3.3c1.3-1.2,2.3,0,3.4,0.7c0.3,0.2,0.8,0.1,1.3,0.1
	c0-0.4,0.2-0.9,0-1.3c-0.4-1.4-1-2.7-1.5-4c0.6,0,1.3,0,1.9,0c0.4,0.8,0.8,1.6,1.1,2.3c0.5-0.6,1.1-1.3,1.6-1.9
	c0.1-0.1,0.1-0.3,0.2-0.4c0.6,0,1.3,0,1.9,0c-0.5,1.3-1,2.7-1.5,4c-0.6,1.4-0.3,2.5,0.8,3.4c2.1,1.6,2.9,3.7,2.8,6.3
	c0,1.4,0.7,2.7,1.3,4.9c1.3-4,3.2-6.8,1.7-10.7c-1-2.4-0.9-5.3-1.2-8c0.6,0,1.3,0,1.9,0c0.2,3,0.8,5.8,1.8,8.8c1.7-1.3,3.4-2,4-3.3
	c0.6-1.2,0-3-0.1-4.6c0-0.3,0-0.6,0-1c0.6,0,1.3,0,1.9,0c0.2,3.2,0.3,2.9,3.2,3c3,0.1,1.6-1.7,1.7-3c0.6,0,1.3,0,1.9,0
	c1.1,2.4,2.2,4.8,3.3,7.2c0.2,0,0.4-0.1,0.6-0.1c0-2.4,0-4.8,0-7.1c0.6,0,1.3,0,1.9,0c0,0.8,0.1,1.6,0,2.4c-0.4,2.2,1.3,4.9-1.3,6.7
	c-0.1,0.1,0,0.7,0.2,0.8c0.4,0.2,0.9,0.3,1.2,0.1c0.4-0.2,0.8-0.6,1-1c1.6-2.5,2-6,5.5-7.2c0.2-0.1,0.1-1.2,0.2-1.8
	c0.6,0,1.3,0,1.9,0c0.2,1.6,1.4,3.2-0.6,4.7c-0.6,0.5-0.4,2.2-0.2,3.2c0.9,3.7,0.9,7.7,3.6,11c0.6-1.1,1.1-2.3,1.9-3.3
	c3-3.6,2.1-7.1-0.1-10.6c-1-1.6-1.8-3.4-2.7-5.1c1.3,0,2.6,0,3.9,0c-0.6,1.2-1,2.2-0.2,3.5c1.4,2.3,2.5,4.9,3.8,7.7
	c0.6-2.6,1-4.9,1.6-7.2c0.6-2,1.3-2.3,3.4-1.1c1.1,0.7,1.4,0.2,1.7-0.6c0.3-0.7,0.2-1.6,0.3-2.4c0.6,0,1.3,0,1.9,0
	c-0.3,1.5-0.6,3.1-1,4.6c-0.6,2.4,0.3,4.6,2.2,5.6c1.2,0.6,3-0.7,3.9-3.3c0.8-2.2,1.1-4.6,1.6-6.9c0.6,0,1.3,0,1.9,0
	c0,0.8,0.2,1.6,0.1,2.4c-0.9,4.5,1.2,7.8,4.6,11.1c0.5-1.6,1.1-2.8,1.1-4c0.1-3.1,0.1-6.3,0.1-9.5c0.6,0,1.3,0,1.9,0
	c0.4,2.7-0.8,5.8,1.4,8.2c2.9-0.6,4.2-2.7,5.2-5.1c0.4-1,0.8-2.1,1.1-3.1c0.6,0,1.3,0,1.9,0c0.2,3.1,2,6.1,0.3,9.3
	c3.3-2.4,5.1-5.4,5.5-9.3c1,0,1.9,0,2.9,0c0.7,4.3,2.3,8.6,1.3,13.1c-0.1,0.3,0.3,1,0.6,1c0.4,0.1,1-0.2,1.2-0.5
	c1.9-3.6,5.2-6.8,2.9-11.6c1.6,0,2.8-0.3,3.8,0.1c2.6,0.9,1.5-1.2,1.8-2.1c0.6,0,1.3,0,1.9,0c0,0.8-0.2,1.7,0.1,2.4
	c0.4,0.8,1.1,1.7,1.9,1.8c0.5,0.1,1.4-0.9,1.9-1.5c0.5-0.8,0.7-1.7,1-2.6c0.6,0,1.3,0,1.9,0c-0.3,1.1-0.5,2.2-1,3.1
	c-0.8,1.5-1.1,3-0.4,4.6c0.6,1.6,1.1,3.3,1.6,5c0.2,0.8,0.1,1.7,0.2,2.5c-0.6-0.6-1.4-1.2-1.9-1.9c-0.5-0.8-1.1-1.7-1.2-2.6
	c-0.6-4.1-3.4-5.5-6.9-6.4c-1.3-0.3-1.6,0.1-1.9,1.3c-0.6,3.1,1.6,5.1,2.7,7.5c0.8,1.8,2.5,1.1,3.8,1.5c1.3,0.5,2.6,1.2,3.8,2
	c2.8,1.9,2.8,2,4.2-1.2c0.5-1,0.9-2.1,0.9-3.2c-0.1-3.3,0.3-6.4,1.8-9.4c0.4-0.8,0.2-1.9,0.2-2.9c0.6,0,1.3,0,1.9,0
	c1.8,3,3.6,6.1,5.3,8.9c1.5-3.1,3-6,4.4-8.9c0.6,0,1.3,0,1.9,0c-0.6,1.1-1.3,2.2-1.8,3.4c-0.7,1.6-1.4,3.2-1.9,4.9
	c-0.4,1.2,0.2,2.2,1.5,2.6c1.5,0.6,1.5-0.8,1.9-1.5c0.7-1.4,1.2-3,1.8-4.5c0.4-1,0.7-2.2,1.3-3.1c0.7-1.1,2.2-1.4,2.8-0.2
	c1,1.9,1.8,4.1,2.1,6.3c0.2,1.1-0.5,2.5-1.2,3.5c-2.4,3.4-5.1,6.6-7.6,9.9c-0.5,0.7-0.9,1.6-1.3,2.4c0.9,0.2,1.8,0.4,2.7,0.6
	c4.2,0.9,6.6-3.8,10.6-3.6c0.1,0,0.2-0.2,0.3-0.3c1.4-1.8,1.5-5.4,0.2-7.6c-2.3-3.9-4.2-8-3.5-12.7c0.6,0,1.3,0,1.9,0
	c0,0.5,0.1,1,0,1.4c-0.6,3.4,1.5,6.1,2.6,9.1c0.1,0.3,1.6,0.7,1.9,0.4c1.7-1.5,1.9-4.2,0.2-5.5c-2-1.4-2.6-3.5-3.7-5.5
	c1,0,1.9,0,2.9,0c0,0.2,0,0.3,0,0.5c0,1.3,0.2,3,1.7,3c1.9,0,0.9-2,1.2-3c0-0.1,0-0.3,0-0.5c0.6,0,1.3,0,1.9,0
	c0.4,4.7-0.3,9.2-2.7,13.5c-1.6,2.7-2,6.1-3.2,10c3.3-2.1,6-3.4,8.1-5.3c3.6-3.3,6.4-7.7,3.5-13.7c-0.7-1.4-1.2-2.9-1.7-4.4
	c0.6,0,1.3,0,1.9,0c0.1,0.5,0.1,1,0.3,1.4c0.2,0.4,0.6,0.7,0.9,1c0.2-0.5,0.5-0.9,0.7-1.4c0.1-0.3,0.1-0.6,0.1-0.9
	c0.6,0,1.3,0,1.9,0c-1.6,4.1-0.1,7.9,1.9,11.3c2.1,3.4,4.3,6.9,8.7,8.7c0-1.3,0.3-2.3-0.1-3.2c-0.7-1.9-2.5-3.6-2.4-5.4
	c0.1-2,0.4-3.9,0.1-6c-0.5-2.9-3.4-3.2-4.3-5.4c1.3,0,2.6,0,3.9,0c1.3,2.6,2.6,5.2,3.9,7.8c-0.2,0.3-0.5,0.6-0.7,0.9
	c0.2,0.1,0.3,0.2,0.5,0.3c0.1-0.4,0.2-0.8,0.2-1.2c2.1-2.4,1.9-5,1-7.8c1.9,0,3.9,0,5.8,0c0,0.3,0,0.6,0.1,0.9
	c0.2,0.5,0.4,0.9,0.7,1.4c0.3-0.3,0.7-0.6,0.9-1c0.2-0.4,0.2-0.9,0.3-1.3c1,0,1.9,0,2.9,0c-1,1.5-1.9,3-2.9,4.4
	c-1.1,1.6-0.7,2.9,1,3.2c1.8,0.4,3.6,0.5,6.4,0.8c-2.5-2.9-4-5.3-3.6-8.4c0.6,0,1.3,0,1.9,0c0.2,1.4,0.3,2.8,0.7,4.2
	c0.6,1.9,2,2.9,4,2.5c0.7-0.1,1.4-0.6,1.8-1.1c0.2-0.2-0.3-1.2-0.7-1.5c-1.4-1.1-3-1.9-2.9-4c1,0,1.9,0,2.9,0
	c0.7,0.6,1.4,1.2,2.2,1.7c2.3,1.5,2.3,1.5,3.6-1.7c1.9,0,3.9,0,5.8,0c-1.5,1.3-3,2.6-4.6,3.9c3.2,1.5,3.1,1.5,5.1-0.9
	c0.8-1,1.6-2,2.4-3c3.2,0,6.5,0,9.7,0c1.3,1.2,2.5,2.3,3.8,3.5c1.6,1.5,2.5,1.7,3.8-0.1c0.7-0.9,0.8-2.3,1.2-3.5c0.6,0,1.3,0,1.9,0
	c0.6,1.8,0.7,1.8,2.9,0c1.9,0,3.9,0,5.8,0c0.3,0.7,0.3,1.8,0.8,2.1c4.5,2.6,5.4,4,6.9-2.1c0.6,0,1.3,0,1.9,0
	c-0.1,0.8,0.1,1.7-0.2,2.3c-1.6,2.7-0.2,4.4,1.9,5.9c3.2-1.8,3.8-5.7,6.1-8.2c0.6,0,1.3,0,1.9,0c-1.3,2.4-2.2,5-3.8,7.2
	c-3.6,4.7-4.3,9.9-3.6,15.6c0.5-0.1,0.6-0.1,0.8-0.2c2.7-1.4,5.7-2.1,7.5-4.9c2-3,2.9-6.1,2-9.7c-0.1-0.4-0.1-1,0-1.4
	c0.3-2.2,0.7-4.4,1-6.6c1,0,1.9,0,2.9,0c1.1,2.9,2.1,5.9,3.5,8.7c0.8,1.6,0.7,3.8,2.7,4.6c1-1.6,2.2-3,3-4.7
	c1.1-2.5,0.8-3.6-1.9-5.4c-1.3-0.9-1.5-1.9-1.4-3.2c1,0,1.9,0,2.9,0c0.3,0.5,0.4,1.4,0.8,1.6c2.7,1.1,5.5,2.2,8.3,3.2
	c0.6,0.2,1.4-0.1,2.6-0.3c-1.9-1.8-3.4-3.1-4.9-4.5c1,0,1.9,0,2.9,0c0.5,0.6,0.9,1.3,1.4,1.8c1.3,1.2,1.4,0.2,1.4-0.9
	c0-0.3,0-0.6,0-0.9c0.6,0,1.3,0,1.9,0c-0.4,3.3,0.5,6,3.6,7.6c0.8,0.4,1.7,0.5,2.6,0.7c-0.1-1,0-2.1-0.3-3.1c-0.4-1-1.3-1.8-1.9-2.7
	c-0.5-0.8-0.7-1.7-1.1-2.5c0.6,0,1.3,0,1.9,0c1,1.4,1.8,3.1,3.1,4.1c0.5,0.4,2.1-0.8,3.3-1.1c0.9-0.2,1.8-0.2,2.8-0.3
	c-1.6-0.6-3.1-0.7-4.7-0.8c-1.2-0.1-1.6-0.8-1.5-1.9c2.3,0,4.5,0,6.8,0c2.3,1.6,4.5,1.5,6.8,0c0.6,0,1.3,0,1.9,0
	c-0.3,1.1-0.8,2.1-0.9,3.2c-0.2,2.2,0.8,2.9,2.9,2.5c3.3-0.5,4.7-3,5.8-5.7c0.3,0,0.6,0,1,0c0.6,2.2-1.3,3.4-2,5.1
	c-0.4,0.8-0.6,1.3,0.6,1.7c1.5,0.4,2.9,1.2,4-0.7c0.4-0.6,1.3-0.8,2-1.2c2.8-1.6,2.8-1.6,2.2-4.9c0.3,0,0.6,0,1,0
	c0.5,0.4,1,0.9,1.6,1.3c0.1-0.4,0.2-0.9,0.4-1.3c0.6,0,1.3,0,1.9,0c-0.6,1.7-1.1,3.5-1.8,5.4c6.1-2.5,6.1-2.5,8.6-5.4
	c1.6,0,3.2,0,4.9,0c0.6,1,1.3,1.9,1.9,2.9c-0.5-0.1-1,0-1.4-0.2c-3.4-1.8-3.5-1.8-4.7,1.8c-1.8,5.7-3.6,11.4-5.4,17.4
	c4.9-2.2,11.2-7.8,13-11.5c0.4-0.8,0.4-1.9,0.4-2.8c-0.1-1.3-0.5-2.5-0.8-3.7c1.5-0.9,2.8-2,2.9-3.9c2.3,0,4.5,0,6.8,0
	c1.2,1.5,2.3,2.9,3.8,4.8c1.7-1.6,3.3-3.2,4.9-4.8c1,0,1.9,0,2.9,0c-1.6,1.8-3,3.7-4.8,5.2c-2.7,2.4-4.3,5.5-6.2,8.4
	c-0.2,0.3-0.3,1-0.1,1.3c0.2,0.3,0.9,0.5,1.2,0.4c3.5-1,7-2.2,10-4.4c3.8-2.8,6.1-6.1,3.8-10.9c0.3,0,0.6,0,1,0
	c1.3,2.7,2.3,5.7,6.5,5c0.9-0.2,2.1,1.2,3.2,1.8c0.1,0.1,0.1,0.3,0.2,0.4c0.1,0.1,0.2,0.1,0.3,0.1c-0.2-0.2-0.3-0.3-0.5-0.5
	c-0.3-2.3-0.6-4.5-1-6.8c0.6,0,1.3,0,1.9,0c1.1,3.1,2.2,6.1,3.3,9.4c4.1-4.1,4.1-4.1,0.6-7.8c-0.4-0.5-0.7-1-1.1-1.6
	c1,0,1.9,0,2.9,0c2.2,2,2,5,2.8,7.7c1.3-0.6,2.4-1.2,3.6-1.7c1.9-0.8,2.7-2.1,1.7-4.1c-0.3-0.6-0.3-1.2-0.4-1.8c1,0,1.9,0,2.9,0
	c-0.1,1.2-0.2,2.4-0.3,4.6c1.8-1.9,3-3.2,4.2-4.6c1.3,0,2.6,0,3.9,0c0.6,1.1,1.3,1,1.9,0c0.6,0,1.3,0,1.9,0
	c-0.6,1.3-1.3,2.6-1.9,3.9c-1.3,2.9-1.1,3.8,1.6,5.6c1.1,0.7,2.6,1.1,3.1,2.1c2,3.4,4.7,3.4,7.9,2.1c1.7-0.6,3.5-0.9,5.9-1.6
	c-1.5-0.6-2.4-1.3-2.9-1.1c-2.8,1.1-4.5-0.5-6.3-2.1c-2.7-2.4-3.4-5.7-4.4-8.9c0.6,0,1.3,0,1.9,0c0.1,0.5,0.1,1,0.3,1.4
	c0.8,1.4,1.5,1.4,2.3,0c0.2-0.4,0.2-0.9,0.3-1.4c0.6,0,1.3,0,1.9,0c0,0.3,0.1,0.7,0,0.9c-0.4,1.1-0.8,2.3,1.2,1.8
	c1.3-0.4,2.8-0.8,2.8-2.7c0.6,0,1.3,0,1.9,0c-0.9,3.9-3.7,5.5-8.3,6.5c2.1,0.9,3.5,2.2,4.4,1.9c4.3-1.5,8.1-3.8,9.7-8.5
	c0.6,0,1.3,0,1.9,0c-0.7,2.9-2.4,5.1-4.7,6.8c-0.7,0.5-1.2,1.3-1.8,2c1.3,0.9,2.5,2.4,3.8,2.4c1.3,0,3-0.4,4-2.1
	c1.3-2.1,3.2-3.9,4.7-6c0.7-1,1.2-2.1,1.8-3.2c2.9,0,5.8,0,8.7,0c-1.3,0.8-2.5,2-3.9,2.4c-3.1,0.9-5.1,2.9-6.8,5.4
	c-0.1,0.1-0.3,0.1-0.4,0.2c-0.1,0.1-0.1,0.2-0.1,0.3c0.2-0.2,0.3-0.3,0.5-0.5c5.5-0.5,10.6-1.6,12.6-7.8c0.6,0,1.3,0,1.9,0
	c-0.8,1.9-1.3,4-2.5,5.6c-0.9,1.3-2.6,2.9-4.1,3c-5.3,0.3-9.8,2.7-14.6,4.5c-1,0.4-1.8,1.1-3.3,2.1c5,0.6,9,0.4,12.5-2.4
	c0.9-0.7,1.8-1.7,2.8-1.8c4-0.3,6.5-3.3,9.8-4.9c2.9-1.4,3.6-3.3,3.3-6.1c1,0,1.9,0,2.9,0c-0.2,0.4-0.4,0.9-0.6,1.3
	c-0.1,0.3-0.1,0.6-0.1,0.9c0.4-0.1,0.9-0.1,1.1-0.4c0.6-0.5,1-1.2,1.5-1.8c1,0,1.9,0,2.9,0c0,0.3,0,0.6,0,1c-0.4,0.3-0.8,0.5-1,0.8
	c-0.3,0.4-0.3,1-0.4,1.5c0.4-0.3,0.9-0.6,1.2-1c0.2-0.3,0.2-0.9,0.3-1.3c0.3-0.3,0.6-0.7,1-1c1,0,1.9,0,2.9,0
	c-0.1,0.5,0,1.1-0.3,1.3c-3.1,2.3-2.9,4.9-1,7.8c4.3-3.8,4.9-4.9,5.2-9.1c0.6,0,1.3,0,1.9,0c0.3,2.5,0.1,4.9-1.9,6.7
	c-4.5,4-6.5,9.9-10.6,14.1c-0.4,0.4-0.7,1.7-0.5,2c0.7,0.8,1.7,1.6,2.9,0.4c1.6-1.6,3.2-3.2,4.8-4.8c0.8-0.8,1.9-1.4,2.3-2.3
	c1.7-4.5,4.4-8.1,8.7-10.7c-0.7-0.3-1-0.4-1.3-0.5c-2.9-0.8-3-1.1-1.6-3.3c0.3-0.5,0.7-1.1,1.1-1.6c1,0,1.9,0,2.9,0
	c-0.8,2.6-0.6,3,1.5,2.8c2.7-0.2,5.2-0.8,7.2-2.8c1,0,1.9,0,2.9,0c-0.2,0.4-0.4,1-0.7,1.2c-3,2-5.6,4.1-5.5,8.3
	c0,1.3-1.1,2.6-1.9,3.8c-0.6,0.9-1.5,1.7-2.1,2.6c-0.2,0.4,0.2,1.1,0.4,1.7c0.4-0.2,1.1-0.3,1.3-0.7c0.9-1.5,1.4-3.3,2.5-4.7
	c2-2.5,3.9-5.4,6.6-6.9c1.8-1,2.7-1,2-3.1c-0.2-0.6,0.3-1.5,0.5-2.3c0.6,0,1.3,0,1.9,0c-1.7,3.6,1.1,6.7,1.1,10.1
	c1.2-1.1,2.2-2.7,3.5-3.1c2.6-0.8,2.3-2.2,1.6-4c-0.4-1-1-2-1.4-3c1.6,0,3.2,0,4.9,0c-0.3,0.9-1,2-0.7,2.7c0.7,2.1,0.8,3.8,0.1,6
	c-0.8,2.6,1.3,5.8,4,6.9c0.5,0.2,1.7,0,1.9-0.4c2.6-4.9,5.2-9.8,1.5-15.3c0.6,0,1.3,0,1.9,0c0.9,1.8,1.7,3.5,3,6
	c1.1-2.4,2-4.2,2.9-6c1.3,0,2.6,0,3.9,0c-0.2,0.4-0.4,0.9-0.7,1.2c-2.1,2.1-2.3,4.3-0.6,6.8c0.8,1.2,1.3,2.7,2,4.3
	c1.6-1.7,3.5-3.2,2.7-5.4c-1-2.6,0.1-4.7,0.5-7c1,0,1.9,0,2.9,0c-2.2,5.5-2.1,5.7,1.3,8.6c1.4,1.2,1.8,0.4,2.4-0.7
	c0.8-1.5,1.8-2.9,2.8-4.3c1-1.3,2.1-2.4,3.1-3.6c1,0,1.9,0,2.9,0c0,2.5,0.9,4.7,3,6.2c1.7,1.2,3.4,0.1,5-0.4c0.2,0,0.3-0.1,0.5-0.1
	c4.6-0.7,4.6-0.7,2.6-4.9c-0.1-0.3-0.3-0.6-0.4-0.9c0.6,0,1.3,0,1.9,0c1.6,4.6,5.6,2.2,9,3.4c-1-1.6-1.6-2.5-2.2-3.4
	c0.6,0,1.3,0,1.9,0c1.9,1.7,3.7,3.4,5.6,5.1c1.7,1.5,3.2,1.3,3.8-0.8c0.4-1.3,0.2-2.8,0.3-4.2c0.6,0,1.3,0,1.9,0
	c0.1,0.4,0.2,0.9,0.4,1.3c0.5-0.4,1-0.9,1.6-1.3c0.6,0,1.3,0,1.9,0c-1,2.4-2.3,4.4-4.4,6.1c-1.6,1.2-2.9,3.1-3.8,4.9
	c-0.6,1.1-0.2,2.7-0.2,4.1c0,0.3,0.8,1,1,0.9c2-0.8,5-1.3,5.7-2.8c1.4-2.7,2.6-5.6,4.2-8.2c1-1.6,1.3-3.2,1.3-4.9c0.6,0,1.3,0,1.9,0
	c0.6,1.1,1.3,1,1.9,0c2.6,0,5.2,0,7.8,0c-1.8,2-3.6,4-5.4,6c-2.6,2.9-2.5,3.4,0.3,5.9c0.7,0.6,1.4,1.4,2.1,2
	c0.3,0.3,0.9,0.5,1.3,0.4c2.1-0.3,4.6-3.3,4.5-5.3c-0.1-1.7,0.5-6.1,1-7.5c0.1-0.4,0.1-1,0.1-1.4c0.6,0,1.3,0,1.9,0
	c0.1,1.6,0.2,3.2-1,4.6c-0.4,0.5-0.5,1.5-0.4,2.2c0.7,4.7,1,4.9,5.9,4.9c2.8,0,5.4-0.4,7.8-2c0.5-0.4,1.1-0.7,1.7-0.8
	c1.6-0.4,2.6,0.5,2,2c-1,2.5-2.3,4.9-3.4,7.4c2.9,0.9,5.6,0.1,8-2.2c0.6-0.5,1.6-0.6,2.4-0.9c0,0.9,0.1,1.9-0.2,2.7
	c-1.6,3.8-3.2,7.4-7.6,8.8c-1,0.3-1.8,1.3-2.9,2.2c3,0.8,5.3-0.3,7.7-1.5c0.6-0.3,1.4-0.4,2.1-0.6c0.1,0.9,0.6,2.1,0.2,2.7
	c-1,1.6-2.4,2.9-3.8,4.2c-0.7,0.6-1.6,1-2.4,1.4c2.2,1.4,4.4,2.5,6.1,4.1c2.8,2.5,5.8,3.3,9.3,2c0.3-0.1,0.6-0.3,0.9-0.2
	c0.4,0.1,1,0.2,1.2,0.5c0.2,0.3,0.1,1.1-0.1,1.3c-1.1,0.9-2.2,1.8-3.5,2.6c-1.5,0.9-3,1.7-5.2,2.9c4.6,2.4,8.3,4.4,12.8,2.1
	c0.6-0.3,1.2-0.5,1.8-0.6c1.2-0.2,2.2,1,1.7,2.1c-1,2.4-2,4.8-5.1,5.1c-1.1,0.1-2.2,0.5-3.7,0.9c4.9,5.1,8.2,11.5,15,14.6
	c-0.5,0.6-0.8,1.1-1.2,1.2c-3.6,0.9-3.7,4-4.3,6.7c-0.4,1.6,0.5,2.3,2.2,2.2c0.6-0.1,1.2-0.5,1.8-0.5c0.4-0.1,1,0,1.2,0.3
	c0.2,0.3,0.1,1-0.1,1.3c-1.3,1.2-2.7,2.3-4.1,3.3c-2.3,1.5-2.3,3,0,4.5c0.5,0.3,1.1,0.6,1.8,0.8c1.3,0.3,2.6,0.5,2.4,2.3
	c0,0.2,0.9,0.5,1.4,0.7c3.8,1.3,7.6,2.6,11.3,3.9c1.3,0.5,1.3,1.3,0.5,2.1c-1.9,2.1-4,3.7-7,3.8c-0.8,0-1.7,0.7-2.5,1.1
	c0.4,0.6,0.8,1.3,1.2,1.9c1.5,1.9,3.3,2.9,5.8,1.7c0.8-0.4,1.9-0.1,2.9-0.1c1.2-0.1,2.5-1.7,3.4,0c0.3,0.6-0.7,1.9-1,2.9
	c-0.2,0.8-0.3,1.7,1,1.4c0.3-0.1,0.6-0.2,0.9-0.3c4.7-0.4,4.9-0.2,3.2,4.2c-0.1,0.3,0.1,0.8,0.3,1.2c0.1,0.1,0.7,0,0.9-0.1
	c0.7-0.6,2-1.5,1.9-2c-0.8-3.1,1.8-4.1,3.6-6.1c0.9,1.3,1.6,2.4,2.3,3.5c0.4-0.2,0.8-0.3,0.9-0.5c0.5-1.5,0.8-3.1,1.4-4.6
	c0.4-0.9,1.2-2.2,2-2.3c0.9-0.1,2.2,0.6,2.8,1.4c0.9,1.1,1.4,2.5,2,3.8c0.7,1.5,1.4,1.7,2.3,0.3c1.9-2.9,4.8-5.3,4.6-9.3
	c-0.1-1.1,0.3-3.2,2.6-2.3c0.1-0.5,0.4-1.2,0.2-1.4c-1.6-1.7-3.3-3.4-5-5c-0.7-0.6-1.8-0.8-2.5-1.3c-3.4-2.6-3.6-5.4-0.7-8.4
	c0.7-0.7,2-1,3-1c1.4,0,0.7,1.3,0.9,2.1c0.6,1.7,1.3,3.5,3.8,3.6c6,0.4,8.6,5.3,9.9,9.9c1.1,4,0.3,8.6-0.1,12.9
	c-0.3,3.3-2.3,6-4.8,8.1c-1.3,1.2-2.4,2.3-1.7,4.5c0.3,1-0.3,2.7-1,3.6c-4.4,5.4-9.2,10.5-17,10.4c-1.7,0-2.4,1-3.4,2.2
	c-3.6,4.7-8.5,7.2-14.5,7.5c-3.7,0.2-6.8-1.1-9.1-4.4c-0.7-1.1-2.2-1.7-3.4-2.4c-1.7-0.9-3.4-1.7-5.2-2.5c-2-0.9-3.3-2.3-3.9-4.6
	c-0.4-1.9-1.5-3.4-3.8-3.8c-2-0.4-3.8-1.7-4.7-3.8c-0.7-1.6-1.9-2.1-3.6-1.3c-0.6,0.3-1.2,0.5-1.8,0.5c-5.9,0.8-6.6,0-4.6-5.9
	c-2.2,0.2-4.3,0.4-6.3,0.6c-0.8,0.1-1.6,0.4-2.3,0.2c-0.8-0.3-1.5-1-2.2-1.6c0.6-0.5,1.1-1,1.7-1.5c1.9-1.7,3.9-3.3,5.6-5.1
	c1-1.1,0.9-2.4-0.6-3.2c-1-0.6-2-1.1-2.9-1.7c-3.8-2.2-5.1-5.8-3.6-9.9c0.6-1.7,1.2-3.4,2-4.9c1.3-2.4,1.7-4.7,0.7-7.4
	c-0.4-0.9-0.1-2.2,0.3-3.2c0.7-2,0.3-3.7-1.3-5.4c-2.7,3-5.9,5-9.8,5.9c-0.9,0.2-1.9,0.4-2.7,0.1c-0.9-0.3-1.6-1.2-0.6-2.2
	c0.5-0.6,1.3-0.9,1.8-1.6c1.6-2.1,1.5-2.8-0.6-5.1c-0.7-0.8-1.2-1.7,0.1-2.3c2.9-1.3,1.2-4.5,2.5-6.4c0.1-0.2-0.5-1.1-1-1.4
	c-1.8-1.1-3.6-2.1-5.3-3.3c-0.4-0.2-0.6-1.2-0.4-1.6c0.3-0.4,1.1-0.8,1.6-0.6c0.7,0.2,1.3,0.9,2,1.3c3.4,2,6.3,0.7,7.3-3.1
	c0.9-3.6,1.9-7.1,3-10.6c0.5-1.5,0.6-2.7-0.3-4.1c-1.8-2.6-2.9-2.6-4.2,0.2c-0.9,1.9-1.6,3.9-2.4,5.8c-0.6,1.2-0.4,2,0.3,3.1
	c1.3,2.1,0.9,3.7-1.2,4.7c-3.9,1.8-8.1,2.8-12,0.1c-1.9-1.3-3.5-1.7-5.8-1c-4.5,1.4-8.1-0.9-11.5-3.4c-1.2-0.8-2.1-1.9-3.6-3.2
	c-0.6,1.4-1.3,2.4-1.5,3.5c-0.2,1.2,0,2.5,0,3.7c1.2-0.3,2.3-0.5,3.5-0.8c0.6-0.2,1.2-0.6,1.8-0.8c0.3-0.1,1,0.2,1.1,0.4
	c0.1,0.4,0,1.2-0.2,1.3c-2.1,1.2-4.2,2.4-6.4,3.3c-0.9,0.4-2.2-0.1-3.3-0.1c0.1-1,0.2-2.1,0.3-3.1c0.1-0.5,0.3-0.9,0.4-1.4
	c0.4-1.7,1.5-3.6,1.1-5c-0.3-1.2-2.5-1.8-3.8-2.7c-0.5-0.4-1-0.7-1.6-1.1c-0.1-0.1-0.1-0.3-0.2-0.4c-0.1-0.1-0.2-0.1-0.3-0.1
	c0.2,0.2,0.3,0.3,0.5,0.5c1,1.6,2,3.2,2.9,4.8c1.2,2,0.9,3.1-1.3,3.5c-3.7,0.7-7.6,1.6-11-1.3c-2-1.8-4.4-2.3-7.1-2.2
	c-5.7,0.2-10.4-2.8-12.3-8.3c-1.5-4.5-5.2-7.2-7.9-10.8c-0.5-0.7-2-0.8-3-0.7c-1.4,0-2.8,0.5-4.7,0.8c2.3,1.2,4.2,2.2,6.1,3.2
	c3.7,1.9,5.9,4.9,6.3,9.1c0.1,1.1-0.4,2.1-1.7,1.5c-6.1-3-12.3-0.9-18.4-0.1c-4.6,0.6-5.1,0.8-9.5-1.1c0,2.6,1.1,4.5,2.8,6.3
	c1.2,1.3,3.5,2.3,2.3,4.7c-1.1,2.1-4.6,3.6-7.1,2.8c-2-0.6-4.3-0.9-5.8-2.1c-2.4-1.9-5.6-2-7.7-4.7c-1.1-1.4-4.1-1-6.1-2.3
	c-2.1-1.5-4.5-2.5-5.9-4.8c-0.9-1.4-2.1-1.5-3.3-0.8c-1,0.6-0.7,2.9,0.4,3.8c0.8,0.7,1.9,1.2,2.7,2c1.7,1.7,1.5,3.5-0.5,4.7
	c-0.7,0.4-1.4,1-2.2,1c-4.1,0.2-6.3,3.2-8.6,5.9c-0.5,0.6-1.2,0.9-1.8,1.4c-0.5-0.7-1.1-1.4-1.4-2.2c-0.4-1.2-0.9-2.5-0.9-3.7
	c0-2.6-1.6-3.2-3.6-3.7c-2.3-0.6-4.5-1.3-6.9-1.9c0.1-0.2-0.1,0-0.2,0.3c-0.4,1.8,1,4.4-1.2,5.1c-1.2,0.4-3.1-1.2-4.5-2.1
	c-1.8-1.1-3.5-2.3-5.2-3.5c-0.3-0.2-0.3-0.8-0.5-1.2c0.4-0.1,0.9-0.4,1.2-0.3c1.7,0.9,3.4,1.8,5.1,2.8c2.1,1.2,2.8,0.8,3-1.6
	c0.1-1.1,0-2.3,0-3.4c0-1.4-0.4-2.1-2.1-1.4c-1.3,0.5-2.7,0.7-4,1.1c-0.1-1.7-0.6-3.5-0.3-5.1c0.6-2.8,1.7-5.5,2.5-8.2
	c0.1-0.1,0.3-0.1,0.4-0.2c0.1-0.1,0.1-0.2,0.1-0.3c-0.2,0.2-0.3,0.3-0.5,0.5c-3,1.9-5.9,3.7-8.8,5.6c-0.2,0.2-0.2,1.2,0.1,1.6
	c1.9,2.3,2.2,4.9,2,7.8c-0.3,4.6,0.7,9.4-1,13.9c-0.2,0.4,0,1-0.3,1.4c-0.3,0.5-0.8,1-1.3,1.2c-0.2,0.1-0.9-0.4-1.1-0.8
	c-0.8-2-2.1-3.7-4-4.6c-1.7-0.9-3.5-1.5-5.5-2.4c-0.9,1.7-0.2,3.4-0.5,5.1c-0.2,0.9-0.6,1.8-0.9,2.6c-0.8-0.4-1.7-0.6-2.3-1.2
	c-0.6-0.5-0.9-1.3-1.5-2.2c-2.6,4.1-4.8,7.6-7,11c-0.5,0.8-1.2,1.6-1.9,2.2c-0.8,0.6-1.6,0.3-1.7-0.7c-0.2-1.1,0-2.3-0.2-3.4
	c-0.3-1.7-0.8-3.3-1.3-5.4c-2.3,2-3.1,3.4-2.6,6.1c0.6,2.9,0.6,6.1-0.8,9c-0.3,0.7-0.5,1.7-1.1,2.1c-3,2.4-3.7,5.9-5,9.2
	c-1.4,3.7-3.5,6.7-8.2,7.1c-4,0.3-4.4,1.1-5,5.5c1.8-1.7,3.2-3.1,4.8-4.4c0.2-0.2,0.9-0.1,1.2,0.1c0.2,0.1,0.3,0.7,0.2,0.8
	c-3.7,3.1-3.3,8.2-6.2,11.8c-2.2,2.8-4.1,5.7-7.4,7.4c-1.7,0.9-2.5,2.2-2.8,4.2c-0.2,2-1,4-1.7,6c-1,2.9-2.8,5-6.2,5.3
	c-2.2,0.1-3.2,1.4-4,3.4c-2.5,6.1-8.9,8.2-14.8,4.9c-1.2-0.7-2-2-3.8-0.9c-4,2.5-7.3,0.2-9.8-2.4c-1.8-2-4.6-3.7-4.5-7.2
	c0-0.6-1.2-1.3-2-1.9c-1.7-1.2-2.6-2.6-2.7-4.8c-0.1-2.1-0.4-4.2-1.1-6.1c-2.1-5.6-1.8-11.4-1.6-17.2c0.1-2.7,0.4-5.5,3.2-7.1
	c0.6-0.4,1-1.3,1.3-2c1.9-5,8.2-6.1,12.3-5.3c1.7,0.4,3.4,0.8,5.2,1.1c1.6,0.3,2.3-0.5,2.1-2.1c0-0.3-0.3-0.6-0.3-0.9
	c0-0.9-0.3-2.3,0-2.5c1.4-0.8,1.8,0.6,2.4,1.5c1.7,2.7,0.4,5-1,7.1c-1.9,2.8-4.8,4.2-8.2,4.4c-1,0.1-2,0-2.9,0.3
	c-1.4,0.4-2.6,1.2-2.5,3.1c0.1,3.5,0,7,0,10.9c1.5-1.6,2.7-2.9,4.1-4.4c2.2,5.2,4.4,10.1,6.3,15.1c0.5,1.4,1.1,2.3,2.4,2.7
	c0.4,0.1,0.9-0.1,1.3-0.2c-0.2-0.4-0.2-0.9-0.5-1.2c-0.5-0.6-1.3-1-1.7-1.6c-1-1.7-0.2-3.2,1.8-3.3c1-0.1,2.1-0.3,2.9,0.2
	c1.7,1.1,3.2,0.1,4.6-0.4c1-0.3,1.7-1.3,2.5-2c-0.6-0.6-1.3-1.2-1.9-1.9c-0.8-0.8-1.8-1.5-2.2-2.5c-1.1-2.3,0.4-3.9,3-3.5
	c6.1,1,11.1-1,14.9-5.8c0.3-0.3,0.7-1.1,0.6-1.1c-2.7-2.3,0.2-3.6,0.9-5.2c1-2.3,1.7-4.5,1.2-7.4c-0.6-3.8-2.6-7.8,0.2-11.7
	c-2-0.3-3.8-0.3-5.4-0.9c-2-0.7-2.1-2.5-0.3-3.6c3.4-2.1,6-4.8,8-8.2c0.5-0.8,0.7-1.8,0.8-2.7c0-0.4-0.9-1.2-1.1-1.2
	c-2.8,1.4-5.3-0.9-8.8-0.2c1.3-1.5,1.8-2.7,2.7-3c4.6-1.7,7.3-5.7,10.6-8.9c2.3-2.2,4.5-4.5,7-6.9c-0.9-0.6-2.1-1-3-1.9
	c-0.7-0.7-1.4-1.8-1.4-2.7c0-0.6,1.1-1.4,1.9-1.8c0.8-0.5,1.8-0.6,2.6-1c0.3-0.2,0.6-0.9,0.5-1.3c0-0.3-0.6-0.6-1-0.7
	c-0.5-0.1-1,0-1.4-0.1c-1.6-0.2-3.1-1.4-4.8,0.6c-1.7,1.9-3.2,3.6-2.8,6.3c0.1,0.5,0.1,1,0.3,1.4c0.6,1.1,0.8,2.3-0.6,2.9
	c-0.7,0.3-1.8-0.1-2.6-0.4c-0.6-0.2-1.2-0.6-1.6-1.1c-1.7-1.9-3.5-3.3-6.3-2.9c-0.7,0.1-1.8-0.3-2.1-0.9c-0.4-0.6-0.5-1.8-0.2-2.5
	c0.2-0.6,1.3-0.9,1.9-1.5c1.2-1,2.1-2.2,0.9-3.7c-1.2-1.6-3.4-2-5.1-1.1c-2.1,1.1-2.4,1.8-1.6,3.8c0.8,1.9,1.7,3.8,2.4,5.8
	c0.6,1.8,0.9,3.6,1.4,5.7c1.6-1.5,3-2.8,4.5-4c0.2-0.2,0.8,0.1,1.2,0.3c0.2,0.1,0.2,0.6,0.2,0.8c-0.1,0.3-0.3,0.5-0.5,0.8
	c-2,2.3-3.9,4.7-6,6.9c-0.5,0.6-1.9,1.1-2.3,0.8c-0.6-0.4-0.9-1.5-1.1-2.4c-0.1-0.4,0.3-0.9,0.4-1.3c1.7-4.8-0.2-8.9-2.6-13.5
	c-0.8,2.5-1.3,4.5-2,6.4c-1,3-3.3,4.8-6.1,5.7c-0.8,0.3-2,0.5-2.5,0.1c-0.6-0.5-0.9-1.8-0.7-2.5c1.3-3.6,0.7-7.3,0.3-11.5
	c-2.3,2-4.3,3.5-6,5.3c-0.7,0.7-1,1.9-1.3,3c-1.1,3-2.1,6.1-3.2,9.1c-0.4,1-1,2.1-1.9,2.7c-0.8,0.6-2,0.8-3,1.1c-0.3-1-0.7-2-0.9-3
	c-0.3-1.5-0.5-3.1-0.9-4.7c-0.4-1.5-1.6-1.8-2.9-0.8c-1.5,1.1-3,2.4-4.6,3.5c-0.3,0.2-0.4,0.6-0.7,0.6c-5.3,1.3-8,6.2-12.3,8.8
	c-1.4,0.8-2.4,2-2.4,3.9c-0.1,2.5-1,4.7-3.5,5.9c-0.7,0.3-1,1.2-1.5,1.8c-6.7,8.4-13.6,16.7-20.2,25.1c-6.1,7.7-11.7,15.7-19,22.5
	c-7.2,6.7-13.5,14.3-19.5,22.1c-2.5,3.3-5.6,6.2-8.3,9.4c-1.3,1.6-2.2,3.5-3.4,5.2c-8,11.5-15.9,23-23.9,34.5
	c-2,2.9-4.5,5.5-6.5,8.4c-2.4,3.4-4.6,6.9-6.7,10.5c-4,6.8-7.8,13.7-11.8,20.5c-3.7,6.4-7.5,12.8-11.1,19.2
	c-5.7,10.1-11.4,20.1-18,29.7c-5.6,8.1-10.8,16.3-15.9,24.7c-2.3,3.8-3.9,8.1-5.8,12.2c-0.9,1.9-1.5,3.9-2.4,5.8
	c-4.2,8.5-8.5,17-12.8,25.5c-2.3,4.5-4.6,8.9-7,13.3c-5.6,10.2-8.9,21.3-12.1,32.5c-2.4,8.5-5.6,16.7-8.9,24.9c-1,2.4-2.1,4.7-3,7.1
	c-2.9,7.5-5.7,15-8.7,22.5c-1.5,3.7-3.3,7.3-4.9,11c-0.8,1.7-1.3,3.6-1.9,5.4c-1.3,3.5-2.8,6.8-3.7,10.4c-0.9,3.5-1.3,7.2-1.8,10.9
	c-0.1,0.7,0.4,1.9,0.8,2.1c3.1,0.8,3.9,3.6,5.5,5.7c0.7,0.9,1.4,1.7,2.5,3c0.6-2.5,0.9-4.4,1.5-6.2c0.7-1.8,1.6-3.4,2.7-5
	c0.5-0.7,1.6-0.9,2.4-1.3c0.2,0.9,0.8,1.8,0.7,2.6c-0.4,3-1,5.9-1.7,9.6c1.2-1.1,2.1-1.8,3-2.6c1.2-1,1.8-2.1,0.9-3.8
	c-0.4-0.8-0.4-1.9-0.2-2.8c0.1-0.7,0.6-1.3,0.9-2c0.6,0.4,1.5,0.7,1.8,1.3c1.2,2.2,2.3,3.8,5.3,2.5c0.5-0.2,2.1,0.8,2.5,1.6
	c0.6,1.1-0.1,2.3-1.3,2.7c-1.5,0.6-3.3,0.7-3.3,2.9c0,0.6,0.3,1.2,0.4,1.8c0.6-0.1,1.2-0.2,1.7-0.4c2.7-1.4,5.4-2.9,8.1-4.2
	c0.7-0.3,1.5-0.6,2.3-0.5c0.5,0,1.1,0.6,1.4,1.1c0.1,0.2-0.2,0.9-0.5,1.2c-0.6,0.6-1.2,1-1.9,1.5c-3.1,2.1-6.3,3.9-8.1,7.4
	c-0.3,0.6-1.2,1.1-1.9,1.3c-1.2,0.3-1.7,1.1-1.4,2.1c0.3,1,1.1,2.5,1.7,2.5c2.6,0.2,4,1.5,5.3,3.6c0.5,0.8,1.8,1.3,2.8,1.6
	c1.8,0.6,3.7,0.9,5.6,1.3c2.6,0.6,4-0.8,3.4-3.3c-0.4-1.5-1.1-3-1.7-4.5c-0.2-0.6-0.5-1.2-0.4-1.8c0-0.4,0.5-0.8,0.9-1
	c0.2-0.1,0.7,0,0.8,0.2c0.4,0.5,0.7,1.1,1.1,1.6c2.3,3.6,2.8,3.8,6.4,1.6c1.6-1,3-2.4,4.6-3.5c0.4-0.3,1.3-0.2,1.7,0
	c0.3,0.2,0.3,1.3,0.1,1.6c-1.2,1.5-2.5,2.9-3.8,4.2c-0.9,0.9-1.9,1.7-2.8,2.7c-2,2.2-1.7,4.1,0.9,5.4c1.7,0.9,3.5,1.8,5.4,2
	c4.3,0.5,7.1,3.7,10.5,5.6c1.5,0.9,1.2,2.4-0.6,2.7c-3.5,0.4-7.2,1-10.4,0.2c-4.6-1.1-8.9-1-13.4-0.6c-3.2,0.3-6.5,0-9.7,0.2
	c-6.5,0.6-12.9-0.6-19-2.3c-4.1-1.1-7.6-0.7-10.9,1.8c-0.5,0.3-1.2,0.3-2.4,0.5c1.2-2.4,2.2-4.4,3.2-6.4c-0.2-0.1-0.4-0.3-0.6-0.4
	c-0.7,0.8-1.3,1.5-2,2.3c-3,3.4-3,3.7,0.2,6.9c1.3,1.2,2.9,2,4.1,3.3c1.7,1.7,3.2,3.6,4.8,5.4c1.2,1.3,2.4,2.6,3.7,3.8
	c0.7,0.6,1.6,0.9,2.4,1.3c-1,0.7-1.9,1.4-3,2c-0.5,0.3-1.3,0.2-1.9,0.2c-1.4,0-2.5,0.3-2.6,2.1c-0.1,1.8-1.5,2.3-2.7,1.2
	c-1.5-1.3-3.2-1.4-4.9-1.4c-2.8,0.1-4.9-1.5-7.1-2.8c-2.2-1.2-4.5-2.4-6.7-3.7c-2.5-1.4-4.8-2.8-5.9-5.9c-1-2.8-4-4-6.7-5
	c-0.1-0.1-0.3,0-0.5-0.1c-1.9-0.2-4.3-1.3-5.5-0.5c-1.7,1.1-0.4,3.5,0.1,5.3c0.1,0.3,0.1,0.7,0,0.9c-0.4,0.5-0.8,0.9-1.3,1.3
	c-0.2-0.4-0.5-0.8-0.6-1.2c-0.7-4.1-1.3-8.2-2-12.3c-0.1-0.4-0.8-0.8-1.2-1.1c-0.2,0.4-0.6,0.9-0.6,1.3c0.4,4.3,0.9,8.6,1.4,12.9
	c0.1,0.5,0.3,1,0.2,1.4c-0.1,0.4-0.6,0.7-0.9,1c-0.2-0.3-0.7-0.6-0.7-0.9c-0.1-2.1-0.1-4.2-0.1-6.3c0-0.8-0.1-1.6-0.2-2.5
	c-3.2,2.1-3.3,2.2-2.7,5.4c1.1,5.9,1.3,11.8,1.1,17.8c0,1,0,2-0.3,2.9c-0.2,0.5-1.4,1.3-1.7,1.1c-3.3-1.9-6.9-1.5-10.4-1
	c-1.6,0.3-2.3-0.6-2.2-1.8c0.5-6.7-2.2-12.9-2.9-19.5c-0.3-2.7-1.2-4.5-4.1-6.3c0.3,2.9,0.7,5.2,0.9,7.5c0,0.5-0.6,1-0.9,1.5
	c-0.3-0.4-0.8-0.9-0.8-1.3c-0.5-4.3-0.9-8.6-1.6-12.9c-0.2,4.2-0.6,8.4,0.2,12.6c0.1,0.6,0.4,1.2,0.4,1.8c0,0.3-0.5,0.7-0.8,1
	c-0.3-0.3-0.9-0.5-1-0.9c-0.5-2.3-0.9-4.7-1.4-7.2c-1.2,1.8-0.1,4.6-2.9,5.2c0.3-1.8,0.4-3.7,0.8-5.4c0.7-3,1.6-5.9,2.4-8.8
	c0.3-0.6,0.7-1.3,1-1.9c0.3-0.6,0.7-1.3,1-1.9c0.1-0.2,0.3-0.3,0.4-0.5c-0.2,0.2-0.3,0.3-0.5,0.5c-0.3,0.7-0.6,1.3-1,2
	c-0.3,0.7-0.6,1.3-1,2c-0.9,1.5-2,2.9-2.6,4.5c-1.4,3.5-3.8,6.2-6.7,9.1c-0.4-2.6,1.4-3.8,2.3-5.7c-1,0-1.8-0.2-2.6,0
	c-6,1.7-11.9,3.5-17.8,5.3c-3.8,1.1-7.6,2.5-11.5,3.1c-6.5,1-12.2,3.5-17.4,7.4c-0.5,0.3-1.2,0.3-1.8,0.5
	C-58.5,745.6-58.5,744.9-58.5,744.3z M381.8,296.2c0.1-0.1,0.3-0.1,0.4-0.2c0.1-0.1,0.1-0.2,0.1-0.3
	C382.2,295.8,382,296,381.8,296.2c-0.1,0.1-0.3,0.1-0.4,0.2c-0.1,0.1-0.1,0.2-0.1,0.3C381.5,296.5,381.7,296.3,381.8,296.2z
	 M399.3,253.5c-0.2,0.2-0.3,0.3-0.5,0.5C399,253.8,399.2,253.7,399.3,253.5c0.4-0.3,0.7-0.6,1-0.9c2.4,0.2,4.1-0.5,4.7-2.5
	c0.4-1.5,1.1-1.9,2.3-2.6c1.6-0.9,3.2-2.3,4.2-3.9c2-3.4,3.6-7,5.6-11.1c-3,1-5.2,1.9-7.4,2.6c-1.6,0.5-3.4,1.4-3.1,3.1
	c0.3,1.7-0.7,2.3-1.2,3.4c-1.7,3.6-3.3,7.3-5,10.9C400,252.8,399.6,253.1,399.3,253.5z M500.2,234.1c0.3-0.3,0.6-0.7,1-1
	c0.6,0,1.3,0,1.9,0c0.2,2.1-1.7,2.9-2.8,4.3c-1.3,1.7-1.5,3.8-0.1,4.7c2.2,1.5,4.5,2.8,6.9,4.1c1.2,0.7,1.8-0.2,1.7-1.3
	c-0.1-1.1-0.1-2.3-0.6-3.3c-1.6-2.9-3.4-5.7-5.1-8.5c-0.6-1.2-1.3-1-2,0C500.8,233.4,500.5,233.7,500.2,234.1
	c-0.2,0.1-0.4,0.3-0.5,0.4C499.9,234.4,500,234.3,500.2,234.1z M56.9,717.1c0.3-0.3,0.7-0.6,1-1c0.3-0.3,0.7-0.6,1-0.9
	c0.3-0.3,0.6-0.7,1-1c0.3-0.3,0.6-0.7,1-1c1-0.7,1.9-1.3,2.9-2c2.4-0.6,4.5-1.5,6.1-3.5c-2.2,0.8-4.8,1.1-6.1,3.5
	c-1,0.6-2,1.3-2.9,1.9c-0.3,0.3-0.7,0.6-1,1c-0.3,0.3-0.7,0.6-1,1c-0.3,0.3-0.6,0.7-0.9,1C57.5,716.5,57.2,716.8,56.9,717.1
	c-0.1,0.1-0.3,0.1-0.4,0.2c-0.1,0.1-0.1,0.2-0.1,0.3C56.6,717.5,56.7,717.3,56.9,717.1z M111.2,713.3c0.1-0.1,0.3-0.1,0.4-0.2
	c0.1-0.1,0.1-0.2,0.1-0.3C111.5,712.9,111.4,713.1,111.2,713.3c-0.3,0.3-0.7,0.6-1,1c-0.3,0.3-0.5,0.6-0.8,0.9
	c0.2,0.1,0.3,0.2,0.5,0.3c0.1-0.4,0.2-0.8,0.3-1.3C110.6,713.9,110.9,713.6,111.2,713.3z M89.9,701.6c0.3-0.6,0.6-1.3,1-1.9
	c1-1,1.9-1.9,2.9-2.9c0.1-0.1,0.3-0.1,0.4-0.2c0.1-0.1,0.1-0.2,0.1-0.3c-0.2,0.2-0.3,0.3-0.5,0.5c-1.8,0.1-2.8,1-2.9,2.9
	C90.5,700.3,90.2,701,89.9,701.6c-0.1,0.1-0.3,0.1-0.4,0.2c-0.1,0.1-0.1,0.2-0.1,0.3C89.6,701.9,89.7,701.8,89.9,701.6z
	 M340.1,335.9c0.1,0.3,0.2,0.6,0.4,0.8c0.5,0.4,1,0.6,1.5,0.9c0,0,0.4-0.5,0.4-0.5c-0.5-0.4-0.9-0.7-1.4-1
	C340.8,335.9,340.4,336,340.1,335.9c-0.3-0.4-0.4-0.9-0.8-1.1c-0.4-0.3-1-0.3-1.5-0.4c0.3,0.4,0.6,1,1,1.3
	C339.1,335.9,339.7,335.9,340.1,335.9z M10.3,717.1c-0.4,0.1-1,0-1.3,0.3c-0.4,0.3-0.7,0.8-1,1.2c0.5-0.1,1.1-0.2,1.5-0.4
	C9.9,718,10.1,717.5,10.3,717.1c0.1-0.1,0.3-0.1,0.4-0.2c0.1-0.1,0.1-0.2,0.1-0.3C10.7,716.8,10.5,717,10.3,717.1z M637,311.7
	c0.3,0.3,0.6,0.5,0.9,0.8c0.1-0.2,0.2-0.3,0.3-0.5C637.8,311.9,637.4,311.8,637,311.7c-0.1-0.6,0-1.2-0.2-1.8
	c-0.1-0.3-0.6-0.5-0.9-0.8c-0.1,0.5-0.4,1.1-0.3,1.5C635.8,311,636.5,311.3,637,311.7z M694.2,294.2c-0.3-0.3-0.6-0.5-1-0.8
	c-0.1,0.2-0.2,0.3-0.3,0.5C693.3,294,693.8,294.1,694.2,294.2c1.5,1.1,2.9,2.3,5.1,3.9C698.1,295,696.5,294.1,694.2,294.2z
	 M207.3,222.4c-0.2,0-0.3,0-0.5,0c-1.1,0.1-2.4-0.1-2.3,1.6c0,0.4,0.5,0.7,0.7,1c0.6-0.6,1.3-1.1,1.9-1.7
	C207.3,223.2,207.2,222.7,207.3,222.4c0.1-0.1,0.3-0.1,0.4-0.2c0.1-0.1,0.1-0.2,0.1-0.3C207.6,222.1,207.4,222.3,207.3,222.4z
	 M76.3,706.5c-2.1,1.2-2.5,3.4-3,5.5C74.7,710.4,76,708.7,76.3,706.5c0.1,0,0.3-0.1,0.4-0.2c0.1-0.1,0.1-0.2,0.1-0.3
	C76.6,706.1,76.5,706.3,76.3,706.5z M670,340.8c1-0.9,2.1-1.8,3.1-2.8c0.2-0.2,0-1.3-0.3-1.4c-0.4-0.2-1.4,0-1.5,0.3
	C670.7,338.1,670.3,339.4,670,340.8c-0.2,0.1-0.4,0.3-0.5,0.4C669.6,341.1,669.8,341,670,340.8z M60.8,717.1
	c-0.9,0.9-1.9,1.6-2.5,2.6c-0.2,0.3,0.5,1.4,1,1.8c1,0.6,1.3-0.3,1.4-1.1C60.8,719.3,60.7,718.2,60.8,717.1c0.1-0.1,0.3-0.1,0.4-0.2
	c0.1-0.1,0.1-0.2,0.1-0.3C61.1,716.8,60.9,717,60.8,717.1z M538,215.7c-0.3-0.3-0.6-0.5-0.9-0.8c-0.1,0.2-0.2,0.3-0.3,0.5
	C537.2,215.5,537.6,215.5,538,215.7c2.6,3,2.6,3,6.4,2.6C542.3,217.4,540.1,216.5,538,215.7z M78.2,687.1c-0.8,2.7-1.6,5.3-2.4,8
	c-0.1,0.3,0.4,0.8,0.6,1.1c0.3-0.2,0.9-0.4,0.9-0.7C77.7,692.7,78,689.9,78.2,687.1c0.1,0,0.3-0.1,0.4-0.2c0.1-0.1,0.1-0.2,0.1-0.3
	C78.5,686.8,78.4,686.9,78.2,687.1z M27.8,719.1c-3.6,3.7-4.4,5.3-4.2,9.7C25.2,725.2,26.5,722.1,27.8,719.1
	c0.1-0.1,0.3-0.1,0.4-0.2c0.1-0.1,0.1-0.2,0.1-0.3C28.1,718.8,28,718.9,27.8,719.1z M367.3,322.4c3.4-0.7,4.6-3.2,6-6.9
	c-1.8,1.3-3.1,2-3.9,3C368.5,319.6,368,321,367.3,322.4c-0.3,0.3-0.7,0.6-1,1c-2,0.1-3,1.4-3.8,3.1c-1.6,3.5-3.3,6.8-5.1,10.5
	c3.1-0.4,6.4-0.8,9.6-1.4c0.9-0.2,1.9-1.2,2.4-2.1c0.8-1.2,1.3-2.6,1.7-3.9c0.9-3.4,0.9-3.5-2.7-4.1c-1.3-0.2-2.1-0.7-2.1-2.1
	C366.7,323,367,322.7,367.3,322.4z M-3.2,703.6c-0.1-0.1-0.1-0.3-0.2-0.4c-0.1-0.1-0.2-0.1-0.3-0.1C-3.6,703.2-3.4,703.4-3.2,703.6
	c1.1,3.1,2.1,6.1,3.5,10.1C1,708.8,0.3,705.7-3.2,703.6z M72.4,715.2c-4.7,0.8-7.9,3.3-10.3,8c3.4-2.5,6.7-5.1,10.1-7.6
	C72.3,715.5,72.4,715.3,72.4,715.2c0.4-0.1,0.8-0.2,1.2-0.3c-0.1-0.2-0.2-0.3-0.3-0.5C73.1,714.7,72.7,715,72.4,715.2z M375.1,224.4
	c-2.3,1.3-4.6,2.6-6.9,4.1c-0.3,0.2-0.4,1.5-0.1,1.9c1.2,1.8,2.2,1.9,3.4,0.1C372.8,228.5,373.9,226.4,375.1,224.4
	c0.1-0.1,0.3-0.1,0.4-0.2c0.1-0.1,0.1-0.2,0.1-0.3C375.4,224.1,375.2,224.2,375.1,224.4z M365.4,320.4c-2,0.4-4.1-1.7-5.9,0.1
	c-2.5,2.4-5.5,3.5-8.8,4.3C356,325.3,360.1,324,365.4,320.4c0.1-0.1,0.3-0.1,0.4-0.2c0.1-0.1,0.1-0.2,0.1-0.3
	C365.7,320.1,365.5,320.3,365.4,320.4z M557.4,227.3c-1.3-0.1-3.3,0.7-2.4-2.1c0.3-1,0.3-2.2,0.3-3.3c-0.1-1.3-1.1-1.4-2.1-1.3
	c-0.9,0.1-1.4,0.5-1.1,1.6c0.8,3.2,1.5,6.4,2.3,10.2C555.7,230.5,557.3,229.4,557.4,227.3c1.7-2.1,2-4.6,1.8-7.1
	c0-0.3-0.4-0.7-0.6-1c-0.3,0.3-0.9,0.6-0.9,1C557.5,222.5,557.5,224.9,557.4,227.3z M367.3,219.5c2.9-1.3,5.8-2.7,8.7-4
	c1.8-0.9,2.5-2.6,1.6-4.3c-0.7-1.4-2.8-2-4.1-0.9C370.5,212.7,367.7,215.3,367.3,219.5c-0.1,0-0.3,0.1-0.4,0.2
	c-0.1,0.1-0.1,0.2-0.1,0.3C367,219.8,367.1,219.7,367.3,219.5z M315.9,224.4c0.6-0.5,1.3-1,1.7-1.6c1.8-3.2,3.4-6.5,6.6-8.7
	c0.7-0.5,0.9-1.9,1-3c0.1-0.7-0.3-1.4-0.5-2.1c-0.7,0.2-1.6,0.2-2.2,0.7C317.9,213.5,315.6,218.4,315.9,224.4
	c-0.2,0.3-0.5,0.6-0.7,1c0.2,0.1,0.3,0.2,0.5,0.3C315.7,225.2,315.8,224.8,315.9,224.4z M384.7,277.7c-0.9,2.2-2,4.3-2.6,6.6
	c-0.3,1.3,0,2.8,0.3,4.2c0.4,1.7,1,3.4,1.6,5c0.2,0.5,0.8,0.9,1.3,1.1c0.2,0.1,0.9-0.5,0.9-0.9c0.7-3.3,1.4-6.5,2-9.8
	c0.1-0.3-0.4-1.1-0.6-1.1C384.5,282.4,384.6,280.1,384.7,277.7c0.1,0,0.3-0.1,0.4-0.2c0.1-0.1,0.1-0.2,0.1-0.3
	C385.1,277.4,384.9,277.6,384.7,277.7z M639.9,256.4c-4.6,0.3-9.1-0.6-12.9-3.1c-2.7-1.8-5.4-1.6-8.7-2.1c1.9,2.2,3.3,3.9,4.9,5.4
	c1.3,1.3,2.5,3.9,4.8,1c0.3-0.3,1.5,0,2.2,0.2C633.7,258.7,636.9,258.1,639.9,256.4c0.1-0.1,0.3-0.1,0.4-0.2
	c0.1-0.1,0.1-0.2,0.1-0.3C640.2,256.1,640,256.2,639.9,256.4z M698.1,331.1c-4.8,0.2-9.5,0.7-13.6,3.4c-1.7,1.1-2.3,2.4-1.5,3.9
	c0.8,1.6,2.4,1.7,3.7,1.2c3-1.4,6-2.9,8.8-4.7C696.7,334.1,697.2,332.4,698.1,331.1c0.1-0.1,0.3-0.1,0.4-0.2
	c0.1-0.1,0.1-0.2,0.1-0.3C698.4,330.8,698.2,330.9,698.1,331.1z M540,246.7c-0.2-0.2-0.3-0.3-0.5-0.5
	C539.7,246.4,539.8,246.5,540,246.7c1.5,2.7,3.9,4.3,6.9,4.5c1.9,0.1,3.8-0.4,5.7-0.8c0.5-0.1,1.2-0.6,1.4-1.1
	c0.1-0.3-0.5-1.1-1-1.4c-3-2-5.3-4.4-6.5-8c-0.5-1.5-2-2.8-3.2-4c-0.3-0.4-1.3-0.6-1.7-0.3c-0.4,0.3-0.6,1.2-0.4,1.7
	c0.7,2,1.7,3.8,3.8,4.7c1.5,0.7,2.2,2,1.6,3.6c-0.6,1.7-2.2,2.3-3.9,2C541.8,247.4,540.9,247,540,246.7z M16.2,221.5
	c-2.4,1.9-5.4,3.4-6.9,5.8c-1.9,3.1-4.6,5.1-7.3,7.2C1.3,235,0.6,235.4,0,236c-0.3,0.3-0.7,0.8-0.6,0.9c0.3,0.4,0.7,0.8,1.1,0.8
	c2.4,0.3,4.8,0.5,7-0.8c1.8-1,3.7-1.9,6-3.1c-0.9-0.3-1.5-0.5-2.1-0.8c-2.3-1.2-2.3-1.5-0.5-3.2C13.4,227.5,15.4,224.9,16.2,221.5
	c0.6-1.1,1.3-2.2,1.8-3.3c0.8-1.4,1.2-3.1,2.3-4.2c2-2,1.8-4.2,1.3-7c-4.4,4.3-9.3,7.6-10.8,13.6c-0.1,0.4,0,0.9,0,1.3
	c0.4,0,0.9,0.1,1.3-0.1C13.4,221.1,14.6,219.4,16.2,221.5z M474,238.9c0.1,1.3,0,2.6,0.2,3.9c0.1,0.4,1,0.8,1.5,0.8
	c0.5,0,1.1-0.5,1.5-0.9c0.1-0.2-0.1-0.9-0.4-1.2C476,240.6,475,239.8,474,238.9c-0.4-2.9-2.3-4.7-4.4-6.6c-3-2.7-7-2.9-10.4-4.6
	c-1.2-0.6-3.5,1.2-2.9,1.9c1.1,1.3,0.2,1.7-0.2,2.7c-0.6,1.3,0.8,4.3,2,4.3c0.8,0,1.8-1,2.4-1.8c1.1-1.6,2.2-1.8,4.1-1.2
	C468.1,234.7,471.2,236.5,474,238.9z M620.5,234.1c-5.6,0.3-11.2,0.1-16.7-1.1c-2.6-0.5-3-0.1-2.6,2.4c0.2,1.1,0.6,2.2,0.9,3.2
	c0.6,1.9,0.6,1.8,2.3,0.9c0.3-0.2,0.9-0.3,1.3-0.1c2,1,3.8,0.3,5.5-0.5C614.4,237.4,617.4,235.7,620.5,234.1
	c0.1-0.1,0.3-0.1,0.4-0.2c0.1-0.1,0.1-0.2,0.1-0.3C620.8,233.8,620.6,233.9,620.5,234.1z M375.1,302.9c-0.2,0.2-0.6,0.4-0.7,0.6
	c-3.3,6.9-9,10.1-16.6,10.1c-0.7,0-1.3,0.4-2.3,0.7c6.7,4.7,11.2,4.3,16.2-0.8C374.8,310.6,374.9,306.8,375.1,302.9
	c0.3-0.3,0.5-0.6,0.8-0.9c-0.2-0.1-0.3-0.2-0.5-0.3C375.3,302.1,375.2,302.5,375.1,302.9z M-39.1,258.3c-0.1-0.1-0.1-0.3-0.2-0.4
	c-0.1-0.1-0.2-0.1-0.3-0.1C-39.4,258-39.3,258.2-39.1,258.3c0.8,0.5,1.5,1.1,2.3,1.6c2.1,1.4,3.9,1.6,5.9-0.5
	c1.5-1.6,3.6-2.4,5.8-2.7c-0.4,1-0.9,1.7-1.6,2.3c-1.1,0.9-2.4,1.6-3.4,2.6c-1.6,1.4-1.3,2.2,0.6,3.1c2,0.9,2.9,0.3,5.9-3
	c1.3-1.4,1.2-4.1,0.2-5.3c-0.1-0.1-0.2-0.2-0.3-0.3c-3.4-3-6.5-3-10.4-0.2C-35.6,256.8-37.5,257.5-39.1,258.3z M323.6,244.7
	c6.6-1.7,8-7,8.6-12.8c0.1-1.3-0.5-2.7-0.8-4c-1.2,0.4-2.3,0.7-3.5,1.1c-0.2,0-0.3,0.1-0.5,0.1c-4.4,1.5-3.7,1.7-3.7,5.5
	C323.6,238,323.7,241.4,323.6,244.7c-0.1,0.1-0.3,0.1-0.4,0.2c-0.1,0.1-0.1,0.2-0.1,0.3C323.3,245.1,323.5,244.9,323.6,244.7z
	 M105.2,724.4c-1.4-1.8-2.4-3.5-3.8-4.8c-5.5-4.7-11.1-9.3-16.6-13.9c-3.1-2.5-3.5-2.5-5.6,0.9c-0.8,1.4-1.7,2.7-2.9,4.6
	c2.8,0,5,0,7.2,0c0.4,0,0.8,0.4,1.2,0.7c-0.3,0.4-0.6,1.1-1.1,1.3c-3.5,1.2-7,2-10.2,4.1c-2.4,1.6-3.4,3.4-3.5,6.4
	c5-1.7,9.4,0.1,13.9,0.9c1.6,0.3,3.1,1.1,4.7,1.1C93.9,725.8,99.4,726.5,105.2,724.4z M434.7,220.5c-2,0.1-4-0.1-5.8,0.4
	c-1.8,0.5-2.9,0.2-3.3-1.5c-0.4-1.5-1-1.7-2.4-1.2c-1.6,0.6-3.3,0.9-5.3,1.5c1.3,0.9,2.2,1.6,3,2.3c0.9,0.8,1.7,1.7,2.5,2.6
	c-1.6,1.5-2.8-0.2-3.7-0.9c-2.2-1.6-4.5-2.5-7.2-2.2c-1.2,0.1-1.9,1-1.4,2c1,2.2,2.3,4.2,3.6,6.3c0.2,0.4,1.1,0.7,1.4,0.5
	c2.5-1,5-2.1,7.4-3.1c2-0.8,3.8-2.4,6.4-2.2c-7.3,4.3-13.9,9.2-15.7,18.1c4.8-1.4,8.9-6.2,12.5-10c1.6-1.7,3.3-3.4,4.9-5.1
	c0.5-0.6,1.3-1.5,1.2-1.9C432,223.8,434.2,222.6,434.7,220.5z M611.4,230.7c-0.5-0.5-0.7-1.1-1.1-1.1c-4.4-0.5-7.5-3.2-10.7-6
	c-1.7-1.5-4.1-2.3-6-3.7c-1.9-1.4-3.5-3.2-5.2-4.8c-0.2-0.2-0.5-0.6-0.7-0.6c-1.2,0.2-3.2,0.2-3.4,0.8c-0.7,1.8-1.5,4.2-1,5.9
	c1.2,3.6,3.8,6.2,7.7,7c3,0.6,5.9,1.5,8.9,1.7C603.7,230.2,607.3,231.9,611.4,230.7z M625.3,266.5c1,1.9,2.3,4.5,3.6,7
	c2.5-0.2,3.3,2.2,4.9,3.3c1.2,0.8,3,0.9,4.6,0.9c1.7-0.1,3.5-0.6,5.2-1c1.8-0.4,2-1.2,0.8-2.6c-2.6-2.9-5-5.9-7.7-8.6
	c-1.6-1.5-3.6-2.7-5.6-3.7C629.4,261,625.5,263.9,625.3,266.5z M403,241.8c-0.3-0.3-0.7-0.8-1-0.7c-1.2,0.2-2.6,0.3-3.7,0.9
	c-4,2.2-7.3,5.1-9.2,9.5c-1.8,4.1-3.2,8.6-7.5,11c-0.2,0.1-0.2,0.8-0.1,1.2c0,0.1,0.6,0.3,0.8,0.2c4.6-2.3,10.6-2.6,12.7-8.7
	c0.3-0.7,0.7-1.5,1.3-2c3-2.7,4.3-6.4,6-9.8C402.6,242.9,402.8,242.4,403,241.8z M347.3,213.5c-2.2,2.4-3.7,4-5.2,5.6
	c-1.5,1.5-2.9,3-4.4,4.4c-2,1.7,0.6,4-0.9,5.8c-0.2,0.2-0.3,0.6-0.3,0.9c0,1.8-0.2,3.5,0,5.3c0.1,0.5,1.1,1.4,1.4,1.3
	c2.6-0.8,5.4-1.6,6.8-4.2C347.7,226.9,348,220.7,347.3,213.5z M475,254.2c-3.3-1.9-6.4-3.3-9-5.4c-5-3.9-10.6-4.6-16.2-3.8
	c0.4,1.3,0.8,2.4,1.1,3.6c0.6,2.4,1.9,3.8,4.5,4.3c4.4,0.9,8.5,2.4,13,2.8C470.9,256,472.6,255.4,475,254.2z M429.4,239.6
	c-0.4-0.1-0.7-0.1-1.1-0.2c-0.9,5.3-1.8,10.6-2.7,15.9c-0.3,1.9,0.9,3,2.4,3.8c2.1,1,4.3,1.9,6.6,3c0.9-2.7,0.2-5.4,0.5-8
	c0.5-4.7-0.2-8.9-4.2-12.1C430.3,241.3,429.9,240.3,429.4,239.6z M313.6,234.9c7-2.5,11.5-7.1,15.5-12c1.3-1.6,2.2-3.8,2.9-5.8
	c0.7-2-0.7-3.5-2.8-3.2c-1.1,0.1-2.3,0.5-3,1.2c-3.7,3.7-7.3,7.4-9.4,12.4C315.9,229.7,314.9,232,313.6,234.9z M655.7,323.9
	c0,0.2,0,0.4,0,0.5c-1.3,0-2.6-0.1-3.9,0c-1.1,0.1-1.4,1-0.7,1.7c0.9,0.8,2,1.9,3.1,1.9c2,0.1,4.1-0.3,6.1-1
	c1.3-0.4,2.1-0.3,2.9,0.7c0.7,0.9,1.2,1.8,1.9,2.7c0.4,0.6,1,1.4,1.6,1.5c6.4,1.1,11.6-1.4,16.2-5.7c0.3-0.3,0.2-0.9,0.3-1.3
	c-0.4-0.1-1-0.4-1.3-0.2c-2.8,1.8-5.6,1.3-8.8,0.7C667.4,324.5,661.5,324.3,655.7,323.9z M507.5,219.9c-0.4,0.6-0.6,0.8-0.7,1.1
	c-3.1,8.7-3.1,8.8,2.1,16.3c0.8,1.1,1.8,2,2.6,3.1c0.7-1.2,1.5-2.4,2.1-3.6c0.4-0.8,0.6-1.8,0.9-2.7c1.5-4.7,0.1-8.7-3.9-11.6
	C509.7,221.7,508.7,220.8,507.5,219.9z M491.4,253.7c1.9,1.1,3.1,2.2,4.6,2.8c2.4,0.8,4.9,1.5,7.3,1.8c1.9,0.2,2.3-0.9,1.4-2.6
	c-1.6-2.9-3-6-4.5-8.9c-0.4-0.8-0.6-1.9-1.3-2.5c-1.7-1.4-3.6-2.5-4.3-4.9c-0.2-0.5-1.8-1.2-2.5-1c-2.3,0.7-3.1,4.7-1.2,6.3
	c1.8,1.5,4,2.6,6,3.9c1.3,0.8,1.4,1.8,0.2,2.5C495.5,252,493.8,252.6,491.4,253.7z M469.7,229.8c3.1,2,5.1,4.5,6.6,7.6
	c0.6,1.3,1.9,2.2,2.8,3.2c0.8,0.8,1.7,1.6,2.3,2.5c0.7,1.1,0.4,2-1,2.6c-2.1,0.8-2.1,1.1-0.7,2.2c4.1,3.3,8.6,4.2,13.7,1.7
	c-1.3-1.1-2.4-2-3.5-3c-0.8-0.7-1.6-1.1-2.5-0.2c-1.4,1.2-2.3,0.7-1.6-0.9c1-2,0.1-3-1.1-4.1c-1.3-1.1-2.7-2.2-4.1-3.2
	c-1-0.8-2.1-1.4-3.1-2.2c-0.3-0.2-0.3-1-0.2-1.2c0.2-0.3,0.8-0.4,1.2-0.3c0.6,0.1,1.2,0.5,1.8,0.7c0.4,0.1,1,0.2,1.2,0
	c0.2-0.3,0.3-0.9,0.2-1.4c-0.2-0.6-0.4-1.4-0.9-1.6C477.2,230.8,473.8,229,469.7,229.8z M605.5,256.7c-3.6-1.3-4.5-4.3-5.3-7.1
	c-0.8-2.6-1.6-5.2-2.5-7.7c-0.4-1-0.9-2.3-2.4-1.8c-1.2,0.4-2.6,0.7-2.8,2.3c-0.3,2.5-1.4,5.3-0.7,7.4c1,2.8,3.2,5.3,5.2,7.6
	c0.6,0.7,2.1,0.9,3.1,0.7C601.9,257.9,603.7,257.2,605.5,256.7z M422.2,256.2c0-3.5-1.5-6.4-4.2-8.6c-2.5-2-5.5-1.8-7.7,0.4
	c-0.6,0.6-1.2,1.8-1,2.5c0.6,1.9,0.9,3.7,2.9,5.2c2.6,2,6.7,2.5,7.4,6.7c0,0.2,0.8,0.6,1.2,0.5c0.3-0.1,0.7-0.6,0.7-1
	C421.7,259.9,421.9,258,422.2,256.2z M385.2,299.8c4.8-1,9.1-2.2,10.7-7.5c1.5-4.8,2.4-9.5-0.3-14.8c-1,1.2-1.5,2.3-2.4,2.8
	c-3.2,2-3.6,5-3.7,8.3c-0.1,1.7-0.5,3.5-1.2,5.1C387.6,295.7,386.4,297.6,385.2,299.8z M556,252.1c1.5,3.2,4.3,3.5,7.4,3.2
	c1.7-0.2,2.1-1.1,1.4-2.6c-1-2-2.2-3.9-2.9-6c-1-3-1.7-6.2-2.4-9.3c-0.3-1.3-0.2-3-1.8-3c-1,0-2,1.4-2.9,2.2
	c-0.3,0.3-0.5,0.8-0.7,1.3c-1.4,3.4-0.6,7.5,1.8,9C560.1,249.4,560.1,249.4,556,252.1z M518.4,230.7c1.4-2.5,2.6-4.9,4.1-7.2
	c2.9-4.5,1.2-8.5-1-12.5c-0.2-0.4-1.7-0.6-1.8-0.4c-1.9,2.7-3.9,5.5-5.4,8.4c-0.5,0.9-0.1,2.5,0.3,3.6
	C515.6,225.2,517,227.7,518.4,230.7z M386,232.1c3.7,0,4.2-0.6,2.7-3.6c-1.2-2.5-2.4-4.9-2.1-7.8c0.3-2.8-2.4-3.5-3.9-5
	c-0.2-0.2-1.3,0-1.8,0.4c-2.4,1.8-3.5,6.9-2.1,9.6c0.6,1.1,1.5,2.1,2,3.3C382,231.5,383.8,232.5,386,232.1z M441.1,225.6
	c-4,0.4-6.7,1.5-8.8,4.1c-3.5,4.2-7.2,8.2-9.7,13.1c-0.4,0.9-1.3,3.2-2.2,0.1c0-0.1-1.2-0.1-1.3,0.1c-0.4,0.5-0.7,1.8-0.6,1.9
	c3.1,1.4,3.8,4.6,5.7,7.7c0.1-1.4,0.3-2.1,0.2-2.8c-0.5-4.1,1.6-7.4,3-10.9c0.6-1.4,1.6-2.6,3.1-0.6c0.8,1,1.3,0.1,1.8-0.6
	C435.2,233.8,438,229.9,441.1,225.6z M590.2,254.8c-3-4.1-5.9-7.8-8.7-11.6c-1.1-1.4-2-2.9-3.3-4.1c-1.9-1.8-3.1-1.4-3.5,1.2
	c-0.2,1.1,0.1,2.5,0.8,3.5c0.9,1.3,2.2,2.4,3.3,3.5c1.2,1.1,2,2-0.1,3.1c-1,0.5-1,1.8,0,2.4C582.1,254.6,585.4,257.3,590.2,254.8z
	 M573.1,228.8c1.7,2.4,2.7,5.1,5.1,6.9c2.7,2,5.3,4.1,7.9,6.2c0.6,0.5,1.2,0.6,1.3-0.3c0.4-2.4,0.9-4.7,1-7.1c0.2-4.3-0.6-4.9-5-5.1
	C580.3,229.1,577.1,229,573.1,228.8z M465.3,227.5c6.6-1.2,12,0.7,17.4,3c1.2,0.5,2.8,0.4,4.2,0.3c0.5,0,1.2-0.7,1.3-1.3
	c0.1-0.4-0.5-1.1-1-1.3c-2.2-1.3-4.5-2.3-5.9-4.8c-0.6-1.1-0.7-3-3-2.3c-1.3,0.4-2.9-0.6-4.1-0.1
	C471.1,222.4,467.8,223.4,465.3,227.5z M295.3,223.6c3.3-0.9,5.7-2,8.1-2c3.8,0,5.7-1.8,6.5-5c0.5-1.8,1.6-2.7,3.1-3.4
	c0.9-0.4,1.9-0.8,3.5-1.6c-2.4-0.9-3.8-1.6-5.7-0.9c-1.3,0.5-3,1.7-4.2-0.4c-0.1-0.1-1.5,0.3-1.9,0.7
	C301.7,215,298.8,218.9,295.3,223.6z M337.3,327.8c3.4,6.6,5.4,8.6,15.2,7.1c3.5-0.5,6.6-4.2,7.4-9.1c-2.4,0.7-5.1,1-7.2,2.2
	C347.8,330.8,343.1,331,337.3,327.8z M236.8,207.2c-0.2,1.9,0,3.6-0.5,5c-1.1,2.9-0.2,5.5,1.3,7.7c3.1,4.5,3.8,4.3,6.8,0.2
	c2.9-3.9,1.9-8.2-2.5-10.3C240.3,209,238.8,208.2,236.8,207.2z M24.6,207.4c-2.2,8.8-6.9,15.9-11.1,24.1c1.5-0.6,2.3-0.8,2.9-1.3
	c1.6-1.4,3-2.9,4.5-4.4c1.8-1.7,2.4-1.5,3.1,1c0.3,1,0.7,1.9,1,2.8c0.3-0.1,0.6-0.1,1-0.2c-0.3-2.2-0.4-4.4-0.8-6.5
	c-0.4-2.3-0.6-4.3,1-6.4c1.5-1.9,1.5-4.1,0-6.2C25.5,209.5,25.1,208.5,24.6,207.4z M220.4,227.2c5.8-1.9,8.9-6.3,11.9-10.6
	c1.8-2.6,2.5-5.9,2-9.2c-0.1-0.4-0.5-0.9-0.8-1c-0.4-0.1-1,0.2-1.2,0.5c-1,1.2-1.8,2.6-3,3.8c-2.8,2.8-4.8,6-6,9.7
	C222.6,222.6,221.5,224.7,220.4,227.2z M407,251.5c-1.2,1.1-1.9,1.8-2.7,2.3c-3.1,1.7-5.3,4.1-6.1,7.7c-0.2,0.7-0.9,1.3-1.3,2
	c-0.8,1.5-2.3,3.3-0.9,4.8c0.8,0.9,2.9,0.6,4.4,0.6c0.8,0,1.6-0.3,2.3-0.7c0.6-0.4,1.4-1.1,1.4-1.7c0.1-4.1,2.2-7.6,3.2-11.5
	C407.4,254,407.1,253,407,251.5z M69.2,219c-0.6-1.3-1.1-2.7-1.9-3.9c-0.6-0.9-1.8-2.1-2.4-2c-1,0.2-2.3,1.3-2.7,2.3
	c-1.7,3.9-3.1,7.9-4.7,11.8c-0.5,1.3,0,2.1,1.2,1.8c2.3-0.6,4.5-1.4,6.7-2.2c0.5-0.2,1.1-1.2,1-1.4c-1.4-2.6,0.8-3.7,2-5.2
	C68.6,219.8,68.9,219.4,69.2,219z M551.8,229.6c-0.7-2.1-1.5-4.2-2-6.4c-0.4-1.7-0.3-4-2.2-4.2c-0.9-0.1-2.2,2-3,3.3
	c-1.5,2.4-3.1,4.9-2.6,8.1c0.4,2.4,2.2,3.9,4.8,3.6C549.6,233.7,551.9,232.3,551.8,229.6z M629.6,292.5c-0.3,0.6-1,1.2-1,1.9
	c0.1,1.1,0.5,2.2,0.9,3.2c1.9,4.7,4.4,8.8,9.8,10.4c1.5,0.5,2.5,0.1,3.3-1c0.5-0.7-0.9-5.2-1.5-5.9c-3.3-3-8-4.1-10.3-8.3
	C630.6,292.7,630.1,292.7,629.6,292.5z M526.7,230.6c6.7,3.4,9.2,11.3,16.3,14c-2.2-2.4-3.9-4.9-4-8.2c-0.1-2-0.1-4.1-0.1-6.1
	c0-1.4-0.7-2.3-1.8-2.4c-1.7-0.2-3.5-0.4-5.1,0.1C530.2,228.5,528.6,229.6,526.7,230.6z M669.4,335.1c-0.7,0.2-1.1,0.2-1.3,0.4
	c-3.4,2.8-7,3.8-10.9,1c-0.5-0.3-1.2-0.5-1.8-0.4c-2.5,0.3-5.1,0.5-7.6,1c-1.1,0.2-1.1,1.3-0.4,1.8c1.9,1.2,3.8,2.5,5.9,3.2
	C660.4,344.6,668.1,342.7,669.4,335.1z M402.2,226.8c-0.5-1.2-1.2-3.7-2.5-5.9c-1.1-1.8-2.8-1.5-3.6,0.3c-1.9,4.2-3.6,8.6-5.3,12.9
	c-0.1,0.3,0,1,0.3,1.3c0.2,0.2,0.9,0.2,1.2,0c2.3-1,4.6-2.2,6.9-3.2C402,231.1,402.3,230.9,402.2,226.8z M129.1,726.8
	c-3.8-3.3-7.4-5-11.4-5.7c-4.5-0.9-8.8-2.5-13-4.2c-0.8-0.3-1.7-0.4-3.8-0.8c3.1,3.1,5.3,5.4,7.7,7.6c0.6,0.5,1.4,1.2,2,1.1
	c4.4-0.4,8.5,1.2,12.8,2C124.9,727,126.5,726.8,129.1,726.8z M659.6,346.4c3.3,2.6,6.8,3.5,10.7,1.9c1.8-0.8,3.4-1.8,5.2-2.5
	c2.6-1.1,3.5-3.6,4.9-5.7c0.7-1.1-0.3-2.5-1.6-2.1c-1.8,0.6-3.4,1.5-5,2.5c-1.5,0.9-2.9,2.9-4.3,2.9
	C665.7,343.1,662.9,345.5,659.6,346.4z M641.9,310.4c1.5,2.8,2.9,4.7,3.6,6.8c1.2,3.5,3.5,4.6,7,4.2c1.4-0.1,2.1-0.3,2.8-1.7
	c0.2-0.4,2.7,0.5,3.9,0.1c1.2-0.4,2.2-1.7,3.1-2.8c0.4-0.4,0.4-1.2,0.6-1.8c-0.7-0.1-1.5-0.5-2.2-0.3c-4.9,1.4-9.5,0.9-13.7-2.1
	C645.7,312,644.1,311.5,641.9,310.4z M451.3,218.7c-3.2,1.8-6.3,2.8-8,5.9c-2,3.5-4.2,6.8-6.3,10.2c-0.9,1.4-1.8,2.8-3.1,5
	C446.7,231,451.2,225.6,451.3,218.7z M469.5,248.1c0.7-1.9,1.2-3.6,1.9-5.1c0.9-1.8,0.4-3.2-1.1-4.1c-1.9-1.1-4-1.8-6-2.9
	c-1.8-1-2.8,0-3.5,1.3c-0.6,1.1-1.1,2.4-1.2,3.6c-0.1,0.8,0.4,2,1,2.4C463.5,245,466.5,246.5,469.5,248.1z M375.1,298.6
	c3-0.5,3.5-2.7,4.8-4.2c1.2-1.5,1.9-2.6,0.9-4.5c-1.2-2.4-1.3-4.8-0.2-7.4c0.8-1.9,1.2-4.1,2.1-6.8c-2.6,1.8-4.6,3.1-6.4,4.6
	c-0.6,0.5-1.1,1.6-1.2,2.5c-0.1,2.4-0.3,4.9,0.3,7.2C376.3,292.7,376.2,295.4,375.1,298.6z M388.6,263.8c-3.4,1.2-3.4,1.2-2.5,3.9
	c0.2,0.5,0.1,1.1,0.2,1.7c-0.6-0.3-1.3-0.5-1.7-0.9c-2.4-2.3-4-2.6-5.7-0.7c-2.7,3.1-5.3,6.4-8.5,10.3c3.7-1.3,6.7-2.3,9.6-3.3
	c1.4-0.5,2.8-1.9,4.2,0.2c0.1,0.1,2.2-0.7,2.3-1.3C387.4,270.4,387.9,267.2,388.6,263.8z M219.9,221.8c-1.4-3.1-2.9-6.6-4.6-10
	c-0.7-1.3-2.4-1-2.9,0.6c-1.3,4.6-0.7,9.1,1.1,13.5c0.3,0.7,1,1.3,1.6,1.7c0.4,0.3,1.3,0.3,1.7,0
	C218.6,226.4,219.6,224.6,219.9,221.8z M385.4,240.9c2.3,2,5.2,2.6,8.2,1.3c2.5-1,4.9-3.1,7.4-3.1c3.9,0,3.4-4,5.8-5
	c0.2-0.1,0.3-0.4,0.6-1c-1.8,0.2-3.6-0.1-4.9,0.6c-1.5,0.8-2.9,0.9-4.4,1.1c-1.5,0.2-3,1-4.5,1.7C391,237.9,388.3,239.4,385.4,240.9
	z M524.4,226.6c2.5-0.5,4.4-1,6.2-1.3c2.7-0.6,4.1-1.8,4.4-3.8c0.5-3.7-0.6-6.7-3.2-7.9c-0.5-0.2-1.7-0.1-2,0.3
	C527.1,217.7,525.1,221.8,524.4,226.6z M408.4,256.6c-0.4,2-1,4-1.2,6c-0.5,3.8,3,6.3,3.1,10.3c3.4-2.5,4.9-5.6,5.7-9.1
	c0.2-0.6,0.1-1.7-0.3-2.1C413.6,259.6,411.9,257.1,408.4,256.6z M575.2,248.3c-2.1-3.1-4.1-6.4-6.3-9.4c-0.9-1.2-2.2-2.3-3.5-3.1
	c-0.6-0.4-1.9-0.2-2.5,0.2c-0.6,0.4-1,1.6-0.9,2.3C563.1,244.3,567.6,250.7,575.2,248.3z M381.4,299.5c-2.6,1.3-3.6,3.6-4.1,5.9
	c-1.1,4.8-2,9.7-2.9,14.5c-0.1,0.3,0.1,0.7,0.2,0.8c0.2,0.1,0.6,0,0.9-0.2c4.3-2.3,6.4-6.4,8.7-10.5c-1.2,0.1-2.1,0.6-3.1,0.9
	c-0.5,0.1-1.3-0.1-1.6-0.4c-0.3-0.4-0.2-1.2,0-1.7c0.4-0.9,1-1.6,1.5-2.4C382.5,304.3,382.7,302.1,381.4,299.5z M100.1,214.2
	c-3.7,4.6-3.1,13.4,1.2,20.3C105,228.9,104.5,219.8,100.1,214.2z M81.1,227.3c4.6-2.5,7.7-6.3,10.5-10.4c0.8-1.1,1.3-2.4,0.8-4.1
	c-0.6-1.7-0.6-3.6-0.9-5.4c-1.5,3.2-3.7,5.6-6.2,7.8c-0.4,0.4-0.7,1.1-0.9,1.7C83.3,220.3,82.2,223.8,81.1,227.3z M609,275.8
	c2.6,0,4.6,0.2,6.4-0.1c1-0.1,2.5-0.8,2.7-1.5c0.5-2.7,1.5-1.4,2.8-0.8c1.8,0.8,3.5-0.4,3.2-2.2c-0.3-2-1-4.1-2-5.7
	c-1.2-1.9-3.1-1.8-4.2,0.2C615.7,269.4,612.8,272.6,609,275.8z M336.7,313c-1.6,3.1-2.7,5.4-3.9,7.6c-0.4,0.9-0.9,1.7-1.2,2.6
	c-1,3.7,0.4,7.1,3.4,8.6c0.4,0.2,0.9,0,1.4,0c0-0.4,0.1-0.9-0.1-1.1c-1.6-2.2-1.1-4.6-0.7-6.9c0.1-0.5,0.8-1.1,1.3-1.2
	c0.3-0.1,0.9,0.6,1.2,1.1c0.8,1,1.4,2.1,2.2,3c0.2,0.2,0.8,0.1,1.2-0.1c0.2-0.1,0.3-0.6,0.2-0.8C340.2,321.8,338.6,317.9,336.7,313z
	 M387.1,280.7c1.1-0.4,1.6-0.8,2.2-0.9c2.9-0.3,4-2.5,4.9-4.8c0.7-1.9,1.6-3.9-1.2-5.2c-0.2-0.1-0.3-1.2-0.1-1.7
	c0.6-1.7,1.2-3.3,1.9-4.9c0.6-1.5,1.3-3,2-4.5c-1.3,0.6-1.9,1.6-2.7,2.2c-3.1,2-4.3,5-4.8,8.5C388.8,273,387.9,276.5,387.1,280.7z
	 M35.7,208.2c0,2.6-0.6,4.9,0.1,6.9c1.5,4.5,0.5,8.2-2.2,11.7c-1,1.3-1.3,2.7-0.5,4c1.5,2.5,1.7,5.1,1.6,7.9c0,0.6,0.4,1.3,1,2.9
	c1.2-2.9,2.2-4.8,2.7-6.7c0.5-1.8,1.2-4.4,0.3-5.4c-2.6-2.9-0.7-5.7-0.7-8.5c0-0.6,0.2-1.3,0.1-1.9
	C37.5,215.7,36.6,212.1,35.7,208.2z M-4.9,209.3c1.1,3.2,1.6,6.1,3,8.6c2,3.6,5.8,5.3,9.5,8.5c-1.2-3.6-3-6.2-2.8-8.7
	c0.3-5-2.8-6.2-6.3-7.4C-2.5,209.9-3.6,209.7-4.9,209.3z M-11.1,264.7c-0.1-3.6,0.4-6.8-1.7-10.2c-2.5-4.1-2.1-4.4-5.4-1
	c-0.3,0.3-0.7,0.7-1,1c-2.3,2.6-2.1,4.8,1,6.6C-15.9,262.3-13.6,263.3-11.1,264.7z M529.5,244.7c0.2-0.3,0.4-0.6,0.6-0.9
	c-1.2-1.3-2.1-2.9-3.6-3.7c-2.8-1.6-5.8-2.7-8.8-3.9c-0.4-0.2-1.4,0.2-1.7,0.6c-1.8,2.5,0.6,7.7,3.7,7.8
	C523,244.8,526.2,244.7,529.5,244.7z M685.3,312.6c-1.6,3.6-3,6.8-4.8,11c2-1.5,3.2-2.5,4.5-3.4c0.5-0.3,1.3-0.6,1.7-0.4
	c0.4,0.3,0.7,1.2,0.6,1.7c-0.9,3.7-2.6,6.9-6.1,8.8c-2.3,1.3-4.6,2.7-7.2,4.3c5,0.2,7.9-1.1,11-3.5c3.3-2.6,3.5-5.9,3.2-9.5
	c-0.1-0.6,0.1-1.3,0-1.9C687.7,317.2,687.5,314.7,685.3,312.6z M597.6,218.8c1.5,1.3,2.6,2.5,3.9,3.4c0.7,0.5,1.8,1.1,2.5,0.9
	c4.3-1.4,8.6-2.7,11.7-6.3c0.3-0.4,0.2-1.1,0.3-1.6c-0.4,0-0.9-0.2-1.3,0c-3.5,1.6-7.2,1.6-10.9,1.5
	C601.6,216.6,599.4,216.9,597.6,218.8z M497.9,232.1c4.9-2.2,4.3-7.2,5.8-10.9c0.1-0.3-0.4-0.8-0.7-1.2c-0.7-0.7-1.6-1.3-2.5-2.1
	c1.3-0.6,3.1-0.8,3.3-1.5c0.4-1.2,0.3-3.5-0.4-4c-1.5-0.9-2.3,1-3.1,2.1c-0.2,0.2-0.3,0.6-0.4,0.9c-1.5,4.5-3.9,8.8-1.9,13.8
	C498.4,230,498,231,497.9,232.1z M437.7,223.6c1-0.4,2.1-0.6,3.1-1.1c4.4-2.3,8.9-4.4,13-7.1c1.8-1.1,2.9-3.3,4.2-5.1
	c0.1-0.2,0.1-0.6-0.1-0.8c-0.2-0.2-0.6-0.4-0.8-0.3c-0.6,0.2-1.2,0.5-1.7,0.8c-5.9,3.6-11.8,7.2-17.6,10.8c-0.3,0.2-0.6,0.3-0.7,0.6
	c-0.2,0.4-0.5,0.9-0.5,1.3C436.6,222.9,437.2,223.2,437.7,223.6z M568.5,221.7c1.1-3.4,1.9-6.1,2.9-8.8c0.4-1.1,0.4-2-0.5-2.5
	c-2.8-1.7-5.8-2.8-9.2-2.3c-0.5,0.1-1.3,1.5-1.1,1.6c1.5,1.8,1,5.3,4.7,5c1.1-0.1,2,0.4,1.4,1.8
	C565.9,218.5,567.4,219.6,568.5,221.7z M325.4,315.4c1.5-2.6,3-5,4.4-7.5c0.2-0.4,0.5-0.9,0.5-1.3c0.1-1.4,0.1-2.9,0.2-4.3
	c0-0.6,0.3-1.2,0.3-1.9c0-0.7-0.1-1.4-0.2-2.1c-0.7,0.2-1.6,0.2-2.2,0.6C323.5,302.5,322.2,309.4,325.4,315.4z M121.3,206.5
	c-1.9,2.4-2.4,5.1-2.3,8.1c0.2,4.1,0,8.2,0,12.2C124.8,222.1,125.8,213.9,121.3,206.5z M701,295.5c0.6,1.9,1.3,3.3,1.5,4.8
	c0.2,1.8,0.6,4.1-0.2,5.6c-1.9,3.6-2.5,7.4-2.5,11.4C708.1,310.9,709.9,303.1,701,295.5z M487,240.3c1.1-1.2,2.1-2.2,3-3.4
	c2.6-3.5,4.9-7.3,4.3-11.9c-0.1-0.7-1.1-2-1.5-1.9c-1.5,0.3-3,1-4.5,1.7c-0.1,0.1,0,1.1,0.2,1.5c0.2,0.4,0.8,0.5,1.2,0.7
	c3,1.4,3.1,1.5,0.9,3.6c-1.1,1.1-2.5,2.1-3.9,2.5c-3.4,1-3.6,1.3-1.8,4.3C485.5,238.3,486.2,239.2,487,240.3z M496.3,213.1
	c-0.1-0.3-0.4-1.7-1.1-2c-0.8-0.3-2.3,0-3,0.6c-1.5,1.2-3,2.5-4,4.1c-1.3,2.2-3,4.4-2.9,7.2c2.3-0.8,4.8-1.5,7-2.5
	C495,219.2,496.2,216.9,496.3,213.1z M659.5,332.7c-2.8-0.7-4.6-0.9-6.1-1.7c-2.3-1.2-4.7-1.8-7.3-1.9c-2.7-0.1-5.4-0.8-7.1-3.3
	c-0.2-0.4-0.9-0.5-1.3-0.7c-0.2,0.6-0.8,1.2-0.6,1.7c0.5,1.8,1,3.7,3.3,4.3c1.5,0.4,3,1,4.5,1.7C649.5,334.9,654,334.3,659.5,332.7z
	 M543.6,214.8c-0.1,0.3-0.1,0.5-0.2,0.8c1.2,0.3,2.6,1.1,3.5,0.7c1.9-0.8,2.5-0.2,3.4,1.3c0.3,0.5,1.4,0.9,2.1,0.8
	c2.1-0.3,4.2-0.8,6.3-1.5c0.6-0.2,1.4-1.1,1.3-1.6c-0.6-2.8-5.2-5.1-8.1-4C549.1,212.3,546.3,213.6,543.6,214.8z M454.7,224.6
	c0.1,0.3,0.3,1.1,0.7,1.3c0.4,0.1,1.2-0.3,1.6-0.6c1.4-1.3,3.1-2.5,4.1-4.1c1.3-2.1,2.3-4.5,3.1-6.9c0.5-1.5-0.7-3.7-2.1-3.9
	c-1.9-0.2-0.7,1.6-1.3,2.3c-0.6,0.8-1.4,1.3-2,2.1C456.6,217.6,454.7,220.6,454.7,224.6z M350,245.2c5-1.7,5.3-6.2,6.3-10
	c0.4-1.7-0.2-3.7-0.4-5.5c-1.7,0.9-3.4,1.6-5,2.7c-1.8,1.2-1.2,3.4-0.8,4.9C351.1,239.8,350.8,242.4,350,245.2z M628.4,286.2
	c0-2.9-0.1-5.4,0-8c0.1-2.8-2-4.4-4.4-3.3c-1.2,0.5-2.3,1.1-3.4,1.8c-1.4,0.8-1.5,2.3-0.6,3.3C622.5,282.5,624.5,285.6,628.4,286.2z
	 M348.4,338.7c-0.1-0.3-0.3-0.6-0.4-0.8c-0.7,0.2-1.6,0.2-2.1,0.6c-2.1,1.9-4,1.5-6-0.1c-1.6-1.3-3.5-2.3-5.3-3.2
	c-0.7-0.4-1.7-0.1-2.5-0.2c0,1-0.3,2.4,0.2,3c1.3,1.8,3,3.3,4.7,4.8c1.8,1.5,4.1,1.4,5.9,0.4C344.9,342,346.6,340.2,348.4,338.7z
	 M351.7,217.4c1-1.9,2-3.7,2.9-5.6c1.5-3.1-0.1-6.6-3.4-7.6c-0.6-0.2-1.3-0.2-1.8,0c-1.9,0.8-3,4.5-1.9,6.3
	C348.7,212.8,350.1,214.9,351.7,217.4z M628.7,247.3c-2.6-1.8-5-3.7-7.6-5.2c-1.7-1-3.8-1.5-5.7-2.1c-0.3-0.1-1,0.2-1.2,0.5
	c-0.2,0.3,0,1,0.2,1.3c1,1.4,2.5,2.6,3.1,4.2c0.6,1.5,1.2,2.5,2.9,2.7c1.5,0.2,3.1,0.7,4.6,0.4C626.3,248.9,627.5,247.9,628.7,247.3
	z M-14.2,237.3c-4.7,4.4-6.1,10.6-10.7,14.4c-0.1,0.1,0.4,1.3,0.8,1.4c1.1,0.2,2.4,0.4,3.2-0.1c3.2-1.8,4.6-5.2,6.3-8.2
	C-13.3,242.5-13.9,240-14.2,237.3z M631.2,278.6c0,2.2-0.2,3.7,0.1,5.1c0.1,0.9,0.6,2.1,1.3,2.4c3.4,1.1,6.7,3.2,10.3,2.2
	c-1.3-2.1-2.1-4.8-3.9-6.3C637,280.3,634.3,279.8,631.2,278.6z M374.6,261.3c1.5-0.4,2.9-1.3,3.8-0.9c2.7,0.9,3.9-0.9,5.1-2.4
	c2.5-3.3,3.9-7.1,5.9-11.2c-3.3,0.7-5,2.6-6.6,4.6C380.3,254.7,377.6,257.7,374.6,261.3z M452.8,225.3c-0.2-0.1-0.5-0.2-0.7-0.3
	c-1.6,2.2-4,4.2-4.5,6.6c-0.6,2.9-1.7,5.4-2.9,8c-0.6,1.4-0.5,2.1,1.1,2.3c1,0.1,2.3,1.8,3-0.5c0.9-2.7,2-5.4,2.7-8.1
	C452.1,230.6,452.4,227.9,452.8,225.3z M329.9,311.9c-4.3,5.4-4.6,11.1-3.2,17c0.3,1.1,1.5,1.9,2.3,2.8c0.1,0.1,0.6,0,0.8-0.2
	c0.2-0.2,0.3-0.7,0.2-0.8c-2.8-2.7-1.3-6.1-0.3-8.4C331.4,318.7,331.2,315.6,329.9,311.9z M566.4,223.4c-0.7-1.3-1.5-3-2.5-4.6
	c-0.2-0.4-1-0.6-1.6-0.6c-0.3,0-0.8,0.7-0.8,1.1c0.1,3.6-1.1,6.9-2.3,10.2c-0.2,0.6,0,1.9,0.3,2c0.8,0.3,2.1,0.4,2.6,0
	C564.6,229.7,565.4,226.9,566.4,223.4z M-33.3,278.2c4.2-1.8,6.7-5.4,8.9-12.2c-1.3,0.3-2.8,0.7-4.3,1.1c-2.6,0.6-4.5,2.5-4.6,5.3
	C-33.3,274.3-33.3,276.2-33.3,278.2z M413.7,232.1c-2-3.3-3.5-5.9-5.1-8.5c-1.3-2.2-2.1-2.5-4-0.8c-2,1.8,0.2,4.1-0.3,6.2
	c-0.1,0.5,0.5,1.8,0.9,1.9C407.8,231.4,410.5,231.7,413.7,232.1z M56.6,223.2c1.3-1.9,2.8-4.3,2-6.2c-1.3-3.2-2.6-6.7-6.1-8.7
	C51.3,214.1,52.4,219,56.6,223.2z M376.5,227.6c-2.6,3.6-5.2,7.2-7.8,10.8c-0.1,0.2-0.1,0.6,0,0.8c0.2,0.2,0.6,0.4,0.8,0.3
	c2.2-1,4.4-1.8,6.4-3C380.5,233.6,380.6,231.7,376.5,227.6z M393.4,211.2c1,1.2,2,2.5,3.1,3.6c0.7,0.7,1.7,1.6,2.6,1.7
	c2.2,0.1,4-1.1,5.4-2.8c1.2-1.5-0.6-2.2-1-3.3c-0.1-0.3-0.2-0.7-0.1-0.9c0.6-1.9-0.4-1.3-1.4-1C399.2,209.4,396.3,210.3,393.4,211.2
	z M21.5,228.6c-5.5,4.8-7.1,8-6.5,13.7C21.3,238.6,23.8,233.8,21.5,228.6z M365.2,217.3c-3.6,1.2-6.8,2.2-9.9,3.4
	c-1,0.4-2,1-2.8,1.7c-0.3,0.3-0.4,1.3-0.2,1.6c1.2,1.6,4.4,2.1,6.4,1.3C362.5,223.9,364,220.9,365.2,217.3z M94.7,232.3
	c2-2.2,2.2-2.6,1.9-4.6c-0.3-1.9-0.5-3.8-1-5.6c-0.2-0.9-0.7-1.7-1.3-2.4c-0.3-0.3-1.2-0.5-1.6-0.3c-3.3,1.8-3.7,4.9-1.4,7.8
	C92.5,228.7,93.4,230.4,94.7,232.3z M605.4,224.8c1.4,3.1,4.1,2.1,6.1,2.9c3.4,1.4,6.1-0.6,8.9-2c0.4-0.2,0.5-1.1,0.6-1.6
	c0-0.1-0.8-0.5-1.2-0.5c-4.3,0.1-8.8-1.7-12.9,0.9C606.5,224.6,606,224.6,605.4,224.8z M705.7,314.8c-4.6,4.6-8.2,9.9-14.5,11.6
	c-0.1,0-0.3,0.2-0.3,0.3c-0.1,0.8-0.5,1.6-0.3,2.3c0.1,0.3,1.3,0.6,1.9,0.4c6.1-2.1,10.1-6.6,13.2-12
	C706,316.9,705.7,315.9,705.7,314.8z M600,239.9c-0.4-1.7-0.6-3.4-1.1-5.1c-0.3-1-1-2-1.9-2.5c-1.3-0.8-2.9-1.3-4.4-1.9
	c-1.3-0.5-1.8,0.2-1.7,1.7c0.1,1.4-0.1,2.8-0.1,4.1c0,1.1,0.1,2.1,0.2,3.2c0.8-0.3,1.7-0.7,2.5-1C597.2,236.7,597.3,236.7,600,239.9
	z M643,298.7c1.6,1.8,3,2.8,3.5,4.2c0.6,1.5,1.4,1.9,2.8,2c1.3,0.1,2.5,0.6,3.8,0.6c1.6,0,3.1-0.2,4.7-0.5c0.5-0.1,1.2-0.8,1.2-1.2
	c0-0.5-0.6-1.3-1.1-1.4C653.1,301.2,648.3,300,643,298.7z M83.2,208.3c-2.7,2.3-4.7,4.5-7.1,5.9c-2.9,1.7-4.2,4-5.2,7
	c2.7,0.7,5,0.2,6.5-1.6C80.1,216.4,81.7,212.6,83.2,208.3z M627.6,299.7c-3.7,3.3-3.7,3.7-1,7.5c0.9,1.3,1.8,2.6,2.9,3.8
	c0.4,0.5,1.3,1,1.8,0.8c0.6-0.2,1.6-0.9,1.6-1.5c0.1-1.2,0-2.6-0.5-3.6C630.9,304.3,629.2,302.1,627.6,299.7z M478,218.5
	c0.5-0.3,1.9-0.8,3.1-1.8c1.9-1.5,3.5-3.4,3.5-6c0-0.5-1.1-1.5-1.2-1.4c-3.6,1.8-7.2,3.5-8.9,7.6c-0.4,1,0,1.5,1,1.6
	C475.9,218.5,476.4,218.5,478,218.5z M580.2,219c-2.8,1.2-5.8,1.8-7.7,4.4c-0.4,0.6-0.8,1.3-1.2,1.9c0.8,0.3,1.6,0.7,2.4,0.9
	c1.1,0.3,2.1,0.7,3.2,0.9c2.1,0.4,4.7-2.2,4.3-4.3C581.1,221.6,580.6,220.4,580.2,219z M28.1,229.6c3.4-4.2,8.8-7.8,5-14.7
	C28.1,218.9,28.7,224.5,28.1,229.6z M572,238.9c2.5-2.7,2.6-4.8,0.4-7c-0.6-0.6-0.5-1.9-1-2.6c-0.7-0.9-1.7-1.7-2.7-2.3
	c-0.2-0.1-1.3,1.1-1.7,1.8c-1.7,2.9-1.6,3,0.6,5.2C569,235.5,570.4,237.1,572,238.9z M636.9,319.8c-0.3-0.9-0.4-2.7-1.1-3
	c-1.6-0.7-3,0.2-3.8,2c-0.4,0.8-1.3,1.4-1.8,2.2c-0.7,1.2-1.4,2.5-1.8,3.9c-0.5,1.7,0.3,1.8,2.2,1.8c3.5-0.1,3.3-4.5,6.2-5.2
	C636.9,321.4,636.8,320.5,636.9,319.8z M697.8,310.4c-2.3,3.1-4,5.4-5.6,7.7c-0.6,0.9-1.3,1.9-1.6,3c-0.2,0.7,0,1.7,0.4,2.2
	c0.3,0.3,1.4,0.2,2.1,0c2-0.6,3.1-2,4-3.8C698.4,316.7,698,314.1,697.8,310.4z M184.4,219.4c4.3,0.4,7.6-1.6,11-3.3
	c0.3-0.2,0.7-0.9,0.6-1.2c-0.5-1.1-0.9-2.5-1.8-3.1c-0.6-0.4-2.3-0.2-2.9,0.3C189,214.3,186.9,216.8,184.4,219.4z M374.6,217.9
	c-2,1-4.1,1.8-5.9,3c-2.5,1.7-5,3.5-5.8,6.7c-0.1,0.4,0.1,0.9,0.3,1.2c0.1,0.1,0.6,0.1,0.9,0c3.2-2.1,6.4-4.2,9.5-6.4
	C374.9,221.4,375.5,220,374.6,217.9z M42,227c2.1,0.8,3.3-3,5.5-0.9c0.1,0.1,0.6-0.2,0.8-0.5c1.1-1.3,1.6-3.2,3.8-3.3
	c0.1,0,0.3-0.9,0.2-1.1c-0.5-1-1.1-1.9-1.8-2.8c-1.3-1.8-2-1.9-3.1-0.2C45.4,221,43.8,224,42,227z M620.5,285.9
	c0,2.3-0.2,4.4,0.1,6.4c0.1,1,0.8,2,1.4,2.9c0.2,0.3,1.2,0.4,1.5,0.1c1.6-1.5,3.2-3.1,4.7-4.6c0.8-0.8,0.4-1.5-0.4-1.8
	C625.6,287.8,623.2,286.9,620.5,285.9z M338.2,240.8c-2.5,0.5-4.5,0.7-6.3,1.3c-1.2,0.4-1.5,1.4-0.9,2.7c1.1,2.3,2.1,4.7,3.3,7.4
	c0.8-1.6,1.6-2.8,2.1-4.1C337,246.1,337.5,243.9,338.2,240.8z M353,344.7c2.6,0.6,5.4-0.2,7.1-3.3c0.3-0.5,0.3-1.4,0-1.8
	c-0.3-0.4-1.1-0.6-1.7-0.6c-0.7,0.1-1.7,0.3-2.1,0.8c-1.5,1.6-3,2.3-4.9,0.9c-1.6-1.2-2.2,0.5-3.1,1.3c-0.4,0.4-0.6,1-0.8,1.5
	c1,0.4,1.9,0.9,2.9,1.2C351,344.8,351.7,344.7,353,344.7z M125.8,213.3c0,4-0.1,7,0,10.1c0,1.7,0.7,2,2,1.2c0.8-0.5,1.6-1,2.4-1.6
	c2.5-1.9,2.4-2.2,0.1-4.7c-0.4-0.4-0.4-1.2-0.9-1.6C128.6,215.7,127.5,214.8,125.8,213.3z M622.1,309.4c-0.8-3.6-0.8-3.6,0.6-7.2
	c0.7-1.8-0.7-4.3-2.6-4.5c-0.4,0-0.9,0.3-1.1,0.6c-3.6,4.7-2.9,7.9,2.3,10.8C621.4,309.2,621.6,309.2,622.1,309.4z M307.6,229.8
	c4.4-0.1,4.8-0.3,5.8-3.5c0.6-1.9,0.6-3.8-0.4-5.6c-0.3-0.7-0.8-1.3-1.1-1.9c-0.6,0.5-1.5,0.9-1.7,1.5
	C309.3,223.4,308.5,226.6,307.6,229.8z M402.3,276.9c-0.1-1.4,0-2.9-0.4-4.2c-0.2-0.7-1.3-1.4-2.1-1.5c-0.8-0.1-1.8,0.4-2.4,1
	c-1.8,2-0.5,3.9,0.6,5.7c0.9,1.5,1.9,2.9,2.8,4.3C403,280.9,401.8,278.7,402.3,276.9z M642.7,295.5c-0.3-0.7-0.4-1.2-0.6-1.6
	c-1.2-2.7-5.7-4.9-8.7-4.3c-0.4,0.1-0.9,0.9-0.8,1.3c0.5,2.5,5.9,6.3,8.5,5.9C641.7,296.7,642.2,295.9,642.7,295.5z M282.8,223.1
	c2.5-3.9,2.3-8.1,1.8-12.3c-0.2-1.3-2.6-1.2-3.5,0c-1.4,2-1.3,4.2-0.6,6.4C281.1,219.1,281.9,220.9,282.8,223.1z M331.5,293.8
	c0.9,1.8,1.7,3.3,2.5,4.8c2.1-1.1,4.8,0.3,6.9-1.6c0.7-0.7,1.8-0.9,3.1-1.6C339.8,293.1,335.9,292.8,331.5,293.8z M641.2,313.6
	c-0.2,0.1-0.4,0.2-0.7,0.3c0,1.7,0.3,3.4,0,5c-1,5.5-0.1,6.9,5.6,7.7c-0.5-2-0.9-4.2-1.6-6.2C643.6,318.1,642.3,315.9,641.2,313.6z
	 M198.2,221.2c4.2,0.6,7-0.6,9.6-2.1c2.2-1.2,2.7-2.9,2.2-5.3c-0.1-0.3-0.3-0.7-0.5-0.7c-0.4,0-1,0.1-1.3,0.4
	c-0.7,0.9-1.5,2.9-2,2.8C202.3,215.7,201.1,218.9,198.2,221.2z M387.8,216.1c-0.1,1.5,1.6,5,2.4,5c3.1,0,5-1.1,5.1-2.9
	c0.1-1.6-1.8-4.3-3.1-4.4C390.7,213.8,387.9,215.2,387.8,216.1z M616.1,252.1c-0.9,2.4-1.5,3.9-1.9,5.4c-0.1,0.4-0.1,1.2,0.1,1.3
	c2.2,0.8,4.4,1.8,6.6,2.3c1.2,0.2,1.6-0.9,0.9-1.9C620.1,257,618.4,254.9,616.1,252.1z M622.1,321.3c3.7-0.6,6.7-2.1,8.9-5.4
	c-1.4-1.3-2.7-2.5-4-3.8C625.2,315.3,623.7,318.1,622.1,321.3z M199.4,216.6c1.6-1.1,3.1-2.1,4.8-3.2c-0.7-0.8-1.1-1.5-1.7-1.9
	c-1.6-1.2-3.3-2.3-5.1-3.4c-0.3-0.2-1,0-1.3,0.3c-0.2,0.2-0.2,0.9-0.1,1.2C197.1,211.9,198.2,214.1,199.4,216.6z M112.4,240.2
	c3.3,1.9,5.4-0.5,7.6-2c1.3-0.9,1.2-2.9,0.2-6.1C117.7,234.7,115.1,237.4,112.4,240.2z M537.7,213.8c2.4-0.6,4.4-1.1,6.3-1.7
	c0.6-0.2,1.5-0.9,1.4-1.1c-0.5-1.1-1-2.3-1.8-3.2c-0.4-0.5-1.4-0.8-2-0.6C538.5,208,537.7,210.4,537.7,213.8z M-6,236.3
	c-0.1,0-0.1,0-0.2,0c0-1.1,0.1-2.2,0-3.3c-0.1-0.5-0.6-1-0.9-1.5c-0.5,0.3-1.1,0.6-1.5,1c-2.3,3.1-1.4,6.3-0.2,9.5
	c0.1,0.2,0.6,0.5,0.7,0.5c0.5-0.3,1.3-0.6,1.4-1C-6.3,239.8-6.2,238-6,236.3z M453.2,234.4c-0.5,1.2-0.9,2.2-1.3,3.2
	c-2.1,4.8-1.7,5.3,3.5,4.7c1.7-0.2,2.6-1.5,1.7-2.8C456,237.7,454.6,236.1,453.2,234.4z M-6,212.6c0,4.3-0.1,7.8,0.1,11.3
	c0,0.5,1.1,1.3,1.6,1.3c1,0,2.1-0.4,2.9-1c0.4-0.3,0.5-1.7,0.1-2C-3.8,219.7-4.7,216.6-6,212.6z M412.1,219.1
	c-2.3-4.1-4.2-4.6-7.9-2.1c-0.3,0.2-0.6,0.3-0.8,0.5c-0.4,0.4-1,1.2-0.9,1.4c0.5,0.5,1.2,1.3,1.7,1.3
	C406.9,220,409.5,219.5,412.1,219.1z M609,241.7c-2.5,1.5-4.3,2.4-5.9,3.6c-0.5,0.4-1.1,1.5-0.9,2c0.7,1.6,0.3,3.7,2.4,4.9
	C606,248.8,607.3,245.7,609,241.7z M228.8,207.3c-0.1-0.2-0.2-0.3-0.3-0.5c-1.4,1-2.9,1.9-4.1,3.1c-0.8,0.7-1.2,1.9-2,2.6
	c-3,2.7-3,2.7-1,6.1C223.7,214.9,226.3,211.1,228.8,207.3z M610.2,271.6c2.9-1.9,4.3-4.7,5.9-7.5c0.2-0.4-0.2-1.4-0.6-1.8
	c-0.9-0.9-1.6-0.4-2.1,0.7c-0.5,1.1-1.2,2.3-2,3.2C609.7,267.7,609.5,269.4,610.2,271.6z M185.9,213.7c-2.6,0-4.5-0.2-6.3,0
	c-2.2,0.3-4.3,0.8-6.7,1.3C177.4,217.3,181.5,218.6,185.9,213.7z M112.2,222.6c-1.8-1.1-3.1-2-4.5-2.7c-0.4-0.2-1.8,0.6-1.8,1
	c0.1,2.2,0.2,4.5,0.7,6.6c0.3,1.3,1.3,2.4,3.2,2.6c-2.8-3.9-2.8-3.9,0.9-6.5C111.1,223.4,111.3,223.2,112.2,222.6z M542.6,221.9
	c0-0.3,0-0.6-0.1-0.6c-1-0.5-1.9-1.1-3-1.3c-0.4-0.1-1.1,0.7-1.5,1.2c-0.4,0.5-0.6,1.1-0.9,1.7c-0.2,0.7-0.4,1.4-0.5,2.1
	c1.3,0.2,3,1.1,3.9,0.6C541.6,224.9,542,223.1,542.6,221.9z M6,228c-1.8-1.4-3.2-2.4-4.5-3.4c-0.5,1.3-1.6,2.6-1.4,3.7
	c0.1,1.1,0.5,3.4,2.2,3.1C3.5,231.2,4.5,229.5,6,228z M136.9,206.6c-1.4,3.1-2.8,5.9-4,8.7c-0.2,0.4,0.2,1.3,0.6,1.6
	c0.3,0.2,1.3-0.1,1.5-0.5C137.3,213.5,139.5,210.5,136.9,206.6z M-40.2,712.4c-0.5-2.5-1-4.5-2.1-6.2c-3.3,0.2-1.7-2-1.7-3.4
	c0-0.8-0.2-1.6-0.3-3C-47.1,705-46.5,706.5-40.2,712.4z M210.8,204.7c-3,0.3-4.2,2.4-5.1,4.8c-0.2,0.4,0.3,1.2,0.6,1.6
	c0.2,0.2,0.9,0.1,1.3,0C210.3,210,211,208.6,210.8,204.7z M-16.4,717.3c4.4-1.2,8.2,0.5,12,1.8c0.6,0.2,1.2,0.5,1.8,0.7
	c0.2,0.1,0.8-0.1,0.8-0.3c0.1-0.4,0.1-1.1-0.1-1.3c-1.2-0.7-2.5-1.7-3.8-1.8c-3-0.3-6.1-0.1-9.2,0C-15.4,716.4-15.9,717-16.4,717.3z
	 M63,717.8c2.4-1.5,4.6-2.8,6.6-4.4c0.7-0.5,0.9-1.6,1.4-2.5c-0.8,0.1-1.7,0.1-2.5,0.5c-1.2,0.5-2.3,1.1-3.4,1.8
	C63.4,714.2,62.7,715.6,63,717.8z M215.3,204.2c-0.6,1.5-1.3,2.5-1,2.9c0.7,1.2,1.7,2.3,2.7,3.2c0.6,0.5,1.5,0.7,2.3,1.1
	c0.1-0.9,0.6-2.1,0.2-2.6C218.5,207.2,217.1,206,215.3,204.2z M160.7,221.1c-0.2-0.5-0.9-1.8-1.5-3.1c-0.9,1-2.1,2-2.6,3.2
	c-0.9,2,1.3,2.5,2.3,3.6c0.6,0.7,1.5,0.4,1.6-0.7C160.7,223.5,160.6,222.8,160.7,221.1z M-2.3,234.3c0.8-0.4,1.4-0.5,1.5-0.8
	c0.6-1.1-1.7-5.6-3-6c-0.4-0.1-1.2-0.2-1.4,0c-0.3,0.4-0.3,1.1-0.2,1.6c0.3,1.2,0.6,2.5,1.2,3.6C-3.7,233.3-2.9,233.8-2.3,234.3z
	 M117.3,222.6c-2.2,1.2-3.8,2-5.2,2.9c-0.5,0.3-1.3,1-1.3,1.2c0.3,0.7,0.8,1.4,1.4,1.8c1,0.7,3.1,0.1,3.7-1.1
	C116.4,226.2,116.6,224.7,117.3,222.6z M-20,241c-5.8,0.8-5.8,0.8-6.5,5.5C-22.9,245.5-22.9,245.5-20,241z M591,206.4
	c-3.7-0.1-4,0.1-5.7,4.2c-0.2,0.5-0.1,1.1-0.1,1.7c0.7-0.1,1.8,0.1,2.1-0.3C588.6,210.2,589.7,208.3,591,206.4z M653.6,313.2
	c-2.4-3.7-2.4-3.8-6.4-5.3c-0.4-0.1-0.8-0.2-1.2-0.3c0,0.6-0.2,1.4,0.1,1.8C648,311.3,650.2,312.7,653.6,313.2z M327.9,212.1
	c0.9-0.1,1.8-0.3,2.7-0.1c0.8,0.2,1.5,0.8,2.3,1.3c0.7-1.7,1.3-3.3,2.1-5.2C331.6,207.9,329.9,210.1,327.9,212.1z M176.6,203.7
	c-0.7,3.5-1.3,6-2,9.3c1.5-0.9,2.9-1.3,3.1-2C178.4,208.9,178.6,206.6,176.6,203.7z M-11.5,241.3c-0.3,1.5-0.2,3.2-0.9,4.1
	c-2.1,2.5-0.7,3.9,0.8,5.7C-9.1,247.8-10.4,244.7-11.5,241.3z M-48.6,706.1c-0.6,2.5,0.8,4.6,1.5,6.8c0.4,1.1,1,1,1.7,0.3
	c1.1-1,1.7-1.9,0.4-3.2C-46.2,708.7-47.3,707.4-48.6,706.1z M85,700c-0.1-1.5,0-2.4-0.2-3.1c-0.1-0.3-0.7-0.8-1-0.8
	c-1.3,0.1-2.8,2.5-2.1,3.6c0.6,1,1.6,1.7,2.4,2.6C84.5,701.3,84.9,700.3,85,700z M353.5,228c-0.5-0.6-0.8-1-1.1-1.2
	c-0.5-0.4-1.1-0.7-1.7-0.9c-0.4-0.1-1.2-0.1-1.3,0c-0.3,1.5-1.2,3.4-0.6,4.4c0.8,1.4,1.7-0.7,2.7-1C352.2,229,352.8,228.5,353.5,228
	z M661.3,322.6c3.4-0.9,6.4-0.6,8-3.8C666.9,320.2,663.4,318.4,661.3,322.6z M274.1,212.7c1.4-0.9,2.3-1.3,2.9-2
	c0.5-0.5,1-1.7,0.8-1.8c-0.7-0.7-1.7-1.1-2.6-1.7c-0.1,0.6-0.3,1.3-0.4,1.9C274.5,210,274.4,210.9,274.1,212.7z M613.3,279.4
	c-0.1-0.1-0.2-0.2-0.3-0.3c-1.5-0.6-2.9-0.4-3.8,1c-0.4,0.6-0.5,1.4-0.7,2.1c1-0.3,2-0.5,3-0.9c0.6-0.2,1.1-0.7,1.6-1.1
	C613.2,280.1,613.2,279.7,613.3,279.4z M154.3,229c1.1-1.8,2.3-3.4,0.8-5.3c-0.2-0.2-1.2-0.3-1.3,0
	C152.5,225.5,152.6,227.2,154.3,229z M223,234.8c0.3-0.3,0.5-0.5,0.8-0.8c-0.8-1.1-1.4-2.4-2.4-3.3c-0.3-0.3-1.4,0-2.1,0.1
	c0.1,0.5,0.1,1.3,0.4,1.6C220.8,233.2,221.9,234,223,234.8z M659.1,335c0.8,0.5,1,0.7,1.1,0.7c1.5,0.2,3.2,0.6,4.3-1
	c0.1-0.2,0-0.7-0.1-0.8C662.4,332.3,661.4,334.4,659.1,335z M678.6,319.2c-1.3,1.2-2,1.9-2.6,2.5c-0.6,0.6-1.2,1.3,0.1,1.7
	c0.6,0.2,1.9,0,2-0.3C678.5,322.2,678.4,321,678.6,319.2z M466.6,258.2c-1-0.4-1.5-0.7-2-0.7c-0.9,0-2.1-0.2-1.9,1.3
	c0.1,0.7,0.7,1.3,1.1,2C464.6,260.1,465.4,259.4,466.6,258.2z M392.9,225c-1-0.7-1.6-1.3-2.3-1.5c-0.4-0.1-1,0.4-1.4,0.7
	c0.6,0.9,1.2,1.8,1.8,2.7C391.5,226.4,392,225.9,392.9,225z M-37.3,711.9c0.3-0.2,0.6-0.3,0.9-0.5c-0.6-1.8-1.3-3.5-3.8-4
	C-39.2,708.9-38.2,710.4-37.3,711.9z M515.7,245.3c-0.9-1.2-1.6-2.1-2.2-2.9c-0.4,0.6-1.1,1.3-1.2,1.9c0,0.4,0.8,1.1,1.3,1.3
	C514,245.8,514.7,245.5,515.7,245.3z M549.4,238.5c-0.1,0.2-0.5,0.5-0.4,0.7c0.3,1,0.8,2.1,1.3,3c0,0.1,0.9-0.1,1.1-0.3
	C551.9,240.5,551.2,239,549.4,238.5z M188.2,221.7c-1.2,0.6-1.9,1-2.7,1.5c0.7,0.5,1.5,1.1,2.2,1.6c0.4-0.5,0.9-1,1-1.5
	C188.8,222.8,188.4,222.3,188.2,221.7z M-34.6,711.8c-0.2,0-0.4,0.1-0.6,0.1c0,0.9-0.1,1.8,0,2.7c0,0.3,0.4,0.6,0.6,0.9
	c0.3-0.3,0.9-0.7,0.8-1C-33.9,713.7-34.3,712.8-34.6,711.8z M444.7,243.4c-0.3,0.2-0.7,0.4-1,0.5c-0.2,0.5-0.6,1-0.5,1.5
	c0.1,0.4,0.7,0.7,1.1,1c0.4-0.4,1-0.9,1-1.3C445.4,244.5,444.9,243.9,444.7,243.4z M376.3,241.4c-0.5-0.4-0.9-0.9-1.1-0.9
	c-0.6,0.2-1.1,0.6-1.6,0.9c0.4,0.4,0.8,1,1.3,1.1C375.2,242.6,375.7,241.9,376.3,241.4z M358.5,229.1c0.2,0.2,0.4,0.4,0.6,0.5
	c0.5-0.6,1-1.2,1.4-1.9c0.2-0.3,0.2-0.8,0.2-1.1c-0.4,0.2-1,0.2-1.2,0.5C359,227.7,358.8,228.4,358.5,229.1z M335,226.9
	c-0.1,0-0.3,0-0.4,0c0,1.2,0,2.3,0,3.5c0.1,0,0.3,0,0.4,0C335,229.3,335,228.1,335,226.9z M61,709.7c-0.5-0.4-1-0.7-1.4-1
	c-0.2,0.2-0.5,0.6-0.4,0.7c0.2,0.5,0.6,0.9,0.9,1.4C60.3,710.5,60.5,710.2,61,709.7z M314.4,214.9c-0.5,0.2-1,0.4-1,0.4
	c0.1,0.5,0.4,1,0.5,1.6c0.3-0.2,0.9-0.3,0.8-0.5C314.7,215.9,314.5,215.4,314.4,214.9z M333.6,238.3c0.2,0,0.3,0,0.5,0
	c0-1.2,0-2.3,0-3.5c-0.2,0-0.3,0-0.5,0C333.6,235.9,333.6,237.1,333.6,238.3z M589.1,246.8c-0.1-0.3-0.2-0.7-0.4-0.7
	c-0.2-0.1-0.5,0.2-0.8,0.3c0.2,0.3,0.4,0.7,0.6,1C588.7,247.2,588.9,247,589.1,246.8z M552.2,236.5c0.3-0.6,0.6-1.1,0.8-1.7
	c0-0.1-0.3-0.3-0.5-0.5c-0.3,0.5-0.6,0.9-0.8,1.4C551.7,235.9,552,236.2,552.2,236.5z M626.8,297.6c-0.2-0.3-0.3-0.6-0.5-0.7
	c-0.1-0.1-0.5,0.1-0.7,0.2c0.1,0.3,0.2,0.6,0.4,0.7C626.2,297.8,626.5,297.6,626.8,297.6z M-33.4,708.9c-0.1-0.3-0.2-0.5-0.3-0.8
	c-0.1,0.2-0.4,0.5-0.4,0.7c0,0.3,0.3,0.6,0.4,1C-33.6,709.4-33.5,709.1-33.4,708.9z M495.7,220.2c0,0.1-0.1,0.3-0.1,0.4
	c0.2,0,0.4,0,0.5,0c0-0.1,0-0.3-0.1-0.4C496,220.2,495.8,220.2,495.7,220.2z M351.3,338.4c-0.1-0.1-0.2-0.3-0.3-0.3
	c-0.2,0-0.5,0.2-0.7,0.2c0.1,0.1,0.2,0.3,0.2,0.3C350.8,338.6,351.1,338.5,351.3,338.4z"/>
<path d="M284.1,141c-0.2,0.4-0.3,0.8-0.5,1.2c-0.1,0.2-0.5,0.3-0.7,0.4c0-0.4-0.2-0.8-0.1-1c0.2-0.4,0.6-0.6,1-0.9
	C283.7,140.7,284.1,141,284.1,141z"/>
<path d="M318.7,108.8c-0.3-0.3-0.6-0.6-0.9-0.9C318.2,108.2,318.5,108.5,318.7,108.8z"/>
<path d="M540.5,566.7c-0.4,0.1-0.8,0.3-1.1,0.4c0-0.3-0.2-0.6-0.1-0.8c0.1-0.2,0.5-0.3,0.8-0.3C540.2,565.9,540.3,566.3,540.5,566.7
	z"/>
</svg>
