<?xml version="1.0" encoding="utf-8"?>
<!-- Generator: Adobe Illustrator 18.0.0, SVG Export Plug-In . SVG Version: 6.00 Build 0)  -->
<!DOCTYPE svg PUBLIC "-//W3C//DTD SVG 1.1//EN" "http://www.w3.org/Graphics/SVG/1.1/DTD/svg11.dtd">
<svg version="1.1" id="Layer_1" xmlns="http://www.w3.org/2000/svg" xmlns:xlink="http://www.w3.org/1999/xlink" x="0px" y="0px"
	 viewBox="0 0 545.5 574.3" enable-background="new 0 0 545.5 574.3" xml:space="preserve">
<path d="M144.5,0c-1.8,7.2-0.1,14.3,0.7,21.4c0.6,5.5-0.2,11.2-0.4,16.8c0,1.4-0.3,2.9-0.3,4.3c0,7.4,0,14.9,0,22.3
	c0,9.8-1,19.5-2.7,29.2c-0.5,2.7-0.2,5.5-0.2,8.2c0,3.6,0.3,7.1-0.1,10.7c-1.6,16.9-0.4,33.9-1,50.8c-0.2,6.4-1.2,12.8-1.7,19.1
	c-0.2,2.7-0.1,5.5-0.1,8.2c0,5,0.1,10,0,15c-0.3,9.7-0.3,19.3-1.1,28.9c-0.5,5.1-0.3,10.3-0.9,15.4c-1.2,10.7-1.4,21.5-2.1,32.2
	c-0.5,7.4-0.6,14.8-0.7,22.2c-0.1,7.9-0.8,15.7-1.9,23.5c-0.6,4-0.7,8-1.1,12c-0.2,2.1-0.7,4.1-0.9,6.2c-0.7,6.4-1.2,12.8-2,19.1
	c-0.5,3.8-1.4,7.5-2.2,11.3c-1.2,5.6-2.3,11.3-2.7,17.1c-0.3,4.9-1.2,9.8-1.9,14.8c-0.6,4.4-1.5,8.9-1.7,13.3
	c-0.3,6.9-1.8,13.7-3.2,20.4c-1.9,9.2-4.3,18.4-6.5,27.6c-2.7,10.8-6.4,21.2-10.7,31.4c-1.3,3.1-2.4,6.3-3.9,9.3
	c-2.5,4.7-6.9,7.6-11.4,10.1c-2.1,1.2-4.3,1.9-6.3,3.4c-1.8,1.4-4.3,1.7-6.5,2.6c-3,1.2-5.1,3.3-6.9,5.8c-1.6,2.4-3.6,4.6-5.3,6.9
	c-1.3,1.8-1.9,3.6-0.5,5.8c0.9,1.5,1.3,3.3,1.9,4.9c1.3,3.4,2.4,4,5.8,3.2c1.1-0.2,2.2-0.6,3.3-0.5c6.6,0.2,13-1.6,19.5-2.6
	c2.7-0.4,5.5-0.4,7.9-1.9c0.6-0.4,1.6-0.3,2.3-0.2c2.5,0.2,5.1,0.5,7.6,0.9c1.5,0.2,3.5,1.5,4.2,0.9c1-0.8,1.1-2.8,1.6-4.3
	c0.3-0.8,0.7-1.5,1.1-2.2c1.1-1.9,1.3-3.9,0.6-6c-0.3-1.1-0.5-2.2-0.5-3.3c0-1.1,0.4-2.1,0.7-3.2c0.9,0.5,2,0.9,2.8,1.6
	c2.5,2.1,2.4,2.1,5-0.1c1.5-1.2,3-2.4,4.7-3.4c1.7-1,2.7-0.4,3.6,1.6c1.3,2.9,0.8,6,0.1,9c-0.1-1.1-0.2-2.2-0.3-3.4
	c-0.4-2.5-2.6-3.7-4.5-2.2c-1.9,1.5-3.4,3.4-4.9,5.3c-0.5,0.6-0.2,1.8-0.3,2.7c-0.2,2.5-0.2,5.1-0.6,7.6c-0.7,4.1,0.1,6.3,4,8.2
	c2.6,1.3,5.4,2,8,3.2c4.4,1.9,8.9,3.8,13.1,6.1c2.4,1.3,4.9,2.2,7.6,2.7c6.4,1.3,12.9,2.2,20.1,2.5c-0.6-1.4-0.9-2.4-1.3-3.3
	c-4.4-9.2-10.1-17.5-17.1-24.9c-1.3-1.4-2.2-3.2-3.1-4.9c-1.3-2.4-2.5-4.8-3.6-7.3c-0.2-0.3,0-0.8-0.1-1.2c0.6,0.1,1.4-0.1,1.7,0.2
	c0.6,0.7,1.1,1.6,1.5,2.4c1,2,1.9,4.1,3,6.1c0.8,1.4,1.8,3,3.7,2.5c1.8-0.5,3.7-0.7,4.2-3.2c0.6-2.7,1.8-5.1,3.8-7.2
	c2.5-2.6,1.7-6.1,1.6-9.2c0-0.6-0.5-1.2-0.5-1.8c0-1,0-2.9,0.3-3c1.9-0.4,1.1,1.4,1.5,2.2c0.6,1.5,1.3,2.9,2.1,4.6
	c5.2-3,8.7-8.1,14.7-10.3c-0.2,2.2-1.9,2.6-3.1,3.4c-1.3,0.9-2.6,1.9-3.8,2.9c-1.2,1.1-2.1,2.3-3.2,3.5c0,0-0.2-0.2-0.2-0.2
	c-0.2,0-0.5,0-0.7,0c0,0-0.2,0.2-0.2,0.2c-0.3,0.3-0.5,0.5-0.8,0.8c0,0-0.2,0.2-0.2,0.2c-0.2,0.2-0.5,0.5-0.7,0.7l-0.2,0.2
	c-0.1,0.1-0.3,0.1-0.4,0.2c0.1,0.2,0.2,0.3,0.3,0.5c0,0,0.3,0.3,0.3,0.3c-0.2,1.5-0.9,2.8-0.4,4.6c0.7,2.8,0.3,5.8,0.3,8.7
	c0,1.4,0.6,2.1,2,2c3.7-0.2,7.4-0.5,11-0.6c3.5-0.1,7.1-0.4,10.6,0.1c3.7,0.6,7.3,0.8,11-0.1c2-0.5,4.2-0.2,6.3-0.3
	c2.4-0.1,4.9,0.4,6.9-1.5c0.4-0.4,1.2-0.4,1.8-0.4c5.1-0.4,10.2-1,15.4-1c3.1,0,6.1-1.2,9.4-0.1c2.9,0.9,6.2,0.5,9.6,0.8
	c-2.2-3-5.3-4.2-8.4-5.3c-3.3-1.2-6.7-2.3-9.9-3.7c-7.6-3.4-15.2-6.9-22.8-10.3c-1.4-0.6-3-1.2-4.6-1.3c-3.1-0.3-5.3-2-7.5-3.9
	c-3.1-2.8-6.3-5.5-9.3-8.4c-2.5-2.4-4-5.3-4.2-8.9c-0.2-3.5-1-7-1.5-10.4c-0.1-0.8-0.1-1.6,0-2.3c0.1-1,0.5-1.9,0.5-2.8
	c0.4-5.9,0.6-11.9,1.1-17.8c0.3-4.1,1.3-8.2,1.6-12.4c0.3-3.7,0.4-7.4,0.2-11.1c-0.4-6.9,0.7-13.5,3.1-19.9c1.2-3.3,0.7-6.7,0.9-10
	c0.3-3-0.5-5.9,1.2-8.9c1.1-2,0.6-4.9,0.7-7.4c0.1-3.4,0.2-6.8,0-10.2c-0.2-4.5,0.4-9,1.5-13.3c0.2-0.8,0.4-1.6,0.4-2.4
	c0.4-8.7,0.6-17.4,1.1-26c0.3-4.9,1.1-9.9,1.6-14.8c0.4-3.7,0.8-7.3,1.2-11c0.3-3,0.8-6,1.1-9.1c0.4-4,0.8-8,0.9-12
	c0.3-8.2,1-16.3,2.6-24.3c0.7-3.6,0.4-7.4,0.3-11.1c-0.1-5.8,0.3-11.5,1.7-17.2c0.1-0.3,0.1-0.6,0.1-1c0.4-5.9,0.8-11.9,1-17.8
	c0.4-8.7,1.3-17.4,0.8-26c-0.4-8.7-0.4-17.4-1.1-26c-0.4-4.7-0.8-9.3-0.6-13.9c0.2-4.5,0.9-8.9,1.4-13.4c0.1-1,0.3-1.9,0.4-2.9
	c0.4-13.5,1.1-27.1,0.9-40.6c-0.2-8.7,1.3-17.2,1.3-25.9c0.1-5.1,1.5-10.1,2.3-15.1c0.2-1.1,0.3-2.2,0.4-3.3
	c0.6-4.9,1.2-9.8,1.8-14.8c0.5-4.1,0.7-8.3,1.2-12.4c0.5-4.5,1.1-8.9,1.6-13.3c0.4-3.7,0.8-7.3,1.3-11c0.2-1.7,0.6-3.5,1-5.2
	c1.3,0,2.6,0,3.9,0c1.9,3,3.6,6,5.7,8.9c0.8,1.1,2.1,2.3,3.3,2.6c5.5,1.3,11,1.4,16.7,1c-0.1-0.5-0.1-0.8-0.2-0.8
	C246,9.5,241.9,4,236.1,0.8c-0.2-0.1-0.3-0.6-0.4-0.8c3.6,0,7.1,0,10.7,0c-0.4,0.5-0.7,1.1-1.1,1.5c-1.8,1.7-1.8,2.1-0.1,3.5
	c0.5,0.4,1.1,0.7,1.6,1c1.8,0.9,2.3,0.7,2.4-1.2c0.1-1.6,0-3.2,0.1-4.8c0.6,0,1.3,0,1.9,0c0,1.1,0.2,2.3,0.1,3.4
	c-0.4,3.5,0,6.3,4.3,7.1c1.7,0.3,1.6,1.5,0.2,2.7c-0.8,0.6-2.5,0.6-1.9,2.2c0.1,0.4,1.6,0.2,2.5,0.3c3.2,0.3,3.4,0.1,3.5-2.6
	c0-1.4,0-2.9-0.5-4.3c-1-3-2.2-5.9-3.3-8.9c1.3,0,2.6,0,3.9,0c0.3,1.7,0.6,3.5,1.1,5.2c0.2,0.7,0.8,1.3,1.4,1.8
	c0.4,0.3,1.2,0.3,1.8,0.5c0-0.6,0.3-1.2,0.1-1.7c-0.7-1.9-1.5-3.8-2.3-5.7c1,0,1.9,0,2.9,0c1.2,3.1,2.2,6.3,3.8,9.3
	c1.6,3,4,5.5,7.8,7c0-2.6,0.1-4.7,0-6.8c-0.2-3.5-1.2-6.6-4.9-8.1c-0.7-0.3-1.2-0.9-1.8-1.4c1.6,0,3.2,0,4.8,0
	c0.5,0.4,1.1,0.9,1.6,1.3c0.1-0.4,0.2-0.9,0.4-1.3c0.6,0,1.3,0,1.9,0c0.3,1.9,0.5,3.8,0.9,5.6c0.3,1.4,0.5,2.9,1.2,4.1
	c1.2,1.8,2.9-0.7,4.4,0c0.3,0.1,0.5,0.3,1,0.5c-0.4,0.8-0.7,1.8-1.3,2.5c-1.4,1.4-0.5,2.7,0.6,3c2.3,0.5,4.6,0.4,7,0.5
	c0.1,0,0.5-1.2,0.3-1.5c-2.7-3.7-4.4-8.1-8.3-11c-1-0.7-1.2-2.4-1.8-3.7c0.6,0,1.3,0,1.9,0c2.6,4.4,7.3,6.4,11.3,9.2
	c0.9-3.4,0-6.4-1.6-9.2c1,0,1.9,0,2.9,0c0.4,1.2,0.8,2.3,1.4,4.2c0.7-1.9,1.1-3.1,1.5-4.2c0.6,0,1.3,0,1.9,0
	c-0.2,0.8-0.3,1.6-0.7,2.3c-2,4.3-2.6,8.9-1.9,14.5c2.4-3,6-4.3,5.6-8.5c0-0.4,0.3-1,0.6-1.2c1.8-1.2,0.7-2-0.1-3.1
	c-0.9-1.2-1.7-2.6-2.5-3.9c1,0,1.9,0,2.9,0c2.7,3.4,4.3,7.4,6.2,11.3c0.6,1.2,1.5,2.5,2.6,3.2c2.1,1.4,3.2,0.8,3.7-1.6
	c0.2-1.1,0.3-2.2,0.6-3.3c0.7-2.8,0.8-5.4-1.6-7.5c-0.5-0.4-0.6-1.4-0.8-2.2c1,0,1.9,0,2.9,0c0.7,1.6,1.2,3.3,2.1,4.8
	c0.5,0.8,1.6,1.8,2.5,1.8c3.1,0,6.2-0.5,8.9-2.6c-2.5-1.5-4.6-2.7-6.8-4c1.6,0,3.2,0,4.9,0c1.4,0.6,2.7,1.6,4.2,1.8
	c1.8,0.3,0.8-1.1,0.7-1.8c1.3,0,2.6,0,3.9,0c1.5,0.7,3,1.5,4.5,2.2c2.8,1.3,4.8,0.4,6.2-2.2c1.6,0,3.2,0,4.9,0
	c0.2,1.1,3.3,1.3,0.8,3.2c-0.5,0.4-0.5,1.7-0.3,2.5c0.8,2.6,2.8,3.7,5.4,4c2.9,0.3,5.8-0.1,8.4-1.4c0.9-0.4,1.7-1.4,2-2.3
	c0.5-1.3-0.6-1.9-1.6-2.5c-1.7-1-4.1-1.2-4.9-3.4c1.3,0,2.6,0,3.9,0c0.6,0.5,1.2,1,1.8,1.4c1.6,0.9,1.9-0.1,2-1.4c0.6,0,1.3,0,1.9,0
	c0,0.3,0,0.6,0,1c0,1.6-0.3,3.3,2.6,2.3c1.3-0.5,1.1,0.9,0.6,1.8c-1.3,2.5-1.2,2.6,1.1,3.8c3.7,1.9,6.7,0.4,9.6-1.4
	c-1.8-2.6-3.5-5-5.2-7.5c1,0,1.9,0,2.9,0c0.6,3.1,3.4,4.5,5,6.9c1.1,1.6,1,2.3-0.7,2.8c-1.1,0.4-2.2,0.5-3.2,1
	c-3.6,1.6-7.2,1.6-10.6-0.4c-2-1.2-3.6-1.3-5.8-0.3c-2.9,1.4-6.1,2-9.4,1.7c-1.9-0.2-3.3,0.4-4.8,1.8c-1.4,1.3-3.1,2.2-4.8,3
	c-1.9,1-3.9,1-5.9-0.1c-2.1-1.1-4.4-1.7-6.9-2.5c-0.4,1.5-0.8,3.1-1.3,4.6c-0.3,1-0.6,2.5-1.3,2.7c-1.6,0.5-3.4,0.8-4.8-1
	c-1.1-1.5-2.6-2.8-4-4.4c-0.9,2.9-1.6,5.5-2.5,8c-0.7,1.8-1.4,3.6-2.5,5.2c-1.5,2.4-2.4,2.4-4.6,0.6c-2.6-2.2-4.5-4.7-3.7-8.3
	c0.7-3.6-2.5-4.3-4.2-6.3c-1.5,3.2-1.2,5.7,1.3,8c1,0.9,1.5,2.5,2,3.8c1.1,2.9,0.6,4-2.3,4.2c-2.8,0.2-5.8,1.2-8.4-1.1
	c-0.3-0.3-0.9-0.4-1.3-0.6c-1.2-0.5-2.8,2.1-3.5-0.4c-0.3-1.2-0.1-2.5-0.3-3.9c-2,5.1-5.6,8.5-10.5,10.5c-2.1,0.9-2.4,0.6-2.6-2
	c0-0.3,0.2-0.8,0.1-0.9c-1.6-0.7-3.2-1.8-4.8-1.9c-1.2,0-2.4,1.4-3.6,2.3c-0.2,0.2-0.1,0.9,0,1.3c0.1,1.3,0.4,2.6,0.3,3.8
	c-0.2,2.2-1.2,2.7-3.2,2c-2.2-0.9-4-2-3.7-4.8c0.1-0.6-0.6-1.3-1.7-1.7c0,2.1,0,4.1,0,6.2c0,0.8,0,2.2-0.3,2.3
	c-3.3,1-1.3,2.7-0.8,4.3c0.4,1.3-0.1,2.2-1.6,2.3c-2.1,0-4.3,0.4-6.3-0.1c-2.2-0.5-3.6-0.7-4.3,1.8c-2.1,0.1-1.5,1.3-1.3,2.7
	c0.2,1.9,0.1,3.9,0,5.8c0,0.6-0.4,1.6-0.8,1.6c-0.9,0.1-2.3-0.6-2.7-0.2c-0.6,0.6,1.4,2.1-0.2,2.8c-0.9,0.4-2.2,0.7-3.1,0.5
	c-2.3-0.6-3.4,0.1-3.8,2.3c-0.1,0.6-0.5,1.2-0.8,1.8c-0.7,1.5-1.8,1.7-3.1,0.7c-0.6-0.5-1.1-1.2-1.8-1.6c-0.6-0.3-1.5-0.3-2.2-0.4
	c0,0.7-0.1,1.5,0,2.2c0.4,2.2,0.9,4.4,1.4,6.6c0.7,3.1,0.8,3.1-2.8,4c0.5,0.7,0.9,1.3,1.4,1.8c2.7,3,2.7,3.7-1,5.6
	c-2.2,1.2-4,3.5-6.9,2.8c-0.5-0.1-0.9-0.7-1.3-1.1c0.3-0.3,0.6-0.7,1-0.8c0.6-0.2,1.3-0.1,1.9-0.3c1.7-0.8,4.2-1.4,4.2-3.5
	c0.1-2.3-1.8-4-3.7-5.4c-0.2-0.1-0.6-0.1-0.9,0.1c-0.2,0.2-0.5,0.5-0.5,0.8c0,0.3,0.3,0.5,0.4,0.8c2.2,4,1.9,5.1-2.5,5.7
	c-2.9,0.4-2.9,1.2-2.4,3.6c0.4,2.2,0.1,4.5,0.1,6.8c0,3.2-0.1,3.1-3.4,4.2c-0.9,0.3-1.8,1.2-2.3,2.1c-2.1,4.2-2.4,8.9-3,13.5
	c-1.1,9.3-0.7,18.7-1.1,28c-0.2,5.6-1.2,11.1-1.7,16.7c-0.2,2.1-0.1,4.2,0,6.3c0.2,2.9,0.6,5.7,0.8,8.6c0.6,8,1.3,16,1.8,24
	c0.1,1.9,0.3,3.9,0,5.8c-1.2,7.6-1.5,15.2-1.9,22.9c-0.3,5.6-1.2,11.1-1.7,16.7c-0.5,5-0.7,9.9-1,14.9c-0.4,5.1-0.7,10.3-1.1,15.4
	c-0.2,2.7-0.6,5.4-0.9,8.1c-0.6,7.3-1.2,14.7-1.9,22c-0.6,6.5-1,13.1-2.1,19.6c-1.8,10.4-1.6,20.8-1.9,31.3
	c-0.2,6.5-1.5,13-2.4,19.5c-0.1,1-0.4,1.9-0.4,2.9c-0.4,8-0.3,16.1-1.1,24.1c-1,8.9-0.3,18-4.2,26.5c-0.5,1.1-0.4,2.5-0.4,3.8
	c-0.1,2.6-0.1,5.2,0,7.8c0.1,7.6-0.8,15-1.8,22.5c-0.6,4.6-0.7,9.3-1.1,13.9c-0.2,2.5-0.7,5.1-0.7,7.6c0,2.5,0.5,5.1,0.7,7.6
	c0.5,7.4,4.7,12.7,9.7,17.6c1,0.9,2.1,2,3.4,1c1.3-1,3.4-1.4,3.3-3.8c-0.1-1.5,0-2.9,0.1-4.4c0-0.3,0.5-0.9,0.9-0.9
	c0.4-0.1,1,0.2,1.2,0.6c0.5,1.1,0.9,2.3,1.3,3.6c2.7-1.3,5.1-3.7,8.8-2.1c-1.2,2-2.9,3.2-4.6,4.6c-1.1,0.8-2.5,2-2.6,3.1
	c-0.1,1.8,0.3,4.1,1.5,5.4c0.9,1,3.2,0.7,4.9,1l0.3,0.2c0.7,1.2,1.2,0.7,1.8-0.1l0,0c0.6-0.1,1.2-0.1,1.8-0.2l0.3,0.4
	c-1.1,1.3-1.4,2.6,0.5,3.4c8.7,3.7,17.3,7.6,26.2,10.7c2.9,1,5.6,2.3,8,4.4c1.7,1.4,3.9,2.1,5.9,3.1c1,0.5,2.1,1,3,1.6
	c0.1,0.1-0.2,1.4-0.4,1.4c-0.9,0.1-2,0.3-2.7-0.1c-2.2-1.3-4.6-1.4-7-1.4c-1.3,0-2.5-0.4-3.8-0.5c-7.2-0.9-14.5-1.4-21.7,0.2
	c-2,0.5-4.1,0.3-6.1,0.4c-1,0.1-2.1-0.1-2.8,0.3c-2.8,1.7-5.9,1.4-8.9,1.5c-4.3,0.2-8.6,0.7-13,0.8c-1.6,0.1-3.2-0.4-4.8-0.6
	c-1-0.1-2-0.5-2.9-0.3c-5.4,1.5-10.9,0.7-16.4,0.9c-3.4,0.1-3.4,0.1-3.8,3.8c0,0.5-0.2,0.9-1,1.4c-0.5-5.7-0.9-11.4-1.4-17.1
	c-0.1,0-0.1,0-0.2,0c-0.4,5.7-0.8,11.4-1.2,17.1c-0.3,0-0.6,0-0.9,0c-0.1-1.6-0.2-3.2-0.4-4.9c0-0.3-0.6-0.6-0.9-0.9
	c-0.3,0.3-0.7,0.6-0.8,1c-0.2,0.6,0,1.3-0.2,1.9c-0.2,0.5-0.7,0.8-1.1,1.2c-0.2-0.4-0.7-0.8-0.7-1.1c-0.1-1.8,0-3.6,0-5.3
	c0.3-1,0.6-1.9,1-2.9c0.3-1,0.7-1.9,1-2.9c0.2-0.2,0.3-0.3,0.5-0.5c-0.2,0.2-0.3,0.3-0.5,0.5c-0.3,1-0.6,2-0.9,2.9
	c-0.3,1-0.6,1.9-1,2.9c-0.8,2.2-1.6,4.4-2.2,6.7c-0.1,0.6,0.4,1.4,0.8,2c4.3,5.2,7.9,10.9,11,16.9c0.8,1.6,1.5,3.2,2,4.9
	c0.4,1.5-0.3,2.5-2,2.6c-0.5,0-1,0.1-1.5,0.1c-6.3-0.2-12.4-1.1-18.6-2.3c-7.4-1.4-13.3-5.8-20.1-8.3c-4.2-1.5-8.3-3.3-12.9-5.1
	c-0.1,1.9-0.1,3.5-0.3,5c-0.1,0.5-0.6,1-0.9,1.4c-0.3-0.4-1-0.9-1-1.3c-0.1-2.9-0.1-5.8-0.1-8.7c0-0.8,0-1.6-0.7-2.4
	c-0.1,2.4-0.1,4.8-0.3,7.1c0,0.5-0.6,1-0.9,1.5c-0.6-0.5-1.6-0.8-1.7-1.4c-0.2-1,0.1-2.2,0.2-3.3c0-0.6-0.2-1.1-0.3-1.7
	c-0.6,0.1-1.4,0.1-1.7,0.4c-1.4,1.8-2,1.1-2.3-0.7c-0.6-3-1.1-3.4-3.9-3.8c-2.4-0.3-4.7-0.6-7.1-0.9c-0.5-0.1-1-0.1-1.4,0
	c-7.5,3.1-15.8,2.2-23.4,4.5c-0.9,0.3-1.9,0.2-2.9,0.2c-4.4,0.1-8.7,0.6-10.8,5.5c-2-1.6-2-3.6-1.8-5.4c0.3-3.3-0.5-6.4-2-9.3
	c-0.2-0.3-0.5-0.6-0.8-0.9c-0.2,0.4-0.7,0.8-0.6,1.2c0.5,2.8,1,5.7,1.8,8.4c0.7,2.3-0.2,4-1.4,5.7c-0.2,0.2-0.9,0.2-1.3,0.1
	c-0.2,0-0.4-0.5-0.4-0.8c0.1-0.9,0.5-1.9,0.4-2.8c0-0.4-0.9-1-1.4-1.1c-0.4-0.1-1.1,0.3-1.3,0.7c-0.5,1-0.8,2.1-1.3,3.1
	c-0.2,0.3-0.9,0.7-1,0.6c-0.4-0.2-0.8-0.8-0.7-1.1c0.1-1.2,0.2-2.5,0.6-3.7c0.8-2.8,1.7-5.5,2.6-8.2c0.3-0.3,0.5-0.6,0.8-0.9
	c-0.2-0.1-0.3-0.2-0.5-0.3c-0.1,0.4-0.2,0.8-0.3,1.3c-2.8,2.2-3.8,5.5-4.8,8.7c-0.2,0.6,0,1.4-0.2,1.9c-0.4,1-1.1,2.6-1.6,2.6
	c-1.6,0-1.1-1.6-1.2-2.6c-0.1-0.9-0.1-2-0.6-2.8c-0.5-0.9-1.2-1.6-2.7-1.4c-3.8,0.4-7.6,0.3-11.4,0.5c-1.1,0.1-2.2,0.4-3.3,0.6
	c-4.8,1-9.7,2.1-14.5,3.1c-0.6,0.1-1.7-0.1-1.7-0.4c-0.1-0.6,0-1.5,0.4-2c2.4-3.7,6.2-6,9.2-9c2.5-2.4,5.7-4.1,8.6-6.2
	c2.1-1.5,4-2.8,7-2c1.5,0.4,3.6-1,5.4-1.7c2.5-1.1,4.9-2.3,7.6-3.6c-2.3-4.9-3.9-10.2-8.3-13.9c-0.6-0.5-1-1.3-1.2-2
	c-0.4-1.5,1.2-2.9,2.6-2.3c1.2,0.5,2.3,1.2,3.2,2.1c1.6,1.6,3.1,3.3,4.7,5.1c2.2-1.9,1.9-4.4,3-6.2c0.9-1.7,1.9-3.3,3-4.8
	c0.2-0.3,1-0.4,1.3-0.2c0.3,0.2,0.7,0.8,0.6,1.2c-0.4,1.6-0.9,3.2-1.6,6c1.3-1.6,1.8-2.3,2.4-2.9c1.6-1.8,3.5-2.8,5.9-2.7
	c1.3,0,2.6,0,3.9-0.1c1.5-0.2,1.7-1,1-2.3c-0.9-1.5-1.7-3-2.5-4.6c-0.2-0.3,0-1,0.2-1.2c0.3-0.2,1-0.2,1.3,0.1
	c2.1,1.7,4.3,3.4,6.3,5.2c0.6,0.5,0.9,1.4,1.6,2.6c1.5-2.7,2.5-4.5,3.7-6.7c0.8,1.1,1.4,1.8,1.8,2.5c0.6,1.1,1.4,2.1,2.6,1.4
	c0.8-0.5,1.6-1.8,1.5-2.6c-0.2-2.4-1-4.7-1.5-7c-0.1-0.3,0-0.6,0-1.4c1.6,1,2.9,1.9,3.6,3.6c-3,0.8-0.2,2.2-0.1,3.3
	c0.1-1.1,0.1-2.2,0.2-3.2c0.3,1,0.8,2,1,3c0.5,2.6,1.2,3,3.5,2c2.9-1.3,5.1-3.3,6.3-6.3c2.5-6.4,5.5-12.7,7.5-19.3
	c3.9-13,7.6-26.1,9.9-39.6c1.1-6.8,2.6-13.5,3.6-20.3c0.6-4.1,0.7-8.3,1.2-12.4c0.2-1.9,0.6-3.8,0.8-5.7c0.4-3.8,0.8-7.7,1.2-11.5
	c0.1-1.4,0.2-2.9,0.5-4.3c1.7-8.5,3.5-16.9,5.2-25.4c0.2-0.8,0.1-1.6,0.1-2.4c-0.1-4.5,0.6-8.9,1.6-13.3c0.8-3.4,1-7,1.3-10.5
	c0.7-6.5,1.4-13.1,1.8-19.6c0.3-4.8,0.1-9.7,0.2-14.5c0.3-9.9,0.2-19.9,1.1-29.8c0.5-5.6,0.2-11.3,1-16.8c1.4-10.9,1.2-21.8,2-32.7
	c0.8-10.2,0.3-20.3,0.7-30.4c0.3-7.2,0.2-14.5,1.1-21.7c1.6-13.2,0.2-26.4,0.9-39.6c0.5-8.8,1-17.7,0.9-26.5c0-2.4-0.1-4.6-2.1-6.6
	c-1.6-1.6-2.1-4.2-3.2-6.6c-1.4,2.6-3.2,3.2-5.7,2.1c-1.6-0.7-3.4-1-5-1.6c-1.1-0.4-1.4-1.3-0.3-2.2c1.1-0.9,2.3-1.8,3.3-2.8
	c0.2-0.3-0.2-1.1-0.3-1.7c-0.5,0.2-1,0.3-1.3,0.6c-1.6,1.3-2,1.2-2.7-0.4c-1.3-2.9-2.6-5.9-3.9-8.8c0.3-0.3,0.6-0.6,1-1
	c0.6,0.9,1.2,1.8,1.9,2.6c0.9,1,1.9,1.9,2.9,2.9c0.4-1.1,0.6-2.3,1.1-3.4c0.8-1.9,1.3-3.6-1.2-4.8c-1.1-0.6-1.4-2.1-0.4-2.9
	c2-1.8,1-3.4,0-5.1c-0.5-0.9-0.9-2-1.4-2.9c1.3-0.9,1-2.1,0.2-4.2c-0.1,2-0.2,3.1-0.2,4.2c-1.5,1-0.9,2.6-0.9,3.9
	c0,3.4-0.7,6.6-2,9.6c-0.3,0.3-0.6,0.6-1,1c-1,0.8-1.9,1.7-3,2.4c-2.2,1.3-4.1,0.5-4.8-2c-1.1-3.8-2.1-7.7-3.2-11.8
	c-1.1,0.9-1.9,1.6-2.8,2.3c-3.7,2.6-4.6,2.4-5.4-2.1c-0.4-2.6,0.1-5.4,0.2-8.1c0.1-1.7,0.3-3.4-0.2-5.4c-0.4,0.5-1,1-1.1,1.7
	c-0.3,1.4-0.9,2.1-2.3,1.3c-1.8-1-3,0.4-4.5,1c-2.3,0.9-3.6,0.3-3-1.8c1.3-4.4-0.3-7.6-2.8-10.8c-0.2-0.3-0.1-0.9-0.2-1.4
	c0.5,0.1,1.1,0,1.4,0.3c3.1,3.1,6.2,6.2,9.5,9.7c1.5-4.4,2.5-8-0.1-11.8c-1.2-1.8-2.5-2.3-4.4-1.8c-1.4,0.3-2.8,0.7-4.2,0.7
	c-2.2,0-2.2,1.4-2.2,2.9c-0.7,2.4-1.4,4.8-2.2,7.2c-0.2,0.5-0.8,0.9-1.3,1.1c-0.2,0.1-0.8-0.5-1-0.9c-1.3-2.6-2.7-5.2-3.9-7.8
	c-1-2-2-3.3-4.7-2.6c-2.2,0.6-2.8-0.3-2.5-2.6c0.5-3.1-0.3-5.7-2.3-8.5c-2.3,1.7-4.6,3.6-7,5.2c-0.6,0.4-1.8,0.4-2.5,0.1
	c-0.4-0.2-0.6-1.5-0.4-2.1c0.3-1,0.9-2,1.7-3.8c-1.8,0.8-2.9,1.3-4,1.7c-1.7,0.6-3.3,1.2-5,1.5c-1,0.2-2.4,0-3-0.6
	c-1.2-1.2,0.5-1.9,1.1-2.7c0.3-0.4,0.7-0.7,0.9-1.1c2-4.6,5.1-8.1,9.3-10.8c0.5-0.3,1.1-1.1,1.1-1.2c-2.4-2.9-0.8-6.3-1.3-9.3
	c-0.1-0.3-0.1-0.6-0.2-0.9c-0.4-1.1-1.4-1.4-2.2-0.4c-1.3,1.7-2.5,3.4-3.5,5.2c-1.9,3.3-3.7,6.8-5.6,10.1c-2,3.6-4.7,6.5-7.8,9.1
	c-0.5,0.4-1.5,0.5-2.2,0.4c-0.3-0.1-0.7-1.1-0.7-1.6c0.4-3.5,0.6-7,1.4-10.5c0.7-3.4,1.9-6.7,3.1-10.5c-2.4,1.5-4.8,2.8-6.9,4.5
	c-3.5,2.9-7.8,2.5-11.8,3.5c-1.1-1.3-2.4-2.5-3.1-3.9C18,7.2,18.2,5.6,18,3.7c-2.8,1.4-5.2,2.5-7.7,3.6C9.8,7.6,8.8,7.8,8.6,7.5
	C8.1,7,7.6,6,7.8,5.4C8.3,3.6,9,1.8,9.7,0c1,0,1.9,0,2.9,0c-0.3,1.5-2.8,2.4-1.5,4c0.4,0.5,2.8-0.4,4.2-1.1C16.8,2.2,18,1,19.4,0
	c1.3,0,2.6,0,3.9,0c-0.6,0.7-1.4,1.3-1.9,2.1c-0.4,0.6-0.7,1.3-0.9,2c-0.1,0.4,0.2,1,0.5,1.2c0.2,0.2,0.8-0.1,1.2-0.3
	C24,3.8,24.5,2,24.2,0c1.9,0,3.9,0,5.8,0c-0.4,0.7-0.6,1.4-1.1,2c-1.4,1.4-2.9,2.6-4.3,3.9c-1.2,1.2-2.2,2.6-2.1,4.5
	C30.3,9.2,36.2,5.8,40.7,0c3.6,0,7.1,0,10.7,0c0.2,0.6,0.5,1.1,0.7,1.7c0.4-0.6,0.8-1.1,1.2-1.7c2.6,0,5.2,0,7.8,0
	c0,2.4,0,4.8,0.1,7.2c0,1.3,0.8,1.6,1.9,1c3.3-1.7,4.4-4.7,4.8-8.2c1.6,0,3.2,0,4.8,0c-1.5,1.5-3.6,2.6-3.5,5.6
	c2.4-1.5,4.7-2.8,6.9-4.3c0.3-0.2,0.3-0.9,0.4-1.3c1.3,0,2.6,0,3.9,0c0,2.5,2.2,2.9,3.8,3.8c1.7,1,3.3,1.2,4.9,0
	c1.9-1.3-0.6-2.6,0-3.8c1,0,1.9,0,2.9,0c0.2,0.8,0.4,1.5,0.7,2.3c0.4,1.2,1.1,2.4,1,3.5c0,0.5-1.8,0.7-2.7,1.3
	c-0.4,0.3-0.8,1.3-0.6,1.5c0.4,0.5,1.5,1.1,1.8,0.9c1.8-1.2,3.9-2.3,5.1-4C98.1,4.5,97.2,2.5,97,1c0-0.3,0-0.6,0-1
	c1.3,0,2.6,0,3.9,0c-0.1,1.5-0.2,3-0.3,4.5c2.5,0.7,3.2-1.5,4.6-2.7c0.6-0.5,1-1.2,1.5-1.9c1.3,0,2.6,0,3.9,0
	c-0.1,0.6-0.5,1.5-0.3,1.7c2.3,1.9,3.8,1.4,5.1-1.7c4.2,0,8.4,0,12.6,0c-1.8,3.8-2.9,7.7-3.4,11.8c-0.6,4.2-1.9,8.1-4,11.8
	c-0.1,0.3,0.1,0.7,0.2,1.9c3.7-4.4,6.8-8.2,10.1-12c3.2-3.8,3.9-7.6,0.9-11.8c-0.4-0.5-0.6-1.2-0.9-1.7c1,0,1.9,0,2.9,0
	c0.1,1.3,0.4,2.6,1.9,2.6c1.4,0,1.9-1.3,2-2.6c1,0,1.9,0,2.9,0c-1.1,1.3-2.3,2.6-3.4,4c-1.3,1.5-1.2,4.6,0.1,6
	c0.7,0.8,1.3,1.8,2,2.6c0.4,0.4,1.1,0.5,1.6,0.6c0.1,0,0.5-0.8,0.5-1.2c0.1-4,0.1-8,0.1-11.9C142.6,0,143.6,0,144.5,0z M41.7,518
	c0.3,0.3,0.7,0.6,1,1c1.4,2.7,2.8,5.4,4.3,8c0.1,0.2,0.6,0.4,0.8,0.3c0.2-0.1,0.6-0.5,0.5-0.7c-0.8-3.3-2-6.3-5.6-7.6
	C42.4,518.6,42,518.3,41.7,518c0-0.1-0.1-0.3-0.2-0.4c-0.1-0.1-0.2-0.1-0.3-0.1C41.4,517.7,41.5,517.8,41.7,518z M293.9,11.6
	c-0.1-0.1-0.1-0.3-0.2-0.4c-0.1-0.1-0.2-0.1-0.3-0.1C293.6,11.3,293.8,11.5,293.9,11.6c0.3,0.3,0.7,0.6,1,1c0.1,0.4,0.1,0.9,0.3,1.3
	c0.1,0.2,0.5,0.3,0.7,0.4c0-0.3,0.2-0.8,0.1-1c-0.2-0.3-0.7-0.5-1.1-0.7C294.6,12.3,294.2,12,293.9,11.6z M256.1,22.3
	c-0.1-0.1-0.1-0.3-0.2-0.4c-0.1-0.1-0.2-0.1-0.3-0.1C255.8,22,255.9,22.1,256.1,22.3c0.1,0.4,0.2,0.8,0.3,1.3
	c0.2-0.1,0.3-0.2,0.5-0.3C256.6,22.9,256.3,22.6,256.1,22.3z M76.6,518c1.4-2.5,1.5-5.3,2-8.5C76.4,512.4,76.7,515.2,76.6,518
	c-1.5,1.3-0.8,2.7,0,4.2C76.6,520.8,76.6,519.4,76.6,518z M207.5,514.1c0.1,0.4,0.2,0.8,0.3,1.2c0.2-0.1,0.3-0.2,0.5-0.3
	C208.1,514.7,207.9,514.4,207.5,514.1c0.7-1.2,1-2.4,1.8-3.3c1.7-1.8,3.6-3.3,5.5-4.9c-4,0.9-6.9,3.3-9.4,6.1c-0.3,0.4-0.3,1.7,0,2
	C205.9,514.4,206.8,514.1,207.5,514.1z M88.3,30.1c1.5-2.8,3.2-5.5,4.5-8.3c0.9-1.9,0.3-2.6-1.8-3.3c-1.4-0.5-2.8-1-5.4-1.9
	C89.3,21.3,86.9,25.9,88.3,30.1c-0.6-0.1-1.3-0.5-1.9-0.3c-0.6,0.1-1.4,0.6-1.7,1.1c-0.2,0.3,0.4,1.4,0.8,1.5
	c0.5,0.1,1.3-0.2,1.8-0.6C87.8,31.3,88,30.6,88.3,30.1z M306.5,11.6c-1.7,1.9-3.3,3.8-5.1,5.6c-1.4,1.4-2,2.8-1.3,4.7
	c0.3,0.7,0.5,1.5,0.7,2.3c0.6,2.2,1.1,2.4,2.7,0.6C306.8,21.1,307.4,16.5,306.5,11.6c0.6-0.4,1.3-0.7,1.8-1.1
	c0.1-0.1-0.2-0.8-0.3-1.2c-0.2,0.2-0.4,0.4-0.6,0.7C307.1,10.5,306.8,11.1,306.5,11.6z M220.2,45.6c2-0.2,2.1,1.6,2.9,2.7
	c2,3.1,4.9,4.6,8.1,3.9c0.6-0.1,1.3-0.9,1.5-1.5c0.3-1,0-2.1-1.3-2.1c-3.6-0.1-4.8-2.7-6.1-5.3c-0.9-1.8-2.1-3.5-3.2-5.5
	C219.7,40.4,220.3,43.1,220.2,45.6c-1.4,3.7-1.4,7.7-1.8,11.6c-0.2,1.9,1.4,2.3,2.8,2.8c0.4,0.1,1,0,1.3-0.3c0.2-0.2,0.4-1,0.2-1.2
	C220.1,54.5,220.4,50,220.2,45.6z M74.7,33.9c2-1.2,4.1-2.3,6.1-3.6c3.6-2.3,5.2-6.7,4.2-10.7c-0.7-2.5-1.4-5-2.2-7.8
	c-2.7,3.2-4.4,6.5-4.2,10.5c0,0.8-0.1,1.6-0.4,2.3C77.1,27.9,75.9,30.9,74.7,33.9c-0.1,0.1-0.3,0.1-0.4,0.2
	c-0.1,0.1-0.1,0.2-0.1,0.3C74.4,34.3,74.5,34.1,74.7,33.9z M61.1,28.1c4.2-1.7,7-5.2,9.7-8.5c2.3-2.8,4-6.2,5.4-9.5
	C76.9,8.5,77,5.6,76,4.7c-1.3-1.3-2.7,1.3-4.3,1.8c-0.9,0.3-1.6,1-2.4,1.6c-2.8,2-4.6,4.4-4.3,8.1c0.3,3.7-0.9,6.9-3.1,9.8
	C61.5,26.6,61.4,27.4,61.1,28.1c-0.1,0.1-0.3,0.1-0.4,0.2c-0.1,0.1-0.1,0.2-0.1,0.3C60.8,28.4,61,28.3,61.1,28.1z M59.4,531.4
	c-6.6,2.3-12.2,4.2-17.7,6.1c-3,1-6,2.2-9.1,3c-4.8,1.3-8.8,3.5-12.3,7.1c-2.2,2.4-4.6,4.5-7.1,7c0.7,0.1,1.2,0.2,1.7,0.1
	c7-0.9,13.9-2,20.9-2.8c2.8-0.3,5.6-0.2,8.5-0.3c2.2-0.1,6.6-6.4,5.7-8.4c-0.3-0.7-0.8-1.4-1.4-1.9c-0.5-0.4-1.2-0.5-1.7-1
	c-0.6-0.6-1.8-1.5-1.6-1.9c0.4-1.3,1.4-2.1,3-1.4c0.9,0.4,2.2,0.1,2.8,0.6c2,1.9,3.2,1.2,4.4-0.9C56.3,535.2,57.6,533.8,59.4,531.4z
	 M127.7,22c-2.1,2-4.1,3.8-6.2,5.8c4.2,4.3,6.3,9.8,8.9,14.9c1.1,2.2,2.4,4.3,3.8,6.8c0.5-3.2,1.1-5.7,1.3-8.3
	c0.2-2.6,0-5.2,0.1-7.7c0.1-3.2-1-5.6-4.1-6.9C129.6,25.7,128.2,24.3,127.7,22z M249.3,47.7c-1.3-1.1-2.3-2-3.3-2.9
	c-3.5-3-7.1-6.1-10.6-9.1c-0.2-0.2-0.4-1-0.2-1.2c0.2-0.3,0.9-0.6,1.2-0.4c0.7,0.2,1.4,0.8,2.1,1.1c0.7,0.3,1.9,0.8,2.2,0.5
	c1.6-1.5,3.5-3,4.4-4.9c1.2-2.4-2.2-12.4-4.3-14.4c-0.1-0.1-0.2-0.3-0.4-0.3c-0.4-0.1-0.9-0.1-1.3-0.2c0,0.4-0.2,0.9-0.1,1.3
	c1.4,3.9,2.9,7.8,4.2,11.8c0.4,1.1,0.5,2.3-1,2.9c-3.4,1.3-8.3-0.3-10.4-3.3c-0.6-0.9-1-1.9-1.6-3.1c-0.2,0.6-0.5,1-0.4,1.2
	c2.1,5.7,4.3,11.4,6.5,17.1c0.3,0.7,0.6,1.4,0.6,2.1c-0.1,2,1,2.5,2.7,2.4c1.2,0,2.5,0.1,3.7,0.1C245.3,48.4,247.2,48.9,249.3,47.7z
	 M53.4,531.3c1.8-0.6,3.3-0.9,4.5-1.6c4.4-2.6,8.7-5.3,13.1-7.9c0.3-0.2,0.5-0.4,0.6-0.7c0.6-1.2-1.5-6.7-2.8-6.7
	c-2.9,0-6.1-1.2-8.7,1.3c-2,1.9-1.9,2.4,0.9,3.3c1.2,0.4,2.5,0.5,3.7,0.9c1.3,0.4,3.3-1,4,1.4c-1.5,0.2-3.1,0.4-4.6,0.4
	c-0.4,0-0.9-0.4-1.3-0.5c-2.2-0.4-4.4-0.9-6.6-1.2c-1.7-0.2-2.7,0.4-2.7,2.4C53.4,525.1,53.4,527.8,53.4,531.3z M100.7,16
	c-3.6,0.9-6,2.3-5.8,6.3c0.1,1-0.8,2.1-1.3,3.1c-1.6,2.8-3.4,5.5-5,8.3c-0.2,0.4,0,1.2,0.2,1.7c0.1,0.2,0.8,0.2,1.3,0.1
	c7.6-1.2,12.3-8.1,13.5-12.9c0.2-1,0.2-1.8-1.4-1.8c-3.6,0-3.7-0.3-1.8-3.5C100.5,17,100.6,16.6,100.7,16z M117.8,47.6
	c3.8-4.9,3.8-10,3-15.1c-0.2-1.1-1.2-2.7-2.1-3c-2.9-0.7-3.4-1.9-1.9-4.3c0.1-0.2,0.1-0.7,0-0.9c-1.9-1.9-3.9-3.8-5.9-5.6
	c-0.2-0.2-1.1,0.1-1.2,0.4c-0.2,0.4-0.2,1.1,0,1.6c0.3,0.5,0.9,0.9,1.3,1.4c2.8,2.9,3.2,6.9,4.5,10.5c-1.8,3.9,0.7,7.4,1.1,11.1
	C116.6,44.9,117.3,46,117.8,47.6z M103.8,17.9c2.6-0.6,4.4-0.7,5.8-1.5c4-2.3,7.9-4.9,11.8-7.5c2.1-1.4,1.9-3.6,1.6-5.7
	c-0.1-0.5-1.3-1.2-1.7-1.1c-3.9,1.4-7.8,3-10.5,6.3C108.5,11.2,106.6,14.1,103.8,17.9z M39.1,23.8c2.5-3,4.3-5,5.8-7.2
	c1.3-2,2.3-4.2,3.4-6.3c0.6-1.1,1-2.3,1.6-3.5c0.7-1.4-0.1-2.1-1.1-2.8c-3-1.9-4.9-1.5-6.6,1.8C39.6,11.1,38.4,16.7,39.1,23.8z
	 M258,18.2c0.4,2.5,0.5,5.1,1.4,7.4c0.6,1.5,2,2.9,3.4,3.9c3.2,2.4,7.1,1.6,10.7,1.4c1-0.1,1-1.1,0.4-1.8c-2.2-2.3-4.6-4.5-6.7-6.9
	C264.7,19.5,261.9,18.1,258,18.2z M249.4,19.2c-0.7,1-1.5,1.7-1.6,2.5c-0.2,3.8-0.2,7.7-0.2,11.6c0,0.6,0.4,1.4,0.8,1.7
	c0.7,0.4,1.8,0.8,2.4,0.5c4.8-2.5,5.8-5.7,3.5-10.6c-0.3-0.7-0.6-1.6-1.1-2.1C252.1,21.5,250.9,20.5,249.4,19.2z M110.5,4.7
	c-2.1,0.3-3.6,0.5-5.1,0.9c-5.3,1.4-9.9,4.3-14.1,7.7c-0.7,0.5-1,1.5-1.5,2.2c1,0.3,2,0.7,3,0.9c0.4,0.1,0.9-0.2,1.3-0.4
	c3.2-1.7,7.3-1.5,9.7-4.7c0.2-0.2,0.6-0.4,0.9-0.3c1.4,0.6,1.9-0.2,2.5-1.3C108.1,8.1,109.2,6.7,110.5,4.7z M325.4,13
	c-0.2,0-0.3-0.1-0.5-0.1c0-0.8,0-1.6,0-2.4c0-1.2-0.7-1.7-1.9-1.7c-1.1,0-1.8,0.5-1.9,1.6c0,0.5-0.1,1,0,1.4
	c0.2,2.5-0.6,4.2-2.8,5.7c-2.5,1.7-2.7,4.4-1.3,7.3c0.6,1.2,1.3,2.5,2.7,2.2c0.9-0.2,2-1.2,2.3-2.1C323.3,21,324.3,17,325.4,13z
	 M105.7,37.7c-1.3,2-2.1,3.4-3,4.7c-3,4-3.1,5.4-0.1,9.2c1.2,1.5,2.7,2.8,4.1,4.1c1,0.9,1.9,0.4,2.4-0.5c1.1-2.3,1.8-4.8,1.3-7.4
	c-0.2-1.2-0.8-2.3-2.3-1c-1.5,1.3-2.3,0.8-2.4-1.1C105.7,43.2,105.7,40.8,105.7,37.7z M119.3,66.3c-3.3,1.6-3.2,1.5-4.3-1.1
	c-1.1-2.5-1.2-5.5-3.2-7.8c-2.3,3-2.7,5.8-1.5,8.9c0.9,2.5,1.5,5.2,2.3,7.8c0.5,1.5,1.7,1.9,2.9,0.8
	C117.7,72.8,119.1,70.2,119.3,66.3z M94.1,507.9c-4.3,1.2-8.3,2.3-12.2,3.5c-0.8,0.2-1.5,1.2-1.8,2c-0.6,1.5-0.9,3.1-1.2,4.6
	c-0.3,1.4,0.6,2.1,2,1.8c0.6-0.1,1.3-0.3,1.8-0.7C86.8,516.1,91.6,513.6,94.1,507.9z M130.4,70.5c-1.8,1.1-2.6,2.8-2.4,5
	c0.1,0.8,0.1,1.7-0.3,2.4c-1.2,2-0.2,3.7,0.8,5.4c0.7,1.2,1.5,2.5,2.3,3.6c0.3,0.5,1.2,1.1,1.3,1c0.6-0.4,1.5-1.1,1.5-1.7
	C133.6,80.8,135.4,75,130.4,70.5z M112.7,33.4c-0.5-4.9-2.4-8.2-4.9-11.2c-0.3-0.3-0.9-0.6-1.2-0.5c-0.3,0.1-0.7,0.6-0.8,1
	c-1,5.9,2.1,11.2,2.4,16.9c0.1,1,1.4,0.8,1.8,0C111.1,37.3,112,35,112.7,33.4z M229.4,31.1c-0.8,1.5-1.2,2.5-1.8,3.4
	c-1,1.5-1.9,1.6-3.1,0.3c-1-1-1.9-2.2-2.8-3.4c-0.4,1.2-0.5,2.2,0,2.9c2,3.2,4.2,6.4,6.4,9.5c0.6,0.9,1.5,1.7,2.4,2.3
	c0.5,0.3,1.8-0.1,2-0.5c0.5-1.1,1.1-2.5,0.8-3.6C232.3,38.6,230.9,35.2,229.4,31.1z M287.8,32.8c0.5-0.1,0.7-0.2,0.8-0.2
	c4.6-2.1,6.2-6.5,7.6-10.7c1-3-0.8-4.3-3.8-3.1c-1.2,0.5-3,0.2-3.4,2.2c-0.6,3.5-1.3,6.9-1.9,10.4C287.2,31.8,287.6,32.3,287.8,32.8
	z M224.7,83.4c0.3-0.1,1.1-0.5,1.9-0.8c-0.4-0.7-0.6-1.5-1.1-2c-2.8-2.6-4-6.1-5.5-9.5c-0.5-1.1-1.6-2.7-2.3-2.7
	c-1.6,0.1-1.4,1.9-1.4,3.1c0.1,2.2,0.2,4.5,0.7,6.6C218.2,81.9,220.3,83.3,224.7,83.4z M133,70.2c1.2-1.5,2.2-2.2,2.5-3.2
	c0.8-2.7,2.7-5.2,2.2-8.3c-0.3-1.6,0-3.2-0.4-4.8c-0.3-1.2-1.4-1.8-2.6-1.4c-2,0.5-3.4,3-3.1,5.1c0.2,1.6,0.2,3.2,0.4,4.8
	C132.2,64.7,132.6,67.1,133,70.2z M121.7,52.8c-0.2,0-0.3-0.1-0.5-0.1c0-0.6,0.1-1.3,0-1.9c-0.1-0.6-0.3-1.2-0.5-1.8
	c-0.6,0.4-1.3,0.6-1.7,1.1c-1.1,1.1-2.5,2.3-3.4,0.4c-1-2.2-0.8-1.2-1.4,0.1c-0.7,1.7-0.9,3.3-0.1,5.1c0.9,2.1,1.4,4.3,2.2,6.3
	c0.2,0.6,0.8,1.1,1.3,1.7c0.5-0.4,1.2-0.8,1.3-1.3C120,59.3,120.8,56,121.7,52.8z M229.3,64.9c4.9-0.6,8.2-3,9.1-6.6
	c0.5-2,0.8-4.1,1-6.1c0.1-0.5-0.3-1.3-0.7-1.5c-0.7-0.4-1.5-0.5-2.3-0.7c-0.2,0.7-0.4,1.4-0.5,2.1c0,0.4,0.3,0.9,0.4,1.4
	c0.3,2-0.3,2.7-2.3,1.8c-1.8-0.8-2.1-0.2-2.5,1.4C231,59.3,230.1,61.9,229.3,64.9z M286,26.3c-0.4-3.7-1.9-7-4.1-10
	c-0.3-0.4-2-0.3-2-0.2c-0.4,2.4-3.3,4.4-1.5,7.2c1.3,2,2.6,4,4.2,5.7c1.4,1.5,2.9,0.9,3.3-1.3C286.1,27.2,286,26.7,286,26.3z
	 M345.4,11.6c0-3.8-0.8-7.4-5.8-8.7c-1.4-0.3-1.8,0-2.5,1c-2.1,2.7-2.5,3.1-0.1,5.3c1.9,1.8,4.4,3,6.8,4.2
	C344.6,13.9,346.2,13.9,345.4,11.6z M215.8,82.6c-0.5,3.2-1.2,5.8-1.1,8.5c0,2.3,0.1,4.8,2.9,6.1c2,0.9,2.4,0.8,2.6-1.5
	c0.2-1.3,0.6-2.5,0.5-3.7c-0.2-2.2-0.4-4.4-1.3-6.4C219,84.3,217.2,83.6,215.8,82.6z M51.1,27.2c3.6-1.7,6.3-3,9-4.4
	c0.7-0.3,1.6-0.9,1.7-1.5c0.6-2.3,0.9-4.6,1.4-7.4C57.4,16.8,52.9,20.1,51.1,27.2z M237.6,29.1c2.9,0,3.3-0.4,2.3-3.2
	c-1-3-2.2-6-3.3-9c-0.1-0.4-0.5-0.7-0.8-1c-0.3,0.5-0.8,0.9-0.9,1.4c-0.2,1.4,0.3,3.3-1.6,3.6c-1.6,0.2-1.5,0.8-1.2,1.8
	c0.4,1.2,1.3,2.3,1.6,3.5C234.1,28.5,235.5,29.3,237.6,29.1z M335.6,16.6c0-2.1,0.3-3.2-0.1-4c-0.7-1.7-1.4-3.7-2.8-4.8
	c-0.7-0.6-3,0.2-4.2,1c-1.4,0.8-1.6,3.1-0.7,4.2c1.3,1.4,2.6,2.8,4.1,4.1c0.9,0.8,2,1.4,3,2.1C335.2,17.9,335.5,16.7,335.6,16.6z
	 M135.5,11.6c-1.4,1.8-2.5,3.2-3.6,4.5c-2.2,2.6-2.1,3.7,1.1,4.6c1.5,0.5,3.5,0.4,5-0.1c3.6-1.3,3.7-2.4,1-5
	C137.7,14.4,136.7,13,135.5,11.6z M226.4,33.2c0.4-2.7,0.5-4.8,1-6.9c1-4.2,0.9-6.5-4-9.1C222.3,22.7,221,28.2,226.4,33.2z
	 M225.6,2.8c-0.5,3.2-1.1,5.6-1.3,8.1c-0.1,1,0.3,2.1,0.8,3.1c1.4,2.6,4.3,2.4,6.6,3.1c0.1,0,1-1.3,0.9-1.7
	C230.4,11.4,228.2,7.5,225.6,2.8z M127.5,42.7c-1,5.3-2.8,9.9-2,14.9c0.1,0.4,0.2,0.8,0.4,1.2c0.4-0.1,1-0.2,1.3-0.5
	c0.8-1,1.6-2,2.2-3.1c1.8-3,3-6,0-9.1C128.6,45.4,128.3,44.3,127.5,42.7z M262,12.9c-0.1,1.9,0,3.5,2.4,3.9c0.9,0.2,1.6,1,2.4,1.6
	c1.7,1.3,3.3,0.6,4.8-0.4c0.9-0.6,0.7-1.2,0-1.9c-1.2-1.2-2.3-2.5-3.7-3.6c-1.2-1-2.6-1.8-4-2.5c-0.4-0.2-1.3,0.5-1.7,1
	C261.8,11.4,262,12.2,262,12.9z M135.7,87c3-0.8,5.1-2.2,5.6-4.4c0.8-3.4,0.8-6.9,1.1-10.4c0-0.3-0.5-0.7-0.7-1.1
	c-0.4,0.3-0.8,0.5-1,0.8C138.1,76.5,137.1,81.5,135.7,87z M83.5,35.8c-0.2-0.6-0.7-1.9-1.2-3.2c-1.1,0.5-2.3,1-3.3,1.6
	c-2.3,1.5-2.3,1.8-1.1,4.2c0.4,0.7,0.7,1.4,1.1,2.1c0.8,1.3,1.7,2.5,2.6,3.7c0.5-1.4,1.2-2.9,1.5-4.4C83.5,38.8,83.4,37.7,83.5,35.8
	z M137.8,32.7c0,3.1,0.2,5.2-0.1,7.2c-0.6,3.9,1.4,6.2,4.4,8.2C142.9,41.5,142.9,41.5,137.8,32.7z M257.5,37
	c-0.5,1.7-0.8,2.9-1.2,4.1c-1.1,3.7-0.4,4.8,3.4,5.3c1.2,0.1,2.4-0.1,3.7-0.2C262.5,42.4,260.6,39.6,257.5,37z M100.9,59.4
	C101,59.4,101,59.4,100.9,59.4c0.1,1.4,0,2.9,0.1,4.3c0.1,1.2,1.1,1.5,2.1,1c3.4-1.5,4.2-4.4,1.9-7.3c-0.9-1.1-2.4-1.8-3.6-2.7
	c-0.2,1.2-0.4,2.5-0.5,3.7C100.9,58.7,100.9,59,100.9,59.4z M103.2,29.2c-3,3.3-4.9,6.5-4,10.7c0.1,0.5,0.7,1,1.2,1.4
	c0.2,0.1,0.9-0.4,1.1-0.7c2.1-3,4.8-5.9,2.3-9.9C103.6,30.3,103.5,30,103.2,29.2z M121.9,12.4c-0.2-0.1-0.8-0.6-0.9-0.5
	c-2.3,1.6-4.7,3.3-6.9,5c-0.2,0.2-0.2,1,0,1.2c1.5,1.3,3.1,2.5,4.6,3.7c0.8-1.7,1.8-3.3,2.4-5.1C121.6,15.5,121.6,14,121.9,12.4z
	 M255.7,35.3c-0.2-0.1-0.4-0.3-0.6-0.4c-2.4,2-4.9,4-7.3,6c-1.2,1-1,1.9,0.1,2.7c0.6,0.5,1.4,0.8,2,1.3c1.2,0.8,2,0.5,2.6-0.9
	C253.5,41.1,254.6,38.2,255.7,35.3z M72.7,32.2c2.2-3,2.7-6.1,2.9-9.2c0-0.6-0.3-1.3-0.7-1.7c-0.4-0.4-1.1-0.7-1.6-0.6
	C72.2,21,70,26,70.4,27.2C71.1,28.8,71.8,30.3,72.7,32.2z M231.3,67.3c-1.4,3.1-3.9,4.2-6.9,4.6c-0.3,0-0.9,0.7-0.9,0.8
	c0.2,0.5,0.8,1.5,1,1.4c2.5-0.6,4.5,0.5,6.7,1.2c0.4,0.1,1.5-0.8,1.5-1.2C232.8,72,233.1,69.7,231.3,67.3z M258.4,29.6
	c-1.3,3.5,0.8,5.4,2.9,7.1c1.2,1,1.8,3.2,4,2.5c-0.3-1.8-0.4-3.7-0.9-5.4c-0.1-0.5-1-0.8-1.5-1.1C261.6,31.6,260.1,30.7,258.4,29.6z
	 M350.2,8.7c0,1.6,0,2.1,0,2.6c0.1,3.4,0.5,3.6,3.5,2c0.3-0.2,0.5-0.3,0.8-0.5c1.5-0.7,1.7-1.8,0.8-3.1c-0.3-0.4-0.6-0.7-0.9-1.1
	c-1-1.4-1.3-3.4-3.6-3.3C350.6,6.7,350.3,8.3,350.2,8.7z M142.4,35c0.4-2.7,0.8-4.8,1-6.9c0.1-1,0.4-2.6-1.2-2.7
	c-1.3-0.1-2.9,0.2-3.9,1c-1.2,0.9-0.4,2.2,0.4,3.3C140,31.2,140.9,32.8,142.4,35z M240.6,55.4c-0.1,2.6,1.4,4.1,2.9,5.5
	c0.4,0.4,1.6,0.1,2.2-0.2c0.3-0.2,0.6-1.2,0.4-1.7c-0.8-2.1-1.8-4.1-2.8-6.1c-0.2-0.4-0.9-0.9-1.1-0.8c-0.5,0.3-0.9,0.8-1.1,1.3
	C240.8,54,240.7,54.8,240.6,55.4z M226.7,63.5c2.6-2,2.5-4.9,2.1-7.7c-0.3-2.1-2.9-1.5-4.2-2.6c-0.3-0.2-0.8-0.2-1.4-0.3
	C224.4,56.6,225.5,60,226.7,63.5z M221.8,68.7c0.6-1.8,1.2-3.1,1.5-4.4c0.1-0.6-0.3-1.6-0.8-1.8c-1.3-0.5-2.7-0.8-4.1-1
	c-0.3,0-1,0.4-1,0.7c-0.1,1.3-0.7,2.8,0.9,3.8C219.5,66.6,220.4,67.5,221.8,68.7z M308.3,22.7c-1.4,1.5-2.6,2.7-3.7,4.1
	c-0.3,0.4,0,1.8,0.1,1.8c1.8,0.1,3.7,0.1,5.5-0.1c0.3,0,0.8-1.4,0.5-1.9C310.3,25.2,309.3,24.1,308.3,22.7z M78.8,12.2
	c5-3.9,5-5.3,0-8.7C78.8,6.4,78.8,9.2,78.8,12.2z M253.7,19.5c-1.1-3.5-3.1-4.4-5.9-4.1c-1.3,0.1-2.7-0.1-4-0.1
	c0.6,1.3,1.1,2.6,1.7,4c0.1,0.2,0.4,0.2,0.6,0.3C248.2,16,248.2,16,253.7,19.5z M136.6,75.2c0.9-1.5,1.6-3,2.5-4.4
	c0.9-1.4,2.1-2.6,3.8-4.7c-2.4,1.2-4.7,0.3-5.7,2.8C136.4,70.9,134.1,72.7,136.6,75.2z M251.2,55.4c-0.1-0.8,0-1.3-0.1-1.8
	c-0.5-2.8-1.6-3.3-4.2-2.2c-0.3,0.1-0.7,0.6-0.6,0.7c0.5,1.2,0.9,2.6,1.8,3.6c0.5,0.6,1.7,0.7,2.6,0.8
	C250.8,56.6,251.1,55.6,251.2,55.4z M73.8,520.5c0.1,0,0.2-0.1,0.3-0.1c-0.2-2.3-0.3-4.6-0.6-6.9c-0.3-2.2-1.6-3.6-4.1-5.1
	C70.9,512.2,72.4,516.3,73.8,520.5z M275.8,22c-0.8-1.3-1.4-2.1-1.9-3c-1.2,0.9-2.5,1.8-3.7,2.7c1,1.1,2.1,2.2,3.1,3.3
	C274.1,24,274.9,23,275.8,22z M124.4,35.5c-0.4,0-0.8,0-1.2,0c0,1.6-0.2,3.2,0,4.7c0.2,1.4-1.1,3.3,1.1,4.1c0.5-1.5,1.4-2.9,1.4-4.4
	C125.7,38.4,124.9,37,124.4,35.5z M138,47.8c-0.5,2.7,1.6,4.3,1.9,6.4c0.1,0.6,0.9,1,1.4,1.6c0.4-0.6,1-1.2,1.1-1.9
	c0.1-0.7-0.1-1.6-0.6-2.2C140.7,50.4,139.4,49.2,138,47.8z M246.4,37c-0.2-0.5-0.4-1.6-0.6-1.6c-0.7,0-1.4,0.4-2.1,0.7
	c-0.4,0.2-0.8,0.6-1,1c-0.3,0.5-0.7,1.3-0.5,1.6c0.6,0.7,1.4,1.4,2.2,1.7c0.4,0.1,1.3-0.8,1.7-1.4C246.4,38.6,246.3,37.8,246.4,37z
	 M140.8,88.1c-3.7,2.8-3.8,3.5-1.2,7.7C140,92.9,140.4,90.5,140.8,88.1z M116.3,543c-2.9,2.6-2.8,5.6-3.5,8.3
	c-0.1,0.3,0.5,0.7,0.8,1c0.3-0.3,0.7-0.5,0.8-0.9C115,548.9,115.6,546.3,116.3,543z M113,40.2c-2.1,2.8-2.2,3.5-0.9,5.2
	c0.2,0.3,0.8,0.6,1.1,0.5c0.4-0.1,0.8-0.6,0.9-1C114.8,43.2,114.1,41.7,113,40.2z M143,60.5c-0.6-0.9-0.9-1.4-1.2-1.9
	c-0.4,0.4-1.1,0.7-1.3,1.1c-0.4,1.2-0.7,2.4-0.9,3.6c-0.1,0.4,0,0.8-0.1,1.3c0.4-0.1,1-0.1,1.2-0.4C141.5,63,142.2,61.7,143,60.5z
	 M86.6,11c-0.1,0-0.1,0-0.2,0c0,0.5,0,1,0.1,1.4c0.2,0.4,0.6,0.8,0.9,0.8c0.4,0,1.2-0.5,1.1-0.6c-0.3-1.7-0.6-3.3-1-5
	c0-0.1-0.3-0.3-0.4-0.3c-0.2,0.1-0.6,0.2-0.6,0.4C86.5,8.9,86.6,9.9,86.6,11z M274.6,36.6c-0.5-1.1-0.9-2.1-1.5-3
	c-0.1-0.2-0.8-0.2-0.8-0.2c-0.2,0.7-0.7,1.6-0.5,2.2c0.3,0.8,1.1,1.4,1.7,2C273.5,37.5,274.1,37,274.6,36.6z M129.6,60.7
	c-0.2-0.2-0.4-0.4-0.7-0.5c-1,0.7-2.1,1.3-3,2.2c-0.3,0.3,0.3,1.3,0.6,2c0.1,0.1,1.2-0.1,1.4-0.4C128.6,63,129,61.8,129.6,60.7z
	 M240.8,63.3c-0.5-0.7-1-1.3-1.5-1.9c-0.5,0.8-1.3,1.6-1.3,2.3c0,0.6,1.1,1.1,1.8,1.7C240.1,64.8,240.4,64.2,240.8,63.3z
	 M51.3,527.3c-0.2,0-0.4-0.1-0.5-0.1c-0.4,1-1,1.9-1.1,2.9c-0.1,0.6,0.3,1.4,0.5,2.1c0.4-0.7,0.9-1.4,1.1-2.1
	C51.5,529.2,51.3,528.2,51.3,527.3z M77.9,15.6c-0.3-0.2-0.6-0.4-0.9-0.6c-1,0.8-2.5,1.4-1.8,3.2c0.1,0.3,0.7,0.5,1.1,0.8
	C76.8,17.8,77.3,16.7,77.9,15.6z M93.4,50.8c-0.9-0.7-1.4-1.3-2-1.5c-0.2-0.1-1.1,0.5-1.1,0.8c0.1,0.7,0.4,1.4,0.7,2
	C91.7,51.7,92.4,51.4,93.4,50.8z M138.3,24c-0.1-0.2-0.2-0.3-0.2-0.5c-0.9,0.3-1.8,0.4-2.6,0.8c-0.4,0.2-0.6,0.7-0.9,1.1
	c0.6,0.2,1.3,0.6,1.7,0.4C137.1,25.4,137.6,24.6,138.3,24z M54.6,552c-0.5-0.6-0.9-1.2-1.3-1.7c-0.3,0.5-0.8,1-0.7,1.5
	c0.1,0.6,0.6,1.1,1,1.7C53.8,553.1,54.1,552.6,54.6,552z M278.2,29.1c0.2-0.2,0.5-0.3,0.7-0.5c-0.5-0.8-0.9-1.6-1.5-2.3
	c-0.2-0.2-0.7-0.3-1.1-0.4c-0.1,0.4-0.4,1-0.2,1.2C276.7,27.9,277.5,28.4,278.2,29.1z M129.9,89.6c-1-0.8-1.7-1.4-2.4-1.8
	c-0.1,0-0.6,0.6-0.9,0.9c0.6,0.5,1.1,1,1.8,1.3C128.6,90.2,129.1,89.9,129.9,89.6z M225.6,66c-0.4,0.8-0.9,1.3-0.9,1.9
	c0,0.3,0.7,0.8,1.1,0.9c0.5,0,1-0.4,1.5-0.7C226.9,67.5,226.4,66.9,225.6,66z M130.2,67.3c-0.5-0.3-1-0.7-1.1-0.6
	c-0.5,0.3-1,0.7-1.4,1.2c-0.2,0.3-0.3,0.8-0.4,1.2c0.5-0.1,1.2,0,1.6-0.3C129.4,68.5,129.7,67.9,130.2,67.3z M117.6,536.8
	c-0.6-0.7-1.1-1.3-1.6-1.8c-0.2,0.4-0.5,0.8-0.4,1.2c0.2,0.6,0.6,1,0.9,1.6C116.8,537.5,117.1,537.3,117.6,536.8z M215,98.7
	c-0.2,0-0.4,0-0.6,0c0.1,1.1,0.1,2.3,0.2,3.4c0.1,0,0.3,0,0.4,0C215,101,215,99.8,215,98.7z M348.2,5.7c-0.2-0.1-0.5-0.1-0.7-0.2
	c0,1.2,0,2.3,0,3.5c0.2,0,0.3,0,0.5,0C348,7.9,348.1,6.8,348.2,5.7z M160.1,545.6c-0.3-0.3-0.6-0.7-0.9-1.2
	c-0.3,0.3-0.8,0.7-0.7,0.8c0.3,0.5,0.7,0.9,1.1,1.3C159.6,546.3,159.8,546.1,160.1,545.6z M208.1,504c-0.1,0.1-0.3,0.2-0.3,0.3
	c0,0.7,0.1,1.4,0.1,2.2c0,0,0.2,0,0.3,0.1c0.1-0.7,0.1-1.4,0.2-2.2C208.4,504.3,208.2,504.2,208.1,504z M166.6,538
	c-0.1,0-0.3,0-0.4,0c-0.1,0.6-0.3,1.1-0.2,1.7c0,0.3,0.3,0.6,0.5,0.9c0.1-0.3,0.3-0.5,0.3-0.8C166.8,539.1,166.7,538.5,166.6,538z
	 M52.1,541.4c-0.1-0.3-0.2-0.7-0.4-0.8c-0.2-0.1-0.5,0.1-0.8,0.2c0.2,0.3,0.3,0.6,0.5,0.8C51.6,541.7,51.9,541.5,52.1,541.4z
	 M280.1,12.5c-0.3-0.1-0.6-0.3-0.7-0.2c-0.2,0.1-0.3,0.5-0.5,0.8c0.3,0.1,0.6,0.3,0.8,0.2C279.9,13.1,280,12.7,280.1,12.5z
	 M210.1,512.8c-0.1,0-0.3,0-0.3,0.1c-0.1,0.1-0.1,0.3-0.1,0.4c0.2,0,0.4-0.1,0.6-0.1C210.2,513,210.2,512.9,210.1,512.8z
	 M168.3,525.2c-0.1,0.1-0.3,0.2-0.3,0.3c0,0.2,0.2,0.5,0.2,0.7c0.1-0.1,0.3-0.2,0.3-0.3C168.5,525.7,168.4,525.5,168.3,525.2z
	 M142.4,22.2c-0.1-0.1-0.2-0.3-0.3-0.4c-0.1,0.1-0.3,0.3-0.3,0.3c0.1,0.2,0.3,0.3,0.4,0.5C142.3,22.5,142.4,22.4,142.4,22.2z"/>
<path d="M517,0c1.4,1.9,3.6,3.2,4.3,5.6c0.3,1.1,0.4,1.8-0.9,2.1c-0.8,0.2-1.6,0.2-2.3,0.6c-0.3,0.2-0.5,1.3-0.3,1.5
	c3.6,2.8,6.9,6.2,12.2,5c2.1-0.5,4.2,3.1,2.8,5.2c-1.1,1.7-0.6,2.5,0.4,3.7c1,1.2,1.9,2.7,3,3.7c2.6,2.3,5.3,4.4,9.2,1.7
	c-1.6,3.1-3.7,5.7-6.5,7.2c-2.8,1.5-6,0.8-8.6-1.2c-1.3-1-1.9-0.7-2.6,0.5c-0.1,0.3-0.2,0.6-0.4,0.9c-1.9,2.6-2.2,2.5-4-0.2
	c-1.1-1.7-2.6-3.3-3.7-5.1c-1-1.6-2.5-3.4-2.5-5.1c0.1-3.7-2.2-4.2-4.8-4.7c-3.7-0.7-6.3-2.1-6.4-6.5c0-1.4-1.3-2.9-2.2-4.2
	c-1.1-1.6-2.2-2-3.8-0.3c-0.6,0.7-2,1-3,1.1c-1.6,0-1.2-1.5-1.7-2.5c-0.6-1.4-1.6-2.7-3-3.9c0.1,0.5,0.1,0.9,0.2,1.4
	c1.7,6.7-0.1,12.9-2.6,19.1c-0.2,0.5-0.8,0.8-1.3,1.2c-0.3-0.5-0.8-0.9-1-1.5c-0.7-2.5-1.4-4.9-1.8-7.5c-0.4-2.2,0.9-4.6-0.7-6.6
	c1.5-1.8,3-3.7,4.6-5.5c-0.2,1.1-0.2,2.2-0.6,3.2c-2,4.6-1.6,9,0.3,14.3c1.7-5.2,2.7-9.6,2.1-14.3c-0.2-1.2-1.1-2.2-1.7-3.3
	c0.3-2,2.8-3.4,1.9-5.8c0.3,0,0.6,0,1,0c0.1,0.8,0,1.7,0.4,2.3c1.3,1.8,2.8,3.3,4.2,5c1.3,1.5,2,1.3,3-0.4c1.4-2.4,0-4.6,0.1-6.9
	c1,0,1.9,0,2.9,0c0,1-0.1,2,0.1,2.9c0.1,0.7,0.6,1.5,1.2,1.8c2.6,1.3,5.2,2.5,7.9,3.6c0.3,0.1,1.2-0.6,1.2-0.8
	c-0.4-2.9-3-4.8-5.8-4.4c-0.7,0.1-1.4,0.4-2,0.6c3.2-3,6.3-2.6,8.5,1c1.1,1.7,2.2,2.2,3.9,1.9c1.2-0.2,1.6-1,0.8-2
	c-1.3-1.6-2.7-3.1-4.1-4.7C515.7,0,516.4,0,517,0z M504,6.5c1.6,3.4,3.1,6.1,4.1,9c0.5,1.5,1.4,2.3,2.6,3.2c2.4,2,5,1.7,7.5,1.4
	c-1.2-2.5-2.4-4.9-3.6-7.3c-0.4-0.9-0.7-2.1-1.5-2.4C510.3,9.1,507.2,7.9,504,6.5z M535.6,35.1c0.9-0.2,1.9-0.4,2.7-0.8
	c2-1,2-2.2-0.1-3.3c-2.5-1.2-4.6-2.8-6-5.3c-0.5-0.9-1.5-1.6-2.4-2.3c-0.3-0.2-1-0.1-1.3,0.1c-0.3,0.2-0.5,0.9-0.4,1.2
	c0.9,2.5,1.7,5.1,2.8,7.6C531.7,34.2,533.3,35.2,535.6,35.1z M525.8,35c0.3-2.4,0.8-4.1,0.8-5.8c0-4.5-2.2-6.1-6.5-4.8
	c-0.4,0.1-0.9,1.1-0.7,1.4C521.2,28.8,522,32.4,525.8,35z M524.3,22.4c1.8-0.9,3.5-1.7,5.2-2.6c0.4-0.2,0.5-1,0.8-1.6
	c-0.5-0.2-1.1-0.7-1.6-0.7c-2.4,0.1-4.6-0.3-6.7-1.9c-1.2-0.9-2.7-2.3-4.6-1.4c0.8,1.3,1.6,2.6,2.5,3.9c0.7,1,1.5,2,2.4,2.9
	C522.8,21.6,523.5,21.9,524.3,22.4z"/>
<path d="M411.3,0c-1.4,2.8-3.8,3.8-6.7,3.9c-3.7,0.2-7.4,0.1-10.6-2.1c-0.5-0.4-0.8-1.2-1.1-1.9c1.3,0,2.6,0,3.9,0
	c3.9,2.3,7.8,3.2,11.6,0C409.3,0,410.3,0,411.3,0z"/>
<path d="M459.8,0c1,2.7,0.7,4.7-0.7,5.5c-1.3,0.8-4.5,0.5-5.8-0.9c-1.3-1.4-2.2-3.1-3.3-4.6c1,0,1.9,0,2.9,0
	c0.3,0.7,0.4,1.5,0.9,2.1c0.9,1.2,2.2,2.2,3.7,1.6c1.7-0.7-0.2-2.2,0.3-3.3c0.1-0.1,0-0.3,0-0.5C458.5,0,459.1,0,459.8,0z"/>
<path d="M442.3,0c-4.1,2.8-7.5,2.8-11.6,0C434.6,0,438.4,0,442.3,0z"/>
<path d="M490.8,0c-0.2,0.4-0.4,0.9-0.6,1.3c-1.1,1.9-2.1,4-4.6,4.3c-0.2-1.9-0.4-3.7-0.6-5.6c0.3,0,0.6,0,1,0
	c0.2,0.9,0.4,1.7,0.7,2.6c0.6-0.6,1.3-1.1,1.9-1.8c0.2-0.2,0.3-0.5,0.4-0.8C489.5,0,490.2,0,490.8,0z"/>
<path d="M5.8,0c-0.6,0.7-1,1.7-1.8,2.2c-1,0.7-2.3,1-3.4,1.4C0.4,2.4,0.2,1.2,0,0C1.9,0,3.9,0,5.8,0z"/>
<path d="M223.9,514c0.7-0.3,1.4-0.5,2.1-0.8c0.3,0.2,0.6,0.5,1,0.7c0.1-0.2,0.2-0.3,0.3-0.5c-0.4-0.1-0.8-0.2-1.2-0.3
	c3-2.5,6.5-2.9,10.2-2.8c0.4,0,0.9,0.4,1,0.7c0.1,0.3-0.3,0.9-0.6,1c-2.1,0.8-4.2,1.3-6.3,2.2c-2.7,1.2-5.4,2.6-8.1,3.9
	c0,0-0.3-0.4-0.3-0.4c0.4-0.6,0.7-1.1,1.1-1.7c0,0,0.1-0.1,0.1-0.1c0.3-0.3,0.6-0.6,0.9-0.8l0.1-0.2c0.1-0.1,0.3-0.1,0.4-0.2
	c-0.1-0.2-0.2-0.4-0.3-0.5L223.9,514z"/>
<path d="M218.2,517.9c1.3-2.2,3.4-3.3,5.8-3.9l0.3,0.3c-0.1,0.2-0.1,0.5-0.1,0.7l-0.1,0.2c-0.3,0.3-0.6,0.6-0.9,0.8l-0.1,0.1
	c-1.4,0-2.3,0.6-2.9,1.9l0,0c-0.6,0-1.2,0.1-1.8,0.1L218.2,517.9z"/>
<path d="M172.8,525.9c-0.3,0.3-0.7,0.6-1,1c0,0-0.3-0.3-0.3-0.3c0.1-0.2,0.1-0.4,0-0.7l0.2-0.2l0.3,0l0.3-0.1L172.8,525.9z"/>
<path d="M173.8,524.9c-0.3,0.3-0.6,0.6-1,1l-0.3-0.3c0.1-0.2,0.1-0.4,0.1-0.7l0.2-0.2l0.3,0l0.3-0.1L173.8,524.9z"/>
<path d="M174.7,523.9c-0.3,0.3-0.6,0.7-0.9,1l-0.3-0.3c0.1-0.2,0.1-0.5,0.1-0.7l0.2-0.2l0.4,0l0.4,0L174.7,523.9z"/>
</svg>
