<?xml version="1.0" encoding="utf-8"?>
<!-- Generator: Adobe Illustrator 18.0.0, SVG Export Plug-In . SVG Version: 6.00 Build 0)  -->
<!DOCTYPE svg PUBLIC "-//W3C//DTD SVG 1.1//EN" "http://www.w3.org/Graphics/SVG/1.1/DTD/svg11.dtd">
<svg version="1.1" id="Layer_1" xmlns="http://www.w3.org/2000/svg" xmlns:xlink="http://www.w3.org/1999/xlink" x="0px" y="0px"
	 viewBox="0 0 548.3 539.9" enable-background="new 0 0 548.3 539.9" xml:space="preserve">
<g>
	<g>
		<path d="M371.5,58.2c-2.1-2.1-2.7-2.2-3.4,0.3c-1.4,4.7-4.2,8.2-7.7,11.4c-1.4,1.3-2.1,0.9-2.5-1c-1-5.6-2.2-11.3-3.1-16.9
			c-0.4-2.5-0.4-5.1-0.6-7.6c0-0.5-0.2-1-0.3-1.5c-0.5,0.4-1.3,0.7-1.4,1.2c-0.9,3.6-1.4,7.2-2.4,10.8c-1.1,4-2.3,8.1-6.3,10.9
			c-0.5-1.1-1.3-2-1.3-3c-0.1-2.8-0.7-5.3-2.5-7.6c-0.6-0.8-0.5-2.1-0.6-3.2c-0.1-1.8,0-3.5,0-5.3c0.3-0.4,0.7-0.7,0.8-1.1
			c0.8-3.7,1.2-7.6,3.2-11c0.3-0.5,0-1.5-0.3-2.1c-0.6-1-1.4-1.9-2.7-3.8c0.2,2.3,0.2,3.6,0.3,4.8c0.1,0.8,0.5,1.7,0.2,2.3
			c-2.1,3.4-1.2,7.2-1.5,10.8c-0.3,0.3-0.6,0.7-1,1c-0.7,0.6-1.4,1.1-2.1,1.7c-0.3-0.7-0.6-1.4-0.9-2.1c-0.8-2.3-1.3-2.7-2.9-2
			c-1.8,0.8-2.3,1.8-1.2,3.3c2,2.7,3.1,5.6,3.7,8.8c0.2,0.8-0.1,1.7-0.2,2.6c-0.6-0.5-1.1-1-1.7-1.4c-1.6-1.1-3-2.3-4.8-3.1
			c-1.4-0.6-3.5-1.3-4.5-0.7c-0.9,0.5-0.6,2.9-1,4.4c-0.3,1.2-0.7,2.5-1.4,3.6c-0.5,0.8-1.4,1.3-2.1,1.9c-0.5-0.8-1-1.5-1.5-2.3
			c-1.2-1.7-2.1-3.6-3.5-5.1c-1.8-2.1-3.8-3.9-4.4-6.8c-0.2-1.2-0.5-1.1-4.5-1.6c5.3,5.8,3.9,12.4,2.7,18.8
			c-0.2,0.9-0.9,1.7-1.5,2.4c-0.2,0.3-0.9,0.4-1.2,0.3c-0.3-0.2-0.7-0.9-0.6-1.1c1.4-3.6-0.8-5.8-3-8c-2.1-2.1-4.2-4-4.5-7.6
			c-3.2,2.7-3.9,6.3-5.3,9.4c-0.8,1.8,0.9,2.8,2.2,3.9c2,1.7,1.8,2.9-0.5,3.6c-1.2,0.4-2.7,0.7-3.7,0.3c-2.6-0.9-5.4-1-8-2.8
			c-2.6-1.7-6.7-1.5-10.2-1.8c-2.1-0.2-4.3,0.2-6.9,0.4c1.1,1.8,2.1,3.5,3.1,5.2c0.6,1,1.4,1.8,1.8,2.8c0.2,0.4-0.6,1.1-0.9,1.7
			c-2.1-1.2-4,0.2-6,0.3c-2,0.1-4.2,0.6-5.9-1.2c-1.6,1-3.2,1.9-5.4,0.8c1,1.3,2.1,2.5,3.3,4c-1.4,1.4-2.7,2.8-4.1,4
			c-0.6,0.5-1.5,1.2-2,1.1c-3.7-1.3-4.2,1.6-5.2,3.8c-2.7,5.6-5.3,11.3-7.8,17c-1.3,2.9-1.1,3.4,2,4.5c1.4,0.5,2.8,0.9,4.2,1
			c1.4,0.1,2.9,0.2,3.1,1.7c0.1,0.7-1.2,1.6-1.9,2.4c-0.8,0.9-1.7,1.8-2.6,2.8c-0.1,0.1-0.3,0.1-0.4,0.2c-0.1,0.1-0.1,0.2-0.1,0.3
			c0.2-0.2,0.3-0.3,0.5-0.5c2.2,0.3,4.4,0.6,6.6,1c1.6,0.3,2.1,1.3,1.2,2.8c-0.3,0.5-0.7,1.1-1,1.6c-1.2,2.2-0.9,3.2,1.4,3.9
			c2,0.6,5.7-0.4,7-2.1c0.8-1,1.4-2.2,2.2-3.2c0.9-1.2,2.2-1.2,2.5,0c0.8,4,2.9,8.1-0.3,12c-0.9,1.1-2,2-3.1,2.9
			c-3,2.5-2.7,5.3,0.8,6.6c3.6,1.3,7.3,2.3,11,3.4c0.7,0.2,1.6-0.4,2.3-0.3c0.3,0,0.9,1.2,0.7,1.3c-2.1,2.5,0.8,2.4,1.5,2.3
			c3.7-0.7,5.9,1,8,3.9c1,1.4,3.3,1.7,4.9,2.7c0.9,0.5,2.5,1.3,2.4,1.8c-0.6,3.3,1.6,2.1,2.8,1.7c2.1-0.8,3.9-2.2,6-2.9
			c1.4-0.5,3.4-0.8,4.6-0.2c2.1,1,3.9,1.1,5.8-0.2c0.5-0.3,1.2-0.5,1.8-0.5c5,0.1,6.1-3.5,7.2-7.2c0.3-0.9,0.5-1.9,0.8-2.7
			c0.4-1,1-1.5,2.2-0.9c2.4,1.1,3.5,0.3,3.6-2.2c0-1-1.6-2.2,0.1-2.9c1.7-0.8,2,1.1,2.8,2c0.7,0.8,1.5,1.7,2.1,2.6
			c3.4,5.7,2.5,9.7-2.9,13.7c-1.2,0.9-2.2,2.2-2.9,3.6c-1.4,2.9-3.5,4.6-6.9,4.1c-3-0.4-5.4,0.5-7.9,2.4c-2.9,2.3-6.7,3.2-10.4,1.9
			c-1.9-0.6-3.1-0.3-4,1.4c-0.5,1-1.2,1.9-1.9,2.8c-3.6,5.2-9.8,6.1-14.3,1.9c-1.3-1.2-2.5-2-4.3-1.7c-3.7,0.6-6-1.8-7.4-4.4
			c-2.2-4.1-4-8.4-3.1-13.7c1.3,1.2,1.5,2.4,1.8,3.8c0.7,2.9,1.4,6,2.8,8.6c1.8,3.7,4.1,4.3,8,3.1c0.5-0.1,1-0.2,1.4-0.4
			c1.3-1,3.8-2.1,3.7-3.1c-0.1-1.8-2.4-2.6-4.2-2.5c-2.5,0-3.6-1.3-4.8-3.3c-1.5-2.4-3.5-4.7-5.7-6.4c-1.2-0.9-3.3-0.7-5-1
			c-0.1,0-0.4,0.2-0.4,0.2c0.5,3.2-1.9,2.3-3.6,2.7c-1.7,0.4-3.3,1.5-5,1.6c-1.5,0.1-3.3-0.4-4.5-1.2c-2.6-1.9-4.8-4.2-5.3-7.7
			c-0.3-2.1-0.6-4.7-3.8-4.6c-0.3,0-0.5-1-0.8-1.5c0.5-0.2,1-0.5,1.4-0.4c1.4,0.4,2.1-0.2,2.7-1.4c0.7-1.2,0.4-2.1-0.5-3
			c-1.4-1.3-2.7-2.7-4.2-4.1c-0.3-0.3-1-0.6-1.2-0.5c-0.5,0.4-1.1,1-1,1.5c0.2,1.4,0.7,2.8,0.9,4.2c0.1,0.6-0.2,1.3-0.4,2
			c-0.5-0.3-1.3-0.4-1.6-0.8c-2.1-3.4-5.6-5.2-8.2-8c-1.7-1.8-2.5-1.6-3.6,0.7c-2.4,5.3-4.6,10.6-6.8,16c-2.8,6.7-5.6,13.3-8.3,20
			c-3.7,9.2-7.7,18.3-10.4,28c-3.3,11.9-7.2,23.6-11.8,35.1c-3.4,8.5-5.8,17.4-8.8,26c-1.4,4.1-3.3,8-4.9,12
			c-2.5,6.3-4.9,12.6-7.5,18.8c-1.7,4.2-3.6,8.2-5.2,12.4c-1.8,4.8-3.4,9.7-5.1,14.5c-1.4,3.9-2.7,8-4.7,11.6
			c-3.5,6.5-4.9,13.6-6.8,20.5c-1.7,6.2-3.1,12.4-4.4,18.7c-2.1,9.8-4.9,19.6-4.5,29.8c0.3,8.6,0.1,17.1,0,25.7
			c-0.1,7.3,2.1,13.9,6.1,19.9c2.3,3.5,4.7,6.9,7.3,10.1c2,2.5,4.4,4.7,7.5,5.9c4.5,1.7,7.1,5.3,9.2,9.3c1.8,3.4,4.1,6.4,7.6,8.5
			c2.4,1.5,4.1,3.9,6.2,6c1.6,1.6,3.2,3.2,4.7,4.7c1.4,1.4,2.5,2.6,3,4.8c0.6,3,3.3,4.6,5.7,6.2c3.9,2.6,8,4.5,12.6,5.8
			c3.5,1,6.8,2.7,9.9,4.6c2.2,1.4,4,3.5,6,5.4c0.2,0.2-0.1,1.5-0.3,1.5c-1.7,0.5-3.4,0.9-5.1,1c-1.1,0.1-2.2-0.4-3.2-0.8
			c-4.6-2.1-9.8-1.2-14.4-3.4c-0.9-0.4-2.2-0.3-3.3-0.1c-3.5,0.9-7,0.7-10.5,0c-1.7-0.4-3.5-0.4-5.3-0.3c-2.9,0.1-5.4-0.8-7.4-2.9
			c-0.7-0.7-1.4-1.4-2.2-1.9c-1-0.6-1.8-1.1-2.4,0.8c-0.5,1.9-1.8,0.2-2.7,0c-0.1-0.1-0.1-0.3-0.2-0.4c-0.1-0.1-0.2-0.1-0.3-0.1
			c0.2,0.2,0.3,0.3,0.5,0.5c0.1,0.5,0,1.1,0.3,1.4c2.9,3.7,5.8,7.3,8.7,10.9c0.8,1,1.6,2,2.1,3.2c0.5,1,1.9,2.2,0.4,3.4
			c-1.2,1-1.9-0.5-2.9-0.8c-1.4-0.4-2.8-0.6-4.2-0.5c-4.4,0.3-8.3-0.8-11.7-3.7c-0.9-0.7-1.8-1.3-2.8-1.9c-1.1-0.7-2.2-1.9-3.3-1.8
			c-0.8,0.1-1.5,1.7-2.3,2.6c-0.2,0.2-0.6,0.5-0.8,0.5c-0.4-0.2-0.9-0.5-1-0.8c-0.4-2-0.8-4.1-1.1-6.1c-0.1-0.6,0.1-1.4-0.1-1.9
			c-0.7-1.4-1.5-2.6-2.3-4c-1,1-2.4,1.8-3,3c-0.8,1.7-1,3.7-1.5,5.5c-0.1,0.4-0.6,0.7-0.9,1.1c-0.4-0.4-0.9-0.7-1.2-1.1
			c-1.1-1.5,0.1-4.3-2.4-4.9c-3.2-0.7-6.6-2.3-9.9-0.6c-3.3,1.6-6.4,3.5-9.6,5.2c-1.8,0.3-3.3,0.9-4.4,2.1c0.2,0.3,0.4,0.6,0.6,0.9
			c1.3-1,2.5-2,3.8-3c0.2,0.5,0.8,1.3,0.7,1.5c-0.7,0.9-1.4,1.9-2.4,2.3c-6.1,2.8-12.2,5.8-18.5,8.2c-3.4,1.3-7.2,1.7-10.7,2.6
			c-3.7,1-7.5,2-10.9,3.6c-3.1,1.5-6.3,2.3-9.7,2.7c-0.5,0.1-1.4-0.1-1.6-0.4c-0.2-0.5-0.1-1.4,0.2-1.8c3.8-4.1,6.2-9.5,11.1-12.6
			c1.1-0.7,1.9-1.7,2.8-2.7c2.9-3.2,5.8-6.4,8.7-9.7c0.4-0.4,0.6-1.1,0.8-1.6c-0.7-0.3-1.3-0.7-2-0.8c-0.8-0.1-1.7-0.2-2.4,0.1
			c-4.6,2.3-9.6,4-12.6,8.5c-1,1.5-1.9,2.3-4.1,2.4c-2.1,0.1-4.2,1.6-6.1,2.8c-3.4,2.1-6.6,4.5-10,6.7c-2.6,1.7-5.2,2.5-8.5,2
			c-4.9-0.6-10-0.2-15-0.2c-1.9,0-3.9,0-5.5-1.7c5.3-4.3,11.3-7.5,17.5-10c6.3-2.5,12.1-6.1,17.6-10c1.4-1,1.7-2.2,0.9-3.8
			c-0.6-1.1-1.1-2.3-1.4-3.6c-0.4-1.8,0.1-4-0.9-5.3c-0.9-1.2-3.1-1.3-4.7-1.9c-1.4-0.5-2.7-1-4-1.6c-0.3-0.2-0.8-0.7-0.7-1
			c0-0.3,0.6-0.8,0.9-0.8c2.6,0,5.2,0,7.7,0.1c0.9,0,1.7,1.1,2.5-0.1c0.7-1.1,1.3-2.2,0.3-3.5c-1.2-1.7-2.3-3.5-3.5-5.2
			c-0.6-0.8-1.4-1.4-2-2.1c-0.2-0.3-0.3-1-0.1-1.3c0.2-0.2,0.9-0.3,1.2-0.2c1.9,1.1,3.9,2.2,5.7,3.6c1.3,1,1.7,0.3,2.6-0.7
			c2.6-2.8,1.5-6.1,1.4-9.2c-0.1-2.1-0.7-4.1-0.8-6.2c-0.4-8-0.5-16.1-1-24.1c-0.4-5.6-1.3-11.1-1.7-16.7c-0.2-2.5,0.5-5.1,0.6-7.6
			c0.2-4,0.1-8,0.3-12c0.2-4,0.6-8,1.1-12c0.5-3.6,1.5-7.2,1.6-10.9c0.2-6.5,1.9-12.7,3-19c0.9-5.2,1.8-10.4,2.8-15.6
			c1.2-6,2.7-11.9,4-17.8c2.2-10,4.2-20.1,6.8-30c1.7-6.3,4.3-12.4,6.5-18.6c1.6-4.5,3.5-9,5.1-13.5c2.5-7.3,4.7-14.7,7.4-21.9
			c1.8-4.8,4.3-9.3,6.4-14c5.9-13.1,12.3-25.9,17.5-39.2c5.3-13.4,11.2-26.6,15.8-40.4c3.8-11.4,8.8-22.5,13.2-33.7
			c0.6-1.5,1.2-3,1.8-4.5c1.6-3.8,1.6-3.8-2.1-6.4c-1.2,1.4-2.3,2.9-3.7,4.2c-0.4,0.4-1.5,0.3-2.1,0.1c-0.3-0.1-0.6-1.3-0.4-1.6
			c1.2-2.1,0-3.8-0.6-5.6c-1.1-3-2.6-5.9-4.1-9.1c-0.9,1.7-1.8,3.2-2.5,4.8c-1.3,2.9-3.8,4.3-6.5,5.4c-2.2,0.9-3.1-0.1-2.8-2.6
			c0.3-3.5,0.5-7.1,0.5-10.6c0-0.8-0.6-1.9-1.3-2.3c-3.3-1.8-6.6-3.5-8.5-6.9c-0.2-0.3-1.4-0.2-2,0.1c-1.7,0.9-3.2,2.1-4.9,2.9
			c-1.2,0.6-2.5-0.4-2.1-1.5c1.5-4.4-0.2-8.6-0.8-12.8c-0.2-1.2-0.7-2.5-1.1-4.1c-1.8,1.2-3.5,2.3-5.1,3.5c-0.4,0.3-0.9,1.3-0.7,1.6
			c1.5,2.5-0.6,4.7-0.3,7.1c0.5,3.6-5.1,6.4-8.4,6.1c-0.4,0-1.1-1.1-1-1.3c2.2-3,1.2-6.1,0.6-9.3c-0.5-2.7-0.9-5.4-1.4-8.3
			c-1.9,2-3.7,4.1-5.9,6.5c-1.3-6.1-2.4-11.6-3.6-17.3c-1.4,0.6-2.9,1-3.9,1.8c-3.1,2.4-5.7,0.9-8.3-0.8c-0.9-0.6-1.2-1.5-0.4-2.5
			c0.2-0.2,0.5-0.4,0.7-0.7c4-5.1,4-6.4-0.4-11.7c-1.2,1.6-2.2,3.2-3.5,4.5c-1.5,1.6-2.7,1.3-3.7-0.6c-1.6-3.1-3.2-6.3-3.6-9.9
			c-0.1-1.5-0.9-3-1.6-5.2c-0.8,1.1-1.5,1.7-1.6,2.3c-0.9,4.5-4.6,7.3-7,10.8c-1.4,2.1-3.6,1.8-5.7,2c-3.6,0.4-4.5-0.3-3.1-3.5
			c1.9-4.2,0.9-8.6,2.2-12.8c0.1-0.2-0.1-0.8-0.3-0.8c-0.4-0.1-1-0.2-1.3,0c-6.6,5.3-14,3.5-21.3,2.3c-2-0.3-2.2-1.5-0.6-2.9
			c2.8-2.4,5.7-4.7,8.6-7c0.7-0.6,1.4-1.3,2.5-2.3c-1.3-0.2-2.1-0.2-2.8-0.4c-2.8-1-3.2-2-1.3-4.4c2.5-3.1,3-7.1,4.6-10.5
			c0.5-1,0-2.5-0.3-3.7c-0.3-1.2-0.8-2.4-1.2-3.6c0.6,0,1.3,0,1.9,0c0.4,0.9,0.8,1.7,1.1,2.6c0.3,0.9,1,1.9,0.8,2.7
			c-1.1,3.7-2.5,7.2-3.8,10.8c-0.5,1.3-0.9,2.5-1.4,3.8c1.6,0.1,3.2,0.4,4.7,0.1c1-0.2,2-0.9,2.9-1.6c2.5-1.8,3.4-4.3,3.8-7.4
			C34.9,7.3,34.6,3.7,34,0c0.6,0,1.3,0,1.9,0c1.4,3.9,2.7,7.8,1.1,12.1c-0.3,0.8,0.2,1.9,0.3,3.6c2.7-3.6,4.8-6.9,9.2-6
			c0.1,0.1,0.1,0.3,0.2,0.4c0.1,0.1,0.2,0.1,0.3,0.1c-0.1-0.2-0.3-0.3-0.4-0.5c-1.2-2.9-3.2-5-5.8-6.8c-1.1-0.8-2-1.9-3-2.9
			c1,0,1.9,0,2.9,0c0.3,0.5,0.7,1,1,1.5c0.8,1,1.6,1.3,2.2-0.3c0.2-0.4,0.4-0.8,0.6-1.2c0.3,0,0.6,0,1,0c0,0.5,0.1,1,0.1,1.4
			c0,2.7,0.1,5.1,3.7,5.5c1.5,0.2,1,1.6,0.8,2.7c-0.1,0.4,0.9,0.9,1.4,1.4c0.3-0.3,0.7-0.5,0.8-0.9C53,6.8,53.6,3.4,54.3,0
			c0.3,0,0.6,0,1,0c-0.4,3.5-0.9,7-1.3,10.4c-0.1,0.5,0.3,1.1,0.4,1.6c0.5-0.3,1.2-0.5,1.4-0.9c1-1.9,0.8-4.4,2.8-6.1
			c0.2,0.7,0.5,1.2,0.4,1.6c-0.5,2.3-2.2,4.3-1.1,6.9c0.1,0.2-0.1,0.7-0.3,0.8c-3.7,1.9-1.9,5.4-2.3,8.2c-0.1,0.5,0.5,1.1,0.9,1.4
			c0.2,0.1,0.9-0.2,1.2-0.4c2.8-2,4.7-4.9,5.8-8c0.5-1.6,0.4-3.1,2.1-4.3c1.1-0.8,0.9-2.5-0.2-3.4c-1-0.9-2.4-1.3-3.7-1.9
			c-1.2-0.5-1.5-1.9-0.6-2c2.6-0.4,2-2.2,2.1-3.8c0.6,0,1.3,0,1.9,0c0,2.4-0.1,4.7,2,6.6c0.8,0.8,0.6,2.6,0.9,4
			c-1.9,1.6-0.6,2.9,0.6,3.9c2.9,2.4,5.2,5.5,6.5,8.8c1.4,3.6,4.1,4.7,7.1,6c-1-1.9,0-4.5-2.7-5.8c-4-1.9-3.9-2.1-0.3-5
			c1.3-1.1,1.5-2.1,0-2.9c-1.9-1-4.1-1.8-6.2-2c-2.3-0.3-4-0.8-5-3c1.1,0.2,2.1,0.4,3.2,0.6c2.7,0.6,4.3-0.5,4.2-3.2
			c0-0.5-1.4-0.9-1.6-1.6c-0.5-2.1-0.7-4.3-1-6.5c0.6,0,1.3,0,1.9,0c0.4,1.7,0.8,3.5,1.3,5.7c1-2.3,1.8-4,2.6-5.7c1.3,0,2.6,0,3.9,0
			c0.9,3.5,1.5,7.1,3.7,10.2c2.2,3.3,2.2,3.5,5.5,1.5c1.1-0.7,1.9-1.9,2.9-2.8c-1.2-0.8-2.3-1.6-3.5-2.2C89.6,6,88,5.6,86.6,5
			c-0.3-0.1-0.4-0.7-0.6-1c0.4-0.2,0.9-0.7,1.2-0.6c2.6,0.8,5.1,1.7,8,2.8c0-2,0-4.1,0-6.1c0.6,0,1.3,0,1.9,0c0,2.1,0,4.2,0.2,6.3
			c0,0.4,1,1.2,1.1,1.1c1.5-0.8,3.6-0.4,4.5-2.4c0.8-1.7,2-3.3,2.9-5c1.6,0,3.2,0,4.9,0c-0.2,0.4-0.4,0.9-0.7,1.2
			c-1.3,1.3-2.2,2.6-2.2,4.6c0,2.4,2.2,0.4,2.6,1.6c0.2,0.4,0.2,1,0.5,1.3c0.5,0.6,0.9,1.4,1.6,1.7c2,0.7,4,1.1,6,1.6
			c0.4,0.1,0.9-0.1,1.2-0.4c2.3-2,2.3-3.9,0.1-5.8c-1-0.9-2.4-1.7-3.7-1.9c-2.3-0.5-2.7-2-2.5-3.9c1.3,0,2.6,0,3.9,0
			c0.7,3.3,3.8,3.9,6.5,6.2c-0.7-2.7-1.2-4.5-1.6-6.2c1,0,1.9,0,2.9,0c0.2,0.9,0.5,1.7,0.7,2.6c0.8-0.5,1.6-0.9,2.3-1.4
			c0.4-0.3,0.5-0.8,0.8-1.2c1,0,1.9,0,2.9,0c-1,1-2,2-3,3c-1,1-2.3,1.8-3.2,2.9c-3.5,4.6-6.4,9.6-8.5,14.9c-0.2,0.6-0.1,1.4-0.1,2.1
			c0.7-0.1,1.8,0.1,2.2-0.4c2.7-3.1,5.7-6,7.8-9.4C129.5,9,131,4.4,132.9,0c0.6,0,1.3,0,1.9,0c-0.3,1.3-0.7,2.6-1,3.9
			c-0.3,0.4-0.7,0.7-0.8,1.1c-1,7.9,3.8,15.5,12.2,17.4c-0.3-0.9-0.7-1.8-0.7-2.7c-0.2-3.8-2-6.7-4.6-9.2c-1.6-1.6-3.3-3-4.9-4.6
			c-0.5-0.5-0.7-1.3-1.1-1.9c5,1.5,7.9,5.5,11.1,9.6c0.3-3.3,0.6-6.3,0.9-9.2c0.2-1.4,0.4-2.8,0.6-4.2c1,0,1.9,0,2.9,0
			c0.1,0.7,0.3,1.5,0.2,2.2c-0.2,0.9-0.8,1.7-1.2,2.6c-2,3.8-1,7.8-0.9,11.7c-1,0.1-2.1,0.3-1.5,1.7c1.1,2.7,1.9,5.5,1.4,8.4
			c-0.1,0.4-0.4,0.8-0.7,1.1c-0.1,0.1-0.7,0-0.8-0.2c-2.3-4.3-7.5-5.1-10.9-9.3c1,3.8-0.7,6.7,1,9.7c1.5,2.7,1.7,6.1,2.9,9.1
			c1.1,2.8,2.3,5.7,5.6,7.5c1.4-2.1,2.9-4.1,4.1-6.4c0.3-0.6,0.2-2-0.3-2.5c-3.2-3.3-5.8-7.3-10.3-9.2c-0.7-0.3-1.3-0.9-1.8-1.5
			c-0.2-0.2,0-0.9,0.1-1.2c0.1-0.2,0.6-0.3,0.8-0.2c5.2,2.7,9.5,6.6,13,11.2c0.8,1,1.2,2.2,0.3,3.6c-1.9,2.8-3.5,5.8-5.4,8.5
			c-0.6,0.9-1.7,0.8-2.5,0c-0.5-0.6-1-1.2-1.6-1.7c0.3,3.6,1,6.9,3.9,9.2c0.8,0.7,1.5,1,2.6,0.3c2-1.4,4-2.7,6.1-3.9
			c1.2-0.7,1.8-1.6,1.4-2.7c-0.8-2.5-0.1-5,0.1-7.5c0.2-2.3-0.4-4.2-1.7-6.3c-1.9-3-4.8-5.5-3.9-9.9c0.5-2.4-1.3-5.1-2.1-7.7
			c0.3-0.5,0.7-1,0.9-1.5c1.4-5,2.7-10,4-14.9c0.6,0,1.3,0,1.9,0c-1,2.6-1.9,5.3-1.8,8.7c3.9-3,8.1-4.6,10.5-8.7c0.6,0,1.3,0,1.9,0
			c-0.6,3.4-3.2,5.2-5.8,6.7c-2.8,1.7-5.2,3.6-7.6,5.8c-2.1,1.9-2.6,4.1-1.8,6.5c1.1,3,2.3,6,3.9,8.8c2,3.5,3.3,3.5,6.3,0.8
			c2.8-2.5,5.5-4.9,8.3-7.3c0.4-0.3,0.8-0.7,0.9-1.1c0.1-0.7,0-1.5,0-2.2c-0.6,0.1-1.2,0.1-1.7,0.4c-3.4,1.8-6.7,3.7-10.2,5.3
			c-0.9,0.4-2.2,0.4-3.1,0c-1.4-0.7-1.1-2.2-0.9-3.4c0.1-0.3,0.2-0.6,0.4-0.9c2.5-4.1,4.9-8.3,7.6-12.3c1.3-2,3.3-3.5,5.1-5.2
			c0.4-0.4,1.4-0.7,1.6-0.5c1,0.8-0.1,1.2-0.5,1.8c-2.5,2.9-5.1,5.8-7.3,8.9c-1.9,2.6-3.3,5.5-4.8,8.3c-0.2,0.3,0,1,0.3,1.3
			c0.2,0.2,0.9,0.2,1.2,0.1c1.2-0.5,2.3-1.2,3.4-1.6c4.6-1.6,7.6-4.5,8.5-9.5c0.7-3.7,1.2-7.6,3.7-10.7c0.3,0,0.6,0,1,0
			c-0.7,2.9-0.6,5.5,1.9,7.6c0.5,0.4,0.6,1.1,0.9,1.7c1.7,2.9,3.4,5.8,5.8,9.8c1.2-4.9,2.3-8.5,2.9-12.3c0.6-3.2-0.3-4.2-3.7-4.8
			c-0.8-0.2-1.7,0-2.3-0.4c-0.4-0.2-0.5-1.1-0.7-1.6c1.9,0,3.9,0,5.8,0c0.6,1.1,1.3,1.1,1.9,0c0.6,0,1.3,0,1.9,0c0,1.3,0,2.6,0,3.9
			c-0.1,0.1-0.3,0.1-0.4,0.2c-0.1,0.1,0,0.2-0.1,0.3c0.2-0.2,0.3-0.3,0.5-0.5c4,1.8,4,1.8,5.4-2.1c0.2-0.6,0.3-1.2,0.5-1.8
			c1,0,1.9,0,2.9,0c-0.3,1-0.6,1.9-1,2.9c-0.4,0.6-0.9,1.2-1.3,1.8c-0.1,0.2,0.1,0.5,0.2,0.8c0.3-0.1,0.7-0.2,0.7-0.3
			c0.2-0.7,0.3-1.5,0.4-2.3c0.7-0.3,1.4-0.5,2.1-0.8c0,0.6,0.1,1.2-0.2,1.7c-1.7,3.6-0.9,7.4-0.8,11.4c1.4-1,2.7-1.8,3.7-2.7
			c1.6-1.5,4.2-3,4.3-4.7c0.2-2.4,1.3-5.3-0.5-7.8c0.6,0,1.3,0,1.9,0c0.4,1.2,0.6,2.5,1.2,3.5c0.4,0.6,1.4,1.1,2.1,1.2
			c0.4,0,1.2-0.8,1.4-1.4c0.3-1,0.2-2.2,0.2-3.3c0.6,0,1.3,0,1.9,0c0.1,5.3,0.3,5.5,5.3,5.8c3.6,0.2,4.4,0.9,5.4,4.2
			c0.4,1.4,0.7,2.8,1,4.2c0.6,2.3,2.5,3.1,4.4,3.1c2.3,0.1,4.5-0.6,7-1c-1.1-2.3-2.6-4.3-3-6.4c-1-6-4.4-7.7-10-6.9
			c-2.5,0.3-4.8-0.5-6.1-2.9c2.3,0,4.5,0,6.8,0c1.3,1.4,2.6,1.5,3.9,0c1.3,0,2.6,0,3.9,0c0.6,1.2,1.2,2.4,2.1,4
			c0.8-1.8,1.3-2.9,1.8-4c0.6,0,1.3,0,1.9,0c0.8,5.6,3,10,8.9,11.7c0.1,0,0.3,0.2,0.4,0.3c0.6,0.7,1,1.7,2.1,0.5
			c0.7-0.8,1-1.4,0.2-2.4c-2.4-2.9-3.7-6.2-3.8-10c0.6,0,1.3,0,1.9,0c0.8,2.4,1.2,4.9,2.4,7.1c1,1.9,2.7,1.5,3.3-0.6
			c0.6-2.1,0.7-4.3,1.1-6.5c1,0,1.9,0,2.9,0c0.5,1,1.1,1.9,1.4,3c0.5,2.4-1.9,0.8-2.5,1.7c-0.3,0.4-0.6,0.8-0.6,1.3
			c-0.3,3.1-2.2,5.2-4.2,7.4c-0.4,0.5-1,0.9-1.2,1.5c-0.1,0.4,0.2,1.5,0.4,1.5c2.3,0,4.9,1.2,6.7-1.4c0.4-0.6,1.2-1,1.8-1.4
			c3.4-2.1,5.4-6.8,4.5-10.7c-0.2-0.9-0.3-1.9-0.4-2.8c0.6,0,1.3,0,1.9,0c0.4,2.1,0.8,4.1,1.3,6.8c1.4-2.6,2.4-4.7,3.5-6.8
			c0.6,0,1.3,0,1.9,0c-1.5,3.3-2.5,7-4.7,9.7c-2,2.5-1.3,4.3-0.2,6.4c0.4,0.8,1.2,1.4,1.8,2.1c0.8-0.7,1.7-1.3,2.2-2.2
			c0.4-0.7,0.5-1.9,0.2-2.6c-0.6-1.6,0.2-2.1,1.2-3.1c3.2-3.1,7.3-5.4,8.2-10.3c1.3,0,2.6,0,3.9,0c-0.8,1-1.6,2-2.3,3
			c-0.2,0.3-0.3,1-0.1,1.3c0.2,0.3,0.9,0.5,1.3,0.4c2.7-0.5,4.1-2.3,5-4.7c0.6,0,1.3,0,1.9,0c0,0.3,0,0.7,0.1,1
			c0.2,0.6,0.5,1.1,0.7,1.6c0.5-0.3,1.2-0.4,1.6-0.8c0.4-0.5,0.4-1.2,0.6-1.8c0.6,0,1.3,0,1.9,0c0,0.5,0.1,1,0,1.5
			c-0.3,1.9,1,2.7,2.4,3c1.7,0.4,2.1-1,2.4-2.3c0.2-0.8,0.6-1.5,1-2.2c0.6,0,1.3,0,1.9,0c-0.6,1.6-1.2,3.3-1.7,4.9
			c-0.1,0.4,0,1,0.3,1.3c0.2,0.2,0.9,0.2,1.2,0c0.6-0.3,1-0.8,1.6-1.1c0.5-0.2,1.4-0.4,1.8-0.1c1,0.7,0.3,1.2-0.3,1.8
			c-0.2,0.2-0.2,1,0,1.1c1.2,0.8,2.3,1.8,3.6,2c0.6,0.1,1.5-1.5,2.2-2.3c0,0,0,0,0,0c0.3-0.3,0.6-0.6,1-1c0,0,0,0,0,0
			c2.5-2.1,2.5-2.1,1.4-4.9c-0.2-0.6-0.3-1.2-0.4-1.9c0.6,0,1.3,0,1.9,0c0.6,0.6,1.2,1.1,1.9,1.7c0.3-0.6,0.7-1.1,1-1.7
			c3.2,0,6.5,0,9.7,0c0.7,0.6,1.4,1.2,2.2,1.7c2.1,1.4,2.1,1.4,2.7-1.7c0.6,0,1.3,0,1.9,0c-1.5,5.4-0.7,10.4,2.1,16
			c-0.1-5.9-0.1-10.9-0.2-16c1.3,0,2.6,0,3.9,0c0.6,1.1,1.3,1,1.9,0c1,0,1.9,0,2.9,0c1.5,0.6,3.1,1.5,4.6,1.6c1.5,0.1,0.1-1,0.2-1.6
			c0.6,0,1.3,0,1.9,0c0.2,0.4,0.4,0.9,0.7,1.1c0.4,0.3,1,0.3,1.5,0.5c-0.1-0.5-0.2-1.1-0.3-1.6c1.3,0,2.6,0,3.9,0
			c0.7,1.5,1.3,3.1,2,4.6c1.1-1.2,2.3-2.5,3.4-3.7c0.2-0.2,0.3-0.6,0.4-0.9c1,0,1.9,0,2.9,0c-0.3,1.2-0.9,2.6-0.7,3.7
			c0.2,0.7,1.7,1.2,2.6,1.7c2.4,1.5,4.7,2.9,4.1,6.3c-0.1,0.6,0.8,1.8,1.5,2.1c5,2.2,10.1,4.2,15.7,1.3c0.8-0.4,2.2-0.3,3,0.2
			c1.1,0.6,1,1.8,0.5,3c-0.4,0.9-0.4,1.9-0.5,2.8c0,0.1,0.1,0.3,0.3,0.6c0.4-0.2,0.8-0.2,1.1-0.5c4.7-4.5,8-3.5,13.1,1.7
			c1.5,1.5,1.3,2.9-0.5,4c-2.3,1.4-4.6,2.9-7.6,1.4c-1.4-0.7-3.1-0.7-5.3-1.2c0.8,1.7,1,3.3,2,4.1c1.8,1.6,3.7,2.7,1.1,5.2
			c-0.2,0.2,0.3,1.6,0.8,1.9c1,0.5,2.3,0.8,3.5,1c0.3,0,0.7-0.6,1.1-0.9c0.8-0.6,1.6-2.2,2.6-0.7c0.4,0.5-0.3,2.1-0.9,2.9
			c-2.3,2.8-5.6,3.5-9,4.2c-0.4,0.1-0.7,0.5-1.1,0.7c0.5,0.3,1,1,1.4,0.9c2.9-0.8,5.8-1.7,8.7-2.7c2.1-0.7,4-2,6.4-1.1
			c2.5,0.9,2.7,1.2,1.8,3.8c-0.2,0.6-0.4,1.1-0.8,2.1c4.3-0.4,6.6-3,8.5-6c0.5-0.8,0.6-1.8,1-2.7c0.3-0.6,1-1,1.5-1.5
			c0.4,0.6,1.1,1.3,1.2,1.9c0.5,6-0.1,11.6-5,15.9c-2,1.8-3.8,4-5.6,6c-0.4,0.3-0.9,0.4-1.1,0.8c-0.2,0.5-0.3,1.1-0.2,1.6
			c0,0.2,1.2,0.4,1.2,0.3c0.3-0.6,0.4-1.2,0.5-1.9c0-0.3-0.2-0.6-0.4-0.9c0.2,0,0.4,0,0.5,0c3.8-2.3,7.8-3.1,12.3-3.1
			c2.1,0,4.3-1.8,6.4-3c0.9-0.5,1.6-1.6,2.5-2.3c1.7-1.4,2.2-1.3,3.1,0.7c0.5,1.2,0.9,2.4,1.4,3.6c1.9,4.5,1.6,6.5-2.5,9
			c-2.8,1.7-6,3.6-9.8,2.3c-2.7-0.9-3.7-0.5-4.6,1.9c-1.7,4.4-5.3,5.3-9.2,5.6c-3.2,0.2-6.4,0-9.7,0c0-1,0-1.9,0-2.9
			c3.8,1.7,7.8,0.9,11.8,0.7c1.3-0.1,2.6-1.1,3.8-1.9c0.4-0.3,0.7-1.1,0.6-1.6c-0.1-0.4-0.9-0.9-1.4-1c-5.3-0.3-10.3,0.9-14.9,3.7
			c-0.8,0.2-1.5,0.3-2.3,0.5c0.6,0.8,1.2,1.6,1.8,2.4c0.1,0.1,0.3,0,0.5,0.1c2.2,2.7,5.3,2,8.1,1.8c3.3-0.3,6.6-1.4,9.9-1.7
			c2.3-0.2,4.1-0.9,5.4-2.7c1.9-2.7,4.7-2.8,6.7-1.1c3.7,3,7.3,2.1,11.2,1.1c1.4-0.4,2.9-0.3,4.2-0.8c2.4-0.9,3.9-0.2,5.6,1.5
			c2.6,2.7,6.2,3.1,9.7,3.7c0.9,0.2,2.3-0.5,2.9-1.2c3.3-3.7,7.9-4.7,12.2-6.4c1.5-0.6,3-1,4.5-1.5c2-0.7,3,0.2,2.5,2.3
			c-0.7,2.9-1.6,5.8-2.4,8.8c-0.1,0.1-0.3,0.1-0.4,0.2c-0.1,0.1-0.1,0.2-0.1,0.3c0.2-0.2,0.3-0.3,0.5-0.5c2.3-0.1,4.3,0,6.4,1.6
			c2,1.5,4.7,2.1,7,3.1c0.8,0.4,1.7,0.6,3.5,1.3c-2.9,1.5-5,2.7-7.2,3.8c-0.9,0.5-2,0.9-1.3,2c0.7,1.1,0.3,3.2,2.9,2.9
			c5.8-0.7,11.9,0.7,17.9,1.9c2.2,0.5,3.7,1.2,5.1,2.7c1.8,1.8,3.4,2,5.4,0.3c2.1-1.8,4.6-3.4,5-6.8c0.2-2.1,1.5-2.5,3-1.4
			c1.6,1.2,2.1,1.1,2.5-0.7c0.5-2,0.7-4.1,1.1-6.1c0.1-0.5,0.6-1.3,1-1.3c0.5,0,1.3,0.5,1.5,0.9c0.9,2.4,1.7,4.8,2.4,7.3
			c0.3,0.9,0.1,1.9,0.2,2.9c0.1,0.3,0.6,0.6,0.9,0.8c0.1,0,0.6-0.4,0.6-0.6c-0.3-3,2.4-4.3,3.6-6.5c4.6,6.8,3.2,15.3-4.7,19.3
			c-1.2,0.6-2.8,1-4.2,0.8c-3.8-0.4-7.1,0.9-10,2.8c-2.9,1.8-5.1,1.2-7.6-0.3c-1.1-0.6-2.1-1.5-3.3-2c-1.9-0.8-6.9,0.9-7.7,2.7
			c-0.1,0.2,0.6,0.8,1,1.2c1.4,1.2,1.1,2.2-0.2,3.1c-0.5,0.4-1.1,0.8-1.7,0.8c-5.4,0.6-10.9,1.5-16.1-0.8c-0.7-0.3-1.4-0.8-2.2-1.1
			c-0.4-0.2-1.2-0.3-1.3-0.1c-0.3,0.5-0.6,1.3-0.4,1.7c1.6,3,0.6,5.7-1.1,8.2c-0.9,1.2-2.2,2.3-3.6,3c-2.2,1-3.6,0.1-3.3-2.3
			c0.7-5.4-2-9.2-5-13.2c-1.2-1.6-2.5-2-4.1-1.5c-5.7,1.7-10.3,0.4-14.1-4.3c-2-2.5-5.3-2.5-7.9-2c-3,0.5-5.1,0.1-6.8-2.2
			c-2.3-3.2-5.8-3.9-9.3-4.2c-2.2-0.2-4.2-0.6-5.8-2.1c-1.4-1.2-2.3-0.8-3.1,0.6c-0.2,0.3-0.3,0.6-0.4,0.9c-0.7,1.2-2.6,2.4-1.2,3.6
			c1,0.8,3,0.6,4.5,0.4c0.8-0.1,1.5-1.1,2.3-1.7c2.1-1.5,2.7-1.2,3.7,1.5c0.1,0.2,0.1,0.3,0.2,0.4c0.6,1.2,3.2,1.4,2,3.2
			c-0.5,0.8-2.3,0.8-3.5,1.2c-2.1,0.8-4.1,2.1-6.2,2.6c-2.5,0.6-5.1,0.8-7.6,0.7c-1.2-0.1-2.4-1.3-3.5-1.9c0-0.1-0.1,0-0.1,0.2
			c-0.5,4.1-0.4,4-4.3,2.3c-3-1.3-6.1-2.1-8.3-4.7c-1-1.2-2.2-2.5-2.7-3.9c-1.3-3.6-2.3-7.3-3.3-11.1c-0.7-2.6-1.5-5.2-0.2-8
			c0.8-1.7-3.1-5.2-4.8-4.5c-0.4,0.2-0.6,1.2-0.5,1.7c1,2.7,2.2,5.3,3.2,8c0.2,0.6,0,1.5,0,2.2c-0.6-0.1-1.2,0-1.8-0.2
			c-2.7-1.1-5.1-2.6-6.7-5.3c-1.3-2.2-3.1-4.1-4.7-6.1c-1.5-1.8-2.2-3.9-2-6.3l0.2-0.2c0.3-0.3,0.6-0.6,0.9-0.9c0,0,0,0,0,0
			c0.1-0.1,0.3-0.1,0.4-0.2c-0.1-0.2-0.2-0.4-0.3-0.6l-0.2-0.3c-0.3-0.3-0.5-0.6-0.8-0.8l0,0c-1.8-2.7-4-5.3-4.5-8.8
			C372.8,59.4,372,58.9,371.5,58.2C371.5,58.2,371.5,58.2,371.5,58.2z M55.3,489.9c0.3,0.3,0.6,0.6,1,1c0.3,0.6,0.7,1.3,1,1.9
			c0.3,0.7,0.6,1.3,1,2c0.1,0.1,0.1,0.3,0.2,0.4c0.1,0.1,0.2,0.1,0.3,0.1c-0.2-0.2-0.3-0.3-0.5-0.5c-0.3-0.6-0.7-1.3-1-1.9
			c-0.3-0.7-0.6-1.3-1-2C56,490.5,55.6,490.2,55.3,489.9c-0.1-0.2-0.3-0.3-0.4-0.5C55,489.5,55.1,489.7,55.3,489.9z M135.8,497.6
			c0.3-0.3,0.6-0.6,1-1c0.2-0.2,0.3-0.3,0.5-0.5c-0.2,0.1-0.3,0.3-0.5,0.4C136.4,496.9,136.1,497.3,135.8,497.6
			c-0.2,0.1-0.3,0.3-0.5,0.5C135.5,497.9,135.7,497.8,135.8,497.6z M133.8,500.5c-0.3,0.3-0.6,0.7-1,1c-0.1,0.1-0.3,0.1-0.4,0.2
			c-0.1,0.1-0.1,0.2-0.1,0.3c0.2-0.2,0.3-0.3,0.5-0.5C133.2,501.2,133.5,500.9,133.8,500.5c0.2-0.1,0.3-0.3,0.5-0.5
			C134.2,500.2,134,500.3,133.8,500.5z M154.2,32c-0.1-0.1-0.1-0.3-0.2-0.4c-0.1-0.1-0.2-0.1-0.3-0.1
			C153.9,31.7,154.1,31.8,154.2,32c0,0.1,0.1,0.3,0.2,0.4c0.1,0.1,0.2,0.1,0.3,0.1C154.6,32.3,154.4,32.2,154.2,32z M312.3,40.8
			c0.2,0.2,0.3,0.3,0.5,0.5C312.7,41.1,312.5,40.9,312.3,40.8c-0.3-0.4-0.6-0.7-0.9-1c-0.5-0.8-1-1.6-1.6-2.5
			c-0.3,0.3-0.6,0.6-0.9,0.9c0.8,0.5,1.6,1,2.5,1.6C311.7,40.1,312,40.4,312.3,40.8z M132.9,510.2c-0.1-0.1-0.1-0.3-0.2-0.4
			c-0.1-0.1-0.2-0.1-0.3-0.1C132.6,509.9,132.7,510.1,132.9,510.2c0,0.2,0.1,0.3,0.2,0.4c0.1,0.1,0.2,0.1,0.3,0.1
			C133.2,510.5,133.1,510.4,132.9,510.2z M272.6,17.5c0.3-0.3,0.5-0.6,0.8-1c-0.2-0.1-0.3-0.2-0.5-0.3
			C272.8,16.6,272.7,17,272.6,17.5c-0.3,0.3-0.7,0.6-1,0.9c-2.4,1.2-0.1,4.5-2.5,5.7c-0.1,0,0.1,1,0.4,1.3c3,3.6,2.6,7.7,1.6,11.9
			c-0.2,0.9-0.3,1.9-0.3,2.9c0,2.2,0.8,2.9,2.9,2.5c0.9-0.2,1.7-0.7,2.5-1.2c3.2-1.7,3.5-1.7,6.2,0.8c0.5,0.4,0.9,1,1.4,1.3
			c0.9,0.6,1.8,1.1,2.7,1.6c0.1-1.2,0.5-2.5,0.3-3.7c-0.1-0.9-0.8-1.8-1.2-2.6c-0.4-0.7-1.1-1.3-1.3-2c-0.2-0.7,0.1-1.5,0.1-2.3
			c0.6,0.3,1.5,0.5,1.8,1c2.5,4.1,4.6,8.2,1.4,12.9c-1,1.5-0.3,2.9,0.6,4c1.1,1.4,2.2,0.3,3.4-0.3c1.5-0.9,3.2-1.4,4.8-2.2
			c1.4-0.7,1.9-0.4,2.3,1.1c0.6,2,1.1,4.1,2.3,5.7c1.5,2.2,3.6,4,5.9,6.4c0.6-2.8,1.1-5.4,0.2-7.4c-1.4-3.1-2.2-7.2-7-7.4
			c-1.1,0-2.3-0.5-3.1-1.3c-1.6-1.4-2.3-1-3,0.8c-0.2,0.4-0.8,0.7-1.3,0.8c-0.2,0-0.6-0.7-0.8-1.1c-0.1-0.3-0.1-0.7,0-0.9
			c1.7-3.2-0.4-6.3-0.4-9.4c0-1.7-1.9-3.6-3.3-5c-1.2-1.2-2.8-1.5-4.1,0.3c-2,2.7-5.3,3.5-8.2,4.9c-0.5,0.2-1.5-0.3-2-0.7
			c-0.3-0.3-0.3-1.2,0-1.7c1.2-2.4,2.6-4.7,3.8-7.1c0.2-0.3,0-0.9-0.1-1.2c0-0.1-0.6-0.2-0.8-0.1c-0.5,0.1-0.9,0.5-1.3,0.6
			c-3.3,0.5-5.3-1.9-3.4-4.6c1.4-2.1-0.1-2.8-0.5-4.1C271.9,18.1,272.3,17.8,272.6,17.5z M96,498.6c-0.6,0.3-1.3,0.7-1.9,1
			c-0.1,0.1-0.3,0.1-0.4,0.2c-0.1,0.1-0.1,0.2-0.1,0.3c0.2-0.2,0.3-0.3,0.5-0.5C94.7,499.2,95.4,498.9,96,498.6c0.4-0.3,0.7-0.6,1-1
			c2-0.7,4.1-1.4,6.1-2.1c0.1,0.3,0.3,0.7,0.4,1c-1.2,0.7-2.3,1.4-3.5,2c-4.2,1.9-7.9,4.6-10.6,8.3c-5.9,8-13.1,14.7-19.9,21.7
			c-2.5,2.6-4.7,5.5-7.9,9.1c2.3-0.5,3.6-0.6,4.7-1.1c8.1-3.1,16.4-5.6,24.9-7.3c3.7-0.8,7.8-2.1,10.6-4.5
			c4.3-3.7,8.4-7.4,13.4-10.2c0.3-0.2,0.5-0.4,0.7-0.7c2.2-2.1,4.4-4.1,6.7-6.2c0.2-0.2,0.8-0.3,0.8-0.2c0.2,0.4,0.5,0.9,0.4,1.2
			c-0.2,0.7-0.6,1.3-1,2c0.7-0.5,1.6-0.8,2.1-1.4c0.9-1.1,1.7-2.4,2.3-3.7c2.6-5.2,6.7-9.1,10.9-12.8c1.7-1.5,4.3-1.8,6.6-2.6
			c0.2-0.1,0.8,0.4,1.1,0.8c0.1,0.1-0.2,0.6-0.3,0.7c-2.6,2.4-5.3,4.8-7.7,7.3c-1.4,1.5-2.7,3.2-3.6,5.1c-0.5,1,0.1,2.4,0.2,3.7
			c0.9-0.2,1.8-0.4,2.6-0.7c1.2-0.4,2.4-1,3.6-1.3c2.4-0.6,7.6,2.2,8.2,4.5c0.3,1.3,0.1,2.8-0.1,4.2c-0.5,2.9-0.4,3.1,2.1,4.6
			c1.8,1.1,3.7,2.1,5.3,3.3c4.2,3.2,9,3.6,14.1,3c-1.9-2.7-3.5-5.3-5.5-7.6c-3.7-4.2-6.6-9.1-11.6-12.2c-3.5-2.1-4.9-5.4-3.2-10
			c0.6,1.1,1.4,1.9,1.3,2.6c-0.3,2.7,1.4,4.2,3.1,5.7c1.3,1.1,2.8,2.1,4.4,3c0.4,0.3,1.5,0.2,1.7-0.1c0.9-1.4-0.6-0.8-1-1.1
			c-0.3-0.3-0.4-0.9-0.3-1.3c1.4-5.1,2.8-10.3,7.6-13.6c2.8-1.9,5-1.4,6.3,1.7c0.7,1.6,1,3.4,1.3,5.1c0.1,0.4-0.4,1.1-0.7,1.2
			c-0.5,0.1-1.3,0-1.6-0.4c-0.7-0.7-1.1-1.5-1.7-2.4c-0.9-1.4-1.8-1.5-3.1-0.4c-2.5,2.1-3,5.3-4.2,8c-0.3,0.8,0.3,1.7,1.4,1.2
			c1.3-0.5,1.6-0.1,2.5,1c1.7,2,3.8,4.4,6.2,4.9c6.6,1.4,13.3,3.1,20.2,1.3c0.7-0.2,1.6,0.1,2.4,0.3c6.1,1.3,12.1,2.6,19,4
			c-3-4.8-7.3-7-11.5-8c-6.5-1.5-11.8-4.9-17.3-8.2c-2.1-1.3-3.9-2.9-3.7-5.8c0.1-0.7-0.4-1.6-0.9-2.1c-2.3-2.4-4.6-4.8-7.2-7
			c-5.2-4.5-10.5-8.8-13.7-15.4c-1.5-3-3.8-6.2-7.4-7.2c-3.6-1-5.7-3.5-8-6c-1.2-1.3-2.3-2.7-3.3-4.2c-6.4-9-11.6-18.5-11-30.2
			c0.3-6.3,0.3-12.6,0-18.9c-0.6-10.3,1.4-20.1,3.8-30c1.8-7.6,3.4-15.3,5.3-22.9c1.4-5.4,3-10.8,4.7-16.1c1-2.9,2.6-5.5,3.7-8.4
			c1.6-4.3,2.9-8.9,4.6-13.2c2.5-6.3,5.2-12.4,7.8-18.6c2.5-6.3,5-12.6,7.5-18.8c2.4-6.1,5.1-12.2,7.3-18.4
			c3.3-9.1,5.7-18.4,9.4-27.3c3.6-8.8,6.2-17.8,8.9-26.9c3.1-10.3,6.6-20.4,10.8-30.4c5.1-12.3,10.3-24.6,15.4-36.9
			c1.5-3.7,1.4-3.8-3-6.2c0.4,1.9,0.8,3.4,0.9,4.9c0,0.3-0.8,1.2-1,1.1c-5.8-1.6-10.9-4-12.5-10.6c-0.3-1.2-0.5-2.5-0.9-3.7
			c-0.2-0.7-0.8-1.6-1.2-1.7c-0.8-0.1-1.9,0.3-2.4,0.9c-0.6,0.7-0.7,1.7-1,2.7c-1.5,5.4-4.5,9.9-8,14.2c-0.8,1-2.3,1.7-3.7,2.2
			c-1.7,0.6-3.3-0.9-2.9-2.7c0.2-0.9,0.7-1.8,1.1-2.7c2.4-4.6,3.1-9.5,2.6-14.5c-0.2-2.1-0.9-4-1.3-6.1c-0.1-0.4,0.2-0.8,0.3-1.3
			c0.4,0.2,1.1,0.4,1.3,0.8c0.7,2,1.3,4,1.8,6c1,3.8,0.7,7.6-0.9,11.2c-0.6,1.5-1.3,2.9-1.8,4.5c-0.2,0.5,0.2,1.2,0.4,1.8
			c0.6-0.2,1.2-0.3,1.7-0.6c0.3-0.1,0.5-0.4,0.7-0.7c2.3-3.8,4.6-7.7,6.9-11.5c0.4-0.7,0.6-1.5,0.7-2.3c0.2-1.5-0.1-2.5-1.9-3.3
			c-2-0.8-4-2.3-5.3-4c-3.6-4.7-6.7-9.8-10.4-14.4c-1.2-1.6-1.7-2.9-1.7-4.7c0-2.8,0.3-5.6-1.5-8c-2.3,2.9-3.9,5.7-1.5,9.4
			c0.6,0.9,0.4,2.6,0.1,3.8c-0.7,2.6-1.6,5.2-2.7,7.7c-0.3,0.7-1.6,1.6-2.1,1.4c-1.1-0.4-2.1-1.3-2.9-2.2c-0.3-0.4-0.2-1.2-0.1-1.9
			c0.3-4.2-1.8-7.8-2.7-11.7c-0.2-0.7-0.7-1.7-1.3-1.9c-0.8-0.3-1.8-0.2-2.6,0.1c-0.3,0.1-0.2,1.3-0.2,2c0,0.5,0.4,0.9,0.6,1.3
			c1.9,4,3.1,5.3-3,5.8c-1.8,0.1-2.8,0.7-3.5,2.6c-3,8-6.4,15.8-9.5,23.7c-5.6,14.7-11,29.4-16.6,44.1c-3.3,8.7-6.7,17.4-10.4,25.9
			c-5.4,12.6-11.1,25-16.7,37.5c-1.6,3.5-3.5,6.9-4.9,10.4c-2.6,6.9-5,13.9-7.4,20.9c-3.4,9.7-6.4,19.5-10.3,29
			c-3.8,9-5.2,18.5-7.5,27.8c-1.3,5.3-2.4,10.6-3.5,15.9c-0.8,3.4-1.6,6.8-2.3,10.3c-1.3,6.1-2.5,12.2-3.7,18.3
			c-0.8,4.6-1.5,9.2-2.1,13.8c-0.8,6-1.6,12.1-2.3,18.1c-0.2,1.9-0.5,3.8-0.6,5.7c-0.3,5.9,0.5,11.9-0.8,17.8
			c-0.5,2.3-0.1,4.8,0.1,7.2c0.5,5.4,1.3,10.8,1.6,16.2c0.5,7.5,0.6,15.1,1.1,22.7c0.1,2.6,0.6,5.1,1,7.6c0.1,0.5,0.2,1,0.6,1.3
			c1.7,1.2,1.3,2.6,0.8,4.3c-0.9,3.2-0.7,5,0.4,8.5c2.2-6.2,5.2-11.6,8.5-16.9c0.5-0.8,1.1-1.6,1.7-2.3c0.2-0.2,0.8-0.2,1.2-0.2
			c0,0.5,0.2,0.9,0.1,1.4c0,0.3-0.3,0.6-0.4,0.8c-3.7,6.9-7.5,13.8-11.2,20.7c-0.2,0.4-0.6,0.9-0.6,1.3c-0.7,4.9-1.4,9.8-2.1,14.7
			c-0.2,1.2,0.9,3-1.2,3.6c-0.3-1.2-0.7-2.4-0.7-3.6c-0.1-0.9,0.3-1.9,0.4-2.8c0.2-1.4,0.4-2.8,0.6-4.2c-2.6,3.6-3.5,7.8-4.9,11.9
			c-0.9,2.7-2,5.4-3.2,8.1c-0.2,0.4-1.3,0.3-2,0.4c0-0.6-0.2-1.2,0-1.7c0.8-1.6,1.8-3,2.5-4.6c0.3-0.8,0.1-1.8,0.1-2.6
			c-0.7,0.3-1.4,0.5-2.1,0.8c-5.2,2.6-10.3,5.2-15.5,7.9c-4,2-8.2,3.6-12.3,7.3c4.2,0,7.5,0,10.9,0c1.6,0,3.4-0.4,4.8,0.2
			c2.5,1.1,4.5,0.4,6.3-0.9c6.1-4.5,12.8-8,19.6-11.3c0.7-0.3,1.3-1,1.8-1.6c4.5-4.6,10.3-7.1,16.1-9.5c4-1.6,4.3-2.7,2.1-6.7
			c-1.9-3.5-3.2-7.3-4.7-11.1c-0.2-0.6,0.1-1.8,0.5-2c0.7-0.4,2-0.7,2.6-0.3c1.3,0.9,2.4,2.2,3.3,3.5c0.9,1.3,1.5,2.8,2.1,4
			c2.3-2.6,4.6-5.2,7-7.7c0.4-0.5,1.4-0.5,2.1-0.7c0,0.9,0.1,1.8-0.2,2.6c-0.2,0.6-0.8,1-1.1,1.6c-1.1,2.6-3.2,4.9-3.1,8
			c-1.8,1.7-2.1,4-2.7,6.5c2.9-1.7,4.2-3.6,2.7-6.5c1.4-0.9,2.8-2,4.4-2.6c1.3-0.5,1.4,0.7,1.5,1.6C96.7,497.9,96.3,498.2,96,498.6z
			 M185.3,45.6c-0.3-0.3-0.6-0.6-1-1c0-1.2,0.5-2.2,1.5-0.9c2.9,3.8,6.8,3.2,10.6,2.4c2.8-0.6,5.3-0.9,8,0.1
			c0.5,0.2,1.4,0.1,1.7-0.3c0.3-0.3,0.1-1.2-0.2-1.7c-2.2-4.5-10.5-7.6-15.4-5.6c-2.2,0.9-4.3,1.5-6.7,0.2
			c6.1-1.9,10.5-5.8,14.5-11.4c-1.1,0.3-1.6,0.3-1.9,0.5c-2.3,1.8-4.8,2.3-7.6,2.1c-1.2-0.1-2.5,0.3-3.6,0.8c-1.9,0.9-3.6,2-5.5,3
			c-1.6,0.8-2,1.4-0.2,2.4c0.8,0.5,1,1.3-0.4,1.5c-0.8,0.1-1.6,0-2.4,0c-0.3-0.3-0.6-0.5-0.9-0.8c-0.1,0.2-0.2,0.3-0.3,0.5
			c0.4,0.1,0.8,0.2,1.3,0.3c1.1,1.2,2.4,1.5,4.1,1.7c0.9,0.1,1.4,2.6,2.2,4c0.3,0.5,1,0.7,1.5,1.1C184.6,45,184.9,45.3,185.3,45.6
			c0,0.4,0,0.8,0.2,1c0.3,0.3,0.7,0.5,1,0.7c-0.1-0.4-0.2-0.8-0.4-1.1C185.9,45.9,185.6,45.7,185.3,45.6z M58.2,485
			c-0.3,0.5-0.7,0.9-0.9,1.4c-0.1,0.2,0.2,0.5,0.3,0.8c0.2-0.3,0.5-0.6,0.5-0.9C58.2,485.9,58.2,485.4,58.2,485
			c0.1-0.1,0.3-0.1,0.4-0.2c0.1-0.1,0.1-0.2,0.1-0.3C58.5,484.7,58.4,484.8,58.2,485z M147.4,65c2,0,2.8-1.4,3.3-3
			c0.1-0.3-0.3-0.8-0.4-1.2c-0.5,0.2-1.3,0.3-1.5,0.7C148.3,62.6,147.9,63.8,147.4,65c-0.1,0-0.3,0.1-0.4,0.2
			c-0.1,0.1-0.1,0.2-0.1,0.3C147.1,65.3,147.3,65.2,147.4,65z M86.3,503.4c2.3-2.6,2.7-5.9,3.6-9C88,497.1,86.6,500.1,86.3,503.4
			c-1.3,0.9-0.9,2.1,0,3.3C86.3,505.6,86.3,504.5,86.3,503.4z M397.7,67.9c-0.3-0.3-0.7-0.6-1-0.9c-0.5-3.1-0.9-6.1-1.4-9.4
			c-2,1-3.7,1.9-5.4,2.6c-1,0.4-2.1,0.5-3.1,0.8c-0.5,0.1-1,0.2-1.5,0.3c0.4,0.5,0.9,1.6,1.3,1.6c3.8-0.5,6.4,1.4,8.8,3.8
			c0.3,0.3,0.9,0.2,1.4,0.3C397,67.3,397.4,67.6,397.7,67.9c0.3,0.9,0.5,1.9,0.9,2.7c1.3,2.3,1.3,2.3,4.2,0.6
			C401.2,70.1,399.5,69,397.7,67.9z M406.4,54.3c-1.8,0.3-3.6,0.6-6.1,1c1.1,1,1.6,1.5,2.1,1.7c2.4,1.3,2.5,1.3,3.8-1.4
			C406.4,55.3,406.3,54.8,406.4,54.3c0.1-0.1,0.3-0.1,0.4-0.2c0.1-0.1,0.1-0.2,0.1-0.3C406.7,54,406.6,54.2,406.4,54.3z M80.5,489.9
			c-0.1-0.1-0.1-0.3-0.2-0.4c-0.1-0.1-0.2-0.1-0.3-0.1C80.2,489.5,80.4,489.7,80.5,489.9c0.7,2.9,1.6,5.7,3.7,8.6
			C84.7,494.5,83.6,491.7,80.5,489.9z M480.2,101.8c0.1,1.4,0.2,2.8,0.3,4.2c1-1.1,1.3-2.3,1.3-3.4
			C481.7,102.3,480.7,102.1,480.2,101.8c-0.2-0.2-0.4-0.6-0.7-0.6c-5-1-9-3-10.9-8.2c-0.8-2.3-2.7-3.5-5.5-2.3
			c2.1,2.2,4.4,4.2,6.2,6.6C472.1,100.9,475.6,102.6,480.2,101.8z M289,8.7c-1.6,1.8-3.2,3.6-4.7,5.4c-0.4,0.4-0.5,1.1-0.8,1.6
			c0.5,0.2,1.1,0.6,1.6,0.7c3.4,0.6,6.8,1.2,10.3,1.7c1,0.2,2.1,0.3,2.1-1.1c0-0.5-0.8-1.3-1.4-1.5C292.5,14.6,290.2,12.3,289,8.7
			c1.1,0.3,2.2,0.4,3.2,0.9c1,0.4,1.8,1.2,2.7,1.8c0.7-1,1.4-2.1,2-3.2c0.2-0.2,0.2-0.6,0.2-0.9C289.6,3.4,290.1,4.8,289,8.7z
			 M246.4,15.5c-4.6,0.4-6,2.4-4.4,6.5c0.9,2.5,2.7,4.4,5.2,5.4c1.2,0.5,1.7,0,1.6-1.4c-0.2-1.7-0.1-3.6-0.5-5.3
			C247.8,19,247,17.3,246.4,15.5c0.2-0.1,0.3-0.3,0.5-0.5C246.7,15.2,246.5,15.3,246.4,15.5z M182.4,71.8c1.8,1.4,0.5,2.3-0.7,2.7
			c-1.8,0.5-3.8,0.5-4.7,2.7c4,2,4.8,2,10.3-0.7c2.5-1.2,5.2-2.5,5.1-6.9c-2.1,2.2-3.7,1-5.6-0.1C184.8,68.1,183.7,68.9,182.4,71.8
			c-0.1,0.1-0.3,0.1-0.4,0.2c-0.1,0.1-0.1,0.2-0.1,0.3C182,72.1,182.2,71.9,182.4,71.8z M127.1,34.9c1,0.1,2.1,0.2,1.6,1.6
			c-0.8,2.5-1,5,0.1,7.5c0.2,0.5,0.4,1.4,0.1,1.8c-1.5,2.3-0.2,4.4,0.3,6.5c0.1,0.7,0.7,1.6,1.2,1.7c0.6,0.1,1.7-0.4,2-0.9
			c0.7-1.2,1.6-2.8,1.3-4c-1.6-5.6-0.8-11.9-5.2-16.8C128,33.3,127.5,34.1,127.1,34.9c-0.3,0.3-0.6,0.7-1,1c-2.3,0-3.3,1.9-4.6,3.2
			c-2.1,2.2-4.6,3.5-7.4,4.4c-0.6,0.2-1.8,0-2.2-0.5c-0.4-0.4-0.3-1.6,0-2.1c1.9-3.3,3.8-6.6,5.9-9.8c1.9-3,4-6,6-8.9
			c-3.1,1.5-6.2,2.8-9.2,4.4c-1.1,0.6-2.4,1.3-2.8,2.4c-1,2.3-1.6,4.8-2.2,7.3c-0.3,1.2-0.8,1.2-1.5,0.5c-0.4-0.4-0.8-0.9-1.2-1.3
			c-0.4,0.7-1,1.3-1,2c-0.4,3.7,2.1,5.9,4.4,8.1c2.4,2.2,3.6,2.1,6.3,0.2c1.2-0.9,2.5-1.6,3.4-2.6c2.2-2.3,5.3-3.8,6-7.3
			C126.4,35.6,126.7,35.2,127.1,34.9z M410.3,66.9c0.1,0.4,0.1,0.9,0.3,1.3c0.1,0.2,0.5,0.3,0.7,0.4c0-0.3,0.2-0.8,0-1
			C411.1,67.3,410.7,67.2,410.3,66.9c-3.2-4.8-8.5-7-12.8-10.5c0.1,0.8,0.6,1.4,0.7,2c0.1,0.9-0.3,1.9-0.3,2.8
			c-0.1,3.2,1.4,5.4,4.3,6.9c2.7,1.3,5.3,2.3,7.3-1.1C409.5,66.9,410,67,410.3,66.9z M377.3,25.2c0.5,0.3,0.9,0.6,1.4,0.9
			c0.2,0.1,0.5-0.2,0.8-0.3c-0.3-0.2-0.6-0.4-0.9-0.5C378.2,25.2,377.8,25.2,377.3,25.2c0.7-1.9,2.5-2.3,4.2-2.8
			c2.4-0.8,5-1.3,7.4-2.1c0.9-0.3,1.7-1.2,2.4-1.9c0.2-0.2,0.3-1,0.1-1.3c-0.2-0.2-0.9-0.3-1.2-0.1c-2.3,1.4-4.9,1.9-7.4,1.4
			c-2.8-0.5-5.5-1.4-8.2-2.3c-2.5-0.8-3.7-0.1-3.9,2.4c-0.2,2,0.6,2.8,2.7,2.9c2.6,0.2,2.6,0.4,1.5,3.1c-0.6,1.4,0.1,1.3,1.1,0.9
			C376.3,25.2,376.9,25.3,377.3,25.2z M134.8,54.3c-1.4,0.8-2.7,1.7-4.1,2.5c-1.5,0.8-2.4,0.4-2.7-1.3c-0.4-1.9-0.8-3.7-1.3-5.5
			c-0.1-0.5-1-1.2-1.3-1.1c-1.2,0.4-2.3,1-3.2,1.8c-0.4,0.3-0.2,1.3-0.2,2c0.1,5.3,4.4,8.5,6.2,13c2-2.9,3.8-5.4,5.4-7.9
			C134.1,56.8,134.4,55.5,134.8,54.3c1-2,1.6-4.3,3-5.9c1.6-1.8,1.1-3.6,0.7-5.3c-0.9-4.2-2-8.4-3.1-12.6c-0.1-0.4-0.5-0.8-0.9-1.3
			c-2.9,5-0.6,9.7-0.1,14.3C134.9,47.2,135.8,50.7,134.8,54.3z M455.9,88.3c-2.5-0.6-4.7-1.5-6.4-3.7c-1.2-1.5-2.5-1.3-4.2-0.1
			c-1.5,1.1-0.7,2.2-0.2,3.3c1.1,2.3,2,4.7,3.5,6.7c1.2,1.6,3,2.8,4.7,3.9c1.2,0.8,2.5,0.5,3.2-0.9c0.9-1.8,0.3-3.6-1.3-4.3
			c-2.8-1.2-2.9-1.8-0.7-3.7C454.9,89,455.4,88.7,455.9,88.3c0.2,0,0.3-0.1,0.4-0.2c0.1-0.1,0.1-0.2,0.1-0.3
			C456.2,87.9,456.1,88.1,455.9,88.3z M134.8,72.8c2.7,3,5,6.2,6.5,10.1c1.4,3.7,4.4,5.6,8.5,5.3c0.4,0,1.2-0.8,1.2-1.1
			c-0.2-1.6-3.3-4.3-4.9-4.5c-0.8-0.1-1.6,0-2.4-0.1c-1.6-0.3-1.9-1.3-0.9-2.7c1.8-2.5,1.9-2.5-0.9-3.9
			C139.6,74.7,137.2,73.8,134.8,72.8c-0.7-1.2-0.7-2.4,1.1-1.9c2,0.5,3.9,1.3,5.6,2.4c4,2.4,4.9,1.7,6.1-3c0.1-0.4,0-0.8,0-1
			c-1.4,0-3,0.5-3.6-0.1c-1.2-1.1-0.4-2.6,0.5-3.8c0.9-1.1,1.9-2.3,2.4-3.6c0.3-0.9,0-2.2-0.5-3c-0.9-1.6-2.1-1.4-2.7,0.3
			c-0.9,2.8-2,5.3-4.1,7.5c-2.8,3-6.5,3.7-10.3,4.7C130.9,73.5,133,72.5,134.8,72.8z M443.3,76.6c1.1,0,2.3-0.1,3.4,0
			c2.8,0.2,3,0.6,3.2,3.5c0,0.8,0.4,1.8,0.9,2.4c2.6,3.1,6.1,3.3,9.7,2.4c2.6-0.7,5-1.9,8-3.1c-3.1-0.8-5.7-1.9-8.4-2.1
			c-2.9-0.3-5.2-1.4-7.1-3.5c-0.5-0.6-1.4-1.3-1.9-1.2C448.4,75.4,445.9,76.1,443.3,76.6c-0.4,0.1-0.8,0.2-1.2,0.3
			c0.1,0.2,0.2,0.3,0.3,0.5C442.7,77.1,443,76.9,443.3,76.6z M184.3,24.2c-3.1-0.9-5.3-2.8-5.9-6.1c-0.8-4.5-3.6-8.1-6.2-12.4
			c-0.6,2.6-1.1,4.6-1.4,6.6c-0.2,1.1-0.2,2.3,0.1,3.4c0.2,0.8,0.9,2.3,1.3,2.3c2.6-0.2,2.1,1.6,2.6,3.1c0.6,1.9,1.5,3.9,2.8,5.4
			c1.2,1.4,3,0.6,4.5,0c0.1-0.1,0.3-0.1,0.5,0C185,27.3,184,25.2,184.3,24.2c1.5-1,1-2.5,0.8-3.9c-0.1-0.5-0.7-0.9-1.1-1.4
			c-0.4,0.6-1.2,1.4-1.1,1.9C183.1,22,183.8,23.1,184.3,24.2z M340.5,16.5c-0.3-2.6,2.4-1.4,3.4-2.6c-1.2-1.6-3.2-3.6-4.6-2.7
			c-2,1.2,0.4,3.3,0.7,5.1C340.1,16.3,340.3,16.4,340.5,16.5c1.6,2.6,3.5,4.7,6.6,6c4.3,1.8,8.7,2.8,13.3,2.8c2.3,0,4.7,0.5,6.6-1.5
			c-5.5-1.9-11.3-2.5-16.1-5.8c-2.5-1.7-5.3-2.9-8.5-1.4C341.9,16.7,341.1,16.5,340.5,16.5z M154.2,89.2c3-0.2,3.9-2.6,4.7-4.9
			c1.3-4,0.8-8.7,4.3-12c0.2-0.2,0-1.2-0.3-1.7c-1.2-1.6-2.5-3.2-3.8-4.8c0.1-0.1,0.3-0.1,0.4-0.2c0.1-0.1,0.1-0.2,0.1-0.3
			c-0.2,0.2-0.3,0.3-0.5,0.5c-0.3,0.7-1,1.4-0.9,2c0.8,5.3-0.9,9-5.9,11.4c-2.5,1.2-2.4,2.7-0.4,5C153.1,85.8,154.7,87,154.2,89.2
			c-1.2,0.3-2.4,0.9-3.6,1c-1.7,0.1-2.2,0.9-2.1,2.4c0.1,1,0.1,1.9,0,2.9c-0.2,2.2,1.2,3.1,2.9,3.9c2.1,0.9,4,0.2,6.1-0.4
			c3.5-1,3.9-1.7,1.7-4.6c-0.4-0.6-1.2-1-1.8-1.3C155.6,92.3,154.2,91.3,154.2,89.2z M76.6,47.5c-0.5,3.5-2.1,5.8-4.6,5.6
			c-1.6-0.1-2.2,0-2.5,1.6c-0.2,1-1.1,1.9-1.6,2.9c-0.3,0.5-0.5,1.1-0.7,1.7c0.7,0.2,1.4,0.7,2.1,0.7c5.2-0.1,9.9-6.3,8.6-11.4
			C77.9,48.2,77.1,47.9,76.6,47.5c-1.6-2.8-3.2-5.7-4.8-8.6c-0.9,0.9-1.6,1.7-2.6,2.7c-1.3-3.5-2.7-6.6-3.7-9.8
			c-1.1-3.3-1.8-6.7-2.7-10.2c-0.5,0.3-0.9,0.3-1.1,0.5c-3.6,3.4-3.4,3.3-0.5,7.4c2.4,3.4,5.6,6.7,4.2,11.7
			c-0.2,0.7,0.4,1.9,0.9,2.6c1.9,2.5,4,4.8,5.9,7.1C73.9,49.7,75.3,48.6,76.6,47.5z M51.4,28.2c1.1,0,1.7,0.4,2,1.6
			c0.9,4,1.9,8.1,3,12.1c0.5,1.7,1.1,3.3,1.9,4.9c0.3,0.6,1.2,1.4,1.7,1.3c0.6-0.1,1.2-1,1.5-1.6c3.4-8.6,1.3-14-5-19.3
			C54.8,25.6,53.8,25.9,51.4,28.2c-3.4,1.5-3.7,4-2.4,7.1C50.7,33.2,51.6,30.8,51.4,28.2z M191.1,94.1c0-1.4,0.4-2.3,2-1.5
			c1,0.5,1.5,0.4,1.1-0.9c-0.3-0.9,0-2.2-0.6-2.8c-2.3-2.2-0.1-3,1.2-3.8c0.7-0.5,1.8-0.5,2.7-0.8c1.9-0.7,3.3-1.7,3-4.6
			c-3.2,2.5-6.6,3-10.2,2.8c-1.1-0.1-2.3,0-3.4,0.2c-1.5,0.3-2.1,1.9-0.9,2.9c2.5,2.1,3.4,4.9,4.3,7.9
			C190.5,93.7,190.9,93.9,191.1,94.1c0.1,3,0,6,1.4,9c1.1,2.1,1.5,4.7-1.4,6.3c-0.3,0.2-0.3,1.9,0.2,2.4c1.2,1.4,2.6,3.1,4.2,3.8
			c2.4,1,5.1,1.3,7.7,1.7c0.5,0.1,1.4-0.9,1.6-1.5c0.2-0.5-0.2-1.5-0.7-1.9c-3.2-2.9-5.6-6.2-6.5-10.4c-0.5-2.3-3.4-3.9-2.1-6.8
			c0.1-0.2-0.5-0.8-0.9-1C193.5,95,192.3,94.6,191.1,94.1z M80.5,20.4c1,0.8,1.8,1.8,2.9,2.3c1.8,0.8,2.3,1.5,0.5,3
			c-0.4,0.3-0.2,1.5-0.1,2.2c0.1,1.3,0.5,2.5,0.5,3.8c0,0.7-0.5,1.3-0.8,2c-0.6-0.3-1.2-0.4-1.6-0.8c-1.1-0.9-2.1-2-3.3-2.8
			c-1.9-1.3-3.3-0.6-3.6,1.7c-0.1,0.9,0.5,2.2,0.1,2.6c-2.5,2.4-1.3,4.8,0,7c1.4,2.3,3,4.6,4.7,6.6c0.9,1,2.3,1.7,3.7,2.2
			c1.8,0.7,2.4-0.1,2.2-2.1c-0.6-4.8-3.4-8.6-6-12.4c-0.4-0.6-0.7-1.4-1-2.1c0.2-0.1,0.4-0.3,0.7-0.4c1.7,2,3.5,4.1,5.4,6.4
			c0.6-1.1,1.1-1.9,1.4-2.7c1.2-2.8,3.1-5.5,3.5-8.4c0.3-2.1-1.4-4.5-2.2-6.7c-0.2-0.6-0.1-1.3-0.4-1.9c-0.2-0.5-0.7-1.3-1.1-1.3
			C84,18.4,81.7,17.9,80.5,20.4c-0.1,0.1-0.3,0.1-0.4,0.2c-0.1,0.1-0.1,0.2-0.1,0.3C80.2,20.7,80.3,20.5,80.5,20.4z M192.1,27.4
			c2.3-1,3.9-1.7,5.4-2.5c1.2-0.6,2.1,0.2,2.1,1.1c0,1.4-0.2,2.9-0.9,4.1c-0.9,1.5-2.3,2.7-3.5,4c-0.8,0.9-1.2,1.4,0.4,1.8
			c1.9,0.4,3.7,0.9,5.4,1.8c4.6,2.3,7.2,6.3,8.9,11c0.1,0.4,0.2,1-0.1,1.3c-0.2,0.3-0.9,0.5-1.3,0.4c-1.1-0.3-2-0.9-3.1-1.3
			c-2.4-0.9-4.8-1.8-7.5-1.4c-2.5,0.4-5.1,0.7-7.6,0.9c-2.2,0.2-2.5,0.6-1.9,2.7c0.6,2.3,1.1,4.7,1.5,7c0.1,0.7-0.5,1.4-0.8,2.2
			c-0.8-0.3-1.6-0.6-2.4-1c-0.8-0.5-1.4-1.1-2.5-2.1c-0.1,1.3-0.1,2.1-0.1,2.9c-0.1,3.3,1.9,5.3,4,7.4c1.8,1.7,3.3,0,4.8-0.3
			c1.4-0.3,1.8,0.5,1.7,1.5c-0.2,3.4-1.2,6.4-4.4,8.1c-2.5,1.4-5,3-8.1,2.9c-0.5,0-1.5,0.7-1.5,0.9c0.2,0.7,0.6,1.4,1.1,1.9
			c0.4,0.3,1.5,0.5,1.6,0.3c1.8-3.4,5-2.4,7.8-2.4c3.3,0.1,6-0.7,8.2-3.3c0.4-0.5,1.5-1.1,1.9-0.9c0.6,0.3,1,1.2,1.1,2
			c0.4,3,0.7,6,1,9.1c0.2,2.3,1.1,3.2,3.6,2.2c0.7-0.3,1.8,0.3,2.8,0.4c4.4,0.2,8.8,2.3,13.3,0.7c1.4-0.5,1.7,0.4,1.8,1.5
			c0.3,3.1-1.8,4.7-4.1,6c-2,1.2-4.2,2.2-6.4,3.4c1.7,2,3.1,3.6,5.8,3.4c1.2-0.1,2.5,0.4,3.7,0.9c0.7,0.3,1.8,1.2,1.7,1.7
			c-0.1,0.8-0.9,1.7-1.6,2.1c-1.2,0.7-2.7,1-4,1.7c-2.9,1.7-5.8,2.1-8.7,0.6c-2.7-1.4-5.4-2.9-7.8-4.6c-1-0.7-1.5-2.2-2.3-3.3
			c2.3-1.4,2.4,1.4,3.7,1.9c0.1,0.1,0.2,0.3,0.4,0.3c3,1.5,5.9,3.3,9,4.3c2.7,0.9,4.8-1.4,7.1-2.5c0.3-0.1,0.6-0.5,1.2-1
			c-3.3-0.2-6.6,0.6-8.3-2.5c-1.4-2.4-3.3-2.7-5.7-2.4c-2.9,0.3-5.5-0.1-7.3-2.7c-0.2-0.3-0.4-0.5-0.7-0.6c-0.4-0.2-1-0.4-1.3-0.2
			c-0.3,0.2-0.7,0.9-0.6,1.2c0.8,2.7,1.1,5.8,2.7,8.1c2.1,3,4.8,5.7,7.8,7.8c2.6,1.8,5.7,4,9.3,2.5c2.5-1,4.7-0.4,7,0.4
			c9.7,3.5,7.9,2.1,13.7-3.3c0.3-0.3,0.5-0.7,0.8-1.2c-4.5-3-9-3.2-13.7-0.6c-2.5,1.4-5.3,2.2-7.9,3.5c-1.8,0.9-3.1,0.2-4.5-0.7
			c-0.2-0.1-0.4-0.7-0.3-0.8c0.3-0.3,0.9-0.8,1-0.7c1.7,1.1,3.1-0.1,4.5-0.7c3.5-1.5,7-3.5,10.7-4.2c2.8-0.5,3.8-1.8,4.7-4
			c1.3-3.3,2.6-6.6,4-9.8c1.9-4.4,4.1-8.7,5.8-13.3c3.3-9,6.5-18.1,9.5-27.3c2.9-8.9,6.1-17.6,10.2-26c0.5-1,1.2-2,1.4-3.1
			c0.1-0.5-0.5-1.8-0.9-1.8c-3-0.2-4.4-2.3-5.9-4.5c-1.2-1.8-4-2.1-6.6-1.1c-2.3,0.8-2,2.7-1.8,4.4c0.3,2.2,0.9,4.3,1.4,6.5
			c-3.8,0.9-6.6-0.4-9-2.8c-2.2-2.2-3.5-4.6-3.2-7.7c0.1-1.1-0.4-1.7-1.8-1.3c-3.4,0.8-6.8,1.5-10.1,2.2c1.5,3.9,1.4,4.2-2.6,5.7
			c-3.3,1.2-6.5,0.4-9.2-2.5c-1-1.1-1.8-2.3-2.8-3.4c0.1,2.1,0.8,3.9,1.3,5.7c0.4,1.8-0.8,3-2.5,2.4c-1.6-0.6-3.4-1.4-4.5-2.6
			c-2.6-3-4.9-6.2-7.3-9.3c-4.6,1.2-7.9,3.5-7.5,8.9C192.7,25.5,192.4,25.9,192.1,27.4z M380.9,35.5c2.3,1.9,4.2,2.8,5.1,4.3
			c2.7,4,6.4,2.8,10,2.5c1-0.1,1.8-0.9,0.7-2c-1.7-1.7-3.1-3.5-6-3.5c-6-0.1-11.1-2.3-14.9-7.3c-1.6-2.1-4-3.8-7.1-3.2
			c-2.5,0.5-5.1,0.8-7.6,1.3c-0.6,0.1-1.1,0.6-2.4,1.6c2.5,0,4.1-0.3,5.4,0.1c3,0.8,5.9,1.4,9,0.2c0.2-0.1,1.2,1,1.2,1.5
			c-0.2,1.3-0.7,2.5-1.1,3.7c-1.1,3.1-3.1,4.6-6.6,4.4c-3.9-0.3-7.9-0.1-11.9-0.1c0.9,1,1.9,1.3,3,1.5c0.7,0.1,1.8-0.3,2.2,0
			c1.2,1.3,2.3,0.7,3.5,0.3c5.2-1.7,10.1-1.5,14.8,1.4c1.9,1.2,4,2.1,6.6,1.1C383.3,41.1,382,39,380.9,35.5z M398.8,88.8
			c2.8,1.5,5.1,3.4,7.8,4c2.3,0.6,4.3,0.9,5.8,2.8c1,1.3,2.5,1.5,3.9,1.1c1.5-0.4,3-1,4.5-1.7c1.5-0.6,2.5-1.6,1.7-3.4
			c-0.7-1.6-1.9-1.1-3.2-0.7c-4.4,1.5-8.9,1.8-13-0.9c-2.4-1.6-4.4-3.6-6.7-5.5c-0.8-0.6-1.6-1.2-2.5-1.9c-1.6,5.2,0.7,9.5,1.6,14
			c1.2,6.1,4.9,9.5,11.1,10.7c0.2-1.5,0.3-2.9,0.4-4.3c0.1-1.4,0.8-3,0.3-4.1c-0.7-1.3-2.2-2.3-3.5-3.1c-1.8-1.1-3.8-1.8-5.6-2.9
			C400,92.2,398.4,91.3,398.8,88.8z M24.7,33.9c4.4,0.8,8.5-0.7,11.7-4.8c1-1.4,2.3-2.5,3.6-3.6c2.9-2.6,5-5.8,6.7-9.3
			c1-2-0.8-3-1.7-4c-1.1-1.2-2.4,0-3.2,1c-2,2.3-2.6,5.1-2.4,8c0.1,1.3,0.9,2.5-0.6,3.3c-0.1,0.1-1-1.2-1.6-1.7
			c-0.2-0.2-0.6-0.4-0.8-0.3c-2.7,0.3-5.7-0.2-7.9,1c-3.8,2-7,5-10.4,7.6c-0.5,0.4-0.6,1.3-0.9,1.9c0.7,0.3,1.4,0.8,2.1,0.9
			C20.8,34,22.4,33.9,24.7,33.9z M307.4,36.1c4.9-4.2,5.3-10.5,8-15.6c1.1,1.4,1.5,2.4,1.2,4.1c-0.9,4.5,3.2,10.2,7.5,11.5
			c2.1,0.6,2.6-0.6,3.4-1.7c0.8-1.1,1.2-2.3-0.3-3.3c-0.5-0.4-0.9-1.1-1.4-1.3c-2.7-1-3.6-3.5-3.6-5.8c-0.1-2.8-1.6-3.8-3.7-4.9
			c-2.1-1.1-4.1-1.7-6.5-1.6c-1.2,0.1-2.8-0.5-3.5,0.1c-1,0.9-1.4,2.5-1.9,3.9c-0.3,0.9-0.1,1.9,0,2.9
			C306.9,28.1,307.2,31.8,307.4,36.1z M252.8,141.4c-0.8-1.5-1.8-2.6-2-3.7c-0.7-5.5-3.6-9.6-8.4-11.9c-2.1-1-5-0.5-7.5-0.5
			c-0.4,0-1,1.2-1,1.8c0,2,0.3,3.9,0.4,5.9c3-1.5,3.6,1.6,4.9,2.9c2.9,2.8,5.7,5.1,10,4.7C250.3,140.6,251.4,141.1,252.8,141.4z
			 M104.9,4.7c-0.6,1.1-1.3,2.5-2,4c-0.4,0.9-1.1,1.7-1.2,2.6c-0.6,3.3-2.3,6.8,1.2,9.7c0.3,0.2,0.4,1,0.3,1.1
			c-2.5,1.8-0.5,3.6,0.3,5c1.2,2,3,3.7,4.8,5.8c3.3-5.8,3.1-11.3,1.2-16.8C108,12.2,106.4,8.5,104.9,4.7z M478,103.8
			c-4.2,0.9-6.7-1.2-9-3.9c-1.3-1.6-2.6-3.2-4-4.8c-1.3-1.5-4.1-2.3-5.3-1.7c-1,0.5-1.5,3.8-0.3,5.4c1.5,1.8,1.4,3-0.3,4.4
			c-1.6,1.3-1,2.4,0.3,3.6c1.9,1.8,4.4,2.1,6.8,2.1C470.5,108.8,475.1,109.1,478,103.8z M231.8,133c-0.3-3.3-2.1-7.3-4.7-10.7
			c-1.2-1.5-3.9-2.4-5.9-2.6c-1.8-0.2-4.8-0.1-5.4,1.9c-0.4,1.3,1.3,3.4,2.4,4.9c3.1,4.2,7.7,6.7,11.8,9.8c1,0.8,1.7,0.3,1.9-1.1
			C231.8,134.8,231.8,134.4,231.8,133z M176.7,51c-0.5-0.8-0.6-1-0.7-1.1c-0.4-0.3-0.8-0.6-1.2-0.8c-5.7-2.8-11.9-5-15.2-11.2
			c-0.1-0.1-0.2-0.2-0.4-0.3c-1-0.8-1.8-0.5-2,0.8c-0.7,3.5-0.7,6.9-0.1,10.4c0.3,1.7,0.9,2.6,2.3,3.3c1.8,0.9,3.4,1.6,5.4,0.4
			c2.6-1.5,5.5-2.5,8.7-1.2C174.2,51.6,175.3,51.1,176.7,51z M360.6,36.8C360.6,36.8,360.6,36.8,360.6,36.8c2.1,0,4.2-0.1,6.3,0
			c1.8,0.1,3-0.6,3.8-2.3c0.8-1.8,0.7-2.4-1.3-2.4c-5.4,0.1-10.3-1.4-15.3-3.3c-2.2-0.8-5-0.3-7.5-0.3c-0.2,0-0.6,1.1-0.4,1.4
			c3.3,3.9,6.3,8.3,12.5,6.9C359.3,36.7,360,36.8,360.6,36.8z M313.9,15.5c0.3,0,0.9,0,1.5-0.2c5.8-1.8,9.6-6.2,13.6-10.4
			c0.2-0.2-0.1-1.4-0.4-1.5c-2.4-0.9-4.8-2.2-7.2-2.1c-1.3,0-2.6,2.4-3.9,3.7c-1.2,1.3-2.5,2.5-3.7,3.8c-0.9,0.9-1.7,1.9-2.4,3
			C310,14.1,310.8,15.4,313.9,15.5z M268.6,58.5c2.8-6.4,2.7-10.6-0.9-15c-1.5-1.9-2.1-4.9-5.1-5.4c-1,2.1-2.1,4.3-3.1,6.4
			c-0.1,0.3-0.3,0.6-0.4,0.9c-0.3,1.8-0.3,3.5,1.2,4.9C263.1,52.9,265.6,55.5,268.6,58.5z M345.2,60.9c3.3-4.9,3.9-10.5,4.9-15.9
			c0.3-1.6,0.1-3.2,0-4.8c-0.2-1.5-3-3.7-4.3-3.1c-1,0.5-1.8,1.8-2.1,2.9c-0.8,2.8-1.4,5.6-1.9,8.4c-0.4,2.1-0.3,4.1,0.8,6.1
			C343.5,56.4,344.2,58.5,345.2,60.9z M359.7,66.4c0.4,0.1,0.8,0.2,1.2,0.2c1.1-1.5,2.2-3.1,3.4-4.5c2-2.4,1.8-5.2,0.8-7.7
			c-1.3-3.4-3-6.8-6.1-9.1c-0.6-0.4-1.3-0.7-1.9-1.1c-0.3,0.7-1,1.4-1,2c0.2,2.5,0.4,5.1,0.9,7.6C357.8,58,358.8,62.2,359.7,66.4z
			 M213.5,15.9c-0.1-0.4-0.2,0.4,0.1,0.8c1.6,2.1,3.2,4.4,5.2,6.2c1.6,1.4,3.7,1.8,5.8,0.5c1-0.6,1.2-1.1,0.7-2.3
			c-1.2-2.9-2.4-5.9-3.1-8.9c-1-4.1-1-4.4-5.3-4.4c-2.9,0-2.8,0-2.7,2.9C214.3,12.1,213.9,13.5,213.5,15.9z M413.5,89.4
			c3.3-0.4,6.7-0.9,10-1.3c0.4-0.1,0.9-0.5,1-0.8c0.1-0.4-0.2-1.1-0.6-1.2c-2.1-0.9-4.3-1.3-6.2-2.4c-5.1-3.1-11.1-1.3-16.4-3
			c-0.3-0.1-1,0.2-1.2,0.5c-0.2,0.3,0,1,0.3,1.3C403.9,86.2,407.6,89.9,413.5,89.4z M181.4,84.7c0,2.9,0.1,5.6,0,8.3
			c-0.3,5.2,2.2,9.2,5.5,12.9c0.3,0.4,0.7,0.9,1.1,1c0.9,0.1,1.8,0.2,2.6,0c1.5-0.4,0.7-1.4,0.5-2.3c-0.4-1.9-0.7-3.8-1.2-5.6
			C188.5,93.5,187.5,87.9,181.4,84.7z M117.3,79.4c2.8-1.5,2.7-1.5,5-4.9c5-7.6,4.8-7.6,0.3-14.5c-1-1.5-1.6-3.1-2.5-4.7
			c-0.1-0.2-0.6-0.6-0.7-0.5c-0.4,0.2-0.8,0.6-0.9,0.9c-0.1,1.9,0,3.9-0.2,5.8C118,67.3,117.7,73.2,117.3,79.4z M73.6,30
			c0.1-5-1.7-9.5-4.7-12.8c-0.7-0.7-2.2-1.7-2.7-1.4c-0.9,0.5-1.5,1.8-2.1,2.9c-0.2,0.5-0.1,1.3,0.1,1.9c1.1,4.2,2.1,8.3,3.3,12.5
			c0.3,1.1,0.7,2.1,1.3,3c0.2,0.3,1.4,0.3,1.5,0.1C71.7,33.9,72.9,31.5,73.6,30z M414.8,79.6c0,0.2,0,0.3-0.1,0.5
			c1.9,0.8,3.8,1.9,5.8,2.2c3.7,0.6,6,2.7,7.8,5.8c0.4,0.6,1,1.5,0.8,2c-0.4,1.1-1.4,1.1-2.4,0.6c-0.4-0.2-0.9,0-1.3,0
			c0.1,0.6,0,1.2,0.4,1.6c2.1,2.7,10.7,5.4,14,4.4c0.4-0.1,1-0.6,1-0.9c0-0.5-0.3-1.2-0.7-1.6c-5-4.5-10.1-8.9-15.2-13.2
			c-0.8-0.7-1.9-1.3-2.9-1.4C419.6,79.4,417.2,79.6,414.8,79.6z M129.5,74.4c0.2,3.3,0.4,6.5,0.6,9.7c0.2,4,2.5,6.2,7.6,5.6
			c1.2-0.1,2.3-0.6,3.5-0.9C139.1,82.2,137.8,75.4,129.5,74.4z M329.1,45c1.7-2.3,2.5-3.7,4.7-4.1c2.5-0.4,5.3-2.9,4.7-6.9
			c-0.3-2-0.6-4.1-1.2-6.1c-0.4-1.5-1.3-2.8-2-4.2c-1.9,0.8-2,2.6-2.7,4.2c-0.2,0.6-0.6,1.1-0.9,1.7C329.6,34.2,328.4,38.9,329.1,45
			z M113.4,78.1c0-0.3,0-0.7,0-1c-0.5-5.1-3.9-8.9-6.3-13.1c-0.1-0.2-0.7-0.1-1.1-0.2c-0.2,2.4-2.6,4.1-1.3,7.1c1.6,3.7,2,8,3,12
			c0.2,1,0.5,2,0.8,3c0.9-0.6,1.9-1.1,2.7-1.8C112.9,82.5,113.7,80.5,113.4,78.1z M101.8,28.8c-1.2-3.1-0.9-6.3-5.2-6.9
			c-2.6-0.4-2.8-2.4-1-4.6c0.9-1.1,2-2.1,2.8-3.3c0.3-0.5,0.3-1.6,0-2.1c-0.3-0.5-1.4-1-1.9-0.8c-5.2,1.3-8,5.7-7.1,10.7
			c0.5,2.8,2.1,4.6,4.9,5.2C96.6,27.5,98.9,28.1,101.8,28.8z M282.4,18.3c1.4,2.7,2.3,4.9,3.5,6.9c0.4,0.6,2,1.3,2.2,1.2
			c1.9-2,3.1-0.6,4.4,0.7c1.5,1.5,3.3,1.7,5.3,0.9c1-0.4,2.1-0.7,3.2-1.1c1.5-0.6,1.4-1.3,0.4-2.5C296.4,18.5,289.4,19.3,282.4,18.3
			z M419.5,61.4c-0.1,0.3-0.2,0.6-0.4,0.9c1.4,1,2.9,1.8,4.2,2.9c2.9,2.6,6.4,2,9.6,1.3c4.4-0.9,5.9-4.4,4.3-8.6
			c-0.9-2.4-2-2.8-3.7-0.9c-2.7,3-6.1,3.8-9.8,4.2C422.4,61.3,421,61.3,419.5,61.4z M145.9,92.5c0.1,0,0.3,0,0.4-0.1
			c0-0.3,0.1-0.7-0.1-1c-0.4-0.7-0.9-1.2-1.3-1.9c-0.5,0.5-1,1-1.5,1.4c-0.4,0.3-1.1,1-1.4,0.8c-2.1-1-2.9,0.5-3,1.8
			c-0.1,3.2-0.2,6.6,0.6,9.7c0.6,2.2,2.2,4.2,2.2,6.7c0,0.3,0.6,0.7,0.9,1c0.3-0.3,0.7-0.6,0.9-1c1.4-3.7,2.8-7.5,2.7-11.6
			C146.3,96.4,146.1,94.4,145.9,92.5z M222.5,93.1c-1.7,0-3.5,0.1-5.2,0c-1.7-0.1-3.5-0.4-5.2-0.9c-3.4-1-6.3,1.2-9.5,1.6
			c-0.4,0-0.8,0.6-1,1c-0.2,0.3-0.4,1.1-0.3,1.2c1.6,1.5,2.6,3.7,5.2,3.9C213.1,100.5,218,97.6,222.5,93.1z M361.2,44.1
			c0.6,0.4,0.9,0.6,1.1,0.8c3.6,3.2,7.4,5.5,12.6,3.8c0.8-0.3,1.9,0.2,2.8,0.5c2.4,0.8,4.4-0.5,6.4-1.3c0.3-0.1,0.8-1,0.7-1.1
			c-0.3-0.4-0.9-1-1.3-1c-2.3,0.1-4.5-0.5-6.4-1.7C371.9,40.8,366.7,41.1,361.2,44.1z M38.5,48.1c1.7-0.8,3.2-1.2,4.1-2.1
			c1.5-1.4,2.7-3.2,3.9-4.9c0.4-0.5,0.7-1.2,0.6-1.7c-0.2-2.2-0.4-4.5-0.7-6.7c-0.1-0.5-0.5-1.3-1-1.4c-2.3-0.7-6.5,1.7-6.5,4
			c-0.1,3.6-0.7,7-1.6,10.4C37.2,46.3,38,47.1,38.5,48.1z M507.1,115.1c-3-2.4-4.6-4.3-4.7-7.3c-0.1-2.1-0.5-2.2-2.8-1.6
			c-2.1,0.5-4.5,1.6-6.4,1.2c-2.9-0.6-2.5,1.6-3.4,2.8c-1,1.4-0.3,2.4,0.8,3.2c0.9,0.6,1.9,1.5,2.9,1.6
			C497.6,115.6,501.8,115.5,507.1,115.1z M514.3,106.2c1.3,0.7,2.5,1.4,3.7,2c1.7,0.8,3.4,1.6,5.2,2.2c0.4,0.1,1.2-0.8,1.7-1.3
			c0.8-1-0.1-1.5-0.9-1.7c-3.2-0.8-5.2-2.8-6.8-5.6c-1-1.7-2.7-2.5-4.5-1.6c-2.6,1.3-5.2,2.8-7.7,4.3c-1.4,0.9-0.9,4.9,0.6,5.6
			c0.4,0.2,1,0.2,1.3,0c1-0.5,1.9-1.2,2.9-1.7C511.2,107.7,512.7,107,514.3,106.2z M138.9,49.2c-1.3,7.8-7.4,12.5-9.4,19.3
			C140.1,69.4,144.9,57.3,138.9,49.2z M279.9,64.6c7.3,1.7,10.5-0.5,13.5-10.7c-4.3,1.4-8.7,3.6-13.2,0.6c-1.5-1-2.5-0.7-3.3,0.3
			c-1.1,1.4,0.1,2.4,1,3.3c0.3,0.3,0.8,0.6,1.2,0.8c1.5,0.5,4,0.5,4.3,1.3c0.7,2.2-2.5,1.8-3.2,3.5C280.1,64,280,64.3,279.9,64.6z
			 M509.4,98.6c-5.5-1.4-10.4-2.4-15.2-0.5c-2,0.7-5.2,0.9-4.9,3.6c0.3,2.1,3.3,2.6,5.5,3.1c0.6,0.1,1.3,0.1,1.9,0
			C501.2,103.8,505.6,102.5,509.4,98.6z M122.5,79.8c-2.4,0.7-4.4,1.3-6.3,2c-0.4,0.2-0.8,1.1-0.7,1.6c0.3,1,0.6,2.3,1.4,2.9
			c2.2,1.8,4.5,3.5,7,5c1.3,0.8,3.4,1.8,4.3,1.3c1.6-0.9,0-2.8-0.1-4.3c-0.2-3.4-2.3-5.5-4.5-7.6C123.3,80.2,122.7,79.9,122.5,79.8z
			 M102.8,51c-1.7,3.1-3.7,5.4-4.4,8c-0.9,3.6-0.9,7.4-1.2,11.1c0,0.4,0.2,1.1,0.5,1.2c0.3,0.2,1,0,1.3-0.3
			c3.5-2.5,4.9-6.2,5.7-10.2c0.3-1.6-0.3-3.4-0.6-5c1.3,1.2,2.5,2.4,3.8,3.6c0.1,0,0.2-0.1,0.9-0.2C106.9,56.7,105.1,54.2,102.8,51z
			 M88.5,65.5c-0.3,0.9-1.2,2.2-0.8,2.8c2.2,4.1,1.6,8.7,2.7,13c0.4,1.7,0.4,3.6,0.6,5.3c3.7-1.8,6.6-6.9,4.7-9.9
			c-1.3-2.1-1.2-3.6-0.7-5.6c0.4-1.3-0.2-2.4-1.6-3.1C91.8,67.4,90.3,66.5,88.5,65.5z M40.4,29.1c3.4,0.5,6.6,0.5,9.1-2.4
			c0.8-1,1.8-1.8,2.5-2.8c0.6-0.7,1.1-1.5,1.3-2.4c0.4-1.5,0.5-3.1,0.8-4.7c0.3-1.5-0.1-2.6-1.6-3c-1.2-0.3-2.2-0.3-3.1,1.3
			C46.7,19.7,43.6,24.2,40.4,29.1z M131.2,9c-0.4,0.8-0.8,1.4-1.1,2c-0.9,1.9-1.4,4.1-2.8,5.6c-1.9,2.2-1.3,4.3-1.1,6.7
			c0.3,2.9,2.9,4.4,3.9,6.8c0.2,0.5,0.8,0.9,1.2,1.4c0.2-0.6,0.5-1.1,0.6-1.7c0.6-3.3,1.7-6.6,1.5-9.8C133.3,16.4,132,12.9,131.2,9z
			 M208.7,7c-0.3,0.2-0.8,0.3-1,0.6c-1.2,2.5-2.7,4.7-5.2,6.2c-0.3,0.2-0.4,1.3-0.1,1.6c2.1,2.9,4.2,5.7,6.4,8.4
			c0.4,0.5,1.3,0.7,2,1c0.1-0.7,0.5-1.6,0.2-2.2c-0.9-2.4-0.8-4.7,0.2-7c0.5-1.2,0.7-2.5,0.9-3.7C212.5,10.4,210.4,7.4,208.7,7z
			 M169.5,83.4c-0.3-2.3-0.6-4-0.7-5.7c-0.2-2.3-1-3.5-2.8-3.8c-1.6-0.3-2.9,0.6-3.6,3.1c-1.1,4-2.1,8-3,12c-0.1,0.2,0.9,1,1.1,0.9
			c2.6-1.4,5.3-2.9,7.8-4.6C169,84.8,169.3,83.8,169.5,83.4z M447.1,79.4c-6,0.7-10.2-1.5-13.9-4.6c-1.5-1.3-2.8-1.2-4.2,0.1
			c-0.7,0.7-1.6,1.1-2.2,1.8c-0.3,0.4-0.6,1.1-0.5,1.6c0.6,2.3,2.1,3.3,4.7,3.6c2.4,0.2,4.8,0.4,7.1,0.9
			C441.5,83.6,444.3,82.7,447.1,79.4z M106.1,43.9c-0.2,0.8-0.2,1.5-0.6,1.9c-1.8,2.5-1.2,4.7,0.8,6.8c0.5,0.6,0.8,1.4,1.3,2
			c2.6,2.7,4.5,5.7,4.3,9.9c1.5-2.3,3.7-4.1,4.3-6.9c0.8-3.9,0.8-4-3.2-4.3c-2.5-0.2-2.5-0.2-2.2-2.9c0.1-0.7,0.1-1.7-0.3-2.1
			C109.4,46.9,107.8,45.5,106.1,43.9z M82,72.2c6.7-6.4,5.8-16.4-1.9-20.5c-1.7,3.2-0.7,6.6-0.4,9.9C80,65,81.2,68.4,82,72.2z
			 M356.1,2.3c-0.4,0.7-0.7,1.5-1.2,2c-1.4,1.5-2.9,3-4.5,4.3c-0.3,0.2-1.1-0.1-1.7-0.4c-0.1,0,0-0.9,0.2-1.2
			c0.6-0.9,1.3-1.6,1.9-2.4c-1.1-0.3-2.1-0.4-3.1-0.8c-1.6-0.5-3.1-1.1-4.6-1.6c1.7,3.6,3.7,6.7,6,9.5c0.9,1.1,2.2,1.8,3.5,2.5
			c1.9,1,6-0.9,5.7-2.6C357.6,8.5,358.6,5.2,356.1,2.3z M246.8,142.6c0.9,4.4,4.1,6.6,6.6,9.2c1.6,1.6,4,2.1,6.3,1.1
			c2.3-1,4.5-2.3,7.5-3.8c-4-1.3-7.1-2.7-10.3-3.3C253.6,145.1,250.7,143.2,246.8,142.6z M98.7,53.7c0.9-1.3,1.4-2.2,2.1-3
			c4.5-5.6,4.5-12.1,3.5-18.7c-0.1-0.5-0.5-1-0.9-1.4c-0.1-0.1-0.9,0.3-1.1,0.7c-0.5,0.8-0.9,1.6-1.3,2.5c-0.5,1.3-0.8,2.8-1.5,4
			c-1.2,2.1-1.5,4.2-1.4,6.5C98.3,47.2,98.5,50.1,98.7,53.7z M421.9,45.1c-2.9,2-5.2,4.4-7.9,5.1c-4.6,1.3-5.5,5-7.1,8.4
			c-0.3,0.6,0.7,1.9,1.3,2.7c0.8,1,1.7,0.5,2.5-0.2c2.2-2.1,4.3-4.4,6.6-6.4C420.1,52.2,421.3,49.1,421.9,45.1z M311,46.7
			c0.7-0.3,1.5-0.3,1.8-0.8c0.2-0.3-0.1-1.2-0.4-1.6c-1.8-2.1-4-3.5-7-3.6c-2.2-0.1-4.4-0.8-6.5-1.4c-0.9-0.2-1.7-0.9-2.6-1.2
			c-1.6-0.5-2.5,0.4-2.2,2c0.1,0.6,0.3,1.3,0.7,1.8c2.5,3.3,5.6,5.3,10,4.5C306.8,46,309,45,311,46.7z M390.8,23.9
			c-2.1,0.9-3.7,1.7-5.3,2.4c-1.9,0.7-3.9,1.3-5.9,2c-1.4,0.5-1.3,1.5-0.4,2c2.3,1.4,4.7,2.6,7.1,3.8c0.7,0.3,1.5,0.5,2.3,0.5
			c1.9-0.2,3.7-0.6,5.4-0.9C392.9,30.4,391.8,27.1,390.8,23.9z M264.3,153.3c2.3,1.9,4.4,3.7,6.4,5.4c2.6,2.3,5.5,3.9,9.2,3.2
			c1.5-0.3,2.5-1,2.3-2.6c-0.3-2.7-3.9-6-6.6-6C271.8,153.2,268.1,153.3,264.3,153.3z M183,29.3c-0.1-0.4-0.1-0.8-0.2-1.2
			c-3.4,1.9-6.3,1.3-8.5-1.6c-4.3,3.1-8.5,6.1-12.6,9c2.4,0.4,4.8,0.9,7.1,1.2c0.9,0.1,2,0.1,2.8-0.3C175.5,34,179.2,31.6,183,29.3z
			 M302.8,160.3c-2.2-2-4.7-1.4-6.8,0.3c-2.6,2.1-5.4,2.6-8.6,2.4c-1.4-0.1-2.9-0.1-4.3,0.1c-0.7,0.1-1.9,0.7-2,1.1
			c-0.1,0.8,0.3,2.1,0.9,2.5c1.3,0.9,2.8,1.6,4.3,1.9c2.4,0.4,4.8-0.1,6.9-1.6C296.4,164.8,299.6,162.5,302.8,160.3z M145.9,80.7
			c2-1,3.4-1.6,4.8-2.3c5-2.5,7.2-8.1,5.2-13.2c-0.3-0.8-1.3-1.5-2.1-1.7c-0.6-0.1-1.6,0.8-1.9,1.5c-1.6,3.8-3,7.7-4.4,11.6
			C147,77.7,146.6,78.8,145.9,80.7z M205.3,121.5c0.9,2.4,1.5,4.9,2.8,7c0.8,1.4,2.5,2.4,4.1,3.1c2.2,1,3.5,0,3.1-2.4
			c-0.3-2.2-1.2-4.3-1.8-6.4c-0.8-3-2-4.1-4.7-4.4C206.3,118.1,205.6,118.8,205.3,121.5z M373.2,53.3c-0.4,0.2-1.2,0.4-1.2,0.6
			c-0.1,0.5,0.1,1.2,0.4,1.7c1.3,2.4,2.5,4.8,4,7c1.6,2.5,3.5,4.9,5.3,7.3c0.9,1.1,1.9,0.9,2.9,0c1-1,1.7-1.8,0.6-3.2
			c-2.5-3.5-4.7-7-7.1-10.6C377,54.2,375.2,53.6,373.2,53.3z M318.8,160.7c-3.4-0.7-5.4-1.1-7.4-1.5c-2.1-0.4-4.1,0.3-4.1,1.9
			c0,1.7-0.8,1.8-2,1.9c-3,0.2-5.6,1.1-7.6,3.5c-0.8,0.9-0.2,1.8,0.5,1.8c2.8,0.1,6.2,0.8,8.4-0.5
			C310.3,165.7,313.4,162.4,318.8,160.7z M400.4,78.3c-0.7-1.4-1-2.3-1.6-3.1c-1.7-2.2-1.2-6.7-6-6.1c-0.3,0-0.6-1-1-1.5
			c-0.7-0.8-1.4-1.6-2.2-2.3c-0.2-0.2-1.2,0.1-1.2,0.2c-0.2,2.1-1.3,4.9-0.4,6.3C390.7,76,394.3,79.2,400.4,78.3z M291.2,32
			c2.2,4.5,7,4.2,10.5,6.1c0.3,0.2,1.2-0.2,1.6-0.5c2.1-1.9,2.8-4.9,1.8-7.4c-0.5-1.3-1-2.1-2.8-1.4C298.7,30,295,30.9,291.2,32z
			 M390.2,48.3c1,0.9,1.9,2.2,3.1,2.7c2.1,1,4.5,2.2,6.7,2c2.5-0.2,5.6-0.1,7.3-2.8c1-1.6,1.7-3.3,2.6-5c-2.1-1.5-4-0.4-5.8,0.5
			C399.8,47.9,395.4,49.5,390.2,48.3z M469,77.9c1.1,0.9,2,1.9,3.2,2.7c0.6,0.4,1.5,0.7,2.2,0.6c2-0.5,4-1.1,5.9-1.8
			c1.5-0.6,2.8-1.3,2.9-3.4c0-1.3,0.9-2.6,1.4-4C476.6,73.3,472.1,75,469,77.9z M99.2,30c-1.7-0.3-3.6-0.5-5.3-1.1
			c-1.8-0.6-2.3,0.3-2.8,1.6c-1.3,3.1-2.8,6.1-4.1,9.2c-0.2,0.5-0.1,1.2,0.1,1.7c0.1,0.2,0.9,0.3,1.3,0.2c3.4-0.8,6.1-2.7,7.8-5.9
			C97,33.8,98.1,32.1,99.2,30z M178.5,46c-0.2-0.8-0.9-2.3-0.7-3.6c0.2-1.4-0.4-1.8-1.3-2c-4-0.9-7.9-1.6-11.9-2.3
			c-0.4-0.1-1.1,0.2-1.2,0.5c-0.2,0.3,0,1,0.3,1.3c1.7,1.5,3.2,3.1,5.1,4.2c2.4,1.5,5.1,2.5,7.7,3.8C177.9,48.5,178.4,48.1,178.5,46
			z M276.7,13.3c4.8,1.8,4.9,1.8,8-1.9c1.1-1.3,2.1-2.8,3-4.3c0.2-0.3,0.1-0.9,0.1-1.4c-0.5,0.1-1.1,0.1-1.5,0.3
			c-1.9,0.8-3.7,1.8-5.8,0.7c-0.4-0.2-1.2-0.2-1.6,0.1c-3.4,2.5-4.6,7.5-2.5,11.2c0.3,0.5,1.2,0.6,1.8,0.9c0.3-0.7,0.9-1.5,0.7-2
			C278.4,15.6,277.5,14.5,276.7,13.3z M175,63.3c-1.6,0.3-2.8,0.7-4,0.6c-1.4-0.1-2.8-0.7-4.2-0.8c-3.6-0.4-4.5,0.8-3.1,4
			c0.1,0.3,0.3,0.6,0.4,0.9c1.1,2.2,3.6,3.8,5.7,3.6c2.5-0.3,4.5-2.4,4.9-5.1C174.7,65.6,174.8,64.6,175,63.3z M361.5,19
			c3.2-1.1,7-0.5,7.2-5c0-0.3,0.2-0.8,0.4-0.8c3.4-1.2,0.9-2-0.1-3.1c-0.5-0.5-0.6-1.5-1.1-2c-0.4-0.4-1.1-0.5-1.7-0.7
			c-0.2,0.6-0.4,1.3-0.7,1.9c-0.3,0.6-0.8,1.2-1.3,1.6c-1.4,1-3.1,1.7-4.4,2.8c-0.7,0.6-1.5,2.1-1.2,2.6
			C359.1,17.5,360.1,18.9,361.5,19z M257.3,50.5c-1.7,5-3.1,9.5-4.8,14c-1.3,3.2-1.3,6.1,1.6,8.8c0.3-3,0.9-5.8,0.8-8.6
			c-0.1-3-0.3-3.2,2.5-3.6c3.7-0.5,3.9-0.7,3.6-4.3C260.7,54.3,259.7,52.4,257.3,50.5z M114.3,40.8c5.4-1.3,7.9-4.8,11-7.5
			c2.2-2,2.2-3.9,0.3-6.8c-0.9-1.4-2.1-1.4-3,0.1C120,31,117.3,35.5,114.3,40.8z M442.2,86.7c-1.1,2.6-1.3,4.3,0.1,5.8
			c1.4,1.6,1.4,3.2,0.1,4.8c-0.6,0.8-1.3,1.6-0.4,2.5c1,1,2.5,2.7,3.2,2.5c2.7-0.9,5-0.4,7.5,0.3c0.5,0.1,1.2-0.3,1.8-0.5
			c-0.3-0.5-0.6-1.2-1-1.4c-4.9-1.5-7-5.4-8.8-9.6C444.1,89.9,443.3,88.7,442.2,86.7z M96.9,50.8c0-3.6-2.5-6.8-6-7.6
			c-2.1-0.5-4,1.2-3.5,3.2c0.8,3,2.2,5.6,5.2,7.1C95.8,55.1,96.9,54.4,96.9,50.8z M168.1,54c-5.1,1.4-5.1,1.5-10.9-0.6
			c-2.8-1-5-0.5-6.9,1.5c-0.6,0.7-1,1.5-1.6,2.3c0.8,0.3,1.6,0.7,2.5,0.9c1.3,0.2,2.8-0.3,3.8,0.2c4,1.9,7.2-0.7,10.6-1.7
			C166.5,56.4,167.1,55.2,168.1,54z M259.2,155.5c-4.9-0.3-8.6-1.4-10.4-5.8c-0.3-0.8-1.3-1.4-1.9-2.2c-1.1-1.2-2.2-0.5-2.8,0.4
			c-0.5,0.6-0.6,1.9-0.3,2.7c3,7.1,5,9.1,12.2,6.4C256.9,156.7,257.7,156.2,259.2,155.5z M469.2,90c1.7,2.6,2.5,4.8,4.1,6.2
			c3.2,2.8,7.7,3,11.6,4.3c0.6,0.2,1.7-1.2,2.5-1.8c-0.5-0.6-0.8-1.4-1.4-1.6C480.8,94.8,475.5,92.7,469.2,90z M80.7,2.8
			c-2.4,2.5-2.8,5.2-3.4,7.8c-0.1,0.3-0.2,0.8,0,0.9c1.9,1.7,3.6,3.5,5.7,4.8c0.9,0.6,2.5,0.1,3.8-0.2c0.8-0.2,1.5-1,0.7-1.8
			C84.1,11.3,82.6,7.2,80.7,2.8z M298.8,13.7c0.1,3.6,1.9,5.6,5.2,5.6c1.3,0,3.5-3.7,3.5-5.8c0-1.5-3.4-4.6-5-4.5
			C300.3,9,298.8,11.1,298.8,13.7z M462,87.8c4,0.4,7.6,0.9,11.3,1.1c0.9,0.1,1.9-0.5,2.6-1.1c2-1.9,3.9-3.9,6.6-6.7
			c-3.6,0.9-6,2.1-8.4,2.1C469.4,83.3,466,85.8,462,87.8z M480.5,112c0.5-1.9,0.7-3.4-0.7-3.7c-1.1-0.2-2.7,0.5-3.7,1.3
			c-1.3,1,0,1.9,0.5,2.8c1.8,3.4,3.5,6.8,5.2,10.1c0.4,0.8,0.9,1.5,1.3,2.3c0.7-0.8,1.7-1.4,2.1-2.3c0.5-0.9,0.7-2.1,0.7-3.2
			c0-1.5-0.2-3-2.5-2.2c-1.3,0.5-2.1-0.1-2.3-1.5C480.9,114.2,480.3,112.8,480.5,112z M291.7,171c-1.3-0.1-2.6,0-3.8-0.3
			c-3.5-0.7-6.1,0.9-8.4,3.2c-1.3,1.3-1.1,2.1,0.6,2.8C285.1,179.1,289.7,176.9,291.7,171z M92.7,56.3c-4.5,0-4.8,0.5-3.9,4
			c0.7,2.5,2,4.4,4.2,5.6c1.6,0.9,2.5,0.6,2.8-1.1c0.3-1.7,0.7-3.5,0.8-5.2c0-0.7-0.4-1.7-1-2C94.5,56.9,93.1,56.5,92.7,56.3z
			 M182.3,54.9c-0.3-0.1-0.6-0.1-0.8-0.2c-0.8,1.5-1.8,2.9-2.4,4.5c-1.2,2.8-2,5.8-1.3,8.9c0.6,2.7,1.7,2.9,3.8,1.1
			c1.9-1.7,3.4-3.3,1.4-6c-0.7-0.9-0.6-2.4-0.6-3.7C182.2,57.9,182.3,56.4,182.3,54.9z M429,103.5c-1.8,0.2-3.1,0.4-4.3,0.4
			c-5.4,0.2-5.4,0.2-6-5.2c-1.2,0.1-2.5,0.2-3.7,0.4c-0.6,0.1-1.3,0.4-1.5,0.9c-1.1,2.1,1.3,6.5,3.7,6.7
			C421.2,106.9,425.2,107.2,429,103.5z M475.8,90c4.9,3.2,9.6,4.1,15.5,4.7c-2.1-2.4-3.9-3.9-4.8-5.8c-1.1-2.6-2.9-2.1-4.6-1.5
			C479.9,88,478.2,89,475.8,90z M314.4,29c-1.4,4.2-3.6,7.9,0.6,11.2c0.5,0.4,0.6,1.1,1,1.6c0.7,0.8,1.7,2.4,2.1,2.3
			c1.9-0.6,0.2-2.1,0.4-3.2c0.1-0.6,0.4-1.2,0.4-1.9c0.1-1.9,0.1-3.8-1.4-5.4C316.5,32.5,315.7,30.9,314.4,29z M545.5,93.3
			c-3.1,5.1-6,9.6-11.2,12.5c3.9,1.1,8.3-0.1,10-3C546.1,100.1,548.2,97.1,545.5,93.3z M258.1,63.4c-0.2,0.2-0.7,0.3-0.7,0.5
			c-0.3,3.1-1,6.4,0.9,9.3c0.3,0.5,1.1,1.1,1.4,1c1.7-0.7,4-1.2,4.8-2.5c0.6-1-0.4-3.4-1.4-4.7c-1.1-1.4-3-2.3-4.5-3.4
			C258.4,63.4,258.2,63.4,258.1,63.4z M250.5,130.4c1,2,1.7,3.6,2.6,5.1c0.3,0.4,1,0.9,1.4,0.8c4-0.9,6.6-6.5,4.8-10.1
			c-0.2-0.3-1.4-0.4-1.5-0.4C256.6,129,253.5,129.4,250.5,130.4z M125.8,105.3c0.2,0.1,0.3,0.2,0.4,0.2c4.7-1.3,5.7-5.6,7.4-9.2
			c0.5-1.1-0.2-2.8-0.5-4.1c-0.1-0.3-1.7-0.5-1.8-0.3c-1.5,2.9-2.2,6.2-5.1,8.3c-0.2,0.2-0.1,0.9-0.1,1.4
			C126,102.9,125.9,104.1,125.8,105.3z M321,54.9c-0.1-0.3-0.1-2.1-1-2.8c-1.8-1.5-4-2.4-6.2-3.3c-0.2-0.1-1.3,0.8-1.4,1.4
			c-0.1,0.7,0.1,1.6,0.6,2.2c1.9,2.4,3.8,4.6,5.8,6.9c0.3,0.3,1,0.7,1.2,0.6c0.4-0.3,0.8-0.9,1-1.4C321.1,57.7,321,56.8,321,54.9z
			 M530.4,96.9c-2.8,2.4-5.5,4.8-8.4,7.3c0.6,0.2,1.1,0.5,1.5,0.6c1.9,0.2,4.5-0.7,4.3,2.8c0,0.1,0.9,0.5,1,0.4
			c0.9-0.8,2.4-1.6,2.5-2.5C531.6,102.5,532.2,99.4,530.4,96.9z M171.4,106c2.7-5.9,4.6-8.6-2.3-14.8c-0.4-0.4-1.1-0.4-1.7-0.6
			c-0.2,0.6-0.5,1.2-0.5,1.8c0,0.6,0.3,1.2,0.5,1.8C168.7,98.1,170,102,171.4,106z M158.1,32.5c3.4,1.1,5.7-0.5,7.5-2
			c2.4-2,5.6-3.3,6.7-6.7c0.2-0.5-0.2-1.5-0.5-1.6c-0.7-0.2-1.7-0.1-2.1,0.3C165.8,25.7,162.1,28.9,158.1,32.5z M388.6,86.9
			c-0.6-4.6-1.1-8.2-1.7-11.7c-0.2-1.5-0.8-2.4-2.6-1.5c-1,0.6-2,1-3-0.1c-0.3-0.3-1.1-0.2-1.6-0.2c0.1,0.6,0,1.3,0.3,1.7
			C382.7,78.8,385.4,82.4,388.6,86.9z M126,40c-3.4,2.8-6.2,5.2-9,7.5c-0.5,0.4-1,0.9-1.2,1.5c-0.2,0.5-0.3,1.4,0,1.7
			c0.3,0.4,1.3,0.7,1.7,0.4c2.7-1.6,5.4-3.3,8-5.1c0.4-0.3,0.4-1.2,0.5-1.8C126.1,43,126,41.8,126,40z M331.3,53.9
			c0.3-4.9-5.5-4.7-6.3-8.5c-0.1-0.4-1-0.7-1.6-1c-0.3-0.2-0.6-0.5-0.8-0.4c-0.5,0.2-1.3,0.5-1.3,0.9c-0.6,3.8,1.4,6.5,5.3,7.6
			C328.1,52.8,329.6,53.4,331.3,53.9z M537,87.9c-1,2.7-2.1,5.3-2.9,8c-0.4,1.3-0.5,2.8-0.4,4.2c0.1,0.8,0.9,2,1.5,2
			c0.8,0,1.7-0.7,2.4-1.4c0.4-0.4,0.4-1.2,0.6-1.8C540,95.1,538.1,91.6,537,87.9z M268.3,39.3c0.4-1.3,1.2-2.6,1.2-3.9
			c0-2.3-0.4-4.7-0.8-7c-0.1-0.8-0.9-1.4-1.7-0.5c-3.8,4.3-3.6,7.3,0.6,11.2C267.7,39.2,267.9,39.2,268.3,39.3z M484.7,103.3
			c-2.9,2.4-0.1,6.2-2.5,8.7c-0.2,0.2-0.1,0.6,0,0.9c0.2,1.4,1.1,1.6,2,0.8c1.4-1.3,2.7-2.7,3.7-4.3c1.5-2.5,1.3-3.4-1.2-5.2
			C486.1,103.8,484.9,103.1,484.7,103.3z M187.4,5.9c0,1.9-0.2,3.4,0.1,4.9c0.4,2.1,2.4,3.5,4.5,3.6c1.1,0.1,1.8-0.4,2-1.5
			c0.6-3.6-0.6-5.4-4.4-6.4C189,6.4,188.4,6.2,187.4,5.9z M322.4,14.9c2.3-0.5,4-1,5.6-1.2c1.8-0.2,3.6,0,5.4,0
			c-0.3-1.1-0.4-2.2-0.8-3.2c-0.5-1.2-1.4-2.3-2.1-3.4c-1.2,0.7-2.5,1.3-3.4,2.2C325.6,10.7,324.3,12.5,322.4,14.9z M154.4,60.4
			c1.4,1.9,2.3,2.9,4.3,2.4c3.4-0.8,6.8-2.3,10.5-1.7c0.4,0.1,1.2-0.4,1.2-0.6c0.2-2.3,3.3-3.8,1.9-6.5
			C167.4,58.4,162.3,62.4,154.4,60.4z M201.2,85.4c-1,0.5-2,0.7-2.7,1.2c-3,1.9-3.3,5.2-0.7,7.7c0.3,0.3,0.8,0.6,1.3,0.5
			c1.4-0.1,3.5-3.1,3.2-4.5C201.9,88.7,201.6,87.2,201.2,85.4z M271.2,46c0.6,1.7,1,3.2,1.6,4.7c0.9,1.9,2.6,2.1,4.2,0.7
			c1.4-1.2,1.3-2.8,1.4-4.4c0-3.3,0.1-3.2-2.8-2C274.3,45.5,272.8,45.6,271.2,46z M321.3,17.5c4.3,2.9,8.4,4,13.3,1
			c-1.6-1.1-3-2.7-4.4-2.8C327.3,15.5,324.3,16.3,321.3,17.5z M402.2,26.3c0.7-0.4,1.9-1.1,3.1-1.7c-0.9-1.1-1.7-2.1-2.6-3.2
			c-0.2-0.2-0.6-0.3-0.9-0.4c-2.7-1.7-4,1.2-5.9,1.9c-0.4,0.1-0.5,1-0.7,1.6c1.3,0.5,2.7,1,4,1.3C399.9,26.1,400.7,26.1,402.2,26.3z
			 M112.1,23.9c0.3,0.1,0.6,0.2,0.8,0.2c0.9-1.6,1.8-3.1,2.6-4.8c0.6-1.3,1.1-2.6,1.6-3.9c-1.3-0.5-2.5-1-3.8-1.5
			c-0.8-0.3-1.6-0.7-2.5-1.1C111.3,16.9,111.7,20.4,112.1,23.9z M170.8,85.2c0.1,0,0.2,0,0.3,0c-0.1,0.5-0.4,1-0.3,1.4
			c0.3,1,0.8,2,1.2,3c0.7-0.8,1.7-1.4,1.9-2.3c0.6-2.1,0.9-4.3,1-6.5c0-0.9-1-2-1.7-2.7c-0.9-0.9-2.3-0.3-2.4,1
			C170.8,81.1,170.8,83.2,170.8,85.2z M282.1,22.3c-1.4,3.3-2.5,5.9-3.6,8.6c-0.3,0.8-0.4,1.7-0.6,2.6c0.9-0.2,1.8-0.2,2.7-0.5
			c0.7-0.3,1.3-0.8,1.8-1.4C285.5,28.6,283.7,25.8,282.1,22.3z M484.1,83.7c1.4,1.1,2.9,2.2,4.2,3.5c2.8,2.9,4,2.9,7-0.6
			c-1.9-0.9-3.8-1.8-5.5-2.8C487.6,82.6,485.6,82.5,484.1,83.7z M262.9,12.8c-1.1,1.5-3.2,3-3.1,4.4c0.1,1.5,2.1,3,3.5,4.2
			c0.7,0.5,2,0.2,3,0.3c-0.1-0.9,0-1.9-0.4-2.7C265.1,17.1,264.1,15.2,262.9,12.8z M271.3,63.9c2.3-0.4,4.4-0.7,6.4-1.1
			c0.4-0.1,0.8-0.5,1-0.9c0.1-0.2-0.4-0.7-0.7-1c-1.3-1.4-2.5-2.8-3.8-4.2c-0.4-0.4-0.9-0.8-1.5-0.9c-0.2,0-0.8,0.6-0.8,1
			C271.6,59.1,271.5,61.3,271.3,63.9z M325.4,156.6c3.5-2.8,4.2-4.1,2.9-7.1c-0.6-1.4-1.7-2.5-2.6-3.7c-0.6,1.6-1.6,3.2-1.6,4.8
			C324.1,152.6,324.9,154.6,325.4,156.6z M189.2,24.8c0.3,0,0.7-0.1,1-0.1c0.5-1.6,1.4-3.2,1.3-4.9c0-1.2-1.1-2.4-2-3.4
			c-0.4-0.4-1.7-0.7-2.1-0.4c-0.6,0.5-1.3,1.7-1.1,2.3C187.2,20.6,188.3,22.7,189.2,24.8z M281.6,45c-0.4,1.6-1,2.9-1.2,4.3
			c-0.4,2.9,0.8,4.1,3.9,4c1.1,0,1.8-0.4,1.4-1.8C285.1,49.1,284.7,46.5,281.6,45z M338.5,18.9c0.4,1.6,0.7,3.5,1.2,5.3
			c0.6,1.8,1.8,3.1,3.9,2.9c1.4-0.2,2.8-0.7,4.3-1.1C344.4,23.4,341.4,21.1,338.5,18.9z M323.1,154.6c-0.7-1.5-1.3-2.8-2-4
			c-0.7-1.3-1.4-1.2-2,0c-0.7,1.6-1.4,3.2-2,4.9c-0.2,0.7-0.3,1.4-0.4,2.1c0.8,0,1.6,0.2,2.3,0c1.1-0.3,2.1-0.9,3-1.5
			C322.5,155.8,322.7,155.1,323.1,154.6z M154,102.1c-1.3-0.2-2.1-0.3-2.9-0.4c-2.2-0.4-3.7,0.6-3.5,2.7c0.1,1.1,0.6,2.2,1,3.2
			c0.5,1.2,1.9,1.3,2.6,0.2C152.1,106.1,152.9,104.3,154,102.1z M115.4,75.1c0.2-0.1,0.5-0.1,0.7-0.2c0-3.8,0-7.5,0-12.1
			c-2,2.2-3.9,3.8-3.3,6.3C113.3,71.2,114.5,73.1,115.4,75.1z M347.7,13.4c-2-2.9-3.8-5.6-5.7-8.2c-0.4-0.5-1.3-0.9-1.9-0.9
			c-0.4,0-1.1,0.8-1.2,1.3c-0.1,0.9-0.1,2.3,0.4,2.6C341.9,10.1,344.7,11.6,347.7,13.4z M127.6,81c1.3-3-1.7-5.6,0.2-8.3
			c0.2-0.3-0.3-1.1-0.5-1.6c-0.4,0.4-1,0.7-1.3,1.1C122.8,77.3,122.8,77.3,127.6,81z M235.9,5.7c-2.1,2.6,0.3,4.6,1.4,6.7
			c0.9,1.6,2.1,1.5,5.2,0.5C240.4,10.6,238.2,8.2,235.9,5.7z M393.6,55.7c0.1-1.2-3.1-3.2-4.4-2.8c-0.9,0.2-3,4.6-2.5,5.2
			c1.2,1.5,2.2-0.1,3.3-0.4c0.9-0.2,1.8-0.6,2.7-1C393.1,56.5,393.3,56,393.6,55.7z M187.9,56.4c-0.7-4.2-3-7.5-6.1-10.2
			C183,50.1,184.1,54.1,187.9,56.4z M176.8,70.3c-0.7,0.1-0.8,0.1-0.9,0.2c-1.2,0.7-2.5,1.4-3.5,2.2c-0.5,0.4-0.9,1.4-0.7,1.8
			c0.8,1.7,2.5,2.5,3.4,1.7c1-0.8,2.2-1.6,2.5-2.7C177.8,72.6,177.1,71.4,176.8,70.3z M432.8,85.1c1,1,1.8,1.9,2.8,2.7
			c0.9,0.8,2,1.4,3,2.1c0.4-1.2,0.8-2.3,1.1-3.5c0.1-0.2-0.2-0.5-0.4-1C437.3,86,435.4,83.4,432.8,85.1z M249.4,75.4
			c-0.8,2-1.3,3.1-1.6,4.3c-0.3,1-2,2.2-0.1,3.2c1.5,0.8,2.2-0.8,3.1-1.5c1.1-0.8,1.1-1.7,0.2-2.8C250.4,78,250.1,77,249.4,75.4z
			 M326.5,43.6c0.2-4.2,0.2-4.2-2.8-4.9c-0.3-0.1-0.6-0.4-0.9-0.3c-0.5,0.1-1.4,0.2-1.5,0.5c-0.1,0.5,0,1.4,0.4,1.7
			C323.1,41.5,324.6,42.3,326.5,43.6z M382.5,58.6c0.3-0.1,0.6-0.2,0.9-0.3c-0.7-2.1-1.2-4.4-2.3-6.2c-0.5-0.8-2.6-0.5-4-0.8
			C379,53.9,380.7,56.3,382.5,58.6z M416.3,68.1c1.3-0.2,2.3-0.3,3.2-0.5c0.4-0.1,0.9-0.6,0.9-1c0-0.3-0.4-0.9-0.7-1.1
			c-0.7-0.5-1.4-0.9-2.1-1.1c-1-0.3-3.2,1.3-3,2.3C414.7,67.3,415.8,67.7,416.3,68.1z M176.9,56.2c-0.5-0.8-1-1.7-1.4-2.5
			c-0.3,0.8-0.7,1.7-0.9,2.5c-0.4,1.1-0.7,2.1-1,3.2c-0.1,0.5,0.1,1,0.2,1.6c0.6-0.2,1.6-0.2,1.7-0.5
			C176,59.2,176.4,57.9,176.9,56.2z M280.2,21.5c-0.3-0.3-0.8-0.8-0.9-0.8c-1.8,0.9-3.6,1.9-5.3,2.9c-0.2,0.1-0.2,0.8-0.1,0.8
			c0.3,0.2,0.9,0.5,1.2,0.4c1.4-0.6,2.9-1.4,4.2-2.1C279.6,22.5,279.8,22,280.2,21.5z M53.5,504.8c0.4,0,0.9-0.1,1.3-0.1
			c-0.2-1.8-0.6-3.5-0.5-5.3c0.1-2,0.5-4,0.8-6C52.5,497,53.6,500.9,53.5,504.8z M384.9,53.4c1.2-0.8,2.1-1.5,3.1-2
			c0.9-0.5,1-1.3,0.3-1.9c-0.5-0.4-1.6-0.7-2-0.4c-0.8,0.6-1.5,1.6-2,2.6C384.1,52,384.6,52.7,384.9,53.4z M270,64.6
			c-1.2-1.8-1.9-3.1-2.8-4.3c-0.6-0.8-1.2-0.7-1.7,0.3c-0.9,1.8-0.8,2.6,1,3.3C267.5,64.2,268.4,64.2,270,64.6z M129.6,505.7
			c-3,5.2-3,5.2,1.3,5.5C130.5,509.5,130.1,507.8,129.6,505.7z M145.9,516.9c0.8-2.5,2.2-4.4,0.6-6.4c-0.3-0.3-0.7-0.6-1-0.9
			c-0.3,0.5-0.9,1-0.8,1.5C144.9,512.8,145.4,514.5,145.9,516.9z M330.3,27.6c-0.1-0.1-0.1-0.4-0.2-0.4c-1.4-0.6-2.8-1.2-4.2-1.8
			c-0.1,0-0.7,0.9-0.7,1c1.1,0.9,2.2,1.7,3.3,2.4c0.2,0.1,0.9-0.2,1.2-0.4C330.1,28.3,330.2,27.9,330.3,27.6z M239.2,122.4
			c1.9,0.7,2.8,1.3,3.9,1.5c0.6,0.1,1.4-0.5,1.9-1c0.3-0.4,0.2-1.2,0.2-1.7c-0.7,0-1.4-0.2-2.1-0.1
			C242.1,121.2,241.1,121.7,239.2,122.4z M285.7,67.5c1.3,0.4,2.5,0.8,3.7,1c0.7,0.1,1.5-0.1,2.2-0.2c-0.4-0.8-0.7-1.7-1.3-2.3
			c-0.2-0.3-1.1-0.2-1.6,0C287.7,66.3,286.8,66.9,285.7,67.5z M324.7,22.5c2.5-0.7,5.6,3.9,8-0.4C329.9,22.3,327.3,22.4,324.7,22.5z
			 M178.8,85.7c2.3-1.5,0.8-3.3,0.5-5c-0.1-0.3-0.7-0.5-1-0.7c-0.2,0.4-0.7,0.8-0.6,1.2C178,82.6,178.4,84.2,178.8,85.7z M97.3,37.6
			c-1.6,1.8-2.4,2.8-3.2,3.7c-0.8,0.8-0.6,1.5,0.3,1.8c0.5,0.2,1.5-0.3,1.7-0.7C96.6,41.2,96.7,39.8,97.3,37.6z M186.8,23.8
			c-0.6,1.8-0.8,2.7-1.1,3.6c1.3,0.3,2.6,0.6,4.5,1c-0.7-1.1-1-1.5-1.3-1.9C188.4,25.8,187.9,25.2,186.8,23.8z M178.4,55.2
			c3-3.4,3-3.4,1.3-6.1C179.4,51,179,52.8,178.4,55.2z M363.3,5.4c-1.6,1.2-3.8,2-3.2,4.9C362.4,9.2,363,7.4,363.3,5.4z M35.9,16
			c-1.1,1.6-1.7,2.2-2.1,3c-0.2,0.3,0,0.8,0.1,1.1c0.6-0.1,1.5-0.1,1.6-0.5C35.8,18.9,35.7,18,35.9,16z M97.6,20.7
			c0.9-0.8,1.7-1.2,1.7-1.5c0-0.7-0.5-1.4-0.8-2.1c-0.4,0.4-1.1,0.6-1.3,1.1C97.1,18.8,97.4,19.5,97.6,20.7z M321.5,162.5
			c-0.4-0.4-0.8-0.8-1.1-1.2c-0.9,1-1.8,2-2.7,3c0.3,0.3,0.6,0.6,0.9,0.9C319.6,164.3,320.5,163.4,321.5,162.5z M139.5,509.1
			c-0.3-0.3-0.7-0.5-1-0.8c-0.9,1-2.6,1.4-2.4,3.7C137.5,510.9,138.5,510,139.5,509.1z M366.8,21.4c0.7-0.1,1.3-0.2,1.9-0.4
			c0.1,0,0.1-0.7,0.1-0.7c-0.7-0.2-1.4-0.5-2-0.5c-0.5,0.1-1,0.6-1.5,1C365.9,21.1,366.4,21.3,366.8,21.4z M56.5,499.8
			c0.1,0,0.3,0,0.4,0c0-1.1,0-2.3,0-3.4c-0.1,0-0.3,0-0.4,0C56.5,497.5,56.5,498.7,56.5,499.8z M304.9,22.4
			c-0.9-0.5-1.4-0.7-1.9-0.9c-0.2-0.1-0.5,0.2-0.8,0.3c0.3,0.4,0.6,0.9,1,1.2C303.5,23.1,304,22.7,304.9,22.4z M245.1,143.7
			c-0.1-0.3-0.2-0.7-0.4-0.7c-0.2-0.1-0.5,0.2-0.8,0.3c0.2,0.3,0.4,0.7,0.6,1C244.7,144,244.9,143.9,245.1,143.7z M136.2,93.7
			c0.4-0.2,0.9-0.3,0.9-0.5c0.1-0.4-0.1-0.8-0.2-1.2c-0.3,0.1-0.9,0.2-0.9,0.4C135.9,92.7,136.1,93.2,136.2,93.7z M277.8,164.4
			c-0.3-0.1-0.5-0.3-0.8-0.3c-0.3,0-0.5,0.2-0.8,0.2c0.3,0.2,0.6,0.4,0.9,0.5C277.3,164.8,277.6,164.5,277.8,164.4z M336.5,43.4
			c0.2-0.1,0.6-0.2,0.7-0.4c0.1-0.2,0-0.5-0.1-0.8c-0.3,0.2-0.7,0.3-0.9,0.5C336.2,42.9,336.4,43.2,336.5,43.4z M48.9,495.2
			c-0.1-0.1-0.1-0.3-0.2-0.3c-0.1,0-0.3,0-0.4,0c0.1,0.2,0.2,0.3,0.3,0.5C48.7,495.4,48.8,495.3,48.9,495.2z M370.1,51.9
			c-0.1-0.1-0.2-0.3-0.3-0.3c-0.2,0-0.5,0.2-0.7,0.2c0.1,0.1,0.2,0.3,0.3,0.3C369.6,52.1,369.8,52,370.1,51.9z M459.2,89.6
			c-0.1,0-0.3-0.1-0.4-0.1c0,0.2,0,0.4-0.1,0.6c0.1,0,0.3,0,0.4-0.1C459.2,89.9,459.1,89.7,459.2,89.6z"/>
		<path d="M17.5,0c0.4,3.8,0.8,7.6,3.4,10.8c1.1,1.4,2.5,3.1-0.8,4.3c-1.2,0.4-1.7,2.6-2.7,3.8c-1.7,2.1-2.9,1.8-4-0.6
			c-0.3-0.6-0.5-1.2-0.8-1.7c-0.5-0.9-1.2-1-1.9-0.4c-0.4,0.3-0.7,0.8-1.1,1c-1.6,0.7-3.2,1.3-4.8,2C4.2,17.4,3.1,15.7,3,14
			c-0.1-2.5,1.1-5.2,0.6-7.5C3.2,4.1,1.3,2.1,0,0c0.6,0,1.3,0,1.9,0c0.8,1,0.8,3,2.8,2.7C6.2,2.5,6.8,1.4,6.8,0c1,0,1.9,0,2.9,0
			c-0.5,0.9-1,1.9-1.6,2.7C7.5,3.5,6.3,4,6.2,4.7C5.6,8,5.3,11.3,5,14.6c-0.1,1.5,0.8,2.1,2.2,1.6c1.1-0.5,2.4-1.1,3.1-2.1
			c3-4.2,5.6-8.6,5.3-14.1C16.2,0,16.8,0,17.5,0z M16.3,7.8c-1.1,1.6-2.2,3.1-3,4.8c-0.3,0.5-0.2,1.5,0.2,2.1c0.5,1,1.3,1.8,2,2.7
			C19.3,12.5,19.3,12,16.3,7.8z"/>
		<path d="M309.4,0c-0.7,3,1.6,4.7,2.9,6.8c0,0,0,0,0,0c-0.3,0.3-0.6,0.6-1,1c0,0,0,0,0,0c-3.3-1.6-4.4-4.3-3.9-7.8
			C308.1,0,308.8,0,309.4,0z"/>
		<path d="M377.2,71.9c-3.1,1.8-5.9,0.2-8.7-0.8c-1.3-0.5-2.1-1.6-1.4-3.5c1-2.7,1.6-5.5,2.5-8.2c0.2-0.5,1.2-0.8,1.8-1.2
			c0,0,0,0.1,0,0.1c-0.4,2-0.6,4.1-1.2,6c-1.3,4.6-0.3,6,4.3,5.5c0.9-0.1,1.8-0.6,2.7-0.9l0,0c0.3,0.3,0.5,0.6,0.8,0.8l0.2,0.3
			c-0.1,0.3-0.1,0.6-0.1,0.8l0,0c-0.3,0.3-0.6,0.6-0.9,0.9L377.2,71.9z"/>
	</g>
</g>
</svg>
